<svg id="Layer_1" enable-background="new 0 0 74 74" height="512" viewBox="0 0 74 74" width="512" xmlns="http://www.w3.org/2000/svg"><g><g><g><path d="m67.84 44.8c-5.44 1.82-11.4 1.15-17.19.45-6.37-.77-13.06-1.5-18.95.99-1.81.76-5.28 1.45-6.09 3.25 1.98-4.08.2-9.14-2.81-12.53-3.03-3.39-7.08-5.64-10.67-8.43-3.15-2.43-6.1-5.58-7.09-9.37-.21-.84.29-1.7 1.11-1.95 1.73-.54 3.26-1.48 4.67-2.65.68-.54 1.67-.49 2.26.14.91.98 1.69 2.05 2.26 3.27-.52-1.21-.73-2.26-.93-3.5-.11-.75.3-1.49 1.01-1.78 1.15-.47 2.3-1.01 3.46-1.51 1.04-.44 2.18.3 2.27 1.42.14 1.62.45 3.2.77 4.85.42-2.46 1.17-4.98 2.06-7.36.29-.78 1.14-1.2 1.95-.99 4.3 1.1 8.69 1.82 13.08 2.33 1.11.14 1.76 1.29 1.32 2.31-2.19 5.1-3.87 10.34-5.57 15.65 3.79-5.49 8.27-10.32 13.07-14.93.6-.57 1.5-.58 2.15-.1.44.33.91.62 1.41.88 1 .54 1.23 1.88.4 2.66-.96.92-1.87 1.88-2.84 2.88 1.74-.8 3.38-1.4 5.1-2.14.57-.24 1.25-.15 1.72.25 3.46 2.94 7.17 5.79 10.9 8.4.86.59.95 1.83.19 2.56-2.53 2.46-5.33 4.51-8.54 6.1 2.61.05 5.21.38 7.82.67.74.09 1.3.65 1.45 1.39.3 1.58.78 3.17 1.3 4.69.33.88-.17 1.81-1.05 2.1z" fill="#ffbb04"/></g><g><path d="m33.76 30.03-2.44 3.52 1.58-4.95c1.57-4.9 3.34-10.46 5.6-15.73.09-.24.1-.5-.02-.73.14.02.3.04.45.06.28.03.53.2.67.43.14.24.16.53.04.8-2.26 5.26-4.03 10.81-5.6 15.72z" opacity=".1"/><path d="m47.44 21.25-3.07 1.41 3.55-3.64c.74-.76 1.46-1.51 2.2-2.23.28-.25.29-.56.26-.72-.04-.29-.21-.56-.48-.7-.34-.18-.66-.37-.97-.58.2-.01.41.05.6.21.47.34.99.66 1.51.93.27.15.46.4.5.71.01.15.02.45-.26.7-.76.72-1.48 1.47-2.22 2.23z" opacity=".1"/><path d="m65.19 28.74c.2-.18.31-.46.27-.73-.02-.26-.14-.49-.37-.64-3.67-2.55-7.18-5.26-10.49-8.05.24-.05.5.03.68.17 3.45 2.93 7.13 5.77 10.97 8.45.21.14.34.36.37.63.02.28-.09.55-.28.73-2.59 2.52-5.32 4.46-8.35 5.96l-1.8.89-2.19-.03 2.83-1.41c3.04-1.51 5.78-3.45 8.36-5.97z" opacity=".1"/><path d="m68.13 43.61c-.11.21-.3.38-.54.46-5.38 1.8-11.47 1.06-16.85.42-3.74-.45-7.78-.95-11.77-.67-2.56.18-5.12.68-7.56 1.7-.42.18-.94.36-1.48.54-.94.31-1.93.65-2.81 1.09.05-.36.09-.74.09-1.09.53-.21 1.06-.38 1.57-.56.55-.19 1.06-.35 1.47-.54 2.44-1.02 5-1.53 7.58-1.7 4-.28 8.03.2 11.77.66 5.38.65 11.47 1.39 16.85-.41.24-.08.43-.25.54-.47.1-.19.11-.43.03-.64-.64-1.88-1.06-3.4-1.33-4.81-.02-.09-.04-.18-.1-.26l.45.06c.39.05.71.34.78.75.27 1.42.69 2.95 1.34 4.81.1.22.08.45-.03.66z" opacity=".1"/></g><g><g><path d="m46.17 18.74c-5.44 6.44-10.04 13.52-14.3 20.79s-8.31 14.7-12.62 21.98c-.22.37-.69.49-1.06.27s-.49-.69-.27-1.06c0 0 .01-.01.01-.01 4.4-7.19 8.56-14.54 12.96-21.78 4.39-7.23 9.14-14.3 14.72-20.69.14-.16.37-.17.53-.04.14.15.16.38.03.54z" fill="#eda400"/></g><g><path d="m30.97 40.63c-.1.01-.2-.02-.28-.09-.16-.14-.19-.38-.05-.55 6.53-7.81 15.25-14.3 23.92-17.81.2-.08.42.02.5.21.08.2-.02.42-.21.5-8.56 3.46-17.17 9.87-23.62 17.59-.06.1-.16.14-.26.15z" fill="#eda400"/></g><g><path d="m27.95 45.47c-.17.01-.34-.09-.39-.27-.07-.2.05-.42.25-.49 12.2-3.95 25.34-4.92 38-2.8.21.04.35.23.32.45-.03.21-.23.36-.45.32-12.53-2.1-25.55-1.14-37.63 2.77-.03.01-.06.02-.1.02z" fill="#eda400"/></g><g><path d="m30.47 41.36c-.21.01-.39-.14-.41-.35s.14-.4.35-.42c5.52-.53 10.52-3.45 15.35-6.28l.8-.47c5.19-3.03 10.75-5.97 16.84-5.75.21.01.38.19.37.4s-.18.37-.4.37c-5.86-.21-11.33 2.67-16.42 5.64l-.8.47c-4.9 2.88-9.97 5.85-15.68 6.39.01 0 .01 0 0 0z" fill="#eda400"/></g><g><path d="m32.32 38.33c-.06 0-.13-.01-.19-.03-.19-.09-.28-.32-.19-.51 1.16-2.52.95-5.45.75-8.29-.05-.73-.1-1.46-.13-2.18-.19-4.62.61-9.33 2.32-13.63.08-.2.31-.3.5-.22.2.08.3.3.22.5-1.66 4.2-2.45 8.8-2.26 13.31.03.71.08 1.44.13 2.16.21 2.93.42 5.97-.82 8.67-.07.13-.19.21-.33.22z" fill="#eda400"/></g><g><path d="m30.48 41.34c-.07 0-.14-.01-.2-.04-.19-.1-.27-.33-.17-.52 1.8-3.6 1.92-8.3.34-13.99-.51-1.86-1.16-3.72-1.78-5.52-.95-2.75-1.94-5.6-2.49-8.53-.04-.21.1-.41.31-.45.22-.03.41.1.45.31.54 2.87 1.52 5.69 2.46 8.42.63 1.81 1.28 3.68 1.8 5.56 1.63 5.88 1.49 10.77-.4 14.54-.07.13-.19.21-.32.22z" fill="#eda400"/></g><g><path d="m29.28 43.06c-.07.01-.15-.01-.22-.05-.19-.11-.25-.34-.14-.53 1.06-1.85 1.19-4.39.36-6.98-.69-2.15-1.92-4.13-3.11-6.05l-.33-.53c-2.87-4.64-5.51-9.5-7.85-14.42-.09-.19-.01-.42.18-.51s.42-.01.51.18c2.33 4.9 4.96 9.73 7.81 14.35l.33.53c1.21 1.96 2.47 3.98 3.19 6.22.9 2.8.74 5.57-.43 7.6-.06.11-.18.18-.3.19z" fill="#eda400"/></g><g><path d="m27.6 45.64c-.06 0-.12-.01-.18-.03-.2-.08-.29-.31-.21-.51.7-1.67.66-3.71-.11-5.75-.77-2.03-2.15-3.77-3.26-5.06-1.9-2.2-4.04-4.21-6.36-5.97-.48-.36-.98-.72-1.48-1.08-1.16-.84-2.36-1.72-3.44-2.71-1.82-1.69-2.97-3.48-3.41-5.33-.05-.21.08-.42.29-.47.2-.05.42.08.47.29.41 1.7 1.48 3.37 3.19 4.95 1.05.97 2.23 1.83 3.37 2.66.5.37 1.01.73 1.5 1.11 2.36 1.79 4.54 3.84 6.48 6.08 1.15 1.33 2.58 3.14 3.4 5.29.84 2.22.88 4.47.1 6.32-.08.11-.21.2-.35.21z" fill="#eda400"/></g></g><g opacity=".1"><path d="m60.56 22.77c-1.41 1.18-2.68 2.5-3.72 4.03-1.2 1.77-2.03 3.79-3.31 5.49-2.19 2.93-5.48 4.8-8.27 7.17-1.63 1.38-3.13 3.13-3.99 5.07-3.29.01-6.53.44-9.56 1.72-1.81.76-5.28 1.45-6.09 3.25 1.98-4.08.2-9.14-2.81-12.53-3.03-3.39-7.08-5.64-10.67-8.43-3.15-2.43-6.1-5.58-7.09-9.37-.21-.84.29-1.7 1.11-1.95 1.73-.54 3.26-1.48 4.67-2.65.68-.54 1.67-.49 2.26.14.91.98 1.69 2.05 2.26 3.27-.52-1.21-.73-2.26-.93-3.5-.11-.75.3-1.49 1.01-1.78 1.15-.47 2.3-1.01 3.46-1.51 1.04-.44 2.18.3 2.27 1.42.14 1.62.45 3.2.77 4.85.42-2.46 1.17-4.98 2.06-7.36.29-.78 1.14-1.2 1.95-.99 4.3 1.1 8.69 1.82 13.08 2.33 1.11.14 1.76 1.29 1.32 2.31-2.19 5.1-3.88 10.34-5.57 15.65 3.79-5.49 8.27-10.32 13.07-14.93.6-.57 1.5-.58 2.15-.1.44.33.91.62 1.41.88 1 .54 1.23 1.88.4 2.66-.96.92-1.87 1.88-2.84 2.88 1.74-.8 3.38-1.4 5.1-2.14.57-.24 1.25-.15 1.72.25 1.56 1.32 3.16 2.61 4.78 3.87z" fill="#fff"/></g><path d="m56.24 26.66c.16 2.78-4.1 4.16-4.2 6.95-.03 1.09.6 2.12.53 3.19-.09 1.6-1.61 2.7-3.05 3.38-4.6 2.16-9.8 2.51-14.84 3.17-2.77.36-5.6.87-8.24 1.81-.17-2.95-1.62-5.94-3.62-8.19-3.03-3.39-7.08-5.64-10.67-8.43-2.75-2.12-5.34-4.8-6.63-7.96 2.41-.83 4.96-1.2 7.5-1.05 2.66.17 5.37.87 7.94.18 2.18-.59 3.97-2.09 5.85-3.32s4.19-2.25 6.36-1.64c.7.18 1.37.59 1.68 1.23.27.59.18 1.29.09 1.93-.7 4.64-1.4 9.27-2.09 13.91 2.5-.58 4.73-2.3 5.93-4.57.49-.93.81-1.95 1.39-2.83s1.48-1.64 2.54-1.67c1.04-.03 2.1.99 1.85 2 1.43.32 2.95-.03 4.38-.41 1.42-.38 2.91-.79 4.37-.54 1.41.26 2.84 1.37 2.93 2.86z" fill="#fff" opacity=".1"/><g opacity=".1"><path d="m32.85 35.65c.67 2.53-.94 5.25-3.17 6.61-1.07.65-2.25 1.04-3.48 1.28-.49-2.4-1.76-4.73-3.39-6.58-3.03-3.39-7.08-5.64-10.67-8.43-3.15-2.43-6.1-5.58-7.09-9.37-.21-.84.29-1.7 1.11-1.95 1.73-.54 3.26-1.48 4.67-2.65.68-.54 1.67-.49 2.26.14.91.98 1.69 2.05 2.26 3.27-.52-1.21-.73-2.26-.93-3.5-.11-.75.3-1.49 1.01-1.78 1.15-.47 2.3-1.01 3.46-1.51 1.04-.44 2.18.3 2.27 1.42.14 1.62.45 3.2.77 4.85.42-2.46 1.17-4.98 2.06-7.36.29-.78 1.14-1.2 1.95-.99 3.49.89 7.06 1.53 10.63 2.02-1.84 2.94-3.43 6.04-4.73 9.26-1.51 3.69-2.63 7.95-.91 11.54.61 1.28 1.55 2.39 1.92 3.73z" fill="#fff"/></g></g><g><g><path d="m62.02 64.95c-4.36-.52-8.25-2.94-12.02-5.32-4.15-2.61-8.53-5.31-13.42-5.52-1.5-.07-4.12-.73-5.27.25 2.7-2.17 3.13-6.25 2.16-9.57-.98-3.33-3.04-6.21-4.61-9.31-1.38-2.71-2.39-5.85-1.83-8.8.13-.65.75-1.08 1.4-.99 1.37.19 2.74.04 4.1-.3.64-.15 1.32.21 1.52.83.31.97.5 1.97.49 3 .04-1 .23-1.8.51-2.72.17-.56.7-.93 1.28-.9.95.05 1.92.05 2.89.09.86.03 1.41.92 1.1 1.73-.43 1.17-.73 2.36-1.05 3.6 1.1-1.57 2.44-3.06 3.83-4.41.45-.45 1.18-.45 1.67-.05 2.61 2.16 5.41 4.1 8.28 5.89.72.46.8 1.47.16 2.03-3.18 2.81-6.06 5.87-8.97 8.99 4.42-2.55 9.09-4.42 13.91-6.04.6-.2 1.22.09 1.52.63.2.37.43.73.69 1.07.51.7.23 1.71-.59 1.97-.96.32-1.91.69-2.91 1.06 1.47.02 2.79.14 4.22.19.47.02.91.31 1.11.74 1.43 3.16 3.06 6.34 4.78 9.37.4.69.06 1.57-.7 1.83-2.55.87-5.16 1.37-7.9 1.42 1.79.89 3.47 1.97 5.18 3.02.48.3.69.88.54 1.43-.31 1.19-.5 2.45-.63 3.66-.09.73-.73 1.21-1.44 1.13z" fill="#ea7d18"/></g><g><path d="m43.31 43.59-2.84 1.63 2.71-2.9c2.69-2.87 5.73-6.13 9.01-9.04.14-.14.24-.31.22-.51.09.06.19.13.29.19.19.11.3.31.32.52s-.06.42-.24.57c-3.28 2.9-6.32 6.15-9.01 9.03z" opacity=".1"/><path d="m55.63 42-2.58-.03 3.64-1.36c.76-.29 1.51-.57 2.25-.82.27-.08.38-.3.41-.41.07-.21.04-.46-.11-.64-.18-.23-.34-.47-.48-.72.14.06.26.17.35.34.22.39.47.78.74 1.14.14.19.19.43.11.65-.04.11-.14.32-.41.4-.76.25-1.5.53-2.26.82z" opacity=".1"/><path d="m65.45 52.98c.2-.06.36-.21.43-.42.07-.19.06-.38-.05-.56-1.7-2.96-3.24-5.98-4.61-9 .18.05.34.18.41.34 1.42 3.15 3.04 6.32 4.81 9.43.1.17.11.36.05.55-.08.2-.24.35-.43.42-2.61.9-5.14 1.34-7.72 1.39l-1.53.02-1.5-.74 2.42-.04c2.58-.05 5.11-.5 7.72-1.39z" opacity=".1"/><path d="m62.61 64.22c-.14.11-.33.16-.52.14-4.31-.52-8.27-3.02-11.78-5.22-2.43-1.54-5.06-3.2-7.91-4.32-1.83-.72-3.76-1.2-5.78-1.3-.35-.01-.76-.06-1.2-.11-.75-.09-1.54-.18-2.3-.16.15-.23.3-.48.42-.72.43.03.86.08 1.27.13.44.05.85.1 1.19.11 2.02.09 3.95.58 5.79 1.3 2.85 1.12 5.48 2.77 7.92 4.31 3.51 2.21 7.47 4.71 11.78 5.23.19.02.38-.03.53-.15.13-.1.22-.26.23-.43.17-1.51.38-2.7.66-3.76.01-.07.03-.14.02-.21l.29.19c.25.16.38.47.29.78-.28 1.07-.49 2.26-.65 3.76-.01.16-.1.32-.25.43z" opacity=".1"/></g><g><g><path d="m55.58 39.84c-5.86 2.67-11.36 6.06-16.68 9.69-5.33 3.63-10.55 7.43-15.91 11.06-.27.18-.64.11-.82-.16s-.11-.64.16-.82c0 0 .01 0 .01-.01 5.4-3.53 10.68-7.25 16.08-10.81s10.99-6.89 16.94-9.48c.15-.06.32 0 .38.15.05.15-.02.32-.16.38z" fill="#d86c13"/></g><g><path d="m37.91 50c-.07-.03-.13-.08-.16-.15-.07-.15 0-.32.14-.39 7.07-3.26 15.22-4.89 22.35-4.48.17.01.29.15.28.31s-.15.29-.31.28c-7.05-.41-15.09 1.2-22.07 4.42-.07.03-.16.03-.23.01z" fill="#d86c13"/></g><g><path d="m34.25 52.35c-.12-.05-.2-.18-.19-.31.02-.16.17-.28.33-.26 9.72 1.26 19.12 4.89 27.17 10.5.13.09.17.28.07.41-.09.13-.28.17-.41.07-7.97-5.55-17.27-9.15-26.9-10.4-.03.01-.05 0-.07-.01z" fill="#d86c13"/></g><g><path d="m37.33 50.34c-.15-.06-.23-.23-.17-.38s.23-.23.38-.18c3.99 1.44 8.4 1.06 12.66.68l.71-.06c4.57-.4 9.38-.61 13.52 1.54.15.07.2.25.13.4-.08.14-.25.2-.4.13-3.98-2.06-8.7-1.86-13.19-1.47l-.71.06c-4.34.38-8.81.77-12.93-.72z" fill="#d86c13"/></g><g><path d="m39.6 48.85c-.04-.02-.09-.05-.12-.09-.1-.13-.09-.31.04-.42 1.63-1.36 2.44-3.46 3.23-5.48.2-.52.41-1.04.62-1.55 1.38-3.25 3.48-6.25 6.06-8.66.12-.11.31-.1.42.01.11.12.11.31-.01.42-2.52 2.35-4.57 5.28-5.92 8.46-.21.5-.41 1.02-.62 1.53-.82 2.1-1.66 4.26-3.4 5.72-.09.08-.2.1-.3.06z" fill="#d86c13"/></g><g><path d="m37.34 50.32c-.05-.02-.09-.05-.13-.09-.1-.13-.08-.31.05-.42 2.42-1.89 4.04-5.11 4.82-9.55.25-1.45.42-2.95.57-4.39.24-2.22.49-4.51 1.07-6.71.04-.16.2-.25.36-.21.16.05.25.2.21.36-.57 2.16-.81 4.43-1.05 6.62-.16 1.46-.32 2.96-.58 4.43-.8 4.59-2.49 7.93-5.03 9.92-.08.07-.19.08-.29.04z" fill="#d86c13"/></g><g><path d="m35.95 51.12c-.05-.02-.1-.06-.13-.11-.09-.13-.06-.32.07-.41 1.34-.93 2.26-2.64 2.54-4.71.23-1.71.03-3.48-.17-5.2l-.05-.48c-.46-4.15-.7-8.36-.7-12.53 0-.16.13-.3.3-.3.16 0 .3.13.3.3.01 4.15.24 8.34.7 12.47l.05.47c.2 1.75.4 3.56.17 5.34-.29 2.23-1.31 4.09-2.78 5.11-.11.07-.21.08-.3.05z" fill="#d86c13"/></g><g><path d="m33.95 52.35c-.04-.02-.08-.04-.11-.08-.11-.12-.1-.31.02-.42 1.03-.93 1.67-2.35 1.81-4.01.13-1.65-.25-3.31-.6-4.56-.59-2.14-1.42-4.23-2.44-6.2-.22-.42-.44-.83-.67-1.25-.53-.96-1.07-1.96-1.49-3-.7-1.76-.91-3.38-.61-4.8.03-.16.19-.26.35-.23s.26.19.23.35c-.27 1.31-.08 2.81.58 4.46.41 1.01.94 1.99 1.46 2.94.23.42.46.84.68 1.26 1.04 2.01 1.88 4.14 2.49 6.32.36 1.3.76 3.02.62 4.76-.15 1.81-.86 3.37-2 4.4-.1.08-.22.1-.32.06z" fill="#d86c13"/></g></g><g opacity=".1"><path d="m64.2 47.34c-1.36.36-2.67.85-3.89 1.56-1.41.83-2.64 1.95-4.08 2.71-2.47 1.31-5.36 1.52-8.06 2.25-1.58.42-3.19 1.14-4.42 2.2-2.28-1.07-4.66-1.84-7.17-1.94-1.5-.07-4.12-.73-5.27.25 2.7-2.17 3.13-6.25 2.16-9.57-.98-3.33-3.04-6.21-4.61-9.31-1.38-2.71-2.39-5.85-1.83-8.8.13-.65.75-1.08 1.4-.99 1.37.19 2.74.04 4.1-.3.64-.15 1.32.21 1.52.83.31.97.5 1.97.49 3 .04-1 .23-1.8.51-2.72.17-.56.7-.93 1.28-.9.95.05 1.92.05 2.89.09.86.03 1.41.92 1.1 1.73-.43 1.17-.73 2.36-1.05 3.6 1.1-1.57 2.44-3.06 3.83-4.41.45-.44 1.18-.45 1.67-.05 2.61 2.16 5.41 4.1 8.28 5.89.72.46.8 1.47.16 2.03-3.18 2.81-6.06 5.87-8.97 8.99 4.42-2.55 9.09-4.42 13.91-6.04.6-.2 1.22.09 1.52.63.2.37.43.73.69 1.07.51.7.23 1.71-.59 1.97-.96.32-1.91.69-2.91 1.06 1.47.02 2.79.14 4.22.19.47.02.91.31 1.11.74.62 1.43 1.3 2.84 2.01 4.24z" fill="#fff"/></g><path d="m59.94 48.61c-.8 1.97-4.2 1.53-5.18 3.42-.38.74-.28 1.66-.68 2.38-.59 1.08-2 1.34-3.22 1.33-3.88-.01-7.59-1.47-11.29-2.67-2.03-.66-4.16-1.23-6.28-1.44.85-2.1.82-4.63.18-6.84-.98-3.33-3.04-6.21-4.61-9.31-1.21-2.37-2.12-5.06-1.98-7.67 1.94.21 3.82.8 5.52 1.73 1.78.99 3.42 2.36 5.43 2.72 1.7.31 3.42-.15 5.13-.38s3.63-.18 4.93.95c.42.36.76.86.76 1.4 0 .49-.3.95-.57 1.36-2 2.98-4 5.94-6 8.92 1.92.42 4.02-.04 5.6-1.21.65-.48 1.2-1.08 1.88-1.5s1.56-.65 2.3-.32c.73.32 1.13 1.37.62 1.98.89.69 2.05.94 3.16 1.15 1.1.2 2.27.41 3.19 1.06s1.54 1.89 1.11 2.94z" fill="#fff" opacity=".1"/><g opacity=".1"><path d="m40.84 47.17c-.36 1.97-2.37 3.32-4.35 3.53-.95.1-1.9-.02-2.82-.25.45-1.82.34-3.85-.19-5.65-.98-3.33-3.04-6.21-4.61-9.31-1.38-2.71-2.39-5.85-1.83-8.8.13-.65.75-1.08 1.4-.99 1.37.19 2.74.04 4.1-.3.64-.15 1.32.21 1.52.83.31.97.5 1.97.49 3 .04-1 .23-1.8.51-2.72.17-.56.7-.93 1.28-.9.95.05 1.92.05 2.89.09.86.03 1.41.92 1.1 1.73-.43 1.17-.73 2.36-1.05 3.6 1.1-1.57 2.44-3.06 3.83-4.41.45-.44 1.18-.45 1.67-.05 2.12 1.76 4.37 3.36 6.68 4.88-2.23 1.42-4.35 3.05-6.3 4.85-2.25 2.05-4.42 4.64-4.4 7.68-.02 1.07.26 2.14.08 3.19z" fill="#fff"/></g></g></g></svg>