<svg id="Capa_1" enable-background="new 0 0 512 512" height="512" viewBox="0 0 512 512" width="512" xmlns="http://www.w3.org/2000/svg"><g><g><g><path d="m442.148 276.576 1.717-18.032c1.621-17.021 8.463-32.081 19.665-43.283l29.488-29.488c12.644-12.644 15.35-33.054 6.99-52.722-7.292-17.156-9.205-35.066-5.453-51.042l17.256-73.469c1.179-5.02-3.33-9.529-8.35-8.35l-73.469 17.256c-15.976 3.752-33.886 1.839-51.042-5.453-19.668-8.359-40.078-5.653-52.722 6.99l-29.488 29.488c-11.202 11.202-26.262 18.044-43.283 19.665l-18.032 1.717c-27.93 2.659-45.797 25.524-42.687 54.629 1.73 16.193-3.044 31.036-13.271 41.264-35.53 35.53-58.687 81.531-67.917 133.166-4.078 22.815-14.489 44.026-29.572 61.623l-81.446 95.02c-.75.874-.699 2.179.115 2.993l16.347 16.347 25.674-5.56-5.56 25.674 16.347 16.347c.814.814 2.119.864 2.993.115l95.019-81.445c17.597-15.083 38.808-25.494 61.624-29.573 51.635-9.23 97.637-32.387 133.167-67.917 10.227-10.227 25.07-15.001 41.264-13.271 29.103 3.108 51.967-14.759 54.626-42.689z" fill="#97da7b"/></g></g><g><g><path d="m511.811 8.54c1.179-5.02-3.33-9.529-8.35-8.35l-37.823 8.884-12.291 52.331c-3.752 15.976-1.839 33.886 5.453 51.042 8.359 19.668 5.653 40.078-6.99 52.722l-29.488 29.488c-11.202 11.202-18.044 26.262-19.665 43.283l-1.717 18.032c-2.659 27.93-25.524 45.797-54.629 42.687-16.193-1.73-31.036 3.044-41.263 13.271-35.53 35.53-81.531 58.688-133.167 67.917-22.815 4.078-44.026 14.489-61.624 29.573l-70.681 60.583 3.091-.669-5.56 25.674 16.347 16.347c.814.814 2.119.864 2.993.115l95.019-81.445c17.597-15.083 38.808-25.494 61.624-29.573 51.635-9.229 97.637-32.387 133.167-67.917 10.227-10.227 25.07-15.001 41.264-13.271 29.105 3.109 51.969-14.757 54.629-42.687l1.717-18.032c1.621-17.021 8.463-32.081 19.665-43.283l29.488-29.488c12.644-12.644 15.35-33.054 6.99-52.722-7.292-17.156-9.205-35.066-5.453-51.042z" fill="#80d261"/></g></g><g><g><path d="m416.61 75.276-71.851 71.851c-8.359-16.787-5.552-37.763 8.422-51.737l13.923-13.923c5.554-5.555 5.554-14.559 0-20.114-5.554-5.554-14.56-5.554-20.114 0l-13.923 13.923c-25.138 25.138-28.163 64.143-9.077 92.619-7.34 7.34-56.605 56.605-62.773 62.773-8.358-16.788-5.551-37.763 8.422-51.737l13.924-13.923c5.554-5.554 5.555-14.559 0-20.114-5.553-5.552-14.56-5.554-20.113 0l-13.924 13.923c-25.138 25.138-28.163 64.142-9.077 92.619-7.45 7.45-56.506 56.506-62.787 62.787-3.074-6.145-4.7-12.966-4.7-20.037 0-11.979 4.665-23.242 13.136-31.714l13.924-13.924c5.554-5.555 5.554-14.56-.001-20.113-5.554-5.554-14.559-5.554-20.113 0l-13.924 13.924c-13.844 13.844-21.468 32.25-21.468 51.827 0 14.749 4.327 28.833 12.38 40.801l-139.903 139.907 20.114 20.113 181.687-181.687c12.29 8.237 26.54 12.356 40.791 12.356 18.769 0 37.538-7.145 51.828-21.433l13.923-13.923c5.554-5.555 5.554-14.559 0-20.114-5.554-5.554-14.56-5.554-20.113 0l-13.923 13.923c-13.974 13.975-34.95 16.781-51.737 8.423l62.773-62.773c12.289 8.238 26.538 12.356 40.791 12.356 18.767 0 37.54-7.146 51.827-21.433l13.924-13.923c5.554-5.554 5.555-14.559 0-20.114-5.553-5.552-14.557-5.554-20.114 0l-13.924 13.923c-13.974 13.974-34.949 16.781-51.736 8.422l113.62-113.62c5.554-5.555 5.554-14.559 0-20.114-5.554-5.553-14.56-5.553-20.114 0z" fill="#d5efc8"/></g></g><g><g><path d="m110.257 409.42-85.474 73.264 12.324 12.324 106.616-106.617c-12.092 5.264-23.373 12.378-33.466 21.029z" fill="#c1e9af"/></g></g></g></svg>