<svg id="圖層_1" height="512" viewBox="0 0 512 512" width="512" xmlns="http://www.w3.org/2000/svg"><path id="_x30_5" d="m115.253 328.235c1.915 22.426 71.84 116.769 110.923 109.965 24.014-4.183 48.632-32.808 44.373-50.145-6.375-25.854-70.252-62.441-77.534-98.727-6.501-32.706-77.762 38.907-77.762 38.907z" fill="#d8b07c"/><path id="_x30_4" d="m453.942 128.413c-33.614-26.156-69.8-53.118-151.669-54.932-47.069-1.008-108.528 22.376-121.858 81.239-.561 2.474-1.029 4.93-1.417 7.367-5.472.631-11.119 1.474-16.953 2.561-37.369 7.005-75.922 23.384-104.195 48.834-46.187 41.577-61.735 94.796-57.048 143.278 1.966 20.461 9.198 45.962 40.217 47.927 53.698 3.377 73.024-56.092 115.005-83.709 17.697-11.653 47.143-26.274 73.882-39.524 18.524 16.526 38.761 28.622 54.931 35.19 118.13 47.877 194.48 25.451 216.201-19.957 25.702-53.723 4.661-128.058-47.096-168.274z" fill="#8e5a3e"/><path id="_x30_3" d="m453.942 128.413c-33.614-26.156-69.8-53.118-151.669-54.932-47.069-1.008-108.528 22.376-121.858 81.239-18.47 81.491 59.014 143.479 104.421 161.924 118.13 47.877 194.48 25.451 216.201-19.957 25.703-53.723 4.662-128.058-47.095-168.274zm-11.565 147.006c-2.369 29.734-57.326 29.482-78.82 27.014-28.248-3.276-89.404-16.077-129.015-74.335-7.837-11.541-27.391-50.195 12.952-65.213 43.567-16.177 106.034 3.981 134.634 24.292 28.096 20.006 63.196 50.999 60.249 88.242z" fill="#da8443"/><path id="_x30_2" d="m440.99 258.915-81.188-15.22-4.737 25.349 84.264 15.8c1.637-2.772 2.771-5.847 3.049-9.425.452-5.669-.228-11.137-1.388-16.504zm-214.739-78.392 65.692 57.603 17.033-19.403-62.869-55.108c-10.558 4.283-16.63 10.255-19.856 16.908zm92.528 39.284 25.701 2.167 4.31-51.808c-7.938-3.074-16.379-5.795-25.224-7.962z" fill="#d8b07c"/><path id="_x30_1" d="m240.589 369.862c-2.469-17.135.227-63.398 21.191-96.51 16.127-25.399 10.634-45.709 13.657-59.669 2.168-9.877 41.653-18.596 70.732-3.628 20.662 10.634 37.318 41.124 32.455 53.975-6.93 18.596-47.02 27.365-48.607 66.271-1.563 38.15 18.243 43.693 14.791 61.987-3.25 17.034-37.041 40.821-67.984 38.856-6.553-.403-30.162-19.049-36.235-61.282z" fill="#f2d9b0"/></svg>