<svg id="Layer_1" height="512" viewBox="0 0 512 512" width="512" xmlns="http://www.w3.org/2000/svg" data-name="Layer 1"><path d="m492.01 260.29a6.425 6.425 0 0 1 -8.75 7.31s-90.49-90.44-115.97-138.01h-.01q-1.32-3.57-2.58-7.26a6.2 6.2 0 0 1 .7-5.39 6.106 6.106 0 0 1 5.11-2.74 6.216 6.216 0 0 1 2.74.64c49.56 38.61 117.69 143.79 118.75 145.43a.031.031 0 0 1 .01.02z" fill="#b89670"/><path d="m472.5 374.1a6.43 6.43 0 0 1 3.01 11 .031.031 0 0 0 -.02.01c-1.5.56-98.06 36.68-156.15 46.26-2.14-6.68-4.45-13.01-6.87-18.99 61.43-23.76 160.03-38.28 160.03-38.28z" fill="#c69c6d"/><path d="m373.25 114.84c88.79 43.83 112.72 117.57 118.75 145.43-1.06-1.64-69.19-106.82-118.75-145.43z" fill="#a67c52"/><path d="m402.56 198.44q-4.725-6.75-9.32-14.3-2.55-4.2-5.04-8.65a318.055 318.055 0 0 1 -20.92-45.9h.01c25.48 47.57 115.97 138.01 115.97 138.01-16.15-6.81-48.14-24.43-77.9-65.24q-1.41-1.92-2.8-3.92z" fill="#b58a64"/><path d="m310.44 407.52c69.94-46.84 136.6-38.98 162.06-33.42 0 0-98.6 14.52-160.03 38.28-.67-1.65-1.34-3.27-2.03-4.86z" fill="#b89670"/><path d="m319.34 431.37c58.09-9.58 154.65-45.7 156.15-46.26-17.7 16.32-66.19 51.29-155.2 49.27-.32-1.01-.63-2.02-.95-3.01z" fill="#a67c52"/><path d="m402.56 198.44q1.4 2 2.8 3.92c-27.85 13.42-84.77 30.2-169.29 5.31 42.79 6.29 132.62-4.66 166.49-9.23z" fill="#a67c52"/><path d="m393.24 184.14q4.59 7.56 9.32 14.3c-33.87 4.57-123.7 15.52-166.49 9.23q-3.645-1.065-7.37-2.25a6.142 6.142 0 0 1 -3.91-3.76 6.047 6.047 0 0 1 -.37-2.08 6.211 6.211 0 0 1 3.36-5.49c45.24-12.61 126.53-11.41 165.46-9.95z" fill="#8c6239"/><path d="m388.34 358.99a6.141 6.141 0 0 1 -4.66 10.14c-.16 0-.33-.01-.5-.02-60.8-17.58-164.17-90.96-164.17-90.96a6.433 6.433 0 0 1 5.41-10.04s117.54 50.38 158.83 85.09c1.7 1.89 3.39 3.82 5.09 5.79z" fill="#8c6239"/><path d="m268.91 177.34c1.65-.5 3.28-.98 4.91-1.43 6.51-1.81 12.9-3.28 19.13-4.44q5.805-1.065 11.43-1.8a210.51 210.51 0 0 1 83.82 5.82q2.49 4.455 5.04 8.65c-38.93-1.46-120.22-2.66-165.46 9.95a245.188 245.188 0 0 1 41.13-16.75z" fill="#af9474"/><path d="m355.08 22.09c1 70.96-26.76 119.25-50.7 147.58q-5.625.735-11.43 1.8c19.11-35.43 53.58-104.63 62.13-149.38z" fill="#8c6239"/><path d="m353.5 18.03a6.261 6.261 0 0 1 1.58 4.06c-8.55 44.75-43.02 113.95-62.13 149.38-6.23 1.16-12.62 2.63-19.13 4.44 11.23-33.12 41.02-117.18 65.42-152.42a.01.01 0 0 0 .01-.01q2.58-2.79 5.29-5.61a6.125 6.125 0 0 1 8.96.16z" fill="#ceb281"/><path d="m331.95 489.09a6.185 6.185 0 0 1 -1.76 5.13 6.148 6.148 0 0 1 -8.12.47c-41.1-48.18-87.06-166.41-87.06-166.41a6.414 6.414 0 0 1 10.03-5.4s70.45 106.83 85.84 158.57q.57 3.765 1.07 7.64z" fill="#af9474"/><path d="m320.29 434.38a321.271 321.271 0 0 1 10.59 47.07c-15.39-51.74-85.84-158.57-85.84-158.57 14.97 10.29 44.25 35.35 65.4 84.64.69 1.59 1.36 3.21 2.03 4.86 2.42 5.98 4.73 12.31 6.87 18.99.32.99.63 2 .95 3.01z" fill="#a67c52"/><path d="m339.24 23.49c-24.4 35.24-54.19 119.3-65.42 152.42-1.63.45-3.26.93-4.91 1.43.48-31.07 10.85-89.47 70.33-153.85z" fill="#a67c52"/><path d="m224.42 268.11c25.64.48 91.28 9.83 158.83 85.09-41.29-34.71-158.83-85.09-158.83-85.09z" fill="#ceb281"/><path d="m267.66 435.44c-28.28-44.66-32.44-87.49-32.65-107.16 0 0 45.96 118.23 87.06 166.41a244.474 244.474 0 0 1 -32.51-30.28c-1.15-1.28-2.27-2.57-3.36-3.85h-.01q-6.57-7.725-12.07-15.5h-.01c-2.28-3.21-4.42-6.42-6.45-9.62z" fill="#ceb281"/><path d="m286.2 460.56c1.09 1.28 2.21 2.57 3.36 3.85-28.36 12.68-85.62 27.86-168.99.99 42.18 7.31 130.87-1.08 165.62-4.84z" fill="#896143"/><path d="m219.01 278.15s103.37 73.38 164.17 90.96c-98.71-7.72-148.26-67.34-164.17-90.96z" fill="#a67c52"/><path d="m274.12 445.06q5.5 7.755 12.07 15.5c-34.75 3.76-123.44 12.15-165.62 4.84-2.42-.77-4.85-1.58-7.31-2.43a6.142 6.142 0 0 1 -3.81-3.86 5.976 5.976 0 0 1 -.32-1.94 6.175 6.175 0 0 1 3.5-5.55c44.13-11.1 121.33-8.98 161.48-6.56z" fill="#af9474"/><path d="m267.66 435.44c2.03 3.2 4.17 6.41 6.45 9.62-40.15-2.42-117.35-4.54-161.48 6.56 63.84-30.83 119.28-25.97 155.03-16.18z" fill="#a67c52"/><path d="m232.39 338.39a6.431 6.431 0 0 1 -1.76 11.27s-127.59-8.3-178.06-27.26c-2.23-1.21-4.47-2.47-6.73-3.76a6.14 6.14 0 0 1 -3.02-4.51 5.9 5.9 0 0 1 -.06-.83 6.159 6.159 0 0 1 4.58-5.93c62.71-3.67 183.25 30.51 185.03 31.01a.031.031 0 0 0 .02.01z" fill="#896143"/><path d="m208.21 289.36v.22a6.153 6.153 0 0 1 -5.17 6.07c-62.74-2.56-179.24-48.46-181.06-49.18a.031.031 0 0 0 -.02-.01 6.432 6.432 0 0 1 2.87-11.04s126.14 20.89 174.5 44.76c2.1 1.42 4.2 2.89 6.32 4.4a6.128 6.128 0 0 1 2.56 4.78z" fill="#af9474"/><path d="m209.08 372.04a6.211 6.211 0 0 1 -1.45 3.99c-49.6 39.34-169.3 80.97-169.3 80.97a6.424 6.424 0 0 1 -5.01-10.24s109.22-66.54 161.42-80.03q3.78-.435 7.66-.79a6.125 6.125 0 0 1 6.68 6.1z" fill="#c69c6d"/><path d="m230.63 349.66c-24.33 8.1-89.34 21.17-178.06-27.26 50.47 18.96 178.06 27.26 178.06 27.26z" fill="#ceb281"/><path d="m232.37 338.38c-1.78-.5-122.32-34.68-185.03-31.01 95.61-25.62 162.15 14.04 185.03 31.01z" fill="#a67c52"/><path d="m203.04 295.65c-97.67 16.04-159.96-30.01-181.06-49.18 1.82.72 118.32 46.62 181.06 49.18z" fill="#c69c6d"/><path d="m207.63 376.03c-63.61 75.96-140.85 81.72-169.3 80.97 0 0 119.7-41.63 169.3-80.97z" fill="#b89670"/><g fill="#a67c52"><path d="m194.74 366.73c-52.2 13.49-161.42 80.03-161.42 80.03 15.27-20.61 61.01-68.69 161.42-80.03z"/><path d="m199.33 280.18c-48.36-23.87-174.5-44.76-174.5-44.76 25-5.65 90.99-12.22 174.5 44.76z"/></g></svg>