<?xml version="1.0" encoding="UTF-8" standalone="no"?>
<!-- Created with Inkscape (http://www.inkscape.org/) -->

<svg
   version="1.1"
   id="svg6108"
   xml:space="preserve"
   width="682.66669"
   height="682.66669"
   viewBox="0 0 682.66669 682.66669"
   xmlns="http://www.w3.org/2000/svg"
   xmlns:svg="http://www.w3.org/2000/svg"><defs
     id="defs6112"><clipPath
       clipPathUnits="userSpaceOnUse"
       id="clipPath6122"><path
         d="M 0,512 H 512 V 0 H 0 Z"
         id="path6120" /></clipPath></defs><g
     id="g6114"
     transform="matrix(1.3333333,0,0,-1.3333333,0,682.66667)"><g
       id="g6116"><g
         id="g6118"
         clip-path="url(#clipPath6122)"><g
           id="g6124"
           transform="translate(297.6895,309.8809)"><path
             d="m 0,0 c -0.591,0.996 -1.222,1.971 -1.89,2.919 -7.431,10.546 -19.42,17.761 -32.217,19.389 -10.769,1.369 -21.686,-1.048 -32.522,-0.391 -10.836,0.657 -22.748,5.728 -26.062,16.065 -2.711,8.456 1.386,17.908 7.86,23.984 4.095,3.843 8.412,6.677 13.498,9.173 3.375,1.656 3.585,6.442 0.334,8.329 -26.634,15.457 -66.49,4.665 -88.102,-13.89 -11.64,-9.994 -21.28,-21.811 -35.606,-28.348 -8.402,-3.833 -17.784,-4.737 -26.293,-8.727 -8.792,-4.122 -16.826,-9.94 -23.084,-17.399 -11.404,-13.591 -16.368,-32.97 -10.74,-49.794 2.752,-8.226 10.431,-5.931 17.881,-5.836 8.252,0.105 235.26,2.825 240.295,3.063 C 8.684,-28.099 7.323,-12.342 0,0"
             style="fill:#edf6ff;fill-opacity:1;fill-rule:nonzero;stroke:none"
             id="path6126" /></g><g
           id="g6128"
           transform="translate(202.6973,389.3486)"><path
             d="m 0,0 c 3.251,-1.887 3.04,-6.673 -0.334,-8.329 -5.086,-2.496 -9.404,-5.331 -13.498,-9.173 -6.474,-6.076 -10.571,-15.528 -7.86,-23.983 3.314,-10.338 15.226,-15.41 26.062,-16.066 6.321,-0.384 12.671,0.277 19.003,0.623 -9.274,1.714 -18.263,6.679 -21.072,15.443 -2.711,8.455 1.386,17.907 7.861,23.983 4.094,3.842 8.411,6.677 13.498,9.173 3.374,1.656 3.584,6.442 0.334,8.329 C 11.689,7.141 -3.436,8.67 -18.28,6.43 -11.798,5.33 -5.604,3.252 0,0"
             style="fill:#cde2ff;fill-opacity:1;fill-rule:nonzero;stroke:none"
             id="path6130" /></g><g
           id="g6132"
           transform="translate(301.0415,268.418)"><path
             d="m 0,0 c -5.03,-0.24 -10.111,-0.128 -15.151,-0.198 -3.52,-0.04 -6.551,-0.111 -9.131,-0.19 0.131,0.119 0.231,0.25 0.29,0.39 5.33,13.36 3.971,29.12 -3.349,41.46 -0.6,1 -1.231,1.97 -1.89,2.92 -7.061,10.02 -18.23,17.01 -30.301,19.09 7.381,0.41 14.763,1.228 22.073,0.299 12.8,-1.63 24.787,-8.838 32.217,-19.389 0.67,-0.949 1.3,-1.919 1.89,-2.919 C 3.968,29.123 5.33,13.359 0,0"
             style="fill:#cde2ff;fill-opacity:1;fill-rule:nonzero;stroke:none"
             id="path6134" /></g><g
           id="g6136"
           transform="translate(263.8877,49.2256)"><path
             d="m 0,0 h -188.685 c -6.201,0 -11.229,5.027 -11.229,11.229 V 67.372 H 11.229 V 11.229 C 11.229,5.027 6.202,0 0,0"
             style="fill:#5d91b9;fill-opacity:1;fill-rule:nonzero;stroke:none"
             id="path6138" /></g><g
           id="g6140"
           transform="translate(250.1167,116.5977)"><path
             d="m 0,0 v -56.143 c 0,-6.202 -5.027,-11.228 -11.229,-11.228 h 25 c 6.202,0 11.229,5.026 11.229,11.228 V 0 Z"
             style="fill:#4980ac;fill-opacity:1;fill-rule:nonzero;stroke:none"
             id="path6142" /></g><g
           id="g6144"
           transform="translate(7.5,281.2246)"><path
             d="m 0,0 v -21.365 c 0,-6.974 5.653,-12.627 12.626,-12.627 h 298.838 c 6.974,0 12.627,5.653 12.627,12.627 V 0 c 0,6.974 -5.653,12.627 -12.627,12.627 H 12.626 C 5.653,12.627 0,6.974 0,0"
             style="fill:#5d91b9;fill-opacity:1;fill-rule:nonzero;stroke:none"
             id="path6146" /></g><g
           id="g6148"
           transform="translate(318.9644,293.8516)"><path
             d="m 0,0 h -23.993 c 6.973,0 12.626,-5.653 12.626,-12.627 v -21.365 c 0,-6.974 -5.653,-12.627 -12.626,-12.627 H 0 c 6.974,0 12.626,5.653 12.626,12.627 v 21.365 C 12.626,-5.653 6.974,0 0,0"
             style="fill:#4980ac;fill-opacity:1;fill-rule:nonzero;stroke:none"
             id="path6150" /></g><g
           id="g6152"
           transform="translate(31.439,121.7012)"><path
             d="M 0,0 V 125.531 H 276.213 V 0 c 0,-18.41 -14.924,-33.335 -33.335,-33.335 H 33.335 C 14.925,-33.335 0,-18.41 0,0"
             style="fill:#75cff9;fill-opacity:1;fill-rule:nonzero;stroke:none"
             id="path6154" /></g><g
           id="g6156"
           transform="translate(283.6587,247.2324)"><path
             d="m 0,0 v -125.531 c 0,-18.411 -14.925,-33.335 -33.335,-33.335 h 23.993 c 18.41,0 33.335,14.924 33.335,33.335 V 0 Z"
             style="fill:#62a4fb;fill-opacity:1;fill-rule:nonzero;stroke:none"
             id="path6158" /></g><g
           id="g6160"
           transform="translate(208.4927,201.1016)"><path
             d="m 0,0 -116.355,-21.943 c -3.541,-0.668 -5.958,-4.009 -5.429,-7.574 3.089,-20.835 20.89,-36.873 42.503,-37.212 0.464,-0.007 0.93,0.038 1.387,0.124 L 38.46,-44.661 c 3.541,0.668 5.958,4.009 5.43,7.573 C 40.801,-16.253 23,-0.216 1.387,0.124 0.922,0.132 0.456,0.087 0,0"
             style="fill:#edf6ff;fill-opacity:1;fill-rule:nonzero;stroke:none"
             id="path6162" /></g><g
           id="g6164"
           transform="translate(504.5,385.1836)"><path
             d="m 0,0 c 0,43.251 -35.388,78.236 -78.788,77.581 -41.486,-0.625 -75.5,-34.425 -76.374,-75.906 -0.476,-22.592 8.71,-43.036 23.707,-57.5 16.435,-15.851 26.029,-37.488 26.029,-60.321 v -191.976 c 0,-15.373 12.463,-27.836 27.836,-27.836 15.374,0 27.836,12.463 27.836,27.836 v 191.975 c 0,22.472 8.894,44.221 25.275,59.604 C -9.412,-42.395 0,-22.3 0,0"
             style="fill:#edf6ff;fill-opacity:1;fill-rule:nonzero;stroke:none"
             id="path6166" /></g><g
           id="g6168"
           transform="translate(425.7119,462.7646)"><path
             d="m 0,0 c -4.338,-0.065 -8.589,-0.514 -12.735,-1.275 36.134,-6.621 63.523,-38.259 63.523,-76.306 0,-22.3 -9.412,-42.396 -24.478,-56.543 C 9.928,-149.507 1.034,-171.257 1.034,-193.729 v -191.974 c 0,-10.268 -5.563,-19.231 -13.836,-24.056 4.114,-2.399 8.894,-3.78 14,-3.78 15.373,0 27.836,12.463 27.836,27.836 v 191.974 c 0,22.472 8.894,44.222 25.276,59.605 15.066,14.147 24.478,34.243 24.478,56.543 C 78.788,-34.33 43.4,0.655 0,0"
             style="fill:#cde2ff;fill-opacity:1;fill-rule:nonzero;stroke:none"
             id="path6170" /></g><g
           id="g6172"
           transform="translate(148.5298,382.6699)"><path
             d="m 0,0 c 22.45,13.83 55.21,20 78.16,6.68 3.25,-1.89 3.04,-6.67 -0.33,-8.329 -5.09,-2.5 -9.41,-5.33 -13.5,-9.171 -6.48,-6.079 -10.57,-15.53 -7.86,-23.99 3.31,-10.33 15.22,-15.41 26.06,-16.06 10.84,-0.66 21.75,1.76 32.52,0.391 12.8,-1.631 24.79,-8.841 32.22,-19.391 0.67,-0.95 1.3,-1.92 1.89,-2.92 2.92,-4.92 4.89,-10.39 5.86,-16.03"
             style="fill:none;stroke:#000000;stroke-width:15;stroke-linecap:round;stroke-linejoin:round;stroke-miterlimit:10;stroke-dasharray:none;stroke-opacity:1"
             id="path6174" /></g><g
           id="g6176"
           transform="translate(41.1802,293.8496)"><path
             d="m 0,0 c 1.58,9.891 5.97,19.431 12.42,27.131 6.26,7.46 14.3,13.279 23.09,17.399 8.51,3.991 17.89,4.901 26.29,8.731 7.17,3.269 13.16,7.859 18.81,12.88"
             style="fill:none;stroke:#000000;stroke-width:15;stroke-linecap:round;stroke-linejoin:round;stroke-miterlimit:10;stroke-dasharray:none;stroke-opacity:1"
             id="path6178" /></g><g
           id="g6180"
           transform="translate(275.1201,88.3799)"><path
             d="m 0,0 v -27.93 c 0,-6.2 -5.03,-11.219 -11.23,-11.219 h -188.69 c -6.2,0 -11.23,5.019 -11.23,11.219 V 0"
             style="fill:none;stroke:#000000;stroke-width:15;stroke-linecap:round;stroke-linejoin:round;stroke-miterlimit:10;stroke-dasharray:none;stroke-opacity:1"
             id="path6182" /></g><g
           id="g6184"
           transform="translate(7.5,281.2246)"><path
             d="m 0,0 v -21.365 c 0,-6.974 5.653,-12.627 12.626,-12.627 h 298.838 c 6.974,0 12.627,5.653 12.627,12.627 V 0 c 0,6.974 -5.653,12.627 -12.627,12.627 H 12.626 C 5.653,12.627 0,6.974 0,0 Z"
             style="fill:none;stroke:#000000;stroke-width:15;stroke-linecap:round;stroke-linejoin:round;stroke-miterlimit:10;stroke-dasharray:none;stroke-opacity:1"
             id="path6186" /></g><g
           id="g6188"
           transform="translate(307.6519,247.2324)"><path
             d="M 0,0 V -86.112"
             style="fill:none;stroke:#000000;stroke-width:15;stroke-linecap:round;stroke-linejoin:round;stroke-miterlimit:10;stroke-dasharray:none;stroke-opacity:1"
             id="path6190" /></g><g
           id="g6192"
           transform="translate(307.6519,126.1201)"><path
             d="m 0,0 v -4.419 c 0,-18.41 -14.924,-33.335 -33.335,-33.335 h -209.543 c -18.41,0 -33.335,14.925 -33.335,33.335 v 125.531"
             style="fill:none;stroke:#000000;stroke-width:15;stroke-linecap:round;stroke-linejoin:round;stroke-miterlimit:10;stroke-dasharray:none;stroke-opacity:1"
             id="path6194" /></g><g
           id="g6196"
           transform="translate(208.4927,201.1016)"><path
             d="m 0,0 -116.355,-21.943 c -3.541,-0.668 -5.958,-4.009 -5.429,-7.574 3.089,-20.835 20.89,-36.873 42.503,-37.212 0.464,-0.007 0.93,0.038 1.387,0.124 L 38.46,-44.661 c 3.541,0.668 5.958,4.009 5.43,7.573 C 40.801,-16.253 23,-0.216 1.387,0.124 0.922,0.132 0.456,0.087 0,0 Z"
             style="fill:none;stroke:#000000;stroke-width:15;stroke-linecap:round;stroke-linejoin:round;stroke-miterlimit:10;stroke-dasharray:none;stroke-opacity:1"
             id="path6198" /></g><g
           id="g6200"
           transform="translate(504.5,385.1836)"><path
             d="m 0,0 c 0,43.251 -35.388,78.236 -78.788,77.581 -41.486,-0.625 -75.5,-34.425 -76.374,-75.906 -0.476,-22.592 8.71,-43.036 23.707,-57.5 16.435,-15.851 26.029,-37.488 26.029,-60.321 v -191.976 c 0,-15.373 12.463,-27.836 27.836,-27.836 15.374,0 27.836,12.463 27.836,27.836 v 191.975 c 0,22.472 8.894,44.221 25.275,59.604 C -9.412,-42.395 0,-22.3 0,0 Z"
             style="fill:none;stroke:#000000;stroke-width:15;stroke-linecap:round;stroke-linejoin:round;stroke-miterlimit:10;stroke-dasharray:none;stroke-opacity:1"
             id="path6202" /></g></g></g></g></svg>
