<?xml version="1.0" encoding="UTF-8" standalone="no"?>
<!-- Created with Inkscape (http://www.inkscape.org/) -->

<svg
   version="1.1"
   id="svg4278"
   xml:space="preserve"
   width="682.66669"
   height="682.66669"
   viewBox="0 0 682.66669 682.66669"
   xmlns="http://www.w3.org/2000/svg"
   xmlns:svg="http://www.w3.org/2000/svg"><defs
     id="defs4282"><clipPath
       clipPathUnits="userSpaceOnUse"
       id="clipPath4292"><path
         d="M 0,512 H 512 V 0 H 0 Z"
         id="path4290" /></clipPath></defs><g
     id="g4284"
     transform="matrix(1.3333333,0,0,-1.3333333,0,682.66667)"><g
       id="g4286"><g
         id="g4288"
         clip-path="url(#clipPath4292)"><g
           id="g4294"
           transform="translate(483.4004,463.3096)"><path
             d="m 0,0 c 64.276,-64.2 -367.179,-501.567 -434.669,-434.156 -47.48,47.424 11.335,183.057 131.365,302.946 C -183.273,-11.32 -47.479,47.424 0,0"
             style="fill:#cf7a15;fill-opacity:1;fill-rule:nonzero;stroke:none"
             id="path4296" /></g><g
           id="g4298"
           transform="translate(497.4312,486.6582)"><path
             d="m 0,0 c -38.449,38.402 -130.223,12.688 -228.463,-56.849 -1.781,-1.259 -1.431,-4.004 0.607,-4.782 33.516,-12.807 67.238,-28.931 62.567,-40.61 -5.887,-14.716 -66.31,-1.198 -107.414,9.916 -0.864,0.233 -1.777,0.032 -2.464,-0.542 -18.206,-15.216 -36.381,-31.8 -54.235,-49.633 -0.01,-0.011 -0.02,-0.021 -0.031,-0.031 -1.419,-1.418 -0.871,-3.832 1.019,-4.503 37.771,-13.402 84.579,-33.076 79.129,-46.702 -6.257,-15.643 -74.138,0.616 -114.932,11.978 -1.014,0.282 -2.097,-0.044 -2.792,-0.835 -15.554,-17.716 -29.829,-35.53 -42.712,-53.178 -1.076,-1.475 -0.422,-3.566 1.296,-4.185 36.99,-13.342 80.404,-32.125 75.144,-45.275 -5.624,-14.062 -61.04,-2.346 -101.819,8.419 -1.168,0.309 -2.4,-0.188 -3.032,-1.218 -51.861,-84.495 -67.806,-159.656 -33.938,-193.484 C -398.772,-544.725 69.807,-69.725 0,0"
             style="fill:#f0a346;fill-opacity:1;fill-rule:nonzero;stroke:none"
             id="path4300" /></g><g
           id="g4302"
           transform="translate(497.4312,486.6582)"><path
             d="M 0,0 C -15.947,15.928 -41.073,20.815 -72.024,16.132 -59.166,13.625 -48.33,8.319 -40,0 21.032,-60.961 -329.474,-431.707 -467.542,-475.022 -381.454,-527.113 68.504,-68.424 0,0"
             style="fill:#eb8f21;fill-opacity:1;fill-rule:nonzero;stroke:none"
             id="path4304" /></g><g
           id="g4306"
           transform="translate(79.6929,206.8545)"><path
             d="M 0,0 C 6.938,11.33 14.579,22.843 22.883,34.449"
             style="fill:none;stroke:#000000;stroke-width:15;stroke-linecap:round;stroke-linejoin:round;stroke-miterlimit:10;stroke-dasharray:none;stroke-opacity:1"
             id="path4308" /></g><g
           id="g4310"
           transform="translate(248.2988,392.5645)"><path
             d="M 0,0 C 11.673,9.115 23.313,17.597 34.83,25.404"
             style="fill:none;stroke:#000000;stroke-width:15;stroke-linecap:round;stroke-linejoin:round;stroke-miterlimit:10;stroke-dasharray:none;stroke-opacity:1"
             id="path4312" /></g><g
           id="g4314"
           transform="translate(150.125,300.4492)"><path
             d="M 0,0 C 9.505,10.624 19.505,21.197 29.971,31.65"
             style="fill:none;stroke:#000000;stroke-width:15;stroke-linecap:round;stroke-linejoin:round;stroke-miterlimit:10;stroke-dasharray:none;stroke-opacity:1"
             id="path4316" /></g><g
           id="g4318"
           transform="translate(101.5762,200.5557)"><path
             d="m 0,0 c -13.232,2.69 -26.908,6.034 -39.245,9.291 -1.168,0.309 -2.4,-0.188 -3.032,-1.219 -51.861,-84.495 -67.806,-159.655 -33.938,-193.483 55.822,-55.756 340.896,206.445 442.828,365.445"
             style="fill:none;stroke:#000000;stroke-width:15;stroke-linecap:round;stroke-linejoin:round;stroke-miterlimit:10;stroke-dasharray:none;stroke-opacity:1"
             id="path4320" /></g><g
           id="g4322"
           transform="translate(488.0283,414.7666)"><path
             d="m 0,0 c 17.042,33.447 22.019,59.29 9.403,71.892 -38.449,38.402 -130.223,12.687 -228.464,-56.849 -1.78,-1.26 -1.43,-4.004 0.608,-4.782 33.516,-12.808 67.238,-28.931 62.567,-40.611 -5.887,-14.715 -66.31,-1.198 -107.414,9.916 -0.864,0.234 -1.777,0.033 -2.464,-0.542 -18.206,-15.215 -36.381,-31.799 -54.235,-49.632 -0.01,-0.011 -0.021,-0.021 -0.031,-0.032 -1.419,-1.418 -0.871,-3.832 1.019,-4.503 37.771,-13.401 84.579,-33.076 79.129,-46.702 -6.257,-15.642 -74.139,0.616 -114.932,11.979 -1.015,0.282 -2.098,-0.044 -2.792,-0.835 -15.555,-17.716 -29.829,-35.53 -42.712,-53.178 -1.077,-1.475 -0.422,-3.566 1.296,-4.185 36.99,-13.342 80.404,-32.125 75.144,-45.276 -2.027,-5.067 -10.519,-6.787 -22.462,-6.41"
             style="fill:none;stroke:#000000;stroke-width:15;stroke-linecap:round;stroke-linejoin:round;stroke-miterlimit:10;stroke-dasharray:none;stroke-opacity:1"
             id="path4324" /></g><g
           id="g4326"
           transform="translate(72.6548,157.9287)"><path
             d="M 0,0 C 9.652,0 9.668,15 0,15 -9.652,15 -9.667,0 0,0"
             style="fill:#000000;fill-opacity:1;fill-rule:nonzero;stroke:none"
             id="path4328" /></g><g
           id="g4330"
           transform="translate(59.1558,118.9307)"><path
             d="M 0,0 C 9.651,0 9.667,15 0,15 -9.652,15 -9.668,0 0,0"
             style="fill:#000000;fill-opacity:1;fill-rule:nonzero;stroke:none"
             id="path4332" /></g><g
           id="g4334"
           transform="translate(111.6528,153.4287)"><path
             d="M 0,0 C 9.652,0 9.668,15 0,15 -9.652,15 -9.667,0 0,0"
             style="fill:#000000;fill-opacity:1;fill-rule:nonzero;stroke:none"
             id="path4336" /></g><g
           id="g4338"
           transform="translate(135.6519,249.4238)"><path
             d="M 0,0 C 9.652,0 9.667,15 0,15 -9.652,15 -9.668,0 0,0"
             style="fill:#000000;fill-opacity:1;fill-rule:nonzero;stroke:none"
             id="path4340" /></g><g
           id="g4342"
           transform="translate(176.1499,258.4229)"><path
             d="M 0,0 C 9.651,0 9.667,15 0,15 -9.652,15 -9.668,0 0,0"
             style="fill:#000000;fill-opacity:1;fill-rule:nonzero;stroke:none"
             id="path4344" /></g><g
           id="g4346"
           transform="translate(186.6494,225.4248)"><path
             d="M 0,0 C 9.651,0 9.667,15 0,15 -9.652,15 -9.668,0 0,0"
             style="fill:#000000;fill-opacity:1;fill-rule:nonzero;stroke:none"
             id="path4348" /></g><g
           id="g4350"
           transform="translate(219.6475,340.9189)"><path
             d="M 0,0 C 9.652,0 9.668,15 0,15 -9.652,15 -9.667,0 0,0"
             style="fill:#000000;fill-opacity:1;fill-rule:nonzero;stroke:none"
             id="path4352" /></g><g
           id="g4354"
           transform="translate(258.6455,348.4189)"><path
             d="M 0,0 C 9.652,0 9.668,15 0,15 -9.652,15 -9.667,0 0,0"
             style="fill:#000000;fill-opacity:1;fill-rule:nonzero;stroke:none"
             id="path4356" /></g><g
           id="g4358"
           transform="translate(265.6455,318.9199)"><path
             d="M 0,0 C 9.651,0 9.667,15 0,15 -9.652,15 -9.668,0 0,0"
             style="fill:#000000;fill-opacity:1;fill-rule:nonzero;stroke:none"
             id="path4360" /></g><g
           id="g4362"
           transform="translate(324.6421,423.415)"><path
             d="M 0,0 C 9.652,0 9.668,15 0,15 -9.651,15 -9.667,0 0,0"
             style="fill:#000000;fill-opacity:1;fill-rule:nonzero;stroke:none"
             id="path4364" /></g><g
           id="g4366"
           transform="translate(366.6401,441.4141)"><path
             d="M 0,0 C 9.652,0 9.668,15 0,15 -9.652,15 -9.667,0 0,0"
             style="fill:#000000;fill-opacity:1;fill-rule:nonzero;stroke:none"
             id="path4368" /></g><g
           id="g4370"
           transform="translate(359.1406,405.416)"><path
             d="M 0,0 C 9.652,0 9.667,15 0,15 -9.652,15 -9.668,0 0,0"
             style="fill:#000000;fill-opacity:1;fill-rule:nonzero;stroke:none"
             id="path4372" /></g></g></g></g></svg>
