<svg id="Capa_1" enable-background="new 0 0 512 512" height="512" viewBox="0 0 512 512" width="512" xmlns="http://www.w3.org/2000/svg"><g><g><g><path d="m219.686 495.946c-4.203 0-7.611-3.407-7.611-7.611v-382.372c0-58.429 47.534-105.963 105.963-105.963s105.962 47.534 105.962 105.963l-.006 230.169c0 4.203-3.408 7.611-7.611 7.611-4.204 0-7.611-3.408-7.611-7.611l.006-230.169c0-50.035-40.706-90.741-90.741-90.741s-90.741 40.706-90.741 90.741v382.373c.001 4.203-3.407 7.61-7.61 7.61z" fill="#e8a695"/></g></g><g><g><g><g><path d="m398.1 415.985c2.994 0 5.714-1.709 7.038-4.394 3.855-7.817 7.089-16.895 8.751-26.463 4.128-23.765 6.117-52.924 6.867-66.32-2.621-4.601-4.366-7.371-4.366-7.371s-28.281 44.885-28.281 73.691c0 11.547 4.545 22.216 9.991 30.857z" fill="#fbbe66"/><path d="m416.39 311.438s-1.685 41.728-7.236 73.691c-1.984 11.421-6.207 22.144-11.054 30.857 3.802 6.033 8.043 11.08 11.483 14.743 3.693 3.931 9.92 3.931 13.613 0 8.368-8.908 21.474-25.99 21.474-45.599.001-28.807-28.28-73.692-28.28-73.692z" fill="#fcb143"/><g><g><path d="m349.274 375.12c.916 1.584 2.929 2.176 4.619 1.475.205-.085.41-.172.616-.259 6.195-2.647 12.556-6.529 17.428-11.401 8.57-8.571 11.164-18.247 11.296-26.582h.001c0-7.81 0-23.42 0-34.415l-18.142 18.803c-13.864 13.864-16.676 35.205-17.059 47.423-.056 1.798.397 3.484 1.225 4.928.005.009.011.019.016.028z" fill="#fba615"/></g><path d="m392.334 294.507-11.299 11.71v29.938h-.001c-.132 8.335-2.725 18.011-11.296 26.582-5.898 5.898-13.149 9.79-20.475 12.352 1.655 2.892 4.804 4.819 8.4 4.707 12.217-.382 33.559-3.195 47.423-17.059 8.57-8.571 11.164-18.247 11.296-26.582h.001v-.023c.053-3.495 0-51.699 0-51.84-9.07.001-17.751 3.687-24.049 10.215z" fill="#fa9801"/><path d="m349.276 324.638c.88 1.519 2.81 2.088 4.427 1.404 6.815-2.881 14.956-7.451 19.841-12.337 8.57-8.571 11.164-18.247 11.296-26.582h.001c0-6.986 0-22.79 0-35.331l-19.749 20.468c-13.864 13.864-16.676 35.205-17.059 47.423-.056 1.798.398 3.484 1.227 4.927.005.01.01.019.016.028z" fill="#fbbe66"/><path d="m392.334 244.027-11.299 11.71v29.938h-.001c-.132 8.335-2.725 18.011-11.296 26.582-5.898 5.898-13.149 9.79-20.475 12.352 1.655 2.892 4.804 4.819 8.4 4.707 12.217-.382 33.559-3.195 47.423-17.059 8.57-8.571 11.164-18.247 11.296-26.582h.001v-.023c.053-3.495 0-51.699 0-51.84-9.07.001-17.751 3.687-24.049 10.215z" fill="#fcb143"/><path d="m349.272 274.163c.94 1.629 2.999 2.252 4.733 1.523 6.37-2.679 13.215-6.66 18.099-11.543 8.57-8.571 11.164-18.247 11.296-26.582h.001c0-7.227 0-22.807 0-34.756l-18.31 18.976c-13.864 13.864-16.676 35.206-17.059 47.423-.056 1.797.396 3.485 1.223 4.929.006.01.012.02.017.03z" fill="#fba615"/><path d="m392.334 193.547-11.299 11.71v29.938h-.001c-.132 8.335-2.725 18.011-11.296 26.582-5.898 5.898-13.149 9.79-20.475 12.352 1.655 2.892 4.804 4.819 8.4 4.707 12.217-.382 33.559-3.195 47.423-17.059 8.57-8.571 11.164-18.247 11.296-26.582h.001v-.023c.053-3.495 0-51.699 0-51.84-9.07 0-17.751 3.687-24.049 10.215z" fill="#fa9801"/><g fill="#fbbe66"><path d="m349.273 223.674c.768 1.329 2.44 1.838 3.866 1.27 6.645-2.647 13.682-6.755 18.925-11.998 8.57-8.571 11.164-18.247 11.296-26.582h.001c0-6.717 0-21.657 0-33.997l-18.269 18.934c-13.864 13.864-16.676 35.205-17.059 47.423-.056 1.798.398 3.483 1.227 4.927.004.007.009.015.013.023z"/><path d="m416.384 134.166v-1.314c-.965 0-1.925.051-2.879.133.951.51 1.911.917 2.879 1.181z"/></g><path d="m392.334 143.066-11.299 11.71v29.938h-.001c-.132 8.335-2.725 18.011-11.296 26.582-5.898 5.898-13.149 9.79-20.475 12.352 1.655 2.892 4.804 4.819 8.4 4.707 12.217-.382 33.559-3.195 47.423-17.059 8.57-8.571 11.164-18.247 11.296-26.582h.001v-.023c.053-3.495 0-51.699 0-51.84-9.07.001-17.751 3.688-24.049 10.215z" fill="#fcb143"/><g><path d="m349.258 173.172c1.854 1.086 4.116 1.279 6.105.468 6.206-2.531 12.22-6.103 17.25-11.133 8.57-8.571 11.164-18.247 11.296-26.582h.001c0-5.849 0-14.748 0-23.042l-2.877-1.751c-5.362 1.61-10.848 4.593-15.943 9.688-13.864 13.864-16.676 35.206-17.059 47.423-.055 1.798.398 3.484 1.227 4.929-.001 0 0 0 0 0z" fill="#fba615"/></g><path d="m357.663 177.875c12.217-.383 33.559-3.195 47.423-17.059 12.014-12.014 12.288-26.202 10.491-35.819-1.393-7.456-7.211-13.275-14.668-14.668-5.539-1.034-12.593-1.377-19.875.808v23.097h-.001c-.132 8.335-2.725 18.011-11.296 26.582-5.898 5.898-13.149 9.79-20.475 12.352.001.002.002.004.003.005 1.657 2.889 4.804 4.814 8.398 4.702z" fill="#fa9801"/></g><g><path d="m454.313 364.372c-.486-18.047-5.125-54.753-31.484-79.448-2.104-.413-4.257-.631-6.434-.631v50.482c-.007.448-.007.901 0 1.358v.023h.001c.132 8.335 2.725 18.011 11.296 26.582 6.209 6.209 13.917 10.196 21.634 12.747 0-.001.009-.009.026-.024 3.216-2.795 5.076-6.83 4.961-11.089z" fill="#fba615"/><path d="m467.687 322.741-27.243-28.234c-6.298-6.527-14.979-10.214-24.049-10.214v1.393c38.631 33.951 32.949 89.627 32.931 89.798 9.515 3.144 19.043 4.101 25.788 4.312 5.394.169 9.8-4.237 9.632-9.632-.383-12.217-3.195-33.559-17.059-47.423z" fill="#fa9801"/><g><path d="m421.36 234.185c-1.633-.245-3.292-.373-4.965-.373v50.481c-.007.448-.007.901 0 1.358v.023h.001c.132 8.335 2.725 18.011 11.296 26.582 6.209 6.209 13.917 10.199 21.634 12.748 2.974-1.502 4.831-4.575 4.751-7.905-.439-18.246-4.846-57.415-32.717-82.914z" fill="#fbbe66"/></g><path d="m467.687 272.261-27.243-28.234c-6.298-6.527-14.979-10.214-24.049-10.214v1.393c38.631 33.951 32.949 89.627 32.931 89.798 9.515 3.144 19.043 4.101 25.788 4.312 5.394.169 9.8-4.237 9.632-9.632-.383-12.217-3.195-33.559-17.059-47.423z" fill="#fcb143"/><path d="m420.962 183.655c-1.505-.208-3.03-.322-4.568-.322v50.481c-.007.448-.007.901 0 1.358v.023h.001c.132 8.335 2.725 18.011 11.296 26.582 6.209 6.209 13.917 10.199 21.634 12.748 3.022-1.683 4.831-4.917 4.716-8.374-.617-18.624-5.433-57.324-33.079-82.496z" fill="#fba615"/><path d="m467.687 221.781-27.243-28.234c-6.298-6.527-14.979-10.214-24.049-10.214v1.393c38.631 33.951 32.949 89.627 32.931 89.798 9.515 3.144 19.043 4.101 25.788 4.312 5.394.169 9.8-4.237 9.632-9.632-.383-12.218-3.195-33.559-17.059-47.423z" fill="#fa9801"/><path d="m421.744 133.289c-1.758-.285-3.545-.437-5.349-.437v50.481c-.007.448-.007.901 0 1.358v.023h.001c.132 8.335 2.725 18.011 11.296 26.582 6.209 6.209 13.917 10.199 21.634 12.748.016.005.031.01.047.015 2.329.768 4.717-.998 4.719-3.451 0-.227 0-.46-.001-.698-.073-16.583-3.266-59.43-32.347-86.621z" fill="#fbbe66"/><path d="m467.687 171.301-27.243-28.234c-6.298-6.527-14.979-10.214-24.049-10.214v1.393c38.631 33.951 32.949 89.627 32.931 89.798 9.515 3.144 19.043 4.101 25.788 4.312 5.394.169 9.8-4.237 9.632-9.632-.383-12.218-3.195-33.559-17.059-47.423z" fill="#fcb143"/><path d="m467.687 171.301-27.243-28.234c-6.298-6.527-14.979-10.214-24.049-10.214v1.393c38.631 33.951 32.949 89.627 32.931 89.798 9.515 3.144 19.043 4.101 25.788 4.312 5.394.169 9.8-4.237 9.632-9.632-.383-12.218-3.195-33.559-17.059-47.423z" fill="#fcb143"/><path d="m443.149 113.503c-1.145-2.502-3.751-4.054-6.493-3.824-.015.001-.03.002-.044.004-1.673.142-3.263.369-4.744.646-7.456 1.393-13.275 7.211-14.668 14.668-1.796 9.618-1.522 23.806 10.491 35.819 6.209 6.209 13.917 10.198 21.634 12.747.016.005.032.011.049.016 2.412.795 4.895-1.028 4.898-3.567.012-11.62-1.355-35.155-11.123-56.509z" fill="#fba615"/><path d="m436.612 109.683c16.094 30.692 12.729 63.738 12.714 63.88 9.515 3.144 19.043 4.101 25.789 4.312 5.394.169 9.8-4.237 9.631-9.632-.382-12.217-3.195-33.559-17.059-47.423-10.163-10.164-21.883-11.924-31.075-11.137z" fill="#fa9801"/></g></g><g><g><g><path d="m238.728 380.484c-13.367-67.043-13.356-67.045-13.356-67.045-11.69-58.634-31.055-92.366-43.925-109.413-4.227-5.599-13.164-2.549-13.139 4.467.129 35.742 1.453 115.77 9.978 184.043z" fill="#daf3b1"/></g><g><path d="m273.987 152.213c3.177-30.623 12.859-60.216 28.58-86.631 1.554-2.612.5-5.99-2.272-7.234-52.977 83.49-80.608 174.969-80.608 300.016v147.636l19.042 6h15.979l5.643-7.885c1.176-173.81 6.434-282.478 13.636-351.902z" fill="#a1e42c"/><path d="m310.309 54.295-.236-.052c-3.795-.832-7.691.815-9.773 4.095-.108.17-.216.34-.324.511-17.488 27.625-28.198 58.984-31.571 91.504-7.335 70.713-12.654 182.134-13.698 361.647h26.348c4.884 0 8.853-3.948 8.886-8.833 1.821-272.574 13.661-385.236 27.31-437.528 1.324-5.071-1.822-10.222-6.942-11.344z" fill="#95d528"/><path d="m185.59 512h53.138l-1.116-22.909c-4.912-100.825-45.708-196.903-116.128-269.228-23.724-24.365-50.517-45.894-79.905-63.949-3.783-2.324-8.684-1.656-11.71 1.593l-.115.123c-3.421 3.673-3.329 9.386.211 12.945 38.197 38.391 88.361 95.888 109.426 150.993 16.762 43.848 30.889 101.246 35.682 180.507.338 5.569 4.936 9.925 10.517 9.925z" fill="#b9ea6a"/></g></g></g></g></g></g></g></svg>