<svg id="Layer_1" enable-background="new 0 0 75 75" height="512" viewBox="0 0 75 75" width="512" xmlns="http://www.w3.org/2000/svg"><g id="Soup"><g><g><g><path d="m52.6999855 57.7619743c-7.4454842 3.7570992-18.8469276 5.4902649-30.4565411 2.8650703-5.5089016-1.2494087-19.633667-5.6174393-16.217104-14.3818398.802381-2.0901299 3.0760684-3.8818626 4.9523482-4.6593399 1.2095509-.5823364 2.4983826-1.0144005 3.8049107-1.3995819 1.4918976-.4321594 2.7544498-.5918427 4.3170452-.6576576 9.1633034-.3756676 18.3711147.1033821 27.4197445 1.4373398 4.5192451.6678543 9.4902306 1.5954742 12.1117935 5.4389229 3.2922941 4.7835961-.7121996 8.7978325-5.932197 11.3570862z" fill="#f7d78a"/></g><g><path d="m52.6999855 56.6563644c-7.4515266 3.5336838-18.8543854 5.1580124-30.4565411 2.6925125-5.5089016-1.17416-19.633667-5.2791138-16.217104-13.5156555 1.3284554-3.2520866 5.4063077-4.7656059 8.7572594-5.6940041 1.4918976-.4061356 2.7544498-.5561981 4.3170452-.6180496 9.1633034-.3530426 18.3711147.0971527 27.4197445 1.350769 4.4032516.6115227 9.4651108 1.4647751 12.1117935 5.111351 3.3276559 4.5437776-.8115501 8.3137361-5.9321975 10.6730767z" fill="#feeeb7"/></g><g><path d="m18.6154823 52.7128906c.1811314 2.4202156 14.9121666 7.7872581 25.7614632 1.3834419.4594879-.2712135.9192848-.5712204 1.231678-1.0037651.312397-.4325447.450943-1.0280075.2187042-1.5083733-.3278961-.6782341-1.2007561-.8567352-1.9529114-.8989563-3.0075836-.1688271-3.2751923.6278191-13.3225765.6236992-3.6993389-.001255-12.1096687-.9117355-11.9363575 1.4039536z" fill="#f7d78a"/></g></g><g><path d="m54.6232376 36.2410088c-.0110588.2868996-.0883713.5627403-.2320442.8385811.0113945.0110626 0 .0110626-.0107269.0221214-1.6331482 3.0015144-10.8473969 5.3077888-21.9486237 5.3077888-11.1011162 0-20.2930222-2.2953224-21.9372311-5.29673-.2626667-1.0168076-.2984343-1.1121101-.1987514-1.4124947v-.010952c.8275242-3.2553444 10.4168224-5.8265095 22.1359825-5.8265095 11.1233482 0 20.3593826 2.3173313 21.9593506 5.3409672.2417946.4827233.2674141.931469.2320442 1.0372277z" fill="#595ab7"/></g><g><path d="m69.1784058 25.3284607c-.6194382 1.3935947-1.9244614 2.3447552-3.2519073 3.0747662-4.8964233 2.6241074-11.0281372 2.8251686-15.1966934 6.547617-.4090843.3650055-.7852287.7520828-1.2496719 1.0396614v.0110703c-.0442848.0221405-.0885658.0552864-.1328506.0774269-.5197983.2985802-1.161377.4423676-1.7030449.2212181-.9180832-.387146-1.5596581-2.2010345-1.0398636-3.0969086.5197983-.8737297 2.7871933-1.3050938 3.7052727-1.7143154 11.6684799-5.4140491 12.5430832-10.6399021 16.4355698-10.6399021.758728 0 1.4450607.2553005 1.9574051.807373.8848722.9180145 1.0177228 2.4664687.4757841 3.6719932z" fill="#dcd9ea"/></g><g><path d="m23.3426456 27.8364201c-1.0742188-.6191406-1.3564453-1.9951172-1.1650391-3.0126953.3468246-1.8529797 2.1161861-3.3992958 2.1357422-5.0908203.0100269-.9326324-.5160904-1.8666248-.9824219-2.7988281-.4414063-.9023438-.9755859-2.2460938-.5107422-3.4941406.0966797-.2578125.3828125-.3916016.6435547-.2939453.2587891.0966797.390625.3847656.2939453.6435547-.6763058 1.8129005 1.5803967 3.716753 1.5556641 5.9550781-.0238323 2.0531788-1.8314457 3.5566273-2.1533203 5.2636719-.1318359.703125.0595703 1.6025391.6826172 1.9609375.5654469.3254202.0832692 1.1984271-.5.8671874z" fill="#c6bfe0"/></g><g><path d="m28.7381535 25.8510685c.109375-.5830078.4013672-1.0664063.6826172-1.5332031.7087212-1.2300949.7607079-1.4715118.1220703-2.7460938l-.1103516-.2216797c-.2763672-.5625-.6083984-1.4052734-.3076172-2.2128906.0966797-.2597656.3876953-.3896484.6435547-.2939453.2587891.0966797.390625.3847656.2939453.6435547-.3488503.9338417.9395771 2.0669365.9257813 3.4248047-.0165005 1.2997589-1.0833263 2.1547565-1.2675781 3.125-.0625.3320313.0214844.7724609.3007813.9326172.2392578.1386719.3212891.4443359.1835938.6835938-.4258081.7350787-1.7540323-.2791978-1.466797-1.8017579z" fill="#c6bfe0"/></g><g><path d="m36.5164719 28.155756c-.2597656-.0966797-.390625-.3837891-.2949219-.6425781.4967346-1.3344746-1.2483406-2.8957405-1.2304688-4.6455078.020649-1.7062054 1.4428062-2.8107281 1.6953125-4.1582031.0966797-.5166016-.0390625-1.1728516-.4853516-1.4296875-.2392578-.1376953-.3212891-.4443359-.1835938-.6835938.4604568-.8000793 1.9947166.4684391 1.6513672 2.296875-.1503677.8040562-.576046 1.4728546-.9970703 2.1699219-.9493713 1.5879917-.8446236 2.1178226-.0634766 3.6777344l.1445314.290039c.3564453.7255859.7861328 1.8085938.40625 2.8300781-.0998154.2683373-.3958969.3884907-.6425781.2949219z" fill="#c6bfe0"/></g><g><path d="m69.1784058 25.3284607c-.6194382 1.3935947-1.9244614 2.3447552-3.2519073 3.0747662-4.8964233 2.6241074-11.0281372 2.8251686-15.1966934 6.547617-.4090843.3650055-.7852287.7520828-1.2496719 1.0396614.0522461-.1007957-.2230225-1.3635216 2.0681152-2.6654778 5.1685104-2.8956547 9.0357513-3.13307 12.630928-5.2204475 2.3778305-1.3825245 4.4240723-3.7051373 4.5234451-6.4481125.8848724.9180145 1.017723 2.4664687.4757843 3.6719932z" fill="#c6bfe0"/></g><g><path d="m49.8560715 40.2577362c-1.2139664 1.1696167-2.8360519 1.7324715-4.4250717 2.1738815-8.9601936 2.5048027-18.6377544 2.0745621-27.3665695-1.2138557-1.6250114-.6043129-3.159152-1.3979263-3.4209185-3.1117859-.4375744-2.5681152 2.2495756-3.662117 3.7410002-4.6346626 1.9421692-1.2580986 3.8952904-2.505024 6.0359898-3.3546677 6.7957916-2.7400665 9.8405571.8532848 12.061142.6731243 6.3347511-.5152855 7.1770248-1.1765728 12.0392418 2.1297512 1.0372238.6952438 2.1296425 1.4566269 2.6041222 2.6483612.6430739 1.5903817-.0401193 3.492817-1.2689363 4.6898537z" fill="#fab041"/></g><g><path d="m50.9043579 38.8011093c-3.7853508-.3155022-6.5651169-3.217617-9.6335411-5.0650139-2.1185799-1.2690468-4.678791-2.1408119-7.0290833-1.4234467-1.611248.4964905-2.9906769 1.6882286-4.6677341 1.908989-1.5339375.1986389-3.0237465-.4634209-4.5465145-.7613831-3.9615402-.7835045-8.3093014 1.1917343-10.3839731 4.6457214-.4375744-2.5681152 2.2495756-3.662117 3.7410002-4.6346626 1.9421692-1.2580986 3.8952904-2.505024 6.0359898-3.3546677 6.7957916-2.7400665 9.8405571.8532848 12.061142.6731243 6.3347511-.5152855 7.1770248-1.1765728 12.0392418 2.1297512 1.0372238.6952438 2.1296425 1.4566269 2.6041222 2.6483612.4194029 1.0372278.2758406 2.2069513-.2206499 3.2332269z" fill="#ef9f27"/></g><g><path d="m54.6232376 36.2410088c-.0662498.2868996-.1436729.5627403-.2320442.8385811.0113945.0110626 0 .0110626-.0107269.0221214-1.4456787 5.0208855-4.2706718 9.5121002-7.9453125 12.745327-13.0373421 11.3788643-31.8930092 3.6020164-35.9405441-12.7342682 0 0-.0110598 0-.0110598-.0110588-.0662508-.264782-.1325016-.5407333-.1876917-.8165741 0-.0221214-.0110598-.0441284-.0221205-.0662498 0-.0404663-.0328484-.193882-.0328484-.2095909-.0224247-.1454239.0000744-.3640404.1322794-.319973.1103811.0441322.2316008.08815.3420916.1213303l.0110607.0110626c.0110598 0 .0331802.0109482.044241.0220108 14.6432543 5.4401741 29.1871872 5.4512367 43.6206284-.639946.2417974.4827232.2674169.9314689.232047 1.0372276z" fill="#6f6ecf"/></g><g><path d="m46.435154 49.8470383c-13.1042938 11.4372978-31.9553108 3.5014534-35.9516029-12.745327-.0662508-.264782-.0993204-.5517921-.1876917-.8165741 0-.0221214-.0110598-.0441284-.0221205-.0662498 0-.0404663-.0328484-.193882-.0328484-.2095909-.0224247-.1454239.0000744-.3640404.1322794-.319973.1103811.0441322.2316008.08815.3420916.1213303l.0110607.0110626c.0110598 0 .0331802.0109482.044241.0220108.0328484.077198.0548582.1545105.0880384.2096977 2.2333326 3.9307747 5.8051624 6.8694 9.8101711 8.9272385 7.8411627 4.0494727 16.9386873 4.2858085 25.7663813 4.8663749z" fill="#595ab7"/></g><g opacity=".57"><path d="m63.4962997 24.3453808c1.2856827-.1067028 1.736763.8538017 1.0871506 1.915781-.8929596 1.4597893-2.6939049 1.8770828-3.4452286 1.3820992-1.5581588-1.0265351 1.3144417-3.2112637 2.358078-3.2978802z" fill="#fff"/></g><g opacity=".57"><path d="m45.7514992 42.3809586c1.1957626-.2894554 2.1017494.4049759 1.6065521 1.9377747-.1655235.5123558-.4125366 1.0126534-.808075 1.3779716-.8589821.7933617-2.4662781.5376663-2.7647743-.6925735-.2867164-1.1817056.9095383-2.3673669 1.9662972-2.6231728z" fill="#fff"/></g><g opacity=".57"><path d="m42.1084213 41.5223999c.2653656.3465385-.0252495 1.0768509-.3364906 1.364315-.3999672.3694115-1.1483765.250351-1.287365-.3224831-.2029037-.8362617 1.1554642-1.6534995 1.6238556-1.0418319z" fill="#fff"/></g></g></g></svg>