<svg viewBox="-14 0 512 512.00011" xmlns="http://www.w3.org/2000/svg"><path d="m431.1875 125.519531-251.945312 145.464844-108.453126 62.605469-69.339843-120.097656c-2.984375-5.175782-1.210938-11.800782 3.964843-14.789063l287.335938-165.882813 54.3125-31.363281c5.175781-2.996093 11.789062-1.222656 14.789062 3.964844zm0 0" fill="#fff3c1"/><path d="m431.1875 125.519531-251.945312 145.464844c91.605468-89.082031 111.15625-182.867187 113.507812-238.164063l54.3125-31.363281c5.175781-2.996093 11.789062-1.222656 14.789062 3.964844zm0 0" fill="#ffec9c"/><path d="m161.988281 45.609375c-2.628906 0-5.1875-1.367187-6.597656-3.808594-2.105469-3.640625-.855469-8.292969 2.785156-10.398437l24.933594-14.394532c3.640625-2.097656 8.296875-.855468 10.398437 2.789063 2.101563 3.636719.851563 8.292969-2.789062 10.394531l-24.933594 14.394532c-1.195312.691406-2.503906 1.023437-3.796875 1.023437zm0 0" fill="#abe0da"/><path d="m126.652344 101.164062c-2.628906 0-5.1875-1.363281-6.597656-3.804687-2.105469-3.640625-.855469-8.296875 2.785156-10.398437l96.566406-55.753907c3.636719-2.101562 8.292969-.855469 10.398438 2.785157 2.101562 3.640624.851562 8.296874-2.789063 10.398437l-96.566406 55.753906c-1.195313.691407-2.503907 1.019531-3.796875 1.019531zm0 0" fill="#abe0da"/><path d="m282.691406 365.3125c-5.578125 0-11.066406-1.855469-15.625-5.433594-3.308594-2.59375-3.886718-7.378906-1.292968-10.6875 2.597656-3.308594 7.382812-3.882812 10.6875-1.289062 2.773437 2.171875 6.398437 2.761718 9.703124 1.570312 3.300782-1.191406 5.71875-3.957031 6.46875-7.398437.890626-4.109375 4.945313-6.710938 9.050782-5.824219 4.109375.890625 6.714844 4.941406 5.824218 9.050781-1.863281 8.601563-7.914062 15.511719-16.179687 18.496094-2.824219 1.015625-5.742187 1.515625-8.636719 1.515625zm0 0" fill="#fff3c1"/><path d="m321.285156 445.226562c-1.65625 0-3.328125-.164062-5-.492187-4.121094-.816406-6.804687-4.824219-5.984375-8.945313.816407-4.125 4.820313-6.796874 8.941407-5.988281 3.453124.6875 6.957031-.433593 9.367187-2.988281 2.402344-2.554688 3.308594-6.117188 2.417969-9.523438-1.066406-4.066406 1.371094-8.226562 5.4375-9.289062s8.222656 1.367188 9.289062 5.433594c2.226563 8.511718-.039062 17.414062-6.0625 23.816406-4.859375 5.15625-11.492187 7.976562-18.40625 7.976562zm0 0" fill="#fff3c1"/><path d="m381.265625 256.628906c-.03125 0-.0625 0-.09375 0-4.207031-.015625-7.601563-3.433594-7.585937-7.636718.015624-4.195313 3.421874-7.585938 7.609374-7.585938h.070313c3.507813 0 6.710937-1.761719 8.578125-4.71875 1.875-2.96875 2.082031-6.636719.558594-9.8125-1.820313-3.789062-.226563-8.335938 3.5625-10.15625 3.785156-1.824219 8.335937-.226562 10.15625 3.5625 3.8125 7.933594 3.285156 17.105469-1.40625 24.53125-4.671875 7.40625-12.6875 11.816406-21.449219 11.816406zm0 0" fill="#ffec9c"/><path d="m189.4375 360.722656c-2.59375 0-5.121094-1.324218-6.546875-3.714844-4.503906-7.558593-4.800781-16.738281-.796875-24.558593 4.011719-7.820313 11.636719-12.941407 20.402344-13.699219 4.191406-.355469 7.878906 2.742188 8.238281 6.929688.363281 4.1875-2.742187 7.878906-6.929687 8.238281-3.507813.304687-6.5625 2.347656-8.164063 5.472656-1.597656 3.125-1.480469 6.796875.324219 9.824219 2.152344 3.609375.972656 8.28125-2.640625 10.433594-1.21875.730468-2.5625 1.074218-3.886719 1.074218zm0 0" fill="#ffec9c"/><path d="m390.117188 427.371094c-.152344 0-.300782-.003906-.453126-.015625-4.195312-.246094-7.398437-3.84375-7.152343-8.042969.511719-8.785156 5.421875-16.546875 13.128906-20.769531 7.707031-4.222657 16.894531-4.175781 24.574219.121093 3.667968 2.054688 4.976562 6.691407 2.925781 10.359376-2.054687 3.667968-6.695313 4.980468-10.359375 2.925781-3.074219-1.722657-6.75-1.742188-9.828125-.054688s-5.042969 4.792969-5.246094 8.308594c-.234375 4.046875-3.589843 7.167969-7.589843 7.167969zm0 0" fill="#ffec9c"/><path d="m226.953125 506.457031c-.03125 0-.058594 0-.089844 0-4.207031-.015625-7.601562-3.433593-7.585937-7.636719.015625-4.195312 3.417968-7.585937 7.609375-7.585937h.066406c3.507813 0 6.714844-1.761719 8.582031-4.71875 1.875-2.96875 2.082032-6.636719.558594-9.8125-1.824219-3.789063-.226562-8.339844 3.5625-10.15625 3.785156-1.824219 8.335938-.226563 10.15625 3.5625 3.8125 7.933594 3.285156 17.105469-1.40625 24.53125-4.671875 7.40625-12.6875 11.816406-21.453125 11.816406zm0 0" fill="#ffec9c"/><path d="m144.222656 415.152344c-.03125 0-.0625 0-.089844 0-4.207031-.015625-7.601562-3.433594-7.585937-7.636719.015625-4.195313 3.417969-7.585937 7.609375-7.585937h.066406c3.507813 0 6.714844-1.761719 8.582032-4.722657 1.875-2.964843 2.082031-6.632812.554687-9.8125-1.820313-3.789062-.222656-8.335937 3.566406-10.15625 3.785157-1.820312 8.335938-.226562 10.15625 3.566407 3.8125 7.929687 3.285157 17.101562-1.402343 24.53125-4.679688 7.402343-12.695313 11.816406-21.457032 11.816406zm0 0" fill="#ffbd48"/><path d="m236.398438 434.578125c-6.726563 0-13.410157-1.941406-19.273438-5.765625-10.25-6.695312-16.234375-18.011719-16-30.273438.078125-4.152343 3.46875-7.46875 7.605469-7.46875.050781 0 .097656 0 .148437.003907 4.203125.078125 7.546875 3.550781 7.464844 7.753906-.132812 6.984375 3.273438 13.425781 9.105469 17.234375s13.101562 4.335938 19.441406 1.40625c3.816406-1.761719 8.339844-.101562 10.101563 3.714844 1.765624 3.820312.097656 8.339844-3.71875 10.105468-4.765626 2.199219-9.832032 3.289063-14.875 3.289063zm0 0" fill="#ffec9c"/><path d="m382.800781 337.050781c-3.597656 0-6.792969-2.554687-7.476562-6.21875-1.277344-6.863281-5.914063-12.492187-12.394531-15.046875-6.480469-2.550781-13.703126-1.601562-19.324219 2.546875-3.382813 2.496094-8.148438 1.777344-10.644531-1.605469-2.496094-3.382812-1.777344-8.148437 1.605468-10.644531 9.863282-7.28125 22.554688-8.949219 33.949219-4.457031 11.390625 4.488281 19.53125 14.367188 21.777344 26.421875.769531 4.132813-1.957031 8.105469-6.089844 8.875-.472656.089844-.941406.128906-1.402344.128906zm0 0" fill="#fff3c1"/><path d="m317.824219 482.769531h-.117188c-4.203125 0-7.613281-3.40625-7.613281-7.613281 0-4.203125 3.410156-7.609375 7.613281-7.609375h.117188c4.203125 0 7.613281 3.40625 7.613281 7.609375 0 4.207031-3.410156 7.613281-7.613281 7.613281zm0 0" fill="#ffbd48"/><path d="m306.453125 396.136719c-.019531 0-.042969 0-.0625 0h-.121094c-4.203125-.035157-7.582031-3.472657-7.546875-7.675781.039063-4.183594 3.4375-7.546876 7.613282-7.546876h.0625.121093c4.203125.035157 7.582031 3.472657 7.546875 7.675782-.039062 4.179687-3.4375 7.546875-7.613281 7.546875zm0 0" fill="#ffbd48"/><path d="m173.125 447.835938h-.117188c-4.203124 0-7.613281-3.40625-7.613281-7.613282 0-4.203125 3.410157-7.609375 7.613281-7.609375h.117188c4.207031 0 7.613281 3.40625 7.613281 7.609375 0 4.207032-3.40625 7.613282-7.613281 7.613282zm0 0" fill="#ffbd48"/><path d="m348.851562 281.871094c-.019531 0-.042968 0-.0625 0l-.121093-.003906c-4.203125-.035157-7.582031-3.46875-7.546875-7.671876.035156-4.183593 3.4375-7.550781 7.609375-7.550781h.066406l.117187.003907c4.203126.035156 7.585938 3.46875 7.550782 7.671874-.035156 4.183594-3.4375 7.550782-7.613282 7.550782zm0 0" fill="#ffec9c"/><path d="m266.503906 315.609375c-.019531 0-.042968 0-.0625 0h-.121094c-4.203124-.039063-7.582031-3.472656-7.546874-7.675781.035156-4.179688 3.4375-7.546875 7.613281-7.546875h.0625.117187c4.203125.035156 7.585938 3.472656 7.550782 7.675781-.035157 4.179688-3.4375 7.546875-7.613282 7.546875zm0 0" fill="#ffbd48"/><path d="m226.953125 306.035156c-.066406 0-.128906-.003906-.195313-.003906l-.117187-.003906c-4.203125-.101563-7.527344-3.597656-7.421875-7.796875.105469-4.140625 3.492188-7.421875 7.605469-7.421875h.195312l.121094.003906c4.199219.105469 7.523437 3.597656 7.417969 7.800781-.105469 4.136719-3.492188 7.421875-7.605469 7.421875zm0 0" fill="#ffbd48"/><g fill="#ffec9c"><path d="m367.804688 512h-.121094c-4.203125 0-7.609375-3.40625-7.609375-7.613281 0-4.203125 3.40625-7.609375 7.609375-7.609375h.121094c4.203124 0 7.609374 3.40625 7.609374 7.609375 0 4.207031-3.40625 7.613281-7.609374 7.613281zm0 0"/><path d="m290.144531 511.105469h-.121093c-4.203126 0-7.609376-3.40625-7.609376-7.613281 0-4.203126 3.40625-7.609376 7.609376-7.609376h.121093c4.203125 0 7.609375 3.40625 7.609375 7.609376 0 4.207031-3.40625 7.613281-7.609375 7.613281zm0 0"/><path d="m127.230469 358.300781c-4.203125 0-7.613281-3.410156-7.613281-7.613281v-50.484375c0-4.203125 3.410156-7.613281 7.613281-7.613281s7.609375 3.410156 7.609375 7.613281v50.484375c.003906 4.203125-3.40625 7.613281-7.609375 7.613281zm0 0"/><path d="m189.933594 306.03125c-4.203125 0-7.609375-3.40625-7.609375-7.609375v-35.390625c0-4.203125 3.40625-7.613281 7.609375-7.613281 4.207031 0 7.613281 3.40625 7.613281 7.613281v35.390625c0 4.203125-3.40625 7.609375-7.613281 7.609375zm0 0"/><path d="m252.640625 288.28125c-4.203125 0-7.613281-3.40625-7.613281-7.609375v-50.484375c0-4.203125 3.40625-7.613281 7.613281-7.613281 4.203125 0 7.609375 3.410156 7.609375 7.613281v50.484375c0 4.203125-3.40625 7.609375-7.609375 7.609375zm0 0"/><path d="m315.34375 253.273438c-4.203125 0-7.613281-3.40625-7.613281-7.609376v-50.484374c0-4.203126 3.410156-7.613282 7.613281-7.613282 4.207031 0 7.613281 3.410156 7.613281 7.613282v50.484374c0 4.203126-3.410156 7.609376-7.613281 7.609376zm0 0"/><path d="m378.050781 205.582031c-4.207031 0-7.613281-3.40625-7.613281-7.613281v-39.960938c0-4.207031 3.40625-7.613281 7.613281-7.613281 4.203125 0 7.609375 3.40625 7.609375 7.613281v39.960938c0 4.203125-3.40625 7.613281-7.609375 7.613281zm0 0"/></g><path d="m292.542969 139.742188c0 13-10.539063 23.539062-23.539063 23.539062s-23.539062-10.539062-23.539062-23.539062 10.539062-23.539063 23.539062-23.539063 23.539063 10.539063 23.539063 23.539063zm0 0" fill="#ffbd48"/><path d="m210.339844 147.152344c0 8.085937-6.558594 14.640625-14.644532 14.640625-8.085937 0-14.640624-6.554688-14.640624-14.640625 0-8.085938 6.554687-14.644532 14.640624-14.644532 8.085938 0 14.644532 6.558594 14.644532 14.644532zm0 0" fill="#ffbd48"/><path d="m95.5 230.570312c0 8.085938-6.554688 14.640626-14.644531 14.640626-8.085938 0-14.640625-6.554688-14.640625-14.640626 0-8.085937 6.554687-14.644531 14.640625-14.644531 8.089843 0 14.644531 6.558594 14.644531 14.644531zm0 0" fill="#ffbd48"/><path d="m276.199219 91.492188h-.117188c-4.203125 0-7.613281-3.40625-7.613281-7.613282 0-4.203125 3.410156-7.609375 7.613281-7.609375h.117188c4.207031 0 7.613281 3.40625 7.613281 7.609375 0 4.207032-3.40625 7.613282-7.613281 7.613282zm0 0" fill="#ffbd48"/><path d="m309.132812 108.203125c-.019531 0-.042968 0-.0625 0h-.121093c-4.199219-.035156-7.582031-3.472656-7.546875-7.675781.039062-4.203125 3.464844-7.601563 7.679687-7.546875h.117188c4.203125.035156 7.582031 3.472656 7.546875 7.675781-.035156 4.183594-3.4375 7.546875-7.613282 7.546875zm0 0" fill="#ffbd48"/><path d="m475.746094 117.710938-422.078125 243.6875c-7.382813 4.265624-16.828125 1.734374-21.089844-5.652344-4.265625-7.382813-1.734375-16.828125 5.652344-21.089844l422.078125-243.6875c7.382812-4.265625 16.828125-1.734375 21.089844 5.648438 4.261718 7.386718 1.734374 16.828124-5.652344 21.09375zm0 0" fill="#abe0da"/></svg>