<svg id="圖層_1" height="512" viewBox="0 0 512 512" width="512" xmlns="http://www.w3.org/2000/svg"><path id="_x30_3" d="m46.103 272.674c10.435-12.236 246.237-187.197 358.656-186.622 9.261.072 44.502 15.114 62.542 45.414 31.236 52.467 13.051 95.026 3.575 105.558-5.157 5.686-79.384 41.313-109.876 61.703-45.989 30.806-189.907 134.468-225.726 144.711z" fill="#d8b07c"/><path id="_x30_2" d="m64.527 267.059c34.882.385 67.173 22.455 83.223 49.086 42.175 70.146 2.087 123.238-19.721 131.658-7.916 3.047-44.43 13.338-71.923-9.619-17.129-14.321-35.961-40.664-40.399-65.375-11.707-65.541 21.615-106.061 48.82-105.75z" fill="#f2d9b0"/><path id="_x30_1" d="m300.953 182.853c-.457-7.029-6.551-12.355-13.627-11.875-7.029.456-12.355 6.549-11.899 13.579.479 7.053 6.573 12.379 13.603 11.923 7.075-.456 12.402-6.574 11.923-13.627zm-99.849 96.37c-7.029.455-12.355 6.574-11.875 13.578.455 7.053 6.549 12.404 13.578 11.924 7.053-.457 12.403-6.549 11.923-13.604-.455-7.053-6.573-12.379-13.626-11.898zm309.812-155.17c-2.783-6.213-10.124-8.924-16.242-6.166-3.813 1.704-9.596 4.678-15.833 7.893-.768-1.392-1.175-2.688-2.015-4.079-19.673-33.059-58.562-51.291-73.65-51.411-19.793 0-43.184 5.302-68.157 13.698-4.75-12.451-9.308-23.031-10.915-26.461-2.879-6.142-10.243-8.781-16.338-5.926-6.142 2.879-8.805 10.196-5.926 16.337 3.096 6.621 6.742 15.45 10.196 24.518-32.291 12.859-66.382 29.964-99.393 48.7-.504-1.295-1.079-2.688-1.583-3.91-3.287-8.157-6.094-15.09-7.797-18.76-2.855-6.166-10.22-8.829-16.313-5.998-6.166 2.855-8.828 10.172-5.998 16.313 1.607 3.455 4.247 10.004 7.342 17.657.936 2.303 1.942 4.774 2.927 7.197-28.933 17.177-56.09 34.738-79.576 50.764-11.323-5.709-20.992-11.275-25.382-15.521-4.847-4.654-12.619-4.583-17.369.335-4.702 4.87-4.559 12.667.336 17.369 4.342 4.198 11.323 8.781 19.768 13.555-19.647 13.938-35.05 25.622-44.189 33.059-4.198 3.431-17.993 14.636-22.144 19.601-19.745 23.583-27.061 59.544-20.081 98.697 5.158 28.691 26.126 57.146 44.622 72.619 13.65 11.396 31.164 17.416 50.644 17.416 17.682 0 31.067-4.797 33.563-5.758 2.903-1.127 20.272-9.715 27.518-13.482 19.12-9.932 45.629-26.532 76.48-46.996.049.215.12.504.168.742 1.584 7.224 2.831 12.884 3.239 15.093 1.127 5.877 6.262 9.979 12.043 9.979.768 0 1.535-.072 2.327-.215 6.646-1.271 11.035-7.701 9.764-14.371-.433-2.303-1.728-8.18-3.356-15.713-.673-3.119-1.466-6.693-2.232-10.244 21.854-14.776 75.043-51.508 77.993-53.569 8.133 2.446 29.269 8.563 29.269 8.563 1.151.336 2.303.479 3.43.479 5.326 0 10.244-3.479 11.805-8.854 1.896-6.525-1.871-13.338-8.372-15.234 0 0-8.183-2.375-10.028-2.902 1.847-1.223 3.743-2.52 5.35-3.598 16.122-10.797 45.774-26.463 69.62-39.057 3.91-2.064 7.438-3.936 10.628-5.613 8.518 6.764 16.025 13.193 20.368 17.992 2.422 2.688 5.758 4.055 9.115 4.055 2.928 0 5.879-1.057 8.229-3.168 5.038-4.533 5.446-12.307.889-17.344-3.791-4.199-9.332-9.117-15.426-14.251 4.75-2.831 7.243-4.654 8.756-6.333 9.164-10.172 26.582-46.253 10.027-93.563 6.214-3.215 11.973-6.189 15.737-7.893 6.185-2.783 8.945-10.052 6.162-16.241zm-362.158 275.074c-6.813 19.84-21.448 37.521-50.908 37.855-13.842.168-25.598-3.935-34.905-11.707-15.042-12.595-32.315-36.584-36.178-58.104-8.108-45.366 7.604-70.053 14.729-78.567 6.67-7.99 14.778-12.74 21.855-12.74 32.579.361 60.048 21.928 72.835 43.135 21.088 35.05 18.473 62.901 12.572 80.128zm312.714-174.555c-1.438 1.127-6.093 3.791-11.995 7.029-7.509-5.709-28.717-21.375-28.717-21.375-5.422-3.958-13.098-2.855-17.177 2.591-4.03 5.446-2.879 13.147 2.591 17.177 0 0 14.898 10.964 19.457 14.346-.217.12-55.299 29.197-72.5 40.712-5.829 3.91-13.362 9.068-21.927 14.97-19.911-6.213-32.603-10.818-37.545-13.724-5.829-3.381-13.386-1.485-16.817 4.392-3.43 5.854-1.463 13.387 4.391 16.817 4.99 2.927 13.818 6.404 24.566 10.101-16.242 11.252-34.762 24.039-53.907 37.018-1.271-6.238-2.375-11.996-2.975-15.834-1.031-6.717-7.389-11.203-14.011-10.268-6.717 1.031-11.299 7.315-10.268 14.01.983 6.262 2.999 16.361 5.206 26.918-20.68 13.818-40.592 26.676-57.673 37.016 7.461-22.191 10.796-57.359-14.922-100.135-15.905-26.391-43.687-45.678-73.29-52.324 8.516-6.261 18.521-13.41 29.771-21.207 14.395 6.765 54.962 23.87 56.474 24.59 1.679.768 3.431 1.129 5.157 1.129 4.631 0 9.068-2.641 11.156-7.126 2.83-6.142.168-13.458-5.998-16.313-1.655-.768-29.676-12.451-43.038-18.424 19.336-12.907 40.831-26.605 63.382-40.112 2.352 5.302 4.63 10.268 6.646 14.058 2.207 4.15 6.453 6.501 10.844 6.501 1.967 0 3.935-.456 5.781-1.439 5.974-3.191 8.253-10.628 5.063-16.625-2.016-3.766-4.463-9.164-6.981-14.97 32.627-18.665 66.357-35.961 97.833-48.604 2.566 8.205 4.271 15.138 4.246 18.592-.048 6.79 5.422 12.331 12.211 12.379h.072c6.741 0 12.234-5.446 12.283-12.188.048-6.525-2.447-16.601-5.807-27.325 22.407-7.533 43.087-12.067 60.456-12.067 5.086.36 36.033 12.259 52.203 39.417.551.912.814 1.751 1.318 2.663-5.351 2.639-10.076 4.822-12.812 5.71-6.453 2.087-9.979 9.02-7.893 15.474 1.68 5.182 6.502 8.493 11.684 8.493 1.247 0 2.52-.192 3.79-.6 3.768-1.223 9.021-3.574 14.994-6.501 10.847 34.974-1.172 60.356-5.322 65.058zm-70.268-81.375c-7.054.479-12.354 6.573-11.899 13.626.48 7.053 6.55 12.379 13.604 11.899 7.054-.479 12.354-6.573 11.898-13.578-.481-7.077-6.549-12.403-13.603-11.947zm-33.898 79.888c-22.118-2.903-38.337-2.039-66.382 1.008-6.74.72-11.611 6.789-10.891 13.53.672 6.286 5.997 10.964 12.188 10.964.455 0 .887-.024 1.344-.072 26.604-2.879 40.902-3.623 60.526-1.056 6.622.84 12.907-3.862 13.794-10.58.864-6.741-3.862-12.906-10.579-13.794z" fill="#231f20"/></svg>