<?xml version="1.0" encoding="iso-8859-1"?>
<!-- Generator: Adobe Illustrator 19.0.0, SVG Export Plug-In . SVG Version: 6.00 Build 0)  -->
<svg version="1.1" id="Capa_1" xmlns="http://www.w3.org/2000/svg" xmlns:xlink="http://www.w3.org/1999/xlink" x="0px" y="0px"
	 viewBox="0 0 512 512" style="enable-background:new 0 0 512 512;" xml:space="preserve">
<path style="fill:#6DC82A;" d="M306.138,336.93L306.138,336.93c-24.676,0-45.613-18.11-49.168-42.528l-23.134-158.879
	c-4.364-29.975,18.877-56.846,49.168-56.846h57.957c30.046,0,53.217,26.46,49.253,56.244L369.064,293.8
	C365.777,318.489,349.182,337.9,306.138,336.93z"/>
<path style="fill:#5EAC24;" d="M326.711,335.583c-6.061,1.042-12.894,1.513-20.568,1.342c-24.676,0-45.615-18.104-49.171-42.519
	l-23.133-158.885c-4.368-29.976,18.875-56.846,49.161-56.846h32.06c-30.286,0-53.53,26.87-49.161,56.846l23.133,158.885
	C292.016,314.915,307.275,330.975,326.711,335.583z"/>
<path style="fill:#47821C;" d="M135.407,165.593c0,0-23.212-63.811,39.105-87.563c2.572-0.98,5.437-0.844,7.939,0.304l0,0
	c6.978,3.198,8.263,12.654,2.296,17.484c-13.771,11.146-30.664,33.471-22.965,73.325L135.407,165.593z"/>
<path style="fill:#FF0C38;" d="M81.095,406.8L81.095,406.8c-24.676,0-45.613-18.11-49.168-42.528L8.793,205.392
	c-4.364-29.975,18.877-56.846,49.168-56.846h57.957c30.046,0,53.217,26.46,49.253,56.244L144.021,363.67
	C140.734,388.358,124.138,407.769,81.095,406.8z"/>
<path style="fill:#A5001E;" d="M205.862,406.8L205.862,406.8c24.676,0,45.613-18.11,49.168-42.528l23.134-158.879
	c4.364-29.975-18.877-56.846-49.168-56.846h-57.957c-30.046,0-53.217,26.46-49.253,56.244l21.149,158.879
	C146.222,388.358,162.818,407.769,205.862,406.8z"/>
<path style="fill:#C70024;" d="M214.783,205.391l-2.004,13.746l-21.129,145.13c-3.547,24.425-24.486,42.529-49.161,42.529
	c-2.655,0-5.27-0.21-7.815-0.611c-21.38-3.386-38.502-20.458-41.437-42.519L72.087,204.79
	c-3.967-29.785,19.206-56.245,49.252-56.245h44.282C195.907,148.546,219.151,175.416,214.783,205.391z"/>
<path style="fill:#A5001E;" d="M159.52,403.79c-5.33,1.954-11.071,3.006-17.032,3.006c-2.655,0-5.27-0.21-7.815-0.611
	c-21.38-3.386-38.502-20.458-41.437-42.519L72.087,204.79c-3.967-29.785,19.206-56.245,49.252-56.245h34.063
	c-30.046,0-53.219,26.459-49.252,56.245L127.3,363.666C129.795,382.451,142.578,397.619,159.52,403.79z"/>
<path style="fill:#47821C;" d="M376.592,95.724c0,0,23.212-63.811-39.105-87.563c-2.572-0.98-5.437-0.844-7.939,0.304l0,0
	c-6.978,3.198-8.263,12.654-2.296,17.484c13.771,11.146,30.664,33.471,22.965,73.325L376.592,95.724z"/>
<path style="fill:#4E901E;" d="M430.905,336.93L430.905,336.93c24.676,0,45.613-18.11,49.168-42.528l23.134-158.879
	c4.364-29.975-18.877-56.846-49.168-56.846h-57.957c-30.046,0-53.217,26.46-49.253,56.244L367.979,293.8
	C371.266,318.489,387.861,337.9,430.905,336.93z"/>
<path style="fill:#5EAC24;" d="M369.514,336.93L369.514,336.93c-24.676,0-45.613-18.11-49.168-42.528l-23.133-158.878
	c-4.364-29.975,18.877-56.846,49.168-56.846h44.283c30.046,0,53.217,26.46,49.253,56.244l-21.149,158.879
	C415.481,318.489,394.422,336.93,369.514,336.93z"/>
<path style="fill:#4E901E;" d="M389.037,332.928c-6.011,2.585-12.623,3.997-19.526,3.997c-24.676,0-45.605-18.104-49.161-42.519
	l-23.133-158.885c-4.368-29.976,18.875-56.846,49.161-56.846h39.073c-30.286,0-53.53,26.87-49.161,56.846l23.133,158.885
	C361.986,311.989,373.558,326.296,389.037,332.928z"/>
<path style="fill:#C70024;" d="M103.125,405.193c-6.422,1.222-13.736,1.793-22.031,1.603c-24.676,0-45.615-18.104-49.171-42.529
	L8.79,205.391c-4.358-29.976,18.885-56.846,49.171-56.846h34.564c-30.296,0-53.54,26.87-49.171,56.846l23.133,158.875
	C69.422,384.414,84.19,400.264,103.125,405.193z"/>
<path style="fill:#FF0C38;" d="M278.16,205.391l-23.133,158.875c-3.557,24.425-24.486,42.529-49.161,42.529
	c-7.424,0.17-14.056-0.271-19.977-1.242c19.626-4.478,35.075-20.618,38.081-41.287l23.133-158.875
	c4.368-29.976-18.875-56.846-49.161-56.846h31.058C259.285,148.546,282.529,175.416,278.16,205.391z"/>
<path style="fill:#6DC82A;" d="M503.209,135.521l-23.133,158.885c-3.557,24.415-24.496,42.519-49.171,42.519
	c-7.424,0.17-14.056-0.271-19.977-1.242c19.626-4.478,35.085-20.618,38.091-41.277l23.133-158.885
	c4.358-29.976-18.875-56.846-49.171-56.846h31.058C484.334,78.676,507.567,105.546,503.209,135.521z"/>
<path style="fill:#47821C;" d="M263.57,263.235c0,0-23.212-63.811,39.105-87.563c2.572-0.98,5.437-0.844,7.939,0.304l0,0
	c6.978,3.198,8.263,12.654,2.296,17.484c-13.771,11.146-30.664,33.471-22.965,73.325L263.57,263.235z"/>
<g>
	<path style="fill:#FFCD00;" d="M209.258,504.441L209.258,504.441c-24.676,0-45.613-18.11-49.168-42.528l-23.134-158.879
		c-4.364-29.975,18.877-56.846,49.168-56.846h57.957c30.046,0,53.217,26.46,49.253,56.244l-21.149,158.879
		C268.897,486,252.301,505.41,209.258,504.441z"/>
	<path style="fill:#FFCD00;" d="M390.051,414.821l16.276-111.787c4.364-29.975-18.877-56.846-49.168-56.846h-57.957
		c-30.046,0-53.217,26.46-49.253,56.244l21.149,158.879c3.286,24.69,19.883,44.1,62.926,43.13l0,0
		c24.676,0,45.613-18.11,49.168-42.528l1.911-13.118"/>
	<path style="fill:#FFCD00;" d="M356.989,414.821l16.276-111.787c4.364-29.975-18.877-56.846-49.168-56.846H266.14
		c-30.046,0-53.217,26.46-49.253,56.244l21.149,158.879c3.286,24.69,19.883,44.1,62.926,43.13l0,0
		c24.676,0,45.613-18.11,49.168-42.528l1.911-13.118"/>
</g>
<path style="fill:#DDB200;" d="M272.634,504.441L272.634,504.441c-24.676,0-45.613-18.11-49.168-42.528l-23.133-158.879
	c-4.364-29.975,18.877-56.846,49.168-56.846h44.283c30.046,0,53.217,26.46,49.253,56.244l-21.149,158.879
	C318.601,486,297.541,504.441,272.634,504.441z"/>
<path style="fill:#CCA400;" d="M291.165,500.851c-5.751,2.324-12.012,3.587-18.534,3.587c-24.676,0-45.605-18.104-49.161-42.529
	l-23.133-158.875c-4.368-29.976,18.875-56.846,49.161-56.846h37.069c-30.286,0-53.53,26.87-49.161,56.846l23.133,158.875
	C263.153,479.872,275.175,494.419,291.165,500.851z"/>
<g>
	<path style="fill:#DDB200;" d="M230.993,502.894c-6.352,1.182-13.565,1.723-21.73,1.543c-24.676,0-45.615-18.104-49.171-42.529
		l-23.133-158.875c-4.368-29.976,18.875-56.846,49.161-56.846h34.063c-30.286,0-53.53,26.87-49.161,56.846l23.133,158.875
		C197.1,482.136,211.957,498.025,230.993,502.894z"/>
	<path style="fill:#DDB200;" d="M406.329,303.033l-16.28,111.788l-4.949,33.973l-1.904,13.114
		c-1.783,12.213-7.905,22.842-16.671,30.427c-8.756,7.574-20.157,12.102-32.5,12.102c-7.915,0.18-14.938-0.331-21.149-1.443
		c7.704-1.904,14.737-5.6,20.588-10.66c8.766-7.584,14.888-18.214,16.671-30.427l1.904-13.114l4.949-33.973l16.28-111.788
		c4.358-29.976-18.875-56.846-49.171-56.846h33.061C387.454,246.187,410.687,273.057,406.329,303.033z"/>
</g>
<path d="M454.037,71.162c-0.11,0-64.46,0.01-65.732,0c0.812-31.829-14.868-57.337-48.139-70.02
	c-4.398-1.683-9.408-1.493-13.746,0.491c-12.072,5.526-14.176,21.826-3.897,30.156c9.347,7.554,19.226,19.977,21.58,39.423
	c-2.945,0.11-60.933-0.05-61.094-0.05c-34.792,0-61.639,30.88-56.605,65.442c0.23,1.603,0.451,3.076,0.651,4.428
	c-9.127-0.12-25.487,0.05-59.16,0.05c2.354-19.446,12.233-31.859,21.58-39.423c4.809-3.897,7.223-9.898,6.442-16.06
	c-1.482-11.793-13.598-18.6-24.085-14.587c-33.222,12.664-48.951,38.131-48.14,70.02H57.961c-34.805,0-61.635,30.907-56.605,65.442
	l23.133,158.885c4.058,27.882,28.353,48.911,56.515,48.951c12.293,0.351,25.658-1.112,36.959-5.56
	c8.646,4.138,18.134,5.991,27.591,5.48L152.657,463c3.767,25.868,25.377,48.991,59.611,48.991c13.595,0,25.297-2.034,34.985-6.061
	c15.91,7.975,34.294,7.935,49.903,0.461c11.381,4.488,24.726,5.901,36.959,5.56c28.162-0.04,52.458-21.069,56.515-48.951
	l1.914-13.124c0.591-4.108-2.254-7.915-6.362-8.516c-4.088-0.601-7.915,2.244-8.516,6.352l-1.904,13.114
	c-2.996,20.578-20.939,36.097-41.738,36.097c-6.933,0-13.054,0.06-21.199-1.543c8.766-8.666,14.788-20.147,16.511-33.081
	c18.042-135.557,20.968-157.517,21.149-158.875c2.495-18.775-4.468-37.289-18.054-49.722h24.726
	c23.263,0,42.178,18.875,42.178,42.078c0,5.588,0.146,1.123-16.721,117.959c-0.661,4.518,2.835,8.596,7.444,8.596
	c3.667,0,6.883-2.695,7.424-6.432c4.759-33.051,8.175-56.415,10.63-73.096c7.351,1.361,15.598,1.843,22.883,1.633
	c28.162-0.04,52.458-21.069,56.515-48.951l23.133-158.885C515.682,102.029,488.802,71.162,454.037,71.162z M331.981,20.107
	c-2.416-1.947-0.178-5.97,2.835-4.929c32.981,12.583,39.063,37.64,38.542,55.984h-14.186
	C356.446,44.362,342.019,28.242,331.981,20.107z M283.009,86.19h24.736c-14.257,13.054-20.709,32-17.963,50.414l4.979,34.214
	c-4.609,2.054-8.726,4.328-12.413,6.773c-6.602-17.012-21.179-30.437-39.884-34.945c-0.351-2.384-0.741-5.099-1.192-8.205
	C237.574,109.014,257.308,86.19,283.009,86.19z M298.568,196.976c-7.223,8.406-14.277,20.418-16.931,36.768
	c-0.234,1.442-0.504,3.385-0.651,4.929c-5.141,0-8.505,0-14.176,0c-0.401-13.956,3.026-31.799,19.206-45.074
	c3.156-2.595,6.803-5.009,11.01-7.193c2.565-1.332,5.33-2.575,8.325-3.717c2.935-1.082,5.26,2.955,2.835,4.929
	C305.221,190.023,301.875,193.118,298.568,196.976z M304.64,238.673h-8.566c0.922-7.564,2.976-14.066,5.711-19.626L304.64,238.673z
	 M244.869,159.165c12.643,5.13,21.821,15.98,25.037,28.824c-11.952,12.674-16.34,27.421-17.623,39.584
	c-0.401,3.847-0.511,7.574-0.421,11.101h-34.324l4.689-32.2c2.825-19.396-4.368-37.951-17.973-50.414
	C224.446,156.681,233.08,154.294,244.869,159.165z M177.193,85.047c2.813-1.039,5.348,2.896,2.825,4.929
	c-10.049,8.135-24.476,24.245-27.211,51.055h-14.156C138.12,122.687,144.201,97.621,177.193,85.047z M100.68,362.674l-9.488-71.313
	c-0.551-4.118-4.348-7.013-8.446-6.452c-4.108,0.541-7.003,4.318-6.452,8.436l9.488,71.313c1.723,12.934,7.744,24.415,16.511,33.082
	c-8.005,1.573-14.176,1.543-21.199,1.543c-20.799,0-38.732-15.519-41.738-36.097L16.233,204.309
	c-3.717-25.437,16.05-48.25,41.728-48.25h24.736c-11.411,10.449-18.575,25.447-18.575,42.078c0,6.632,0.431,5.801,8.205,65.412
	c0.541,4.118,4.328,7.013,8.436,6.462c4.118-0.551,7.003-4.328,6.462-8.446l-7.694-57.767
	c-3.386-25.497,16.491-47.739,41.808-47.739c48.2,0,45.094-0.04,47.037,0.09c24.265,1.573,42.589,23.554,38.972,48.16l-4.999,34.364
	h-16.22c-34.805,0-61.635,30.897-56.605,65.442l13.856,95.177C122.432,399.821,103.551,384.196,100.68,362.674z M209.252,496.923
	c-20.789,0-38.732-15.519-41.728-36.097c-17.342-119.109-7.943-54.57-6.906-47.45c-0.6-4.119-4.412-30.299-16.227-111.425
	c-3.697-25.427,16.04-48.25,41.738-48.25c3.505,0,21.224,0,24.736,0c-13.163,12.043-20.33,29.258-17.973,50.414l7.564,51.917
	c9.124,62.685,10.191,70.026,9.22,63.358c1.465,10.059,3.521,24.181,6.349,43.611c1.813,12.463,7.684,23.574,16.14,32.03
	C223.669,496.923,216.816,496.923,209.252,496.923z M335.587,301.44c-0.017,0.13-2.004,15.057-21.149,158.875
	c-1.623,12.173-8.406,22.592-17.963,29.174c-25.968,17.893-61.144,1.693-65.572-28.663
	c-17.606-120.875-14.475-99.418-22.852-156.962c-0.002-0.982-3.208-13.448,3.977-27.351c14.428-27.902,44.163-22.175,48.53-22.812
	c34.36-0.053,38.324-0.603,46.577,2.164C325.922,262.099,338.293,281.025,335.587,301.44z M495.775,134.439l-23.133,158.875
	c-2.966,20.358-20.658,36.107-41.908,36.107c-7.604,0.17-14.417-0.301-20.438-1.443c0.04-0.281,0.08-0.571,0.12-0.842
	c8.386-8.566,14.126-19.767,15.799-32.35l17.162-128.91c0.541-4.118-2.344-7.895-6.462-8.446c-4.108-0.541-7.885,2.344-8.436,6.462
	l-15.749,118.31c-6.121-24.956-28.713-43.531-55.573-43.531h-37.329l-5.34-36.648c1.052-0.972,2.104-1.873,3.146-2.725
	c10.299-8.336,8.165-24.636-3.887-30.156c-1.363-0.631-2.785-1.072-4.238-1.332l-4.859-33.372
	c-3.627-24.636,14.737-46.587,38.962-48.16c5.701,0.761,45.675,0.551,49.813,0c23.834,1.543,42.319,22.903,39.043,47.659l-0.02,0.17
	c-0.541,4.118,2.354,7.895,6.462,8.436c4.118,0.531,7.895-2.364,8.436-6.472c0.09-0.892,0.531-3.547,0.531-7.805
	c0-16.631-7.163-31.629-18.575-42.078h24.736C479.755,86.19,499.472,109.022,495.775,134.439z"/>
<path d="M160.619,413.376c0.007,0.046,0.014,0.097,0.02,0.138C160.633,413.47,160.626,413.427,160.619,413.376z"/>
<path d="M160.685,413.829C160.716,414.044,160.715,414.035,160.685,413.829L160.685,413.829z"/>
<path d="M209.676,419.39C203.187,374.812,208.346,410.252,209.676,419.39L209.676,419.39z"/>
<path d="M160.639,413.514c0.019,0.128,0.035,0.237,0.046,0.315C160.674,413.752,160.659,413.651,160.639,413.514z"/>
<g>
</g>
<g>
</g>
<g>
</g>
<g>
</g>
<g>
</g>
<g>
</g>
<g>
</g>
<g>
</g>
<g>
</g>
<g>
</g>
<g>
</g>
<g>
</g>
<g>
</g>
<g>
</g>
<g>
</g>
</svg>
