<svg id="filled_outline" height="512" viewBox="0 0 512 512" width="512" xmlns="http://www.w3.org/2000/svg" data-name="filled outline"><path d="m182 352c0-6.447 4.779-12.179 6.369-18.124 1.644-6.152.419-13.5 3.535-18.883 3.161-5.463 10.165-8.057 14.6-12.491s7.027-11.437 12.491-14.6c5.386-3.116 12.731-1.891 18.882-3.536 5.945-1.587 11.677-6.366 18.123-6.366s12.179 4.779 18.124 6.369c6.152 1.644 13.5.419 18.883 3.535 5.463 3.161 8.057 10.165 12.491 14.6s11.437 7.027 14.6 12.491c3.116 5.386 1.891 12.731 3.536 18.882 1.587 5.945 6.366 11.677 6.366 18.123s-4.779 12.179-6.369 18.124c-1.644 6.152-.419 13.5-3.535 18.883-3.161 5.463-10.165 8.057-14.6 12.491s-7.027 11.437-12.491 14.6c-5.386 3.116-12.731 1.891-18.882 3.536-5.945 1.587-11.677 6.366-18.123 6.366s-12.179-4.779-18.124-6.369c-6.152-1.644-13.5-.419-18.883-3.535-5.463-3.161-8.057-10.165-12.491-14.6s-11.437-7.027-14.6-12.491c-3.116-5.386-1.891-12.731-3.536-18.882-1.587-5.945-6.366-11.677-6.366-18.123z" fill="#a8652f"/><path d="m326.42 340.69a35.968 35.968 0 0 0 -6.3.94c-5.94 1.59-11.67 6.37-18.12 6.37s-12.18-4.78-18.12-6.37c-6.16-1.64-13.5-.42-18.89-3.53-5.46-3.17-8.05-10.17-12.49-14.6s-11.44-7.03-14.6-12.49c-3.11-5.39-1.89-12.73-3.53-18.89a39.559 39.559 0 0 0 -2.79-6.81 35.968 35.968 0 0 0 6.3-.94c5.94-1.59 11.67-6.37 18.12-6.37s12.18 4.78 18.12 6.37c6.16 1.64 13.5.42 18.89 3.53 5.46 3.17 8.05 10.17 12.49 14.6s11.44 7.03 14.6 12.49c3.11 5.39 1.89 12.73 3.53 18.89a39.559 39.559 0 0 0 2.79 6.81z" fill="#7a4922"/><g fill="#a8652f"><path d="m32 352c0-6.447 4.779-12.179 6.369-18.124 1.644-6.152.419-13.5 3.535-18.883 3.161-5.463 10.165-8.057 14.6-12.491s7.027-11.437 12.491-14.6c5.386-3.116 12.731-1.891 18.882-3.536 5.945-1.587 11.677-6.366 18.123-6.366s12.179 4.779 18.124 6.369c6.152 1.644 13.5.419 18.883 3.535 5.463 3.161 8.057 10.165 12.491 14.6s11.437 7.027 14.6 12.491c3.116 5.386 1.891 12.731 3.536 18.882 1.587 5.945 6.366 11.677 6.366 18.123s-4.779 12.179-6.369 18.124c-1.644 6.152-.419 13.5-3.535 18.883-3.161 5.463-10.165 8.057-14.6 12.491s-7.027 11.437-12.491 14.6c-5.386 3.116-12.731 1.891-18.882 3.536-5.945 1.587-11.677 6.366-18.123 6.366s-12.179-4.779-18.124-6.369c-6.152-1.644-13.5-.419-18.883-3.535-5.463-3.161-8.057-10.165-12.491-14.6s-11.437-7.027-14.6-12.491c-3.116-5.386-1.891-12.731-3.536-18.882-1.587-5.945-6.366-11.677-6.366-18.123z"/><path d="m332 352c0-6.447 4.779-12.179 6.369-18.124 1.644-6.152.419-13.5 3.535-18.883 3.161-5.463 10.165-8.057 14.6-12.491s7.027-11.437 12.491-14.6c5.386-3.116 12.731-1.891 18.882-3.536 5.945-1.587 11.677-6.366 18.123-6.366s12.179 4.779 18.124 6.369c6.152 1.644 13.5.419 18.883 3.535 5.463 3.161 8.057 10.165 12.491 14.6s11.437 7.027 14.6 12.491c3.116 5.386 1.891 12.731 3.536 18.882 1.587 5.945 6.366 11.677 6.366 18.123s-4.779 12.179-6.369 18.124c-1.644 6.152-.419 13.5-3.535 18.883-3.161 5.463-10.165 8.057-14.6 12.491s-7.027 11.437-12.491 14.6c-5.386 3.116-12.731 1.891-18.882 3.536-5.945 1.587-11.677 6.366-18.123 6.366s-12.179-4.779-18.124-6.369c-6.152-1.644-13.5-.419-18.883-3.535-5.463-3.161-8.057-10.165-12.491-14.6s-11.437-7.027-14.6-12.491c-3.116-5.386-1.891-12.731-3.536-18.882-1.587-5.945-6.366-11.677-6.366-18.123z"/><path d="m256 234c0 6.45-4.78 12.18-6.37 18.12-1 3.76-.94 7.96-1.44 11.88a18.387 18.387 0 0 1 -2.09 7.01c-3.17 5.46-10.17 8.05-14.6 12.49s-7.03 11.44-12.49 14.6c-5.39 3.11-12.73 1.89-18.89 3.53-5.94 1.59-11.67 6.37-18.12 6.37s-12.18-4.78-18.12-6.37c-6.16-1.64-13.5-.42-18.89-3.53-5.46-3.17-8.05-10.17-12.49-14.6s-11.44-7.03-14.6-12.49c-3.11-5.39-1.89-12.73-3.53-18.89-1.59-5.94-6.37-11.67-6.37-18.12s4.78-12.18 6.37-18.12c1.64-6.16.42-13.5 3.53-18.89 3.17-5.46 10.17-8.05 14.6-12.49a23.752 23.752 0 0 0 2.16-2.51c3.27-4.24 5.82-9.48 10.33-12.09 5.39-3.11 12.73-1.89 18.89-3.53 5.94-1.59 11.67-6.37 18.12-6.37s12.18 4.78 18.12 6.37c6.16 1.64 13.5.42 18.89 3.53 5.46 3.17 8.05 10.17 12.49 14.6s11.44 7.03 14.6 12.49c3.11 5.39 1.89 12.73 3.53 18.89 1.59 5.94 6.37 11.67 6.37 18.12z"/></g><path d="m256 234c0 6.45-4.78 12.18-6.37 18.12-1 3.76-.94 7.96-1.44 11.88a18.387 18.387 0 0 1 -2.09 7.01c-3.12 5.37-9.93 7.96-14.37 12.28-.42-3.71-.42-7.64-1.36-11.17-1.59-5.94-6.37-11.67-6.37-18.12s4.78-12.18 6.37-18.12c1.64-6.16.42-13.5 3.53-18.89 3.12-5.37 9.93-7.96 14.37-12.28.42 3.71.42 7.64 1.36 11.17 1.59 5.94 6.37 11.67 6.37 18.12z" fill="#7a4922"/><path d="m240 254c0-6.447 4.779-12.179 6.369-18.124 1.644-6.152.419-13.5 3.535-18.883 3.161-5.463 10.165-8.057 14.6-12.491s7.027-11.437 12.491-14.6c5.386-3.116 12.731-1.891 18.882-3.536 5.945-1.587 11.677-6.366 18.123-6.366s12.179 4.779 18.124 6.369c6.152 1.644 13.5.419 18.883 3.535 5.463 3.161 8.057 10.165 12.491 14.6s11.437 7.027 14.6 12.491c3.116 5.386 1.891 12.731 3.536 18.882 1.587 5.945 6.366 11.677 6.366 18.123s-4.779 12.179-6.369 18.124c-1.644 6.152-.419 13.5-3.535 18.883-3.161 5.463-10.165 8.057-14.6 12.491s-7.027 11.437-12.491 14.6c-5.386 3.116-12.731 1.891-18.882 3.536-5.945 1.587-11.677 6.366-18.123 6.366s-12.179-4.779-18.124-6.369c-6.152-1.644-13.5-.419-18.883-3.535-5.463-3.161-8.057-10.165-12.491-14.6s-11.437-7.027-14.6-12.491c-3.116-5.386-1.891-12.731-3.536-18.882-1.587-5.945-6.366-11.677-6.366-18.123z" fill="#a8652f"/><path d="m256 234c0 6.45-4.78 12.18-6.37 18.12-1 3.76-.94 7.96-1.44 11.88a18.387 18.387 0 0 1 -2.09 7.01c-3.12 5.37-9.93 7.96-14.37 12.28-.42-3.71-.42-7.64-1.36-11.17-1.59-5.94-6.37-11.67-6.37-18.12s4.78-12.18 6.37-18.12c1.64-6.16.42-13.5 3.53-18.89 3.12-5.37 9.93-7.96 14.37-12.28.42 3.71.42 7.64 1.36 11.17 1.59 5.94 6.37 11.67 6.37 18.12z" fill="#7a4922"/><path d="m376.62 214.92-.62 1.08-10.55 31.66a23.907 23.907 0 0 1 -44.06 3.13l-2.78-5.58a23.907 23.907 0 0 0 -44.06 3.13 18.65 18.65 0 0 1 -18.41 15.66h-10.58a21.946 21.946 0 0 1 -2.69-.16c-1.51-3.17-2.87-6.4-2.87-9.84 0-6.45 4.78-12.18 6.37-18.12 1.64-6.16.42-13.5 3.53-18.89 3.17-5.46 10.17-8.05 14.6-12.49s7.03-11.44 12.49-14.6c5.39-3.11 12.73-1.89 18.89-3.53 5.94-1.59 11.67-6.37 18.12-6.37s12.18 4.78 18.12 6.37c6.16 1.64 13.5.42 18.89 3.53 5.46 3.17 8.05 10.17 12.49 14.6 3.83 3.84 9.59 6.29 13.12 10.42z" fill="#7a4922"/><path d="m24 403.958h464a0 0 0 0 1 0 0 52.042 52.042 0 0 1 -52.042 52.042h-359.916a52.042 52.042 0 0 1 -52.042-52.042 0 0 0 0 1 0 0z" fill="#d6d5d0"/><path d="m256 234c0 6.45-4.78 12.18-6.37 18.12-1 3.76-.94 7.96-1.44 11.88h-2.63a23.509 23.509 0 0 1 -23.3-20.21l-4.16-29.08a17.111 17.111 0 0 0 -31.18-7.09c-1.6 2.4-3.39 5.08-5.04 7.56a19.819 19.819 0 0 1 -16.54 8.82h-.29a19.264 19.264 0 0 1 -17.9-12.12l-11.15-27.88-1.34-2.01c3.27-4.24 5.82-9.48 10.33-12.09 5.39-3.11 12.73-1.89 18.89-3.53 5.94-1.59 11.67-6.37 18.12-6.37s12.18 4.78 18.12 6.37c6.16 1.64 13.5.42 18.89 3.53 5.46 3.17 8.05 10.17 12.49 14.6s11.44 7.03 14.6 12.49c3.11 5.39 1.89 12.73 3.53 18.89 1.59 5.94 6.37 11.67 6.37 18.12z" fill="#ecab2c"/><path d="m256 234c0 6.45-4.78 12.18-6.37 18.12-.84 3.15-.93 6.61-1.24 9.95a18.59 18.59 0 0 1 -5.68 1.75 23.477 23.477 0 0 1 -18.33-13.08c1.17-5.16 4.67-9.94 5.99-14.86 1.64-6.16.42-13.5 3.53-18.89 3.12-5.37 9.93-7.96 14.37-12.28.42 3.71.42 7.64 1.36 11.17 1.59 5.94 6.37 11.67 6.37 18.12z" fill="#ecab2c"/><path d="m256 234c0 6.45-4.78 12.18-6.37 18.12-.84 3.15-.93 6.61-1.24 9.95a18.59 18.59 0 0 1 -5.68 1.75 23.477 23.477 0 0 1 -18.33-13.08c1.17-5.16 4.67-9.94 5.99-14.86 1.64-6.16.42-13.5 3.53-18.89 3.12-5.37 9.93-7.96 14.37-12.28.42 3.71.42 7.64 1.36 11.17 1.59 5.94 6.37 11.67 6.37 18.12z" fill="#d78e0c"/><path d="m376.62 214.92-.62 1.08-10.55 31.66a23.907 23.907 0 0 1 -44.06 3.13l-2.78-5.58a23.907 23.907 0 0 0 -44.06 3.13 18.65 18.65 0 0 1 -18.41 15.66h-10.58a21.946 21.946 0 0 1 -2.69-.16c-1.51-3.17-2.87-6.4-2.87-9.84 0-6.45 4.78-12.18 6.37-18.12 1.64-6.16.42-13.5 3.53-18.89 3.17-5.46 10.17-8.05 14.6-12.49s7.03-11.44 12.49-14.6c5.39-3.11 12.73-1.89 18.89-3.53 5.94-1.59 11.67-6.37 18.12-6.37s12.18 4.78 18.12 6.37c6.16 1.64 13.5.42 18.89 3.53 5.46 3.17 8.05 10.17 12.49 14.6 3.83 3.84 9.59 6.29 13.12 10.42z" fill="#ecab2c"/><path d="m70.5 336.5a7.976 7.976 0 0 0 5.657-2.343 48.552 48.552 0 0 0 5.647-7.229c1.786-2.626 3.472-5.107 5.193-6.1 1.666-.964 4.637-1.189 7.783-1.43a49.541 49.541 0 0 0 9.159-1.3 8 8 0 1 0 -4.131-15.457 36.623 36.623 0 0 1 -6.243.805c-4.572.348-9.755.743-14.58 3.534-4.884 2.826-7.821 7.144-10.412 10.955a35.762 35.762 0 0 1 -3.73 4.911 8 8 0 0 0 5.657 13.654z"/><path d="m364.846 322.845a8 8 0 0 0 11.314 11.314 48.552 48.552 0 0 0 5.647-7.229c1.786-2.626 3.472-5.107 5.193-6.1 1.666-.964 4.637-1.189 7.783-1.43a49.541 49.541 0 0 0 9.159-1.3 8 8 0 1 0 -4.131-15.457 36.623 36.623 0 0 1 -6.243.805c-4.572.348-9.755.743-14.58 3.534-4.884 2.826-7.821 7.144-10.412 10.955a35.762 35.762 0 0 1 -3.73 4.908z"/><path d="m488 395.958h-13.05a21.731 21.731 0 0 0 2.07-2.944c2.792-4.826 3.187-10.01 3.535-14.583a36.772 36.772 0 0 1 .805-6.241 34.7 34.7 0 0 1 2.325-5.516c1.922-3.974 4.315-8.915 4.315-14.674s-2.393-10.7-4.315-14.674a34.736 34.736 0 0 1 -2.325-5.515 36.8 36.8 0 0 1 -.805-6.241c-.348-4.573-.742-9.757-3.534-14.582-2.826-4.884-7.145-7.821-10.955-10.412a22.776 22.776 0 0 1 -8.642-8.642c-2.591-3.81-5.527-8.128-10.411-10.955-4.825-2.791-10.008-3.186-14.581-3.534a36.737 36.737 0 0 1 -6.243-.805 34.889 34.889 0 0 1 -5.516-2.326c-3.973-1.921-8.915-4.314-14.673-4.314s-10.7 2.393-14.673 4.314q-1.143.553-2.219 1.05c.075-.407.154-.806.252-1.174a34.7 34.7 0 0 1 2.325-5.516c1.922-3.974 4.315-8.915 4.315-14.674s-2.393-10.7-4.315-14.674a34.736 34.736 0 0 1 -2.325-5.515 36.8 36.8 0 0 1 -.805-6.241c-.348-4.573-.742-9.757-3.534-14.582-2.826-4.884-7.145-7.821-10.955-10.412a35.824 35.824 0 0 1 -4.911-3.73 35.758 35.758 0 0 1 -3.731-4.912c-2.591-3.81-5.527-8.128-10.411-10.955-4.825-2.791-10.008-3.186-14.581-3.534a36.636 36.636 0 0 1 -6.243-.805 34.889 34.889 0 0 1 -5.516-2.326c-3.973-1.921-8.915-4.314-14.673-4.314s-10.7 2.393-14.673 4.314a34.812 34.812 0 0 1 -5.516 2.326 36.623 36.623 0 0 1 -6.243.805c-4.572.348-9.755.743-14.58 3.534-4.884 2.826-7.821 7.144-10.412 10.955a35.839 35.839 0 0 1 -3.73 4.912 23.549 23.549 0 0 1 -2.992 2.4 24.467 24.467 0 0 0 -2.833-8.259c-2.826-4.884-7.145-7.821-10.955-10.412a35.824 35.824 0 0 1 -4.911-3.73 35.758 35.758 0 0 1 -3.731-4.912c-2.591-3.81-5.527-8.128-10.411-10.955-4.825-2.791-10.008-3.186-14.581-3.534a36.636 36.636 0 0 1 -6.243-.805 34.889 34.889 0 0 1 -5.516-2.326c-3.973-1.92-8.915-4.313-14.673-4.313s-10.7 2.393-14.673 4.314a34.812 34.812 0 0 1 -5.516 2.326 36.623 36.623 0 0 1 -6.243.805c-4.572.348-9.755.743-14.58 3.534-4.884 2.826-7.821 7.144-10.412 10.955a35.839 35.839 0 0 1 -3.73 4.912 35.777 35.777 0 0 1 -4.912 3.73c-3.81 2.591-8.128 5.527-10.954 10.41-2.792 4.826-3.187 10.01-3.535 14.583a36.772 36.772 0 0 1 -.8 6.241 34.7 34.7 0 0 1 -2.325 5.516c-1.927 3.974-4.32 8.915-4.32 14.674s2.393 10.7 4.315 14.674a34.736 34.736 0 0 1 2.325 5.515 36.8 36.8 0 0 1 .8 6.241 45.75 45.75 0 0 0 1.51 9.8 21.457 21.457 0 0 0 -2.95-.23c-5.758 0-10.7 2.393-14.673 4.314a34.812 34.812 0 0 1 -5.516 2.326 36.636 36.636 0 0 1 -6.243.805c-4.572.348-9.755.743-14.58 3.534-4.884 2.826-7.821 7.144-10.412 10.955a35.839 35.839 0 0 1 -3.73 4.912 35.777 35.777 0 0 1 -4.912 3.73c-3.81 2.591-8.128 5.527-10.954 10.41-2.792 4.826-3.187 10.01-3.535 14.583a36.772 36.772 0 0 1 -.8 6.241 34.7 34.7 0 0 1 -2.325 5.516c-1.927 3.974-4.32 8.915-4.32 14.674s2.393 10.7 4.315 14.674a34.736 34.736 0 0 1 2.325 5.515 36.8 36.8 0 0 1 .8 6.241c.348 4.573.742 9.757 3.534 14.582a21.675 21.675 0 0 0 2.072 2.946h-13.046a8 8 0 0 0 -8 8 60.11 60.11 0 0 0 60.042 60.042h359.916a60.11 60.11 0 0 0 60.042-60.042 8 8 0 0 0 -8-8zm-102.98-100.944a21.1 21.1 0 0 0 1.071-2.151 33.447 33.447 0 0 0 3.851-.766 47.379 47.379 0 0 0 8.355-3.38c2.887-1.4 5.613-2.717 7.7-2.717s4.817 1.319 7.7 2.717a47.41 47.41 0 0 0 8.355 3.38 49.541 49.541 0 0 0 9.159 1.3c3.145.241 6.117.466 7.783 1.431 1.721 1 3.408 3.476 5.193 6.1a37.634 37.634 0 0 0 12.876 12.876c2.626 1.786 5.107 3.472 6.1 5.194.964 1.666 1.19 4.638 1.43 7.783a49.531 49.531 0 0 0 1.3 9.158 47.368 47.368 0 0 0 3.38 8.354c1.4 2.887 2.717 5.614 2.717 7.7s-1.32 4.817-2.717 7.7a47.348 47.348 0 0 0 -3.38 8.355 49.6 49.6 0 0 0 -1.3 9.157c-.239 3.146-.465 6.118-1.43 7.785-1 1.721-3.475 3.406-6.1 5.191a48.47 48.47 0 0 0 -7.23 5.65c-.038.037-.069.078-.1.116h-20.013c.591-.829 1.158-1.655 1.7-2.457a22.776 22.776 0 0 1 8.642-8.642c3.81-2.59 8.128-5.526 10.955-10.411 2.791-4.826 3.186-10.009 3.534-14.581.093-1.23.182-2.392.312-3.485a8 8 0 0 0 -15.888-1.893c-.17 1.431-.276 2.82-.378 4.163-.24 3.146-.466 6.118-1.43 7.784-1 1.72-3.476 3.407-6.1 5.192a37.626 37.626 0 0 0 -12.876 12.877c-1.786 2.626-3.472 5.106-5.194 6.1-1.664.963-4.686 1.194-7.607 1.416a7.986 7.986 0 0 0 -6.291 3.935h-36.833c-.037-.039-.069-.08-.107-.118a48.546 48.546 0 0 0 -7.228-5.647c-2.626-1.786-5.107-3.472-6.1-5.194-.964-1.666-1.19-4.638-1.43-7.783a49.509 49.509 0 0 0 -1.3-9.157 52.715 52.715 0 0 0 -4.493-10.18l-.644-1.232a8.162 8.162 0 0 1 1.826-9.851 38.715 38.715 0 0 0 12.27-21.8c4.857-2.826 7.785-7.128 10.368-10.927a22.757 22.757 0 0 1 8.642-8.642c3.806-2.581 8.124-5.514 10.95-10.4zm-11.983-44.827 2.53-7.589c.56 1.3 1.154 2.537 1.716 3.7 1.4 2.887 2.717 5.614 2.717 7.7s-1.32 4.817-2.717 7.7a47.348 47.348 0 0 0 -3.38 8.355 49.6 49.6 0 0 0 -1.3 9.157c-.239 3.146-.465 6.118-1.43 7.785-1 1.721-3.475 3.406-6.1 5.191a37.631 37.631 0 0 0 -12.877 12.878c-1.786 2.626-3.472 5.107-5.193 6.1-1.666.964-4.637 1.189-7.783 1.43a49.541 49.541 0 0 0 -9.159 1.3 47.379 47.379 0 0 0 -8.355 3.38c-2.887 1.4-5.613 2.717-7.7 2.717s-4.817-1.319-7.7-2.717a47.41 47.41 0 0 0 -8.355-3.38 49.541 49.541 0 0 0 -9.159-1.3c-3.145-.241-6.117-.466-7.783-1.431-1.721-1-3.408-3.476-5.193-6.1a37.634 37.634 0 0 0 -12.876-12.876c-2.626-1.786-5.107-3.472-6.1-5.194-.964-1.666-1.19-4.638-1.43-7.783a60.709 60.709 0 0 0 -.867-7.216h1.606a26.553 26.553 0 0 0 26.178-21.62 15.9 15.9 0 0 1 29.136-1.589l2.787 5.574a31.7 31.7 0 0 0 27.237 17.59c-.761.551-1.573 1.107-2.406 1.673a37.626 37.626 0 0 0 -12.876 12.877c-1.786 2.626-3.472 5.106-5.194 6.1-1.664.963-4.686 1.194-7.607 1.416a8 8 0 0 0 .6 15.977q.306 0 .617-.023c4.269-.326 9.582-.731 14.4-3.521 4.885-2.826 7.821-7.144 10.412-10.955a22.776 22.776 0 0 1 8.642-8.642c3.81-2.59 8.128-5.526 10.955-10.411a27.54 27.54 0 0 0 3.228-11.1 31.834 31.834 0 0 0 10.779-15.153zm-41.592 128.243c.348 4.573.742 9.757 3.534 14.582a21.675 21.675 0 0 0 2.072 2.946h-12.1a21.731 21.731 0 0 0 2.07-2.944c2.792-4.826 3.187-10.01 3.535-14.583.119-1.567.241-3.06.445-4.4.199 1.34.325 2.833.444 4.399zm-.355-47.884a21.131 21.131 0 0 1 3.1-1.186 20.128 20.128 0 0 1 2.709-.483 22.8 22.8 0 0 1 -4.5 5.72 19.749 19.749 0 0 1 -1.042-2.787c-.105-.402-.19-.831-.267-1.264zm-80.373-84.246a47.348 47.348 0 0 0 3.38-8.355 49.6 49.6 0 0 0 1.3-9.157c.239-3.146.465-6.118 1.43-7.785 1-1.721 3.475-3.406 6.1-5.191a48.526 48.526 0 0 0 7.23-5.649 48.552 48.552 0 0 0 5.647-7.229c1.786-2.626 3.472-5.107 5.193-6.1 1.666-.964 4.637-1.189 7.783-1.43a49.541 49.541 0 0 0 9.159-1.3 47.379 47.379 0 0 0 8.355-3.38c2.887-1.4 5.613-2.717 7.7-2.717s4.817 1.319 7.7 2.717a47.41 47.41 0 0 0 8.355 3.38 49.541 49.541 0 0 0 9.159 1.3c3.145.241 6.117.466 7.783 1.431 1.721 1 3.408 3.476 5.193 6.1a48.5 48.5 0 0 0 5.648 7.229 48.546 48.546 0 0 0 7.228 5.647c.716.486 1.416.965 2.083 1.439l-9.294 27.881a15.9 15.9 0 0 1 -29.309 2.082l-2.787-5.574a31.9 31.9 0 0 0 -58.8 4.179 7.943 7.943 0 0 0 -.306 1.243 10.62 10.62 0 0 1 -10.51 8.939h-7.817a7.7 7.7 0 0 1 -.32-2c0-2.09 1.32-4.817 2.717-7.7zm-7.738 48.716a26.042 26.042 0 0 0 6.992 7.593c-.054.013-.107.02-.16.035a36.623 36.623 0 0 1 -6.243.805c-4.572.348-9.755.743-14.58 3.534-4.884 2.826-7.821 7.144-10.412 10.955a35.762 35.762 0 0 1 -3.73 4.911 8 8 0 0 0 11.314 11.314 48.552 48.552 0 0 0 5.647-7.229c1.786-2.626 3.472-5.107 5.193-6.1 1.666-.964 4.637-1.189 7.783-1.43a49.541 49.541 0 0 0 9.159-1.3 8 8 0 0 0 5.926-7.79c.884 1.084 1.777 2.391 2.708 3.759 2.591 3.81 5.527 8.128 10.411 10.955 4.825 2.791 10.008 3.186 14.581 3.534a36.636 36.636 0 0 1 6.243.805 34.889 34.889 0 0 1 5.516 2.326c3.973 1.914 8.915 4.307 14.673 4.307.643 0 1.272-.04 1.894-.1l.009.037a47.368 47.368 0 0 0 3.38 8.354c1.4 2.887 2.717 5.614 2.717 7.7s-1.32 4.817-2.717 7.7a47.348 47.348 0 0 0 -3.38 8.355 49.6 49.6 0 0 0 -1.3 9.157c-.239 3.146-.465 6.118-1.43 7.785-1 1.721-3.475 3.406-6.1 5.191a48.47 48.47 0 0 0 -7.23 5.65c-.038.037-.069.078-.1.116h-20.023c.591-.829 1.158-1.655 1.7-2.457a22.776 22.776 0 0 1 8.642-8.642c3.81-2.59 8.128-5.526 10.955-10.411 2.791-4.826 3.186-10.009 3.534-14.581.093-1.23.182-2.392.312-3.485a8 8 0 0 0 -15.888-1.893c-.17 1.431-.276 2.82-.378 4.163-.24 3.146-.466 6.118-1.43 7.784-1 1.72-3.476 3.407-6.1 5.192a37.626 37.626 0 0 0 -12.876 12.877c-1.786 2.626-3.472 5.106-5.194 6.1-1.664.963-4.686 1.194-7.607 1.416a7.986 7.986 0 0 0 -6.291 3.935h-36.833c-.037-.039-.069-.08-.107-.118a48.546 48.546 0 0 0 -7.228-5.647c-2.626-1.786-5.107-3.472-6.1-5.194-.964-1.666-1.19-4.638-1.43-7.783a49.531 49.531 0 0 0 -1.3-9.158 47.368 47.368 0 0 0 -3.38-8.354c-1.4-2.887-2.717-5.614-2.717-7.7s1.32-4.817 2.717-7.7a47.348 47.348 0 0 0 3.38-8.355 49.6 49.6 0 0 0 1.3-9.157c.239-3.146.465-6.118 1.43-7.785 1-1.721 3.475-3.406 6.1-5.191a48.939 48.939 0 0 0 7.148-5.574 27.16 27.16 0 0 0 10.934-3.213c4.884-2.826 7.821-7.144 10.412-10.955a35.839 35.839 0 0 1 3.73-4.912 23.549 23.549 0 0 1 2.992-2.4 24.467 24.467 0 0 0 2.832 8.265zm-93.979-118.188c1.666-.964 4.637-1.189 7.783-1.43a49.541 49.541 0 0 0 9.159-1.3 47.379 47.379 0 0 0 8.355-3.38c2.887-1.4 5.613-2.717 7.7-2.717s4.817 1.319 7.7 2.717a47.41 47.41 0 0 0 8.355 3.38 49.541 49.541 0 0 0 9.159 1.3c3.145.241 6.117.466 7.783 1.431 1.721 1 3.408 3.476 5.193 6.1a48.5 48.5 0 0 0 5.648 7.229 48.5 48.5 0 0 0 7.228 5.647c2.626 1.786 5.107 3.472 6.1 5.194.964 1.666 1.19 4.638 1.43 7.783a59.727 59.727 0 0 0 .9 7.367 40.161 40.161 0 0 0 -2.057 11.418 36.772 36.772 0 0 1 -.805 6.241 34.7 34.7 0 0 1 -2.325 5.516 44.861 44.861 0 0 0 -3.721 9.692 15.536 15.536 0 0 1 -2.419-6.358l-4.154-29.079a25.111 25.111 0 0 0 -45.754-10.4l-5.045 7.567a11.832 11.832 0 0 1 -9.88 5.254h-.3a11.222 11.222 0 0 1 -10.471-7.09l-10.529-26.332c1.711-2.493 3.324-4.8 4.967-5.75zm-30.283 49.472a47.348 47.348 0 0 0 3.38-8.355 49.6 49.6 0 0 0 1.3-9.157c.239-3.146.466-6.118 1.43-7.785 1-1.721 3.475-3.406 6.1-5.191.3-.2.614-.423.922-.634l7.867 19.676a27.145 27.145 0 0 0 25.331 17.146h.3a27.8 27.8 0 0 0 23.193-12.379l5.044-7.566a9.084 9.084 0 0 1 7.57-4.055 9.182 9.182 0 0 1 9.033 7.844l4.154 29.08c0 .021.008.042.012.064a7.99 7.99 0 0 0 -.407 1.277 7.661 7.661 0 0 1 -.77 2.171c-1 1.72-3.476 3.407-6.1 5.192a37.626 37.626 0 0 0 -12.876 12.877c-1.786 2.626-3.472 5.106-5.194 6.1-1.664.963-4.686 1.194-7.607 1.416a8 8 0 0 0 .6 15.977q.306 0 .617-.023c4.269-.326 9.582-.731 14.4-3.521 4.885-2.826 7.821-7.144 10.412-10.955a35.824 35.824 0 0 1 3.73-4.911 35.7 35.7 0 0 1 4.912-3.731 54.647 54.647 0 0 0 6.431-4.89 31.03 31.03 0 0 0 13.16 8.42c-.811.593-1.688 1.192-2.587 1.8a37.631 37.631 0 0 0 -12.877 12.878c-1.786 2.626-3.472 5.107-5.193 6.1-1.666.964-4.637 1.189-7.783 1.43a49.541 49.541 0 0 0 -9.159 1.3 47.379 47.379 0 0 0 -8.355 3.38c-2.887 1.4-5.613 2.717-7.7 2.717s-4.817-1.319-7.7-2.717a47.41 47.41 0 0 0 -8.355-3.38 49.541 49.541 0 0 0 -9.159-1.3c-3.145-.241-6.117-.466-7.783-1.431-1.721-1-3.408-3.476-5.193-6.1a48.5 48.5 0 0 0 -5.648-7.229 48.546 48.546 0 0 0 -7.228-5.647c-2.626-1.786-5.107-3.472-6.1-5.194-.964-1.666-1.19-4.638-1.43-7.783a49.531 49.531 0 0 0 -1.3-9.158 47.368 47.368 0 0 0 -3.38-8.354c-1.4-2.887-2.717-5.614-2.717-7.7s1.306-4.816 2.703-7.699zm61.838 152.135c.119-1.567.241-3.06.445-4.4.2 1.345.326 2.838.445 4.4.348 4.573.742 9.757 3.534 14.582a21.675 21.675 0 0 0 2.072 2.946h-12.1a21.731 21.731 0 0 0 2.07-2.944c2.791-4.831 3.186-10.019 3.534-14.588zm-1.51-62.659a21.457 21.457 0 0 0 2.955.224c.305 0 .6-.032.9-.045a46.524 46.524 0 0 0 -1.454 9.614c-.119 1.567-.241 3.06-.445 4.4-.2-1.345-.326-2.838-.445-4.4a45.75 45.75 0 0 0 -1.511-9.797zm-136.328 28.524a47.348 47.348 0 0 0 3.38-8.355 49.6 49.6 0 0 0 1.3-9.157c.239-3.146.465-6.118 1.43-7.785.995-1.721 3.475-3.406 6.1-5.191a48.526 48.526 0 0 0 7.23-5.649 48.552 48.552 0 0 0 5.647-7.229c1.786-2.626 3.472-5.107 5.193-6.1 1.666-.964 4.637-1.189 7.783-1.43a49.541 49.541 0 0 0 9.159-1.3 47.379 47.379 0 0 0 8.355-3.38c2.887-1.4 5.613-2.717 7.7-2.717s4.817 1.319 7.7 2.717a47.41 47.41 0 0 0 8.355 3.38 44.43 44.43 0 0 0 8 1.209c.174.253.345.5.521.76 2.591 3.81 5.527 8.128 10.411 10.955a24.793 24.793 0 0 0 8.626 2.9c.076.078.152.166.228.243a48.546 48.546 0 0 0 7.228 5.647c2.626 1.786 5.107 3.472 6.1 5.194.964 1.666 1.19 4.638 1.43 7.783a49.531 49.531 0 0 0 1.3 9.158 47.368 47.368 0 0 0 3.38 8.354c1.4 2.887 2.717 5.614 2.717 7.7s-1.32 4.817-2.717 7.7a47.348 47.348 0 0 0 -3.38 8.355 49.6 49.6 0 0 0 -1.3 9.157c-.239 3.146-.465 6.118-1.43 7.785-1 1.721-3.475 3.406-6.1 5.191a48.47 48.47 0 0 0 -7.23 5.65c-.038.037-.069.078-.1.116h-20.013c.591-.829 1.158-1.655 1.7-2.457a35.824 35.824 0 0 1 3.73-4.911 35.7 35.7 0 0 1 4.912-3.731c3.81-2.59 8.128-5.526 10.955-10.411 2.791-4.826 3.186-10.009 3.534-14.581.093-1.23.182-2.392.312-3.485a8 8 0 0 0 -15.888-1.893c-.17 1.431-.276 2.82-.378 4.163-.24 3.146-.466 6.118-1.43 7.784-1 1.72-3.476 3.407-6.1 5.192a48.5 48.5 0 0 0 -7.229 5.648 48.384 48.384 0 0 0 -5.647 7.229c-1.786 2.626-3.472 5.106-5.194 6.1-1.664.963-4.686 1.194-7.607 1.416a7.986 7.986 0 0 0 -6.291 3.935h-36.833c-.037-.039-.069-.08-.107-.118a48.546 48.546 0 0 0 -7.228-5.647c-2.626-1.786-5.107-3.472-6.1-5.194-.964-1.666-1.19-4.638-1.43-7.783a49.531 49.531 0 0 0 -1.3-9.158 47.368 47.368 0 0 0 -3.38-8.354c-1.401-2.888-2.721-5.615-2.721-7.705s1.32-4.817 2.717-7.7zm393.241 103.7h-359.916a44.118 44.118 0 0 1 -43.314-36.042h446.544a44.118 44.118 0 0 1 -43.314 36.042z"/><path d="m272 72a8 8 0 0 0 -16 0c0 2.666-.7 3.6-2.4 5.866-2.23 2.973-5.6 7.466-5.6 15.465s3.37 12.493 5.6 15.467c1.7 2.264 2.4 3.2 2.4 5.868s-.7 3.6-2.4 5.867c-2.23 2.974-5.6 7.467-5.6 15.467a8 8 0 0 0 16 0c0-2.667.7-3.6 2.4-5.867 2.23-2.974 5.6-7.467 5.6-15.467s-3.37-12.494-5.6-15.468c-1.7-2.263-2.4-3.2-2.4-5.867s.7-3.6 2.4-5.864c2.23-2.974 5.6-7.467 5.6-15.467z"/><path d="m312 72a8 8 0 0 0 -16 0c0 2.666-.7 3.6-2.4 5.866-2.23 2.973-5.6 7.466-5.6 15.465s3.37 12.493 5.6 15.467c1.7 2.264 2.4 3.2 2.4 5.868s-.7 3.6-2.4 5.867c-2.23 2.974-5.6 7.467-5.6 15.467a8 8 0 0 0 16 0c0-2.667.7-3.6 2.4-5.867 2.23-2.974 5.6-7.467 5.6-15.467s-3.37-12.494-5.6-15.468c-1.7-2.263-2.4-3.2-2.4-5.867s.7-3.6 2.4-5.864c2.23-2.974 5.6-7.467 5.6-15.467z"/><path d="m232 72a8 8 0 0 0 -16 0c0 2.666-.7 3.6-2.4 5.866-2.23 2.973-5.6 7.466-5.6 15.465s3.37 12.493 5.6 15.467c1.7 2.264 2.4 3.2 2.4 5.868s-.7 3.6-2.4 5.867c-2.23 2.974-5.6 7.467-5.6 15.467a8 8 0 0 0 16 0c0-2.667.7-3.6 2.4-5.867 2.23-2.974 5.6-7.467 5.6-15.467s-3.37-12.494-5.6-15.468c-1.7-2.263-2.4-3.2-2.4-5.867s.7-3.6 2.4-5.864c2.23-2.974 5.6-7.467 5.6-15.467z"/></svg>