<svg id="Capa_1" enable-background="new 0 0 512 512" height="512" viewBox="0 0 512 512" width="512" xmlns="http://www.w3.org/2000/svg"><g><g><path d="m483.32 200.668c4.268-9.058 8.322-18.24 12.147-27.55 10.936-26.614 11.599-54.887 3.837-80.425-10.114-33.278-34.537-61.909-69.217-76.159-61.291-25.182-131.397 4.086-156.583 65.379-35.7 86.881-103.959 155.013-192.202 191.843-61.153 25.523-90.037 95.788-64.514 156.941 14.349 34.379 42.838 58.551 75.898 68.6 11.225 3.412 22.975 5.202 34.88 5.202 15.402 0 31.063-2.985 46.165-9.289 9.523-3.975 18.907-8.173 28.153-12.586 5.417 7.802 14.437 12.915 24.654 12.915 16.569 0 30-13.431 30-30 0-3.966-.777-7.748-2.174-11.213 42.165-25.513 80.839-56.044 115.578-91.301 32.875-33.366 61.367-70.077 85.231-109.721 3.506 1.437 7.342 2.235 11.366 2.235 16.569 0 30-13.431 30-30 0-10.351-5.243-19.479-13.219-24.871z" fill="#00ce8e"/><g fill="#00b27a"><path d="m430.089 16.534c-55.699-22.884-118.672-.8-148.603 49.418-1.61-.267-3.261-.413-4.947-.413-16.569 0-30 13.432-30 30 0 8.792 3.782 16.7 9.808 22.188-13.378 24.338-29.499 46.844-48.055 67.167-5.466-5.758-13.188-9.354-21.754-9.354-16.569 0-30 13.431-30 30 0 7.699 2.903 14.717 7.67 20.029-24.973 19.378-52.772 35.611-82.906 48.188-61.153 25.523-90.037 95.788-64.514 156.941.317.759.649 1.506.979 2.255-6.289 5.499-10.267 13.576-10.267 22.587 0 16.569 13.431 30 30 30 6.477 0 12.469-2.059 17.372-5.549 11.388 8.643 24.212 15.173 37.814 19.307-17.735-58.246 11.233-121.592 68.617-145.542 88.243-36.83 156.502-104.962 192.202-191.843 7.533-18.331 19.087-33.792 33.218-45.793-17.891-18.958-4.581-50.581 21.816-50.581 14.84 0 27.155 10.778 29.565 24.931 19.743-4.467 40.778-3.995 61.201 2.223-10.114-33.277-34.537-61.909-69.216-76.159zm-308.55 335.006c-16.569 0-30-13.432-30-30 0-16.569 13.431-30 30-30s30 13.431 30 30c0 16.568-13.432 30-30 30z"/><circle cx="316.539" cy="305.539" r="30"/></g></g><g fill="#ff8e9e"><ellipse cx="257.267" cy="192.354" rx="23.377" ry="29.355" transform="matrix(.5 -.866 .866 .5 -37.95 318.977)"/><ellipse cx="395.063" cy="271.91" rx="23.377" ry="29.355" transform="matrix(.5 -.866 .866 .5 -37.95 478.089)"/></g><g><path d="m263.158 440.018c-4.157 2.663-8.422 5.318-12.676 7.892-3.148 1.904-4.45 5.812-3.073 9.224 1.082 2.681 1.63 5.509 1.63 8.406 0 21.989-28.467 30.851-40.994 12.809-2.097-3.021-6.075-4.077-9.392-2.491-26.963 12.87-45.07 21.142-71.087 21.142-23.731 0-47.914-7.617-68.16-22.984-2.612-1.981-6.211-2.038-8.884-.136-3.822 2.721-8.325 4.159-13.022 4.159-12.407 0-22.5-10.094-22.5-22.502-.002-6.744 2.993-12.82 7.705-16.938 2.329-2.037 3.354-5.44 1.835-8.876-6.122-13.888-9.54-29.154-9.54-45.19 0-45.548 27.159-86.313 69.191-103.855 30.484-12.724 58.953-29.271 84.616-49.186 3.44-2.669 3.887-7.7.983-10.935-3.709-4.132-5.751-9.466-5.751-15.019 0-12.406 10.093-22.5 22.5-22.5 6.225 0 12.019 2.492 16.315 7.018 2.984 3.143 8.035 3.117 10.978-.107 18.966-20.771 35.481-43.855 49.088-68.61 1.669-3.038 1.04-6.824-1.523-9.158-4.676-4.258-7.358-10.324-7.358-16.642 0-13.762 12.363-24.487 26.219-22.188 3.045.507 6.09-.906 7.67-3.559 4.686-7.861 10.329-15.13 16.772-21.605 2.921-2.936 2.91-7.685-.026-10.607-2.936-2.92-7.684-2.91-10.607.026-6.187 6.218-11.724 13.08-16.5 20.448-20.964-.596-38.528 16.321-38.528 37.485 0 8.485 2.901 16.696 8.103 23.276-11.319 19.845-24.605 38.521-39.59 55.652-6.143-4.185-13.383-6.428-21.014-6.428-20.678 0-37.5 16.822-37.5 37.5 0 6.521 1.69 12.862 4.851 18.448-23.104 17.174-48.462 31.573-75.476 42.848-47.634 19.881-78.413 66.08-78.413 117.698 0 16.035 3.001 31.745 8.926 46.736-5.7 6.715-8.928 15.239-8.926 24.27 0 20.678 16.822 37.5 37.5 37.5 5.966 0 11.745-1.392 16.978-4.061 21.89 15.286 47.61 23.022 73.088 23.022 28.098 0 46.871-8.286 72.286-20.125 26.071 26.402 71.22 2.564 63.362-34.171 2.701-1.67 5.389-3.361 8.034-5.056 3.488-2.234 4.504-6.873 2.27-10.361s-6.873-4.505-10.36-2.269z"/><path d="m502.406 175.969c6.366-15.493 9.594-31.775 9.594-48.395 0-70.936-57.649-127.574-127.462-127.574-22.977 0-45.594 6.242-65.404 18.053-3.558 2.121-4.723 6.724-2.602 10.282 2.121 3.56 6.726 4.724 10.282 2.602 17.49-10.426 37.451-15.937 57.724-15.937 61.311 0 112.462 49.732 112.462 112.574 0 14.654-2.85 29.019-8.469 42.693-3.72 9.054-7.755 18.206-11.994 27.204-1.576 3.345-.479 7.339 2.584 9.41 6.211 4.198 9.919 11.173 9.919 18.657 0 15.96-16.251 26.88-31.021 20.825-3.426-1.406-7.362-.1-9.271 3.071-41.219 68.476-96.542 127.92-161.057 173.987-3.371 2.407-4.152 7.091-1.745 10.462 2.408 3.372 7.092 4.152 10.462 1.745 62.482-44.616 118.874-103.166 162.141-173.447 23.435 5.109 45.491-12.85 45.491-36.644 0-10.279-4.195-19.98-11.461-26.989 3.446-7.498 6.742-15.071 9.827-22.579z"/><path d="m141.447 332.036c-10.924 20.66-42.408 12.898-42.408-10.497 0-4.143-3.358-7.5-7.5-7.5s-7.5 3.357-7.5 7.5c0 20.678 16.822 37.5 37.5 37.5 13.939 0 26.649-7.66 33.169-19.991 1.936-3.662.537-8.2-3.125-10.136-3.664-1.939-8.201-.539-10.136 3.124z"/><path d="m290.022 321.449c-2.929 2.93-2.929 7.678 0 10.607 14.621 14.621 38.412 14.622 53.033 0s14.621-38.412 0-53.034c-2.93-2.928-7.678-2.928-10.607 0-2.929 2.93-2.929 7.678 0 10.607 8.773 8.772 8.773 23.047 0 31.819-8.771 8.772-23.047 8.774-31.819 0-2.929-2.927-7.678-2.927-10.607.001z"/><path d="m408.539 73.039c12.406 0 22.5 10.093 22.5 22.5 0 4.142 3.357 7.5 7.5 7.5s7.5-3.358 7.5-7.5c0-20.678-16.822-37.5-37.5-37.5-4.143 0-7.5 3.358-7.5 7.5s3.357 7.5 7.5 7.5z"/><path d="m289.829 185.169 6-10.392c2.071-3.587.842-8.174-2.745-10.245s-8.174-.843-10.245 2.745l-6 10.392c-2.071 3.587-.842 8.174 2.745 10.245 3.588 2.071 8.175.842 10.245-2.745z"/><path d="m391.003 229.726-6 10.393c-2.071 3.587-.842 8.174 2.745 10.245 3.592 2.072 8.177.839 10.245-2.745l6-10.393c2.071-3.587.842-8.174-2.745-10.245-3.589-2.072-8.175-.843-10.245 2.745z"/><path d="m354.286 227.661c3.918-1.344 6.006-5.609 4.662-9.527-1.344-3.919-5.614-6.005-9.527-4.662-8.237 2.825-17.052-2.258-18.724-10.81-.795-4.065-4.737-6.712-8.801-5.92-4.065.795-6.716 4.735-5.92 8.801 3.435 17.554 21.548 27.866 38.31 22.118z"/></g></g></svg>