<?xml version="1.0" encoding="UTF-8" standalone="no"?>
<!-- Created with Inkscape (http://www.inkscape.org/) -->

<svg
   version="1.1"
   id="svg4281"
   xml:space="preserve"
   width="682.66669"
   height="682.66669"
   viewBox="0 0 682.66669 682.66669"
   xmlns="http://www.w3.org/2000/svg"
   xmlns:svg="http://www.w3.org/2000/svg"><defs
     id="defs4285"><clipPath
       clipPathUnits="userSpaceOnUse"
       id="clipPath4295"><path
         d="M 0,512 H 512 V 0 H 0 Z"
         id="path4293" /></clipPath></defs><g
     id="g4287"
     transform="matrix(1.3333333,0,0,-1.3333333,0,682.66667)"><g
       id="g4289"><g
         id="g4291"
         clip-path="url(#clipPath4295)"><g
           id="g4297"
           transform="translate(72.5566,238.8687)"><path
             d="m 0,0 c 0,81.156 53.986,114.643 93.079,128.253 22.4,7.799 42.726,20.835 58.276,38.746 17.003,19.583 37.578,29.102 54.593,33.693 11.954,3.225 23.551,-6.613 21.976,-18.894 -2.643,-20.597 10.929,-42.89 32.699,-47.983 C 297.817,125.114 372.887,95.699 372.887,0 Z"
             style="fill:#acdd95;fill-opacity:1;fill-rule:nonzero;stroke:none"
             id="path4299" /></g><g
           id="g4301"
           transform="translate(138.2495,158.4458)"><path
             d="m 0,0 v -41.147 c 0,-25.117 20.361,-45.478 45.478,-45.478 h 144.545 c 25.116,0 45.477,20.361 45.477,45.478 V 0 Z"
             style="fill:#e19771;fill-opacity:1;fill-rule:nonzero;stroke:none"
             id="path4303" /></g><g
           id="g4305"
           transform="translate(209.6357,284.0996)"><path
             d="M 0,0 C 0,63.109 36.999,117.569 90.484,142.894 88.23,151.963 78.673,158.106 68.869,155.461 51.854,150.87 31.279,141.351 14.276,121.768 -1.274,103.857 -21.6,90.821 -44,83.022 -83.092,69.412 -137.079,35.925 -137.079,-45.231 H 6.581 C 2.307,-30.9 0,-15.72 0,0"
             style="fill:#8dd075;fill-opacity:1;fill-rule:nonzero;stroke:none"
             id="path4307" /></g><g
           id="g4309"
           transform="translate(178.3613,129.833)"><path
             d="m 0,0 c 0,10.036 1.739,19.661 4.904,28.613 h -45.016 v -41.147 c 0,-25.117 20.362,-45.479 45.478,-45.479 H 22.583 C 8.563,-42.735 0,-22.37 0,0"
             style="fill:#dc885c;fill-opacity:1;fill-rule:nonzero;stroke:none"
             id="path4311" /></g><g
           id="g4313"
           transform="translate(478.2559,260.2051)"><path
             d="m 0,0 h -444.512 c -17.551,0 -30.259,-16.968 -25.073,-33.736 0.136,-0.439 0.273,-0.878 0.411,-1.316 16.322,-51.697 64.47,-86.707 118.683,-86.707 h 256.47 c 54.213,0 102.361,35.01 118.683,86.707 0.139,0.438 0.275,0.877 0.411,1.316 C 30.26,-16.968 17.552,0 0,0"
             style="fill:#e7a884;fill-opacity:1;fill-rule:nonzero;stroke:none"
             id="path4315" /></g><g
           id="g4317"
           transform="translate(201.7241,303.6567)"><path
             d="m 0,0 c 0,-13.958 -14.209,-25.274 -31.737,-25.274 -17.529,0 -31.738,11.316 -31.738,25.274 0,13.958 14.209,25.273 31.738,25.273 C -14.209,25.273 0,13.958 0,0"
             style="fill:#fff6e5;fill-opacity:1;fill-rule:nonzero;stroke:none"
             id="path4319" /></g><g
           id="g4321"
           transform="translate(310.2764,303.6567)"><path
             d="m 0,0 c 0,-13.958 14.209,-25.274 31.736,-25.274 17.529,0 31.738,11.316 31.738,25.274 0,13.958 -14.209,25.273 -31.738,25.273 C 14.209,25.273 0,13.958 0,0"
             style="fill:#fff6e5;fill-opacity:1;fill-rule:nonzero;stroke:none"
             id="path4323" /></g><g
           id="g4325"
           transform="translate(145.7305,230.8555)"><path
             d="m 0,0 c 0,10.059 1.04,19.875 3.01,29.35 h -114.996 c -17.552,0 -30.26,-16.969 -25.074,-33.736 0.136,-0.44 0.273,-0.879 0.412,-1.317 16.322,-51.696 64.47,-86.707 118.682,-86.707 H 33.736 C 12.69,-67.446 0,-35.208 0,0"
             style="fill:#e19771;fill-opacity:1;fill-rule:nonzero;stroke:none"
             id="path4327" /></g><g
           id="g4329"
           transform="translate(188.4829,340.96)"><path
             d="M 0,0 V -12.974"
             style="fill:none;stroke:#000000;stroke-width:15;stroke-linecap:round;stroke-linejoin:round;stroke-miterlimit:10;stroke-dasharray:none;stroke-opacity:1"
             id="path4331" /></g><g
           id="g4333"
           transform="translate(323.5166,340.96)"><path
             d="M 0,0 V -12.974"
             style="fill:none;stroke:#000000;stroke-width:15;stroke-linecap:round;stroke-linejoin:round;stroke-miterlimit:10;stroke-dasharray:none;stroke-opacity:1"
             id="path4335" /></g><g
           id="g4337"
           transform="translate(238.1997,328.3721)"><path
             d="m 0,0 c 4.328,-4.966 10.695,-8.109 17.8,-8.109 7.106,0 13.473,3.143 17.801,8.109"
             style="fill:none;stroke:#000000;stroke-width:15;stroke-linecap:round;stroke-linejoin:round;stroke-miterlimit:10;stroke-dasharray:none;stroke-opacity:1"
             id="path4339" /></g><g
           id="g4341"
           transform="translate(388.4727,349.5688)"><path
             d="m 0,0 c -19.684,12.901 -40.488,19.651 -55.293,23.115 -21.77,5.093 -35.342,27.386 -32.699,47.983 1.575,12.281 -10.022,22.119 -21.976,18.894 -17.015,-4.591 -37.59,-14.11 -54.593,-33.693 -15.55,-17.911 -35.876,-30.947 -58.276,-38.746 -35.473,-12.35 -83.207,-41.069 -91.743,-106.917 h 71.513"
             style="fill:none;stroke:#000000;stroke-width:15;stroke-linecap:round;stroke-linejoin:round;stroke-miterlimit:10;stroke-dasharray:none;stroke-opacity:1"
             id="path4343" /></g><g
           id="g4345"
           transform="translate(175.4058,260.2051)"><path
             d="m 0,0 h 268.703 c -3.992,30.794 -16.556,53.467 -32.43,70.144"
             style="fill:none;stroke:#000000;stroke-width:15;stroke-linecap:round;stroke-linejoin:round;stroke-miterlimit:10;stroke-dasharray:none;stroke-opacity:1"
             id="path4347" /></g><g
           id="g4349"
           transform="translate(138.2495,138.4458)"><path
             d="m 0,0 v -21.147 c 0,-25.117 20.361,-45.478 45.478,-45.478 h 144.545 c 25.117,0 45.477,20.361 45.477,45.478 V 0 Z"
             style="fill:none;stroke:#000000;stroke-width:15;stroke-linecap:round;stroke-linejoin:round;stroke-miterlimit:10;stroke-dasharray:none;stroke-opacity:1"
             id="path4351" /></g><g
           id="g4353"
           transform="translate(145.4058,260.2051)"><path
             d="m 0,0 h -111.662 c -17.551,0 -30.259,-16.968 -25.073,-33.736 0.136,-0.439 0.273,-0.878 0.411,-1.316 16.323,-51.697 64.47,-86.707 118.683,-86.707 H 238.83 c 54.212,0 102.36,35.01 118.682,86.707 0.139,0.438 0.276,0.877 0.411,1.316 C 363.11,-16.968 350.402,0 332.85,0 H 30"
             style="fill:none;stroke:#000000;stroke-width:15;stroke-linecap:round;stroke-linejoin:round;stroke-miterlimit:10;stroke-dasharray:none;stroke-opacity:1"
             id="path4355" /></g></g></g></g></svg>
