<svg id="Beet" enable-background="new 0 0 450 450" height="512" viewBox="0 0 450 450" width="512" xmlns="http://www.w3.org/2000/svg"><g><g clip-rule="evenodd" fill-rule="evenodd"><path d="m260.687 70.215h14.051l.766 18.138c9.452-14.051 16.861-24.525 22.481-33.466 4.087 2.81 8.43 5.876 12.518 8.686-13.284 22.226-21.97 42.152-33.211 65.399-1.533 1.533 15.839-9.708 20.693-13.284l41.896-76.64c3.832 1.788 5.876 2.555 9.708 4.087l-15.839 44.452c12.518-10.73 21.97-19.16 37.043-32.7 4.343 5.109 8.175 9.197 11.751 12.518-25.291 26.058-46.75 44.196-67.187 70.764l66.166-40.875 3.832 13.284-53.137 49.049c30.911-5.365 40.875-12.773 88.136-32.444.766 4.598 1.788 11.751 2.555 16.35-21.204 8.686-41.385 16.35-65.144 25.802 14.051.255 27.079.255 39.597.511v12.518c-33.721.511-67.443 9.708-91.201 11.496-2.044-1.022-36.532-49.305-58.757-59.779 4.087-3.577 8.175-14.306 13.54-22.992z" fill="#83b03a"/><path d="m383.822 100.36 2.555 9.197-54.159 50.071c30.911-5.365 40.875-12.773 88.136-32.444.766 4.598 1.788 11.751 2.555 16.35-21.204 8.686-41.385 16.35-65.144 25.802 14.051.255 30.4.255 42.918.511v12.262c-33.721.511-69.487 15.328-93.5 17.372-6.898-3.832-9.197-17.883-10.219-24.78z" fill="#729b2d"/><path d="m30.002 372.942c5.62 4.854 17.116 17.627 61.823-16.35 9.963-7.664 22.736-1.533 41.896 4.854 185.979 62.589 272.582-160.943 87.88-242.182-61.312-26.824-130.543 10.474-146.126 74.341-9.963 41.385 4.087 79.961 13.029 108.573 8.685 29.123-21.715 59.524-58.502 70.764z" fill="#8e2d44"/><path d="m26.936 376.263c5.876 4.854 20.182 14.306 64.888-19.671 9.963-7.664 22.226 1.788 41.385 8.43 113.938 38.32 210.759-31.678 186.235-153.79-4.343-12.007-12.262-24.525-22.481-36.532-77.917 87.114-158.389 122.624-210.248 134.12 6.131 28.101-24.014 56.458-59.779 67.443z" fill="#7f253a"/><path d="m156.202 340.498c18.904 29.379 51.604 64.377 95.033 69.742 44.451 5.109 111.128-17.627 135.652-77.151 18.393-44.451-5.365-95.544-39.853-127.477-65.654 45.984-125.178 88.902-190.832 134.886z" fill="#a43852"/><path d="m353.932 212.51c18.904 29.889 0 88.391-52.115 125.178-52.115 37.043-126.456 32.7-145.615 2.81-19.16-29.889 5.62-82.515 57.48-119.558 52.114-36.787 121.09-38.575 140.25-8.43z" fill="#b34760"/><path d="m324.554 232.18c13.284 20.693-1.277 59.013-37.553 84.559-36.021 25.547-87.369 24.525-100.653 3.832-13.284-20.948 4.087-56.458 40.108-82.005s84.813-27.078 98.098-6.386z" fill="#bf516b"/><path d="m293.898 252.362c7.409 11.751 1.022 31.933-19.16 46.239s-51.349 15.839-58.757 4.343c-7.409-11.751 2.81-32.7 22.992-47.006 20.437-14.305 47.516-15.072 54.925-3.576z" fill="#d66782"/><path d="m163.61 125.651c16.861-3.832 32.189.766 34.488 10.219 2.299 9.452-9.452 20.437-26.313 24.269-16.861 3.577-32.444-1.022-34.488-10.474-2.299-9.452 9.452-20.182 26.313-24.014z" fill="#b34760"/></g><path d="m292.109 115.688 42.152-78.173c.766-1.533 2.81-2.299 4.343-1.533l9.452 4.087c1.533.511 2.299 2.299 1.788 4.087-4.343 12.007-8.941 24.014-13.284 36.021 10.219-9.197 20.437-18.394 30.911-27.59 1.533-1.533 3.577-1.022 4.854.511 3.321 4.087 7.153 8.175 10.985 12.007 1.277 1.277 1.277 3.066 0 4.598-19.16 19.671-39.853 38.064-57.991 58.757l53.137-34.488c2.044-1.277 4.598-.255 4.854 2.044l3.832 12.773c.511 1.277 0 2.81-1.022 3.577l-47.772 43.685c15.839-3.321 27.079-8.43 44.962-16.605 9.452-4.087 20.437-9.197 34.488-15.072 2.299-.766 4.087.511 4.598 2.555 1.022 5.109 1.533 10.474 2.555 15.839.255 1.533-.511 3.066-2.044 3.832-16.605 6.898-34.743 13.795-52.881 20.693l25.802.511c1.788 0 3.321 1.277 3.321 3.066v12.262c0 1.788-1.533 3.321-3.321 3.321-20.437-.766-42.663 4.598-62.845 7.919 6.131 2.555 11.751 5.876 16.35 10.474 59.524 57.48 64.377 144.594-14.562 189.3-54.925 31.422-113.427 26.824-157.878-18.649-13.54.766-46.239-9.708-59.268-15.328-10.474-4.343-18.138-7.409-23.758-3.321-22.481 17.116-37.553 23.503-47.772 24.78-10.985 1.277-16.605-2.81-19.926-5.62-2.044-1.533-1.277-4.854 1.277-5.62 17.627-5.365 33.721-15.072 44.196-27.079 10.219-11.241 15.328-24.78 11.496-37.809-11.751-35.254-22.481-76.129-13.54-112.916 15.583-65.144 89.924-103.208 151.236-76.384 8.175 3.577 16.605 8.175 25.036 13.54 2.044-4.854 5.109-10.73 9.197-17.372l-.255-41.641c0-1.788 1.533-3.321 3.321-3.321h13.795c1.788 0 3.321 1.533 3.321 3.321l.255 9.963c6.131-8.941 12.518-18.138 18.394-27.335.766-1.533 2.81-2.044 4.343-1.277l12.773 8.686c1.277 1.022 1.788 3.066.766 4.598-10.73 18.138-22.481 42.152-29.634 56.969 3.577-2.045 6.898-4.344 9.963-6.643zm1.278 161.454c-9.452 22.226-32.7 36.532-56.458 36.532-22.992 0-35.51-13.284-24.525-35.51 9.963-20.437 33.977-36.276 56.713-37.298 23.759-.766 33.466 14.562 24.27 36.276zm-5.876-2.554c7.409-17.372.766-27.846-18.138-27.079-20.437.766-42.152 15.328-51.093 33.466-8.941 17.883.511 26.058 18.649 26.058 21.203.254 42.152-12.519 50.582-32.445zm35.51 1.533c-16.35 38.575-56.969 63.611-98.61 63.611-38.831-.255-60.034-21.97-41.385-59.779 17.627-35.765 59.268-63.356 99.376-64.888 40.363-1.534 56.458 24.013 40.619 61.056zm-5.876-2.555c14.051-32.7 1.022-53.392-34.488-52.115-37.809 1.533-77.151 27.846-93.756 61.312s1.533 50.071 35.765 50.327c38.831.255 77.151-23.248 92.479-59.524zm-21.459-78.173c-54.67 2.044-112.149 40.364-136.419 89.158-24.269 49.305 2.299 74.596 52.881 74.851 56.713.255 112.405-33.977 134.886-86.858 7.664-18.138 12.262-42.152.511-59.524-10.474-14.817-34.743-18.393-51.859-17.627zm96.821-15.328v-5.876l-38.831-.511-40.364 15.839c19.672-1.532 55.437-8.941 79.195-9.452zm-92.734 8.686c-18.904-26.568-51.604-53.392-81.494-66.421-57.479-25.291-127.477 10.474-142.294 71.786-9.963 40.875 3.832 71.53 13.54 109.595 4.598 15.583-1.277 30.911-13.029 43.94-9.963 11.241-24.525 20.693-40.364 26.824 2.299.766 5.365 1.022 9.197.511 9.197-1.022 23.247-6.898 44.707-23.247 8.686-6.642 17.627-2.81 30.145 2.299 16.094 6.898 32.7 11.751 50.071 14.051-24.269-27.59-36.276-47.006-16.861-86.347 25.803-52.116 87.625-92.735 146.382-92.991zm-129.776 168.863c42.918 52.881 100.654 65.655 161.454 30.911 65.399-37.043 71.786-105.763 28.612-161.71 2.81 14.306.255 31.167-6.898 48.283-23.503 55.181-81.494 90.946-141.017 90.69-16.094.001-30.655-2.809-42.151-8.174zm142.039-212.803c-3.832 5.365-7.664 10.73-11.241 16.35 9.963-.766 18.138-1.788 25.291-2.81l54.159-49.56-2.044-6.898c-7.408 4.854-59.779 38.831-66.165 42.918zm-50.582-42.918c2.555-3.832 5.109-7.919 7.919-11.751l-.511-16.094h-7.408zm-9.964 31.678c1.533 1.022 3.321 2.299 4.854 3.577 5.365-3.066 10.474-5.62 15.583-8.686 10.474-21.459 20.693-43.429 32.7-64.122l-7.153-4.854c-14.306 22.481-37.298 50.582-45.984 74.085zm41.386 28.101c22.226-36.787 53.648-64.122 83.537-94.267-2.555-2.555-4.854-5.109-7.153-7.664-34.743 30.911-65.144 59.268-107.04 81.749 8.43 6.387 16.35 13.284 23.503 20.693 1.788.255 5.109-.256 7.153-.511zm-1.278 6.642c5.109 5.62 9.963 11.496 14.051 17.372 37.298-15.328 75.107-28.868 112.405-44.196l-1.533-9.452c-12.262 5.365-22.225 9.708-30.4 13.54-32.189 14.306-43.685 19.415-94.523 22.736zm34.744-78.939c5.365-15.073 10.985-29.634 16.35-44.451l-4.087-1.788-34.488 64.122c7.663-5.876 15.072-11.752 22.225-17.883z" fill="#1a1a1a"/></g></svg>