<svg id="Layer_1" enable-background="new 0 0 74 74" height="512" viewBox="0 0 74 74" width="512" xmlns="http://www.w3.org/2000/svg"><g><g><g><path d="m33.8 46.23c-.4-.73-1.05-1.57-1.85-1.36-.56.15-.84.75-1.03 1.3-.42 1.24-.74 2.63-1.76 3.46-.9.73-2.15.84-3.16 1.42-.73.42-1.32 1.07-2.1 1.37s-1.9.03-2.05-.79c-.18-.98 1.11-1.91.67-2.81-.4.63-1.04 1.16-1.68 1.53-.28.16-.61.29-.91.19s-.5-.52-.27-.75c-.06-.06-.12-.12-.18-.18-.21.12-.42.24-.66.27s-.5-.04-.63-.24c-.26-.4.18-.96.02-1.41-.11-.31-.48-.54-.4-.86.07-.31.52-.39.62-.7.12-.4-.46-.65-.6-1.05-.09-.27.03-.56.16-.81.17-.34.34-.69.4-1.06.06-.38-.01-.79-.28-1.06s-.76-.32-1.02-.05c-.17.18-.22.44-.35.64-.33.51-1.23.45-1.5-.09-.14.46-.58.82-1.06.87s-.98-.21-1.22-.63c.06.1.75-.46.7-.72-.07-.38-.59-.53-.91-.48-.4.06-.76.3-1.16.35s-.91-.19-.88-.59.55-.64.55-1.04c0-.36-.43-.56-.8-.58s-.76.05-1.06-.15c-.31-.2-.41-.63-.33-1 .08-.36.3-.68.52-.98.28-.38.66-.8 1.13-.74.23.03.42.16.62.28.19.12.41.22.64.19.22-.03.43-.27.35-.48-.12-.31-.66-.25-.79-.56-.09-.21.08-.44.27-.57.48-.34 1.15-.38 1.66-.11.32.17.62.45.98.42.5-.04.83-.68 1.33-.64.32.03.55.33.86.39.32.06.65-.17.72-.49.07-.31-.12-.66-.41-.79-.56-.25-1.18.24-1.79.25-.67.01-1.24-.56-1.91-.58-.39-.01-.75.16-1.11.31s-.75.28-1.13.19-.7-.5-.57-.86c.09-.24.33-.38.51-.55.25-.25.28-.88-.23-.79-.16.03-.29.12-.44.18-.41.15-.92-.06-1.11-.45.17-.13.18-.4.07-.58s-.31-.29-.5-.38-.4-.18-.54-.33c-.31-.33-.25-.91.09-1.21s.87-.32 1.26-.09c.23.13.44.35.7.35.51 0 .72-.76 1.22-.84.56-.1 1.01.7 1.56.55.35-.09.49-.57.32-.89s-.56-.47-.93-.47c-.24 0-.51.05-.72-.09-.29-.2-.25-.67-.52-.9-.23-.2-.58-.12-.88-.17-.5-.08-.88-.54-.96-1.03-.08-.5.11-1.01.41-1.4.25-.33.68-.6 1.06-.45.31.12.57.51.89.39.22-.08.28-.39.17-.6s-.32-.33-.54-.43c-.21-.1-.44-.18-.61-.34-.24-.24-.32-.63-.18-.94.17-.36.51-.48.88-.47.39.01.6-.1.73-.53.06-.19.08-.39.16-.57.22-.45.9-.57 1.26-.24.48.44.36 1.37.94 1.65.16-.06.22-.26.21-.44s-.07-.34-.07-.52c.01-.17.11-.37.29-.38.19.09.34.28.37.49.27.03.42-.32.4-.59s-.13-.55-.03-.8c.14-.35.66-.42.97-.2s.42.63.42 1.01c0 .25-.03.53.15.7.13.13.34.14.51.2.42.17.61.75.37 1.14-.13.21-.36.34-.53.52-.33.34-.46.85-.33 1.3.07.23.21.45.43.56s.51.06.65-.14c.1-.15.09-.35.13-.53s.16-.38.35-.36c.24.02.29.34.26.58s-.02.56.21.62c.13.04.28-.04.35-.16.08-.12.1-.26.12-.4.04-.28.07-.61-.11-.83-.16-.19-.41-.24-.64-.33-.22-.1-.45-.31-.38-.54.11-.42.87-.24 1.06-.63.09-.18.01-.4-.11-.55s-.28-.29-.36-.47c-.16-.34.01-.8.36-.94s.79.05.92.4c.07.18.07.4.21.53.15.12.39.07.54-.06s.23-.32.32-.49c.06-.12.15-.25.28-.27s.26.08.36.17c.18.17.38.36.4.61.01.18-.07.35-.1.53s.03.4.2.45c.26.07.42-.28.67-.38.18-.07.39.02.5.18s.11.37.05.55c-.05.16-.16.3-.22.45s-.09.34.01.48.35.15.41 0c.24.04.26-.24.32-.48s.13-.51.36-.59c.25-.09.52.16.56.43.05.26-.05.53-.1.79s-.06.57.12.76c.2.22.59.24.72.51.16.34-.21.67-.54.86-.33.18-.71.5-.57.85.15.36.77.38.83.77.04.24-.18.44-.36.61-.5.48-.8 1.16-.83 1.86-.01.24.06.55.3.61.12.03.26-.02.38.01.25.06.33.38.3.63s-.11.52 0 .75c.17.36.74.37 1 .07.26-.29.26-.75.12-1.12-.14-.35-.38-.64-.57-.96s-.34-.69-.27-1.06c.08-.36.46-.68.81-.57.01.31.45.46.7.27.25-.18.31-.54.22-.84-.08-.3-.27-.56-.42-.82-.15-.27-.28-.57-.23-.88.06-.35.38-.64.74-.65.36-.02.7.24.79.59.32-.13.57-.42.67-.74.15-.46-.09-.37-.22-.7-.25-.66.88-.88 1.31-.71.39.16.7.59.68 1.02-.01.32-.32.71-.06 1.01.29.33.88-.04 1.25.19.27.17.27.58.12.85s-.42.47-.62.72c-.2.24-.35.59-.2.88.15.31.59.39.89.24.35-.17.39-.61.66-.84.38-.32.79.01.98.39.49.95-.87 1.54-.76 2.44.08.67 1.35 1.02 1.33.14-.01-.24-.04-.52.14-.66.1-.08.24-.09.37-.08.48.06.86.53.84 1.01-.02.3-.17.58-.11.87.12.56.95.81.94 1.38-.01.32-.28.55-.51.76s-.46.52-.35.82c.07.19.26.3.4.43.3.28.46.7.41 1.11-.04.41-.29.79-.64.99-.23.14-.5.2-.74.34-.23.14-.43.4-.36.66.04.18.2.31.29.47.28.46.04 1.07-.32 1.48-.42.48-.94.72-1.52.94-.48.17-.88.54-.72 1.14.06.21.19.38.32.55.44.57.87 1.15 1.31 1.72z" fill="#70b313"/><g><g><path d="m33.13 44.9c-.06.06-.17.06-.24 0-.92-.81-1.76-1.63-1.93-2.76-.1-.64.05-1.29.19-1.91.14-.61.27-1.18.19-1.74-.01-.1.06-.18.15-.18.1 0 .19.07.2.17.08.63-.06 1.26-.2 1.86-.14.62-.27 1.21-.19 1.78.15 1 .93 1.77 1.8 2.53.09.05.1.17.03.25.01-.01.01-.01 0 0z" fill="#8dce28"/></g><g><path d="m30.76 40.54c-.06.06-.16.06-.23 0-.58-.46-.89-1.27-.83-2.17.03-.49.15-.95.27-1.4.06-.23.12-.47.17-.7.26-1.28.14-2.69-.36-3.97-.04-.1.01-.19.1-.22s.19.03.23.12c.52 1.35.66 2.83.38 4.17-.05.24-.11.48-.18.72-.12.45-.23.88-.26 1.33-.05.77.21 1.46.68 1.84.08.06.1.18.04.25 0 .03-.01.03-.01.03z" fill="#8dce28"/></g><g><path d="m28.59 38.51c-.02.02-.04.03-.07.04-.09.03-.19-.03-.23-.12-.44-1.19-.99-2.67-.78-4.09.13-.9.56-1.72.96-2.51.48-.93.94-1.82.95-2.82 0-.1.08-.17.18-.16s.18.1.17.2c-.02 1.08-.51 2.04-.99 2.96-.4.77-.81 1.56-.93 2.4-.2 1.33.31 2.7.76 3.91.04.08.02.15-.02.19z" fill="#8dce28"/></g><g><path d="m33.1 41.3c-.02.02-.04.04-.07.07-.07.06-.18.05-.25-.02s-.07-.18-.01-.25c.02-.02.04-.04.06-.06.72-.72.83-1.92.92-2.89.11-1.18.3-2.4 1.15-3.12.07-.06.18-.04.25.03.07.08.06.16-.01.25-.77.64-.93 1.79-1.04 2.9-.09 1.03-.21 2.3-1 3.09z" fill="#8dce28"/></g><g><path d="m32.05 35.74c-.02.02-.05.04-.09.04-.09.01-.19-.05-.21-.15-.37-1.53.19-3.14 1.38-4 .08-.05.19-.03.25.05s.05.19-.02.25c-1.1.78-1.6 2.26-1.26 3.66.01.05-.01.11-.05.15z" fill="#8dce28"/></g><g><path d="m33.94 45.51c-.06.06-.15.06-.22.01-2.47-1.74-5.01-3.55-7.14-5.81-1.24-1.32-2.33-2.8-3.38-4.23-.57-.77-1.15-1.57-1.76-2.33-2.12-2.69-4.09-4.37-6.17-5.3-.09-.04-.14-.15-.11-.24s.13-.13.23-.09c2.15.95 4.16 2.67 6.33 5.42.61.77 1.2 1.57 1.77 2.35 1.04 1.42 2.12 2.89 3.35 4.2 2.09 2.24 4.63 4.03 7.08 5.76.08.06.11.17.06.25-.03-.01-.03 0-.04.01z" fill="#8dce28"/></g><g><path d="m21.36 32.73c-.05.05-.14.06-.21.02-1.01-.6-2.27-1.34-3.54-1.34-.75 0-1.44.24-2.17.5-.32.12-.66.23-1 .33-1.4.39-2.67.15-3.39-.65-.07-.08-.06-.19 0-.25.07-.06.18-.05.25.03.92 1.01 2.54.66 3.01.53.33-.09.66-.21.97-.32.73-.26 1.48-.52 2.29-.52 1.37 0 2.68.78 3.73 1.4.09.05.12.16.08.24 0 0-.01.01-.02.03z" fill="#8dce28"/></g><g><path d="m27.09 40.01c-.02.02-.05.04-.09.04-.1.01-.19-.06-.21-.15-.37-1.63-.75-3.32-1.52-4.85-.39-.76-.87-1.48-1.35-2.19-.47-.7-.96-1.42-1.35-2.19-.46-.89-1.4-3.16-.32-4.98.05-.08.16-.1.24-.04.09.06.12.17.07.25-.99 1.68-.1 3.81.33 4.64.38.74.86 1.45 1.33 2.14.48.71.98 1.45 1.37 2.23.8 1.57 1.18 3.28 1.56 4.94 0 .06-.02.12-.06.16z" fill="#8dce28"/></g><g><path d="m22.37 34.02c-.05.05-.12.06-.19.03-.09-.04-.14-.14-.11-.23.55-1.58.16-3.3-.96-4.27-.58-.5-1.3-.79-2.05-1.1-.46-.19-.94-.39-1.39-.63-1.46-.81-2.55-2.23-2.97-3.89-.02-.1.03-.19.13-.2.09-.02.19.05.22.15.4 1.55 1.41 2.88 2.78 3.64.42.23.89.43 1.34.61.76.31 1.54.63 2.17 1.17 1.24 1.07 1.68 2.95 1.08 4.67-.02.01-.03.04-.05.05z" fill="#8dce28"/></g><g><path d="m23.97 36.18c-.01 0-.01 0 0 0-.07.07-.19.06-.26-.02-.44-.48-1.21-.47-1.7-.21-.38.2-.67.5-.98.82-.14.14-.28.29-.42.42-1.63 1.49-3.98 1.76-6.68 1.93-.1.01-.19-.07-.2-.17s.05-.18.15-.19c2.63-.17 4.93-.43 6.48-1.85.14-.13.27-.27.41-.41.32-.32.64-.66 1.06-.88.62-.33 1.56-.33 2.14.3.06.09.06.2 0 .26z" fill="#8dce28"/></g><g><path d="m24.72 38.84c-.56.56-1.32.85-1.81.98-.57.16-1.18.23-1.76.31-.43.05-.87.11-1.29.2-1.66.34-3.17 1.21-4.29 2.42-.07.07-.18.07-.25 0-.08-.07-.09-.18-.02-.25 1.16-1.27 2.73-2.16 4.46-2.52.43-.09.88-.15 1.31-.2.57-.07 1.16-.15 1.71-.3.64-.17 1.79-.62 2.18-1.68.03-.09.14-.13.23-.08.09.04.14.15.11.24-.14.35-.34.64-.58.88z" fill="#8dce28"/></g><g><path d="m21.89 48.03c-.3.3-.62.56-.98.79-.08.05-.19.02-.25-.06s-.04-.19.03-.24c1.1-.72 1.94-1.81 2.36-3.09.09-.28.17-.58.24-.87.13-.52.27-1.06.52-1.55.72-1.41 2.26-2.15 3.67-2.69.09-.03.19.01.24.11.04.09 0 .19-.08.23-1.36.52-2.84 1.22-3.51 2.54-.23.45-.36.95-.49 1.48-.07.29-.15.6-.25.89-.29.94-.81 1.78-1.5 2.46z" fill="#8dce28"/></g><g><path d="m24.21 50.8c-.07.06-.18.04-.24-.03-.07-.08-.07-.19 0-.25 1.61-1.44 2.9-3.17 3.84-5.16l.12-.24c.48-1.02 1.03-2.18 2.14-2.55.09-.03.19.02.23.12.04.09 0 .2-.09.22-.99.33-1.48 1.38-1.96 2.39l-.12.25c-.96 2.01-2.28 3.78-3.92 5.25z" fill="#8dce28"/></g></g></g><g opacity=".1"><path d="m30.88 26.54c.22.24.6.11.93.12.12 0 .22.02.32.08.27.17.28.57.12.85s-.42.48-.62.72c-.05.05-.09.11-.12.18-.01.01-.02.02-.02.02-.06.12-.1.22-.11.35-.07.21-.17.4-.27.6-.63 1.22-1.83 2.32-1.7 3.69.12 1.22 1.28 2.13 1.45 3.35.33 2.12-2.42 3.84-2.01 5.94.17.84.81 1.5 1.09 2.31.26.79.14 1.66-.04 2.47-.2.85-.47 1.68-.82 2.48l-.01.01c-.89.67-2.09.79-3.05 1.35-.73.41-1.32 1.07-2.1 1.37-.79.3-1.9.02-2.04-.8-.19-.98 1.11-1.91.67-2.8-.4.62-1.05 1.16-1.69 1.53-.28.16-.6.29-.91.2-.31-.11-.5-.52-.28-.75-.06-.06-.13-.13-.18-.2-.21.13-.42.25-.65.28-.25.03-.51-.04-.64-.25-.27-.4.18-.95.03-1.41-.11-.31-.48-.54-.4-.86.07-.31.51-.39.61-.69.12-.41-.46-.66-.6-1.06-.09-.27.03-.56.16-.81.17-.35.34-.69.4-1.07.06-.37-.01-.8-.28-1.07s-.76-.33-1.02-.05c-.18.18-.23.42-.37.64-.33.5-1.22.45-1.5-.1-.15.46-.58.82-1.06.88-.48.05-.99-.22-1.22-.63.06.1.75-.45.7-.72-.07-.38-.58-.54-.9-.48-.41.06-.77.3-1.16.36-.4.05-.91-.2-.88-.6.02-.39.55-.63.54-1.04 0-.36-.42-.56-.79-.57-.37-.03-.77.04-1.07-.16-.32-.2-.41-.63-.34-.99.08-.38.3-.69.52-.98.29-.39.66-.8 1.13-.75.23.03.43.16.62.27.2.12.41.24.63.2.23-.03.43-.26.36-.47-.12-.32-.65-.26-.79-.55-.1-.22.08-.45.27-.58.47-.34 1.15-.38 1.67-.11.32.16.61.45.97.41.5-.05.83-.69 1.33-.64.31.03.54.33.85.39.32.06.66-.17.73-.49.07-.31-.12-.65-.4-.78-.57-.26-1.18.24-1.8.24-.67.02-1.24-.55-1.92-.57-.38-.01-.75.16-1.11.32-.37.15-.76.29-1.13.2-.38-.09-.71-.49-.57-.87.09-.23.34-.38.51-.55.26-.26.29-.88-.24-.79-.16.04-.29.13-.43.18-.41.16-.92-.05-1.12-.44.17-.13.18-.39.07-.58-.12-.18-.32-.3-.51-.38-.19-.09-.39-.18-.54-.35-.31-.33-.25-.9.08-1.2.35-.31.89-.32 1.27-.09.23.13.44.35.7.35.51 0 .72-.76 1.22-.85.55-.1 1 .7 1.55.56.36-.1.49-.57.33-.9-.18-.32-.57-.47-.94-.46-.25-.01-.5.05-.71-.1-.3-.2-.26-.67-.52-.9-.23-.19-.57-.12-.88-.17-.49-.08-.88-.54-.96-1.04-.08-.49.1-1.01.41-1.4.25-.33.68-.6 1.07-.45.31.13.57.51.89.39.22-.08.27-.38.16-.59-.09-.21-.32-.34-.52-.42-.22-.1-.44-.19-.61-.36-.25-.23-.32-.63-.18-.93.17-.37.52-.48.89-.47.39 0 .6-.11.73-.53.05-.19.08-.39.16-.57.23-.44.91-.57 1.26-.24.48.44.37 1.37.95 1.66.16-.06.23-.27.21-.44-.01-.17-.08-.34-.07-.5.01-.19.12-.38.29-.38.19.09.34.28.38.49.27.03.42-.33.39-.59-.02-.28-.14-.55-.03-.8.14-.36.66-.42.97-.2.32.22.43.63.42 1.02 0 .24-.03.52.15.7.14.12.34.14.51.2.42.17.61.75.37 1.14-.14.22-.36.34-.53.51-.33.35-.46.86-.33 1.31.07.23.21.44.41.55.23.11.51.06.65-.14.1-.16.1-.36.14-.53.03-.19.16-.37.35-.37.24.02.29.35.26.59-.03.23-.02.55.22.61.13.05.28-.04.36-.16s.1-.26.12-.39c.04-.28.07-.6-.12-.83-.15-.19-.41-.24-.63-.34-.23-.09-.44-.31-.38-.54.12-.41.87-.24 1.06-.62.1-.18.02-.39-.11-.56-.12-.16-.28-.28-.37-.46-.16-.34.01-.8.37-.94.35-.15.79.04.92.4.06.18.06.39.21.52.16.12.39.06.54-.07s.23-.31.32-.49c.06-.12.15-.25.28-.26.14-.02.26.08.37.17.19.17.37.36.39.61.02.18-.07.35-.11.52-.02.18.03.4.21.44.26.08.41-.28.67-.38.18-.06.38.03.5.19.1.16.11.37.04.55-.04.16-.15.31-.22.45-.06.16-.08.34.02.47.1.14.35.15.4-.01.24.04.26-.24.33-.46.06-.24.13-.52.36-.59.26-.1.52.15.57.41.05.27-.05.54-.11.8s-.06.57.13.76c.2.22.58.25.71.51.18.34-.2.67-.52.86-.34.18-.71.49-.57.85s.77.38.84.76c.03.25-.19.44-.37.62-.49.47-.8 1.16-.83 1.86 0 .24.07.54.31.6.12.04.26-.02.38.02.25.05.33.37.31.62-.04.26-.13.52-.01.76.16.36.73.36 1 .07.27-.31.27-.76.12-1.13-.13-.35-.37-.64-.56-.96-.2-.32-.35-.7-.27-1.06.07-.37.46-.68.81-.57.01.31.45.45.71.28.25-.19.31-.54.23-.84-.09-.31-.27-.56-.42-.82-.16-.28-.29-.58-.24-.89.07-.35.39-.63.75-.65s.7.25.79.59c.32-.14.56-.42.67-.75.14-.45-.1-.38-.23-.7-.26-.65.89-.87 1.31-.7.39.16.7.58.68 1.02-.05.32-.35.7-.1 1z" fill="#fff"/></g><g opacity=".1"><path d="m14.76 21.55c.5 2.6 1.57 5.08 3.11 7.24.73 1.03 1.61 2.06 1.76 3.32.13 1.12-.36 2.23-.29 3.35.09 1.51 1.16 2.78 2.26 3.82 1.12 1.04 2.35 2.01 2.98 3.4 1.08 2.32.12 5.03-.83 7.4-.33.8-.66 1.61-1.03 2.39-.43-.12-.78-.4-.86-.84-.19-.98 1.11-1.91.67-2.8-.4.62-1.05 1.16-1.69 1.53-.28.16-.6.29-.91.2-.31-.11-.5-.52-.28-.75-.06-.06-.13-.13-.18-.2-.21.13-.42.25-.65.28-.25.03-.51-.04-.64-.25-.27-.4.18-.95.03-1.41-.11-.31-.48-.54-.4-.86.07-.31.51-.39.61-.69.12-.41-.46-.66-.6-1.06-.09-.27.03-.56.16-.81.17-.35.34-.69.4-1.07.06-.37-.01-.8-.28-1.07s-.76-.33-1.02-.05c-.18.18-.23.42-.37.64-.33.5-1.22.45-1.5-.1-.15.46-.58.82-1.06.88-.48.05-.99-.22-1.22-.63.06.1.75-.45.7-.72-.07-.38-.58-.54-.9-.48-.41.06-.77.3-1.16.36-.4.05-.91-.2-.88-.6.02-.39.55-.63.54-1.04 0-.36-.42-.56-.79-.57-.37-.03-.77.04-1.07-.16-.32-.2-.41-.63-.34-.99.08-.38.3-.69.52-.98.29-.39.66-.8 1.13-.75.23.03.43.16.62.27.2.12.41.24.63.2.23-.03.43-.26.36-.47-.12-.32-.65-.26-.79-.55-.1-.22.08-.45.27-.58.47-.34 1.15-.38 1.67-.11.32.16.61.45.97.41.5-.05.83-.69 1.33-.64.31.03.54.33.85.39.32.06.66-.17.73-.49.07-.31-.12-.65-.4-.78-.57-.26-1.18.24-1.8.24-.67.02-1.24-.55-1.92-.57-.38-.01-.75.16-1.11.32-.37.15-.76.29-1.13.2-.38-.09-.71-.49-.57-.87.09-.23.34-.38.51-.55.26-.26.29-.88-.24-.79-.16.04-.29.13-.43.18-.41.16-.92-.05-1.12-.44.17-.13.18-.39.07-.58-.12-.18-.32-.3-.51-.38-.19-.09-.39-.18-.54-.35-.31-.33-.25-.9.08-1.2.35-.31.89-.32 1.27-.09.23.13.44.35.7.35.51 0 .72-.76 1.22-.85.55-.1 1 .7 1.55.56.36-.1.49-.57.33-.9-.18-.32-.57-.47-.94-.46-.25-.01-.5.05-.71-.1-.3-.2-.26-.67-.52-.9-.23-.19-.57-.12-.88-.17-.49-.08-.88-.54-.96-1.04-.08-.49.1-1.01.41-1.4.25-.33.68-.6 1.07-.45.31.13.57.51.89.39.22-.08.27-.38.16-.59-.09-.21-.32-.34-.52-.42-.22-.1-.44-.19-.61-.36-.25-.23-.32-.63-.18-.93.17-.37.52-.48.89-.47.39 0 .6-.11.73-.53.05-.19.08-.39.16-.57.23-.44.91-.57 1.26-.24.48.44.37 1.37.95 1.66.16-.06.23-.27.21-.44-.01-.17-.08-.34-.07-.5.02-.16.06-.26.14-.34z" fill="#fff"/></g></g><g><g><path d="m33.07 48.26c.79-.23 1.85-.37 2.27.35.29.5.06 1.13-.19 1.65-.58 1.18-1.34 2.38-1.2 3.69.12 1.15.92 2.12 1.23 3.24.22.81.18 1.69.52 2.45.34.77 1.32 1.36 2.01.89.82-.56.57-2.14 1.51-2.46-.16.73-.09 1.56.11 2.27.08.31.22.63.51.78.28.15.72-.02.72-.34h.26c.06.23.13.47.28.65.14.19.39.33.62.28.47-.1.55-.8.98-1.01.29-.14.73-.04.9-.32.16-.27-.09-.65.06-.93.2-.37.79-.14 1.17-.32.26-.12.37-.42.47-.69.12-.36.25-.73.47-1.04s.57-.55.95-.55.77.31.76.69c0 .24-.15.46-.2.7-.12.59.55 1.19 1.13 1-.22.43-.17.99.14 1.37s.84.54 1.31.41c-.11.03-.21-.85.02-1.01.32-.22.79.04.98.31.24.33.33.75.57 1.07s.78.51 1.04.2c.26-.3.06-.84.35-1.12.26-.26.7-.09.97.15s.5.57.86.64c.36.08.74-.16.94-.47s.27-.69.32-1.06c.07-.47.09-1.03-.28-1.33-.18-.14-.41-.19-.63-.24s-.45-.13-.59-.32-.11-.49.09-.58c.3-.14.64.29.95.16.21-.08.26-.37.22-.59-.1-.58-.54-1.08-1.1-1.26-.34-.11-.76-.12-.99-.4-.32-.38-.1-1.07-.49-1.39-.24-.2-.62-.15-.88-.33-.27-.18-.34-.58-.17-.85s.55-.38.85-.27c.57.22.66 1 1.09 1.44.47.48 1.27.48 1.76.94.28.27.42.65.57 1.01s.33.73.66.93.85.15 1.01-.21c.11-.23.03-.5.03-.75 0-.36.43-.82.72-.39.09.13.12.29.18.44.18.4.69.61 1.11.47-.03-.21.15-.41.36-.46s.43.01.63.09c.2.07.41.16.62.15.45-.01.82-.47.8-.92s-.39-.84-.83-.96c-.26-.07-.56-.06-.74-.25-.36-.36.03-1.04-.26-1.46-.32-.47-1.2-.22-1.49-.71-.18-.31.06-.75.41-.85s.73.07.99.32c.17.17.33.4.57.45.35.06.65-.3 1.01-.27.3.03.5.32.74.5.41.29 1 .24 1.41-.05s.64-.79.7-1.29c.05-.41-.06-.9-.44-1.07-.31-.13-.76-.04-.9-.35-.1-.21.08-.47.3-.54s.46-.01.68.07.44.18.67.19c.34.01.67-.22.79-.54.14-.37-.02-.7-.29-.96-.28-.27-.35-.5-.15-.89.09-.18.22-.33.29-.52.16-.47-.23-1.04-.72-1.06-.65-.03-1.22.72-1.84.5-.07-.16.03-.35.16-.46s.29-.19.41-.32.18-.34.06-.47c-.2-.07-.44-.04-.61.08-.21-.17-.07-.52.13-.7.21-.17.49-.3.59-.55.15-.35-.17-.77-.55-.83s-.75.15-1.01.42c-.17.18-.35.4-.6.39-.18-.01-.34-.14-.5-.22-.42-.18-.97.1-1.06.54-.05.24.01.49.01.74-.01.47-.28.93-.69 1.15-.21.12-.47.17-.7.1-.23-.08-.41-.32-.36-.56.04-.18.18-.31.28-.46s.15-.38.01-.5c-.18-.16-.45.04-.6.22-.15.19-.38.41-.59.29-.12-.07-.17-.23-.14-.36.03-.14.11-.25.19-.37.17-.23.38-.48.66-.51.24-.02.46.12.68.21s.53.1.65-.11c.21-.37-.44-.79-.3-1.19.06-.19.28-.28.47-.31.2-.03.4-.01.59-.08.35-.12.56-.57.41-.92-.14-.35-.6-.53-.94-.37-.17.08-.33.24-.52.22-.2-.02-.33-.23-.34-.42s.07-.38.12-.57c.04-.13.07-.28-.01-.39s-.24-.13-.37-.13c-.25-.01-.53-.01-.71.15-.14.12-.2.3-.3.44s-.3.26-.46.18c-.23-.13-.1-.5-.21-.74-.08-.17-.3-.26-.48-.22-.19.04-.34.18-.43.36-.07.15-.1.32-.16.47s-.18.31-.35.33-.35-.14-.29-.29c-.2-.14-.01-.35.11-.56s.27-.46.17-.68c-.12-.24-.48-.25-.7-.1s-.34.41-.49.63-.36.45-.62.46c-.3.01-.59-.25-.87-.15-.35.12-.33.62-.23.98s.15.85-.2 1c-.36.15-.81-.27-1.13-.05-.2.14-.19.44-.18.69.01.69-.26 1.39-.73 1.9-.17.18-.43.34-.64.22-.11-.06-.17-.19-.28-.26-.22-.13-.5.04-.66.23-.16.2-.29.45-.53.54-.37.14-.78-.26-.76-.66s.35-.72.71-.88c.34-.15.72-.19 1.08-.28s.73-.25.94-.56.16-.8-.17-.98c-.23.21-.64 0-.69-.3-.05-.31.17-.6.44-.75s.58-.2.88-.29c.3-.08.61-.21.78-.46.2-.29.18-.72-.06-.98s-.67-.33-.97-.14c-.13-.32-.1-.7.05-1 .22-.43.33-.2.65-.34.64-.29 0-1.25-.42-1.42-.39-.17-.91-.08-1.2.24-.22.24-.28.73-.67.76-.43.03-.59-.65-1.02-.74-.31-.07-.6.22-.69.52s-.04.63-.07.95-.17.66-.48.76c-.32.11-.69-.14-.8-.47-.13-.37.16-.71.12-1.06-.04-.5-.56-.55-.98-.42-1.02.33-.48 1.7-1.19 2.27-.53.42-1.68-.23-1.04-.84.17-.16.39-.34.37-.57-.01-.13-.1-.24-.21-.32-.38-.29-.99-.23-1.31.13-.2.22-.29.53-.54.7-.48.31-1.24-.1-1.63.31-.22.23-.19.59-.18.9s-.05.69-.33.82c-.18.08-.39.03-.59.02-.41-.02-.82.17-1.08.49s-.35.76-.25 1.16c.07.26.22.5.28.76.07.26.02.59-.21.73-.16.1-.36.08-.53.12-.52.13-.78.73-.82 1.27-.04.64.15 1.17.42 1.74.21.46.24 1.01-.29 1.32-.19.11-.4.14-.62.17-.71.1-1.43.19-2.14.29z" fill="#70b313"/><g><g><path d="m34.48 47.8c0 .09.08.16.17.17 1.22.08 2.4.09 3.32-.59.52-.39.88-.95 1.22-1.49.33-.53.64-1.02 1.09-1.37.08-.06.09-.17.02-.24s-.18-.08-.26-.02c-.5.39-.84.93-1.18 1.46-.34.54-.66 1.05-1.13 1.39-.81.6-1.91.59-3.06.52-.1-.01-.19.06-.2.16.01 0 .01 0 .01.01z" fill="#8dce28"/></g><g><path d="m39.24 46.4c0 .08.07.16.16.17.74.08 1.53-.27 2.12-.94.32-.37.56-.78.8-1.18.12-.21.24-.42.37-.62.72-1.09 1.8-2 3.06-2.55.09-.04.13-.14.09-.23-.05-.08-.16-.12-.25-.08-1.32.58-2.47 1.54-3.22 2.68-.14.21-.26.42-.38.63-.23.4-.46.79-.76 1.13-.51.58-1.18.89-1.79.82-.1-.01-.19.05-.21.15.01.01.01.02.01.02z" fill="#8dce28"/></g><g><path d="m42.21 46.5c0 .03.01.05.02.08.05.08.16.12.25.07 1.15-.53 2.58-1.19 3.44-2.34.54-.73.82-1.61 1.09-2.45.32-1 .62-1.95 1.32-2.67.07-.07.06-.18-.02-.24s-.19-.05-.26.02c-.75.78-1.08 1.8-1.4 2.8-.26.82-.53 1.67-1.04 2.36-.8 1.08-2.13 1.69-3.3 2.23-.06.01-.1.07-.1.14z" fill="#8dce28"/></g><g><path d="m37.05 45.28v.09c0 .09.09.17.19.16.1 0 .18-.08.18-.17 0-.03 0-.06 0-.09 0-1.02.77-1.94 1.39-2.69.76-.92 1.49-1.9 1.4-3.02-.01-.09-.1-.16-.2-.15s-.16.07-.17.18c.1 1-.61 1.92-1.32 2.79-.66.8-1.47 1.78-1.47 2.9z" fill="#8dce28"/></g><g><path d="m41.72 42.09c0 .03.01.07.03.09.06.08.17.1.26.05 1.35-.82 2.08-2.35 1.85-3.81-.02-.09-.11-.16-.21-.14-.1.01-.17.1-.16.19.22 1.33-.46 2.73-1.69 3.48-.05.03-.08.08-.08.14z" fill="#8dce28"/></g><g><path d="m33.48 47.66c0 .08.06.15.15.17 2.98.51 6.05 1.04 9.16.94 1.81-.06 3.63-.34 5.38-.61.95-.14 1.93-.3 2.89-.41 3.41-.4 5.98-.2 8.11.62.09.04.2 0 .24-.09.04-.08 0-.18-.1-.22-2.19-.85-4.83-1.05-8.31-.64-.97.11-1.96.27-2.91.41-1.74.27-3.54.54-5.33.6-3.06.1-6.12-.42-9.07-.93-.1-.02-.2.04-.22.13.01.01.01.02.01.03z" fill="#8dce28"/></g><g><path d="m51.42 47.52c0 .07.05.14.14.16 1.14.29 2.56.66 3.45 1.56.53.53.85 1.19 1.18 1.89.15.31.3.63.47.94.71 1.26 1.78 1.99 2.85 1.94.1-.01.17-.1.18-.18-.01-.09-.09-.16-.2-.16-1.37.07-2.26-1.33-2.5-1.76-.17-.29-.32-.61-.46-.92-.33-.7-.67-1.41-1.25-1.99-.97-.97-2.44-1.35-3.63-1.65-.1-.03-.2.03-.23.12z" fill="#8dce28"/></g><g><path d="m42.21 48.61c0 .03.01.07.03.1.06.08.17.1.26.04 1.41-.89 2.87-1.82 4.5-2.35.81-.26 1.67-.43 2.5-.59s1.68-.33 2.5-.59c.95-.31 3.23-1.24 3.75-3.29.02-.09-.04-.18-.14-.2s-.2.03-.22.13c-.48 1.89-2.62 2.76-3.51 3.05-.8.25-1.64.42-2.45.58-.84.16-1.71.33-2.55.61-1.68.55-3.16 1.48-4.59 2.39-.05.02-.08.07-.08.12z" fill="#8dce28"/></g><g><path d="m49.78 47.72c0 .06.04.13.11.15.09.04.2 0 .25-.09.73-1.51 2.22-2.45 3.7-2.34.76.05 1.48.36 2.23.67.46.19.94.39 1.43.53 1.61.46 3.38.22 4.85-.65.09-.05.11-.16.05-.23-.06-.08-.17-.1-.26-.05-1.38.82-3.04 1.04-4.54.61-.46-.13-.93-.33-1.38-.52-.75-.32-1.53-.64-2.36-.7-1.64-.12-3.27.9-4.07 2.54 0 .03-.01.06-.01.08z" fill="#8dce28"/></g><g><path d="m47.13 48.12c0 .1.09.17.19.17.65-.03 1.18.52 1.35 1.05.13.4.12.82.11 1.27 0 .2-.01.4 0 .59.1 2.2 1.58 4.06 3.35 6.09.06.07.18.08.26.03.08-.06.09-.16.03-.24-1.74-1.98-3.18-3.79-3.27-5.89-.01-.19 0-.38 0-.58 0-.45.02-.92-.12-1.37-.21-.67-.87-1.33-1.72-1.3-.1.01-.18.09-.18.18z" fill="#8dce28"/></g><g><path d="m44.71 49.47c0 .8.34 1.53.59 1.97.3.52.67 1 1.03 1.46.26.34.54.69.77 1.05.93 1.41 1.39 3.09 1.32 4.74 0 .1.08.17.18.18.1 0 .19-.07.19-.16.07-1.72-.4-3.46-1.37-4.93-.24-.37-.52-.73-.79-1.07-.35-.45-.72-.93-1-1.42-.33-.58-.82-1.7-.36-2.73.04-.09-.01-.18-.1-.22-.09-.03-.2.01-.24.09-.15.35-.22.7-.22 1.04z" fill="#8dce28"/></g><g><path d="m40.21 57.96c0 .42.04.84.13 1.25.02.09.12.15.22.13s.16-.11.15-.2c-.27-1.29-.09-2.66.51-3.85.14-.27.29-.53.45-.79.28-.46.56-.94.73-1.46.49-1.51-.08-3.12-.7-4.5-.04-.09-.15-.13-.24-.09-.1.03-.14.14-.1.22.59 1.33 1.14 2.87.68 4.28-.16.49-.42.93-.7 1.39-.16.26-.32.53-.46.81-.44.88-.67 1.85-.67 2.81z" fill="#8dce28"/></g><g><path d="m36.62 58.28c.01.09.09.16.19.15s.18-.09.18-.18c-.12-2.15.19-4.29.93-6.36l.09-.25c.38-1.06.82-2.27.29-3.32-.04-.08-.15-.12-.25-.08-.09.04-.14.14-.09.22.46.94.07 2.02-.31 3.08l-.09.26c-.74 2.1-1.06 4.28-.94 6.48 0-.01 0 0 0 0z" fill="#8dce28"/></g></g></g><g opacity=".1"><path d="m35.36 58.23c1.19-1.14 2.95-1.7 4.61-2.05 2.15-.43 4.48-.73 6.14-2.15.88-.75 1.56-1.83 2.65-2.22 1.68-.61 3.59.57 5.28.03 1.23-.39 2-1.61 3.06-2.33 1.56-1.09 3.62-1.08 5.5-1.24 1.09-.1 2.25-.34 3.21-.85-.03-.03-.07-.07-.1-.1-.29-.27-.36-.5-.15-.89.1-.17.22-.34.29-.52.15-.47-.22-1.03-.73-1.06-.64-.03-1.21.73-1.83.5-.07-.15.03-.34.15-.46.13-.11.29-.18.42-.31.11-.13.17-.35.06-.47-.2-.07-.43-.04-.6.08-.22-.17-.08-.52.13-.7.21-.17.49-.29.59-.54.15-.35-.17-.77-.54-.82-.38-.06-.74.14-1.01.42-.18.17-.36.39-.6.39-.2 0-.34-.14-.52-.22-.4-.18-.96.11-1.06.54-.04.25.01.5.01.74 0 .47-.28.94-.68 1.16-.21.11-.47.18-.7.1-.22-.08-.4-.32-.36-.56.04-.18.18-.32.29-.46.1-.15.14-.39 0-.5-.18-.15-.45.03-.59.22-.15.18-.39.4-.6.29-.11-.07-.15-.24-.13-.38.03-.13.11-.25.18-.36.18-.22.38-.47.67-.5.24-.03.46.13.68.21.22.1.53.1.66-.11.21-.36-.45-.78-.31-1.19.07-.2.28-.28.47-.31.2-.03.4-.01.59-.08.35-.13.56-.57.42-.92s-.6-.52-.94-.36c-.18.08-.34.24-.53.22-.2-.03-.32-.22-.34-.43-.01-.2.07-.38.13-.56.04-.14.07-.29-.01-.39-.08-.11-.24-.13-.36-.14-.25 0-.53-.01-.73.15-.13.11-.2.29-.29.45-.11.14-.31.27-.46.18-.24-.14-.1-.5-.21-.74-.08-.18-.29-.27-.49-.24-.18.04-.34.2-.42.36-.07.15-.1.32-.17.47-.06.15-.18.31-.34.34-.17.03-.36-.14-.29-.29-.2-.15-.01-.36.11-.57.11-.21.27-.46.15-.67-.11-.25-.47-.25-.7-.1-.22.15-.34.4-.49.63-.14.22-.35.45-.61.46-.31 0-.6-.25-.88-.15-.35.13-.34.63-.22.98.1.36.14.87-.2 1.01-.36.15-.82-.27-1.13-.04-.21.14-.2.43-.2.68.01.7-.25 1.38-.73 1.9-.17.18-.43.34-.64.21-.1-.06-.17-.18-.27-.25-.22-.14-.5.03-.66.24-.17.2-.29.45-.53.53-.38.14-.78-.27-.77-.66.03-.39.35-.73.71-.88.34-.15.73-.18 1.07-.28.36-.08.74-.25.94-.56.21-.31.17-.8-.17-.98-.22.21-.64 0-.68-.31-.06-.29.17-.6.43-.75.27-.15.57-.2.88-.28.29-.08.6-.21.78-.46.21-.29.18-.73-.06-.99-.25-.25-.67-.32-.98-.14-.14-.31-.11-.7.04-.99.22-.43.34-.21.66-.35.64-.28 0-1.24-.43-1.42-.39-.17-.91-.07-1.2.24-.21.24-.27.74-.67.75-.43.03-.59-.64-1.02-.74-.31-.07-.6.22-.68.53-.08.29-.04.63-.07.94-.03.32-.17.67-.47.77-.32.11-.68-.14-.8-.46-.13-.36.15-.71.13-1.06-.04-.5-.57-.56-.98-.42-1.02.32-.47 1.7-1.19 2.26-.53.42-1.69-.24-1.05-.84.18-.17.4-.34.38-.57-.01-.13-.11-.24-.21-.32-.38-.29-.99-.22-1.3.13-.21.22-.29.54-.54.7-.47.32-1.24-.1-1.63.31-.22.24-.2.59-.18.91.01.32-.04.7-.34.82-.18.08-.39.03-.59.03-.42-.03-.82.17-1.07.49-.27.31-.35.75-.25 1.14.07.27.21.5.28.77s.03.59-.21.73c-.15.1-.36.08-.53.13-.53.13-.8.73-.82 1.27-.04.64.15 1.17.42 1.73.21.46.24 1.02-.29 1.33-.2.1-.4.13-.61.17-.73.1-1.44.18-2.15.28l-.2.87c.8-.24 1.86-.38 2.28.34.28.5.06 1.13-.2 1.65-.59 1.19-1.34 2.39-1.2 3.7.13 1.14.92 2.11 1.23 3.23.11.26.15.63.21.98z" fill="#fff"/></g><g opacity=".1"><path d="m44.1 47.87c1.37-.32 2.5-1.27 3.84-1.73 1.09-.38 2.28-.4 3.42-.54 1.14-.13 2.35-.42 3.2-1.19 1.24-1.1 1.51-2.93 2.54-4.23.13-.15.25-.29.4-.43-.04 0-.08-.01-.11-.03-.24-.14-.1-.5-.21-.74-.08-.18-.29-.27-.49-.24-.18.04-.34.2-.42.36-.07.15-.1.32-.17.47-.06.15-.18.31-.34.34-.17.03-.36-.14-.29-.29-.2-.15-.01-.36.11-.57.11-.21.27-.46.15-.67-.11-.25-.47-.25-.7-.1-.22.15-.34.4-.49.63-.14.22-.35.45-.61.46-.31 0-.6-.25-.88-.15-.35.13-.34.63-.22.98.1.36.14.87-.2 1.01-.36.15-.82-.27-1.13-.04-.21.14-.2.43-.2.68.01.7-.25 1.38-.73 1.9-.17.18-.43.34-.64.21-.1-.06-.17-.18-.27-.25-.22-.14-.5.03-.66.24-.17.2-.29.45-.53.53-.38.14-.78-.27-.77-.66.03-.39.35-.73.71-.88.34-.15.73-.18 1.07-.28.36-.08.74-.25.94-.56.21-.31.17-.8-.17-.98-.22.21-.64 0-.68-.31-.06-.29.17-.6.43-.75.27-.15.57-.2.88-.28.29-.08.6-.21.78-.46.21-.29.18-.73-.06-.99-.25-.25-.67-.32-.98-.14-.14-.31-.11-.7.04-.99.22-.43.34-.21.66-.35.64-.28 0-1.24-.43-1.42-.39-.17-.91-.07-1.2.24-.21.24-.27.74-.67.75-.43.03-.59-.64-1.02-.74-.31-.07-.6.22-.68.53-.08.29-.04.63-.07.94-.03.32-.17.67-.47.77-.32.11-.68-.14-.8-.46-.13-.36.15-.71.13-1.06-.04-.5-.57-.56-.98-.42-1.02.32-.47 1.7-1.19 2.26-.53.42-1.69-.24-1.05-.84.18-.17.4-.34.38-.57-.01-.13-.11-.24-.21-.32-.38-.29-.99-.22-1.3.13-.21.22-.29.54-.54.7-.47.32-1.24-.1-1.63.31-.22.24-.2.59-.18.91.01.32-.04.7-.34.82-.18.08-.39.03-.59.03-.42-.03-.82.17-1.07.49-.27.31-.35.75-.25 1.14.07.27.21.5.28.77s.03.59-.21.73c-.15.1-.36.08-.53.13-.53.13-.8.73-.82 1.27v.17c.68.56 1.35 1.16 2.04 1.7 1.76 1.37 3.98 2.56 6.18 2.06z" fill="#fff"/></g></g><g><path d="m40.66 33.07c.57-.58 1.27-1.47.93-2.23-.23-.53-.87-.72-1.44-.82-1.29-.23-2.71-.33-3.68-1.21-.86-.78-1.16-2-1.88-2.9-.52-.66-1.25-1.14-1.67-1.87s-.32-1.87.47-2.15c.94-.33 2.06.81 2.88.24-.68-.3-1.31-.85-1.77-1.43-.2-.25-.38-.55-.33-.87s.44-.57.7-.38c.05-.07.1-.14.16-.21-.15-.19-.3-.38-.36-.61-.07-.23-.03-.5.14-.66.36-.32.97.03 1.4-.19.29-.15.47-.56.79-.53s.47.46.78.5c.42.06.58-.55.95-.75.25-.13.56-.05.83.03.36.11.73.23 1.11.23s.78-.13 1.01-.44.21-.8-.1-1.02c-.2-.14-.46-.15-.69-.25-.55-.25-.64-1.15-.14-1.5-.48-.07-.9-.45-1.02-.92s.06-1 .44-1.3c-.09.07.56.67.82.58.36-.13.43-.66.33-.97-.12-.39-.41-.71-.53-1.09-.12-.39.05-.92.45-.96.4-.03.72.45 1.11.38.36-.06.49-.52.45-.88s-.16-.74-.01-1.07c.15-.34.56-.5.93-.48s.72.19 1.05.37c.42.22.89.53.9 1.01.01.23-.09.44-.18.65s-.16.44-.09.66.33.38.53.27c.29-.16.15-.69.43-.87.19-.12.45.01.61.18.41.42.55 1.07.36 1.63-.12.34-.35.68-.26 1.03.12.49.8.71.83 1.21.02.32-.24.59-.26.91-.01.32.27.62.59.64s.63-.22.72-.53c.16-.59-.42-1.13-.52-1.73-.11-.66.36-1.31.28-1.98-.05-.39-.27-.72-.48-1.05-.2-.33-.4-.7-.36-1.08.03-.39.38-.77.76-.69.25.05.42.27.63.42.29.21.91.14.74-.35-.05-.15-.17-.27-.24-.41-.21-.38-.09-.92.28-1.17.15.15.42.12.58-.02s.24-.35.3-.56.12-.42.25-.59c.28-.36.86-.39 1.21-.1s.45.81.28 1.23c-.1.25-.28.49-.24.75.08.5.86.6 1.02 1.08.18.54-.54 1.1-.31 1.62.14.33.64.4.93.18s.38-.63.32-.99c-.04-.24-.13-.5-.02-.72.15-.32.63-.35.81-.65.16-.26.03-.59.04-.89.01-.5.4-.95.88-1.1s1.01-.05 1.45.2c.36.2.7.58.6.98-.08.33-.42.64-.25.93.11.2.43.22.62.08s.28-.37.35-.59c.06-.22.11-.46.25-.65.2-.28.57-.41.9-.32.38.11.55.44.6.8.05.39.19.58.63.64.2.03.4.02.59.08.47.15.7.8.43 1.21-.36.54-1.3.56-1.49 1.18.09.15.3.18.46.14s.33-.12.5-.15c.17-.02.38.06.42.23-.06.2-.23.37-.43.44.01.27.38.37.64.3s.53-.22.79-.15c.37.09.52.59.34.93-.17.34-.56.52-.94.57-.24.04-.53.05-.67.25-.1.15-.08.35-.12.53-.1.44-.65.72-1.07.53-.23-.1-.39-.3-.59-.45-.38-.27-.91-.32-1.34-.13-.22.1-.42.27-.49.51s.02.52.24.62c.17.08.36.04.54.05s.4.1.41.29c.02.24-.3.34-.54.35s-.55.07-.58.3c-.02.14.09.27.21.33.13.06.27.06.41.06.29 0 .61-.02.8-.23.16-.18.17-.44.23-.68s.24-.49.48-.46c.43.05.37.82.78.95.19.06.39-.05.53-.2.14-.14.25-.32.41-.43.31-.21.79-.11.99.21s.07.79-.26.97c-.17.09-.39.13-.49.29-.1.17-.01.4.14.52s.35.17.53.24c.13.04.27.11.31.24s-.04.26-.11.38c-.14.21-.3.43-.54.49-.18.04-.36-.02-.54-.02s-.39.09-.41.27c-.03.26.34.37.47.61.09.17.04.39-.1.52s-.35.17-.54.13c-.16-.03-.32-.11-.48-.15s-.35-.03-.47.08c-.12.12-.1.37.07.41 0 .24.28.22.52.25s.53.05.64.27c.13.24-.08.54-.33.62-.25.09-.53.03-.8.02-.27-.02-.57.02-.74.23-.19.24-.15.62-.4.79-.31.21-.7-.11-.93-.4s-.6-.62-.92-.43c-.33.2-.26.82-.63.94-.23.08-.46-.11-.66-.26-.55-.42-1.27-.61-1.96-.53-.24.03-.53.14-.55.39-.01.13.06.25.05.38-.02.25-.32.38-.58.39-.25.01-.53-.03-.74.11-.33.22-.25.78.08 1s.78.15 1.13-.05c.32-.19.58-.47.86-.71s.63-.44 1.01-.42c.37.02.74.35.69.72-.3.06-.38.52-.16.74s.58.22.87.09.51-.35.75-.54.52-.37.83-.36c.36.01.69.28.76.63s-.13.73-.46.87c.18.29.5.49.84.55.47.08.35-.15.66-.32.61-.35 1 .74.9 1.18-.1.41-.47.78-.9.83-.32.04-.75-.21-1.01.1-.28.33.17.86 0 1.26-.13.29-.53.36-.83.24-.3-.11-.53-.34-.81-.5s-.64-.25-.9-.07c-.28.2-.29.64-.1.92.22.32.66.29.93.53.37.33.11.78-.24 1.03-.87.63-1.65-.62-2.53-.38-.65.18-.81 1.49.06 1.33.23-.04.5-.12.68.04.1.09.13.22.13.35.01.48-.39.93-.87.98-.29.03-.6-.08-.88.02-.53.2-.65 1.06-1.22 1.13-.31.04-.58-.19-.83-.39s-.59-.37-.86-.22c-.17.1-.26.3-.37.46-.23.34-.62.56-1.03.58s-.82-.17-1.08-.48c-.17-.21-.27-.47-.45-.68-.17-.21-.46-.36-.71-.26-.17.07-.27.24-.42.36-.41.35-1.05.2-1.51-.09-.54-.35-.86-.82-1.16-1.36-.25-.45-.67-.79-1.23-.54-.2.09-.35.24-.5.4-.5.52-1.43 1.27-1.94 1.79z" fill="#70b313"/><g><g><path d="m41.75 32.01c-.07-.05-.09-.16-.03-.24.66-1.03 1.35-1.99 2.44-2.32.62-.19 1.28-.15 1.92-.1.62.04 1.2.09 1.75-.07.1-.03.19.03.2.12.02.1-.04.2-.14.22-.61.18-1.25.13-1.87.09-.63-.05-1.23-.09-1.79.09-.97.3-1.6 1.19-2.22 2.16-.07.08-.17.11-.26.05z" fill="#8dce28"/></g><g><path d="m45.69 29c-.07-.05-.09-.15-.04-.23.37-.64 1.12-1.07 2.02-1.15.49-.04.96.01 1.42.06.24.03.48.05.72.06 1.3.07 2.68-.27 3.87-.96.09-.05.19-.02.23.06.04.09 0 .2-.08.25-1.25.72-2.7 1.08-4.07 1.01-.25-.01-.49-.04-.74-.06-.46-.05-.9-.1-1.36-.06-.77.07-1.41.43-1.72.96-.05.09-.16.12-.24.08 0-.01-.01-.02-.01-.02z" fill="#8dce28"/></g><g><path d="m47.37 26.55c-.02-.02-.04-.04-.05-.06-.04-.09 0-.2.09-.24 1.11-.61 2.48-1.38 3.92-1.39.91 0 1.78.29 2.62.57 1 .33 1.94.65 2.93.52.1-.01.18.06.18.15 0 .1-.07.19-.17.2-1.07.15-2.09-.2-3.08-.53-.82-.28-1.66-.56-2.52-.56-1.35.01-2.62.72-3.75 1.34-.05.04-.12.03-.17 0z" fill="#8dce28"/></g><g><path d="m45.29 31.43c-.02-.02-.05-.04-.08-.06-.07-.06-.08-.17-.02-.25s.17-.1.24-.04c.02.01.05.04.07.05.82.6 2.02.53 2.99.47 1.19-.07 2.41-.07 3.26.66.07.06.07.18.01.25-.07.08-.15.09-.25.03-.75-.67-1.91-.65-3.03-.58-1.01.06-2.28.13-3.19-.53z" fill="#8dce28"/></g><g><path d="m50.63 29.55c-.03-.02-.05-.05-.06-.08-.03-.09.02-.2.12-.24 1.46-.6 3.13-.29 4.17.76.06.07.06.18-.01.25s-.18.08-.25.01c-.94-.96-2.47-1.24-3.81-.69-.05.03-.11.02-.16-.01z" fill="#8dce28"/></g><g><path d="m41.26 32.9c-.06-.05-.08-.14-.04-.22 1.35-2.7 2.74-5.5 4.66-7.94 1.12-1.43 2.42-2.72 3.67-3.98.68-.68 1.38-1.38 2.04-2.09 2.34-2.51 3.7-4.7 4.3-6.91.03-.1.12-.16.22-.14.09.02.15.11.12.21-.62 2.27-2.01 4.52-4.4 7.08-.67.72-1.37 1.42-2.05 2.1-1.25 1.25-2.54 2.54-3.64 3.94-1.89 2.41-3.28 5.18-4.62 7.87-.05.09-.15.14-.24.1 0-.01-.01-.01-.02-.02z" fill="#8dce28"/></g><g><path d="m51.99 18.52c-.06-.04-.08-.13-.05-.2.44-1.09.98-2.45.79-3.71-.11-.74-.46-1.39-.83-2.07-.16-.3-.33-.61-.48-.93-.6-1.32-.55-2.61.12-3.45.06-.08.18-.08.25-.04.07.06.08.17.01.25-.86 1.06-.27 2.61-.06 3.06.14.31.31.62.47.91.37.68.74 1.38.86 2.18.21 1.35-.36 2.77-.81 3.9-.04.09-.14.15-.23.12-.02 0-.03-.01-.04-.02z" fill="#8dce28"/></g><g><path d="m45.66 25.3c-.03-.02-.05-.05-.06-.08-.03-.09.03-.2.12-.23 1.56-.61 3.17-1.24 4.56-2.24.69-.5 1.33-1.09 1.96-1.66.62-.57 1.26-1.16 1.95-1.67.81-.59 2.91-1.87 4.87-1.08.09.04.12.14.08.23s-.15.14-.23.11c-1.81-.73-3.78.48-4.54 1.03-.68.49-1.31 1.07-1.92 1.64-.63.58-1.28 1.18-1.99 1.69-1.43 1.03-3.06 1.67-4.64 2.29-.06.01-.11 0-.16-.03z" fill="#8dce28"/></g><g><path d="m50.86 19.72c-.05-.04-.08-.11-.06-.18.03-.1.12-.16.21-.15 1.65.3 3.29-.35 4.08-1.6.41-.65.59-1.4.78-2.2.12-.49.24-.99.42-1.47.58-1.57 1.82-2.85 3.4-3.53.09-.04.19.01.22.09.03.09-.02.2-.11.24-1.47.63-2.63 1.83-3.18 3.3-.17.45-.29.95-.4 1.42-.19.79-.39 1.62-.83 2.32-.87 1.39-2.66 2.11-4.45 1.78-.04 0-.06-.01-.08-.02z" fill="#8dce28"/></g><g><path d="m48.97 21.63c0-.01-.01-.01 0 0-.08-.06-.08-.18-.02-.26.41-.51.28-1.26-.05-1.71-.25-.34-.59-.58-.96-.84-.16-.12-.32-.23-.48-.35-1.72-1.38-2.34-3.67-2.92-6.31-.02-.09.04-.2.13-.23s.19.02.21.12c.57 2.57 1.17 4.81 2.81 6.12.15.12.31.23.46.34.37.26.75.53 1.03.91.42.57.56 1.49.03 2.16-.06.08-.17.1-.24.05z" fill="#8dce28"/></g><g><path d="m46.45 22.77c-.64-.47-1.04-1.18-1.24-1.64-.24-.54-.41-1.13-.57-1.69-.12-.41-.24-.84-.39-1.24-.59-1.59-1.67-2.95-3.05-3.87-.08-.06-.09-.16-.04-.25.06-.09.17-.11.24-.06 1.43.96 2.55 2.37 3.17 4.02.15.42.28.85.4 1.27.16.55.32 1.12.55 1.65.27.61.89 1.67 1.99 1.9.09.02.14.11.12.21-.03.1-.13.16-.22.14-.36-.08-.69-.24-.96-.44z" fill="#8dce28"/></g><g><path d="m36.94 21.38c-.34-.25-.65-.53-.93-.84-.06-.07-.05-.18.02-.25s.18-.06.25 0c.88.98 2.09 1.64 3.41 1.87.29.05.6.08.9.11.54.05 1.09.1 1.61.27 1.5.5 2.47 1.91 3.22 3.22.05.08.02.19-.07.25-.08.06-.19.03-.24-.05-.72-1.26-1.64-2.62-3.05-3.08-.48-.16-1-.21-1.54-.26-.3-.03-.61-.06-.92-.11-.97-.17-1.88-.56-2.66-1.13z" fill="#8dce28"/></g><g><path d="m34.56 24.09c-.07-.06-.07-.17-.01-.25.07-.08.18-.09.25-.04 1.67 1.37 3.58 2.38 5.68 3.01l.26.08c1.08.32 2.31.68 2.85 1.72.04.08.01.19-.08.25-.09.05-.2.03-.24-.06-.48-.93-1.59-1.25-2.66-1.57l-.26-.08c-2.14-.63-4.09-1.66-5.79-3.06z" fill="#8dce28"/></g></g></g><g opacity=".1"><path d="m58.15 6.87c-.07.33-.41.65-.25.94.01.03.03.05.05.07-.04.1-.08.2-.13.29-.7 1.39-1.91 2.52-2.49 3.97-1.01 2.51-.04 5.57-1.34 7.94-.6 1.08-1.61 1.87-2.4 2.81-.8.96-1.38 2.27-.93 3.42.47 1.2 2 2 1.94 3.31-.06 1.22-1.52 1.9-1.94 3.05-.17.44-.16.93-.03 1.39-.21.17-.48.27-.75.28-.39.02-.82-.17-1.08-.48-.17-.21-.27-.46-.44-.68-.17-.21-.45-.36-.71-.26-.17.07-.28.24-.41.36-.41.36-1.06.21-1.51-.09-.54-.35-.85-.81-1.16-1.35-.25-.44-.67-.81-1.23-.54-.2.08-.36.24-.5.38-.5.52-1.43 1.27-1.93 1.8l-.24-.38c.57-.59 1.26-1.48.94-2.24-.24-.53-.88-.72-1.45-.82-1.29-.23-2.71-.33-3.68-1.21-.86-.78-1.16-1.99-1.88-2.9-.53-.65-1.26-1.15-1.69-1.87-.4-.72-.32-1.88.48-2.14.93-.34 2.06.8 2.87.23-.68-.29-1.31-.84-1.77-1.43-.2-.24-.38-.55-.34-.87.05-.31.44-.56.7-.39.06-.06.11-.13.16-.2-.15-.19-.3-.38-.36-.61-.07-.23-.05-.5.13-.66.37-.33.98.03 1.4-.2.29-.15.47-.55.8-.52.31.03.46.46.78.5.41.06.57-.55.95-.75.24-.14.55-.06.82.03.37.11.74.23 1.12.23.38.01.78-.13 1.01-.43.23-.31.21-.8-.1-1.03-.2-.14-.46-.15-.68-.25-.56-.25-.64-1.16-.16-1.5-.46-.07-.89-.45-1.02-.92-.12-.47.07-1 .45-1.3-.1.08.56.68.82.58.36-.12.43-.65.34-.97-.13-.39-.41-.71-.53-1.09-.12-.39.05-.94.45-.97s.71.45 1.12.38c.36-.06.48-.5.45-.87-.05-.37-.17-.74-.01-1.08.15-.35.56-.5.93-.47.37.01.72.19 1.05.36.41.22.89.53.91 1.01 0 .24-.09.44-.18.65s-.17.44-.1.67c.07.21.34.38.52.27.29-.17.16-.69.43-.87.2-.12.44.01.61.18.4.41.55 1.07.36 1.62-.11.35-.35.68-.27 1.04.13.48.81.71.84 1.21.02.32-.24.59-.26.91s.28.61.59.63c.33.03.63-.22.72-.52.16-.59-.41-1.13-.52-1.73-.11-.66.37-1.31.28-1.97-.04-.39-.27-.72-.46-1.06-.21-.33-.4-.7-.38-1.09.03-.38.38-.76.77-.69.25.05.41.28.62.42.3.22.92.15.74-.35-.05-.15-.16-.28-.24-.41-.21-.39-.09-.92.28-1.16.15.15.42.11.58-.03s.24-.36.3-.55c.07-.21.12-.41.26-.59.28-.36.86-.39 1.2-.1.35.29.44.82.29 1.23-.1.26-.28.49-.24.75.07.5.85.59 1.02 1.08.19.54-.53 1.11-.31 1.63.15.33.64.39.93.18.29-.23.38-.63.33-1-.04-.24-.14-.49-.03-.72.16-.32.63-.36.81-.65.16-.26.04-.59.04-.89.01-.5.4-.96.88-1.12.48-.15 1.02-.05 1.45.21.36.18.7.56.61.96z" fill="#fff"/></g><g opacity=".1"><path d="m44.98 7.84c-.08 1.74.05 3.48.39 5.19.35 1.73.9 3.5.48 5.22-.25.98-.79 1.93-.56 2.91.24 1.03 1.27 1.65 1.85 2.54.82 1.27.65 2.92.35 4.41-.38 1.76-.9 3.48-1.58 5.15-.06-.02-.12-.06-.18-.1-.54-.35-.85-.81-1.16-1.35-.25-.44-.67-.81-1.23-.54-.2.08-.36.24-.5.38-.5.52-1.43 1.27-1.93 1.8l-.24-.38c.57-.59 1.26-1.48.94-2.24-.24-.53-.88-.72-1.45-.82-1.29-.23-2.71-.33-3.68-1.21-.86-.78-1.16-1.99-1.88-2.9-.53-.65-1.26-1.15-1.69-1.87-.4-.72-.32-1.88.48-2.14.93-.34 2.06.8 2.87.23-.68-.29-1.31-.84-1.77-1.43-.2-.24-.38-.55-.34-.87.05-.31.44-.56.7-.39.06-.06.11-.13.16-.2-.15-.19-.3-.38-.36-.61-.07-.23-.05-.5.13-.66.37-.33.98.03 1.4-.2.29-.15.47-.55.8-.52.31.03.46.46.78.5.41.06.57-.55.95-.75.24-.14.55-.06.82.03.37.11.74.23 1.12.23.38.01.78-.13 1.01-.43.23-.31.21-.8-.1-1.03-.2-.14-.46-.15-.68-.25-.56-.25-.64-1.16-.16-1.5-.46-.07-.89-.45-1.02-.92-.12-.47.07-1 .45-1.3-.1.08.56.68.82.58.36-.12.43-.65.34-.97-.13-.39-.41-.71-.53-1.09-.12-.39.05-.94.45-.97s.71.45 1.12.38c.36-.06.48-.5.45-.87-.05-.37-.17-.74-.01-1.08.15-.35.56-.5.93-.47.37.01.72.19 1.05.36.07.05.14.1.21.15z" fill="#fff"/></g><g><path d="m28.81 68.85c-.15.15-.37.2-.58.11-.27-.11-.39-.42-.28-.69 1.59-3.72 2.25-7.83 2.89-11.81.53-3.28 1.07-6.67 2.13-9.88 1.93-5.82 5.47-10.88 8.9-15.77.17-.24.49-.29.73-.13.24.17.29.49.13.73-3.38 4.83-6.88 9.82-8.76 15.5-1.04 3.13-1.57 6.48-2.09 9.72-.65 4.04-1.32 8.22-2.96 12.06-.02.06-.06.11-.11.16z" fill="#8dce28"/></g></g></svg>