<svg id="Layer_1" enable-background="new 0 0 53 53" height="512" viewBox="0 0 53 53" width="512" xmlns="http://www.w3.org/2000/svg"><g><path d="m33.3755989 13.066679-3.4325142 2.7187815h-6.8756618l-3.4325142-2.7187815s.5668221-1.4275923 3.002161-2.7187176c2.4353371-1.2911882 3.8734379-.7137957 3.8734379-.7137957s1.4275913-.5773926 3.8629303.7137957c2.435339 1.2911253 3.002161 2.7187176 3.002161 2.7187176z" fill="#f34624"/><g><path d="m17.0577106 12.0672483c-4.0931549-.6979923-7.1586494 1.7179518-8.3044233 3.7223854-1.1450686 2.0044336-.8590193 8.5901918-.8590193 8.5901918l16.0353298-2.433939 3.7220192-6.1562529c.0000001.0000002-7.8272018-3.2503394-10.5939064-3.7223853z" fill="#e52d15"/><path d="m25.504158 17.2211761s-3.7220249-2.433939-9.1627159-2.0044336c-5.4399843.4295063-8.4471741 2.7203493-9.1627293 6.872241-.7156277 4.1518192 2.7864265 19.0100498 6.5857592 23.9091663 1.3046408 1.6824684 3.7220259 2.5768929 8.1603251 2.4338684s3.5793609-31.2108421 3.5793609-31.2108421z" fill="#f34624"/><path d="m35.9553337 12.0672483c4.0931511-.6979923 7.1586418 1.7179518 8.3037033 3.7223854 1.1457825 2.0044336.8597336 8.5901918.8597336 8.5901918l-16.0353241-2.433939-3.7220249-6.1562529c0 .0000002 7.8272037-3.2503394 10.5939121-3.7223853z" fill="#e52d15"/><path d="m27.5088806 17.2211761s3.7220249-2.433939 9.1627235-2.0044336c5.4399757.4295063 8.4471664 2.7203493 9.1627197 6.872241.7156296 4.1518192-3.4717484 18.8754482-7.1586494 23.9091663-1.1767311 1.6072464-3.1498528 2.5768929-7.5874348 2.4338684-4.4382991-.1430244-3.579359-31.2108421-3.579359-31.2108421z" fill="#f34624"/><path d="m31.3895588 15.8807964c0 .9761982-1.8603268 2.6338882-4.8441792 2.6338882s-5.0375977-1.6945076-5.0375977-2.6707058c0-.386838 1.353817.0275993 2.0168705-.2671099.6078548-.2670546.9393826-.4235992 1.5195827-.5065088-1.11133-6.2584467-.6305828-11.3721275 4.7163334-12.527792.9839535-.2126682 1.9667645.3917382 2.2365665 1.361582.0046082.016573.0092278.0331752.013855.0498016.2682762.9643967-.2462673 1.9998896-1.1987343 2.3078501-3.3325138 1.0774989-3.4640656 4.8177047-2.7289143 9.0848293.5249443.2118559 1.0038548.4604731 1.4735451.570982 1.3261072.3223657 1.8326723-.6170169 1.8326723-.0368167z" fill="#17be66"/><path d="m35.1076469 38.5537071c-3.5748196 15.5300255-13.7245007 16.3218346-17.4882298 0-1.5955181-6.875597-2.1413898-17.750658.8712769-20.3329086 1.9524498-1.6690693 4.6922455-1.6585617 6.3717575-1.4380989.9972401.1259594 2.004921.1259594 3.002161 0 1.6795769-.2204628 4.4193077-.2309704 6.3717575 1.4380989 3.0021592 2.5822506 2.466797 13.4573116.8712769 20.3329086z" fill="#e52d15"/></g></g></svg>