<svg height="512pt" viewBox="0 -60 512.001 512" width="512pt" xmlns="http://www.w3.org/2000/svg"><path d="m382.421875 308.472656c-2.753906 24.777344-.257813 50.992188 19.195313 59.859375 14.992187 6.835938 50.085937 1.808594 49.847656-28.355469-.1875-23.734374-15.753906-47.257812-27.761719-61.433593zm0 0" fill="#d2996f"/><path d="m417.128906 343.566406c-3.234375 0-6.21875-2.105468-7.1875-5.359375l-12.027344-40.382812c-1.183593-3.96875 1.074219-8.148438 5.046876-9.328125 3.972656-1.1875 8.144531 1.074218 9.328124 5.046875l12.03125 40.378906c1.183594 3.972656-1.078124 8.148437-5.046874 9.332031-.714844.210938-1.4375.3125-2.144532.3125zm0 0" fill="#e1b89a"/><path d="m319.472656 57.675781c44.542969 0 90.707032 19.828125 125.785156 47.003907 1.386719-11.558594 1.75-23.601563.15625-36.78125-2.035156-16.8125-12.863281-31.324219-28.320312-38.242188-32.09375-14.363281-65.734375-22.15625-97.621094-22.15625-57.34375 0-116.5 18.34375-171.085937 53.039062-2.964844 1.886719-5.902344 3.8125-8.816407 5.78125-14.335937 9.695313-22.453124 26.363282-20.65625 43.578126 1.003907 9.621093 4.3125 19.078124 11.074219 27.601562 47.878907-43.628906 116.71875-79.824219 189.484375-79.824219zm0 0" fill="#d2996f"/><g fill="#e1b89a"><path d="m192.886719 116.644531c-2.972657 0-5.785157-1.777343-6.960938-4.699219l-13.890625-34.464843c-1.550781-3.84375.308594-8.214844 4.152344-9.761719 3.84375-1.550781 8.210938.3125 9.761719 4.152344l13.890625 34.464844c1.546875 3.84375-.3125 8.214843-4.152344 9.761718-.921875.371094-1.871094.546875-2.800781.546875zm0 0"/><path d="m277.027344 89.527344c-3.507813 0-6.640625-2.472656-7.351563-6.042969l-7.695312-38.769531c-.808594-4.0625 1.832031-8.011719 5.894531-8.816406 4.0625-.808594 8.011719 1.832031 8.820312 5.894531l7.695313 38.769531c.808594 4.066406-1.832031 8.015625-5.894531 8.820312-.492188.097657-.984375.144532-1.46875.144532zm0 0"/><path d="m371.003906 88.710938c-.328125 0-.65625-.019532-.984375-.0625-4.109375-.539063-7.003906-4.308594-6.464843-8.414063l4.339843-33.097656c.539063-4.109375 4.308594-7 8.410157-6.464844 4.109374.539063 7.003906 4.304687 6.464843 8.414063l-4.339843 33.097656c-.496094 3.777344-3.71875 6.527344-7.425782 6.527344zm0 0"/></g><path d="m148.386719 331.710938c47.316406 30.078124 98.074219 47.863281 148.105469 52.066406 20.621093 1.734375 40.5-8.140625 51.359374-25.757813 5.671876-9.199219 10.046876-19.398437 13.160157-28.800781-13.75 3.445312-27.722657 5.355469-41.539063 5.355469-76.1875 0-148.070312-39.675781-196.097656-86.023438-7.042969 4.726563-12.902344 12.464844-17.074219 21.609375-6.085937 13.347656-2.03125 29.152344 9.453125 38.285156 10.421875 8.289063 21.347656 16.09375 32.632813 23.265626zm0 0" fill="#d2996f"/><path d="m161.105469 310.289062c-1.363281 0-2.742188-.375-3.984375-1.152343-3.507813-2.203125-4.5625-6.835938-2.355469-10.34375l17.738281-28.21875c2.203125-3.507813 6.832032-4.5625 10.339844-2.359375 3.507812 2.207031 4.566406 6.835937 2.359375 10.34375l-17.738281 28.21875c-1.425782 2.265625-3.863282 3.511718-6.359375 3.511718zm0 0" fill="#e1b89a"/><path d="m260.8125 353.246094c-.746094 0-1.503906-.109375-2.25-.347656-3.953125-1.242188-6.148438-5.453126-4.90625-9.40625l9.921875-31.546876c1.242187-3.953124 5.453125-6.148437 9.40625-4.90625 3.953125 1.242188 6.148437 5.453126 4.90625 9.40625l-9.925781 31.550782c-1.003906 3.199218-3.960938 5.25-7.152344 5.25zm0 0" fill="#e1b89a"/><path d="m319.472656 57.675781c-85.753906 0-166.050781 50.265625-213.019531 103.730469l-47.113281-32.425781c-12.234375-8.417969-29.050782-4.554688-36.390625 8.355469-20.710938 36.457031-20.710938 81.121093 0 117.578124 7.339843 12.910157 24.15625 16.769532 36.390625 8.351563l47.113281-32.421875c46.96875 53.464844 127.265625 103.730469 213.019531 103.730469 89.246094 0 185.027344-79.601563 185.027344-138.449219s-95.78125-138.449219-185.027344-138.449219zm0 0" fill="#e1b89a"/><path d="m187.195312 95.679688c-31.9375 18.441406-59.6875 41.761718-80.742187 65.726562l-47.113281-32.421875c-12.234375-8.417969-29.050782-4.558594-36.390625 8.351563-20.710938 36.457031-20.710938 81.121093 0 117.578124 7.339843 12.910157 24.15625 16.773438 36.390625 8.351563l47.113281-32.421875c29.285156 33.335938 71.527344 65.425781 119.96875 84.867188-37.984375-50.296876-54.832031-149.101563-39.226563-220.03125zm0 0" fill="#d2996f"/><path d="m333.65625 236.394531c0-5.121093.816406-10.046875 2.304688-14.671875-.875-1.859375-1.902344-3.667968-3.125-5.382812-2.777344-3.894532-6.269532-7.226563-10.292969-9.8125l-21.730469-13.984375c-12.289062-7.910157-28.726562-3.132813-34.867188 10.125-9.902343 21.394531-9.902343 46.058593 0 67.453125 6.140626 13.257812 22.578126 18.035156 34.867188 10.125l21.730469-13.984375c4.023437-2.589844 7.515625-5.917969 10.292969-9.8125 1.222656-1.714844 2.25-3.523438 3.125-5.382813-1.488282-4.625-2.304688-9.550781-2.304688-14.671875zm0 0" fill="#d2996f"/><path d="m311.820312 243.898438h-25.875c-4.140624 0-7.5-3.359376-7.5-7.503907 0-4.140625 3.359376-7.5 7.5-7.5h25.875c4.144532 0 7.503907 3.359375 7.503907 7.5 0 4.144531-3.359375 7.503907-7.503907 7.503907zm0 0" fill="#e1b89a"/><path d="m467.09375 245.9375c0-10.148438-6.554688-18.378906-14.640625-18.378906-8.082031 0-14.636719 8.230468-14.636719 18.378906 0 10.152344 6.554688 18.382812 14.636719 18.382812 8.085937 0 14.640625-8.230468 14.640625-18.382812zm0 0" fill="#fff"/><path d="m467.09375 146.3125c0-10.152344-6.554688-18.382812-14.640625-18.382812-8.082031 0-14.636719 8.230468-14.636719 18.382812 0 10.148438 6.554688 18.378906 14.636719 18.378906 8.085937 0 14.640625-8.230468 14.640625-18.378906zm0 0" fill="#fff"/><path d="m67.761719 184.230469c-1.34375 0-2.699219-.359375-3.925781-1.113281l-19.558594-12.039063c-3.527344-2.171875-4.625-6.789063-2.453125-10.316406 2.171875-3.53125 6.789062-4.628907 10.320312-2.457031l19.554688 12.035156c3.527343 2.171875 4.628906 6.792968 2.457031 10.320312-1.417969 2.304688-3.878906 3.570313-6.394531 3.570313zm0 0" fill="#e1b89a"/><path d="m48.21875 235.0625c-2.519531 0-4.980469-1.269531-6.398438-3.570312-2.171874-3.527344-1.070312-8.148438 2.457032-10.320313l19.554687-12.035156c3.527344-2.175781 8.148438-1.074219 10.320313 2.453125s1.074218 8.148437-2.453125 10.320312l-19.558594 12.035156c-1.222656.757813-2.582031 1.117188-3.921875 1.117188zm0 0" fill="#e1b89a"/><path d="m280.300781 99.652344c0 3.929687-3.183593 7.117187-7.113281 7.117187s-7.117188-3.1875-7.117188-7.117187c0-3.929688 3.1875-7.113282 7.117188-7.113282s7.113281 3.183594 7.113281 7.113282zm0 0" fill="#fff"/><path d="m308.636719 157.023438c0 3.929687-3.183594 7.113281-7.113281 7.113281-3.929688 0-7.117188-3.183594-7.117188-7.113281 0-3.929688 3.1875-7.117188 7.117188-7.117188 3.929687 0 7.113281 3.1875 7.113281 7.117188zm0 0" fill="#d2996f"/><path d="m184.214844 232.285156c0 3.929688-3.1875 7.113282-7.117188 7.113282-3.929687 0-7.113281-3.183594-7.113281-7.113282 0-3.929687 3.183594-7.117187 7.113281-7.117187 3.929688 0 7.117188 3.1875 7.117188 7.117187zm0 0" fill="#e1b89a"/><path d="m226.421875 170.710938c0 3.929687-3.183594 7.113281-7.113281 7.113281-3.929688 0-7.117188-3.183594-7.117188-7.113281 0-3.929688 3.1875-7.117188 7.117188-7.117188 3.929687 0 7.113281 3.1875 7.113281 7.117188zm0 0" fill="#fff"/><path d="m326.050781 301.78125c0 3.929688-3.183593 7.113281-7.113281 7.113281s-7.117188-3.183593-7.117188-7.113281 3.1875-7.117188 7.117188-7.117188 7.113281 3.1875 7.113281 7.117188zm0 0" fill="#fff"/><path d="m467.265625 257.160156c-20.5 22.65625-52.207031 45.4375-87.945313 58.585938-.292968.085937-.578124.195312-.855468.320312-6.1875 2.246094-12.492188 4.179688-18.878906 5.792969-.269532.054687-.535157.121094-.796876.203125-12.878906 3.191406-26.082031 5.011719-39.316406 5.011719-38.335937 0-78.992187-10.703125-117.566406-30.957031-33.664062-17.675782-65.5625-42.613282-89.816406-70.222657-2.507813-2.855469-6.753906-3.386719-9.886719-1.230469l-47.117187 32.425782c-4.164063 2.863281-9.175782 3.820312-14.101563 2.6875-4.925781-1.132813-9.015625-4.175782-11.511719-8.570313-19.304687-33.976562-19.304687-76.1875 0-110.164062 2.730469-4.800781 7.429688-8.023438 12.902344-8.832031 4.097656-.605469 6.929688-4.421876 6.320312-8.519532-.605468-4.097656-4.421874-6.929687-8.519531-6.320312-10.070312 1.492187-18.726562 7.417968-23.746093 16.261718-21.90625 38.546876-21.90625 86.441407 0 124.988282 4.527343 7.976562 12.257812 13.726562 21.199218 15.777344 8.9375 2.058593 18.402344.25 25.960938-4.949219l41.691406-28.691407c2.265625 2.464844 4.609375 4.894532 6.984375 7.3125-5.003906 5.011719-9.351563 11.441407-12.789063 18.980469-7.492187 16.4375-2.722656 35.871094 11.609376 47.265625 10.6875 8.503906 21.882812 16.484375 33.273437 23.726563 48.011719 30.519531 100.398437 48.917969 151.503906 53.210937 1.800781.152344 3.589844.226563 5.371094.226563 21.617187 0 41.578125-10.992188 53-29.523438 4.789063-7.769531 9.09375-16.871093 12.558594-26.515625 2.523437-.683594 5.042969-1.402344 7.570312-2.1875 2.207031 26.230469 14.003907 37.285156 24.136719 41.90625 4.648438 2.117188 10.847656 3.371094 17.539062 3.371094 8.835938-.003906 18.53125-2.1875 26.632813-7.441406 10.609375-6.882813 16.394531-17.953125 16.292969-31.171875-.109375-13.578125-4.589844-28.105469-13.316406-43.265625 12.152343-9.007813 23.269531-18.960938 32.742187-29.425782 2.777344-3.070312 2.542969-7.816406-.53125-10.59375-3.066406-2.78125-7.8125-2.542968-10.59375.527344zm-125.800781 96.925782c-9.378906 15.214843-26.363282 23.738281-44.34375 22.21875-48.699219-4.089844-98.738282-21.699219-144.710938-50.921876-10.945312-6.960937-21.707031-14.632812-31.984375-22.808593-8.929687-7.097657-11.925781-19.148438-7.296875-29.300781 2.699219-5.917969 6.128906-10.984376 9.921875-14.753907 21.394531 19.777344 46.140625 37.371094 71.882813 50.882813 40.714844 21.375 83.78125 32.675781 124.539062 32.675781 9.648438 0 19.5625-.917969 29.601563-2.675781-2.3125 5.277344-4.871094 10.242187-7.609375 14.683594zm93.042968 4.417968c-8.980468 5.824219-22.648437 6.257813-29.78125 3.003906-9.761718-4.449218-15.007812-15.707031-15.648437-33.445312 6.238281-2.4375 12.464844-5.167969 18.644531-8.21875 8.761719-4.324219 17.324219-9.234375 25.546875-14.589844 6.925781 12.386719 10.613281 24.300782 10.695313 34.785156.0625 8.136719-3.117188 14.351563-9.457032 18.464844zm18.644532-257.144531c1.152344-11.902344 1.0625-23.1875-.292969-34.363281-2.332031-19.269532-14.863281-36.199219-32.703125-44.183594-33.34375-14.921875-68.160156-22.8125-100.683594-22.8125-58.769531 0-119.320312 18.746094-175.109375 54.207031-2.996093 1.90625-6.023437 3.890625-8.992187 5.898438-16.820313 11.375-25.984375 30.75-23.917969 50.570312.984375 9.453125 3.894531 18.097657 8.660156 25.785157-5.164062 4.894531-10.121093 9.914062-14.832031 15.03125l-27.417969-18.867188c-3.414062-2.347656-8.082031-1.484375-10.433593 1.929688-2.347657 3.410156-1.484376 8.082031 1.929687 10.429687l32.84375 22.601563c3.128906 2.15625 7.375 1.628906 9.886719-1.226563 24.253906-27.613281 56.152344-52.550781 89.816406-70.226563 38.574219-20.25 79.230469-30.957031 117.566406-30.957031 39.835938 0 84.078125 16.613281 121.382813 45.582031 34.628906 26.890626 56.144531 59.605469 56.144531 85.367188 0 10.261719-3.316406 21.554688-9.847656 33.566406-1.980469 3.640625-.636719 8.195313 3.003906 10.175782 1.140625.617187 2.367188.910156 3.578125.910156 2.660156 0 5.234375-1.417969 6.597656-3.917969 7.742188-14.234375 11.667969-27.9375 11.667969-40.734375 0-29.925781-21.929688-65.140625-58.847656-94.765625zm-14.296875-10.660156c-37.40625-25.878907-80.246094-40.523438-119.382813-40.523438-40.757812 0-83.824218 11.296875-124.542968 32.675781-22.40625 11.761719-44.066407 26.617188-63.414063 43.3125-2.753906-5.160156-4.496094-10.859374-5.140625-17.042968-1.492188-14.300782 5.175781-28.320313 17.398438-36.585938 2.851562-1.929687 5.757812-3.835937 8.636718-5.664062 53.378906-33.933594 111.148438-51.867188 167.0625-51.867188 30.429688 0 63.125 7.4375 94.554688 21.503906 13.0625 5.84375 22.234375 18.21875 23.941406 32.292969.878906 7.285157 1.171875 14.445313.886719 21.898438zm-7.492188 73.824219h6.488281c4.144532 0 7.503907-3.355469 7.503907-7.5 0-4.144532-3.359375-7.5-7.503907-7.5h-6.488281c-4.144531 0-7.5 3.355468-7.5 7.5 0 4.144531 3.355469 7.5 7.5 7.5zm-76.273437 41.296874c3.125-2.722656 3.449218-7.460937.730468-10.582031-2.726562-3.125-7.464843-3.449219-10.585937-.730469-4.152344 3.621094-7.679687 7.796876-10.546875 12.359376-2.417969-2.515626-5.121094-4.742188-8.085938-6.648438l-21.730468-13.984375c-7.679688-4.945313-17.121094-6.316406-25.890625-3.769531-8.773438 2.546875-16.003907 8.761718-19.84375 17.054687-10.847657 23.433594-10.847657 50.316407 0 73.753907 3.839843 8.289062 11.070312 14.503906 19.84375 17.050781 2.890625.839843 5.855469 1.253906 8.804687 1.253906 6 0 11.9375-1.710937 17.085938-5.023437l21.730468-13.984376c2.964844-1.90625 5.667969-4.132812 8.085938-6.648437 2.867188 4.5625 6.394531 8.742187 10.546875 12.359375 1.421875 1.238281 3.179687 1.84375 4.925781 1.84375 2.09375 0 4.175782-.871094 5.660156-2.570312 2.71875-3.125 2.394532-7.863282-.730468-10.585938-8.851563-7.714844-13.929688-18.859375-13.929688-30.570312 0-11.71875 5.078125-22.863282 13.929688-30.578126zm-27.164063 44.410157c-.382812.652343-.78125 1.277343-1.199219 1.863281-2.234374 3.132812-5.011718 5.777344-8.246093 7.863281l-21.730469 13.984375c-4.03125 2.59375-8.980469 3.3125-13.585938 1.976563-4.601562-1.335938-8.398437-4.597657-10.414062-8.949219-8.992188-19.429688-8.992188-41.71875 0-61.148438 2.015625-4.351562 5.8125-7.613281 10.414062-8.949218 4.605469-1.339844 9.558594-.617188 13.585938 1.976562l21.730469 13.988282c3.238281 2.082031 6.011719 4.726562 8.246093 7.859374.417969.585938.816407 1.210938 1.199219 1.863282-1.152343 4.476562-1.769531 9.121094-1.769531 13.835937 0 4.714844.617188 9.359375 1.769531 13.835938zm124.863281-49.453125c-3.121093 2.722656-3.449218 7.460937-.726562 10.585937 1.484375 1.699219 3.566406 2.570313 5.660156 2.570313 1.746094 0 3.5-.605469 4.921875-1.84375 4.621094-4.027344 7.269531-9.847656 7.269531-15.964844 0-6.121094-2.648437-11.941406-7.269531-15.964844-3.121093-2.722656-7.859375-2.398437-10.582031.726563s-2.394531 7.863281.726562 10.582031c1.351563 1.175781 2.125 2.871094 2.125 4.652344 0 1.785156-.773437 3.480468-2.125 4.65625zm-21.425781 41.953125h6.488281c4.144532 0 7.503907-3.359375 7.503907-7.503907 0-4.144531-3.359375-7.5-7.503907-7.5h-6.488281c-4.144531 0-7.5 3.355469-7.5 7.5 0 4.144532 3.355469 7.503907 7.5 7.503907zm0 0"/></svg>