<svg id="FLAT" height="512" viewBox="0 0 512 512" width="512" xmlns="http://www.w3.org/2000/svg"><g id="Cabbage"><path d="m198.044 72.285c-43.913 74.184 159.7 171.577 210.312 90.77 18.167-29 1.045-52.005-19.176-78.4-30.644-40-68.585-58.348-85.838-59.131-22.915-1.04 0 33.2-51.818 11.46-28.789-12.084-48.172 26.335-53.48 35.301z" fill="#80b524"/><path d="m388.15 83.32c-3.74-4.8-7.59-9.29-11.5-13.46q-1.74.495-3.51 1.08c-13.214 4.376-21.607 12.584-31.42 20.674-14.885-17.035-41-30.82-85.17-29.754-11.87.29-19.89-12.57-28.34-24.24a46.715 46.715 0 0 0 -13.04 9.95c-44.388 61.873 78.5 161.67 128.29 113.17q6.525-4.98 13-10c4.068-3.154 28.45-66.82 31.69-67.42z" fill="#76a51c"/><path d="m343.456 160.742c-79.826 61.838-168.376 125.258-218.987 44.451-18.169-29.006-40.539-43.793-32.437-76.039 7.172-28.546 52.687-87.672 93.987-99.225 25.818-7.223 34.317 42.494 57.531 41.933 107.329-2.594 108.143 82.499 99.906 88.88z" fill="#9ed342"/><path d="m229.14 234.17c-40.87 16.13-78.03 13.56-104.67-28.98-18.17-29-40.54-43.79-32.44-76.04 3.98-15.84 19.77-41.09 40.1-62.41 0-.01 0-.01.02-.02 3.45 4.23 17.69 11.3 22.09 13.32 42.61 19.5-12.3 54.14 52 112.85 15.37 14.03 20.28 27.27 22.9 41.28z" fill="#8bc932"/><path d="m253.355 138.227a7.5 7.5 0 0 1 -6.451-3.664c-7.212-12.113-19.063-18.771-31.61-25.821-15.617-8.774-33.318-18.719-43.5-40.678a7.5 7.5 0 1 1 13.609-6.308c8.141 17.563 22.273 25.5 37.235 33.909 13.712 7.7 27.89 15.67 37.152 31.223a7.5 7.5 0 0 1 -6.438 11.339z" fill="#b4e055"/><path d="m343.46 160.74c-61.33 47.51-127.8 95.94-178.26 79.21-.38-16.01 5-66.88 3.22-69.81 9.66-18.95 19.97-33.42 35.88-42.33a68.639 68.639 0 0 1 10.4-4.73c30.22-10.88 72.74-7.52 92.26-12.7a79.992 79.992 0 0 0 21.47-9.1 73.266 73.266 0 0 1 17.355 36.908 53.867 53.867 0 0 1 .448 14.85c-.295 2.362-.71 6.101-2.773 7.702z" fill="#80b524"/><path d="m260.83 130.29c-5.16.45-10.38 1.02-15.53 1.77a54.923 54.923 0 0 0 -13.84-13.49c6.45-1.28 13.13-2.17 19.78-2.84a60.285 60.285 0 0 1 8.55 11.16 7.36 7.36 0 0 1 1.04 3.4z" fill="#9ed342"/><path d="m146.4 244.06c17.96 6.241 123.63 134.527 143.208 135.474 100.858 4.88 178.666-68.36 173.786-163.583-1.752-34.18-17.976-58.617-24.216-91.277-7.384-38.674-30.662-48.81-61.04-38.737-25.166 8.344-32.812 30.573-66.182 39.441-19.514 5.186-62.038 1.823-92.254 12.7-38.102 13.722-47.837 52.228-73.302 105.982z" fill="#8bc932"/><path d="m461.11 197.96c-1.77 30.6-7.02 64.83-13.96 96.08-27.52 53.98-86.87 88.91-157.54 85.49-10.56-.51-46.19-38.08-79.57-73.56 32.47-13.25 32.3-19.63 53.1-58.09 27.35-50.58 86.49-6.88 106.93-83.08 6.31-23.56 39.2-46.45 64.84-55.39a86.784 86.784 0 0 1 4.27 15.26c5.09 26.65 16.84 47.83 21.93 73.29z" fill="#80b524"/><path d="m353.8 141.77c-.89 3.35-2.76 8.48-4.93 14.42-3.44 9.42-10.6 29.02-9.7 34a74.811 74.811 0 0 0 4.15 13.69c2.04 5.39 4.11 10.88 4.89 17.86a63.065 63.065 0 0 1 -14.69 6.66c.13-7.66-1.86-12.95-4.23-19.22a89.031 89.031 0 0 1 -4.88-16.33c-1.51-8.33 3.35-22.58 10.37-41.81 1.96-5.36 3.8-10.42 4.51-13.11a7.5 7.5 0 0 1 14.51 3.84z" fill="#b4e055"/><path d="m288.64 241.67a47.92 47.92 0 0 0 -12.22 9.5c-28.29-22.39-25.48-39.4-22.97-54.59 1.67-10.14 3.12-18.9-4.5-30.7a7.5 7.5 0 0 1 12.61-8.13c10.75 16.66 8.5 30.31 6.69 41.27-2.25 13.63-4.06 24.62 20.39 42.65z" fill="#b4e055"/><path d="m348.21 221.74a63.065 63.065 0 0 1 -14.69 6.66 41.565 41.565 0 0 0 -2.92-15.7 59.325 59.325 0 0 0 13.56-6.58 63.049 63.049 0 0 1 4.05 15.62z" fill="#8bc932"/><path d="m288.63 241.67a48.505 48.505 0 0 0 -12.21 9.5 102.815 102.815 0 0 1 -9.9-8.85 49.973 49.973 0 0 1 10.12-10.99 90.4 90.4 0 0 0 11.99 10.34z" fill="#8bc932"/><path d="m185.17 475.41a230.321 230.321 0 0 0 70.83 11.09c127.3 0 230.5-103.2 230.5-230.5 0-45.694-22.7-75.3-15.147-123.809 4.96-31.836-85.362 6.885-96.285 47.613-20.436 76.2-79.581 32.5-106.927 83.08-21.437 39.651-20.6 45.192-56.2 59.334-43.672 17.352-63.771 37.952-26.771 153.192z" fill="#9ed342"/><path d="m317.314 474.148a7.5 7.5 0 0 1 -6.333-11.509c3.983-6.3 7.5-13.594 11.232-21.317 8.558-17.728 17.407-36.06 33.821-46.843 36.957-24.278 55.342-62.643 64.256-90.552a230.373 230.373 0 0 0 10.679-56.138c.659-54.86 3.706-64.82 11.064-88.866.758-2.477 1.564-5.109 2.419-7.967a7.5 7.5 0 1 1 14.369 4.3c-.864 2.889-1.678 5.55-2.444 8.054-7.116 23.256-9.779 31.959-10.411 84.737v.125c-.031 1.1-.889 27.248-11.247 59.884-13.819 43.541-38.179 77.76-70.446 98.958-12.947 8.5-20.878 24.936-28.549 40.827-3.747 7.762-7.621 15.788-12.061 22.812a7.5 7.5 0 0 1 -6.349 3.495z" fill="#f1e8dc"/><path d="m438.62 228.552a7.481 7.481 0 0 1 -5.745-2.674c-15.86-18.869-27.011-42.958-33.142-71.6a7.5 7.5 0 1 1 14.668-3.14c5.613 26.217 15.692 48.115 29.956 65.087a7.5 7.5 0 0 1 -5.737 12.325z" fill="#f1e8dc"/><path d="m486.5 256q0 7.53-.48 14.95c-14 22.13-33.08 37.02-57.02 44.45a7.5 7.5 0 1 1 -4.45-14.32c28.49-8.84 48.46-29.42 60.84-62.78a143.591 143.591 0 0 1 1.11 17.7z" fill="#f1e8dc"/><path d="m350.11 421.52c-5.49 7.88-9.98 17.19-14.39 26.32-1.14 2.35-2.29 4.73-3.46 7.1 2.9-14.12 3.5-26.38 2.32-37.13a84.021 84.021 0 0 1 12.75-16.3 88.48 88.48 0 0 1 2.78 20.01z" fill="#f1ddc8"/><path d="m374.572 392.468a7.5 7.5 0 0 1 -7.372-6.168c-7.154-39.488-32.752-71.61-76.082-95.473a7.5 7.5 0 0 1 7.236-13.14c47.478 26.149 75.607 61.791 83.606 105.938a7.51 7.51 0 0 1 -7.389 8.839z" fill="#f1e8dc"/><path d="m342.34 469.78a.938.938 0 0 1 -.15.06c-.15.06-.29.12-.44.18-.41.17-.82.33-1.23.49a231.537 231.537 0 0 1 -155.35 4.9c-37-115.24-16.9-135.84 26.77-153.19 19.68-7.82 28.22-13.01 35.55-22.78 1.99 3.31 4.25 6.71 6.82 10.2 27.69 37.69 123.61 46.45 88.03 160.14z" fill="#8bc932"/><path d="m247.49 299.44a46.714 46.714 0 0 1 -10.78 10.54c-5.61-8.17-16.94-9.58-30.34-7.91-27.11-28.81-52.06-55.26-59.97-58.01 10.17-21.48 17.84-40.53 25.81-56.53 2.67-3.15 3.94-5.35 3.17-6.16a.467.467 0 0 1 .05-.1c.64-1.19 1.27-2.35 1.91-3.5 2.13-3.8 4.31-7.39 6.61-10.75 5.06 8.05 12.21 16.67 22.29 25.87 15.37 14.03 20.28 27.27 22.9 41.28 3.55 19.03 2.85 39.48 18.35 65.27z" fill="#80b524"/><path d="m326.83 475.41a230.321 230.321 0 0 1 -70.83 11.09c-127.3 0-230.5-103.2-230.5-230.5 0-45.694 12.915-91.518 28.69-131.022 16.594-41.555 22.64-64.64 35.61-68.207 17.359-4.771 32.852 21.688 32.852 21.688 71.835 18.175-2.362 53.646 68.591 118.429 38.916 35.533 10.782 66 48.067 116.752 27.822 37.874 124.52 46.53 87.52 161.77z" fill="#b4e055"/><path d="m275.99 485.64q-9.885.855-19.99.86c-127.3 0-230.5-103.2-230.5-230.5 0-45.69 12.91-91.52 28.69-131.02 16.59-41.56 22.64-64.64 35.61-68.21 10.71-2.94 20.72 6.01 26.8 13.29-6.19 11.38-12.37 29.77-22.41 54.92-15.78 39.5-28.69 85.33-28.69 131.02 0 120.56 92.56 219.5 210.49 229.64z" fill="#9ed342"/><g fill="#f1e8dc"><path d="m241.38 486.04a1.087 1.087 0 0 1 -.18-.01 228.128 228.128 0 0 1 -25.69-3.08l-35.03-31.5a6.987 6.987 0 0 1 -1.06-1.18l-33.88-46.79-60.87-69.97a7.41 7.41 0 0 1 -1.76-3.8l-16.41-108.84a7.293 7.293 0 0 1 -.07-1.55l8.56-146.13a54.542 54.542 0 0 1 6.15-10.14c.15-.19.3-.38.46-.56.28-.34.57-.67.86-.98h.01a4.21 4.21 0 0 1 .71-.01 7.5 7.5 0 0 1 7.05 7.93l-8.78 149.98 15.97 105.9 59.66 68.58c.14.16.28.34.41.52l33.61 46.42z"/><path d="m73.916 227.254a7.5 7.5 0 0 1 -5.35-12.757q2.346-2.387 4.632-4.7c26.038-26.389 44.852-45.456 49.618-82.82a7.5 7.5 0 1 1 14.879 1.9c-5.408 42.392-26.772 64.044-53.82 91.457q-2.274 2.305-4.609 4.678a7.479 7.479 0 0 1 -5.35 2.242z"/><path d="m96.77 332.42a7.493 7.493 0 0 1 -10.27 2.62c-28.76-17.07-49.2-43.12-60.99-77.61-.01-.47-.01-.95-.01-1.43a265.147 265.147 0 0 1 1.81-30.46 7.492 7.492 0 0 1 6.57 5.89c8.94 41.76 29.22 72.28 60.27 90.71a7.5 7.5 0 0 1 2.62 10.28z"/><path d="m188.907 446.758a7.5 7.5 0 0 1 -5.173-12.932c29.567-28.147 36.471-63.867 21.106-109.2a7.5 7.5 0 0 1 14.207-4.814c17.191 50.724 8.79 92.74-24.969 124.879a7.477 7.477 0 0 1 -5.171 2.067z"/><path d="m153.04 406.13a168.814 168.814 0 0 1 -36.48 4.25 120.282 120.282 0 0 1 -36.41-5.35 231.923 231.923 0 0 1 -17.98-24.23 7.335 7.335 0 0 1 2.72.99c22.82 13.86 51.39 17.13 84.9 9.7a7.5 7.5 0 1 1 3.25 14.64z"/></g><path d="m90.23 69.43-4.6 78.531c-.132 2.243-1.427 4.365-2.148 6.453-.91 2.633-1.738 5.306-2.57 7.967a327.363 327.363 0 0 0 -11.885 50.793q-1.005 6.361-1.779 12.755c-.992-3.968-.754-8.126-.51-12.209q1.632-27.254 3.213-54.511l2.883-49.219q.968-16.507 1.934-33.016c.074-1.257.222-2.534.222-3.794a48.564 48.564 0 0 1 7.48-11.67 4.21 4.21 0 0 1 .71-.01 7.5 7.5 0 0 1 7.05 7.93z" fill="#f1ddc8"/><path d="m77.28 328.96c-.03-.01-.04 0-.02.02-15.79-10.89-28.84-25.7-38.48-42.23a155.891 155.891 0 0 1 -7.31-14.2c-1.1-2.44-2.14-4.92-3.13-7.41-.85-2.15-2.78-5.4-2.83-7.71-.01-.01-.01-.01 0-.02 0-.48.28-1.04-.01-1.41a265.147 265.147 0 0 1 1.81-30.46 7.492 7.492 0 0 1 6.57 5.89c6.42 29.97 18.67 54.14 36.55 72.22.01.03.01.05.02.08a230.838 230.838 0 0 0 6.83 25.23z" fill="#f1ddc8"/><path d="m124.63 410.15q-4.08.225-8.07.23a120.282 120.282 0 0 1 -36.41-5.35 230.423 230.423 0 0 1 -17.97-24.23 7.289 7.289 0 0 1 2.71.99c13.77 8.37 29.64 12.87 47.43 13.49h.01q1.455 1.92 2.96 3.82c.87 1.09 1.74 2.18 2.63 3.26.25.3.5.6.76.91q1.29 1.56 2.61 3.09c.05.06.1.12.15.17q1.455 1.7 2.95 3.35a2.911 2.911 0 0 0 .24.27z" fill="#f1ddc8"/><path d="m241.38 486.04a228.652 228.652 0 0 1 -25.85-3.08c-.01 0-.02 0-.02-.01l-23.65-21.27a228.4 228.4 0 0 0 39.96 15.76z" fill="#f1ddc8"/></g></svg>