<svg id="Layer_1" enable-background="new 0 0 512 512" height="512" viewBox="0 0 512 512" width="512" xmlns="http://www.w3.org/2000/svg"><g><g><path d="m431 362.3c-33.3-44.9-99.6-31.2-99.6-31.2s-32.4 59.4.9 104.3 119.7 58.3 119.7 58.3 12.3-86.5-21-131.4z" fill="#85c340"/></g><g><path d="m391.9 425.9c14.5 19.5 39 33.1 62.1 42.2-.6 15.3-2 25.6-2 25.6s-86.4-13.4-119.6-58.3-.9-104.3-.9-104.3 26.5-5.5 54.5 1.9c-7.6 19.3-18.5 60 5.9 92.9z" fill="#629126"/></g><g><path d="m452 500c-.3 0-.6 0-1-.1-3.6-.6-89.3-14.3-123.7-60.8-35.3-47.6-2.8-108.5-1.4-111.1.9-1.6 2.4-2.8 4.3-3.2 2.9-.6 70.6-14 105.9 33.6 34.4 46.4 22.7 132.4 22.1 136.1-.2 1.7-1.1 3.2-2.5 4.2-1 .8-2.3 1.3-3.7 1.3zm-116.3-163.3c-5.5 11.7-24.9 59 1.7 94.9 26.2 35.4 88.8 50.5 109.1 54.6 2-20.6 5.7-84.9-20.5-120.2-26.7-35.9-77.6-31.1-90.3-29.3z" fill="#3f0f33"/></g><g><path d="m177.1 76.1c37.6 41.4 11.2 103.7 11.2 103.7s-64.6 20.2-102.2-21.1-33.9-128.7-33.9-128.7 87.3 4.7 124.9 46.1z" fill="#85c340"/></g><g><path d="m107 102.1c-16.3-18-24.8-44.7-29.3-69.1-15.1-2.4-25.5-3-25.5-3s-3.7 87.3 33.9 128.7 102.2 21.2 102.2 21.2 10.5-25 8.8-53.8c-20.6 3.6-62.5 6.3-90.1-24z" fill="#629126"/></g><g><path d="m151.9 191.2c-22.3 0-49.8-5.6-70.4-28.3-38.9-42.8-35.7-129.5-35.6-133.2.1-1.7.8-3.3 2.1-4.4 1.2-1.1 2.8-1.7 4.6-1.6 3.7.2 90.3 5.4 129.2 48.2 39.8 43.9 13.5 107.7 12.4 110.4-.7 1.7-2.2 3-3.9 3.6-1.5.4-17.6 5.3-38.4 5.3zm-93.4-154.4c.1 20.7 2.8 85 32.3 117.6 30.1 33.2 80.3 23.3 92.7 20.2 4.3-12.1 18.9-61.1-11.1-94.3-29.6-32.5-93.3-41.4-113.9-43.5z" fill="#3f0f33"/></g><g><path d="m411 304.4c4.3-14.8 36.9-41.8 36.9-41.8-10.8-15.8-29.2-24.7-45.8-29.7.5-3.3 1-6.5 1.3-9.8 2.5-6.3 6.5-18 8-31.5 2.2-20-8.8-63.3-16.8-72.4s-24.3-9-69-10.8c-13.4-.6-23.8 1.2-32 3.9l.1-.1s-28.9-45.9-65.3-50.7c-32-4.2-52.6 49.8-67 75.7-38.9-18.9-97.4 47.2-97.4 47.2-6.2 12.7 14.2 70.8 34.9 100.8s-15.6 8.2-22.3 27.2c-6.8 19 2.3 64 20.8 90.1s42.3 17.6 78.5 23.4c7.5 1.2 14.1-1.9 19.9-7.5l1.5.1s27.6 27.5 63.2 27.9 91.7 19.9 96.4-28.4c1.6-16.1 0-30.9-2.7-43.6l3 1.1c51-3 49.5-56.3 53.8-71.1z" fill="#fff"/></g><g><path d="m348.4 354.2s10.3 2.7 19.7-15.3 23.3-58.9 36.1-63-32.2-5.1-32.2-5.1-17.9 45.2-22.6 50.3-19.3 13.5-19.3 13.5 13.3 3.2 18.3 19.6z" fill="#ddcccf"/></g><g><path d="m312 351.8s14.1 60 2.3 74.4-26.9 1.5-61.2-4.6-44.3-16.5-44.3-16.5l18.2-62.4 12.5 3.2s.1 17.9 16.5 24.6 56-18.7 56-18.7z" fill="#ddcccf"/></g><g><path d="m163.2 233.2s-12.5 11.3-5.2 35.1 21.8 49.2 32.7 48.5 12.6-13.7 12.6-13.7z" fill="#ddcccf"/></g><g><path d="m111.3 299.5s-20.3 19.1-16.9 29.2 23.3 63 32.2 65.5c8.8 2.5 42 15.8 54.9 9.2s29.6-63.6 29.6-63.6l-32.8-21.3c.1 0-57-1.2-67-19z" fill="#ddcccf"/></g><g><path d="m151.2 155.1s-53.8 21.8-59.9 38.3 35.6 89.6 44.5 87.7c0 0-5.6-35.2 5.9-49.3s18.3-20.8 17.7-27.4c-.6-6.5-12.4-36.6-8.2-49.3z" fill="#ddcccf"/></g><g><path d="m279 116.8s-32-37.9-55.3-33.7-42 61.3-49.4 65.8c-7.3 4.5-4.9 22.5-4.9 22.5s4.9-4.8 18-8.3 28.6-2.7 30.8-10.3 11.6-22.9 22.4-25.2 22.3 1.7 22.3 1.7z" fill="#ddcccf"/></g><g><path d="m214.3 211.3s24-10.2 32.6-21.1 40.1-21.3 53.1-22c13.1-.7 57.3 33.1 45.3 61.6s2.9 59.7-17 80.3c-19.9 20.7-63.5 47.9-79 26.5l-41-28.6s-28.4-43.6-32.6-50.4c-4.3-6.8-10.6-68 7.9-77.2 18.6-9 9.6 32.3 30.7 30.9z" fill="#ddcccf"/></g><g><path d="m292.1 164.7s-26.9-25.7-43-17.4-24.6 46.5-33.5 54.3c-8.9 7.7-6.1 9.1-6.1 9.1s18.9-.9 21.8-5.7 29.9-29.4 29.9-29.4l38.4-4.9z" fill="#ddcccf"/></g><g><path d="m284.2 140.4s9.7-8.1 44.5-7.7 50.3 11.6 58.8 30.2-.1 66.3-.1 66.3-18.7 6.3-21.2-16.6-3.8-44.2-34.6-44.3-47.4-27.9-47.4-27.9z" fill="#ddcccf"/></g><g><g><path d="m234 301.7c-6.3 0-11.8-1.9-15.2-3.9-12.8-4.9-13.4-18.4-14.1-35.4l-.2-5.1c-.5-9.9-6.5-20.1-11.5-27-5.5-7.6-5.7-18-.5-26 9.1-13.8 11.4-24.8 13.7-35.3 2.9-13.4 5.6-26.1 20.7-40.5 6.1-5.8 13.8-8.7 22.6-8.4 31.3.9 69.6 41.3 71.2 43.1 2.4 2.5 2.2 6.5-.3 8.9s-6.5 2.3-8.9-.3c-10-10.7-40.7-38.5-62.4-39.1-5.6-.2-9.9 1.5-13.6 4.9-12.3 11.8-14.4 21.6-17.1 34.1-2.4 11.2-5.1 23.8-15.5 39.6-2.4 3.7-2.4 8.2.1 11.6 6 8.2 13.3 20.8 13.9 33.8l.2 5.2c.7 16.6 1.4 22.6 6.3 24.3.5.2.9.4 1.3.6 1.1.7 11.4 6.5 22-2.9 2.6-2.3 6.6-2.1 8.9.5s2.1 6.6-.5 8.9c-6.9 6.3-14.5 8.4-21.1 8.4z" fill="#3f0f33"/></g><g><path d="m224.5 318.3c-3.1 0-6.2-.5-9.1-1.5-18.6-6.7-22.3-13.9-26.7-25.3-2.5-6.3-5.3-13.5-13.1-23.5-22.1-28.3-33.5-70-12.4-95 20.6-24.4 51.5-20.4 52.8-20.2 3.4.5 5.8 3.7 5.4 7.1-.5 3.4-3.7 5.8-7.1 5.4-1.1-.1-25.5-3.1-41.4 15.8-16.6 19.7-5.9 55.5 12.6 79.1 8.9 11.4 12.4 20.2 14.9 26.6 3.6 9.2 5.1 13 19.3 18.1 10.7 3.8 29.5-6.9 42.9-24.5 10.9-14.3 18.9-34.9 8.4-49.8-2-2.8-1.3-6.8 1.5-8.8s6.8-1.3 8.8 1.5c12 17.1 8.7 41.9-8.7 64.7-12.1 15.8-31 30.3-48.1 30.3z" fill="#3f0f33"/></g><g><path d="m263.8 375.1c-3.3 0-6.4-.4-9-1.2-21.3-6.5-25.1-24.1-24.2-32.5.4-3.5 3.6-6 7-5.5 3.5.4 5.9 3.5 5.5 7-.1 1.4-.8 14.1 15.3 19.1 18.1 5.6 74-21.5 95-56.8 14.1-23.8 11.3-36.5 8.5-48.7-1.2-5.4-2.5-11-2.2-17.2l.1-2.7c.7-17.2 1.8-40.8-10.6-53.2-11.2-11.2-27.8-10-53-8.3-3.7.3-7.5.5-11.5.8-21.9 1.3-31.8 13.6-40.6 24.4-2.8 3.5-5.5 6.7-8.4 9.5-14.1 13.5-39.6 6-40.7 5.7-3.3-1-5.2-4.5-4.2-7.8s4.5-5.2 7.8-4.2c5.4 1.6 21.1 4.2 28.3-2.7 2.3-2.2 4.7-5.2 7.3-8.3 9.4-11.6 22.2-27.4 49.7-29 3.9-.2 7.7-.5 11.4-.7 26.6-1.8 47.6-3.3 62.8 11.9 16.3 16.3 15.1 43.1 14.3 62.7l-.1 2.7c-.2 4.5.8 8.9 1.9 13.9 3 13.3 6.8 29.8-9.9 58-20.9 34.6-71.9 63.1-100.5 63.1z" fill="#3f0f33"/></g><g><path d="m224.6 345.1c-21.4 0-38.5-8.4-46.5-23.3-1.6-3.1-.5-6.9 2.6-8.5s6.9-.5 8.5 2.6c9.6 17.9 34.8 17 42.3 16.3 17.9-1.7 32-9.3 34-15.4 4.6-14.4-2.2-19.4-2.5-19.6-2.8-2-3.5-5.9-1.6-8.7s5.7-3.7 8.5-1.8c.6.4 15.2 10 7.6 34-4.5 14.1-26.4 22.4-44.8 24.1-2.8.2-5.5.3-8.1.3z" fill="#3f0f33"/></g><g><path d="m181.9 324.9c-8.4 0-17.2-1.5-25-5.7-13.7-7.4-24.1-28.1-25.8-51.5-1.8-25.4 6.8-47.1 23.8-59.6 2.8-2.1 6.7-1.5 8.8 1.3s1.5 6.7-1.3 8.8c-19 14-19.4 38.6-18.7 48.5 1.3 18.7 9.4 36.1 19.2 41.3 20.5 11 51.8-2.9 52.1-3 3.2-1.4 6.9 0 8.3 3.2s0 6.9-3.2 8.3c-1.1.6-18.8 8.4-38.2 8.4z" fill="#3f0f33"/></g><g><path d="m274.2 313c-1.8 0-3.5-.7-4.7-2.2-2.3-2.6-2-6.6.6-8.9.4-.3 36.2-32.1 23.8-55.1-4.3-8-9.3-12.8-14.9-14.5-6.3-1.8-11.4 1-11.6 1.1-3 1.7-6.9.6-8.6-2.4s-.7-6.8 2.2-8.5c1-.6 9.9-5.5 21.2-2.4 9.1 2.6 16.7 9.5 22.7 20.7 17.1 31.8-24.9 69-26.7 70.5-1 1.1-2.5 1.7-4 1.7z" fill="#3f0f33"/></g><g><path d="m209.7 256.2c-2.4 0-4.7-1.4-5.8-3.8-1.4-3.2.1-6.9 3.2-8.3l10-4.4c3.2-1.4 6.9.1 8.3 3.2 1.4 3.2-.1 6.9-3.2 8.3l-10 4.4c-.8.4-1.7.6-2.5.6z" fill="#3f0f33"/></g><g><path d="" style="fill:none;stroke:#3f0f33;stroke-width:2.5;stroke-linecap:round;stroke-linejoin:round;stroke-miterlimit:10"/></g><g><path d="" style="fill:none;stroke:#3f0f33;stroke-width:2.5;stroke-linecap:round;stroke-linejoin:round;stroke-miterlimit:10"/></g><g><path d="m251.1 294.9c-.2 0-.4 0-.7 0-3.5-.4-6-3.5-5.6-6.9 1.4-13-4.8-17.6-13.2-23.9-7.3-5.5-15.6-11.7-18.9-23.9-2.7-9.9.6-15.6 3.8-18.6 12.2-11.5 43.6-1.6 49.8.5 2.3.8 3.9 2.8 4.2 5.2s-.8 4.8-2.8 6.1c-12.4 8-21.6 18-25.3 23.1 8.3 6.5 16.9 15.1 15 32.9-.4 3.1-3.1 5.5-6.3 5.5zm-17-66.3c-4.2 0-7.4.6-9 2.1-1.3 1.2-.9 4-.3 6.1 1.4 5.1 4.1 8.7 7.6 11.8 4.1-5.7 10.8-12.4 17.7-18-5.7-1.3-11.4-2-16-2z" fill="#3f0f33"/></g><g><path d="m302.5 259.4c-.1 0-.1 0-.2 0-3.5-.1-6.2-3-6.1-6.4 0-1.5.2-35.2-32.9-44.8-3.3-1-5.3-4.5-4.3-7.8s4.5-5.3 7.8-4.3c34.1 9.8 42.4 41.7 42 57.2-.1 3.4-2.9 6.1-6.3 6.1z" fill="#3f0f33"/></g><g><path d="m152.6 320.5c-10.1 0-27.9-2.3-45.2-16-25.1-19.9-58.6-103.7-49.1-122.9.2-.5.6-1 .9-1.4 2.5-2.8 62.2-69.4 104.9-48.6 3.1 1.5 4.4 5.3 2.9 8.4s-5.3 4.4-8.4 2.9c-27.9-13.6-73.2 27.1-89.2 44.9-4.2 13.1 23.5 89.1 45.9 106.8 21.2 16.8 43.2 12.9 43.4 12.9 3.5-.7 6.7 1.6 7.4 5 .6 3.4-1.6 6.7-5 7.4-.5 0-3.6.6-8.5.6z" fill="#3f0f33"/></g><g><path d="m401.4 234.2c-.9 0-1.8-.2-2.7-.6-3.1-1.5-4.5-5.2-3-8.4.1-.2 7.3-15.6 9.4-34.3 2.2-19.1-8.9-60.3-15.2-67.5-5.6-6.3-20.8-6.9-54.1-8.3l-10.4-.4c-39.6-1.6-50.6 17.4-51.1 18.2-1.7 3-5.5 4.2-8.5 2.5-3-1.6-4.2-5.4-2.6-8.4.6-1.1 14.5-26.9 62.7-24.9l10.4.4c39.3 1.6 54 2.2 63.1 12.5 9.8 11.2 20.6 56.7 18.3 77.3-2.3 20.8-10.2 37.6-10.6 38.3-1.1 2.3-3.4 3.6-5.7 3.6z" fill="#3f0f33"/></g><g><path d="m159.8 199.3c-2 0-4-1-5.3-2.8-.9-1.3-20.9-32.2-3.7-54.2 3.5-4.5 7.7-12.9 12.6-22.5 14.6-28.9 34.7-68.5 65.8-64.5 38.9 5.1 68.6 51.6 69.8 53.5 1.9 2.9 1 6.8-2 8.7-2.9 1.9-6.8 1-8.7-2-.3-.4-27.8-43.4-60.8-47.8-22.3-2.9-40 32.1-53 57.6-5.2 10.3-9.7 19.1-13.9 24.6-11.6 14.8 4.2 39.3 4.3 39.5 1.9 2.9 1.1 6.8-1.8 8.7-.9.9-2.1 1.2-3.3 1.2z" fill="#3f0f33"/></g><g><path d="m357.2 381.9c-3.3 0-6.1-2.6-6.3-5.9-.2-3.5 2.4-6.5 5.9-6.7 34.7-2.1 41.8-28.8 46.1-55.9.7-4.3 1.3-8 2.1-10.8 3.8-13.1 24.6-32.5 34.3-40.9-23-26.6-72.5-28.9-73-28.9-3.5-.1-6.2-3.1-6-6.5.1-3.5 3.2-6.1 6.5-6 2.5.1 61.8 2.8 86.4 38.9 1.8 2.7 1.3 6.3-1.2 8.4-12 10-32.1 29.2-34.9 38.7-.6 2.1-1.1 5.4-1.7 9.2-3.3 20.7-10 63.7-57.8 66.5-.2-.1-.3-.1-.4-.1z" fill="#3f0f33"/></g><g><path d="m314.6 456.9c-9.7 0-19.9-1.1-30-2.3-8.7-1-17-1.9-24.3-2-37.8-.4-66.4-28.6-67.6-29.8-2.5-2.5-2.5-6.4 0-8.9s6.4-2.5 8.9 0c.3.3 26.3 25.7 58.8 26.1 7.9.1 16.5 1.1 25.5 2.1 21.4 2.4 43.6 4.9 55.4-4.6 5.2-4.2 8.2-10.8 9.1-20.1 4.5-45.5-17.3-81.2-17.5-81.6-1.8-3-.9-6.8 2-8.7 2.9-1.8 6.8-.9 8.7 2 1 1.6 24.3 39.6 19.4 89.5-1.2 12.6-5.9 22.3-13.7 28.7-9.1 7.4-21.4 9.6-34.7 9.6z" fill="#3f0f33"/></g><g><path d="m179.1 432.4c-1.4 0-2.8-.1-4.3-.3-9.8-1.6-18.5-2-27-2.5-21.8-1.2-40.5-2.2-55.6-23.4-18.7-26.4-29.5-73.9-21.6-95.8 7.5-21.1 24.6-30.3 25.3-30.7 3.1-1.6 6.9-.4 8.5 2.6 1.6 3.1.4 6.9-2.6 8.5-.1.1-13.5 7.4-19.3 23.7-5.9 16.5 2.4 59.5 20 84.3 11.6 16.3 25.3 17 46 18.2 8.4.5 17.8 1 28.3 2.6 24.3 3.9 40.9-59.4 44.7-82 .6-3.4 3.9-5.7 7.3-5.1s5.7 3.8 5.2 7.3c-1.7 9.8-16.9 92.6-54.9 92.6z" fill="#3f0f33"/></g></g></g></svg>