<svg height="512" viewBox="0 0 512 512" width="512" xmlns="http://www.w3.org/2000/svg"><g><path d="m322.429 117.517c-16.274-20.859-44.066-20.608-58.874-12.638-10.079 5.421-237.892 145.731-237.892 145.731l2.163 2.19a39.274 39.274 0 0 1 21.533-6.524c23.941 0 46.1 21.758 54.442 35.473a91.8 91.8 0 0 1 7.323 14.95c9.06 23.927 1.774 34.053-2.68 37.718l2.119 2.145s196.78-136.039 214.706-150.412c16.247-13.026 17.009-43.19-2.84-68.633z" fill="#b98241"/><path d="m113.929 295.637-22.806 15.43a22.124 22.124 0 0 0 -4.914 16.727c1.012 9.74 14.541 15.844 23.153 9.7 11.661-8.322 10.719-25.611 4.567-41.857z" fill="#7d4605"/><path d="m106.364 280.189c-12.937-21.265-50.741-53.163-84.036-27.167-33.526 26.176-1.986 90.083 30.87 81.6l10.567-5.094 50.164-33.89a94.262 94.262 0 0 0 -7.565-15.449z" fill="#7d4605"/><path d="m65.8 282.448c-10.543-18.577-33-16.2-30.476 2.527 1.972 14.616 10.486 22.7 10.486 22.7l24.46-15.138a56.688 56.688 0 0 0 -4.47-10.089z" fill="#642d0f"/><path d="m74.759 250.309c-12.144 7.465-23.727 14.589-34.144 21 6.84-4.046 18.447-.733 25.187 11.142 8.41 14.82 11.267 36.52-2.155 47.158l.118-.079 50.164-33.89a94.262 94.262 0 0 0 -7.565-15.448 88.732 88.732 0 0 0 -31.605-29.883z" fill="#915a19"/></g><g><g><path d="m417.832 157.081-235.832 163.833c-16.594 12.232-17.826 40.927-.731 67.015 15.22 23.225 52.421 30.124 70.2 19 2.857-1.787 9.284-6.684 11.543-8.39l216.94-166.854 4.392-41.83z" fill="#7d4605"/><path d="m222.217 324.772-26.438 20.1s-6.335 5.986.391 15.019c8.166 10.966 27.642 5.177 32.034-9.757 2.145-7.295.154-17.734-5.987-25.362z" fill="#915a19"/><path d="m254.341 361.577c-7.256 5.5-9.389 16.367-9.389 16.367l22.771-17.366c-3.662-3.088-8.588-2.636-13.382.999z" fill="#915a19"/><g><path d="m254.341 361.577a18.356 18.356 0 0 0 -2.148 1.926l4.354-3.367a18.242 18.242 0 0 0 -2.206 1.441z" fill="none"/><path d="m252.193 363.504v-.001z" fill="#b98241"/></g></g><g fill="#b98241"><path d="m452.4 160.53c-8.7-14.567-24.85-16.973-42.588-5-5.32 3.593-227.812 165.386-227.812 165.386l.011.011a30.647 30.647 0 0 1 12.456-5.365c26.656-5.2 37.867 20.521 33.736 34.572a21.4 21.4 0 0 1 -6.92 10.445l215.24-163.94 8.293-6.461s18.446-11.471 7.584-29.648z"/><path d="m499.933 194.22c-9.309-10.414-18.881-6.374-28.227.095-.814.563-186.4 143.574-215.159 165.821 7.451-4.115 14.707-.439 16.542 12.374 1.531 10.684-1.351 18.368-10.246 26.183 28.276-21.446 233.157-178.344 233.157-178.344 7.893-7.212 11.517-17.649 3.933-26.129z"/></g></g><g><path d="m486.525 252.286-.525-1.726-356.808-67.567s.93-9.708-.307-15.91c-.826-4.146-2.883-5.14-2.883-5.14l-32.045-6.206s12.16 4.343 6.4 35.95c-4.843 26.529-30.457 28.994-30.457 28.994s362.281 77.483 385.2 81.271c17.8 2.941 46-15.984 31.425-49.666z" fill="#a56e2d"/><path d="m504 255.574c0-31.541-13.176-46.024-29.528-49.5-20.712-4.405-370.954-70.361-370.954-70.361l-.551-.085c7.068 2.188 17.84 11.184 22.216 23.639 4.186 11.913 1.178 25.246 1.178 25.246z" fill="#cd9655"/><path d="m95.109 156.118 30.891 5.825c-.236-.9-.507-1.791-.819-2.678-4.376-12.455-15.148-21.451-22.216-23.639 0 0-30.128-9.686-46.958 21.114-15.6 28.545-9.088 62.791 17 64.294 15.794.91 26.73-13.216 31.137-33.493q.171-.792.32-1.575c2.729-14.402-.564-26.45-9.355-29.848z" fill="#915a19"/><path d="m88.155 155.225c-15.607 1.286-17.84 22.385-17.84 22.385l33.843 8.2.307.16c3.357-17.73-2.413-31.889-16.31-30.745z" fill="#7d4605"/></g><g><path d="m221.14 139.921c35.289-21.579 44.606-27.136 46.207-28 11.523-6.2 34.994-7.15 48.774 10.515 7.094 9.093 11.545 19.177 12.872 29.163a8 8 0 0 0 7.92 6.947 8.158 8.158 0 0 0 1.064-.07 8 8 0 0 0 6.877-8.984c-1.7-12.805-7.275-25.563-16.118-36.9-19.662-25.2-52.168-23.8-68.972-14.762-.964.519-3.9 2.1-46.971 28.437a8 8 0 1 0 8.347 13.65z"/><path d="m502.022 215.858a40.774 40.774 0 0 0 -25.885-17.611c-20.185-4.293-345.72-65.611-371.408-70.449-12.9-3.83-40.2-3.334-55.741 25.106-10.976 20.086-12.43 43.224-3.706 58.947a32.252 32.252 0 0 0 23.1 16.687c16.757 3.583 362.639 77.544 385.414 81.306a31.03 31.03 0 0 0 5.056.4c14.622 0 31.837-9.579 37.726-27.452a8 8 0 1 0 -15.2-5.006c-4.1 12.454-17.373 17.519-24.976 16.269-18.861-3.117-274.477-57.631-358.383-75.55 6.394-6.819 11.219-16.754 13.939-29.27a52.726 52.726 0 0 0 .632-21.2l6.627 1.461a48.89 48.89 0 0 1 -.663 13.252 8 8 0 0 0 6.324 9.622l377.639 71.064a8.133 8.133 0 0 0 1.479.137 8 8 0 0 0 8-8c.004-16.43-3.353-29.792-9.974-39.713zm-406.343-67.933h-.023a24.31 24.31 0 0 0 -8.157-.669c-9.29.766-16.882 6.552-21.38 16.295a45.95 45.95 0 0 0 -3.76 13.221 8 8 0 0 0 6.073 8.618l26.312 6.371c-2.813 8.86-9.042 21.993-21.276 21.29a16.466 16.466 0 0 1 -14.2-8.959c-6.033-10.873-4.523-28.359 3.756-43.511 5.6-10.255 13.468-16.291 23.372-17.94a35.34 35.34 0 0 1 12.96.322 14.517 14.517 0 0 1 1.487.39c2.906.987 7 3.887 10.57 8.045zm1.715 28.012-17.4-4.214c1.494-3.913 4.173-8.142 8.819-8.524 3.19-.264 4.622.87 5.513 1.887 1.574 1.801 2.966 5.464 3.068 10.851zm37.855 2.106a55.088 55.088 0 0 0 -2.518-21.43 47.168 47.168 0 0 0 -3.665-7.947c84.121 15.854 326.826 61.634 343.742 65.234 15.567 3.312 21.146 17.679 22.692 31.938z"/><path d="m210.308 267.382a8 8 0 0 0 -11.133-2.014l-72.816 50.5c-.045-1.566-.137-3.179-.337-4.894-1.288-11.059-5.842-23.469-12.824-34.947-9.875-16.227-31.068-35.627-54.264-39.868-.558-.1-1.114-.177-1.671-.261a7.988 7.988 0 0 0 -12.184-6.635s-24.119 14.874-24.356 15.059c-1.119.757-2.23 1.544-3.319 2.394-21.533 16.812-20.704 45.584-10.329 66.64 10.834 21.988 30.174 33.644 48.125 29.011a35.953 35.953 0 0 0 13.183-6.3l9.971-6.728c1 6.983 5.927 13.238 13.029 16.441a24.3 24.3 0 0 0 9.977 2.17 21.719 21.719 0 0 0 12.649-3.941c.457-.326 94.285-65.49 94.285-65.49a8 8 0 0 0 2.014-11.137zm-129.428 40.946a58.215 58.215 0 0 0 -2.78-17.442 7.927 7.927 0 0 0 -.541-1.648 64 64 0 0 0 -4.8-10.738c-6.327-11.149-19.543-20.142-32.557-15.752-9.267 3.123-14.293 12.269-12.8 23.3a48.9 48.9 0 0 0 12.9 27.434 8 8 0 0 0 9.721 1l14.8-9.16a25.98 25.98 0 0 1 -1.59 11.978c-2.07 4.884-6.007 8.014-12.035 9.571-11.964 3.092-23.817-8.508-29.77-20.591-7.512-15.245-8.624-35.677 5.823-46.957 8.741-6.823 18.433-9.323 28.808-7.423 17.527 3.2 35.135 18.748 43.47 32.449q2.606 4.284 4.534 8.337zm-20.53-19.058-12.558 7.775a35.142 35.142 0 0 1 -4.538-13.139c-.313-2.314-.209-5.232 2.059-6a5.3 5.3 0 0 1 1.687-.249c3.293 0 8.246 2.4 11.845 8.739q.803 1.418 1.505 2.874zm44.365 41.71c-2.063 1.473-4.841 1.075-6.755.211-2.138-.964-3.627-2.623-3.794-4.224a14.667 14.667 0 0 1 2.432-9.943l12.869-8.684c2.214 11.048.045 19.217-4.752 22.64z"/><path d="m371.89 305.84-90.538 68.75c-.077-1.048-.186-2.115-.344-3.214-1.059-7.393-3.61-12.116-6.333-15.138l62.754-48.506a8 8 0 0 0 -9.785-12.66l-78.136 60.128c-9.414 7.136-12.128 19.781-12.406 21.2a8 8 0 0 0 15.692 3.12c.459-2.221 2.5-8.629 6.38-11.57 1.767-1.34 2.946-1.5 3.176-1.4.4.167 2.07 1.858 2.82 7.1 1.362 9.5-.976 15.89-17.941 26.5-6.837 4.276-18.312 5.191-29.944 2.385-12.742-3.073-23.43-9.994-29.325-18.989-10.574-16.137-13.821-34.04-8.473-46.724a21.735 21.735 0 0 1 16.513-13.409c8.015-1.56 14.472.267 19.182 5.437 5.177 5.684 6.784 14.138 5.346 19.027a13.873 13.873 0 0 1 -10.635 9.525c-1.847.331-5.25.472-7.306-2.29-1.031-1.384-2.046-3.269-1.176-4.531.144-.111-.008-.007.249-.285l2.446-2.652a8 8 0 0 0 -11.762-10.844l-2.309 2.5c-3.942 3.941-8.783 13.951-.281 25.369 5.181 6.957 13.763 10.129 22.957 8.483a29.527 29.527 0 0 0 13.47-6.246l85.368-65.022a8 8 0 1 0 -9.695-12.729l-65.2 49.662a39.7 39.7 0 0 0 -9.642-20.741 33.586 33.586 0 0 0 -14.55-9.455l27.814-20.267a8 8 0 0 0 -9.421-12.931s-53.694 39.134-53.76 39.186a38.167 38.167 0 0 0 -12.35 16c-7.39 17.529-3.623 41.174 9.834 61.709 8.1 12.364 22.3 21.757 38.956 25.774a71.688 71.688 0 0 0 16.734 2.04c9.748 0 18.686-2.186 25.446-6.414a95.976 95.976 0 0 0 12.318-8.92l113.533-86.211a8 8 0 1 0 -9.675-12.742z"/><path d="m401.522 171.146c6.255-4.465 10.55-7.488 12.769-8.985 7.647-5.162 14.777-7.2 20.626-5.9 4.3.958 7.87 3.775 10.618 8.373 2.014 3.371 2.69 6.413 2.066 9.3a8 8 0 0 0 4.281 8.864l26.651 13.145a7.994 7.994 0 0 0 6.159.383c3.167-.994 5.721-.752 9.276 3.224a8.8 8.8 0 0 1 1.721 2.724 8 8 0 0 0 14.969-5.651 24.732 24.732 0 0 0 -4.761-7.736c-6.523-7.3-14.395-10.23-22.935-8.6l-19.143-9.442a30.132 30.132 0 0 0 -4.549-14.42c-5.02-8.4-12.238-13.859-20.874-15.783-10.242-2.282-21.675.572-33.057 8.255-2.366 1.6-6.655 4.614-13.113 9.224a8 8 0 0 0 9.3 13.023z"/></g></svg>