<svg height="448pt" viewBox="0 -9 448.98462 448" width="448pt" xmlns="http://www.w3.org/2000/svg"><path d="m273.457031 148.191406s-69.835937-2.109375-130.175781-42.894531-88.328125-104.804687-88.328125-104.804687 69.835937 2.109374 130.175781 42.894531c60.339844 40.785156 88.328125 104.804687 88.328125 104.804687zm0 0" fill="#66702c"/><path d="m230.113281 182.226562s-51.691406 32.308594-115.238281 31.953126c-63.550781-.359376-114.875-33.25-114.875-33.25s51.691406-32.308594 115.242188-31.953126c63.546874.359376 114.871093 33.25 114.871093 33.25zm0 0" fill="#66702c"/><path d="m448.984375 83.09375-3.039063-13.976562-1.992187.433593c-65.386719 14.210938-123.34375 38.148438-172.269531 71.148438-46.660156 31.476562-84.269532 70.5625-111.78125 116.171875l-1.054688 1.75 12.246094 7.386718 1.054688-1.75c20.21875-33.394531 45.863281-63.183593 75.875-88.144531l9.59375 28.347657 13.550781-4.582032-11.265625-33.285156c50.996094-39.222656 113.933594-67.167969 187.085937-83.0625zm0 0" fill="#c1781f"/><path d="m372.273438 268.03125c-18.257813-52.0625-66.847657-82.417969-108.535157-67.800781-41.6875 14.617187-60.679687 68.671875-42.421875 120.734375 18.253906 52.0625 66.847656 82.417968 108.535156 67.800781 41.683594-14.617187 60.679688-68.671875 42.421876-120.734375zm0 0" fill="#333"/><path d="m320.460938 254.078125c-6.109376-13.027344-19.332032-19.710937-29.535157-14.925781-10.207031 4.785156-13.523437 19.226562-7.414062 32.253906 6.105469 13.027344 19.332031 19.710938 29.535156 14.925781 10.203125-4.785156 13.523437-19.222656 7.414063-32.253906zm0 0" fill="#66702c"/><path d="m166.023438 260.570312c-36.140626-17.738281-83.398438 4.46875-105.550782 49.605469-22.15625 45.136719-10.820312 96.105469 25.320313 113.84375 36.136719 17.742188 83.394531-4.46875 105.550781-49.601562 22.15625-45.136719 10.820312-96.109375-25.320312-113.847657zm0 0" fill="#333"/><path d="m161.109375 314.949219c-9.644531-3.957031-21.375 2.382812-26.203125 14.15625-4.824219 11.773437-.917969 24.523437 8.726562 28.476562 9.644532 3.953125 21.375-2.386719 26.203126-14.15625 4.824218-11.773437.917968-24.523437-8.726563-28.476562zm0 0" fill="#66702c"/></svg>