<?xml version="1.0" encoding="UTF-8"?>
<svg xmlns="http://www.w3.org/2000/svg" xmlns:xlink="http://www.w3.org/1999/xlink" version="1.1" id="Layer_1" x="0px" y="0px" viewBox="0 0 512 512" style="enable-background:new 0 0 512 512;" xml:space="preserve" width="512" height="512">
<g>
	<path style="fill:#8FBFAF;" d="M464.88,399.29l-208.88,30l-178.93-25.7l-29.95-4.3c0,0-13.02-140.08,109.16-139.54&#10;&#9;&#9;c13.89,0.07,27.2-5.14,37.45-14.52c9.97-9.13,28.47-18.63,62.27-18.63c31.29,0,49.46,8.14,59.9,16.59&#10;&#9;&#9;c0.84,0.68,1.63,1.36,2.37,2.04c10.25,9.38,23.56,14.59,37.45,14.52C477.9,259.21,464.88,399.29,464.88,399.29z"/>
	<path style="fill:#6BA692;" d="M315.9,243.19c-4.51-0.38-9.33-0.59-14.48-0.59c-36.29,0-56.15,10.2-66.86,20&#10;&#9;&#9;c-11,10.07-25.29,15.66-40.21,15.6c-97.67-0.44-114.87,82.82-117.28,125.39l-29.95-4.3c0,0-13.02-140.08,109.16-139.54&#10;&#9;&#9;c13.89,0.07,27.2-5.14,37.45-14.52c9.97-9.13,28.47-18.63,62.27-18.63C287.29,226.6,305.46,234.74,315.9,243.19z"/>
	<g>
		<path style="fill:#BF8F8F;" d="M501.267,423.305c-9.88,11.88-39.71,26.24-117.88,37.62c2.6,2.2,5.39,4.72,8.22,7.53&#10;&#9;&#9;&#9;c10.06,9.99,4.14,27.2-9.95,28.93c-26.36,3.23-69.69,7.11-125.66,7.11c-48.35,0-87.27-2.9-113.96-5.77&#10;&#9;&#9;&#9;c-4.21-0.45-8.11-0.9-11.7-1.34c-14.09-1.73-20.01-18.94-9.95-28.93c2.83-2.81,5.62-5.33,8.22-7.53&#10;&#9;&#9;&#9;c-23-3.35-41.81-6.95-57.16-10.68c-36.83-8.93-53.75-18.55-60.72-26.94c-7.51-9.04-1.08-22.79,10.67-23.21&#10;&#9;&#9;&#9;c10.63-0.38,31.11-1.03,60.93-1.66c40.8-0.87,99.1-1.68,173.67-1.68c129.09,0,209.42,2.44,234.6,3.34&#10;&#9;&#9;&#9;C502.347,400.515,508.777,414.265,501.267,423.305z"/>
		<path style="fill:#A66B6B;" d="M156.398,479.417c-5.063,5.041-10.17,11.413-14.362,19.308c-4.21-0.45-8.11-0.9-11.7-1.34&#10;&#9;&#9;&#9;c-14.09-1.73-20.01-18.94-9.95-28.93c2.83-2.81,5.62-5.33,8.22-7.53c0,0,9.172,0.869,21.479,1.592&#10;&#9;&#9;&#9;C158.635,463.019,162.467,473.375,156.398,479.417z"/>
		<path style="fill:#A66B6B;" d="M71.447,450.245c-36.83-8.93-53.75-18.55-60.72-26.94c-7.51-9.04-1.08-22.79,10.67-23.21&#10;&#9;&#9;&#9;c10.63-0.38,31.11-1.03,60.93-1.66C68.137,403.105,35.777,418.105,71.447,450.245z"/>
	</g>
	<g>
		<path style="fill:#BF8F8F;" d="M504.498,122.037c0,13.57-10.99,24.52-24.47,24.52c-0.17,0-0.34-0.01-0.51-0.01l-127.71-2.57&#10;&#9;&#9;&#9;l-302.3-6.09l-26.8-0.54c-8.33-0.16-14.99-6.97-14.99-15.31c0-4.17,1.66-7.95,4.37-10.72c2.71-2.76,6.45-4.51,10.62-4.59&#10;&#9;&#9;&#9;l26.8-0.54l302.3-6.09l127.71-2.57C493.228,97.247,504.498,108.307,504.498,122.037z"/>
		<path style="fill:#A66B6B;" d="M22.708,106.727c-4.17,0.08-7.91,1.83-10.62,4.59c-2.71,2.77-4.37,6.55-4.37,10.72&#10;&#9;&#9;&#9;c0,8.34,6.66,15.15,14.99,15.31l26.8,0.54v-31.7L22.708,106.727z"/>
		<path style="fill:#5C7099;" d="M504.5,122.036c0,13.57-10.99,24.52-24.47,24.52c-0.17,0-0.34-0.01-0.51-0.01l-127.71-2.57&#10;&#9;&#9;&#9;c0,0-4.09-6.8-4.09-21.94c0-15.14,4.09-21.94,4.09-21.94l127.71-2.57C493.23,97.246,504.5,108.306,504.5,122.036z"/>
	</g>
	<path style="fill:#8FBFAF;" d="M158.1,177.46c2.74,7.29-1.61,15.37-9.24,16.96c-15.21,3.17-29.98,4.15-42.99,4.03&#10;&#9;&#9;c-15.89-0.15-29.15-1.93-37.38-3.38c-6.21-1.1-11.44-5.21-14.02-10.96C35.2,141.05,72.22,96.67,53.73,47.94l38.01-13.61l14.86-5.32&#10;&#9;&#9;l52.55,21.06C177.08,97.32,142.63,136.39,158.1,177.46z"/>
	<path style="fill:#6BA692;" d="M105.87,198.45c-15.89-0.15-29.15-1.93-37.38-3.38c-6.21-1.1-11.44-5.21-14.02-10.96&#10;&#9;&#9;C35.2,141.05,72.22,96.67,53.73,47.94l38.01-13.61c23.44,56.24-17,108.81,3.05,153.59C96.97,192.81,100.98,196.57,105.87,198.45z"/>
	<g>
		<path style="fill:#BF8F8F;" d="M504.498,32.01c0,13.57-10.99,24.52-24.47,24.52c-0.17,0-0.34-0.01-0.51-0.01l-127.71-2.57&#10;&#9;&#9;&#9;l-302.3-6.09l-26.8-0.54c-8.33-0.16-14.99-6.97-14.99-15.31c0-4.17,1.66-7.95,4.37-10.72c2.71-2.76,6.45-4.51,10.62-4.59&#10;&#9;&#9;&#9;l26.8-0.54l302.3-6.09l127.71-2.57C493.228,7.22,504.498,18.28,504.498,32.01z"/>
		<path style="fill:#A66B6B;" d="M43.318,32.01c0,6.11,2.35,11.68,6.19,15.85l-26.8-0.54c-8.33-0.16-14.99-6.97-14.99-15.31&#10;&#9;&#9;&#9;c0-4.17,1.66-7.95,4.37-10.72c2.71-2.76,6.45-4.51,10.62-4.59l26.8-0.54C45.668,20.33,43.318,25.9,43.318,32.01z"/>
		<path style="fill:#5C7099;" d="M504.5,32.009c0,13.57-10.99,24.52-24.47,24.52c-0.17,0-0.34-0.01-0.51-0.01l-127.71-2.57&#10;&#9;&#9;&#9;c0,0-4.09-6.8-4.09-21.94c0-15.14,4.09-21.94,4.09-21.94l127.71-2.57C493.23,7.219,504.5,18.279,504.5,32.009z"/>
	</g>
</g>
<g>
	<path style="fill:none;stroke:#000000;stroke-width:15;stroke-linecap:round;stroke-linejoin:round;stroke-miterlimit:10;" d="&#10;&#9;&#9;M188.102,502.53c19.768,1.173,42.535,1.97,67.898,1.97c55.973,0,99.301-3.884,125.663-7.115&#10;&#9;&#9;c14.083-1.726,20.011-18.939,9.944-28.929c-2.83-2.808-5.617-5.326-8.22-7.531c78.169-11.374,108.007-25.74,117.883-37.619&#10;&#9;&#9;c7.512-9.036,1.084-22.793-10.665-23.212c-25.183-0.898-105.512-3.338-234.605-3.338s-209.422,2.441-234.605,3.338&#10;&#9;&#9;C9.646,400.512,3.218,414.27,10.73,423.306c9.876,11.879,39.714,26.245,117.883,37.619c-2.603,2.205-5.39,4.723-8.22,7.531&#10;&#9;&#9;c-10.067,9.99-4.139,27.203,9.944,28.929c6.9,0.846,14.962,1.736,24.109,2.59"/>
	<g>
		<path style="fill:none;stroke:#000000;stroke-width:15;stroke-linecap:round;stroke-linejoin:round;stroke-miterlimit:10;" d="&#10;&#9;&#9;&#9;M193.72,13.257l285.785-5.752C493.227,7.229,504.5,18.28,504.5,32.009v0c0,13.729-11.273,24.781-24.995,24.504L22.497,47.316&#10;&#9;&#9;&#9;C14.166,47.148,7.5,40.345,7.5,32.01v0c0-8.335,6.666-15.139,14.997-15.306l138.91-2.796"/>
		<path style="fill:none;stroke:#000000;stroke-width:15;stroke-linejoin:round;stroke-miterlimit:10;" d="M351.744,53.943&#10;&#9;&#9;&#9;c0,0-4.092-6.798-4.092-21.933s4.092-21.933,4.092-21.933"/>
	</g>
	<g>
		<path style="fill:none;stroke:#000000;stroke-width:15;stroke-linejoin:round;stroke-miterlimit:10;" d="M50.185,137.9&#10;&#9;&#9;&#9;l-27.688-0.557C14.166,137.175,7.5,130.372,7.5,122.037v0c0-8.335,6.666-15.139,14.997-15.306l33.654-0.677"/>
		<path style="fill:none;stroke:#000000;stroke-width:15;stroke-linejoin:round;stroke-miterlimit:10;" d="M161.992,103.923&#10;&#9;&#9;&#9;l317.513-6.391c13.722-0.276,24.995,10.775,24.995,24.504v0c0,13.729-11.273,24.781-24.995,24.504l-324.513-6.531"/>
		<path style="fill:none;stroke:#000000;stroke-width:15;stroke-linejoin:round;stroke-miterlimit:10;" d="M351.744,143.969&#10;&#9;&#9;&#9;c0,0-4.092-6.798-4.092-21.933s4.092-21.933,4.092-21.933"/>
	</g>
	<path style="fill:none;stroke:#000000;stroke-width:15;stroke-linecap:round;stroke-linejoin:round;stroke-miterlimit:10;" d="&#10;&#9;&#9;M386.902,263.14c88.65,21.328,77.975,136.147,77.975,136.147"/>
	<path style="fill:none;stroke:#000000;stroke-width:15;stroke-linecap:round;stroke-linejoin:round;stroke-miterlimit:10;" d="&#10;&#9;&#9;M47.123,399.287c0,0-13.024-140.08,109.159-139.533c13.891,0.062,27.199-5.143,37.446-14.523&#10;&#9;&#9;c9.975-9.131,28.473-18.628,62.272-18.628s52.298,9.497,62.272,18.628c10.247,9.38,23.554,14.585,37.446,14.523"/>
	<g>
		
			<line style="fill:none;stroke:#000000;stroke-width:15;stroke-linecap:round;stroke-linejoin:round;stroke-miterlimit:10;" x1="193.554" y1="339.719" x2="193.554" y2="351.719"/>
		
			<line style="fill:none;stroke:#000000;stroke-width:15;stroke-linecap:round;stroke-linejoin:round;stroke-miterlimit:10;" x1="318.446" y1="339.719" x2="318.446" y2="351.719"/>
		<path style="fill:none;stroke:#000000;stroke-width:15;stroke-linecap:round;stroke-linejoin:round;stroke-miterlimit:10;" d="&#10;&#9;&#9;&#9;M239.537,351.362c4.003,4.594,9.892,7.501,16.463,7.501c6.571,0,12.46-2.907,16.463-7.501"/>
	</g>
	<path style="fill:none;stroke:#000000;stroke-width:15;stroke-linejoin:round;stroke-miterlimit:10;" d="M53.726,47.944&#10;&#9;&#9;c18.491,48.722-18.53,93.103,0.748,136.163c2.576,5.753,7.807,9.865,14.015,10.959c14.967,2.637,46.586,6.402,80.371-0.642&#10;&#9;&#9;c7.627-1.59,11.981-9.67,9.235-16.961c-15.47-41.071,18.987-80.145,1.054-127.397"/>
	<path style="fill:none;stroke:#000000;stroke-width:15;stroke-linecap:round;stroke-linejoin:round;stroke-miterlimit:10;" d="&#10;&#9;&#9;M131.696,306.302c0,0,35.871,14.279,57.115-12.19"/>
	<path style="fill:none;stroke:#000000;stroke-width:15;stroke-linecap:round;stroke-linejoin:round;stroke-miterlimit:10;" d="&#10;&#9;&#9;M277.945,298.086c0,0-22.835-9.09-36.359,7.76"/>
	<path style="fill:none;stroke:#000000;stroke-width:15;stroke-linecap:round;stroke-linejoin:round;stroke-miterlimit:10;" d="&#10;&#9;&#9;M356.266,322.214c0,0,9.72,22.576,31.197,20.224"/>
</g>















</svg>
