<svg height="512" viewBox="0 0 128 128" width="512" xmlns="http://www.w3.org/2000/svg"><g><path d="m117.753 23.713a30.633 30.633 0 0 0 -21.31-4.557l-.05.008a56.543 56.543 0 0 0 .647 31.557c8.43.47 16.815-2.575 23.863-9.071 3.035-2.8 5.347-5.774 5.347-8.354 0-3.328-4.021-6.776-8.497-9.583z" fill="#e9e3dc"/><path d="m12.01 24.112-10.26-5.327v7.242a9.649 9.649 0 0 0 3.43 7.629l5.07 3.928-1.423 1.308c-3.682 3.383-3.959 10.028-.577 13.853a44.515 44.515 0 0 1 14.312-6.625v-18.183a43.077 43.077 0 0 1 -10.552-3.825z" fill="#e9e3dc"/><path d="m94.458 33.828a56.088 56.088 0 0 1 1.935-14.664l-58.618 9.274a40.7 40.7 0 0 1 -15.213-.5v9.188l71.92-2.04c-.009-.42-.024-.837-.024-1.258z" fill="#9bcdff"/><path d="m22.562 37.125v8.995a40.807 40.807 0 0 1 14.087-1.128l59.192 5.647c.4.038.8.059 1.2.082a55.583 55.583 0 0 1 -2.558-15.636z" fill="#f5f5f5"/><path d="m104.687 30.835h-3.187a1.75 1.75 0 0 1 0-3.5h3.187a1.75 1.75 0 0 1 0 3.5z" fill="#8a6645"/><g fill="#e9e3dc"><path d="m41.292 45.435-6.042 6.382s13 1.838 16.25 7.657l10-12.112z"/><path d="m69.352 23.442c-1.423-4.083-5.68-14.8-11.727-16.683l-13.875 12.405.4 8.265z"/><path d="m68.018 47.985-6.518 12.462s14.5-2.247 17.75-6.125a9.484 9.484 0 0 0 2-5.075z"/><path d="m117.753 84.507a30.633 30.633 0 0 0 -21.31-4.557l-.05.008a56.54 56.54 0 0 0 .647 31.556c8.43.471 16.815-2.574 23.863-9.07 3.035-2.8 5.347-5.775 5.347-8.354 0-3.328-4.021-6.776-8.497-9.583z"/><path d="m12.01 84.906-10.26-5.327v7.242a9.649 9.649 0 0 0 3.43 7.629l5.07 3.928-1.423 1.308c-3.682 3.383-3.959 10.028-.577 13.853a44.515 44.515 0 0 1 14.312-6.625v-18.183a43.077 43.077 0 0 1 -10.552-3.825z"/></g><path d="m94.458 94.622a56.088 56.088 0 0 1 1.935-14.664l-58.618 9.274a40.716 40.716 0 0 1 -15.213-.5v9.187l71.92-2.04c-.009-.419-.024-.836-.024-1.257z" fill="#9bcdff"/><path d="m22.562 97.918v9a40.783 40.783 0 0 1 14.087-1.128l59.192 5.647c.4.038.8.059 1.2.081a55.571 55.571 0 0 1 -2.558-15.636z" fill="#f5f5f5"/><path d="m104.687 91.628h-3.187a1.75 1.75 0 0 1 0-3.5h3.187a1.75 1.75 0 0 1 0 3.5z" fill="#8a6645"/><path d="m41.292 106.229-6.042 6.382s13 1.838 16.25 7.657l10-12.112z" fill="#e9e3dc"/><path d="m69.352 84.236c-1.423-4.083-5.68-14.8-11.727-16.683l-13.875 12.405.4 8.265z" fill="#e9e3dc"/><path d="m68.018 108.778-6.518 12.463s14.5-2.25 17.753-6.125a9.484 9.484 0 0 0 2-5.075z" fill="#e9e3dc"/></g></svg>