<svg id="Capa_1" enable-background="new 0 0 512 512" height="512" viewBox="0 0 512 512" width="512" xmlns="http://www.w3.org/2000/svg"><g><path d="m240.228 106.098c-9.89 1.947-16.717 12.503-25.051 17.849 0 0-20.787 1.227-36.028-6.044.577-65.508 14.093-117.903 30.668-117.903 15.566 0 28.423 46.214 30.411 106.098z" fill="#00c755"/><path d="m240.496 122.292c0 15.916-.762 30.226-2.153 42.855h-57.051c-1.391-12.63-2.163-26.939-2.163-42.855 0-1.473.01-2.936.021-4.389 2.988-.484 6.057-.731 9.189-.731h24.24c8.334-5.347 17.76-9.127 27.65-11.074.174 5.295.267 10.703.267 16.194z" fill="#00b730"/><path d="m332.851 117.873c-9.125 6.075-37.949 6.075-37.949 6.075-8.303-5.367-13.282-15.913-23.131-17.86 1.989-59.884 14.846-106.088 30.412-106.088 16.575 0 30.081 52.374 30.668 117.873z" fill="#00c755"/><path d="m332.872 122.292c0 15.916-.773 30.226-2.163 42.855h-57.051c-1.391-12.63-2.153-26.939-2.153-42.855 0-5.491.093-10.899.268-16.205 9.848 1.947 19.336 5.718 27.64 11.085h24.487c3.049 0 6.037.237 8.952.7.01 1.464.02 2.937.02 4.42z" fill="#00b730"/><path d="m286.545 110.497c-14.773 5.478-50.21 5.785-61.09.01 1.484-62.006 14.598-110.507 30.545-110.507s29.061 48.491 30.545 110.497z" fill="#55d47b"/><path d="m286.689 122.292c0 15.916-.773 30.226-2.163 42.855h-57.051c-1.391-12.63-2.163-26.939-2.163-42.855 0-3.976.052-7.912.144-11.785 9.529-3.873 19.893-5.944 30.37-5.944 10.487-.052 21.036 2.009 30.72 5.934.091 3.884.143 7.819.143 11.795z" fill="#00c755"/><path d="m256 148.078h-67.664c-11.749 0-21.825 7.709-23.053 17.996-2.603 21.801-13.457 26.917-33.545 40.958-44.8 32.351-73.032 81.829-71.775 137.076 2.117 93.079 88.884 167.228 194.621 167.885z" fill="#ffd9a0"/><path d="m254.584 511.994c108.94.677 197.494-75.666 197.494-171.425 0-54.042-28.208-102.279-72.364-133.931-19.979-13.88-30.504-19.004-33.012-40.69-1.18-10.205-11.157-17.869-22.807-17.869h-67.895z" fill="#ffeab7"/><path d="m385.37 364.147c-.034 82.206-58.569 148.594-130.786 147.847-127.433-80.08-53.579-328.977 7.567-376.155 22.077 2.637 39.075 19.295 39.075 39.456v12.156c-.175 27.413 5.893 34.902 22.602 50.798 32.728 31.132 61.542 72.679 61.542 125.898z" fill="#fff8e6"/><path d="m254.584 511.994c-70.557-1.185-127.953-66.936-127.953-147.847 0-53.229 28.886-94.704 61.563-125.919 16.617-15.875 22.726-23.395 22.582-50.777v-12.156c.235-23.566 21.887-39.914 45.225-39.827 2.091 0 4.141.124 6.15.371-51.252 93.705-111.45 246.321-7.567 376.155z" fill="#ffeab7"/><ellipse cx="174.043" cy="372.317" fill="#ffa1ac" rx="30.241" ry="24.082"/><ellipse cx="337.957" cy="372.317" fill="#ffa1ac" rx="30.241" ry="24.082"/><g><path d="m191.667 356.635c-4.143 0-7.5-3.357-7.5-7.5v-12.362c0-4.143 3.357-7.5 7.5-7.5s7.5 3.357 7.5 7.5v12.362c0 4.142-3.357 7.5-7.5 7.5z" fill="#495560"/></g><g><path d="m320.333 356.635c-4.143 0-7.5-3.357-7.5-7.5v-12.362c0-4.143 3.357-7.5 7.5-7.5s7.5 3.357 7.5 7.5v12.362c0 4.142-3.357 7.5-7.5 7.5z" fill="#495560"/></g><g><path d="m256 363.994c-8.668 0-16.911-3.754-22.615-10.3-2.722-3.123-2.396-7.86.727-10.582 3.122-2.721 7.859-2.396 10.582.727 2.854 3.276 6.976 5.155 11.307 5.155s8.452-1.879 11.307-5.155c2.723-3.123 7.457-3.448 10.582-.727 3.122 2.722 3.448 7.459.727 10.582-5.706 6.546-13.949 10.3-22.617 10.3z" fill="#495560"/></g></g></svg>