<svg id="Capa_1" enable-background="new 0 0 512 512" height="512" viewBox="0 0 512 512" width="512" xmlns="http://www.w3.org/2000/svg"><g><path d="m496.992 380.5h-481.984c-9.85 0-17.026 9.332-14.498 18.851l5.675 21.364c3.726 14.023 16.419 23.785 30.928 23.785h437.773c14.509 0 27.203-9.762 30.928-23.785l5.675-21.364c2.529-9.519-4.648-18.851-14.497-18.851z"/><path d="m131 262.5h-65c-8.284 0-15 6.716-15 15v73h80z"/><path d="m161 262.5h80v88h-80z"/><path d="m241 144.5h-65c-8.284 0-15 6.716-15 15v73h80z"/><path d="m271 232.5h80v-73c0-8.284-6.716-15-15-15h-65z"/><path d="m271 262.5h80v88h-80z"/><path d="m461 277.5c0-8.284-6.716-15-15-15h-65v88h80z"/><path d="m237.25 114.5h37.5l17.25-23c4.971-6.627 3.627-16.029-3-21-6.626-4.971-16.03-3.627-21 3l-12 16-12-16c-4.971-6.627-14.373-7.97-21-3-6.627 4.971-7.971 14.373-3 21z"/></g></svg>