<svg height="512" viewBox="0 0 256 256" width="512" xmlns="http://www.w3.org/2000/svg"><g id="Layer_1"><g><g><path d="m180.56 80.43h-103.09l38.11-38.11c7.42-7.43 19.45-7.43 26.87 0l17.15 17.15z" fill="#f2e1d7"/><path d="m220.239 238.699c-2.869 7.155-9.872 11.801-17.587 11.801h-147.262c-7.772 0-14.775-4.741-17.654-11.962-15.649-39.241-4.295-67.878 6.851-122.957.447-2.176.884-4.39 1.321-6.651h166.226c.437 2.261.874 4.475 1.321 6.651 11.098 54.879 22.528 83.821 6.784 123.118z" fill="#f0c020"/><path d="m202.652 243h-132.659c-1.381 0-2.5-1.119-2.5-2.5s1.119-2.5 2.5-2.5h132.659c2.632 0 5.037-1.587 5.984-3.95 13.601-33.944 4.419-59.133-6.229-110.133-.282-1.352.585-2.676 1.937-2.958 1.354-.283 2.676.585 2.958 1.937 10.655 51.025 20.214 77.477 5.975 113.015-1.701 4.24-5.971 7.089-10.625 7.089zm-142.659 0h-4.603c-1.381 0-2.5-1.119-2.5-2.5s1.119-2.5 2.5-2.5h4.603c1.381 0 2.5 1.119 2.5 2.5s-1.12 2.5-2.5 2.5z" fill="#f8e5b0"/><path d="m213.455 115.581h-168.868c.447-2.176.884-4.39 1.321-6.651h166.226c.437 2.261.874 4.475 1.321 6.651z" fill="#cf9519"/><path d="m156.374 126.35h-54.485c0 7.871-6.381 14.252-14.252 14.252v75.693c7.871 0 14.252 6.381 14.252 14.252h54.485c0-7.871 6.381-14.252 14.252-14.252v-75.693c-7.871 0-14.252-6.381-14.252-14.252z" fill="#efefef"/><path d="m144.336 166.62c-8.773 2.477-15.203 10.535-15.203 20.103 0-9.64-6.492-17.653-15.212-20.103.116-2.173.34-4.275.644-6.296 1.994-13.047 7.771-22.375 14.568-22.375 8.174 0 12.815 11.822 14.514 22.384.358 2.191.582 4.328.689 6.287z" fill="#f0c020"/><path d="m144.336 166.62c-8.773 2.477-15.203 10.535-15.203 20.103 0-9.64-6.492-17.653-15.212-20.103.116-2.173.34-4.275.644-6.296 5.562 1.324 10.705 4.418 14.568 9.086 3.774-4.552 8.862-7.718 14.514-9.077.358 2.191.582 4.328.689 6.287z" fill="#e7a61d"/><path d="m150.015 165.842v15.873c0 11.536-9.354 20.881-20.881 20.881-11.536 0-20.881-9.345-20.881-20.881v-15.873c1.967 0 3.872.268 5.67.778 8.719 2.45 15.212 10.463 15.212 20.103 0-9.569 6.43-17.626 15.203-20.103 1.805-.51 3.71-.778 5.677-.778z" fill="#13bf6d"/><path d="m227.96 89.93v9.5c0 5.24-4.24 9.5-9.5 9.5h-180.92c-5.25 0-9.5-4.26-9.5-9.5v-9.5c0-5.25 4.25-9.5 9.5-9.5h180.92c5.26 0 9.5 4.25 9.5 9.5z" fill="#f0c020"/><path d="m217.964 101.43h-165.496c-1.381 0-2.5-1.119-2.5-2.5s1.119-2.5 2.5-2.5h162.996v-6.004c0-1.381 1.119-2.5 2.5-2.5s2.5 1.119 2.5 2.5v8.504c0 1.381-1.119 2.5-2.5 2.5zm-175.496 0h-4.432c-1.381 0-2.5-1.119-2.5-2.5s1.119-2.5 2.5-2.5h4.432c1.381 0 2.5 1.119 2.5 2.5s-1.119 2.5-2.5 2.5z" fill="#f8e5b0"/><path d="m199.86 53v27.43h-19.3l-20.96-20.96v-6.47c0-1.04.16-2.03.45-2.97 1.27-4.07 5.06-7.03 9.55-7.03h20.26c5.52 0 10 4.48 10 10z" fill="#878787"/><path d="m199.86 73.43v7h-19.3l-20.96-20.96v-6.47c0-1.04.16-2.03.45-2.97l21.936 21.936c.938.938 2.209 1.464 3.536 1.464z" fill="#4c4944"/><path d="m188.82 15.52-2.68 27.48h-12.82l-2.68-27.48c-.52-5.37 3.7-10.02 9.09-10.02 5.411 0 9.609 4.657 9.09 10.02z" fill="#efefef"/></g><path d="m33.57 213.85c-.19-1.34-1.48-2.32-2.83-2.12-1.333.181-2.309 1.444-2.12 2.83.209 1.416 1.579 2.331 2.84 2.12 1.36-.2 2.309-1.47 2.11-2.83z"/><path d="m115.829 213.16c-1.38 0-2.5 1.12-2.5 2.5s1.12 2.5 2.5 2.5h26.45c1.38 0 2.5-1.12 2.5-2.5s-1.12-2.5-2.5-2.5z"/><circle cx="170.63" cy="158.14" r="2.5"/><path d="m173.13 140.6c0-1.351-1.108-2.5-2.5-2.5-6.47-.01-11.75-5.28-11.76-11.75 0-1.422-1.153-2.5-2.49-2.5h-54.49c-1.376 0-2.5 1.119-2.5 2.5-.01 6.47-5.28 11.74-11.75 11.75-1.358 0-2.5 1.089-2.5 2.5v75.69c0 1.423 1.148 2.5 2.5 2.5 6.47.02 11.74 5.29 11.75 11.76 0 1.379 1.137 2.5 2.5 2.5h54.49c1.379 0 2.49-1.137 2.49-2.5.01-6.47 5.29-11.74 11.76-11.76 1.327 0 2.5-1.074 2.5-2.5v-48.14c0-1.38-1.13-2.5-2.5-2.5-1.38 0-2.5 1.12-2.5 2.5v45.83c-7.335 1.092-13.001 6.888-14.07 14.07h-49.86c-1.085-7.283-6.831-12.991-14.06-14.07v-71.06c7.269-1.103 12.98-6.823 14.06-14.07h49.86c1.091 7.325 6.87 12.978 14.07 14.07v5.23c0 1.37 1.12 2.49 2.5 2.49 1.37 0 2.5-1.12 2.5-2.49z"/><path d="m132.85 153.511h.763c1.381 0 2.5-1.119 2.5-2.5s-1.119-2.5-2.5-2.5h-.763c-1.381 0-2.5 1.119-2.5 2.5s1.12 2.5 2.5 2.5z"/><path d="m135.732 162.334c0-1.381-1.119-2.5-2.5-2.5h-.763c-1.381 0-2.5 1.119-2.5 2.5s1.119 2.5 2.5 2.5h.763c1.381 0 2.5-1.119 2.5-2.5z"/><path d="m124.269 154.328h-.763c-1.381 0-2.5 1.119-2.5 2.5s1.119 2.5 2.5 2.5h.763c1.381 0 2.5-1.119 2.5-2.5s-1.119-2.5-2.5-2.5z"/><path d="m152.515 181.715v-15.873c0-1.381-1.119-2.5-2.5-2.5-1.152 0-2.294.089-3.421.253-1.171-11.346-6.088-28.146-17.461-28.146-11.081 0-16.334 16.294-17.482 28.142-1.118-.162-2.253-.249-3.399-.249-1.381 0-2.5 1.119-2.5 2.5v15.873c0 12.892 10.487 23.38 23.379 23.381h.001.002c12.892 0 23.381-10.489 23.381-23.381zm-25.883 5.006v13.185c-8.953-1.227-15.879-8.906-15.879-18.191v-13.207c9.073 1.224 15.873 9.062 15.881 18.199-.001.005-.002.009-.002.014zm-10.067-21.852c1.203-14.305 6.894-24.42 12.568-24.42 8.01 0 11.797 16 12.551 24.426-5.525 2.111-9.963 6.227-12.55 11.359-2.589-5.141-7.035-9.26-12.569-11.365zm15.067 35.037v-13.163c0-.007.002-.013.002-.019 0-9.109 6.78-16.989 15.881-18.215v13.207c0 9.285-6.928 16.965-15.883 18.19z"/><path d="m230.464 99.428v-9.501c0-6.618-5.384-12.001-12.001-12.001h-16.103v-24.926c0-6.893-5.607-12.5-12.5-12.5h-.964l2.413-24.737v-.001c.661-6.834-4.706-12.762-11.579-12.762-6.858 0-12.241 5.926-11.579 12.763l2.413 24.737h-.964c-5.5 0-10.297 3.53-11.939 8.792-.373 1.206-.561 2.454-.561 3.708v.43l-12.88-12.88c-8.37-8.37-21.974-8.436-30.41 0l-10.53 10.54c-.98.97-.98 2.56 0 3.53.94.94 2.59.94 3.54 0 0 0 0 0 0-.01l10.53-10.52c6.451-6.472 16.908-6.443 23.33 0l33.835 33.835h-91.004l9.159-9.166c.98-.97.98-2.56 0-3.53-.94-.95-2.59-.95-3.53 0l-12.705 12.696h-38.898c-6.617 0-12.001 5.384-12.001 12.001v9.501c0 6.618 5.384 12.001 12.001 12.001h5.332c-7.891 40.009-16.344 66.378-15.2 92.93.055 1.232 1.015 2.39 2.61 2.39 1.388-.063 2.451-1.25 2.39-2.61-1.143-25.686 7.314-52.061 15.296-92.71h162.111c11.27 57.647 23.745 86.587 7.844 126.34-2.45 6.12-8.59 10.23-15.27 10.23h-147.26c-6.8 0-12.82-4.08-15.33-10.39-1.94-4.85-3.44-9.5-4.61-14.2-.33-1.32-1.71-2.16-3.03-1.82-1.418.349-2.15 1.774-1.82 3.02 1.2 4.87 2.83 9.87 4.81 14.85 3.24 8.118 11.114 13.54 19.98 13.54h147.26c8.651 0 16.605-5.17 19.91-13.37 16.396-40.87 3.963-70.952-7.386-128.2h3.289c6.617.002 12.001-5.382 12.001-12zm-50.734-91.428c3.929 0 6.979 3.366 6.602 7.277l-2.46 25.223h-8.284l-2.46-25.221c-.378-3.904 2.677-7.279 6.602-7.279zm-17.63 50.43v-5.43c0-.754.114-1.505.336-2.226.984-3.155 3.863-5.274 7.164-5.274h20.26c4.136 0 7.5 3.364 7.5 7.5v24.925h-15.765zm-124.563 48c-3.86 0-7.001-3.141-7.001-7.001v-9.501c0-3.861 3.141-7.001 7.001-7.001h180.925c3.861 0 7.001 3.141 7.001 7.001v9.501c0 3.861-3.141 7.001-7.001 7.001z"/><path d="m96.209 58.16c-.98.97-.98 2.56 0 3.53.971.97 2.551.978 3.53 0 .98-.97.98-2.56 0-3.53-.939-.95-2.59-.95-3.53 0z"/><path d="m116.32 59.629v-.495c0-1.381-1.119-2.5-2.5-2.5s-2.5 1.119-2.5 2.5v.495c0 1.381 1.119 2.5 2.5 2.5s2.5-1.119 2.5-2.5z"/><path d="m140.32 57.375v-.495c0-1.381-1.119-2.5-2.5-2.5s-2.5 1.119-2.5 2.5v.495c0 1.381 1.119 2.5 2.5 2.5s2.5-1.119 2.5-2.5z"/><path d="m134.57 68.75v-.495c0-1.381-1.119-2.5-2.5-2.5s-2.5 1.119-2.5 2.5v.495c0 1.381 1.119 2.5 2.5 2.5s2.5-1.119 2.5-2.5z"/></g></g></svg>