<svg id="Layer_1" enable-background="new 0 0 52 52" height="512" viewBox="0 0 52 52" width="512" xmlns="http://www.w3.org/2000/svg"><g><g><path d="m50 13.39854c0 2.01354-1.12096 3.90254-3.06184 5.52168v29.46756c0 .60113-.48731 1.08844-1.08844 1.08844h-35.96622c-.60113 0-1.08844-.48731-1.08844-1.08844v-29.46757c-1.94088-1.61913-3.06178-3.50813-3.06178-5.52168 0-6.00946 9.912-10.87725 22.13852-10.87725 12.2162.00001 22.1282 4.8678 22.1282 10.87726z" fill="#ffc776"/></g><g><path d="m9.87964 49.47871h-3.72459c-.61073 0-1.0913-.49059-1.0913-1.0913v-29.46605c-1.94238-1.62198-3.06375-3.50429-3.06375-5.52678 0-6.00735 9.91209-10.87329 22.13707-10.87329.63078 0 1.25153.01002 1.87229.04003-11.35392.46058-20.27481 5.13629-20.27481 10.83326 0 2.02249 1.12137 3.9048 3.06375 5.52678v29.46605c0 .60071.48057 1.0913 1.08134 1.0913z" fill="#c48a57"/></g><g><path d="m12.94676 45.32452v-28.34734l-1.49199-1.24518c-.99787-.83215-1.57004-1.68255-1.57004-2.33327 0-2.37127 6.82901-6.72562 17.98701-6.72562 11.15193 0 17.97688 4.35435 17.97688 6.72562 0 .65072-.57217 1.50111-1.57004 2.33327l-1.49199 1.24518v28.34734z" fill="#ffeaa9"/></g><g><circle cx="19.808" cy="18.912" fill="#ffc776" r="2.875"/></g><g><circle cx="34.233" cy="16.471" fill="#ffc776" r="2.441"/></g><g><circle cx="29.086" cy="25.483" fill="#ffc776" r="2.072"/></g><g><circle cx="24.133" cy="38.187" fill="#ffc776" r="2.441"/></g><g><circle cx="36.674" cy="33.383" fill="#ffc776" r="2.875"/></g><g><path d="m10.68304 39.16935c-.20703 0-.375-.16797-.375-.375v-11.24365c0-.20703.16797-.375.375-.375s.375.16797.375.375v11.24365c0 .20703-.16797.375-.375.375z" fill="#fff"/></g><g><path d="m10.68304 25.71086c-.20703 0-.375-.16797-.375-.375v-.85352c0-.20703.16797-.375.375-.375s.375.16797.375.375v.85352c0 .20703-.16797.375-.375.375z" fill="#fff"/></g></g></svg>