<?xml version="1.0" encoding="UTF-8" standalone="no"?>
<!-- Created with Inkscape (http://www.inkscape.org/) -->

<svg
   version="1.1"
   id="svg4110"
   xml:space="preserve"
   width="682.66669"
   height="682.66669"
   viewBox="0 0 682.66669 682.66669"
   xmlns="http://www.w3.org/2000/svg"
   xmlns:svg="http://www.w3.org/2000/svg"><defs
     id="defs4114"><clipPath
       clipPathUnits="userSpaceOnUse"
       id="clipPath4124"><path
         d="M 0,512 H 512 V 0 H 0 Z"
         id="path4122" /></clipPath></defs><g
     id="g4116"
     transform="matrix(1.3333333,0,0,-1.3333333,0,682.66667)"><g
       id="g4118"><g
         id="g4120"
         clip-path="url(#clipPath4124)"><g
           id="g4126"
           transform="translate(334.75,504.5)"><path
             d="m 0,0 h -30 v -60 h 60 v 30 C 30,-13.432 16.568,0 0,0"
             style="fill:#f4803c;fill-opacity:1;fill-rule:nonzero;stroke:none"
             id="path4128" /></g><g
           id="g4130"
           transform="translate(304.75,504.5)"><path
             d="m 0,0 h -30 c -16.569,0 -30,-13.432 -30,-30 v -30 h 90 v 30 C 30,-13.432 16.568,0 0,0"
             style="fill:#f69f4c;fill-opacity:1;fill-rule:nonzero;stroke:none"
             id="path4132" /></g><g
           id="g4134"
           transform="translate(364.75,380.6709)"><path
             d="m 0,0 v 48.829 c 16.568,0 30,13.432 30,30 h -60 l -30,-90 45,-362 h 30 c 16.568,0 30,13.432 30,30 v 257 C 45,-50.491 27.2,-18.975 0,0"
             style="fill:#fbdc6b;fill-opacity:1;fill-rule:nonzero;stroke:none"
             id="path4136" /></g><g
           id="g4138"
           transform="translate(244.75,380.6709)"><path
             d="m 0,0 c -27.2,-18.975 -45,-50.491 -45,-86.171 -37.279,0 -67.5,30.221 -67.5,67.5 0,37.279 30.221,67.5 67.5,67.5 H 0 Z m 135,-86.171 c 0,30.692 -18.539,57.122 -45,68.719 v 36.281 l -60,60 h -75 c -53.848,0 -97.5,-43.652 -97.5,-97.5 0,-53.848 43.652,-97.5 97.5,-97.5 v -227 c 0,-16.568 13.431,-30 30,-30 h 120 c 16.568,0 30,13.432 30,30 l -30,128.5 30,98.5 z"
             style="fill:#fdfa7b;fill-opacity:1;fill-rule:nonzero;stroke:none"
             id="path4140" /></g><g
           id="g4142"
           transform="translate(349.75,264.5)"><path
             d="M 0,0 -30,-113.5 0,-227 H 30 V 0 Z"
             style="fill:#f69f4c;fill-opacity:1;fill-rule:nonzero;stroke:none"
             id="path4144" /></g><path
           d="m 229.75,37.5 h 120 v 227 h -120 z"
           style="fill:#f8bd5c;fill-opacity:1;fill-rule:nonzero;stroke:none"
           id="path4146" /><path
           d="m 334.75,459.5 h -60 v -60 h 60 z"
           style="fill:#f4803c;fill-opacity:1;fill-rule:nonzero;stroke:none"
           id="path4148" /><g
           id="g4150"
           transform="translate(364.75,459.5)"><path
             d="m 0,0 v 15 c 0,16.568 -13.432,30 -30,30 h -60 c -16.568,0 -30,-13.432 -30,-30 V 0"
             style="fill:none;stroke:#000000;stroke-width:15;stroke-linecap:round;stroke-linejoin:round;stroke-miterlimit:10;stroke-dasharray:none;stroke-opacity:1"
             id="path4152" /></g><g
           id="g4154"
           transform="translate(364.75,429.5)"><path
             d="M 0,0 V -48.829 C 27.2,-67.804 45,-99.32 45,-135 v -257 c 0,-16.568 -13.432,-30 -30,-30 h -150 c -16.569,0 -30,13.432 -30,30 v 227 c -53.848,0 -97.5,43.652 -97.5,97.5 0,53.848 43.652,97.5 97.5,97.5 H 30 C 30,13.432 16.569,0 0,0"
             style="fill:none;stroke:#000000;stroke-width:15;stroke-linecap:round;stroke-linejoin:round;stroke-miterlimit:10;stroke-dasharray:none;stroke-opacity:1"
             id="path4156" /></g><g
           id="g4158"
           transform="translate(244.75,380.6709)"><path
             d="m 0,0 v 48.829 h -45 c -37.279,0 -67.5,-30.221 -67.5,-67.5 0,-37.279 30.221,-67.5 67.5,-67.5 0,35.68 17.8,67.196 45,86.171 z"
             style="fill:none;stroke:#000000;stroke-width:15;stroke-linecap:round;stroke-linejoin:round;stroke-miterlimit:10;stroke-dasharray:none;stroke-opacity:1"
             id="path4160" /></g><path
           d="m 229.75,37.5 h 150 v 227 h -150 z"
           style="fill:none;stroke:#000000;stroke-width:15;stroke-linecap:round;stroke-linejoin:round;stroke-miterlimit:10;stroke-dasharray:none;stroke-opacity:1"
           id="path4162" /><g
           id="g4164"
           transform="translate(274.75,429.5)"><path
             d="M 0,0 V -30 H 60 V 0"
             style="fill:none;stroke:#000000;stroke-width:15;stroke-linecap:round;stroke-linejoin:round;stroke-miterlimit:10;stroke-dasharray:none;stroke-opacity:1"
             id="path4166" /></g></g></g></g></svg>
