<svg id="Capa_1" enable-background="new 0 0 512 512" height="512" viewBox="0 0 512 512" width="512" xmlns="http://www.w3.org/2000/svg"><g><g><g><path d="m184.032 359.64-35.529-29.812 257.977-307.445c3.659-4.36 10.16-4.929 14.52-1.27l19.738 16.562c4.36 3.659 4.929 10.16 1.27 14.52z" fill="#99d53b"/></g><g><path d="m442.005 52.197-257.976 307.443-20.583-17.271 257.976-307.444c3.538-4.216 3.119-10.42-.835-14.141.141.105.275.217.409.33l19.738 16.562c4.367 3.664 4.935 10.155 1.271 14.521z" fill="#82b732"/></g></g><g><g><path d="m170.622 375.248-35.529-29.812 14.906-17.764c52.429-62.482 112.738-116.189 179.253-159.631 53.501-34.943 95.873-53.034 111.607-59.191l11.998-4.694c5.301-2.074 11.279.542 13.353 5.842l9.389 23.995c2.074 5.301-.542 11.28-5.842 13.354l-11.998 4.694c-14.395 5.632-53.259 22.249-103.146 54.83-62.698 40.949-119.587 91.621-169.085 150.612z" fill="#2db181"/></g><g><path d="m469.76 147.345-11.997 4.693c-14.402 5.635-53.265 22.254-103.153 54.836-62.691 40.944-119.585 91.623-169.08 150.609l-14.906 17.764-16.738-14.045 23.273-27.736c49.495-58.986 106.389-109.665 169.088-150.602 49.888-32.581 88.751-49.201 103.145-54.842l11.997-4.693c3.862-1.508 6.3-5.087 6.539-8.963l7.672 19.622c2.073 5.306-.549 11.285-5.84 13.357z" fill="#1ca56f"/></g></g><g><g><path d="m170.622 375.248-35.529-29.812 14.906-17.764c68.424-81.544 108.55-160.508 130.162-212.39 23.481-56.368 30.818-93.896 30.889-94.269l2.422-12.642c1.07-5.582 6.456-9.245 12.041-8.187l25.282 4.789c5.59 1.059 9.265 6.447 8.21 12.038l-2.385 12.635c-.315 1.668-7.995 41.537-33.016 101.955-22.877 55.242-65.401 139.273-138.076 225.884z" fill="#bcea73"/></g><g><path d="m185.53 357.483-14.906 17.764-19.501-16.364 8.182-9.751c72.676-86.612 115.202-170.644 138.074-225.882 25.016-60.422 32.706-100.292 33.014-101.958l2.384-12.638c.5-2.648-.057-5.255-1.383-7.363l19.401 3.672c5.594 1.061 9.263 6.454 8.208 12.04l-2.384 12.638c-.314 1.674-7.998 41.536-33.014 101.958-22.872 55.239-65.399 139.272-138.075 225.884z" fill="#99d53b"/></g></g><g><path d="m165.799 307.904-113.387 120.661c-19.304 20.542-22.214 51.562-7.069 75.336 6.52 10.235 21.225 10.89 28.629 1.274l128.319-166.65z" fill="#ecf8d9"/><path d="m73.975 505.18c-6.268 8.127-17.773 8.915-25.107 2.76-1.334-1.12-2.528-2.471-3.528-4.037-3.215-5.052-5.624-10.438-7.221-15.975 6.703 2.193 14.56.27 19.349-5.951l123.942-160.968 20.883 17.523z" fill="#dbf2b4"/></g></g></svg>