<svg id="Artboard_30" enable-background="new 0 0 64 64" height="512" viewBox="0 0 64 64" width="512" xmlns="http://www.w3.org/2000/svg"><g><path d="m55 62h-15c-1.105 0-2-.895-2-2v-41c0-1.105.895-2 2-2h15c1.105 0 2 .895 2 2v41c0 1.105-.895 2-2 2z" fill="#d9d5ca"/><path d="m55 17h-15c-1.105 0-2 .895-2 2v2.022c2.53 9.964 9.661 18.089 19 21.984v-24.006c0-1.105-.895-2-2-2z" fill="#e8e4d8"/><path d="m49 24c-1.281 1.281-3.017 2-4.828 2h-6.172v34c0 1.105.895 2 2 2h15c1.105 0 2-.895 2-2v-38h-3.172c-1.811 0-3.547.719-4.828 2z" fill="#fff0db"/><g><path d="m38 60c0 1.105.895 2 2 2h15c1.105 0 2-.895 2-2v-16.995c-7.727-3.222-13.934-9.345-17.282-17.005h-1.718z" fill="#ffeccf"/></g><path d="m30.961 33c.9.653 6.396 4.776 6.989 12 .108 1.316.248 5.116-1.997 8.988-3.396 5.857-9.562 7.248-10.982 7.569-3.238.731-5.851.356-6.818.185-5.558-.982-8.989-4.455-10.155-5.754z" fill="#a66a43"/><path d="m30.961 33c.9.653 6.396 4.776 6.989 12 .108 1.316.248 5.116-1.997 8.988-3.396 5.857-9.562 7.248-10.982 7.569-3.238.731-5.851.356-6.818.185-5.558-.982-8.989-4.455-10.155-5.754z" fill="#a66a43"/><path d="m31 33c-2.926-2.931-10.461-.136-16.83 6.243s-9.098 13.814-6.172 16.745 10.4.248 16.769-6.131 9.159-13.926 6.233-16.857z" fill="#e8e4d8"/><path d="m41 31h13v21h-13z" fill="#ffd55d"/><path d="m41 8h13v5h-13z" fill="#88898d"/><path d="m43 13h9v4h-9z" fill="#d9d5ca"/><path d="m44 8-1-6h9l-1 6z" fill="#7d5032"/><path d="m20 31s-.735-2-2.867-3l-.751-.352c-.847-.397-1.382-1.209-1.382-2.097v-.207c0-1.294 1.119-2.344 2.5-2.344 1.504 0 2.667 1.236 2.481 2.635z" fill="#e8e4d8"/><path d="m24 27s.735-2 2.867-3l.751-.352c.847-.397 1.382-1.209 1.382-2.097v-.207c0-1.294-1.119-2.344-2.5-2.344-1.504 0-2.667 1.236-2.481 2.635z" fill="#d9d5ca"/><path d="m27.425 36.583c-1.65-1.653-6.544.567-10.931 4.96s-6.56 9.22-4.91 10.873 6.499-.493 10.886-4.886 6.605-9.293 4.955-10.947z" fill="#d9d5ca"/><g><path d="m33.807 55.469c-2.171.995-4.465 1.51-6.816 1.531-1.905.024-3.827-.3-5.66-.943l-.662 1.887c1.999.702 4.075 1.056 6.173 1.056h.167c1.818-.016 3.599-.314 5.329-.851.647-.513 1.28-1.107 1.88-1.782z" fill="#7d5032"/><g><path d="m33.247 40.945c-.428-.627-1.015-1.094-1.677-1.422-.196.604-.429 1.223-.719 1.859.293.174.549.404.744.691.555.812.542 1.96-.033 2.923l1.717 1.025c.974-1.629.961-3.622-.032-5.076z" fill="#7d5032"/></g><g><path d="m25.516 49.07c-.247.263-.491.527-.75.787-.217.218-.439.42-.659.629.021.027.047.049.066.078.555.813.542 1.96-.033 2.923l1.717 1.025c.974-1.629.961-3.623-.033-5.077-.09-.133-.203-.244-.308-.365z" fill="#7d5032"/></g><g fill="#7d5032"><path d="m19.026 59-.052-2c-.858.022-2.039.403-2.779 1.405-.564.764-.763 1.729-.607 2.666.626.216 1.288.401 1.985.55l.261-.172c-.395-.599-.407-1.344-.03-1.855.412-.557 1.14-.592 1.222-.594z"/><path d="m34.03 48.756c-.164.648-.652 1.155-1.215 1.261-.768.148-1.602-.438-1.856-1.3l-1.918.565c.483 1.639 1.968 2.756 3.537 2.756.202 0 .405-.018.607-.056 1.336-.252 2.429-1.327 2.785-2.739z"/></g></g><g><path d="m42.45 31h-1.45v21h13v-10.442c-4.657-2.533-8.623-6.167-11.55-10.558z" fill="#ffc239"/></g><path d="m43 9c0 1.105.895 2 2 2h9v-3h-11z" fill="#9a9b9f"/><path d="m45.721 4.329c.161.964.996 1.671 1.973 1.671h3.639l.667-4h-6.667z" fill="#a66a43"/></g></svg>