<svg id="Layer_1" enable-background="new 0 0 480.771 480.771" height="512" viewBox="0 0 480.771 480.771" width="512" xmlns="http://www.w3.org/2000/svg"><path d="m142.588 127.137c14.89-2.38 44.28.54 58.12 26.67-.913 3.5-6.509 23.584-26.906 34.837-17.604 9.712-34.642 6.451-38.954 5.493-7.97-23.03-4.59-65.02 7.74-67z" fill="#a07765"/><path d="m107.568 190.727c10.054 23.357 7.592 50.368-8.14 71.65-22.14 35.84-69.71 68.44-82.83 28.98-14.89-44.78-10.13-91.68 12.31-131.75 17.25-30.8 61.2-3.56 78.66 31.12z" fill="#a07765"/><path d="m424.638 166.547c0-13.3 10.78-36.55 24.07-36.55s24.06 23.25 24.06 36.55c0 13.29-10.77 24.06-24.06 24.06s-24.07-10.77-24.07-24.06z" fill="#fff0a6"/><path d="m449.178 190.597c-.16.01-.31.01-.47.01-13.29 0-24.07-10.77-24.07-24.06 0-13.3 10.78-36.55 24.07-36.55 5.91 0 11.32 4.6 15.51 10.88-12.134 4.745-26.899 33.34-15.04 49.72z" fill="#fff8d6"/><path d="m432.198 276.117c-102.982 31.588-210.832 32.957-311.79 6.63-1.078-5.439-1.93-10.703-2.61-16.12-72.379-6.451-33.913-98.622 17.05-72.49 19.44-18.11 42.2-31.76 65.86-40.33 41.93-15.18 86.71-14.39 120.92 5.88 26.39 15.63 46.49 42.86 54.15 83.28 6.81-2.05 14.398.221 18.91 6.12 1.703 2.226-6.171-8.064 16.66 21.77 7.97-3.46 16.24-.62 20.85 5.26z" fill="#e0b7a3"/><path d="m340.478 173.927c-95.802-42.795-155.684 40.373-189.009 35.891-30.199-4.062-52.071 31.565-40.461 55.899-62.991-11.374-25.513-96.887 23.84-71.58 59.264-55.209 152.69-70.595 205.63-20.21z" fill="#f2c8b5"/><path d="m394.688 249.087 16.66 21.77c-28.085 77.343-153.684 30.726-107.71-4.26l22.22-19.6c6.61-5.83 16.53-5.83 23.13.01l7.89 6.97 14.73-9.13c7.78-4.796 17.704-2.793 23.08 4.24z" fill="#cbe3fa"/><path d="m411.348 270.857c-2.2.96-4.42 1.88-6.66 2.77-.985-.754-11.507-20.999-28.08-10.78l-14.73 9.13-7.89-6.97c-6.6-5.84-16.52-5.84-23.13-.01l-18.6 16.41c-2-5.66-4.96-10.62-8.62-14.81l22.22-19.6c6.61-5.83 16.53-5.83 23.13.01l7.89 6.97 14.73-9.13c7.767-4.789 17.695-2.805 23.08 4.24z" fill="#eef7ff"/><path d="m411.348 270.857c-29.82 12.94-62.54 19.94-96.75 19.77-5.011-32.218-37.775-48.022-66.52-34.95-37.11-30.65-77.37 27.42-130.28 10.95 25.49 201.21 278.31 192.76 317.61 24.26 3.29-14.09-10.79-25.79-24.06-20.03z" fill="#c79a83"/><path d="m251.458 304.607c10.92 9.43 11.05 27.05-.63 36.48-12.09 9.75-27.17 14.41-42.71 11.57-6.02-1.09-11.01-5.25-13.23-10.95-4.9-12.55-7.13-25.7-6.84-38.82.22-9.71 8.56-17.39 18.26-16.84 16.84.96 32.48 7.61 45.15 18.56z" fill="#e0b7a3"/><path d="m240.848 296.867c-33.091-5.336-30.498 32.89-18.3 56.31-4.71.52-9.55.37-14.43-.52-6.02-1.09-11.01-5.25-13.23-10.95-4.9-12.55-7.13-25.7-6.84-38.82.22-9.71 8.56-17.39 18.26-16.84 12.4.71 24.15 4.5 34.54 10.82z" fill="#f2c8b5"/><g><path d="m255.848 347.311c15.487-12.499 15.606-36.002.838-48.76-14.313-12.365-31.576-19.451-49.92-20.491-14.262-.801-26.389 10.406-26.713 24.649-.326 14.419 2.158 28.52 7.384 41.908 9.435 24.174 46.467 20.406 68.411 2.694zm-49.988-53.276c14.79.838 28.748 6.587 40.367 16.624 7.125 6.157 7.405 17.88-.428 24.202-14.125 11.401-38.924 15.556-43.458 3.94-4.454-11.411-6.571-23.432-6.293-35.729.119-5.204 4.628-9.336 9.812-9.037z"/><circle cx="295.635" cy="213.225" r="8"/><path d="m456.763 123.668c-1.264-112.559-132.87-72.732-142.629 23.169-34.296-15.544-74.202-14.158-109.885-2.601-19.596-28.634-94.525-55.313-80.445 37.832-4.053-.678-8.079-.781-12.026-.325-14.465-24.732-39.496-43.092-60.223-43.549-12.623-.272-23.149 5.937-29.625 17.501-23.818 42.535-28.407 91.609-12.923 138.183 4.671 14.05 14.298 23.481 29.144 23.481 22.173 0 48.375-21.949 64.535-45.369 2.487.714 5.152 1.326 8.035 1.802 31.094 203.593 291.542 194.422 332.481 18.916 4.182-17.928-11.157-33.816-28.783-31.008l-13.374-17.478c-8-10.454-22.47-13.106-33.657-6.17l-9.668 5.994-3.429-3.031c-9.609-8.495-24.109-8.504-33.727-.019l-16.664 14.702c-14.297-12.057-34.821-16.312-54.633-9.142-30.18-20.717-61.097 4.419-93.148 12.565-4.282 1.088-6.872 5.441-5.783 9.724 1.088 4.282 5.439 6.872 9.724 5.783 34.327-8.723 60.276-31.486 82.924-12.786 2.359 1.948 5.622 2.379 8.404 1.114 23.849-10.844 51.076 1.794 55.307 28.902.605 3.88 3.938 6.747 7.864 6.767 34.824.158 68.385-6.723 99.975-20.433 7.256-3.148 14.882 3.182 13.086 10.882-37.113 159.095-277.426 169.594-301.887-23.455-.473-3.731-3.481-6.629-7.227-6.963-59.964-5.337-26.809-77.654 12.696-57.4 2.797 1.439 6.507 1.133 9.076-1.245 69.665-64.466 183.257-70.645 219.372 16.283 1.695 4.081 6.382 6.014 10.457 4.318 4.08-1.695 6.014-6.377 4.318-10.457-9.703-23.354-25.088-42.007-44.809-54.846 1.474-78.038 109.924-127.138 111.149-31.689-15.137 6.273-24.124 29.434-24.124 42.922 0 17.681 14.384 32.065 32.064 32.065s32.065-14.384 32.065-32.065c.001-13.453-8.939-36.531-24.007-42.874zm-142.339 144.082 16.726-14.754c3.58-3.157 8.973-3.152 12.545.007l7.887 6.972c2.645 2.338 6.511 2.667 9.515.806l14.725-9.129c4.161-2.58 9.543-1.593 12.519 2.294l10.292 13.45c-24.816 9.496-50.849 14.594-77.608 15.176-1.499-5.328-3.729-10.309-6.601-14.822zm-226.566-2.477c-15.63 21.61-37.994 37.558-51.549 35.983-3.568-.417-8.707-2.158-12.12-12.426-14.046-42.251-9.891-86.757 11.702-125.318 3.596-6.421 8.628-9.478 15.312-9.323 14.267.314 33.121 14.359 44.896 32.608-28.636 15.832-37.383 58.939-8.241 78.476zm100.728-115.22c-17.334 7.292-33.957 17.188-48.974 29.374-10.073-68.998 37.523-42.93 48.974-29.374zm260.12 32.555c-8.858 0-16.064-7.207-16.064-16.065 0-11.471 9.608-28.544 16.064-28.544s16.065 17.073 16.065 28.544c0 8.858-7.207 16.065-16.065 16.065z"/></g></svg>