<?xml version="1.0" encoding="UTF-8"?>
<svg xmlns="http://www.w3.org/2000/svg" id="Filled" viewBox="0 0 512 512" width="512" height="512"><path d="M312,128H488a0,0,0,0,1,0,0V256a32,32,0,0,1-32,32H440A128,128,0,0,1,312,160V128A0,0,0,0,1,312,128Z" transform="translate(800 416) rotate(180)" style="fill:#c3c6c7"/><path d="M459.969,252.5,400.023,245a64,64,0,0,1-52.778-43.267l-4.658-13.974A64,64,0,0,0,281.871,144H280a32,32,0,0,0-32,32V352a32,32,0,0,0,32,32h37.748A64,64,0,0,0,371,355.5l26-39A64,64,0,0,1,450.252,288H488v-3.751A32,32,0,0,0,459.969,252.5Z" style="fill:#e9eef2"/><path d="M200,160h16a32,32,0,0,1,32,32V352a16,16,0,0,1-16,16h0a64,64,0,0,1-64-64V192a32,32,0,0,1,32-32Z" style="fill:#dadcde"/><path d="M120,160h16a32,32,0,0,1,32,32V304a16,16,0,0,1-16,16h0a64,64,0,0,1-64-64V192A32,32,0,0,1,120,160Z" style="fill:#e9eef2"/><path d="M24,176H56a32,32,0,0,1,32,32v48a0,0,0,0,1,0,0h0a64,64,0,0,1-64-64V176A0,0,0,0,1,24,176Z" style="fill:#dadcde"/><path d="M360,120H344a39.966,39.966,0,0,0-34.762,20.192C301.345,137.542,291.782,136,280,136a40.065,40.065,0,0,0-37.5,26.077A39.828,39.828,0,0,0,216,152H200a39.964,39.964,0,0,0-32,16.028A39.964,39.964,0,0,0,136,152H120a40.065,40.065,0,0,0-37.5,26.077A39.828,39.828,0,0,0,56,168H24a8,8,0,0,0-8,8v16a72.1,72.1,0,0,0,64.4,71.6A72.1,72.1,0,0,0,152,328a23.846,23.846,0,0,0,11.195-2.78A72.126,72.126,0,0,0,232,376a23.865,23.865,0,0,0,13.345-4.063A40.015,40.015,0,0,0,280,392h40c38.287,0,58.409-28.834,76.163-54.274C411.788,315.336,425.282,296,448,296h40a8,8,0,0,0,8-8V256C496,181.01,434.99,120,360,120ZM80,247.419A56.078,56.078,0,0,1,32,192v-8H56a24.027,24.027,0,0,1,24,24ZM160,304a8.009,8.009,0,0,1-8,8,56.063,56.063,0,0,1-56-56V192a24.028,24.028,0,0,1,24-24h16a24.028,24.028,0,0,1,24,24Zm80,48a8.009,8.009,0,0,1-8,8,56.063,56.063,0,0,1-56-56V192a24.028,24.028,0,0,1,24-24h16a24.028,24.028,0,0,1,24,24Zm208-72c-31.063,0-48.294,24.691-64.958,48.569C366.019,352.961,349.941,376,320,376H280a24.027,24.027,0,0,1-24-24V176a24.027,24.027,0,0,1,24-24c38.446,0,45.308,16.885,54.805,40.254C346.346,220.654,360.709,256,440,256c14.471,0,25.463,4.727,32.672,14.047A37.488,37.488,0,0,1,478.165,280Zm-8-40c-68.522,0-79.136-26.118-90.372-53.77-5.66-13.928-11.772-28.953-26-38.9A23.972,23.972,0,0,1,344,136h16A120.133,120.133,0,0,1,479.981,254.49C471.148,246.222,458.2,240,440,240Z"/></svg>
