<svg id="Capa_1" enable-background="new 0 0 512.023 512.023" height="512" viewBox="0 0 512.023 512.023" width="512" xmlns="http://www.w3.org/2000/svg"><g><g><path d="m205.427 309.333-25.306-5.164c-48.952-11.832-100.683 3.714-135.004 40.57l-9.52 10.223 9.52 10.222c26.719 28.693 63.987 44.469 102.283 44.469z" fill="#0cba68"/><path d="m225.764 266.666c-26.813-39.879-72.574-63.371-120.864-61.65l-13.96.497-.497 13.96c-1.792 50.33 23.795 97.902 66.775 124.15l5.544 3.386z" fill="#04db7b"/></g><g><path d="m378.367 123.667h-19.273v30h19.273c37.528 0 68.06 30.531 68.06 68.06 0 37.528-30.531 68.06-68.06 68.06h-19.273v30h19.273c54.07 0 98.06-43.99 98.06-98.06-.001-54.071-43.99-98.06-98.06-98.06z" fill="#7fc0fd"/><g><path d="m346.668 115.333 14.418-115.333h-70.326l-10.667 53.334 10.667 61.999z" fill="#bc6b2c"/><path d="m234.852 115.333h55.908v-115.333h-70.325z" fill="#da7700"/></g><g><path d="m386.776 319.667-32.016-45.889v-177.778h-64l-10.667 106.667 10.667 128z" fill="#c4e2fe"/><path d="m226.76 170.667v103.111l-32.015 45.889 96.015 11v-234.667h-85.333z" fill="#ddeefe"/></g><g><path d="m369.76 269.062v-188.062h-79l-10.667 11.667 10.667 18.333h49v167.494l32.833 46.673 32.473-5.5z" fill="#afd7fd"/><path d="m185.541 81 26.219 91.767v96.295l-35.305 50.605 32.138 6 33.167-47.174v-109.927l-16.447-57.566h65.447v-30z" fill="#c4e2fe"/></g><g><path d="m476.426 477.448c0-36.306-10.98-71.236-31.754-101.012l-39.374-56.436h-114.538l-10.667 95.998 10.667 96.002h185.666z" fill="#fdc202"/><path d="m176.222 320.001-39.374 56.436c-20.774 29.776-31.755 64.706-31.755 101.012v34.551h185.667v-191.999z" fill="#fdd902"/></g><g><path d="m344.935 412.555 15.801-6.272-11.068-27.883-58.908 23.383-10.667 56.885 10.667 52.978c6.169-.645 12.289-2.129 18.21-4.48 16.965-6.734 30.292-19.672 37.526-36.43s7.51-35.329.775-52.294z" fill="#fda102"/><path d="m206.842 435.093 13.405 33.77c6.734 16.965 19.671 30.292 36.429 37.526 8.694 3.754 17.875 5.633 27.069 5.633 2.34 0 4.681-.134 7.014-.378v-109.862z" fill="#fdb902"/></g></g></g></svg>