<svg xmlns="http://www.w3.org/2000/svg" version="1.1" xmlns:xlink="http://www.w3.org/1999/xlink" xmlns:svgjs="http://svgjs.com/svgjs" width="512" height="512" x="0" y="0" viewBox="0 0 497 497" style="enable-background:new 0 0 512 512" xml:space="preserve" class=""><g><path fill="#9bd981" d="M235.275 336.582c42.052-23.729 96.2-19.844 134.745 13.624 30.285 26.296 43.84 64.691 39.725 101.749a47.925 47.925 0 0 1-35.758 41.182c-36.114 9.274-76.032 1.241-106.317-25.055-38.544-33.467-49.988-86.534-32.395-131.5z" data-original="#9bd981"></path><path fill="#8cd370" d="M288.065 321.568c-18.339.778-36.475 5.808-52.79 15.014-17.594 44.966-6.149 98.033 32.396 131.5.49.426.99.833 1.485 1.25 31.06-40.41 39.55-95.009 20.506-143.681z" data-original="#8cd370" class=""></path><path fill="#9bd981" d="M261.725 336.582c-42.052-23.729-96.2-19.844-134.745 13.624-30.285 26.296-43.84 64.691-39.725 101.749a47.925 47.925 0 0 0 35.758 41.182c36.114 9.274 76.032 1.241 106.317-25.055 38.544-33.467 49.988-86.534 32.395-131.5z" data-original="#9bd981"></path><path fill="#bae4a7" d="M145.7 462.52a7.501 7.501 0 0 1-3.39-14.194c42.058-21.267 45.758-75.045 45.791-75.586.248-4.13 3.801-7.286 7.924-7.044a7.494 7.494 0 0 1 7.051 7.906c-.145 2.556-4.125 62.891-53.997 88.11a7.476 7.476 0 0 1-3.379.808zM351.299 462.52a7.463 7.463 0 0 1-3.378-.809c-49.873-25.219-53.852-85.554-53.997-88.11a7.5 7.5 0 0 1 14.975-.861c.038.618 3.763 54.332 45.79 75.584a7.5 7.5 0 0 1 3.309 10.077 7.498 7.498 0 0 1-6.699 4.119z" data-original="#bae4a7"></path><path fill="#8cd370" d="M123.291 440.759c0-42.932 15.572-82.22 41.365-112.548a117.093 117.093 0 0 0-37.676 21.995c-30.285 26.295-43.84 64.691-39.725 101.749a47.928 47.928 0 0 0 35.758 41.183c2.956.759 5.939 1.39 8.939 1.917-5.614-17.085-8.661-35.333-8.661-54.296z" data-original="#8cd370" class=""></path><path fill="#fdbc20" d="M.305 266.939c7.34 117.66 142.949 181.929 248.199 100.12 105.18 81.75 240.849 17.6 248.189-100.12 2.84-45.5-14.08-73.79-48.91-119.639-39-51.33-99.56-99.2-179.989-142.29-12.08-6.47-26.5-6.48-38.58 0C148.774 48.1 88.225 95.97 49.225 147.3c-34.84 45.849-51.75 74.139-48.92 119.639z" data-original="#ffc9d3" class=""></path><ellipse cx="152.019" cy="233.715" fill="#fdbc20" rx="35.6" ry="28.35" data-original="#ff889e" class=""></ellipse><ellipse cx="344.981" cy="233.715" fill="#fdbc20" rx="35.6" ry="28.35" data-original="#ff889e" class=""></ellipse><g fill="#423e4f"><path d="M189.711 210.365a7.5 7.5 0 0 1-7.5-7.5c0-5.208-4.237-9.445-9.445-9.445s-9.444 4.237-9.444 9.445a7.5 7.5 0 0 1-15 0c0-13.479 10.966-24.445 24.444-24.445 13.479 0 24.445 10.966 24.445 24.445a7.5 7.5 0 0 1-7.5 7.5zM341.178 210.365a7.5 7.5 0 0 1-7.5-7.5c0-5.208-4.237-9.445-9.444-9.445-5.208 0-9.445 4.237-9.445 9.445a7.5 7.5 0 0 1-15 0c0-13.479 10.966-24.445 24.445-24.445s24.444 10.966 24.444 24.445a7.5 7.5 0 0 1-7.5 7.5zM248.5 238.359a31.337 31.337 0 0 1-23.628-10.761 7.5 7.5 0 0 1 11.309-9.855c3.11 3.569 7.601 5.616 12.32 5.616s9.209-2.047 12.319-5.616a7.5 7.5 0 0 1 11.309 9.855 31.345 31.345 0 0 1-23.629 10.761z" fill="#423e4f" data-original="#423e4f" class=""></path></g><path fill="#fdbc20" d="M96.927 243.818c0-75.971 23.756-145.437 65.308-198.761C114.391 77.142 76.522 111.372 49.224 147.3c-34.84 45.85-51.75 74.14-48.92 119.64 4.968 79.629 68.689 134.786 141.986 136.775-28.751-46.468-45.363-101.239-45.363-159.897z" data-original="#ffb2c1" class=""></path></g></svg>