<svg id="Capa_1" enable-background="new 0 0 512 512" height="512" viewBox="0 0 512 512" width="512" xmlns="http://www.w3.org/2000/svg" xmlns:xlink="http://www.w3.org/1999/xlink"><linearGradient id="SVGID_1_" gradientUnits="userSpaceOnUse" x1="256" x2="256" y1="427.896" y2="447.494"><stop offset="0" stop-color="#5a5a5a"/><stop offset="1" stop-color="#444"/></linearGradient><linearGradient id="lg1"><stop offset="0" stop-color="#fe9738"/><stop offset="1" stop-color="#ef4424"/></linearGradient><linearGradient id="SVGID_00000144305324600775019290000017431610982457799350_" gradientUnits="userSpaceOnUse" x1="220.474" x2="316.015" xlink:href="#lg1" y1="260.116" y2="491.211"/><linearGradient id="lg2"><stop offset="0" stop-color="#fff" stop-opacity="0"/><stop offset="1" stop-color="#fff"/></linearGradient><linearGradient id="SVGID_00000110450384362917243810000003366572753706333861_" gradientUnits="userSpaceOnUse" x1="224.967" x2="175.155" xlink:href="#lg2" y1="440.859" y2="488.221"/><linearGradient id="SVGID_00000114784455441198446700000006744461859919895957_" gradientUnits="userSpaceOnUse" x1="296.38" x2="235.952" xlink:href="#lg2" y1="397.431" y2="443.16"/><linearGradient id="SVGID_00000096775957367282188820000001551728754833036719_" gradientUnits="userSpaceOnUse" x1="375.21" x2="313.965" xlink:href="#lg2" y1="352.929" y2="398.658"/><linearGradient id="SVGID_00000025441134884474458130000011321317312463836076_" gradientUnits="userSpaceOnUse" x1="445.505" x2="394.06" xlink:href="#lg2" y1="322.581" y2="358.511"/><linearGradient id="SVGID_00000149356705492916236420000000445498024405746873_" gradientUnits="userSpaceOnUse" x1="503.449" x2="455.679" xlink:href="#lg2" y1="323.859" y2="354.481"/><linearGradient id="SVGID_00000047780003975475241580000010870342645511222677_" gradientUnits="userSpaceOnUse" x1="256" x2="256" y1="344.196" y2="418.187"><stop offset="0" stop-color="#fd5426" stop-opacity="0"/><stop offset=".309" stop-color="#f85126" stop-opacity=".309"/><stop offset=".6816" stop-color="#ea4825" stop-opacity=".682"/><stop offset="1" stop-color="#d73d24"/></linearGradient><linearGradient id="SVGID_00000035499380438537962580000007588920458209819781_" gradientUnits="userSpaceOnUse" x1="178.151" x2="496.509" xlink:href="#lg1" y1="200.378" y2="337.644"/><linearGradient id="SVGID_00000091002518904319100620000010743954552438604462_" gradientUnits="userSpaceOnUse" x1="115.872" x2="51.362" xlink:href="#lg2" y1="148.095" y2="117.064"/><linearGradient id="SVGID_00000124878728995409470330000000380328397874703257_" gradientUnits="userSpaceOnUse" x1="154.568" x2="115.372" xlink:href="#lg2" y1="383.166" y2="422.974"/><linearGradient id="SVGID_00000095318744438862359900000000617635524349200043_" gradientUnits="userSpaceOnUse" x1="183.304" x2="128.593" xlink:href="#lg2" y1="149.098" y2="122.967"/><linearGradient id="SVGID_00000085224923583328610780000013546528557327588516_" gradientUnits="userSpaceOnUse" x1="253.278" x2="204.282" xlink:href="#lg2" y1="336.225" y2="397.469"/><linearGradient id="SVGID_00000088130621901571128040000017889019853888457397_" gradientUnits="userSpaceOnUse" x1="266.513" x2="215.068" xlink:href="#lg2" y1="143.745" y2="115.981"/><linearGradient id="SVGID_00000019653950648764917190000013970117657100723129_" gradientUnits="userSpaceOnUse" x1="325.196" x2="297.432" xlink:href="#lg2" y1="299.665" y2="340.494"/><linearGradient id="SVGID_00000119101037657009107280000005029527620380169607_" gradientUnits="userSpaceOnUse" x1="350.281" x2="267.806" xlink:href="#lg2" y1="154.031" y2="114.018"/><linearGradient id="SVGID_00000101792985713392176770000018170197017280689053_" gradientUnits="userSpaceOnUse" x1="382.599" x2="358.102" xlink:href="#lg2" y1="261.602" y2="296.715"/><linearGradient id="SVGID_00000106865914462596816060000015632666097031774879_" gradientUnits="userSpaceOnUse" x1="433.846" x2="397.099" xlink:href="#lg2" y1="233.414" y2="266.078"/><linearGradient id="SVGID_00000079471870954738580730000000152183744917464452_" gradientUnits="userSpaceOnUse" x1="420.937" x2="358.06" xlink:href="#lg2" y1="178.362" y2="144.882"/><linearGradient id="SVGID_00000062906959604370940280000005288807199187739272_" gradientUnits="userSpaceOnUse" x1="525.034" x2="404.996" xlink:href="#lg2" y1="208.963" y2="205.697"/><g><path d="m512 303.388v106.408c0 18.059-11.959 34.004-29.365 38.798-6.375 1.753-13.677 3.248-21.753 4.072-58.85 6.083-314.265-1.392-359.232-3.54-20.808-.996-58.781-8.436-81.96-13.316-11.477-2.422-19.69-12.543-19.69-24.278v-82.267c0 11.048 9.175 19.863 20.224 19.485 39.812-1.409 79.262-6.942 117.699-16.443 44.966-11.117 88.592-27.681 129.864-49.434 30.43-16.031 63.351-23.763 95.946-23.763 48.901 0 97.063 17.388 135.002 50.276 5.189 4.501 13.265.875 13.265-5.998z" fill="url(#SVGID_1_)"/><path d="m512 303.388v78.643c0 18.059-11.959 34.004-29.365 38.798-6.375 1.753-13.677 3.248-21.753 4.072-58.85 6.083-314.265-1.392-359.232-3.54-20.808-.996-58.781-8.436-81.96-13.316-11.477-2.421-19.69-12.542-19.69-24.278v-54.502c0 11.048 9.175 19.863 20.224 19.485 39.812-1.409 79.262-6.942 117.699-16.443 44.966-11.117 88.592-27.681 129.864-49.434 30.43-16.031 63.351-23.763 95.946-23.763 48.901 0 97.063 17.388 135.002 50.276 5.189 4.501 13.265.875 13.265-5.998z" fill="url(#SVGID_00000144305324600775019290000017431610982457799350_)"/><path d="m460.883 424.902c8.076-.825 15.378-2.32 21.753-4.072 17.405-4.794 29.364-20.739 29.364-38.798v-78.643c0 6.873-8.076 10.498-13.265 5.997-37.939-32.887-86.101-50.276-135.002-50.276-32.595 0-65.516 7.732-95.946 23.763-41.272 21.753-84.898 38.317-129.864 49.434-17.55 4.339-35.32 7.807-53.231 10.476v23.305s50.625 9.686 95.073 57.912c94.249 2.629 238.712 5.285 281.118.902z" fill="url(#SVGID_00000110450384362917243810000003366572753706333861_)"/><path d="m498.735 309.385c-37.939-32.887-86.101-50.276-135.002-50.276-32.595 0-65.516 7.732-95.946 23.763-30.104 15.866-61.464 28.958-93.678 39.203v23.272s75.761 29.47 112.507 74.79c.019.023.038.046.057.07 3.345 4.098 8.471 6.332 13.76 6.411 68.525 1.013 134.137 1.004 160.45-1.716 8.076-.825 15.378-2.32 21.753-4.072 17.405-4.794 29.364-20.739 29.364-38.798v-78.643c0 6.872-8.076 10.498-13.265 5.996z" fill="url(#SVGID_00000114784455441198446700000006744461859919895957_)"/><path d="m498.735 309.385c-37.939-32.887-86.101-50.276-135.002-50.276-32.595 0-65.516 7.732-95.946 23.763-1.772.934-3.563 1.826-5.344 2.741v23.325s64.594 16.271 105.627 89.152c6.411 11.386 14.57 20.993 23.776 29.1 30.375-.175 55.167-.855 69.036-2.288 8.076-.825 15.378-2.32 21.753-4.072 17.406-4.794 29.365-20.739 29.365-38.798v-78.643c0 6.872-8.076 10.498-13.265 5.996z" fill="url(#SVGID_00000096775957367282188820000001551728754833036719_)"/><path d="m498.735 309.385c-37.939-32.887-86.101-50.276-135.002-50.276-3.142 0-6.287.094-9.433.239v23.232s88.15 47.431 133.179 136.536c14.732-6.195 24.52-20.761 24.52-37.085v-78.643c.001 6.873-8.075 10.499-13.264 5.997z" fill="url(#SVGID_00000025441134884474458130000011321317312463836076_)"/><path d="m498.735 309.385c-14.34-12.43-30.142-22.643-46.891-30.543v23.275s37.64 35.676 56.488 96.708c2.358-5.155 3.668-10.854 3.668-16.793v-78.643c0 6.872-8.076 10.498-13.265 5.996z" fill="url(#SVGID_00000149356705492916236420000000445498024405746873_)"/><path d="m198.873 313.573c-19.971 7.37-40.317 13.632-60.95 18.733-38.437 9.502-77.888 15.035-117.699 16.443-11.049.379-20.224-8.436-20.224-19.484v54.502c0 11.735 8.213 21.856 19.691 24.279 23.179 4.88 61.152 12.32 81.96 13.316 44.966 2.148 300.382 9.622 359.232 3.54 8.076-.825 15.378-2.32 21.753-4.072 17.405-4.794 29.364-20.739 29.364-38.798v-68.459z" fill="url(#SVGID_00000047780003975475241580000010870342645511222677_)"/><path d="m512 166.387v178.84c-39.588-40.997-93.455-62.853-148.267-62.853-32.595 0-65.516 7.732-95.946 23.763-41.272 21.753-84.898 38.317-129.864 49.434-38.444 9.508-77.894 15.045-117.693 16.448-11.047.389-20.23-8.434-20.23-19.487v-161.927c0-23.804 18.442-43.413 42.182-45.162 32.345-2.382 64.378-7.496 95.741-15.253 44.966-11.117 88.592-27.681 129.864-49.416 61.962-32.651 134.251-30.89 193.103.49 31.446 16.766 51.11 49.486 51.11 85.123z" fill="url(#SVGID_00000035499380438537962580000007588920458209819781_)"/><path d="m512 166.393v178.834c-39.588-40.997-93.455-62.853-148.267-62.853-32.595 0-65.516 7.732-95.946 23.763-41.272 21.753-84.898 38.317-129.864 49.434-15.103 3.729-30.361 6.856-45.757 9.365-2.474.412-4.983.79-7.474 1.151-17.715-34.416-54.743-58.369-78.231-88.042-.027-.034-.054-.069-.081-.103-4.221-5.365-6.38-12.063-6.38-18.888v-10.234c0-1.841 1.067-3.573 2.785-4.235.011-.004.022-.008.032-.012 31.753-12.062 53.523-64.554 68.609-102.046 2.131-.258 4.244-.533 6.375-.825 20.241-2.766 40.327-6.615 60.121-11.512 44.966-11.117 88.592-27.681 129.864-49.416 61.96-32.646 134.246-30.894 193.095.481 31.462 16.77 51.119 49.502 51.119 85.138z" fill="url(#SVGID_00000091002518904319100620000010743954552438604462_)"/><path d="m512 166.393v178.834c-39.588-40.997-93.455-62.853-148.267-62.853-32.595 0-65.516 7.732-95.946 23.763-41.272 21.753-84.898 38.317-129.864 49.434-15.103 3.729-30.361 6.856-45.757 9.365-2.474.412-4.983.79-7.474 1.151-17.715-34.416-54.743-58.369-78.231-88.042-.027-.034-.054-.069-.081-.103-4.221-5.365-6.38-12.063-6.38-18.888v-10.234c0-1.841 1.067-3.573 2.785-4.235.011-.004.022-.008.032-.012 31.753-12.062 53.523-64.554 68.609-102.046 2.131-.258 4.244-.533 6.375-.825 20.241-2.766 40.327-6.615 60.121-11.512 44.966-11.117 88.592-27.681 129.864-49.416 61.96-32.646 134.246-30.894 193.095.481 31.462 16.77 51.119 49.502 51.119 85.138z" fill="url(#SVGID_00000124878728995409470330000000380328397874703257_)"/><path d="m512 166.393v178.834c-39.588-40.997-93.455-62.853-148.267-62.853-32.595 0-65.516 7.732-95.946 23.763-27.286 14.382-55.585 26.495-84.64 36.238-2.99 1.031-6.014 2.027-9.038 2.973-17.526-31.805-50.877-55.482-76.547-75.499-11.701-9.124-13.282-25.069-3.643-34.777 28.11-28.368 47.234-69.348 62.097-109.675 4.639-1.306 9.278-2.663 13.883-4.107 33.695-10.43 66.479-23.969 97.888-40.516 61.96-32.646 134.246-30.894 193.095.481 31.461 16.77 51.118 49.502 51.118 85.138z" fill="url(#SVGID_00000095318744438862359900000000617635524349200043_)"/><path d="m512 166.393v178.834c-39.588-40.997-93.455-62.853-148.267-62.853-32.595 0-65.516 7.732-95.946 23.763-27.286 14.382-55.585 26.495-84.64 36.238-2.99 1.031-6.014 2.027-9.038 2.973-17.526-31.805-50.877-55.482-76.547-75.499-11.701-9.124-13.282-25.069-3.643-34.777 28.11-28.368 47.234-69.348 62.097-109.675 4.639-1.306 9.278-2.663 13.883-4.107 33.695-10.43 66.479-23.969 97.888-40.516 61.96-32.646 134.246-30.894 193.095.481 31.461 16.77 51.118 49.502 51.118 85.138z" fill="url(#SVGID_00000085224923583328610780000013546528557327588516_)"/><path d="m512 166.393v178.834c-39.588-40.997-93.455-62.853-148.267-62.853-30.43 0-61.135 6.736-89.829 20.688-2.045.979-4.089 2.01-6.117 3.076-1.787.945-3.557 1.873-5.344 2.801-17.389-24.846-47.406-41.942-73.798-54.124-11.684-5.395-13.213-20.567-3.643-33.265 29.141-38.695 49.176-85.465 65.224-131.909 3.454-1.667 6.873-3.368 10.275-5.103 2.44-1.237 4.863-2.491 7.285-3.763 61.96-32.646 134.246-30.894 193.095.481 31.462 16.769 51.119 49.501 51.119 85.137z" fill="url(#SVGID_00000088130621901571128040000017889019853888457397_)"/><path d="m512 166.393v178.834c-39.588-40.997-93.455-62.853-148.267-62.853-30.43 0-61.135 6.736-89.829 20.688-2.045.979-4.089 2.01-6.117 3.076-1.787.945-3.557 1.873-5.344 2.801-17.389-24.846-47.406-41.942-73.798-54.124-11.684-5.395-13.213-20.567-3.643-33.265 29.141-38.695 49.176-85.465 65.224-131.909 3.454-1.667 6.873-3.368 10.275-5.103 2.44-1.237 4.863-2.491 7.285-3.763 61.96-32.646 134.246-30.894 193.095.481 31.462 16.769 51.119 49.501 51.119 85.137z" fill="url(#SVGID_00000019653950648764917190000013970117657100723129_)"/><path d="m512 166.393v178.834c-39.193-40.602-92.389-62.423-146.651-62.836-.533-.017-1.082-.017-1.615-.017-3.144 0-6.289.069-9.433.206-16.529-27.32-45.585-47.44-74.554-59.468-11.684-4.845-13.23-21.066-3.643-35.688 25.67-39.193 44.691-83.627 60.207-128.576 5.412-.739 10.859-1.254 16.289-1.546 37.526-2.045 75.053 6.237 108.283 23.952 31.46 16.771 51.117 49.503 51.117 85.139z" fill="url(#SVGID_00000119101037657009107280000005029527620380169607_)"/><path d="m512 166.393v178.834c-39.193-40.602-92.389-62.423-146.651-62.836-.533-.017-1.082-.017-1.615-.017-3.144 0-6.289.069-9.433.206-16.529-27.32-45.585-47.44-74.554-59.468-11.684-4.845-13.23-21.066-3.643-35.688 25.67-39.193 44.691-83.627 60.207-128.576 5.412-.739 10.859-1.254 16.289-1.546 37.526-2.045 75.053 6.237 108.283 23.952 31.46 16.771 51.117 49.503 51.117 85.139z" fill="url(#SVGID_00000101792985713392176770000018170197017280689053_)"/><path d="m512 166.393v178.834c-16.203-16.787-34.777-30.344-54.846-40.516-1.753-.91-3.522-1.77-5.309-2.594-13.986-38.97-46.667-72.681-81.015-92.355-11.615-6.667-13.23-24.193-3.643-38.832 21.426-32.715 38.368-69.021 52.509-106.221 8.643 2.44 17.148 5.447 25.43 9.004 5.344 2.285 10.602 4.794 15.756 7.543 31.461 16.769 51.118 49.501 51.118 85.137z" fill="url(#SVGID_00000106865914462596816060000015632666097031774879_)"/><path d="m512 166.393v178.834c-16.203-16.787-34.777-30.344-54.846-40.516-1.753-.91-3.522-1.77-5.309-2.594-13.986-38.97-46.667-72.681-81.015-92.355-11.615-6.667-13.23-24.193-3.643-38.832 21.426-32.715 38.368-69.021 52.509-106.221 8.643 2.44 17.148 5.447 25.43 9.004 5.344 2.285 10.602 4.794 15.756 7.543 31.461 16.769 51.118 49.501 51.118 85.137z" fill="url(#SVGID_00000079471870954738580730000000152183744917464452_)"/><path d="m512 166.393v141.961c0-30.98-11.547-60.843-32.286-83.85-5.739-6.375-11.701-12.406-17.784-18.058-11.615-10.756-13.23-29.983-3.643-42.715 12.938-17.182 24.227-35.894 34.262-55.396 12.406 16.443 19.451 36.735 19.451 58.058z" fill="url(#SVGID_00000062906959604370940280000005288807199187739272_)"/></g></svg>