<svg id="圖層_1" height="512" viewBox="0 0 512 512" width="512" xmlns="http://www.w3.org/2000/svg"><path id="_x30_5_28_" d="m147.55 146.884c19.916-30.929 84.445-73.27 160.604-68.934 138.57 7.889 159.746 118.74 183.41 130.574 13.93 6.961 22.244 47.234 3.736 59.163-28.023 18.061-50.809 137.606-188.286 128.912-20.705-1.309-49.805-10.449-69.264-16.513-20.003-6.228-25.979-20.25-41.139-36.131-18.525-19.408-33.165-46.405-36.174-73.067-1.522-13.496-.068-28.243.074-41.872.087-8.93 3.882-17.914 2.929-26.643z" fill="#91bd00"/><path id="_x30_4_31_" d="m346.289 274.488c-3.669 93.133-68.563 159.298-166.472 159.867-76.238.441-144.983-41.601-140.176-79.272 3.576-28.005 130.645-53.183 130.645-78.396 0-59.134 38.167-159.917 81.099-159.917s97.998 79.14 94.904 157.718z" fill="#669c4e"/><path id="_x30_3_32_" d="m476.407 222.692c-4.184 0-7.574 9.084-7.574 20.289s3.391 20.286 7.574 20.286c4.186 0 7.582-9.081 7.582-20.286s-3.396-20.289-7.582-20.289zm-287.056-124.209c-84.85 0-184.804 88.734-183.334 191.403 1.118 78.363 56.323 128.958 140.801 121.004 101.202-9.53 169.334-94.831 167.933-192.139-1.124-78.361-40.548-120.268-125.4-120.268z" fill="#f6ecfa"/><path id="_x30_2" d="m227.862 317.952c16.482-8.545 26.161-25.172 30.667-37.5 4.065-11.124 5.38-22.307 5.5-28.334l-90.333 4.5zm36.5-128.167c-6.272-16.107-20.712-36.204-50.833-42.5l-45.833 94.999 98.833-5.166c3.7-7.622 5.663-27.229-2.167-47.333zm-65.833-45.667c-2.816-1.091-11.875-3.167-21.333-3.167-24.751 0-57.833 10.333-75.5 36.167l53.167 58.834zm-107.5 43c-14.093 10.267-48.648 55.287-36.5 101.167l91.333-40.667zm-33.833 115.667c-2.288 13.817 4.827 27.28 10.833 34.833 11.768 14.796 28.667 25.834 54.167 25.167l23.333-99.833zm79.666 60c2.189.258 8.303.666 11.5.666 8.364 0 47.149-2.666 69.333-34.5l-57.5-65.166z" fill="#91bd00"/><path id="_x30_1" d="m511.909 239.591c-.764-13.998-6.832-31.689-18.357-37.451-4.201-2.102-10.355-12.131-16.871-22.75-23.348-38.052-62.422-101.74-168.271-107.767-38.54-2.212-73.86 7.142-102.388 20.931-5.192-.353-10.544-.539-16.082-.539-44.051 0-92.847 22.821-130.527 61.045-38.788 39.347-62.595 88.007-59.068 136.672 9.587 132.331 135.514 149.348 180.165 150.869 44.443 1.515 84.555-14.354 114.07-38.949 4.104.648 21.514 1.885 26.205 1.885 95.323 0 133.95-63.944 157.03-102.151 7.744-12.818 14.434-23.889 20.148-27.574 9.71-6.259 14.79-18.729 13.946-34.221zm-496.713 49.93c-.633-44.134 19.338-90.072 54.791-126.036 34.951-35.453 79.792-56.618 119.952-56.618 77.764 0 116.094 36.694 117.179 112.183 1.378 95.834-67.467 174.687-160.138 183.417-5.516.519-30.716 3.095-59.553-5.91-44.556-13.911-71.467-53.661-72.231-107.036zm165.227 136.229s-40.232 1.883-63.128-8.946c2.245.087 25.1 1.011 31.078.447 100.457-9.464 175.086-94.763 173.597-198.415-.157-10.935-1.083-21.136-2.694-30.669 12.15 24.752 20.403 54.852 19.184 85.864-3.554 90.22-67.064 151.19-158.037 151.719zm309.498-164.424c-8.607 5.545-15.76 17.387-24.816 32.381-22.85 37.818-57.375 94.979-144.318 94.979-3.921 0-7.978-.16-12.043-.391 26.687-28.645 42.747-67.682 44.557-113.679 2.207-56.084-24.146-109.623-51.237-137.803-4.354-4.532-29.445-32.816-66.98-40.039 21.755-7.453 46.4-11.815 72.482-10.324 98.099 5.586 134.632 65.129 156.46 100.705 8.645 14.088 14.887 24.268 22.887 28.268 4.285 2.143 9.514 12.926 10.172 24.975.535 9.871-2.145 17.692-7.164 20.928zm-14.75-38.466c-4.156 0-7.527 9.027-7.527 20.16 0 11.135 3.371 20.161 7.527 20.161 4.16 0 7.531-9.026 7.531-20.161 0-11.132-3.371-20.16-7.531-20.16zm-240.956 108.65c21.795-10.845 32.969-31.2 38.538-46.647 5.003-13.878 7.262-29.294 5.943-38.754 8.269-13.569 8.434-39.96-.156-62.016-6.949-17.844-25.543-48.278-72.289-53.411-8.182-4.42-21.528-4.931-27.227-4.931-30.481 0-70.657 12.425-93.144 47.115-10.188 5.872-25.632 22.63-36.151 43.184-10.255 20.039-19.662 50.708-7.165 84.043-2.787 15.63 1.891 31.996 13.317 46.363 15.021 18.886 39.166 31.574 60.081 31.574 4.394 0 8.538-.57 12.36-1.7 4.584 1.304 10.719 2.008 17.703 2.007 29.882-.001 68.374-12.358 88.19-46.827zm23.345-51.685c-4.506 12.33-13.303 28.439-29.785 36.984l-53.304-59.688 88.598-4.423c-.121 6.029-1.444 16.004-5.509 27.127zm-44.088-131.816c30.121 6.296 43.886 25.782 50.159 41.89 7.83 20.104 5.786 39.026 2.086 46.648l-96.696 4.827zm-34.448-6.259c9.458 0 15.7 1.408 18.517 2.499l-43.074 90.474-51.764-57.961c19.513-25.659 51.57-35.012 76.321-35.012zm-123.792 145.433c-12.148-45.879 22.171-88.682 36.265-98.948l52.315 58.579zm66.38 74.31c-1.763.345-3.642.537-5.649.537-15.79 0-35.791-10.738-47.559-25.534-6.007-7.553-12.458-19.282-10.169-33.099l86.284-39.323zm16.341.407 22.642-96.294 56.417 63.172c-22.185 31.834-62.624 33.559-70.987 33.559-3.197 0-5.883-.179-8.072-.437z"/></svg>