<svg id="Capa_1" enable-background="new 0 0 512.014 512.014" height="512" viewBox="0 0 512.014 512.014" width="512" xmlns="http://www.w3.org/2000/svg"><g><path d="m307.872 89.355h-226.595c-4.839 0-8.762-3.923-8.762-8.762v-64.331c0-4.839 3.923-8.762 8.762-8.762h226.595c4.839 0 8.762 3.923 8.762 8.762v64.331c0 4.839-3.923 8.762-8.762 8.762z" fill="#f4dd45"/><path d="m307.872 7.5h-31.238v23.503c0 21.181-17.171 38.352-38.352 38.352h-165.767v11.238c0 4.839 3.923 8.762 8.762 8.762h226.595c4.839 0 8.762-3.923 8.762-8.762v-64.331c0-4.839-3.923-8.762-8.762-8.762z" fill="#f1d333"/><path d="m296.676 124.105v-34.75h-204.203v34.75c0 3.37-1.914 6.413-4.899 7.976-31.375 16.427-52.784 49.297-52.784 87.167v259.331c0 14.316 11.605 25.921 25.921 25.921h267.728c14.316 0 25.921-11.605 25.921-25.921v-259.331c0-37.87-21.409-70.74-52.784-87.167-2.986-1.563-4.9-4.607-4.9-7.976z" fill="#f9f6f9"/><path d="m301.576 132.081c-2.985-1.563-4.899-4.607-4.899-7.976v-34.75h-40v14.75c0 3.318 1.83 6.375 4.772 7.91 31.444 16.405 52.911 49.312 52.911 87.234v178.018c0 59.224-48.01 107.234-107.234 107.234h-171.657c2.678 11.462 12.963 20 25.241 20h267.728c14.316 0 25.921-11.605 25.921-25.921v-259.332c0-37.87-21.409-70.74-52.783-87.167z" fill="#efecef"/><path d="m34.79 219.248h319.57v219.465h-319.57z" fill="#f4dd45"/><path d="m314.359 219.248v158.018c0 22.858-7.152 44.046-19.341 61.448h59.341v-219.466z" fill="#f1d333"/><path d="m90.828 409.584h-56.038v-161.206h56.038c3.647 0 6.603 2.956 6.603 6.603v148.001c0 3.646-2.956 6.602-6.603 6.602z" fill="#f9f6f9"/><path d="m234.44 413.713c-26.971 0-48.914-21.943-48.914-48.915v-71.636c0-26.971 21.943-48.914 48.914-48.914s48.914 21.943 48.914 48.914c0 7.233-5.864 13.096-13.096 13.096s-13.096-5.864-13.096-13.096c0-12.529-10.193-22.722-22.722-22.722s-22.722 10.193-22.722 22.722v71.636c0 12.529 10.193 22.722 22.722 22.722s22.722-10.193 22.722-22.722c0-7.233 5.864-13.096 13.096-13.096s13.096 5.864 13.096 13.096c0 26.972-21.942 48.915-48.914 48.915z" fill="#f9f6f9"/><path d="m457.566 499.224c18.814-10.862 25.26-34.919 14.398-53.732l-44.263-76.665c-10.862-18.814-34.919-25.26-53.732-14.398-18.814 10.862-25.26 34.919-14.398 53.732l44.263 76.665c10.861 18.814 34.918 25.26 53.732 14.398z" fill="#f9efaf"/><path d="m471.963 445.491-44.263-76.665c-8.265-14.315-24.168-21.469-39.589-19.288l43.851 75.953c10.862 18.813 4.416 42.87-14.398 53.732-4.499 2.597-9.297 4.204-14.144 4.89l.411.713c10.862 18.814 34.919 25.26 53.732 14.398 18.816-10.862 25.262-34.919 14.4-53.733z" fill="#f6e781"/><path d="m97.431 24.916c-4.142 0-7.5 3.358-7.5 7.5v32.022c0 4.142 3.358 7.5 7.5 7.5s7.5-3.358 7.5-7.5v-32.022c0-4.142-3.358-7.5-7.5-7.5z"/><path d="m125.186 24.916c-4.142 0-7.5 3.358-7.5 7.5v32.022c0 4.142 3.358 7.5 7.5 7.5s7.5-3.358 7.5-7.5v-32.022c0-4.142-3.358-7.5-7.5-7.5z"/><path d="m152.942 71.938c4.142 0 7.5-3.358 7.5-7.5v-32.022c0-4.142-3.358-7.5-7.5-7.5s-7.5 3.358-7.5 7.5v32.022c0 4.143 3.357 7.5 7.5 7.5z"/><path d="m180.697 71.938c4.142 0 7.5-3.358 7.5-7.5v-32.022c0-4.142-3.358-7.5-7.5-7.5s-7.5 3.358-7.5 7.5v32.022c0 4.143 3.358 7.5 7.5 7.5z"/><path d="m208.452 71.938c4.142 0 7.5-3.358 7.5-7.5v-32.022c0-4.142-3.358-7.5-7.5-7.5s-7.5 3.358-7.5 7.5v32.022c0 4.143 3.358 7.5 7.5 7.5z"/><path d="m236.208 71.938c4.142 0 7.5-3.358 7.5-7.5v-32.022c0-4.142-3.358-7.5-7.5-7.5s-7.5 3.358-7.5 7.5v32.022c0 4.143 3.358 7.5 7.5 7.5z"/><path d="m263.963 71.938c4.142 0 7.5-3.358 7.5-7.5v-32.022c0-4.142-3.358-7.5-7.5-7.5s-7.5 3.358-7.5 7.5v32.022c0 4.143 3.358 7.5 7.5 7.5z"/><path d="m291.718 71.938c4.142 0 7.5-3.358 7.5-7.5v-32.022c0-4.142-3.358-7.5-7.5-7.5s-7.5 3.358-7.5 7.5v32.022c0 4.143 3.358 7.5 7.5 7.5z"/><path d="m133.119 128.419h122.911c4.142 0 7.5-3.358 7.5-7.5s-3.358-7.5-7.5-7.5h-122.911c-4.142 0-7.5 3.358-7.5 7.5s3.358 7.5 7.5 7.5z"/><path d="m234.44 277.941c8.393 0 15.222 6.829 15.222 15.222 0 11.357 9.239 20.596 20.596 20.596s20.596-9.239 20.596-20.596c0-31.107-25.307-56.414-56.414-56.414s-56.414 25.307-56.414 56.414v24.461c0 4.142 3.358 7.5 7.5 7.5s7.5-3.358 7.5-7.5v-24.461c0-22.836 18.578-41.414 41.414-41.414s41.414 18.578 41.414 41.414c0 3.086-2.51 5.596-5.596 5.596s-5.596-2.51-5.596-5.596c0-16.665-13.558-30.222-30.222-30.222s-30.222 13.557-30.222 30.222v71.636c0 16.665 13.558 30.222 30.222 30.222s30.222-13.558 30.222-30.222c0-3.086 2.51-5.596 5.596-5.596s5.596 2.51 5.596 5.596c0 22.836-18.578 41.415-41.414 41.415s-41.414-18.579-41.414-41.415v-12.175c0-4.142-3.358-7.5-7.5-7.5s-7.5 3.358-7.5 7.5v12.175c0 31.107 25.307 56.415 56.414 56.415s56.414-25.308 56.414-56.415c0-11.357-9.239-20.596-20.596-20.596s-20.596 9.239-20.596 20.596c0 8.394-6.829 15.222-15.222 15.222s-15.222-6.829-15.222-15.222v-71.636c0-8.393 6.829-15.222 15.222-15.222z"/><path d="m478.459 441.741-44.263-76.665c-12.913-22.365-41.614-30.055-63.978-17.143-3.04 1.755-5.836 3.812-8.359 6.132v-60.239c0-4.142-3.358-7.5-7.5-7.5s-7.5 3.358-7.5 7.5v137.387h-304.569v-14.129h48.539c7.776 0 14.103-6.326 14.103-14.103v-148.001c0-7.776-6.327-14.103-14.103-14.103h-48.539v-14.129h304.57v32.078c0 4.142 3.358 7.5 7.5 7.5s7.5-3.358 7.5-7.5v-39.578c0-39.52-21.767-75.466-56.805-93.811-.542-.284-.878-.794-.878-1.333v-27.25h3.696c8.967 0 16.262-7.295 16.262-16.262v-64.33c-.001-8.967-7.296-16.262-16.263-16.262h-226.595c-8.967 0-16.262 7.295-16.262 16.262v64.331c0 8.967 7.295 16.262 16.262 16.262h3.696v27.25c0 .538-.336 1.048-.878 1.332-35.039 18.346-56.805 54.292-56.805 93.812v259.331c0 18.427 14.992 33.42 33.421 33.42h267.728c18.428 0 33.421-14.993 33.421-33.421v-51.454l35.479 61.451c6.255 10.834 16.354 18.583 28.438 21.821 12.053 3.231 24.68 1.591 35.539-4.679 22.365-12.912 30.055-41.612 17.143-63.977zm-436.169-39.657v-15.424h30.226c4.142 0 7.5-3.358 7.5-7.5s-3.358-7.5-7.5-7.5h-30.226v-15.425h30.226c4.142 0 7.5-3.358 7.5-7.5s-3.358-7.5-7.5-7.5h-30.226v-15.424h30.226c4.142 0 7.5-3.358 7.5-7.5s-3.358-7.5-7.5-7.5h-30.226v-14.125h47.642v105.399h-47.642zm47.641-146.207v25.808h-47.641v-25.808zm1.121-117.151c5.502-2.881 8.921-8.483 8.921-14.621v-27.25h26.354c4.142 0 7.5-3.358 7.5-7.5s-3.358-7.5-7.5-7.5h-45.05c-.696 0-1.262-.566-1.262-1.262v-64.331c0-.696.566-1.262 1.262-1.262h226.595c.696 0 1.262.566 1.262 1.262v64.331c0 .696-.566 1.262-1.262 1.262h-146.545c-4.142 0-7.5 3.358-7.5 7.5s3.358 7.5 7.5 7.5h127.85v27.25c0 6.137 3.418 11.74 8.92 14.621 27.845 14.579 45.925 42.104 48.456 73.022h-303.956c2.531-30.918 20.611-58.444 48.455-73.022zm237.387 358.274h-267.728c-10.157 0-18.421-8.264-18.421-18.421v-32.366h304.57v32.366c-.001 10.157-8.264 18.421-18.421 18.421zm125.377-4.271c-15.202 8.776-34.71 3.549-43.487-11.652l-44.263-76.665c-8.763-15.178-3.646-34.654 11.652-43.487 15.176-8.761 34.657-3.642 43.487 11.652l44.263 76.665c8.777 15.201 3.55 34.71-11.652 43.487z"/><path d="m424.504 413.122-24.975 14.419c-3.587 2.071-4.816 6.658-2.745 10.245 2.077 3.599 6.668 4.811 10.245 2.745l24.975-14.419c3.587-2.071 4.816-6.658 2.745-10.245s-6.657-4.817-10.245-2.745z"/></g></svg>