<svg id="Flat" height="512" viewBox="0 0 512 512" width="512" xmlns="http://www.w3.org/2000/svg"><path d="m440 24v320s-3.98 64.39-48 104-112 40-112 40v-320s3.98-64.39 48-104 112-40 112-40z" fill="#ffd33a"/><path d="m72 488v-320s3.98-64.39 48-104 112-40 112-40v320s-3.98 64.39-48 104-112 40-112 40z" fill="#ffd33a"/><path d="m344 376c-26.41 30.812-32 80-32 80s37.59-1.188 64-32 32-80 32-80-37.59 1.188-64 32z" fill="#ffb632"/><g fill="#f2c837"><path d="m408 320c-4.418 0-8-3.582-8-8v-256c0-4.418 3.582-8 8-8s8 3.582 8 8v256c0 4.418-3.582 8-8 8z"/><path d="m376 320c-4.418 0-8-3.582-8-8v-240c0-4.418 3.582-8 8-8s8 3.582 8 8v240c0 4.418-3.582 8-8 8z"/><path d="m344 344c-4.418 0-8-3.582-8-8v-240c0-4.418 3.582-8 8-8s8 3.582 8 8v240c0 4.418-3.582 8-8 8z"/><path d="m312 392c-4.418 0-8-3.582-8-8v-256c0-4.418 3.582-8 8-8s8 3.582 8 8v256c0 4.418-3.582 8-8 8z"/></g><path d="m168 136c26.41-30.812 32-80 32-80s-37.59 1.188-64 32-32 80-32 80 37.59-1.188 64-32z" fill="#ffb632"/><path d="m104 464c-4.418 0-8-3.582-8-8v-256c0-4.418 3.582-8 8-8s8 3.582 8 8v256c0 4.418-3.582 8-8 8z" fill="#f2c837"/><path d="m136 448c-4.418 0-8-3.582-8-8v-240c0-4.418 3.582-8 8-8s8 3.582 8 8v240c0 4.418-3.582 8-8 8z" fill="#f2c837"/><path d="m168 424c-4.418 0-8-3.582-8-8v-240c0-4.418 3.582-8 8-8s8 3.582 8 8v240c0 4.418-3.582 8-8 8z" fill="#f2c837"/><path d="m200 392c-4.418 0-8-3.582-8-8v-256c0-4.418 3.582-8 8-8s8 3.582 8 8v256c0 4.418-3.582 8-8 8z" fill="#f2c837"/></svg>