<?xml version="1.0" encoding="UTF-8" standalone="no"?>
<!-- Created with Inkscape (http://www.inkscape.org/) -->

<svg
   version="1.1"
   id="svg6219"
   xml:space="preserve"
   width="682.66669"
   height="682.66669"
   viewBox="0 0 682.66669 682.66669"
   xmlns="http://www.w3.org/2000/svg"
   xmlns:svg="http://www.w3.org/2000/svg"><defs
     id="defs6223"><clipPath
       clipPathUnits="userSpaceOnUse"
       id="clipPath6233"><path
         d="M 0,512 H 512 V 0 H 0 Z"
         id="path6231" /></clipPath></defs><g
     id="g6225"
     transform="matrix(1.3333333,0,0,-1.3333333,0,682.66667)"><g
       id="g6227"><g
         id="g6229"
         clip-path="url(#clipPath6233)"><g
           id="g6235"
           transform="translate(237.8594,187.0713)"><path
             d="m 0,0 c -108.555,0 -222.951,21.714 -204.329,85.732 18.623,64.019 155.633,140.479 288.652,140.479 133.019,0 158.292,-102.982 158.292,-128.962 C 242.615,60.629 214.971,0 0,0"
             style="fill:#495560;fill-opacity:1;fill-rule:nonzero;stroke:none"
             id="path6237" /></g><g
           id="g6239"
           transform="translate(235.4014,403.1914)"><path
             d="m 0,0 c -100.627,-22.841 -187.331,-80.405 -201.871,-130.388 -18.622,-64.018 95.774,-85.732 204.329,-85.732 17.111,0 33.03,0.386 47.848,1.111 C -12.848,-177.912 -40.543,-55.968 0,0"
             style="fill:#333941;fill-opacity:1;fill-rule:nonzero;stroke:none"
             id="path6241" /></g><g
           id="g6243"
           transform="translate(316.917,369.9238)"><path
             d="m 0,0 c -122.436,0 -248.544,-70.376 -265.686,-129.301 -1.546,-5.32 -2.083,-10.317 -1.728,-15.016 34.377,-28.003 112.774,-38.536 188.356,-38.536 135.869,0 196.892,24.22 223.415,51.29 0.971,4.512 1.34,8.845 1.34,12.863 C 145.697,-94.789 122.435,0 0,0"
             style="fill:#f0b99a;fill-opacity:1;fill-rule:nonzero;stroke:none"
             id="path6245" /></g><g
           id="g6247"
           transform="translate(217.833,355.7656)"><path
             d="m 0,0 c -84.238,-23.532 -154.153,-72.353 -166.602,-115.143 -1.546,-5.32 -2.083,-10.317 -1.728,-15.016 34.377,-28.003 112.774,-38.535 188.356,-38.535 17.111,0 33.032,0.384 47.849,1.11 C 19.294,-139.048 -8.3,-60.304 0,0"
             style="fill:#e59a6d;fill-opacity:1;fill-rule:nonzero;stroke:none"
             id="path6249" /></g><g
           id="g6251"
           transform="translate(398.9297,238)"><path
             d="m 0,0 c -31.422,11.556 -2.674,51.445 -42.994,57.291 -34.941,5.065 -52.694,-49.394 -104.092,-44.339 -22.549,2.219 -12.594,23.841 -38.897,23.921 -24.158,0.073 -33.681,-24.177 -58.432,-29.966 -40.221,-9.408 -96.644,-26.979 -91.387,-59.451 H 49.942 C 53.527,-30.401 31.423,-11.556 0,0"
             style="fill:#fff2d0;fill-opacity:1;fill-rule:nonzero;stroke:none"
             id="path6253" /></g><g
           id="g6255"
           transform="translate(225.1328,272.4482)"><path
             d="m 0,0 c -2.938,1.476 -6.792,2.408 -12.187,2.425 -24.157,0.073 -33.68,-24.177 -58.431,-29.967 -40.221,-9.407 -96.644,-26.979 -91.387,-59.45 H 9.121 C -12.409,-57.051 -19.816,-27.075 0,0"
             style="fill:#fde4a1;fill-opacity:1;fill-rule:nonzero;stroke:none"
             id="path6257" /></g><g
           id="g6259"
           transform="translate(212.25,204.1973)"><path
             d="m 0,0 c 0,-11.252 -11.454,-20.373 -25.583,-20.373 -14.128,0 -25.582,9.121 -25.582,20.373 0,11.251 11.454,20.372 25.582,20.372 C -11.454,20.372 0,11.251 0,0"
             style="fill:#ffa2ad;fill-opacity:1;fill-rule:nonzero;stroke:none"
             id="path6261" /></g><g
           id="g6263"
           transform="translate(299.75,204.1973)"><path
             d="m 0,0 c 0,-11.252 11.454,-20.373 25.583,-20.373 14.128,0 25.582,9.121 25.582,20.373 0,11.251 -11.454,20.372 -25.582,20.372 C 11.454,20.372 0,11.251 0,0"
             style="fill:#ffa2ad;fill-opacity:1;fill-rule:nonzero;stroke:none"
             id="path6265" /></g><g
           id="g6267"
           transform="translate(256,98.7178)"><path
             d="M 0,0 C 149.712,0 273.055,39.129 244.313,71.453 215.572,103.777 74.856,96.322 0,96.322 c -74.856,0 -215.572,7.455 -244.313,-24.869 C -273.055,39.129 -149.712,0 0,0"
             style="fill:#495560;fill-opacity:1;fill-rule:nonzero;stroke:none"
             id="path6269" /></g><g
           id="g6271"
           transform="translate(213.6523,195.4453)"><path
             d="m 0,0 c -76.529,0.977 -178.041,1.634 -201.966,-25.273 -28.741,-32.326 94.602,-71.455 244.314,-71.455 1.615,0 3.222,0.011 4.832,0.02 C -17.922,-78.513 -13.433,-20.727 0,0"
             style="fill:#333941;fill-opacity:1;fill-rule:nonzero;stroke:none"
             id="path6273" /></g><g
           id="g6275"
           transform="translate(96.0869,149.0215)"><path
             d="M 0,0 C 10.127,-4.501 51.14,-11.854 70.863,-11.854"
             style="fill:none;stroke:#495560;stroke-width:15;stroke-linecap:round;stroke-linejoin:miter;stroke-miterlimit:10;stroke-dasharray:none;stroke-opacity:1"
             id="path6277" /></g><g
           id="g6279"
           transform="translate(342.8467,155.4248)"><path
             d="M 0,0 C 8.812,0 47.392,2.376 65.015,4.98"
             style="fill:none;stroke:#333941;stroke-width:15;stroke-linecap:round;stroke-linejoin:miter;stroke-miterlimit:10;stroke-dasharray:none;stroke-opacity:1"
             id="path6281" /></g><g
           id="g6283"
           transform="translate(486.8398,139.4551)"><path
             d="m 0,0 c 16.654,9.978 22.401,20.675 13.474,30.716 -28.742,32.324 -169.457,24.869 -244.314,24.869 -74.856,0 -215.572,7.455 -244.313,-24.869 -28.742,-32.324 94.601,-71.453 244.313,-71.453 80.015,0 152.496,11.176 198.254,26.518"
             style="fill:none;stroke:#000000;stroke-width:15;stroke-linecap:round;stroke-linejoin:round;stroke-miterlimit:10;stroke-dasharray:none;stroke-opacity:1"
             id="path6285" /></g><g
           id="g6287"
           transform="translate(449.2441,189.7578)"><path
             d="m 0,0 c 0.273,20.275 -20.948,37.443 -50.313,48.242 -31.423,11.556 -2.675,51.446 -42.996,57.291 -34.94,5.066 -52.694,-49.393 -104.091,-44.339 -22.549,2.219 -12.594,23.841 -38.898,23.921 -24.157,0.073 -33.68,-24.177 -58.431,-29.967 -38.405,-8.982 -91.577,-25.409 -91.725,-55.142"
             style="fill:none;stroke:#000000;stroke-width:15;stroke-linecap:round;stroke-linejoin:round;stroke-miterlimit:10;stroke-dasharray:none;stroke-opacity:1"
             id="path6289" /></g><g
           id="g6291"
           transform="translate(201.5771,233.5537)"><path
             d="M 0,0 V -9.034"
             style="fill:none;stroke:#000000;stroke-width:15;stroke-linecap:round;stroke-linejoin:round;stroke-miterlimit:10;stroke-dasharray:none;stroke-opacity:1"
             id="path6293" /></g><g
           id="g6295"
           transform="translate(310.4229,233.5537)"><path
             d="M 0,0 V -9.034"
             style="fill:none;stroke:#000000;stroke-width:15;stroke-linecap:round;stroke-linejoin:round;stroke-miterlimit:10;stroke-dasharray:none;stroke-opacity:1"
             id="path6297" /></g><g
           id="g6299"
           transform="translate(241.6514,224.1191)"><path
             d="m 0,0 c 3.489,-4.003 8.621,-6.536 14.349,-6.536 5.727,0 10.859,2.533 14.348,6.536"
             style="fill:none;stroke:#000000;stroke-width:15;stroke-linecap:round;stroke-linejoin:round;stroke-miterlimit:10;stroke-dasharray:none;stroke-opacity:1"
             id="path6301" /></g><g
           id="g6303"
           transform="translate(91.2842,340.7412)"><path
             d="m 0,0 c -30.243,-21.632 -51.24,-45.546 -57.754,-67.938 -8.125,-27.933 9.078,-47.811 40.068,-61.347"
             style="fill:none;stroke:#000000;stroke-width:15;stroke-linecap:round;stroke-linejoin:round;stroke-miterlimit:10;stroke-dasharray:none;stroke-opacity:1"
             id="path6305" /></g><g
           id="g6307"
           transform="translate(433.8018,218.6709)"><path
             d="m 0,0 c 38.956,20.267 46.674,46.307 46.674,65.649 0,25.98 -25.275,128.962 -158.293,128.962 -72.255,0 -145.687,-22.559 -200.683,-53.43"
             style="fill:none;stroke:#000000;stroke-width:15;stroke-linecap:round;stroke-linejoin:round;stroke-miterlimit:10;stroke-dasharray:none;stroke-opacity:1"
             id="path6309" /></g><g
           id="g6311"
           transform="translate(461.2744,238.3604)"><path
             d="m 0,0 c 0.971,4.513 1.34,8.846 1.34,12.863 0,23.911 -23.263,118.7 -145.697,118.7 -122.436,0 -248.544,-70.375 -265.686,-129.3 -1.547,-5.321 -2.083,-10.318 -1.728,-15.017"
             style="fill:none;stroke:#000000;stroke-width:15;stroke-linecap:round;stroke-linejoin:round;stroke-miterlimit:10;stroke-dasharray:none;stroke-opacity:1"
             id="path6313" /></g></g></g></g></svg>
