<svg id="Слой_1" height="512" viewBox="0 0 512 512" width="512" xmlns="http://www.w3.org/2000/svg" data-name="Слой 1"><path d="m159.7 277.71s-43.91-78.84-136.3-82.83c0 0 36.76-43.75 122.33 24.95 0 0 16.47 22.45 13.97 57.88z" fill="#91ad48"/><path d="m129.46 280s-67.46-17.63-102.46-20c0 0 57.85-12.05 84.36-7.23 0 0 22.87 7.52 28.86 28.47z" fill="#91ad48"/><ellipse cx="180.91" cy="391.78" fill="#fbcd9a" rx="43.8" ry="18.64" transform="matrix(.968 -.25 .25 .968 -92.05 57.54)"/><path d="m142.72 367.22s-10.85-3.67-9.64-23 18.08-24.79 27.72-23.87c0 0 8.44-7.35 25.31-2.75s21.69 13.77 21.69 13.77l.3 21.21-64.86 14.45" fill="#e4a05b"/><path d="m104.15 501.08s-16.87 4-25.31-12.91 4.82-30.78 13.26-36.74 27.72-13.9 56.64-10.92 42.18-3 41 20.85-85.59 39.72-85.59 39.72z" fill="#e4a05b"/><path d="m251.45 414.85s-33-.51-39.35-43.06-5.32-45.51 6.39-48.48 53.75 35.19 69.44 71.05" fill="#e4a05b"/><path d="m258.58 429.14s-1.06-20.06 23.46-16.92 27.47 43 42.19 57.64-32.48 31.44-56-2.1" fill="#fbcd9a"/><path d="m221.06 503.54s-10.77-1-12.73-17.62 8.81-12.73 15.66-27.41 19.58-24.48 38.18-14.69c13.98 7.34 3.92 66.57-41.11 59.72z" fill="#fbcd9a"/><path d="m297.36 403.64s-3.99-33.64 30.64-31.54c32.63 2 66.27 32.45 61.17 58.62s-69.63 5.89-69.63 5.89" fill="#e4a05b"/><path d="m79.54 469.84c-1.16 6-52 3.87-52 3.87s-10.62-1-7.43-13.54 29.72-21.27 41.4-32.87 42.49-13.54 49.87 9.7c0 0-25.38-.21-31.84 32.84z" fill="#fbcd9a"/><path d="m34.85 430.49s-22.85-.94-27.72-22.63 19.29-35.86 56.65-35.86 53 15.09 55.44 23.58-15.67 19.81-15.67 19.81-9.21-13.45-31.16-8.46-37.54 23.56-37.54 23.56z" fill="#e4a05b"/><path d="m404.85 388.41 28.83 10.14 19.79-39.77s35 12.05 32.91 0-14.86-32.54-14.86-32.54 34-35 34-39.77-18-15.67-18-15.67 19.11-28.92 14.86-31.33-25.48-7.23-25.48-7.23 20.17-27.72 15.92-37.36-24.49-10.88-24.49-10.88 22.29-31.33 15.92-37.36-27.6 0-27.6 0 10.62-25.31 5.31-30.13a14.58 14.58 0 0 0 -11.68-3.62s15.92-42.18 8.49-44.59-31.13 11.29-31.13 11.29 3.31-24.74-2-25.95-13-2-13-2-5.73-29.52-10-31.93a4.64 4.64 0 0 0 -6.55 1.62s-12.22 6.57-15.4 5.36 6.91-13.84-6.89-16.25-23 .28-23 .28-10.92.93-16.23 7-12.74 47-12.74 47-15.92-9.64-22.29-2.41-4.25 47-4.25 47l-13.35-7.74 3.79 25.51-12.94 8.77 2.39 40.56-11.35 4.47 6.08 41.43-20.22 5 14.06 50.89-16.75 6 .53 13.3s5.37-2.33 19.43.67c13.2 2.81 30.13 21.66 37.47 45.76a24.94 24.94 0 0 1 1 4.64s68.66-13 96.78 15 2.64 24.84 2.64 24.84z" fill="#b69580"/><g fill="#601841"><path d="m34.86 437h-.35c-9.72-.51-29.28-8.34-33.8-34.32-2.19-12.61.73-24.13 8.45-33.31 10.92-13 30.31-20.13 54.62-20.13 42.69 0 59.1 23 61.8 35.24 3.13 14.1-14.41 29-18 31.82a6.52 6.52 0 0 1 -8.15-10.18c7-5.66 14.27-14.78 13.38-18.8-1.44-6.49-13.55-25-49.07-25-20.1 0-36.37 5.64-44.64 15.48-5.2 6.2-7.1 13.83-5.54 22.65 3.88 22.34 21.44 23.55 21.64 23.55a6.52 6.52 0 0 1 -.34 13z"/><path d="m38.92 482a122.74 122.74 0 0 1 -23.92-2.3 17.33 17.33 0 0 1 -11.19-6.81c-3.31-4.61-4.13-10.65-2.45-18 2.77-12 15.94-20.58 28.68-28.89 7.45-4.86 15.15-9.88 19.87-15 9.32-10.17 26.06-14.88 40.71-11.47 13.42 3.13 23 12.4 27 26.1a6.52 6.52 0 1 1 -12.52 3.65c-3.36-11.51-11.34-15.63-17.44-17.05-10-2.32-22 .94-28.13 7.58-5.82 6.39-14.22 11.87-22.34 17.19-10.08 6.58-21.51 14-23.1 20.9-.77 3.33-.67 5.94.29 7.35a4.21 4.21 0 0 0 2.53 1.57 3.26 3.26 0 0 1 .68.12c.3.07 30.8 6.58 54.94-4.39a6.52 6.52 0 1 1 5.4 11.87c-13.09 5.92-27.35 7.58-39.01 7.58z"/><path d="m99.8 508.07c-8.55 0-20.38-4.21-27-20.25-8.78-21.33 2-40.86 15-52 5.37-4.6 25.69-19.28 61.7-14.78 6 .74 11.27 1 16 1.25 9.56.48 17.11.86 22.77 5.11 7.71 5.79 8.34 16.23 7.95 25.69-.63 15-16.11 28.34-47.34 40.74a332.41 332.41 0 0 1 -43.13 13.52 22.89 22.89 0 0 1 -5.95.72zm36.75-74.84c-18.69 0-32.71 6-40.2 12.46-4.64 4-19.19 18.42-11.47 37.16 5.79 14.07 15.65 12.34 17.57 11.86l.25-.06c33-7.56 79.82-25.62 80.51-42.12.34-8.25-.56-13.07-2.75-14.71-2.47-1.86-8.26-2.15-15.6-2.52-4.92-.25-10.49-.53-16.92-1.33a91.82 91.82 0 0 0 -11.39-.74z"/><path d="m218.92 510.61a64.32 64.32 0 0 1 -9.69-.76c-2.76-.4-18.38-3.69-21.16-27.38-1.83-15.56 4.53-20.82 10.14-25.46 3.52-2.92 6.85-5.67 9.71-11.8 6-12.88 14.63-21.52 24.93-25 9.56-3.22 20-1.91 31 3.9 12.28 6.46 12.85 28.35 7.15 45.67-6.74 20.54-23.79 40.83-52.08 40.83zm-8-13.69a1.82 1.82 0 0 1 .31 0 50.87 50.87 0 0 0 7.65.6c27.06 0 37.19-24 39.79-31.84 5.15-15.66 2.39-28.36-.83-30.06-7.84-4.04-14.84-5.07-20.84-3.04-8.63 2.91-14.16 11.47-17.27 18.15-4.1 8.79-9.37 13.15-13.22 16.33-4.72 3.94-6.51 5.38-5.51 13.94 1.65 13.81 8.67 15.69 9.88 15.92z"/><path d="m313.68 493.8c-17.36 0-38.26-6.38-52.26-25a6.52 6.52 0 1 1 10.43-7.83c13.43 17.9 36.18 22.3 52.77 18.71 8.57-1.85 12.07-5.16 12.41-6.2a4.25 4.25 0 0 0 -1.13-1.42c-7.76-7.24-12.71-18.12-17.95-29.65-7.75-17-15.06-33.11-30.2-34.93-23.75-2.89-27.59 16.72-27.75 17.52a6.52 6.52 0 1 1 -12.83-2.33c2-11.26 13.49-31.64 42.14-28.21 22.42 2.69 32 23.83 40.52 42.48 4.69 10.31 9.12 20 15 25.51 6.18 5.76 5.63 11.61 4.75 14.59-2.21 7.5-11.24 13.37-24.17 15.71a66.26 66.26 0 0 1 -11.73 1.05z"/><path d="m374.79 450.62c-23.72 0-50.51-7.66-54.66-8.9a6.52 6.52 0 0 1 3.71-12.5c14.76 4.37 56.43 13.7 71.77 4.45a9.1 9.1 0 0 0 4.65-6.26c1.77-8.86-1.47-19.2-9.12-29.12-13.14-17.06-36.14-29.35-57.14-30.58-10-.58-17.93 1.8-23.59 7.1-10.26 9.61-10.48 26-10.49 26.18a6.53 6.53 0 0 1 -6.52 6.49 6.51 6.51 0 0 1 -6.5-6.51c0-.89.16-22.06 14.52-35.59 8.38-7.9 19.6-11.5 33.36-10.69 24.58 1.45 51.4 15.77 66.73 35.63 10 12.95 14.11 27 11.59 39.64a22.17 22.17 0 0 1 -10.71 14.87c-7.12 4.27-17.06 5.79-27.6 5.79z"/><path d="m31.84 413.51c-20.63 0-30.71-19.31-31.13-20.13a6.52 6.52 0 0 1 11.61-5.95c.32.61 7 13 19.52 13a6.52 6.52 0 1 1 0 13z"/><path d="m142.71 373.74a6.5 6.5 0 0 1 -2.64-.56c-1.53-.68-14.88-7.47-13.51-36.4.79-16.66 7.66-25.79 13.28-30.52a29.85 29.85 0 0 1 18.69-7.16c4.47-3.36 14.47-8.55 29.77-3.1 19.42 6.94 25.31 21.19 25.55 21.8a6.52 6.52 0 1 1 -12.11 4.84c-.14-.32-4.21-9.49-17.83-14.36-11.68-4.17-17.41 1-18.24 1.81a6.08 6.08 0 0 1 -5.68 2.13 16.23 16.23 0 0 0 -11.75 4c-5.2 4.38-8.19 11.69-8.64 21.16-.9 19 5.71 23.83 5.78 23.86a6.52 6.52 0 0 1 -2.65 12.48z"/><path d="m161.22 346a6.58 6.58 0 0 1 -5.22-2.56c-.52-.67-12.53-16.69-1.32-40.5a6.52 6.52 0 1 1 11.8 5.55c-7.69 16.35-.42 26.62-.1 27.05a6.51 6.51 0 0 1 -5.16 10.46z"/><path d="m135.49 408.7a6.52 6.52 0 0 1 -6.15-4.36 35.51 35.51 0 0 1 2.43-26.51c5.68-10.79 16.91-18.5 33.36-22.93 31.18-8.4 43.3-10.84 43.8-10.94a6.52 6.52 0 0 1 2.56 12.79c-.12 0-12.32 2.5-43 10.75-12.81 3.45-21.29 9-25.21 16.42a21.65 21.65 0 0 0 -2.46 9.73c6.14-1.88 15.64-4.64 26.81-7.44 17.08-4.27 22.86-8.44 22.92-8.49l-.1.08 8.16 10.2c-.73.58-7.72 5.86-27.8 10.88-18.82 4.71-33.12 9.45-33.26 9.5a6.52 6.52 0 0 1 -2.06.32z"/><path d="m157 421.36c-11.81 0-20.37-2.33-25.51-7a13.92 13.92 0 0 1 -4.93-9.8 6.52 6.52 0 0 1 13-.7c.39.65 4.56 6.25 27.79 3.85 39.38-4.07 48.25-12.77 48.31-12.85a6.52 6.52 0 1 1 10.78 7.34c-1.53 2.25-11.51 13.7-57.75 18.48a114.19 114.19 0 0 1 -11.69.68z"/><path d="m257.18 421.37h-.11a47.56 47.56 0 0 1 -23-7.84c-10.48-6.79-23.83-21-27.9-50.23-7-50.07-7.78-60.86 12-66.25 19-5.19 68.7 37.17 86.39 80.66a6.52 6.52 0 0 1 -12.08 4.92c-7.43-18.25-21.62-37.71-38.93-53.4-16.66-15.09-29-20.21-32-19.59-5.49 1.5-6 2-6.53 6-1 7.15.69 21.63 4.06 45.83 6.39 45.77 37.89 46.82 38.21 46.83a6.52 6.52 0 0 1 -.11 13z"/><path d="m107.62 481.66c-15.17 0-26.31-8.48-31.45-24.47a6.51 6.51 0 0 1 -.15-6.11 6.6 6.6 0 0 1 6.37-3.62c4.46.34 5.71 4.24 6.18 5.7 2.8 8.76 8.91 19.72 29.45 13.85 24.06-6.88 30-11.51 31-12.48a6.52 6.52 0 0 1 12.14 4.36c-.85 4.26-5.88 11-39.55 20.66a51.08 51.08 0 0 1 -13.99 2.11z"/><path d="m430.76 405.08a6.48 6.48 0 0 1 -1.62-.21l-39.53-10.14a6.52 6.52 0 1 1 3.24-12.63l34 8.71 13.56-34.41a6.52 6.52 0 0 1 8-3.85c11.18 3.38 23.21 5.47 28.44 5.08-2.85-9-11.7-22.71-15.17-27.62a6.52 6.52 0 0 1 .95-8.59c14.09-12.77 30.13-28.32 35.28-34.69a102.28 102.28 0 0 0 -15.88-10.15 6.52 6.52 0 0 1 -2.16-9.68c5.87-7.83 12.31-17.55 15-23-5.48-1.52-14.95-3.66-23.12-5.3a6.52 6.52 0 0 1 -3.75-10.55c10-12.08 18.14-26.5 17.23-30.37-2-3.62-13.21-6.68-22.19-7.17a6.52 6.52 0 0 1 -4.72-10.61c9-11.16 16.8-23.87 17.82-28.83-4-1.27-14.88-.5-24.42 1.89a6.52 6.52 0 0 1 -7.47-9.13c4.22-8.89 7.43-19.28 7.1-22.77a12.08 12.08 0 0 0 -7.45-1.72 6.45 6.45 0 0 1 -6.16-2.41 6.52 6.52 0 0 1 -.82-6.6c6-14.05 10.75-29.12 11.34-35.55-4.06 1.06-11.19 5-17 9.5a6.52 6.52 0 0 1 -10.54-4.83c-.41-9-2-18.48-3.48-21.82a7.14 7.14 0 0 0 -3.36.51 6.12 6.12 0 0 1 -6.35.62 6.54 6.54 0 0 1 -3.67-5.64c-.79-10.65-2.56-23.39-4.24-28.72a76.08 76.08 0 0 0 -14.39 8.24 6.52 6.52 0 0 1 -10.3-5.74 83.77 83.77 0 0 0 0-11.25c-3.89 1.34-9.89 2.78-19.78 1.26-8.86-1.37-17.35 12-19.63 16.83a6.52 6.52 0 0 1 -11.42.66c-2.69-4.29-6.5-8.77-8.87-10.6-3.23 6.2-8.45 25.66-11.86 42.2a6.52 6.52 0 0 1 -9.46 4.44c-6.4-3.39-15.5-5.68-17.63-3.55-2.69 3.29-4.08 22.93-2.92 42a6.52 6.52 0 0 1 -13 .79c0-.42-.62-10.36-.31-21.37.6-21.53 4.07-27.68 7-30.64 6.81-6.81 17.69-4.79 25.22-2.13 3.29-14.73 9-36.9 14.56-42.46a10.28 10.28 0 0 1 8.58-3c5 .57 9.86 4.8 13.63 9.19 5.6-7.67 15.3-17.2 28-15.25 8.37 1.29 12.3-.21 15.17-1.3 2.36-.9 5.3-2 8.8-.85 5.1 1.7 6.48 7.31 6.9 13.57 12-6.59 16.41-4.4 18.06-3.57 2.44 1.22 7.33 3.67 10.17 32.73a23.28 23.28 0 0 1 5.06.45c7.25 1.45 9.65 10.77 11 19.7.15.94.28 1.88.4 2.8 6.61-3.86 15-7.39 21.61-5.51a9.08 9.08 0 0 1 5.79 4.96c1.73 3.64 2.62 10-3.93 29.42-1.33 4-2.72 7.72-3.93 10.85a23.23 23.23 0 0 1 8 4.16c6.46 5.17 4.13 15.54 1.37 24-.29.89-.59 1.77-.9 2.63 8.7-1.09 19.26-1.13 24.93 3.6 7.9 6.58 1.48 19.19-5 29.43-1.78 2.83-3.65 5.56-5.37 8 8.11 1.74 17.9 5.36 21.66 12.89 3.18 6.35.78 15.47-7.55 28.69-1.66 2.63-3.36 5.13-4.94 7.33 7.76 1.71 17.06 4 20.41 5.66a7.77 7.77 0 0 1 4.07 5.2c.5 2.12 1.76 7.46-14.23 29.86 17.41 10.21 17.41 15.4 17.41 17.75 0 3.1 0 5.78-21.27 26.38-5.74 5.56-11.52 10.95-15.27 14.4 4.68 7.16 12.78 20.57 14.72 30.25a10 10 0 0 1 -3 9.64c-4.34 3.94-12.39 4.53-26.11 1.91-4-.76-7.78-1.67-10.73-2.43l-13.52 34.31a6.52 6.52 0 0 1 -6.06 4.15z"/><path d="m218.21 310.34a6.5 6.5 0 0 1 -4.75-2.06c-10.48-11.16-15.8-19.31-15.8-24.22 0-6.42 6.55-9.9 17.11-13.42 1.93-.65 3.86-1.23 5.62-1.74-1.61-3.67-3.63-8.4-5.56-13.35-7.75-19.8-7.81-26.27-5.39-30.29 3.38-5.63 11.65-7.16 19-7.31-1.07-3.08-2.25-6.66-3.37-10.34-6-19.67-4.95-25.84-1.38-29.4a17.19 17.19 0 0 1 10.67-4.81c-.33-4.19-.68-9.68-.83-15.41-.59-23.18 2.61-29.59 5.82-32.8a6.52 6.52 0 0 1 4.61-1.91h3.37c-4-10.42-2.86-12.71-2-14.47 2.51-5 8.87-4.95 14.64-4.49 4 .32 7.77.95 7.93 1a6.52 6.52 0 0 1 -2.14 12.87c-2.25-.37-4.65-.66-6.71-.83 1 2.84 2.52 6.41 4.06 9.74a6.52 6.52 0 0 1 -5.92 9.25h-9.37c-1.82 6.65-1.82 25.27.18 43.35a6.52 6.52 0 0 1 -8.27 7c-1.24-.33-4.16-.65-6 .16 0 5.11 4.39 20.73 10.22 35.81a6.52 6.52 0 0 1 -6.89 8.82c-6.11-.75-13.25-.48-16 .52.58 6 7.52 24 14.3 38.45a6.52 6.52 0 0 1 -4.39 9.11 114.69 114.69 0 0 0 -19.12 6.17 112 112 0 0 0 11.15 13.62 6.52 6.52 0 0 1 -4.75 11z"/><path d="m292.16 131.5a6.52 6.52 0 0 1 -6.52-6.48c0-1.9.09-46.59 32.91-53.43 33.7-7 53.47 36.83 54.3 38.7a6.52 6.52 0 1 1 -11.93 5.26c-.16-.35-16.32-36.07-39.71-31.2-22.38 4.66-22.53 40.23-22.53 40.59a6.53 6.53 0 0 1 -6.49 6.55z"/><path d="m283.72 180.91a6.52 6.52 0 0 1 -5.72-9.64c.64-1.18 16.09-29 43.7-36.89a6.52 6.52 0 0 1 3-.14c1.4.26 34.53 6.61 63.23 30.31a6.52 6.52 0 1 1 -8.31 10.06c-22.75-18.79-49.32-25.74-55.82-27.22-21.39 7-34.21 29.91-34.34 30.15a6.53 6.53 0 0 1 -5.74 3.37z"/><path d="m344 144.76a6.52 6.52 0 0 1 -5.16-10.51c3.63-4.7 22.45-28.37 35.83-32.39 14.07-4.23 41.14 14.44 49.11 20.26a6.52 6.52 0 0 1 -7.69 10.53c-13.59-9.92-32.41-19.88-37.67-18.3-6.93 2.08-21.28 17.55-29.25 27.87a6.51 6.51 0 0 1 -5.17 2.54z"/><path d="m312.64 147.17a6.49 6.49 0 0 1 -3.74-1.17c-.36-.24-16.36-10.76-52.7-9.67a6.52 6.52 0 0 1 -.4-13c41.49-1.26 59.87 11.51 60.63 12.06a6.52 6.52 0 0 1 -3.8 11.83z"/><path d="m331.84 83.32a6.47 6.47 0 0 1 -2.82-.64 6.66 6.66 0 0 1 -3.66-6.9c.41-3.55 9.95-31.34 34.09-36.71 26.36-5.86 43.88 28.5 44.61 30a6.52 6.52 0 1 1 -11.67 5.83c-.13-.26-13.93-26.66-30.11-23.06-14.87 3.3-22.46 20.65-23.82 25.06a6.5 6.5 0 0 1 -1.91 4.52 6.67 6.67 0 0 1 -4.71 1.9z"/><path d="m360.23 107.7a6.52 6.52 0 0 1 -1.7-12.82c1.11-.31 26.06-7.63 44.77-42.86a6.52 6.52 0 0 1 11.52 6.12c-21.57 40.61-51.64 49-52.91 49.34a6.53 6.53 0 0 1 -1.68.22z"/><path d="m401.83 233.94a6.52 6.52 0 0 1 -6.06-4.1c-2.81-7-10.5-15.65-20.57-23.09s-18.32-10.5-20.87-10.21c-5.43.6-23.64 14-37.39 26.13a6.52 6.52 0 0 1 -8.62-9.79c7.43-6.54 32.6-28 44.56-29.31 14.2-1.56 46.72 20.76 55 41.42a6.53 6.53 0 0 1 -6.05 8.94z"/><path d="m327.11 209.84a6.51 6.51 0 0 1 -4.89-2.21c-.24-.27-23.4-26.15-48-26.74-1.48 1.72-3.9 5.48-4.51 12.17a6.52 6.52 0 0 1 -13-1.18c1.48-15.88 10.29-22.24 11.35-22.88a6.52 6.52 0 0 1 3.35-1.09c31.67-1.32 59.44 29.81 60.61 31.13a6.52 6.52 0 0 1 -4.89 10.83z"/><path d="m365.78 199a6.52 6.52 0 0 1 -5-10.66c1.28-1.55 31.69-37.88 66.42-31.2a6.52 6.52 0 0 1 3.78 2.23c.55.66 13.56 16.47 13.56 33.1a6.52 6.52 0 1 1 -13 0c0-9.18-6.25-18.89-9.13-22.88-26.26-3-51.27 26.75-51.53 27.06a6.51 6.51 0 0 1 -5.1 2.35z"/><path d="m283.73 229.12a6.52 6.52 0 0 1 -5.79-3.51c-.18-.34-16.14-30.26-44.46-39.56a6.52 6.52 0 1 1 4.07-12.39c33.48 11 51.22 44.5 52 45.93a6.52 6.52 0 0 1 -5.78 9.53z"/><path d="m397.37 174.44a6.53 6.53 0 0 1 -6.2-8.53c.51-1.57 12.95-38.7 51.63-58.88a6.52 6.52 0 1 1 6 11.56c-33.82 17.64-45.15 51-45.26 51.35a6.53 6.53 0 0 1 -6.17 4.5z"/><path d="m270.48 259.28a6.56 6.56 0 0 1 -6.41-5.29c-.07-.35-6.3-34.65 36.37-43.79 19.11-4.09 54.25 25.6 61.1 31.6a6.52 6.52 0 0 1 -8.59 9.82c-14.57-12.74-40.47-30.65-49.78-28.66-29.38 6.3-26.69 26.31-26.29 28.58a6.52 6.52 0 0 1 -6.4 7.75z"/><path d="m307.84 340a6.53 6.53 0 0 1 -6.49-7.24c.3-2.66 4.66-26.5 66-45.29a6.53 6.53 0 0 1 3.72 0c7.93 2.26 47.93 14.22 58.27 24.53a6.52 6.52 0 0 1 -9.22 9.22c-5.94-5.94-33.5-15.58-50.77-20.7-50 15.7-55 33.51-55 33.68a6.52 6.52 0 0 1 -6.51 5.8z"/><path d="m386.16 303.84a6.52 6.52 0 0 1 -5-10.73c6.62-7.82 29.28-33.45 42.9-34.82 13-1.3 42.62 7.67 46 8.69a6.52 6.52 0 0 1 -3.84 12.47c-11.63-3.58-33-9-40.82-8.18-5.64.56-22.26 16.1-34.24 30.26a6.51 6.51 0 0 1 -5 2.31z"/><path d="m383.75 302.64a6.5 6.5 0 0 1 -4.53-1.83c-16.6-16-38.7-33.74-45.47-34.35-7.78-.71-36.6 12.64-54.57 22.35a6.52 6.52 0 1 1 -6.2-11.48c7.8-4.22 47.46-25.2 62-23.86s44.49 29.39 53.35 38a6.52 6.52 0 0 1 -4.53 11.21z"/><path d="m438 383.38a6.5 6.5 0 0 1 -4.38-1.7c-.25-.22-25.27-22.66-50.41-24.84a6.52 6.52 0 1 1 1.13-13c29.57 2.57 56.91 27.14 58.06 28.19a6.52 6.52 0 0 1 -4.4 11.35z"/><path d="m401.83 359.28a6.52 6.52 0 0 1 -5.6-9.85c4-6.82 25-41 40-45.14 16-4.36 36.38 11.43 38.66 13.25a6.52 6.52 0 1 1 -8.14 10.19c-6.6-5.25-19.8-12.84-27.09-10.86-6.61 1.8-21.89 21.76-32.26 39.22a6.52 6.52 0 0 1 -5.57 3.19z"/><path d="m442.39 273.16a6.52 6.52 0 0 1 -5.85-3.63c-.15-.29-15.17-30-35.36-32-16.82-1.67-40 23.32-47.57 33.1a6.52 6.52 0 0 1 -10.33-8c3.22-4.19 32.27-40.81 59.2-38.11 27.38 2.74 45 37.71 45.74 39.2a6.52 6.52 0 0 1 -5.84 9.42z"/><path d="m320.84 323a6.53 6.53 0 0 1 -4.75-2.06 306.08 306.08 0 0 0 -26.09-21.44c-23.84-17.36-31.09-15.56-31.84-15.3-4.24 1.48-3.38 5.49-3 6.69a6.52 6.52 0 0 1 -12.47 3.81c-2.09-6.87-.84-18.6 11.19-22.81 6-2.09 17.15-2.53 44.71 17.72 13.7 10.07 26.58 21.8 27.49 23a6.52 6.52 0 0 1 -5.24 10.39zm-6.1-4.22a6.36 6.36 0 0 0 1.22 2 6.49 6.49 0 0 1 -1.22-1.95zm.53-5.68a6.45 6.45 0 0 0 -.67 5.27 6.51 6.51 0 0 1 .66-5.22z"/><path d="m410.26 237.56a6.52 6.52 0 0 1 -5.72-9.65c.94-1.73 23.49-42.43 57.29-50.23a6.52 6.52 0 1 1 2.93 12.71c-28.15 6.5-48.57 43.4-48.77 43.77a6.52 6.52 0 0 1 -5.73 3.4z"/></g><path d="m111.58 330.54c-54.23-24.1-105-12.73-105-12.73s44.25-32.2 109.33-17.74" fill="#91ad48"/><path d="m111.57 337.06a6.5 6.5 0 0 1 -2.64-.56c-51.67-23-100.48-12.43-101-12.32a6.52 6.52 0 0 1 -5.23-11.64c1.9-1.38 47.41-33.76 114.59-18.83a6.52 6.52 0 0 1 -2.83 12.73 143.18 143.18 0 0 0 -71.84 2.19 189.69 189.69 0 0 1 71.61 15.95 6.52 6.52 0 0 1 -2.65 12.48z" fill="#601841"/><path d="m159.71 284.23a6.52 6.52 0 0 1 -5.7-3.35c-.2-.35-11-19.37-32.51-38.55-28.67-25.58-61.77-39.33-98.38-40.93a6.52 6.52 0 0 1 -4.71-10.71c.44-.53 11.11-12.94 33.3-15.57 28.19-3.33 61.2 10 98.1 39.63a6.52 6.52 0 1 1 -8.17 10.17c-50.12-40.25-81.87-40.24-98.64-34.59 39.72 6.39 69.06 26 87.52 42.61 23.07 20.7 34.38 40.75 34.85 41.6a6.52 6.52 0 0 1 -5.69 9.7z" fill="#601841"/><path d="m129.47 286.52a6.53 6.53 0 0 1 -1.65-.21c-.67-.17-67.31-17.5-101.24-19.84a6.52 6.52 0 0 1 -.88-12.89c2.41-.5 59.41-12.26 86.86-7.26a6.52 6.52 0 0 1 -2.33 12.83c-10.14-1.84-25.46-1-40.12.62 29.83 5.82 59.18 13.44 61 13.92a6.52 6.52 0 0 1 -1.64 12.83z" fill="#601841"/><path d="m182.49 260s-23.92-81-60.26-121.72c-30.13-33.79-31.33-50.66-31.33-50.66s47.46 41.44 59.05 53c16.87 16.87 28.71 24.3 43.68 82.18" fill="#91ad48"/><path d="m182.49 266.48a6.52 6.52 0 0 1 -6.25-4.68c-.24-.8-23.94-80.1-58.87-119.23-30.72-34.41-32.84-52.54-33-54.5a6.52 6.52 0 0 1 10.79-5.38c1.94 1.7 47.76 41.72 59.38 53.33 1.45 1.45 2.87 2.84 4.25 4.19 15.09 14.74 27 26.38 41.13 81a6.52 6.52 0 1 1 -12.63 3.27c-13.21-51.06-23.44-61.06-37.62-74.9-1.42-1.39-2.87-2.81-4.36-4.3-5.73-5.73-20.64-19.11-34-30.95a223 223 0 0 0 15.75 19.58c36.89 41.32 60.66 120.86 61.65 124.22a6.53 6.53 0 0 1 -6.26 8.37z" fill="#601841"/><path d="m206.55 193.92c-8.44-45.8-36.12-85.81-36.12-85.81s41.94 31.37 46.76 50.66" fill="#91ad48"/><path d="m206.55 200.44a6.52 6.52 0 0 1 -6.41-5.34c-8.09-43.91-34.8-82.9-35.07-83.29a6.52 6.52 0 0 1 9.27-8.93c4.48 3.35 43.94 33.37 49.18 54.3a6.52 6.52 0 1 1 -12.65 3.16c-1.48-5.92-8.11-14.25-16.33-22.61 7.23 15.25 14.65 34.49 18.43 55a6.53 6.53 0 0 1 -6.42 7.7z" fill="#601841"/></svg>