<svg height="512" viewBox="0 0 64 64" width="512" xmlns="http://www.w3.org/2000/svg"><g id="Layer_31" data-name="Layer 31"><path d="m45 5h-6l-.849 12.732a8 8 0 0 1 -1.472 4.118l-2.189 3.064a8 8 0 0 0 -1.49 4.65v29.436a4 4 0 0 0 4 4h10a4 4 0 0 0 4-4v-29.436a8 8 0 0 0 -1.49-4.65l-2.189-3.064a8 8 0 0 1 -1.472-4.118z" fill="#62a94b"/><path d="m40 1h4a2 2 0 0 1 2 2v1a0 0 0 0 1 0 0h-8a0 0 0 0 1 0 0v-1a2 2 0 0 1 2-2z" fill="#d6e4e8"/><path d="m43 1h-3a2 2 0 0 0 -2 2v1h3v-1a2 2 0 0 1 2-2z" fill="#baced3"/><path d="m38 4h8v3h-8z" fill="#d6e4e8"/><path d="m38 4h3v3h-3z" fill="#baced3"/><path d="m47.321 21.85a8.01 8.01 0 0 1 -1.472-4.118l-.316-4.732h-7.066l-.316 4.732a8.006 8.006 0 0 1 -1.472 4.118l-2.189 3.064a8 8 0 0 0 -1.49 4.65v29.436a4 4 0 0 0 4 4h10a4 4 0 0 0 4-4v-29.436a8 8 0 0 0 -1.49-4.65z" fill="#6dbc53"/><path d="m36 59v-29.436a8 8 0 0 1 1.49-4.65l2.189-3.064a8.006 8.006 0 0 0 1.472-4.118l.316-4.732h-3l-.316 4.732a8.006 8.006 0 0 1 -1.472 4.118l-2.189 3.064a8 8 0 0 0 -1.49 4.65v29.436a4 4 0 0 0 4 4h3a4 4 0 0 1 -4-4z" fill="#62a94b"/><path d="m33 31h18v22h-18z" fill="#d6e4e8"/><path d="m33 31h3v22h-3z" fill="#baced3"/><path d="m25 63h-8a2 2 0 0 1 -2-2v-4h12v4a2 2 0 0 1 -2 2z" fill="#d6e4e8"/><path d="m18 61v-4h-3v4a2 2 0 0 0 2 2h3a2 2 0 0 1 -2-2z" fill="#baced3"/><path d="m27 57a10 10 0 0 1 -12 0l-2-14h16z" fill="#d6e4e8"/><path d="m16 43h-3l2 14a10.211 10.211 0 0 0 7.5 1.875 10.324 10.324 0 0 1 -2.487-.758 3.968 3.968 0 0 1 -2.293-3.077z" fill="#baced3"/><path d="m13.571 47 1.429 10a10 10 0 0 0 12 0l1.429-10c-2.344 1.4-4.829 1.265-7.429 0-2.122-1.506-4.679-1.162-7.429 0z" fill="#98deea"/><circle cx="42" cy="40" fill="#6dbc53" r="3"/><path d="m22.5 58.88a10.234 10.234 0 0 1 -7.5-1.88l-1.43-10a13.082 13.082 0 0 1 2.87-.89l1.28 8.93a3.967 3.967 0 0 0 2.29 3.08 10.773 10.773 0 0 0 2.49.76z" fill="#82d0d8"/><path d="m50.323 24.333-2.188-3.065a6.979 6.979 0 0 1 -1.288-3.6l-.647-9.708a.986.986 0 0 0 .8-.96v-4a3 3 0 0 0 -3-3h-4a3 3 0 0 0 -3 3v4a.986.986 0 0 0 .8.96l-.647 9.706a6.985 6.985 0 0 1 -1.288 3.6l-2.188 3.063a8.947 8.947 0 0 0 -1.677 5.234v29.437a5.006 5.006 0 0 0 5 5h10a5.006 5.006 0 0 0 5-5v-29.437a8.941 8.941 0 0 0 -1.677-5.23zm-5.859-12.333h-4.928l.264-4h4.4zm.536-6h-6v-1h6zm-5-4h4a1 1 0 0 1 1 1h-6a1 1 0 0 1 1-1zm-4.7 23.5 2.188-3.063a8.988 8.988 0 0 0 1.661-4.637l.251-3.8h5.2l.253 3.8a8.985 8.985 0 0 0 1.657 4.633l2.19 3.067a6.952 6.952 0 0 1 1.3 4.063v.437h-3a1 1 0 0 0 0 2h3v20h-16v-20h9a1 1 0 0 0 0-2h-9v-.437a6.958 6.958 0 0 1 1.3-4.063zm11.7 36.5h-10a3 3 0 0 1 -3-3v-5h16v5a3 3 0 0 1 -3 3z"/><path d="m38 40a4 4 0 1 0 4-4 4 4 0 0 0 -4 4zm6 0a2 2 0 1 1 -2-2 2 2 0 0 1 2 2z"/><path d="m29.756 42.345a1 1 0 0 0 -.756-.345h-16a1 1 0 0 0 -.99 1.142l1.99 13.931v3.927a3 3 0 0 0 3 3h8a3 3 0 0 0 3-3v-3.927l1.99-13.931a1 1 0 0 0 -.234-.797zm-1.909 1.655-.336 2.351a6.462 6.462 0 0 1 -6-.216c-1.9-1.314-4.242-1.483-7.123-.512l-.235-1.623zm-1.773 12.407a8.881 8.881 0 0 1 -10.148 0l-1.253-8.768c2.463-.909 4.3-.849 5.748.176a.92.92 0 0 0 .141.084 8.8 8.8 0 0 0 6.62.755zm-1.074 5.593h-8a1 1 0 0 1 -1-1v-2.259a10.986 10.986 0 0 0 5 1.266 10.986 10.986 0 0 0 5-1.266v2.259a1 1 0 0 1 -1 1z"/><ellipse cx="46" cy="25" fill="#fff" rx="1" ry="3" transform="matrix(.707 -.707 .707 .707 -4.205 39.849)"/></g></svg>