<svg id="a" height="512" viewBox="0 0 64 64" width="512" xmlns="http://www.w3.org/2000/svg"><path d="m47.59 37.69c2.73 2.73 2.73 7.17 0 9.9s-7.17 2.73-9.9 0" fill="#aadff1"/><path d="m2.59 20.46 17.87-17.87c.87-.87 2.32-.75 3.04.25l18.86 26.4c.57.8.48 1.89-.21 2.58l-10.33 10.33c-.69.69-1.78.78-2.58.21l-26.4-18.86c-1.01-.72-1.13-2.17-.25-3.04z" fill="#75777a"/><path d="m5.87 21.42 15.55-15.55 17.68 24.74-8.49 8.49z" fill="#aadff1"/><rect fill="#d6eff8" height="24" rx="2" transform="matrix(.707 -.707 .707 .707 -10.05 24.25)" width="4" x="22.25" y="12.25"/><path d="m32.03 41.93 2.83 2.83 9.9-9.9-2.83-2.83" fill="#d6eff8"/><path d="m33.22 39.22h16v4h-16z" fill="#75777a" transform="matrix(-.707 .707 -.707 -.707 99.52 41.22)"/><path d="m44.46 44.46h2v2h-2z" transform="matrix(.707 -.707 .707 .707 -18.83 45.48)"/><path d="m45.17 40.93h2v2h-2z" transform="matrix(.707 -.707 .707 .707 -16.12 44.93)"/><path d="m50 49h2v2h-2z"/><path d="m49 53h2v2h-2z"/><path d="m54 49h2v2h-2z"/><path d="m54 53h2v2h-2z"/><path d="m52 58h2v2h-2z"/><path d="m56 61h2v2h-2z"/><path d="m61 54h2v2h-2z"/><path d="m59 50h2v2h-2z"/><path d="m58 57h2v2h-2z"/><path d="m30.4 43.73c.55 0 1.09-.16 1.57-.45l1.48 1.48c-.39.39-.39 1.02 0 1.41l2.83 2.83c.19.19.44.29.71.29s.52-.11.71-.29l.05-.05c1.44 1.12 3.17 1.68 4.9 1.68 2.05 0 4.1-.78 5.66-2.34 2.88-2.88 3.09-7.42.66-10.56l.05-.05c.39-.39.39-1.02 0-1.41l-2.83-2.83c-.39-.39-1.02-.39-1.41 0l-1.48-1.48c.62-1.01.61-2.31-.11-3.31l-18.87-26.39c-.51-.72-1.31-1.17-2.19-1.25-.87-.07-1.74.24-2.37.87l-17.88 17.87c-.62.62-.94 1.49-.87 2.37s.53 1.68 1.25 2.19l26.4 18.86c.53.38 1.14.56 1.74.56zm16.48 3.15c-2.1 2.1-5.37 2.3-7.71.64l1.34-1.34 1.41 1.41 1.41-1.41-1.41-1.41 5.59-5.59c1.66 2.34 1.46 5.61-.64 7.71zm-1.41-11.31 1.41 1.41-9.9 9.9-1.41-1.42 9.9-9.9zm-2.12-.71-8.49 8.49-1.41-1.41 8.49-8.49zm-40.35-12.9c-.02-.3.08-.58.29-.79l17.88-17.88c.21-.21.5-.32.79-.29.3.02.56.17.73.42l18.86 26.4c.29.4.24.94-.11 1.29l-10.33 10.33c-.35.35-.89.39-1.29.11l-26.4-18.86c-.24-.17-.39-.43-.42-.73z"/><path d="m30.61 40.1c.26 0 .51-.1.71-.29l8.49-8.49c.35-.35.39-.89.11-1.29l-17.68-24.74c-.17-.24-.44-.39-.73-.42-.3-.02-.58.08-.79.29l-15.56 15.56c-.21.21-.31.5-.29.79s.18.56.42.73l24.75 17.68c.17.12.38.19.58.19zm-9.32-32.69 16.5 23.1-7.29 7.29-23.09-16.51z"/><path d="m33.44 33.44c.57-.57.88-1.32.88-2.12s-.31-1.55-.88-2.12l-14.14-14.14c-1.17-1.17-3.07-1.17-4.24 0-.57.57-.88 1.32-.88 2.12s.31 1.55.88 2.12l14.14 14.14c.58.58 1.35.88 2.12.88s1.54-.29 2.12-.88zm-2.83-1.41-14.14-14.14c-.19-.19-.29-.44-.29-.71s.1-.52.29-.71c.39-.39 1.02-.39 1.41 0l14.14 14.14c.19.19.29.44.29.71s-.1.52-.29.71c-.39.39-1.02.39-1.41 0z"/></svg>