<?xml version="1.0" encoding="UTF-8" standalone="no"?>
<!-- Created with Inkscape (http://www.inkscape.org/) -->

<svg
   version="1.1"
   id="svg2379"
   xml:space="preserve"
   width="682.66669"
   height="682.66669"
   viewBox="0 0 682.66669 682.66669"
   xmlns="http://www.w3.org/2000/svg"
   xmlns:svg="http://www.w3.org/2000/svg"><defs
     id="defs2383"><clipPath
       clipPathUnits="userSpaceOnUse"
       id="clipPath2393"><path
         d="M 0,512 H 512 V 0 H 0 Z"
         id="path2391" /></clipPath></defs><g
     id="g2385"
     transform="matrix(1.3333333,0,0,-1.3333333,0,682.66667)"><g
       id="g2387"><g
         id="g2389"
         clip-path="url(#clipPath2393)"><g
           id="g2395"
           transform="translate(345.3047,266.4917)"><path
             d="m 0,0 c 0,78.831 -44.724,99.171 -75.674,151.108 7.954,3.001 13.661,10.683 13.661,19.653 v 19.247 h -187.792 l 0.685,-19.247 c 0,-8.97 5.707,-16.652 13.661,-19.653 C -249.038,118.199 -311.133,78.831 -311.133,0 v -218.965 c 0,-22.106 17.922,-40.027 40.029,-40.027 h 231.075"
             style="fill:#fff7d7;fill-opacity:1;fill-rule:nonzero;stroke:none"
             id="path2397" /></g><g
           id="g2399"
           transform="translate(269.6309,417.6001)"><path
             d="M 0,0 C 7.954,3 13.661,10.683 13.661,19.652 V 38.9 h -57 V 19.652 C -43.339,10.683 -49.046,3 -57,0 -26.05,-51.938 18.674,-72.277 18.674,-151.108 L -21.354,-410.1 h 57 l 40.028,258.992 C 75.674,-72.277 30.95,-51.938 0,0"
             style="fill:#fff2bd;fill-opacity:1;fill-rule:nonzero;stroke:none"
             id="path2401" /></g><g
           id="g2403"
           transform="translate(302.7314,442.5063)"><path
             d="m 0,0 h -225.986 v 34.217 c 0,15.341 12.436,27.777 27.776,27.777 H -27.776 C -12.436,61.994 0,49.558 0,34.217 Z"
             style="fill:#ffd150;fill-opacity:1;fill-rule:nonzero;stroke:none"
             id="path2405" /></g><g
           id="g2407"
           transform="translate(274.9551,504.5)"><path
             d="m 0,0 h -44 c 15.34,0 27.776,-12.436 27.776,-27.776 v -34.218 h 44 v 34.218 C 27.776,-12.436 15.34,0 0,0"
             style="fill:#ffc930;fill-opacity:1;fill-rule:nonzero;stroke:none"
             id="path2409" /></g><g
           id="g2411"
           transform="translate(34.1714,94.186)"><path
             d="M 0,0 V 164.966 H 308.769 V -0.186 Z"
             style="fill:#7f8a91;fill-opacity:1;fill-rule:nonzero;stroke:none"
             id="path2413" /></g><g
           id="g2415"
           transform="translate(287.9404,259.1523)"><path
             d="m 0,0 v -165.119 l 55,-0.033 V 0 Z"
             style="fill:#6b7c85;fill-opacity:1;fill-rule:nonzero;stroke:none"
             id="path2417" /></g><g
           id="g2419"
           transform="translate(435.2734,175.731)"><path
             d="m 0,0 v 0 c 0,27.834 -22.565,50.399 -50.401,50.399 h -2.953 c -0.434,17.431 -14.69,31.43 -32.226,31.43 h -13.436 v -31.43 h -2.932 c -27.836,0 -50.402,-22.565 -50.402,-50.399 -13.918,0 -25.2,-11.282 -25.2,-25.199 V -51.544 H 25.201 v 26.345 C 25.201,-11.282 13.918,0 0,0"
             style="fill:#fff7d7;fill-opacity:1;fill-rule:nonzero;stroke:none"
             id="path2421" /></g><g
           id="g2423"
           transform="translate(435.2734,175.731)"><path
             d="m 0,0 v 0 c 0,27.834 -22.565,50.399 -50.401,50.399 h -2.953 c -0.434,17.431 -14.69,31.43 -32.226,31.43 H -99.016 V 59.853 c 1.001,-2.981 1.579,-6.156 1.662,-9.454 h 2.953 C -66.565,50.399 -44,27.834 -44,0 c 13.918,0 25.201,-11.282 25.201,-25.199 v -26.345 h 44 v 26.345 C 25.201,-11.282 13.918,0 0,0"
             style="fill:#fff2bd;fill-opacity:1;fill-rule:nonzero;stroke:none"
             id="path2425" /></g><g
           id="g2427"
           transform="translate(405.4419,7.5)"><path
             d="m 0,0 h -92.687 c -39.978,0 -72.386,32.409 -72.386,72.387 v 65.542 H 72.387 V 72.387 C 72.387,32.409 39.978,0 0,0"
             style="fill:#ffd150;fill-opacity:1;fill-rule:nonzero;stroke:none"
             id="path2429" /></g><g
           id="g2431"
           transform="translate(433.8286,145.4292)"><path
             d="m 0,0 v -65.542 c 0,-39.979 -32.409,-72.387 -72.387,-72.387 h 44 c 39.978,0 72.387,32.408 72.387,72.387 V 0 Z"
             style="fill:#ffc930;fill-opacity:1;fill-rule:nonzero;stroke:none"
             id="path2433" /></g><g
           id="g2435"
           transform="translate(116,442.5063)"><path
             d="m 0,0 h -39.255 v 34.217 c 0,15.341 12.436,27.777 27.776,27.777 h 170.434 c 15.34,0 27.776,-12.436 27.776,-27.777 V 0 H 36"
             style="fill:none;stroke:#000000;stroke-width:15;stroke-linecap:round;stroke-linejoin:round;stroke-miterlimit:10;stroke-dasharray:none;stroke-opacity:1"
             id="path2437" /></g><g
           id="g2439"
           transform="translate(36.5356,259.1523)"><path
             d="M 0,0 H 263.964"
             style="fill:none;stroke:#000000;stroke-width:15;stroke-linecap:round;stroke-linejoin:round;stroke-miterlimit:10;stroke-dasharray:none;stroke-opacity:1"
             id="path2441" /></g><g
           id="g2443"
           transform="translate(36.5356,94.186)"><path
             d="M 0,0 H 201.252"
             style="fill:none;stroke:#000000;stroke-width:15;stroke-linecap:round;stroke-linejoin:round;stroke-miterlimit:10;stroke-dasharray:none;stroke-opacity:1"
             id="path2445" /></g><g
           id="g2447"
           transform="translate(345.3047,266.4917)"><path
             d="m 0,0 c 0,78.831 -44.724,99.171 -75.674,151.108 7.954,3.001 13.661,10.683 13.661,19.653"
             style="fill:none;stroke:#000000;stroke-width:15;stroke-linecap:round;stroke-linejoin:round;stroke-miterlimit:10;stroke-dasharray:none;stroke-opacity:1"
             id="path2449" /></g><g
           id="g2451"
           transform="translate(96.1846,437.2524)"><path
             d="M 0,0 C 0,-8.97 5.707,-16.652 13.661,-19.652 0.083,-52.562 -62.013,-91.93 -62.013,-170.761 v -218.965 c 0,-22.106 17.922,-40.026 40.029,-40.026 h 231.075"
             style="fill:none;stroke:#000000;stroke-width:15;stroke-linecap:round;stroke-linejoin:round;stroke-miterlimit:10;stroke-dasharray:none;stroke-opacity:1"
             id="path2453" /></g><g
           id="g2455"
           transform="translate(460.4741,147.1865)"><path
             d="m 0,0 v 3.345 c 0,13.917 -11.283,25.199 -25.201,25.199 0,27.835 -22.565,50.399 -50.401,50.399 h -2.953 c -0.433,17.431 -14.69,31.431 -32.225,31.431 h -13.436 V 78.943 h -2.933 c -27.836,0 -50.401,-22.564 -50.401,-50.399 -13.918,0 -25.201,-11.282 -25.201,-25.199 V 0"
             style="fill:none;stroke:#000000;stroke-width:15;stroke-linecap:round;stroke-linejoin:round;stroke-miterlimit:10;stroke-dasharray:none;stroke-opacity:1"
             id="path2457" /></g><g
           id="g2459"
           transform="translate(428,145.4292)"><path
             d="m 0,0 h 49.829 v -65.542 c 0,-39.979 -32.409,-72.387 -72.387,-72.387 h -92.687 c -39.978,0 -72.386,32.408 -72.386,72.387 V 0 H -38"
             style="fill:none;stroke:#000000;stroke-width:15;stroke-linecap:round;stroke-linejoin:round;stroke-miterlimit:10;stroke-dasharray:none;stroke-opacity:1"
             id="path2461" /></g><g
           id="g2463"
           transform="translate(442.624,75.6274)"><path
             d="M 0,0 C 0,-20.351 -16.557,-36.907 -36.909,-36.907 H -78.121"
             style="fill:none;stroke:#000000;stroke-width:15;stroke-linecap:round;stroke-linejoin:round;stroke-miterlimit:10;stroke-dasharray:none;stroke-opacity:1"
             id="path2465" /></g></g></g></g></svg>
