<svg id="Capa_1" enable-background="new 0 0 512 512" height="512" viewBox="0 0 512 512" width="512" xmlns="http://www.w3.org/2000/svg"><g><g><path d="m53.45 187.759h-10.811c-.096 0-.192-.002-.287-.005-1.053-.04-25.955-1.202-40.817-20.91-2.531-3.356-1.862-8.129 1.495-10.66 3.357-2.53 8.129-1.862 10.66 1.495 10.015 13.281 27.595 14.753 29.159 14.858h10.601c4.204 0 7.611 3.408 7.611 7.611s-3.408 7.611-7.611 7.611z" fill="#fbc700"/></g><path d="m241.811 33.703c-3.492 0-6.953.063-10.382.185-41.874 36.625-68.062 88.75-68.062 146.608 0 51.383 20.652 98.246 54.603 133.744l39.298 5.225 12.012 5.831c100.922-9.537 178.783-70.883 178.783-145.149 0-80.879-92.342-146.444-206.252-146.444z" fill="#ffd500"/><path d="m164.817 180.369c0-58.249 27.084-110.572 70.104-146.576-110.276 2.588-188.183 67.117-188.183 146.354 0 55.943 38.838 104.552 100.477 129.212l5.101-3.849 69.238 9.206c-35.186-35.15-56.737-82.389-56.737-134.347z" fill="#fbc700"/><path d="m393.793 243.8c-46.511 21.144-102.977 28.554-154.703 28.554-33.845.005-46.694-.091-51.954.03 2.89 5.238 6.026 10.336 9.381 15.293 62.985.619 163.41 1.236 232.605-46.154 7.341-11.275 12.714-23.326 15.824-35.931-9.69 14.089-27.201 27.321-51.153 38.208z" fill="#ffeb7e"/><path d="m189.202 272.351c-5.883.063-5.569.251-6.601.743-2.146-3.189-.833-2.191-44.087-13.388-43.447-11.818-74.913-31.156-88.871-53.439 2.919 12.964 7.992 25.334 14.99 36.872 17.851 12.825 41.497 23.534 69.975 31.281 43.206 11.185 41.62 11.393 44.957 9.798 1.356 2.009 3.645 3.337 6.251 3.359 4.152.032 8.52.079 13.067.122-3.465-4.965-6.697-10.085-9.681-15.348z" fill="#ffd500"/><path d="m429.109 118.763c-33.995-23.278-98.292-46.046-187.432-46.046-14.708 0-30.368.711-46.311 2.316-3.522 5.321-6.783 10.808-9.771 16.445 17.733-2.304 36.536-3.538 56.082-3.538 85.234 0 173.963 24.129 203.28 66.778-3.111-12.615-8.5-24.672-15.848-35.955z" fill="#ffeb7e"/><path d="m197.65 74.811c-47.429 4.528-97.663 16.952-133.054 42.396-6.898 11.387-11.922 23.584-14.851 36.362 19.256-30.521 71.11-54.024 137.875-62.352 3.067-5.631 6.417-11.105 10.03-16.406z" fill="#ffd500"/><path d="m389.195 200.748c-39.852 7.013-92.429 10.874-148.045 10.874-13.5 0-47.506-.785-75.633-2.68.791 5.211 1.792 10.358 3.002 15.432 27.861 1.901 54.189 2.471 72.631 2.471 51.777 0 154.262-4.396 200.986-24.492.992-.427 2.363-1.016 3.936-1.777 1.267-6.444 1.935-13.024 1.98-19.708-2.27 3.484-15.834 12.311-58.857 19.88z" fill="#ffeb7e"/><path d="m167.047 209.044c-6.191-.405-12.128-.863-17.527-1.377-73.409-6.893-97.418-19.646-102.734-25.341.119 6.581.766 13.058 1.936 19.402 26.678 13.261 76.237 19.75 121.418 22.756-1.245-5.074-2.279-10.223-3.093-15.44z" fill="#ffd500"/><path d="m446.055 159.71c-1.566-.757-2.931-1.344-3.919-1.769-46.674-20.074-149.039-24.491-200.986-24.491-18.459 0-44.7.569-72.451 2.456-1.227 5.058-2.247 10.19-3.057 15.386 23.422-1.719 48.923-2.618 75.508-2.618 121.867 0 198.374 17.9 206.9 30.677-.051-6.663-.732-13.218-1.995-19.641z" fill="#ffeb7e"/><path d="m170.242 135.801c-45.295 3.006-94.946 9.505-121.533 22.788-1.171 6.36-1.822 12.854-1.937 19.453 3.544-3.842 15.826-11.395 49.737-18.064 19.906-3.914 43.935-6.882 70.616-8.794.827-5.196 1.864-10.328 3.117-15.383z" fill="#ffd500"/><g><path d="m258.247 408.34c-78.098-50.827-112.548-127.265-95.676-189.371l-5.462-3.555c-29.973 82.07-3.066 174.963 78.201 227.853s183.887 44.294 248.811-15.029l-5.494-3.575c-51.973 39.262-142.283 34.504-220.38-16.323z" fill="#ffe02f"/></g><path d="m506.769 383.01-25.693-16.721c-6.717-4.371-15.354-4.57-22.213-.425-40.27 24.336-104.305 18.991-160.133-17.343-55.476-36.105-81.96-89.214-74.701-134.537 1.318-8.228-2.274-16.465-9.258-21.011l-10.895-7.091c-.156.231-.316.458-.469.693-44.525 68.413-11.965 168.554 84.389 231.263 27.562 17.938 56.581 30.342 85.016 37.343 57.473 5.613 108.829-12.292 135.309-52.98.778-1.195 1.529-2.403 2.252-3.622 3.162-5.323 1.586-12.191-3.604-15.569z" fill="#fff1af"/><g><path d="m288.652 416.901c-95.472-62.134-127.733-161.359-83.616-229.146.171-.262.352-.515.525-.776l-15.718-10.229c-5.208-3.389-12.156-2.03-15.727 3.055-.804 1.145-1.59 2.307-2.358 3.487-44.117 67.787-11.855 167.012 83.616 229.146 41.019 26.696 85.299 41.064 125.969 43.407-30.847-6.448-62.644-19.389-92.691-38.944z" fill="#ffeb7e"/></g></g></svg>