<?xml version="1.0" encoding="UTF-8"?>
<svg xmlns="http://www.w3.org/2000/svg" xmlns:xlink="http://www.w3.org/1999/xlink" version="1.1" id="Layer_1" x="0px" y="0px" viewBox="0 0 512 512" style="enable-background:new 0 0 512 512;" xml:space="preserve" width="512" height="512">
<g>
	<g>
		<path style="fill:#E6F0F2;" d="M192.95,287.692c-5.93,0.78-12.57,1.19-20,1.19c-88.47,0-65.67-58.43-54.01-85.86&#10;&#9;&#9;&#9;c4.48-10.52,7.87-20.03,10.42-28.49l43.58-10l20.01,4.59l23.6,5.41c2.55,8.46,5.94,17.97,10.42,28.49&#10;&#9;&#9;&#9;C237.65,228.152,257.68,279.292,192.95,287.692z"/>
		<path style="fill:#B9D4D9;" d="M192.95,287.692c-5.93,0.78-12.57,1.19-20,1.19c-88.47,0-65.67-58.43-54.01-85.86&#10;&#9;&#9;&#9;c4.48-10.52,7.87-20.03,10.42-28.49l43.58-10l20.01,4.59l-23.59,5.41c-2.55,8.46-5.94,17.97-10.42,28.49&#10;&#9;&#9;&#9;C148.26,228.152,128.23,279.292,192.95,287.692z"/>
		<path style="fill:#BF8F8F;" d="M311.67,120.282c0,0-76.27,40-138.72,40c-62.44,0-138.71-40.01-138.71-40.01s0.09-17.79,8.86-39.24&#10;&#9;&#9;&#9;c13.31-32.55,46.59-73.53,129.85-73.53c83.25,0,116.54,40.96,129.85,73.51C311.58,102.472,311.67,120.282,311.67,120.282z"/>
		<path style="fill:#A66B6B;" d="M311.67,120.282c0,0-76.27,40-138.72,40c-62.44,0-138.71-40.01-138.71-40.01s0.09-17.79,8.86-39.24&#10;&#9;&#9;&#9;c1.69,0.5,3.36,1.07,5.02,1.73c2.31,0.84,43.27,15.15,124.82,15.15c81.2,0,122.16-14.19,124.79-15.14&#10;&#9;&#9;&#9;c1.67-0.67,3.36-1.25,5.07-1.76C311.58,102.472,311.67,120.282,311.67,120.282z"/>
		<path style="fill:#BF8F8F;" d="M336.98,130.341c-3.987-9.674-15.018-14.299-24.685-10.308&#10;&#9;&#9;&#9;c-0.445,0.179-45.527,17.879-139.357,17.879c-93.629,0-138.719-17.626-139.353-17.878c-9.652-3.936-20.673,0.674-24.649,10.323&#10;&#9;&#9;&#9;c-3.987,9.675,0.618,20.752,10.285,24.742c2.049,0.846,51.356,20.71,153.718,20.71s151.669-19.865,153.718-20.71&#10;&#9;&#9;&#9;C336.323,151.108,340.967,140.016,336.98,130.341z"/>
	</g>
	<g>
		<path style="fill:#E6F0F2;" d="M359.046,224.31c-5.93-0.78-12.57-1.19-20-1.19c-88.47,0-65.67,58.43-54.01,85.86&#10;&#9;&#9;&#9;c4.48,10.52,7.87,20.03,10.42,28.49l43.58,10l20.01-4.59l23.6-5.41c2.55-8.46,5.94-17.97,10.42-28.49&#10;&#9;&#9;&#9;C403.746,283.85,423.775,232.71,359.046,224.31z"/>
		<path style="fill:#B9D4D9;" d="M359.046,224.31c-5.93-0.78-12.57-1.19-20-1.19c-88.47,0-65.67,58.43-54.01,85.86&#10;&#9;&#9;&#9;c4.48,10.52,7.87,20.03,10.42,28.49l43.58,10l20.01-4.59l-23.59-5.41c-2.55-8.46-5.94-17.97-10.42-28.49&#10;&#9;&#9;&#9;C314.355,283.85,294.326,232.71,359.046,224.31z"/>
		<path style="fill:#BF8F8F;" d="M477.765,391.72c0,0-76.27-40-138.72-40c-62.44,0-138.71,40.01-138.71,40.01s0.09,17.79,8.86,39.24&#10;&#9;&#9;&#9;c13.31,32.55,46.59,73.53,129.85,73.53c83.25,0,116.54-40.96,129.85-73.51C477.676,409.53,477.765,391.72,477.765,391.72z"/>
		<path style="fill:#A66B6B;" d="M477.765,391.72c0,0-76.27-40-138.72-40c-62.44,0-138.71,40.01-138.71,40.01s0.09,17.79,8.86,39.24&#10;&#9;&#9;&#9;c1.69-0.5,3.36-1.07,5.02-1.73c2.31-0.84,43.27-15.15,124.82-15.15c81.2,0,122.16,14.19,124.79,15.14&#10;&#9;&#9;&#9;c1.67,0.67,3.36,1.25,5.07,1.76C477.676,409.53,477.765,391.72,477.765,391.72z"/>
		<path style="fill:#BF8F8F;" d="M503.075,381.662c-3.987,9.674-15.018,14.299-24.685,10.308&#10;&#9;&#9;&#9;c-0.445-0.179-45.527-17.879-139.357-17.879c-93.629,0-138.719,17.626-139.353,17.878c-9.652,3.936-20.673-0.674-24.65-10.323&#10;&#9;&#9;&#9;c-3.987-9.675,0.618-20.752,10.285-24.742c2.049-0.846,51.356-20.71,153.718-20.71s151.669,19.865,153.717,20.71&#10;&#9;&#9;&#9;C502.419,360.894,507.062,371.987,503.075,381.662z"/>
	</g>
	<g>
		<ellipse style="fill:#FFFFFF;" cx="93.398" cy="91.469" rx="29.355" ry="23.377"/>
		<ellipse style="fill:#FFFFFF;" cx="252.511" cy="91.469" rx="29.355" ry="23.377"/>
	</g>
</g>
<g>
	<path style="fill:none;stroke:#000000;stroke-width:15;stroke-linejoin:round;stroke-miterlimit:10;" d="M336.98,130.341&#10;&#9;&#9;c-3.987-9.674-15.018-14.299-24.685-10.308c-0.445,0.179-45.527,17.879-139.357,17.879c-93.629,0-138.719-17.626-139.353-17.878&#10;&#9;&#9;c-9.652-3.936-20.673,0.674-24.649,10.323c-3.987,9.675,0.618,20.752,10.285,24.742c2.049,0.846,51.356,20.71,153.718,20.71&#10;&#9;&#9;s151.669-19.865,153.718-20.71C336.323,151.108,340.967,140.016,336.98,130.341z"/>
	<path style="fill:none;stroke:#000000;stroke-width:15;stroke-linecap:round;stroke-linejoin:round;stroke-miterlimit:10;" d="&#10;&#9;&#9;M50.214,66.538c-15.835,27.283-15.972,53.737-15.972,53.737"/>
	<path style="fill:none;stroke:#000000;stroke-width:15;stroke-linecap:round;stroke-linejoin:round;stroke-miterlimit:10;" d="&#10;&#9;&#9;M311.667,120.28c0,0-0.587-112.78-138.713-112.78c-50.516,0-82.635,15.084-103.058,34.219"/>
	<path style="fill:none;stroke:#000000;stroke-width:15;stroke-linejoin:round;stroke-miterlimit:10;" d="M216.548,174.533&#10;&#9;&#9;c2.556,8.46,5.941,17.97,10.418,28.493c11.666,27.423,34.46,85.857-54.012,85.857s-65.678-58.434-54.012-85.857&#10;&#9;&#9;c4.476-10.522,7.862-20.032,10.418-28.491"/>
	<path style="fill:none;stroke:#000000;stroke-width:15;stroke-linecap:round;stroke-linejoin:round;stroke-miterlimit:10;" d="&#10;&#9;&#9;M270.273,377.624c18.986-2.08,41.884-3.536,68.789-3.536c93.629,0,138.719,17.626,139.353,17.878&#10;&#9;&#9;c9.652,3.936,20.673-0.674,24.65-10.323c3.987-9.675-0.618-20.752-10.285-24.742c-2.049-0.846-51.356-20.71-153.718-20.71&#10;&#9;&#9;s-151.669,19.865-153.718,20.71c-9.668,3.99-14.311,15.083-10.324,24.758c3.987,9.674,15.018,14.299,24.685,10.308&#10;&#9;&#9;c0.235-0.094,12.962-5.092,38.787-9.779"/>
	<path style="fill:none;stroke:#000000;stroke-width:15;stroke-linejoin:round;stroke-miterlimit:10;" d="M200.333,391.72&#10;&#9;&#9;c0,0,0.587,112.78,138.713,112.78s138.713-112.775,138.713-112.775"/>
	<path style="fill:none;stroke:#000000;stroke-width:15;stroke-linecap:round;stroke-linejoin:round;stroke-miterlimit:10;" d="&#10;&#9;&#9;M400.37,246.757c10.203,19.374-0.469,46.131-7.312,62.217c-4.476,10.522-7.862,20.032-10.418,28.491"/>
	<path style="fill:none;stroke:#000000;stroke-width:15;stroke-linecap:round;stroke-linejoin:round;stroke-miterlimit:10;" d="&#10;&#9;&#9;M295.452,337.467c-2.556-8.46-5.941-17.97-10.418-28.493c-11.666-27.423-34.46-85.857,54.012-85.857&#10;&#9;&#9;c15.7,0,27.896,1.84,37.272,5.021"/>
	<g>
		
			<line style="fill:none;stroke:#000000;stroke-width:15;stroke-linecap:round;stroke-linejoin:round;stroke-miterlimit:10;" x1="110.509" y1="56.966" x2="110.509" y2="68.966"/>
		
			<line style="fill:none;stroke:#000000;stroke-width:15;stroke-linecap:round;stroke-linejoin:round;stroke-miterlimit:10;" x1="235.4" y1="56.966" x2="235.4" y2="68.966"/>
		<path style="fill:none;stroke:#000000;stroke-width:15;stroke-linecap:round;stroke-linejoin:round;stroke-miterlimit:10;" d="&#10;&#9;&#9;&#9;M156.491,68.609c4.003,4.594,9.892,7.501,16.463,7.501c6.571,0,12.46-2.907,16.463-7.501"/>
	</g>
	
		<line style="fill:none;stroke:#000000;stroke-width:15;stroke-linecap:round;stroke-linejoin:round;stroke-miterlimit:10;" x1="400.478" y1="443.913" x2="400.478" y2="443.913"/>
	
		<line style="fill:none;stroke:#000000;stroke-width:15;stroke-linecap:round;stroke-linejoin:round;stroke-miterlimit:10;" x1="363.957" y1="413.13" x2="363.957" y2="413.13"/>
	
		<line style="fill:none;stroke:#000000;stroke-width:15;stroke-linecap:round;stroke-linejoin:round;stroke-miterlimit:10;" x1="279.957" y1="429.304" x2="279.957" y2="429.304"/>
</g>















</svg>
