<svg id="Capa_1" enable-background="new 0 0 502 502" height="512" viewBox="0 0 502 502" width="512" xmlns="http://www.w3.org/2000/svg" xmlns:xlink="http://www.w3.org/1999/xlink"><linearGradient id="lg1"><stop offset="0" stop-color="#fce59a"/><stop offset="1" stop-color="#fff3cc"/></linearGradient><linearGradient id="SVGID_1_" gradientUnits="userSpaceOnUse" x1="25.238" x2="362.86" xlink:href="#lg1" y1="290.182" y2="290.182"/><linearGradient id="lg2"><stop offset="0" stop-color="#d0dada"/><stop offset="1" stop-color="#f1f1f1"/></linearGradient><linearGradient id="SVGID_00000075857848865882778380000009984639244493006267_" gradientUnits="userSpaceOnUse" x1="1.897" x2="345.531" xlink:href="#lg2" y1="302.324" y2="302.324"/><linearGradient id="lg3"><stop offset="0" stop-color="#bb7e62"/><stop offset="1" stop-color="#d99c80"/></linearGradient><linearGradient id="SVGID_00000158015373387391568440000012088090734255445656_" gradientUnits="userSpaceOnUse" x1="56.115" x2="341.854" xlink:href="#lg3" y1="376.553" y2="376.553"/><linearGradient id="SVGID_00000102509995808521467500000002756128190574387078_" gradientUnits="userSpaceOnUse" x1="198.985" x2="198.985" xlink:href="#lg3" y1="101.984" y2="4.519"/><linearGradient id="SVGID_00000023272169003062234050000014809917870500290231_" gradientUnits="userSpaceOnUse" x1="362.512" x2="362.512" xlink:href="#lg2" y1="441.468" y2="514.001"/><linearGradient id="SVGID_00000124149563731980254270000018422957478341442696_" gradientUnits="userSpaceOnUse" x1="251.797" x2="392.277" xlink:href="#lg2" y1="401.252" y2="401.252"/><linearGradient id="SVGID_00000013881789918850693720000012648251382233481135_" gradientUnits="userSpaceOnUse" x1="362.512" x2="362.512" y1="375.128" y2="327.915"><stop offset="0" stop-color="#c2cbcb"/><stop offset="1" stop-color="#e5e5e5"/></linearGradient><linearGradient id="SVGID_00000084521974716943326180000010759698347550158746_" gradientUnits="userSpaceOnUse" x1="244.809" x2="381.526" xlink:href="#lg1" y1="375.128" y2="375.128"/><g><path d="m341.335 406.509c-10.355-16.861-15.289-68.378-15.98-88.494-.844-24.554-.04-64.495 11.389-88.494l.002.001c-1.048-12.227-2.375-22.197-4.183-29.817-4.17-17.568-13.75-30.564-23.078-41.108s-19.96-18.193-30.898-23.736c-8.388-4.25-13.672-12.849-13.672-22.252v-34.246h-131.861v34.245c0 9.403-5.284 18.002-13.672 22.252-10.938 5.543-21.57 13.191-30.898 23.736-9.328 10.544-18.909 23.54-23.078 41.108-1.809 7.621-3.136 17.59-4.183 29.817l.002-.001c11.43 23.999 12.233 63.94 11.389 88.494-.691 20.117-5.625 71.633-15.98 88.494.348 9.531.881 17.917 1.637 24.651 2.479 22.085 15.475 42.397 32.02 55.929 11.235 9.189 25.322 14.912 42.886 14.912 21.034 0 32.688-7.243 40.677-15.43 10.382-10.639 14.577-22.872 25.131-22.872 10.553 0 14.748 12.233 25.131 22.872 7.989 8.187 19.643 15.43 40.677 15.43 17.564 0 31.651-5.723 42.886-14.912 16.545-13.531 29.541-33.844 32.02-55.929.756-6.734 1.288-15.12 1.636-24.65z" fill="url(#SVGID_1_)"/><path d="m244.139 360.608c0 13.847 1.07 34.683 10.328 55.659 7.589 17.196 19.313 31.138 34.54 41.27-.372 2.135-.766 4.232-1.182 6.281-2.282 11.245-1.264 22.847 2.736 33.414 6.329-2.531 12.02-5.977 17.117-10.145 16.545-13.531 29.541-33.844 32.02-55.929 1.586-14.122 2.199-35.447 2.153-59.556z" fill="#ffcc94"/><path d="m198.985 375.128 142.607-28.532c-.202-11.359-.51-22.969-.905-34.456-.844-24.554-1.586-45.819-2.613-63.651-.393-6.835-.83-13.154-1.329-18.969h-275.521c-.499 5.814-.936 12.134-1.329 18.969-1.027 17.831-1.769 39.097-2.613 63.651-.395 11.486-.703 23.096-.905 34.456z" fill="url(#SVGID_00000075857848865882778380000009984639244493006267_)"/><path d="m341.852 371.604c-.015-8.076-.109-16.473-.26-25.008h-285.214c-.152 8.535-.245 16.932-.26 25.008-.024 12.612.135 24.449.517 34.905h194.098l16.29-8.829 21.582 8.829h52.732c.38-10.456.539-22.293.515-34.905z" fill="url(#SVGID_00000158015373387391568440000012088090734255445656_)"/><path d="m245.607 384.108c.969 7.06 2.555 14.645 5.125 22.401h37.872c-4.706-8.868-7.112-18.367-8.316-27.196-1.184-8.686-8.578-15.17-17.344-15.17-10.649.001-18.785 9.417-17.337 19.965z" fill="#b1755f"/><path d="m265.808 9.775c-10.899-3.258-21.977-5.702-33.143-7.331-11.168-1.629-22.424-2.444-33.68-2.444-10.939 0-21.878.769-32.735 2.308-11.487 1.628-22.882 4.117-34.088 7.467-14.913 4.458-25.13 18.177-25.13 33.742v17.936c0 19.45 15.767 35.217 35.217 35.217h113.471c19.45 0 35.217-15.767 35.217-35.217v-17.936c.001-15.565-10.217-29.284-25.129-33.742z" fill="url(#SVGID_00000102509995808521467500000002756128190574387078_)"/><path d="m397.164 414.525c0 19.759 2.493 40.289 5.733 56.255 2.94 14.487-7.094 28.456-21.779 30.154-6.167.713-12.431 1.066-18.607 1.066s-12.441-.353-18.607-1.066c-14.685-1.698-24.718-15.666-21.779-30.154 3.24-15.967 5.733-36.496 5.733-56.255z" fill="url(#SVGID_00000023272169003062234050000014809917870500290231_)"/><path d="m445.885 360.608c0 27.607-5.483 81.288-83.373 81.288s-83.373-53.681-83.373-81.288z" fill="url(#SVGID_00000124149563731980254270000018422957478341442696_)"/><path d="m362.512 331.568c-46.046 0-83.373 13.002-83.373 29.04 0 5.291 4.083 10.248 11.182 14.52h144.383c7.099-4.272 11.182-9.229 11.182-14.52-.001-16.038-37.329-29.04-83.374-29.04z" fill="url(#SVGID_00000013881789918850693720000012648251382233481135_)"/><path d="m362.512 389.648c-8.056 0-15.845-.398-23.212-1.141-11.748-1.185-22.426-3.247-31.416-5.968-6.963-2.108-12.914-4.612-17.564-7.41 4.928-2.966 11.316-5.601 18.823-7.784 8.43-2.452 18.27-4.335 29.036-5.479 7.697-.818 15.867-1.258 24.333-1.258s16.636.44 24.333 1.258c10.766 1.144 20.606 3.027 29.036 5.479 7.507 2.183 13.895 4.818 18.823 7.784-4.65 2.799-10.6 5.302-17.564 7.41-8.99 2.721-19.668 4.783-31.416 5.968-7.368.743-15.156 1.141-23.212 1.141z" fill="url(#SVGID_00000084521974716943326180000010759698347550158746_)"/><g><ellipse cx="111.099" cy="309.137" fill="#fcadcd" rx="14.936" ry="12.003"/><ellipse cx="286.87" cy="309.137" fill="#fcadcd" rx="14.936" ry="12.003"/><circle cx="136.706" cy="279.519" fill="#fff" r="29.618"/><circle cx="261.263" cy="279.519" fill="#fff" r="29.618"/><g fill="#383842"><g><circle cx="136.706" cy="279.519" r="17.652"/><circle cx="261.263" cy="279.519" r="17.652"/></g><path d="m198.984 310.079c-5.248 0-10.494-1.984-14.775-5.953-2.025-1.878-2.145-5.041-.268-7.066 1.878-2.025 5.041-2.144 7.066-.268 4.696 4.356 11.258 4.355 15.954 0 2.026-1.875 5.189-1.757 7.066.268s1.757 5.188-.268 7.066c-4.279 3.968-9.528 5.953-14.775 5.953z"/></g></g><g fill="#fff"><path d="m257.273 166.859c-2.052 0-4.121-.629-5.902-1.935-2.357-1.727-4.613-3.627-6.708-5.648-3.974-3.836-4.085-10.166-.25-14.141 3.836-3.973 10.167-4.084 14.141-.25 1.447 1.398 3.008 2.712 4.638 3.906 4.455 3.265 5.421 9.522 2.156 13.977-1.959 2.674-4.996 4.091-8.075 4.091z"/><path d="m301.287 210.058c-3.972 0-7.728-2.383-9.291-6.296-2.03-5.089-5.272-10.185-10.199-16.036-3.558-4.225-3.018-10.532 1.207-14.09 4.224-3.558 10.533-3.017 14.09 1.207 3.994 4.742 9.736 12.131 13.479 21.505 2.047 5.13-.452 10.947-5.581 12.994-1.217.485-2.471.716-3.705.716z"/></g></g></svg>