<svg id="Layer_1" height="512" viewBox="0 0 256 256" width="512" xmlns="http://www.w3.org/2000/svg"><g><g><path d="m45.273 225.813c-1.973 0-3.966-.583-5.707-1.795-4.532-3.157-5.646-9.39-2.489-13.921l75.583-108.503c.645-.926 1.441-1.735 2.356-2.396l89.854-64.792c4.479-3.23 10.73-2.216 13.96 2.263s2.217 10.729-2.263 13.96l-88.471 63.794-74.609 107.105c-1.943 2.79-5.054 4.285-8.214 4.285z" fill="#72c777"/></g><g><path d="m52.077 210.097 75.583-108.503c.645-.926 1.441-1.735 2.356-2.396l88.029-63.476c-3.382-3.654-9.033-4.303-13.175-1.316l-89.854 64.792c-.915.66-1.712 1.47-2.356 2.396l-75.583 108.503c-3.157 4.532-2.043 10.765 2.489 13.921 1.741 1.213 3.734 1.795 5.707 1.795 2.805 0 5.565-1.183 7.51-3.398-2.976-3.376-3.394-8.46-.706-12.318z" fill="#52aa57"/></g><path d="m109.205 209.996c8.029-.722 15.066-4.439 20.115-9.948 1.019-1.112.861-2.87-.34-3.782-5.951-4.519-13.538-6.921-21.567-6.198-8.029.722-15.066 4.439-20.115 9.948-1.019 1.112-.861 2.87.34 3.782 5.951 4.519 13.538 6.92 21.567 6.198z" fill="#72c777"/><g><path d="m128.98 196.266c-5.951-4.519-13.538-6.921-21.567-6.198-1.611.145-3.18.416-4.703.792 4.127 1.029 7.953 2.887 11.27 5.406 1.201.912 1.359 2.67.34 3.782-4.036 4.403-9.344 7.657-15.412 9.156 3.277.817 6.744 1.112 10.297.792 8.029-.722 15.066-4.439 20.115-9.948 1.019-1.112.861-2.869-.34-3.782z" fill="#8fe595"/></g><path d="m99.728 61.873c-4.029-6.982-5.038-14.876-3.439-22.175.323-1.473 1.851-2.355 3.289-1.898 7.12 2.267 13.45 7.09 17.48 14.072 4.029 6.982 5.038 14.876 3.438 22.175-.323 1.473-1.851 2.355-3.289 1.898-7.119-2.266-13.449-7.09-17.479-14.072z" fill="#72c777"/><g><path d="m114.728 61.873c-3.238-5.611-4.522-11.811-4.072-17.818-3.255-2.859-7.038-4.969-11.078-6.255-1.437-.458-2.966.425-3.289 1.898-1.6 7.299-.591 15.193 3.438 22.175s10.359 11.805 17.48 14.072c1.437.458 2.966-.425 3.289-1.898.314-1.433.524-2.89.634-4.357-2.482-2.18-4.658-4.796-6.402-7.817z" fill="#52aa57"/></g><g fill="#3f3679"><path d="m27.323 235.286h-18.003c-.828 0-1.5.671-1.5 1.5s.672 1.5 1.5 1.5h18.003c.828 0 1.5-.671 1.5-1.5s-.672-1.5-1.5-1.5z"/><path d="m246.68 235.286h-18.003c-.828 0-1.5.671-1.5 1.5s.672 1.5 1.5 1.5h18.003c.828 0 1.5-.671 1.5-1.5s-.672-1.5-1.5-1.5z"/><path d="m218.479 235.286h-180.958c-.828 0-1.5.671-1.5 1.5s.672 1.5 1.5 1.5h180.959c.828 0 1.5-.671 1.5-1.5s-.672-1.5-1.501-1.5z"/><path d="m9.32 227.313h237.36c.828 0 1.5-.671 1.5-1.5s-.672-1.5-1.5-1.5h-193.67c.631-.574 1.21-1.213 1.707-1.928l16.047-23.036c2.007.963 6.786 2.837 14.53 3.552.244.826.741 1.565 1.435 2.091 5.693 4.323 12.586 6.629 19.673 6.629.976 0 1.955-.044 2.937-.132 8.101-.729 15.59-4.432 21.085-10.428.771-.841 1.153-1.976 1.052-3.114-.103-1.138-.683-2.187-1.59-2.876-6.478-4.918-14.495-7.225-22.609-6.498-8.102.729-15.59 4.433-21.085 10.429-.245.267-.435.571-.599.889-6.76-.63-11.087-2.177-13.08-3.052l56.668-81.349 88.263-63.645c2.492-1.797 4.135-4.456 4.626-7.488.492-3.032-.227-6.074-2.023-8.566-1.797-2.491-4.456-4.134-7.488-4.625-3.031-.492-6.074.227-8.565 2.023l-71.557 51.598c-1.321-.704-5.629-3.289-10.856-9.418.166-.316.305-.647.383-1.001 1.741-7.945.462-16.201-3.604-23.247-4.065-7.045-10.573-12.284-18.324-14.751-1.085-.345-2.275-.216-3.266.354-.99.571-1.698 1.537-1.942 2.651-1.741 7.946-.462 16.201 3.604 23.247 4.065 7.046 10.573 12.285 18.323 14.752.4.127.815.19 1.229.19.441 0 .878-.08 1.298-.221 4.436 5.216 8.291 8.031 10.48 9.374l-15.62 11.263c-1.056.762-1.967 1.688-2.709 2.754l-49.954 71.711c-.001.002-.003.003-.004.005s-.001.003-.003.005l-25.622 36.782c-1.756 2.521-2.426 5.574-1.885 8.598.452 2.53 1.715 4.779 3.59 6.477h-28.235c-.828 0-1.5.671-1.5 1.5s.672 1.501 1.5 1.501zm98.227-35.751c.89-.08 1.778-.12 2.665-.12 6.434 0 12.691 2.094 17.86 6.02.325.247.4.579.416.755s.001.517-.274.818c-4.99 5.444-11.788 8.806-19.144 9.467-7.048.634-14.024-1.267-19.767-5.35.752.024 1.517.041 2.313.041 4.822 0 10.472-.462 16.97-1.687.814-.153 1.35-.938 1.196-1.752-.152-.814-.942-1.348-1.751-1.196-7.391 1.392-13.628 1.747-18.756 1.564 4.895-4.908 11.334-7.936 18.272-8.56zm-6.52-130.438c-3.69-6.396-4.853-13.891-3.272-21.104.088-.398.358-.606.512-.695.108-.063.297-.146.535-.146.099 0 .207.015.321.051 7.037 2.24 12.945 6.996 16.637 13.392 3.48 6.033 4.709 13.042 3.513 19.871-3.101-4.089-6.399-9.394-9.514-16.241-.343-.754-1.233-1.088-1.986-.744-.754.343-1.087 1.232-.744 1.986 3.191 7.013 6.56 12.477 9.749 16.718-6.645-2.349-12.216-6.963-15.751-13.088zm-60.603 161.663c-1.863-1.297-3.109-3.243-3.509-5.478s.095-4.492 1.393-6.355l24.789-35.586 6.508 4.417c.259.175.552.259.842.259.48 0 .952-.23 1.242-.658.465-.686.286-1.618-.398-2.083l-6.478-4.396 49.08-70.456c.548-.788 1.222-1.473 2.002-2.036l89.854-64.792c1.464-1.055 3.184-1.607 4.953-1.607.457 0 .918.037 1.379.112 2.241.363 4.207 1.577 5.534 3.419 1.328 1.841 1.859 4.09 1.496 6.331s-1.578 4.207-3.419 5.535l-32.868 23.7-6.385-7.394c-.541-.626-1.488-.696-2.116-.155-.627.542-.696 1.489-.155 2.116l6.213 7.195-53.16 38.332c-.138.099-.257.221-.354.359l-74.61 107.105c-1.589 2.281-4.199 3.643-6.983 3.643-1.74-.001-3.417-.528-4.85-1.527z"/></g></g></svg>