<svg id="Artboard_30" height="512" viewBox="0 0 64 64" width="512" xmlns="http://www.w3.org/2000/svg" data-name="Artboard 30"><path d="m33 35.44v-12.274a6.589 6.589 0 0 0 -2.472-5.144 16.483 16.483 0 0 1 -2.528-8.772v-1.25h-14v1.25a16.483 16.483 0 0 1 -2.528 8.772 6.589 6.589 0 0 0 -2.472 5.144v34.834a4 4 0 0 0 4 4h20z" fill="#d9d5ca"/><path d="m33 23.166a6.589 6.589 0 0 0 -2.472-5.144 16.483 16.483 0 0 1 -2.528-8.772v-1.25h-8v1.25a16.483 16.483 0 0 1 -2.528 8.772 6.589 6.589 0 0 0 -2.472 5.144v34.834a4 4 0 0 0 4 4h14z" fill="#f2efe0"/><path d="m9 28h24v26h-24z" fill="#5490f5"/><path d="m15 54h18v-18.56-7.44h-18z" fill="#81b4fc"/><circle cx="21" cy="41" fill="#d2976a" r="8"/><path d="m50.227 26.6a16 16 0 0 1 -10.227 27.369l-4-.25a15.97 15.97 0 0 1 -8.4-4.492z" fill="#d2976a"/><rect fill="#5490f5" height="6" rx="2" width="20" x="11" y="2"/><g fill="#9e7150"><path d="m17 37h2v2h-2z"/><path d="m19 40h2v2h-2z"/><path d="m21 37h2v2h-2z"/></g><path d="m40 45.94v10.06a2 2 0 0 0 2 2h11a2 2 0 0 1 2 2 2 2 0 0 1 -2 2h-29a2 2 0 0 1 -2-2 2 2 0 0 1 2-2h10a2 2 0 0 0 2-2v-6.5a1 1 0 0 0 -1.46-.882c-3.094 1.541-5.683 1.87-6.94.612-2.343-2.343.823-9.308 7.071-15.556s13.213-9.417 15.556-7.074-.822 9.308-7.071 15.556c-.807.807-1.625 1.563-2.445 2.261a2 2 0 0 0 -.711 1.523z" fill="#fcfcf9"/><ellipse cx="39" cy="38" fill="#d9d5ca" rx="11.314" ry="2" transform="matrix(.707 -.707 .707 .707 -15.447 38.707)"/><path d="m17 37h2v2h-2z"/><path d="m19 40h2v2h-2z"/><path d="m21 37h2v2h-2z"/><path d="m56 38a16.88 16.88 0 0 0 -5.07-12.112c-3.211-3.2-11.107 1.234-16.929 7.04v-9.761a7.547 7.547 0 0 0 -2.711-5.813 15.473 15.473 0 0 1 -2.29-8.104v-.25a3 3 0 0 0 3-3v-2a3 3 0 0 0 -3-3h-16a3 3 0 0 0 -3 3v2a3 3 0 0 0 3 3v.25a15.473 15.473 0 0 1 -2.289 8.1 7.547 7.547 0 0 0 -2.711 5.817v34.833a5.006 5.006 0 0 0 5 5h40a3 3 0 0 0 0-6h-11a1 1 0 0 1 -1-1v-1.136a17.011 17.011 0 0 0 15-16.864zm-15 14.854v-6.914a1 1 0 0 1 .36-.761c.851-.727 1.693-1.505 2.5-2.316 3.938-3.938 7.242-8.831 7.984-12.585a14.971 14.971 0 0 1 -10.844 22.576zm-7 1.387q.495.151 1 .274v1.485a1 1 0 0 1 -1 1zm1-1.783a14.787 14.787 0 0 1 -3.74-1.614 14.81 14.81 0 0 0 3.74-1.344zm-9.092-6.479a6.921 6.921 0 0 1 -4.908 2.021 7 7 0 1 1 6.982-7.367 15.919 15.919 0 0 0 -2.074 5.346zm3.639-7.787a9.013 9.013 0 1 0 -3.526 10.265 3.514 3.514 0 0 0 .872 1.478l.013.01a17.046 17.046 0 0 0 4.081 3.055h-20.987v-24h22v6.072a39.157 39.157 0 0 0 -2.453 3.12zm-17.547-32.192v-2a1 1 0 0 1 1-1h16a1 1 0 0 1 1 1v2a1 1 0 0 1 -1 1h-16a1 1 0 0 1 -1-1zm.1 12.8a.991.991 0 0 0 .221-.249 17.464 17.464 0 0 0 2.679-9.301v-.25h12v.25a17.464 17.464 0 0 0 2.681 9.3.991.991 0 0 0 .221.249 5.563 5.563 0 0 1 2.098 4.368v3.833h-22v-3.833a5.563 5.563 0 0 1 2.1-4.367zm-2.1 39.2v-3h22v2h-8a3 3 0 0 0 -3 3 2.966 2.966 0 0 0 .184 1h-8.184a3 3 0 0 1 -3-3zm32 1h11a1 1 0 0 1 0 2h-29a1 1 0 0 1 0-2h10a3 3 0 0 0 3-3v-6.5a1.976 1.976 0 0 0 -.939-1.689 2.008 2.008 0 0 0 -1.961-.091c-2.714 1.35-4.93 1.656-5.788.8-1.669-1.669 1-8.073 7.071-14.143s12.473-8.74 14.143-7.071-1 8.072-7.072 14.142c-.773.774-1.576 1.516-2.387 2.207a3 3 0 0 0 -1.067 2.285v10.06a3 3 0 0 0 3 3z"/><path d="m47.707 29.293c-.829-.827-2.209-.459-4.623 1.231a49.31 49.31 0 0 0 -6.205 5.355c-7.858 7.858-7.224 10.19-6.586 10.828a1.325 1.325 0 0 0 .983.349c1.345 0 4.138-1.228 9.845-6.935 7.858-7.858 7.224-10.19 6.586-10.828zm-15.545 15.545a35.633 35.633 0 0 1 6.131-7.545 35.6 35.6 0 0 1 7.545-6.131 35.633 35.633 0 0 1 -6.131 7.545 35.633 35.633 0 0 1 -7.545 6.131z"/></svg>