<?xml version="1.0" encoding="UTF-8"?>
<svg xmlns="http://www.w3.org/2000/svg" xmlns:xlink="http://www.w3.org/1999/xlink" version="1.1" id="Capa_1" x="0px" y="0px" viewBox="0 0 512 512" style="enable-background:new 0 0 512 512;" xml:space="preserve" width="512" height="512">
<g>
	<g>
		<circle style="fill:#B8EB7C;" cx="256" cy="256" r="248.5"/>
		<path style="fill:#98DB7C;" d="M422.848,71.85c39.984,44.104,64.349,102.629,64.349,166.848c0,13.385-1.09,26.512-3.127,39.324&#10;&#9;&#9;&#9;c0.078-1.372,0.207-2.731,0.207-4.122c0-39.845-32.299-72.145-72.145-72.145c-39.844,0-72.145,32.3-72.145,72.145&#10;&#9;&#9;&#9;c0,39.844,32.301,72.145,72.145,72.145c31.254,0,57.788-19.912,67.811-47.71c-26.718,108.431-124.568,188.863-241.246,188.863&#10;&#9;&#9;&#9;c-64.219,0-122.745-24.365-166.847-64.35C117.315,472.998,182.976,504.5,256,504.5c137.243,0,248.5-111.258,248.5-248.5&#10;&#9;&#9;&#9;C504.5,182.977,472.998,117.315,422.848,71.85z"/>
		<path style="fill:#98DB7C;" d="M208.707,442.801c-8.345,0-16.682-3.237-22.968-9.684c-43.76-44.907-67.863-104.096-67.863-166.671&#10;&#9;&#9;&#9;s24.103-121.765,67.863-166.671c12.365-12.674,32.663-12.936,45.345-0.583c12.682,12.361,12.94,32.663,0.583,45.345&#10;&#9;&#9;&#9;c-32.025,32.859-49.662,76.153-49.662,121.909s17.637,89.05,49.662,121.909c12.357,12.682,12.099,32.984-0.583,45.345&#10;&#9;&#9;&#9;C224.849,439.776,216.774,442.801,208.707,442.801z"/>
		<path style="fill:#98DB7C;" d="M328.949,442.801c-8.345,0-16.682-3.237-22.968-9.684c-43.76-44.907-67.863-104.096-67.863-166.671&#10;&#9;&#9;&#9;s24.103-121.765,67.863-166.671c12.365-12.674,32.663-12.936,45.345-0.583c12.682,12.361,12.94,32.663,0.583,45.345&#10;&#9;&#9;&#9;c-32.025,32.859-49.662,76.153-49.662,121.909s17.637,89.05,49.662,121.909c12.357,12.682,12.099,32.984-0.583,45.345&#10;&#9;&#9;&#9;C345.091,439.776,337.016,442.801,328.949,442.801z"/>
		<path style="fill:#A46A5A;" d="M186.509,432.355c-8.345,0-16.682-3.237-22.968-9.684C119.781,377.765,95.677,318.575,95.677,256&#10;&#9;&#9;&#9;s24.103-121.765,67.863-166.671c12.365-12.674,32.663-12.936,45.345-0.583c12.682,12.361,12.94,32.663,0.583,45.345&#10;&#9;&#9;&#9;C177.443,166.95,159.806,210.244,159.806,256s17.637,89.05,49.662,121.909c12.357,12.682,12.099,32.984-0.583,45.345&#10;&#9;&#9;&#9;C202.65,429.329,194.576,432.355,186.509,432.355z"/>
		<circle style="fill:#FBF4DB;" cx="392.274" cy="256" r="72.145"/>
		<path style="fill:#A46A5A;" d="M306.751,432.355c-8.345,0-16.682-3.237-22.968-9.684c-43.76-44.907-67.863-104.096-67.863-166.671&#10;&#9;&#9;&#9;s24.103-121.765,67.863-166.671c12.365-12.674,32.663-12.936,45.345-0.583c12.682,12.361,12.94,32.663,0.583,45.345&#10;&#9;&#9;&#9;C297.685,166.95,280.048,210.244,280.048,256s17.637,89.05,49.662,121.909c12.357,12.682,12.099,32.984-0.583,45.345&#10;&#9;&#9;&#9;C322.892,429.329,314.818,432.355,306.751,432.355z"/>
		<circle style="fill:#A46A5A;" cx="392.274" cy="256" r="40.081"/>
		<path style="fill:#845252;" d="M398.073,216.504c8.16,7.337,13.389,17.865,13.389,29.703c0,22.136-17.945,40.081-40.081,40.081&#10;&#9;&#9;&#9;c-1.986,0-3.89-0.305-5.798-0.584c7.098,6.383,16.392,10.378,26.69,10.378c22.136,0,40.081-17.945,40.081-40.081&#10;&#9;&#9;&#9;C432.355,235.851,417.436,219.334,398.073,216.504z"/>
		<path style="fill:#845252;" d="M159.806,256c0-45.756,17.637-89.05,49.662-121.909c9.001-9.237,11.224-22.495,6.914-33.804&#10;&#9;&#9;&#9;c-4.302,0.685-8.479,2.481-12.003,5.552c-43.611,38.006-68.622,92.737-68.622,150.162c0,57.432,25.011,112.167,68.63,150.169&#10;&#9;&#9;&#9;c3.521,3.07,7.685,4.899,11.981,5.585c4.332-11.318,2.111-24.597-6.901-33.845C177.443,345.05,159.806,301.756,159.806,256z"/>
		<path style="fill:#845252;" d="M280.048,256c0-45.756,17.637-89.05,49.662-121.909c9.001-9.237,11.224-22.495,6.914-33.804&#10;&#9;&#9;&#9;c-4.302,0.685-8.479,2.481-12.003,5.552C281.011,143.845,256,198.576,256,256c0,57.432,25.011,112.167,68.63,150.169&#10;&#9;&#9;&#9;c3.521,3.07,7.685,4.899,11.981,5.585c4.332-11.318,2.111-24.597-6.901-33.845C297.685,345.05,280.048,301.756,280.048,256z"/>
	</g>
	<g>
		
			<circle style="fill:none;stroke:#000000;stroke-width:15;stroke-linecap:round;stroke-linejoin:round;stroke-miterlimit:10;" cx="256" cy="256" r="248.5"/>
		<path style="fill:none;stroke:#000000;stroke-width:15;stroke-linecap:round;stroke-linejoin:round;stroke-miterlimit:10;" d="&#10;&#9;&#9;&#9;M186.509,432.355c-8.345,0-16.682-3.237-22.968-9.684C119.781,377.765,95.677,318.575,95.677,256s24.103-121.765,67.863-166.671&#10;&#9;&#9;&#9;c12.365-12.674,32.663-12.936,45.345-0.583c12.682,12.361,12.94,32.663,0.583,45.345C177.443,166.95,159.806,210.244,159.806,256&#10;&#9;&#9;&#9;s17.637,89.05,49.662,121.909c12.357,12.682,12.099,32.984-0.583,45.345C202.65,429.329,194.576,432.355,186.509,432.355z"/>
		<path style="fill:none;stroke:#000000;stroke-width:15;stroke-linecap:round;stroke-linejoin:round;stroke-miterlimit:10;" d="&#10;&#9;&#9;&#9;M135.355,387.702c53.467-35.431,0,0,53.389-35.431c0.078,0,0.078,0,0.078,0 M165.394,420.522c42.058-40.487,0,0,41.988-40.474&#10;&#9;&#9;&#9;c0.07-0.013,0.07-0.013,0.07-0.013 M113.632,346.902c59.24-24.448,0,0,59.24-24.448 M163.173,290.147l-31.314,6.184&#10;&#9;&#9;&#9; M95.677,256.638c64.129-0.157,0,0,64.129-0.157 M162.93,222.73c0,0,0,0,0,0.082l0,0c-62.923-12.185,0,0-62.923-12.185l0,0&#10;&#9;&#9;&#9; M172.551,190.427c-59.401-24.127,0,0-59.401-24.127 M134.635,125.335l53.627,35.192l0,0 M209.426,134.075&#10;&#9;&#9;&#9;c-45.854-44.731,0,0-45.854-44.731"/>
		
			<line style="fill:none;stroke:#000000;stroke-width:15;stroke-linecap:round;stroke-linejoin:round;stroke-miterlimit:10;" x1="135.758" y1="125.335" x2="135.758" y2="79.645"/>
		
			<line style="fill:none;stroke:#000000;stroke-width:15;stroke-linecap:round;stroke-linejoin:round;stroke-miterlimit:10;" x1="135.758" y1="432.355" x2="135.758" y2="387.703"/>
		<path style="fill:none;stroke:#000000;stroke-width:15;stroke-linecap:round;stroke-linejoin:round;stroke-miterlimit:10;" d="&#10;&#9;&#9;&#9;M306.751,432.355c-8.345,0-16.682-3.237-22.968-9.684c-43.76-44.907-67.863-104.096-67.863-166.671s24.103-121.765,67.863-166.671&#10;&#9;&#9;&#9;c12.365-12.674,32.663-12.936,45.345-0.583c12.682,12.361,12.94,32.663,0.583,45.345C297.685,166.95,280.048,210.244,280.048,256&#10;&#9;&#9;&#9;s17.637,89.05,49.662,121.909c12.357,12.682,12.099,32.984-0.583,45.345C322.892,429.329,314.818,432.355,306.751,432.355z"/>
		<path style="fill:none;stroke:#000000;stroke-width:15;stroke-linecap:round;stroke-linejoin:round;stroke-miterlimit:10;" d="&#10;&#9;&#9;&#9;M255.597,387.702c53.467-35.431,0,0,53.389-35.431c0.078,0,0.078,0,0.078,0 M285.636,420.522c42.058-40.487,0,0,41.988-40.474&#10;&#9;&#9;&#9;c0.07-0.013,0.07-0.013,0.07-0.013 M233.873,346.902c59.24-24.448,0,0,59.24-24.448 M283.415,290.147l-62.927,12.427&#10;&#9;&#9;&#9; M215.919,256.638c64.129-0.157,0,0,64.129-0.157 M283.172,222.73c0,0,0,0,0,0.082l0,0c-62.923-12.185,0,0-62.923-12.185l0,0&#10;&#9;&#9;&#9; M261.117,177.561c-5.558-2.258,8.663,3.519-27.725-11.261 M254.877,125.335l53.627,35.192l0,0 M329.668,134.075&#10;&#9;&#9;&#9;c-45.854-44.731,0,0-45.854-44.731"/>
		
			<line style="fill:none;stroke:#000000;stroke-width:15;stroke-linecap:round;stroke-linejoin:round;stroke-miterlimit:10;" x1="256" y1="125.335" x2="256" y2="79.645"/>
		
			<line style="fill:none;stroke:#000000;stroke-width:15;stroke-linecap:round;stroke-linejoin:round;stroke-miterlimit:10;" x1="256" y1="432.355" x2="256" y2="387.703"/>
		
			<circle style="fill:none;stroke:#000000;stroke-width:15;stroke-linecap:round;stroke-linejoin:round;stroke-miterlimit:10;" cx="392.274" cy="256" r="72.145"/>
		<path style="fill:none;stroke:#000000;stroke-width:15;stroke-linecap:round;stroke-linejoin:round;stroke-miterlimit:10;" d="&#10;&#9;&#9;&#9;M430.553,244.081c1.171,3.765,1.802,7.768,1.802,11.919c0,22.136-17.945,40.081-40.081,40.081S352.194,278.136,352.194,256&#10;&#9;&#9;&#9;s17.945-40.081,40.081-40.081c5.534,0,10.806,1.122,15.601,3.15"/>
	</g>
</g>















</svg>
