<svg id="Layer_3" height="512" viewBox="0 0 64 64" width="512" xmlns="http://www.w3.org/2000/svg" data-name="Layer 3"><path d="m38 16.927a10.2 10.2 0 0 1 3.87-.919 10.248 10.248 0 0 0 -7.981-4.008h-3.619a10.249 10.249 0 0 0 -8.14 4.008 10.2 10.2 0 0 1 3.87.919 10.234 10.234 0 0 1 4.27-.927h3.46a10.234 10.234 0 0 1 4.27.927z" fill="#4d8c28"/><path d="m38 16.927a10.234 10.234 0 0 1 4.27-.927h3.46a10.27 10.27 0 0 1 10.27 10.27 10.247 10.247 0 0 1 -.1 1.453l-3.919 27.408a8 8 0 0 1 -7.919 6.869h-.124a7.991 7.991 0 0 1 -5.938-2.639 7.975 7.975 0 0 0 1.981-4.23l3.919-27.408a10.247 10.247 0 0 0 .1-1.453 10.273 10.273 0 0 0 -6-9.343z" fill="#559b2d"/><path d="m26 16.927a10.237 10.237 0 0 0 -4.27-.927h-3.46a10.27 10.27 0 0 0 -10.27 10.27 10.247 10.247 0 0 0 .1 1.453l3.916 27.408a8 8 0 0 0 7.922 6.869h.124a7.991 7.991 0 0 0 5.938-2.639 7.968 7.968 0 0 1 -1.981-4.23l-3.919-27.408a10.247 10.247 0 0 1 -.1-1.453 10.273 10.273 0 0 1 6-9.343z" fill="#559b2d"/><path d="m32.062 62a8 8 0 0 0 7.919-6.869l3.919-27.408a10.247 10.247 0 0 0 .1-1.453 10.27 10.27 0 0 0 -10.27-10.27h-3.46a10.27 10.27 0 0 0 -10.27 10.27 10.247 10.247 0 0 0 .1 1.453l3.916 27.408a8 8 0 0 0 7.922 6.869z" fill="#64a838"/><path d="m31 16-.168-1.344a39.159 39.159 0 0 0 -3.832-12.656h8a45.547 45.547 0 0 1 -1.085 9.881l-.915 4.119" fill="#c18e59"/></svg>