<svg id="Capa_1" enable-background="new 0 0 512 512" height="512" viewBox="0 0 512 512" width="512" xmlns="http://www.w3.org/2000/svg"><g><g><path d="m459.032 509.721c-13.28-3.765-27.233-4.541-40.751-1.707-25.899 5.409-54.745 3.403-83.664-5.595l-3.382-8.285-17.397.6c-16.818-7.199-33.408-16.755-49.201-28.578l-5.544-34.318 62.967-237.308 21.958-18.7c42.479 13.332 81.813 40.844 111.487 75.504l8.636 21.979 8.885.962c31.856 47.009 44.226 99.82 34.99 144.005-2.834 13.518-2.058 27.471 1.707 40.751 10.146 35.827-14.843 60.847-50.691 50.69z" fill="#dc7f57"/><path d="m344.022 175.833c-11.324-3.553-22.87-6.111-34.518-7.512l-41.103-3.351-68.781 236.864 40.824 43.802c7.786 7.465 15.881 14.305 24.194 20.525 79.386-63.887 105.971-186.974 79.384-290.328z" fill="#d76d43"/><path d="m317.551 198.791-17.852 36.852h-197.116c-47.94-79.289 5.161-204.439 72.411-233.151 10.674 4.065 19.931 12.856 26.519 24.658 7.499 13.425 17.873 25.009 30.739 33.428 15.37 10.064 29.395 23.313 41.558 39.096l-4.548 8.926 18.614 11.822c14.391 24.162 24.194 51.234 29.675 78.369z" fill="#dc7f57"/><path d="m174.994 2.493c-40.358 54.176-67.767 137.799-72.411 233.151h-79.31l-20.489-19.942c4.385-31.515 13.86-60.641 27.212-85.784l20.427-14.335-6.93-7.84c13.467-19.373 29.55-35.435 47.475-47.164 12.867-8.419 23.241-20.003 30.739-33.428 9.215-16.519 23.665-27.151 39.903-27.151 4.634 0 9.122.869 13.384 2.493z" fill="#d76d43"/><path d="m201.513 484.826c7.499-13.425 17.873-25.009 30.739-33.428 19.471-12.739 35.945-30.045 49.108-49.563l-17.614-21.041h-150.027c-24.828 46.199 4.365 112.049 51.073 131.043 14.936-1.29 28.112-11.581 36.721-27.011z" fill="#dc7f57"/><path d="m48.841 380.793-12.66 12.146c14.79 24.461 33.48 44.516 54.787 58.458 12.867 8.419 23.241 20.003 30.739 33.428 9.216 16.518 23.665 27.15 39.903 27.15 1.069 0 2.13-.049 3.182-.14-22.566-35.092-40.267-80.01-51.073-131.043h-64.878z" fill="#d76d43"/><path d="m319.392 303.11-13.239 13.556 9.164 6.561c-7.126 29.467-18.824 56.173-33.945 78.606h-.01c-50.918 16.673-106.998 20.665-158.878 13.963-80.934-33.625-89.208-200.095-12.546-247.817 19.031-3.289 39.458-5.078 60.723-5.078 59.689 0 112.821 14.046 146.891 35.89 6.672 32.935 7.669 68.983 1.84 104.319z" fill="#e59b70"/><path d="m122.483 415.797c-31.277-4.034-60.444-11.905-86.302-22.858-14.687-24.254-25.547-52.842-31.36-84.109l7.721-6.816-11.227-18.255c-2.117-22.154-1.711-45.387 1.469-68.057 21.389-22.258 59.989-39.593 107.153-47.722-13.595 79.103-10.44 168.8 12.546 247.817z" fill="#dc7f57"/><path d="m243.981 240.339c16.787 0 30.398 10.829 30.398 24.202 0 13.363-13.611 24.202-30.398 24.202s-30.387-10.839-30.387-24.202c0-13.373 13.601-24.202 30.387-24.202z" fill="#fff"/><path d="m186.112 245.945c0 15.142-10.964 27.419-24.502 27.419-13.539 0-24.502-12.277-24.502-27.419 0-15.152 10.964-16.569 24.502-16.569 13.539 0 24.502 1.416 24.502 16.569z" fill="#423e4f"/><path d="m79.239 240.339c16.787 0 30.388 10.829 30.388 24.202 0 13.363-13.601 24.202-30.388 24.202s-30.398-10.839-30.398-24.202c0-13.373 13.611-24.202 30.398-24.202z" fill="#fff"/><path d="m84.317 243.401c-4.284 0-7.757-3.473-7.757-7.757v-12.411c0-4.284 3.473-7.757 7.757-7.757s7.757 3.473 7.757 7.757v12.411c0 4.284-3.473 7.757-7.757 7.757z" fill="#423e4f"/><path d="m238.903 243.401c-4.284 0-7.757-3.473-7.757-7.757v-12.411c0-4.284 3.473-7.757 7.757-7.757s7.757 3.473 7.757 7.757v12.411c0 4.284-3.473 7.757-7.757 7.757z" fill="#423e4f"/><path d="m287.877 120.423c-6.279-1.553-49.376-19.579-117.217-19.579-4.282 0-7.757-3.475-7.757-7.757s3.475-7.757 7.757-7.757c36.014 0 70.653 4.82 103.15 14.346 2.606 3.372 5.12 6.868 7.55 10.467h.01c2.245 3.329 4.417 6.763 6.507 10.28z" fill="#d76d43"/><path d="m96.356 108.435c-20.138 4.241-39.365 10.208-57.155 17.748-.031.01-.062.021-.104.041l-9.102 3.692c4.043-7.56 8.383-14.776 13.498-22.175 15.732-5.989 32.394-10.85 49.656-14.49 4.199-.879 8.316 1.8 9.195 5.989.88 4.2-1.799 8.306-5.988 9.195z" fill="#cf5c3a"/><path d="m319.392 303.11c-.993 6.146-2.417 13.314-4.075 20.117-12.37 6.371-26.354 11.822-41.744 16.28-4.231 1.209-8.443-1.273-9.609-5.296-1.189-4.117 1.179-8.419 5.296-9.609 19.351-5.594 36.21-12.814 50.132-21.492z" fill="#dc7f57"/><path d="m170.66 341.317c-22.393 0-44.227-2.079-64.509-5.927l-5.664 7.823 7.919 8.447c19.662 3.382 40.627 5.171 62.254 5.171 4.282 0 7.757-3.475 7.757-7.757s-3.475-7.757-7.757-7.757z" fill="#dc7f57"/><g fill="#d76d43"><path d="m8.379 290.895c-.1-.067-1.126-1.129-7.064-7.137.749 8.022 1.946 16.638 3.506 25.071 23.851 20.458 60.61 35.435 103.585 42.83-.827-5.368-1.572-10.788-2.255-16.27-42.313-8.035-77.872-23.787-97.772-44.494z"/><path d="m401.08 455.338c-19.507 19.31-41.827 35.135-66.464 47.081-6.912-2.162-13.598-4.61-20.779-7.685 2.982-1.617 40.103-14.521 76.321-50.422 3.041-3.01 7.954-2.989 10.974.052 3.01 3.041 2.989 7.954-.052 10.974z"/><path d="m447.582 391.346c-1.365 2.71-4.096 4.272-6.94 4.272-5.712 0-9.526-6.057-6.919-11.243 19.06-37.922 26.744-79.461 23.086-121.147l-1.303-11.894c6.36 7.417 12.274 15.2 17.521 22.941 1.503 39.114-6.443 79.264-25.445 117.071z"/></g></g></g></svg>