<svg xmlns="http://www.w3.org/2000/svg" version="1.1" xmlns:xlink="http://www.w3.org/1999/xlink" xmlns:svgjs="http://svgjs.com/svgjs" width="512" height="512" x="0" y="0" viewBox="0 0 512.001 512" style="enable-background:new 0 0 512 512" xml:space="preserve" class=""><g><path fill="#e88c38" d="m8.113 166.352-1.203-3.813a8.262 8.262 0 0 1 5.29-10.324L471.804.418a8.266 8.266 0 0 1 10.468 5.36l5.16 16.367a8.263 8.263 0 0 1-5.503 10.394L18.367 171.781a8.258 8.258 0 0 1-10.254-5.43zM14.734 187.77l.551 3.957c.625 4.476 4.727 7.62 9.207 7.058l480.274-60.144c4.57-.57 7.789-4.77 7.156-9.332l-2.363-16.996a8.262 8.262 0 0 0-9.43-7.028l-478.461 73.18a8.264 8.264 0 0 0-6.934 9.305zm0 0" data-original="#e88c38" class=""></path><g fill="#e2e2e2"><path d="M214.262 148.777c0-16.027 3.566-23.605 7.695-32.382 4.05-8.614 9.168-22.45 10.652-39.852.348-4.094-3.582-7.223-7.48-5.938l-12.711 4.2a5.692 5.692 0 0 0-3.89 4.949c-.9 11.371-3.962 17.898-7.423 25.258-4.789 10.18-10.218 21.718-10.218 43.765 0 22.051 5.425 33.59 10.215 43.774 4.128 8.777 7.695 16.355 7.695 32.387 0 16.035-3.567 23.613-7.695 32.39-4.79 10.184-10.215 21.723-10.215 43.77 0 6.957 5.23 12.593 11.687 12.593s11.688-5.636 11.688-12.593c0-16.032 3.566-23.61 7.695-32.387 4.79-10.184 10.215-21.723 10.215-43.773 0-22.047-5.426-33.586-10.215-43.77-4.129-8.777-7.695-16.36-7.695-32.39zM162.023 148.777c0-16.027 3.563-23.605 7.692-32.382 2.773-5.895 5.758-12.262 7.777-20.86 1.028-4.36-3.082-8.176-7.336-6.773l-14.144 4.672a5.725 5.725 0 0 0-3.532 3.375c-1.09 2.812-2.324 5.453-3.617 8.203-4.789 10.18-10.218 21.718-10.218 43.765 0 22.051 5.43 33.59 10.218 43.774 4.125 8.777 7.692 16.355 7.692 32.387s-3.567 23.613-7.692 32.39c-4.789 10.18-10.218 21.723-10.218 43.77 0 6.957 5.234 12.593 11.687 12.593 6.457 0 11.691-5.636 11.691-12.593 0-16.032 3.563-23.61 7.692-32.387 4.789-10.184 10.219-21.727 10.219-43.773s-5.43-33.59-10.22-43.77c-4.128-8.777-7.69-16.36-7.69-32.39zM109.781 148.777c0-16.027 3.567-23.605 7.696-32.382.015-.036.03-.07.05-.11 2.13-4.531-2.199-9.414-6.957-7.844l-15.53 5.133a5.677 5.677 0 0 0-3.571 3.446c-2.848 7.894-5.063 17.68-5.063 31.757 0 22.051 5.426 33.59 10.215 43.774 4.129 8.777 7.695 16.355 7.695 32.387s-3.566 23.613-7.695 32.39c-4.789 10.18-10.215 21.723-10.215 43.77 0 6.957 5.23 12.593 11.688 12.593s11.687-5.636 11.687-12.593c0-16.032 3.567-23.61 7.696-32.387 4.789-10.184 10.214-21.727 10.214-43.773s-5.425-33.59-10.214-43.77c-4.13-8.777-7.696-16.36-7.696-32.39zM57.54 148.777c0-5.664.444-10.273 1.202-14.254.82-4.293-3.23-7.894-7.383-6.523l-12.73 4.203a5.736 5.736 0 0 0-3.89 4.867c-.368 3.551-.575 7.43-.575 11.707 0 22.051 5.426 33.59 10.215 43.774 4.129 8.777 7.695 16.355 7.695 32.387 0 16.035-3.566 23.613-7.695 32.39-4.79 10.184-10.215 21.723-10.215 43.77 0 6.957 5.23 12.593 11.688 12.593 6.457 0 11.687-5.636 11.687-12.593 0-16.032 3.566-23.61 7.695-32.387 4.79-10.184 10.215-21.723 10.215-43.773 0-22.047-5.426-33.586-10.215-43.77-4.129-8.777-7.695-16.36-7.695-32.39zm0 0" fill="#58d12e" data-original="#e2e2e2" class=""></path></g><path fill="#87a4f4" d="M4.465 280.453a4.458 4.458 0 0 0-4.442 4.906C4.605 331.203 24.641 415.5 107.34 468.2c.644.41 1.344.723 2.066.938v17.808c0 8.75 7.094 15.848 15.848 15.848h201.14c8.75 0 15.844-7.098 15.844-15.848V469.11a8.296 8.296 0 0 0 1.985-.91c82.699-52.699 102.738-136.996 107.32-182.84a4.462 4.462 0 0 0-4.441-4.906zm0 0" data-original="#87a4f4"></path><path fill="#7c9ce5" d="M447.102 280.453H387.43a4.46 4.46 0 0 1 4.441 4.906C387.29 331.203 367.254 415.5 284.555 468.2a8.366 8.366 0 0 1-1.985.91v17.836c0 8.75-7.093 15.848-15.847 15.848h59.672c8.75 0 15.843-7.098 15.843-15.848V469.11a8.296 8.296 0 0 0 1.985-.91c82.699-52.699 102.738-136.996 107.32-182.84a4.462 4.462 0 0 0-4.441-4.906zm0 0" data-original="#7c9ce5"></path><path fill="#6b97d6" d="M342.238 486.945v-17.832H109.336c.023.008.047.02.07.028v17.804c0 8.754 7.094 15.848 15.848 15.848h201.14c8.75 0 15.844-7.094 15.844-15.848zm0 0" data-original="#6b97d6"></path><path fill="#5884ba" d="M282.57 486.945c0 8.75-7.093 15.848-15.843 15.848h59.668c8.75 0 15.843-7.098 15.843-15.848v-17.832H282.57zm0 0" data-original="#5884ba"></path></g></svg>