<svg id="fish-dry" enable-background="new 0 0 300 300" height="512" viewBox="0 0 300 300" width="512" xmlns="http://www.w3.org/2000/svg"><g><circle cx="164" cy="162.832" fill="#f2e9ce" r="92"/><circle cx="178.142" cy="201.223" fill="#4c241d" r="4.276"/><path d="m226 250.832c-7.719 0-14-6.281-14-14s6.281-14 14-14 14 6.281 14 14-6.281 14-14 14zm0-20c-3.309 0-6 2.691-6 6s2.691 6 6 6 6-2.691 6-6-2.692-6-6-6z" fill="#4c241d"/><path d="m236 194.832c-2.211 0-4-1.791-4-4v-16c0-2.209 1.789-4 4-4s4 1.791 4 4v16c0 2.209-1.789 4-4 4z" fill="#4c241d"/><path d="m244 186.832h-16c-2.211 0-4-1.791-4-4s1.789-4 4-4h16c2.211 0 4 1.791 4 4s-1.789 4-4 4z" fill="#4c241d"/><g><path d="m92.212 95.847c-3.789 10.795-6.3 22.558-6.3 34.896 0 .069.005.138.005.207-12.909 11.558-22.005 35.793-22.005 35.793l26.496-6.624c11.198 37.523 39.504 64.624 39.504 64.624s23.842-22.832 36.422-55.592l25.578 9.592s-3.288-19.47-18.549-37.952c.352-3.302.549-6.653.549-10.048 0-14.262-3.327-27.774-8.144-39.884-10.393 9.839-24.415 15.884-39.856 15.884-12.591.001-24.192-4.08-33.7-10.896z" fill="#9dc1e4"/><path d="m129.914 228.744c-.996 0-1.992-.371-2.766-1.111-1.148-1.1-27.426-26.547-39.426-62.719l-22.84 5.711c-1.438.359-2.965-.107-3.953-1.219-.988-1.109-1.281-2.676-.762-4.068.375-.992 9-23.721 21.766-36.137.199-11.354 2.387-22.951 6.504-34.678.418-1.189 1.367-2.111 2.57-2.49s2.512-.17 3.535.564c9.258 6.637 20.105 10.146 31.371 10.146 13.852 0 27.031-5.252 37.105-14.787.961-.912 2.293-1.283 3.613-1.002 1.293.285 2.363 1.195 2.855 2.428 5.59 14.061 8.426 27.977 8.426 41.361 0 2.85-.137 5.805-.41 8.807 14.863 18.68 18.215 37.709 18.355 38.527.238 1.41-.297 2.842-1.398 3.752-1.109.908-2.617 1.156-3.953.66l-21.914-8.219c-13.016 31.211-34.949 52.439-35.914 53.361-.772.742-1.768 1.113-2.764 1.113zm-39.504-72.623c1.727 0 3.312 1.127 3.828 2.855 8.738 29.27 28.402 52.244 35.672 60.025 6.535-7.002 23.094-26.289 32.691-51.283.785-2.053 3.078-3.072 5.141-2.312l18.328 6.875c-2.27-7.016-6.922-18.201-15.793-28.941-.684-.83-1.004-1.9-.891-2.971.348-3.293.527-6.531.527-9.625 0-10.699-1.98-21.812-5.891-33.107-10.863 8.49-24.188 13.107-38.109 13.107-11.156 0-21.953-2.99-31.523-8.693-2.973 9.797-4.477 19.428-4.477 28.693 0 1.137-.48 2.428-1.328 3.188-7.805 6.986-14.246 19.191-17.836 26.98l18.688-4.672c.325-.08.649-.119.973-.119zm-4.492-25.17h.039z" fill="#4c241d"/></g><path d="m127.113 65c-15.191 0-28.605-1.479-39.816-3.48-35.313-6.305-56.461-18.725-57.344-19.25-1.895-1.129-2.52-3.582-1.391-5.479 1.129-1.902 3.582-2.521 5.48-1.398.824.488 83.668 48.293 192.328-.213 2.016-.906 4.383.006 5.281 2.021.902 2.018-.004 4.383-2.023 5.283-38.495 17.187-73.691 22.516-102.515 22.516z" fill="#4c241d"/><g><path d="m128.94 224.319v.064c-5.103.272-17.925 1.759-26.408 9.763-10.785 10.176-10.415 27.023-10.415 27.023s17.857.349 28.643-9.826c5.469-5.16 8.063-12.028 9.298-17.552 1.235 5.524 3.83 12.392 9.299 17.552 10.786 10.176 28.643 9.826 28.643 9.826s.37-16.847-10.415-27.023c-8.483-8.004-21.305-9.491-26.408-9.763 0-.014 0-.064 0-.064s-.424-.004-1.117.015c-.696-.019-1.12-.015-1.12-.015z" fill="#c1dbdc"/><path d="m167.746 265.171c-2.699 0-20.008-.422-31.137-10.92-2.57-2.428-4.773-5.381-6.555-8.766-1.777 3.385-3.98 6.34-6.551 8.766-11.836 11.166-30.684 10.918-31.465 10.918-2.145-.043-3.875-1.768-3.922-3.912-.016-.76-.273-18.754 11.668-30.021 9.055-8.541 22.277-10.406 28.238-10.805.277-.068.566-.105.863-.111 0 .004.48-.004 1.285.016.57-.023 1.055-.018 1.059-.016.305.006.598.043.883.111 5.969.402 19.172 2.273 28.215 10.807 11.941 11.266 11.688 29.258 11.672 30.02-.047 2.145-1.777 3.869-3.922 3.912-.046-.001-.159.001-.331.001zm-37.688-35.38c1.875 0 3.496 1.301 3.902 3.127 1.016 4.531 3.246 10.9 8.141 15.514 6.465 6.102 16.129 7.945 21.617 8.502-.617-5.141-2.594-13.943-8.883-19.877-7.5-7.08-19.195-8.43-23.875-8.68-.152-.008-.301-.025-.449-.049l-.34.004-.559-.006c-.152.025-.305.043-.457.051-4.68.25-16.375 1.598-23.879 8.68-6.289 5.932-8.262 14.732-8.883 19.877 5.488-.557 15.152-2.4 21.617-8.502 4.891-4.611 7.129-10.982 8.145-15.516.411-1.827 2.032-3.125 3.903-3.125z" fill="#4c241d"/></g><g><path d="m129.912 60.744-6.965-16.251c-.398.348-.807.678-1.16 1.095-8.549 10.086-21.797 28.101-29.575 50.259 9.508 6.815 21.109 10.896 33.7 10.896 15.441 0 29.463-6.045 39.856-15.884-7.663-19.265-19.076-34.909-26.966-44.342z" fill="#c1dbdc"/><path d="m125.914 110.744c-12.945 0-25.406-4.027-36.035-11.646-1.441-1.035-2.031-2.898-1.441-4.576 8.23-23.436 22.516-42.336 30.301-51.518.422-.506.906-.943 1.402-1.369.969-.83 2.387-1.232 3.609-.951 1.242.287 2.375 1.062 2.875 2.234l3.953 9.219 4.836-7.736c.68-1.088 1.836-1.783 3.113-1.871 1.332-.059 2.523.443 3.348 1.424 8.301 9.93 19.828 25.869 27.609 45.43.605 1.521.223 3.258-.965 4.383-11.566 10.947-26.699 16.977-42.605 16.977zm-28.875-16.457c8.688 5.543 18.609 8.457 28.875 8.457 12.945 0 25.301-4.586 35.086-12.969-6.273-14.855-14.73-27.404-21.773-36.381l-5.922 9.469c-.789 1.262-2.172 1.98-3.699 1.869-1.484-.115-2.781-1.043-3.367-2.412l-4.465-10.416c-7.313 9.15-17.852 24.238-24.735 42.383z" fill="#4c241d"/></g><path d="m116.254 94.4c-1.023 0-2.047-.391-2.828-1.172-1.562-1.562-1.562-4.096 0-5.656l11.316-11.312c1.562-1.562 4.094-1.562 5.656 0s1.562 4.096 0 5.656l-11.316 11.312c-.781.781-1.805 1.172-2.828 1.172z" fill="#4c241d"/><path d="m127.57 94.4c-1.023 0-2.047-.391-2.828-1.172l-11.316-11.312c-1.562-1.561-1.562-4.094 0-5.656s4.094-1.562 5.656 0l11.316 11.312c1.562 1.561 1.562 4.094 0 5.656-.781.781-1.804 1.172-2.828 1.172z" fill="#4c241d"/><g><circle cx="228" cy="98.832" fill="#ffce56" r="20"/><path d="m228 122.832c-13.234 0-24-10.766-24-24s10.766-24 24-24 24 10.766 24 24-10.766 24-24 24zm0-40c-8.824 0-16 7.178-16 16s7.176 16 16 16 16-7.178 16-16-7.176-16-16-16z" fill="#4c241d"/></g><g fill="#4c241d"><path d="m228 70.832c-2.211 0-4-1.791-4-4v-8c0-2.209 1.789-4 4-4s4 1.791 4 4v8c0 2.209-1.789 4-4 4z"/><path d="m228 142.832c-2.211 0-4-1.791-4-4v-8c0-2.209 1.789-4 4-4s4 1.791 4 4v8c0 2.209-1.789 4-4 4z"/><path d="m268 102.832h-8c-2.211 0-4-1.791-4-4s1.789-4 4-4h8c2.211 0 4 1.791 4 4s-1.789 4-4 4z"/><path d="m196 102.832h-8c-2.211 0-4-1.791-4-4s1.789-4 4-4h8c2.211 0 4 1.791 4 4s-1.789 4-4 4z"/><path d="m250.629 80.205c-1.023 0-2.047-.391-2.828-1.172-1.562-1.561-1.562-4.094 0-5.656l5.656-5.658c1.562-1.562 4.094-1.562 5.656 0 1.562 1.561 1.562 4.094 0 5.656l-5.656 5.658c-.781.781-1.805 1.172-2.828 1.172z"/><path d="m199.715 131.117c-1.023 0-2.047-.391-2.828-1.172-1.562-1.561-1.562-4.094 0-5.656l5.656-5.658c1.562-1.562 4.094-1.562 5.656 0 1.562 1.561 1.562 4.094 0 5.656l-5.656 5.658c-.781.781-1.805 1.172-2.828 1.172z"/><path d="m205.371 80.205c-1.023 0-2.047-.391-2.828-1.172l-5.656-5.658c-1.562-1.562-1.562-4.096 0-5.656 1.562-1.562 4.094-1.562 5.656 0l5.656 5.658c1.562 1.562 1.562 4.096 0 5.656-.781.781-1.805 1.172-2.828 1.172z"/><path d="m256.285 131.117c-1.023 0-2.047-.391-2.828-1.172l-5.656-5.658c-1.562-1.562-1.562-4.096 0-5.656 1.562-1.562 4.094-1.562 5.656 0l5.656 5.658c1.562 1.562 1.562 4.096 0 5.656-.781.781-1.804 1.172-2.828 1.172z"/></g></g></svg>