<svg id="Icons" height="512" viewBox="0 0 60 60" width="512" xmlns="http://www.w3.org/2000/svg"><path d="m57 19a13.294 13.294 0 0 1 -2.81 8l-.19 2h-48l-.19-2a13.294 13.294 0 0 1 -2.81-8c0-9.94 12.09-18 27-18s27 8.06 27 18z" fill="#cadae8"/><path d="m2 30h56v26h-56z" fill="#3268a8"/><rect fill="#d9e8f7" height="4" rx="1" width="58" x="1" y="27"/><rect fill="#d9e8f7" height="4" rx="1" width="58" x="1" y="55"/><path d="m43.848 43.577a13.873 13.873 0 0 1 -12.148 6.423 12.477 12.477 0 0 1 -9.859-4.191.922.922 0 0 0 -1.327-.027 7.917 7.917 0 0 1 -4.376 2.205.98.98 0 0 1 -1.054-1.347 10.067 10.067 0 0 0 .8-3.64 10.067 10.067 0 0 0 -.8-3.64.98.98 0 0 1 1.054-1.347 7.917 7.917 0 0 1 4.376 2.205.922.922 0 0 0 1.327-.027 12.477 12.477 0 0 1 9.859-4.191 13.873 13.873 0 0 1 12.153 6.422 1.171 1.171 0 0 1 -.005 1.155z" fill="#5694d3"/><g fill="#262626"><path d="m58 26h-1.958a13.743 13.743 0 0 0 1.958-7c0-10.477-12.561-19-28-19s-28 8.523-28 19a13.743 13.743 0 0 0 1.958 7h-1.958a2 2 0 0 0 -2 2v2a1.993 1.993 0 0 0 1 1.722v4.278a1 1 0 0 0 2 0v-4h54v22h-54v-14a1 1 0 0 0 -2 0v14.278a1.993 1.993 0 0 0 -1 1.722v2a2 2 0 0 0 2 2h56a2 2 0 0 0 2-2v-2a1.993 1.993 0 0 0 -1-1.722v-22.556a1.993 1.993 0 0 0 1-1.722v-2a2 2 0 0 0 -2-2zm-54-7c0-9.374 11.663-17 26-17s26 7.626 26 17a12.1 12.1 0 0 1 -2.329 7h-4.7a10.383 10.383 0 0 0 3.029-7c0-7.589-10.075-14-22-14s-22 6.411-22 14a10.383 10.383 0 0 0 3.028 7h-4.7a12.1 12.1 0 0 1 -2.328-7zm42 0c0-5.151-8.447-9-16-9s-16 3.849-16 9c0 2.9 2.67 5.38 6.349 7h-6.4c-2.542-2.067-3.949-4.54-3.949-7 0-6.5 9.159-12 20-12s20 5.5 20 12c0 2.46-1.407 4.933-3.949 7h-6.4c3.679-1.62 6.349-4.1 6.349-7zm-16 7c-6.935 0-14-3.532-14-7s7.065-7 14-7 14 3.532 14 7-7.065 7-14 7zm-28 4v-2h56v2zm0 28v-2h56v2z"/><path d="m14.417 48.231a2 2 0 0 0 1.871.745 8.955 8.955 0 0 0 4.87-2.429 13.426 13.426 0 0 0 10.542 4.453 14.881 14.881 0 0 0 13.023-6.928 2.186 2.186 0 0 0 0-2.14 14.881 14.881 0 0 0 -13.023-6.932 13.426 13.426 0 0 0 -10.537 4.453 8.95 8.95 0 0 0 -4.876-2.429 1.976 1.976 0 0 0 -1.865.745 1.951 1.951 0 0 0 -.263 1.974 9.188 9.188 0 0 1 .719 3.257 9.166 9.166 0 0 1 -.722 3.251 1.955 1.955 0 0 0 .261 1.98zm5.387-7.3a1.98 1.98 0 0 0 1.4.559 1.907 1.907 0 0 0 1.356-.609 11.443 11.443 0 0 1 9.14-3.881 12.826 12.826 0 0 1 11.283 5.914.174.174 0 0 1 0 .17 12.829 12.829 0 0 1 -11.283 5.916 11.435 11.435 0 0 1 -9.121-3.866 1.915 1.915 0 0 0 -1.366-.62h-.045a1.945 1.945 0 0 0 -1.367.566 7.172 7.172 0 0 1 -3.801 1.942 11.038 11.038 0 0 0 .878-4.022 10.263 10.263 0 0 0 -.9-4 6.927 6.927 0 0 1 3.822 1.927z"/></g></svg>