<svg xmlns="http://www.w3.org/2000/svg" version="1.1" xmlns:xlink="http://www.w3.org/1999/xlink" xmlns:svgjs="http://svgjs.com/svgjs" width="512" height="512" x="0" y="0" viewBox="0 0 512 512" style="enable-background:new 0 0 512 512" xml:space="preserve" class=""><g><path d="M436.852 340h-87.368c-16.743 0-30.316-13.573-30.316-30.316V156.316c0-16.743 13.573-30.316 30.316-30.316h87.368c16.743 0 30.316 13.573 30.316 30.316v153.368c0 16.743-13.573 30.316-30.316 30.316z" style="" fill="#ffffff" data-original="#d6694b" class=""></path><path d="M436.852 126h-30c16.743 0 30.316 13.573 30.316 30.316v153.368c0 16.743-13.573 30.316-30.316 30.316h30c16.743 0 30.316-13.573 30.316-30.316V156.316c0-16.743-13.573-30.316-30.316-30.316z" style="" fill="#ffffff" data-original="#c4573a" class=""></path><path d="M296.379 340h-87.368c-16.743 0-30.316-13.573-30.316-30.316V156.316c0-16.743 13.573-30.316 30.316-30.316h87.368c16.743 0 30.316 13.573 30.316 30.316v153.368c0 16.743-13.573 30.316-30.316 30.316z" style="" fill="#ffffff" data-original="#d6694b" class=""></path><path d="M296.379 126h-30c16.743 0 30.316 13.573 30.316 30.316v153.368c0 16.743-13.573 30.316-30.316 30.316h30c16.743 0 30.316-13.573 30.316-30.316V156.316c0-16.743-13.573-30.316-30.316-30.316z" style="" fill="#ffffff" data-original="#c4573a" class=""></path><path d="M155.906 340H68.538c-16.743 0-30.316-13.573-30.316-30.316V156.316c0-16.743 13.573-30.316 30.316-30.316h87.368c16.743 0 30.316 13.573 30.316 30.316v153.368c0 16.743-13.573 30.316-30.316 30.316z" style="" fill="#ffffff" data-original="#d6694b" class=""></path><path d="M155.906 126h-30c16.743 0 30.316 13.573 30.316 30.316v153.368c0 16.743-13.573 30.316-30.316 30.316h30c16.743 0 30.316-13.573 30.316-30.316V156.316c0-16.743-13.573-30.316-30.316-30.316z" style="" fill="#ffffff" data-original="#c4573a" class=""></path><path d="M436.601 356H75.399c-16.002 0-31.618-4.783-44.738-13.703L8.821 327.45c-2.467-1.677-1.248-5.45 1.76-5.45h490.838c3.009 0 4.227 3.773 1.76 5.45l-21.84 14.847c-13.12 8.92-28.736 13.703-44.738 13.703z" style="" fill="#eaf6ff" data-original="#eaf6ff" class=""></path><path d="M501.419 322h-30c3.009 0 4.227 3.773 1.76 5.45l-21.84 14.847c-13.12 8.92-28.737 13.703-44.738 13.703h30c16.002 0 31.618-4.783 44.738-13.703l21.84-14.847c2.467-1.677 1.249-5.45-1.76-5.45zM391.524 386H120.476a26.29 26.29 0 0 1-21.294-10.872L85.333 356h341.333l-13.849 19.128A26.285 26.285 0 0 1 391.524 386z" style="" fill="#d8ecfe" data-original="#d8ecfe"></path><path d="M324.268 139.481C329.706 131.352 338.97 126 349.484 126h87.368c16.743 0 30.316 13.573 30.316 30.316v153.368c0 3.329-.537 6.533-1.528 9.529M353.949 165.328v129.228M393.168 165.328v129.228M432.387 165.328v129.228M183.402 140.084c5.377-8.466 14.837-14.084 25.609-14.084h87.368c16.743 0 30.316 13.573 30.316 30.316v153.368c0 3.804-.7 7.444-1.979 10.798M213.476 165.328v129.228M252.695 165.328v129.228M291.914 165.328v129.228M38.222 183.238v-26.922c0-16.743 13.573-30.316 30.316-30.316h87.368c16.743 0 30.316 13.573 30.316 30.316v153.368c0 3.804-.701 7.445-1.98 10.8M39.751 319.216a30.284 30.284 0 0 1-1.529-9.532v-92.007M73.003 165.328v129.228M112.222 165.328v129.228M151.441 165.328v129.228M436.601 356H75.399c-16.002 0-31.618-4.783-44.738-13.703L8.821 327.45c-2.467-1.677-1.248-5.45 1.76-5.45h490.838c3.009 0 4.227 3.773 1.76 5.45l-21.84 14.847c-13.12 8.92-28.736 13.703-44.738 13.703zM341 386H120.476a26.29 26.29 0 0 1-21.294-10.872L85.333 356h341.333l-13.849 19.128A26.285 26.285 0 0 1 391.524 386h-14.857" style="stroke-width:15;stroke-linecap:round;stroke-linejoin:round;stroke-miterlimit:10;" fill="none" stroke="#000000" stroke-width="15" stroke-linecap="round" stroke-linejoin="round" stroke-miterlimit="10" data-original="#000000" class=""></path></g></svg>