<svg id="Capa_1" enable-background="new 0 0 509.492 509.492" height="512" viewBox="0 0 509.492 509.492" width="512" xmlns="http://www.w3.org/2000/svg"><g><path d="m509.305 236.629-.772-13.131c-3.884-66.023-43.6-124.254-103.65-151.97-47.658-21.996-102.322-21.997-149.98-.001-40.481 18.684-71.699 51.246-88.951 90.702-20.981 1.609-41.753 6.926-61.34 15.965-60.051 27.716-99.767 85.948-103.651 151.971l-.774 13.132c-1.715 29.169 8.38 56.94 28.425 78.199 20.046 21.259 47.176 32.966 76.395 32.966h149.188c29.219 0 56.35-11.708 76.395-32.967 19.011-20.163 29.065-46.185 28.587-73.7h45.307c29.22 0 56.351-11.708 76.396-32.967 20.046-21.258 30.14-49.03 28.425-78.199zm-104.82 81.166h-47.4c-7.81-60.864-46.224-113.63-102.493-139.601-17.784-8.207-36.544-13.349-55.551-15.431 15.044-27.648 38.755-50.299 68.433-63.997 19.834-9.154 41.126-13.731 62.418-13.731s42.584 4.577 62.418 13.731c49.983 23.07 83.042 71.539 86.274 126.494l.773 13.131c1.225 20.835-5.985 40.672-20.303 55.857-14.319 15.184-33.698 23.547-54.569 23.547zm-95.721 83.119c-14.318 15.185-33.697 23.548-54.568 23.548h-149.189c-20.87 0-40.249-8.363-54.567-23.547-14.318-15.185-21.528-35.022-20.303-55.857l.773-13.131c3.232-54.955 36.291-103.424 86.274-126.493 19.833-9.154 41.125-13.731 62.417-13.731s42.585 4.577 62.419 13.731c49.982 23.068 83.041 71.538 86.275 126.493l.772 13.131c1.225 20.834-5.986 40.671-20.303 55.856z"/><path d="m365.746 168.462h30v30h-30z"/><path d="m395.746 228.59h30v30h-30z"/><path d="m290.057 334.572-.018-.395c-2.401-40.816-26.954-76.815-64.078-93.95-14.64-6.756-30.237-10.182-46.36-10.182-16.122 0-31.72 3.426-46.359 10.182-37.122 17.134-61.676 53.132-64.077 93.948l-.019.395c-.442 13.643 4.543 26.557 14.037 36.363 9.493 9.807 22.239 15.207 35.888 15.207h121.062c13.648 0 26.394-5.4 35.887-15.207 9.494-9.805 14.479-22.719 14.037-36.361zm-29.98 1.151c.128 5.383-1.86 10.47-5.611 14.344-3.792 3.917-8.882 6.074-14.333 6.074h-121.063c-5.451 0-10.542-2.157-14.334-6.074-3.751-3.874-5.739-8.963-5.611-14.347 1.825-29.657 19.698-55.797 46.688-68.254 10.669-4.924 22.037-7.421 33.787-7.421 11.751 0 23.119 2.497 33.788 7.421 26.992 12.458 44.865 38.599 46.689 68.257z"/></g></svg>