<svg id="Capa_1" enable-background="new 0 0 510 510" height="512" viewBox="0 0 510 510" width="512" xmlns="http://www.w3.org/2000/svg" xmlns:xlink="http://www.w3.org/1999/xlink"><linearGradient id="lg1"><stop offset="0" stop-color="#8bc727"/><stop offset="1" stop-color="#017b4e"/></linearGradient><linearGradient id="SVGID_1_" gradientTransform="matrix(.649 -.774 .773 .741 -121.542 250.981)" gradientUnits="userSpaceOnUse" x1="113.82" x2="176.062" xlink:href="#lg1" y1="128.895" y2="174.804"/><linearGradient id="lg2"><stop offset="0" stop-color="#026841" stop-opacity="0"/><stop offset=".2391" stop-color="#0a6644" stop-opacity=".239"/><stop offset=".6113" stop-color="#20604d" stop-opacity=".611"/><stop offset="1" stop-color="#3e5959"/></linearGradient><linearGradient id="SVGID_00000028306193368720615960000017910564093120387000_" gradientTransform="matrix(.649 -.774 .773 .741 -121.542 250.981)" gradientUnits="userSpaceOnUse" x1="169.519" x2="116.645" xlink:href="#lg2" y1="163.834" y2="167.087"/><linearGradient id="SVGID_00000126295688017986007510000001236760706034075058_" gradientTransform="matrix(.991 -.135 .135 .991 -33.751 12.23)" gradientUnits="userSpaceOnUse" x1="51.2" x2="95.479" xlink:href="#lg2" y1="84.061" y2="249.888"/><linearGradient id="SVGID_00000029018006668156526940000004227580689956982943_" gradientTransform="matrix(.748 -.679 .666 .838 -119.237 224.703)" gradientUnits="userSpaceOnUse" x1="443.662" x2="454.656" xlink:href="#lg1" y1="232.388" y2="275.042"/><linearGradient id="SVGID_00000181793202992106226690000015003141568369534633_" gradientTransform="matrix(.748 -.679 .666 .838 -119.237 224.703)" gradientUnits="userSpaceOnUse" x1="455.356" x2="438.406" xlink:href="#lg2" y1="275.918" y2="227.819"/><linearGradient id="SVGID_00000065794038546647402060000008481688207846365849_" gradientUnits="userSpaceOnUse" x1="358.906" x2="402.774" xlink:href="#lg2" y1="4.644" y2="168.934"/><linearGradient id="SVGID_00000056397178887299488860000008093585321970871213_" gradientTransform="matrix(.707 -.722 .714 .798 -112.104 251.343)" gradientUnits="userSpaceOnUse" x1="409.066" x2="429.178" xlink:href="#lg1" y1="196.477" y2="234.02"/><linearGradient id="SVGID_00000142141033739167733820000007072977061619993512_" gradientTransform="matrix(.707 -.722 .714 .798 -112.104 251.343)" gradientUnits="userSpaceOnUse" x1="436.697" x2="402.069" xlink:href="#lg2" y1="240.677" y2="199.833"/><linearGradient id="SVGID_00000086652908215795219220000004218084918477516705_" gradientTransform="matrix(.998 -.059 .059 .998 -6.208 20.052)" gradientUnits="userSpaceOnUse" x1="317.39" x2="361.318" xlink:href="#lg2" y1="5.961" y2="170.476"/><linearGradient id="SVGID_00000054945644451303615880000017655608934192896395_" gradientTransform="matrix(.645 -.777 .777 .737 -105.85 277.959)" gradientUnits="userSpaceOnUse" x1="341.196" x2="371.505" xlink:href="#lg1" y1="165.504" y2="214.088"/><linearGradient id="SVGID_00000144302848523929210210000007573114416107036335_" gradientTransform="matrix(.645 -.777 .777 .737 -105.85 277.959)" gradientUnits="userSpaceOnUse" x1="377.893" x2="331.725" xlink:href="#lg2" y1="210.917" y2="179.42"/><linearGradient id="SVGID_00000034788438731263536600000010561659225735791004_" gradientTransform="matrix(.99 -.14 .14 .99 -19.299 38.756)" gradientUnits="userSpaceOnUse" x1="251.733" x2="295.75" xlink:href="#lg2" y1="21.261" y2="186.109"/><linearGradient id="SVGID_00000168104472728325592510000004567683726662875533_" gradientTransform="matrix(.62 -.797 .8 .712 -107.552 278.026)" gradientUnits="userSpaceOnUse" x1="261.486" x2="315.992" xlink:href="#lg1" y1="140.027" y2="207.827"/><linearGradient id="SVGID_00000111169722916263482530000001286828722671126678_" gradientTransform="matrix(.62 -.797 .8 .712 -107.552 278.026)" gradientUnits="userSpaceOnUse" x1="309.944" x2="259.896" xlink:href="#lg2" y1="189.939" y2="161.522"/><linearGradient id="SVGID_00000098925137724179760990000008140315389783769998_" gradientTransform="matrix(.985 -.171 .171 .985 -28.601 36.208)" gradientUnits="userSpaceOnUse" x1="184.176" x2="228.312" xlink:href="#lg2" y1="38.736" y2="204.028"/><linearGradient id="SVGID_00000150794073893942338060000011550351172599282622_" gradientTransform="matrix(.672 -.754 .75 .764 -115.832 250.955)" gradientUnits="userSpaceOnUse" x1="185.044" x2="246.673" xlink:href="#lg1" y1="130.776" y2="187.597"/><linearGradient id="SVGID_00000142890395021925811700000005578270276983474102_" gradientTransform="matrix(.672 -.754 .75 .764 -115.832 250.955)" gradientUnits="userSpaceOnUse" x1="237.362" x2="179.865" xlink:href="#lg2" y1="170.786" y2="158.876"/><linearGradient id="SVGID_00000142168617505910872620000017289509154644554637_" gradientTransform="matrix(.994 -.106 .106 .994 -20.958 14.93)" gradientUnits="userSpaceOnUse" x1="119.064" x2="163.292" xlink:href="#lg2" y1="66.497" y2="232.137"/><linearGradient id="SVGID_00000173143876152232958150000011456731036221069222_" gradientTransform="matrix(.657 -.767 .765 .749 -129.434 244.462)" gradientUnits="userSpaceOnUse" x1="41.966" x2="136.15" xlink:href="#lg1" y1="153.318" y2="200.187"/><linearGradient id="SVGID_00000072995842826810493760000001370802759445142669_" gradientTransform="matrix(.657 -.767 .765 .749 -129.434 244.462)" gradientUnits="userSpaceOnUse" x1="116.555" x2="45.994" xlink:href="#lg2" y1="178.185" y2="180.976"/><linearGradient id="SVGID_00000000207897546158002210000010582792007203552446_" gradientTransform="matrix(.992 -.125 .125 .992 -39.099 6.662)" gradientUnits="userSpaceOnUse" x1="-4.651" x2="39.682" xlink:href="#lg2" y1="100.003" y2="266.037"/><linearGradient id="SVGID_00000122700631872767399170000000669730394091297923_" gradientTransform="matrix(.156 .988 -.988 .156 -1984.071 -2082.788)" gradientUnits="userSpaceOnUse" x1="2559.029" x2="2615.537" xlink:href="#lg1" y1="-2064.909" y2="-2022.856"/><linearGradient id="SVGID_00000026857511144924231000000000209398798114892717_" gradientTransform="matrix(.156 .988 -.988 .156 -1984.071 -2082.788)" gradientUnits="userSpaceOnUse" x1="2593.993" x2="2555.417" xlink:href="#lg2" y1="-2055.479" y2="-2032.762"/><linearGradient id="SVGID_00000069373827494756237160000005483204387955038374_" gradientTransform="matrix(.777 -.629 .629 .777 -98.84 211.03)" gradientUnits="userSpaceOnUse" x1="408.823" x2="429.385" xlink:href="#lg1" y1="192.868" y2="231.252"/><linearGradient id="SVGID_00000011738782417639759890000002692008684511839129_" gradientTransform="matrix(.777 -.629 .629 .777 -98.84 211.03)" gradientUnits="userSpaceOnUse" x1="437.655" x2="402.013" xlink:href="#lg2" y1="239.189" y2="197.15"/><linearGradient id="SVGID_00000091715043965999258900000005943866064191710386_" gradientTransform="matrix(.777 -.629 .629 .777 -98.84 211.03)" gradientUnits="userSpaceOnUse" x1="345.098" x2="376.17" xlink:href="#lg1" y1="166.568" y2="216.375"/><linearGradient id="SVGID_00000180363819266349851870000018103417764521617854_" gradientTransform="matrix(.777 -.629 .629 .777 -98.84 211.03)" gradientUnits="userSpaceOnUse" x1="383.898" x2="335.005" xlink:href="#lg2" y1="214.662" y2="181.304"/><linearGradient id="SVGID_00000059992451899290714570000016017409707104776895_" gradientTransform="matrix(.777 -.629 .629 .777 -98.84 211.03)" gradientUnits="userSpaceOnUse" x1="259.284" x2="315.489" xlink:href="#lg1" y1="140.508" y2="210.422"/><linearGradient id="SVGID_00000025438461561673589480000015961216896854203059_" gradientTransform="matrix(.777 -.629 .629 .777 -98.84 211.03)" gradientUnits="userSpaceOnUse" x1="310.576" x2="256.656" xlink:href="#lg2" y1="193.212" y2="162.596"/><linearGradient id="SVGID_00000111878423703294035080000014095682437937341839_" gradientTransform="matrix(.777 -.629 .629 .777 -98.84 211.03)" gradientUnits="userSpaceOnUse" x1="45.949" x2="142.365" xlink:href="#lg1" y1="156.427" y2="204.406"/><linearGradient id="SVGID_00000072246249080483288270000007348480556128696741_" gradientTransform="matrix(.777 -.629 .629 .777 -98.84 211.03)" gradientUnits="userSpaceOnUse" x1="125.55" x2="44.67" xlink:href="#lg2" y1="182.02" y2="185.219"/><linearGradient id="SVGID_00000168078903819768547250000003353980377142565264_" gradientTransform="matrix(.777 -.629 .629 .777 -98.84 211.03)" gradientUnits="userSpaceOnUse" x1="123.53" x2="187.96" xlink:href="#lg1" y1="130.268" y2="177.791"/><linearGradient id="SVGID_00000088819487416814437400000006790368856218338205_" gradientTransform="matrix(.777 -.629 .629 .777 -98.84 211.03)" gradientUnits="userSpaceOnUse" x1="182.033" x2="122.63" xlink:href="#lg2" y1="166.557" y2="170.213"/><linearGradient id="SVGID_00000091707593202379717030000011769735864079184549_" gradientTransform="matrix(.777 -.629 .629 .777 -98.84 211.03)" gradientUnits="userSpaceOnUse" x1="196.618" x2="261.048" xlink:href="#lg1" y1="129.101" y2="188.504"/><linearGradient id="SVGID_00000142868226949434154590000006492161039575840689_" gradientTransform="matrix(.777 -.629 .629 .777 -98.84 211.03)" gradientUnits="userSpaceOnUse" x1="252.026" x2="188.053" xlink:href="#lg2" y1="171.083" y2="157.832"/><linearGradient id="SVGID_00000098906499257549952640000009387538096166752165_" gradientTransform="matrix(.777 -.629 .629 .777 -98.84 211.03)" gradientUnits="userSpaceOnUse" x1="458.009" x2="469.433" xlink:href="#lg1" y1="226.445" y2="270.769"/><linearGradient id="SVGID_00000117671949433455339240000009204994443746374549_" gradientTransform="matrix(.777 -.629 .629 .777 -98.84 211.03)" gradientUnits="userSpaceOnUse" x1="470.317" x2="453.41" xlink:href="#lg2" y1="272.686" y2="224.706"/><linearGradient id="SVGID_00000074407033673429127600000017043852000545593485_" gradientUnits="userSpaceOnUse" x1="194.366" x2="274.401" xlink:href="#lg1" y1="281.627" y2="361.662"/><g><g><g><g><g><g><g><path d="m65.74 120.951c3.336-5.613 11.758-3.328 10.228 2.683-7.055 27.724-4.079 58.998 10.964 84.69 14.714 25.129 32.84 49.164 44.726 75.988 13.266 29.94 16.753 93.236 16.753 93.236-.732.117-43.226-80.254-72.903-112.292-38.518-41.582-36.215-99.807-9.768-144.305z" fill="url(#SVGID_1_)"/><path d="m131.658 284.312c-11.886-26.824-30.012-50.859-44.726-75.988-15.044-25.692-18.019-56.966-10.964-84.69.809-3.179-1.166-5.315-3.7-5.792-.013-.002-.033 0-.045-.002-16.495 31.41-23.453 72.151-3.143 105.334 14.934 24.4 34.683 45.512 50.205 69.541 17.053 26.399 25.392 54.35 29.126 84.834 0-.001-3.488-63.297-16.753-93.237z" fill="url(#SVGID_00000028306193368720615960000017910564093120387000_)"/></g></g></g></g><g><path d="m86.932 208.324c-15.044-25.692-18.019-56.966-10.964-84.69 1.53-6.011-6.892-8.296-10.228-2.683-26.446 44.499-28.75 102.724 9.768 144.306 29.677 32.038 72.172 112.409 72.903 112.292 0 0-3.487-63.297-16.753-93.236-11.886-26.825-30.012-50.86-44.726-75.989z" fill="url(#SVGID_00000126295688017986007510000001236760706034075058_)"/></g></g><g><g><path d="m452.437 87.885c4.175 1.364 3.676 7.024-.644 7.886-24.459 4.877-49.228 16.608-64.308 36.874-15.439 20.751-52.378 57.422-52.378 57.422-.349-.301 31.709-56.139 46.939-84.108 13.515-24.818 45.244-26.291 70.391-18.074z" fill="url(#SVGID_00000029018006668156526940000004227580689956982943_)"/><path d="m451.793 95.771c2.591-.516 3.795-2.757 3.453-4.764-17.317-3.003-34.327.476-47.795 8.922-30.444 19.091-45.332 63.425-72.344 90.139 0 0 36.939-36.671 52.378-57.422 15.08-20.268 39.849-31.999 64.308-36.875z" fill="url(#SVGID_00000181793202992106226690000015003141568369534633_)"/></g><path d="m452.438 87.885c-25.148-8.216-56.877-6.744-70.391 18.074-15.23 27.968-47.288 83.807-46.939 84.107 0 0 36.939-36.671 52.378-57.422 15.079-20.267 39.848-31.997 64.308-36.874 4.319-.861 4.818-6.521.644-7.885z" fill="url(#SVGID_00000065794038546647402060000008481688207846365849_)"/></g><g><g><path d="m394.494 36.39c4.408-1.434 7.022 3.716 3.22 6.22-18.046 11.888-32.216 29.445-38.595 50.538-6.179 20.431-9.474 41.966-17.312 61.814-8.978 22.737-40.75 58.659-40.75 58.659-.381-.27 20.118-63.063 23.088-95.354 3.707-40.302 33.517-69.898 70.349-81.877z" fill="url(#SVGID_00000056397178887299488860000008093585321970871213_)"/><path d="m359.119 93.148c6.379-21.092 20.549-38.65 38.595-50.538 2.023-1.333 2.218-3.408 1.304-4.848-24.541 9.428-48.711 28.558-55.983 54.879-11.978 43.36-12.232 84.378-41.978 120.98 0 0 31.771-35.922 40.75-58.659 7.838-19.848 11.133-41.383 17.312-61.814z" fill="url(#SVGID_00000142141033739167733820000007072977061619993512_)"/></g><path d="m397.714 42.61c3.802-2.505 1.188-7.654-3.22-6.22-36.832 11.979-66.642 41.575-70.348 81.877-2.97 32.291-23.469 95.084-23.088 95.354 0 0 31.771-35.922 40.75-58.659 7.838-19.848 11.133-41.383 17.312-61.814 6.378-21.093 20.548-38.65 38.594-50.538z" fill="url(#SVGID_00000086652908215795219220000004218084918477516705_)"/></g><g><g><path d="m313.405 25.299c5.016-2.518 9.374 3.654 5.333 7.38-19.871 18.316-31.679 43.346-34.57 69.892-2.806 25.765-.426 53.617-4.382 79.893-4.382 29.104-31.968 79.013-31.968 79.013-.582-.244 5.416-81.61.536-121.576-6.166-50.499 22.025-93.004 65.051-114.602z" fill="url(#SVGID_00000054945644451303615880000017655608934192896395_)"/><path d="m284.168 102.571c2.891-26.546 14.699-51.576 34.57-69.892 2.152-1.984 1.91-4.652.467-6.342-28.423 16.206-52.367 44.009-54.661 78.28-3.694 55.18 9.369 105.729-16.726 156.86 0 0 27.586-49.91 31.968-79.013 3.956-26.276 1.575-54.128 4.382-79.893z" fill="url(#SVGID_00000144302848523929210210000007573114416107036335_)"/></g><path d="m318.738 32.679c4.042-3.726-.317-9.898-5.332-7.38-43.026 21.598-71.217 64.103-65.051 114.603 4.88 39.966-1.118 121.332-.536 121.576 0 0 27.586-49.91 31.968-79.013 3.956-26.276 1.575-54.128 4.381-79.893 2.891-26.547 14.699-51.577 34.57-69.893z" fill="url(#SVGID_00000034788438731263536600000010561659225735791004_)"/></g><g><g><path d="m217.167 45.07c4.506-3.726 10.816 1.589 7.697 6.331-15.417 23.436-20.487 51.648-15.978 79.299 4.416 27.084 14.334 54.776 17.474 82.675 3.378 30.02-11.679 86.887-11.679 86.887-.794-.134-16.311-85.118-32.561-123.606-20.485-48.523-2.955-100.162 35.047-131.586z" fill="url(#SVGID_00000168104472728325592510000004567683726662875533_)"/><path d="m208.886 130.7c-4.509-27.651.562-55.863 15.978-79.299 1.662-2.527.636-5.204-1.358-6.602-24.701 22.971-41.718 56.977-34.436 92.346 5.562 27.014 16.815 52.6 23.841 79.289 7.492 28.459 7.371 55.682 1.77 83.827 0 0 15.057-56.867 11.679-86.887-3.139-27.898-13.058-55.591-17.474-82.674z" fill="url(#SVGID_00000111169722916263482530000001286828722671126678_)"/></g><path d="m224.864 51.401c3.119-4.741-3.191-10.057-7.697-6.331-38.002 31.423-55.533 83.062-35.046 131.585 16.249 38.488 31.767 123.472 32.561 123.606 0 0 15.057-56.867 11.679-86.887-3.14-27.899-13.058-55.592-17.474-82.675-4.509-27.65.561-55.862 15.977-79.298z" fill="url(#SVGID_00000098925137724179760990000008140315389783769998_)"/></g><g><g><path d="m139.774 83.873c3.897-4.752 11.266-1.287 8.946 4.08-10.862 25.125-12.341 54.471-2.616 81.068 9.478 25.923 22.885 51.05 29.966 77.898 7.937 30.095 1.75 89.956 1.75 89.956-.668-.003-28.092-81.564-50.694-116.245-29.187-44.785-18.376-98.933 12.648-136.757z" fill="url(#SVGID_00000150794073893942338060000011550351172599282622_)"/><path d="m176.069 246.919c-7.081-26.848-20.488-51.975-29.966-77.898-9.725-26.598-8.246-55.944 2.616-81.068 1.237-2.861-.287-5.165-2.563-5.989-19.944 27.118-32.319 64.122-18.666 98.247 10.045 25.107 25.197 47.932 35.956 72.752 11.846 27.328 15.411 54.89 14.372 83.912.001 0 6.188-59.861-1.749-89.956z" fill="url(#SVGID_00000142890395021925811700000005578270276983474102_)"/></g><path d="m146.103 169.021c-9.725-26.598-8.246-55.944 2.616-81.068 2.32-5.367-5.048-8.832-8.946-4.08-31.024 37.825-41.835 91.972-12.649 136.757 22.602 34.682 50.026 116.242 50.694 116.245 0 0 6.187-59.861-1.75-89.956-7.08-26.848-20.487-51.975-29.965-77.898z" fill="url(#SVGID_00000142168617505910872620000017289509154644554637_)"/></g><g><g><path d="m10.312 193.848c2.39-5.674 10.815-4.677 10.185 1.086-2.968 27.149 4.757 55.4 22.125 77.468 17.17 21.818 37.648 41.787 52.364 65.617 16.237 26.295 26.745 86.008 26.745 86.008-.755.211-50.654-70.849-82.808-96.885-41.464-33.574-47.698-87.99-28.611-133.294z" fill="url(#SVGID_00000173143876152232958150000011456731036221069222_)"/><path d="m42.621 272.402c-17.367-22.068-25.092-50.319-22.125-77.468.336-3.071-1.9-4.788-4.424-4.864-11.29 31.505-12.21 70.433 11.375 98.547 17.529 20.896 39.032 38.052 56.756 58.786 19.393 22.686 30.582 48.184 37.525 76.624 0 0-10.508-59.713-26.745-86.008-14.715-23.83-35.192-43.799-52.362-65.617z" fill="url(#SVGID_00000072995842826810493760000001370802759445142669_)"/></g><path d="m42.62 272.402c-17.367-22.067-25.092-50.319-22.124-77.468.63-5.763-7.794-6.76-10.185-1.086-19.087 45.304-12.853 99.72 28.61 133.294 32.153 26.036 82.053 97.096 82.808 96.885 0 0-10.508-59.714-26.745-86.008-14.716-23.83-35.193-43.799-52.364-65.617z" fill="url(#SVGID_00000000207897546158002210000010582792007203552446_)"/></g></g><g><g><g><path d="m438.519 126.633c-22.439 3.542-45.512 12.201-63.492 27.831-2.974 2.586-1.056 7.103 2.795 6.942 21.765-.91 43.521-4.292 64.973-7.678s43.192-6.87 64.18-12.707c3.713-1.033 4.147-5.922.521-7.465-21.921-9.333-46.537-10.465-68.977-6.923z" fill="url(#SVGID_00000122700631872767399170000000669730394091297923_)"/><path d="m509.991 137.493c-47.054-2.962-92.263 4.172-136.124 21.485.591 1.43 2.03 2.508 3.955 2.427 21.766-.91 43.521-4.292 64.973-7.678s43.192-6.869 64.18-12.707c1.857-.516 2.894-1.984 3.016-3.527z" fill="url(#SVGID_00000026857511144924231000000000209398798114892717_)"/></g></g><g><g><g><g><path d="m429.428 28.898c4.742-1.207 6.897 4.239 2.667 6.583-20.074 11.126-36.739 28.308-45.688 49.589-8.669 20.615-14.458 42.537-24.788 62.453-11.833 22.814-48.82 57.801-48.82 57.801-.367-.301 27.844-63.567 34.476-96.557 8.275-41.173 42.528-69.781 82.153-79.869z" fill="url(#SVGID_00000069373827494756237160000005483204387955038374_)"/><path d="m386.406 85.07c8.949-21.282 25.614-38.464 45.688-49.589 2.251-1.247 2.681-3.367 1.888-4.901-26.56 8.208-53.799 26.404-64.25 53.003-17.215 43.817-21.98 85.935-56.935 121.742 0 0 36.987-34.987 48.82-57.801 10.331-19.917 16.121-41.839 24.789-62.454z" fill="url(#SVGID_00000011738782417639759890000002692008684511839129_)"/></g><g><path d="m368.6 21.313c5.644-1.841 8.922 5.075 4.043 8.288-23.986 15.793-40.994 39.589-49.135 66.216-7.901 25.843-10.878 54.562-20.06 80.76-10.17 29.018-48.236 75.884-48.236 75.884-.55-.332 21.457-82.36 24.225-123.78 3.497-52.337 40.744-91.573 89.163-107.368z" fill="url(#SVGID_00000091715043965999258900000005943866064191710386_)"/><path d="m323.508 95.817c8.14-26.627 25.148-50.423 49.135-66.216 2.598-1.711 2.868-4.464 1.715-6.393-32.364 12.409-62.383 37.279-71.413 71.863-14.541 55.682-10.96 109.065-47.732 157.391 0 0 38.066-46.866 48.236-75.884 9.181-26.199 12.159-54.918 20.059-80.761z" fill="url(#SVGID_00000180363819266349851870000018103417764521617854_)"/></g><g><path d="m271.266 39.429c5.447-2.982 10.682 3.519 6.421 7.775-21.062 21.037-32.645 48.742-34.321 77.567-1.642 28.234 2.196 58.055-.935 86.89-3.368 31.027-31.655 86.017-31.655 86.017-.78-.276 2.677-89.161-5.173-131.043-9.896-52.8 19.729-102.055 65.663-127.206z" fill="url(#SVGID_00000059992451899290714570000016017409707104776895_)"/><path d="m243.366 124.771c1.676-28.825 13.259-56.529 34.321-77.567 2.271-2.269 1.831-5.163.113-6.932-30.435 18.928-55.531 50.4-56.128 87.537-.456 28.366 5.222 56.287 6.335 84.581 1.186 30.171-5.12 57.745-17.229 85.288 0 0 28.286-54.99 31.655-86.017 3.128-28.834-.709-58.656.933-86.89z" fill="url(#SVGID_00000025438461561673589480000015961216896854203059_)"/></g><g><path d="m53.134 167.898c3.476-5.486 11.98-3.39 10.302 2.414-7.902 27.337-4.98 57.169 8.981 81.923 13.803 24.474 31.344 47.484 42.258 73.699 12.043 28.925 12.219 91.234 12.219 91.234-.816.119-39.564-78.821-68.055-109.521-36.741-39.589-33.458-95.942-5.705-139.749z" fill="url(#SVGID_00000111878423703294035080000014095682437937341839_)"/><path d="m72.417 252.235c-13.961-24.754-16.883-54.587-8.981-81.923.894-3.093-1.104-5.132-3.691-5.532-17.256 30.718-25.148 70.343-5.857 102.067 14.338 23.579 33.437 43.849 48.004 67.287 15.938 25.645 22.921 53.11 25.003 83.035 0 0-.176-62.309-12.219-91.234-10.915-26.217-28.456-49.227-42.259-73.7z" fill="url(#SVGID_00000072246249080483288270000007348480556128696741_)"/></g><g><path d="m119.029 96.496c4.494-5.259 12.724-1.758 10.013 4.157-12.508 27.284-15.37 59.581-4.762 87.866 10.375 27.664 24.468 54.687 31.614 83.687 7.975 32.367-.426 97.383-.426 97.383-.775.017-29.263-87.827-53.721-124.615-31.746-47.747-18.349-106.788 17.282-148.478z" fill="url(#SVGID_00000168078903819768547250000003353980377142565264_)"/><path d="m155.893 272.206c-7.145-29-21.238-56.022-31.614-83.687-10.608-28.284-7.746-60.582 4.762-87.866 1.434-3.129-.193-5.581-2.709-6.42-.013-.004-.034-.004-.046-.008-22.915 29.729-37.789 70.299-23.182 106.951 10.741 26.952 27.055 51.22 38.471 77.876 12.541 29.284 15.824 58.94 13.892 90.537 0 0 8.401-65.016.426-97.383z" fill="url(#SVGID_00000088819487416814437400000006790368856218338205_)"/></g><g><path d="m189.705 60.633c4.783-4.439 11.851-.094 8.601 5.145-15.215 24.529-21.399 54.395-15.564 82.665 5.687 27.553 15.561 54.717 18.623 82.956 3.432 31.654-12.46 92.233-12.46 92.233-.69-.076-16.104-86.504-33.969-124.443-23.069-48.991-3.303-103.221 34.769-138.556z" fill="url(#SVGID_00000091707593202379717030000011769735864079184549_)"/><path d="m201.364 231.399c-3.061-28.239-12.936-55.404-18.623-82.956-5.835-28.27.35-58.136 15.564-82.665 1.732-2.793.523-5.316-1.699-6.406-24.92 25.582-43.582 62.102-34.881 98.501 6.402 26.78 18.446 51.778 25.632 78.341 7.912 29.247 7.225 57.836 1.547 87.419.001-.001 15.892-60.58 12.46-92.234z" fill="url(#SVGID_00000142868226949434154590000006492161039575840689_)"/></g><g><path d="m491.173 66.9c4.295 1.404 3.498 7.228-1.057 8.114-25.792 5.018-52.241 17.088-68.982 37.941-17.141 21.351-57.52 59.083-57.52 59.083-.35-.309 35.863-57.764 53.137-86.541 15.328-25.535 48.549-27.051 74.422-18.597z" fill="url(#SVGID_00000098906499257549952640000009387538096166752165_)"/><path d="m490.116 75.014c2.732-.531 4.099-2.837 3.84-4.902-17.946-3.09-35.887.49-50.37 9.18-32.737 19.643-50.45 65.26-79.973 92.747 0 0 40.379-37.732 57.52-59.083 16.742-20.854 43.191-32.924 68.983-37.942z" fill="url(#SVGID_00000117671949433455339240000009204994443746374549_)"/></g></g></g></g><g><path d="m377.1 163.709c-124.473 77.83-220.862 188.994-279.715 320.761-1.227 2.746-3.941 4.524-6.949 4.524-5.508 0-9.206-5.678-6.959-10.707 60.1-134.568 158.564-248.115 285.675-327.566 3.794-2.325 8.649-1.255 10.809 2.354 2.159 3.61.855 8.348-2.861 10.634z" fill="url(#SVGID_00000074407033673429127600000017043852000545593485_)"/></g></g></g></svg>