<?xml version="1.0" encoding="iso-8859-1"?>
<!-- Generator: Adobe Illustrator 19.0.0, SVG Export Plug-In . SVG Version: 6.00 Build 0)  -->
<svg version="1.1" id="Capa_1" xmlns="http://www.w3.org/2000/svg" xmlns:xlink="http://www.w3.org/1999/xlink" x="0px" y="0px"
	 viewBox="0 0 512 512" style="enable-background:new 0 0 512 512;" xml:space="preserve">
<circle style="fill:#F7F0E6;" cx="256" cy="256" r="256"/>
<circle style="fill:#EEE2D4;" cx="256" cy="256" r="238.345"/>
<circle style="fill:#F7A39C;" cx="256" cy="256" r="220.69"/>
<circle style="fill:#FF6464;" cx="256" cy="256" r="203.034"/>
<circle style="fill:#FF8467;" cx="256" cy="256" r="128.11"/>
<g>
	<path style="fill:#FFDC8C;" d="M240.959,283.793l-35.628-39.191c-3.279-3.607-3.014-9.191,0.594-12.47l39.191-35.628
		c3.607-3.279,9.191-3.014,12.47,0.594l35.628,39.191c3.279,3.607,3.013,9.191-0.594,12.47l-39.191,35.628
		C249.821,287.666,244.238,287.4,240.959,283.793z"/>
	<path style="fill:#FFDC8C;" d="M305.931,167.526l-51.784-11.128c-4.767-1.024-7.8-5.719-6.776-10.485l11.128-51.784
		c1.024-4.767,5.719-7.8,10.485-6.776l51.784,11.128c4.767,1.024,7.8,5.719,6.776,10.485l-11.128,51.784
		C315.391,165.516,310.697,168.55,305.931,167.526z"/>
	<path style="fill:#FFDC8C;" d="M280.121,412.385l-50.81,14.954c-4.678,1.376-9.585-1.299-10.961-5.976l-14.954-50.81
		c-1.376-4.678,1.299-9.585,5.976-10.961l50.81-14.954c4.678-1.376,9.585,1.299,10.961,5.976l14.954,50.81
		C287.474,406.101,284.799,411.008,280.121,412.385z"/>
	<path style="fill:#FFDC8C;" d="M125.75,292.401l-34.04-29.45c-3.687-3.19-4.09-8.765-0.9-12.451l29.45-34.04
		c3.19-3.687,8.765-4.09,12.451-0.9l34.04,29.45c3.687,3.19,4.09,8.765,0.9,12.451l-29.45,34.04
		C135.011,295.188,129.437,295.591,125.75,292.401z"/>
	<path style="fill:#FFDC8C;" d="M416.751,245.205l-38.311,18.791c-4.377,2.147-9.666,0.339-11.812-4.039l-18.791-38.311
		c-2.147-4.377-0.339-9.666,4.039-11.812l38.311-18.791c4.377-2.147,9.666-0.339,11.812,4.039l18.791,38.311
		C422.936,237.769,421.129,243.058,416.751,245.205z"/>
	<path style="fill:#FFDC8C;" d="M206.653,177.379l-41.612,9.446c-4.755,1.079-9.483-1.9-10.562-6.655l-9.446-41.612
		c-1.079-4.755,1.9-9.483,6.655-10.562l41.612-9.446c4.755-1.079,9.483,1.9,10.562,6.655l9.446,41.612
		C214.387,171.572,211.407,176.3,206.653,177.379z"/>
	<path style="fill:#FFDC8C;" d="M176.723,344.086l-32.631-6.842c-4.771-1.001-7.829-5.679-6.828-10.452l6.842-32.631
		c1.001-4.771,5.679-7.829,10.452-6.828l32.631,6.842c4.771,1.001,7.829,5.679,6.828,10.452l-6.842,32.631
		C186.174,342.03,181.494,345.087,176.723,344.086z"/>
</g>
<path style="fill:#D2EB5F;" d="M141.241,388.414c-2.259,0-4.518-0.862-6.241-2.586c-3.448-3.448-3.448-9.035,0-12.483l8.828-8.828
	c3.448-3.448,9.035-3.448,12.483,0c3.448,3.448,3.448,9.035,0,12.483l-8.828,8.828C145.759,387.552,143.5,388.414,141.241,388.414z"
	/>
<path style="fill:#FFCD6E;" d="M176.552,414.897c-4.879,0-8.828-3.948-8.828-8.828v-8.828c0-4.879,3.948-8.828,8.828-8.828
	c4.879,0,8.828,3.948,8.828,8.828v8.828C185.379,410.948,181.431,414.897,176.552,414.897z"/>
<path style="fill:#D2EB5F;" d="M238.345,326.621h-8.828c-4.879,0-8.828-3.948-8.828-8.828c0-4.879,3.948-8.828,8.828-8.828h8.828
	c4.879,0,8.828,3.948,8.828,8.828C247.172,322.673,243.224,326.621,238.345,326.621z"/>
<g>
	<path style="fill:#FFCD6E;" d="M105.931,185.379c-2.259,0-4.518-0.862-6.241-2.586c-3.448-3.448-3.448-9.035,0-12.483l8.828-8.828
		c3.448-3.448,9.035-3.448,12.483,0s3.448,9.035,0,12.483l-8.828,8.828C110.449,184.518,108.19,185.379,105.931,185.379z"/>
	<path style="fill:#FFCD6E;" d="M370.759,150.069c-4.879,0-8.828-3.948-8.828-8.828v-8.828c0-4.879,3.948-8.828,8.828-8.828
		c4.879,0,8.828,3.948,8.828,8.828v8.828C379.586,146.121,375.638,150.069,370.759,150.069z"/>
	<path style="fill:#FFCD6E;" d="M414.897,335.448c-2.259,0-4.518-0.862-6.241-2.586l-8.828-8.828c-3.448-3.448-3.448-9.035,0-12.483
		s9.035-3.448,12.483,0l8.828,8.828c3.448,3.448,3.448,9.035,0,12.483C419.414,334.586,417.155,335.448,414.897,335.448z"/>
	<path style="fill:#FFCD6E;" d="M423.81,291.31c-4.879,0-8.871-3.948-8.871-8.828s3.905-8.828,8.785-8.828h0.086
		c4.879,0,8.828,3.948,8.828,8.828S428.69,291.31,423.81,291.31z"/>
</g>
<path style="fill:#FFDC8C;" d="M317.793,220.69c-2.259,0-4.517-0.862-6.241-2.586l-8.828-8.828c-3.448-3.448-3.448-9.035,0-12.483
	s9.035-3.448,12.483,0l8.828,8.828c3.448,3.448,3.448,9.035,0,12.483C322.311,219.828,320.052,220.69,317.793,220.69z"/>
<path style="fill:#FFCD6E;" d="M220.69,88.276h-8.828c-4.879,0-8.828-3.948-8.828-8.828c0-4.879,3.948-8.828,8.828-8.828h8.828
	c4.879,0,8.828,3.948,8.828,8.828C229.517,84.328,225.569,88.276,220.69,88.276z"/>
<path style="fill:#D2EB5F;" d="M167.81,105.931c-4.879,0-8.871-3.948-8.871-8.828c0-4.879,3.905-8.828,8.785-8.828h0.086
	c4.879,0,8.828,3.948,8.828,8.828C176.638,101.983,172.69,105.931,167.81,105.931z"/>
<path style="fill:#ADDF6E;" d="M353.19,176.552c-4.879,0-8.871-3.948-8.871-8.828s3.905-8.828,8.785-8.828h0.086
	c4.879,0,8.828,3.948,8.828,8.828S358.069,176.552,353.19,176.552z"/>
<path style="fill:#FFCD6E;" d="M317.879,432.552c-4.879,0-8.871-3.948-8.871-8.828c0-4.879,3.905-8.828,8.785-8.828h0.086
	c4.879,0,8.828,3.948,8.828,8.828C326.707,428.604,322.759,432.552,317.879,432.552z"/>
<path style="fill:#ADDF6E;" d="M185.379,220.69c-4.879,0-8.871-3.948-8.871-8.828c0-4.879,3.905-8.828,8.785-8.828h0.086
	c4.879,0,8.828,3.948,8.828,8.828C194.207,216.742,190.259,220.69,185.379,220.69z"/>
<g>
	<path style="fill:#FFCD6E;" d="M406.069,167.724c-4.879,0-8.871-3.948-8.871-8.828c0-4.879,3.905-8.828,8.785-8.828h0.086
		c4.879,0,8.828,3.948,8.828,8.828C414.897,163.776,410.948,167.724,406.069,167.724z"/>
	<path style="fill:#FFCD6E;" d="M97.19,335.448c-4.879,0-8.871-3.948-8.871-8.828c0-4.879,3.905-8.828,8.785-8.828h0.086
		c4.879,0,8.828,3.948,8.828,8.828C106.017,331.5,102.069,335.448,97.19,335.448z"/>
</g>
<path style="fill:#FFDC8C;" d="M383.873,365.101l-24.339,27.37c-3.24,3.644-8.82,3.97-12.462,0.73l-27.37-24.339
	c-3.644-3.24-3.97-8.82-0.73-12.462l24.339-27.37c3.24-3.644,8.82-3.97,12.462-0.73l27.37,24.339
	C386.785,355.878,387.113,361.458,383.873,365.101z"/>
<g>
	<path style="fill:#FFCD6E;" d="M259.52,278.275l-35.172-60.919c-0.277-0.48-0.33-1.007-0.508-1.512l-17.916,16.287
		c-3.607,3.279-3.873,8.863-0.594,12.47l35.628,39.191c3.279,3.608,8.863,3.873,12.47,0.595l6.371-5.793
		C259.722,278.471,259.594,278.403,259.52,278.275z"/>
	<path style="fill:#FFCD6E;" d="M170.114,176.41l9.357-52.132c0.188-1.047,0.62-1.977,1.127-2.846l-28.91,6.562
		c-4.755,1.079-7.734,5.809-6.655,10.563l9.446,41.612c1.079,4.755,5.809,7.734,10.562,6.655l8.465-1.921
		C170.97,182.957,169.511,179.773,170.114,176.41z"/>
	<path style="fill:#FFCD6E;" d="M277.465,159.25V90.296c0-0.381,0.17-0.706,0.216-1.075l-8.697-1.869
		c-4.766-1.024-9.461,2.009-10.485,6.776l-11.128,51.784c-1.024,4.766,2.009,9.461,6.776,10.485l23.773,5.109
		C277.721,160.769,277.465,160.05,277.465,159.25z"/>
	<path style="fill:#FFCD6E;" d="M131.492,215.83c0.072-0.282,0.266-0.487,0.362-0.756c-3.656-2.499-8.629-2.045-11.595,1.384
		l-29.45,34.04c-3.19,3.687-2.786,9.262,0.9,12.451l22.855,19.773L131.492,215.83z"/>
	<path style="fill:#FFCD6E;" d="M164.903,338.419l-2.37-45.065c-0.079-1.505,0.324-2.88,0.925-4.154l-8.899-1.866
		c-4.771-1.001-9.451,2.056-10.452,6.828l-6.842,32.631c-1.001,4.771,2.056,9.45,6.828,10.451l21.678,4.546
		C165.274,340.764,164.967,339.627,164.903,338.419z"/>
	<path style="fill:#FFCD6E;" d="M242.575,418.436l-7.157-63.106c-0.138-1.212-0.022-2.392,0.302-3.493l-26.348,7.754
		c-4.678,1.377-7.353,6.284-5.976,10.961l14.954,50.81c1.377,4.678,6.284,7.352,10.962,5.976l15.258-4.491
		C243.563,421.592,242.77,420.153,242.575,418.436z"/>
	<path style="fill:#FFCD6E;" d="M380.409,254.797l-12.041-49.747c-0.266-1.098-0.267-2.19-0.125-3.246l-16.369,8.029
		c-4.377,2.146-6.185,7.435-4.039,11.812l18.79,38.312c2.147,4.377,7.436,6.185,11.814,4.039l6.902-3.385
		C382.982,259.518,381.069,257.522,380.409,254.797z"/>
	<path style="fill:#FFCD6E;" d="M336.894,376.607l24.833-43.011l-5.955-5.295c-3.644-3.24-9.223-2.912-12.462,0.732l-24.339,27.37
		c-3.24,3.644-2.912,9.223,0.732,12.462l16.364,14.551C335.439,381.202,335.652,378.756,336.894,376.607z"/>
</g>
<path style="fill:#FFDC8C;" d="M339.787,335.258l-32.631-6.842c-4.771-1.001-7.829-5.679-6.828-10.452l6.842-32.631
	c1.001-4.771,5.679-7.829,10.452-6.828l32.631,6.842c4.771,1.001,7.829,5.679,6.828,10.452l-6.842,32.631
	C349.237,333.203,344.558,336.259,339.787,335.258z"/>
<path style="fill:#FFCD6E;" d="M318.546,324.185l13.869-37.905c0.631-1.726,1.836-3,3.224-3.998l-18.018-3.778
	c-4.771-1.001-9.45,2.056-10.452,6.828l-6.842,32.631c-1.001,4.771,2.057,9.45,6.828,10.451l11.655,2.444
	C317.888,328.826,317.718,326.449,318.546,324.185z"/>
<g>
</g>
<g>
</g>
<g>
</g>
<g>
</g>
<g>
</g>
<g>
</g>
<g>
</g>
<g>
</g>
<g>
</g>
<g>
</g>
<g>
</g>
<g>
</g>
<g>
</g>
<g>
</g>
<g>
</g>
</svg>
