<?xml version="1.0" encoding="iso-8859-1"?>
<!-- Generator: Adobe Illustrator 19.0.0, SVG Export Plug-In . SVG Version: 6.00 Build 0)  -->
<svg xmlns="http://www.w3.org/2000/svg" xmlns:xlink="http://www.w3.org/1999/xlink" version="1.1" id="Layer_1" x="0px" y="0px" viewBox="0 0 510.746 510.746" style="enable-background:new 0 0 510.746 510.746;" xml:space="preserve" width="512" height="512">
<g>
	<path style="fill:#CC7400;" d="M349.805,83.939h0.806L395.789,7.5H258.454l-15.661,26.102l-11.377,26.892l-16.549-28.961   L191.141,7.5h-76.185l45.178,76.439h0.805c0,0-83.379,37.247-81.933,112.462c1.446,75.215,71.989,306.846,71.989,306.846H359.75   c0,0,70.543-231.63,71.989-306.846C433.184,121.186,349.805,83.939,349.805,83.939z"/>
	<path style="fill:#A05700;" d="M242.792,33.602l-11.377,26.892l-16.549-28.961L191.141,7.5h-76.185l45.178,76.439h0.805   c0,0-0.235,0.105-0.657,0.305h190.179c-0.423-0.199-0.657-0.305-0.657-0.305h0.806L395.789,7.5H258.454L242.792,33.602z"/>
	<g>
		<path style="fill:#BA6500;" d="M349.805,83.939h0.806L395.789,7.5h-30l-45.178,76.439h-0.806c0,0,83.379,37.247,81.933,112.462    c-1.446,75.215-71.989,306.846-71.989,306.846h30c0,0,70.543-231.63,71.989-306.846    C433.184,121.186,349.805,83.939,349.805,83.939z"/>
	</g>
	<path style="fill:#874600;" d="M319.805,83.939c0,0,0.235,0.105,0.657,0.305h30c-0.004-0.002-0.009-0.004-0.014-0.006   c-0.413-0.195-0.644-0.298-0.644-0.298h0.806L395.789,7.5h-30l-45.178,76.439H319.805z"/>
	<path style="fill:#A05700;" d="M126.124,417.084h258.498c14.29-51.638,31.174-116.745,40.357-166.711H85.767   C94.95,300.34,111.833,365.446,126.124,417.084z"/>
	<path style="fill:#894700;" d="M405.861,250.374h-10.882c-9.183,49.966-26.067,115.073-40.357,166.711h30l0,0   c14.29-51.638,31.174-116.745,40.357-166.711H405.861z"/>
	<path style="fill:#6B563E;" d="M117.909,386.915h274.927c9.263-34.61,18.784-72.357,26.092-106.372H91.817   C99.125,314.558,108.646,352.305,117.909,386.915z"/>
	<path style="fill:#544332;" d="M388.928,280.543c-7.308,34.015-16.829,71.762-26.092,106.372h16.059h13.94l0,0   c9.263-34.61,18.784-72.357,26.092-106.372H388.928z"/>
	<path d="M396.348,106.405c-13.562-12.282-27.116-20.644-35.407-25.203l41.306-69.886c1.37-2.318,1.392-5.194,0.058-7.533   C400.969,1.444,398.482,0,395.789,0H258.454c-2.634,0-5.076,1.382-6.431,3.642l-15.662,26.103   c-0.181,0.301-0.339,0.613-0.476,0.937l-5.475,12.939l-9.033-15.808c-0.323-0.565-0.717-1.085-1.174-1.548L196.479,2.231   C195.07,0.804,193.147,0,191.142,0h-76.185c-2.693,0-5.18,1.444-6.514,3.783c-1.335,2.339-1.313,5.215,0.058,7.533l41.305,69.886   c-8.291,4.559-21.846,12.921-35.408,25.203c-28.692,25.983-43.522,57.153-42.889,90.14c0.554,28.828,10.782,82.254,30.427,158.995   c-0.062,0.387-0.103,0.781-0.103,1.185c0,1.742,0.599,3.342,1.596,4.615c0.37,1.432,0.743,2.872,1.119,4.32   c0.215,0.828,0.433,1.663,0.65,2.495c0.416,1.597,0.833,3.195,1.257,4.811c0.326,1.242,0.657,2.498,0.987,3.75   c0.285,1.08,0.563,2.144,0.851,3.232c2.251,8.505,4.503,16.87,6.719,24.998c0.081,0.299,0.162,0.592,0.243,0.89   c0.221,0.809,0.442,1.616,0.662,2.421c1.013,3.703,2.009,7.324,2.978,10.827c0.002,0.007,0.006,0.014,0.008,0.021   c13.505,48.785,24.777,85.863,24.918,86.326c0.962,3.158,3.874,5.315,7.175,5.315H359.75c3.301,0,6.213-2.157,7.175-5.315   c0.141-0.462,11.413-37.539,24.917-86.323c0.002-0.008,0.007-0.016,0.009-0.024c1.013-3.662,2.056-7.453,3.116-11.333   c0.083-0.304,0.167-0.609,0.25-0.914c0.196-0.716,0.39-1.428,0.587-2.15c2.068-7.586,4.167-15.381,6.267-23.299   c0.021-0.08,0.043-0.161,0.064-0.241c0.106-0.399,0.212-0.798,0.318-1.198c0.255-0.962,0.5-1.902,0.752-2.857   c0.373-1.414,0.746-2.829,1.114-4.23c0.388-1.478,0.769-2.94,1.15-4.402c0.255-0.978,0.511-1.959,0.763-2.931   c0.441-1.698,0.876-3.381,1.308-5.057c0.638-1.103,1.009-2.38,1.009-3.746c0-0.049-0.006-0.096-0.007-0.144   c19.818-77.295,30.139-131.08,30.696-160.037C439.871,163.559,425.04,132.389,396.348,106.405z M394.914,349.226h-24.04v-9.263   h13.723c4.143,0,7.5-3.357,7.5-7.5v-26.485c0-4.143-3.357-7.5-7.5-7.5H339.12c-4.143,0-7.5,3.357-7.5,7.5v43.248h-30.848v-9.263   h13.723c4.143,0,7.5-3.357,7.5-7.5v-26.485c0-4.143-3.357-7.5-7.5-7.5h-45.477c-4.143,0-7.5,3.357-7.5,7.5v43.248h-31.085v-9.263   h13.722c4.142,0,7.5-3.357,7.5-7.5v-26.485c0-4.143-3.358-7.5-7.5-7.5h-45.477c-4.142,0-7.5,3.357-7.5,7.5v43.248h-29.791v-9.263   h13.722c4.142,0,7.5-3.357,7.5-7.5v-26.485c0-4.143-3.358-7.5-7.5-7.5h-45.477c-4.142,0-7.5,3.357-7.5,7.5v43.248h-6.302   c-5.246-20.584-10.3-41.415-14.692-61.183h308.465C405.213,307.811,400.16,328.642,394.914,349.226z M119.699,364.226h9.935   c4.142,0,7.5-3.357,7.5-7.5v-43.248h30.477v11.485h-13.722c-4.142,0-7.5,3.357-7.5,7.5v24.263c0,4.143,3.358,7.5,7.5,7.5h44.791   c4.142,0,7.5-3.357,7.5-7.5v-43.248h30.477v11.485h-13.722c-4.142,0-7.5,3.357-7.5,7.5v24.263c0,4.143,3.358,7.5,7.5,7.5h46.085   c4.142,0,7.5-3.357,7.5-7.5v-43.248h30.477v11.485h-13.723c-4.143,0-7.5,3.357-7.5,7.5v24.263c0,4.143,3.357,7.5,7.5,7.5h45.848   c4.143,0,7.5-3.357,7.5-7.5v-43.248h30.477v11.485h-13.723c-4.143,0-7.5,3.357-7.5,7.5v24.263c0,4.143,3.357,7.5,7.5,7.5h27.673   c-1.331,5.106-2.666,10.175-3.999,15.19h-263.35C122.365,374.401,121.03,369.332,119.699,364.226z M118.595,123.133l15.779,12.398   l3.707,27.435c0.481,3.561,3.418,6.279,7.005,6.484l21.92,1.252l0.637,23.558c0.056,2.092,0.984,4.064,2.558,5.442l26.335,23.043   c1.423,1.245,3.183,1.855,4.936,1.855c2.087,0,4.165-0.867,5.647-2.562c2.728-3.117,2.412-7.855-0.706-10.583l-23.865-20.882   l-0.734-27.169c-0.105-3.896-3.178-7.064-7.069-7.286l-22.627-1.292l-3.286-24.318c-0.261-1.934-1.265-3.689-2.799-4.894   l-16.204-12.732c14.661-12.14,28.505-19.341,32.801-21.444h109.045c4.143,0,7.5-3.357,7.5-7.5c0-4.143-3.357-7.5-7.5-7.5H164.414   L128.102,15h59.905l20.834,21.105l16.063,28.109c1.415,2.476,4.107,3.959,6.958,3.766c2.846-0.169,5.35-1.938,6.461-4.564   l11.172-26.406L262.7,15h119.944l-36.313,61.439h-40.396c-4.143,0-7.5,3.357-7.5,7.5c0,4.143,3.357,7.5,7.5,7.5h42.179   c4.858,2.377,21.862,11.241,38.475,26.366c25.536,23.251,38.203,49.646,37.649,78.45c-0.23,11.95-2.271,28.044-5.528,46.618   H174.916c-4.142,0-7.5,3.358-7.5,7.5c0,4.143,3.358,7.5,7.5,7.5h241.009c-0.962,4.94-1.993,10.01-3.076,15.169H97.897   c-1.083-5.159-2.114-10.229-3.076-15.169h50.096c4.142,0,7.5-3.357,7.5-7.5c0-4.142-3.358-7.5-7.5-7.5H92.034   c-3.257-18.574-5.298-34.668-5.528-46.618C85.994,169.628,96.79,145.062,118.595,123.133z M354.176,495.746H156.57   c-3.266-10.903-11.174-37.577-20.552-71.162h154.918c4.143,0,7.5-3.357,7.5-7.5c0-4.143-3.357-7.5-7.5-7.5H131.86   c-1.363-4.955-2.745-10.018-4.139-15.169h255.303c-1.394,5.151-2.776,10.214-4.139,15.169h-57.95c-4.143,0-7.5,3.357-7.5,7.5   c0,4.143,3.357,7.5,7.5,7.5h53.792C365.35,458.169,357.442,484.843,354.176,495.746z"/>
</g>















</svg>
