<?xml version="1.0" encoding="iso-8859-1"?>
<!-- Generator: Adobe Illustrator 19.0.0, SVG Export Plug-In . SVG Version: 6.00 Build 0)  -->
<svg version="1.1" id="Capa_1" xmlns="http://www.w3.org/2000/svg" xmlns:xlink="http://www.w3.org/1999/xlink" x="0px" y="0px"
	 viewBox="0 0 512 512" style="enable-background:new 0 0 512 512;" xml:space="preserve">
<path style="fill:#455A64;" d="M496,64H80c-8.832,0-16-7.168-16-16s7.168-16,16-16h416c8.832,0,16,7.168,16,16S504.832,64,496,64z"
	/>
<g>
	<path style="fill:#FFC107;" d="M112,256c-8.832,0-16-7.168-16-16V16c0-8.832,7.168-16,16-16s16,7.168,16,16v224
		C128,248.832,120.832,256,112,256z"/>
	<path style="fill:#FFC107;" d="M176,256c-8.832,0-16-7.168-16-16V16c0-8.832,7.168-16,16-16s16,7.168,16,16v224
		C192,248.832,184.832,256,176,256z"/>
	<path style="fill:#FFC107;" d="M240,256c-8.832,0-16-7.168-16-16V16c0-8.832,7.168-16,16-16s16,7.168,16,16v224
		C256,248.832,248.832,256,240,256z"/>
</g>
<path style="fill:#455A64;" d="M496,128H80c-8.832,0-16-7.168-16-16s7.168-16,16-16h416c8.832,0,16,7.168,16,16S504.832,128,496,128
	z"/>
<path style="fill:#F44336;" d="M496,224H16c-8.832,0-16,7.168-16,16c0,97.984,63.84,186.016,160,222.496V496c0,8.832,7.168,16,16,16
	h160c8.832,0,16-7.168,16-16v-33.504C448.192,426.016,512,337.952,512,240C512,231.168,504.832,224,496,224z"/>
<g>
</g>
<g>
</g>
<g>
</g>
<g>
</g>
<g>
</g>
<g>
</g>
<g>
</g>
<g>
</g>
<g>
</g>
<g>
</g>
<g>
</g>
<g>
</g>
<g>
</g>
<g>
</g>
<g>
</g>
</svg>
