<svg id="圖層_1" height="512" viewBox="0 0 512 512" width="512" xmlns="http://www.w3.org/2000/svg"><path id="_x30_3" d="m364.273 501.437c-27.092 2.909-81.01 1.266-107.572-6.99-24.691-7.689-6.725-23.549-9.162-48.241-3.042-30.936-11.033-63.61-27.828-90.918-35.007-56.959-67.143-116.876-102.131-174.279-22.027-36.103-47.664-71.299-60.945-111.917-3.23-9.862-14.773-47.636-.586-54.749 7.236-3.618 57.867 27.573 124.631 12.733 50.14-11.137 106.76 26.449 147.906 55.222 33.986 23.775 94.518 47.816 109.895 85.723 27.791 68.635 7.859 90.304 16.682 122.411 14.68 53.521 58.66 128.966 1.852 171.086-23.144 17.134-64.517 36.886-92.742 39.919z" fill="#ffcd78"/><path id="_x30_2" d="m26.748 288.58c-.549-25.58 15.227-61.116 20.402-85.317 9.125-42.545-5.912-94.177-16.644-135.853-5.61-21.782-6.631-49.28 18.495-57.025 25.334-7.793 43.301 25.948 63.043 38.955 58.754 38.653 116.092 40.712 178.039 74.17 50.555 27.309 121.892 75.597 118.699 137.251-1.135 22.169-15.643 49.242-16.682 70.477-1.21 24.428 12.979 40.797 3.702 81.585-19.081 83.984-120.323 99.552-202.126 64.932-48.248-20.413-163.641-33.439-166.928-189.175z" fill="#f2b44a"/><path id="_x30_1" d="m475.246 321.052c-4.042-11.468-7.934-22.51-10.768-32.74-2.797-10.239-2.229-19.336-1.53-30.841 1.304-21.017 9.011-50.167-15.511-92.646-21.537-37.322-104.34-83.74-113.314-90.012-47.947-33.533-103.453-68.276-155.538-56.742-38.294 8.511-71.355.859-92.931-5.667-8.519-7.029-18.022-12.404-29.169-12.404-3.438 0-6.915.529-10.353 1.578-25.126 7.755-34.251 32.797-24.993 68.682 0 0 24.541 94.224 16.568 131.413-1.701 7.954-4.704 17.456-7.859 27.516-6.178 19.563-13.148 41.742-12.771 60.039 2.967 140.387 94.611 171.096 149.38 189.45 8.804 2.947 57.942 20.224 86.601 25.022 56.771 9.502 103.964 8.681 112.258 7.793 30.076-3.23 73.168-23.776 97.463-41.761 51.461-38.161 29.848-99.447 12.467-148.68zm-144.447 129.061c-5.328-13.385-12.771-31.852-36.896-29.812-5.688.444-12.525 2.862-20.461 5.667-7.707 2.711-19.307 6.839-23.879 5.941-5.195-.982-10.315 2.409-11.336 7.651-1.02 5.243 2.4 10.315 7.633 11.335 9.748 1.889 22.104-2.466 34.043-6.688 5.781-2.05 12.355-4.374 15.512-4.619 9.049-.765 11.543 2.947 17.398 17.673 2.664 6.716 5.706 14.33 10.807 20.885-14.074 4.799-29.812 7.604-47.344 7.604-26.146 0-94.347-22.292-103.68-25.419-53.162-17.815-133.49-44.736-136.174-171.521-.227-10.986 3.137-24.853 7.198-38.578 14.792-1.219 43.13 1.983 58.584 18.099 1.89 1.974 4.421 2.976 6.972 2.976 2.398 0 4.817-.897 6.707-2.692 3.854-3.693 3.967-9.824.264-13.678-19.459-20.309-38.748-24.286-66.727-23.634 2.853-9.097 5.517-17.796 7.197-25.571 8.937-41.692-16.738-140.299-16.738-140.299-6.611-25.618-2.588-40.882 11.959-45.36 1.587-.491 3.117-.727 4.647-.727 9.919 0 20.253 10.522 30.228 20.696 6.367 6.461 12.922 13.148 20.025 17.815 33.25 21.877 66.425 32.532 98.504 42.847 26.033 8.369 52.973 17.031 80.253 31.758 10.73 5.8 21.839 12.308 32.759 19.402l-.378.888c-6.612 15.293-12.317 28.499-23.955 36.168-3.476 2.277-6.461 4.119-9.22 5.8-8.898 5.45-15.926 9.748-26.864 21.357-3.665 3.882-3.476 10.013.415 13.668 1.871 1.766 4.252 2.635 6.632 2.635 2.569 0 5.139-1.02 7.047-3.042 9.144-9.72 14.622-13.064 22.859-18.118 2.929-1.785 6.103-3.731 9.786-6.149 15.566-10.287 23.049-26.27 29.887-42.054 36.5 26.647 66.613 60.181 64.668 97.682-.51 9.928-4.326 21.896-8.029 33.467-3.967 12.412-8.086 25.249-8.652 37.028-.529 10.391 1.398 19.449 3.249 28.206 2.966 13.896 6.008 28.253.681 51.717-6.046 26.619-22.273 46.843-45.682 59.576-3.591-3.133-7.481-14.487-9.899-20.58zm120.455 4.072c-21.727 16.096-61.551 35.233-87.999 38.077-6.669.718-15.397 1.124-24.994 1.228 34.629-14.254 58.584-41.137 66.972-78.081 6.272-27.611 2.457-45.577-.604-60.02-1.738-8.237-3.25-15.359-2.872-23.228.453-9.267 4.005-20.356 7.765-32.107 4.08-12.743 8.293-25.92 8.936-38.351 2.645-51.264-38.993-100.468-123.78-146.262-28.829-15.577-56.639-24.512-83.522-33.156-32.268-10.372-83.824-29.745-97.35-43.489 19.666 3.108 43.055 3.948 68.975-1.833 44.472-9.975 95.707 22.548 140.273 53.701 9.635 6.754 90.342 49.336 106.457 81.425 20.044 39.909 15.358 64.138 14.131 84.192-.756 12.242-1.455 23.813 2.191 37.151 2.928 10.636 6.971 22.132 11.165 34.053 4.458 12.573 8.88 25.259 12.355 37.671-17.683 4.902-43.716 38.162-43.716 38.162-3.325 4.185-2.646 10.268 1.549 13.593 1.775 1.407 3.892 2.097 6.008 2.097 2.853 0 5.668-1.256 7.594-3.655 0 0 21.557-27.621 32.91-31.333 4.836 27.412 1.587 52.349-22.444 70.165z"/></svg>