<svg id="Layer_1" height="512" viewBox="0 0 64 64" width="512" xmlns="http://www.w3.org/2000/svg" data-name="Layer 1"><path d="m51 52v7a4 4 0 0 1 -4 4h-30a4 4 0 0 1 -4-4v-7z" fill="#d6af8a"/><path d="m34.06 34.66a41.454 41.454 0 0 1 14.64-3.59 91.173 91.173 0 0 1 2.3 20.93h-38a54.292 54.292 0 0 1 21.06-17.34z" fill="#419947"/><path d="m27.43 28.05a26.6 26.6 0 0 1 6.63 6.61 54.292 54.292 0 0 0 -21.06 17.34 85.762 85.762 0 0 1 4.26-27.8 22.748 22.748 0 0 1 10.17 3.85z" fill="#64b269"/><path d="m34.28 19.99a22.828 22.828 0 0 1 8.88-4.32 68.76 68.76 0 0 1 5.54 15.4 41.454 41.454 0 0 0 -14.64 3.59 26.6 26.6 0 0 0 -6.63-6.61 28.16 28.16 0 0 1 6.85-8.06z" fill="#2c842c"/><path d="m29.17 14.35a27.644 27.644 0 0 1 5.11 5.64 28.16 28.16 0 0 0 -6.85 8.06 22.748 22.748 0 0 0 -10.17-3.85 61.873 61.873 0 0 1 6.29-13.3 23.716 23.716 0 0 1 5.62 3.45z" fill="#419947"/><path d="m37.58 6.82a53.971 53.971 0 0 1 5.58 8.85 22.828 22.828 0 0 0 -8.88 4.32 27.644 27.644 0 0 0 -5.11-5.64 25.688 25.688 0 0 1 8.41-7.53z" fill="#64b269"/><path d="m32 1a32.393 32.393 0 0 1 5.58 5.82 25.688 25.688 0 0 0 -8.41 7.53 23.716 23.716 0 0 0 -5.62-3.45c4.38-6.9 8.45-9.9 8.45-9.9z" fill="#2c842c"/><path d="m19.2 37.94a.96.96 0 0 1 -.168-.014 1 1 0 0 1 -.819-1.153c.411-2.423.925-4.8 1.53-7.061a1 1 0 1 1 1.932.517c-.588 2.2-1.09 4.516-1.49 6.878a1 1 0 0 1 -.985.833z" fill="#419947"/><g fill="#252525"><circle cx="19" cy="57" r="1"/><circle cx="25.5" cy="58.5" r="1.5"/><circle cx="45" cy="57" r="1"/><circle cx="44.682" cy="36.193" r="1"/><circle cx="38.5" cy="58.5" r="1.5"/><circle cx="32" cy="56.5" r="1.5"/><path d="m49.673 30.841a70.05 70.05 0 0 0 -5.621-15.623 55.207 55.207 0 0 0 -5.683-9.012 33.158 33.158 0 0 0 -5.777-6.012 1 1 0 0 0 -1.186 0c-.172.128-4.271 3.192-8.7 10.169a63.084 63.084 0 0 0 -6.392 13.514 87.208 87.208 0 0 0 -4.314 28.123v7a5.006 5.006 0 0 0 5 5h30a5.006 5.006 0 0 0 5-5v-7a92.623 92.623 0 0 0 -2.327-21.159zm-2.246-.674a42.543 42.543 0 0 0 -13.046 3.275 27.421 27.421 0 0 0 -5.633-5.649 26.935 26.935 0 0 1 6.152-7.017 21.875 21.875 0 0 1 7.71-3.923 67.908 67.908 0 0 1 4.817 13.314zm-5.744-15.136a23.808 23.808 0 0 0 -7.195 3.557 28.518 28.518 0 0 0 -3.961-4.367 24.429 24.429 0 0 1 6.782-6.086 53.005 53.005 0 0 1 4.374 6.896zm-9.683-12.74a34.594 34.594 0 0 1 4.074 4.25 26.418 26.418 0 0 0 -7.091 6.407 24.7 24.7 0 0 0 -3.964-2.448 41.159 41.159 0 0 1 6.981-8.209zm-8.056 9.9a22.772 22.772 0 0 1 4.587 2.925 26.2 26.2 0 0 1 4.387 4.708 29.409 29.409 0 0 0 -5.818 6.824 23.7 23.7 0 0 0 -8.48-3.247 60.915 60.915 0 0 1 5.325-11.201zm-5.99 13.125a21.712 21.712 0 0 1 8.911 3.555 25.055 25.055 0 0 1 5.637 5.4 55.441 55.441 0 0 0 -18.448 14.679 83.841 83.841 0 0 1 3.901-23.629zm29.046 36.684h-30a3 3 0 0 1 -3-3v-6h22a1 1 0 0 0 0-2h-21.011a53.929 53.929 0 0 1 19.478-15.426 40.628 40.628 0 0 1 13.442-3.439 90.653 90.653 0 0 1 2.078 18.865h-8.987a1 1 0 0 0 0 2h9v6a3 3 0 0 1 -3 3z"/><path d="m44.268 40.127c.286 2.239.489 4.547.6 6.863a1 1 0 0 0 1 .95h.05a1 1 0 0 0 .95-1.048c-.117-2.367-.324-4.728-.618-7.018a1 1 0 0 0 -1.983.254z"/></g></svg>