<svg id="Capa_1" enable-background="new 0 0 495.97 495.97" height="512" viewBox="0 0 495.97 495.97" width="512" xmlns="http://www.w3.org/2000/svg"><path d="m422.163 101.05v42.87h-300.86v-42.87l125.12-94.91c5.26-3.98 11.67-6.14 18.26-6.14h14.1c6.59 0 13 2.16 18.26 6.14z" fill="#fef1da"/><path d="m201.183 124.753 125.12-94.91c.337-.255.691-.481 1.037-.72l-30.297-22.983c-5.26-3.98-11.67-6.14-18.26-6.14h-14.1c-6.59 0-13 2.16-18.26 6.14l-125.12 94.91v42.87h79.88z" fill="#fae2c0"/><path d="m424.873 121.3v356.88c0 9.83-7.97 17.79-17.79 17.79h-269.73c-9.82 0-17.79-7.96-17.79-17.79v-356.88z" fill="#d4f2f6"/><path d="m416.364 423.594c-107.111 0-193.942-86.831-193.942-193.942v-108.352h-102.86v356.88c0 9.83 7.97 17.79 17.79 17.79h269.73c9.82 0 17.79-7.96 17.79-17.79v-54.586z" fill="#a6e7f0"/><path d="m119.563 165.252c.577.022 1.154.044 1.736.044h300.867c.909 0 1.81-.036 2.707-.09v-43.906h-305.31z" fill="#a6e7f0"/><path d="m422.166 140.296h-300.867c-10.838 0-19.623-8.786-19.623-19.623 0-10.838 8.786-19.623 19.623-19.623h300.867c10.838 0 19.623 8.786 19.623 19.623 0 10.837-8.785 19.623-19.623 19.623z" fill="#fee45a"/><path d="m214.824 120.672c0-10.838 8.786-19.623 19.623-19.623h-113.148c-10.837 0-19.623 8.786-19.623 19.623 0 10.838 8.786 19.623 19.623 19.623h113.148c-10.837.001-19.623-8.785-19.623-19.623z" fill="#fed402"/><path d="m172.347 272.968-34.298-39.343c-9.772-11.209-27.192-11.209-36.964 0l-34.298 39.343v47.307h105.56z" fill="#fef1da"/><path d="m98.223 284.01 34.298-39.343c2.656-3.047 5.879-5.258 9.357-6.649l-3.83-4.393c-9.772-11.209-27.192-11.209-36.964 0l-34.298 39.343v47.307h31.437z" fill="#fee8c7"/><circle cx="271.733" cy="310.697" fill="#eaf9fa" r="96.612"/><path d="m222.423 229.653v-2.046c-28.321 16.843-47.302 47.748-47.302 83.09 0 53.357 43.254 96.612 96.612 96.612 16.299 0 31.651-4.042 45.119-11.169-56.562-33.881-94.429-95.758-94.429-166.487z" fill="#d4f2f6"/><path d="m432.112 318.133h-284.512v-33.167h284.512c6.255 0 11.325 5.07 11.325 11.325v10.518c0 6.253-5.071 11.324-11.325 11.324z" fill="#fee45a"/><path d="m144.363 385.133h-49.593c-23.326 0-42.236-18.91-42.236-42.236v-62.033c0-4.361 3.535-7.896 7.896-7.896h118.273c4.361 0 7.896 3.535 7.896 7.896v62.033c.001 23.326-18.909 42.236-42.236 42.236z" fill="#fee97d"/><path d="m101.676 342.897v-62.033c0-4.361 3.535-7.896 7.896-7.896h-49.142c-4.361 0-7.896 3.535-7.896 7.896v62.033c0 23.327 18.91 42.236 42.236 42.236h49.142c-23.326 0-42.236-18.91-42.236-42.236z" fill="#fedf30"/></svg>