<?xml version="1.0" encoding="UTF-8" standalone="no"?>
<!-- Created with Inkscape (http://www.inkscape.org/) -->

<svg
   version="1.1"
   id="svg2976"
   xml:space="preserve"
   width="682.66669"
   height="682.66669"
   viewBox="0 0 682.66669 682.66669"
   xmlns="http://www.w3.org/2000/svg"
   xmlns:svg="http://www.w3.org/2000/svg"><defs
     id="defs2980"><clipPath
       clipPathUnits="userSpaceOnUse"
       id="clipPath2990"><path
         d="M 0,512 H 512 V 0 H 0 Z"
         id="path2988" /></clipPath></defs><g
     id="g2982"
     transform="matrix(1.3333333,0,0,-1.3333333,0,682.66667)"><g
       id="g2984"><g
         id="g2986"
         clip-path="url(#clipPath2990)"><g
           id="g2992"
           transform="translate(153.251,296.0127)"><path
             d="m 0,0 c -7.126,-7.732 -12.193,-18.101 -14.112,-29.809 43.191,8.626 88.841,-9.665 119.019,-5.916 10.628,1.32 75.025,10.661 85.653,11.981 11.089,1.377 21.295,-6.534 22.678,-17.581 0.386,-3.08 -0.026,-5.836 -1.041,-8.311 l 95.71,25.8 c -2.032,7.631 -5.516,14.845 -10.468,21.035 L 180.846,142.965 c -18.007,22.622 -48.308,22.73 -66.391,0.129 z"
             style="fill:#ff6977;fill-opacity:1;fill-rule:evenodd;stroke:none"
             id="path2994" /></g><g
           id="g2996"
           transform="translate(258.1582,260.2876)"><path
             d="m 0,0 c -30.178,-3.749 -75.828,14.542 -119.02,5.917 -44.148,-8.818 -85.727,-45.758 -105.588,-163.103 h 128.445 l 12.301,50.122 64.691,-0.717 c 42.555,-0.471 54.687,1.901 94.523,17.875 55.381,22.207 135.682,58.552 153.578,65.28 26.023,10.087 16.273,47.289 -15.984,39.196 L 203,11.889 l -95.71,-25.8 c 1.015,2.475 1.427,5.231 1.041,8.311 C 106.948,5.447 96.742,13.358 85.652,11.981 75.024,10.661 10.628,1.32 0,0"
             style="fill:#cc9e82;fill-opacity:1;fill-rule:evenodd;stroke:none"
             id="path2998" /></g><g
           id="g3000"
           transform="translate(161.9951,103.1016)"><path
             d="m 0,0 h -128.445 c -12.953,0 -23.551,-10.598 -23.551,-23.551 0,-12.952 10.598,-23.55 23.551,-23.55 H 0 c 12.952,0 23.55,10.598 23.55,23.551 C 23.55,-10.598 12.952,0 0,0"
             style="fill:#ffc059;fill-opacity:1;fill-rule:evenodd;stroke:none"
             id="path3002" /></g><g
           id="g3004"
           transform="translate(447.0889,218.7119)"><path
             d="M 0,0 C 18.771,8.157 33.501,14.507 39.999,16.95 66.022,27.037 56.272,64.239 24.016,56.146 L -81.641,27.665 m -203.453,-143.275 12.301,50.122 64.691,-0.717 c 42.555,-0.471 54.687,1.901 94.523,17.874 12.448,4.992 26.157,10.699 40.131,16.622 m -104.92,15.607 c 24.453,6.434 53.497,17.281 80.118,29.486 10.152,4.655 19.034,11.544 17.65,22.592 -1.382,11.047 -11.588,18.958 -22.678,17.581 -10.628,-1.32 -75.025,-10.661 -85.653,-11.981 -61.024,-7.58 -185.316,74.961 -224.608,-157.186"
             style="fill:none;stroke:#000000;stroke-width:20;stroke-linecap:round;stroke-linejoin:round;stroke-miterlimit:2.613;stroke-dasharray:none;stroke-opacity:1"
             id="path3006" /></g><g
           id="g3008"
           transform="translate(185.5449,79.5513)"><path
             d="m 0,0 v 0 c 0,-12.953 -10.598,-23.55 -23.55,-23.55 h -128.445 c -12.953,0 -23.551,10.597 -23.551,23.55 v 0 c 0,12.953 10.598,23.55 23.551,23.55 H -23.55 C -10.598,23.55 0,12.953 0,0 Z"
             style="fill:none;stroke:#000000;stroke-width:20;stroke-linecap:round;stroke-linejoin:round;stroke-miterlimit:22.926;stroke-dasharray:none;stroke-opacity:1"
             id="path3010" /></g><g
           id="g3012"
           transform="translate(243.1406,408.3955)"><path
             d="M 0,0 24.565,30.711 C 42.648,53.313 72.949,53.204 90.956,30.583 L 207.55,-115.184 c 4.951,-6.19 8.435,-13.403 10.468,-21.035 m -322.023,-5.992 c 1.916,11.716 6.985,22.092 14.115,29.828 l 39.92,49.909"
             style="fill:none;stroke:#000000;stroke-width:20;stroke-linecap:round;stroke-linejoin:round;stroke-miterlimit:22.926;stroke-dasharray:none;stroke-opacity:1"
             id="path3014" /></g><g
           id="g3016"
           transform="translate(239.1602,315.6177)"><path
             d="M 0,0 V 0.007"
             style="fill:none;stroke:#000000;stroke-width:20;stroke-linecap:round;stroke-linejoin:round;stroke-miterlimit:22.926;stroke-dasharray:none;stroke-opacity:1"
             id="path3018" /></g><g
           id="g3020"
           transform="translate(280.6602,357.6177)"><path
             d="M 0,0 V 0.007"
             style="fill:none;stroke:#000000;stroke-width:20;stroke-linecap:round;stroke-linejoin:round;stroke-miterlimit:22.926;stroke-dasharray:none;stroke-opacity:1"
             id="path3022" /></g><g
           id="g3024"
           transform="translate(360.6592,331.125)"><path
             d="M 0,0 V 0.007"
             style="fill:none;stroke:#000000;stroke-width:20;stroke-linecap:round;stroke-linejoin:round;stroke-miterlimit:22.926;stroke-dasharray:none;stroke-opacity:1"
             id="path3026" /></g><g
           id="g3028"
           transform="translate(218.1582,377.1621)"><path
             d="M 0,0 -0.005,-0.006"
             style="fill:none;stroke:#000000;stroke-width:20;stroke-linecap:round;stroke-linejoin:round;stroke-miterlimit:2.613;stroke-dasharray:none;stroke-opacity:1"
             id="path3030" /></g><g
           id="g3032"
           transform="translate(410.4062,202.7725)"><path
             d="M 0,0 -0.007,-0.003"
             style="fill:none;stroke:#000000;stroke-width:20;stroke-linecap:round;stroke-linejoin:round;stroke-miterlimit:2.613;stroke-dasharray:none;stroke-opacity:1"
             id="path3034" /></g></g></g></g></svg>
