<?xml version="1.0" encoding="UTF-8"?>
<svg xmlns="http://www.w3.org/2000/svg" id="Artboard_30" data-name="Artboard 30" viewBox="0 0 64 64" width="512" height="512"><path d="M12,12h0A94.728,94.728,0,0,0,2,54.361H2A7.639,7.639,0,0,0,9.639,62H55.8V39.336A94.728,94.728,0,0,0,47,12Z" style="fill:#b5b1a5"/><path d="M47,12H17.185a94.728,94.728,0,0,0-10,42.361A7.639,7.639,0,0,0,14.824,62H55.8V39.336A94.728,94.728,0,0,0,47,12Z" style="fill:#d9d5ca"/><path d="M41.392,39.734a178.759,178.759,0,0,1,3.944-21.078l.348-1.393,3.16,9.876a90.963,90.963,0,0,1,3.019,12.342V50.848H41.392Z" style="fill:#b5b1a5"/><path d="M56.938,45.346a14.83,14.83,0,0,1-.647-2.354A5,5,0,0,0,46.392,44a5,5,0,0,0-10,0,5,5,0,0,0-5-5,4.332,4.332,0,0,0-3.982,2.626L26.392,44a37.112,37.112,0,0,0-3,14.616A3.384,3.384,0,0,0,26.776,62H56.008a3.384,3.384,0,0,0,3.384-3.384A37.1,37.1,0,0,0,56.938,45.346Z" style="fill:#b5b1a5;opacity:0.5"/><path d="M48.844,27.139a90.963,90.963,0,0,1,3.019,12.342S54.674,52.87,54.739,53.2c.013.066.428-.053,1.062-.275V39.336A94.728,94.728,0,0,0,47,12l-1.316,5.263Z" style="fill:#f2efe0"/><path d="M49,44a5,5,0,0,1,5-5h0a5,5,0,0,1,4.9,3.992,14.94,14.94,0,0,0,.648,2.354A37.1,37.1,0,0,1,62,58.616h0A3.384,3.384,0,0,1,58.616,62H29.384A3.384,3.384,0,0,1,26,58.616h0A37.112,37.112,0,0,1,29,44l1.017-2.374A4.334,4.334,0,0,1,34,39h0a5,5,0,0,1,5,5Z" style="fill:#953528"/><path d="M49,62l.337-1.816A40.222,40.222,0,0,0,49,44h0a5,5,0,0,0-5-5h0a5,5,0,0,0-5,5h0a40.222,40.222,0,0,0-.338,16.184L39,62Z" style="fill:#c64635"/><rect x="10" y="2" width="39" height="10" rx="2" style="fill:#f2efe0"/><path d="M12,27H10a1,1,0,0,0-.97.757L7.273,34.788A1,1,0,0,0,8,36H8a1,1,0,0,0,1.212-.727L9.531,34h2.938l.319,1.273A1,1,0,0,0,14,36h0a1,1,0,0,0,.727-1.212L12.97,27.757A1,1,0,0,0,12,27Zm-1.969,5,.75-3h.438l.75,3Z" style="fill:#c64635"/><path d="M22,31H19v2h1.731A2,2,0,0,1,17,32V31a2,2,0,0,1,3.887-.667l1.884-.666A4,4,0,0,0,15,31v1a4,4,0,0,0,8,0A1,1,0,0,0,22,31Z" style="fill:#c64635"/><path d="M28,27H26a1,1,0,0,0-.97.757l-1.757,7.031A1,1,0,0,0,24,36h0a1,1,0,0,0,1.212-.727L25.531,34h2.938l.319,1.273A1,1,0,0,0,30,36h0a1,1,0,0,0,.727-1.212L28.97,27.757A1,1,0,0,0,28,27Zm-1.969,5,.75-3h.438l.75,3Z" style="fill:#c64635"/><path d="M38.947,29.432A3.088,3.088,0,0,0,35.873,27H33a1,1,0,0,0-1,1v8h2V33h1.382l1.276,2.553A1,1,0,0,0,38,36h0a1,1,0,0,0,.447-1.342l-1.018-2.037A2.984,2.984,0,0,0,38.947,29.432ZM34,29h2a1,1,0,0,1,0,2H34Z" style="fill:#c64635"/><circle cx="16" cy="23" r="2" style="fill:#c64635"/><circle cx="26" cy="23" r="2" style="fill:#c64635"/><circle cx="35" cy="23" r="2" style="fill:#c64635"/><rect x="13" y="6" width="33" height="3" rx="1.5" style="fill:#d9d5ca"/><path d="M59.878,42.792A5.99,5.99,0,0,0,56.7,38.663a95.523,95.523,0,0,0-8.286-26.031A2.99,2.99,0,0,0,50,10V4a3,3,0,0,0-3-3H12A3,3,0,0,0,9,4v6a2.989,2.989,0,0,0,1.587,2.63A96.214,96.214,0,0,0,1,54.36,8.65,8.65,0,0,0,9.64,63H59v-.017a4.39,4.39,0,0,0,4-4.367,37.945,37.945,0,0,0-2.521-13.628A14.217,14.217,0,0,1,59.878,42.792ZM39.646,60a39.413,39.413,0,0,1,.328-15.775l-.019,0A.961.961,0,0,0,40,44a4,4,0,0,1,8,0,.961.961,0,0,0,.045.222l-.019,0A39.413,39.413,0,0,1,48.354,60l-.185,1H39.831ZM49,40.687a5.952,5.952,0,0,0-6.377-2.52c.781-5.765,1.854-11.529,3.2-17.2l2.072,6.474a90.486,90.486,0,0,1,2.855,11.529A6.052,6.052,0,0,0,49,40.687Zm3.63-2.522A92.451,92.451,0,0,0,49.8,26.834l-3.074-9.6.577-2.3a93.533,93.533,0,0,1,7.256,23.124C54.371,38.032,54.189,38,54,38A6.009,6.009,0,0,0,52.63,38.165ZM11,4a1,1,0,0,1,1-1H47a1,1,0,0,1,1,1v6a1,1,0,0,1-1,1H12a1,1,0,0,1-1-1ZM3,54.36A94.21,94.21,0,0,1,12.628,13H45.72l-1.354,5.413a180.165,180.165,0,0,0-3.9,20.746A6.043,6.043,0,0,0,39,40.687,6,6,0,0,0,34,38a5.325,5.325,0,0,0-4.9,3.232l-1.018,2.374A37.876,37.876,0,0,0,25,58.616,4.35,4.35,0,0,0,25.714,61H9.64A6.648,6.648,0,0,1,3,54.36Zm24,4.256a35.9,35.9,0,0,1,2.919-14.222l1.018-2.374A3.329,3.329,0,0,1,34,40a4,4,0,0,1,3.993,3.935,41.492,41.492,0,0,0-.314,16.432L37.8,61H29.384A2.386,2.386,0,0,1,27,58.616ZM58.616,61H50.2l.117-.633a41.492,41.492,0,0,0-.314-16.432,4,4,0,0,1,7.912-.742,15.759,15.759,0,0,0,.693,2.51A35.982,35.982,0,0,1,61,58.616,2.386,2.386,0,0,1,58.616,61Z"/><path d="M12,27H10a1,1,0,0,0-.97.758l-2,8,1.94.484L9.531,34h2.938l.561,2.242,1.94-.484-2-8A1,1,0,0,0,12,27Zm-1.969,5,.75-3h.438l.75,3Z"/><path d="M22,31H19v2h1.731A2,2,0,0,1,17,32V31a2,2,0,0,1,3.887-.667l1.884-.666A4,4,0,0,0,15,31v1a4,4,0,0,0,8,0A1,1,0,0,0,22,31Z"/><path d="M28.469,34l.561,2.242,1.94-.484-2-8A1,1,0,0,0,28,27H26a1,1,0,0,0-.97.758l-2,8,1.94.484L25.531,34Zm-1.25-5,.75,3H26.031l.75-3Z"/><path d="M34,33h1.382L37.1,36.447l1.79-.894-1.466-2.932A2.989,2.989,0,0,0,36,27H33a1,1,0,0,0-1,1v8h2Zm0-4h2a1,1,0,0,1,0,2H34Z"/><path d="M16,26a3,3,0,1,0-3-3A3,3,0,0,0,16,26Zm0-4a1,1,0,1,1-1,1A1,1,0,0,1,16,22Z"/><path d="M26,26a3,3,0,1,0-3-3A3,3,0,0,0,26,26Zm0-4a1,1,0,1,1-1,1A1,1,0,0,1,26,22Z"/><path d="M35,26a3,3,0,1,0-3-3A3,3,0,0,0,35,26Zm0-4a1,1,0,1,1-1,1A1,1,0,0,1,35,22Z"/><path d="M14.5,10h30a2.5,2.5,0,0,0,0-5h-30a2.5,2.5,0,0,0,0,5Zm0-3h30a.5.5,0,0,1,0,1h-30a.5.5,0,0,1,0-1Z"/></svg>
