<svg id="&#x421;&#x43B;&#x43E;&#x439;_1" height="512" viewBox="0 0 128 128" width="512" xmlns="http://www.w3.org/2000/svg"><path d="m18.68 30.57a31.29 31.29 0 0 1 7.15-6l40.45-6 32.17 5.43c16.31 8.05 22.26 23.46 21.21 43.57-1.56 29.85-28.35 59.93-58.2 58.36s-54.73-33.18-53.16-63.03c.53-10.11 2.26-18.93 6-26a66.18 66.18 0 0 1 4.38-6.33z" fill="#f57c00"/><path d="m63.62 128q-1.14 0-2.27-.06c-14.59-.76-29.1-8.65-39.8-21.64-10.48-12.71-16.04-28.57-15.25-43.51.59-11.27 2.64-20.05 6.27-26.85a2 2 0 1 1 3.54 1.89c-3.35 6.27-5.25 14.5-5.81 25.17-.73 14 4.5 28.8 14.34 40.75 10 12.12 23.45 19.48 36.92 20.19s27.24-5.42 38.16-16.79c10.66-11.09 17.2-25.55 17.94-39.68 1.08-20.7-5.4-34.29-19.84-41.54l-31.55-5.37-39.73 5.92a29.4 29.4 0 0 0 -6.36 5.41 2 2 0 0 1 -3-2.65 33.46 33.46 0 0 1 7.61-6.4 2 2 0 0 1 .76-.28l40.45-6a2 2 0 0 1 .63 0l32.16 5.44a2 2 0 0 1 .55.18c16 7.89 23.49 23.19 22.32 45.47-.79 15.07-7.73 30.47-19 42.25-11.17 11.6-25.26 18.1-39.04 18.1z" fill="#424242"/><path d="m13.29 10.7s4 14.12 17.51 14.82a75.77 75.77 0 0 0 18-1.32l13.23-3.58 1.33-5.62a70.86 70.86 0 0 0 -20.44-1.11c-5.62.64-14-.41-20.46-1.48-1.27-.16-9.17-1.71-9.17-1.71z" fill="#9e9d24"/><path d="m34.24 27.61c-1.2 0-2.39 0-3.54-.09-14.78-.77-19.3-16.12-19.34-16.28a2 2 0 0 1 3.86-1.1c.16.56 3.78 12.76 15.68 13.38a74.18 74.18 0 0 0 17.47-1.28l12-3.25.55-2.36a67.91 67.91 0 0 0 -17.79-.7c-5.92.67-14.69-.44-21-1.49a2 2 0 0 1 .66-4c8.7 1.45 15.58 2 19.9 1.47a72.18 72.18 0 0 1 21.1 1.14 2 2 0 0 1 1.52 2.41l-1.31 5.61a2 2 0 0 1 -1.43 1.48l-13.22 3.58h-.14a79.62 79.62 0 0 1 -14.97 1.48z" fill="#424242"/><path d="m68.68 2s-3.93 7.52-4.51 11.1c-.7 4.4-4.58 7.2-4.58 7.2l12-3.17c-.87-1.22-.39-4.82 0-5.85.66-1.76 4.35-9 4.35-9z" fill="#827717"/><path d="m59.59 22.3a2 2 0 0 1 -1.17-3.63s3.22-2.4 3.77-5.89c.61-3.78 4.29-10.91 4.71-11.71a2 2 0 1 1 3.55 1.86c-1.05 2-3.88 7.82-4.3 10.49a11.61 11.61 0 0 1 -1.15 3.36l4.08-1.08a14.15 14.15 0 0 1 .57-5.12c.68-1.82 4.06-8.42 4.45-9.17a2 2 0 1 1 3.57 1.83c-1 2-3.75 7.38-4.26 8.74a9.17 9.17 0 0 0 -.21 4 2 2 0 0 1 .23 1.82 2 2 0 0 1 -1.39 1.23l-12 3.17a2 2 0 0 1 -.45.1z" fill="#424242"/><path d="m67.68 20.5c-15.93-.51-19-.19-19.09 2.12s15.09 9.83 15.09 9.83 20.41-3.65 20.32-9.23z" fill="#afb42b"/><path d="m63.68 34.45a2 2 0 0 1 -.89-.21c-16.39-8.1-16.26-10.55-16.2-11.73.24-4.49 4.92-4.54 21.15-4a2 2 0 0 1 -.13 4c-5.38-.17-14-.45-16.58.2 1.89 1.67 7.69 5 12.94 7.65 9.38-1.76 18-5.15 18-7.09a2 2 0 0 1 2-2 2 2 0 0 1 2 2c.12 6.58-15.31 10-22 11.23a2 2 0 0 1 -.29-.05z" fill="#424242"/><path d="m67.68 20.5a19.6 19.6 0 0 1 11.45-6.35 42.64 42.64 0 0 1 13.7-.56c2.77.15 19.64-3.37 19.64-3.37s-7.82 14.72-17.36 14.23-27.43-3.95-27.43-3.95z" fill="#9e9d24"/><path d="m95.58 26.45h-.58c-9.57-.5-27-3.83-27.7-4a2 2 0 0 1 -1.2-3.2 21.56 21.56 0 0 1 12.69-7.1c7-1.21 10.15-.93 12.7-.7.5 0 1 .09 1.45.11 1.82.09 12.7-2 19.12-3.33a2 2 0 0 1 2.18 2.9c-.34.66-8.24 15.32-18.66 15.32zm-23.58-7.2c5.79 1 16.62 2.83 23.21 3.18 5 .23 10-5 13.07-9.33-5.41 1.08-13.47 2.6-15.56 2.48-.52 0-1-.07-1.6-.12a38.68 38.68 0 0 0 -11.65.66 18.14 18.14 0 0 0 -7.47 3.13z" fill="#424242"/><path d="m17.84 54h-.33a2 2 0 0 1 -1.65-2.31c2.41-14.44 9.77-19.69 10.08-19.89a2 2 0 0 1 2.29 3.29c-.11.08-6.32 4.67-8.42 17.25a2 2 0 0 1 -1.97 1.66z" fill="#fff"/></svg>