<svg xmlns="http://www.w3.org/2000/svg" version="1.1" xmlns:xlink="http://www.w3.org/1999/xlink" xmlns:svgjs="http://svgjs.com/svgjs" width="512" height="512" x="0" y="0" viewBox="0 0 512 512" style="enable-background:new 0 0 512 512" xml:space="preserve" class=""><g><path d="M189.946 414.91 89.077 314.04c-7.859-7.859-7.859-20.601 0-28.462l23.083-23.083c7.859-7.859 20.601-7.859 28.462 0l100.869 100.869c7.859 7.859 7.859 20.601 0 28.462l-23.083 23.083c-7.86 7.86-20.602 7.86-28.462.001z" style="" fill="#f3c97f" data-original="#f3c97f" class=""></path><path d="m237.651 359.524-93.189-93.189c-9.98-9.98-9.98-26.162 0-36.142 9.98-9.98 26.161-9.98 36.142 0l93.189 93.189c9.98 9.98 9.98 26.162 0 36.142-9.981 9.98-26.162 9.98-36.142 0z" style="" fill="#aa8769" data-original="#aa8769"></path><path d="M418.639 214.679c7.704-7.704 7.704-20.194 0-27.899L317.207 85.349c-7.704-7.704-20.194-7.704-27.899 0a24.222 24.222 0 0 0-6.58 22.091l3.09 14.756a19.538 19.538 0 0 1-22.169 23.305l-14.302-2.256a30.805 30.805 0 0 0-26.583 8.646l-43.317 43.317c-9.341 9.341-9.341 24.486 0 33.829l95.502 95.502c9.341 9.341 24.486 9.341 33.829 0l43.317-43.317a30.804 30.804 0 0 0 8.646-26.583l-2.256-14.302a19.538 19.538 0 0 1 23.305-22.169l14.756 3.09a24.224 24.224 0 0 0 22.093-6.579z" style="" fill="#f3c97f" data-original="#f3c97f" class=""></path><ellipse cx="231.003" cy="198.086" rx="15.563" ry="19.543" style="" transform="rotate(-45.001 231.001 198.09)" fill="#ffffff" data-original="#ffffff"></ellipse><ellipse cx="305.909" cy="272.989" rx="15.563" ry="19.543" style="" transform="rotate(134.999 305.91 272.99)" fill="#ffffff" data-original="#ffffff"></ellipse><path d="M306.436 111.348h143.441v28.951H306.436z" style="" transform="rotate(-134.999 378.158 125.825)" fill="#aa8769" data-original="#aa8769"></path><path d="m337.679 64.876-10.236 10.236 62.312 62.312a7.92 7.92 0 0 1 0 11.199l-4.636 4.636 33.52 33.52 20.472-20.472L337.679 64.876z" style="opacity:0.1;enable-background:new ;" fill="#000000" data-original="#000000" class=""></path><path d="m466.604 68.605-31.222-31.222c-27.092-27.092-71.016-27.092-98.109 0-7.48 7.48-7.48 19.607 0 27.088l102.242 102.242c7.48 7.48 19.608 7.48 27.088 0 27.093-27.091 27.093-71.016.001-98.108z" style="" fill="#f3c97f" data-original="#f3c97f" class=""></path><path d="m492.205 42.609-30.827-30.827c-5.722-5.722-14.999-5.722-20.721 0l-5.077 5.078c-5.722 5.722-5.722 14.999 0 20.721l30.827 30.827c5.722 5.722 14.999 5.722 20.721 0l5.078-5.077c5.721-5.723 5.721-15-.001-20.722z" style="" fill="#aa8769" data-original="#aa8769"></path><circle cx="65.672" cy="369.477" r="14.779" style="" fill="#ebe9e7" data-original="#495059" class=""></circle><circle cx="141.503" cy="425.568" r="14.779" style="" fill="#ebe9e7" data-original="#495059" class=""></circle><circle cx="78.482" cy="429.598" r="14.779" style="" fill="#ebe9e7" data-original="#495059" class=""></circle><circle cx="106.422" cy="489.72" r="14.779" style="" fill="#ebe9e7" data-original="#495059" class=""></circle><circle cx="30.291" cy="469.149" r="14.779" style="" fill="#ebe9e7" data-original="#495059" class=""></circle><path d="M189.946 414.91c7.859 7.859 20.601 7.859 28.462 0l23.083-23.084c7.859-7.859 7.859-20.602 0-28.462l-28.396-28.396c-10.737 16.659-41.137 43.163-54.091 49l30.942 30.942z" style="opacity:0.15;enable-background:new ;" fill="#c85412" data-original="#c85412" class=""></path><path d="M237.651 359.524c9.98 9.98 26.162 9.98 36.142 0 9.98-9.98 9.98-26.161 0-36.142l-24.675-24.675c-6.972 20.763-22.433 31.676-36.305 35.98l24.838 24.837z" style="opacity:0.1;enable-background:new ;" fill="#000000" data-original="#000000" class=""></path><path d="M385.188 153.329c-.406 17.825-11.501 31.674-24.779 31.163-15.589-.6-34.176 8.994-37.174 49.765-2.855 38.828-49.21 63.516-74.855 63.711l26.572 26.572c9.341 9.341 24.486 9.341 33.829 0l43.317-43.317a30.804 30.804 0 0 0 8.646-26.583l-2.256-14.302a19.538 19.538 0 0 1 23.305-22.169l14.756 3.09a24.22 24.22 0 0 0 22.091-6.58c7.704-7.704 7.704-20.194 0-27.899l-33.452-33.451zM466.603 166.713c27.093-27.093 27.093-71.016 0-98.109l-5.139-5.139c-2.397 41.33-34.514 64.872-57.099 68.097l35.151 35.151c7.48 7.48 19.607 7.48 27.087 0z" style="opacity:0.15;enable-background:new ;" fill="#c85412" data-original="#c85412" class=""></path><path d="m487.127 68.407 5.078-5.077c5.722-5.722 5.722-14.999 0-20.721l-10.997-10.997c.174 17.305-17.187 25.684-26.266 25.331l11.465 11.465c5.722 5.721 14.999 5.721 20.72-.001z" style="opacity:0.1;enable-background:new ;" fill="#000000" data-original="#000000" class=""></path><path d="M497.508 68.633c8.636-8.637 8.637-22.689 0-31.328v-.001L466.681 6.478c-8.637-8.638-22.69-8.637-31.328.001l-5.077 5.077a21.997 21.997 0 0 0-5.243 8.426c-12-7.024-25.726-10.657-40.018-10.408a7.5 7.5 0 0 0-7.372 7.626c.07 4.142 3.471 7.426 7.626 7.372 16.95-.26 32.841 6.146 44.809 18.113l.193.193.005.005 30.827 30.827.005.005.193.193c11.686 11.685 18.122 27.224 18.122 43.75s-6.435 32.066-18.122 43.751c-2.201 2.202-5.128 3.414-8.241 3.414s-6.04-1.212-8.241-3.414l-.405-.405L342.992 59.582l-.009-.01-.01-.009-.395-.395c-4.543-4.544-4.543-11.938 0-16.481a62.184 62.184 0 0 1 12.311-9.559 7.499 7.499 0 0 0 2.643-10.271 7.499 7.499 0 0 0-10.272-2.642 77.073 77.073 0 0 0-15.288 11.866c-8.698 8.697-10.111 21.959-4.249 32.147l-11.255 11.255a27.068 27.068 0 0 0-13.208-3.412c-7.272 0-14.11 2.832-19.253 7.975a31.62 31.62 0 0 0-8.617 28.933l3.09 14.756a11.999 11.999 0 0 1-3.271 10.981 12.079 12.079 0 0 1-10.389 3.379l-14.301-2.256c-12.058-1.901-24.418 2.114-33.055 10.75l-43.317 43.317c-5.934 5.935-9.203 13.824-9.203 22.218 0 1.074.055 2.138.161 3.193a33.686 33.686 0 0 0-2.569-.107c-8.83 0-17.13 3.438-23.374 9.682-6.243 6.243-9.682 14.544-9.682 23.374 0 .34.015.677.025 1.015a28.145 28.145 0 0 0-3.11-.179c-7.379 0-14.316 2.873-19.534 8.091l-23.084 23.084c-10.77 10.77-10.77 28.297.001 39.068l100.869 100.869c5.386 5.386 12.458 8.078 19.534 8.078 7.073-.001 14.149-2.693 19.534-8.078l23.084-23.084c6.176-6.176 8.803-14.573 7.896-22.644.343.01.686.025 1.03.025 8.83 0 17.13-3.438 23.374-9.682 6.243-6.243 9.682-14.544 9.682-23.374 0-.863-.043-1.718-.108-2.569a31.92 31.92 0 0 0 3.194.161c8.392 0 16.283-3.268 22.217-9.202l43.317-43.316c8.635-8.635 12.654-20.991 10.751-33.056l-2.256-14.301a12.08 12.08 0 0 1 3.379-10.39 12.005 12.005 0 0 1 10.98-3.271l14.757 3.09a31.634 31.634 0 0 0 28.932-8.616c8.776-8.777 10.289-22.1 4.555-32.454l11.258-11.258a26.492 26.492 0 0 0 13.305 3.553c7.119 0 13.813-2.772 18.847-7.807 14.519-14.52 22.515-33.825 22.515-54.358 0-13.82-3.637-27.077-10.433-38.699a21.979 21.979 0 0 0 8.441-5.249l5.076-5.08zM268.49 354.22a17.938 17.938 0 0 1-12.768 5.289 17.932 17.932 0 0 1-12.764-5.286l-4.263-4.262a7.5 7.5 0 0 0-10.606.001 7.5 7.5 0 0 0 0 10.607l8.1 8.099c4.922 4.923 4.922 12.933.001 17.854l-23.084 23.083c-4.923 4.924-12.932 4.924-17.855 0L94.38 308.738c-4.922-4.923-4.922-12.933 0-17.855l23.083-23.083a12.541 12.541 0 0 1 8.927-3.698c3.372 0 6.542 1.313 8.927 3.698l67.932 67.932a7.501 7.501 0 0 0 10.606-10.607l-64.083-64.082-.009-.01a17.935 17.935 0 0 1-5.288-12.767c0-4.823 1.878-9.356 5.288-12.767a17.938 17.938 0 0 1 12.768-5.289c4.82 0 9.353 1.876 12.762 5.283l93.19 93.188.005.005a17.94 17.94 0 0 1 5.288 12.768 17.924 17.924 0 0 1-5.286 12.766zm144.845-144.845a16.676 16.676 0 0 1-15.25 4.542l-14.757-3.09a26.962 26.962 0 0 0-24.661 7.345 27.121 27.121 0 0 0-7.589 23.334l2.256 14.301a23.377 23.377 0 0 1-6.541 20.11l-43.317 43.317a16.319 16.319 0 0 1-11.61 4.809 16.312 16.312 0 0 1-11.611-4.81l-95.503-95.502a16.31 16.31 0 0 1-4.809-11.609c0-4.387 1.708-8.51 4.809-11.61l43.317-43.317a23.38 23.38 0 0 1 16.503-6.823c1.2 0 2.406.093 3.607.282l14.302 2.256c8.516 1.342 17.238-1.494 23.332-7.589a26.95 26.95 0 0 0 7.346-24.662l-3.09-14.756a16.668 16.668 0 0 1 4.542-15.25c2.31-2.31 5.38-3.582 8.646-3.582s6.336 1.272 8.646 3.582l101.432 101.432a12.147 12.147 0 0 1 3.582 8.646 12.15 12.15 0 0 1-3.582 8.644zm5.304-33.202L327.814 85.35l9.865-9.865 90.825 90.824-9.865 9.864zm68.263-118.146-5.077 5.077a7.101 7.101 0 0 1-5.057 2.095 7.103 7.103 0 0 1-5.052-2.09l-30.841-30.841a7.16 7.16 0 0 1 .009-10.105l5.077-5.077a7.105 7.105 0 0 1 5.057-2.095c1.911 0 3.707.743 5.057 2.095l30.827 30.826c2.788 2.788 2.788 7.326 0 10.115zM30.294 446.872c-12.285 0-22.279 9.994-22.279 22.278 0 12.285 9.994 22.279 22.279 22.279s22.279-9.994 22.279-22.279c0-12.283-9.994-22.278-22.279-22.278zm0 29.558c-4.014 0-7.279-3.266-7.279-7.279 0-4.014 3.265-7.278 7.279-7.278s7.279 3.265 7.279 7.278-3.265 7.279-7.279 7.279zm35.376-84.678c12.285 0 22.279-9.994 22.279-22.278 0-12.285-9.994-22.279-22.279-22.279s-22.279 9.994-22.279 22.279c0 12.283 9.994 22.278 22.279 22.278zm0-29.558c4.014 0 7.279 3.266 7.279 7.279s-3.265 7.278-7.279 7.278-7.279-3.265-7.279-7.278c-.001-4.013 3.266-7.279 7.279-7.279zm75.832 41.096c-12.285 0-22.279 9.994-22.279 22.278 0 12.285 9.994 22.279 22.279 22.279s22.279-9.994 22.279-22.279c.001-12.283-9.994-22.278-22.279-22.278zm0 29.558c-4.014 0-7.279-3.266-7.279-7.279 0-4.014 3.265-7.278 7.279-7.278s7.279 3.265 7.279 7.278-3.265 7.279-7.279 7.279zm144.95-207.81a7.029 7.029 0 0 1-5.464-2.041 7.042 7.042 0 0 1-2.04-5.464 7.5 7.5 0 1 0-14.965-1.027 22.041 22.041 0 0 0 6.399 17.099 22.03 22.03 0 0 0 17.1 6.398 7.5 7.5 0 0 0 6.968-7.997 7.495 7.495 0 0 0-7.998-6.968zm21.956 18.732-4.88 4.88a7.5 7.5 0 0 0 5.304 12.803 7.477 7.477 0 0 0 5.303-2.196l4.88-4.88a7.5 7.5 0 0 0-10.607-10.607zm-58.798-58.798-4.88 4.88a7.5 7.5 0 0 0 10.606 10.607l4.88-4.88a7.5 7.5 0 0 0-10.606-10.607zm-143.192 282.47c-12.284 0-22.278 9.994-22.278 22.279 0 12.284 9.994 22.278 22.278 22.278 12.285 0 22.279-9.994 22.279-22.278.001-12.285-9.993-22.279-22.279-22.279zm0 29.558c-4.013 0-7.278-3.265-7.278-7.278 0-4.014 3.265-7.279 7.278-7.279 4.014 0 7.279 3.266 7.279 7.279.001 4.014-3.265 7.278-7.279 7.278zm-5.657-67.403c0-12.285-9.994-22.279-22.279-22.279s-22.279 9.994-22.279 22.279c0 12.284 9.994 22.278 22.279 22.278s22.279-9.993 22.279-22.278zm-22.279 7.279c-4.014 0-7.279-3.265-7.279-7.278 0-4.014 3.265-7.279 7.279-7.279s7.279 3.266 7.279 7.279-3.265 7.278-7.279 7.278z" fill="#000000" data-original="#000000" class=""></path></g></svg>