<svg id="Слой_1" height="512" viewBox="0 0 128 128" width="512" xmlns="http://www.w3.org/2000/svg" xmlns:xlink="http://www.w3.org/1999/xlink" data-name="Слой 1"><linearGradient id="linear-gradient" gradientUnits="userSpaceOnUse" x1="103.16" x2="53.13" y1="24.16" y2="74.19"><stop offset="0" stop-color="#f4e6ce"/><stop offset="1" stop-color="#f2cdc1"/></linearGradient><linearGradient id="linear-gradient-2" gradientUnits="userSpaceOnUse" x1="3.64" x2="77.15" y1="78.38" y2="78.38"><stop offset="0" stop-color="#e3dfe1"/><stop offset=".17" stop-color="#ddd9dc"/><stop offset=".4" stop-color="#ccc9cf"/><stop offset=".66" stop-color="#b0aeb9"/><stop offset=".94" stop-color="#89899b"/><stop offset="1" stop-color="#808094"/></linearGradient><linearGradient id="linear-gradient-3" gradientUnits="userSpaceOnUse" x1="37.64" x2="64.61" y1="79.06" y2="63.49"><stop offset=".38" stop-color="#d1d1d1"/><stop offset=".6" stop-color="#d7d7d7"/><stop offset=".89" stop-color="#e8e8e8"/><stop offset="1" stop-color="#f0f0f0"/></linearGradient><path d="m48.09 36.25 32.25-32.09a2 2 0 0 1 2.82 0l40.07 40.07a2 2 0 0 1 0 2.84l-49 48.25z" fill="url(#linear-gradient)"/><path d="m77.15 96.91-26.21 25.88a3.91 3.91 0 0 1 -5.15 0l-41.18-41.18a3.91 3.91 0 0 1 0-5.15l42.39-43.46z" fill="url(#linear-gradient-2)"/><path d="m52.05 44.6h60.11v2h-60.11z" fill="#cca692" transform="matrix(.702 -.712 .712 .702 -8.02 72.03)"/><path d="m74.93 20.97h2v60.49h-2z" fill="#cca692" transform="matrix(.715 -.699 .699 .715 -14.16 67.68)"/><path d="m47 33 30.15 63.91-29.15.09z" fill="url(#linear-gradient-3)"/></svg>