<svg id="Capa_1" enable-background="new 0 0 511.997 511.997" height="512" viewBox="0 0 511.997 511.997" width="512" xmlns="http://www.w3.org/2000/svg"><g><path d="m453.39 367.868c-45.37 45.37-85.94 72.83-131.55 89.04-42.03 14.94-88.47 20.95-160.3 20.84h-.78c-87.18 0-132.51 28.43-137.4 31.69-2.54 1.68-5.44 2.51-8.32 2.51-3.87 0-7.7-1.49-10.61-4.38l190.57-333.237 224.38-81.713v.39c14.35-.13 28.52 3.43 41.36 10.57 19.28 10.71 33.38 28.26 39.69 49.42 25.25 84.54 8.98 158.84-47.04 214.87z" fill="#ff73a5"/><g><g><path d="m408.84 51.548c-10.69-19.25-28.2-33.35-49.32-39.71-84.84-25.55-159.33-9.39-215.44 46.72-45.37 45.37-72.83 85.94-89.05 131.54-14.94 42.03-20.98 88.48-20.85 160.3.17 85.78-26.36 130.17-31.68 138.2-3.95 5.97-3.15 13.89 1.91 18.95l.02.02 414.95-414.95c.1-14.23-3.46-28.31-10.54-41.07z" fill="#ffa0c3"/></g></g><g><path d="m212.55 299.448-24.59 24.59-26.26-6.98c-8.03-2.14-12.8-10.37-10.67-18.4s10.37-12.8 18.4-10.67z" fill="#ff73a5"/></g><g><path d="m265.25 246.748-24.59 24.59-41.25-10.97c-8.03-2.13-12.81-10.37-10.67-18.39 2.13-8.03 10.37-12.81 18.4-10.67z" fill="#ff73a5"/></g><g><path d="m317.94 194.048v.01l-24.58 24.58-41.25-10.97c-8.03-2.13-12.81-10.37-10.67-18.39 2.13-8.03 10.37-12.81 18.4-10.67z" fill="#ff73a5"/></g><g><path d="m346.07 165.928v-.01l-41.24-10.96c-8.03-2.14-12.81-10.37-10.68-18.4 2.14-8.03 10.38-12.8 18.4-10.67l58.11 15.45z" fill="#ff73a5"/></g><g fill="#ff468c"><path d="m213.34 360.968c-1.3.34-2.6.51-3.88.51-6.65 0-12.73-4.45-14.52-11.18l-6.98-26.26 24.59-24.59 11.46 43.12c2.13 8.03-2.65 16.26-10.67 18.4z"/><path d="m270.02 323.258c-1.29.34-2.59.51-3.87.51-6.65 0-12.74-4.45-14.53-11.18l-10.96-41.25 24.59-24.59 15.44 58.11c2.14 8.03-2.64 16.26-10.67 18.4z"/><path d="m322.72 270.558c-1.29.34-2.59.51-3.87.51-6.65 0-12.74-4.45-14.53-11.18l-10.96-41.25 24.58-24.58 15.45 58.1c2.14 8.03-2.64 16.27-10.67 18.4z"/><path d="m375.44 217.838c-1.3.35-2.6.51-3.88.51-6.65 0-12.73-4.45-14.52-11.18l-10.97-41.24 24.59-24.59 15.45 58.1c2.13 8.03-2.65 16.27-10.67 18.4z"/></g><path d="m505.24 28.028-345.51 345.51c-2.94 2.94-6.79 4.4-10.64 4.4s-7.7-1.46-10.63-4.4l221.873-232.2 144.907-134.58c5.87 5.87 5.87 15.39 0 21.27z" fill="#d72878"/><g><path d="m505.24 6.758-366.78 366.78c-5.88-5.87-5.88-15.4 0-21.27l345.51-345.51c5.87-5.87 15.39-5.87 21.27 0z" fill="#ff468c"/></g></g></svg>