<svg id="Filled_Expand_pastel" height="512" viewBox="0 0 64 64" width="512" xmlns="http://www.w3.org/2000/svg" data-name="Filled Expand pastel"><path d="m30.93 50a2 2 0 0 1 -2.45-1.41l-10.62-39.59a4 4 0 1 0 -7.72 2 2 2 0 1 1 -3.87 1 8 8 0 0 1 15.46-4.07l10.61 39.6a2 2 0 0 1 -1.41 2.47z" fill="#e13c5a"/><path d="m27 46h30a0 0 0 0 1 0 0v1a15 15 0 0 1 -15 15 15 15 0 0 1 -15-15v-1a0 0 0 0 1 0 0z" fill="#e13c5a"/><path d="m49 41a4 4 0 0 0 -2.07.59 6 6 0 0 0 -9.44-.54 3.87 3.87 0 0 0 -.49-.05 4 4 0 0 0 -4 4v6a2.07 2.07 0 0 0 1.66 2.07 2 2 0 0 0 2.34-2v-1.07a2.07 2.07 0 0 1 1.66-2.08 2 2 0 0 1 2.34 2v3.08a2 2 0 0 0 4 0v-3.87a2.07 2.07 0 0 1 1.66-2.08 2 2 0 0 1 2.34 1.95v1a2.07 2.07 0 0 0 1.66 2.08 2 2 0 0 0 2.34-2v-5.08a4 4 0 0 0 -4-4z" fill="#966037"/><path d="m58 45h-4a5.14 5.14 0 0 0 -4.65-5 4.75 4.75 0 0 0 -2.11.33 7 7 0 0 0 -10.13-.33h-.11a5 5 0 0 0 -4.72 3.43l-9.59-35.76a9 9 0 0 0 -17.38 4.66 3 3 0 1 0 5.79-1.55 3 3 0 0 1 5.8-1.56l9.58 35.78h-.48a1 1 0 0 0 0 2 16 16 0 0 0 32 0 1 1 0 0 0 0-2zm-24 0a3 3 0 0 1 3-3 1 1 0 0 1 .24 0h.13a1 1 0 0 0 .87-.33 5 5 0 0 1 7.87.45 1 1 0 0 0 1.34.29 2.89 2.89 0 0 1 1.75-.41 3.18 3.18 0 0 1 2.8 3.24v4.84a1 1 0 0 1 -2 0v-1a3 3 0 0 0 -6 0v4a1 1 0 0 1 -2 0v-3.16a3 3 0 0 0 -6 0v1.15a1 1 0 0 1 -2 0zm-15.17-36.29a5 5 0 1 0 -9.66 2.58 1 1 0 1 1 -1.93.52 7 7 0 0 1 13.52-3.62l9.87 36.81h-2.07zm23.17 52.29a14 14 0 0 1 -14-14h4v4.07a3 3 0 0 0 6 0v-1.15a1 1 0 0 1 2 0v3.08a3 3 0 0 0 6 0v-4a1 1 0 0 1 2 0v1a3 3 0 0 0 6 0v-3h2a14 14 0 0 1 -14 14z"/></svg>