<svg id="Layer_3" enable-background="new 0 0 64 64" height="512" viewBox="0 0 64 64" width="512" xmlns="http://www.w3.org/2000/svg"><path d="m15 6v2c0 2.524-1.165 4.906-3.157 6.456l-2.685 2.088c-1.993 1.55-3.158 3.932-3.158 6.456v35c0 2.209 1.791 4 4 4h18c2.209 0 4-1.791 4-4v-35c0-2.524-1.165-4.906-3.157-6.456l-2.685-2.088c-1.993-1.55-3.158-3.932-3.158-6.456v-2" fill="#c7e2fc"/><path d="m29 17.5c0-.279-.011-.554-.015-.831-.049-.04-.092-.085-.142-.124l-2.685-2.089c-1.993-1.55-3.158-3.932-3.158-6.456v-2h-8v2c0 2.524-1.165 4.906-3.157 6.456l-2.685 2.089c-1.993 1.549-3.158 3.931-3.158 6.455v29.828c12.91-1.749 23-16.897 23-35.328z" fill="#ebf7fe"/><circle cx="12" cy="56" fill="#a1cdfb" r="2"/><circle cx="21" cy="50" fill="#a1cdfb" r="3"/><path d="m23 2h-8c-1.105 0-2 .895-2 2v2h12v-2c0-1.105-.895-2-2-2z" fill="#e47c6e"/><path d="m32 37h-2.592c-3.526 0-6.974 1.044-9.908 3-2.934 1.956-6.382 3-9.908 3h-3.592v-12h3.592c3.526 0 6.974-1.044 9.908-3 2.934-1.956 6.382-3 9.908-3h2.592" fill="#e47c6e"/><path d="m36 32h22v30h-22z" fill="#ebf7fe"/><path d="m58 43h-2.528c-2.941 0-5.842.685-8.472 2s-5.531 2-8.472 2h-2.528v15h22z" fill="#c7e2fc"/><circle cx="42" cy="52" fill="#a1cdfb" r="2"/><circle cx="52" cy="48" fill="#a1cdfb" r="2"/><g fill="#c7e2fc"><circle cx="42" cy="26" r="2"/><circle cx="42" cy="12" r="2"/><circle cx="51" cy="20" r="3"/></g><path d="m58 63h-22c-.553 0-1-.447-1-1v-30c0-.553.447-1 1-1h22c.553 0 1 .447 1 1v30c0 .553-.447 1-1 1zm-21-2h20v-28h-20z"/><path d="m36 57h22v2h-22z"/><path d="m38.528 48h-2.528v-2h2.528c2.771 0 5.546-.655 8.024-1.895 2.756-1.376 5.84-2.105 8.92-2.105h2.528v2h-2.528c-2.771 0-5.546.655-8.024 1.895-2.756 1.376-5.84 2.105-8.92 2.105z"/><path d="m42 55c-1.654 0-3-1.346-3-3s1.346-3 3-3 3 1.346 3 3-1.346 3-3 3zm0-4c-.552 0-1 .448-1 1s.448 1 1 1 1-.448 1-1-.448-1-1-1z"/><path d="m52 51c-1.654 0-3-1.346-3-3s1.346-3 3-3 3 1.346 3 3-1.346 3-3 3zm0-4c-.552 0-1 .448-1 1s.448 1 1 1 1-.448 1-1-.448-1-1-1z"/><path d="m42 29c-1.654 0-3-1.346-3-3s1.346-3 3-3 3 1.346 3 3-1.346 3-3 3zm0-4c-.552 0-1 .448-1 1s.448 1 1 1 1-.448 1-1-.448-1-1-1z"/><path d="m42 15c-1.654 0-3-1.346-3-3s1.346-3 3-3 3 1.346 3 3-1.346 3-3 3zm0-4c-.552 0-1 .448-1 1s.448 1 1 1 1-.448 1-1-.448-1-1-1z"/><path d="m51 24c-2.206 0-4-1.794-4-4s1.794-4 4-4 4 1.794 4 4-1.794 4-4 4zm0-6c-1.103 0-2 .897-2 2s.897 2 2 2 2-.897 2-2-.897-2-2-2z"/><path d="m28 63h-18c-2.757 0-5-2.243-5-5v-35c0-2.853 1.291-5.493 3.543-7.245l2.686-2.088c1.761-1.37 2.771-3.436 2.771-5.667v-2h2v2c0 2.853-1.291 5.493-3.543 7.245l-2.686 2.088c-1.761 1.37-2.771 3.436-2.771 5.667v35c0 1.654 1.346 3 3 3h18c1.654 0 3-1.346 3-3v-35c0-2.231-1.01-4.297-2.771-5.667l-2.686-2.088c-2.252-1.752-3.543-4.392-3.543-7.245v-2h2v2c0 2.231 1.01 4.297 2.771 5.667l2.686 2.088c2.252 1.752 3.543 4.392 3.543 7.245v35c0 2.757-2.243 5-5 5z"/><path d="m25 7h-12c-.553 0-1-.447-1-1v-2c0-1.654 1.346-3 3-3h8c1.654 0 3 1.346 3 3v2c0 .553-.447 1-1 1zm-11-2h10v-1c0-.552-.448-1-1-1h-8c-.552 0-1 .448-1 1z"/><path d="m9.592 32h-3.592v-2h3.592c3.34 0 6.574-.979 9.354-2.832 3.109-2.072 6.727-3.168 10.462-3.168h2.592v2h-2.592c-3.34 0-6.574.979-9.354 2.832-3.109 2.072-6.727 3.168-10.462 3.168z"/><path d="m9.592 44h-3.592v-2h3.592c3.34 0 6.574-.979 9.354-2.832 3.109-2.072 6.727-3.168 10.462-3.168h2.592v2h-2.592c-3.34 0-6.574.979-9.354 2.832-3.109 2.072-6.727 3.168-10.462 3.168z"/><path d="m12 59c-1.654 0-3-1.346-3-3s1.346-3 3-3 3 1.346 3 3-1.346 3-3 3zm0-4c-.552 0-1 .448-1 1s.448 1 1 1 1-.448 1-1-.448-1-1-1z"/><path d="m21 54c-2.206 0-4-1.794-4-4s1.794-4 4-4 4 1.794 4 4-1.794 4-4 4zm0-6c-1.103 0-2 .897-2 2s.897 2 2 2 2-.897 2-2-.897-2-2-2z"/></svg>