<svg id="Capa_1" enable-background="new 0 0 512.508 512.508" height="512" viewBox="0 0 512.508 512.508" width="512" xmlns="http://www.w3.org/2000/svg"><g><g><path d="m275.687 195.62v213.94c0 11.82-.9 23.62-2.7 35.27-1.79 11.65-4.48 23.17-8.03 34.45-4.27 13.52-16.81 22.72-30.99 22.72h-146.89c-14.009 0-26.763-9.369-30.99-22.72-7.11-22.56-10.73-46.07-10.73-69.72v-213.94c0-16.13 6.14-31.66 17.16-43.43l43.67-46.61c2.06-2.2 3.96-4.54 5.67-6.98 7.38-.47 17.95.27 25.37 4.11 14.962 8.324 33.959 7.9 48.95 0 6.35-3.29 15.96-4.31 22.93-4.23 1.74 2.49 3.66 4.86 5.76 7.1l43.66 46.61c11.03 11.77 17.16 27.3 17.16 43.43z" fill="#fff0d7"/></g><g><path d="m45.357 200h230.332v217.963h-230.332z" fill="#ffce62"/></g><g><path d="m107.524 10h105.998v45.349h-105.998z" fill="#5c90ae"/></g><g><path d="m220.955 291.358c-2.914-14.726-16.042-28.518-31.703-28.44-14.314-.014-25.921 10.806-26.998 11.841-1.077-1.034-12.684-11.854-26.998-11.841-20.657-.102-32.921 20.762-32.729 39.32.024 28.594 21.26 59.438 38.693 61.16 5.043.498 10.948-.816 15.213-3.805 3.544-2.48 8.097-2.48 11.641 0 4.324 3.03 10.084 4.366 15.213 3.805 18.601-2.033 38.669-32.566 38.693-61.16.039-3.721-.285-7.374-1.025-10.88z" fill="#ff7b7b"/></g><g><path d="m322.42 288.027 21.391 202.497c.725 6.728 6.55 11.984 13.322 11.984h.017 75.269c6.717.009 12.621-5.311 13.34-11.984l21.391-202.497z" fill="#f9f5f3"/></g><g><path d="m461.166 344.537c-.044.07-.058.163 0 .214l-15.406 145.773c-.719 6.674-6.626 11.995-13.344 11.984h-75.265-.022c-6.768 0-12.597-5.253-13.322-11.984l-15.406-145.773c9.243-6.55 22.688-6.76 33.197-2.67 25.32 9.753 41.052 9.753 66.371 0 10.753-4.186 23.338-3.68 33.197 2.456z" fill="#fff0d7"/></g><g><path d="m265.824 145.354-43.662-46.611c-8.492-9.071-13.621-20.988-14.357-33.394h5.716c5.522 0 10-4.478 10-10v-45.349c0-5.522-4.478-10-10-10h-105.996c-5.522 0-10 4.478-10 10v45.349c0 5.522 4.478 10 10 10h5.716c-.782 13.247-6.536 25.05-15.525 34.646l-42.499 45.36c-12.808 13.68-19.86 31.53-19.86 50.265v213.94c0 24.621 3.792 49.243 11.196 72.738 5.536 17.489 22.213 29.688 40.527 29.702h146.886c19.758-.315 35.476-13.149 41.161-31.79 6.985-22.861 10.562-46.756 10.562-70.647v-213.945c0-18.585-7.161-36.709-19.865-50.264zm-77.806-76.404c.662 7.206 2.398 14.292 5.129 20.993-3.933.804-7.99 2.033-11.604 3.906-12.4 6.63-27.31 6.399-39.72-.02-4.364-2.259-9.168-3.592-13.73-4.368 2.602-6.496 4.257-13.351 4.915-20.317.129-1.262.219-2.526.271-3.794h54.486c.051 1.202.143 2.401.253 3.6zm-118.2 90.08 37.122-39.627c3.363-3.59 6.873-7.095 9.975-10.917 5.282.096 11.439.92 15.642 3.067 17.983 9.639 40.215 9.491 58.221.036 2.915-1.511 7.99-2.603 13.465-2.975 1.062 1.302 2.173 2.579 3.322 3.806l43.664 46.609c7.92 8.455 12.951 19.449 14.156 30.971-61.256 0-122.513 0-183.769 0-8.652 0-17.303 0-25.955 0 1.204-11.52 6.239-22.517 14.157-30.97zm47.707-139.03h85.997v25.349h-85.997zm-30.445 472c-9.664 0-18.541-6.492-21.453-15.729-4.964-15.739-8.136-31.923-9.498-48.309h61.589c5.522 0 10-4.478 10-10s-4.478-10-10-10h-62.36v-197.962h210.329v197.963h-59.987c-5.522 0-10 4.478-10 10s4.478 10 10 10h59.213c-.428 5.148-1.026 10.275-1.81 15.349-1.56 10.146-3.866 20.295-6.844 30.207-3.125 10.372-10.786 18.481-22.293 18.481z"/><path d="m218.02 348.173c8.859-13.824 13.947-30.564 13.959-45.83.048-4.515-.365-8.884-1.228-12.989-3.582-17.956-20.004-36.436-41.307-36.436-.073 0-.151.001-.221 0-6.411 0-12.274 1.588-17.273 3.729-1.289-8.922-4.635-19.139-12.549-26.855-3.956-3.854-10.286-3.775-14.142.179-3.855 3.955-3.775 10.286.179 14.142 3.179 3.099 5.032 7.537 6.062 12.096-4.751-1.914-10.219-3.29-16.16-3.29-.081-.001-.161 0-.24 0-10.536 0-20.151 4.069-27.818 11.777-9.387 9.438-14.903 23.511-14.757 37.55.027 32.888 24.104 68.771 47.708 71.103 7.671.759 15.876-1.321 21.934-5.564.056-.071.112-.072.168-.001 5.26 3.685 12.036 5.737 18.664 5.736 1.131 0 2.259-.06 3.373-.182 11.974-1.309 24.237-10.481 33.648-25.165zm-35.819 5.283c-2.87.311-6.162-.493-8.393-2.056-6.955-4.871-16.154-4.871-23.113.001-2.125 1.488-5.618 2.328-8.494 2.044-4.282-.424-11.657-5.537-18.478-16.01-7.002-10.749-11.188-23.91-11.198-35.302-.091-8.759 3.335-17.7 8.938-23.335 3.882-3.902 8.471-5.881 13.698-5.881.04 0 .073-.001.12 0 8.718 0 16.69 6.162 19.206 8.311 3.724 4.48 10.521 4.749 14.693.74.095-.09 9.54-9.051 20.102-9.051.029.001.059 0 .088 0 8.546 0 19.278 7.772 21.773 20.382.008.042.017.083.025.125.57 2.698.843 5.628.81 8.805-.02 26.021-18.304 49.973-29.777 51.227z"/><path d="m474.585 281.337c-1.896-2.107-4.599-3.311-7.434-3.311h-144.731c-2.835 0-5.537 1.203-7.434 3.311-1.896 2.107-2.809 4.921-2.511 7.739l21.389 202.521c1.264 11.726 11.483 20.911 23.287 20.911h75.286c11.71 0 22.015-9.313 23.267-20.933l21.392-202.499c.298-2.818-.615-5.632-2.511-7.739zm-18.545 16.689-3.428 32.441c-9.138-2.018-19.021-1.305-28.238 2.281-22.952 8.843-36.228 8.841-59.148.014-9.207-3.584-19.263-4.3-28.271-2.333l-3.424-32.403zm-98.906 194.482c-1.653 0-3.201-1.398-3.378-3.033l-14.677-138.945c5.589-1.786 12.688-1.544 18.924.884 27.5 10.591 46.062 10.592 73.593-.013 6.202-2.414 13.017-2.652 18.891-.822l-14.67 138.875c-.178 1.655-1.74 3.055-3.401 3.055h-75.282z"/><path d="m170.754 414.134c-2.094-5.031-8.02-7.498-13.061-5.41-5.034 2.085-7.486 8.031-5.409 13.06 2.081 5.04 8.029 7.488 13.06 5.41 5.052-2.087 7.475-8.018 5.41-13.06z"/></g></g></svg>