<svg enable-background="new 0 0 64 64" height="512" viewBox="0 0 64 64" width="512" xmlns="http://www.w3.org/2000/svg"><g id="_x34_1-_Baking_Soda"><g><g><path d="m49.58 9.21h-35.64c-.83 0-1.5-.67-1.5-1.5v-1.71c0-.83.67-1.5 1.5-1.5h35.64c.83 0 1.5.67 1.5 1.5v1.71c0 .83-.67 1.5-1.5 1.5z" fill="#00c9ff"/><path d="m53.59 18.64v37.71c0 1.73-1.39 3.14-3.09 3.14h-37.1c-1.7 0-3.09-1.41-3.09-3.14v-37.71c0-1.73 1.39-3.14 3.09-3.14 1.71 0 3.09-1.41 3.09-3.14v-3.15h30.91v3.14c0 1.74 1.38 3.14 3.09 3.14 1.7.01 3.1 1.42 3.1 3.15z" fill="#fff4de"/><g fill="#00afd8"><path d="m43.48 4.5h4.61v4.71h-4.61z"/><path d="m34.25 4.5h4.61v4.71h-4.61z"/><path d="m25.03 4.5h4.61v4.71h-4.61z"/><path d="m15.8 4.5h4.61v4.71h-4.61z"/></g><path d="m10.31 23.68h43.28v29.86h-43.28z" fill="#00c9ff"/><path d="m29.33 34.25c-.68 0-1.39.23-1.39.23 0-.85-.64-1.54-1.43-1.54-.78 0-1.42.69-1.42 1.54v-1.62c0-.84-.65-1.53-1.43-1.53-.79 0-1.43.69-1.43 1.53v1.62c0-.85-.64-1.54-1.42-1.54-.79 0-1.43.69-1.43 1.54 0 0-.68-.23-1.47-.23s-1.43.69-1.43 1.53c0 2.25 1.79 4.08 4.01 4.08h6.27c2.21 0 4.01-1.82 4.01-4.08-.01-.84-.65-1.53-1.44-1.53z" fill="#f4f4f4"/><g fill="#d1e4e8"><path d="m30.62 36.71c0 3.93-3.14 7.12-7 7.12s-7-3.19-7-7.12z"/><path d="m28.73 36.71h18.55v3.14h-18.55z"/></g></g><g><path d="m50.45 15c-1.43 0-2.59-1.19-2.59-2.65v-2.65h1.74c1.06 0 1.92-.88 1.92-1.96v-1.78c0-1.08-.86-1.96-1.92-1.96h-35.56c-1.06 0-1.92.88-1.92 1.96v1.77c0 1.08.86 1.96 1.92 1.96h2.11v2.65c0 1.46-1.16 2.65-2.59 2.65-1.97.01-3.56 1.64-3.56 3.65v37.73c0 2 1.59 3.64 3.55 3.64h36.89c1.96 0 3.55-1.63 3.55-3.64v-37.73c.01-2.01-1.58-3.64-3.54-3.64zm-11.09-6.28v-3.74h3.63v3.73h-3.63zm-4.59 0v-3.74h3.63v3.73h-3.63zm-4.58 0v-3.74h3.63v3.73h-3.63zm-4.59 0v-3.74h3.63v3.73h-3.63zm-4.59 0v-3.74h3.63v3.73h-3.63zm-4.38 0h-.2v-3.74h3.63v3.73h-3.43zm27.32-3.74h3.63v3.73h-.2-3.42v-3.73zm6.6.98v1.77c0 .54-.43.98-.96.98h-1.05v-3.73h1.05c.53 0 .96.44.96.98zm-37.47 1.77v-1.77c0-.54.43-.98.96-.98h1.42v3.73h-1.42c-.53.01-.96-.43-.96-.98zm.47 8.26c1.96 0 3.55-1.63 3.55-3.64v-2.65h29.78v2.65c0 2 1.59 3.64 3.55 3.64 1.43 0 2.59 1.19 2.59 2.65v4.54h-42.06v-4.54c0-1.46 1.16-2.65 2.59-2.65zm39.49 37.06h-42.08v-28.89h42.08zm-2.59 5.97h-36.9c-1.43 0-2.59-1.19-2.59-2.65v-2.33h42.08v2.33c0 1.46-1.16 2.65-2.59 2.65z"/><path d="m23.72 44.33c2.75 0 5.21-1.52 6.51-3.98h17.02c.27 0 .48-.22.48-.49v-3.14c0-.27-.21-.49-.48-.49h-15.98c.01-.15.03-.29.03-.44 0-1.12-.85-2.02-1.9-2.02-.36 0-.71.05-.99.11-.24-.83-.96-1.43-1.82-1.43-.34 0-.67.1-.95.27-.07-1.05-.89-1.88-1.9-1.88-1 0-1.83.83-1.9 1.88-.28-.17-.6-.27-.94-.27-.85 0-1.57.6-1.82 1.43-.29-.06-.66-.11-1.07-.11-1.05 0-1.9.91-1.9 2.02 0 .42.06.81.16 1.16.13 4.07 3.45 7.38 7.45 7.38zm0-.98c-3.39 0-6.22-2.72-6.46-6.14h12.9c-.05.85-.27 1.68-.64 2.44-1.1 2.28-3.32 3.7-5.8 3.7zm23.05-3.98h-16.08c.26-.7.38-1.43.44-2.16h15.64zm-28.74-4.63c.69 0 1.31.2 1.31.2.3.11.64-.15.63-.47 0-.58.42-1.05.94-1.05.51 0 .93.47.93 1.05-.01.64.97.64.96 0v-1.62c0-.57.42-1.04.94-1.04s.94.47.94 1.04v1.62c-.01.64.97.64.96 0 0-.58.42-1.05.94-1.05s.94.47.94 1.05c-.01.32.33.57.62.47.01 0 .64-.2 1.24-.2.52 0 .94.47.94 1.04 0 .15-.01.3-.03.44h-13.17c-.02-.14-.03-.29-.03-.44 0-.57.42-1.04.94-1.04z"/></g></g></g></svg>