<svg id="Capa_1" enable-background="new 0 0 512 512" height="512" viewBox="0 0 512 512" width="512" xmlns="http://www.w3.org/2000/svg"><g><g><path d="m302.849 15.593c-.858.216-1.747.486-2.667.816-13.178 4.708-19.52 17.813-24.574 29.587-12.474 29.065-19.445 59.957-26.848 90.513-12.493 51.56-24.484 103.696-25.777 156.877-1.462 60.181 9.081 139.349 64.438 176.721 13.415 9.057 34.248 18.886 50.784 20.046 68.232 4.787 137.778-63.947 161.512-120.779 6.998-16.76 11.669-36.445 12.206-54.593 1.849-62.774-29.431-125.972-82.666-161.649-23.239-15.573-48.832-23.204-74.217-34.251-14.631-6.367-26.821-16.955-32.863-31.605-6.771-16.417.09-31.998.556-48.68.331-11.951-4.532-26.881-19.884-23.003z" fill="#fff1cf"/></g><g><path d="m210.092 15.593c.861.216 1.751.486 2.678.816 13.237 4.707 19.607 17.813 24.682 29.586 12.533 29.066 19.535 59.957 26.971 90.512 12.548 51.562 24.594 103.698 25.892 156.878 1.472 60.181-9.122 139.349-64.728 176.721-13.474 9.057-34.403 18.886-51.012 20.046-68.537 4.787-138.394-63.947-162.234-120.779-7.032-16.76-11.724-36.445-12.263-54.593-1.858-62.774 29.561-125.972 83.036-161.649 23.345-15.575 49.05-23.205 74.553-34.252 14.695-6.367 26.943-16.955 33.009-31.605 6.802-16.417-.093-31.997-.558-48.679-.334-11.951 4.552-26.881 19.974-23.002z" fill="#ffeab7"/></g><g><path d="m317.673 147.221c-18.488-25.351-31.008-54.151-31.933-85.09-.28-9.389-.054-18.87-3.813-27.775-1.049-2.482-2.42-4.922-4.055-7.112-4.899-7.465-12.563-12.278-21.181-12.278-10.906 0-20.285 7.701-24.463 18.746-4.032 10.651-3.754 21.976-4.358 33.104-.608 11.265-3.438 21.815-6.677 32.634-5.159 17.222-12.794 34.987-25.317 48.899 0 0-144.957 167.388-42.139 296.484 7.245 10.812 16.559 20.384 27.457 28.288.372.321.732.64 1.109.96 0 0 1.447 1.026 3.976 2.531 19.774 12.841 44.098 20.423 70.411 20.423 46.213 0 86.314-23.37 106.343-57.606 15.86-21.189 26.603-45.101 30.709-70.686 3.726-23.211 3.699-46.885-.994-69.967-4.375-21.527-11.476-42.918-20.379-63.177-7.83-17.817-17.77-34.751-28.134-51.366-8.05-12.907-17.645-24.79-26.562-37.012z" fill="#fff8e6"/></g><g><path d="m260.841 478.313c-1.953-1.387-3.081-2.345-3.081-2.345-.297-.302-.581-.604-.875-.908-8.505-7.392-15.949-16.522-21.949-26.984-83.632-124.167 12.541-297.832 12.541-297.832 8.342-14.455 12.851-32.534 15.573-49.958 1.708-10.945 3.133-21.604 2.879-32.875-.249-11.135-1.157-22.425 1.145-33.239 1.089-5.121 3.026-9.582 5.565-12.98-4.455-3.909-9.971-6.228-15.948-6.228-10.906 0-20.285 7.701-24.463 18.746-4.032 10.651-3.754 21.976-4.358 33.105-.608 11.265-3.438 21.815-6.676 32.634-5.159 17.222-12.794 34.987-25.317 48.899 0 0-144.957 167.388-42.139 296.484 7.245 10.812 16.559 20.384 27.457 28.288.372.321.733.64 1.109.961 0 0 1.447 1.026 3.976 2.531 19.774 12.842 44.098 20.423 70.411 20.423 11.411 0 22.447-1.43 32.902-4.092-10.312-2.841-20.022-7.848-28.752-14.63z" fill="#fff1cf"/></g><g><g><path d="m205.33 344.084c0 13.317-13.557 24.111-30.278 24.111-16.723 0-30.278-10.794-30.278-24.111 0-13.316 13.555-24.111 30.278-24.111 16.721 0 30.278 10.794 30.278 24.111" fill="#ffa1ac"/></g><g><path d="m308.888 344.084c0 13.317 13.556 24.111 30.278 24.111s30.278-10.794 30.278-24.111c0-13.316-13.556-24.111-30.278-24.111s-30.278 10.794-30.278 24.111" fill="#ffa1ac"/></g><g><path d="m281.52 325.559c0-15.087-10.93-16.505-24.411-16.505s-24.411 1.418-24.411 16.505c0 15.086 10.93 27.316 24.411 27.316 13.482 0 24.411-12.23 24.411-27.316" fill="#495560"/></g><g><path d="m180.113 322.798c-4.143 0-7.5-3.358-7.5-7.5v-12.364c0-4.142 3.357-7.5 7.5-7.5s7.5 3.358 7.5 7.5v12.364c0 4.142-3.357 7.5-7.5 7.5z" fill="#495560"/></g><g><path d="m334.105 322.798c-4.143 0-7.5-3.358-7.5-7.5v-12.364c0-4.142 3.357-7.5 7.5-7.5s7.5 3.358 7.5 7.5v12.364c0 4.142-3.357 7.5-7.5 7.5z" fill="#495560"/></g></g></g></svg>