<?xml version="1.0" encoding="UTF-8"?>
<svg xmlns="http://www.w3.org/2000/svg" xmlns:xlink="http://www.w3.org/1999/xlink" version="1.1" id="Capa_1" x="0px" y="0px" viewBox="0 0 512 512" style="enable-background:new 0 0 512 512;" xml:space="preserve" width="512" height="512">
<g>
	<path style="fill:#D6694B;" d="M436.852,340h-87.368c-16.743,0-30.316-13.573-30.316-30.316V156.316&#10;&#9;&#9;c0-16.743,13.573-30.316,30.316-30.316h87.368c16.743,0,30.316,13.573,30.316,30.316v153.368&#10;&#9;&#9;C467.168,326.427,453.595,340,436.852,340z"/>
	<path style="fill:#C4573A;" d="M436.852,126h-30c16.743,0,30.316,13.573,30.316,30.316v153.368&#10;&#9;&#9;c0,16.743-13.573,30.316-30.316,30.316h30c16.743,0,30.316-13.573,30.316-30.316V156.316C467.168,139.573,453.595,126,436.852,126z&#10;&#9;&#9;"/>
	<path style="fill:#D6694B;" d="M296.379,340h-87.368c-16.743,0-30.316-13.573-30.316-30.316V156.316&#10;&#9;&#9;c0-16.743,13.573-30.316,30.316-30.316h87.368c16.743,0,30.316,13.573,30.316,30.316v153.368&#10;&#9;&#9;C326.695,326.427,313.122,340,296.379,340z"/>
	<path style="fill:#C4573A;" d="M296.379,126h-30c16.743,0,30.316,13.573,30.316,30.316v153.368&#10;&#9;&#9;c0,16.743-13.573,30.316-30.316,30.316h30c16.743,0,30.316-13.573,30.316-30.316V156.316C326.695,139.573,313.122,126,296.379,126z&#10;&#9;&#9;"/>
	<path style="fill:#D6694B;" d="M155.906,340H68.538c-16.743,0-30.316-13.573-30.316-30.316V156.316&#10;&#9;&#9;c0-16.743,13.573-30.316,30.316-30.316h87.368c16.743,0,30.316,13.573,30.316,30.316v153.368&#10;&#9;&#9;C186.222,326.427,172.649,340,155.906,340z"/>
	<path style="fill:#C4573A;" d="M155.906,126h-30c16.743,0,30.316,13.573,30.316,30.316v153.368&#10;&#9;&#9;c0,16.743-13.573,30.316-30.316,30.316h30c16.743,0,30.316-13.573,30.316-30.316V156.316C186.222,139.573,172.649,126,155.906,126z&#10;&#9;&#9;"/>
	<path style="fill:#EAF6FF;" d="M436.601,356H75.399c-16.002,0-31.618-4.783-44.738-13.703L8.821,327.45&#10;&#9;&#9;c-2.467-1.677-1.248-5.45,1.76-5.45h490.838c3.009,0,4.227,3.773,1.76,5.45l-21.84,14.847C468.219,351.217,452.603,356,436.601,356&#10;&#9;&#9;z"/>
	<path style="fill:#D8ECFE;" d="M501.419,322h-30c3.009,0,4.227,3.773,1.76,5.45l-21.84,14.847&#10;&#9;&#9;c-13.12,8.92-28.737,13.703-44.738,13.703h30c16.002,0,31.618-4.783,44.738-13.703l21.84-14.847&#10;&#9;&#9;C505.646,325.773,504.428,322,501.419,322z"/>
	<path style="fill:#D8ECFE;" d="M391.524,386H120.476c-8.43,0-16.35-4.043-21.294-10.872L85.333,356h341.333l-13.849,19.128&#10;&#9;&#9;C407.874,381.957,399.955,386,391.524,386z"/>
	<g>
		<path style="fill:none;stroke:#000000;stroke-width:15;stroke-linecap:round;stroke-linejoin:round;stroke-miterlimit:10;" d="&#10;&#9;&#9;&#9;M324.268,139.481C329.706,131.352,338.97,126,349.484,126h87.368c16.743,0,30.316,13.573,30.316,30.316v153.368&#10;&#9;&#9;&#9;c0,3.329-0.537,6.533-1.528,9.529"/>
		<g>
			
				<line style="fill:none;stroke:#000000;stroke-width:15;stroke-linecap:round;stroke-linejoin:round;stroke-miterlimit:10;" x1="353.949" y1="165.328" x2="353.949" y2="294.556"/>
			
				<line style="fill:none;stroke:#000000;stroke-width:15;stroke-linecap:round;stroke-linejoin:round;stroke-miterlimit:10;" x1="393.168" y1="165.328" x2="393.168" y2="294.556"/>
			
				<line style="fill:none;stroke:#000000;stroke-width:15;stroke-linecap:round;stroke-linejoin:round;stroke-miterlimit:10;" x1="432.387" y1="165.328" x2="432.387" y2="294.556"/>
		</g>
		<path style="fill:none;stroke:#000000;stroke-width:15;stroke-linecap:round;stroke-linejoin:round;stroke-miterlimit:10;" d="&#10;&#9;&#9;&#9;M183.402,140.084c5.377-8.466,14.837-14.084,25.609-14.084h87.368c16.743,0,30.316,13.573,30.316,30.316v153.368&#10;&#9;&#9;&#9;c0,3.804-0.7,7.444-1.979,10.798"/>
		<g>
			
				<line style="fill:none;stroke:#000000;stroke-width:15;stroke-linecap:round;stroke-linejoin:round;stroke-miterlimit:10;" x1="213.476" y1="165.328" x2="213.476" y2="294.556"/>
			
				<line style="fill:none;stroke:#000000;stroke-width:15;stroke-linecap:round;stroke-linejoin:round;stroke-miterlimit:10;" x1="252.695" y1="165.328" x2="252.695" y2="294.556"/>
			
				<line style="fill:none;stroke:#000000;stroke-width:15;stroke-linecap:round;stroke-linejoin:round;stroke-miterlimit:10;" x1="291.914" y1="165.328" x2="291.914" y2="294.556"/>
		</g>
		<path style="fill:none;stroke:#000000;stroke-width:15;stroke-linecap:round;stroke-linejoin:round;stroke-miterlimit:10;" d="&#10;&#9;&#9;&#9;M38.222,183.238v-26.922c0-16.743,13.573-30.316,30.316-30.316h87.368c16.743,0,30.316,13.573,30.316,30.316v153.368&#10;&#9;&#9;&#9;c0,3.804-0.701,7.445-1.98,10.8"/>
		<path style="fill:none;stroke:#000000;stroke-width:15;stroke-linecap:round;stroke-linejoin:round;stroke-miterlimit:10;" d="&#10;&#9;&#9;&#9;M39.751,319.216c-0.992-2.997-1.529-6.202-1.529-9.532v-92.007"/>
		<g>
			
				<line style="fill:none;stroke:#000000;stroke-width:15;stroke-linecap:round;stroke-linejoin:round;stroke-miterlimit:10;" x1="73.003" y1="165.328" x2="73.003" y2="294.556"/>
			
				<line style="fill:none;stroke:#000000;stroke-width:15;stroke-linecap:round;stroke-linejoin:round;stroke-miterlimit:10;" x1="112.222" y1="165.328" x2="112.222" y2="294.556"/>
			
				<line style="fill:none;stroke:#000000;stroke-width:15;stroke-linecap:round;stroke-linejoin:round;stroke-miterlimit:10;" x1="151.441" y1="165.328" x2="151.441" y2="294.556"/>
		</g>
		<path style="fill:none;stroke:#000000;stroke-width:15;stroke-linecap:round;stroke-linejoin:round;stroke-miterlimit:10;" d="&#10;&#9;&#9;&#9;M436.601,356H75.399c-16.002,0-31.618-4.783-44.738-13.703L8.821,327.45c-2.467-1.677-1.248-5.45,1.76-5.45h490.838&#10;&#9;&#9;&#9;c3.009,0,4.227,3.773,1.76,5.45l-21.84,14.847C468.219,351.217,452.603,356,436.601,356z"/>
		<path style="fill:none;stroke:#000000;stroke-width:15;stroke-linecap:round;stroke-linejoin:round;stroke-miterlimit:10;" d="&#10;&#9;&#9;&#9;M341,386H120.476c-8.43,0-16.35-4.043-21.294-10.872L85.333,356h341.333l-13.849,19.128C407.874,381.957,399.955,386,391.524,386&#10;&#9;&#9;&#9;h-14.857"/>
	</g>
</g>















</svg>
