<svg id="Layer_1" enable-background="new 0 0 55 55" height="512" viewBox="0 0 55 55" width="512" xmlns="http://www.w3.org/2000/svg"><g id="_x38_0"><g><g><g><path d="m16.6835041 13.0341949s-5.5891514 1.6986637-7.9316635.2602797-3.6987038-1.6438684-3.6987038-1.6438684l-.986321 4.1096706s4.2740569-.5753536 5.2603784.5753536 11.2194004-2.0137386 11.2194004-2.0137386z" fill="#ad683f"/></g><g><path d="m5.4227285 13.9434624c-.3006177 1.127223-.9389763 1.9333658-1.4231272 1.8042488-.4940412-.1317558-.6461968-1.1487207-.3455789-2.2759438s.9415934-1.9431772 1.4356344-1.8114214c.4841509.129117.6336899 1.1558934.3330717 2.2831164z" fill="#884a21"/></g></g><g><g><path d="m51.1927834 36.9969902c.9932785-4.2582245-.410099-8.2874432-4.3834305-12.0713272-10.839283-9.4103222-20.4017639-12.1131496-22.1325073-12.962328 0 0-13.6443682 10.2997875-13.6443682 10.4518147s.8361454 8.7035103.8361454 8.7035103l2.2423887 2.2423897 2.8242455.9126053c3.7099571 3.2556305 8.6317329 6.0828972 13.9789505 8.7811432 1.2286491.6199875 2.5127106 1.1504364 3.8302231 1.5480843 6.0058708 1.8126755 10.7854004 1.1731148 13.8385658-2.9183884 1.2856254-1.232319 2.212902-2.749241 2.609787-4.6875039z" fill="#ad683f"/></g><g><path d="m28.7273598 13.6722956c-.6980324-.6645956-1.3992729-1.3258495-2.1005077-1.9870968-.4908047-.4628162-.9949627-.9345999-1.6135941-1.2036419-1.030304-.4480782-2.2389889-.2760839-3.291605-.6688938-.2716351-.101367-.530365-.2396231-.8111076-.3120403-.9860916-.254364-1.9819412.3394346-2.9975319.4146404-1.5801563.1170139-.6768188-.3266764-3.6424799 1.1512871-2.0877399 1.0404434-1.7180738 1.3415699-2.430624 1.9006653-.6416006.5034256-1.335598.3277159-2.7729387 3.2043219-1.0450611 2.0915222-1.6019793 3.0913963-1.8483386 4.1158161-.4733515 1.9683056.2793183 3.0266399.2300305 3.5873756-.0222421.2530499-.1602926.4874134-.1668205.741354-.012249.4765244.4241867.8383179.5731883 1.2911129.0989075.3005676.0659947.6262455.0921159.9415874.0666504.8046284.5586758 1.5565491 1.2545586 1.9607029.1707058.0991421.2197847.3051548.1861486.4996758-.1333265.7710419.6387701 1.2564354 1.0775986 1.6669388.6882153.643795.6260662.9153442 2.6777058 2.1699181.1555481.0951157.3110962.1902351.4666443.2853508.166152.1016045.3335047.2038002.5155487.2730064.171237.0650978.3522511.0997734.5321903.1341476.7592382.1450462 1.5184784.290081 2.2777157.4351311-8.6360275-4.9432355 3.1560763-25.544592 11.7921027-20.6013594z" fill="#884a21"/></g><g><g><g><path d="m25.8537903 14.5857563c11.1923103 3.3667088 21.8594666 9.6999092 24.2406769 21.0877972-3.1241341-11.2622948-13.3211518-17.0298176-24.2406769-21.0877972z" fill="#bf7d5a"/></g><g><path d="m49.5528641 36.5357552c-4.641964-11.1769333-14.9621086-18.6636658-25.6083012-20.7674885 11.0667095 1.4586601 21.7769947 9.5681934 25.6083012 20.7674885z" fill="#bf7d5a"/></g><g><path d="m22.4664497 16.3595219c11.5246773 2.693779 20.520668 9.4734058 26.3104057 20.8783131-6.2753715-10.6119061-14.0715331-17.1860734-26.3104057-20.8783131z" fill="#bf7d5a"/></g><g><path d="m20.9513836 17.2094727c11.0154991 3.6360626 20.2028713 10.6886482 27.119936 20.9152832-7.4437905-9.6551018-15.7694931-16.3778515-27.119936-20.9152832z" fill="#bf7d5a"/></g><g><path d="m20.2492809 18.2810822c10.6187382 4.7251053 19.5167751 12.1653824 27.1233692 21.1370125-8.4761619-8.8180218-16.3608837-15.527279-27.1233692-21.1370125z" fill="#bf7d5a"/></g></g><g><g><path d="m41.1412811 43.9068069c-10.4911385-1.7074661-21.1465034-6.0570679-25.4002457-15.7962685 4.9257718 9.4261094 14.9614163 13.3503114 25.4002457 15.7962685z" fill="#bf7d5a"/></g><g><path d="m15.8494444 25.9170666c5.7825022 10.0083523 16.48629 15.9185963 26.9650993 16.6272945-10.720973-.0083351-21.9412756-6.4154053-26.9650993-16.6272945z" fill="#bf7d5a"/></g><g><path d="m44.1500015 41.798481c-11.3056717-1.1289673-20.7415123-6.4931679-27.6477985-16.6462231 7.6605663 9.8248921 16.1665821 14.7275753 27.6477985 16.6462231z" fill="#bf7d5a"/></g><g><path d="m45.4887352 40.8016243c-11.3946037-2.176403-20.9360085-8.0831795-28.4237347-16.5815659 8.1997929 8.1754189 16.8930035 13.6038475 28.4237347 16.5815659z" fill="#bf7d5a"/></g><g><path d="m46.0254555 39.6937904c-10.8104095-3.209259-20.222168-9.2758446-28.4543781-16.7923832 9.1103801 7.2930279 17.4841365 12.7520276 28.4543781 16.7923832z" fill="#bf7d5a"/></g></g><g><path d="m18.4940224 21.5144634c8.2522984 6.5348988 16.4530411 12.3883457 26.2180214 16.6102924-9.6322632-3.3944396-18.6968708-9.7654819-26.2180214-16.6102924z" fill="#bf7d5a"/></g><g><path d="m19.8058472 20.2949848c8.3629532 3.8908615 16.847168 9.5479069 23.4121056 16.1401119-7.5444375-6.508131-14.9594212-11.4076213-23.4121056-16.1401119z" fill="#bf7d5a"/></g></g></g><g><path d="m49.1692314 41.192318c.1229591.4202614-.1671333.913929-.5941124 1.0110321-.3560677.0809784-.7251358-.0849724-1.0888329-.0523338-.1695557.0152168-.6658249.1645203-.7814407.0537262-.0875702-.0839195-.0776634-.7889442.3065987-1.335762.1477814-.2102966.3362007-.3881836.5232353-.5644875.4019966-.3789368 1.2195663-1.2759438 1.4313278-.822731.0644188.1378708-.0510864.4124069-.0730629.5561333-.1048927.6859817.1577034.7491034.2762871 1.1544227z" fill="#bf7d5a"/></g></g><g><g><path d="m19.8492603 12.3840923c.0618114-.1159763.1820793-.1871891.2990017-.2471905.6381779-.3274908 1.3572311-.4959049 2.074461-.4858723.3549213.0049639.4325314.1143484.4907913.3710136.1663361.7327986.1103725 1.1192274-.5109558 1.3878241-1.622942.7015849-2.6120567-.5402726-2.3532982-1.0257749z" fill="#7f401d"/></g><g><path d="m23.9453316 11.5055208c-.0016327-.0370159-.0022316-.0759602.0149746-.1087742.0158176-.0301638.0446568-.0511122.073616-.0690403.249361-.1543789.5599594-.1588058.853241-.1585617.2468853.000206.5295506.0168362.6824188.2107019.0635509.0805931.0945015.1815395.1215057.2805595.0450211.1650963.0827694.3321753.113102.5005913.0213108.1183233.0373783.2473297-.0201931.3528748-.1516209.2779646-.9267082.2945967-1.1900177.17272-.0954304-.0441723-.1749363-.1158781-.2528458-.1865101-.3174496-.2877989-.3770599-.5698433-.3958015-.9945612z" fill="#7f401d"/></g><g><path d="m21.4939785 10.5109549c.210968-.0160809.4432755-.0257711.6112652.1028566.065731.0503283.2014217.1974783.2148552.2795029.0147762.0902252-.0522327.1778164-.1347542.2171736-.1113605.0531111-.1124725.0405083-1.2687321.0586128-.2295609.0035944-.3477001-.2624817-.2157993-.4535952.1417732-.2054176.5761528-.1880083.7931652-.2045507z" fill="#7f401d"/></g><g><path d="m19.1193237 11.5429401c.1778603-.0954857.3598232-.223958.414299-.4183388.0643749-.2296944-.0822964-.4790859-.2887115-.5986528-.6552582-.3795624-2.2985954.1996126-2.5510349.622613-.0973282.1630859-.0134411.3854656.134798.5041895.6431179.515068 1.6414948.238697 2.2906494-.1098109z" fill="#7f401d"/></g><g><path d="m18.859705 12.9718904c.0749321-.0004301.1521816.0038586.2199955.0357351.1152363.0541668.3333302.3257904.3993168.4333258.2195072.3577204.3277702 1.264452.0759315 1.6355782-.3389626.4995193-1.4704742.4643879-1.9519672.309411-.6418152-.2065802-1.0232086-.8451385-.5336647-1.3870268.4981746-.5514421.9940509-1.0224523 1.7903881-1.0270233z" fill="#7f401d"/></g><g><path d="m15.0057983 13.3329315c.690279-.0527344 1.0137291-.1089811 1.2663612.0174255.1924419.0962896.3254662.3458643.2197266.5332794-.1036911.1837816-1.0058632.7978363-1.3132086.9560013-.2984858.1536064-1.3711061.6089048-1.5654325.1300745-.0864687-.2130642.0739079-.5231571.1471329-.7168884.2640276-.6985388.4645204-.8602342 1.2454204-.9198923z" fill="#7f401d"/></g><g><path d="m12.5385008 14.627655c-.1832027.3480101-.455699.8372068-.8735666.7803545-.2802753-.0381327-.5173264-.3512192-.409874-.8247252.196682-.8667078 1.3206568-1.3373737 1.6213827-1.0028973.2386417.2654248-.2102775.8047572-.3379421 1.047268z" fill="#7f401d"/></g><g><path d="m14.2970219 18.686821c.2760029.268425 1.0637817.2903709 1.4574947.1441708.5687065-.2111816.9136562-.8461647.8876667-1.4522591-.0180302-.4205074-.3429966-1.478301-.893466-1.4577246-.5277681.0197268-1.0880365.6550055-1.3283148 1.0689211-.2674846.4607849-.5030212 1.3276749-.1233806 1.6968918z" fill="#7f401d"/></g><g><path d="m15.3567295 11.6661959c.4130211-.0837107.5194273.1928883.3611927.3947315-.0660563.0842609-.1628056.137723-.2568331.1889267-.4721136.2570944-1.2330761.6906939-1.1179762.1541386.0960074-.4475556.6180573-.6576252 1.0136166-.7377968z" fill="#7f401d"/></g><g><path d="m11.1411572 17.6832142c-.0996599.5810986.3093357 1.2534199.6505365 1.4107838 1.0293894.4747562 2.0735331-1.7748051 1.1652308-2.5899067-.4215584-.3783035-.9995594.0716324-1.3263159.3706741-.2365599.2164955-.4341746.4861412-.4894514.8084488z" fill="#7f401d"/></g><g><path d="m10.1785545 17.7190208c-1.0984488.3047256-1.1462164-1.6986961.5963306-1.9295816.6375218-.0844707.7353745 1.5601492-.5963306 1.9295816z" fill="#7f401d"/></g><g><path d="m13.257288 21.6000118c-.0132608.167345-.0089931.3660145.1282978.4626141.157732.1109848.7568874.0935383 1.0131598.0306473.6163158-.1512508.8266716-.5705757.8204918-1.2032967-.0056486-.5783672-.1291685-1.3987141-.8182335-1.4891853-.5605879-.0736008-.8183699.6306858-.9501781 1.0649586-.1116668.3679141-.1632396.7519264-.1935378 1.134262z" fill="#7f401d"/></g><g><path d="m10.427824 20.8702831c-.4364529 1.015728-.0344973 1.5294952.51719 1.5302219 1.0926523.00144 1.4132881-1.4069824 1.2280998-2.0771751-.1192579-.4315948-.5880489-.6187782-1.0102863-.5087185-.4017258.1047154-.5915642.7218571-.7350035 1.0556717z" fill="#7f401d"/></g><g><path d="m9.6873589 20.1199799c-.0817213.1584587-.1994095.294899-.3034639.4396763-.1079178.1501541-.2050381.3137856-.3530512.4246216-.1480131.1108379-.3672667.1541424-.5151043.0430717-.2281008-.1713734-.5195398-1.1449928-.3345737-1.5801315.1753159-.4124393.84126-.7687683 1.2820129-.6203499.5094661.1715564.4183339.9166412.2241802 1.2931118z" fill="#7f401d"/></g><g><path d="m9.0246229 23.3948078c.0187178.3944016-.1521158.842392-.3885956.9992867-.2397051.1590366-.586318.0411034-.7604151-.1878967s-.2126236-.5325184-.2143393-.8201771c-.0016809-.2818699.0901003-1.5749493.5754461-1.4708233.2185965.0468979.4330244.4880104.5309048.664772.1390267.2510624.2432738.5256367.2569991.8148384z" fill="#7f401d"/></g><g><path d="m9.979393 23.1334209c-.7410927.7583122-.6422653 2.1159954-.0874519 2.6150684.2449627.2203503.5903797.2462158.7573776.1577339.362422-.1920242.6294928-1.4003315-.0509501-2.2439556-.1071568-.1328545-.2354965-.2528267-.3222256-.4010868-.0830774-.1420192-.1199607-.3086566-.29675-.1277599z" fill="#7f401d"/></g><g><path d="m12.9886637 23.0309696c.0923853.0036182.1952887.0119057.2573795.0804081.0914726.1009216.0607052.2323017.0619326 1.4245739.0003386.3289948-.0383692.4623699-.3440065.6573601-.1668587.1064529-.3489437.1997776-.5459623.2186813-.1970196.0189018-.4121103-.0497665-.5248299-.2124577-.0483208-.0697403-.0752811-.1516895-.1013117-.2324429-.1885042-.5847702-.1507444-.9630146.1143255-1.5047321.2207412-.4511241.6029281-.4501704 1.0824728-.4313907z" fill="#7f401d"/></g><g><path d="m11.8139782 28.3834591c.0725136.0887852.177948.1440487.2843323.1867485.4214525.1691608.7410631.0194607.936511-.3414879.1176643-.2172985.1582947-.466692.197154-.7107277.090024-.5653324-.5751553-1.2402763-1.1456385-.9027672-.4334983.256466-.5807666 1.3906212-.2723588 1.7682343z" fill="#7f401d"/></g><g><path d="m13.7940874 30.4415321c.0200853.0564671.0367384.114933.0387011.1748333.0069332.2116966-.1783161.3932705-.383728.4449387s-.4226046.0007477-.6219244-.0709133c-.1661644-.059742-.3357372-.1410866-.4332771-.2882957-.2419462-.365181-.3013153-.9866982.2574854-1.0013809.4678248-.0122949.9862851.3009814 1.142743.7408179z" fill="#7f401d"/></g><g><path d="m11.4562407 30.8321381c-.3122597.0785427-.8860693-.1039505-1.0552015-.359211-.2419462-.3651791-.3013153-.9866962.2574854-1.0013809.9489822-.0249367 1.6495322 1.1463318.7977161 1.3605919z" fill="#7f401d"/></g><g><path d="m10.0080824 26.6140404c.3260221.2908916.6145697.6818581.5966702 1.1184216-.0105991.2585239-.127182.3276711-.3031454.3536358-.202733.0299149-.4158201.0444126-.6071396-.0290184-.6218557-.2386761-.7615547-1.43223-.4834757-1.7333679.2440633-.2643033.6049318.1188754.7970905.2903289z" fill="#7f401d"/></g></g></g></svg>