<svg id="Twotone" height="512" viewBox="0 0 64 64" width="512" xmlns="http://www.w3.org/2000/svg"><path d="m28 33-3.33 7.77-2.67 6.23s1.1 1.64 1.41 3.92c.43 3.04-.54 7.22-7.41 10.08l-6-2s-8-10 6-15l7.42-13.86z" fill="#ccdbb2"/><path d="m24.67 40.77-2.67 6.23s1.1 1.64 1.41 3.92c.43 3.04-.54 7.22-7.41 10.08l-1.73-.58c5.72-2.82 6.54-6.66 6.14-9.5-.31-2.28-1.41-3.92-1.41-3.92l5.098-11.896c.519-1.211.079-2.62-1.038-3.319l-.39-.245.75-1.4 4.58 2.86z" fill="#a9dc66"/><path d="m30.04 35.9 3.36 4.23-9.99 10.79c-.31-2.28-1.41-3.92-1.41-3.92l2.67-6.23 5.36-4.88z" fill="#ccdbb2"/><path d="m62.97 16.69s.54 4.44-2.35 6.59l-26 15.67-.03-.03 8.94-9.15h.01z" fill="#24725f"/><path d="m54.49 13.67s1.21 2.56-1.07 5.99l-9.88 10.11h-.01l-8.94 9.15-1.19 1.21-3.36-4.23-.01-.01z" fill="#80a53f"/><path d="m46.16 10.24-17.4 21.24-.05-.02 5.36-11.62.01-.01 13.92-18.83s2 4 0 7z" fill="#a9dc66"/><path d="m46.16 10.24c.89 1.24 1.68 3.31-.16 5.76l-17.75 16.5-.02-.01.48-1.03.05.02z" fill="#24725f"/><path d="m39 1s2 2 1 6l-5.92 12.83-.01.01-5.36 11.62-.48 1.03-.23.51-4.58-2.86z" fill="#80a53f"/><g><g fill="#1b5647"><path d="m15.72 47.187c-.45-.322-1.075-.217-1.396.231-2.969 4.15-3.593 8.266-3.619 8.438-.079.546.299 1.052.845 1.132.049.008.098.011.146.011.488 0 .915-.357.988-.854.006-.038.593-3.827 3.267-7.563.322-.449.218-1.074-.231-1.395z"/><path d="m19.003 49.002h-.003c-.55 0-.997.445-1 .995 0 .036-.053 3.642-2.707 6.296-.391.391-.391 1.023 0 1.414.195.195.451.293.707.293s.512-.098.707-.293c3.255-3.256 3.293-7.526 3.293-7.707 0-.551-.446-.997-.997-.998z"/><path d="m63.958 16.566c-.042-.346-.261-.645-.577-.788-.317-.146-.686-.114-.974.079l-11.317 7.615 3.045-3.113c.044-.045.083-.094.118-.146 2.563-3.855 1.201-6.846 1.142-6.971-.136-.287-.399-.492-.709-.554-.31-.064-.632.027-.867.24l-26.418 24.009 1.508-3.518.134-.29 17.639-16.396c.043-.04.083-.085.119-.132 1.945-2.59 1.38-4.857.589-6.284l1.443-1.761c2.295-3.443.155-7.817.062-8.002-.156-.311-.461-.519-.808-.549-.342-.033-.684.123-.891.401l-8.118 10.979 1.83-3.965c.026-.057.047-.116.062-.177 1.125-4.497-1.165-6.852-1.263-6.949-.224-.225-.542-.327-.854-.282-.313.047-.586.238-.735.518l-22.82 42.663c-4.595 1.715-7.376 4.178-8.269 7.324-1.32 4.649 2.046 8.929 2.19 9.109.005.006.011.009.016.015l-2.025 2.603c-.339.437-.26 1.064.176 1.403.183.143.399.211.614.211.298 0 .593-.133.79-.386l2.36-3.036.626.209-.553 1.938c-.152.531.156 1.085.687 1.236.092.025.184.038.275.038.436 0 .836-.286.961-.726l.529-1.854.516.172.214 1.544c.069.501.498.863.989.863.046 0 .092-.003.139-.01.547-.075.929-.58.854-1.127l-.108-.778c.035-.01.072-.007.106-.021 4.211-1.755 6.817-4.199 7.746-7.267.361-1.192.422-2.346.327-3.396l9.657-10.432 1.012-1.035.01.017 26.08-15.727c3.317-2.47 2.766-7.309 2.741-7.514zm-11.32 2.464-19.162 19.592-2.076-2.617 22.405-20.361c-.031.864-.291 2.039-1.167 3.386zm-7.387-3.7-8.258 7.676 8.969-10.949c.323 1.077.093 2.173-.711 3.273zm2.433-12.22c.299 1.226.438 2.907-.457 4.256l-14.412 17.587 2.13-4.616zm-8.663-.03c.262.821.408 2.013.03 3.588l-11.483 24.883-2.829-1.769zm-16.81 51.014c-.728 2.382-2.832 4.345-6.255 5.838l-5.339-1.78c-.596-.85-2.557-3.971-1.661-7.101.734-2.567 3.217-4.622 7.38-6.109.234-.083.428-.251.545-.47l6.912-12.922 2.95 1.844-5.663 13.213c-.132.309-.1.665.085.946.022.031 2.069 3.196 1.046 6.541zm.908-7.166 2.385-5.564 4.413-4.011 2.164 2.73-8.128 8.779c-.278-.844-.605-1.516-.834-1.934zm36.984-24.502-19.465 11.734 3.556-3.636 17.761-11.951c-.132 1.258-.566 2.891-1.852 3.853z"/></g></g></svg>