<svg height="512" viewBox="0 0 512 512" width="512" xmlns="http://www.w3.org/2000/svg"><g id="Layer_2"><g><path d="m273.345 12.868s31.33-5.03 49.373 13.013c0 0 18.266-14.325 53.064-4.547s33.229 51.308 33.229 51.308 27.554 9.722 17.438 71.957-35.219 79.494-35.219 79.494l-97.691-105.934z" fill="#02905d"/><path d="m112.324 221.695s-25.11-24.528-11.674-64.063c0 0 7.626-23.393-3.955-28.936s-24.887-41.176 3.955-70.018 52.627-10.72 52.627-10.72 7.466-34.925 55.566-31.066l46.938 69.299-74.398 129.35z" fill="#02905d"/><path d="m253.058 475.62s-77.37 19.418-124.541-82.735 21.361-77.674-1.37-116.35-18.26-81.559 5.342-95.431c0 0-26.834-57.762 54.482-105.554 0 0-1.689-66.572 51.112-70.301s54.885 42.485 54.885 42.485 46.139 23.836 42.822 74.038-82.732 353.848-82.732 353.848z" fill="#22b27f"/><path d="m152.154 392.885c-47.171-102.152 21.361-77.674-1.37-116.35s-18.26-81.559 5.342-95.431c0 0-26.834-57.762 54.482-105.554 0 0-1.547-61.311 45.008-69.544-5.114-.909-10.926-1.224-17.532-.758-52.802 3.729-51.112 70.301-51.112 70.301-81.316 47.792-54.482 105.554-54.482 105.554-23.602 13.872-28.073 56.755-5.342 95.431s-45.801 14.198 1.37 116.35c40.937 88.652 104.607 85.744 120.724 83.427-26.824-3.425-67.782-19.961-97.088-83.426z" fill="#02905d"/><path d="m193.967 315.064c-38.278-40.176-19.018-77.311-9.465-82.926 0 0-32.515-98.812 96.378-137.852 0 0 43.966-46.338 71.227-18.618 9.389 9.547-11.417 21.342 1.382 43.119s46.43 53.904 46.533 79.462-4.248 51.218-4.248 51.218-44.65 201.22-142.716 226.153c0 0-20.813-120.38-59.091-160.556z" fill="#22b27f"/><path d="m218.08 315.064c-38.278-40.176-19.018-77.311-9.465-82.926 0 0-32.515-98.812 96.378-137.852 0 0 17.721-18.672 37.638-25.217-26.886-11.528-61.751 25.217-61.751 25.217-128.893 39.04-96.378 137.852-96.378 137.852-9.554 5.615-28.813 42.75 9.465 82.926s59.091 160.556 59.091 160.556c7.801-1.983 15.263-5.086 22.392-9.111-5.702-28.789-25.469-117.962-57.37-151.445z" fill="#02905d"/><path d="m303.52 178.091c-4.683 165.786-61.451 247.823-61.451 247.823-.001 0-48.102-8.219-48.102-110.849-22.162-23.261-25.036-45.503-21.674-61.197s-37.954 80.892-28.474 166.691c3.194 28.911 36.299 83.444 81.077 83.444h19.242c44.73 0 74.441-36.717 81.074-80.934 18.947-126.313-21.692-244.978-21.692-244.978z" fill="#c1e9af"/><g fill="#97da7b"><path d="m265.377 425.913s40.128-58.005 55.689-175.013c-7.734-44.14-17.547-72.81-17.547-72.81-3.747 132.654-42.228 218.208-61.451 247.823 9.43 8.496 23.309 0 23.309 0z"/><path d="m167.128 420.557c-5.175-46.841 3.787-92.218 12.993-123.77-9.393-16.374-10.293-31.409-7.827-42.921s-37.954 80.892-28.474 166.691c3.194 28.911 36.299 83.444 81.077 83.444h19.242c.62 0 1.226-.033 1.84-.047-43.645-1.764-75.709-54.968-78.851-83.397z"/></g><path d="m413.981 69.625c-.386-9.527-2.45-16.231-2.689-16.976-.332-1.185-.698-2.389-1.114-3.609-5.732-16.812-17.159-28.057-33.043-32.52-28.239-7.935-46.498-.888-53.849 3.12-17.151-14.259-41.708-12.751-48.788-11.962-9.819-5.951-22.141-8.446-36.766-7.416-11.916.842-22.182 4.741-30.568 11.505-14.606-.856-34.035 1.392-47.757 15.758-1.62 1.697-3.009 3.414-4.207 5.091-.01.012-.022.021-.031.034-.078.104-.427.579-.944 1.392-1.605 2.432-2.813 4.737-3.687 6.703-3.069-1.357-7.25-2.732-12.276-3.219-9.788-.951-24.869 1.338-41.147 17.617-20.008 20.008-19.874 41.23-18.014 52.1 2.071 12.103 8.274 22.537 15.436 25.964 2.674 1.28 3.562 5.096 3.552 9.397-.397 4.232-.715 7.166-.776 7.721-.404 2.206-.914 4.207-1.396 5.698-12.432 36.579 5.703 61.104 11.357 67.574-.323 18.184 5.121 37.704 15.563 55.471 7.006 11.921 4.126 15.024-2.186 21.821-5.256 5.661-12.455 13.414-13.862 28.08-1.539 16.039 4.083 37.631 17.188 66.012 4.566 9.888 9.627 19.083 15.046 27.369 2.19 16.449 12.236 37.46 25.889 53.957 17.446 21.083 38.75 32.693 59.984 32.693h19.243c43.808 0 78.375-34.236 86.018-85.192.229-1.524.439-3.046.651-4.568 47.073-67.739 68.937-164.58 69.848-168.688.019-.082.035-.164.049-.247.135-.793 2.518-15.025 3.686-32.846 9.137-12.019 20.808-34.006 26.993-72.058 8.663-53.299-9.569-70.831-17.403-75.776zm-308.577 89.557c.085-.263 2.103-6.515 2.599-13.589.065-.926.095-1.808.104-2.661.805-8.637 1.876-22.128 1.876-32.759 0-2.761-2.239-5-5-5s-5 2.239-5 5c0 4.41-.2 9.408-.49 14.345-.213-.115-.427-.231-.638-.332-3.542-1.695-8.214-8.801-9.897-18.631-1.534-8.965-1.596-26.517 15.229-43.341 20.176-20.177 37.034-15.029 43.382-11.859-1.481 6.351-2.174 14.177-.693 23.104.406 2.447 2.525 4.183 4.927 4.183.271 0 .547-.022.824-.068 2.724-.452 4.566-3.026 4.114-5.751-3.264-19.676 6.041-32.644 6.448-33.2.078-.104.127-.219.196-.328 5.216-7.21 15.304-15.553 34.294-16.585-3.882 5.228-7.118 11.366-9.654 18.39-4.923 13.635-5.865 26.848-6.028 32.598-23.643 14.352-51.857 38.268-57.689 72.716-2.611 15.427.183 27.695 2.124 33.731-8.617 6.481-14.688 16.814-17.467 29.518-5.537-9.832-11.228-26.921-3.561-49.481zm11.339 170.743c1.084-11.296 6.245-16.855 11.236-22.23 7.009-7.549 14.257-15.354 3.479-33.693-10.281-17.492-15.262-36.716-14.027-54.129 1.134-15.994 7.546-28.553 17.591-34.457 2.208-1.297 3.071-4.07 2.009-6.401-.062-.135-6.113-13.719-2.767-32.496 4.453-24.985 23.555-48.034 55.24-66.657 1.567-.921 2.511-2.62 2.465-4.438-.004-.157-.332-15.888 5.46-31.927 3.49-9.666 8.365-17.258 14.584-22.746.051-.042.099-.085.148-.128 7.058-6.169 15.834-9.648 26.274-10.385 15.361-1.088 27.499 2.215 36.08 9.81 12.454 11.024 13.449 27.76 13.457 27.912.08 1.782 1.111 3.39 2.693 4.213.109.057 9.553 5.045 19.216 14.958-15.416 7.094-28.141 19.197-31.683 22.747-9.208 2.838-17.807 6.048-25.811 9.613 9.285-28.494-1.138-61.076-1.658-62.663-.859-2.623-3.681-4.051-6.303-3.195-2.624.857-4.056 3.679-3.201 6.304.131.402 12.738 39.975-2.813 66.486-23.381 12.897-40.44 29.502-50.912 49.647-16.901 32.511-11.269 63.98-8.705 74.222-4.507 4.325-9.035 12.172-11.252 21.933-.513 1.116-1.723 3.807-3.38 7.86-.21-16.361-2.199-34.664-8.816-46.54-1.343-2.413-4.389-3.277-6.801-1.934-2.412 1.344-3.278 4.389-1.934 6.801 11.647 20.903 6.596 68.335 5.757 75.449-8.087 27.241-16.1 65.095-14.978 105.786-1.488-2.882-2.938-5.831-4.336-8.858-12.341-26.728-17.677-46.637-16.312-60.864zm127.397 169.076h-19.243c-10.541 0-31.35-3.776-52.28-29.068-14.598-17.64-22.486-37.785-23.827-49.925-6.217-56.27 8.553-110.925 18.93-140.763 3.601 15.522 12.644 28.447 21.26 37.806.254 42.735 8.708 74.718 25.15 95.067 12.546 15.528 25.842 18.796 27.94 18.796 1.641 0 3.178-.805 4.112-2.155.595-.859 14.736-21.525 29.564-62.9 19.807-55.265 28.074-112.103 31.256-157.016 10.618 42.706 26.286 126.683 13.268 213.483-5.726 38.165-31.486 76.675-76.13 76.675zm-44.798-169.076c15.258 22.714 27.184 57.969 35.264 87.393-3.818-2.358-8.542-6.16-13.319-12.266-9.138-11.677-19.843-33.968-21.945-75.127zm133.993 66.907c1.002-11.442 1.572-22.734 1.778-33.764.877-4.654 16.472-85.559 43.84-112.927 1.953-1.953 1.953-5.119 0-7.071-1.951-1.952-5.119-1.952-7.07 0-17.263 17.263-29.807 52.265-37.515 79.781-1.46-26.898-4.638-51.052-7.969-70.484-.673-3.928-1.364-7.727-2.062-11.406 2.047-13.659 10.21-48.586 25.471-58.703 2.302-1.526 2.931-4.628 1.405-6.93-1.526-2.301-4.63-2.932-6.931-1.405-12.645 8.382-20.45 27.673-24.913 43.332-5.126-22.3-9.756-36.688-10.873-40.05-.062-2.842-.149-14.241 1.963-27.211 2.161-13.271 7.115-30.977 18.444-39.961 2.164-1.716 2.527-4.861.812-7.024-1.717-2.165-4.861-2.526-7.024-.811-25.627 20.324-24.321 71.817-24.175 75.906-.511 17.965-1.653 34.904-3.257 50.813-6.644-16.73-19.22-38.766-42.432-54.93-2.265-1.578-5.382-1.021-6.96 1.246s-1.021 5.382 1.246 6.96c35.93 25.021 44.241 66.837 45.125 71.885-3.174 22.723-7.234 42.972-11.598 60.637-.728-3.172-1.581-6.572-2.582-10.127-6.687-23.749-16.289-42.004-28.542-54.257-1.953-1.952-5.118-1.952-7.071 0-1.953 1.953-1.953 5.119 0 7.071 13.697 13.697 21.667 34.599 25.939 49.722 4.685 16.579 6.071 30.045 6.1 30.327-2.694 9.119-5.397 17.322-7.984 24.568-.051.143-.102.281-.153.424-2.021-12.04-6.613-26.264-16.83-36.481-1.952-1.951-5.117-1.952-7.071 0-1.953 1.953-1.953 5.119 0 7.071 16.095 16.096 15.554 46.147 15.329 51.359-5.421 12.752-10.342 22.376-13.926 28.833-9.946-35.868-25.524-79.845-46.26-101.609-20.514-21.532-22.742-40.895-20.998-53.346 1.79-12.784 7.923-20.337 10.447-21.82 2.029-1.192 2.951-3.638 2.216-5.874-.113-.344-11.113-34.817 7.122-69.893 9.693-18.645 25.751-34.058 47.922-46.077.049-.025.097-.051.145-.078 8.45-4.57 17.789-8.647 28-12.223-.29 1.257-.467 2.533-.467 3.812 0 2.761 2.238 5 5 5s5-2.239 5-5c0-3.984 4.299-9.875 7.072-12.734 2.663-2.41 6.354-5.542 10.721-8.682 11.592-8.339 22.432-12.789 31.348-12.869 6.782-.052 12.51 2.341 17.43 7.344 1.621 1.649 1.496 3.045-.838 9.337-2.34 6.308-5.693 15.368-1.445 26.724.016.049.038.097.056.146.727 1.916 4.58 8.741 5.529 10.184 2.642 4.955 5.997 11.479 9.33 18.595 9.259 19.769 14.153 35.017 14.153 44.096 0 2.761 2.238 5 5 5s5-2.239 5-5c0-6.831-2.138-15.504-5.269-24.551 8.347 12.074 14.923 24.192 14.965 34.564.022 5.424-.165 10.869-.468 16.073-.246.778-.289 1.592-.148 2.382-1.099 16.669-3.302 30.333-3.541 31.783-.841 3.686-19.562 84.734-57.536 148.323zm88.178-253.036c-2.141 13.174-6.876 35.113-16.508 53.833-.413-19.145-16.756-40.348-31.202-59.078-4.929-6.391-9.626-12.493-13.273-17.976-2.428-4.541-4.248-7.744-4.932-8.937-2.891-7.793-.683-13.808 1.483-19.648 2.207-5.951 4.955-13.357-1.408-19.827-6.744-6.858-14.921-10.333-24.308-10.333-.113 0-.228 0-.342.001-3.67.033-7.346.607-10.958 1.568-8.875-9.999-18.117-16.173-22.389-18.737-.731-5.345-3.285-17.197-11.949-27.405 9.86.295 23.9 2.603 33.456 12.16 1.787 1.789 4.631 1.959 6.62.399.163-.128 16.642-12.656 48.627-3.668 12.662 3.558 21.473 12.252 26.188 25.843 3.685 10.622 3.406 20.808 3.417 20.979-.031 6.443-1.033 14.031-4.258 21.595-1.083 2.54.099 5.477 2.639 6.56.64.273 1.305.402 1.959.402 1.942 0 3.791-1.14 4.602-3.041 2.345-5.499 3.699-10.974 4.41-16.131 6.225 7.311 14.164 24.296 8.126 61.441z"/></g></g></svg>