<svg height="512" viewBox="0 0 64 64" width="512" xmlns="http://www.w3.org/2000/svg"><path d="m27 3h10v5h-10z" fill="#c8ecff"/><path d="m44 16-.106-.739a10.233 10.233 0 0 0 -6.894-8.261h-10a10.233 10.233 0 0 0 -6.894 8.261l-.106.739v12a6.666 6.666 0 0 1 0 8v21a4 4 0 0 0 8 0 4 4 0 0 0 8 0 4 4 0 0 0 8 0v-21a6.666 6.666 0 0 1 0-8z" fill="#22b573"/><path d="m20 16h24v12h-24z" fill="#c8ecff"/><path d="m20 20h24v4h-24z" fill="#fbb03b"/><circle cx="32" cy="22" fill="#75c1e7" r="6"/><g fill="#bcedd4"><circle cx="26" cy="46" r="2"/><circle cx="38" cy="51" r="2"/><circle cx="36" cy="38" r="2"/><circle cx="30" cy="13" r="2"/></g><path d="m45 24v-8c0-.026-.013-.048-.015-.073a.521.521 0 0 0 .005-.069l-.105-.739a11.147 11.147 0 0 0 -6.885-8.786v-3.333a1 1 0 0 0 -1-1h-10a1 1 0 0 0 -1 1v3.333a11.147 11.147 0 0 0 -6.885 8.786l-.1.739a.521.521 0 0 0 0 .069c0 .025-.015.047-.015.073v12c0 .014.006.026.006.04a1.064 1.064 0 0 0 .033.2c.008.031.011.062.022.092a1.009 1.009 0 0 0 .139.266 5.7 5.7 0 0 1 0 6.8 1.009 1.009 0 0 0 -.139.266c-.011.03-.014.061-.022.092a1.064 1.064 0 0 0 -.033.2c0 .014-.006.026-.006.04v21.004a5 5 0 0 0 9 3 5 5 0 0 0 8 0 5 5 0 0 0 9-3v-2a1 1 0 0 0 -2 0v2a3 3 0 0 1 -6 0 1 1 0 0 0 -2 0 3 3 0 0 1 -6 0 1 1 0 0 0 -2 0 3 3 0 0 1 -6 0v-20h12.184a2.966 2.966 0 0 0 -.184 1 3 3 0 0 0 6 0 2.966 2.966 0 0 0 -.184-1h4.184v10a1 1 0 0 0 2 0v-11c0-.014-.006-.026-.006-.04a1.064 1.064 0 0 0 -.033-.2c-.008-.031-.011-.062-.021-.091a1 1 0 0 0 -.14-.267 5.7 5.7 0 0 1 0-6.8 1 1 0 0 0 .14-.267c.01-.029.013-.06.021-.091a1.064 1.064 0 0 0 .033-.2c0-.014.006-.026.006-.04zm-8.111 3a7.016 7.016 0 0 0 1.426-2h4.685v2zm-7.889-14a1 1 0 1 1 1 1 1 1 0 0 1 -1-1zm14 6h-4.685a7.016 7.016 0 0 0 -1.426-2h6.111zm-4.08 2h4.08v2h-4.08a6.29 6.29 0 0 0 0-2zm-13.84 2h-4.08v-2h4.08a6.29 6.29 0 0 0 0 2zm.605-4h-4.685v-2h6.111a7.016 7.016 0 0 0 -1.426 2zm-4.685 6h4.685a7.016 7.016 0 0 0 1.426 2h-6.111zm6-3a5 5 0 1 1 5 5 5.006 5.006 0 0 1 -5-5zm1-18h8v2h-8zm-.834 4h9.668a9.178 9.178 0 0 1 6 7h-10.614a3 3 0 1 0 -4.44 0h-6.618a9.178 9.178 0 0 1 6.004-7zm9.834 30a1 1 0 1 1 -1-1 1 1 0 0 1 1 1zm-15.281-3a7.51 7.51 0 0 0 .268-.744c.008-.026.012-.052.02-.078a7.7 7.7 0 0 0 .2-.912c.014-.089.028-.177.039-.267a7.634 7.634 0 0 0 .072-.978v-.042a7.634 7.634 0 0 0 -.068-.979c-.011-.09-.025-.178-.039-.267a7.7 7.7 0 0 0 -.2-.912c-.008-.026-.012-.052-.02-.078a7.51 7.51 0 0 0 -.272-.743h20.562a7.51 7.51 0 0 0 -.268.744c-.008.026-.012.052-.02.078a7.7 7.7 0 0 0 -.2.912c-.014.089-.028.177-.039.267a7.634 7.634 0 0 0 -.072.978v.042a7.634 7.634 0 0 0 .068.979c.011.09.025.178.039.267a7.7 7.7 0 0 0 .2.912c.008.026.012.052.02.078a7.51 7.51 0 0 0 .268.744z"/><path d="m23 46a3 3 0 1 0 3-3 3 3 0 0 0 -3 3zm4 0a1 1 0 1 1 -1-1 1 1 0 0 1 1 1z"/><path d="m35 51a3 3 0 1 0 3-3 3 3 0 0 0 -3 3zm4 0a1 1 0 1 1 -1-1 1 1 0 0 1 1 1z"/><circle cx="44" cy="51" r="1"/></svg>