<svg height="512" viewBox="0 0 32 32" width="512" xmlns="http://www.w3.org/2000/svg"><g id="Layer_2" data-name="Layer 2"><rect fill="#2d2f35" height="28" rx="3" width="26" x="3" y="2"/><g fill="#ff5773"><path d="m13.987 8.681c-.317-.663-1.287-2.681-2.987-2.681s-2.67 2.018-2.99 2.687c-2.1 4.4-.487 13.367 1.226 16.083a2.172 2.172 0 0 0 1.764 1.23 2.172 2.172 0 0 0 1.764-1.23c1.713-2.716 3.329-11.68 1.226-16.083z"/><path d="m23.99 8.687v-.006c-.32-.663-1.29-2.681-2.99-2.681s-2.67 2.018-2.99 2.687c-2.1 4.4-.487 13.367 1.226 16.083a2.172 2.172 0 0 0 1.764 1.23 2.172 2.172 0 0 0 1.764-1.23c1.713-2.716 3.329-11.68 1.226-16.083z"/></g></g></svg>