<svg id="Capa_1" enable-background="new 0 0 512 512" height="512" viewBox="0 0 512 512" width="512" xmlns="http://www.w3.org/2000/svg"><g><path d="m186.182 85.333h93.091v124.121h-93.091z" fill="#f9d171"/><path d="m434.428 380.121c0 12.93-2.164 25.211-5.749 36.71-17.793 56.945-71.297 95.169-130.962 95.169h-161.006c-59.665 0-113.168-38.224-130.962-95.169-3.596-11.498-5.749-23.779-5.749-36.71 0-77.572 69.813-131.879 69.813-131.879h294.791c.001 0 69.824 54.307 69.824 131.879z" fill="#d97c41"/><path d="m192.296 512h-55.585c-59.665 0-113.168-38.224-130.962-95.169-3.596-11.498-5.749-23.779-5.749-36.71 0-77.572 69.813-131.879 69.813-131.879l124.131 15.516c-19.966 19.947-111.973 119.619-1.648 248.242z" fill="#af602d"/><path d="m395.637 217.096v15.753c0 17.072-13.837 30.909-30.909 30.909h-295.027c-17.072 0-30.909-13.837-30.909-30.909v-15.753c0-17.072 13.837-30.909 30.909-30.909h295.028c17.071 0 30.908 13.837 30.908 30.909z" fill="#af602d"/><path d="m212.14 186.187v77.572h-142.439c-17.072 0-30.909-13.837-30.909-30.909v-15.753c0-17.072 13.837-30.909 30.909-30.909h142.439z" fill="#a05423"/><path d="m256 186.125v108.666c0 17.134-13.888 31.023-31.022 31.023h-.011c-17.134 0-31.022-13.888-31.022-31.023v-38.791c0-12.858-10.416-23.275-23.274-23.275-2.617 0-5.141.433-7.49 1.236l-17.33 5.883-13.93 42.438h-34.949l-4.44-103.822 74.77-7.789h73.244c8.531-.001 15.454 6.923 15.454 15.454z" fill="#fce3a0"/><path d="m163.18 233.962c-3.421 1.154-6.481 3.081-8.974 5.574-4.204 4.214-6.811 10.035-6.811 16.464v7.758c0 17.144-13.888 31.033-31.022 31.033-8.572 0-16.33-3.472-21.945-9.087s-9.088-13.373-9.088-21.945v-77.634c0-8.531 6.924-15.455 15.455-15.455h66.506c-7.336 8.748-22.698 32.651-4.121 63.292z" fill="#f9d171"/><path d="m511.999 62.056c0 6.429-2.606 12.25-6.81 16.464-4.214 4.204-10.035 6.81-16.464 6.81h-193.934v-46.539h193.934c12.858 0 23.274 10.417 23.274 23.265z" fill="#d97c41"/><path d="m294.791 38.791h38.234v46.539h-38.234z" fill="#af602d"/><path d="m256 85.333-7.212-22.438 7.212-24.107c0-12.853 10.42-23.273 23.273-23.273 12.853 0 23.273 10.42 23.273 23.273v46.546c0 12.853-10.42 23.273-23.273 23.273-12.853-.001-23.273-10.42-23.273-23.274z" fill="#d97c41"/><path d="m162.909 85.333v-46.545c0-12.853 10.42-23.273 23.273-23.273 12.853 0 23.273 10.42 23.273 23.273l6.182 22.529-6.182 24.017c0 12.853-10.42 23.273-23.273 23.273-12.853-.001-23.273-10.42-23.273-23.274z" fill="#d97c41"/><path d="m209.454 101.533v-78.945c0-12.475 10.114-22.588 22.589-22.588h1.369c12.475 0 22.588 10.113 22.588 22.588v78.945c0 12.475-10.113 22.588-22.588 22.588h-1.369c-12.475 0-22.589-10.113-22.589-22.588z" fill="#af602d"/><g><g fill="#fff"><ellipse cx="136.46" cy="430.973" rx="29.796" ry="23.728"/><ellipse cx="297.964" cy="430.973" rx="29.796" ry="23.728"/></g><g><path d="m168.008 412.88c-4.268 0-7.727-3.46-7.727-7.727 0-3.559-2.896-6.455-6.456-6.455-3.559 0-6.454 2.896-6.454 6.455 0 4.268-3.459 7.727-7.727 7.727s-7.727-3.46-7.727-7.727c0-12.081 9.828-21.91 21.909-21.91s21.91 9.829 21.91 21.91c-.001 4.267-3.46 7.727-7.728 7.727z" fill="#495560"/></g><g><path d="m294.781 412.88c-4.268 0-7.727-3.46-7.727-7.727 0-3.559-2.896-6.455-6.456-6.455-3.559 0-6.454 2.896-6.454 6.455 0 4.268-3.459 7.727-7.727 7.727s-7.727-3.46-7.727-7.727c0-12.081 9.828-21.91 21.909-21.91s21.91 9.829 21.91 21.91c0 4.267-3.46 7.727-7.728 7.727z" fill="#495560"/></g><g><path d="m217.212 436.309c-7.999 0-15.605-3.464-20.869-9.504-2.804-3.218-2.468-8.099.75-10.902 3.217-2.803 8.099-2.469 10.902.749 2.327 2.671 5.687 4.203 9.217 4.203 3.531 0 6.891-1.532 9.218-4.203 2.802-3.218 7.685-3.552 10.902-.749 3.218 2.804 3.554 7.685.75 10.902-5.264 6.04-12.87 9.504-20.87 9.504z" fill="#495560"/></g></g></g></svg>