<svg id="Capa_1" enable-background="new 0 0 512 512" height="512" viewBox="0 0 512 512" width="512" xmlns="http://www.w3.org/2000/svg"><g><g><path d="m392.856 134.942h-273.712c-35.713 0-64.664 28.951-64.664 64.664v240.231c0 35.713 28.951 64.664 64.664 64.664h273.712c35.713 0 64.664-28.951 64.664-64.664v-240.232c0-35.712-28.951-64.663-64.664-64.663z" fill="#dff6fd"/><path d="m220.23 504.497h-101.09c-35.71 0-64.66-28.95-64.66-64.66v-240.23c0-35.72 28.95-64.67 64.66-64.67h101.09c-35.71 0-64.66 28.95-64.66 64.67v240.23c0 35.709 28.95 64.66 64.66 64.66z" fill="#c8effe"/><path d="m427.515 250.67v189.17c0 19.11-15.55 34.66-34.66 34.66h-273.71c-19.12 0-34.66-15.55-34.66-34.66v-189.17z" fill="#fee45a"/><path d="m165.645 474.5h-46.5c-19.12 0-34.66-15.55-34.66-34.66v-189.17h71.09v189.17c0 12.76 3.69 24.65 10.07 34.66z" fill="#ffd15b"/><path d="m399.538 7.5h-287.076c-14.166 0-25.65 11.484-25.65 25.65v76.142c0 14.166 11.484 25.65 25.65 25.65h287.076c14.166 0 25.65-11.484 25.65-25.65v-76.142c0-14.166-11.484-25.65-25.65-25.65z" fill="#fdb97e"/><path d="m209.562 134.942h-97.1c-14.17 0-25.65-11.48-25.65-25.65v-76.14c0-14.17 11.48-25.65 25.65-25.65h97.1c-14.17 0-25.65 11.48-25.65 25.65v76.14c0 14.17 11.48 25.65 25.65 25.65z" fill="#fea95c"/><circle cx="256" cy="319.721" fill="#f3eae6" r="111.139"/><g><path d="m301.545 274.176c-20.988-20.988-52.85-24.448-77.442-10.411l-2.393-2.393c-6.643-6.643-17.414-6.643-24.057 0s-6.643 17.414 0 24.057l2.393 2.393c-14.037 24.592-10.577 56.454 10.411 77.442s52.85 24.448 77.442 10.411l2.393 2.393c6.643 6.643 17.414 6.643 24.057 0s6.643-17.414 0-24.057l-2.393-2.393c14.037-24.591 10.577-56.454-10.411-77.442z" fill="#fee45a"/><path d="m265.833 383.367c-19.585 3.014-40.297-3.014-55.376-18.101-20.991-20.991-24.449-52.851-10.41-77.44l-2.393-2.393c-6.642-6.642-6.642-17.418 0-24.06s17.41-6.642 24.052 0l2.393 2.393c11.459-6.541 24.487-9.284 37.267-8.219-18.319 14.559-30.058 37.042-30.058 62.26 0 27.213 13.673 51.226 34.525 65.56z" fill="#ffd15b"/></g></g><g><path d="m422.024 133.622c6.554-6.06 10.667-14.723 10.667-24.332v-30.71c0-4.142-3.357-7.5-7.5-7.5s-7.5 3.358-7.5 7.5v30.71c0 10.008-8.143 18.15-18.15 18.15h-287.081c-10.008 0-18.15-8.142-18.15-18.15v-76.14c0-10.008 8.142-18.15 18.15-18.15h287.08c10.008 0 18.15 8.142 18.15 18.15v10.51c0 4.142 3.357 7.5 7.5 7.5s7.5-3.358 7.5-7.5v-10.51c.001-18.279-14.87-33.15-33.15-33.15h-287.08c-18.279 0-33.15 14.871-33.15 33.15v76.14c0 9.609 4.113 18.272 10.667 24.332-25.299 11.227-42.997 36.57-42.997 65.984v240.231c0 39.791 32.373 72.164 72.164 72.164h273.713c39.791 0 72.163-32.373 72.163-72.164v-240.232c0-29.413-17.698-54.756-42.996-65.983zm27.996 306.214c0 31.52-25.644 57.164-57.163 57.164h-273.713c-31.52 0-57.164-25.644-57.164-57.164v-240.231c0-31.52 25.644-57.164 57.164-57.164h273.713c31.52 0 57.163 25.644 57.163 57.164z"/><path d="m427.515 243.17h-80.955c-21.78-25.725-54.292-42.088-90.559-42.088s-68.78 16.363-90.559 42.088h-80.957c-4.142 0-7.5 3.358-7.5 7.5v189.17c0 23.247 18.913 42.16 42.16 42.16h273.709c23.247 0 42.16-18.913 42.16-42.16v-189.17c.001-4.142-3.357-7.5-7.499-7.5zm-171.515-27.088c57.147 0 103.64 46.492 103.64 103.639s-46.492 103.639-103.64 103.639c-57.147 0-103.64-46.493-103.64-103.64s46.493-103.638 103.64-103.638zm164.015 223.758c0 14.976-12.184 27.16-27.16 27.16h-273.71c-14.976 0-27.16-12.184-27.16-27.16v-181.67h62.625c-10.941 17.956-17.249 39.03-17.249 61.551 0 65.418 53.222 118.64 118.64 118.64s118.64-53.222 118.64-118.64c0-22.521-6.308-43.595-17.249-61.551h62.624v181.67z"/><path d="m248.5 32.591v77.26c0 4.142 3.358 7.5 7.5 7.5 4.143 0 7.5-3.358 7.5-7.5v-77.26c0-4.142-3.357-7.5-7.5-7.5-4.142 0-7.5 3.358-7.5 7.5z"/><path d="m300.624 32.591v77.26c0 4.142 3.357 7.5 7.5 7.5s7.5-3.358 7.5-7.5v-77.26c0-4.142-3.357-7.5-7.5-7.5s-7.5 3.358-7.5 7.5z"/><path d="m346 32.591v77.26c0 4.142 3.357 7.5 7.5 7.5s7.5-3.358 7.5-7.5v-77.26c0-4.142-3.357-7.5-7.5-7.5s-7.5 3.358-7.5 7.5z"/><path d="m378.91 32.591v77.26c0 4.142 3.357 7.5 7.5 7.5s7.5-3.358 7.5-7.5v-77.26c0-4.142-3.357-7.5-7.5-7.5s-7.5 3.358-7.5 7.5z"/><path d="m196.376 32.591v77.26c0 4.142 3.358 7.5 7.5 7.5s7.5-3.358 7.5-7.5v-77.26c0-4.142-3.358-7.5-7.5-7.5s-7.5 3.358-7.5 7.5z"/><path d="m151 32.591v77.26c0 4.142 3.358 7.5 7.5 7.5s7.5-3.358 7.5-7.5v-77.26c0-4.142-3.358-7.5-7.5-7.5s-7.5 3.358-7.5 7.5z"/><path d="m118.09 32.591v77.26c0 4.142 3.358 7.5 7.5 7.5s7.5-3.358 7.5-7.5v-77.26c0-4.142-3.358-7.5-7.5-7.5s-7.5 3.358-7.5 7.5z"/><path d="m193.337 355.014c2.035 3.608 6.609 4.883 10.217 2.85 3.608-2.035 4.884-6.609 2.85-10.217-9.771-17.328-9.71-38.827.159-56.107 1.68-2.942 1.18-6.644-1.221-9.034l-2.389-2.378c-3.707-3.707-3.705-9.744-.004-13.45 3.714-3.709 9.75-3.711 13.447-.015l2.39 2.4c2.391 2.4 6.092 2.899 9.033 1.221 22.198-12.674 50.335-8.891 68.427 9.2 18.084 18.083 21.867 46.219 9.199 68.42-1.675 2.936-1.179 6.63 1.211 9.02l2.391 2.39c1.795 1.794 2.783 4.184 2.783 6.727s-.988 4.932-2.784 6.727c-1.794 1.795-4.184 2.783-6.726 2.783-2.543 0-4.932-.988-6.727-2.783l-2.39-2.39c-2.391-2.391-6.085-2.885-9.021-1.211-17.284 9.863-38.784 9.921-56.11.151-3.607-2.033-8.182-.758-10.217 2.85-2.034 3.608-.759 8.182 2.85 10.217 10.891 6.141 23.086 9.209 35.282 9.209 10.464 0 20.93-2.259 30.57-6.776 4.407 3.711 9.929 5.733 15.762 5.733 6.549 0 12.705-2.549 17.332-7.176 4.629-4.628 7.178-10.784 7.178-17.333 0-5.832-2.021-11.352-5.731-15.759 12.754-27.164 7.252-59.907-14.245-81.404-21.505-21.505-54.247-27.009-81.409-14.25-9.616-8.086-24.04-7.606-33.102 1.443-9.039 9.052-9.52 23.47-1.434 33.094-9.783 20.872-8.982 45.611 2.429 65.848z"/></g></g></svg>