<svg id="flat" height="512" viewBox="0 0 64 64" width="512" xmlns="http://www.w3.org/2000/svg"><path d="m50.98 54h-37.96a2 2 0 0 1 -1.9271-1.4647l-6.7408-24.2677a1 1 0 0 1 .9635-1.2676h53.3688a1 1 0 0 1 .9635 1.2676l-6.741 24.2677a2 2 0 0 1 -1.9269 1.4647z" fill="#f2f7ff"/><rect fill="#7e5421" height="4" rx="2" width="60" x="2" y="54"/><g fill="#e6ebf0"><path d="m33.946 26.9876c-3.5148 3.5148-4.1479 8.58-1.4142 11.3137s7.7989 2.1006 11.3137-1.4142c2.6355-2.6355 3.6507-6.143 2.8411-8.8854l11.6262-9.2208a4.4563 4.4563 0 1 0 -6.2606-6.2609l-9.2208 11.6265c-2.7424-.8096-6.2499.2056-8.8854 2.8411z"/><path d="m11 23a1 1 0 0 1 -1-1v-5.2915a4.7138 4.7138 0 0 1 4.708-4.7085h5.292a2 2 0 0 0 0-4h-4a1 1 0 0 1 0-2h4a4 4 0 0 1 0 8h-5.292a2.7112 2.7112 0 0 0 -2.708 2.7085v5.2915a1 1 0 0 1 -1 1z"/><path d="m34 16h-5a1 1 0 0 1 0-2h5a2 2 0 0 0 0-4h-5a1 1 0 0 1 0-2h5a4 4 0 0 1 0 8z"/></g><path d="m13.02 54h37.96a2 2 0 0 0 1.9271-1.4647l4.6249-16.6507c-8.0012 2.1626-18.2683 1.7613-25.4458-1.2863-7.3677-3.1283-18.0354-3.3562-26.2709-1.0631l5.2778 19a2 2 0 0 0 1.9269 1.4648z" fill="#ffdc50"/><circle cx="20" cy="42" fill="#e6ebf0" r="2"/><circle cx="34" cy="49" fill="#e6ebf0" r="1"/><circle cx="46" cy="44" fill="#e6ebf0" r="1"/></svg>