<svg height="512" viewBox="0 0 64 64" width="512" xmlns="http://www.w3.org/2000/svg"><g id="Artboard_28" data-name="Artboard 28"><rect fill="#3884f2" height="49" rx="2" width="32" x="19" y="13"/><path d="m19 60a2 2 0 0 0 2 2h28a2 2 0 0 0 2-2v-31h-32z" fill="#f9ecce"/><path d="m26.12 29h24.88a0 0 0 0 1 0 0v30a0 0 0 0 1 0 0h-9.848a18.152 18.152 0 0 1 -18.152-18.152v-8.728a3.12 3.12 0 0 1 3.12-3.12z" fill="#fff" opacity=".25"/><path d="m34.22 32.872c-.1.28-.188.585-.28.9a5.258 5.258 0 0 1 -.984 2.183 5.236 5.236 0 0 1 -2.181.983c-.316.093-.623.183-.9.281a7.015 7.015 0 0 0 -4.86 6.9 6.041 6.041 0 0 0 -1.8 1.8 7.27 7.27 0 0 0 -1.215 3.981c0 5.02 5.418 9.1 12.077 9.1.311 0 .618-.009.923-.025.3.016.612.025.923.025 6.659 0 12.077-4.08 12.077-9.1a7.27 7.27 0 0 0 -1.208-3.985 6.111 6.111 0 0 0 -1.948-1.9c3.78-4.684 4.259-10.589.962-13.886a7.14 7.14 0 0 0 -1.506-1.129h-6.97a7.424 7.424 0 0 0 -3.11 3.872z" fill="#f5dfae"/><path d="m26.075 44.632a5.984 5.984 0 0 1 4.125-6.469c1.08-.38 2.568-.608 3.459-1.5s1.12-2.379 1.5-3.459a5.955 5.955 0 0 1 6.706-4.083 6.422 6.422 0 0 1 3.23 1.721c3.145 3.145 2.3 9.119-1.86 13.5v3.134h-17.235z" fill="#efac26"/><path d="m35 57.973q-.456.027-.923.027c-6.118 0-11.077-3.625-11.077-8.1a6.317 6.317 0 0 1 1.049-3.443 5.856 5.856 0 0 1 7.5-1.824c1.018.491 2.211 1.367 3.451 1.367s2.433-.876 3.449-1.363a5.856 5.856 0 0 1 7.5 1.824 6.317 6.317 0 0 1 1.051 3.439c0 4.471-4.959 8.1-11.077 8.1q-.466 0-.923-.027z" fill="#efac26"/><path d="m35 54.826a12.687 12.687 0 0 0 11.588-7.073 6.769 6.769 0 0 0 -.637-1.292 5.856 5.856 0 0 0 -7.5-1.824c-1.018.487-2.211 1.363-3.451 1.363s-2.433-.876-3.449-1.363a5.856 5.856 0 0 0 -7.5 1.824 6.769 6.769 0 0 0 -.637 1.292 12.687 12.687 0 0 0 11.586 7.073z" fill="#ffc239"/><path d="m41.869 29.121a5.955 5.955 0 0 0 -6.706 4.079c-.38 1.08-.608 2.568-1.5 3.459s-2.379 1.12-3.459 1.5a6.543 6.543 0 0 0 -2.33 1.445 14.071 14.071 0 0 0 18.294.228c1.361-3.378 1.079-6.846-1.069-9a6.422 6.422 0 0 0 -3.23-1.711z" fill="#ffc239"/><path d="m24 13v-3a4 4 0 0 0 -4-4h-6a1 1 0 0 1 -1-1v-2a1 1 0 0 1 1-1h7a7 7 0 0 1 7 7v4z" fill="#eaebef"/><path d="m24 13h25a2 2 0 0 1 2 2v12a0 0 0 0 1 0 0h-17.571a9.429 9.429 0 0 1 -9.429-9.429v-4.571a0 0 0 0 1 0 0z" fill="#76a6f7"/><path d="m26.5 11.326a1.5 1.5 0 0 1 -1.5-1.5v-.826a4 4 0 0 0 -4-4h-3.761a1.5 1.5 0 0 1 0-3h3.761a7.008 7.008 0 0 1 7 7v.826a1.5 1.5 0 0 1 -1.5 1.5z" fill="#f2f3f5"/><path d="m27 18a1 1 0 0 1 1 1h2a3 3 0 1 0 -3 3 1 1 0 1 1 -1 1h-2a3 3 0 1 0 3-3 1 1 0 0 1 0-2z" fill="#fff"/><path d="m35 16a3 3 0 0 0 -3 3v4a3 3 0 0 0 6 0v-4a3 3 0 0 0 -3-3zm1 7a1 1 0 0 1 -2 0v-4a1 1 0 0 1 2 0z" fill="#fff"/><path d="m44 16v3a1 1 0 0 1 -2 0v-3h-2v3a3 3 0 0 0 2 2.816v3.184h2v-3.184a3 3 0 0 0 2-2.816v-3z" fill="#fff"/><path d="m37.865 44.941a6.366 6.366 0 0 1 -2.865 1.059 6.374 6.374 0 0 1 -2.866-1.059c-.334 2.072-.27 5.059 2.866 5.059s3.2-2.987 2.865-5.059z" fill="#ffe7b0"/><g fill="#fff"><ellipse cx="42.313" cy="46.655" rx="1.565" ry="2.671" transform="matrix(.322 -.947 .947 .322 -15.48 71.696)"/><ellipse cx="40.606" cy="49.243" rx=".691" ry="1.18" transform="matrix(.322 -.947 .947 .322 -19.088 71.835)"/><ellipse cx="41.454" cy="31.967" rx="1.565" ry="2.671" transform="matrix(.322 -.947 .947 .322 -2.156 60.924)"/><ellipse cx="39.748" cy="34.555" rx=".691" ry="1.18" transform="matrix(.322 -.947 .947 .322 -5.763 61.063)"/></g><path d="m34.963 33.842a6.477 6.477 0 0 1 -1.3 2.821 6.477 6.477 0 0 1 -2.821 1.3c1.25 1.729 3.443 3.831 5.7 1.576s.15-4.447-1.579-5.697z" fill="#ffe7b0"/><rect fill="#fff" height="9.802" rx="1.508" width="3.016" x="48.006" y="33.842"/><rect fill="#fff" height="4.718" rx="1.508" width="3.016" x="48.006" y="45.529"/></g><g id="BG"><path d="m49 12h-20v-3a8.009 8.009 0 0 0 -8-8h-7a2 2 0 0 0 -2 2v2a2 2 0 0 0 2 2h6a3 3 0 0 1 3 3v2h-2a3 3 0 0 0 -3 3v45a3 3 0 0 0 3 3h28a3 3 0 0 0 3-3v-45a3 3 0 0 0 -3-3zm-29-7h-6v-2h7a6.006 6.006 0 0 1 6 6v3h-2v-2a5.006 5.006 0 0 0 -5-5zm1 9h28a1 1 0 0 1 1 1v13h-30v-13a1 1 0 0 1 1-1zm10.053 31.515a5.512 5.512 0 0 0 .947 4.244 3.747 3.747 0 0 0 3 1.241 3.745 3.745 0 0 0 3-1.24 5.517 5.517 0 0 0 .943-4.245 4.848 4.848 0 0 1 6.167 1.485 5.3 5.3 0 0 1 .89 2.9c0 3.912-4.521 7.1-10.077 7.1q-.435 0-.862-.025h-.061-.061q-.427.025-.862.025c-5.556 0-10.077-3.184-10.077-7.1a5.3 5.3 0 0 1 .89-2.9 4.844 4.844 0 0 1 6.163-1.485zm5.932 1a3.082 3.082 0 0 1 -.5 1.951 1.83 1.83 0 0 1 -1.485.534 1.829 1.829 0 0 1 -1.482-.538 3.072 3.072 0 0 1 -.5-1.95 4.281 4.281 0 0 0 3.97 0zm1.033-2.777c-.265.127-.54.278-.826.435a5.139 5.139 0 0 1 -2.192.827 5.139 5.139 0 0 1 -2.192-.83c-.286-.157-.561-.308-.826-.435a7.317 7.317 0 0 0 -4.929-.523 5.116 5.116 0 0 1 3.428-4.081 5.606 5.606 0 0 0 3.727 2.379c.093.008.185.011.276.011a3.87 3.87 0 0 0 2.762-1.275 3.79 3.79 0 0 0 1.264-3.038 5.606 5.606 0 0 0 -2.379-3.727 4.942 4.942 0 0 1 5.526-3.381 5.4 5.4 0 0 1 2.735 1.45c2.617 2.619 1.923 7.747-1.485 11.654a7.325 7.325 0 0 0 -4.889.531zm-2.562-8.173a3.153 3.153 0 0 1 1.061 1.8 2.371 2.371 0 0 1 -2.15 2.15 3.15 3.15 0 0 1 -1.8-1.061 4.357 4.357 0 0 0 2.894-2.894zm13.544 25.435h-28a1 1 0 0 1 -1-1v-30h16.045a7.5 7.5 0 0 0 -1.825 2.872c-.1.28-.188.585-.28.9a5.258 5.258 0 0 1 -.984 2.183 5.258 5.258 0 0 1 -2.183.984c-.316.092-.621.181-.9.28a7.016 7.016 0 0 0 -4.857 6.887 6.192 6.192 0 0 0 -1.806 1.813 7.261 7.261 0 0 0 -1.21 3.981c0 5.02 5.418 9.1 12.077 9.1.311 0 .618-.008.923-.025.3.017.612.025.923.025 6.659 0 12.077-4.08 12.077-9.1a7.261 7.261 0 0 0 -1.208-3.984 6.187 6.187 0 0 0 -1.95-1.9c3.778-4.683 4.26-10.585.964-13.882-.049-.049-.106-.088-.156-.135h4.35v30.001a1 1 0 0 1 -1 1z"/><path d="m27 24a1 1 0 0 1 -1-1h-2a3 3 0 1 0 3-3 1 1 0 1 1 1-1h2a3 3 0 1 0 -3 3 1 1 0 0 1 0 2z"/><path d="m35 26a3 3 0 0 0 3-3v-4a3 3 0 0 0 -6 0v4a3 3 0 0 0 3 3zm-1-7a1 1 0 0 1 2 0v4a1 1 0 0 1 -2 0z"/><path d="m42 21.816v3.184h2v-3.184a3 3 0 0 0 2-2.816v-3h-2v3a1 1 0 0 1 -2 0v-3h-2v3a3 3 0 0 0 2 2.816z"/></g></svg>