<svg id="Capa_1" enable-background="new 0 0 510 510" height="512" viewBox="0 0 510 510" width="512" xmlns="http://www.w3.org/2000/svg"><g><path id="XMLID_2916_" d="m266.333 453-11.333-33-60-24-60 24v60l65.667 10 54.333-10z" fill="#f2f2fc"/><path id="XMLID_2913_" d="m255 480 54 10 66-10v-60l-60-24-60 24z" fill="#e2d9fb"/><path id="XMLID_2910_" d="m135 480v30h120l15-15-15-15z" fill="#e2d9fb"/><path id="XMLID_2907_" d="m255 480h120v30h-120z" fill="#cbc2ef"/><path id="XMLID_2946_" d="m180 0v30h30.601c-.429 14.501-3.438 30.827-7.115 45l29.025 10 22.489-10 15-30-15-45c-21.477 0-41.285 0-75 0z" fill="#4e5e7f"/><path id="XMLID_2943_" d="m299.399 30h30.601c0-10.492 0-19.508 0-30-24.979 0-49.988 0-75 0v75l22.489 14.667 29.026-14.667c-3.677-14.167-6.687-30.495-7.116-45z" fill="#3c4566"/><path id="XMLID_2940_" d="m203.485 75c-5.285 20.367-13.211 41.419-23.265 60l36.112 12 38.668-12 15-30-15-30c-16.366 0-35.148 0-51.515 0z" fill="#f84e57"/><path id="XMLID_2937_" d="m306.515 75c-16.366 0-35.148 0-51.515 0v60l37.39 12 37.39-12c-10.053-18.58-17.979-39.633-23.265-60z" fill="#d9185a"/><path id="XMLID_2934_" d="m180.221 135c-20.168 37.277-39.126 47.345-45.221 52.361v52.639l60 15 60-15 11.333-52.5-11.333-52.5c-9.078 0-65.668 0-74.779 0z" fill="#f2f2fc"/><path id="XMLID_2931_" d="m375 187.361c-2.971-2.883-23.853-12.865-45.221-52.361-9.076 0-65.672 0-74.779 0v105l60 15 60-15c0-17.549 0-35.102 0-52.639z" fill="#e2d9fb"/><path id="XMLID_2928_" d="m135 240v180h120l22.489-90-22.489-90z" fill="#f84e57"/><path id="XMLID_2925_" d="m255 240h120v180h-120z" fill="#d9185a"/><path id="XMLID_2922_" d="m210.021 330c0 24.867 20.083 44.978 44.979 44.978l15-44.978-15-44.978c-24.866 0-44.979 20.078-44.979 44.978z" fill="#d9185a"/><path id="XMLID_2919_" d="m255 285.022v89.957c24.786 0 44.978-19.998 44.978-44.978 0-24.867-20.084-44.979-44.978-44.979z" fill="#b10042"/></g></svg>