<?xml version="1.0" encoding="UTF-8" standalone="no"?>
<!-- Created with Inkscape (http://www.inkscape.org/) -->

<svg
   version="1.1"
   id="svg2949"
   xml:space="preserve"
   width="682.66669"
   height="682.66669"
   viewBox="0 0 682.66669 682.66669"
   xmlns="http://www.w3.org/2000/svg"
   xmlns:svg="http://www.w3.org/2000/svg"><defs
     id="defs2953"><clipPath
       clipPathUnits="userSpaceOnUse"
       id="clipPath2963"><path
         d="M 0,512 H 512 V 0 H 0 Z"
         id="path2961" /></clipPath></defs><g
     id="g2955"
     transform="matrix(1.3333333,0,0,-1.3333333,0,682.66667)"><g
       id="g2957"><g
         id="g2959"
         clip-path="url(#clipPath2963)"><g
           id="g2965"
           transform="translate(504.5,460.6738)"><path
             d="m 0,0 v -20.375 h -397.5 c -6.904,0 -12.5,5.597 -12.5,12.5 0,6.904 5.596,12.5 12.5,12.5 H -4.625 C -2.071,4.625 0,2.554 0,0"
             style="fill:#fac600;fill-opacity:1;fill-rule:nonzero;stroke:none"
             id="path2967" /></g><g
           id="g2969"
           transform="translate(107,440.2988)"><path
             d="M 0,0 C -6.904,0 -12.5,5.597 -12.5,12.5 -12.5,19.404 -6.904,25 0,25 h 392.875 c 2.554,0 4.625,-2.071 4.625,-4.625 V 0"
             style="fill:none;stroke:#000000;stroke-width:15;stroke-linecap:round;stroke-linejoin:round;stroke-miterlimit:10;stroke-dasharray:none;stroke-opacity:1"
             id="path2971" /></g><g
           id="g2973"
           transform="translate(142.9839,185.0957)"><path
             d="m 0,0 v 0 c -9.301,0 -16.841,7.54 -16.841,16.841 v 272.044 c 0,9.301 7.54,16.841 16.841,16.841 9.301,0 16.841,-7.54 16.841,-16.841 V 16.841 C 16.841,7.54 9.301,0 0,0"
             style="fill:#fff3de;fill-opacity:1;fill-rule:nonzero;stroke:none"
             id="path2975" /></g><g
           id="g2977"
           transform="translate(176.6655,185.0957)"><path
             d="m 0,0 v 0 c -9.301,0 -16.841,7.54 -16.841,16.841 v 272.044 c 0,9.301 7.54,16.841 16.841,16.841 9.301,0 16.841,-7.54 16.841,-16.841 V 16.841 C 16.841,7.54 9.301,0 0,0"
             style="fill:#ffe5c2;fill-opacity:1;fill-rule:nonzero;stroke:none"
             id="path2979" /></g><g
           id="g2981"
           transform="translate(210.3472,185.0957)"><path
             d="m 0,0 v 0 c -9.301,0 -16.841,7.54 -16.841,16.841 v 272.044 c 0,9.301 7.54,16.841 16.841,16.841 9.301,0 16.841,-7.54 16.841,-16.841 V 16.841 C 16.841,7.54 9.301,0 0,0"
             style="fill:#fff3de;fill-opacity:1;fill-rule:nonzero;stroke:none"
             id="path2983" /></g><g
           id="g2985"
           transform="translate(244.0288,185.0957)"><path
             d="m 0,0 v 0 c -9.301,0 -16.841,7.54 -16.841,16.841 v 272.044 c 0,9.301 7.54,16.841 16.841,16.841 9.301,0 16.841,-7.54 16.841,-16.841 V 16.841 C 16.841,7.54 9.301,0 0,0"
             style="fill:#ffe5c2;fill-opacity:1;fill-rule:nonzero;stroke:none"
             id="path2987" /></g><g
           id="g2989"
           transform="translate(142.9839,185.0957)"><path
             d="m 0,0 v 0 c -9.301,0 -16.841,7.54 -16.841,16.841 v 272.044 c 0,9.301 7.54,16.841 16.841,16.841 9.301,0 16.841,-7.54 16.841,-16.841 V 16.841 C 16.841,7.54 9.301,0 0,0 Z"
             style="fill:none;stroke:#000000;stroke-width:15;stroke-linecap:round;stroke-linejoin:round;stroke-miterlimit:10;stroke-dasharray:none;stroke-opacity:1"
             id="path2991" /></g><g
           id="g2993"
           transform="translate(176.6655,185.0957)"><path
             d="m 0,0 v 0 c -9.301,0 -16.841,7.54 -16.841,16.841 v 272.044 c 0,9.301 7.54,16.841 16.841,16.841 9.301,0 16.841,-7.54 16.841,-16.841 V 16.841 C 16.841,7.54 9.301,0 0,0 Z"
             style="fill:none;stroke:#000000;stroke-width:15;stroke-linecap:round;stroke-linejoin:round;stroke-miterlimit:10;stroke-dasharray:none;stroke-opacity:1"
             id="path2995" /></g><g
           id="g2997"
           transform="translate(210.3472,185.0957)"><path
             d="m 0,0 v 0 c -9.301,0 -16.841,7.54 -16.841,16.841 v 272.044 c 0,9.301 7.54,16.841 16.841,16.841 9.301,0 16.841,-7.54 16.841,-16.841 V 16.841 C 16.841,7.54 9.301,0 0,0 Z"
             style="fill:none;stroke:#000000;stroke-width:15;stroke-linecap:round;stroke-linejoin:round;stroke-miterlimit:10;stroke-dasharray:none;stroke-opacity:1"
             id="path2999" /></g><g
           id="g3001"
           transform="translate(244.0288,185.0957)"><path
             d="m 0,0 v 0 c -9.301,0 -16.841,7.54 -16.841,16.841 v 272.044 c 0,9.301 7.54,16.841 16.841,16.841 9.301,0 16.841,-7.54 16.841,-16.841 V 16.841 C 16.841,7.54 9.301,0 0,0 Z"
             style="fill:none;stroke:#000000;stroke-width:15;stroke-linecap:round;stroke-linejoin:round;stroke-miterlimit:10;stroke-dasharray:none;stroke-opacity:1"
             id="path3003" /></g><g
           id="g3005"
           transform="translate(77.479,218.5791)"><path
             d="m 0,0 -42.271,42.271 c -1.941,1.941 -1.283,5.232 1.255,6.277 l 24.403,10.048 c 1.436,0.592 3.087,0.261 4.185,-0.837 L 29.843,15.488 c 1.941,-1.941 1.282,-5.232 -1.256,-6.277 L 4.184,-0.837 C 2.749,-1.428 1.098,-1.098 0,0"
             style="fill:#02905d;fill-opacity:1;fill-rule:nonzero;stroke:none"
             id="path3007" /></g><g
           id="g3009"
           transform="translate(77.479,218.5791)"><path
             d="m 0,0 -42.271,42.271 c -1.941,1.941 -1.283,5.232 1.255,6.277 l 24.403,10.048 c 1.436,0.592 3.087,0.261 4.185,-0.837 L 29.843,15.488 c 1.941,-1.941 1.282,-5.232 -1.256,-6.277 L 4.184,-0.837 C 2.749,-1.428 1.098,-1.098 0,0 Z"
             style="fill:none;stroke:#000000;stroke-width:15;stroke-linecap:round;stroke-linejoin:round;stroke-miterlimit:10;stroke-dasharray:none;stroke-opacity:1"
             id="path3011" /></g><g
           id="g3013"
           transform="translate(97.1934,237.7852)"><path
             d="m 0,0 -42.271,42.271 c -1.941,1.941 -1.283,5.231 1.255,6.277 l 24.403,10.048 c 1.436,0.592 3.087,0.261 4.185,-0.837 L 29.843,15.488 c 1.941,-1.941 1.282,-5.232 -1.256,-6.277 L 4.185,-0.837 C 2.749,-1.428 1.098,-1.098 0,0"
             style="fill:#017b4e;fill-opacity:1;fill-rule:nonzero;stroke:none"
             id="path3015" /></g><g
           id="g3017"
           transform="translate(97.1934,237.7852)"><path
             d="m 0,0 -42.271,42.271 c -1.941,1.941 -1.283,5.231 1.255,6.277 l 24.403,10.048 c 1.436,0.592 3.087,0.261 4.185,-0.837 L 29.843,15.488 c 1.941,-1.941 1.282,-5.232 -1.256,-6.277 L 4.185,-0.837 C 2.749,-1.428 1.098,-1.098 0,0 Z"
             style="fill:none;stroke:#000000;stroke-width:15;stroke-linecap:round;stroke-linejoin:round;stroke-miterlimit:10;stroke-dasharray:none;stroke-opacity:1"
             id="path3019" /></g><g
           id="g3021"
           transform="translate(136.7915,260.8359)"><path
             d="m 0,0 -42.271,-42.271 c -1.941,-1.941 -5.232,-1.283 -6.277,1.255 l -10.048,24.403 c -0.592,1.436 -0.261,3.087 0.836,4.185 l 42.272,42.271 c 1.941,1.941 5.231,1.282 6.276,-1.256 L 0.837,4.184 C 1.428,2.749 1.098,1.098 0,0"
             style="fill:#02905d;fill-opacity:1;fill-rule:nonzero;stroke:none"
             id="path3023" /></g><g
           id="g3025"
           transform="translate(136.7915,260.8359)"><path
             d="m 0,0 -42.271,-42.271 c -1.941,-1.941 -5.232,-1.283 -6.277,1.255 l -10.048,24.403 c -0.592,1.436 -0.261,3.087 0.836,4.185 l 42.272,42.271 c 1.941,1.941 5.231,1.282 6.276,-1.256 L 0.837,4.184 C 1.428,2.749 1.098,1.098 0,0 Z"
             style="fill:none;stroke:#000000;stroke-width:15;stroke-linecap:round;stroke-linejoin:round;stroke-miterlimit:10;stroke-dasharray:none;stroke-opacity:1"
             id="path3027" /></g><g
           id="g3029"
           transform="translate(372.1772,306.6948)"><path
             d="m 0,0 6.081,-9.724 c 1.872,-2.994 5.542,-4.329 8.899,-3.239 l 10.91,3.54 c 5.407,1.755 10.785,-2.758 9.996,-8.388 l -1.593,-11.358 c -0.49,-3.496 1.462,-6.878 4.736,-8.202 l 10.633,-4.3 c 5.27,-2.131 6.488,-9.044 2.265,-12.85 l -8.52,-7.677 c -2.623,-2.364 -3.302,-6.209 -1.645,-9.327 l 5.381,-10.129 c 2.667,-5.02 -0.843,-11.1 -6.524,-11.3 l -11.463,-0.404 c -3.528,-0.125 -6.519,-2.635 -7.254,-6.088 l -2.389,-11.218 c -1.184,-5.56 -7.781,-7.961 -12.262,-4.463 l -9.04,7.058 c -2.783,2.173 -6.688,2.173 -9.47,0 l -9.041,-7.058 c -4.481,-3.498 -11.077,-1.097 -12.262,4.463 l -2.388,11.218 c -0.736,3.453 -3.726,5.963 -7.255,6.088 l -11.462,0.404 c -5.682,0.2 -9.191,6.28 -6.524,11.3 l 5.38,10.129 c 1.657,3.118 0.979,6.963 -1.644,9.327 l -8.521,7.677 c -4.223,3.806 -3.004,10.719 2.266,12.85 l 10.633,4.3 c 3.273,1.324 5.225,4.706 4.735,8.202 l -1.592,11.358 c -0.789,5.63 4.588,10.143 9.996,8.388 l 10.909,-3.54 c 3.358,-1.09 7.027,0.245 8.899,3.239 L -13.048,0 C -10.034,4.82 -3.014,4.82 0,0"
             style="fill:#fe646f;fill-opacity:1;fill-rule:nonzero;stroke:none"
             id="path3031" /></g><g
           id="g3033"
           transform="translate(372.1772,306.6948)"><path
             d="m 0,0 6.081,-9.724 c 1.872,-2.994 5.542,-4.329 8.899,-3.239 l 10.91,3.54 c 5.407,1.755 10.785,-2.758 9.996,-8.388 l -1.593,-11.358 c -0.49,-3.496 1.462,-6.878 4.736,-8.202 l 10.633,-4.3 c 5.27,-2.131 6.488,-9.044 2.265,-12.85 l -8.52,-7.677 c -2.623,-2.364 -3.302,-6.209 -1.645,-9.327 l 5.381,-10.129 c 2.667,-5.02 -0.843,-11.1 -6.524,-11.3 l -11.463,-0.404 c -3.528,-0.125 -6.519,-2.635 -7.254,-6.088 l -2.389,-11.218 c -1.184,-5.56 -7.781,-7.961 -12.262,-4.463 l -9.04,7.058 c -2.783,2.173 -6.688,2.173 -9.47,0 l -9.041,-7.058 c -4.481,-3.498 -11.077,-1.097 -12.262,4.463 l -2.388,11.218 c -0.736,3.453 -3.726,5.963 -7.255,6.088 l -11.462,0.404 c -5.682,0.2 -9.191,6.28 -6.524,11.3 l 5.38,10.129 c 1.657,3.118 0.979,6.963 -1.644,9.327 l -8.521,7.677 c -4.223,3.806 -3.004,10.719 2.266,12.85 l 10.633,4.3 c 3.273,1.324 5.225,4.706 4.735,8.202 l -1.592,11.358 c -0.789,5.63 4.588,10.143 9.996,8.388 l 10.909,-3.54 c 3.358,-1.09 7.027,0.245 8.899,3.239 L -13.048,0 C -10.034,4.82 -3.014,4.82 0,0 Z"
             style="fill:none;stroke:#000000;stroke-width:15;stroke-linecap:round;stroke-linejoin:round;stroke-miterlimit:10;stroke-dasharray:none;stroke-opacity:1"
             id="path3035" /></g><g
           id="g3037"
           transform="translate(372.1772,306.6948)"><path
             d="m 0,0 6.081,-9.724 c 1.872,-2.994 5.542,-4.329 8.899,-3.239 l 10.91,3.54 c 5.407,1.755 10.785,-2.758 9.996,-8.388 l -1.593,-11.358 c -0.49,-3.496 1.462,-6.878 4.736,-8.202 l 10.633,-4.3 c 5.27,-2.131 6.488,-9.044 2.265,-12.85 l -8.52,-7.677 c -2.623,-2.364 -3.302,-6.209 -1.645,-9.327 l 5.381,-10.129 c 2.667,-5.02 -0.843,-11.1 -6.524,-11.3 l -11.463,-0.404 c -3.528,-0.125 -6.519,-2.635 -7.254,-6.088 l -2.389,-11.218 c -1.184,-5.56 -7.781,-7.961 -12.262,-4.463 l -9.04,7.058 c -2.783,2.173 -6.688,2.173 -9.47,0 l -9.041,-7.058 c -4.481,-3.498 -11.077,-1.097 -12.262,4.463 l -2.388,11.218 c -0.736,3.453 -3.726,5.963 -7.255,6.088 l -11.462,0.404 c -5.682,0.2 -9.191,6.28 -6.524,11.3 l 5.38,10.129 c 1.657,3.118 0.979,6.963 -1.644,9.327 l -8.521,7.677 c -4.223,3.806 -3.004,10.719 2.266,12.85 l 10.633,4.3 c 3.273,1.324 5.225,4.706 4.735,8.202 l -1.592,11.358 c -0.789,5.63 4.588,10.143 9.996,8.388 l 10.909,-3.54 c 3.358,-1.09 7.027,0.245 8.899,3.239 L -13.048,0 C -10.034,4.82 -3.014,4.82 0,0 Z"
             style="fill:none;stroke:#000000;stroke-width:15;stroke-linecap:round;stroke-linejoin:round;stroke-miterlimit:10;stroke-dasharray:none;stroke-opacity:1"
             id="path3039" /></g><g
           id="g3041"
           transform="translate(314.9185,323.437)"><path
             d="m 0,0 6.081,-9.725 c 1.872,-2.993 5.542,-4.329 8.899,-3.239 l 10.91,3.541 c 5.407,1.755 10.785,-2.758 9.996,-8.388 l -1.593,-11.358 c -0.49,-3.497 1.462,-6.878 4.736,-8.202 l 10.633,-4.3 c 5.27,-2.132 6.488,-9.045 2.265,-12.85 l -8.52,-7.678 c -2.623,-2.363 -3.302,-6.208 -1.645,-9.326 l 5.381,-10.129 c 2.667,-5.02 -0.843,-11.1 -6.524,-11.301 l -11.462,-0.404 c -3.529,-0.124 -6.52,-2.634 -7.255,-6.087 l -2.389,-11.218 c -1.184,-5.561 -7.781,-7.961 -12.262,-4.463 l -9.04,7.058 c -2.783,2.173 -6.688,2.173 -9.47,0 l -9.041,-7.058 c -4.481,-3.498 -11.077,-1.098 -12.262,4.463 l -2.388,11.218 c -0.736,3.453 -3.726,5.963 -7.255,6.087 l -11.462,0.404 c -5.682,0.201 -9.191,6.281 -6.524,11.301 l 5.38,10.129 c 1.657,3.118 0.979,6.963 -1.644,9.326 l -8.521,7.678 c -4.223,3.805 -3.004,10.718 2.266,12.85 l 10.633,4.3 c 3.273,1.324 5.225,4.705 4.735,8.202 l -1.592,11.358 c -0.789,5.63 4.588,10.143 9.996,8.388 l 10.909,-3.541 c 3.358,-1.09 7.027,0.246 8.899,3.239 L -13.048,0 C -10.034,4.82 -3.014,4.82 0,0"
             style="fill:#fd8087;fill-opacity:1;fill-rule:nonzero;stroke:none"
             id="path3043" /></g><g
           id="g3045"
           transform="translate(314.9185,323.437)"><path
             d="m 0,0 6.081,-9.725 c 1.872,-2.993 5.542,-4.329 8.899,-3.239 l 10.91,3.541 c 5.407,1.755 10.785,-2.758 9.996,-8.388 l -1.593,-11.358 c -0.49,-3.497 1.462,-6.878 4.736,-8.202 l 10.633,-4.3 c 5.27,-2.132 6.488,-9.045 2.265,-12.85 l -8.52,-7.678 c -2.623,-2.363 -3.302,-6.208 -1.645,-9.326 l 5.381,-10.129 c 2.667,-5.02 -0.843,-11.1 -6.524,-11.301 l -11.462,-0.404 c -3.529,-0.124 -6.52,-2.634 -7.255,-6.087 l -2.389,-11.218 c -1.184,-5.561 -7.781,-7.961 -12.262,-4.463 l -9.04,7.058 c -2.783,2.173 -6.688,2.173 -9.47,0 l -9.041,-7.058 c -4.481,-3.498 -11.077,-1.098 -12.262,4.463 l -2.388,11.218 c -0.736,3.453 -3.726,5.963 -7.255,6.087 l -11.462,0.404 c -5.682,0.201 -9.191,6.281 -6.524,11.301 l 5.38,10.129 c 1.657,3.118 0.979,6.963 -1.644,9.326 l -8.521,7.678 c -4.223,3.805 -3.004,10.718 2.266,12.85 l 10.633,4.3 c 3.273,1.324 5.225,4.705 4.735,8.202 l -1.592,11.358 c -0.789,5.63 4.588,10.143 9.996,8.388 l 10.909,-3.541 c 3.358,-1.09 7.027,0.246 8.899,3.239 L -13.048,0 C -10.034,4.82 -3.014,4.82 0,0 Z"
             style="fill:none;stroke:#000000;stroke-width:15;stroke-linecap:round;stroke-linejoin:round;stroke-miterlimit:10;stroke-dasharray:none;stroke-opacity:1"
             id="path3047" /></g><g
           id="g3049"
           transform="translate(291.6152,235.8208)"><path
             d="m 0,0 c -12.505,12.505 -12.505,32.781 0,45.286 10.004,10.004 26.224,10.004 36.229,0 8.003,-8.003 8.003,-20.98 0,-28.983 -6.403,-6.403 -14.115,-6.403 -20.518,0 -5.122,5.122 -5.068,12.334 0.959,16.352"
             style="fill:none;stroke:#000000;stroke-width:15;stroke-linecap:round;stroke-linejoin:round;stroke-miterlimit:10;stroke-dasharray:none;stroke-opacity:1"
             id="path3051" /></g><g
           id="g3053"
           transform="translate(318.6895,21.1787)"><path
             d="m 0,0 h -174.021 c -3.101,0 -5.614,2.513 -5.614,5.613 v 75.223 c 0,3.1 2.513,5.613 5.614,5.613 H 0 c 3.101,0 5.614,-2.513 5.614,-5.613 V 5.613 C 5.614,2.513 3.101,0 0,0"
             style="fill:#ffe5c2;fill-opacity:1;fill-rule:nonzero;stroke:none"
             id="path3055" /></g><g
           id="g3057"
           transform="translate(195.1968,26.792)"><path
             d="m 0,0 v 75.223 c 0,3.1 2.513,5.613 5.614,5.613 h -56.143 c -3.1,0 -5.614,-2.513 -5.614,-5.613 V 0 c 0,-3.1 2.514,-5.613 5.614,-5.613 H 5.614 C 2.513,-5.613 0,-3.1 0,0"
             style="fill:#fed2a4;fill-opacity:1;fill-rule:nonzero;stroke:none"
             id="path3059" /></g><g
           id="g3061"
           transform="translate(318.6895,21.1787)"><path
             d="m 0,0 h -174.021 c -3.101,0 -5.614,2.513 -5.614,5.613 v 75.223 c 0,3.1 2.513,5.613 5.614,5.613 H 0 c 3.101,0 5.614,-2.513 5.614,-5.613 V 5.613 C 5.614,2.513 3.101,0 0,0 Z"
             style="fill:none;stroke:#000000;stroke-width:15;stroke-linecap:round;stroke-linejoin:round;stroke-miterlimit:10;stroke-dasharray:none;stroke-opacity:1"
             id="path3063" /></g><g
           id="g3065"
           transform="translate(9.8584,231.3462)"><path
             d="M 0,0 129.196,-167.477 H 314.445 L 443.641,0 c 5.693,7.381 0.432,18.085 -8.89,18.085 H 8.89 C -0.433,18.085 -5.694,7.381 0,0"
             style="fill:#fdb97e;fill-opacity:1;fill-rule:nonzero;stroke:none"
             id="path3067" /></g><g
           id="g3069"
           transform="translate(444.6099,249.4312)"><path
             d="m 0,0 h -425.862 c -9.322,0 -14.583,-10.704 -8.889,-18.085 l 28.483,-36.923 H -19.594 L 8.889,-18.085 C 14.583,-10.704 9.322,0 0,0"
             style="fill:#fea95c;fill-opacity:1;fill-rule:nonzero;stroke:none"
             id="path3071" /></g><g
           id="g3073"
           transform="translate(74.8906,249.4312)"><path
             d="m 0,0 h -56.143 c -9.322,0 -14.583,-10.704 -8.889,-18.085 L 64.164,-185.562 h 56.142 L -8.89,-18.085 C -14.583,-10.704 -9.322,0 0,0"
             style="fill:#fea95c;fill-opacity:1;fill-rule:nonzero;stroke:none"
             id="path3075" /></g><g
           id="g3077"
           transform="translate(444.6099,249.4312)"><path
             d="m 0,0 h -425.862 c -9.322,0 -14.583,-10.704 -8.889,-18.085 l 28.483,-36.923 H -19.594 L 8.889,-18.085 C 14.583,-10.704 9.322,0 0,0"
             style="fill:#ffe5c2;fill-opacity:1;fill-rule:nonzero;stroke:none"
             id="path3079" /></g><g
           id="g3081"
           transform="translate(74.8906,249.4312)"><path
             d="m 0,0 h -56.143 c -9.322,0 -14.583,-10.704 -8.889,-18.085 l 28.483,-36.923 H 19.594 L -8.89,-18.085 C -14.583,-10.704 -9.322,0 0,0"
             style="fill:#fed2a4;fill-opacity:1;fill-rule:nonzero;stroke:none"
             id="path3083" /></g><g
           id="g3085"
           transform="translate(287,63.8691)"><path
             d="m 0,0 h 37.303 l 129.196,167.477 c 5.694,7.381 0.433,18.085 -8.89,18.085 h -425.861 c -9.322,0 -14.583,-10.704 -8.89,-18.085 L -147.946,0 H -35"
             style="fill:none;stroke:#000000;stroke-width:15;stroke-linecap:round;stroke-linejoin:round;stroke-miterlimit:10;stroke-dasharray:none;stroke-opacity:1"
             id="path3087" /></g><g
           id="g3089"
           transform="translate(95.6792,346.8213)"><path
             d="m 0,0 -16.678,-16.679 c -1.324,-1.324 -3.471,-1.324 -4.796,0 L -38.152,0 c -1.324,1.324 -1.324,3.471 0,4.795 l 16.678,16.678 c 1.325,1.324 3.472,1.324 4.796,0 L 0,4.795 C 1.324,3.471 1.324,1.324 0,0"
             style="fill:#02905d;fill-opacity:1;fill-rule:nonzero;stroke:none"
             id="path3091" /></g><g
           id="g3093"
           transform="translate(95.6792,346.8213)"><path
             d="m 0,0 -16.678,-16.679 c -1.324,-1.324 -3.471,-1.324 -4.796,0 L -38.152,0 c -1.324,1.324 -1.324,3.471 0,4.795 l 16.678,16.678 c 1.325,1.324 3.472,1.324 4.796,0 L 0,4.795 C 1.324,3.471 1.324,1.324 0,0 Z"
             style="fill:none;stroke:#000000;stroke-width:15;stroke-linecap:round;stroke-linejoin:round;stroke-miterlimit:10;stroke-dasharray:none;stroke-opacity:1"
             id="path3095" /></g><g
           id="g3097"
           transform="translate(433.6182,336.7168)"><path
             d="m 0,0 -16.678,-16.679 c -1.324,-1.324 -3.471,-1.324 -4.795,0 L -38.152,0 c -1.324,1.324 -1.324,3.471 0,4.795 l 16.679,16.678 c 1.324,1.324 3.471,1.324 4.795,0 L 0,4.795 C 1.324,3.471 1.324,1.324 0,0"
             style="fill:#02905d;fill-opacity:1;fill-rule:nonzero;stroke:none"
             id="path3099" /></g><g
           id="g3101"
           transform="translate(433.6182,336.7168)"><path
             d="m 0,0 -16.678,-16.679 c -1.324,-1.324 -3.471,-1.324 -4.795,0 L -38.152,0 c -1.324,1.324 -1.324,3.471 0,4.795 l 16.679,16.678 c 1.324,1.324 3.471,1.324 4.795,0 L 0,4.795 C 1.324,3.471 1.324,1.324 0,0 Z"
             style="fill:none;stroke:#000000;stroke-width:15;stroke-linecap:round;stroke-linejoin:round;stroke-miterlimit:10;stroke-dasharray:none;stroke-opacity:1"
             id="path3103" /></g><g
           id="g3105"
           transform="translate(350.5371,366.1875)"><path
             d="m 0,0 -16.679,-16.679 c -1.324,-1.324 -3.47,-1.324 -4.795,0 L -38.152,0 c -1.324,1.324 -1.324,3.471 0,4.795 l 16.678,16.678 c 1.325,1.324 3.471,1.324 4.795,0 L 0,4.795 C 1.324,3.471 1.324,1.324 0,0"
             style="fill:#02905d;fill-opacity:1;fill-rule:nonzero;stroke:none"
             id="path3107" /></g><g
           id="g3109"
           transform="translate(350.5371,366.1875)"><path
             d="m 0,0 -16.679,-16.679 c -1.324,-1.324 -3.47,-1.324 -4.795,0 L -38.152,0 c -1.324,1.324 -1.324,3.471 0,4.795 l 16.678,16.678 c 1.325,1.324 3.471,1.324 4.795,0 L 0,4.795 C 1.324,3.471 1.324,1.324 0,0 Z"
             style="fill:none;stroke:#000000;stroke-width:15;stroke-linecap:round;stroke-linejoin:round;stroke-miterlimit:10;stroke-dasharray:none;stroke-opacity:1"
             id="path3111" /></g><g
           id="g3113"
           transform="translate(38.3418,194.4229)"><path
             d="M 0,0 H 75.658"
             style="fill:none;stroke:#000000;stroke-width:15;stroke-linecap:round;stroke-linejoin:round;stroke-miterlimit:10;stroke-dasharray:none;stroke-opacity:1"
             id="path3115" /></g><g
           id="g3117"
           transform="translate(149,194.4229)"><path
             d="M 0,0 H 276.016"
             style="fill:none;stroke:#000000;stroke-width:15;stroke-linecap:round;stroke-linejoin:round;stroke-miterlimit:10;stroke-dasharray:none;stroke-opacity:1"
             id="path3119" /></g><g
           id="g3121"
           transform="translate(504.5,440.2988)"><path
             d="M 0,0 V -20.375 C 0,-22.929 -2.071,-25 -4.625,-25 H -397.5 c -6.904,0 -12.5,5.597 -12.5,12.5 0,6.904 5.596,12.5 12.5,12.5 z"
             style="fill:#fed402;fill-opacity:1;fill-rule:nonzero;stroke:none"
             id="path3123" /></g><g
           id="g3125"
           transform="translate(413,440.2988)"><path
             d="m 0,0 h -306 c -6.903,0 -12.5,-5.596 -12.5,-12.5 0,-6.903 5.597,-12.5 12.5,-12.5 H 86.875 c 2.554,0 4.625,2.071 4.625,4.625 V 0 H 35"
             style="fill:none;stroke:#000000;stroke-width:15;stroke-linecap:round;stroke-linejoin:round;stroke-miterlimit:10;stroke-dasharray:none;stroke-opacity:1"
             id="path3127" /></g></g></g></g></svg>
