<svg height="512" viewBox="0 0 64 64" width="512" xmlns="http://www.w3.org/2000/svg"><g id="Icon"><path d="m54.851 50.474a1 1 0 0 0 -.851-.474h-44a1 1 0 0 0 -.895 1.447l2 4a1 1 0 0 0 .895.553h40a1 1 0 0 0 .9-.553l2-4a1 1 0 0 0 -.049-.973z" fill="#95c8ec"/><rect fill="#ffe0b2" height="21" rx="3" width="24" x="20" y="8"/><rect fill="#fff3e1" height="21" rx="3" width="24" x="7" y="27"/><rect fill="#fff3e1" height="21" rx="3" width="24" x="33" y="27"/><rect fill="#70b2e2" height="6" rx="1" width="56" x="4" y="46"/></g></svg>