<svg id="icons" height="512" viewBox="0 0 340 340" width="512" xmlns="http://www.w3.org/2000/svg"><path d="m245.412 46.521s-11.823-13.025-24.849-5.21c-7.548 4.529-6.684 11.682-4.623 16.9a12.691 12.691 0 0 1 -.96 11.424c-2.7 4.28-4.07 11.049 4.782 18.969a17 17 0 0 1 5.792 15.467s33.484-20.679 19.858-57.55z" fill="#719b56"/><path d="m306.791 55.622a31.736 31.736 0 0 1 14.4 5.517c22.861 15.575 10.931 41.049 10.931 41.049s-6.291 19.977-31.343 7.211c0 0-3.872 17.9-29.438 11.378a33.374 33.374 0 0 0 -32.347 8.963c-1.506 1.558-3.055 3.19-4.616 4.875-10.891-7.129 3.5-26.287 29.6-51.017z" fill="#a9db89"/><path d="m294.254 92.459a3.538 3.538 0 0 0 -3.925-2.822 92.929 92.929 0 0 0 -30.583 9.133.981.981 0 0 1 -1.077-1.624 115.491 115.491 0 0 1 22.271-15.11c20.267-10.3 24.834-22.125 25.849-26.4-15.713-1.8-28.18 9.377-28.18 9.377-56.5 35.231-69.243 76.618-69.243 76.618l10.414 10.414a199.048 199.048 0 0 1 14.6-17.426 18.822 18.822 0 0 1 .194-3.021 21.792 21.792 0 0 1 8.149-13.812c15.368-12.282 31.635-19.466 48.545-21.373a3.418 3.418 0 0 0 2.986-3.954z" fill="#719b56"/><path d="m290.684 24.415s-2.215-20.828-23.044-19.056c0 0-23.6 2.991-16.009 30.965 0 0-15.676 6.482-9.915 28.639a29.073 29.073 0 0 1 .193 4.466c1.315 6.6-.515 13.46-8.17 20.794l-22.157 22.157a43.414 43.414 0 0 0 -3.5 3.815 12.093 12.093 0 0 0 6.1 8.65c5.54 3.1 14.132-7.471 14.132-7.471a387.973 387.973 0 0 1 35.454-37.438 64.929 64.929 0 0 1 17.852-11.563 41.926 41.926 0 0 0 18.9-15.714 19.478 19.478 0 0 0 .189-20.924 17.085 17.085 0 0 0 -10.025-7.32z" fill="#a9db89"/><circle cx="308.002" cy="90.613" fill="#719b56" r="3.478"/><path d="m233.74 90.223c19.627-14.4 30.718-35.664 35.513-45.139a1.472 1.472 0 0 0 -2.438-1.615c-6.115 7.211-15.759 18.031-24.906 25.96-.251 12.034-8.169 20.794-8.169 20.794z" fill="#719b56"/><path d="m208.086 116.2c-3.715 4.532-8.662 12.271-5.589 18.563l6.869 6.869s7.338-10.366 18.953-24.254c-.019.022-9.396 9.509-20.233-1.178z" fill="#719b56"/><path d="m9.864 317.686a3.277 3.277 0 0 1 -.294-.335c-10.123-13.146-.5-27.59 6.08-33.465 3.633-3.668 4.388-7.271 2.31-11.014a3.418 3.418 0 1 1 5.977-3.319c2.095 3.774 4.423 11.291-3.52 19.234q-.074.074-.15.141c-.574.513-14.088 12.816-5.281 24.253a3.418 3.418 0 0 1 -5.122 4.5zm8.136-31.316.007.007z" fill="#eab198"/><path d="m213.5 139.405s-23.968-28.1-60.47-.574a11.406 11.406 0 0 1 -5.441 4.442 572.927 572.927 0 0 0 -52.4 50.245c-1.028 2.648-2.429 4.624-4.636 5.155q-3.269 3.69-6.508 7.515a8.557 8.557 0 0 1 -4.4 5.294c-3.748 4.59-7.414 9.295-10.933 14.083-11.628 20.338-19.913 40.925-8.206 63 12.15 10.78 25.567 16.356 41.216 12.764q1.116-.946 2.248-1.924s4.56-3.91 12.074-10.525c.518-2.384 2.563-3.676 5.169-4.568q2.739-2.428 5.809-5.17a15.62 15.62 0 0 1 5.137-4.605c14.833-13.34 33.705-30.7 52.023-48.631a7.641 7.641 0 0 1 4.94-4.865c10.144-10.048 19.986-20.178 28.729-29.792a14.479 14.479 0 0 1 4.34-5.792c9.17-15.34 3.113-33.451-8.691-46.051z" fill="#ffeec8"/><g fill="#eab198"><circle cx="101.948" cy="264.429" r="3.478"/><path d="m101.714 301.324c-7.726-1.409-17.5-6.516-28.8-19.6-20.242-23.457-4.206-56.151-4.206-56.151-17.422 23.711-31.23 49.469-33.369 73.349a11.393 11.393 0 0 1 -3.193 7.013c-2.3 2.316-5.89 3.943-10.7.2 0 0-9.224-8.226-4.736-22.685 0 0-18.008 14.133-9.805 33.384a29.809 29.809 0 0 0 27.995 17.908c13.817-.266 35.6-6.993 66.814-33.418z"/><path d="m169.579 152.216c-4.405-3.8-11.216-9.263-16.55-13.38-.235.177-.467.345-.7.527 0 0-1.72 1.371-4.743 3.91 5.378 4.112 12.843 10.075 17.529 14.119a3.418 3.418 0 0 0 4.466-5.176z"/><path d="m199.53 161.537a3.418 3.418 0 0 0 -.378 4.819 297.367 297.367 0 0 1 18.693 24.892l.1-.109a35.583 35.583 0 0 0 4.229-5.69c-4.9-7.164-11.854-16.543-17.826-23.534a3.427 3.427 0 0 0 -4.818-.378z"/><path d="m189.117 221.04c-3.184-4.534-7.345-10.147-10.272-13.821a3.418 3.418 0 1 0 -5.347 4.258c3.007 3.776 7.525 9.893 10.679 14.428q2.478-2.427 4.94-4.865z"/><path d="m116.066 210.212c-6.6-6.056-12.856-11.573-20.88-16.693q-2.319 2.541-4.636 5.155c8.052 5.012 14.281 10.509 20.895 16.576a3.418 3.418 0 1 0 4.621-5.038z"/><path d="m79.642 211.484a48.421 48.421 0 0 1 7.674 6.638 3.418 3.418 0 0 0 4.834-4.834 57.814 57.814 0 0 0 -8.109-7.1q-2.214 2.619-4.399 5.296z"/><path d="m132.154 274.536a267.057 267.057 0 0 0 -20.321-26.118 3.418 3.418 0 1 0 -5.088 4.566 258.437 258.437 0 0 1 20.272 26.157q2.474-2.211 5.137-4.605z"/><path d="m121.208 284.311c-2.045-3.052-4.894-7.189-6.963-10.006a3.418 3.418 0 1 0 -5.51 4.046c2.13 2.9 5.28 7.487 7.3 10.528q2.397-2.108 5.173-4.568z"/></g></svg>