<svg fill="none" height="512" viewBox="0 0 180 180" width="512" xmlns="http://www.w3.org/2000/svg"><path d="m26.2392 100.163c-8.6408 13.385 16.8097 41.953 34.1588 43.774 6.6849.69 18.6757-4.496 32.6375-6.355 11.0825-1.609 21.8425-4.95 31.8885-9.9 16.255-7.794 30.726-10.612 31.88-14.816 1.559-5.838.749-23.2845-13.032-30.344-8.956-4.579-13.677-12.6204-21.127-11.9908-8.356.7119-25.1279-.1874-42.3123 5.823-11.616 4.0544-20.6916 8.2886-30.8838 9.8774-12.2081 1.926-20.3244 9.4727-23.2097 13.9314z" fill="#c6c6c6"/><path d="m24.7178 94.5127c-8.5285 14.2393 16.5923 44.5613 33.7241 46.4643 6.6025.75 18.4359-4.774 32.2253-6.745 10.4918-1.499 21.1258-5.156 31.4758-10.492 16.053-8.243 30.367-11.241 31.476-15.738 1.544-6.205.749-24.7306-12.868-32.2249-8.835-4.8712-13.489-13.4072-20.856-12.7402-8.244.7494-24.7987-.1949-41.7657 6.1902-11.4437 4.3017-20.4368 8.7983-30.4941 10.492-12.0882 2.0159-20.0696 10.0498-22.9174 14.7936z" fill="#ffe2a9"/><path d="m149.939 97.8327s2.473 8.1983-5.178 11.3463c-7.652 3.148-73.5789 26.147-79.7392 26.23-6.1603.082-8.5209-2.054-8.5209-2.054 3.8179.817 7.7728.74 11.5561-.224 6.1378-1.612 66.362-21.479 71.195-23.847 11.152-5.463 10.402-5.448 10.687-11.4513z" fill="#ebcd94"/><path d="m26.8462 102.801c-1.3115.825 18.0836 27.474 21.6734 28.516 3.5897 1.042 4.9762.892 5.5982.135s-4.1443.412-6.49-2.143c-2.3457-2.556-19.4701-27.339-20.7816-26.508z" fill="#ebcd94"/><path d="m116.897 72.4047c0 1.866-2.683 3.3724-5.995 3.3724-3.313 0-5.996-1.4989-5.996-3.3724-.011-.1247-.011-.2501 0-.3747.33 1.6862 2.871 2.9977 5.996 2.9977s5.628-1.3115 5.958-2.9977c.024.1235.036.2489.037.3747z" fill="#bc883d"/><path d="m110.902 74.1808c2.88 0 5.216-1.1743 5.216-2.623 0-1.4486-2.336-2.623-5.216-2.623-2.881 0-5.216 1.1744-5.216 2.623 0 1.4487 2.335 2.623 5.216 2.623z" fill="#dd5324"/><path d="m119.895 87.3932c0 1.8661-2.683 3.3724-5.996 3.3724-3.312 0-5.995-1.4988-5.995-3.3724-.012-.1246-.012-.2501 0-.3747.33 1.6862 2.87 2.9977 5.995 2.9977s5.628-1.3115 5.996-2.9977c.011.1246.011.2501 0 .3747z" fill="#bc883d"/><path d="m113.899 89.1693c2.881 0 5.216-1.1743 5.216-2.6229 0-1.4487-2.335-2.623-5.216-2.623-2.88 0-5.216 1.1743-5.216 2.623 0 1.4486 2.336 2.6229 5.216 2.6229z" fill="#dd5324"/><path d="m139.38 97.8851c0 1.8661-2.683 3.3729-5.996 3.3729-3.312 0-5.995-1.4993-5.995-3.3729.001-.1257.014-.2512.038-.3747.329 1.6862 2.87 2.9976 5.957 2.9976 3.088 0 5.629-1.3114 5.996-2.9976.011.1247.011.2501 0 .3747z" fill="#bc883d"/><path d="m133.384 99.6613c2.881 0 5.216-1.1744 5.216-2.623s-2.335-2.623-5.216-2.623c-2.88 0-5.216 1.1744-5.216 2.623s2.336 2.623 5.216 2.623z" fill="#ffbd1a"/><path d="m116.148 71.2431c.007.1073.007.215 0 .3223-.293-1.4989-2.511-2.623-5.246-2.623-2.736 0-4.924 1.1541-5.246 2.623-.012-.1071-.012-.2152 0-.3223 0-1.6337 2.345-2.9527 5.246-2.9527 2.9 0 5.246 1.3115 5.246 2.9527z" fill="#dd5324"/><path d="m98.1615 84.3955c0 1.8661-2.683 3.3724-5.9954 3.3724-3.3125 0-5.9954-1.4988-5.9954-3.3724-.0115-.1246-.0115-.2501 0-.3747.3297 1.6862 2.8703 2.9977 5.9954 2.9977s5.6282-1.3115 5.9579-2.9977c.024.1235.0365.2489.0375.3747z" fill="#bc883d"/><path d="m92.1659 86.1716c2.8807 0 5.216-1.1743 5.216-2.623 0-1.4486-2.3353-2.6229-5.216-2.6229-2.8808 0-5.216 1.1743-5.216 2.6229 0 1.4487 2.3352 2.623 5.216 2.623z" fill="#ffbd1a"/><path d="m108.653 103.131c0 1.866-2.682 3.373-5.995 3.373-3.3124 0-5.9954-1.499-5.9954-3.373-.0114-.125-.0114-.25 0-.375.3298 1.687 2.8703 2.998 5.9954 2.998 3.125 0 5.628-1.311 5.958-2.998.024.124.037.249.037.375z" fill="#bc883d"/><path d="m102.658 104.907c2.881 0 5.216-1.174 5.216-2.623 0-1.448-2.335-2.6227-5.216-2.6227-2.8809 0-5.2161 1.1747-5.2161 2.6227 0 1.449 2.3352 2.623 5.2161 2.623z" fill="#dd5324"/><path d="m72.681 86.6438c0 1.866-2.683 3.3724-5.9954 3.3724-3.3125 0-5.9954-1.4989-5.9954-3.3724.0009-.1258.0134-.2513.0374-.3748.3298 1.6862 2.8703 2.9977 5.958 2.9977 3.0876 0 5.6281-1.3115 5.9579-2.9977.024.1235.0365.249.0375.3748z" fill="#bc883d"/><path d="m66.6855 88.4199c2.8807 0 5.216-1.1743 5.216-2.623 0-1.4486-2.3353-2.6229-5.216-2.6229s-5.216 1.1743-5.216 2.6229c0 1.4487 2.3353 2.623 5.216 2.623z" fill="#dd5324"/><path d="m76.4281 101.632c0 1.866-2.6829 3.373-5.9954 3.373-3.3124 0-5.9954-1.499-5.9954-3.373.001-.126.0135-.251.0375-.374.3297 1.686 2.8703 2.997 5.9579 2.997s5.6282-1.311 5.9579-2.997c.024.123.0366.248.0375.374z" fill="#bc883d"/><path d="m70.4326 103.408c2.8808 0 5.216-1.174 5.216-2.623 0-1.4482-2.3352-2.6226-5.216-2.6226-2.8807 0-5.216 1.1744-5.216 2.6226 0 1.449 2.3353 2.623 5.216 2.623z" fill="#ffbd1a"/><path d="m71.9316 85.4822c.0077.1072.0077.2149 0 .3222-.2923-1.4988-2.5106-2.623-5.246-2.623s-4.9237 1.1541-5.2085 2.623c-.0241-.1057-.0367-.2138-.0375-.3222 0-1.6338 2.3457-2.9528 5.246-2.9528s5.246 1.3115 5.246 2.9528z" fill="#dd5324"/><path d="m94.4143 115.871c0 1.866-2.6829 3.373-5.9954 3.373-3.3124 0-5.9954-1.499-5.9954-3.373-.0114-.124-.0114-.25 0-.374.3298 1.686 2.8703 2.997 5.9954 2.997s5.6282-1.311 5.9579-2.997c.024.123.0366.249.0375.374z" fill="#bc883d"/><path d="m88.4189 117.647c2.8808 0 5.216-1.174 5.216-2.623 0-1.448-2.3352-2.623-5.216-2.623-2.8807 0-5.216 1.175-5.216 2.623 0 1.449 2.3353 2.623 5.216 2.623z" fill="#ffbd1a"/><path d="m61.4397 112.124c0 1.866-2.6829 3.373-5.9954 3.373-3.3124 0-5.9954-1.499-5.9954-3.373.001-.126.0135-.251.0375-.374.3297 1.686 2.8703 2.997 5.9579 2.997s5.6282-1.311 5.9954-2.997c.0115.124.0115.25 0 .374z" fill="#bc883d"/><path d="m55.444 113.9c2.8807 0 5.216-1.174 5.216-2.623 0-1.448-2.3353-2.623-5.216-2.623s-5.216 1.175-5.216 2.623c0 1.449 2.3353 2.623 5.216 2.623z" fill="#dd5324"/><path d="m46.4511 97.8851c0 1.8661-2.6829 3.3729-5.9954 3.3729s-5.9954-1.4993-5.9954-3.3729c.0009-.1257.0135-.2512.0375-.3747.3297 1.6862 2.8703 2.9976 5.9954 2.9976s5.6281-1.3114 5.9954-2.9976c-.001.1258-.0135.2513-.0375.3747z" fill="#bc883d"/><path d="m40.4556 99.6613c2.8807 0 5.216-1.1744 5.216-2.623s-2.3353-2.623-5.216-2.623-5.216 1.1744-5.216 2.623 2.3353 2.623 5.216 2.623z" fill="#dd5324"/><path d="m93.6648 114.71c.0077.107.0077.215 0 .322-.2923-1.499-2.5106-2.623-5.246-2.623s-4.9237 1.154-5.2459 2.623c-.0116-.107-.0116-.215 0-.322 0-1.634 2.3457-2.953 5.2459-2.953 2.9003 0 5.246 1.312 5.246 2.953z" fill="#ffbd1a"/><path d="m114.536 70.2689c-.09.4046-.981-.2249-2.195-.4947-1.215-.2698-2.249-.0899-2.196-.4946.052-.4047 1.146-.5096 2.36-.2398s2.121.8244 2.031 1.2291z" fill="#e8af62"/><path d="m117.534 86.0067c-.09.4047-.982-.2248-2.196-.4946s-2.248-.0899-2.196-.4946c.053-.4047 1.147-.5096 2.361-.2398s2.121.8244 2.031 1.229z" fill="#e8af62"/><path d="m106.293 101.745c-.09.404-.982-.225-2.196-.495s-2.248-.09-2.196-.495c.052-.404 1.147-.509 2.361-.239 1.214.269 2.121.824 2.031 1.229z" fill="#e8af62"/><path d="m70.3203 84.5079c-.09.4047-.9818-.2248-2.1959-.4946-1.214-.2698-2.2857-.09-2.1958-.4946.09-.4047 1.1466-.5096 2.3607-.2399 1.2141.2698 2.1209.8244 2.031 1.2291z" fill="#e8af62"/><path d="m44.0904 96.4987c-.0899.4047-.9818-.2248-2.1958-.4946-1.2141-.2698-2.2858-.0899-2.1958-.4946.0899-.4047 1.1466-.5096 2.3607-.2398 1.214.2698 2.1208.8243 2.0309 1.229z" fill="#e8af62"/><path d="m59.079 110.738c-.0899.404-.9817-.225-2.1958-.495s-2.2858-.09-2.1958-.494c.0899-.405 1.1466-.51 2.3607-.24 1.214.27 2.1208.824 2.0309 1.229z" fill="#e8af62"/><path d="m137.019 96.4987c-.09.4047-.982-.2248-2.196-.4946s-2.285-.0899-2.196-.4946c.09-.4047 1.147-.5096 2.361-.2398s2.121.8243 2.031 1.229z" fill="#ead096"/><path d="m95.0512 83.0091c-.0899.4047-.9817-.2249-2.1958-.4947s-2.2483-.0899-2.1958-.4946c.0524-.4047 1.1466-.5096 2.3607-.2398 1.214.2698 2.1208.8244 2.0309 1.2291z" fill="#ead096"/><path d="m92.0535 113.736c-.0899.404-.9817-.225-2.1958-.495s-2.2483-.09-2.1958-.495c.0524-.404 1.1466-.509 2.3607-.24 1.214.27 2.1208.825 2.0309 1.23z" fill="#ead096"/><path d="m74.0674 100.246c-.0899.405-.9817-.225-2.1958-.4948s-2.2483-.0899-2.1958-.4946 1.1466-.5096 2.3607-.2398 2.1209.8244 2.0309 1.2292z" fill="#ead096"/><g fill="#1b6815"><path d="m98.9259 67.7283c.3972-1.4989-2.7953 4.4516-2.2483 5.3134.5471.8618 2.1584-4.9837 2.2483-5.3134z"/><path d="m96.5052 72.7419c-1.2066.9593 4.8858-1.9335 4.9458-2.9977.06-1.0641-4.6835 2.7729-4.9458 2.9977z"/><path d="m95.9281 94.7076c.3972-1.4989-2.7953 4.4516-2.2482 5.3134.547.862 2.1583-4.9837 2.2482-5.3134z"/><path d="m93.5074 99.7212c-1.2066.9588 4.8862-1.9335 4.9462-2.9602s-4.6839 2.7354-4.9462 2.9602z"/><path d="m74.1949 89.4616c.3972-1.4988-2.7954 4.4516-2.2483 5.3134.5471.8619 2.1584-4.9836 2.2483-5.3134z"/><path d="m71.7742 94.4752c-1.2066.9593 4.8862-1.9335 4.9462-2.9602.0599-1.0267-4.6839 2.7354-4.9462 2.9602z"/><path d="m92.0386 78.9397c-.4797-1.1316.8543 4.0169 1.4314 4.3691.577.3523-1.3265-4.1143-1.4314-4.3691z"/><path d="m92.7581 83.9833c-1.2065.9593 4.8863-1.9335 4.9462-2.9602.06-1.0267-4.6839 2.7354-4.9462 2.9602z"/><path d="m72.9357 116.756c-.3747-1.499-.2773 5.246.6295 5.733s-.5546-5.404-.6295-5.733z"/><path d="m57.048 98.2673c-1.4989 0-4.4966 4.7287-3.4549 4.6167 1.0417-.113 4.0994-4.6242 3.4549-4.6167z"/><path d="m77.2824 117.003c-1.5363 0-4.4966 4.729-3.4549 4.616 1.0417-.112 4.0994-4.624 3.4549-4.616z"/><path d="m122.997 71.2881c-1.536 0-4.496 4.7288-3.454 4.6164 1.041-.1124 4.099-4.6239 3.454-4.6164z"/><path d="m102.014 109.509c-1.537 0-4.497 4.729-3.4553 4.616 1.0417-.112 4.0993-4.624 3.4553-4.616z"/><path d="m77.8969 102.831c1.259.877 6.3776-1.304 5.4783-1.791s-6.0104 1.424-5.4783 1.791z"/><path d="m44.3827 84.5604c.637-1.394-3.4698 3.9494-3.0576 4.8862s2.9227-4.579 3.0576-4.8862z"/><path d="m47.6428 87.4532c-1.2066-.9443-6.445.9367-5.5757 1.4988s6.0853-1.1017 5.5757-1.4988z"/><path d="m131.316 81.5627c.637-1.3939-3.47 3.9495-3.058 4.8862.413.9368 2.923-4.579 3.058-4.8862z"/><path d="m134.576 84.4554c-1.207-.9442-6.445.9368-5.576 1.4989.87.5621 6.086-1.1017 5.576-1.4989z"/><path d="m120.824 103.296c.637-1.394-3.47 3.949-3.058 4.886.413.937 2.923-4.579 3.058-4.886z"/><path d="m124.084 106.189c-1.206-.944-6.445.937-5.576 1.499.87.562 6.086-1.102 5.576-1.499z"/></g><path d="m119.895 65.2477c-4.497-.3747-9.743.4946-11.991.8094-2.248.3147 10.986.0449 12.987 1.0267 2.001.9817 6.498 3.1101 6.498 2.6155s-.75-3.882-7.494-4.4516z" fill="#ebcd94"/></svg>