<svg id="Capa_1" enable-background="new 0 0 512 512" height="512" viewBox="0 0 512 512" width="512" xmlns="http://www.w3.org/2000/svg"><g><g><g><path clip-rule="evenodd" d="m120.579 348.306c-50.554 14.64-84.635 37.283-89.524 63.041-.407 2.125-.611 4.278-.611 6.432 0 26.515 30.85 50.264 79.454 66.185 39.378 12.893 90.368 20.694 146.103 20.694s106.754-7.8 146.103-20.694c48.633-15.92 79.454-39.67 79.454-66.185 0-9.081-3.609-17.841-10.332-26.049-14.465-17.725-43.278-33.005-81.201-43.803z" fill="#aa6a51" fill-rule="evenodd"/></g></g><g><g><path clip-rule="evenodd" d="m471.226 391.731c-14.465-17.725-43.278-33.005-81.201-43.803-5.384 2.328-7.072 6.403-4.453 12.544 10.361 6.287 18.685 13.126 24.593 20.373 6.723 8.237 10.332 16.997 10.332 26.078 0 26.515-30.85 50.235-79.454 66.185-39.349 12.893-90.368 20.664-146.103 20.664-21.828 0-42.958-1.193-62.923-3.405 35.594 9.023 78.203 14.291 123.984 14.291 55.734 0 106.754-7.8 146.103-20.694 48.633-15.92 79.454-39.67 79.454-66.185 0-9.08-3.609-17.841-10.332-26.048z" fill="#935b44" fill-rule="evenodd"/></g></g><g><g><path clip-rule="evenodd" d="m256 79.9c-92.289 0-141.563 152.772-141.563 227.164 0 14.349 2.154 28.203 6.141 41.242 10.303 33.645 32.859 61.935 62.487 79.66 21.217 2.066 46.188 3.289 72.935 3.289 26.048 0 50.438-1.135 71.276-3.143 29.803-17.783 52.504-46.306 62.749-80.184 3.9-12.952 6.025-26.66 6.025-40.863 0-75.557-46.363-227.165-140.05-227.165z" fill="#faf7f7" fill-rule="evenodd"/></g></g><g><g><path clip-rule="evenodd" d="m396.05 307.064c0-75.556-46.363-227.164-140.05-227.164-10.099 0-19.704 1.834-28.755 5.181 74.128 27.213 110.858 154.722 110.858 221.983 0 14.203-2.095 27.912-6.025 40.863 0 .029 0 .058-.029.087-10.245 33.849-32.917 62.343-62.69 80.097-12.922 1.252-27.154 2.154-42.317 2.649 9.342.32 19.034.495 28.959.495 26.048 0 50.438-1.135 71.276-3.143 29.803-17.783 52.504-46.306 62.749-80.184 3.899-12.952 6.024-26.66 6.024-40.864z" fill="#dedbee" fill-rule="evenodd"/></g></g><g><g><path d="m77.649 419.642c-2.958 2.958-2.958 7.754 0 10.713 1.48 1.479 3.418 2.218 5.356 2.218s3.877-.739 5.356-2.218l.029-.029c2.958-2.958 2.943-7.74-.015-10.698-2.957-2.958-7.768-2.946-10.726.014z"/></g><g><path d="m192.032 457.417c-3.007 2.908-3.089 7.703-.182 10.711 1.487 1.537 3.465 2.31 5.447 2.31 1.895 0 3.793-.707 5.264-2.128l.029-.028c3.007-2.908 3.075-7.689.167-10.696-2.907-3.01-7.717-3.077-10.725-.169z"/></g><g><path d="m343.611 462.747v-.029c0-4.183-3.391-7.56-7.575-7.56s-7.574 3.406-7.574 7.589 3.391 7.575 7.574 7.575 7.575-3.392 7.575-7.575z"/></g><g><path d="m441.162 407.303.029-.029c2.958-2.958 2.943-7.74-.015-10.698-2.959-2.957-7.77-2.945-10.727.015-2.958 2.959-2.958 7.754 0 10.713 1.48 1.479 3.418 2.218 5.356 2.218s3.877-.741 5.357-2.219z"/></g><g><path d="m256 46.728c4.183 0 7.575-3.391 7.575-7.575v-31.578c0-4.184-3.392-7.575-7.575-7.575s-7.575 3.391-7.575 7.575v31.579c0 4.182 3.392 7.574 7.575 7.574z"/></g><g><path d="m363.725 77.997c1.439 1.262 3.219 1.881 4.993 1.881 2.105 0 4.199-.872 5.696-2.579l20.838-23.75c2.759-3.145 2.447-7.931-.697-10.689-3.147-2.76-7.93-2.448-10.689.697l-20.838 23.75c-2.76 3.146-2.447 7.932.697 10.69z"/></g><g><path d="m137.616 77.3c1.497 1.706 3.591 2.579 5.696 2.579 1.774 0 3.554-.619 4.993-1.881 3.144-2.758 3.457-7.544.697-10.689l-20.838-23.75c-2.759-3.144-7.543-3.457-10.689-.697-3.144 2.758-3.457 7.544-.697 10.689z"/></g><g><path d="m399.256 342.773c2.875-11.63 4.368-23.621 4.368-35.709 0-33.574-9.342-91.763-35.671-145.261-13.065-26.546-28.389-47.65-45.547-62.724-20.206-17.752-42.548-26.753-66.406-26.753-48.406 0-91.423 38.825-121.127 109.324-1.624 3.855.185 8.297 4.04 9.922 3.853 1.623 8.296-.185 9.922-4.04 15.743-37.368 50.603-100.057 107.165-100.057 48.341 0 80.172 44.058 98.361 81.018 23.565 47.883 34.114 104.1 34.114 138.571 0 46.167-24.373 89.567-63.701 113.689-20.751 1.903-44.417 2.927-68.775 2.927-25.01 0-49.299-1.077-70.439-3.08-39.239-24.139-63.549-67.464-63.549-113.537 0-24.247 5.363-55.623 14.714-86.081 1.228-3.999-1.02-8.237-5.018-9.464-3.999-1.224-8.237 1.019-9.464 5.018-9.774 31.839-15.381 64.835-15.381 90.527 0 12.235 1.53 24.371 4.476 36.13-56.334 17.692-88.471 44.667-88.471 74.586 0 25.215 22.976 48.656 64.693 66.004 39.309 16.346 92.429 26.344 149.573 28.153.081.003.163.004.244.004 4.072 0 7.436-3.235 7.566-7.335.133-4.18-3.15-7.678-7.331-7.81-55.354-1.753-106.577-11.342-144.235-27.001-35.183-14.629-55.361-33.589-55.361-52.016 0-22.53 28.918-44.757 77.747-60.099 2.976 8.211 6.662 16.169 11.066 23.755 7.645 13.169 17.299 25.068 28.507 35.285-23.213-3.965-29.842-8.082-31.331-9.26-.718-3.436-3.765-6.017-7.414-6.017-4.183 0-7.575 3.391-7.575 7.575 0 10.986 14.118 17.926 47.207 23.204 26.71 4.26 62.144 6.607 99.776 6.607 37.633 0 73.074-2.346 99.791-6.607 33.099-5.278 47.222-12.218 47.222-23.204 0-4.183-3.391-7.575-7.575-7.575-3.649 0-6.695 2.58-7.414 6.016-1.527 1.208-8.457 5.508-33.145 9.564 11.323-10.277 21.07-22.272 28.779-35.56 4.479-7.72 8.214-15.824 11.215-24.187 23.776 7.351 43.463 16.565 57.209 26.833 9.992 7.462 21.901 19.362 21.901 33.671 0 18.58-20.469 37.658-56.16 52.34-38.223 15.724-90.071 25.219-145.991 26.734-4.181.113-7.48 3.595-7.366 7.777.111 4.112 3.479 7.369 7.568 7.369.069 0 .14-.001.209-.003 57.714-1.564 111.462-11.46 151.344-27.867 42.268-17.389 65.546-40.952 65.546-66.35 0-30.229-32.648-57.357-89.876-75.006z"/></g></g></g></svg>