<svg id="Capa_1" enable-background="new 0 0 497 497" height="512" viewBox="0 0 497 497" width="512" xmlns="http://www.w3.org/2000/svg"><g><path d="m259.971 28.026c27.155-27.155 66.556-34.568 100.418-22.276 6.815 2.474 12.186 7.844 14.659 14.659 12.292 33.862 4.879 73.263-22.276 100.418-29.946 29.946-74.784 35.883-110.664 17.862-18.02-35.88-12.083-80.717 17.863-110.663z" fill="#29ce69"/><path d="m237.029 28.026c-27.155-27.155-66.556-34.568-100.418-22.276-6.815 2.474-12.186 7.844-14.659 14.659-12.292 33.862-4.879 73.263 22.276 100.418 29.946 29.946 74.784 35.883 110.664 17.862 18.02-35.88 12.083-80.717-17.863-110.663z" fill="#73da8c"/><path d="m174.228 110.827c-27.155-27.155-34.568-66.556-22.276-100.418 1.377-3.793 3.654-7.138 6.576-9.786-7.44.842-14.801 2.544-21.917 5.126-6.815 2.474-12.185 7.845-14.659 14.659-12.292 33.863-4.879 73.263 22.276 100.418 29.946 29.946 74.784 35.883 110.664 17.863.131-.26.248-.525.376-.787-28.734 4.031-58.941-4.976-81.04-27.075z" fill="#29ce69"/><circle cx="248.5" cy="413.701" fill="#8c5ac5" r="83.299"/><path d="m195.201 413.701c0-40.88 29.457-74.858 68.299-81.925-4.868-.886-9.876-1.374-15-1.374-46.005 0-83.299 37.294-83.299 83.299s37.294 83.299 83.299 83.299c5.124 0 10.132-.487 15-1.373-38.841-7.068-68.299-41.045-68.299-81.926z" fill="#8049bf"/><circle cx="313.448" cy="290.238" fill="#996acc" r="83.299"/><circle cx="183.552" cy="290.238" fill="#b18cd9" r="83.299"/><path d="m130.253 290.238c0-40.88 29.457-74.858 68.299-81.925-4.868-.886-9.876-1.373-15-1.373-46.005 0-83.299 37.294-83.299 83.298s37.294 83.299 83.299 83.299c5.124 0 10.132-.487 15-1.374-38.841-7.067-68.299-41.045-68.299-81.925z" fill="#996acc"/><circle cx="118.603" cy="166.775" fill="#996acc" r="83.299"/><path d="m65.305 166.775c0-40.88 29.458-74.858 68.299-81.925-4.868-.886-9.876-1.373-15-1.373-46.005 0-83.299 37.294-83.299 83.298 0 46.005 37.294 83.299 83.299 83.299 5.124 0 10.132-.487 15-1.373-38.842-7.068-68.299-41.045-68.299-81.926z" fill="#8c5ac5"/><circle cx="378.397" cy="166.775" fill="#8049bf" r="83.299"/><circle cx="248.5" cy="166.775" fill="#8c5ac5" r="83.299"/><g><g><path d="m198.282 173.648c-4.142 0-7.5-3.358-7.5-7.5v-9.65c0-4.142 3.358-7.5 7.5-7.5s7.5 3.358 7.5 7.5v9.65c0 4.142-3.357 7.5-7.5 7.5z" fill="#423e4f"/></g><g><path d="m298.718 173.648c-4.142 0-7.5-3.358-7.5-7.5v-9.65c0-4.142 3.358-7.5 7.5-7.5s7.5 3.358 7.5 7.5v9.65c0 4.142-3.358 7.5-7.5 7.5z" fill="#423e4f"/></g><g><path d="m248.5 179.392c-7.242 0-14.128-3.136-18.894-8.604-2.721-3.123-2.396-7.86.727-10.582 3.123-2.721 7.859-2.397 10.582.726 1.916 2.198 4.681 3.459 7.585 3.459s5.669-1.261 7.585-3.459c2.721-3.123 7.458-3.448 10.582-.726 3.123 2.721 3.448 7.459.727 10.582-4.766 5.468-11.652 8.604-18.894 8.604z" fill="#423e4f"/></g></g></g></svg>