<?xml version="1.0" encoding="UTF-8" standalone="no"?>
<!-- Created with Inkscape (http://www.inkscape.org/) -->

<svg
   version="1.1"
   id="svg909"
   xml:space="preserve"
   width="682.66669"
   height="682.66669"
   viewBox="0 0 682.66669 682.66669"
   xmlns="http://www.w3.org/2000/svg"
   xmlns:svg="http://www.w3.org/2000/svg"><defs
     id="defs913"><clipPath
       clipPathUnits="userSpaceOnUse"
       id="clipPath923"><path
         d="M 0,512 H 512 V 0 H 0 Z"
         id="path921" /></clipPath></defs><g
     id="g915"
     transform="matrix(1.3333333,0,0,-1.3333333,0,682.66667)"><g
       id="g917"><g
         id="g919"
         clip-path="url(#clipPath923)"><g
           id="g925"
           transform="translate(242.7749,167.918)"><path
             d="m 0,0 c 42.052,23.729 96.2,19.844 134.745,-13.624 30.285,-26.295 43.84,-64.691 39.725,-101.749 -2.204,-19.856 -16.408,-36.214 -35.757,-41.183 -36.115,-9.274 -76.032,-1.24 -106.317,25.056 C -6.149,-98.033 -17.593,-44.965 0,0"
             style="fill:#9bd981;fill-opacity:1;fill-rule:nonzero;stroke:none"
             id="path927" /></g><g
           id="g929"
           transform="translate(295.5649,182.9316)"><path
             d="m 0,0 c -18.339,-0.778 -36.475,-5.808 -52.79,-15.014 -17.593,-44.965 -6.149,-98.033 32.396,-131.5 0.49,-0.426 0.99,-0.834 1.485,-1.25 31.06,40.41 39.551,95.01 20.506,143.681 z"
             style="fill:#8cd370;fill-opacity:1;fill-rule:nonzero;stroke:none"
             id="path931" /></g><g
           id="g933"
           transform="translate(269.2251,167.918)"><path
             d="m 0,0 c -42.052,23.729 -96.2,19.844 -134.745,-13.624 -30.285,-26.295 -43.84,-64.691 -39.725,-101.749 2.204,-19.856 16.408,-36.214 35.757,-41.183 36.115,-9.274 76.032,-1.24 106.317,25.056 C 6.149,-98.033 17.593,-44.965 0,0"
             style="fill:#9bd981;fill-opacity:1;fill-rule:nonzero;stroke:none"
             id="path935" /></g><g
           id="g937"
           transform="translate(130.7905,63.7407)"><path
             d="M 0,0 C 0,42.932 15.573,82.22 41.365,112.548 27.918,107.774 15.116,100.474 3.689,90.553 -26.596,64.258 -40.15,25.862 -36.036,-11.196 c 2.205,-19.855 16.409,-36.214 35.758,-41.182 2.956,-0.759 5.939,-1.391 8.939,-1.917 C 3.048,-37.21 0,-18.962 0,0"
             style="fill:#8cd370;fill-opacity:1;fill-rule:nonzero;stroke:none"
             id="path939" /></g><g
           id="g941"
           transform="translate(7.8052,237.561)"><path
             d="M 0,0 C 7.34,-117.66 142.949,-181.929 248.199,-100.12 353.378,-181.869 489.048,-117.719 496.388,0 c 2.84,45.5 -14.08,73.79 -48.91,119.64 -38.999,51.33 -99.56,99.199 -179.989,142.289 -12.08,6.47 -26.5,6.48 -38.58,0 C 148.469,218.839 87.919,170.97 48.919,119.64 14.08,73.79 -2.83,45.5 0,0"
             style="fill:#ffc9d3;fill-opacity:1;fill-rule:nonzero;stroke:none"
             id="path943" /></g><g
           id="g945"
           transform="translate(195.1182,270.7852)"><path
             d="m 0,0 c 0,-15.657 -15.938,-28.35 -35.6,-28.35 -19.661,0 -35.599,12.693 -35.599,28.35 0,15.657 15.938,28.35 35.599,28.35 C -15.938,28.35 0,15.657 0,0"
             style="fill:#ff889e;fill-opacity:1;fill-rule:nonzero;stroke:none"
             id="path947" /></g><g
           id="g949"
           transform="translate(316.8818,270.7852)"><path
             d="m 0,0 c 0,-15.657 15.938,-28.35 35.6,-28.35 19.661,0 35.599,12.693 35.599,28.35 0,15.657 -15.938,28.35 -35.599,28.35 C 15.938,28.35 0,15.657 0,0"
             style="fill:#ff889e;fill-opacity:1;fill-rule:nonzero;stroke:none"
             id="path951" /></g><g
           id="g953"
           transform="translate(104.4272,260.6821)"><path
             d="M 0,0 C 0,75.971 23.756,145.437 65.309,198.761 17.465,166.676 -20.405,132.446 -47.703,96.519 -82.542,50.669 -99.452,22.379 -96.622,-23.121 -91.655,-102.75 -27.933,-157.907 45.364,-159.896 16.612,-113.429 0,-58.658 0,0"
             style="fill:#ffb2c1;fill-opacity:1;fill-rule:nonzero;stroke:none"
             id="path955" /></g><g
           id="g957"
           transform="translate(197.2104,301.6348)"><path
             d="M 0,0 C 0,9.358 -7.586,16.945 -16.945,16.945 -26.303,16.945 -33.889,9.358 -33.889,0"
             style="fill:none;stroke:#000000;stroke-width:15;stroke-linecap:round;stroke-linejoin:round;stroke-miterlimit:10;stroke-dasharray:none;stroke-opacity:1"
             id="path959" /></g><g
           id="g961"
           transform="translate(314.7891,301.6348)"><path
             d="M 0,0 C 0,9.358 7.586,16.945 16.945,16.945 26.303,16.945 33.889,9.358 33.889,0"
             style="fill:none;stroke:#000000;stroke-width:15;stroke-linecap:round;stroke-linejoin:round;stroke-miterlimit:10;stroke-dasharray:none;stroke-opacity:1"
             id="path963" /></g><g
           id="g965"
           transform="translate(238.0259,281.8301)"><path
             d="m 0,0 c 4.37,-5.015 10.799,-8.189 17.974,-8.189 7.174,0 13.604,3.174 17.974,8.189"
             style="fill:none;stroke:#000000;stroke-width:15;stroke-linecap:round;stroke-linejoin:round;stroke-miterlimit:10;stroke-dasharray:none;stroke-opacity:1"
             id="path967" /></g><g
           id="g969"
           transform="translate(198.3501,107.2837)"><path
             d="M 0,0 C -5.712,-18.871 -18.176,-44.16 -45.156,-57.802"
             style="fill:none;stroke:#000000;stroke-width:15;stroke-linecap:round;stroke-linejoin:round;stroke-miterlimit:10;stroke-dasharray:none;stroke-opacity:1"
             id="path971" /></g><g
           id="g973"
           transform="translate(313.6572,107.2573)"><path
             d="M 0,0 C 5.716,-18.868 18.181,-44.139 45.148,-57.775"
             style="fill:none;stroke:#000000;stroke-width:15;stroke-linecap:round;stroke-linejoin:round;stroke-miterlimit:10;stroke-dasharray:none;stroke-opacity:1"
             id="path975" /></g><g
           id="g977"
           transform="translate(277.2412,123.1211)"><path
             d="m 0,0 c -0.396,-23.079 -7.547,-45.974 -21.237,-65.471 5.386,-7.667 11.773,-14.813 19.167,-21.233 30.285,-26.295 70.202,-34.329 106.316,-25.055 19.35,4.969 33.553,21.327 35.758,41.183 2.148,19.349 -0.53,39.059 -7.882,57.224 C 91.959,-28.019 44.314,-25.663 0,0 Z"
             style="fill:none;stroke:#000000;stroke-width:15;stroke-linecap:round;stroke-linejoin:round;stroke-miterlimit:10;stroke-dasharray:none;stroke-opacity:1"
             id="path979" /></g><g
           id="g981"
           transform="translate(256.0039,137.4414)"><path
             d="m 0,0 c -49.938,-38.816 -106.704,-44.729 -153.368,-27.674 -7.351,-18.165 -10.029,-37.874 -7.881,-57.222 2.205,-19.856 16.408,-36.214 35.758,-41.183 36.114,-9.274 76.031,-1.24 106.316,25.055 26.197,22.747 39.861,54.547 40.412,86.704 C 14.056,-10.162 6.96,-5.41 0,0 Z"
             style="fill:none;stroke:#000000;stroke-width:15;stroke-linecap:round;stroke-linejoin:round;stroke-miterlimit:10;stroke-dasharray:none;stroke-opacity:1"
             id="path983" /></g><g
           id="g985"
           transform="translate(98.561,403.3271)"><path
             d="m 0,0 c -15.93,-15.026 -29.897,-30.414 -41.836,-46.126 -34.84,-45.85 -51.75,-74.14 -48.92,-119.64 7.34,-117.66 142.949,-181.929 248.199,-100.12 73.057,-56.783 160.811,-43.159 210.066,9.899"
             style="fill:none;stroke:#000000;stroke-width:15;stroke-linecap:round;stroke-linejoin:round;stroke-miterlimit:10;stroke-dasharray:none;stroke-opacity:1"
             id="path987" /></g><g
           id="g989"
           transform="translate(484.209,171.6279)"><path
             d="m 0,0 c 11.294,19.081 18.45,41.331 19.984,65.934 2.84,45.499 -14.08,73.789 -48.91,119.639 -38.999,51.33 -99.559,99.199 -179.989,142.289 -12.08,6.47 -26.5,6.48 -38.58,0 -44.819,-24.008 -83.455,-49.503 -115.638,-76.251"
             style="fill:none;stroke:#000000;stroke-width:15;stroke-linecap:round;stroke-linejoin:round;stroke-miterlimit:10;stroke-dasharray:none;stroke-opacity:1"
             id="path991" /></g></g></g></g></svg>
