<svg id="Layer_1" enable-background="new 0 0 74 74" height="512" viewBox="0 0 74 74" width="512" xmlns="http://www.w3.org/2000/svg"><g><g><g><path d="m66.1 23.2c-.2-.5-.8-.7-1.3-.5-6.4 3-13.8 5.8-19.9 4.1-.8-.2-1.5-.6-1.9-1.3s-.6-1.5-.4-2.3.6-1.5 1.3-1.9 1.5-.6 2.3-.4h.2c.3 0 .8.2 1 .6.1.4-.2 1.3-1.5 2.4-.4.4-.5 1-.1 1.4s1 .5 1.4.1c2.3-2 2.4-3.6 2.1-4.6-.4-1.2-1.6-1.9-2.7-1.9-1.3-.3-2.6 0-3.7.7s-1.9 1.8-2.2 3.1c-.6 2.7 1.1 5.4 3.8 5.9 1.5.4 3 .6 4.5.6.7 0 1.4 0 2.2-.1v3.1c0 .6.4 1 1 1s1-.4 1-1v-3.4c4.2-.8 8.6-2.6 12.5-4.4.4-.1.6-.7.4-1.2z" fill="#552c00"/><g><g><path d="m56.6 49.4c.4.9.7 2 .7 3.1 0 3.5-2.3 6.4-5.2 6.4-2.8 0-5.2-2.8-5.2-6.4 0-1.1.2-2.2.7-3.1 3-4.6 6-4.6 9 0z" fill="#471d35"/></g></g><path d="m41.6 43.2c-1.3 3.8 1 8.9 5 8.9 2.5 0 4.6-2.1 5.2-4.9-1.4-7.9-5-8.5-10.2-4z" fill="#652945"/><path d="m62.2 43.2c.2.7.3 1.5.3 2.2 0 3.7-2.4 6.7-5.4 6.7s-5.4-3-5.4-6.7c0-.8.1-1.5.3-2.2 3.6-3.7 7-3.9 10.2 0z" fill="#652945"/><path d="m47.2 40.7c-.7 3.2-3 5.5-5.9 5.5-3.4 0-6.1-3.4-6.1-7.6s2.7-7.6 6.1-7.6c2.8 0 5.2 2.3 5.9 5.5z" fill="#a0575f"/><path d="m56.6 40.7c.7 3.2 3 5.5 5.8 5.5 3.4 0 6.1-3.4 6.1-7.6s-2.7-7.6-6.1-7.6c-2.8 0-5.2 2.3-5.8 5.5z" fill="#a0575f"/><path d="m58.2 38.7c0 4.2-2.7 7.5-6.1 7.5s-6.1-3.4-6.1-7.5 2.7-7.5 6.1-7.5c3.4-.1 6.1 3.3 6.1 7.5z" fill="#884147"/></g><path d="m31.4 33.2h-26c0-1.8.8-3.6 2.1-4.9 1.8-1.8 3.3-3.5 4.3-5.5.4-.8.8-1.6 1-2.5.5-1.5.7-3.2.7-5.2h9.9c0 2 .2 3.7.7 5.2.3.9.6 1.7 1 2.5 1 1.9 2.5 3.6 4.3 5.5 1.3 1.3 2 3.1 2 4.9z" fill="#e7f0ef"/><path d="m31.4 33.2h-26c0-1.8.8-3.6 2.1-4.9 1.8-1.8 3.3-3.5 4.3-5.5h13.3c1 1.9 2.5 3.6 4.3 5.5 1.3 1.3 2 3.1 2 4.9z" fill="#933d56"/><path d="m31.4 63.8v1.7c0 2-1.6 3.5-3.5 3.5h-18.9c-2 0-3.5-1.6-3.5-3.5v-1.7z" fill="#933d56"/><path d="m5.5 33.2h26v30.6h-26z" fill="#e7f0ef"/><path d="m26.7 48.5c0 4.5-3.7 8.2-8.2 8.2s-8.2-3.7-8.2-8.2c0-4.6 3.7-8.2 8.2-8.2s8.2 3.7 8.2 8.2z" fill="#a0575f"/><path d="m20.9 49.5c0 1.3-1.1 2.4-2.4 2.4s-2.4-1.1-2.4-2.4 2.4-4.5 2.4-4.5 2.4 3.2 2.4 4.5z" fill="#5f2f49"/></g><path d="m11.9 10.8h13.2v6.1h-13.2z" fill="#732115"/><path d="m25.1 8.3v2.5h-13.2v-2.5c0-1.9 1.5-3.4 3.3-3.4h6.6c1.8 0 3.3 1.5 3.3 3.4z" fill="#d1d6d9"/></g></svg>