<svg id="Capa_1" enable-background="new 0 0 512 512" height="512" viewBox="0 0 512 512" width="512" xmlns="http://www.w3.org/2000/svg"><g><path d="m496.545 313.656-23.396-160.185c-9.801-18.707-21.936-35.998-36.039-51.469-14.526-7.229-18.819-18.526-18.819-18.526-43.219-38.249-100.038-61.48-162.291-61.48-135.311 0-245.002 109.691-245.002 245.002 0 135.311 109.691 245.002 245.002 245.002 119.354 0 218.756-85.352 240.545-198.344z" fill="#352344"/><path d="m47.521 427.798c-10.98 6.742-17.828 18.845-17.73 31.951.032 4.245-1.888 8.219-5.241 10.822-10.174 7.898-11.88 23.593-2.044 33.429 9.838 9.838 25.531 8.128 33.429-2.044 2.603-3.353 6.577-5.274 10.822-5.241 13.112.099 25.214-6.756 31.953-17.731 2.34-3.811 6.326-6.327 10.796-6.477 14.204-.475 28.254-6.546 38.554-18.231 17.645-20.016 11.341-44.136-6.184-64.256-20.67-23.731-50.305-31.065-72.178-9.192-10.045 10.045-15.274 23.077-15.698 36.237-.146 4.448-2.687 8.405-6.479 10.733z" fill="#69c642"/><path d="m238.334 495.972c-5.61-2.746-8.295-8.651-9.559-13.122-1.193-4.222-4.478-7.536-8.786-8.866-7.974-2.461-12.863-7.901-14.532-16.171-1.28-6.339-.113-12.049-.102-12.105l.088-.421-22.093-60.632c-2.941 1.067-5.887 2.369-8.811 3.892-23.587 12.287-35.476 35.184-21.832 57.483 6.266 10.24 15.938 17.115 26.666 20.067 3.626.998 6.374 3.868 7.537 7.444 3.367 10.355 11.956 18.376 22.743 20.888 3.494.813 6.38 3.177 7.855 6.447 4.476 9.922 17.033 14.428 27.061 8.293 4.945-3.026 7.855-7.778 8.731-12.836-5.934 1.721-10.956 1.602-14.966-.361z" fill="#69c642"/><path d="m247.339 471.371c2.676-10.753-.562-22.052-8.246-29.76-2.668-2.676-3.947-6.449-3.186-10.151 2.42-11.764.211-24.508-7.351-35.282-11.362-16.189-28.963-17.863-46.612-11.001l21.943 60.22s-5.007 23.642 15.659 30.02c3.74 1.154 6.721 4.073 7.785 7.84 2.21 7.82 8.423 19.32 25.615 14.723 1.504-5.658.368-11.914-3.443-16.682-2.239-2.801-3.031-6.446-2.164-9.927z" fill="#94dc79"/><path d="m329.388 426.214c.341-1.03.617-2.07.862-3.113-6.6 2.977-12.73 3.628-18.288 1.924-11.348-3.478-16.641-15.753-16.692-15.877l-31.143-59.742-1.211.4c-7.178 2.367-13.333 2.033-18.293-1-5.696-3.485-8.78-9.876-10.341-14.456-16.415 13.619-23.131 33.375-12.551 54.05 6.37 12.448 16.995 21.288 29.193 25.667 4.122 1.48 7.06 5.057 8.094 9.313 2.993 12.324 12.258 22.4 24.564 26.273 3.986 1.254 7.127 4.255 8.551 8.183 4.32 11.919 18.504 18.265 30.693 12.028 12.191-6.238 15.337-21.454 8.199-31.929-2.354-3.452-2.951-7.755-1.637-11.721z" fill="#69c642"/><path d="m319.647 378.85c2.063-7.203 2.593-14.849 1.452-22.423-4.596 1.126-10.616 1.291-18.472-.547-21.036-4.922-21.076-28.906-20.238-38.377-9.543-.596-19.907 1.666-30.211 6.073-7.308 3.126-13.776 7.136-19.13 11.822 3.036 8.532 11.05 22.204 30.34 15.833l30.5 58.5s10.767 25.664 35.875 15.216c3.47-11.902.643-24.723-7.315-34.025-2.862-3.345-4.013-7.84-2.801-12.072z" fill="#94dc79"/><path d="m497.74 268.527c-9.159 1.093-16.25-5.505-17.036-6.27l-49.259-69.561-.676-.953-1.089.421c-10.751 4.147-19.33 4.132-25.498-.057-5.415-3.676-8.115-9.994-9.46-15.279-11.417 14.726-14.19 33.149-3.494 51.573 7.598 13.088 19.588 22.033 33.022 26.066 4.54 1.363 7.92 5.06 9.281 9.601 3.941 13.148 14.532 23.507 28.053 26.986 4.379 1.127 7.947 4.19 9.711 8.354 4.191 9.893 14.724 15.745 25.249 14.247 2.863-14.849 4.395-30.172 4.447-45.845-1.072.338-2.155.585-3.251.717z" fill="#94dc79"/><path d="m420.417 156.595c-11.302 5.559-20.565 13.054-26.851 21.757 3.083 10.833 11.832 24.792 36.655 15.212l49.333 69.667s9.352 9.644 21.419 6.158c.008-.797.029-1.592.029-2.391 0-40.972-10.072-79.587-27.853-113.527-15.109-8.42-34.196-5.993-52.732 3.124z" fill="#d2f09e"/><path d="m434.652 365.417c.114-.343.2-.69.305-1.035-6.847 4.319-13.401 6.021-19.572 5.034-13.23-2.12-20.408-16.053-20.466-16.167l-34.622-72.275-1.309.534c-12.226 4.983-23.469 5.343-33.42 1.067-11.475-4.93-18.752-15.011-22.416-21.398-11.975 15.936-15.055 35.841-4.498 56.471 8.047 15.725 21.469 26.892 36.877 32.423 5.208 1.869 8.919 6.388 10.225 11.765 3.781 15.569 15.484 28.297 31.03 33.189 5.035 1.585 9.004 5.375 10.802 10.338 5.457 15.057 23.376 23.074 38.772 15.195 15.4-7.88 19.375-27.102 10.357-40.335-2.972-4.36-3.726-9.796-2.065-14.806z" fill="#69c642"/><path d="m425.883 320.833c-3.615-4.225-5.069-9.903-3.538-15.249 3.513-12.265 3.522-25.546-.453-38.252-4.603 2.915-12.54 4.553-25.779-.986-19.145-8.01-16.962-27.789-14.537-37.522-13.712-2.431-29.142.383-44.461 6.935-14.904 6.374-27.052 15.65-34.942 26.756 6.831 11.662 24.719 33.697 57.381 20.381l34.012 71s14.153 28.141 40.793 12.607c.094-.363.173-.728.292-1.087 5.129-15.476 1.643-32.414-8.768-44.583z" fill="#94dc79"/><path d="m92.043 311.534-.57-.432-.694.172c-22.544 5.555-31.253-5.766-34.586-16.243-1.534-4.823-5.557-8.39-10.499-9.307-3.214-.597-5.386-2.086-6.641-4.552-2.425-4.768-.955-12.093.75-17.498-5.104.849-9.909 3.772-12.959 8.757-6.135 10.027-1.628 22.584 8.293 27.061 3.27 1.475 5.634 4.361 6.447 7.855 2.512 10.787 10.532 19.376 20.888 22.743 3.576 1.163 6.447 3.911 7.444 7.537 2.952 10.728 9.826 20.401 20.067 26.667 22.299 13.643 45.196 1.754 57.483-21.832 1.057-2.03 2.006-4.07 2.848-6.112-23.039 1.601-57.9-24.536-58.271-24.816z" fill="#69c642"/><path d="m139.834 288.446c-10.774-7.562-23.519-9.771-35.282-7.351-3.702.762-7.474-.517-10.151-3.185-7.708-7.684-19.007-10.922-29.76-8.246-3.481.866-7.126.074-9.928-2.165-4.743-3.791-10.957-4.931-16.591-3.463-2.544 8.518-4.165 21.035 7.298 23.164 4.42.821 7.98 4.002 9.343 8.286 3.047 9.576 11.737 23.32 36.375 17.245 0 0 34.621 26.191 58.515 25.164 8.176-18.582 7.237-37.478-9.819-49.449z" fill="#94dc79"/><path d="m181.607 276.702c-5.655-10.257-1.035-22.473-.987-22.596l.482-1.246-1.181-.623c-.196-.104-19.953-10.539-52.806-28.76-10.594-5.876-16.772-12.896-18.366-20.867-1.243-6.217.605-11.802 2.357-15.383-.437.127-.875.242-1.308.386-3.966 1.314-8.269.718-11.722-1.635-10.475-7.139-25.691-3.992-31.929 8.199-6.237 12.189.109 26.372 12.028 30.693 3.929 1.424 6.929 4.565 8.183 8.551 3.872 12.306 13.948 21.57 26.273 24.563 4.256 1.033 7.833 3.971 9.313 8.094 4.379 12.198 13.219 22.823 25.667 29.192 18.188 9.307 35.664 5.226 48.879-7.064-7.029-2.472-12.025-6.322-14.883-11.504z" fill="#69c642"/><path d="m198.788 202.767c-13.182-7.828-28.179-9.264-41.627-5.412-4.232 1.212-8.726.061-12.071-2.8-9.633-8.242-23.041-11.001-35.293-6.941-.205.068-.414.109-.621.167-3.593 8.22-6.197 24.026 17.211 37.009 33.25 18.441 52.833 28.775 52.833 28.775s-10.143 26.026 16.009 35.784c7.034-6.139 12.941-14.552 17.206-24.524 10.329-24.149 8.936-48.648-13.647-62.058z" fill="#94dc79"/><path d="m340.725 107.456c-7.958-13.875-1.983-31.26-1.923-31.435l.528-1.497-1.524-.442c-.334-.097-33.64-9.944-56.108-32.412-6.19-6.19-9.028-12.672-8.435-19.263.621-6.898 4.888-12.718 8.517-16.5-2.96.115-5.933.545-8.865 1.347-4.362 1.193-8.978.301-12.575-2.439-10.912-8.316-27.537-5.788-34.978 7.03-7.44 12.815-1.394 28.509 11.24 33.861 4.164 1.764 7.227 5.332 8.354 9.711 3.48 13.522 13.838 24.112 26.986 28.053 4.541 1.361 8.238 4.741 9.601 9.282 4.033 13.434 12.978 25.424 26.066 33.022 18.662 10.834 37.327 7.86 52.145-3.929-8.833-2.937-15.224-7.754-19.029-14.389z" fill="#94dc79"/><path d="m368.225 28.733c-13.798-9.216-29.924-11.628-44.678-8.235-4.643 1.067-9.435-.434-12.885-3.719-8.309-7.909-19.691-11.808-31.074-10.726-6.746 7.568-14.227 21.4 1.05 36.677 23 23 56.75 32.792 56.75 32.792s-12.571 35.546 20.928 47.418c8.421-6.273 15.682-15.341 21.101-26.355 12.546-25.506 12.445-52.064-11.192-67.852z" fill="#d2f09e"/><path d="m263.055 197.434c-6.931-7.676-3.431-20.061-3.395-20.183l4.382-14.898-1.256-.512c-.502-.204-50.631-20.668-82.441-37.683-8.871-4.746-14.267-10.995-16.035-18.573-2.033-8.708 1.144-17.417 3.742-22.628-4.256.715-8.632-.197-12.264-2.672-13.232-9.018-32.454-5.043-40.335 10.357-7.879 15.397.138 33.315 15.195 38.773 4.963 1.799 8.753 5.767 10.338 10.803 4.892 15.545 17.62 27.249 33.189 31.029 5.377 1.306 9.895 5.017 11.765 10.225 5.532 15.409 16.699 28.831 32.423 36.878 25.646 13.123 50.18 5.193 67.347-14.731-10.656.738-18.265-1.323-22.655-6.185z" fill="#69c642"/><path d="m268.625 134.455c-21.879-8.132-17.912-32.318-15.236-42.237-7.791-.53-15.562.319-22.961 2.439-5.346 1.531-11.023.077-15.249-3.538-12.168-10.411-29.107-13.897-44.583-8.768-1.42.47-2.874.726-4.328.813-4.683 9.849-10.148 29.738 13.37 42.317 32.25 17.25 82.583 37.75 82.583 37.75l-4 13.598s-8.782 29.928 26.069 28.371c6.362-6.98 11.787-15.551 15.962-25.313 6.626-15.492 9.421-31.094 6.843-44.922-7.073 3.035-20.369 6.218-38.47-.51z" fill="#94dc79"/><g fill="#108759"><path d="m265.224 279.885c.474-5.092 2.677-9.874 6.294-13.49l27.733-27.733c-3.534-.084-6.008-1.095-7.364-3.032-2.058-2.943-1.469-7.84-.22-12.197l-22.046 22.046c-3.606 3.606-8.369 5.819-13.447 6.291-19.978 1.857-38.054.508-53.843-2.484-6.214-1.178-10.836-6.386-11.362-12.688-.542-6.493-2.577-14.455-7.669-23.389-1.941-3.409-6.439-4.485-9.747-2.14-2.866 2.032-3.494 6.018-1.77 9.08 5.567 9.89 6.275 17.762 5.853 22.712-28.715-9.584-45.295-22.806-45.59-23.046-2.869-2.348-7.098-1.928-9.45.938-2.356 2.87-1.955 7.103.932 9.458 2.155 1.769 49.632 39.882 125.798 35.563l-61.452 61.452c-2.548 2.548-5.925 4.126-9.519 4.385-14.167 1.02-27.507-.452-39.202-2.99-5.616-1.219-9.908-5.771-10.829-11.443-.832-5.122-2.535-11.034-5.857-16.848-1.952-3.416-6.475-4.488-9.786-2.105-2.789 2.008-3.499 5.92-1.808 8.912 2.826 5.001 4.009 10.175 4.468 14.344-12.671-4.871-20.455-9.643-20.72-9.808-3.139-1.977-7.288-1.037-9.266 2.102-1.982 3.14-1.043 7.294 2.1 9.269 1.664 1.05 36.477 22.613 82.239 22.362l-106.809 106.809c-3.123 3.122-3.44 8.252-.412 11.467 3.132 3.327 8.371 3.386 11.579.178l36.105-36.105c1.636 6.86.993 12.176.969 12.364-.514 3.663 2.029 7.054 5.688 7.587 3.673.534 7.084-2.01 7.619-5.684.064-.441 1.074-7.853-1.216-17.42-1.204-5.032.418-10.325 4.076-13.983l46.201-46.201c-.251 45.762 21.311 80.575 22.362 82.239 1.979 3.147 6.121 4.075 9.26 2.102 3.14-1.974 4.084-6.123 2.113-9.265-.25-.399-23.275-37.762-19.934-83.805.259-3.569 1.843-6.915 4.373-9.446l59.558-59.558c-1.281 22.591 1.168 42.658 5.297 59.766 1.172 4.856-.295 9.963-3.886 13.436-9.778 9.458-14.443 21.612-14.697 22.288-1.305 3.475.453 7.35 3.93 8.655 3.474 1.304 7.35-.455 8.654-3.93.051-.137 4.4-11.207 12.661-18.483 9.998 27.158 22.603 42.849 23.603 44.067 2.352 2.883 6.59 3.288 9.458.932 2.87-2.354 3.287-6.589.932-9.459-.409-.501-38.985-48.541-31.954-124.072z"/><path d="m160.401 118.644c21.152 17.549 57.593 36.316 94.43 46.501-5.172 15.935-20.414 25.287-20.668 25.442-3.181 1.895-4.233 6.009-2.345 9.199 1.891 3.187 6.012 4.251 9.208 2.36.768-.455 14.758-8.897 23.007-24.397 2.011-3.779 5.623-6.266 9.672-7.044-2.537-2.126-3.823-4.319-3.818-6.548.007-3.342 2.841-6.268 4.964-7.993-12.152-2.524-23.334-5.76-33.334-9.251-5.349-1.867-9.058-6.734-9.428-12.387-.316-4.828-1.657-10.358-5.042-15.932-2.039-3.359-6.597-4.322-9.852-1.833-2.734 2.091-3.304 6.017-1.541 8.972 2.598 4.356 3.19 8.648 3.073 12.047-30.789-13.98-49.423-29.216-49.743-29.478-2.856-2.37-7.092-1.977-9.463.879-2.369 2.854-1.983 7.076.88 9.463z"/><path d="m365.82 280.967c10.149 3.556 20.873 11.285 25.052 14.789 2.841 2.385 7.079 2.018 9.466-.822 2.394-2.847 2.016-7.087-.819-9.469-7.448-6.284-19.103-13.738-30.068-17.427-2.397-.806-4.482-2.219-6.095-4.049-1.728 2.227-3.772 3.685-6.121 4.312-3.201.851-6.447.07-8.783-.843 2.017 9.093 4.488 18.102 7.425 26.986 1.63 4.929.439 10.408-3.147 14.162-10.934 11.442-15.706 26.641-15.959 27.464-1.087 3.545.906 7.294 4.445 8.387 3.542 1.094 7.303-.893 8.403-4.434.054-.174 4.689-14.778 14.47-23.771 10.849 25.558 25.102 48.313 34.268 59.362 2.38 2.868 6.61 3.25 9.464.878 2.856-2.372 3.249-6.609.878-9.464-.429-.52-27.584-33.841-42.879-86.061z"/></g><g fill="#d2f09e"><path d="m307.23 135.65c-2.366-13.687-9.937-25.677-24.217-34.157-9.697-5.758-20.171-8.761-30.584-9.318-2.721 10.011-6.869 34.756 15.459 43.055 18.599 6.913 32.21 3.535 39.342.42z"/><path d="m422.05 267.841c-1.542-5.068-3.696-10.051-6.541-14.842-8.566-14.426-20.718-21.998-34.58-24.28-2.479 9.81-4.85 30.095 14.709 38.279 13.675 5.721 21.778 3.899 26.412.843z"/><path d="m314.235 337.224c-7.829-13.185-19.441-19.136-32.554-19.76-.878 9.356-1.096 34.215 20.493 39.266 8.142 1.905 14.342 1.69 19.04.48-.923-6.832-3.199-13.621-6.979-19.986z"/></g><path d="m474.331 267.841c2.783 2.449 7.017 2.176 9.471-.603 2.452-2.778 2.161-7.012-.585-9.482-.151-.129-15.295-13.727-28.729-39.987-11.26-22.008-23.393-57.329-20.756-104.512.223-3.996 1.4-7.846 3.379-11.255-5.934-6.509-12.222-12.688-18.819-18.526-44.951 1.66-78.742-10.061-100.05-20.962-26.184-13.395-39.77-28.491-39.985-28.728-2.436-2.762-6.694-3.05-9.478-.601-2.788 2.451-3.06 6.697-.609 9.485.579.658 13.939 15.655 40.118 29.792-4.549 3.711-9.535 4.712-9.72 4.747-3.637.627-6.091 4.075-5.487 7.722.606 3.66 4.068 6.137 7.73 5.532.439-.073 7.677-1.345 14.782-6.642 3.862-2.879 8.991-3.463 13.47-1.689 22.211 8.801 52.14 16.074 89.105 14.8l-56.164 56.164c-4.139 4.139-9.605 6.673-15.432 7.226-26.944 2.555-51.857.129-73.57-4.547-3.557 3.208-7.761 9.072-1.035 15.379 2.227-.726 4.65-.921 7.058-.486 18.78 3.392 39.579 5.068 61.804 3.604l-51.244 51.244c-1.38 6.474-.788 13.69 8.249 14.563l44.896-44.896c-1.638 24.873.56 49.765 6.106 74.017 4.27 1.448 10.678 2.079 15.594-4.123-2.211-2.019-3.766-4.72-4.354-7.764-3.995-20.67-5.728-43.533-3.396-67.944.554-5.801 3.099-11.236 7.22-15.356l56.169-56.169c-.83 24.081 1.967 45.174 6.452 63.094 1.212 4.844-.168 10.015-3.783 13.459-10.971 10.451-15.435 23.362-15.668 24.053-1.182 3.51.704 7.302 4.208 8.5 3.506 1.193 7.321-.686 8.525-4.188.048-.14 4.084-11.596 13.525-19.83 10.998 29.579 28.86 54.311 41.003 64.909z" fill="#169e6d"/><g fill="#463354"><path d="m24.342 187.081c-6.686 19.385-11.02 39.867-12.632 61.112 54.485-4.71 30.608-40.913 12.632-61.112z"/><path d="m37.13 156.811c68.832 11.452 61.942-40.161 52.734-69.863-21.495 19.844-39.428 43.485-52.734 69.863z"/></g><g fill="#463354"><path d="m363.715 487.096c19.913-9.766 38.303-22.154 54.726-36.716-29.362-16.696-72.709-32.047-54.726 36.716z"/><path d="m271.037 511.533c18.161-1.1 35.785-4.179 52.665-9.023-24.763-17.06-55.191-30.466-52.665 9.023z"/></g></g></svg>