<svg height="512" viewBox="0 0 40 60" width="512" xmlns="http://www.w3.org/2000/svg"><g id="Page-1" fill="none" fill-rule="evenodd"><g id="026---Bottled-Food" fill-rule="nonzero"><path id="Shape" d="m30 13c4.8616065 2.6420115 7.8832131 7.7368935 7.87 13.27-.0011876 2.2987583-.5387744 4.5655257-1.57 6.62-1.0988652 2.174077-.9812953 4.7644076.31 6.83 3.3731157 5.4207186 3.1601843 12.3370455-.54 17.54-.750554 1.0833039-1.9821135 1.7326716-3.3 1.74h-25.54c-1.31788653-.0073284-2.54944598-.6566961-3.3-1.74-3.72784586-5.241499-3.91360994-12.217533-.47-17.65 1.2640289-2.0152409 1.36675097-4.5490518.27-6.66-1.26488937-2.4940943-1.79547137-5.2961221-1.53-8.08.46070073-5.0088384 3.38526794-9.4594298 7.8-11.87z" fill="#f44335"/><path id="Shape" d="m36.61 39.72c-1.2912953-2.0655924-1.4088652-4.655923-.31-6.83 1.0312256-2.0544743 1.5688124-4.3212417 1.57-6.62.0132131-5.5331065-3.0083935-10.6279885-7.87-13.27h-3c4.8616065 2.6420115 7.8832131 7.7368935 7.87 13.27-.0011876 2.2987583-.5387744 4.5655257-1.57 6.62-1.0988652 2.174077-.9812953 4.7644076.31 6.83 3.3731157 5.4207186 3.1601843 12.3370455-.54 17.54-.750554 1.0833039-1.9821135 1.7326716-3.3 1.74h3c1.3178865-.0073284 2.549446-.6566961 3.3-1.74 3.7001843-5.2029545 3.9131157-12.1192814.54-17.54z" fill="#c81e1e"/><path id="Shape" d="m24 7h6v6h-20v-6h6z" fill="#cfd8dc"/><path id="Shape" d="m30 7v-4c-.0032948-1.10320187-.8967981-1.9967052-2-2h-16c-1.1032019.0032948-1.9967052.89679813-2 2v4z" fill="#f5f5f5"/><path id="Shape" d="m28 1h-3c1.1032019.0032948 1.9967052.89679813 2 2v4h3v-4c-.0032948-1.10320187-.8967981-1.9967052-2-2z" fill="#cfd8dc"/><path id="Shape" d="m33.87 26.27c-.0506392 3.0081366-1.2658289 5.8794256-3.39 8.01-.2961004-.7678539-.7074897-1.4860992-1.22-2.13-2.2944194-2.7202563-5.7026685-4.2477113-9.26-4.15-3.5573315-.0977113-6.9655806 1.4297437-9.26 4.15-.4789386.6050638-.86950608 1.275089-1.16 1.99-2.45667711-2.2758518-3.71353591-5.5658646-3.4-8.9.42-4.51 2.77-6.24 5.41-6.24h16.83c3.78 0 5.45 3.45 5.45 7.27z" fill="#f5f5f5"/><path id="Shape" d="m28.42 19h-3c3.78 0 5.45 3.45 5.45 7.27-.0127507 2.0493157-.601866 4.0536939-1.7 5.784.027.033.06.062.086.1.5125103.6439008.9238996 1.3621461 1.22 2.13 2.1241711-2.1305744 3.3393608-5.0018634 3.39-8.01.004-3.824-1.666-7.274-5.446-7.274z" fill="#cfd8dc"/><path id="Shape" d="m35 48.09c-.0373116 2.7470093-2.2929535 4.94447-5.04 4.91h-19.92c-1.31971871.018152-2.5925022-.4891663-3.53788531-1.4101646-.94538312-.9209982-1.48578129-2.1800929-1.50211469-3.4998354.01328842-3.5199298 1.57506522-6.8556217 4.27-9.12 1.09 4.02 5.48 7.03 10.73 7.03 5.23 0 9.6-2.98 10.72-6.98 2.7140925 2.228939 4.2850076 5.5579575 4.28 9.07z" fill="#f5f5f5"/><path id="Shape" d="m30.72 39.02c-.2168929.7650686-.5468682 1.4934413-.979 2.161 1.4664469 2.0052575 2.2575343 4.4247452 2.259 6.909-.0373116 2.7470093-2.2929535 4.94447-5.04 4.91h3c2.7470465.03447 5.0026884-2.1629907 5.04-4.91.0050076-3.5120425-1.5659075-6.841061-4.28-9.07z" fill="#cfd8dc"/><path id="Shape" d="m29.26 32.15-3.23.64c-.268337.0564941-.502489.2189566-.649345.4505373-.1468561.2315807-.1939699.5126527-.130655.7794627l.31 1.21c.0886868.3547492-.0233262.729618-.2920994.9775561-.2687733.2479381-.6514436.3294051-.9979006.2124439l-4.27-1.42-4.27 1.42c-.346457.1169612-.7291273.0354942-.9979006-.2124439-.2687732-.2479381-.3807862-.6228069-.2920994-.9775561l.31-1.21c.0633149-.26681.0162011-.547882-.130655-.7794627-.146856-.2315807-.381008-.3940432-.649345-.4505373l-3.23-.64c2.2944194-2.7202563 5.7026685-4.2477113 9.26-4.15 3.5573315-.0977113 6.9655806 1.4297437 9.26 4.15z" fill="#a4c400"/><path id="Shape" d="m20 28c-.501212.0006894-1.0019935.0294008-1.5.086 3.0251849.2654097 5.8189311 1.7285263 7.76 4.064l-3.23.64c-.268337.0564941-.502489.2189566-.649345.4505373-.1468561.2315807-.1939699.5126527-.130655.7794627l.31 1.21c.0498681.201642.0341037.4139351-.045.606l1.755.584c.346457.1169612.7291273.0354942.9979006-.2124439.2687732-.2479381.3807862-.6228069.2920994-.9775561l-.31-1.21c-.0633149-.26681-.0162011-.547882.130655-.7794627.146856-.2315807.381008-.3940432.649345-.4505373l3.23-.64c-2.2944194-2.7202563-5.7026685-4.2477113-9.26-4.15z" fill="#90ac00"/><path id="Shape" d="m31 37c-.0018807.6828744-.0960669 1.3623606-.28 2.02-1.12 4-5.49 6.98-10.72 6.98-5.25 0-9.64-3.01-10.73-7.03-.18127747-.6408939-.27215531-1.3039656-.27-1.97-.00088288-.9826288.19638163-1.9553469.58-2.86.29049392-.714911.6810614-1.3849362 1.16-1.99l3.23.64c.268337.0564941.502489.2189566.649345.4505373.1468561.2315807.1939699.5126527.130655.7794627l-.31 1.21c-.0886868.3547492.0233262.729618.2920994.9775561.2687733.2479381.6514436.3294051.9979006.2124439l4.27-1.42 4.27 1.42c.346457.1169612.7291273.0354942.9979006-.2124439.2687732-.2479381.3807862-.6228069.2920994-.9775561l-.31-1.21c-.0633149-.26681-.0162011-.547882.130655-.7794627.146856-.2315807.381008-.3940432.649345-.4505373l3.23-.64c.5125103.6439008.9238996 1.3621461 1.22 2.13.3440895.865535.5205534 1.7885774.52 2.72z" fill="#f44335"/><path id="Shape" d="m30.48 34.28c-.2961004-.7678539-.7074897-1.4860992-1.22-2.13l-2.645.524c.3488622.500455.639097 1.0393186.865 1.606.3440895.865535.5205534 1.7885774.52 2.72-.0018807.6828744-.0960669 1.3623606-.28 2.02-1.011 3.61-4.671 6.381-9.219 6.889.4975796.0582536.9980276.0886343 1.499.091 5.23 0 9.6-2.98 10.72-6.98.1839331-.6576394.2781193-1.3371256.28-2.02.0005534-.9314226-.1759105-1.854465-.52-2.72z" fill="#c81e1e"/><ellipse id="Oval" cx="20" cy="7" fill="#9e9e9e" rx="4" ry="2"/><g fill="#000"><path id="Shape" d="m7.405 31.428c.50711786-.218028.74165901-.8057237.524-1.313-.64694065-1.5059508-.90583921-3.1501114-.753-4.782.324-3.439 1.887-5.333 4.414-5.333h16.83c3.281 0 4.45 3.239 4.45 6.27-.0008534 1.3228957-.2731347 2.6315476-.8 3.845-.2181525.5075497.0164503 1.0958475.524 1.314s1.0958475-.0164503 1.314-.524c.6334652-1.4631716.9605197-3.0405882.961-4.635 0-5.024-2.532-8.27-6.45-8.27h-16.829c-3.59 0-5.99 2.672-6.406 7.147-.18351296 1.964968.12831814 3.9445969.907 5.758.10488651.243607.3022532.4355679.54867837.5336503.24642516.0980825.52172123.0942514.76532163-.0106503z"/><path id="Shape" d="m10.04 54h19.92c3.2982008.0316671 5.999908-2.6118909 6.04-5.91-.0004192-2.1174249-.5261199-4.2016735-1.53-6.066-.1700584-.3143937-.4949259-.5141804-.8522281-.5241024-.3573022-.0099219-.6927563.1715282-.88.476-.1872438.3044718-.1978303.6857087-.0277719 1.0001024.8466921 1.5716034 1.2899507 3.328832 1.29 5.114-.03889 2.1940339-1.8458676 3.9428662-4.04 3.91h-19.92c-2.19391343.0323134-4.0005647-1.716203-4.04-3.91.00418437-1.7861704.44789967-3.54386 1.292-5.118.16862937-.3151083.15634108-.696243-.03223599-.9998344-.18857707-.3035915-.52479358-.4835169-.88200002-.472-.35720643.0115168-.68113464.2127261-.84976399.5278344-.99866396 1.8648185-1.52340565 3.9466143-1.528 6.062.04009196 3.2981091 2.74179923 5.9416671 6.04 5.91z"/><path id="Shape" d="m0 48.09c-.0027189 3.4931363 1.0852296 6.8999674 3.112 9.745.93927142 1.3479952 2.47506663 2.1554251 4.118 2.165h25.54c1.6417164-.0093695 3.1765884-.8155876 4.116-2.162 3.9329007-5.5317093 4.1588354-12.884249.573-18.647-1.1126776-1.7686316-1.2133286-3.9920703-.265-5.854 1.104874-2.1917335 1.6789862-4.6125279 1.676-7.067-.0090246-5.6752377-2.9969819-10.9290312-7.87-13.838v-9.432c0-1.65685425-1.3431458-3-3-3h-16c-1.6568542 0-3 1.34314575-3 3v9.43c-4.41960688 2.6369215-7.31693237 7.2232391-7.8 12.347-.27805521 2.9713957.29015647 5.9608339 1.639 8.623.9394816 1.7967403.85380578 3.957294-.225 5.674-1.706883 2.6974532-2.61332151 5.8238686-2.614 9.016zm12-46.09h16c.5522847 0 1 .44771525 1 1v3h-4.286c-.659-1.186-2.457-2-4.714-2s-4.055.814-4.714 2h-4.286v-3c0-.55228475.4477153-1 1-1zm-1 6h4.286c.659 1.186 2.457 2 4.714 2s4.055-.814 4.714-2h4.286v4h-18zm6-1c0-.249 1.064-1 3-1s3 .751 3 1-1.064 1-3 1-3-.751-3-1zm-12.377 25.5c-1.17657878-2.3278978-1.66994269-4.9413743-1.423-7.538.43382585-4.5909108 3.07873215-8.6819878 7.087-10.962h19.44c4.4378693 2.4839476 7.1742235 7.1843629 7.143 12.27.0019324 2.142821-.4991756 4.2561745-1.463 6.17-1.2647134 2.4835144-1.1302584 5.4491188.354 7.808 3.160626 5.0798158 2.9603049 11.5610696-.508 16.436-.5650455.8156366-1.4908079 1.3062944-2.483 1.316h-25.54c-.99314135-.010018-1.91964521-.5014193-2.485-1.318-3.49259527-4.9110681-3.666501-11.4471569-.44-16.537 1.45868221-2.3102394 1.57978265-5.2216006.318-7.645z"/><path id="Shape" d="m23.707 22.293c-.3904999-.3903819-1.0235001-.3903819-1.414 0-1.303855 1.3220104-2.2599869 2.9463697-2.783 4.728-6.389.216-11.51 4.603-11.51 9.979 0 5.514 5.383 10 12 10s12-4.486 12-10c0-5.062-4.54-9.247-10.4-9.9.4442031-1.2726158 1.1647978-2.4310316 2.11-3.392.1873799-.1879661.2923503-.4427124.2917876-.7081218s-.1066123-.5197084-.2947876-.7068782zm-3.707 22.707c-5.514 0-10-3.589-10-8 .0086061-1.336803.4156109-2.6406806 1.169-3.745l2.606.52-.3 1.215c-.177352.7083099.0453972 1.4569781.5811099 1.9531318.5357128.4961538 1.2992377.6609294 1.9918901.4298682l3.952-1.319 3.955 1.319c.6926524.2310612 1.4561773.0662856 1.9918901-.4298682.5357127-.4961537.7584619-1.2448219.5811099-1.9531318l-.3-1.215 2.605-.52c.7526809 1.1045455 1.1589839 2.4084054 1.167 3.745 0 4.411-4.486 8-10 8zm7.273-13.473-1.438.287c-.5368485.1067898-1.0064694.4289426-1.2993706.8913486s-.3834841 1.0246523-.2506294 1.5556514l.3 1.214-4.272-1.424c-.2051274-.0683211-.4268726-.0683211-.632 0l-4.273 1.425.3-1.215c.1328933-.5307118.0425772-1.092696-.2499101-1.5550452-.2924874-.4623492-.7616095-.7846964-1.2980899-.8919548l-1.44-.287c1.8012901-1.4772642 4.0227116-2.3486157 6.348-2.49-.0406989.3194717-.0634014.6409792-.068.963 0 .5522847.4477153 1 1 1s1-.4477153 1-1c.0114609-.3193574.0431915-.6376647.095-.953 2.2655459.1709035 4.4231046 1.0370002 6.178 2.48z"/></g></g></g></svg>