<svg id="Layer_1" enable-background="new 0 0 512 424.7" height="512" viewBox="0 0 512 424.7" width="512" xmlns="http://www.w3.org/2000/svg" xmlns:xlink="http://www.w3.org/1999/xlink"><linearGradient id="lg1"><stop offset="0" stop-color="#ff5c5c"/><stop offset=".1081" stop-color="#f55354"/><stop offset="1" stop-color="#a60b15"/></linearGradient><linearGradient id="SVGID_1_" gradientTransform="matrix(.871 -.492 .492 .871 2286.405 -3460.192)" gradientUnits="userSpaceOnUse" x1="-3572.361" x2="-3572.361" xlink:href="#lg1" y1="2090.849" y2="2180.512"/><linearGradient id="lg2"><stop offset=".02291491" stop-color="#ffe1d7"/><stop offset="1" stop-color="#ffb18c"/></linearGradient><linearGradient id="SVGID_2_" gradientTransform="matrix(.871 -.492 .492 .871 2286.405 -3460.192)" gradientUnits="userSpaceOnUse" x1="-3572.361" x2="-3572.361" xlink:href="#lg2" y1="2144.459" y2="2194.823"/><linearGradient id="SVGID_3_" gradientTransform="matrix(.871 -.492 .492 .871 2286.405 -3460.192)" gradientUnits="userSpaceOnUse" x1="-3572.361" x2="-3572.361" xlink:href="#lg1" y1="2173.994" y2="2244.792"/><linearGradient id="SVGID_4_" gradientTransform="matrix(1 -.001 .001 1 -226.594 51.6)" gradientUnits="userSpaceOnUse" x1="501.1" x2="501.1" xlink:href="#lg1" y1="225.022" y2="300.604"/><linearGradient id="SVGID_5_" gradientTransform="matrix(1 -.001 .001 1 -226.594 51.6)" gradientUnits="userSpaceOnUse" x1="501.1" x2="501.1" xlink:href="#lg2" y1="279.689" y2="330.053"/><linearGradient id="SVGID_6_" gradientTransform="matrix(1 -.001 .001 1 -226.594 51.6)" gradientUnits="userSpaceOnUse" x1="501.1" x2="501.1" xlink:href="#lg1" y1="313.786" y2="384.01"/><g><g><path d="m1.6 239.8c-3.7-6.6-.7-15 6.5-17.6 24.8-9 36.7 2.6 66.4-14.2 34.4-19.5 23.9-38.1 58.3-57.6s45-.8 79.4-20.3 23.9-38.1 58.3-57.6 45-.8 79.4-20.3c29.7-16.8 25.9-32.9 46.4-49.6 5.9-4.8 14.7-3.1 18.4 3.6l15.3 27.2c-34.4 19.5-23.9 38.1-58.3 57.6s-45 .8-79.4 20.3-23.9 38.1-58.3 57.6-45 .8-79.4 20.3-23.9 38.1-58.3 57.6-45 .8-79.4 20.3z" fill="url(#SVGID_1_)"/><path d="m16.9 266.8c34.4-19.5 45-.8 79.4-20.3s23.9-38.1 58.3-57.6 45-.8 79.4-20.3 23.9-38.1 58.3-57.6 45-.8 79.4-20.3 23.9-38.1 58.3-57.6l21.8 38.9c-34.4 19.5-23.9 38.1-58.3 57.6s-45 .8-79.4 20.3-23.9 38.1-58.3 57.6-45 .8-79.4 20.3-23.9 38.1-58.3 57.6-45 .8-79.4 20.3z" fill="url(#SVGID_2_)"/><path d="m38.7 305.5c34.4-19.5 45-.8 79.4-20.3s23.9-38.1 58.3-57.6 45-.8 79.4-20.3 23.9-38.1 58.3-57.6 45-.8 79.4-20.3 23.9-38.1 58.3-57.6l16.1 28.5c3.1 5.4 1.6 12.3-3.4 16-23.7 17.4-18.2 34.2-49.2 51.7-34.4 19.5-45 .8-79.4 20.3s-23.9 38.1-58.3 57.6-45 .8-79.4 20.3-23.9 38.1-58.3 57.6c-31 17.5-42.6 4.2-69.7 15.5-5.7 2.4-12.4.1-15.4-5.3z" fill="url(#SVGID_3_)"/></g><g><path d="m37.4 283.5c0-7.6 6.8-13.4 14.3-12.2 26 4.4 30.7 20.3 64.8 20.3 39.5 0 39.5-21.4 79.1-21.5 39.5 0 39.6 21.4 79.1 21.4s39.5-21.4 79.1-21.5c39.5 0 39.6 21.4 79.1 21.4 34.1 0 38.8-15.9 64.8-20.4 7.5-1.3 14.3 4.6 14.3 12.2v31.1c-39.5 0-39.5 21.4-79.1 21.5s-39.6-21.4-79.1-21.4-39.5 21.4-79.1 21.5c-39.5 0-39.6-21.4-79.1-21.4s-39.5 21.4-79.1 21.5c-39.5 0-39.5-21.4-79.1-21.4z" fill="url(#SVGID_4_)"/><path d="m37.4 314.6c39.6 0 39.6 21.4 79.1 21.4s39.5-21.4 79.1-21.5c39.5 0 39.6 21.4 79.1 21.4s39.5-21.4 79.1-21.5c39.5 0 39.6 21.4 79.1 21.4s39.5-21.4 79.1-21.5v44.4c-39.5 0-39.5 21.4-79.1 21.5s-39.6-21.4-79.1-21.4-39.5 21.4-79.1 21.5c-39.5 0-39.6-21.4-79.1-21.4s-39.5 21.4-79.1 21.5c-39.5 0-39.5-21.4-79-21.4z" fill="url(#SVGID_5_)"/><path d="m37.5 359c39.5 0 39.6 21.4 79.1 21.4s39.5-21.4 79.1-21.5c39.5 0 39.6 21.4 79.1 21.4s39.5-21.4 79.1-21.5c39.5 0 39.6 21.4 79.1 21.4s39.5-21.4 79.1-21.5v32.8c0 6.2-4.6 11.5-10.8 12.2-29.1 3.5-32.7 20.8-68.3 20.9-39.5 0-39.6-21.4-79.1-21.4s-39.5 21.4-79.1 21.5c-39.5 0-39.6-21.4-79.1-21.4s-39.5 21.4-79.1 21.5c-35.6 0-39.2-17.3-68.3-20.8-6.2-.7-10.8-6-10.8-12.2z" fill="url(#SVGID_6_)"/></g></g></svg>