<svg id="Capa_1" enable-background="new 0 0 512 512" height="512" viewBox="0 0 512 512" width="512" xmlns="http://www.w3.org/2000/svg"><g><circle cx="188.805" cy="235.783" fill="#ffe177" r="188.805"/><path d="m230.367 419.998c-13.373 3.007-27.276 4.589-41.555 4.589-104.277.001-188.812-84.534-188.812-188.801 0-104.277 84.535-188.812 188.812-188.812 14.278 0 28.182 1.582 41.555 4.589-84.296 18.92-147.278 94.224-147.278 184.223s62.982 165.293 147.278 184.212z" fill="#fece85"/><g><path d="m239.54 225.901c-1.506 3.74-4.904 6.048-8.564 6.436-2.343.256-4.797-.286-6.925-1.742-30.399-20.752-54.199-51.605-65.69-89.57-11.5-37.969-8.814-76.838 4.977-110.964.967-2.393 2.701-4.206 4.788-5.301 3.262-1.707 7.37-1.664 10.7.608 30.4 20.752 54.203 51.595 65.69 89.57 11.501 37.968 8.815 76.837-4.976 110.963z" fill="#bbec6c"/><path d="m230.976 232.337c-2.343.256-4.797-.286-6.925-1.742-30.399-20.752-54.199-51.605-65.69-89.57-11.5-37.969-8.814-76.838 4.977-110.964.967-2.393 2.701-4.206 4.788-5.301-.841 30.767 4.517 68.689 16.506 108.309 12.003 39.614 28.579 74.135 46.344 99.268z" fill="#a2e62e"/></g><g><path d="m314.29 188.751c-.12 4.03-2.51 7.37-5.81 9-2.11 1.05-4.6 1.39-7.1.76-35.7-8.96-68.7-29.68-92.61-61.33-23.92-31.65-34.84-69.05-33.7-105.84.08-2.58 1.08-4.88 2.66-6.63 2.47-2.73 6.34-4.11 10.25-3.13 35.7 8.96 68.7 29.67 92.61 61.33 23.92 31.65 34.84 69.05 33.7 105.84z" fill="#bbec6c"/><path d="m308.48 197.751c-2.11 1.05-4.6 1.39-7.1.76-35.7-8.96-68.7-29.68-92.61-61.33-23.92-31.65-34.84-69.05-33.7-105.84.08-2.58 1.08-4.88 2.66-6.63 9.85 29.16 27.99 62.89 52.94 95.92 24.96 33.02 52.45 59.68 77.81 77.12z" fill="#a2e62e"/></g><g><path d="m511.977 314.087c-5.505 86.71-69.56 157.529-153.075 173.337-11.458 2.175-23.27 3.309-35.352 3.309-100.187 0-182.152-78.041-188.416-176.646-.416-6.567 4.746-12.155 11.323-12.155h354.198c6.576 0 11.738 5.589 11.322 12.155z" fill="#ffe177"/><path d="m358.902 487.424c-11.458 2.175-23.27 3.309-35.352 3.309-100.187 0-182.152-78.041-188.416-176.646-.416-6.567 4.746-12.155 11.323-12.155h73.618c-3.591 40.67 3.995 135.3 138.827 185.492z" fill="#fece85"/><path d="m475.243 301.93c0 24.879-5.985 48.357-16.607 69.074-2.359 4.605-4.935 9.066-7.737 13.372-11.641 17.946-26.96 33.265-44.906 44.906-4.306 2.802-8.767 5.378-13.372 7.737-18.554 9.509-39.332 15.308-61.347 16.411-2.565.134-5.141.196-7.726.196-2.596 0-5.172-.062-7.726-.196-9.612-.484-18.986-1.854-28.042-4.038-11.693-2.823-22.849-7.005-33.306-12.372-4.595-2.349-9.066-4.935-13.372-7.737-17.935-11.641-33.265-26.97-44.895-44.906-2.802-4.306-5.388-8.777-7.737-13.372-10.621-20.717-16.607-44.195-16.607-69.074h303.38z" fill="#fe646f"/><path d="m287.781 449.387c-66.51-16.079-115.912-76.001-115.912-147.455h48.205c-2.81 31.825 1.228 96.68 67.707 147.455z" fill="#fd4755"/><path d="m450.9 384.375-106.243-61.337 61.337 106.243c-4.306 2.802-8.767 5.378-13.372 7.737l-61.347-106.253v122.664c-2.565.134-5.141.196-7.726.196-2.596 0-5.172-.062-7.726-.196v-122.664l-61.347 106.253c-4.595-2.349-9.066-4.935-13.372-7.737l61.337-106.243-106.232 61.337c-2.802-4.306-5.388-8.777-7.737-13.372l119.635-69.074h30.895l119.635 69.074c-2.359 4.605-4.935 9.066-7.737 13.372z" fill="#f99675"/></g><g fill="#fece85"><g><path d="m327.546 252.851c-4.267 0-7.726-3.459-7.726-7.726v-.52c0-4.267 3.459-7.726 7.726-7.726s7.726 3.459 7.726 7.726v.52c.001 4.266-3.459 7.726-7.726 7.726z"/><path d="m341.717 272.978c-4.267 0-7.726-3.459-7.726-7.726v-.521c0-4.267 3.459-7.726 7.726-7.726s7.726 3.459 7.726 7.726v.521c0 4.267-3.459 7.726-7.726 7.726z"/><path d="m317.85 273.238c-4.267 0-7.726-3.459-7.726-7.726v-.52c0-4.267 3.459-7.726 7.726-7.726s7.726 3.459 7.726 7.726v.52c0 4.267-3.459 7.726-7.726 7.726z"/></g><g><path d="m139.623 163.063c-1.811 0-3.63-.633-5.098-1.923-3.205-2.817-3.519-7.699-.702-10.904l.344-.391c2.818-3.205 7.699-3.519 10.904-.702s3.519 7.699.702 10.904l-.344.391c-1.527 1.738-3.661 2.625-5.806 2.625z"/><path d="m136.979 187.537c-1.811 0-3.63-.633-5.098-1.923-3.205-2.817-3.519-7.699-.702-10.904l.344-.391c2.818-3.205 7.699-3.519 10.904-.702s3.519 7.699.702 10.904l-.344.391c-1.527 1.737-3.661 2.625-5.806 2.625z"/><path d="m118.88 171.975c-1.811 0-3.63-.633-5.098-1.923-3.205-2.817-3.519-7.699-.702-10.904l.344-.391c2.818-3.205 7.699-3.519 10.904-.702s3.519 7.699.702 10.904l-.344.391c-1.527 1.738-3.661 2.625-5.806 2.625z"/></g></g></g></svg>