<svg id="Layer_1" enable-background="new 0 0 512 512" height="512" viewBox="0 0 512 512" width="512" xmlns="http://www.w3.org/2000/svg"><g><path d="m218.075 102.016c4.362-12.596 15.144-28.236 41.815-31.602 0 0-36.711-25.519-63.573 2.686 0 0-2.798-42.532-27.59-63.126-24.791 20.594-27.589 63.126-27.589 63.126-26.862-28.205-63.573-2.686-63.573-2.686 26.671 3.366 37.452 19.007 41.815 31.602-68.345 17.023-119.38 79.093-119.38 152.514v29.212c0 77.682 57.13 142.657 131.446 155.015 7.481 12.817 21.37 21.435 37.281 21.435s29.8-8.618 37.281-21.435c74.317-12.358 131.446-77.333 131.446-155.015v-29.212c0-73.421-51.035-135.491-119.379-152.514z" fill="#d10b2f"/><path d="m318.682 180.298c-141.473-14.669-201.697 152.621-159.603 230.656-123.496-40.987-143.715-229.326-47.009-306.92-160.96 47.588-147.791 308.486 19.376 334.723 17.183 28.393 57.591 28.617 74.561 0 162.635-33.545 140.779-213.982 112.675-258.459z" opacity=".2"/><path d="m455.126 213.233c8.358-9.067 23.285-18.341 47.145-11.331 0 0-21.69-35.217-54.9-21.236 0 0 13.358-37.099-.046-63.731-28.639 8.293-46.742 43.322-46.742 43.322-12.345-33.851-52.912-25.791-52.912-25.791 21.365 12.716 24.735 29.971 23.777 42.264-64.251-10.849-130.488 22.907-157.645 85.166l-10.805 24.77c-28.732 65.869-4.322 142.094 54.123 180.06 1.603 13.634 10.192 26.079 23.683 31.964s28.456 3.714 39.539-4.386c67.586 17.009 140.061-16.956 168.793-82.825l10.805-24.77c27.156-62.256 6.84-133.763-44.815-173.476z" fill="#d10b2f"/><path d="m283.919 464.139c-65.708-28.662-95.848-105.439-67.186-171.147l11.05-25.333c28.662-65.709 105.439-95.849 171.147-67.187l20.092 8.764c65.708 28.662 95.848 105.438 67.186 171.148l-11.05 25.333c-28.662 65.708-105.439 95.848-171.147 67.186z" fill="#ffcdb0"/><g fill="#6e0618"><path d="m375.509 244.805c4.802-11.009-2.591-23.581-14.562-24.556-48.376-3.941-96.039 22.768-116.529 69.743s-7.642 100.079 28.156 132.854c8.858 8.111 23.103 4.977 27.905-6.032z"/><path d="m402.462 256.562-75.03 172.008c-4.802 11.009 2.591 23.581 14.562 24.556 48.376 3.941 96.039-22.768 116.529-69.743 20.49-46.974 7.642-100.079-28.156-132.854-8.859-8.11-23.103-4.976-27.905 6.033z"/></g><g><circle cx="316.639" cy="266.383" fill="#d10b2f" r="16.359"/><path d="m316.628 279.228c-8.282-3.612-12.067-13.254-8.454-21.536 1.442-3.306 3.854-5.88 6.748-7.568-5.657.603-10.84 4.131-13.277 9.718-3.612 8.282.173 17.923 8.454 21.536 4.975 2.17 10.433 1.655 14.788-.886-2.728.291-5.564-.089-8.259-1.264z" opacity=".2"/><ellipse cx="325.346" cy="262.616" fill="#ffcdb0" rx="2.949" ry="4.894" transform="matrix(.931 -.365 .365 .931 -73.464 137.048)"/></g><g><circle cx="343.519" cy="282.792" fill="#d10b2f" r="16.359"/><path d="m343.508 295.637c-8.282-3.612-12.067-13.254-8.454-21.536 1.442-3.306 3.854-5.88 6.748-7.568-5.657.603-10.84 4.131-13.277 9.718-3.612 8.282.173 17.923 8.454 21.536 4.975 2.17 10.433 1.655 14.788-.886-2.729.291-5.565-.089-8.259-1.264z" opacity=".2"/><ellipse cx="352.226" cy="279.025" fill="#ffcdb0" rx="2.949" ry="4.894" transform="matrix(.931 -.365 .365 .931 -77.602 148.005)"/></g><g><circle cx="316.699" cy="296.388" fill="#d10b2f" r="16.359"/><path d="m316.688 309.233c-8.282-3.612-12.067-13.254-8.454-21.536 1.442-3.306 3.854-5.88 6.748-7.568-5.657.603-10.84 4.132-13.277 9.719-3.612 8.282.173 17.923 8.454 21.536 4.975 2.17 10.433 1.655 14.788-.886-2.729.29-5.565-.09-8.259-1.265z" opacity=".2"/><ellipse cx="325.406" cy="292.621" fill="#ffcdb0" rx="2.949" ry="4.894" transform="matrix(.931 -.365 .365 .931 -84.425 139.145)"/></g><g><circle cx="330.095" cy="317.369" fill="#d10b2f" r="16.359"/><path d="m330.084 330.214c-8.282-3.612-12.067-13.254-8.454-21.536 1.442-3.306 3.854-5.88 6.748-7.568-5.657.603-10.84 4.131-13.277 9.719-3.612 8.282.173 17.923 8.454 21.536 4.975 2.17 10.433 1.655 14.788-.886-2.728.29-5.564-.09-8.259-1.265z" opacity=".2"/><ellipse cx="338.802" cy="313.602" fill="#ffcdb0" rx="2.949" ry="4.894" transform="matrix(.931 -.365 .365 .931 -91.165 145.491)"/></g><g><circle cx="420.189" cy="256.838" fill="#d10b2f" r="16.359"/><path d="m420.178 269.683c-8.282-3.612-12.067-13.254-8.454-21.536 1.442-3.306 3.854-5.88 6.748-7.568-5.657.603-10.84 4.131-13.277 9.718-3.612 8.282.173 17.923 8.454 21.536 4.975 2.17 10.433 1.655 14.788-.886-2.728.291-5.565-.089-8.259-1.264z" opacity=".2"/><ellipse cx="428.896" cy="253.071" fill="#ffcdb0" rx="2.949" ry="4.894" transform="matrix(.931 -.365 .365 .931 -62.816 174.227)"/></g><g><circle cx="266.347" cy="299.845" fill="#d10b2f" r="16.359"/><path d="m266.336 312.689c-8.282-3.612-12.067-13.254-8.454-21.536 1.442-3.306 3.854-5.88 6.748-7.568-5.657.603-10.84 4.131-13.277 9.719-3.612 8.282.173 17.923 8.454 21.536 4.975 2.17 10.433 1.655 14.788-.886-2.728.291-5.565-.089-8.259-1.265z" opacity=".2"/><ellipse cx="275.054" cy="296.077" fill="#ffcdb0" rx="2.949" ry="4.894" transform="matrix(.931 -.365 .365 .931 -89.17 120.985)"/></g><g><circle cx="249.272" cy="317.81" fill="#d10b2f" r="16.359"/><path d="m249.261 330.654c-8.282-3.612-12.067-13.254-8.454-21.536 1.442-3.306 3.854-5.88 6.748-7.568-5.657.603-10.84 4.131-13.277 9.718-3.612 8.282.173 17.923 8.454 21.536 4.975 2.17 10.433 1.655 14.788-.886-2.729.292-5.565-.088-8.259-1.264z" opacity=".2"/><ellipse cx="257.979" cy="314.042" fill="#ffcdb0" rx="2.949" ry="4.894" transform="matrix(.931 -.365 .365 .931 -96.916 115.988)"/></g><g><circle cx="265.725" cy="258.643" fill="#d10b2f" r="16.359"/><path d="m275.162 267.356c-8.269 3.642-17.924-.109-21.566-8.378-1.454-3.301-1.712-6.819-.992-10.091-3.39 4.568-4.308 10.771-1.851 16.349 3.642 8.269 13.297 12.02 21.566 8.378 4.968-2.188 8.287-6.551 9.37-11.475-1.635 2.204-3.837 4.033-6.527 5.217z" opacity=".2"/><ellipse cx="268.855" cy="249.688" fill="#ffcdb0" rx="2.949" ry="4.894" transform="matrix(.362 -.932 .932 .362 -61.245 409.879)"/></g><g><circle cx="329.758" cy="254.257" fill="#d10b2f" r="16.359"/><path d="m329.747 267.102c-8.282-3.612-12.067-13.254-8.454-21.536 1.442-3.306 3.854-5.88 6.748-7.568-5.657.603-10.84 4.131-13.277 9.718-3.612 8.282.173 17.923 8.454 21.536 4.975 2.17 10.433 1.655 14.788-.886-2.728.291-5.564-.089-8.259-1.264z" opacity=".2"/><ellipse cx="338.465" cy="250.49" fill="#ffcdb0" rx="2.949" ry="4.894" transform="matrix(.931 -.365 .365 .931 -68.126 141.004)"/></g><g><circle cx="290.208" cy="254.854" fill="#d10b2f" r="16.359"/><path d="m296.696 265.939c-8.971 1.073-17.114-5.33-18.186-14.301-.428-3.581.35-7.021 1.992-9.942-4.574 3.382-7.261 9.047-6.537 15.1 1.073 8.971 9.215 15.374 18.186 14.301 5.39-.645 9.837-3.85 12.309-8.245-2.207 1.631-4.846 2.738-7.764 3.087z" opacity=".2"/><ellipse cx="295.813" cy="247.199" fill="#ffcdb0" rx="2.949" ry="4.894" transform="matrix(.618 -.786 .786 .618 -81.356 326.928)"/></g><g><circle cx="284.346" cy="282.276" fill="#d10b2f" r="16.359"/><path d="m286.833 294.878c-8.826-1.933-14.414-10.654-12.481-19.48.772-3.523 2.637-6.517 5.147-8.736-5.431 1.692-9.83 6.161-11.133 12.115-1.933 8.826 3.655 17.548 12.481 19.48 5.302 1.161 10.556-.406 14.333-3.745-2.619.816-5.475.994-8.347.366z" opacity=".2"/><ellipse cx="292.154" cy="276.887" fill="#ffcdb0" rx="2.949" ry="4.894" transform="matrix(.842 -.54 .54 .842 -103.215 201.361)"/></g><g><circle cx="295.099" cy="308.004" fill="#d10b2f" r="16.359"/><path d="m297.505 320.621c-8.813-1.989-14.345-10.747-12.356-19.56.794-3.518 2.678-6.5 5.203-8.703-5.442 1.657-9.869 6.098-11.211 12.043-1.989 8.813 3.543 17.571 12.356 19.56 5.295 1.195 10.558-.338 14.357-3.653-2.624.8-5.481.96-8.349.313z" opacity=".2"/><ellipse cx="302.941" cy="302.665" fill="#ffcdb0" rx="2.949" ry="4.894" transform="matrix(.845 -.534 .534 .845 -114.82 208.565)"/></g><g><circle cx="289.39" cy="351.089" fill="#d10b2f" r="16.359"/><path d="m291.104 363.819c-8.692-2.468-13.737-11.514-11.269-20.206.985-3.47 3.029-6.344 5.67-8.406-5.524 1.357-10.187 5.55-11.852 11.413-2.468 8.692 2.578 17.738 11.269 20.206 5.222 1.483 10.561.239 14.535-2.864-2.664.655-5.525.66-8.353-.143z" opacity=".2"/><ellipse cx="297.512" cy="346.187" fill="#ffcdb0" rx="2.949" ry="4.894" transform="matrix(.873 -.487 .487 .873 -130.946 188.763)"/></g><g><circle cx="284.309" cy="323.286" fill="#d10b2f" r="16.359"/><path d="m286.715 335.904c-8.813-1.989-14.345-10.747-12.356-19.56.794-3.518 2.678-6.5 5.203-8.703-5.442 1.657-9.869 6.098-11.211 12.043-1.989 8.813 3.543 17.571 12.356 19.56 5.295 1.195 10.558-.338 14.357-3.653-2.624.799-5.481.96-8.349.313z" opacity=".2"/><ellipse cx="292.151" cy="317.948" fill="#ffcdb0" rx="2.949" ry="4.894" transform="matrix(.845 -.534 .534 .845 -124.65 205.165)"/></g><g><circle cx="311.53" cy="333.022" fill="#d10b2f" r="16.359"/><path d="m309.249 345.662c-7.513-5.019-9.535-15.178-4.516-22.691 2.004-2.999 4.832-5.106 7.979-6.257-5.674-.406-11.4 2.151-14.785 7.22-5.019 7.513-2.997 17.672 4.516 22.691 4.514 3.015 9.977 3.472 14.712 1.741-2.737-.195-5.462-1.071-7.906-2.704z" opacity=".2"/><ellipse cx="320.765" cy="330.852" fill="#ffcdb0" rx="2.949" ry="4.894" transform="matrix(.981 -.195 .195 .981 -58.409 68.974)"/></g><g><circle cx="263.192" cy="343.283" fill="#d10b2f" r="16.359"/><path d="m260.911 355.924c-7.513-5.019-9.535-15.178-4.516-22.691 2.004-2.999 4.832-5.106 7.979-6.257-5.674-.406-11.4 2.151-14.786 7.22-5.019 7.513-2.997 17.672 4.516 22.691 4.514 3.015 9.977 3.472 14.712 1.741-2.736-.196-5.46-1.071-7.905-2.704z" opacity=".2"/><ellipse cx="272.428" cy="341.114" fill="#ffcdb0" rx="2.949" ry="4.894" transform="matrix(.981 -.195 .195 .981 -61.342 59.736)"/></g><g><circle cx="313.061" cy="357.751" fill="#d10b2f" r="16.359"/><path d="m310.78 370.391c-7.513-5.019-9.535-15.178-4.516-22.691 2.004-2.999 4.832-5.106 7.979-6.257-5.674-.406-11.4 2.151-14.785 7.22-5.019 7.513-2.997 17.672 4.516 22.691 4.514 3.015 9.977 3.472 14.712 1.741-2.737-.196-5.462-1.071-7.906-2.704z" opacity=".2"/><ellipse cx="322.296" cy="355.581" fill="#ffcdb0" rx="2.949" ry="4.894" transform="matrix(.981 -.195 .195 .981 -63.207 69.748)"/></g><g><circle cx="242.715" cy="354.022" fill="#d10b2f" r="16.359"/><path d="m246.842 366.185c-9.004-.753-15.693-8.661-14.94-17.665.3-3.594 1.755-6.808 3.95-9.338-5.161 2.393-8.932 7.403-9.439 13.477-.753 9.004 5.936 16.913 14.94 17.665 5.409.452 10.41-1.794 13.715-5.602-2.489 1.154-5.297 1.708-8.226 1.463z" opacity=".2"/><ellipse cx="249.745" cy="347.65" fill="#ffcdb0" rx="2.949" ry="4.894" transform="matrix(.764 -.646 .646 .764 -165.444 243.479)"/></g><g><circle cx="268.034" cy="368.069" fill="#d10b2f" r="16.359"/><path d="m269.748 380.799c-8.692-2.468-13.737-11.514-11.269-20.206.985-3.47 3.029-6.344 5.67-8.406-5.524 1.357-10.187 5.55-11.852 11.413-2.468 8.692 2.578 17.738 11.269 20.206 5.222 1.483 10.561.239 14.535-2.864-2.664.656-5.525.66-8.353-.143z" opacity=".2"/><ellipse cx="276.156" cy="363.167" fill="#ffcdb0" rx="2.949" ry="4.894" transform="matrix(.873 -.487 .487 .873 -141.922 180.511)"/></g><g><circle cx="261.512" cy="396.741" fill="#d10b2f" r="16.359"/><path d="m263.225 409.47c-8.692-2.468-13.737-11.514-11.269-20.206.985-3.47 3.029-6.344 5.67-8.406-5.524 1.357-10.187 5.55-11.852 11.413-2.468 8.692 2.578 17.738 11.269 20.206 5.222 1.483 10.561.239 14.535-2.864-2.663.656-5.525.66-8.353-.143z" opacity=".2"/><ellipse cx="269.634" cy="391.838" fill="#ffcdb0" rx="2.949" ry="4.894" transform="matrix(.873 -.487 .487 .873 -156.714 180.965)"/></g><g><circle cx="291.707" cy="386.698" fill="#d10b2f" r="16.359"/><path d="m293.421 399.428c-8.692-2.468-13.737-11.514-11.269-20.206.985-3.47 3.029-6.344 5.67-8.406-5.524 1.357-10.187 5.55-11.852 11.413-2.468 8.692 2.578 17.738 11.269 20.206 5.222 1.483 10.561.239 14.535-2.864-2.663.656-5.525.66-8.353-.143z" opacity=".2"/><ellipse cx="299.83" cy="381.796" fill="#ffcdb0" rx="2.949" ry="4.894" transform="matrix(.873 -.487 .487 .873 -147.998 194.401)"/></g><g><circle cx="292.822" cy="412.23" fill="#d10b2f" r="16.359"/><path d="m290.898 424.929c-7.651-4.805-9.959-14.903-5.154-22.554 1.918-3.055 4.686-5.241 7.799-6.479-5.683-.246-11.334 2.472-14.576 7.634-4.805 7.651-2.498 17.749 5.154 22.554 4.597 2.887 10.071 3.189 14.755 1.325-2.74-.118-5.488-.916-7.978-2.48z" opacity=".2"/><ellipse cx="301.992" cy="409.8" fill="#ffcdb0" rx="2.949" ry="4.894" transform="matrix(.975 -.223 .223 .975 -83.701 77.57)"/></g><g><circle cx="347.519" cy="232.705" fill="#d10b2f" r="16.359"/><path d="m347.508 245.549c-8.282-3.612-12.067-13.254-8.454-21.536 1.442-3.306 3.854-5.88 6.748-7.568-5.657.603-10.84 4.131-13.277 9.719-3.612 8.282.173 17.923 8.454 21.536 4.975 2.17 10.433 1.655 14.788-.886-2.729.291-5.565-.089-8.259-1.265z" opacity=".2"/><ellipse cx="356.226" cy="228.937" fill="#ffcdb0" rx="2.949" ry="4.894" transform="matrix(.931 -.365 .365 .931 -59.022 146.003)"/></g><g><circle cx="315.685" cy="237.836" fill="#d10b2f" r="16.359"/><path d="m315.673 250.68c-8.282-3.612-12.067-13.254-8.454-21.536 1.442-3.306 3.854-5.88 6.748-7.568-5.657.603-10.84 4.131-13.277 9.719-3.612 8.282.173 17.923 8.454 21.536 4.975 2.17 10.433 1.655 14.788-.886-2.728.291-5.564-.089-8.259-1.265z" opacity=".2"/><ellipse cx="324.391" cy="234.068" fill="#ffcdb0" rx="2.949" ry="4.894" transform="matrix(.931 -.365 .365 .931 -63.099 134.725)"/></g><g><circle cx="353.889" cy="259.019" fill="#d10b2f" r="16.359"/><path d="m353.878 271.863c-8.282-3.612-12.067-13.254-8.454-21.536 1.442-3.306 3.854-5.88 6.748-7.568-5.657.603-10.84 4.131-13.277 9.719-3.612 8.282.173 17.923 8.454 21.536 4.975 2.17 10.433 1.655 14.788-.886-2.729.291-5.565-.089-8.259-1.265z" opacity=".2"/><ellipse cx="362.596" cy="255.251" fill="#ffcdb0" rx="2.949" ry="4.894" transform="matrix(.931 -.365 .365 .931 -68.198 150.151)"/></g><g><circle cx="429.017" cy="292.959" fill="#d10b2f" r="16.359"/><path d="m433.538 304.981c-9.023-.459-15.967-8.145-15.508-17.169.183-3.602 1.532-6.861 3.644-9.462-5.08 2.56-8.686 7.69-8.995 13.778-.459 9.023 6.485 16.71 15.508 17.169 5.421.276 10.346-2.132 13.525-6.046-2.451 1.235-5.239 1.88-8.174 1.73z" opacity=".2"/><ellipse cx="435.835" cy="286.362" fill="#ffcdb0" rx="2.949" ry="4.894" transform="matrix(.742 -.67 .67 .742 -79.542 365.999)"/></g><g><circle cx="372.643" cy="233.841" fill="#d10b2f" r="16.359"/><path d="m372.632 246.686c-8.282-3.612-12.067-13.254-8.454-21.536 1.442-3.306 3.854-5.88 6.748-7.568-5.657.603-10.84 4.131-13.277 9.718-3.612 8.282.173 17.923 8.454 21.536 4.975 2.17 10.433 1.655 14.788-.886-2.728.291-5.565-.089-8.259-1.264z" opacity=".2"/><ellipse cx="381.35" cy="230.074" fill="#ffcdb0" rx="2.949" ry="4.894" transform="matrix(.931 -.365 .365 .931 -57.7 155.263)"/></g><g><circle cx="441.784" cy="277.33" fill="#d10b2f" r="16.359"/><path d="m441.773 290.175c-8.282-3.612-12.067-13.254-8.454-21.536 1.442-3.306 3.854-5.88 6.748-7.568-5.657.603-10.84 4.131-13.277 9.719-3.612 8.282.173 17.923 8.454 21.536 4.975 2.17 10.433 1.655 14.788-.886-2.729.29-5.565-.09-8.259-1.265z" opacity=".2"/><ellipse cx="450.491" cy="273.563" fill="#ffcdb0" rx="2.949" ry="4.894" transform="matrix(.931 -.365 .365 .931 -68.81 183.535)"/></g><g><circle cx="452.856" cy="305.205" fill="#d10b2f" r="16.359"/><path d="m448.304 317.217c-6.47-6.307-6.602-16.664-.295-23.134 2.518-2.583 5.683-4.138 8.987-4.694-5.505-1.435-11.601.032-15.856 4.397-6.307 6.47-6.175 16.827.295 23.134 3.887 3.789 9.174 5.236 14.146 4.399-2.653-.692-5.172-2.051-7.277-4.102z" opacity=".2"/><ellipse cx="462.332" cy="304.759" fill="#ffcdb0" rx="2.949" ry="4.894" transform="matrix(1 -.013 .013 1 -3.847 5.918)"/></g><g><circle cx="407.394" cy="308.313" fill="#d10b2f" r="16.359"/><path d="m402.843 320.324c-6.47-6.307-6.602-16.664-.295-23.134 2.518-2.583 5.684-4.138 8.987-4.694-5.505-1.435-11.601.032-15.856 4.397-6.307 6.47-6.175 16.827.295 23.134 3.887 3.789 9.174 5.236 14.146 4.399-2.654-.692-5.173-2.05-7.277-4.102z" opacity=".2"/><ellipse cx="416.87" cy="307.867" fill="#ffcdb0" rx="2.949" ry="4.894" transform="matrix(1 -.013 .013 1 -3.891 5.339)"/></g><g><circle cx="387.963" cy="322.817" fill="#d10b2f" r="16.359"/><path d="m383.412 334.828c-6.47-6.307-6.602-16.664-.295-23.134 2.518-2.583 5.683-4.138 8.987-4.694-5.505-1.435-11.601.032-15.856 4.397-6.307 6.47-6.175 16.827.295 23.134 3.887 3.789 9.174 5.236 14.146 4.399-2.654-.692-5.172-2.05-7.277-4.102z" opacity=".2"/><ellipse cx="397.44" cy="322.371" fill="#ffcdb0" rx="2.949" ry="4.894" transform="matrix(1 -.013 .013 1 -4.077 5.092)"/></g><g><circle cx="426.423" cy="328.74" fill="#d10b2f" r="16.359"/><path d="m421.871 340.751c-6.47-6.307-6.602-16.664-.295-23.134 2.518-2.583 5.684-4.138 8.987-4.694-5.505-1.435-11.601.032-15.856 4.397-6.307 6.47-6.175 16.827.295 23.134 3.887 3.789 9.175 5.236 14.146 4.399-2.653-.692-5.172-2.05-7.277-4.102z" opacity=".2"/><ellipse cx="435.899" cy="328.294" fill="#ffcdb0" rx="2.949" ry="4.894" transform="matrix(1 -.013 .013 1 -4.149 5.583)"/></g><g><circle cx="412.567" cy="406.887" fill="#d10b2f" r="16.359"/><path d="m409.692 419.406c-7.267-5.369-8.806-15.612-3.438-22.879 2.143-2.901 5.068-4.872 8.266-5.872-5.649-.674-11.489 1.609-15.11 6.512-5.369 7.267-3.829 17.51 3.438 22.879 4.366 3.225 9.801 3.94 14.613 2.435-2.725-.325-5.405-1.329-7.769-3.075z" opacity=".2"/><ellipse cx="421.895" cy="405.157" fill="#ffcdb0" rx="2.949" ry="4.894" transform="matrix(.989 -.149 .149 .989 -55.517 67.185)"/></g><g><circle cx="457.57" cy="335.326" fill="#d10b2f" r="16.359"/><path d="m455.721 348.037c-7.68-4.76-10.046-14.844-5.286-22.524 1.9-3.066 4.655-5.268 7.761-6.525-5.685-.212-11.32 2.538-14.531 7.719-4.76 7.68-2.393 17.764 5.286 22.524 4.614 2.86 10.089 3.13 14.763 1.239-2.742-.102-5.494-.884-7.993-2.433z" opacity=".2"/><ellipse cx="466.726" cy="332.843" fill="#ffcdb0" rx="2.949" ry="4.894" transform="matrix(.974 -.229 .229 .974 -63.704 115.444)"/></g><g><circle cx="457.833" cy="361.137" fill="#d10b2f" r="16.359"/><path d="m451.625 372.382c-5.511-7.16-4.173-17.432 2.987-22.942 2.858-2.2 6.213-3.291 9.562-3.373-5.246-2.201-11.488-1.612-16.319 2.106-7.16 5.511-8.497 15.782-2.987 22.942 3.311 4.302 8.34 6.484 13.38 6.36-2.529-1.062-4.83-2.764-6.623-5.093z" opacity=".2"/><ellipse cx="467.277" cy="362.038" fill="#ffcdb0" rx="4.894" ry="2.949" transform="matrix(.129 -.992 .992 .129 47.947 778.669)"/></g><g><circle cx="437.989" cy="389.533" fill="#d10b2f" r="16.359"/><path d="m435.114 402.051c-7.267-5.369-8.806-15.612-3.438-22.879 2.143-2.901 5.068-4.872 8.266-5.872-5.649-.674-11.489 1.609-15.11 6.512-5.369 7.267-3.829 17.51 3.438 22.879 4.366 3.225 9.801 3.94 14.613 2.435-2.725-.325-5.405-1.328-7.769-3.075z" opacity=".2"/><ellipse cx="447.317" cy="387.802" fill="#ffcdb0" rx="2.949" ry="4.894" transform="matrix(.989 -.149 .149 .989 -52.656 70.77)"/></g><g><circle cx="389.213" cy="373.117" fill="#d10b2f" r="16.359"/><path d="m385.029 385.261c-6.659-6.107-7.107-16.455-1-23.114 2.438-2.658 5.555-4.309 8.84-4.966-5.546-1.267-11.594.386-15.714 4.878-6.107 6.659-5.659 17.007 1 23.114 4.001 3.669 9.33 4.954 14.274 3.966-2.674-.61-5.233-1.891-7.4-3.878z" opacity=".2"/><ellipse cx="398.671" cy="372.382" fill="#ffcdb0" rx="2.949" ry="4.894" transform="matrix(.999 -.043 .043 .999 -15.719 17.576)"/></g><g><circle cx="431.238" cy="358.628" fill="#d10b2f" r="16.359"/><path d="m425.031 369.873c-5.511-7.16-4.173-17.432 2.987-22.942 2.858-2.2 6.213-3.291 9.562-3.373-5.246-2.201-11.488-1.612-16.319 2.106-7.16 5.511-8.497 15.782-2.987 22.942 3.311 4.302 8.34 6.484 13.38 6.36-2.529-1.062-4.83-2.763-6.623-5.093z" opacity=".2"/><ellipse cx="440.682" cy="359.529" fill="#ffcdb0" rx="4.894" ry="2.949" transform="matrix(.129 -.992 .992 .129 27.273 750.113)"/></g><g><circle cx="405.77" cy="347.519" fill="#d10b2f" r="16.359"/><path d="m401.586 359.663c-6.659-6.107-7.107-16.455-1-23.114 2.438-2.658 5.555-4.309 8.84-4.966-5.546-1.267-11.594.386-15.714 4.878-6.107 6.659-5.659 17.007 1 23.114 4.001 3.669 9.33 4.954 14.274 3.966-2.674-.61-5.233-1.891-7.4-3.878z" opacity=".2"/><ellipse cx="415.228" cy="346.784" fill="#ffcdb0" rx="2.949" ry="4.894" transform="matrix(.999 -.043 .043 .999 -14.598 18.267)"/></g><g><circle cx="411.017" cy="376.418" fill="#d10b2f" r="16.359"/><path d="m406.833 388.562c-6.659-6.107-7.107-16.455-1-23.114 2.438-2.658 5.555-4.309 8.84-4.966-5.546-1.267-11.594.386-15.714 4.878-6.107 6.659-5.659 17.007 1 23.114 4.001 3.669 9.33 4.954 14.274 3.966-2.674-.61-5.233-1.891-7.4-3.878z" opacity=".2"/><ellipse cx="420.475" cy="375.683" fill="#ffcdb0" rx="2.949" ry="4.894" transform="matrix(.999 -.043 .043 .999 -15.842 18.521)"/></g><g><circle cx="377.21" cy="352.005" fill="#d10b2f" r="16.359"/><path d="m373.027 364.15c-6.659-6.107-7.107-16.455-1-23.114 2.438-2.658 5.555-4.309 8.84-4.966-5.546-1.267-11.594.386-15.714 4.878-6.107 6.659-5.659 17.007 1 23.114 4.001 3.669 9.33 4.954 14.274 3.966-2.675-.611-5.234-1.892-7.4-3.878z" opacity=".2"/><ellipse cx="386.668" cy="351.271" fill="#ffcdb0" rx="2.949" ry="4.894" transform="matrix(.999 -.043 .043 .999 -14.818 17.037)"/></g><g><circle cx="362.462" cy="381.278" fill="#d10b2f" r="16.359"/><path d="m358.279 393.422c-6.659-6.107-7.107-16.455-1-23.114 2.438-2.658 5.555-4.309 8.84-4.966-5.546-1.267-11.594.386-15.714 4.878-6.107 6.659-5.659 17.007 1 23.114 4.001 3.669 9.33 4.954 14.274 3.966-2.674-.61-5.233-1.891-7.4-3.878z" opacity=".2"/><ellipse cx="371.921" cy="380.543" fill="#ffcdb0" rx="2.949" ry="4.894" transform="matrix(.999 -.043 .043 .999 -16.097 16.427)"/></g><g><circle cx="389.494" cy="397.206" fill="#d10b2f" r="16.359"/><path d="m388.34 409.998c-7.927-4.335-10.839-14.276-6.503-22.203 1.731-3.165 4.362-5.513 7.395-6.937-5.688.097-11.165 3.15-14.09 8.498-4.335 7.927-1.424 17.868 6.503 22.203 4.762 2.605 10.244 2.577 14.808.434-2.743.047-5.534-.584-8.113-1.995z" opacity=".2"/><ellipse cx="398.502" cy="394.228" fill="#ffcdb0" rx="2.949" ry="4.894" transform="matrix(.96 -.281 .281 .96 -94.748 127.913)"/></g><g><circle cx="362.546" cy="411.127" fill="#d10b2f" r="16.359"/><path d="m361.392 423.92c-7.927-4.335-10.839-14.276-6.503-22.203 1.731-3.165 4.362-5.513 7.395-6.937-5.688.097-11.165 3.15-14.09 8.498-4.335 7.927-1.424 17.868 6.503 22.203 4.762 2.605 10.244 2.577 14.808.434-2.743.046-5.534-.585-8.113-1.995z" opacity=".2"/><ellipse cx="371.554" cy="408.15" fill="#ffcdb0" rx="2.949" ry="4.894" transform="matrix(.96 -.281 .281 .96 -99.748 120.899)"/></g><g><circle cx="396.688" cy="426.019" fill="#d10b2f" r="16.359"/><path d="m395.533 438.812c-7.927-4.335-10.839-14.276-6.503-22.203 1.731-3.165 4.362-5.513 7.395-6.937-5.688.097-11.165 3.15-14.09 8.498-4.335 7.927-1.424 17.868 6.503 22.203 4.762 2.605 10.244 2.577 14.808.434-2.743.047-5.534-.584-8.113-1.995z" opacity=".2"/><ellipse cx="405.695" cy="423.042" fill="#ffcdb0" rx="2.949" ry="4.894" transform="matrix(.96 -.281 .281 .96 -102.558 131.097)"/></g><g><circle cx="341.784" cy="419.919" fill="#d10b2f" r="16.359"/><path d="m340.629 432.712c-7.927-4.335-10.839-14.276-6.503-22.203 1.731-3.165 4.362-5.513 7.395-6.937-5.688.097-11.165 3.15-14.09 8.498-4.335 7.927-1.424 17.868 6.503 22.203 4.762 2.605 10.244 2.577 14.808.434-2.743.046-5.534-.585-8.113-1.995z" opacity=".2"/><ellipse cx="350.791" cy="416.942" fill="#ffcdb0" rx="2.949" ry="4.894" transform="matrix(.96 -.281 .281 .96 -103.057 115.418)"/></g><g><circle cx="364.255" cy="440.664" fill="#d10b2f" r="16.359"/><path d="m363.1 453.456c-7.927-4.335-10.839-14.276-6.503-22.203 1.731-3.165 4.362-5.513 7.395-6.937-5.688.097-11.165 3.15-14.09 8.498-4.335 7.927-1.424 17.868 6.503 22.203 4.762 2.605 10.244 2.577 14.808.434-2.742.047-5.534-.584-8.113-1.995z" opacity=".2"/><ellipse cx="373.263" cy="437.686" fill="#ffcdb0" rx="2.949" ry="4.894" transform="matrix(.96 -.281 .281 .96 -107.982 122.571)"/></g><g><circle cx="406.695" cy="279.873" fill="#d10b2f" r="16.359"/><path d="m406.684 292.717c-8.282-3.612-12.067-13.254-8.454-21.536 1.442-3.306 3.854-5.88 6.748-7.568-5.657.603-10.84 4.131-13.277 9.718-3.612 8.282.173 17.923 8.454 21.536 4.975 2.17 10.433 1.655 14.788-.886-2.728.291-5.564-.089-8.259-1.264z" opacity=".2"/><ellipse cx="415.402" cy="276.105" fill="#ffcdb0" rx="2.949" ry="4.894" transform="matrix(.931 -.365 .365 .931 -72.166 170.889)"/></g></g></svg>