<?xml version="1.0" encoding="UTF-8" standalone="no"?>
<!-- Created with Inkscape (http://www.inkscape.org/) -->

<svg
   version="1.1"
   id="svg7533"
   xml:space="preserve"
   width="682.66669"
   height="682.66669"
   viewBox="0 0 682.66669 682.66669"
   xmlns="http://www.w3.org/2000/svg"
   xmlns:svg="http://www.w3.org/2000/svg"><defs
     id="defs7537"><clipPath
       clipPathUnits="userSpaceOnUse"
       id="clipPath7547"><path
         d="M 0,512 H 512 V 0 H 0 Z"
         id="path7545" /></clipPath></defs><g
     id="g7539"
     transform="matrix(1.3333333,0,0,-1.3333333,0,682.66667)"><g
       id="g7541"><g
         id="g7543"
         clip-path="url(#clipPath7547)"><g
           id="g7549"
           transform="translate(471,290)"><path
             d="m 0,0 c -0.17,-37.05 -30.939,-66.71 -67.99,-66.71 h -194.75 c -38.111,24.147 -57.02,64.17 -57.02,104.36 0,38.5 20.391,73.855 53.369,100.81 l 0.011,0.011 c 12.43,7.069 26.48,14.159 46.021,14.149 42.599,-0.02 60.239,-28.261 92.959,-28.261 28.66,0 56.89,-16.809 66.78,-43.769 3,-8.18 9.47,-14.56 17.6,-17.68 C -17.77,53.221 0.13,28.689 0,0"
             style="fill:#eaaa83;fill-opacity:1;fill-rule:nonzero;stroke:none"
             id="path7551" /></g><g
           id="g7553"
           transform="translate(208.2598,223.29)"><path
             d="m 0,0 h -99.27 c -37.05,0 -67.82,29.66 -67.99,66.71 -0.13,28.689 17.77,53.22 43.02,62.91 8.14,3.12 14.6,9.5 17.6,17.68 9.9,26.96 38.12,43.769 66.781,43.769 13.029,0 23.819,7.051 36.219,14.111 C -30.68,178.09 -47.02,142.859 -47.02,104.359 -47.02,64.17 -29.21,27.54 0,0"
             style="fill:#e4996d;fill-opacity:1;fill-rule:nonzero;stroke:none"
             id="path7555" /></g><g
           id="g7557"
           transform="translate(216,283.7852)"><path
             d="M 0,0 C 0,-28.929 17.908,-52.381 40,-52.381 62.092,-52.381 80,-28.929 80,0 80,28.93 62.092,52.381 40,52.381 17.908,52.381 0,28.93 0,0"
             style="fill:#fdc072;fill-opacity:1;fill-rule:nonzero;stroke:none"
             id="path7559" /></g><g
           id="g7561"
           transform="translate(314.5,338.7744)"><path
             d="M 0,0 C 0,-16.568 13.432,-30 30,-30 46.568,-30 60,-16.568 60,0 60,16.568 46.568,30 30,30 13.432,30 0,16.568 0,0"
             style="fill:#df8a57;fill-opacity:1;fill-rule:nonzero;stroke:none"
             id="path7563" /></g><g
           id="g7565"
           transform="translate(137.5,338.7744)"><path
             d="M 0,0 C 0,-16.568 13.432,-30 30,-30 46.568,-30 60,-16.568 60,0 60,16.568 46.568,30 30,30 13.432,30 0,16.568 0,0"
             style="fill:#df8a57;fill-opacity:1;fill-rule:nonzero;stroke:none"
             id="path7567" /></g><g
           id="g7569"
           transform="translate(472.8105,264.5566)"><path
             d="M 0,0 C 16.593,23.697 15.374,53.181 -2.722,65.852 -20.818,78.522 -48.939,69.584 -65.532,45.887 -82.125,22.189 -80.907,-7.294 -62.811,-19.965 -44.715,-32.636 -16.594,-23.697 0,0"
             style="fill:#fdc072;fill-opacity:1;fill-rule:nonzero;stroke:none"
             id="path7571" /></g><g
           id="g7573"
           transform="translate(39.1895,264.5566)"><path
             d="M 0,0 C -16.593,23.697 -15.374,53.181 2.722,65.852 20.818,78.522 48.939,69.584 65.532,45.887 82.125,22.189 80.907,-7.294 62.811,-19.965 44.715,-32.636 16.594,-23.697 0,0"
             style="fill:#fdc072;fill-opacity:1;fill-rule:nonzero;stroke:none"
             id="path7575" /></g><g
           id="g7577"
           transform="translate(314.71,470.7725)"><path
             d="m 0,0 c -1.819,-7.45 -6.47,-19.29 -18.12,-26.011 -6.02,-3.479 -14.62,-5.289 -21.859,-4.529 -16.633,12.283 -22.681,28.419 -18.731,43.179 2.02,7.526 8.718,16.39 17.822,20.053 1.104,-0.626 2.07,-1.524 2.768,-2.682 2.019,-3.35 4.32,-8 5.63,-13.46 0.9,-3.78 4.53,-6.321 8.389,-5.79 C -16.8,11.75 -10.01,10.5 -5.319,9.14 -1.39,8 0.97,3.97 0,0"
             style="fill:#9cda82;fill-opacity:1;fill-rule:nonzero;stroke:none"
             id="path7579" /></g><g
           id="g7581"
           transform="translate(274.7256,440.2275)"><path
             d="m 0,0 c -5.437,0.574 -10.101,2.587 -12.314,6.434 -0.051,0.077 -0.095,0.152 -0.137,0.235 -1.916,-0.505 -3.833,-0.565 -5.666,-0.073 -1.833,0.491 -3.456,1.499 -4.871,2.896 -0.077,-0.051 -0.153,-0.095 -0.236,-0.136 -8.96,-5.179 -24.464,4.901 -30.554,15.45 -6.72,11.638 -4.829,24.216 -2.682,31.579 1.14,3.926 5.209,6.231 9.18,5.255 4.739,-1.159 11.245,-3.475 17.075,-7.988 3.076,-2.382 7.488,-2.006 10.161,0.817 3.869,4.078 8.179,6.956 11.605,8.845 2.435,1.344 5.293,1.231 7.546,-0.065 C -6.775,57.89 -10.994,51.345 -13.011,43.819 -16.966,29.06 -11.693,13.354 0,0"
             style="fill:#7dce5c;fill-opacity:1;fill-rule:nonzero;stroke:none"
             id="path7583" /></g><g
           id="g7585"
           transform="translate(295.21,412.0117)"><path
             d="m 0,0 c -4.271,-15.939 -18.88,-31.13 -35.14,-37.17 -20.455,12.022 -31.11,36.297 -25.42,57.537 2.94,10.99 12.138,22.896 23.161,28.163 0.869,-0.189 1.729,-0.399 2.589,-0.63 C -11.45,41.641 6.26,23.351 0,0"
             style="fill:#ff8f71;fill-opacity:1;fill-rule:nonzero;stroke:none"
             id="path7587" /></g><g
           id="g7589"
           transform="translate(260.0693,374.8418)"><path
             d="m 0,0 c -7.566,-2.812 -15.488,-3.649 -22.905,-1.662 -23.35,6.257 -37.113,39.299 -30.856,62.648 6.029,22.498 28.968,29.8 51.51,24.72 C -10.796,78.685 -17.136,69.399 -20.08,58.413 -25.771,37.172 -17.296,15.055 0,0"
             style="fill:#ff7f5a;fill-opacity:1;fill-rule:nonzero;stroke:none"
             id="path7591" /></g><g
           id="g7593"
           transform="translate(371,67.5)"><path
             d="m 0,0 v -20 c 0,-22.09 -17.91,-40 -40,-40 h -67.77 c -15.18,10.009 -24.371,21.82 -24.371,34.28 0,9.08 7.861,20.428 17.821,25.72 z"
             style="fill:#fdc072;fill-opacity:1;fill-rule:nonzero;stroke:none"
             id="path7595" /></g><g
           id="g7597"
           transform="translate(263.2305,7.5)"><path
             d="m 0,0 h -82.23 c -22.09,0 -40,17.91 -40,40 V 60 H -6.551 c -5.05,-7.96 -7.82,-16.641 -7.82,-25.72 C -14.371,21.82 -9.15,10.13 0,0"
             style="fill:#ffb25a;fill-opacity:1;fill-rule:nonzero;stroke:none"
             id="path7599" /></g><g
           id="g7601"
           transform="translate(504.5,227.5)"><path
             d="m 0,0 v -30 c 0,-82.84 -67.16,-150 -150,-150 h -78.26 c -101.048,24.688 -169.927,107.288 -117.381,210 H -30 C -13.43,30 0,16.57 0,0"
             style="fill:#fff4e5;fill-opacity:1;fill-rule:nonzero;stroke:none"
             id="path7603" /></g><g
           id="g7605"
           transform="translate(276.2402,47.5)"><path
             d="m 0,0 h -118.74 c -82.843,0 -150,67.157 -150,150 v 30 c 0,16.568 13.431,30 30,30 h 121.359 C -134.37,107.283 -74.85,29.95 0,0"
             style="fill:#ffe0b7;fill-opacity:1;fill-rule:nonzero;stroke:none"
             id="path7607" /></g><g
           id="g7609"
           transform="translate(205.0088,131.0391)"><path
             d="m 0,0 c 0,-13.113 -13.35,-23.744 -29.816,-23.744 -16.467,0 -29.817,10.631 -29.817,23.744 0,13.113 13.35,23.744 29.817,23.744 C -13.35,23.744 0,13.113 0,0"
             style="fill:#ffa1ac;fill-opacity:1;fill-rule:nonzero;stroke:none"
             id="path7611" /></g><g
           id="g7613"
           transform="translate(306.9912,131.0391)"><path
             d="m 0,0 c 0,-13.113 13.35,-23.744 29.816,-23.744 16.467,0 29.817,10.631 29.817,23.744 0,13.113 -13.35,23.744 -29.817,23.744 C 13.35,23.744 0,13.113 0,0"
             style="fill:#ffa1ac;fill-opacity:1;fill-rule:nonzero;stroke:none"
             id="path7615" /></g><g
           id="g7617"
           transform="translate(290.5996,257.5)"><path
             d="m 0,0 c 3.431,7.73 5.4,16.71 5.4,26.29 0,28.92 -17.91,52.38 -40,52.38 -22.089,0 -40,-23.46 -40,-52.38 0,-9.58 1.97,-18.56 5.401,-26.29"
             style="fill:none;stroke:#000000;stroke-width:15;stroke-linecap:round;stroke-linejoin:round;stroke-miterlimit:10;stroke-dasharray:none;stroke-opacity:1"
             id="path7619" /></g><g
           id="g7621"
           transform="translate(256,257.5)"><path
             d="M 0,0 V 78.67"
             style="fill:none;stroke:#000000;stroke-width:15;stroke-linecap:round;stroke-linejoin:round;stroke-miterlimit:10;stroke-dasharray:none;stroke-opacity:1"
             id="path7623" /></g><g
           id="g7625"
           transform="translate(467.1396,257.5)"><path
             d="M 0,0 C 2.011,2.18 3.9,4.54 5.67,7.06 22.261,30.75 21.04,60.24 2.95,72.91 -15.149,85.58 -43.27,76.64 -59.859,52.94 -72.13,35.42 -74.659,14.72 -67.819,0"
             style="fill:none;stroke:#000000;stroke-width:15;stroke-linecap:round;stroke-linejoin:round;stroke-miterlimit:10;stroke-dasharray:none;stroke-opacity:1"
             id="path7627" /></g><g
           id="g7629"
           transform="translate(470.0898,330.4102)"><path
             d="M 0,0 -51.05,-72.91"
             style="fill:none;stroke:#000000;stroke-width:15;stroke-linecap:round;stroke-linejoin:round;stroke-miterlimit:10;stroke-dasharray:none;stroke-opacity:1"
             id="path7631" /></g><g
           id="g7633"
           transform="translate(44.8604,257.5)"><path
             d="m 0,0 c -2.011,2.18 -3.9,4.54 -5.67,7.06 -16.591,23.69 -15.37,53.18 2.72,65.85 15.21,10.65 37.51,6.03 54.08,-9.79"
             style="fill:none;stroke:#000000;stroke-width:15;stroke-linecap:round;stroke-linejoin:round;stroke-miterlimit:10;stroke-dasharray:none;stroke-opacity:1"
             id="path7635" /></g><g
           id="g7637"
           transform="translate(114.2002,290.71)"><path
             d="M 0,0 C 3.399,-11.92 2.859,-23.79 -1.521,-33.21"
             style="fill:none;stroke:#000000;stroke-width:15;stroke-linecap:round;stroke-linejoin:round;stroke-miterlimit:10;stroke-dasharray:none;stroke-opacity:1"
             id="path7639" /></g><g
           id="g7641"
           transform="translate(92.96,257.5)"><path
             d="M 0,0 -51.05,72.91"
             style="fill:none;stroke:#000000;stroke-width:15;stroke-linecap:round;stroke-linejoin:round;stroke-miterlimit:10;stroke-dasharray:none;stroke-opacity:1"
             id="path7643" /></g><g
           id="g7645"
           transform="translate(59.1455,336.1699)"><path
             d="m 0,0 c 6.861,7.312 15.345,13.083 24.874,16.74 8.141,3.12 14.601,9.5 17.601,17.68 9.899,26.96 38.12,43.77 66.78,43.77 13.17,0 24.059,7.21 36.64,14.34"
             style="fill:none;stroke:#000000;stroke-width:15;stroke-linecap:round;stroke-linejoin:round;stroke-miterlimit:10;stroke-dasharray:none;stroke-opacity:1"
             id="path7647" /></g><g
           id="g7649"
           transform="translate(399.6904,388.9297)"><path
             d="m 0,0 c 4.54,-5.399 8.199,-11.55 10.689,-18.34 3,-8.18 9.47,-14.559 17.601,-17.68 9.47,-3.629 17.899,-9.35 24.739,-16.6"
             style="fill:none;stroke:#000000;stroke-width:15;stroke-linecap:round;stroke-linejoin:round;stroke-miterlimit:10;stroke-dasharray:none;stroke-opacity:1"
             id="path7651" /></g><g
           id="g7653"
           transform="translate(294.8799,431.4502)"><path
             d="m 0,0 v -0.01 c 16.29,-7.89 30.05,-17.08 48.72,-17.08 9.43,0 18.81,-1.82 27.51,-5.221"
             style="fill:none;stroke:#000000;stroke-width:15;stroke-linecap:round;stroke-linejoin:round;stroke-miterlimit:10;stroke-dasharray:none;stroke-opacity:1"
             id="path7655" /></g><g
           id="g7657"
           transform="translate(314.5,338.7744)"><path
             d="M 0,0 C 0,-16.568 13.432,-30 30,-30 46.568,-30 60,-16.568 60,0 60,16.568 46.568,30 30,30 13.432,30 0,16.568 0,0 Z"
             style="fill:none;stroke:#000000;stroke-width:15;stroke-linecap:round;stroke-linejoin:round;stroke-miterlimit:10;stroke-dasharray:none;stroke-opacity:1"
             id="path7659" /></g><g
           id="g7661"
           transform="translate(137.5,338.7744)"><path
             d="M 0,0 C 0,-16.568 13.432,-30 30,-30 46.568,-30 60,-16.568 60,0 60,16.568 46.568,30 30,30 13.432,30 0,16.568 0,0 Z"
             style="fill:none;stroke:#000000;stroke-width:15;stroke-linecap:round;stroke-linejoin:round;stroke-miterlimit:10;stroke-dasharray:none;stroke-opacity:1"
             id="path7663" /></g><g
           id="g7665"
           transform="translate(289.4004,441.7393)"><path
             d="M 0,0 C 2.6,0.771 5.06,1.79 7.189,3.021 18.84,9.74 23.489,21.58 25.31,29.03 26.279,33 23.92,37.03 19.989,38.17 15.3,39.53 8.51,40.78 1.21,39.79 c -3.86,-0.53 -7.49,2.01 -8.391,5.79 -1.309,5.46 -3.609,10.11 -5.63,13.46 -2.139,3.54 -6.679,4.76 -10.309,2.76 -3.42,-1.89 -7.731,-4.77 -11.601,-8.85 -2.67,-2.82 -7.09,-3.2 -10.16,-0.82 -5.829,4.52 -12.329,6.83 -17.079,8 -3.971,0.98 -8.03,-1.33 -9.181,-5.26 -2.139,-7.37 -4.04,-19.939 2.691,-31.58 1.29,-2.229 2.99,-4.439 4.97,-6.479"
             style="fill:none;stroke:#000000;stroke-width:15;stroke-linecap:round;stroke-linejoin:round;stroke-miterlimit:10;stroke-dasharray:none;stroke-opacity:1"
             id="path7667" /></g><g
           id="g7669"
           transform="translate(206.3086,435.8271)"><path
             d="m 0,0 c -6.257,-23.353 7.504,-56.393 30.855,-62.65 23.353,-6.257 51.79,15.476 58.047,38.829 C 95.159,-0.47 77.448,17.826 54.096,24.083 30.744,30.341 6.258,23.352 0,0 Z"
             style="fill:none;stroke:#000000;stroke-width:15;stroke-linecap:round;stroke-linejoin:round;stroke-miterlimit:10;stroke-dasharray:none;stroke-opacity:1"
             id="path7671" /></g><g
           id="g7673"
           transform="translate(371,48.4004)"><path
             d="m 0,0 v -0.9 c 0,-22.09 -17.91,-40 -40,-40 h -150 c -22.09,0 -40,17.91 -40,40 V 0"
             style="fill:none;stroke:#000000;stroke-width:15;stroke-linecap:round;stroke-linejoin:round;stroke-miterlimit:10;stroke-dasharray:none;stroke-opacity:1"
             id="path7675" /></g><g
           id="g7677"
           transform="translate(256,152.125)"><path
             d="m 0,0 c 0,-7.983 -6.472,-14.456 -14.456,-14.456 -7.983,0 -14.455,6.473 -14.455,14.456"
             style="fill:none;stroke:#000000;stroke-width:15;stroke-linecap:round;stroke-linejoin:round;stroke-miterlimit:10;stroke-dasharray:none;stroke-opacity:1"
             id="path7679" /></g><g
           id="g7681"
           transform="translate(284.9111,152.125)"><path
             d="m 0,0 c 0,-7.983 -6.472,-14.456 -14.456,-14.456 -7.983,0 -14.455,6.473 -14.455,14.456"
             style="fill:none;stroke:#000000;stroke-width:15;stroke-linecap:round;stroke-linejoin:round;stroke-miterlimit:10;stroke-dasharray:none;stroke-opacity:1"
             id="path7683" /></g><g
           id="g7685"
           transform="translate(208.2422,163.9404)"><path
             d="M 0,0 C 0,7.602 -6.162,13.765 -13.765,13.765 -21.367,13.765 -27.529,7.602 -27.529,0"
             style="fill:none;stroke:#000000;stroke-width:15;stroke-linecap:round;stroke-linejoin:round;stroke-miterlimit:10;stroke-dasharray:none;stroke-opacity:1"
             id="path7687" /></g><g
           id="g7689"
           transform="translate(303.7578,163.9404)"><path
             d="M 0,0 C 0,7.602 6.162,13.765 13.765,13.765 21.367,13.765 27.529,7.602 27.529,0"
             style="fill:none;stroke:#000000;stroke-width:15;stroke-linecap:round;stroke-linejoin:round;stroke-miterlimit:10;stroke-dasharray:none;stroke-opacity:1"
             id="path7691" /></g><g
           id="g7693"
           transform="translate(249.9297,47.5)"><path
             d="m 0,0 h 104.57 c 82.84,0 150,67.16 150,150 v 30 c 0,16.57 -13.429,30 -30,30 h -437 c -16.57,0 -30,-13.43 -30,-30 v -30 c 0,-82.84 67.16,-150 150,-150 H -35"
             style="fill:none;stroke:#000000;stroke-width:15;stroke-linecap:round;stroke-linejoin:round;stroke-miterlimit:10;stroke-dasharray:none;stroke-opacity:1"
             id="path7695" /></g></g></g></g></svg>
