<?xml version="1.0" encoding="UTF-8" standalone="no"?>
<!-- Created with Inkscape (http://www.inkscape.org/) -->

<svg
   version="1.1"
   id="svg5310"
   xml:space="preserve"
   width="682.66669"
   height="682.66669"
   viewBox="0 0 682.66669 682.66669"
   xmlns="http://www.w3.org/2000/svg"
   xmlns:svg="http://www.w3.org/2000/svg"><defs
     id="defs5314"><clipPath
       clipPathUnits="userSpaceOnUse"
       id="clipPath5324"><path
         d="M 0,512 H 512 V 0 H 0 Z"
         id="path5322" /></clipPath></defs><g
     id="g5316"
     transform="matrix(1.3333333,0,0,-1.3333333,0,682.66667)"><g
       id="g5318"><g
         id="g5320"
         clip-path="url(#clipPath5324)"><g
           id="g5326"
           transform="translate(210.6831,438.5167)"><path
             d="m 0,0 c 1.293,3.066 1.828,6.472 1.448,9.947 -0.004,0.034 -0.009,0.069 -0.012,0.104 -0.039,0.333 -0.064,0.665 -0.119,0.998 -1.583,9.561 -9.644,16.316 -18.719,16.755 -0.012,0.001 -0.024,0.002 -0.036,0.002 -0.25,0.012 -0.501,0.018 -0.752,0.02 -0.182,0.003 -0.364,0.003 -0.545,0.001 -0.076,-0.002 -0.152,-0.004 -0.228,-0.006 -2.52,-0.062 -4.994,-0.596 -7.292,-1.558 -73.687,-24.282 -120.906,-99.457 -107.848,-178.337 5.364,-32.402 20.157,-60.936 41.103,-83.26 l 28.299,28.299 c -15.237,16.603 -25.992,37.651 -29.939,61.494 -7.7,46.513 12.532,91.312 48.383,117.211 -4.174,-61.249 27.204,-122.218 84.868,-152.746 l 18.716,35.351 C 4.221,-117.61 -19.174,-55.09 0,0"
             style="fill:#6dc847;fill-opacity:1;fill-rule:nonzero;stroke:none"
             id="path5328" /></g><g
           id="g5330"
           transform="translate(74.4715,308.4846)"><path
             d="m 0,0 c 0.193,-7.289 0.885,-14.649 2.109,-22.042 5.364,-32.402 20.156,-60.936 41.102,-83.26 L 71.51,-77.003 C 56.274,-60.4 45.519,-39.352 41.572,-15.509 39.748,-4.491 39.496,6.43 40.642,17.027 26.32,12.954 12.701,7.197 0,0"
             style="fill:#59c230;fill-opacity:1;fill-rule:nonzero;stroke:none"
             id="path5332" /></g><g
           id="g5334"
           transform="translate(312.3049,153.7899)"><path
             d="m 0,0 c 0,-80.794 -65.496,-146.29 -146.29,-146.29 -80.794,0 -146.29,65.496 -146.29,146.29 0,80.794 65.496,146.29 146.29,146.29 C -65.496,146.29 0,80.794 0,0"
             style="fill:#f54432;fill-opacity:1;fill-rule:nonzero;stroke:none"
             id="path5336" /></g><g
           id="g5338"
           transform="translate(212.8664,353.96)"><path
             d="m 0,0 c -10.386,-10.619 -19.515,-22.469 -27.145,-35.311 14.54,-25.147 36.062,-46.644 63.572,-61.209 l 18.716,35.352 C 29.129,-47.396 10.246,-25.366 0,0"
             style="fill:#59c230;fill-opacity:1;fill-rule:nonzero;stroke:none"
             id="path5340" /></g><g
           id="g5342"
           transform="translate(492.275,223.7835)"><path
             d="m 0,0 c 0,-80.794 -65.496,-146.29 -146.29,-146.29 -80.794,0 -146.29,65.496 -146.29,146.29 0,80.794 65.496,146.29 146.29,146.29 C -65.496,146.29 0,80.794 0,0"
             style="fill:#fb695b;fill-opacity:1;fill-rule:nonzero;stroke:none"
             id="path5344" /></g><g
           id="g5346"
           transform="translate(335.1397,234.6288)"><path
             d="m 0,0 v 0 c -6.709,-6.709 -17.588,-6.709 -24.297,0 l -7.034,7.034 c -1.16,1.159 -1.16,3.04 0,4.2 l 20.097,20.097 c 1.16,1.16 3.04,1.16 4.2,0 L 0,24.297 C 6.709,17.588 6.709,6.709 0,0"
             style="fill:#454545;fill-opacity:1;fill-rule:nonzero;stroke:none"
             id="path5348" /></g><g
           id="g5350"
           transform="translate(157.2462,153.265)"><path
             d="m 0,0 v 0 c -9.489,0 -17.181,7.692 -17.181,17.181 v 9.947 c 0,1.64 1.33,2.97 2.97,2.97 h 28.422 c 1.64,0 2.97,-1.33 2.97,-2.97 V 17.181 C 17.181,7.692 9.489,0 0,0"
             style="fill:#454545;fill-opacity:1;fill-rule:nonzero;stroke:none"
             id="path5352" /></g><g
           id="g5354"
           transform="translate(239.6952,223.7834)"><path
             d="m 0,0 c 0,74.008 54.96,135.17 126.29,144.923 -6.54,0.894 -13.215,1.367 -20,1.367 C 25.496,146.29 -40,80.794 -40,0 c 0,-80.794 65.496,-146.29 146.29,-146.29 6.785,0 13.46,0.473 20,1.367 C 54.96,-135.17 0,-74.008 0,0"
             style="fill:#f85647;fill-opacity:1;fill-rule:nonzero;stroke:none"
             id="path5356" /></g><g
           id="g5358"
           transform="translate(271.064,419.5615)"><path
             d="m 0,0 -183.966,37.074 c -13.084,2.637 -21.554,15.382 -18.917,28.466 v 0 c 2.637,13.085 15.382,21.554 28.466,18.918 L 9.549,47.383 C 22.634,44.746 31.103,32.002 28.466,18.917 v 0 C 25.829,5.833 13.085,-2.637 0,0"
             style="fill:#7dce5c;fill-opacity:1;fill-rule:nonzero;stroke:none"
             id="path5360" /></g><g
           id="g5362"
           transform="translate(116.0433,292.9756)"><path
             d="M 0,0 C -7.7,46.513 12.532,91.312 48.383,117.211 45.583,76.124 58.781,35.164 85.18,3.433"
             style="fill:none;stroke:#000000;stroke-width:15;stroke-linecap:round;stroke-linejoin:round;stroke-miterlimit:10;stroke-dasharray:none;stroke-opacity:1"
             id="path5364" /></g><g
           id="g5366"
           transform="translate(81.7363,360.3911)"><path
             d="m 0,0 c -7.287,-23.188 -9.39,-48.373 -5.156,-73.948 0.759,-4.584 1.706,-9.089 2.833,-13.511"
             style="fill:none;stroke:#000000;stroke-width:15;stroke-linecap:round;stroke-linejoin:round;stroke-miterlimit:10;stroke-dasharray:none;stroke-opacity:1"
             id="path5368" /></g><g
           id="g5370"
           transform="translate(144.5135,445.066)"><path
             d="M 0,0 C -21.117,-14.419 -38.403,-33.665 -50.527,-55.877"
             style="fill:none;stroke:#000000;stroke-width:15;stroke-linecap:round;stroke-linejoin:round;stroke-miterlimit:10;stroke-dasharray:none;stroke-opacity:1"
             id="path5372" /></g><g
           id="g5374"
           transform="translate(234.3234,319.2539)"><path
             d="M 0,0 C -26.925,30.414 -37.045,73.137 -25.662,112.884"
             style="fill:none;stroke:#000000;stroke-width:15;stroke-linecap:round;stroke-linejoin:round;stroke-miterlimit:10;stroke-dasharray:none;stroke-opacity:1"
             id="path5376" /></g><g
           id="g5378"
           transform="translate(294.7675,84.279)"><path
             d="m 0,0 c -24.737,-45.722 -73.118,-76.779 -128.753,-76.779 -80.793,0 -146.289,65.496 -146.289,146.29 0,80.794 65.496,146.29 146.289,146.29 16.89,0 33.111,-2.862 48.205,-8.128"
             style="fill:none;stroke:#000000;stroke-width:15;stroke-linecap:round;stroke-linejoin:round;stroke-miterlimit:10;stroke-dasharray:none;stroke-opacity:1"
             id="path5380" /></g><g
           id="g5382"
           transform="translate(222.8163,144.7949)"><path
             d="m 0,0 c -36.397,56.635 -29.822,132.883 19.726,182.431 57.13,57.13 149.756,57.13 206.885,0 57.13,-57.13 57.13,-149.755 0,-206.885 -57.129,-57.13 -149.755,-57.13 -206.885,0 -0.811,0.812 -1.611,1.63 -2.4,2.456"
             style="fill:none;stroke:#000000;stroke-width:15;stroke-linecap:round;stroke-linejoin:round;stroke-miterlimit:10;stroke-dasharray:none;stroke-opacity:1"
             id="path5384" /></g><g
           id="g5386"
           transform="translate(335.1397,234.6288)"><path
             d="m 0,0 v 0 c -6.709,-6.709 -17.588,-6.709 -24.297,0 l -7.034,7.034 c -1.16,1.159 -1.16,3.04 0,4.2 l 20.097,20.097 c 1.16,1.16 3.04,1.16 4.2,0 L 0,24.297 C 6.709,17.588 6.709,6.709 0,0 Z"
             style="fill:none;stroke:#000000;stroke-width:15;stroke-linecap:round;stroke-linejoin:round;stroke-miterlimit:10;stroke-dasharray:none;stroke-opacity:1"
             id="path5388" /></g><g
           id="g5390"
           transform="translate(351.396,308.3485)"><path
             d="M 0,0 8.03,-8.03"
             style="fill:none;stroke:#000000;stroke-width:15;stroke-linecap:round;stroke-linejoin:round;stroke-miterlimit:10;stroke-dasharray:none;stroke-opacity:1"
             id="path5392" /></g><g
           id="g5394"
           transform="translate(261.42,218.3726)"><path
             d="M 0,0 8.03,-8.03"
             style="fill:none;stroke:#000000;stroke-width:15;stroke-linecap:round;stroke-linejoin:round;stroke-miterlimit:10;stroke-dasharray:none;stroke-opacity:1"
             id="path5396" /></g><g
           id="g5398"
           transform="translate(378.6147,289.151)"><path
             d="M 0,0 -8.021,-8.021"
             style="fill:none;stroke:#f4f4f4;stroke-width:15;stroke-linecap:round;stroke-linejoin:round;stroke-miterlimit:10;stroke-dasharray:none;stroke-opacity:1"
             id="path5400" /></g><g
           id="g5402"
           transform="translate(288.6387,199.175)"><path
             d="M 0,0 -8.021,-8.021"
             style="fill:none;stroke:#f4f4f4;stroke-width:15;stroke-linecap:round;stroke-linejoin:round;stroke-miterlimit:10;stroke-dasharray:none;stroke-opacity:1"
             id="path5404" /></g><g
           id="g5406"
           transform="translate(157.2462,153.265)"><path
             d="m 0,0 v 0 c -9.489,0 -17.181,7.692 -17.181,17.181 v 9.947 c 0,1.64 1.33,2.97 2.97,2.97 h 28.422 c 1.64,0 2.97,-1.33 2.97,-2.97 V 17.181 C 17.181,7.692 9.489,0 0,0 Z"
             style="fill:none;stroke:#000000;stroke-width:15;stroke-linecap:round;stroke-linejoin:round;stroke-miterlimit:10;stroke-dasharray:none;stroke-opacity:1"
             id="path5408" /></g><g
           id="g5410"
           transform="translate(93.6236,193.8978)"><path
             d="M 0,0 V -11.355"
             style="fill:none;stroke:#000000;stroke-width:15;stroke-linecap:round;stroke-linejoin:round;stroke-miterlimit:10;stroke-dasharray:none;stroke-opacity:1"
             id="path5412" /></g><g
           id="g5414"
           transform="translate(99.2954,161.0766)"><path
             d="M 0,0 H -11.344"
             style="fill:none;stroke:#f4f4f4;stroke-width:15;stroke-linecap:round;stroke-linejoin:round;stroke-miterlimit:10;stroke-dasharray:none;stroke-opacity:1"
             id="path5416" /></g><g
           id="g5418"
           transform="translate(271.064,419.5615)"><path
             d="m 0,0 -183.966,37.074 c -13.084,2.637 -21.554,15.382 -18.917,28.466 v 0 c 2.637,13.085 15.382,21.554 28.466,18.918 L 9.549,47.383 C 22.634,44.746 31.103,32.002 28.466,18.917 v 0 C 25.829,5.833 13.085,-2.637 0,0 Z"
             style="fill:none;stroke:#000000;stroke-width:15;stroke-linecap:round;stroke-linejoin:round;stroke-miterlimit:10;stroke-dasharray:none;stroke-opacity:1"
             id="path5420" /></g></g></g></g></svg>
