<svg id="Solid" height="512" viewBox="0 0 256 256" width="512" xmlns="http://www.w3.org/2000/svg"><path d="m49.4454 197.6109c.7573 10.3681 7.6371 11.4874 10.56 11.4874l.196-.0013c6.1026-.0924 10.0552-4.3863 10.5735-11.4861 1.1263-15.4279-7.1752-26.64-10.6648-30.6241-3.4873 3.9813-11.791 15.1932-10.6647 30.6241z"/><path d="m37.8642 129.7576c-.9577 0-1.9309.0354-2.8918.1055-10.5032.7667-11.5317 7.7771-11.4861 10.7553.0924 6.1029 4.386 10.056 11.4861 10.5746.9609.07 1.9336.1055 2.8912.1055 13.9826 0 24.0228-7.4956 27.738-10.7669-3.7259-3.2666-13.8048-10.774-27.7374-10.774z"/><path d="m85.23 161.038c.5553 5.257 3.1512 18.9747 15.2544 28.6239 2.8751 2.2921 5.6864 3.4544 8.3558 3.4547h.001a9.9294 9.9294 0 0 0 7.3789-3.5581c4.074-4.5456 3.6029-10.363-1.26-15.562-10.6522-11.3888-24.6106-12.8365-29.7301-12.9585z"/><path d="m107.0525 146.3247c.93-5.2094 2.2494-19.1036-6.69-31.7359-2.8145-3.9778-6.0237-5.9947-9.54-5.9947a10.66 10.66 0 0 0 -5.6031 1.7166c-5.1778 3.2323-6.3438 8.9512-3.119 15.2976 7.0342 13.8452 19.914 19.1236 24.9521 20.7164z"/><path d="m144.6308 72.9735a15.7394 15.7394 0 0 0 6.1171 1.3892 9.9466 9.9466 0 0 0 3.7759-.7116 48.3282 48.3282 0 0 1 .38-19.3161c-.167-.1082-.33-.2167-.5059-.3238a40.2547 40.2547 0 0 0 -21.3125-5.8583 44.7938 44.7938 0 0 0 -10.7991 1.3078c1.9386 4.9171 8.1031 17.4451 22.3445 23.5128z"/><path d="m107.3786 70.7728c2.79-6.55 1.2418-12.1774-4.1411-15.0538a10.9159 10.9159 0 0 0 -5.0956-1.3565c-3.7066 0-7.07 2.2972-9.726 6.6435-8.0657 13.1992-5.82 26.9678-4.5412 32.1076 4.9263-1.9436 17.4404-8.1101 23.5039-22.3408z"/><path d="m140.7019 157.2987a39.1294 39.1294 0 0 0 5.2846-4.8727 36.2826 36.2826 0 0 1 -.5377-5.4809l2.0249-2.1917c.0666-.0054.6815-.0518 1.744-.0518.5714 0 1.3164.0158 2.1989.0652a45.1335 45.1335 0 0 0 5.1208-15.7789c-5.4919.0142-19.193 1.2678-29.9916 12.3559-4.9672 5.1-5.5559 10.907-1.5743 15.5329a9.8884 9.8884 0 0 0 7.4926 3.7088c2.6142 0 5.3859-1.1055 8.2378-3.2868z"/><path d="m69.6869 120.1712c.8809-5.2177 2.0711-19.1238-6.9846-31.6722-2.7441-3.8028-6.0586-5.8126-9.5842-5.8126a10.7069 10.7069 0 0 0 -5.4431 1.58c-2.56 1.5243-7.989 6.0777-3.1319 15.4218 7.1624 13.7791 20.0912 18.9372 25.1438 20.483z"/><path d="m131.8493 209.5177c.7567 10.3689 7.6371 11.4882 10.56 11.4882l.1961-.0013c6.1026-.0927 10.0552-4.3869 10.5735-11.4869 1.1263-15.4274-7.1753-26.64-10.6648-30.6236-3.4874 3.9814-11.7912 15.1938-10.6648 30.6236z"/><path d="m123.6943 111.8124c.9609.07 1.9336.1055 2.8918.1055 13.9826 0 24.0227-7.4956 27.7374-10.7666-3.726-3.2669-13.8048-10.7744-27.7374-10.7744-.9577 0-1.9309.0355-2.8918.1055-10.5037.7667-11.5317 7.7768-11.4861 10.7554.0918 6.1033 4.3855 10.0561 11.4861 10.5746z"/><path d="m149.9993 149.111c.5553 5.257 3.1512 18.9747 15.255 28.6244 2.8746 2.2919 5.6859 3.4539 8.3553 3.4542h.001a9.9335 9.9335 0 0 0 7.38-3.5581c4.0729-4.545 3.6018-10.3627-1.2606-15.5616-10.6526-11.3892-24.6105-12.8365-29.7307-12.9589z"/><path d="m177.3574 108.5941a10.6605 10.6605 0 0 0 -5.6031 1.7166c-5.1771 3.2323-6.3433 8.9509-3.119 15.2979 7.0335 13.8448 19.9134 19.1232 24.9515 20.716.93-5.2094 2.2488-19.1036-6.6892-31.7359-2.8144-3.9777-6.0242-5.9946-9.5402-5.9946z"/><path d="m215.4036 98.4287a9.9033 9.9033 0 0 0 8.9365-5.53c1.404-2.6273 3.7-9.331-5.2862-14.8218a40.2555 40.2555 0 0 0 -21.3125-5.8579 44.9871 44.9871 0 0 0 -10.7976 1.311c1.94 4.9194 8.1045 17.4426 22.3427 23.509a15.7367 15.7367 0 0 0 6.1171 1.3897z"/><path d="m182.9729 53.27c2.79-6.549 1.2423-12.1765-4.1406-15.0536a10.9194 10.9194 0 0 0 -5.0961-1.3565c-3.7066 0-7.0695 2.2972-9.7255 6.6435-8.0657 13.1992-5.82 26.9677-4.5418 32.1076 4.927-1.944 17.4411-8.1101 23.504-22.341z"/><path d="m204.3284 165.7732c-4.9666 5.1-5.5553 10.9068-1.5743 15.5332a9.8892 9.8892 0 0 0 7.4927 3.7084c2.6141 0 5.3856-1.1059 8.2376-3.2868 12.3422-9.4387 15.1873-23.0734 15.8356-28.311-5.4914.0142-19.1925 1.2678-29.9916 12.3562z"/><path d="m41.1793 35.2212c-7.0781.7678-11.23 4.8692-11.1085 10.9715.06 2.9783 1.3342 9.9479 11.8578 10.3447 15.5321.5884 26.3941-8.1034 30.2349-11.7318-3.7109-3.0315-13.4949-9.8162-26.7164-9.8162a39.7577 39.7577 0 0 0 -4.2678.2318z"/></svg>