<svg id="Layer_1" enable-background="new 0 0 512.306 512.306" height="512" viewBox="0 0 512.306 512.306" width="512" xmlns="http://www.w3.org/2000/svg"><g><path d="m6.235 316.804h477.535c4.078-17.727 6.235-36.187 6.235-55.152 0-135.311-109.691-245.002-245.002-245.002-135.312 0-245.003 109.691-245.003 245.002 0 18.965 2.157 37.425 6.235 55.152z" fill="#ff4155"/><path d="m478.477 283.654c-1.794 3.478-4.223 5.641-7.22 6.43-5.164 1.36-10.684-1.631-11.982-2.401-3.191-5.539-45.153-78.725-45.153-95.815 0-5.012 1.355-8.614 4.028-10.705 4.411-3.45 11.144-1.833 11.208-1.817l1.764.275c-27.477-34.029-64.087-60.374-106.114-75.293.122.359.263.717.37 1.077 1.372 4.602 1.07 8.321-.9 11.055-3.669 5.093-12.018 5.421-12.051 5.423-.64-.002-64.157-.341-79.172-10.073-4.302-2.788-6.628-5.932-6.915-9.345-.465-5.543 4.562-10.224 4.61-10.269l.49-.446v-.744c-51.632 2.889-98.885 22.156-136.656 52.696h.06c-.4 2.979-.62 8.872 2.926 12.896 2.5 2.836 6.321 4.166 11.379 3.959-.618 2.941-1.127 8.31 1.923 12.639 2.678 3.8 7.417 5.868 14.1 6.158-.694 7.212-2.153 35.598 15.043 55.348 10.926 12.548 27.204 18.973 48.389 19.102l71.538 76.23c-.515 4.718-2.905 31.784 5.944 60.492h187.308l.001.002c13.896-22.423 24.285-47.249 30.374-73.72-.631-11.854-2.127-23.478-4.423-34.812-.299.562-.592 1.12-.869 1.658z" fill="#e4e5ea"/><g fill="#f7f7f7"><path d="m429.71 177.886c-.31-.076-17.089-4.136-17.089 13.981 0 18.285 45.545 96.895 45.545 96.895s14.439 9.509 21.633-4.4c-7.666-39.91-25.247-76.289-50.089-106.476z"/><path d="m326.819 104.991c-25.526-9.296-53.075-14.381-81.816-14.381-5.06 0-10.08.165-15.062.475s-13.064 11.896 2.498 21.982 79.983 10.314 79.983 10.314 19.693-.585 14.397-18.39z"/></g><path d="m261.713 329.512-72.457-77.21c-72.744 0-62.409-74.416-62.409-74.416-22.486 0-15.701-18.996-15.701-18.996-19.113 2.229-14.549-16.538-14.512-16.685-52.125 41.3-86.631 103.869-90.398 174.599 6.09 26.471 16.479 51.297 30.375 73.721v-.003h230.97c-9.87-31.473-5.868-61.01-5.868-61.01z" fill="#d2d3de"/><path d="m245.002 112.703c-51.46 0-98.727 17.922-135.926 47.849.025-.001.048.001.073 0-.618 2.941-1.127 8.31 1.923 12.639 2.678 3.8 7.417 5.868 14.1 6.158-.694 7.212-2.153 35.598 15.043 55.348 10.926 12.548 27.204 18.973 48.389 19.102l71.538 76.23c-.759 6.947-5.591 62.341 27.39 100.094 16.739 19.161 40.354 30.778 70.383 34.696h24.036c28.741-19.416 53.142-44.767 71.443-74.298 5.619-19.29 8.632-39.69 8.632-60.794.001-119.859-97.164-217.024-217.024-217.024z" fill="#d2d3de"/><path d="m381.951 464.82c-138.58-.015-120.238-135.308-120.238-135.308l-72.457-77.21c-72.744 0-62.409-74.416-62.409-74.416-22.456 0-15.72-18.943-15.702-18.993-50.635 39.73-83.167 101.483-83.167 170.836 0 21.104 3.014 41.504 8.632 60.794 18.301 29.531 42.703 54.883 71.443 74.298z" fill="#c0c2d1"/><path d="m125.172 179.35c-.694 7.212-2.153 35.598 15.043 55.348 10.926 12.548 27.204 18.973 48.389 19.102l71.538 76.23c-.759 6.947-5.591 62.341 27.39 100.094 20.604 23.586 51.623 35.746 92.208 36.176.746-.492 1.494-.98 2.233-1.479 34.266-34.739 55.423-82.442 55.423-135.092 0-106.256-86.138-192.394-192.394-192.394-45.382 0-87.085 15.722-119.984 42.003.054.002.101.009.154.012z" fill="#ffd304"/><g fill="#ffc00a"><ellipse cx="291.617" cy="321.892" rx="29.904" ry="29.904" transform="matrix(.23 -.973 .973 .23 -88.664 531.753)"/><circle cx="325.137" cy="270.402" r="29.639"/><ellipse cx="224.809" cy="205.44" rx="38.713" ry="38.713" transform="matrix(.707 -.707 .707 .707 -79.423 219.136)"/><path d="m261.713 329.512-72.457-77.21c-72.651 0-62.436-74.222-62.41-74.412-45.177 35.206-74.237 90.126-74.237 151.838 0 52.65 21.157 100.353 55.423 135.092 39.1 26.412 86.234 41.834 136.971 41.834h.001c50.736 0 97.87-15.422 136.971-41.834-138.605 0-120.262-135.308-120.262-135.308z"/><ellipse cx="131.731" cy="219.127" rx="25.026" ry="25.026" transform="matrix(.707 -.707 .707 .707 -116.363 157.329)"/><ellipse cx="152.703" cy="252.822" rx="33.696" ry="33.696" transform="matrix(.23 -.973 .973 .23 -128.44 343.354)"/><circle cx="274.752" cy="390.851" r="29.75"/><circle cx="296.786" cy="428.436" r="24.98"/><circle cx="330.069" cy="456.187" r="27.751"/></g><path d="m299.415 312.491 25.196 25.682c6.868 7 18.654 4.703 22.391-4.363l16.077-39.008c4.436-10.763-5.756-21.79-16.834-18.213l-41.273 13.326c-9.668 3.121-12.671 15.324-5.557 22.576z" fill="#ffde4a"/><path d="m327.11 313.571 12.692 12.937c3.459 3.526 9.396 2.369 11.279-2.198l8.098-19.649c2.234-5.422-2.899-10.976-8.48-9.174l-20.79 6.712c-4.87 1.572-6.383 7.719-2.799 11.372z" fill="#ffe98f"/><path d="m217.108 203.343c7.955-7.955 16.746-14.37 25.89-19.195 17.804-5.717 38.164-1.557 52.231 12.511l26.071 26.071c14.068 14.068 18.228 34.427 12.511 52.231-4.825 9.144-11.24 17.934-19.195 25.89-34.137 34.137-83.639 39.983-110.565 13.057-26.926-26.927-21.08-76.428 13.057-110.565z" fill="#e2915a"/><path d="m422.133 121.133c-9.89 2.195-17.319 1.136-22.081-3.15-7.339-6.606-6.031-18.915-6.018-19.039l-.155-1.721c-17.106 19.864-34.542 39.796-50.174 57.466-6.106 6.902-13.508 12.35-21.65 16.097-8.256 3.8-17.512 4.936-26.483 3.48-17.831-2.894-37.965 1.267-56.358 11.986 18.388-7.007 40.061-3.148 54.814 11.605l26.072 26.073c14.753 14.753 18.612 36.425 11.605 54.814 10.72-18.393 14.881-38.527 11.986-56.358-1.456-8.971-.32-18.226 3.48-26.482 3.747-8.142 9.196-15.545 16.098-21.651 18.898-16.719 40.383-35.501 61.607-53.736-.941.214-1.858.419-2.743.616z" fill="#eaa471"/><path d="m101.053 88.522c10.087.734 20.132-1.766 28.972-6.679 24.951-13.869 109.077-52.599 205.608-8.14 17.428 8.027 37.111-.234 44.677-16.313-38.772-25.735-85.285-40.74-135.308-40.74h-.001c-63.77 0-121.842 24.37-165.431 64.296 5.224 3.855 12.21 6.901 21.483 7.576z" fill="#ff7186"/><path d="m484.77 69.168c-19.604 0-35.497-15.893-35.497-35.497 0-.822.038-1.636.093-2.444-16.076 19.813-36.242 43.666-56.822 67.545s-3.628 31.269 29.912 23.825c22.512-19.368 44.834-38.214 63.605-53.462-.429.016-.858.033-1.291.033z" fill="#f1b788"/><path d="m503.918 14.103-.063-.063c-12.159-12.159-32.197-10.931-42.818 2.593-3.85 4.903-8.12 10.228-12.691 15.849-.044.725-.074 1.454-.074 2.19 0 19.604 15.892 35.497 35.497 35.497.353 0 .702-.016 1.053-.027 5.868-4.776 11.408-9.22 16.503-13.221 13.524-10.621 14.753-30.659 2.593-42.818z" fill="#f4dabd"/><ellipse cx="376.791" cy="368.274" fill="#ffde4a" rx="25.026" ry="25.026" transform="matrix(.707 -.707 .707 .707 -150.049 374.296)"/><circle cx="394.29" cy="310.757" fill="#ffe98f" r="15.63"/><circle cx="163.201" cy="387.743" fill="#ffad0f" r="37.254"/><ellipse cx="198.491" cy="460.642" fill="#ffad0f" rx="23.296" ry="23.296" transform="matrix(.924 -.383 .383 .924 -161.171 111.024)"/><circle cx="136.6" cy="336.693" fill="#ffad0f" r="37.254"/><ellipse cx="296.263" cy="378.896" fill="#ffc00a" rx="41.704" ry="41.704" transform="matrix(.23 -.973 .973 .23 -140.564 580.182)"/><ellipse cx="173.244" cy="213.01" fill="#ffc00a" rx="25.026" ry="25.026" transform="matrix(.23 -.973 .973 .23 -73.871 332.68)"/><path d="m261.533 302.269c-6.083-13.902-20.838-22.109-35.978-19.779-1.226-6.391-4.283-12.258-8.711-16.912 9.459-19.957-2.487-43.489-24.234-47.576-17.023-3.199-33.989 7.309-38.644 23.994-3.355 12.027.195 24.114 8.053 32.371-1.147 2.419-2.027 5.01-2.583 7.751-3.111 15.32 4.708 30.319 18.1 36.921-.466 1.228-.844 2.508-1.114 3.838-2.688 13.235 5.863 26.142 19.097 28.83 7.693 1.562 15.271-.678 20.799-5.422 2.391 1.124 4.948 1.989 7.652 2.538 7.164 1.455 14.255.512 20.453-2.266 3.452 4.263 8.351 7.396 14.148 8.569 13.173 2.665 26.58-6.48 28.928-19.713 2.393-13.483-6.748-26.026-19.775-28.331-2.737-.483-5.077-2.266-6.191-4.813z" fill="#ffc00a"/><circle cx="207.096" cy="351.796" fill="#ffad0f" r="35.189"/><path d="m268.807 262.805-26.397-24.447c-7.195-6.663-18.858-3.804-22.156 5.431l-14.191 39.733c-3.916 10.963 6.793 21.489 17.687 17.386l40.588-15.287c9.506-3.58 11.922-15.914 4.469-22.816z" fill="#ffde4a"/><path d="m262.103 256.382-16.075-14.887c-4.381-4.057-11.484-2.317-13.492 3.307l-8.642 24.196c-2.384 6.676 4.137 13.086 10.771 10.587l24.716-9.309c5.79-2.18 7.261-9.691 2.722-13.894z" fill="#ffe98f"/><path d="m152.515 262.209c0 3.344-2.711 6.056-6.055 6.056s-6.055-2.711-6.055-6.056c0-3.344 2.711-6.055 6.055-6.055s6.055 2.71 6.055 6.055z" fill="#b2e456"/><path d="m363.876 420.601c0 3.344-2.711 6.055-6.056 6.055s-6.055-2.711-6.055-6.055 2.711-6.055 6.055-6.055 6.056 2.71 6.056 6.055z" fill="#b2e456"/><ellipse cx="321.766" cy="372.771" fill="#84bd36" rx="10.553" ry="10.553" transform="matrix(.707 -.707 .707 .707 -169.346 336.705)"/><path d="m327.822 357.851c0 3.344-2.711 6.056-6.056 6.056-3.344 0-6.055-2.711-6.055-6.056s2.711-6.055 6.055-6.055c3.345 0 6.056 2.711 6.056 6.055z" fill="#b2e456"/><path d="m211.027 426.396 30.649-18.844c8.354-5.136 8.739-17.138.733-22.8l-34.448-24.36c-9.505-6.721-22.524.759-21.504 12.355l3.799 43.205c.889 10.119 12.117 15.765 20.771 10.444z" fill="#ffde4a"/><path d="m215.929 403.509 18.075-11.113c4.926-3.029 5.154-10.107.432-13.446l-20.315-14.366c-5.605-3.964-13.283.448-12.682 7.286l2.241 25.479c.524 5.969 7.146 9.298 12.249 6.16z" fill="#ffe98f"/><circle cx="207.096" cy="349.162" fill="#84bd36" r="10.856"/><circle cx="271.806" cy="387.729" fill="#84bd36" r="12.48"/><circle cx="221.788" cy="342.272" fill="#b2e456" r="8.052"/><ellipse cx="203.31" cy="254.866" fill="#84bd36" rx="10.856" ry="10.856" transform="matrix(.924 -.383 .383 .924 -82.057 97.204)"/><circle cx="218.002" cy="247.976" fill="#b2e456" r="8.052"/><path d="m180.622 353.008 23.235-27.47c6.333-7.487 2.952-19.01-6.421-21.89l-40.331-12.389c-11.128-3.418-21.162 7.752-16.573 18.451l17.096 39.86c4.004 9.336 16.434 11.194 22.994 3.438z" fill="#ffde4a"/><path d="m175.26 326.114 12.711-15.028c3.465-4.096 1.615-10.4-3.513-11.976l-22.065-6.778c-6.088-1.87-11.577 4.241-9.067 10.094l9.353 21.807c2.191 5.108 8.991 6.124 12.581 1.881z" fill="#ffe98f"/><ellipse cx="194.129" cy="314.501" fill="#84bd36" rx="9.728" ry="9.728" transform="matrix(.23 -.973 .973 .23 -156.56 431.18)"/><ellipse cx="192.454" cy="300.041" fill="#b2e456" rx="8.052" ry="8.052" transform="matrix(.23 -.973 .973 .23 -143.777 418.411)"/><path d="m308.374 403.456c0 3.344-2.711 6.055-6.055 6.055s-6.055-2.711-6.055-6.055 2.711-6.055 6.055-6.055 6.055 2.711 6.055 6.055z" fill="#b2e456"/><path d="m301.983 364.939-8.217-35.027c-2.24-9.547-13.508-13.698-21.406-7.886l-33.981 25.008c-9.376 6.9-6.383 21.614 4.943 24.304l42.198 10.02c9.884 2.346 18.783-6.529 16.463-16.419z" fill="#ffde4a"/><path d="m286.905 347.829-4.675-19.93c-1.274-5.432-7.686-7.794-12.18-4.487l-19.335 14.229c-5.335 3.926-3.632 12.298 2.812 13.828l24.01 5.701c5.625 1.336 10.688-3.714 9.368-9.341z" fill="#ffe98f"/><ellipse cx="242.533" cy="378.001" fill="#9bd146" rx="9.728" ry="9.728" transform="matrix(.707 -.707 .707 .707 -196.251 282.211)"/><ellipse cx="285.52" cy="381.357" fill="#9bd146" rx="8.052" ry="8.053" transform="matrix(.16 -.987 .987 .16 -136.648 602.103)"/></g></svg>