<svg id="Color" height="512" viewBox="0 0 64 64" width="512" xmlns="http://www.w3.org/2000/svg"><path d="m31 10c16.83-7.92 32.69 8.67 31.05 35.21-1.77-2.59-5.05-5.21-5.05-5.21h2c-.31-1.67-1.9-3.22-3.58-4.45-2.14-1.54-4.42-2.55-4.42-2.55l1-1c-1.92-.96-5.67-.08-5.98-.01l.98-.99c-7.22-1.6-11.87 1.94-13.42 3.4-1.91-2.31-5.6-4.12-10.15-4.92-2.27-4.41-4.97-13.58 7.57-19.48z" fill="#af8358"/><path d="m46.707 9.64c2.791 6.766 4.377 14.773 3.078 21.918.81.019 1.605.137 2.215.442l-1 1s2.28 1.01 4.42 2.55c1.68 1.23 3.27 2.78 3.58 4.45h-2s3.28 2.62 5.05 5.21c1.1-17.806-5.681-31.119-15.343-35.57z" fill="#966a44"/><path d="m63 47c-.19-.57-.53-1.18-.95-1.79-1.77-2.59-5.05-5.21-5.05-5.21h2c-.31-1.67-1.9-3.22-3.58-4.45-2.14-1.54-4.42-2.55-4.42-2.55l1-1c-1.92-.96-5.67-.08-5.98-.01l.98-.99c-1.17-.26-2.28-.39-3.31-.4-1.22-.03-2.35.1-3.37.32-3.45.72-5.74 2.54-6.74 3.48.91 1.1 1.42 2.32 1.42 3.6 0 0 0 1.8-.42 4.34-.37 2.2-1.06 4.96-2.35 7.6.72.96 1.81 1.98 3.3 2.77 1.84.98 4.31 1.61 7.47 1.29l-.85-1.56h.23c.43.02 1.42.04 2.67.04.46 0 .95 0 1.47-.01 1.27-.02 2.66-.06 3.95-.16.93-.07 1.8-.17 2.53-.31l-.63-1.52s9.63-1.48 10.63-3.48z" fill="#547204"/><path d="m49.58 44.46c-1.01-1.2-1.87-1.69-1.87-1.69 1.28.23 2.54.5 3.76.78 6.4 1.48 11.53 3.45 11.53 3.45-1 2-10.63 3.48-10.63 3.48-.6-2.88-1.77-4.81-2.79-6.02z" fill="#647f0e"/><path d="m62.05 45.21c.42.61.76 1.22.95 1.79 0 0-5.13-1.97-11.53-3.45 1.21-1.04 2.83-2.55 5.53-3.55 0 0 3.28 2.62 5.05 5.21z" fill="#486900"/><path d="m59 40h-2c-2.7 1-4.32 2.51-5.53 3.55-1.22-.28-2.48-.55-3.76-.78-1.76-.32-3.56-.57-5.33-.71v-.02c.3-1.23.46-2.36.9-3.87 2.5.47 7.47.12 12.13-2.61l.01-.01c1.68 1.23 3.27 2.78 3.58 4.45z" fill="#547204"/><path d="m51 33s2.28 1.01 4.42 2.55l-.01.01c-4.66 2.73-9.63 3.08-12.13 2.61.15-.5.33-1.05.57-1.65v-.01c.47-1.22 1.15-2.68 2.17-4.52.31-.07 4.06-.95 5.98.01z" fill="#647f0e"/><path d="m46.02 31.99c-1.02 1.84-1.7 3.3-2.17 4.52-.71-2.51-.35-4.35-.16-5.91 1.03.01 2.14.14 3.31.4z" fill="#647f0e"/><path d="m42.38 42.06c-.8-.07-1.59-.11-2.37-.13-.41-.01-.81-.01-1.21 0v-.04c-.28-2-.56-6.43 1.52-10.97 1.02-.22 2.15-.35 3.37-.32-.19 1.56-.55 3.4.16 5.91v.01c-.24.6-.42 1.15-.57 1.65-.44 1.51-.6 2.64-.9 3.87z" fill="#486900"/><path d="m40.32 30.92c-2.08 4.54-1.8 8.97-1.52 10.97v.04c-1.49.02-2.91.14-4.22.41.42-2.54.42-4.34.42-4.34 0-1.28-.51-2.5-1.42-3.6 1-.94 3.29-2.76 6.74-3.48z" fill="#647f0e"/><path d="m42.15 52.44.85 1.56c-3.16.32-5.63-.31-7.47-1.29l.01-.03c1.53-3.13 5.02-4.96 6.72-5.59.33 1.53.46 3.33.12 5.35-.15 0-.23 0-.23 0z" fill="#647f0e"/><path d="m40.01 41.93c.22.28 1.62 2.18 2.25 5.16-1.7.63-5.19 2.46-6.72 5.59l-.01.03c-1.49-.79-2.58-1.81-3.3-2.77 1.29-2.64 1.98-5.4 2.35-7.6 1.31-.27 2.73-.39 4.22-.41.4-.01.8-.01 1.21 0z" fill="#547204"/><path d="m40.01 41.93c.78.02 1.57.06 2.37.13 1.77.14 3.57.39 5.33.71 0 0 .86.49 1.87 1.69 0 0-3.55 4.53-3.06 8.01-.52.01-1.01.01-1.47.01-1.25 0-2.24-.02-2.67-.04.34-2.02.21-3.82-.12-5.35-.63-2.98-2.03-4.88-2.25-5.16z" fill="#486900"/><path d="m52.37 50.48.63 1.52c-.73.14-1.6.24-2.53.31-1.29.1-2.68.14-3.95.16-.49-3.48 3.06-8.01 3.06-8.01 1.02 1.21 2.19 3.14 2.79 6.02z" fill="#547204"/><path d="m55.339 44.537c-1.248.999-2.657 1.777-4.171 2.384.48.979.909 2.154 1.202 3.559 0 0 9.63-1.48 10.63-3.48 0 0-3.186-1.221-7.661-2.463z" fill="#547204"/><path d="m62.05 45.21c-1.039-1.521-2.596-3.048-3.707-4.053-.837 1.338-1.85 2.456-3.005 3.38 4.476 1.242 7.662 2.463 7.662 2.463-.19-.57-.53-1.18-.95-1.79z" fill="#435404"/><path d="m35.54 52.68-.01.03c1.84.98 4.31 1.61 7.47 1.29l-.85-1.56h.23c.222-1.32.23-2.534.127-3.652-1.246.109-2.494.169-3.725.203-1.257.923-2.488 2.146-3.242 3.689z" fill="#547204"/><path d="m32.632 49.008c-.135.311-.251.623-.402.932.72.96 1.81 1.98 3.3 2.77l.01-.03c.754-1.543 1.985-2.766 3.242-3.689-2.143.058-4.231.032-6.15.017z" fill="#486900"/><path d="m42.507 48.788c.104 1.118.096 2.332-.127 3.652.43.02 1.42.04 2.67.04.46 0 .95 0 1.47-.01-.2-1.424.278-3.019.91-4.413-1.601.357-3.259.586-4.923.731z" fill="#435404"/><path d="m46.52 52.47c1.27-.02 2.66-.06 3.95-.16.93-.07 1.8-.17 2.53-.31l-.63-1.52c-.293-1.405-.722-2.58-1.202-3.559-1.19.477-2.445.849-3.738 1.137-.632 1.393-1.11 2.988-.91 4.412z" fill="#486900"/><path d="m50.47 52.31c-1.29.1-2.68.14-3.95.16-.52.01-1.01.01-1.47.01-1.25 0-2.24-.02-2.67-.04-.15 0-.23 0-.23 0l.85 1.56c-3.16.32-5.63-.31-7.47-1.29-1.49-.79-2.58-1.81-3.3-2.77-.59 1.23-1.32 2.44-2.21 3.54 1.36 1.71 4.98 3.93 7.2 4.52v-1.88s4.35 2.31 7.45 2.88l-.36-1.2s4.82 1.46 6.69.38c.01-.06.03-.11.03-.17.57-2.7-.56-5.7-.56-5.7z" fill="#547204"/><path d="m50.47 52.31s1.13 3 .56 5.7l-.03-.01c-.81-.97-3.63-3.14-5.95-5.52.46 0 .95 0 1.47-.01 1.27-.02 2.66-.06 3.95-.16z" fill="#486900"/><path d="m37.22 56.12v1.88c-2.22-.59-5.84-2.81-7.2-4.52.89-1.1 1.62-2.31 2.21-3.54.72.96 1.81 1.98 3.3 2.77 1.84.98 4.31 1.61 7.47 1.29l-.85-1.56h.23c.43.02 1.42.04 2.67.04 2.32 2.38 5.14 4.55 5.95 5.52l.03.01c0 .06-.02.11-.03.17-1.87 1.08-6.69-.38-6.69-.38l.36 1.2c-3.1-.57-7.45-2.88-7.45-2.88z" fill="#547204"/><path d="m50.99 54.29c-.61.1-1.29.18-2 .23-.55.05-1.11.08-1.68.11-.75-.67-1.53-1.4-2.26-2.15.46 0 .95 0 1.47-.01 1.27-.02 2.66-.06 3.95-.16 0 0 .31.81.52 1.98z" fill="#3c5102"/><path d="m47.31 54.63c-.77.03-1.54.05-2.27.06-.52.02-1.01.02-1.47.02-1.25 0-2.9-.05-2.9-.05l.85 1.66c-1.6.17-3.03.09-4.28-.18-.01-.02-.02-.01-.02-.01-1.21-.25-2.27-.67-3.17-1.18-1.38-.78-2.41-1.76-3.13-2.71.5-.74.93-1.52 1.31-2.3.72.96 1.81 1.98 3.3 2.77 1.84.98 4.31 1.61 7.47 1.29l-.85-1.56h.23c.43.02 1.42.04 2.67.04.73.75 1.51 1.48 2.26 2.15z" fill="#476002"/><path d="m38.8 41.89v.04c-.67.01-1.33.04-1.97.09.01-.01.01-.03.01-.04.4-2.74.4-4.66.4-4.66 0-1.42-.51-2.77-1.41-3.99-.11-.14-.22-.28-.34-.42 1.2-.77 2.82-1.57 4.83-1.99-2.08 4.54-1.8 8.97-1.52 10.97z" fill="#647f0e"/><path d="m32 7 2-2s.5 2 1.15 3.53c-1.37.33-2.75.81-4.15 1.47-1.51.71-2.81 1.47-3.9 2.27-.49-.36-1.19-.82-2.1-1.27l1-1 1-2h2l2-2z" fill="#a57a50"/><path d="m25.49 13.58c-3.09-2.08-6.99-2.99-10.68-2.4-3.86.62-7.43 2.92-9.43 6.23-.84 1.38-1.39 3-1.38 4.59.02.45.06.93.1 1.42v.01c.13 1.32.34 2.76.68 4.31.32 1.46.7 2.78 1.11 3.95 1.84-.99 4.11-1.76 6.65-2.21 1.71-.31 3.55-.48 5.46-.48 1.9 0 3.72.17 5.43.48-.66-1.29-1.36-2.97-1.71-4.87-.34-1.9-.34-4 .41-6.1.59-1.68 1.65-3.36 3.36-4.93z" fill="#f1e4a0"/><path d="m4.43 24.23c.99 2.05 2.66 3.05 3.7 3.68 1.63.98 3.22 1.4 4.41 1.57-2.54.45-4.81 1.22-6.65 2.21-.41-1.17-.79-2.49-1.11-3.95-.34-1.55-.55-2.99-.68-4.31.09.26.2.52.33.8z" fill="#a57a50"/><path d="m16.26 24.74c.04.01.08.02.12.03.89.17 1.96.22 3.25.11.64-.04 1.34-.13 2.09-.27.35 1.9 1.05 3.58 1.71 4.87-1.71-.31-3.53-.48-5.43-.48-1.91 0-3.75.17-5.46.48-1.19-.17-2.78-.59-4.41-1.57-1.04-.63-2.71-1.63-3.7-3.68-.13-.28-.24-.54-.33-.8v-.01c-.04-.49-.08-.97-.1-1.42-.01-1.59.54-3.21 1.38-4.59 2-3.31 5.57-5.61 9.43-6.23 3.69-.59 7.59.32 10.68 2.4-1.71 1.57-2.77 3.25-3.36 4.93-.89-.53-1.73-.89-2.51-1.13-.54-.17-1.06-.28-1.55-.34-.38-.05-.73-.05-1.07-.03-.95.07-1.75.39-2.37.87-.84.63-1.37 1.53-1.56 2.48-.2 1.07.02 2.18.74 3.04.54.63 1.35 1.12 2.45 1.34z" fill="#ac0"/><path d="m19.63 24.88c-1.29.11-2.36.06-3.25-.11-.04-.01-.08-.02-.12-.03-1.1-.22-1.91-.71-2.45-1.34-.72-.86-.94-1.97-.74-3.04.19-.95.72-1.85 1.56-2.48.62-.48 1.42-.8 2.37-.87.34-.02.69-.02 1.07.03.49.06 1.01.17 1.55.34.78.24 1.62.6 2.51 1.13-.75 2.1-.75 4.2-.41 6.1-.75.14-1.45.23-2.09.27z" fill="#f1e4a0"/><path d="m5.669 26.024c.848.906 1.786 1.477 2.461 1.886 1.63.98 3.22 1.4 4.41 1.57 1.71-.31 3.55-.48 5.46-.48 1.9 0 3.72.17 5.43.48-.66-1.29-1.36-2.97-1.71-4.87-.75.14-1.45.23-2.09.27-1.048.089-1.945.069-2.724-.032-3.506 1.18-7.643 1.214-11.237 1.176z" fill="#80b918"/><path d="m21.508 22.118c-1.282 1.281-2.864 2.146-4.601 2.73.779.1 1.676.121 2.724.032.64-.04 1.34-.13 2.09-.27-.144-.8-.221-1.636-.213-2.492z" fill="#edd262"/><path d="m33.58 34.4c-1.91-2.31-5.6-4.12-10.15-4.92-1.71-.31-3.53-.48-5.43-.48-1.91 0-3.75.17-5.46.48-2.54.45-4.81 1.22-6.65 2.21-3.03 1.62-4.89 3.85-4.89 6.31 0 0 0 21 17 21 5.72 0 9.52-2.38 12.04-5.54.87-1.09 1.59-2.28 2.18-3.49 1.32-2.7 2.01-5.54 2.38-7.77.4-2.47.4-4.2.4-4.2 0-1.28-.51-2.5-1.42-3.6z" fill="#af8358"/><path d="m33.58 34.4c.91 1.1 1.42 2.32 1.42 3.6 0 4.97-7.61 9-17 9s-17-4.03-17-9c0-2.46 1.86-4.69 4.89-6.31 1.84-.99 4.11-1.76 6.65-2.21 1.71-.31 3.55-.48 5.46-.48 1.9 0 3.72.17 5.43.48 4.55.8 8.24 2.61 10.15 4.92z" fill="#ac0"/><path d="m35 38c0 4.97-7.61 9-17 9-7.68 0-14.16-2.69-16.27-6.39 3.11 2.07 7.9 3.39 13.27 3.39 9.39 0 17-4.03 17-9 0-.91-.26-1.79-.74-2.62.93.61 1.71 1.29 2.32 2.02.91 1.1 1.42 2.32 1.42 3.6z" fill="#80b918"/><path d="m20.36 40.91c-.76.06-1.55.09-2.36.09-.17 0-.34 0-.5-.01-1.02-.01-1.99-.07-2.9-.18-1.41-.14-2.68-.39-3.71-.7-1.34-.41-2.3-.93-2.69-1.51-.13-.2-.2-.4-.2-.6 0-.65.7-1.26 1.88-1.75.92-.38 2.13-.7 3.54-.92 1-.15 2.1-.26 3.26-.3.43-.02.87-.03 1.32-.03.5 0 1 .01 1.48.04.97.04 1.9.12 2.76.25 1.25.17 2.35.42 3.25.72 1.26.43 2.12.96 2.4 1.55.07.15.11.29.11.44 0 .7-.8 1.35-2.15 1.85-.66.26-1.45.48-2.35.66-.95.18-2 .32-3.14.4z" fill="#f1e4a0"/><path d="m27.89 37.56c-.273-.574-1.102-1.09-2.308-1.514-3.65 3.955-10.731 4.631-16.674 3.185.493.326 1.153.625 1.982.879 1.03.31 2.3.56 3.71.7.91.11 1.88.17 2.9.18.16.01.33.01.5.01.81 0 1.6-.03 2.36-.09 1.14-.08 2.19-.22 3.14-.4.9-.18 1.69-.4 2.35-.66 1.35-.5 2.15-1.15 2.15-1.85 0-.15-.04-.29-.11-.44z" fill="#edd262"/><path d="m34.6 42.2c-.37 2.23-1.06 5.07-2.38 7.77-.59 1.21-1.31 2.4-2.18 3.49-2.52 3.16-6.32 5.54-12.04 5.54-17 0-17-21-17-21 0 4.97 7.61 9 17 9s17-4.03 17-9c0 0 0 1.73-.4 4.2z" fill="#af8358"/><g fill="#476002"><path d="m37.24 37.32s0 1.92-.4 4.66c0 .01 0 .03-.01.04-.78.07-1.53.17-2.25.32.42-2.54.42-4.34.42-4.34 0-1.28-.51-2.5-1.42-3.6.42-.39 1.05-.93 1.91-1.49.12.14.23.28.34.42.9 1.22 1.41 2.57 1.41 3.99z"/><path d="m35.09 49.03c-.19.53-.4 1.05-.63 1.57-.16.37-.33.72-.51 1.08-.71-.56-1.28-1.16-1.72-1.74.15-.31.27-.62.4-.93.8.01 1.62.02 2.46.02z"/><path d="m33.95 51.68v.01c-.39.79-.84 1.56-1.34 2.29-.69-.56-1.25-1.16-1.69-1.74.5-.74.93-1.52 1.31-2.3.44.58 1.01 1.18 1.72 1.74z"/></g><path d="m35.49 32.91c-.85.55-1.49 1.1-1.91 1.49-1.91-2.31-5.6-4.12-10.15-4.92-.31-.6-.62-1.28-.91-2.04 1.09.08 2.14.23 3.15.43 4.3.84 7.83 2.68 9.82 5.04z" fill="#966a44"/><path d="m36.83 42.02c-.37 2.46-1.06 5.6-2.37 8.58-.16.37-.33.72-.51 1.08-.71-.56-1.28-1.16-1.72-1.74 1.29-2.64 1.98-5.4 2.35-7.6.72-.15 1.47-.25 2.25-.32z" fill="#486900"/><path d="m33.95 51.68v.01c-.48.96-1.04 1.9-1.67 2.78-.16.22-.33.44-.5.66-.73-.56-1.35-1.13-1.76-1.65.89-1.1 1.62-2.31 2.21-3.54.44.58 1.01 1.18 1.72 1.74z" fill="#3c5102"/><path d="m32.66 49.01c-.07.16-.14.32-.22.47.06-.16.12-.32.19-.47z" fill="#486900"/><path d="m32.23 49.94c.01.01.02.03.03.04l-.04-.01c0-.01.01-.02.01-.03z" fill="#486900"/><path d="m27.274 45.537c-2.355 7.208-9.604 11.052-17.142 11.532 2.102 1.195 4.687 1.931 7.868 1.931 5.72 0 9.52-2.38 12.04-5.54.87-1.09 1.59-2.28 2.18-3.49 1.32-2.7 2.01-5.54 2.38-7.77.4-2.47.4-4.2.4-4.2 0 3.157-3.078 5.931-7.726 7.537z" fill="#966a44"/><path d="m27.976 17.158c.093-.649-.064-1.201-.886-1.156-.839.046-2.031.887-2.401 1.668-.449.947-.658 2.101-.666 3.168-.007.942.979 4.508 2.072 2.693.499-.829.511-1.813.666-2.759.107-.653.31-1.301.607-1.879.176-.345.516-1.088.608-1.735z" fill="#be976c"/><path d="m5.726 35.315c.125-.355.098-.684-.37-.751-.478-.068-1.244.272-1.541.671-.359.483-.607 1.11-.731 1.711-.109.53.046 2.651.866 1.75.374-.411.492-.965.685-1.48.133-.356.321-.698.553-.991.139-.175.414-.555.538-.91z" fill="#c9d85d"/><path d="m7 40c.104 0 .211-.017.316-.052l.615-.205c.333.28.745.533 1.222.76-.224.383-.189.875.14 1.204.195.195.451.293.707.293s.512-.098.707-.293l.484-.484c.822.217 1.723.387 2.666.512l.194.582c.14.418.53.683.949.683.104 0 .211-.017.316-.052.439-.146.69-.569.663-1.01.296.018.594.031.892.041l.234.468c.176.351.529.553.896.553.15 0 .303-.034.446-.105.355-.177.549-.538.545-.909.008 0 .015-.001.023-.001-.006.424.245.823.669.964.105.035.212.051.316.051.419 0 .809-.265.948-.684l.154-.463c.587-.056 1.164-.128 1.722-.217l.227.68c.14.419.53.684.949.684.104 0 .211-.017.316-.052.523-.175.807-.741.632-1.265l-.152-.457c.272-.071.534-.148.787-.229l.71.71c.195.195.451.293.707.293s.512-.098.707-.293c.391-.391.391-1.023 0-1.414l-.166-.166c.864-.542 1.389-1.208 1.442-2.001l.464-.232c.494-.247.694-.848.447-1.342-.247-.495-.848-.695-1.342-.447l-.421.211c-.182-.161-.381-.316-.613-.46l.036-.024c.46-.306.584-.927.277-1.387-.306-.459-.926-.585-1.387-.277l-1.13.753c-.549-.165-1.139-.307-1.76-.426l.393-1.178c.175-.524-.108-1.09-.632-1.265-.528-.177-1.09.109-1.265.632l-.504 1.511c-.189-.021-.377-.044-.569-.061.056-.412-.139-.831-.532-1.028-.494-.247-1.094-.047-1.342.447l-.23.46c-.29-.008-.582-.013-.873-.013-.203 0-.406.005-.61.009l-.442-1.325c-.174-.523-.737-.809-1.265-.632-.523.175-.807.741-.632 1.265l.265.795c-.194.016-.386.033-.577.053l.23-.921c.135-.536-.191-1.079-.728-1.213-.537-.138-1.078.192-1.212.728l-.427 1.708c-.943.175-1.818.4-2.586.677l-1.462-.975c-.462-.308-1.081-.182-1.387.277-.307.459-.183 1.081.277 1.387l.553.367c-.612.493-.969 1.074-.989 1.744l-.324.108c-.523.175-.807.741-.632 1.265.139.418.529.683.948.683zm5.758-2.03c.081.021.163.03.243.03.448 0 .855-.303.969-.757l.254-1.015c.54-.069 1.12-.126 1.744-.166l.085.254c.138.419.528.684.947.684.104 0 .211-.017.316-.052.418-.14.671-.53.671-.949h.013.01c.001.366.193.719.543.894.143.073.296.107.446.107.367 0 .72-.202.896-.553l.191-.381c.324.021.635.047.936.076.053.361.293.683.663.806.104.036.211.052.315.052.387 0 .74-.233.903-.598.088.016.176.032.261.048-.214.325-.226.76.004 1.104.192.29.51.446.833.446.19 0 .383-.054.554-.168l1.057-.705c.231.091.428.18.602.268-.225.294-.285.698-.108 1.051.029.059.07.107.109.157-.042.021-.086.043-.132.065l-.375-.375c-.391-.391-1.023-.391-1.414 0-.169.169-.25.385-.273.605l-.072-.215c-.174-.523-.737-.809-1.265-.632-.523.175-.807.741-.632 1.265l.132.397c-.129.019-.253.039-.387.056l.151-.454c.175-.524-.108-1.09-.632-1.265-.529-.177-1.09.109-1.265.632l-.424 1.273c-.481.024-.982.04-1.51.041l-.223-.445c-.248-.494-.849-.693-1.342-.447-.33.165-.513.491-.535.834-.23-.014-.449-.032-.668-.051l-.402-1.205c-.175-.523-.735-.809-1.265-.632-.523.175-.807.741-.632 1.265l.097.292c-.114-.02-.226-.041-.335-.062.26-.389.236-.91-.107-1.253-.391-.391-1.023-.391-1.414 0l-.671.671c-.068-.025-.14-.049-.204-.074.354-.167.57-.512.569-.892.004 0 .008.002.012.002.323 0 .641-.156.833-.445.186-.279.197-.612.086-.904.048-.012.099-.023.147-.035l-.035.141c-.132.537.194 1.08.73 1.214z" fill="#472b3c"/><path d="m18 60c5.554 0 9.394-2.122 12.049-5.048 1.754 1.65 4.775 3.443 6.916 4.014.3.08.621.015.869-.175.246-.19.39-.484.389-.796l-.001-.259c1.589.75 4.169 1.859 6.267 2.247.06.012.12.017.181.017.281 0 .553-.119.744-.333.127-.141.208-.312.24-.491 1.748.378 4.361.725 5.845-.13.238-.138.41-.367.474-.635.456-1.919.12-3.964-.195-5.227.5-.057.981-.121 1.407-.201.296-.056.552-.242.695-.507s.159-.581.044-.859l-.146-.352c3.432-.595 9.139-1.861 10.117-3.817.118-.237.138-.512.054-.764-.188-.565-.505-1.155-.886-1.744.859-15.292-4.115-28.523-13.038-34.583-4.334-2.943-9.257-3.945-14.248-2.978-.464-1.274-.801-2.605-.805-2.621-.087-.35-.355-.625-.703-.721-.349-.096-.719.002-.974.257l-1.295 1.292-.293-.293c-.391-.391-1.023-.391-1.414 0l-1.707 1.707h-1.586c-.379 0-.725.214-.895.553l-.928 1.855-.885.885c-.228.228-.332.551-.279.869.052.318.254.591.543.734.288.142.562.298.833.456-1.684 1.423-2.946 3.01-3.76 4.759-.074-.036-.148-.071-.221-.105l.299-.299c.391-.391.391-1.023 0-1.414s-1.023-.391-1.414 0l-.968.968c-.38-.094-.759-.167-1.135-.214-.065-.008-.126-.008-.19-.014v-1.033c0-.552-.447-1-1-1s-1 .448-1 1v1.163c-.281.068-.55.154-.805.26l-.247-.74c-.175-.523-.735-.809-1.265-.632-.523.175-.807.741-.632 1.265l.423 1.269c-.439.447-.788.96-1.034 1.507l-.125-.042c-.527-.177-1.09.109-1.265.632-.175.524.108 1.09.632 1.265l.33.11c-.004.594.095 1.199.325 1.774l-.655.218c-.523.175-.807.741-.632 1.265.141.421.531.686.95.686.104 0 .211-.017.316-.052l1.254-.418c.258.225.554.424.884.601l-.161.161c-.391.391-.391 1.023 0 1.414.195.196.451.294.707.294s.512-.098.707-.293l.899-.899c.554.081 1.136.132 1.767.132.173 0 .366-.022.544-.028l.135.404c.139.419.529.684.948.684.104 0 .211-.017.316-.052.477-.159.736-.644.649-1.126.213.845.482 1.647.782 2.387-1.206-.135-2.458-.209-3.747-.209-1.923 0-3.765.161-5.49.458-.984-.156-2.395-.522-3.888-1.419-.971-.589-2.438-1.479-3.285-3.23-.099-.214-.179-.412-.252-.61-.035-.428-.068-.846-.085-1.205-.008-1.3.431-2.743 1.235-4.066 1.826-3.022 5.091-5.175 8.732-5.76 2.343-.374 4.803-.109 7.108.767.518.197 1.094-.063 1.29-.579.196-.517-.062-1.094-.579-1.29-2.633-1-5.445-1.303-8.136-.873-4.214.677-8 3.182-10.125 6.697-.994 1.633-1.535 3.45-1.524 5.153.02.443.058.915.099 1.376v.01c0 .001.001.002.001.004 0 .031.002.066.004.095.15 1.52.379 2.967.699 4.425.247 1.13.553 2.214.889 3.263-2.918 1.772-4.693 4.139-4.693 6.784 0 .22.206 22 18 22zm26.599-3.158c-.352-.106-.736-.011-.995.25-.149.149-.244.337-.279.537-2.664-.825-5.606-2.372-5.642-2.391-.311-.165-.686-.153-.985.028-.301.182-.483.508-.482.86l.002.452c-1.716-.745-3.765-2.067-4.917-3.19.405-.564.774-1.146 1.112-1.739 1.531 1.518 4.367 3.434 8.945 3.434.555 0 1.136-.028 1.743-.089.334-.033.629-.232.785-.529s.153-.652-.008-.946l-.022-.042c.241.003.513.004.788.005 1.19 1.191 2.473 2.322 3.523 3.242.346.303.662.582.956.844-1.366.022-3.24-.338-4.524-.726zm-9.678-22.285c.843-.685 2.096-1.518 3.737-2.127-1.109 3.335-1.149 6.445-.966 8.528-.666.035-1.315.096-1.949.179.243-1.85.257-3.086.257-3.137 0-1.218-.392-2.373-1.079-3.443zm15.097-1.373c.06.324.276.598.578.731.674.298 1.746.843 2.868 1.537-3.477 1.658-6.817 1.98-8.845 1.867.427-1.179 1.064-2.603 2.061-4.441 1.087-.219 2.36-.373 3.417-.306-.089.187-.119.401-.079.612zm1.373 17.501.025-.005c.013.062.007.126.031.185l.139.333c-1.241.143-2.702.217-4.1.254.13-1.803 1.232-3.907 2.119-5.285.695 1.083 1.378 2.56 1.786 4.518zm-10.12 2.239.087.159c-1.778-.001-3.235-.336-4.419-.817 1.267-1.894 3.274-3.116 4.543-3.743.115.972.125 2.041-.016 3.189-.064.061-.122.13-.169.208-.189.307-.198.689-.026 1.004zm.588-9.904c1.814.131 3.673.383 5.5.709.181.125.522.383.937.799-.894 1.292-2.674 4.199-2.809 6.954-.756.003-1.431-.002-1.976-.01.347-3.751-.74-6.705-1.652-8.452zm14.964-1.868c1.042.88 2.73 2.442 3.94 3.992-1.749-.589-4.25-1.374-7.122-2.109.846-.66 1.866-1.331 3.182-1.883zm.177-2.152c-.121 0-.236.027-.346.068l-.002-.006c-2.585.958-4.23 2.342-5.44 3.389-2.435-.55-5.037-1.023-7.615-1.293.02-.095.043-.189.063-.285.106-.514.213-1.034.354-1.594.445.045.911.075 1.413.075 2.842 0 6.489-.766 9.898-2.616.899.701 1.701 1.472 2.199 2.262zm-12.547-6.193c.024-.404.066-.789.112-1.159.162.013.319.019.484.038-.215.392-.41.761-.596 1.121zm-1.647 3.658c-.608 1.638-.872 2.871-1.105 4.004-.036.175-.078.349-.115.522-.637-.039-1.269-.065-1.893-.072-.204-2.145-.15-5.577 1.351-9.129.48-.082.985-.136 1.509-.167-.154 1.314-.24 2.894.253 4.842zm-7.399 6.743c1.276-.209 2.65-.295 4.08-.285.394.596 1.112 1.841 1.596 3.571-1.469.664-4.239 2.196-5.922 4.834-.798-.536-1.382-1.104-1.788-1.572 1.025-2.268 1.654-4.58 2.034-6.548zm14.771 12.623c-.219-.193-.449-.396-.695-.61-.604-.529-1.289-1.132-1.982-1.769.744-.019 1.506-.048 2.254-.093.162.589.364 1.488.423 2.472zm2.946-6.486c-.571-2.148-1.44-3.753-2.292-4.91 4.252.967 7.999 2.166 10.079 2.88-1.609.692-4.598 1.485-7.787 2.03zm-26.476-38.579.059-.059c.076-.076.14-.164.188-.26l.723-1.447h1.382c.266 0 .52-.105.707-.293l1.293-1.293.293.293c.391.391 1.023.391 1.414 0l.798-.798c.095.302.202.627.318.953-1.085.321-2.169.725-3.248 1.233-1.285.604-2.444 1.261-3.487 1.964-.148-.096-.287-.2-.44-.293zm-8.663 13.156c-.018-.229-.103-.454-.278-.629-.391-.391-1.023-.391-1.414 0l-.332.332c-.054-.018-.113-.031-.165-.051.181-.252.258-.574.152-.891-.175-.523-.735-.808-1.265-.632l-.448.149c-.067-.148-.119-.299-.156-.453l.603.201c.107.036.214.052.318.052.419 0 .809-.265.948-.684.175-.524-.108-1.09-.632-1.265l-.206-.069c.069-.008.138-.011.206-.034.523-.175.807-.741.632-1.265l-.122-.366c.07-.032.148-.054.221-.082.109.436.484.765.953.765.538 0 .969-.427.992-.959.006.001.011.002.017.003.011.241.101.479.284.663.195.195.451.293.707.293s.512-.098.707-.293l.175-.175c.346.132.696.291 1.047.469-.446 1.635-.511 3.247-.34 4.766-.087.012-.18.029-.266.039l-.374-1.123c-.175-.523-.736-.808-1.265-.632-.523.175-.807.741-.632 1.265l.203.61c-.09-.001-.182-.001-.27-.004zm5.046-4.976c1.1-3.232 3.924-5.938 8.395-8.041 6.036-2.84 12.244-2.446 17.474 1.106 7.905 5.369 12.491 16.915 12.255 30.523-.563-.612-1.136-1.183-1.653-1.669.101-.059.191-.134.268-.226.189-.229.268-.53.214-.822-.607-3.256-4.999-5.921-7.282-7.104l.006-.006c.228-.227.332-.55.28-.867s-.253-.59-.54-.734c-1.254-.627-3.029-.622-4.511-.456-.118-.316-.388-.553-.72-.626-6.737-1.492-11.354 1.191-13.561 2.985-2.095-2.058-5.464-3.633-9.556-4.429-1.212-2.506-2.278-6.079-1.069-9.634zm-17.274 8.58c-.004-.019-.006-.037-.011-.056.68.569 1.349.983 1.868 1.297.393.236.782.436 1.164.615-.804.262-1.577.548-2.291.874-.272-.882-.524-1.787-.73-2.73zm12.243 2.474c8.673 0 16 3.664 16 8s-7.327 8-16 8c-2.621 0-5.226-.333-7.53-.964-.528-.147-1.082.167-1.229.7-.146.533.168 1.083.701 1.229 2.51.687 5.221 1.035 8.058 1.035 6.641 0 12.317-1.908 15.436-4.806-1.154 5.934-4.677 14.806-15.436 14.806-10.743 0-14.27-8.874-15.43-14.808.813.751 1.792 1.45 2.964 2.067.491.259 1.094.071 1.352-.417.258-.489.07-1.094-.418-1.351-2.882-1.52-4.468-3.47-4.468-5.491 0-4.336 7.327-8 16-8z" fill="#472b3c"/></svg>