<svg id="Layer_1" height="512" viewBox="0 0 512 512" width="512" xmlns="http://www.w3.org/2000/svg" data-name="Layer 1"><path d="m495.93 303.54c.84 24.53-5.6 39.52-13.87 50.45 9.18-82.84-47.82-116.65-47.82-116.65 26.34 4.72 60.11 19.85 61.69 66.2z" fill="#b28c83"/><path d="m434.24 237.34s57 33.81 47.82 116.65c-5.21 6.89-11.14 12.16-16.44 17.2 10.29-76.4-47.25-135.68-47.25-135.68v-.01a131.9 131.9 0 0 1 15.87 1.84z" fill="#9e817e"/><path d="m418.37 235.51s57.54 59.28 47.25 135.68c-7.77 7.39-14.18 14.26-14.91 24.94h-.03c2.61-76.54-46.17-160.65-46.17-160.65a122.756 122.756 0 0 1 13.86.02z" fill="#b28c83"/><path d="m452.41 196.21c-2.84-1.12-10.74 1.26-21.48 4.33-94.77-22.97-124.46-86.52-124.46-86.52a92 92 0 0 1 6.1-16.08s42.94 60.59 139.84 98.27z" fill="#daaa79"/><path d="m404.51 235.48s48.78 84.11 46.17 160.65h.03a29.491 29.491 0 0 0 0 4.41 4.249 4.249 0 0 0 -.85-.95c-55.2-87.94-52.56-161.18-52.56-161.18q2.28-1.185 4.7-2.3a7.249 7.249 0 0 1 2.51-.63z" fill="#9e817e"/><path d="m430.66 91.46c15.34 19.18 19.15 35.03 19.06 48.73h-.01c-41.86-71.35-107.11-65.21-108.14-65.11 23.96-11.9 60.09-19.86 89.09 16.38z" fill="#daaa79"/><path d="m449.71 140.19h.01c-.06 8.62-1.66 16.39-2.9 23.58-37.47-67.41-119.09-80.7-119.09-80.7a130.1 130.1 0 0 1 13.83-7.99h.01c1.03-.1 66.28-6.24 108.14 65.11z" fill="#c79a83"/><path d="m449.15 191.68a30.906 30.906 0 0 0 3.26 4.53c-96.9-37.68-139.84-98.27-139.84-98.27.74-1.54 1.54-3.08 2.39-4.64a7.2 7.2 0 0 1 1.64-2s87.72 39.94 132.55 100.38z" fill="#c79a83"/><path d="m446.82 163.77v.01c-1.75 10.17-2.77 19.19 2.33 27.9-44.83-60.44-132.55-100.38-132.55-100.38a120.725 120.725 0 0 1 11.13-8.23s81.62 13.29 119.09 80.7z" fill="#daaa79"/><path d="m449.86 399.59c-2.67-2.34-9.79-4.91-18.98-8.37-62.3-74.87-48.09-143.54-48.09-143.54a92.12 92.12 0 0 1 14.51-9.27s-2.64 73.24 52.56 161.18z" fill="#b28c83"/><path d="m430.88 391.22c-7.2-2.71-15.69-5.97-24.32-10.07v-.01c-54.64-48.65-40.58-114.33-40.27-115.77a.031.031 0 0 0 .01-.02 74.929 74.929 0 0 1 16.49-17.67s-14.21 68.67 48.09 143.54z" fill="#9e817e"/><path d="m406.56 381.14v.01c-20.52-9.77-41.84-24.36-48.64-47.93-6.09-21.12-5.72-46.6 8.37-67.85-.31 1.44-14.37 67.12 40.27 115.77z" fill="#b28c83"/><path d="m430.93 200.54c-7.4 2.12-16.16 4.56-25.54 6.4-73.76-6.56-101.58-68.92-101.58-68.92a74.943 74.943 0 0 1 2.66-24s29.69 63.55 124.46 86.52z" fill="#c79a83"/><path d="m405.39 206.94c-22.31 4.39-48.14 5.38-67.69-9.47-17.53-13.32-32.49-34-33.89-59.45 0 0 27.82 62.36 101.58 68.92z" fill="#daaa79"/><path d="m305.08 344.59a87.318 87.318 0 0 1 -11.54 3.35 105 105 0 0 1 -19.23 2.51 66.769 66.769 0 0 1 -33.01-6.96c83.31-6.04 106.28-68.11 106.28-68.11h.01c.1 21.08-5.35 47.9-30.01 63.15a69.11 69.11 0 0 1 -12.5 6.06z" fill="#b2883f"/><path d="m347.59 275.38h-.01s-22.97 62.07-106.28 68.11a116.9 116.9 0 0 1 -17-10.86c-.99-.72-1.97-1.44-2.94-2.14 77.16-3.78 125.14-71.01 125.14-71.01h.01a131.126 131.126 0 0 1 1.08 15.9z" fill="#d8a43d"/><path d="m346.51 259.48h-.01s-47.98 67.23-125.14 71.01c-1.98-1.43-3.92-2.8-5.87-4.04-6.29-4.02-12.59-6.74-20.31-6.17 74.16-13.46 148.83-74.4 148.83-74.4a122.614 122.614 0 0 1 2.5 13.6z" fill="#b2883f"/><path d="m342.93 243.54a6.937 6.937 0 0 1 1.08 2.34s-74.67 60.94-148.83 74.4a31.1 31.1 0 0 0 -5.46.91c76.11-69.64 149.06-81.68 150.08-81.85h.01q1.575 2.025 3.12 4.2z" fill="#d8a43d"/><path d="m339.3 381.37a74.882 74.882 0 0 1 -.69 24.14s-18.09-31.68-64.3-55.05v-.01a105 105 0 0 0 19.23-2.51 87.318 87.318 0 0 0 11.54-3.35c23.34 16.95 34.22 36.78 34.22 36.78z" fill="#eaa253"/><path d="m338.61 405.51a92.033 92.033 0 0 1 -4.77 16.52s-47.75-56.9-147.4-86.57c2.92.89 10.6-2.13 21.05-6.06h.01q8.745 1.38 16.8 3.23a116.9 116.9 0 0 0 17 10.86 66.769 66.769 0 0 0 33.01 6.96v.01c46.21 23.37 64.3 55.05 64.3 55.05z" fill="#ce9561"/><path d="m333.84 422.03q-.915 2.385-2 4.82a7.306 7.306 0 0 1 -1.47 2.13s-90.77-32.71-140.37-89.35a31.846 31.846 0 0 0 -3.56-4.17c99.65 29.67 147.4 86.57 147.4 86.57z" fill="#eaa253"/><path d="m339.3 381.37s-10.88-19.83-34.22-36.78a69.11 69.11 0 0 0 12.5-6.06l.11.17c10.9 11.2 19.26 25.59 21.61 42.67z" fill="#ce9561"/><path d="m328.02 226.78a92.08 92.08 0 0 1 11.78 12.56c-1.02.17-73.97 12.21-150.08 81.85 2.26-2.05 3.61-10.18 5.59-21.15 61.85-73.97 131.33-73.28 132.71-73.26z" fill="#b2883f"/><path d="m328.02 226.78c-1.38-.02-70.86-.71-132.71 73.26 1.36-7.56 3.03-16.48 5.51-25.69 0-.01.01-.01.01-.02 38.45-63.12 106.8-60.51 106.8-60.51a74.983 74.983 0 0 1 20.39 12.96z" fill="#d8a43d"/><path d="m330.37 428.98a124.745 124.745 0 0 1 -10.42 9.11s-82.44-6.61-125.28-70.75c.91-10.32 1.19-19.43-4.67-27.71 49.6 56.64 140.37 89.35 140.37 89.35z" fill="#ce9561"/><path d="m319.95 438.09a129.715 129.715 0 0 1 -13.13 9.08s-65.19 12.16-113.12-56.09c-.65-8.6.32-16.47.97-23.74 42.84 64.14 125.28 70.75 125.28 70.75z" fill="#eaa253"/><path d="m307.63 213.82s-68.35-2.61-106.8 60.51c5.9-21.91 16.41-45.46 38.38-56.4 19.72-9.82 44.91-14.09 68.42-4.11z" fill="#b2883f"/><path d="m193.7 391.08c47.93 68.25 113.12 56.09 113.12 56.09-22.91 13.81-58.28 24.7-90.14-9.07-16.86-17.87-21.95-33.37-22.98-47.02z" fill="#ce9561"/><path d="m248.26 93.69c10.14 24.71 15.48 61.25-22.86 87.46-20.29 13.87-36.42 16.5-50.11 15.41 74.32-36.42 73-101.74 72.97-102.87z" fill="#eaa253"/><path d="m248.26 93.69c.03 1.13 1.35 66.45-72.97 102.87-8.62-.69-16.26-2.85-23.36-4.6 70.11-32.35 89.36-112.62 89.36-112.62a130.414 130.414 0 0 1 6.97 14.34z" fill="#ce9561"/><path d="m233.87 67.67a123.949 123.949 0 0 1 7.42 11.67s-19.25 80.27-89.36 112.62c-10.06-2.49-19.03-4.16-28.13.32 63.71-40.19 110.07-124.61 110.07-124.61z" fill="#eaa253"/><path d="m231.99 65.89a7.08 7.08 0 0 1 1.88 1.78s-46.36 84.42-110.07 124.61a30.979 30.979 0 0 0 -4.7 2.88c44.72-93.68 108.42-131.99 108.42-131.99q2.22 1.275 4.47 2.72z" fill="#ce9561"/><path d="m211.89 55.92a92.831 92.831 0 0 1 15.63 7.25s-63.7 38.31-108.42 131.99c1.33-2.75-.48-10.79-2.76-21.71 29.87-92.61 95.55-117.52 95.55-117.52z" fill="#eaa253"/><path d="m188.1 51.53v.01s-64.35 23.13-76.3 96.04v.01c1.16 9.46 2.96 18.35 4.54 25.86 29.87-92.61 95.55-117.52 95.55-117.52v-.01a75.8 75.8 0 0 0 -23.79-4.39z" fill="#ce9561"/><path d="m188.1 51.53v.01s-64.35 23.13-76.3 96.04c-2.76-22.52-1.87-48.29 14.41-66.66 14.6-16.48 36.35-29.85 61.89-29.39z" fill="#eaa253"/><path d="m168.86 311.56a74.821 74.821 0 0 1 -.69 24.13s-34.78-60.91-131.09-76.11c7.2-2.71 15.72-5.85 24.91-8.45 74.05.54 106.87 60.43 106.87 60.43z" fill="#daaa79"/><path d="m168.17 335.69a91.311 91.311 0 0 1 -4.77 16.53s-47.74-56.9-147.4-86.57c2.92.89 10.61-2.13 21.08-6.07 96.31 15.2 131.09 76.11 131.09 76.11z" fill="#c79a83"/><path d="m163.4 352.22q-.915 2.385-2 4.82a6.9 6.9 0 0 1 -1.47 2.12s-90.77-32.7-140.37-89.34a31.846 31.846 0 0 0 -3.56-4.17c99.66 29.67 147.4 86.57 147.4 86.57z" fill="#daaa79"/><path d="m159.93 359.16a124.274 124.274 0 0 1 -10.42 9.12h-.01c-1.1-.09-82.72-7.05-125.27-70.75.91-10.31 1.19-19.42-4.67-27.71 49.6 56.64 140.37 89.34 140.37 89.34z" fill="#c79a83"/><path d="m168.86 311.56s-32.82-59.89-106.87-60.43c21.87-6.19 47.54-9.28 68.24 3.94 18.56 11.85 35.16 31.23 38.63 56.49z" fill="#c79a83"/><path d="m149.5 368.28a132.307 132.307 0 0 1 -13.12 9.08h-.01c-.96.18-65.53 11.64-113.11-56.1-.64-8.6.32-16.46.97-23.73 42.55 63.7 124.17 70.66 125.27 70.75z" fill="#daaa79"/><path d="m23.26 321.26c47.58 67.74 112.15 56.28 113.11 56.1-22.9 13.8-58.27 24.68-90.13-9.08-16.86-17.87-21.95-33.36-22.98-47.02z" fill="#c79a83"/><path d="m142 147.58a130.153 130.153 0 0 1 -1-27.167 228.639 228.639 0 0 0 -24.66 53.037c2.28 10.92 4.09 18.96 2.76 21.71a382.087 382.087 0 0 1 23.557-42.293c-.242-1.738-.468-3.493-.657-5.277z" fill="#cc8946"/><path d="m126.16 80.92c-16.28 18.37-17.195 44.14-14.435 66.66 11.95-72.91 76.275-96.04 76.275-96.04v-.01c-25-.46-47.24 12.91-61.84 29.39z" fill="#cc8946"/><g fill="#a07d6d"><path d="m46 265.65c1.827.557 5.521-.417 10.594-2.189-6.206-1.5-12.7-2.806-19.514-3.881-10.47 3.94-18.16 6.96-21.08 6.07a385.966 385.966 0 0 1 37.73 13.385 26.636 26.636 0 0 0 -4.17-9.215 31.846 31.846 0 0 0 -3.56-4.17z"/><path d="m53.874 301.373a236.215 236.215 0 0 1 -34.314-31.553c5.86 8.29 5.58 17.4 4.67 27.71a142.531 142.531 0 0 0 30.306 32.637 65.828 65.828 0 0 1 -1.276-8.907 116.335 116.335 0 0 1 .614-19.887z"/><path d="m109.968 247.12c-15.874-3.071-32.836-.276-47.978 4.01a129.9 129.9 0 0 1 22.867 2.159c2.324-.745 4.7-1.472 7.133-2.159a152.779 152.779 0 0 1 17.978-4.01z"/><path d="m76.24 368.1q-.706-.75-1.384-1.493c-17.035-8.256-35.31-22.161-51.6-45.347 1.03 13.66 6.12 29.15 22.98 47.02 21.1 22.355 43.732 25.134 63.268 20.455-11.07-2.769-22.372-9.094-33.264-20.635z"/></g><path d="m84.857 253.289a129.9 129.9 0 0 0 -22.867-2.159c-9.19 2.6-17.71 5.74-24.91 8.45 6.813 1.075 13.308 2.386 19.514 3.881 3.036-1.06 6.566-2.406 10.486-3.881 5.296-1.994 11.311-4.218 17.777-6.291z" fill="#b28964"/><path d="m53.73 279.035a385.966 385.966 0 0 0 -37.73-13.385 31.846 31.846 0 0 1 3.56 4.17 236.215 236.215 0 0 0 34.314 31.553c.122-1.3.243-2.582.356-3.843.585-6.63.9-12.758-.5-18.495z" fill="#b28964"/><path d="m24.23 297.53c-.65 7.27-1.61 15.13-.97 23.73 16.286 23.186 34.561 37.091 51.6 45.347-12.323-13.479-17.967-25.492-20.32-36.44a142.531 142.531 0 0 1 -30.31-32.637z" fill="#b28964"/><path d="m201.8 53.118a69.1 69.1 0 0 0 -13.8-1.588v.01s-64 23.13-76 96.04v.01a254.006 254.006 0 0 0 4.44 25.86 228.643 228.643 0 0 1 24.607-53.037c1.124-14.306 5.323-28.279 15.261-39.493 11.392-12.858 27.023-23.82 45.492-27.802z" fill="#aa764b"/></svg>