<svg height="512" viewBox="0 0 64 64" width="512" xmlns="http://www.w3.org/2000/svg"><g id="Layer_32" data-name="Layer 32"><path d="m47.2 35.764 1.493-.7a16.177 16.177 0 0 0 9.307-14.605 3.461 3.461 0 0 0 -4.134-3.393l-4.029.806.15-4.108 3.091-.618a7.341 7.341 0 0 1 1.463-.146 7.467 7.467 0 0 1 7.459 7.459 20.2 20.2 0 0 1 -11.611 18.233l-4.533 2.116z" fill="#e6e6e6"/><path d="m50 9h-42v3.12a101.391 101.391 0 0 0 4.275 29.132 8.065 8.065 0 0 0 7.725 5.748h18a8.065 8.065 0 0 0 7.725-5.747 101.4 101.4 0 0 0 4.275-29.134z" fill="#e6e6e6"/><path d="m45.724 41.253a101.4 101.4 0 0 0 4.276-29.134v-3.119h-39v3.12a101.391 101.391 0 0 0 4.275 29.132 8.065 8.065 0 0 0 7.725 5.748h15a8.066 8.066 0 0 0 7.724-5.747z" fill="#f2f2f2"/><path d="m46 9v4.972a64.385 64.385 0 0 1 -3.67 21.428 9.893 9.893 0 0 1 -9.33 6.6h-8a9.893 9.893 0 0 1 -9.33-6.6 64.385 64.385 0 0 1 -3.67-21.428v-4.972" fill="#fedd5e"/><path d="m42.33 35.4a64.385 64.385 0 0 0 3.67-21.428v-4.972h-31v4.973a64.385 64.385 0 0 0 3.67 21.427 9.893 9.893 0 0 0 9.33 6.6h5a9.893 9.893 0 0 0 9.33-6.6z" fill="#fce694"/><path d="m47 15h-36v-6h36.032z" fill="#f2f2f2"/><path d="m54.541 13a7.341 7.341 0 0 0 -1.463.146l-.1.019a2.049 2.049 0 0 0 -.05.369 2 2 0 0 0 2.39 2.034l1.547-.309a3.457 3.457 0 0 1 4.135 3.392v.3a2 2 0 0 0 .993 1.767c0-.087.01-.173.01-.261a7.467 7.467 0 0 0 -7.462-7.457z" fill="#f2f2f2"/><path d="m4.5 47.179-1.329-4.879a33.263 33.263 0 0 1 -1.171-8.752 4.548 4.548 0 0 1 4.548-4.548 4.45 4.45 0 0 1 4.452 4.452 4.457 4.457 0 0 1 -.133 1.078l-.654 2.619a40.5 40.5 0 0 0 -1.042 6.131l-1.171 2.72z" fill="#eebd39"/><path d="m2 51.024a3.976 3.976 0 0 0 3.976 3.976 10.517 10.517 0 0 0 3.9-.751l2.351-.941a33.748 33.748 0 0 0 16.618-14.328 8.484 8.484 0 0 0 1.155-4.272 6.708 6.708 0 0 0 -6.708-6.708 6.709 6.709 0 0 0 -6.092 3.9 38.493 38.493 0 0 1 -12.309 15l-1.255.912a3.978 3.978 0 0 0 -1.636 3.212z" fill="#eebd39"/><path d="m4.892 46.9-1.255.912a3.966 3.966 0 0 0 -1.337 1.715 3.972 3.972 0 0 0 3.676 2.473 10.517 10.517 0 0 0 3.9-.751l2.351-.941a33.748 33.748 0 0 0 16.618-14.328 8.45 8.45 0 0 0 .994-2.72 6.706 6.706 0 0 0 -12.639-1.36 38.493 38.493 0 0 1 -12.308 15z" fill="#fbcf43"/><path d="m26.518 42.455a14.8 14.8 0 0 0 3.982.545 3.5 3.5 0 0 1 3.5 3.5 3.5 3.5 0 0 1 -3.5 3.5 10.866 10.866 0 0 1 -7.682-3.182l-.135-.135" fill="#eebd39"/><g fill="#fce694"><path d="m6 36h4.5l.367-1.469a4.354 4.354 0 0 0 .1-.531h-4.967z"/><path d="m6 39h-3.531q.167 1.006.4 2h3.131z"/><path d="m24.581 33.187-1.162 1.626 5.533 3.953a8.483 8.483 0 0 0 .767-1.909z"/><path d="m16.35 43.759 4.874 4.178c.518-.43 1.017-.88 1.508-1.34l-5.082-4.356z"/><path d="m20.641 37.231-4.312-3.593c-.315.6-.651 1.191-1 1.774l4.027 3.357z"/><path d="m10.293 49.707 3.085 3.085c.648-.288 1.29-.586 1.916-.912l-3.587-3.587z"/></g></g></svg>