<svg height="512" viewBox="0 0 256 256" width="512" xmlns="http://www.w3.org/2000/svg"><g id="Layer_20"><g><g><path d="m245.787 168.159c-1.307-10.809.091-21.913 3.578-32.441 8.124-24.525 3.959-43.85-9.705-53.681-13.663-9.831-33.311-7.638-53.982 7.859-8.873 6.652-18.957 11.507-29.622 13.702-19.326 3.979-37.546 15.221-50.269 32.904-26.03 36.179-10.559 73.595 23.897 98.386s74.849 27.569 100.88-8.61c12.724-17.683 17.592-38.53 15.223-58.119z" fill="#fce4be"/></g><g><g><path d="m231.056 93.997c5.116-3.264 11.448-4.16 17.286-2.426-2.22-3.769-5.126-6.975-8.682-9.534-3.556-2.558-7.52-4.294-11.799-5.202 3.501 4.985 4.663 11.274 3.195 17.162z" fill="#f5c84c"/></g></g><g><g><path d="m142.279 217.385c-8.677 4.998-19.835 5.719-30.249 1.836 5.074 5.625 11.006 10.884 17.655 15.668s13.521 8.738 20.467 11.761c-6.992-8.641-9.854-19.449-7.873-29.265z" fill="#f5c84c"/></g></g><g><ellipse cx="185.673" cy="187.901" fill="#a57453" rx="11" ry="6.9" transform="matrix(.184 -.983 .983 .184 -33.181 335.835)"/></g><g><ellipse cx="156.443" cy="166.871" fill="#a57453" rx="11" ry="6.9" transform="matrix(.874 -.487 .487 .874 -61.447 97.27)"/></g><g><path d="m44.013 249.525c-3.1-.6-5.6-3-6.2-6.1 0-.1-.3-.1-.3 0-.6 3.1-3.1 5.5-6.2 6.1-.1 0-.1.2 0 .3 3.1.6 5.6 3 6.2 6.1 0 .1.3.1.3 0 .6-3.1 3.1-5.5 6.2-6.1.1-.1.1-.3 0-.3z" fill="#87d147"/></g><g><path d="m145.013 73.5h2.3v2.3c0 1.8 1.4 3.2 3.2 3.2 1.7 0 3.2-1.4 3.2-3.1v-.1-2.3h2.3c1.8 0 3.2-1.4 3.2-3.2 0-1.7-1.4-3.2-3.1-3.2h-.1-2.3v-2.3c0-1.8-1.4-3.2-3.2-3.2-1.7 0-3.2 1.4-3.2 3.1v.1 2.3h-2.3c-1.8 0-3.2 1.4-3.2 3.2-.1 1.7 1.3 3.2 3.2 3.2-.1 0-.1 0 0 0z" fill="#70d6f9"/></g><g><circle cx="234.413" cy="45.9" fill="#fc657e" r="3.4"/></g><g><circle cx="20.413" cy="58.4" fill="#f5c84c" r="3.4"/></g><g><path d="m156.813 17.75c4.5-.8 8-4.3 8.9-8.7 0-.2.4-.2.4 0 .9 4.4 4.4 7.9 8.9 8.7.2 0 .2.3 0 .4-4.5.8-8 4.3-8.9 8.7 0 .2-.4.2-.4 0-.9-4.4-4.4-7.9-8.9-8.7-.2-.1-.2-.4 0-.4z" fill="#f5c84c"/></g><g><path d="m105.788 136.503c8.287-11.519 18.914-20.284 30.653-26.109-.596-.694-1.192-1.389-1.811-2.061-7.374-8.011-12.724-17.84-16.042-28.423-7.729-24.652-22.397-37.907-39.229-37.907s-31.501 13.255-39.229 37.907c-3.318 10.582-8.668 20.412-16.042 28.423-13.364 14.517-21.588 34.282-21.588 56.067 0 44.57 34.411 65.906 76.859 65.906 13.447 0 26.082-2.149 37.078-6.492-24.716-24.131-33.049-56.179-10.649-87.311z" fill="#f5c84c"/></g><g><path d="m79.358 232.807c-22.569 0-41.896-5.8-55.89-16.772-15.353-12.038-23.468-29.893-23.468-51.635 0-21.663 7.901-42.176 22.249-57.762 6.827-7.416 12.185-16.917 15.495-27.477 7.901-25.204 23.069-39.659 41.614-39.659s33.714 14.455 41.615 39.659c3.311 10.56 8.668 20.061 15.495 27.477.618.672 1.214 1.365 1.81 2.058.503.585.736 1.404.583 2.16s-.618 1.433-1.31 1.776c-11.712 5.813-21.994 14.571-29.734 25.33-19.859 27.602-16.081 58.242 10.365 84.063.606.592.872 1.451.705 2.282-.168.831-.744 1.521-1.533 1.832-11.199 4.424-23.983 6.668-37.996 6.668zm0-188.304c-16.211 0-29.64 13.178-36.843 36.155-3.529 11.258-9.266 21.413-16.589 29.368-13.494 14.659-20.926 33.97-20.926 54.374 0 46.75 38.411 63.406 74.358 63.406 11.898 0 22.835-1.68 32.573-4.999-11.532-12.146-18.754-25.778-20.956-39.631-2.625-16.502 1.677-32.697 12.783-48.134 7.574-10.528 17.446-19.254 28.691-25.39-7.159-7.897-12.773-17.912-16.248-28.995-7.202-22.976-20.631-36.154-36.843-36.154zm26.43 92h.01z"/></g><g><path d="m78.843 43.187c-1.381 0-2.5-1.119-2.5-2.5 0-24.855-22.363-35.476-23.315-35.916-1.252-.579-1.801-2.063-1.225-3.315.576-1.252 2.053-1.804 3.312-1.228 1.07.491 26.229 12.345 26.229 40.459-.001 1.381-1.12 2.5-2.501 2.5z"/></g><g><path d="m135.066 18.914c1.816.847 2.258 3.216.887 4.677-4.947 5.272-16.655 15.338-32.056 12.72-9.646-1.639-12.652-9.412-13.118-17.223-.535-8.964 8.489-15.408 16.802-12.012 8.434 3.444 19.021 7.89 27.485 11.838z" fill="#87d147"/></g><g><path d="m108.599 39.192c-2.098 0-3.841-.199-5.12-.416-9.272-1.576-14.526-8.332-15.194-19.539-.303-5.067 1.982-9.859 6.113-12.816 4.139-2.962 9.42-3.583 14.129-1.66 7.747 3.165 18.823 7.795 27.597 11.888 1.595.744 2.701 2.161 3.034 3.889.33 1.71-.186 3.491-1.38 4.764-10.889 11.603-22.066 13.89-29.179 13.89zm-5.646-30.529c-1.991 0-3.961.618-5.645 1.823-2.726 1.951-4.233 5.111-4.034 8.453.528 8.858 4.141 13.735 11.042 14.907 5.987 1.017 17.819.817 29.814-11.966.133-.141.137-.293.117-.396-.027-.141-.107-.244-.238-.305-8.683-4.049-19.679-8.646-27.374-11.79-1.193-.487-2.442-.726-3.682-.726z"/></g><g><path d="m113.168 24.794c-14.121 0-39.758-6.414-46.25-9.464-1.249-.587-1.786-2.077-1.199-3.326.586-1.249 2.072-1.789 3.326-1.199 6.357 2.988 35.509 10.074 47.127 8.853 1.388-.14 2.604.852 2.748 2.225.145 1.373-.852 2.604-2.225 2.748-1.066.111-2.25.163-3.527.163z"/></g><g><path d="m180.698 256c-16.994 0-35.073-6.563-52.473-19.083-18.32-13.181-30.621-29.176-35.572-46.256-5.433-18.738-1.592-37.971 11.105-55.619 12.652-17.584 31.046-29.621 51.794-33.893 9.873-2.033 19.772-6.617 28.626-13.254 21.134-15.844 41.888-18.719 56.941-7.888 15.054 10.831 18.924 31.422 10.618 56.496-3.479 10.504-4.679 21.347-3.469 31.355 2.543 21.029-3.023 42.295-15.675 59.88-12.698 17.648-29.714 27.402-49.207 28.207-.891.037-1.788.055-2.688.055zm39.974-177.432c-10.188 0-21.716 4.499-33.493 13.329-9.44 7.076-20.027 11.97-30.618 14.151-19.516 4.018-36.826 15.353-48.743 31.916-11.768 16.356-15.352 34.098-10.362 51.307 4.637 15.995 16.287 31.068 33.69 43.589 29.18 20.995 70.088 29.907 97.391-8.041 11.916-16.563 17.161-36.579 14.77-56.36 0 0 0 0-.001 0-1.297-10.734-.022-22.328 3.688-33.527 7.572-22.858 4.367-41.397-8.792-50.865-5.116-3.68-11.053-5.499-17.53-5.499z"/></g><g><path d="m142.276 219.885c-.506 0-1.017-.153-1.458-.471-1.121-.806-1.376-2.369-.569-3.489l88.777-123.389c.807-1.121 2.371-1.375 3.489-.569 1.121.806 1.376 2.369.569 3.489l-88.777 123.389c-.488.679-1.254 1.04-2.031 1.04z"/></g><g><g><path d="m231.056 96.497c-.513 0-1.025-.158-1.46-.471-.831-.598-1.214-1.642-.966-2.634 1.3-5.21.274-10.722-2.813-15.12-.591-.841-.606-1.957-.04-2.814s1.599-1.281 2.604-1.068c4.64.984 8.927 2.875 12.739 5.618 3.814 2.744 6.969 6.208 9.376 10.294.521.885.448 1.999-.185 2.809-.634.81-1.697 1.148-2.682.856-5.15-1.531-10.701-.751-15.229 2.137-.411.262-.878.393-1.344.393zm1.758-15.482c.988 2.771 1.449 5.708 1.354 8.655 2.765-1.028 5.703-1.522 8.637-1.467-1.377-1.538-2.915-2.92-4.605-4.137-1.69-1.215-3.49-2.235-5.386-3.051z"/></g></g><g><g><path d="m150.15 249.149c-.335 0-.674-.067-.997-.208-7.082-3.083-14.123-7.128-20.928-12.024s-12.879-10.287-18.053-16.022c-.771-.855-.858-2.126-.211-3.08.646-.951 1.861-1.342 2.94-.937 9.597 3.577 20.113 2.957 28.128-1.66.851-.49 1.91-.437 2.708.137s1.185 1.561.99 2.524c-1.829 9.068.924 19.235 7.366 27.197.725.896.743 2.17.046 3.087-.483.637-1.226.986-1.989.986zm-30.052-25.309c3.397 3.156 7.092 6.173 11.048 9.02s7.99 5.39 12.063 7.608c-2.984-5.988-4.368-12.459-3.995-18.821-5.915 2.375-12.491 3.118-19.116 2.193z"/></g></g><g><path d="m184.445 201.287c-.421 0-.841-.039-1.257-.116-5.181-.97-8.148-7.558-6.756-14.999 1.393-7.44 6.533-12.508 11.724-11.541 2.649.496 4.861 2.539 6.069 5.606 1.069 2.713 1.313 6.049.687 9.394-.625 3.344-2.06 6.366-4.037 8.509-1.885 2.041-4.171 3.147-6.43 3.147zm2.448-21.772c-2.016 0-4.699 3.058-5.546 7.577-.895 4.782.721 8.782 2.762 9.164.92.176 2.048-.376 3.092-1.507 1.329-1.44 2.349-3.641 2.798-6.038.448-2.397.294-4.818-.425-6.641-.563-1.431-1.415-2.351-2.337-2.523-.113-.022-.228-.032-.344-.032z"/></g><g><path d="m152.598 177.434c-3.511 0-6.482-1.362-7.947-3.991-2.565-4.605.604-11.099 7.217-14.784 6.611-3.686 13.802-2.965 16.368 1.639 2.565 4.605-.604 11.099-7.216 14.784-2.837 1.582-5.783 2.352-8.422 2.352zm7.722-16.122c-1.738 0-3.886.526-6.02 1.715-4.249 2.369-6.294 6.168-5.283 7.982 1.013 1.814 5.319 2.073 9.568-.294 4.248-2.369 6.293-6.168 5.282-7.982-.503-.904-1.823-1.421-3.547-1.421z"/></g></g></g></svg>