<?xml version="1.0" encoding="UTF-8"?>
<svg xmlns="http://www.w3.org/2000/svg" xmlns:xlink="http://www.w3.org/1999/xlink" version="1.1" id="Capa_1" x="0px" y="0px" viewBox="0 0 511.994 511.994" style="enable-background:new 0 0 511.994 511.994;" xml:space="preserve" width="512" height="512">
<g>
	<path style="fill:#00C755;" d="M468.198,305.799c-13.47,13.12-21.75,30.53-24.3,49.16c-4.96,36.15-21.32,71.02-49.11,98.81&#10;&#9;&#9;c-29.62,29.62-67.19,46.2-105.73,49.89c0.07-0.3,0.11-0.45,0.11-0.45l31.26-386.03c57.1-35.75,135.31-17.36,169.11,44.02&#10;&#9;&#9;c-0.01,0-0.01-0.01-0.02-0.01C515.628,208.489,506.938,268.159,468.198,305.799z"/>
	<path style="fill:#00B730;" d="M383.978,331.289c0,70.14-35.44,134.4-94.81,171.92c-0.29,0.18-0.57,0.36-0.86,0.53&#10;&#9;&#9;c-38.96,3.57-78.86-6.02-112.5-28.63c0.01,0.01,0.01,0.01,0.01,0.02c-132.15-88.83-83.68-293.91,72.86-315.38&#10;&#9;&#9;c18.73-2.57,36.16-11.03,49.39-24.55l0.88-0.88c6.69-6.69,13.9-12.39,21.48-17.14c7.28,18.07,11.11,37.71,10.83,58.01&#10;&#9;&#9;c-0.15,11.54,3.92,23.39,11.46,33.32C369.708,244.089,383.978,286.549,383.978,331.289z"/>
	<path style="fill:#E4996D;" d="M203.291,67.764h-45.176V30.117c0-12.475,10.113-22.588,22.588-22.588l0,0&#10;&#9;&#9;c12.475,0,22.588,10.113,22.588,22.588V67.764z"/>
	<path style="fill:#55D47B;" d="M353.878,331.289c0,61.84-32.33,115.85-80.79,146.47c-341.91-111.28-91.57-425.05-91.57-425.05&#10;&#9;&#9;l0.04-0.04c10.64,0.1,21.52,1.63,32.44,4.75c0,0-0.01,0-0.01,0.01c51.9,15,87.94,63.31,87.17,117.33&#10;&#9;&#9;c-0.24,18.8,6.21,36.97,17.58,51.95C340.788,255.769,353.878,291.999,353.878,331.289z"/>
	<path style="fill:#00C755;" d="M273.088,477.759C159.02,549.863,6.44,467.593,7.528,329.899c0.31-38.76,13.34-74.48,35.13-103.19&#10;&#9;&#9;c11.43-15.07,17.77-33.37,17.57-52.28v-1.25c0-67.649,55.527-121.163,121.29-120.47&#10;&#9;&#9;C153.138,116.259,59.708,364.459,273.088,477.759z"/>
	<path style="fill:#FAF097;" d="M323.778,331.289c-0.01,59.57-34.46,106.05-80.51,128.52c-270.74-116.76-74.34-376.23-74.34-376.23&#10;&#9;&#9;l0.04-0.1c15.29-2.03,31.47-0.12,47.17,6.61c0,0,0,0,0.01,0.01c17.6,7.81,30.89,19.49,40.42,34.21&#10;&#9;&#9;c9.73,15.04,14.74,32.33,14.49,50.07c-0.32,24.92,8.1,49.96,23.7,70.52C313.738,269.919,323.778,299.789,323.778,331.289z"/>
	<path style="fill:#F3E64D;" d="M243.458,459.889c-95.796,46.893-206.681-24.669-205.83-129.76c0.24-31.07,10.27-60.54,29.01-85.23&#10;&#9;&#9;c15.5-20.43,23.91-45.5,23.69-70.61v-1.11c0-45.52,33.69-83.8,78.6-89.6C136.858,169.569,91.238,355.559,243.458,459.889z"/>
	<path style="fill:#E4996D;" d="M248.468,357.649c0,31.41-19.19,58.1-45.87,67.71c-99.48-28.56-62.23-124.28-61.72-125.58&#10;&#9;&#9;c0.01-0.01,0.01-0.01,0.01-0.01c11.17-8.58,24.93-13.65,39.81-13.65C218.128,286.118,248.468,318.139,248.468,357.649z"/>
	<path style="fill:#DF8A57;" d="M202.598,425.359c-6.87,2.48-14.24,3.82-21.9,3.82c-37.42,0-67.76-32.03-67.76-71.53&#10;&#9;&#9;c0-23.8,11.01-44.88,27.95-57.88C148.398,344.099,166.778,387.849,202.598,425.359z"/>
</g>
<g>
	<path style="fill:none;stroke:#000000;stroke-width:15;stroke-linecap:round;stroke-linejoin:round;stroke-miterlimit:10;" d="&#10;&#9;&#9;M414.279,102.819c32.784,8.444,60.544,31.022,75.26,58.351c-0.01,0-0.01-0.01-0.02-0.01c25.96,46.961,17.64,106.753-21.32,144.61&#10;&#9;&#9;c-13.47,13.12-21.75,30.53-24.3,49.16c-14.164,103.236-116.19,171.026-217.37,143.35"/>
	<path style="fill:none;stroke:#000000;stroke-width:15;stroke-linecap:round;stroke-linejoin:round;stroke-miterlimit:10;" d="&#10;&#9;&#9;M295.719,137.48c0.8-0.76,1.58-1.52,2.35-2.31l0.88-0.88c23.464-23.464,54.197-35.227,84.947-35.287"/>
	<path style="fill:none;stroke:#000000;stroke-width:15;stroke-linecap:round;stroke-linejoin:round;stroke-miterlimit:10;" d="&#10;&#9;&#9;M158.119,54.81V30.09c0-12.48,10.11-22.59,22.58-22.59c6.24,0,11.89,2.53,15.97,6.62c4.09,4.08,6.62,9.73,6.62,15.97v24.73"/>
	<path style="fill:none;stroke:#000000;stroke-width:15;stroke-linecap:round;stroke-linejoin:round;stroke-miterlimit:10;" d="&#10;&#9;&#9;M353.88,331.264c-0.001-39.296-13.089-75.527-35.14-104.589c-11.367-14.977-17.821-33.145-17.58-51.943&#10;&#9;&#9;c0.774-54.13-35.396-102.386-87.175-117.336c0.006-0.002,0.012-0.004,0.018-0.005C138.928,35.61,60.231,90.815,60.231,174.396&#10;&#9;&#9;c0.199,18.913-6.14,37.217-17.57,52.279C20.872,255.391,7.836,291.107,7.532,329.867&#10;&#9;&#9;c-0.869,108.579,98.555,192.499,206.619,171.333c-0.006-0.001-0.012-0.003-0.018-0.004&#10;&#9;&#9;C293.518,485.636,353.88,415.755,353.88,331.264z"/>
	<path style="fill:none;stroke:#000000;stroke-width:15;stroke-linecap:round;stroke-linejoin:round;stroke-miterlimit:10;" d="&#10;&#9;&#9;M50.728,271.291c4.292-9.267,9.61-18.114,15.915-26.42c15.448-20.361,23.69-44.391,23.69-71.72&#10;&#9;&#9;c0-66.042,67.46-108.096,125.81-83.09c0,0,0,0,0.01,0.01c35.59,15.787,55.398,49.637,54.91,84.28c-0.32,24.92,8.1,49.96,23.7,70.52&#10;&#9;&#9;c64.358,84.839,15.496,208.247-86.73,226.85c-91.502,17.168-171.112-53.703-170.4-141.62c0.076-9.824,1.131-19.488,3.13-28.892"/>
	
		<line style="fill:none;stroke:#000000;stroke-width:15;stroke-linecap:round;stroke-linejoin:round;stroke-miterlimit:10;" x1="118.254" y1="203.265" x2="118.254" y2="215.265"/>
	
		<line style="fill:none;stroke:#000000;stroke-width:15;stroke-linecap:round;stroke-linejoin:round;stroke-miterlimit:10;" x1="243.152" y1="203.265" x2="243.152" y2="215.265"/>
	<path style="fill:none;stroke:#000000;stroke-width:15;stroke-linecap:round;stroke-linejoin:round;stroke-miterlimit:10;" d="&#10;&#9;&#9;M164.239,214.908c4.003,4.594,9.892,7.501,16.464,7.501c6.572,0,12.461-2.907,16.464-7.501"/>
	
		<ellipse style="fill:none;stroke:#000000;stroke-width:15;stroke-linecap:round;stroke-linejoin:round;stroke-miterlimit:10;" cx="180.703" cy="357.618" rx="67.765" ry="71.529"/>
</g>















</svg>
