<svg height="512" viewBox="0 0 512 512" width="512" xmlns="http://www.w3.org/2000/svg"><g id="Flat"><g id="BBQ_Sauce" data-name="BBQ Sauce"><path d="m306.605 174.81c10.74 43.3 32.925 39.85 48.385 55.3 11.29 11.29 12.97 28.07 12.97 59.28 0 .11-.69 127.23-.77 152.47a29.25141 29.25141 0 0 1 -29.25 29.17h-163.88a29.245 29.245 0 0 1 -29.25-29.17c-.08-25.24-.77-152.36-.77-152.47 0-31.21 1.68-47.99 12.97-59.28 15.46-15.45 37.645-12 48.385-55.3l50.60806-25.83661z" fill="#885651"/><path d="m182.69322 365.31409c0-52.1378 15.24078-133.68409 73.30678-133.68409s73.30679 81.54629 73.30679 133.68409c0 31.25024 2.78854 44.02591-73.30679 44.02591-76.1473 0-73.30678-12.80816-73.30678-44.02591z" fill="#faeddf"/><path d="m300.35661 96.38528c-.51175 36.39277 1.95954 61.13591 6.2434 78.42472h-101.20001c4.28407-17.28971 6.7554-42.0345 6.24331-78.43036z" fill="#594944"/><path d="m322.35 55v36.62a14.03669 14.03669 0 0 1 -14.04 14.03h-104.62a14.03669 14.03669 0 0 1 -14.04-14.03v-36.62a14.03669 14.03669 0 0 1 14.04-14.03h104.62a14.03669 14.03669 0 0 1 14.04 14.03z" fill="#745e57"/><path d="m302.02 354.84c0 10.27-9.29 18.85-17.79 18.85h-40.52a33.72326 33.72326 0 0 1 -33.72387-33.72145c0-18.45211 14.81218-33.45958 32.54378-33.45958 8.88477 0 18.541 3.75529 27.53009 12.741 14.24 14.25003 31.96 10.71003 31.96 35.59003z" fill="#d48574"/></g></g><g id="Outline"><g id="BBQ_Sauce-2" fill="#222123" data-name="BBQ Sauce"><path d="m358.52247 226.57813c-21.96983-21.974-52.30613-6.79569-53.2107-115.92872h3.00269a19.05245 19.05245 0 0 0 19.03125-19.03125v-36.61816a19.05245 19.05245 0 0 0 -19.03125-19.03125h-104.62891a19.05245 19.05245 0 0 0 -19.03125 19.03125v36.61816a19.05245 19.05245 0 0 0 19.03125 19.03125h3.00269c-.9051 109.19805-31.27123 93.985-53.21069 115.92872-12.35547 12.35449-14.44043 29.3623-14.44043 62.81054 0 .65687.69282 125.53109.77148 152.48438a34.312 34.312 0 0 0 34.24707 34.1582h163.88867a34.312 34.312 0 0 0 34.24707-34.1582c.069-23.653.77149-152.67522.77149-152.48438 0-33.44824-2.08496-50.45605-14.44043-62.81054zm-163.86817-134.95997v-36.61816a9.04194 9.04194 0 0 1 9.03125-9.03125h104.62891a9.04194 9.04194 0 0 1 9.03125 9.03125v36.61816a9.04193 9.04193 0 0 1 -9.03125 9.03125h-104.62891a9.04193 9.04193 0 0 1 -9.03125-9.03125zm100.65821 19.03125c.21826 25.28687 2.10009 44.4458 5.12255 59.165h-88.87006c3.02246-14.71924 4.90429-33.87817 5.12256-59.165zm66.8789 331.19434a24.295 24.295 0 0 1 -24.24707 24.1875h-163.88867a24.295 24.295 0 0 1 -24.24707-24.1875c-.069-23.28641-.648-129.54235-.77148-152.45508 0-30.584 1.6621-45.89062 11.51074-55.74023 14.05669-14.0567 36.922-12.12837 48.61279-53.834h93.67871c11.69082 41.7058 34.559 39.78018 48.61279 53.834 9.84864 9.84961 11.51075 25.15625 11.51075 55.71972-.12205 22.64263-.7026 129.23173-.77149 152.47559z"/><path d="m256 226.63379c-64.47232 0-82.64133 93.64139-77.62012 157.10644 2.05859 26.02149 26.66992 30.60059 77.62012 30.60059s75.56152-4.5791 77.62011-30.60059c5.02123-63.46505-12.99539-157.10644-77.62011-157.10644zm67.65136 156.31738c-.99121 12.52442-6.42382 21.38965-67.65136 21.38965s-66.66016-8.86523-67.65137-21.38965c-4.24946-53.7117 9.64937-146.31738 67.65137-146.31738 58.00926 0 71.86727 93.02996 67.65137 146.31738z"/><path d="m273.5918 315.71875c-29.33643-29.33858-67.69894-8.8932-68.59472 23.13477a38.70751 38.70751 0 0 0 38.71386 39.835h40.51563c10.75879 0 22.792-10.2002 22.792-23.85059-.00001-28.10523-20.34125-26.03366-33.42677-39.11918zm23.42676 39.11914c0 7.459-7.03418 13.85059-12.792 13.85059h-40.51562a28.71092 28.71092 0 0 1 -28.71777-29.55567c.6524-23.361 28.447-39.422 51.52832-16.34375 15.31665 15.31942 30.49707 10.56621 30.49707 32.04883z"/><path d="m242.44385 326.91309a10.33488 10.33488 0 1 0 9.26319 11.30566 10.33464 10.33464 0 0 0 -9.26319-11.30566z"/></g></g></svg>