<?xml version="1.0" encoding="UTF-8" standalone="no"?>
<!-- Created with Inkscape (http://www.inkscape.org/) -->

<svg
   version="1.1"
   id="svg7899"
   xml:space="preserve"
   width="682.66669"
   height="682.66669"
   viewBox="0 0 682.66669 682.66669"
   xmlns="http://www.w3.org/2000/svg"
   xmlns:svg="http://www.w3.org/2000/svg"><defs
     id="defs7903"><clipPath
       clipPathUnits="userSpaceOnUse"
       id="clipPath7913"><path
         d="M 0,512 H 512 V 0 H 0 Z"
         id="path7911" /></clipPath></defs><g
     id="g7905"
     transform="matrix(1.3333333,0,0,-1.3333333,0,682.66667)"><g
       id="g7907"><g
         id="g7909"
         clip-path="url(#clipPath7913)"><g
           id="g7915"
           transform="translate(458.5068,376.3623)"><path
             d="m 0,0 c 2.633,6.082 4.1,12.787 4.1,19.837 0,27.606 -22.379,49.985 -49.985,49.985 -10.516,0 -20.269,-3.255 -28.32,-8.802 0.36,2.419 0.551,4.894 0.551,7.414 0,27.605 -22.379,49.984 -49.985,49.984 -18.214,0 -34.148,-9.745 -42.885,-24.303 -6.662,19.776 -25.344,34.023 -47.366,34.023 -21.45,0 -39.738,-13.515 -46.83,-32.491 -9.121,9.737 -22.084,15.829 -36.478,15.829 -27.606,0 -49.985,-22.379 -49.985,-49.985 0,-27.606 22.379,-49.985 49.985,-49.985 21.45,0 39.738,13.515 46.831,32.491 9.12,-9.737 22.084,-15.829 36.477,-15.829 18.214,0 34.148,9.745 42.885,24.303 6.662,-19.775 25.344,-34.023 47.366,-34.023 10.516,0 20.269,3.255 28.32,8.803 -0.36,-2.42 -0.551,-4.895 -0.551,-7.414 0,-19.042 10.65,-35.593 26.316,-44.032 -2.634,-6.082 -4.1,-12.787 -4.1,-19.837 0,-27.607 22.379,-49.986 49.985,-49.986 27.606,0 49.984,22.379 49.984,49.986 C 26.315,-24.991 15.666,-8.439 0,0"
             style="fill:#98246a;fill-opacity:1;fill-rule:nonzero;stroke:none"
             id="path7917" /></g><g
           id="g7919"
           transform="translate(458.5068,376.3623)"><path
             d="m 0,0 c 2.633,6.082 4.1,12.787 4.1,19.837 0,27.606 -22.379,49.985 -49.985,49.985 -10.516,0 -20.269,-3.255 -28.32,-8.802 0.36,2.419 0.551,4.894 0.551,7.414 0,27.605 -22.379,49.984 -49.985,49.984 -18.214,0 -34.148,-9.745 -42.885,-24.303 -6.662,19.776 -25.344,34.023 -47.366,34.023 -21.45,0 -39.738,-13.515 -46.83,-32.491 -9.121,9.737 -22.084,15.829 -36.478,15.829 -27.606,0 -49.985,-22.379 -49.985,-49.985 0,-27.606 22.379,-49.985 49.985,-49.985 21.45,0 39.738,13.515 46.831,32.491 9.12,-9.737 22.084,-15.829 36.477,-15.829 18.214,0 34.148,9.745 42.885,24.303 6.662,-19.775 25.344,-34.023 47.366,-34.023 10.516,0 20.269,3.255 28.32,8.803 -0.36,-2.42 -0.551,-4.895 -0.551,-7.414 0,-19.042 10.65,-35.593 26.316,-44.032 -2.634,-6.082 -4.1,-12.787 -4.1,-19.837 0,-27.607 22.379,-49.986 49.985,-49.986 27.606,0 49.984,22.379 49.984,49.986 C 26.315,-24.991 15.666,-8.439 0,0 Z"
             style="fill:none;stroke:#000000;stroke-width:15;stroke-linecap:round;stroke-linejoin:round;stroke-miterlimit:10;stroke-dasharray:none;stroke-opacity:1"
             id="path7921" /></g><g
           id="g7923"
           transform="translate(458.7861,267.5576)"><path
             d="m 0,0 c 0,-107.088 -86.812,-193.899 -193.899,-193.899 -107.088,0 -193.9,86.811 -193.9,193.899 0,107.088 86.812,193.899 193.9,193.899 C -86.812,193.899 0,107.088 0,0"
             style="fill:#e03d9c;fill-opacity:1;fill-rule:nonzero;stroke:none"
             id="path7925" /></g><g
           id="g7927"
           transform="translate(458.7861,267.5576)"><path
             d="m 0,0 c 0,-107.088 -86.812,-193.899 -193.899,-193.899 -107.088,0 -193.9,86.811 -193.9,193.899 0,107.088 86.812,193.899 193.9,193.899 C -86.812,193.899 0,107.088 0,0 Z"
             style="fill:none;stroke:#000000;stroke-width:15;stroke-linecap:round;stroke-linejoin:round;stroke-miterlimit:10;stroke-dasharray:none;stroke-opacity:1"
             id="path7929" /></g><g
           id="g7931"
           transform="translate(84.603,158.4111)"><path
             d="M 0,0 C 65.411,-99.034 198.721,-126.291 297.755,-60.88 L 60.88,297.755 C -38.154,232.344 -65.411,99.034 0,0"
             style="fill:#c53287;fill-opacity:1;fill-rule:nonzero;stroke:none"
             id="path7933" /></g><g
           id="g7935"
           transform="translate(91.2163,301.0215)"><path
             d="m 0,0 c -2.454,55.721 16.831,111.331 55.193,153.742 l -0.926,1.403 C 1.899,120.557 -30.391,66.982 -39.53,9.53 -25.945,7.458 -12.739,4.242 0,0"
             style="fill:#98246a;fill-opacity:1;fill-rule:nonzero;stroke:none"
             id="path7937" /></g><g
           id="g7939"
           transform="translate(188.2061,391.4824)"><path
             d="m 0,0 -42.723,64.684 c -99.034,-65.412 -126.291,-198.721 -60.88,-297.755 65.411,-99.034 198.721,-126.291 297.755,-60.88 L 19.299,-29.219"
             style="fill:none;stroke:#000000;stroke-width:15;stroke-linecap:round;stroke-linejoin:round;stroke-miterlimit:10;stroke-dasharray:none;stroke-opacity:1"
             id="path7941" /></g><g
           id="g7943"
           transform="translate(136.9404,372.1211)"><path
             d="M 0,0 C -27.129,-70.658 8.094,-149.786 78.752,-176.916"
             style="fill:none;stroke:#000000;stroke-width:15;stroke-linecap:round;stroke-linejoin:round;stroke-miterlimit:10;stroke-dasharray:none;stroke-opacity:1"
             id="path7945" /></g><g
           id="g7947"
           transform="translate(273.873,412.124)"><path
             d="M 0,0 C -27.129,-70.658 8.094,-149.787 78.752,-176.916"
             style="fill:none;stroke:#000000;stroke-width:15;stroke-linecap:round;stroke-linejoin:round;stroke-miterlimit:10;stroke-dasharray:none;stroke-opacity:1"
             id="path7949" /></g><g
           id="g7951"
           transform="translate(228.9204,307.0225)"><path
             d="M 0,0 C -71.896,-71.896 -71.896,-188.464 0,-260.36 L 260.36,0 C 188.464,71.896 71.896,71.896 0,0"
             style="fill:#98246a;fill-opacity:1;fill-rule:nonzero;stroke:none"
             id="path7953" /></g><g
           id="g7955"
           transform="translate(228.9204,307.0225)"><path
             d="M 0,0 C -71.896,-71.896 -71.896,-188.464 0,-260.36 L 260.36,0 C 188.464,71.896 71.896,71.896 0,0 Z"
             style="fill:none;stroke:#000000;stroke-width:15;stroke-linecap:round;stroke-linejoin:round;stroke-miterlimit:10;stroke-dasharray:none;stroke-opacity:1"
             id="path7957" /></g><g
           id="g7959"
           transform="translate(214.6094,248.5996)"><path
             d="m 0,0 c -45.142,-45.142 -58.543,-110.005 -40.204,-166.855 11.803,-36.591 58.533,-47.311 85.719,-20.125 L 232.495,0 C 168.293,64.201 64.202,64.201 0,0"
             style="fill:#c53287;fill-opacity:1;fill-rule:nonzero;stroke:none"
             id="path7961" /></g><g
           id="g7963"
           transform="translate(214.6094,248.5996)"><path
             d="m 0,0 c -45.142,-45.142 -58.543,-110.005 -40.204,-166.855 11.803,-36.591 58.533,-47.311 85.719,-20.125 L 232.495,0 C 168.293,64.201 64.202,64.201 0,0 Z"
             style="fill:none;stroke:#000000;stroke-width:15;stroke-linecap:round;stroke-linejoin:round;stroke-miterlimit:10;stroke-dasharray:none;stroke-opacity:1"
             id="path7965" /></g><g
           id="g7967"
           transform="translate(256,7.5)"><path
             d="m 0,0 v 0 c 133.073,0 240.949,107.876 240.949,240.949 v 64.871 0 C 107.876,305.82 0,197.943 0,64.871 Z"
             style="fill:#e758aa;fill-opacity:1;fill-rule:nonzero;stroke:none"
             id="path7969" /></g><g
           id="g7971"
           transform="translate(297,47.0508)"><path
             d="m 0,0 c 0,119.095 86.409,217.993 199.949,237.46 v 28.81 0 C 66.876,266.27 -41,158.393 -41,25.32 v -64.871 c 13.979,0 27.674,1.205 41,3.49 z"
             style="fill:#e03d9c;fill-opacity:1;fill-rule:nonzero;stroke:none"
             id="path7973" /></g><g
           id="g7975"
           transform="translate(496.9492,258.9766)"><path
             d="m 0,0 v 54.344 0 c -133.073,0 -240.949,-107.877 -240.949,-240.949 v -64.872 c 124.811,0 227.455,94.899 239.72,216.477"
             style="fill:none;stroke:#000000;stroke-width:15;stroke-linecap:round;stroke-linejoin:round;stroke-miterlimit:10;stroke-dasharray:none;stroke-opacity:1"
             id="path7977" /></g><g
           id="g7979"
           transform="translate(256,7.5)"><path
             d="m 0,0 v 0 c -133.073,0 -240.949,107.876 -240.949,240.949 v 64.871 0 C -107.876,305.82 0,197.943 0,64.871 Z"
             style="fill:#e03d9c;fill-opacity:1;fill-rule:nonzero;stroke:none"
             id="path7981" /></g><g
           id="g7983"
           transform="translate(58,265.1289)"><path
             d="m 0,0 v 44.371 c -13.938,2.508 -28.29,3.82 -42.949,3.82 v 0 -64.871 c 0,-133.072 107.876,-240.949 240.949,-240.949 v 20.5 C 85.419,-216.872 0,-118.413 0,0"
             style="fill:#c53287;fill-opacity:1;fill-rule:nonzero;stroke:none"
             id="path7985" /></g><g
           id="g7987"
           transform="translate(213.7178,208.7207)"><path
             d="m 0,0 c -43.438,63.17 -116.208,104.6 -198.667,104.6 v 0 -64.871 c 0,-133.073 107.876,-240.95 240.949,-240.95 v 64.871 c 0,38.064 -8.839,74.058 -24.556,106.064"
             style="fill:none;stroke:#000000;stroke-width:15;stroke-linecap:round;stroke-linejoin:round;stroke-miterlimit:10;stroke-dasharray:none;stroke-opacity:1"
             id="path7989" /></g><g
           id="g7991"
           transform="translate(92.4302,233.1152)"><path
             d="M 0,0 C -44.494,-44.494 -44.494,-116.502 0,-160.995"
             style="fill:none;stroke:#000000;stroke-width:15;stroke-linecap:round;stroke-linejoin:round;stroke-miterlimit:10;stroke-dasharray:none;stroke-opacity:1"
             id="path7993" /></g><g
           id="g7995"
           transform="translate(144.6934,152.125)"><path
             d="M 0,0 C -24.476,-50.283 -3.593,-110.778 46.69,-135.255"
             style="fill:none;stroke:#000000;stroke-width:15;stroke-linecap:round;stroke-linejoin:round;stroke-miterlimit:10;stroke-dasharray:none;stroke-opacity:1"
             id="path7997" /></g><g
           id="g7999"
           transform="translate(419.5698,233.1152)"><path
             d="M 0,0 C 44.494,-44.494 44.494,-116.502 0,-160.995"
             style="fill:none;stroke:#000000;stroke-width:15;stroke-linecap:round;stroke-linejoin:round;stroke-miterlimit:10;stroke-dasharray:none;stroke-opacity:1"
             id="path8001" /></g><g
           id="g8003"
           transform="translate(367.3066,152.125)"><path
             d="M 0,0 C 24.476,-50.283 3.593,-110.778 -46.69,-135.255"
             style="fill:none;stroke:#000000;stroke-width:15;stroke-linecap:round;stroke-linejoin:round;stroke-miterlimit:10;stroke-dasharray:none;stroke-opacity:1"
             id="path8005" /></g></g></g></g></svg>
