<svg height="512" viewBox="0 0 60 51" width="512" xmlns="http://www.w3.org/2000/svg"><g id="Page-1" fill="none" fill-rule="evenodd"><g id="006---Syrup-on-Spoon"><g id="Icons" transform="translate(1 1)"><path id="Path" d="m44.97 9.18c-.4 5.44-5.1 11.5-11.88 14.79-.6748744.3400709-1.0976322 1.0343245-1.09 1.79v16.24c.0024121 2.1370175-1.6753933 3.898493-3.81 4-1.120226.0065861-2.1958994-.4382614-2.9842605-1.2341486s-1.2229686-1.8757386-1.2057395-2.9958514v-4.77c-.0005341-.8335376-.347835-1.6292764-.9586461-2.1964581-.610811-.5671816-1.4300605-.8546682-2.2613539-.7935419-1.606686.1715475-2.8145822 1.5445519-2.78 3.16v.83c-.0005341.8335376-.347835 1.6292764-.9586461 2.1964581-.610811.5671816-1.4300605.8546682-2.2613539.7935419-1.606686-.1715475-2.8145822-1.5445519-2.78-3.16v-12.59c-.0088756-.7484826-.4273498-1.4318625-1.09-1.78-5.46-2.96-9.4-7.71-10.55-12.32 1.88-7.47 11.3-11.14 22.64-11.14 10.16 0 18.78 2.95 21.82 8.93.0402765.08879463.0906054.17267622.15.25z" fill="#ff9801"/><path id="Path" d="m44.82 8.93c-3.04-5.98-11.66-8.93-21.82-8.93-.478 0-.947.016-1.418.029 9.464.293 17.357 3.234 20.238 8.9.0402765.08879463.0906054.17267622.15.25-.4 5.44-5.1 11.5-11.88 14.79-.6752005.3402303-1.0980154 1.0349656-1.09 1.791v16.24c-.0018942 1.0606427-.4223608 2.0776689-1.17 2.83-.3743305.3669356-.8156595.6585522-1.3.859.5219579.2302549 1.0900902.3366941 1.66.311 2.1346067-.101507 3.8124121-1.8629825 3.81-4v-16.24c-.0076322-.7556755.4151256-1.4499291 1.09-1.79 6.78-3.29 11.48-9.35 11.88-14.79-.0593946-.07732378-.1097235-.16120537-.15-.25z" fill="#f57c00"/><path id="Path" d="m58 11v6c0 .5522847-.4477153 1-1 1h-8.91c-.676441.0052522-1.3060552.3462932-1.68.91-3.47 5.26-8.3 9.97-14.4101016 12.39l.0001016-5.54c-.0076322-.7556755.4151256-1.4499291 1.09-1.79 6.78-3.29 11.48-9.35 11.88-14.79.3749365.5147419.9731827.81943875 1.61.82h10.42c.5522847 0 1 .4477153 1 1z" fill="#7f8e94"/><path id="Path" d="m43.41 18.91c-2.8742426 4.505972-6.7869347 8.2571497-11.41 10.939v1.451c6.11-2.42 10.94-7.13 14.41-12.39.3739448-.5637068 1.003559-.9047478 1.68-.91h-3c-.676441.0052522-1.3060552.3462932-1.68.91z" fill="#545c60"/><path id="Path" d="m57 10h-3c.5522847 0 1 .4477153 1 1v6c0 .5522847-.4477153 1-1 1h3c.5522847 0 1-.4477153 1-1v-6c0-.5522847-.4477153-1-1-1z" fill="#545c60"/><path id="Path" d="m12 25.24v5.23c-7.15-3.48-12-10.03-12-16.47-.0055093-.9649697.11552212-1.9264972.36-2.86 1.15 4.61 5.09 9.36 10.55 12.32.6626502.3481375 1.0811244 1.0315174 1.09 1.78z" fill="#7f8e94"/><circle id="Oval" cx="15" cy="47" fill="#ff9801" r="2"/></g><g id="Icons_copy" fill="#000" fill-rule="nonzero"><path id="Shape" d="m58 10h-10.42c-.3163033-.00036638-.6134704-.15155014-.8-.407l-.067-.116c-3.063-6.023-11.341-9.477-22.713-9.477-12.909 0-21.735 4.447-23.6 11.882-.26856195 1.0174764-.40303339 2.0656813-.4 3.118 0 6.561 4.8 13.348 12 17.074v6.757c-.0371649 2.1413407 1.5773854 3.9517788 3.709 4.159 1.1587252.0822532 2.2961796-.3420122 3.118-1.163.753228-.7476129 1.1756774-1.7657412 1.173-2.827v-.831c-.0271207-1.0888816.771995-2.0226215 1.852-2.164.5547062-.0411611 1.1014972.1505435 1.5090593.5290753s.6390752.9096935.6389407 1.4659247v4.774c.0047595 1.455661.6023549 2.8465598 1.655 3.852.8987564.8755829 2.1022592 1.3681694 3.357 1.374.076 0 .151 0 .227-.005 2.6657346-.1275679 4.7613818-2.3262148 4.761-4.995v-10.041c6.869-2.933 11.527-8.378 14.237-12.487.1885398-.288975.5080148-.4657537.853-.472h8.91c1.1045695 0 2-.8954305 2-2v-6c0-1.1045695-.8954305-2-2-2zm-55.892 6.519c2.25717394 3.7277134 5.47977052 6.7761716 9.327 8.823.3389536.1738787.5557152.5191626.565.9v3.558c-5.488-3.146-9.251-8.213-9.892-13.281zm29.892 10.238v16.243c.0044038 1.6032296-1.2544917 2.9255988-2.856 3-.7859233.0310291-1.5495414-.265149-2.109-.818-.6585866-.6281859-1.0323894-1.4978643-1.035-2.408v-4.774c.0026774-1.0612588-.419772-2.0793871-1.173-2.827-.8221122-.8205333-1.9593519-1.2447186-3.118-1.163-2.1316146.2072212-3.7461649 2.0176593-3.709 4.159v.831c.0015276.5571002-.2293783 1.0895913-.6371051 1.4692251-.4077267.3796339-.9553202.5720026-1.5108949.5307749-1.081954-.1415659-1.8817233-1.0782288-1.852-2.169v-12.589c-.0086244-1.1142074-.6265067-2.1342889-1.61-2.658-5.005-2.717-8.8-7.076-9.986-11.429 1.754-6.268 9.985-10.155 21.596-10.155 10.437 0 18.261 3.134 20.907 8.337.008.019.022.034.031.052-.523 5.1-5.113 10.686-11.289 13.685-1.0146031.508585-1.6534837 1.5480736-1.649 2.683zm26-8.757h-8.91c-1.0121363.0066968-1.9547439.5160422-2.515 1.359-3.0800178 4.8743015-7.4265001 8.8201816-12.5751702 11.416l.0001702-4.018c-.0068834-.3698647.1955102-.7119602.523-.884 6.379-3.1 11.082-8.575 12.2-14.012.277366.0878514.5660858.1346799.857.139h10.42z"/><path id="Shape" d="m19 48c0-1.6568542-1.3431458-3-3-3s-3 1.3431458-3 3 1.3431458 3 3 3 3-1.3431458 3-3zm-4 0c0-.5522847.4477153-1 1-1s1 .4477153 1 1-.4477153 1-1 1-1-.4477153-1-1z"/></g><g id="Highlights" fill="#f5f5f5" transform="translate(6 4)"><path id="Path" d="m1.02 7.02c-.40027262-.00075883-.76152976-.24012967-.91825886-.60844304-.15672909-.36831337-.07873101-.79460133.19825886-1.08355696 1.51597199-1.48958357 3.33917648-2.62985429 5.342-3.341.51528167-.19882251 1.09417749.05771833 1.293.573s-.05771833 1.09417749-.573 1.293c-1.72870138.60692254-3.30477155 1.58245505-4.619 2.859-.18886982.19703018-.45006666.30830075-.723.308z"/><path id="Path" d="m35 7c-.274074.0000654-.536163-.11236173-.725-.311-2.796-2.936-8.875-4.689-16.275-4.689-1.9587563-.0079514-3.9155243.12573045-5.855.4-.5467619.08008129-1.0549187-.2982381-1.135-.845s.2982381-1.05491871.845-1.135c2.0356444-.28686112 4.0892555-.42722184 6.145-.42 8.05 0 14.511 1.936 17.725 5.311.2755361.28983726.3518996.71596195.1941584 1.08344456s-.5192512.60565089-.9191584.60555544z"/></g></g></g></svg>