<?xml version="1.0" encoding="UTF-8"?>
<svg xmlns="http://www.w3.org/2000/svg" xmlns:xlink="http://www.w3.org/1999/xlink" version="1.1" id="Capa_1" x="0px" y="0px" viewBox="0 0 511.914 511.914" style="enable-background:new 0 0 511.914 511.914;" xml:space="preserve" width="512" height="512">
<g>
	
		<ellipse transform="matrix(0.7071 -0.7071 0.7071 0.7071 -149.5617 148.4458)" style="fill:#E83826;" cx="104.41" cy="254.76" rx="37.269" ry="51.512"/>
	
		<ellipse transform="matrix(0.5 -0.866 0.866 0.5 -120.0999 162.6491)" style="fill:#DB2A17;" cx="80.808" cy="185.334" rx="53.371" ry="34.225"/>
	<path style="fill:#E83826;" d="M154.99,184.509c-30.167,22.484-90.781-9.944-90.781-9.944s11.49-33.48,41.657-55.965&#10;&#9;&#9;c17.015-12.682,50.932-6.657,61.698-27.255c6.694-12.806,19.357-14.761,25.271-6.827c14.879,19.963,13.165,34.353,5.887,48.631&#10;&#9;&#9;C189.306,151.622,172.005,171.827,154.99,184.509z"/>
	<path style="fill:#F54432;" d="M47.706,84.578c-6.374,19.122-6.535,51.999-5.089,80.196c0.892,17.395,28.321,26.539,39.472,13.158&#10;&#9;&#9;c18.077-21.689,37.676-48.086,44.05-67.208c7.222-21.665-6.943-52.603,8.049-71.907c9.394-12.096,8.539-24.765-0.903-27.913&#10;&#9;&#9;C109.528,2.985,96.103,9.823,84.44,22.233C69.351,38.29,54.928,62.913,47.706,84.578z"/>
	
		<ellipse transform="matrix(0.7071 -0.7071 0.7071 0.7071 -60.6329 363.1403)" style="fill:#F54432;" cx="408.032" cy="254.76" rx="51.512" ry="37.269"/>
	
		<ellipse transform="matrix(0.866 -0.5 0.5 0.866 -34.8392 240.6465)" style="fill:#E83826;" cx="431.633" cy="185.334" rx="34.225" ry="53.371"/>
	<path style="fill:#DB2A17;" d="M219.557,354.146c0,0-75.632,41.915-46.315,133.236c2.594,8.08-2.111,16.92-9.01,17.019l0,0&#10;&#9;&#9;c-2.416,0.035-4.769-1.047-6.582-3.067c-66.822-74.444-3.077-154.998-3.077-154.998L219.557,354.146z"/>
	<path style="fill:#DB2A17;" d="M192.696,375.947c0,0-85.362-13.801-118.763,76.106c-2.955,7.955-12.118,11.996-17.603,7.809l0,0&#10;&#9;&#9;c-1.921-1.466-3.102-3.771-3.278-6.479c-6.513-99.823,93.389-123.743,93.389-123.743L192.696,375.947z"/>
	<path style="fill:#DB2A17;" d="M167.152,346.358c0,0-74.336-44.174-138.41,27.195c-5.669,6.315-15.675,6.71-19.24,0.802h0&#10;&#9;&#9;c-1.248-2.069-1.501-4.646-0.671-7.23c30.587-95.244,132.294-80.821,132.294-80.821L167.152,346.358z"/>
	<path style="fill:#F54432;" d="M292.357,354.146c0,0,75.632,41.915,46.315,133.236c-2.594,8.08,2.111,16.92,9.01,17.019h0&#10;&#9;&#9;c2.416,0.035,4.769-1.047,6.582-3.067c66.822-74.444,3.077-154.998,3.077-154.998L292.357,354.146z"/>
	<path style="fill:#F54432;" d="M319.218,375.947c0,0,85.362-13.801,118.763,76.106c2.955,7.955,12.118,11.996,17.603,7.809h0&#10;&#9;&#9;c1.921-1.466,3.102-3.771,3.278-6.479c6.513-99.823-93.389-123.743-93.389-123.743L319.218,375.947z"/>
	<path style="fill:#F54432;" d="M344.761,346.358c0,0,74.336-44.174,138.41,27.195c5.669,6.315,15.675,6.71,19.24,0.802l0,0&#10;&#9;&#9;c1.249-2.069,1.501-4.646,0.671-7.23c-30.587-95.244-132.294-80.821-132.294-80.821L344.761,346.358z"/>
	<path style="fill:#FB695B;" d="M421.87,319.633c0,64.45-72.48,105.41-161.89,105.41c-2.21,0-4.42-0.03-6.61-0.08&#10;&#9;&#9;c-180.77-126.41-16.93-231.85-16.93-231.85c7.68-0.97,15.54-1.48,23.54-1.48C349.39,191.633,421.87,255.173,421.87,319.633z"/>
	<path style="fill:#F54432;" d="M253.37,424.963c-86.34-1.96-155.27-42.48-155.27-105.33c0-58.69,60.1-116.63,138.34-126.52&#10;&#9;&#9;C216.071,243.933,194.771,335.813,253.37,424.963z"/>
	
		<ellipse transform="matrix(0.0022 -1 1 0.0022 -103.7257 461.8673)" style="fill:#FFFFFF;" cx="179.577" cy="282.91" rx="23.515" ry="29.529"/>
	
		<ellipse transform="matrix(0.0022 -1 1 0.0022 55.6296 622.2723)" style="fill:#FFFFFF;" cx="339.633" cy="283.26" rx="23.515" ry="29.529"/>
	<path style="fill:#F54432;" d="M357.451,184.509c30.167,22.484,90.781-9.944,90.781-9.944s-11.49-33.48-41.657-55.965&#10;&#9;&#9;c-17.015-12.682-50.932-6.657-61.698-27.255c-6.693-12.806-19.357-14.761-25.271-6.827c-14.879,19.963-13.165,34.353-5.887,48.631&#10;&#9;&#9;C323.135,151.622,340.436,171.827,357.451,184.509z"/>
	<path style="fill:#FB695B;" d="M464.735,84.578c6.374,19.122,6.535,51.999,5.089,80.196c-0.892,17.395-28.321,26.539-39.472,13.158&#10;&#9;&#9;c-18.077-21.689-37.676-48.086-44.05-67.208c-7.222-21.665,6.943-52.603-8.049-71.907c-9.394-12.096-8.539-24.765,0.903-27.913&#10;&#9;&#9;c23.757-7.919,37.182-1.082,48.845,11.329C443.091,38.29,457.513,62.913,464.735,84.578z"/>
</g>
<g>
	<path style="fill:none;stroke:#000000;stroke-width:15;stroke-linecap:round;stroke-linejoin:round;stroke-miterlimit:10;" d="&#10;&#9;&#9;M60.052,233.911c-4.319,23.579,14.959,52.479,41.15,62.43"/>
	<path style="fill:none;stroke:#000000;stroke-width:15;stroke-linecap:round;stroke-linejoin:round;stroke-miterlimit:10;" d="&#10;&#9;&#9;M104.042,211.941c13.848,4.198,26.281,14.012,34.45,25.61"/>
	<path style="fill:none;stroke:#000000;stroke-width:15;stroke-linecap:round;stroke-linejoin:round;stroke-miterlimit:10;" d="&#10;&#9;&#9;M115.692,191.621c-2.791,7.064-6.837,14.189-11.65,20.32c-12.93,16.58-30.34,25.32-43.99,21.97c-2.07-0.5-4.06-1.29-5.93-2.37&#10;&#9;&#9;c-14.77-8.53-17.29-32.45-6.8-55.8"/>
	<path style="fill:none;stroke:#000000;stroke-width:15;stroke-linecap:round;stroke-linejoin:round;stroke-miterlimit:10;" d="&#10;&#9;&#9;M78.522,181.111c11.5,4.706,24.644,8.834,37.14,10.5c0.01,0.01,0.02,0.01,0.03,0.01c14.22,1.91,28.65,0.81,39.3-7.12&#10;&#9;&#9;c17.01-12.69,34.32-32.89,43.73-51.36c7.28-14.28,8.99-28.67-5.88-48.63c-5.92-7.94-18.58-5.98-25.28,6.82&#10;&#9;&#9;c-7.31,13.99-25.29,15.7-41.41,19.33"/>
	<path style="fill:none;stroke:#000000;stroke-width:15;stroke-linecap:round;stroke-linejoin:round;stroke-miterlimit:10;" d="&#10;&#9;&#9;M54.698,67.244c-2.742,5.839-5.11,11.681-6.991,17.322c-6.374,19.122-6.535,51.999-5.089,80.196&#10;&#9;&#9;c0.892,17.395,28.321,26.539,39.472,13.158c18.077-21.689,37.676-48.086,44.05-67.208c7.222-21.665-6.943-52.603,8.049-71.907&#10;&#9;&#9;c9.394-12.096,8.539-24.765-0.903-27.913C109.53,2.972,96.105,9.81,84.441,22.221c-4.567,4.86-9.074,10.505-13.338,16.615"/>
	<path style="fill:none;stroke:#000000;stroke-width:15;stroke-linecap:round;stroke-linejoin:round;stroke-miterlimit:10;" d="&#10;&#9;&#9;M376.982,233.571c8.964-10.868,20.238-18.24,31.42-21.63"/>
	<path style="fill:none;stroke:#000000;stroke-width:15;stroke-linecap:round;stroke-linejoin:round;stroke-miterlimit:10;" d="&#10;&#9;&#9;M452.392,233.911c3.844,20.987-11.132,47.114-34.47,59.41"/>
	<path style="fill:none;stroke:#000000;stroke-width:15;stroke-linecap:round;stroke-linejoin:round;stroke-miterlimit:10;" d="&#10;&#9;&#9;M465.122,175.741c10.49,23.35,7.97,47.27-6.8,55.8c-1.87,1.08-3.86,1.87-5.93,2.37c-13.65,3.35-31.06-5.39-43.99-21.97&#10;&#9;&#9;c-4.807-6.124-8.856-13.248-11.65-20.32"/>
	<path style="fill:none;stroke:#000000;stroke-width:15;stroke-linecap:round;stroke-linejoin:round;stroke-miterlimit:10;" d="&#10;&#9;&#9;M133.372,387.921c-9.76,30.19-12.25,72.71,24.28,113.4c3.01,3.36,6.63,3.12,6.63,3.07"/>
	<path style="fill:none;stroke:#000000;stroke-width:15;stroke-linecap:round;stroke-linejoin:round;stroke-miterlimit:10;" d="&#10;&#9;&#9;M164.232,504.391c6.575,0,11.702-8.642,9.01-17.02c-10.13-31.56-7.73-57.23-0.24-77.3"/>
	<path style="fill:none;stroke:#000000;stroke-width:15;stroke-linecap:round;stroke-linejoin:round;stroke-miterlimit:10;" d="&#10;&#9;&#9;M103.742,349.451c-26.25,17.74-54.23,49.59-50.69,103.92c0.31,4.59,3.28,6.42,3.28,6.48c5.48,4.19,14.65,0.14,17.6-7.81&#10;&#9;&#9;c13.54-36.45,35.62-55.85,57.09-66.04"/>
	<path style="fill:none;stroke:#000000;stroke-width:15;stroke-linecap:round;stroke-linejoin:round;stroke-miterlimit:10;" d="&#10;&#9;&#9;M99.312,333.751c-22.11,2.95-47.03,13.58-70.57,39.79c-5.67,6.31-15.67,6.71-19.24,0.8c-1.185-1.965-1.533-4.506-0.67-7.23&#10;&#9;&#9;c18.49-57.57,62.97-75.07,95.26-79.91"/>
	<path style="fill:none;stroke:#000000;stroke-width:15;stroke-linecap:round;stroke-linejoin:round;stroke-miterlimit:10;" d="&#10;&#9;&#9;M380.022,392.821c8.44,29.79,8.84,69.97-25.76,108.5c-1.71,1.92-3.96,3.07-6.58,3.07c-6.9-0.1-11.6-8.94-9.01-17.02&#10;&#9;&#9;c9.7-30.22,7.91-55.04,1.16-74.71"/>
	<path style="fill:none;stroke:#000000;stroke-width:15;stroke-linecap:round;stroke-linejoin:round;stroke-miterlimit:10;" d="&#10;&#9;&#9;M414.322,353.861c24.26,18.42,47.81,49.4,44.54,99.51c-0.08,1.36-0.42,2.61-0.98,3.7c-4.02,7.897-16.277,4.7-19.9-5.03&#10;&#9;&#9;c-12.5-33.64-32.27-52.76-52.13-63.52"/>
	<path style="fill:none;stroke:#000000;stroke-width:15;stroke-linecap:round;stroke-linejoin:round;stroke-miterlimit:10;" d="&#10;&#9;&#9;M416.442,288.751c31.17,6.61,69.75,25.76,86.64,78.36c0.863,2.725,0.514,5.266-0.67,7.23c-3.56,5.91-13.57,5.51-19.24-0.8&#10;&#9;&#9;c-20.8-23.17-42.68-34.16-62.75-38.44"/>
	<path style="fill:none;stroke:#000000;stroke-width:15;stroke-linecap:round;stroke-linejoin:round;stroke-miterlimit:10;" d="&#10;&#9;&#9;M278.473,424.435c-6.067,0.395-12.235,0.595-18.486,0.595c-89.405,0-161.882-40.957-161.882-105.412s72.477-128,161.882-128&#10;&#9;&#9;c89.405,0,161.882,63.545,161.882,128c0,52.293-47.706,89.119-113.454,101.154"/>
	
		<line style="fill:none;stroke:#000000;stroke-width:15;stroke-linecap:round;stroke-linejoin:round;stroke-miterlimit:10;" x1="197.071" y1="253.382" x2="197.071" y2="265.382"/>
	
		<line style="fill:none;stroke:#000000;stroke-width:15;stroke-linecap:round;stroke-linejoin:round;stroke-miterlimit:10;" x1="321.968" y1="253.382" x2="321.968" y2="265.382"/>
	<path style="fill:none;stroke:#000000;stroke-width:15;stroke-linecap:round;stroke-miterlimit:10;" d="M259.702,272.537&#10;&#9;&#9;c0,7.983-6.472,14.455-14.456,14.455c-7.984,0-14.456-6.472-14.456-14.455"/>
	<path style="fill:none;stroke:#000000;stroke-width:15;stroke-linecap:round;stroke-miterlimit:10;" d="M288.613,272.537&#10;&#9;&#9;c0,7.983-6.472,14.455-14.456,14.455c-7.984,0-14.456-6.472-14.456-14.455"/>
	<path style="fill:none;stroke:#000000;stroke-width:15;stroke-linecap:round;stroke-linejoin:round;stroke-miterlimit:10;" d="&#10;&#9;&#9;M386.292,110.661h-0.01c-16.12-3.63-34.09-5.34-41.4-19.33c-6.7-12.8-19.36-14.76-25.28-6.82c-14.87,19.96-13.16,34.35-5.88,48.63&#10;&#9;&#9;c9.41,18.47,26.72,38.67,43.73,51.36c19.892,14.811,53.422,6.042,76.47-3.39"/>
	<path style="fill:none;stroke:#000000;stroke-width:15;stroke-linecap:round;stroke-linejoin:round;stroke-miterlimit:10;" d="&#10;&#9;&#9;M464.737,84.565c6.374,19.122,6.535,51.999,5.089,80.196c-0.892,17.395-28.321,26.539-39.472,13.158&#10;&#9;&#9;c-18.077-21.689-37.676-48.086-44.05-67.208c-7.222-21.665,6.943-52.603-8.049-71.907c-9.394-12.096-8.539-24.765,0.903-27.913&#10;&#9;&#9;c23.757-7.92,37.182-1.082,48.845,11.329C443.092,38.277,457.515,62.901,464.737,84.565z"/>
</g>















</svg>
