<svg id="Layer_1" enable-background="new 0 0 480.005 480.005" height="512" viewBox="0 0 480.005 480.005" width="512" xmlns="http://www.w3.org/2000/svg"><g fill="#a07765"><path d="m435.762 313.445c-2.07 208.93-314.38 154.33-333.67-10.27 96.276 78.839 230.737 85.864 333.67 10.27z"/><path d="m84.072 200.015c-.779 26.383-.95 52.805-.51 79.25-15.32 8.99-31.87 15.65-49.21 19.81-9.95 2.39-19.92-3.96-21.89-14-5.77-29.37-6.06-60.31-.02-91.1 1.98-10.07 11.93-16.47 21.91-14.08 17.53 4.2 34.26 10.97 49.72 20.12z"/><path d="m102.092 176.815c19.29-164.6 331.6-219.2 333.67-10.27-102.696-77.183-236.304-69.349-333.67 10.27z"/></g><path d="m469.312 252.985c-9.99 22.91-21.26 43.03-33.55 60.46-88.99 126.15-231.79 111.15-333.67-10.27-13.391-15.968-25.448-33.006-36.22-50.65-4.735-7.739-4.641-17.491 0-25.06 111.309-182.272 309.482-214.055 403.44-.46 3.69 8.55 3.52 17.89 0 25.98z" fill="#c79a83"/><path d="m226.142 392.145c-68.203-22.095-122.997-78.566-160.27-139.62-4.74-7.74-4.64-17.49 0-25.06 10.648-17.436 22.714-34.556 36.22-50.65 84.96-101.26 198.38-128.5 285.32-61.59-131.633-35.898-381.459 126.074-161.27 276.92z" fill="#e0b7a3"/><path d="m362.582 266.975c-.162 19.34-61.111 70.353-82.84 55.74-20.37-13.69-17.04-81.65 18.03-93.78 25.554-8.842 64.991 18.646 64.81 38.04z" fill="#e0b7a3"/><path d="m337.982 236.235c-37.857.531-48.523 60.146-35.57 86.45-9.01 3.21-17.12 3.76-22.67.03-20.37-13.69-17.04-81.65 18.03-93.78 12.2-4.22 27.53-.18 40.21 7.3z" fill="#f2c8b5"/><g><path d="m476.646 223.808c-9.679-22.196-20.712-42.178-32.935-59.822-4.699-215.422-326.13-162.252-349.248 9.5-4.292 5.18-8.504 10.538-12.631 16.068-14.359-7.759-29.67-13.617-45.616-17.44-14.408-3.457-28.764 5.76-31.622 20.318-6.131 31.229-6.125 62.915.018 94.179 2.863 14.575 17.281 23.679 31.606 20.242 5.749-1.379 11.495-3.046 17.079-4.954 4.181-1.43 6.411-5.978 4.982-10.158s-5.977-6.41-10.158-4.982c-5.112 1.748-10.372 3.273-15.634 4.536-5.545 1.33-11.08-2.195-12.175-7.768-5.741-29.218-5.747-58.829-.018-88.013 1.098-5.59 6.608-9.181 12.19-7.842 13.929 3.34 27.326 8.38 39.941 15.004-4.582 6.653-9.049 13.523-13.382 20.618-6.29 10.301-6.29 23.098 0 33.398 99.218 162.467 261.86 203.838 366.564 82.728-23.309 145.207-231.011 121.367-296.521 16.459-2.339-3.747-7.274-4.887-11.023-2.549-3.748 2.341-4.889 7.275-2.548 11.023 77.436 124.005 324.14 139.346 328.18-48.33 12.229-17.649 23.268-37.638 32.95-59.844 4.503-10.322 4.456-22.156.001-32.371zm-51.071-83.278c-87.887-101.618-214.133-86.859-308.627 8.146 45.778-125.703 283.154-163.796 308.627-8.146zm36.405 109.257c-88.05 201.923-277.105 180.734-388.415-.034 101.75 23.318 113.788-53.369 183.453-29.575 4.182 1.429 8.728-.803 10.156-4.984 1.428-4.182-.804-8.729-4.985-10.156-80.773-27.586-89.555 53.667-190.174 27.862.211-.429.434-.853.685-1.264 110.63-181.157 297.596-202.78 386.679-7.256-14.24 3.217-26.36 13.014-32.461 26.958-1.771 4.048.075 8.766 4.123 10.536 4.029 1.765 8.758-.059 10.536-4.122 4.178-9.549 12.599-16.131 22.435-17.983.029 3.415-.645 6.836-2.032 10.018z"/><path d="m365.603 281.581c3.083-5.152 4.936-10.115 4.975-14.535.068-7.6-3.923-15.973-11.057-23.758-.338-14.473 1.226-28.828 5.048-42.434 1.195-4.254-1.284-8.671-5.538-9.866-4.251-1.194-8.67 1.284-9.866 5.538-3.009 10.707-4.815 22.064-5.434 33.854-13.665-8.478-32.367-14.613-48.574-9.006-41.23 14.258-45.843 90.527-19.881 107.98 21.529 14.478 60.704-14.021 78.63-32.845 4.163 10.439 9.549 20.237 16.101 29.253 2.606 3.586 7.612 4.358 11.175 1.769 3.574-2.598 4.366-7.601 1.769-11.175-7.607-10.468-13.418-22.159-17.348-34.775zm-81.399 34.496c-15.271-10.268-12.146-69.785 16.184-79.582 20.785-7.186 54.311 17.094 54.192 30.408-.123 13.654-55.134 59.419-70.376 49.174z"/><circle cx="403.28" cy="219.598" r="8"/><circle cx="403.28" cy="260.392" r="8"/></g></svg>