<svg height="512" viewBox="0 0 58 49" width="512" xmlns="http://www.w3.org/2000/svg"><g id="Page-1" fill="none" fill-rule="evenodd"><g id="006---Syrup-on-Spoon"><path id="Path" d="m44.97 9.18c.3749365.5147419.9731827.81943875 1.61.82h10.42c.5522847 0 1 .4477153 1 1v6c0 .5522847-.4477153 1-1 1h-8.91c-.676441.0052522-1.3060552.3462932-1.68.91-3.47 5.26-8.3 9.97-14.41 12.39l-20-.83c-7.15-3.48-12-10.03-12-16.47-.0055093-.9649697.11552212-1.9264972.36-2.86z" fill="#95a5a5"/><path id="Path" d="m44.97 9.18c-.4 5.44-5.1 11.5-11.88 14.79-.6748744.3400709-1.0976322 1.0343245-1.09 1.79v16.24c.0024121 2.1370175-1.6753933 3.898493-3.81 4-1.120226.0065861-2.1958994-.4382614-2.9842605-1.2341486s-1.2229686-1.8757386-1.2057395-2.9958514v-4.77c-.0005341-.8335376-.347835-1.6292764-.9586461-2.1964581-.610811-.5671816-1.4300605-.8546682-2.2613539-.7935419-1.606686.1715475-2.8145822 1.5445519-2.78 3.16v.83c-.0005341.8335376-.347835 1.6292764-.9586461 2.1964581-.610811.5671816-1.4300605.8546682-2.2613539.7935419-1.606686-.1715475-2.8145822-1.5445519-2.78-3.16v-12.59c-.0088756-.7484826-.4273498-1.4318625-1.09-1.78-5.46-2.96-9.4-7.71-10.55-12.32 1.88-7.47 11.3-11.14 22.64-11.14 10.16 0 18.78 2.95 21.82 8.93.0402765.08879463.0906054.17267622.15.25z" fill="#f0c419"/><path id="Path" d="m6.02 10.02c-.40027262-.0007588-.76152976-.24012967-.91825886-.60844304-.15672909-.36831337-.07873101-.79460133.19825886-1.08355696 1.51597199-1.48958357 3.33917648-2.62985429 5.342-3.341.5152817-.19882251 1.0941775.05771833 1.293.573s-.0577183 1.09417749-.573 1.293c-1.72870138.60692254-3.30477155 1.58245505-4.619 2.859-.18886982.19703018-.45006666.3083008-.723.308z" fill="#f3d55b"/><path id="Path" d="m40 10c-.274074.0000654-.536163-.11236173-.725-.311-2.796-2.936-8.875-4.689-16.275-4.689-1.9587563-.0079514-3.9155243.12573045-5.855.4-.5467619.08008129-1.0549187-.2982381-1.135-.845s.2982381-1.05491871.845-1.135c2.0356444-.28686112 4.0892555-.42722184 6.145-.42 8.05 0 14.511 1.936 17.725 5.311.2755361.28983726.3518996.71596195.1941584 1.08344456s-.5192512.60565094-.9191584.60555544z" fill="#f3d55b"/><circle id="Oval" cx="15" cy="47" fill="#f29c1f" r="2"/></g></g></svg>