<?xml version="1.0" encoding="UTF-8"?>
<svg xmlns="http://www.w3.org/2000/svg" xmlns:xlink="http://www.w3.org/1999/xlink" version="1.1" id="Capa_1" x="0px" y="0px" viewBox="0 0 512 512" style="enable-background:new 0 0 512 512;" xml:space="preserve" width="512" height="512">
<g>
	<g>
		<path style="fill:#F2FBFF;" d="M460.022,177.542H251.013c-24.564,0-44.478,19.913-44.478,44.478v149.49h96.391&#10;&#9;&#9;&#9;c1.101,0,2.167,0.458,2.924,1.257c0.749,0.789,1.13,1.815,1.074,2.89c-2.046,38.864-27.074,72.453-63.761,85.573l-0.663,0.237&#10;&#9;&#9;&#9;v38.758c2.756,0.534,5.6,0.823,8.513,0.823h209.009c24.564,0,44.478-19.913,44.478-44.478V222.019&#10;&#9;&#9;&#9;C504.5,197.455,484.587,177.542,460.022,177.542z"/>
		<path style="fill:#DFF6FD;" d="M460.022,177.542h-41.535c24.564,0,44.478,19.913,44.478,44.478v212.606H504.5V222.019&#10;&#9;&#9;&#9;C504.5,197.455,484.587,177.542,460.022,177.542z"/>
		<path style="fill:#FD6930;" d="M206.536,238.576v132.933h96.391c1.101,0,2.167,0.458,2.924,1.257&#10;&#9;&#9;&#9;c0.749,0.789,1.13,1.815,1.074,2.89c-2.046,38.864-27.074,72.453-63.761,85.573l-0.663,0.237v39.581h232c16.569,0,30-13.431,30-30&#10;&#9;&#9;&#9;v-232.47H206.536z"/>
		<rect x="462.965" y="238.576" style="fill:#FD5426;" width="41.535" height="196.05"/>
		<path style="fill:#DFF6FD;" d="M451.364,177.542H259.672v-46.487c0-4.418,3.582-8,8-8h175.692c4.418,0,8,3.582,8,8V177.542z"/>
		<path style="fill:#C8EFFE;" d="M443.364,123.054H412c4.418,0,8,3.582,8,8v46.487h31.364v-46.487&#10;&#9;&#9;&#9;C451.364,126.636,447.782,123.054,443.364,123.054z"/>
		<path style="fill:none;stroke:#000000;stroke-width:15;stroke-linecap:round;stroke-linejoin:round;stroke-miterlimit:10;" d="&#10;&#9;&#9;&#9;M451.364,177.542H259.672v-46.487c0-4.418,3.582-8,8-8h175.692c4.418,0,8,3.582,8,8V177.542z"/>
		<path style="fill:none;stroke:#000000;stroke-width:15;stroke-linecap:round;stroke-linejoin:round;stroke-miterlimit:10;" d="&#10;&#9;&#9;&#9;M383.837,238.576V21.237c0-5.679-4.604-10.283-10.283-10.283h-26.86c-5.389,0-9.757,4.368-9.757,9.757v-0.606"/>
		<path style="fill:#CBC4CC;" d="M380.406,20.105c0,39.8-32.264,72.065-72.065,72.065c-26.775,0-50.131-14.607-62.554-36.283&#10;&#9;&#9;&#9;c-2.546-4.443-7.272-7.184-12.392-7.184H21.799C13.902,48.702,7.5,42.3,7.5,34.404v0c0-7.897,6.402-14.299,14.299-14.299H380.406z&#10;&#9;&#9;&#9;"/>
		<path style="fill:#B5ADB6;" d="M349,20.105c0,34.412-24.127,63.172-56.383,70.333c5.062,1.127,10.322,1.731,15.724,1.731&#10;&#9;&#9;&#9;c39.8,0,72.065-32.264,72.065-72.065H349z"/>
		<path style="fill:none;stroke:#000000;stroke-width:15;stroke-linecap:round;stroke-linejoin:round;stroke-miterlimit:10;" d="&#10;&#9;&#9;&#9;M70.553,20.105H21.799c-7.897,0-14.299,6.402-14.299,14.299s6.402,14.299,14.299,14.299h211.596c5.121,0,9.846,2.742,12.392,7.184&#10;&#9;&#9;&#9;c12.423,21.676,35.779,36.283,62.554,36.283c39.8,0,72.065-32.264,72.065-72.065H105.553"/>
		<path style="fill:none;stroke:#000000;stroke-width:15;stroke-linecap:round;stroke-linejoin:round;stroke-miterlimit:10;" d="&#10;&#9;&#9;&#9;M504.5,456.568V222.019c0-24.564-19.913-44.478-44.478-44.478H251.013c-24.564,0-44.478,19.913-44.478,44.478v149.49"/>
		<path style="fill:#EF4424;" d="M282.687,434.626c-10.503,11.775-23.958,21.036-39.523,26.603l-0.663,0.237v39.581h232&#10;&#9;&#9;&#9;c16.569,0,30-13.431,30-30v-36.42H282.687z"/>
		<path style="fill:#D73D24;" d="M463,434.626v36.42c0,16.569-13.431,30-30,30h41.5c16.569,0,30-13.431,30-30v-36.42H463z"/>
		<path style="fill:none;stroke:#000000;stroke-width:15;stroke-linecap:round;stroke-linejoin:round;stroke-miterlimit:10;" d="&#10;&#9;&#9;&#9;M243.501,501.046H474.5c16.569,0,30-13.431,30-30v-36.42H283.945"/>
		<rect x="206.535" y="238.576" style="fill:#FE7D43;" width="297.965" height="35.433"/>
		<rect x="462.965" y="238.576" style="fill:#FD6930;" width="41.535" height="35.433"/>
		
			<polyline style="fill:none;stroke:#000000;stroke-width:15;stroke-linecap:round;stroke-linejoin:round;stroke-miterlimit:10;" points="&#10;&#9;&#9;&#9;277,238.576 206.536,238.576 206.536,274.01 504.5,274.01 504.5,238.576 312,238.576 &#9;&#9;"/>
		
			<line style="fill:none;stroke:#000000;stroke-width:15;stroke-linecap:round;stroke-linejoin:round;stroke-miterlimit:10;" x1="254.68" y1="149.622" x2="456.356" y2="149.622"/>
		
			<line style="fill:none;stroke:#000000;stroke-width:15;stroke-linecap:round;stroke-linejoin:round;stroke-miterlimit:10;" x1="443.97" y1="323.523" x2="453.632" y2="323.523"/>
		
			<line style="fill:none;stroke:#000000;stroke-width:15;stroke-linecap:round;stroke-linejoin:round;stroke-miterlimit:10;" x1="407.137" y1="366.998" x2="416.799" y2="366.998"/>
		
			<line style="fill:none;stroke:#000000;stroke-width:15;stroke-linecap:round;stroke-linejoin:round;stroke-miterlimit:10;" x1="291.204" y1="333.184" x2="300.865" y2="333.184"/>
		
			<line style="fill:none;stroke:#000000;stroke-width:15;stroke-linecap:round;stroke-linejoin:round;stroke-miterlimit:10;" x1="316.564" y1="463.609" x2="326.225" y2="463.609"/>
		
			<line style="fill:none;stroke:#000000;stroke-width:15;stroke-linecap:round;stroke-linejoin:round;stroke-miterlimit:10;" x1="392.646" y1="463.609" x2="402.307" y2="463.609"/>
		
			<line style="fill:none;stroke:#000000;stroke-width:15;stroke-linecap:round;stroke-linejoin:round;stroke-miterlimit:10;" x1="463.897" y1="463.609" x2="473.558" y2="463.609"/>
		
			<line style="fill:none;stroke:#000000;stroke-width:15;stroke-linecap:round;stroke-linejoin:round;stroke-miterlimit:10;" x1="357.02" y1="475.082" x2="360.643" y2="471.459"/>
		
			<line style="fill:none;stroke:#000000;stroke-width:15;stroke-linecap:round;stroke-linejoin:round;stroke-miterlimit:10;" x1="430.479" y1="475.082" x2="434.102" y2="471.459"/>
		
			<line style="fill:none;stroke:#000000;stroke-width:15;stroke-linecap:round;stroke-linejoin:round;stroke-miterlimit:10;" x1="375.739" y1="325.938" x2="375.739" y2="325.938"/>
		
			<line style="fill:none;stroke:#000000;stroke-width:15;stroke-linecap:round;stroke-linejoin:round;stroke-miterlimit:10;" x1="463.897" y1="393.566" x2="463.897" y2="393.566"/>
		
			<line style="fill:none;stroke:#000000;stroke-width:15;stroke-linecap:round;stroke-linejoin:round;stroke-miterlimit:10;" x1="363.662" y1="393.566" x2="363.662" y2="393.566"/>
	</g>
	<g>
		<path style="fill:#DFF6FD;" d="M302.926,370.509H54.957c-2.839,0-5.146,2.364-4.997,5.199&#10;&#9;&#9;&#9;c2.105,39.984,28.348,73.561,64.422,86.461v33.876c0,2.761,2.239,5,5,5h124.118V462.17c36.075-12.901,62.317-46.477,64.422-86.461&#10;&#9;&#9;&#9;C308.072,372.873,305.766,370.509,302.926,370.509z"/>
		<path style="fill:#C8EFFE;" d="M302.926,370.509h-35.93c2.839,0,5.146,2.364,4.997,5.199&#10;&#9;&#9;&#9;c-2.105,39.984-28.348,73.561-64.422,86.461h35.93c36.075-12.901,62.317-46.477,64.422-86.461&#10;&#9;&#9;&#9;C308.072,372.873,305.766,370.509,302.926,370.509z"/>
		<path style="fill:#C8EFFE;" d="M114.383,462.17v33.876c0,2.761,2.239,5,5,5h124.118V462.17H114.383z"/>
		<rect x="207.571" y="462.17" style="fill:#99E6FC;" width="35.93" height="38.876"/>
		<path style="fill:none;stroke:#000000;stroke-width:15;stroke-linecap:round;stroke-linejoin:round;stroke-miterlimit:10;" d="&#10;&#9;&#9;&#9;M302.926,370.509H54.957c-2.839,0-5.146,2.364-4.997,5.199c2.105,39.984,28.348,73.561,64.422,86.461v33.876c0,2.761,2.239,5,5,5&#10;&#9;&#9;&#9;h124.118V462.17c36.075-12.901,62.317-46.477,64.422-86.461C308.072,372.873,305.766,370.509,302.926,370.509z"/>
		
			<line style="fill:none;stroke:#000000;stroke-width:15;stroke-linecap:round;stroke-linejoin:round;stroke-miterlimit:10;" x1="243.501" y1="462.17" x2="181" y2="462.17"/>
		
			<line style="fill:none;stroke:#000000;stroke-width:15;stroke-linecap:round;stroke-linejoin:round;stroke-miterlimit:10;" x1="146" y1="462.17" x2="114.383" y2="462.17"/>
	</g>
	<path style="fill:#FD6930;" d="M86.053,370.509v8.869c0,10.671,8.651,19.322,19.322,19.322h0c1.587,0,3.127-0.192,4.601-0.554&#10;&#9;&#9;c5.05-1.24,9.891,2.724,9.891,7.924l0,6.914c0,10.671,8.651,19.322,19.322,19.322h0c10.671,0,19.322-8.651,19.322-19.322v-42.475&#10;&#9;&#9;H86.053z"/>
	<path style="fill:#FD5426;" d="M138,370.509v42.475c0,6.899-3.627,12.936-9.067,16.355c2.975,1.869,6.483,2.967,10.256,2.967h0&#10;&#9;&#9;c10.671,0,19.322-8.651,19.322-19.322v-42.475H138z"/>
	<path style="fill:none;stroke:#000000;stroke-width:15;stroke-linecap:round;stroke-linejoin:round;stroke-miterlimit:10;" d="&#10;&#9;&#9;M86.053,370.509v8.869c0,10.671,8.651,19.322,19.322,19.322h0c1.587,0,3.127-0.192,4.601-0.554c5.05-1.24,9.891,2.724,9.891,7.924&#10;&#9;&#9;l0,6.914c0,10.671,8.651,19.322,19.322,19.322h0c10.671,0,19.322-8.651,19.322-19.322v-42.475H86.053z"/>
</g>















</svg>
