<?xml version="1.0" encoding="UTF-8"?>
<svg xmlns="http://www.w3.org/2000/svg" xmlns:xlink="http://www.w3.org/1999/xlink" version="1.1" id="Capa_1" x="0px" y="0px" viewBox="0 0 512 512" style="enable-background:new 0 0 512 512;" xml:space="preserve" width="512" height="512">
<g>
	<path style="fill:#FF9A42;" d="M256,7.5c-8.284,0-15,6.716-15,15v30h30v-30C271,14.216,264.284,7.5,256,7.5z"/>
	<path style="fill:#DB2116;" d="M457.662,215.798C458.997,196.75,467,177.457,467,157.5c0-74.558-60.441-135-135-135&#10;&#9;&#9;c-0.455,0-0.904,0.021-1.357,0.026L317,504.5c17.981,0,37.594-1.112,53.507-15.333c12.665-11.319,18.96-31.52,29.687-50.339&#10;&#9;&#9;c8.818-15.472,23.461-29.989,30.626-49.708c6.272-17.262,4.876-38.258,9.658-58.241c4.354-18.197,15.216-35.934,18.17-55.992&#10;&#9;&#9;C461.407,256.152,456.256,235.84,457.662,215.798z"/>
	<path style="fill:#FF3A2F;" d="M429.529,215.798C430.598,196.75,437,177.457,437,157.5c0-73.872-47.469-133.875-106.357-134.974&#10;&#9;&#9;L332,22.5c-18.678,0-36.468,3.795-52.644,10.654c-14.926,6.329-31.785,6.329-46.711,0C216.468,26.295,198.678,22.5,180,22.5&#10;&#9;&#9;c-74.558,0-135,60.442-135,135c0,19.957,8.003,39.25,9.338,58.298c1.405,20.042-3.746,40.354-0.986,59.089&#10;&#9;&#9;c2.954,20.058,13.815,37.795,18.17,55.992c4.782,19.983,3.386,40.979,9.658,58.241c7.165,19.719,21.807,34.236,30.626,49.708&#10;&#9;&#9;c10.726,18.819,17.021,39.021,29.687,50.339C157.406,503.388,177.019,504.5,195,504.5c10.451,0,20.652-2.476,30.5-7.182&#10;&#9;&#9;c9.848,4.706,20.049,7.182,30.5,7.182s20.652-2.476,30.5-7.182c9.848,4.706,20.049,7.182,30.5,7.182&#10;&#9;&#9;c14.385,0,30.075-1.112,42.806-15.333c10.132-11.319,15.168-31.52,23.749-50.339c7.055-15.472,18.769-29.989,24.501-49.708&#10;&#9;&#9;c5.018-17.262,3.901-38.258,7.727-58.241c3.484-18.197,12.173-35.934,14.536-55.992&#10;&#9;&#9;C432.526,256.152,428.405,235.84,429.529,215.798z"/>
	<path style="fill:none;stroke:#000000;stroke-width:15;stroke-linecap:round;stroke-linejoin:round;stroke-miterlimit:10;" d="&#10;&#9;&#9;M211,26.083c-9.954-2.34-20.331-3.583-31-3.583c-74.558,0-135,60.442-135,135c0,19.957,8.003,39.25,9.338,58.298&#10;&#9;&#9;c1.405,20.042-3.746,40.354-0.986,59.089c2.954,20.058,13.815,37.795,18.17,55.992c4.782,19.983,3.386,40.979,9.658,58.241&#10;&#9;&#9;c7.165,19.719,21.807,34.236,30.626,49.708c10.726,18.819,17.021,39.021,29.687,50.339C157.406,503.388,177.019,504.5,195,504.5&#10;&#9;&#9;c10.451,0,20.652-2.476,30.5-7.182c9.848,4.706,20.049,7.182,30.5,7.182s20.652-2.476,30.5-7.182&#10;&#9;&#9;c9.848,4.706,20.049,7.182,30.5,7.182c17.981,0,37.594-1.112,53.507-15.333c12.665-11.319,18.96-31.52,29.687-50.339&#10;&#9;&#9;c8.818-15.472,23.461-29.989,30.626-49.708c6.272-17.262,4.876-38.258,9.658-58.241c4.354-18.197,15.216-35.934,18.17-55.992&#10;&#9;&#9;c2.76-18.735-2.392-39.047-0.986-59.089C458.997,196.75,467,177.457,467,157.5c0-74.558-60.441-135-135-135&#10;&#9;&#9;c-18.678,0-36.468,3.795-52.644,10.654c-12.198,5.172-25.686,6.112-38.356,2.831V22.5c0-8.284,6.716-15,15-15&#10;&#9;&#9;c8.284,0,15,6.716,15,15v13.485"/>
	<path style="fill:none;stroke:#000000;stroke-width:15;stroke-linecap:round;stroke-linejoin:round;stroke-miterlimit:10;" d="&#10;&#9;&#9;M328.097,438.827c4.409-15.472,11.731-29.989,15.313-49.708c3.136-17.262,2.438-38.258,4.829-58.241&#10;&#9;&#9;c2.177-18.197,7.608-35.934,9.085-55.992c1.38-18.735-1.196-39.047-0.493-59.089c0.668-19.047,4.669-38.34,4.669-58.298"/>
	
		<line style="fill:none;stroke:#000000;stroke-width:15;stroke-linecap:round;stroke-linejoin:round;stroke-miterlimit:10;" x1="256" y1="438.827" x2="256" y2="157.5"/>
	<path style="fill:none;stroke:#000000;stroke-width:15;stroke-linecap:round;stroke-linejoin:round;stroke-miterlimit:10;" d="&#10;&#9;&#9;M183.903,438.827c-4.409-15.472-11.731-29.989-15.313-49.708c-3.136-17.262-2.438-38.258-4.829-58.241&#10;&#9;&#9;c-2.177-18.197-7.608-35.934-9.085-55.992c-1.38-18.735,1.196-39.047,0.493-59.089c-0.668-19.047-4.669-38.34-4.669-58.298"/>
</g>















</svg>
