<?xml version="1.0" encoding="UTF-8" standalone="no"?>
<!-- Created with Inkscape (http://www.inkscape.org/) -->

<svg
   version="1.1"
   id="svg6666"
   xml:space="preserve"
   width="682.66669"
   height="682.66669"
   viewBox="0 0 682.66669 682.66669"
   xmlns="http://www.w3.org/2000/svg"
   xmlns:svg="http://www.w3.org/2000/svg"><defs
     id="defs6670"><clipPath
       clipPathUnits="userSpaceOnUse"
       id="clipPath6680"><path
         d="M 0,512 H 512 V 0 H 0 Z"
         id="path6678" /></clipPath></defs><g
     id="g6672"
     transform="matrix(1.3333333,0,0,-1.3333333,0,682.66667)"><g
       id="g6674"><g
         id="g6676"
         clip-path="url(#clipPath6680)"><g
           id="g6682"
           transform="translate(226.0732,450.7773)"><path
             d="m 0,0 c 0,0 -26.072,67.966 -112.152,16.896 -1.266,-0.752 -1.608,-2.435 -0.725,-3.614 C -103.575,0.865 -54.885,-57.513 0,0"
             style="fill:#80d261;fill-opacity:1;fill-rule:nonzero;stroke:none"
             id="path6684" /></g><g
           id="g6686"
           transform="translate(156.105,485.0508)"><path
             d="M 0,0 C 29.517,-7.027 40.075,-28.774 40.075,-28.774 28.094,-41.329 16.303,-53.859 5.258,-57.053 c 18.667,-5.252 41.117,-1.944 64.71,22.78 0,0 -17.24,44.942 -69.968,34.273"
             style="fill:#68ca44;fill-opacity:1;fill-rule:nonzero;stroke:none"
             id="path6688" /></g><g
           id="g6690"
           transform="translate(317.7192,408.0732)"><path
             d="m 0,0 c 0,0 62.51,76.155 151.251,-26.196 1.307,-1.506 1.026,-3.813 -0.611,-4.95 C 133.391,-43.121 45.928,-97.301 0,0"
             style="fill:#80d261;fill-opacity:1;fill-rule:nonzero;stroke:none"
             id="path6692" /></g><g
           id="g6694"
           transform="translate(468.9707,381.877)"><path
             d="M 0,0 C -43.221,49.85 -80.22,57.355 -106.805,51.939 -84.785,47.604 -58.771,33.184 -30,0 c 1.306,-1.506 1.026,-3.813 -0.612,-4.949 -7.971,-5.535 -30.942,-20.084 -57.877,-24.529 38.532,-7.15 77.047,17.009 87.877,24.529 C 1.026,-3.813 1.306,-1.506 0,0"
             style="fill:#68ca44;fill-opacity:1;fill-rule:nonzero;stroke:none"
             id="path6696" /></g><g
           id="g6698"
           transform="translate(192.2183,272.0273)"><path
             d="m 0,0 c 0,0 -51.063,106.089 -183.026,12.322 -1.942,-1.381 -2.268,-4.136 -0.688,-5.92 C -167.07,-12.377 -80.823,-100.003 0,0"
             style="fill:#80d261;fill-opacity:1;fill-rule:nonzero;stroke:none"
             id="path6700" /></g><g
           id="g6702"
           transform="translate(93.2686,321.9551)"><path
             d="M 0,0 C 48.489,-7.419 69.27,-44.93 69.27,-44.93 46.164,-73.519 22.295,-91.771 0.056,-95.684 c 30.241,-5.097 65.043,3.873 98.894,45.756 0,0 -28.776,59.784 -98.95,49.928"
             style="fill:#68ca44;fill-opacity:1;fill-rule:nonzero;stroke:none"
             id="path6704" /></g><g
           id="g6706"
           transform="translate(324.5288,147.3154)"><path
             d="m 0,0 c 0,0 30.678,113.672 177.636,45.777 2.163,-0.999 2.991,-3.648 1.766,-5.692 C 166.496,18.565 97.838,-83.43 0,0"
             style="fill:#80d261;fill-opacity:1;fill-rule:nonzero;stroke:none"
             id="path6708" /></g><g
           id="g6710"
           transform="translate(502.165,193.0928)"><path
             d="M 0,0 C -41.47,19.159 -73.68,23.86 -98.555,20.736 -79.138,18.56 -56.453,12.222 -30,0 c 2.163,-0.999 2.991,-3.649 1.766,-5.692 -8.431,-14.057 -40.65,-62.452 -89.252,-71.073 C -52.244,-88.159 -8.296,-22.47 1.766,-5.692 2.991,-3.649 2.163,-0.999 0,0"
             style="fill:#68ca44;fill-opacity:1;fill-rule:nonzero;stroke:none"
             id="path6712" /></g><g
           id="g6714"
           transform="translate(334.8501,7.5)"><path
             d="m 0,0 h -173.73 c 47.16,25.674 109.3,82.307 71.58,194.479 -45.47,135.246 15.52,257.419 42.94,302.521 h 30.86 C -42.83,455.552 -69.5,348.894 -17.9,225.329 29.32,112.254 20.84,42.899 0,0"
             style="fill:#97da7b;fill-opacity:1;fill-rule:nonzero;stroke:none"
             id="path6716" /></g><g
           id="g6718"
           transform="translate(316.9502,232.8281)"><path
             d="M 0,0 C -51.6,123.564 -24.93,230.224 -10.45,271.672 H -31.201 C -45.681,230.224 -81.6,123.564 -30,0 17.22,-113.074 8.74,-182.429 -12.1,-225.328 h 30 C 38.74,-182.429 47.22,-113.074 0,0"
             style="fill:#80d261;fill-opacity:1;fill-rule:nonzero;stroke:none"
             id="path6720" /></g><g
           id="g6722"
           transform="translate(154.9048,430.1982)"><path
             d="m 0,0 c 19.833,-7.935 44.785,-7.067 71.168,20.579 0,0 -26.072,67.966 -112.151,16.896 -1.267,-0.752 -1.608,-2.435 -0.725,-3.614 2.13,-2.843 6.328,-8.099 12.192,-13.822"
             style="fill:none;stroke:#000000;stroke-width:15;stroke-linecap:round;stroke-linejoin:round;stroke-miterlimit:10;stroke-dasharray:none;stroke-opacity:1"
             id="path6724" /></g><g
           id="g6726"
           transform="translate(157.2803,465.2773)"><path
             d="M 0,0 C 0,0 45.958,5.67 85.563,-25.485"
             style="fill:none;stroke:#000000;stroke-width:15;stroke-linecap:round;stroke-linejoin:round;stroke-miterlimit:10;stroke-dasharray:none;stroke-opacity:1"
             id="path6728" /></g><g
           id="g6730"
           transform="translate(317.7192,408.0732)"><path
             d="m 0,0 c 0,0 62.51,76.155 151.251,-26.196 1.307,-1.506 1.026,-3.813 -0.611,-4.95 C 133.391,-43.121 45.928,-97.301 0,0 Z"
             style="fill:none;stroke:#000000;stroke-width:15;stroke-linecap:round;stroke-linejoin:round;stroke-miterlimit:10;stroke-dasharray:none;stroke-opacity:1"
             id="path6732" /></g><g
           id="g6734"
           transform="translate(412.2622,397.3174)"><path
             d="M 0,0 C 0,0 -58.381,27.754 -123.779,2.692"
             style="fill:none;stroke:#000000;stroke-width:15;stroke-linecap:round;stroke-linejoin:round;stroke-miterlimit:10;stroke-dasharray:none;stroke-opacity:1"
             id="path6736" /></g><g
           id="g6738"
           transform="translate(192.2183,272.0273)"><path
             d="m 0,0 c 0,0 -51.063,106.089 -183.026,12.322 -1.942,-1.381 -2.268,-4.136 -0.688,-5.92 C -167.07,-12.377 -80.823,-100.003 0,0 Z"
             style="fill:none;stroke:#000000;stroke-width:15;stroke-linecap:round;stroke-linejoin:round;stroke-miterlimit:10;stroke-dasharray:none;stroke-opacity:1"
             id="path6740" /></g><g
           id="g6742"
           transform="translate(79.4014,286.2529)"><path
             d="M 0,0 C 0,0 72.233,15.022 139.782,-28.704"
             style="fill:none;stroke:#000000;stroke-width:15;stroke-linecap:round;stroke-linejoin:round;stroke-miterlimit:10;stroke-dasharray:none;stroke-opacity:1"
             id="path6744" /></g><g
           id="g6746"
           transform="translate(484.0767,200.7783)"><path
             d="m 0,0 c 5.824,-2.25 11.852,-4.804 18.088,-7.686 2.163,-0.999 2.992,-3.648 1.766,-5.692 -11.782,-19.646 -70.033,-106.367 -154.532,-57.833"
             style="fill:none;stroke:#000000;stroke-width:15;stroke-linecap:round;stroke-linejoin:round;stroke-miterlimit:10;stroke-dasharray:none;stroke-opacity:1"
             id="path6748" /></g><g
           id="g6750"
           transform="translate(338.5288,175.1279)"><path
             d="M 0,0 C 16.25,22.81 49.192,49.334 111.458,36.011"
             style="fill:none;stroke:#000000;stroke-width:15;stroke-linecap:round;stroke-linejoin:round;stroke-miterlimit:10;stroke-dasharray:none;stroke-opacity:1"
             id="path6752" /></g><g
           id="g6754"
           transform="translate(432.8037,182.0498)"><path
             d="M 0,0 C 0,0 -42.966,0.862 -89.256,-23.36"
             style="fill:none;stroke:#000000;stroke-width:15;stroke-linecap:round;stroke-linejoin:round;stroke-miterlimit:10;stroke-dasharray:none;stroke-opacity:1"
             id="path6756" /></g><g
           id="g6758"
           transform="translate(244.3228,136.8203)"><path
             d="m 0,0 c 0.013,19.294 -3.476,40.932 -11.623,65.159 -45.47,135.245 15.52,257.419 42.94,302.521 h 30.86 c -14.48,-41.449 -41.15,-148.107 10.45,-271.671 47.22,-113.075 38.74,-182.43 17.9,-225.329 h -173.73 c 30.464,16.584 67.178,46.087 79.189,95.132"
             style="fill:none;stroke:#000000;stroke-width:15;stroke-linecap:round;stroke-linejoin:round;stroke-miterlimit:10;stroke-dasharray:none;stroke-opacity:1"
             id="path6760" /></g><g
           id="g6762"
           transform="translate(218.0669,336.3252)"><path
             d="M 0,0 C 0,0 20.035,-90.312 113.676,-145.079"
             style="fill:none;stroke:#000000;stroke-width:15;stroke-linecap:round;stroke-linejoin:round;stroke-miterlimit:10;stroke-dasharray:none;stroke-opacity:1"
             id="path6764" /></g><g
           id="g6766"
           transform="translate(235.709,417.8516)"><path
             d="M 0,0 C 0,0 3.789,-80.31 67.137,-145.599"
             style="fill:none;stroke:#000000;stroke-width:15;stroke-linecap:round;stroke-linejoin:round;stroke-miterlimit:10;stroke-dasharray:none;stroke-opacity:1"
             id="path6768" /></g><g
           id="g6770"
           transform="translate(226.6392,222.2607)"><path
             d="M 0,0 C 0,0 39.37,-102.689 123.184,-149.15"
             style="fill:none;stroke:#000000;stroke-width:15;stroke-linecap:round;stroke-linejoin:round;stroke-miterlimit:10;stroke-dasharray:none;stroke-opacity:1"
             id="path6772" /></g><g
           id="g6774"
           transform="translate(229.73,70.6895)"><path
             d="M 0,0 C 0,0 24.58,-37.623 72.791,-62.803"
             style="fill:none;stroke:#000000;stroke-width:15;stroke-linecap:round;stroke-linejoin:round;stroke-miterlimit:10;stroke-dasharray:none;stroke-opacity:1"
             id="path6776" /></g><g
           id="g6778"
           transform="translate(263.0322,480.1836)"><path
             d="M 0,0 C 0,0 4.029,-24.344 24.122,-62.332"
             style="fill:none;stroke:#000000;stroke-width:15;stroke-linecap:round;stroke-linejoin:round;stroke-miterlimit:10;stroke-dasharray:none;stroke-opacity:1"
             id="path6780" /></g></g></g></g></svg>
