<?xml version="1.0" encoding="iso-8859-1"?>
<!-- Generator: Adobe Illustrator 19.0.0, SVG Export Plug-In . SVG Version: 6.00 Build 0)  -->
<svg version="1.1" id="Capa_1" xmlns="http://www.w3.org/2000/svg" xmlns:xlink="http://www.w3.org/1999/xlink" x="0px" y="0px"
	 viewBox="0 0 512 512" style="enable-background:new 0 0 512 512;" xml:space="preserve">
<path style="fill:#FFF0CE;" d="M347.516,138.755c9.457,2.06,15.453,11.384,13.403,20.83c-2.06,9.457-11.383,15.453-20.83,13.403
	c-0.34-0.072-0.67-0.175-0.999-0.268l-11.626,51.876l-31.547-8.759l10.96-50.122c-0.34-0.052-0.68-0.093-1.02-0.165
	c-9.447-2.05-15.453-11.373-13.392-20.83c2.05-9.447,11.373-15.453,20.83-13.392c9.107,1.978,14.989,10.714,13.567,19.81
	l0.093,0.021C329.437,142.289,338.41,136.777,347.516,138.755z"/>
<path style="fill:#FFE3AD;" d="M314.894,215.837l10.959-50.123c-0.34-0.052-0.68-0.093-1.02-0.165
	c-9.447-2.05-15.453-11.373-13.392-20.83c1.022-4.711,3.855-8.565,7.61-10.991c-1.715-1.106-3.644-1.942-5.757-2.401
	c-9.457-2.06-18.78,3.946-20.83,13.392c-2.06,9.457,3.946,18.78,13.392,20.83c0.34,0.072,0.68,0.113,1.02,0.165l-10.959,50.123
	l31.547,8.759l1.112-4.96L314.894,215.837z"/>
<path style="fill:#FFF0CE;" d="M258.004,66.818c3.729,3.729,6.037,8.88,6.037,14.567c0,11.384-9.22,20.604-20.604,20.604h-27.815
	v43.577c5.584,3.688,9.272,10.013,9.272,17.204c0,11.384-9.22,20.604-20.604,20.604h-28.845v124.652h-33.996V183.372h-54.6
	c-11.383,0-20.604-9.22-20.604-20.604c0-11.383,9.22-20.604,20.604-20.604h94.777v-40.177h-5.151
	c-5.687,0-10.838-2.308-14.567-6.037c-3.729-3.729-6.037-8.88-6.037-14.567c0-11.383,9.22-20.604,20.604-20.604h66.962
	C249.124,60.781,254.275,63.088,258.004,66.818z"/>
<path style="fill:#FCB630;" d="M342.571,247.017l-1.669-19.821c-0.33-3.997-3.235-7.294-7.149-8.149l-41.248-8.952
	c-3.915-0.855-7.922,0.948-9.879,4.44l-21.84,38.91c-3.915,6.974-5.728,14.423-5.759,21.727v13.674h88.122
	C343.148,288.845,342.808,247.048,342.571,247.017z"/>
<path style="fill:#F58A1F;" d="M297.817,253.445l21.113-37.615l-26.425-5.735c-3.915-0.855-7.922,0.948-9.879,4.44l-21.84,38.91
	c-3.915,6.974-5.728,14.423-5.759,21.727v13.674h37.032v-13.674C292.09,267.868,293.903,260.419,297.817,253.445z"/>
<path style="fill:#E5E5E4;" d="M421.607,394.559v69.867c0,26.28-21.294,47.574-47.563,47.574H160.435
	c-26.28,0-47.574-21.294-47.574-47.574v-69.867H421.607z"/>
<path style="fill:#D2D8D7;" d="M236.38,464.426v-69.867H112.862v69.867c0,26.28,21.294,47.574,47.574,47.574h123.519
	C257.674,512,236.38,490.706,236.38,464.426z"/>
<g>
	<path style="fill:#C6C5C3;" d="M288.765,399.314v45.21h-43.268v-45.21h-24.724v47.176c0,12.568,10.188,22.757,22.757,22.757h47.203
		c12.568,0,22.757-10.189,22.757-22.757v-47.176H288.765z"/>
	<path style="fill:#C6C5C3;" d="M410.842,303.903H121.361c-10.817,0-20.604,4.378-27.681,11.466
		c-7.088,7.077-11.466,16.864-11.466,27.681v24.724c0,21.624,19.316,39.147,43.134,39.147h281.507
		c11.909,0,22.695-4.378,30.504-11.466c7.798-7.077,12.63-16.864,12.63-27.681V343.05
		C449.988,321.427,432.465,303.903,410.842,303.903z"/>
</g>
<path style="fill:#E5E5E4;" d="M449.988,343.05c0,10.817-4.378,20.604-11.466,27.681c-7.077,7.088-16.864,11.466-27.681,11.466
	H121.361c-21.623,0-39.147-17.523-39.147-39.147c0-10.817,4.378-20.604,11.466-27.681c7.077-7.088,16.864-11.466,27.681-11.466
	h289.481C432.465,303.903,449.988,321.427,449.988,343.05z"/>
<path style="fill:#D2D8D7;" d="M188.894,343.05c0-10.817,4.378-20.604,11.466-27.681c7.077-7.088,16.864-11.466,27.681-11.466
	h-106.68c-10.817,0-20.604,4.378-27.681,11.466c-7.088,7.077-11.466,16.864-11.466,27.681c0,21.623,17.523,39.147,39.147,39.147
	h106.68C206.418,382.197,188.894,364.674,188.894,343.05z"/>
<path style="fill:#6CC8C8;" d="M410.842,348.201H121.361c-10.817,0-20.604,4.378-27.681,11.466
	c-1.697,1.695-3.234,3.549-4.598,5.531c7.057,10.266,18.877,16.999,32.279,16.999h289.481c10.817,0,20.604-4.378,27.681-11.466
	c1.697-1.695,3.234-3.549,4.598-5.531C436.063,354.935,424.242,348.201,410.842,348.201z"/>
<path style="fill:#FFC966;" d="M420.628,336.354c0,16.74-4.564,32.409-12.517,45.843H130.158c-0.021-0.515-0.041-1.03-0.041-1.545
	c0-25.322,20.521-45.843,45.843-45.843h55.135c0.391-23.014,9.395-43.917,23.931-59.637c1.442-1.566,2.946-3.08,4.512-4.543
	c0.494-0.464,0.989-0.917,1.494-1.37c0.577-0.525,1.174-1.051,1.772-1.545c0.515-0.453,1.04-0.886,1.566-1.308
	c0.453-0.371,0.917-0.742,1.38-1.102c0.185-0.155,0.381-0.309,0.587-0.453c0.453-0.361,0.917-0.711,1.391-1.051
	c0.01-0.01,0.031-0.031,0.052-0.031c0.556-0.422,1.123-0.824,1.69-1.226c0.021-0.021,0.041-0.031,0.072-0.052
	c0.505-0.35,1.01-0.701,1.525-1.04c0.494-0.34,0.999-0.67,1.514-0.999c0.381-0.247,0.773-0.494,1.164-0.731
	c0.319-0.206,0.639-0.402,0.958-0.587c2.153-1.308,4.368-2.514,6.634-3.626c0.381-0.206,0.773-0.391,1.174-0.577
	c1.298-0.628,2.617-1.216,3.956-1.772c0.67-0.278,1.339-0.556,2.019-0.814c0.701-0.278,1.411-0.546,2.132-0.804
	c0.422-0.155,0.855-0.309,1.288-0.453c0.299-0.103,0.597-0.206,0.896-0.309c0.33-0.103,0.659-0.216,0.999-0.319
	c0.474-0.155,0.948-0.299,1.422-0.443c0.598-0.175,1.195-0.35,1.793-0.515c0.577-0.165,1.164-0.319,1.741-0.464
	c0.103-0.031,0.216-0.062,0.319-0.082c0.433-0.113,0.865-0.216,1.308-0.319c0.464-0.113,0.937-0.227,1.401-0.319
	c0.237-0.052,0.484-0.103,0.721-0.155c0.515-0.113,1.04-0.216,1.566-0.309c0.268-0.062,0.536-0.113,0.804-0.155
	c0.34-0.072,0.69-0.134,1.04-0.185c0.536-0.093,1.082-0.185,1.628-0.268c0.072-0.01,0.144-0.021,0.216-0.031
	c0.67-0.103,1.35-0.196,2.029-0.278c0.628-0.082,1.257-0.155,1.896-0.216c0.495-0.062,0.989-0.103,1.494-0.144
	c0.34-0.041,0.67-0.062,1.01-0.093c0.711-0.052,1.432-0.103,2.153-0.134c0.546-0.031,1.082-0.062,1.638-0.072
	c1.071-0.041,2.153-0.062,3.235-0.062h9.272c0.752,0,1.514,0.01,2.266,0.031c0.052,0,0.103,0,0.155,0
	c0.597,0.021,1.195,0.041,1.782,0.072c0.319,0.01,0.639,0.021,0.958,0.041c0.546,0.031,1.092,0.072,1.638,0.113
	c0.082,0,0.165,0.01,0.237,0.021c0.69,0.041,1.38,0.103,2.071,0.175c0.587,0.062,1.185,0.124,1.772,0.196
	c0.319,0.041,0.649,0.082,0.968,0.124c0.082,0.01,0.165,0.021,0.237,0.031C386.632,252.92,420.628,290.676,420.628,336.354z"/>
<path style="fill:#F8A563;" d="M219.228,351.292h55.135c0.391-23.014,9.395-43.917,23.931-59.637
	c1.442-1.566,2.946-3.08,4.512-4.543c0.495-0.464,0.989-0.917,1.494-1.37c0.577-0.525,1.174-1.051,1.772-1.545
	c0.515-0.453,1.04-0.886,1.566-1.308c0.453-0.371,0.917-0.742,1.38-1.102c0.185-0.155,0.381-0.309,0.587-0.453
	c0.453-0.361,0.917-0.711,1.391-1.051c0.01-0.01,0.031-0.031,0.052-0.031c0.556-0.422,1.123-0.824,1.69-1.226
	c0.021-0.021,0.041-0.031,0.072-0.051c0.505-0.35,1.01-0.701,1.525-1.04c0.494-0.34,0.999-0.67,1.514-0.999
	c0.381-0.247,0.773-0.495,1.164-0.731c0.319-0.206,0.639-0.402,0.958-0.587c2.153-1.308,4.368-2.514,6.634-3.626
	c0.381-0.206,0.773-0.391,1.174-0.577c1.298-0.628,2.617-1.216,3.956-1.772c0.67-0.278,1.339-0.556,2.019-0.814
	c0.701-0.278,1.411-0.546,2.132-0.804c0.422-0.155,0.855-0.309,1.288-0.453c0.299-0.103,0.597-0.206,0.896-0.309
	c0.33-0.103,0.659-0.216,0.999-0.319c0.474-0.155,0.948-0.299,1.422-0.443c0.598-0.175,1.195-0.35,1.793-0.515
	c0.577-0.165,1.164-0.319,1.741-0.464c0.103-0.031,0.216-0.062,0.319-0.082c0.433-0.113,0.865-0.216,1.308-0.319
	c0.464-0.113,0.937-0.227,1.401-0.319c0.237-0.052,0.484-0.103,0.721-0.155c0.515-0.113,1.04-0.216,1.566-0.309
	c0.268-0.062,0.536-0.113,0.804-0.155c0.34-0.072,0.69-0.134,1.04-0.185c0.536-0.093,1.082-0.185,1.628-0.268
	c0.072-0.01,0.144-0.021,0.216-0.031c0.67-0.103,1.35-0.196,2.029-0.278c0.628-0.082,1.257-0.155,1.896-0.216
	c0.494-0.062,0.989-0.103,1.494-0.144c0.34-0.041,0.67-0.062,1.01-0.093c0.711-0.052,1.432-0.103,2.153-0.134
	c0.546-0.031,1.082-0.062,1.638-0.072c1.071-0.041,2.153-0.062,3.235-0.062h9.272c0.752,0,1.514,0.01,2.266,0.031
	c0.052,0,0.103,0,0.155,0c0.597,0.021,1.195,0.041,1.782,0.072c0.319,0.01,0.639,0.021,0.958,0.041
	c0.546,0.031,1.092,0.072,1.638,0.113c0.082,0,0.165,0.01,0.237,0.021c0.69,0.041,1.38,0.103,2.071,0.175
	c0.083,0.009,0.169,0.02,0.252,0.028c-11.721-8.445-25.546-14.152-40.543-16.16c-0.072-0.01-0.155-0.021-0.237-0.031
	c-0.319-0.041-0.649-0.082-0.968-0.124c-0.587-0.072-1.185-0.134-1.772-0.196c-0.69-0.072-1.38-0.134-2.071-0.175
	c-0.072-0.01-0.155-0.021-0.237-0.021c-0.546-0.041-1.092-0.082-1.638-0.113c-0.319-0.021-0.639-0.031-0.958-0.041
	c-0.587-0.031-1.185-0.052-1.782-0.072c-0.052,0-0.103,0-0.155,0c-0.752-0.021-1.514-0.031-2.266-0.031h-9.272
	c-1.082,0-2.163,0.021-3.235,0.062c-0.556,0.01-1.092,0.041-1.638,0.072c-0.721,0.031-1.442,0.082-2.153,0.134
	c-0.34,0.031-0.67,0.052-1.01,0.093c-0.505,0.041-0.999,0.082-1.494,0.144c-0.639,0.062-1.267,0.134-1.896,0.216
	c-0.68,0.082-1.36,0.175-2.029,0.278c-0.072,0.01-0.144,0.021-0.216,0.031c-0.546,0.082-1.092,0.175-1.628,0.268
	c-0.35,0.052-0.701,0.113-1.04,0.185c-0.268,0.041-0.536,0.093-0.804,0.155c-0.525,0.093-1.051,0.196-1.566,0.309
	c-0.237,0.052-0.484,0.103-0.721,0.155c-0.464,0.093-0.937,0.206-1.401,0.319c-0.443,0.103-0.876,0.206-1.308,0.319
	c-0.103,0.021-0.216,0.052-0.319,0.082c-0.577,0.144-1.164,0.299-1.741,0.464c-0.598,0.165-1.195,0.34-1.793,0.515
	c-0.474,0.144-0.948,0.288-1.422,0.443c-0.34,0.103-0.67,0.216-0.999,0.319c-0.299,0.103-0.598,0.206-0.896,0.309
	c-0.433,0.144-0.865,0.299-1.288,0.453c-0.721,0.258-1.432,0.525-2.132,0.804c-0.68,0.258-1.35,0.536-2.019,0.814
	c-1.339,0.556-2.658,1.144-3.956,1.772c-0.402,0.185-0.793,0.371-1.174,0.577c-2.266,1.113-4.481,2.318-6.634,3.626
	c-0.319,0.185-0.639,0.381-0.958,0.587c-0.391,0.237-0.783,0.484-1.164,0.731c-0.515,0.33-1.02,0.659-1.514,0.999
	c-0.515,0.34-1.02,0.69-1.525,1.04c-0.031,0.021-0.051,0.031-0.072,0.052c-0.567,0.402-1.133,0.804-1.69,1.226
	c-0.021,0-0.041,0.021-0.052,0.031c-0.474,0.34-0.937,0.69-1.391,1.051c-0.206,0.144-0.402,0.299-0.587,0.453
	c-0.464,0.361-0.927,0.731-1.38,1.102c-0.525,0.422-1.051,0.855-1.566,1.308c-0.598,0.495-1.195,1.02-1.772,1.545
	c-0.505,0.453-0.999,0.907-1.494,1.37c-1.566,1.463-3.07,2.977-4.512,4.543c-14.536,15.721-23.54,36.623-23.931,59.637H175.96
	c-25.322,0-45.843,20.521-45.843,45.843c0,0.515,0.021,1.03,0.041,1.545h45.729C182.083,364.214,199.138,351.292,219.228,351.292z"
	/>
<path style="fill:#FFF0CE;" d="M467.017,198.248c7.046,6.614,7.397,17.699,0.773,24.755c-6.614,7.046-17.699,7.397-24.755,0.773
	c-0.247-0.237-0.474-0.494-0.711-0.742l-37.348,39.933l-22.991-23.809l36.306-38.697c-0.258-0.216-0.536-0.422-0.783-0.659
	c-7.057-6.624-7.397-17.709-0.783-24.755c6.624-7.057,17.709-7.407,24.755-0.783c6.799,6.387,7.345,16.905,1.453,23.972l0.072,0.072
	C449.69,191.974,460.218,191.861,467.017,198.248z"/>
<path style="fill:#FFE3AD;" d="M393.556,250.731l36.306-38.697c-0.258-0.216-0.536-0.422-0.783-0.659
	c-7.057-6.624-7.397-17.709-0.783-24.755c4.73-5.039,11.729-6.638,17.913-4.742c-0.861-2.813-2.428-5.452-4.729-7.613
	c-7.046-6.624-18.131-6.274-24.755,0.783c-6.614,7.046-6.274,18.131,0.783,24.755c0.247,0.237,0.525,0.443,0.783,0.659
	l-36.306,38.697l22.991,23.809l0.196-0.209L393.556,250.731z"/>
<path style="fill:#FCB630;" d="M413.922,260.028c2.926,2.74,3.709,7.067,1.947,10.662l-19.666,40.053
	c-13.3,27.094-49.006,33.594-71.01,12.939c-21.994-20.655-17.74-56.711,8.458-71.68l38.745-22.139
	c3.472-1.988,7.84-1.473,10.755,1.267L413.922,260.028z"/>
<path style="fill:#F58A1F;" d="M364.307,323.683c-21.994-20.655-17.74-56.711,8.458-71.68l20.275-11.585l-9.889-9.287
	c-2.915-2.74-7.283-3.255-10.755-1.267l-38.745,22.139c-26.198,14.969-30.452,51.025-8.458,71.68
	c14.273,13.398,34.305,15.358,50.253,7.697C371.492,329.455,367.733,326.899,364.307,323.683z"/>
<path style="fill:#FFF0CE;" d="M111.059,0c10.528,0,19.058,8.53,19.058,19.058c0,5.264-2.132,10.034-5.584,13.475
	c-3.441,3.451-8.211,5.584-13.475,5.584H58.52c-10.528,0-19.058-8.53-19.058-19.058c0-5.264,2.132-10.034,5.584-13.475
	C48.486,2.132,53.255,0,58.52,0H111.059z"/>
<g>
</g>
<g>
</g>
<g>
</g>
<g>
</g>
<g>
</g>
<g>
</g>
<g>
</g>
<g>
</g>
<g>
</g>
<g>
</g>
<g>
</g>
<g>
</g>
<g>
</g>
<g>
</g>
<g>
</g>
</svg>
