<svg id="Layer_1" height="512" viewBox="0 0 512 512" width="512" xmlns="http://www.w3.org/2000/svg"><g><g><g><path d="m256.717 480.571c-2.761 0-5-2.238-5-5v-46.743c0-2.762 2.239-5 5-5 2.762 0 5 2.238 5 5v46.743c.001 2.762-2.238 5-5 5z" fill="#36140e"/></g><g><path d="m223.164 467.383c-1.28 0-2.559-.488-3.536-1.465-1.953-1.952-1.953-5.118 0-7.07l33.554-33.555c1.953-1.952 5.119-1.954 7.071 0 1.953 1.952 1.953 5.118 0 7.07l-33.554 33.555c-.976.977-2.256 1.465-3.535 1.465z" fill="#36140e"/></g><g><path d="m290.272 467.383c-1.279 0-2.56-.488-3.535-1.465l-33.556-33.555c-1.953-1.952-1.953-5.118 0-7.07s5.119-1.954 7.071 0l33.555 33.555c1.953 1.952 1.953 5.118 0 7.07-.975.977-2.255 1.465-3.535 1.465z" fill="#36140e"/></g></g><g><path d="m330.426 34.259c.379.179-11.879-8.659-28.739 4.026-36.099 28.499-55.674 74.126-50.175 121.085 7.98-.935 15.959-1.869 23.939-2.804-4.514-38.535 11.551-75.979 41.175-99.365 13.041-9.959 13.831-22.675 13.8-22.942z" fill="#39b54a"/></g><g><path d="m191.634 48.805c-.343.163 10.767-7.847 26.047 3.649 32.72 25.83 50.461 67.185 45.478 109.747-7.232-.847-14.465-1.693-21.697-2.541 4.091-34.927-10.469-68.864-37.319-90.062-11.822-9.024-12.537-20.549-12.509-20.793z" fill="#008e4d"/></g><g><path d="m339.049 212.353c-47.231-25.977-44.87-62.975-44.87-62.975h-38.18-38.178s2.362 36.998-44.87 62.975c-62.582 32.078-90.92 77.931-69.273 150.353 25.387 72.225 75.57 79.899 152.32 79.899 76.753 0 126.936-7.675 152.322-79.899 21.649-72.423-6.69-118.276-69.271-150.353z" fill="#5e2670"/></g><g><g><path d="m172.227 407.972c-1.655 0-3.274-.821-4.227-2.322-14.858-23.411-22.711-50.442-22.711-78.171s7.854-54.76 22.711-78.172c1.479-2.331 4.568-3.022 6.901-1.542 2.332 1.479 3.022 4.569 1.542 6.9-28.071 44.233-28.071 101.396 0 145.628 1.479 2.331.789 5.421-1.542 6.9-.831.527-1.758.779-2.674.779z" fill="#3e1851"/></g><g><path d="m223.829 407.969c-2.259 0-4.308-1.541-4.858-3.834-12.04-50.149-12.04-103.164 0-153.313.645-2.685 3.339-4.34 6.029-3.694 2.685.645 4.339 3.344 3.694 6.029-11.673 48.622-11.673 100.021 0 148.645.645 2.685-1.009 5.384-3.694 6.029-.393.093-.785.138-1.171.138z" fill="#3e1851"/></g><g><path d="m339.772 407.972c-.916 0-1.844-.252-2.674-.779-2.332-1.479-3.022-4.569-1.543-6.9 28.071-44.233 28.071-101.396 0-145.628-1.479-2.331-.789-5.42 1.543-6.9 2.33-1.481 5.421-.789 6.9 1.542 14.858 23.412 22.711 50.443 22.711 78.171s-7.853 54.76-22.711 78.172c-.951 1.5-2.57 2.322-4.226 2.322z" fill="#3e1851"/></g><g><path d="m288.171 407.969c-.387 0-.778-.045-1.171-.139-2.686-.646-4.34-3.345-3.695-6.029 11.674-48.623 11.674-100.022 0-148.645-.645-2.685 1.01-5.384 3.695-6.029 2.686-.646 5.385 1.01 6.029 3.694 12.039 50.149 12.039 103.164 0 153.313-.55 2.294-2.599 3.835-4.858 3.835z" fill="#3e1851"/></g></g></g></svg>