<svg id="Capa_1" enable-background="new 0 0 512 512" height="512" viewBox="0 0 512 512" width="512" xmlns="http://www.w3.org/2000/svg"><g><circle cx="256" cy="256" fill="#adcfff" r="256"/><path d="m209.433 284.284 54.886 54.886-93.547 93.547 79.207 79.207c2.002.046 4.008.076 6.021.076 141.385 0 256-114.615 256-256 0-4.223-.109-8.42-.311-12.592l-130.69-130.69z" fill="#8bbbff"/><path d="m131 112.718 10.709 86.159 114.291 233.84 23.013-167.154-23.013-152.845z" fill="#fff"/><path d="m381 112.718h-125v319.999l115.448-243.144z" fill="#e9edf5"/><path d="m141.709 198.877 29.064 233.841h85.227l18.249-119.313-18.249-119.314c-16.165 4.838-32.926 9.824-65.801 9.824-21.695.001-36.371-2.171-48.49-5.038z" fill="#fdd437"/><path d="m256 194.047c-.049.015.049.029 0 .044v238.626h85.227l30.22-243.144c-12.333-3.018-27.225-5.35-49.652-5.35-32.822 0-49.656 4.994-65.795 9.824z" fill="#faba35"/><g><g fill="#faba35"><path d="m183.571 401.202c4.922-5.766 13.315-8.625 18.983-7.089 3.069.832 6.017 3.452 6.017 7.089s-2.947 6.257-6.017 7.089c-5.668 1.536-14.061-1.323-18.983-7.089z"/><path d="m172.741 347.728c7.558-.597 15.514 3.316 18.436 8.41 1.582 2.759 1.813 6.695-.758 9.267-2.572 2.572-6.508 2.34-9.267.758-5.094-2.921-9.007-10.877-8.411-18.435z"/><path d="m187.78 310.964c7.547.725 14.703 5.96 16.695 11.484 1.079 2.992.623 6.909-2.356 8.995s-6.816 1.175-9.258-.863c-4.509-3.761-6.981-12.276-5.081-19.616z"/><path d="m212.239 350.665c5.766 4.922 8.625 13.315 7.089 18.983-.832 3.069-3.452 6.017-7.089 6.017s-6.257-2.947-7.089-6.017c-1.536-5.668 1.323-14.061 7.089-18.983z"/><path d="m238.993 394.679c4.296 6.247 4.885 15.094 1.934 20.171-1.598 2.75-4.892 4.918-8.405 3.977s-5.281-4.466-5.29-7.646c-.016-5.873 4.918-13.24 11.761-16.502z"/><path d="m241.436 314.716c4.296 6.247 4.885 15.094 1.934 20.171-1.598 2.75-4.892 4.918-8.405 3.977s-5.281-4.466-5.29-7.646c-.016-5.873 4.918-13.239 11.761-16.502z"/><path d="m247.344 367.401c-1.582 2.759-1.813 6.695.758 9.267 2.171 2.171 5.311 2.34 7.897 1.39l3.128-9.564-3.127-7.938c-3.823 1.528-7.025 4.001-8.656 6.845z"/></g><path d="m265.78 358.991c-3.339-.264-6.754.355-9.78 1.565v17.503c.478-.176.939-.385 1.37-.632 5.094-2.922 9.007-10.878 8.41-18.436z" fill="#fba32b"/><path d="m326.865 332.627c5.766 4.922 8.625 13.315 7.089 18.983-.832 3.069-3.452 6.017-7.089 6.017s-6.257-2.947-7.089-6.017c-1.536-5.668 1.323-14.06 7.089-18.983z" fill="#fba32b"/><path d="m309.585 383.922c7.558-.597 15.514 3.316 18.436 8.41 1.582 2.759 1.813 6.695-.758 9.267-2.572 2.572-6.508 2.34-9.267.758-5.094-2.921-9.007-10.877-8.411-18.435z" fill="#fba32b"/><path d="m280.227 314.777c7.558-.597 15.514 3.316 18.436 8.41 1.582 2.759 1.813 6.695-.758 9.267-2.572 2.572-6.508 2.34-9.267.758-5.095-2.921-9.008-10.878-8.411-18.435z" fill="#fba32b"/><path d="m302.361 353.768c3.146 6.898 2.19 15.713-1.598 20.201-2.051 2.43-5.671 3.994-8.967 2.457s-4.425-5.315-3.882-8.449c1.002-5.787 7.14-12.185 14.447-14.209z" fill="#fba32b"/><path d="m285.078 392.017c6.534 3.846 10.807 11.615 10.278 17.464-.286 3.167-2.355 6.525-5.936 7.156-3.582.632-6.674-1.816-8.026-4.694-2.498-5.316-1.14-14.077 3.684-19.926z" fill="#fba32b"/></g></g></svg>