<svg id="Glyph" height="512" viewBox="0 0 64 64" width="512" xmlns="http://www.w3.org/2000/svg"><path d="m34.35 32.11c.41-1.05.84-2.16 1.34-3.37 1.63-3.99 2.15-8.77 2.21-12.92-1.41-3.17-3.5-5.82-5.9-8.18 0 0 1.08 6.02 1.1 9.27.02 2.53-.4 5.62-1.42 8.93 1.08 2.11 1.97 4.21 2.67 6.28z"/><path d="m23.8 45.35c1.16-.27 2.35-.43 3.54-.47h.49c.95 0 1.85.1 2.72.26.46-2.94 1.18-5.8 2.64-9.9-.83-3.19-2.18-6.6-4.22-10.25-4.24-7.57-6.07-14.09-6.58-20.98 0 0-6.08 11.85-1.74 22.66 2.83 7.06 3.79 13.32 3.15 18.69z"/><path d="m37.54 29.49c-3.22 7.9-4.39 11.91-5.04 16.12 1.52.48 2.84 1.14 3.93 1.78 1.61-.42 3.18-.64 4.68-.64.51 0 1.01.03 1.5.08-.44-5.84 1.09-10.05 2.87-17.81 2.26-9.85-.62-16.37-6.21-23.29 0 0 2.27 13.94-1.73 23.76z"/><path d="m44.54 44.09c-.03 1 0 2.03.11 3.11 2.03.53 3.78 1.49 5.04 2.83 4.39-7.7 3.09-17.74 1.9-22.08-.28 5.59-3.38 11.1-7.05 16.14z"/><path d="m14.87 48.68c.73-.21 1.5-.33 2.3-.38 1.37-.97 2.89-1.77 4.5-2.34.19-1.23.29-2.51.29-3.83-3.33-3.89-4.41-6.04-5.53-8.51-1.58-3.49-2.54-13.96-2.54-13.96-3.68 8.7-3.5 14.58-2.41 20.54.57 3.15 2.06 5.96 3.39 8.48z"/><path d="m20.78 48.51c3.79.55 5.63 1.93 7.26 3.49.3-.24.58-.49.88-.75 1.09-.96 2.3-2.02 4.83-3.01-1.76-.81-3.93-1.46-6.34-1.37-2.03.07-4.38.58-6.63 1.64z"/><path d="m36.46 49.44c-4.34 1.25-5.34 2.62-6.97 3.96.14.14.28.27.43.41 3.71 3.4 5.28 4.57 5.29 4.58.52.38.81.99.81 1.61h15.98s-1.47-5.53-3.26-8-6.15-4.31-12.28-2.56z"/><path d="m18.23 50.29c-6.43-.26-9.21 5.71-10.23 9.71h26.03s-1.58-1.16-5.46-4.72c-2.86-2.62-3.91-4.73-10.34-5z"/><circle cx="56" cy="22" r="3"/><circle cx="55" cy="10" r="2"/><circle cx="8" cy="11" r="2"/></svg>