<?xml version="1.0" encoding="UTF-8"?>
<svg xmlns="http://www.w3.org/2000/svg" id="Layer_1" data-name="Layer 1" viewBox="0 0 512 512" width="512" height="512"><path d="M495.21,309.53a1.463,1.463,0,0,1-.63,2.76c-35.88,1.66-48.2-21.71-56.36-31.96a24.453,24.453,0,0,0-12.69-8.5,66.915,66.915,0,0,0-11.85-2.03,23.063,23.063,0,0,0,3.46-11.02,16.807,16.807,0,0,0-3.46-11.03c22.96-14.08,23.32-49.36,66.34-71.97a1.474,1.474,0,0,1,1.77,2.31c-10.24,10.64-26.94,34.26-23.38,72.76C461.83,287.92,484.83,304.07,495.21,309.53Z" style="fill:#e6faff"/><path d="M147.7,216.53a486.331,486.331,0,0,1,60.88-.71q7.59.405,15.28,1.09c30.06,2.66,61.1,8.68,91.43,19.65q11.2,4.05,20.86,7.08c24.21,7.59,41.57,10.56,54.53,10.19,9.85-.27,17.16-2.48,23-6.08a16.807,16.807,0,0,1,3.46,11.03s-51.48,8.38-93.4,0c-62.38-12.49-102.01-20.97-171.96-19.7-10.04.18-19.02-.15-26.96-.8-34.21-2.81-49.52-11.64-49.52-11.64A565.6,565.6,0,0,1,147.7,216.53Z" style="fill:#cae6ee"/><path d="M393.68,232.46a9.445,9.445,0,0,1,2.41,12.49l-5.41,8.88c-12.96.37-30.32-2.6-54.53-10.19v-.01l27.26-22.78a9.587,9.587,0,0,1,11.05-.88C379.92,223.23,388.05,228.24,393.68,232.46Z" style="fill:#a7c4c9"/><path d="M385.31,288.51A9.447,9.447,0,0,1,382.9,301c-5.64,4.22-13.76,9.23-19.23,12.49a9.6,9.6,0,0,1-11.05-.88l-24.01-20.08q15.765-5.715,32.01-13.12a115.827,115.827,0,0,1,13.91-4.92Z" style="fill:#a7c4c9"/><path d="M313.46,221.03a10.053,10.053,0,0,1,1.83,15.53c-30.33-10.97-61.37-16.99-91.43-19.65l26.38-26.47a10.209,10.209,0,0,1,12.66-1.41Z" style="fill:#a7c4c9"/><path d="M305.62,300.1c4.48,4.59,2.47,8.9-2.95,12.33l-50.56,31.99a10.183,10.183,0,0,1-12.65-1.41l-28.1-27.74A364.767,364.767,0,0,0,305.62,300.1Z" style="fill:#a7c4c9"/><path d="M209.73,169.01c3.02,8.46-3.84,29.12-1.15,46.81a486.331,486.331,0,0,0-60.88.71c.4-.82,23.99-49,57.62-50.53A4.524,4.524,0,0,1,209.73,169.01Z" style="fill:#a7c4c9"/><path d="M417.14,258.78a23.063,23.063,0,0,1-3.46,11.02c-14.55-1.24-29.01,1.73-39.15,4.69a115.827,115.827,0,0,0-13.91,4.92q-16.245,7.44-32.01,13.12-11.64,4.23-22.99,7.57a364.767,364.767,0,0,1-94.26,15.17,348.168,348.168,0,0,1-61.75-3.87c-7.7-1.18-15.13-2.58-22.26-4.15-2.53-.55-5.03-1.13-7.48-1.73,30.21-25.62,4.95-67.24,4.95-67.24,7.94.65,16.92.98,26.96.8,69.95-1.27,109.58,7.21,171.96,19.7C365.66,267.16,417.14,258.78,417.14,258.78Z" style="fill:#95afb5"/><path d="M144.27,336.31c-20.07-13.04-16.92-29.05-16.92-29.05v-.01c7.13,1.57,14.56,2.97,22.26,4.15l1.89,20.54A4.7,4.7,0,0,1,144.27,336.31Z" style="fill:#cae6ee"/><path d="M18.1,260.37a14.425,14.425,0,0,1,8.11-21.29c10.08-3.12,27.15-7.95,49.09-12.44,0,0,15.31,8.83,49.52,11.64,0,0,25.26,41.62-4.95,67.24-49.29-11.99-83.58-31.7-97.26-40.51A14.069,14.069,0,0,1,18.1,260.37Z" style="fill:#acc0c6"/><path d="M162.38,256.28c21.53-5.15,62.78-10.8,96.84,9.41a1.321,1.321,0,0,1-.88,2.45c-11.71-1.99-36.36-3.36-64,11.94a34.235,34.235,0,0,1-30.87,1.44,2.59,2.59,0,0,1-1.21-3.66C164.11,274.58,166.42,267.6,162.38,256.28Z" style="fill:#cae6ee"/><path d="M65.68,250.3a5.965,5.965,0,1,1-6,5.97A5.986,5.986,0,0,1,65.68,250.3Z" style="fill:#ff5a81"/><path d="M48.1,260.37a14.425,14.425,0,0,1,8.11-21.29c6.868-2.126,16.985-5.046,29.671-8.11A62.659,62.659,0,0,1,75.3,226.64c-21.94,4.49-39.01,9.32-49.09,12.44a14.425,14.425,0,0,0-8.11,21.29,14.069,14.069,0,0,0,4.51,4.64c13.68,8.81,47.97,28.52,97.26,40.51a44.2,44.2,0,0,0,6.383-6.638c-36.64-11.692-62.27-26.548-73.643-33.872A14.069,14.069,0,0,1,48.1,260.37Z" style="fill:#8d9fa3"/><path d="M147.7,216.53a565.6,565.6,0,0,0-72.4,10.11,62.659,62.659,0,0,0,10.581,4.33c5.935-1.434,12.427-2.9,19.419-4.33a565.6,565.6,0,0,1,72.4-10.11q10.418-.757,21.3-1.1A493.578,493.578,0,0,0,147.7,216.53Z" style="fill:#bfd3d8"/><path d="M261.772,261.388c-49.961-29.635-113.171-6.525-115.837-5.527a5,5,0,0,0,3.5,9.367c.144-.054,3.644-1.331,9.513-2.894,1.545,6.871.106,11.034-1.039,13.058a7.595,7.595,0,0,0,3.528,10.7,40.548,40.548,0,0,0,16.174,3.4,39.133,39.133,0,0,0,19.152-5.047C222.872,270,246.023,271.119,257.5,273.069a6.246,6.246,0,0,0,7-4.046A6.341,6.341,0,0,0,261.772,261.388ZM191.924,275.7a28.975,28.975,0,0,1-24.131,2.161c1.522-3.765,2.72-9.7.887-17.819,17.651-3.639,44.858-6.5,70.46,2A107.069,107.069,0,0,0,191.924,275.7Z" style="fill:#284268"/><path d="M497.538,305.105c-9.2-4.839-30.937-19.859-34.152-54.712-3.367-36.5,12.341-58.8,22-68.841a6.47,6.47,0,0,0-7.7-10.2c-26.525,13.942-37.8,32.81-46.855,47.971-8.093,13.549-14.487,24.251-28.945,28.013q-.8.209-1.639.389l.106-.173a14.408,14.408,0,0,0-3.681-19.094c-5.732-4.3-13.858-9.326-19.667-12.785a14.6,14.6,0,0,0-16.811,1.338l-25.16,21.027q-6.016-1.931-12.529-4.217a14.993,14.993,0,0,0-6.383-17.018l-50.558-32a15.28,15.28,0,0,0-18.869,2.1L221.945,211.75q-4.44-.369-8.851-.648c-.525-7.485.422-15.479,1.278-22.662,1.063-8.919,1.9-15.962.066-21.109a9.59,9.59,0,0,0-9.345-6.321c-32.175,1.457-54.958,40.206-60.584,50.771A568.788,568.788,0,0,0,24.732,234.307,19.432,19.432,0,0,0,19.9,269.216c13.943,8.983,50.254,29.885,102.317,42,.366,6.69,3.436,18.971,19.324,29.287a9.706,9.706,0,0,0,14.935-9.019l-1.307-14.235a352.379,352.379,0,0,0,47.28,3.207c2.322,0,4.644-.031,6.966-.078l26.5,26.17a15.278,15.278,0,0,0,18.87,2.1l50.557-31.994c4.634-2.932,7.214-6.4,7.671-10.3a10.257,10.257,0,0,0-.135-3.2q7.371-2.312,14.732-4.932l21.8,18.223a14.6,14.6,0,0,0,16.811,1.337c5.808-3.459,13.934-8.484,19.666-12.784a14.405,14.405,0,0,0,3.681-19.094L383.1,277.43c11.845-2.746,27.141-4.531,41.132-.77,5.6,1.377,9.7,5.77,12.978,10.637,8.67,11.812,23.188,31.609,57.6,29.991a6.465,6.465,0,0,0,2.728-12.183ZM253.785,193.974a5.214,5.214,0,0,1,6.44-.715l50.558,32a5.063,5.063,0,0,1,2.336,3.7,5.271,5.271,0,0,1-.057,1.527A364.207,364.207,0,0,0,234.8,213.016Zm-86.129,1.037c8.554-10.468,21.968-23.072,37.468-23.99.883,3.1.088,9.774-.682,16.235-.867,7.277-1.822,15.329-1.4,23.326-16.013-.643-31.619-.42-46.564.406A137.518,137.518,0,0,1,167.656,195.011Zm16.512,25.171c41.279,0,86.121,5.415,129.418,21.08,22.138,8.009,40.238,13.206,55.187,15.753-15.3.1-32.182-.767-47.234-3.78-59.369-11.9-101.765-20.383-169.854-19.151-26.586.487-45.5-2.725-57.544-5.919A532.794,532.794,0,0,1,184.168,220.182ZM118.5,300.026A329.4,329.4,0,0,1,33.624,265.9a26.987,26.987,0,0,0,9.066-2.866,5,5,0,1,0-4.808-8.767c-4.649,2.548-12.055,2.214-16.38,1.62a9.392,9.392,0,0,1,6.185-12.024c9.785-3.025,26.071-7.626,46.905-11.969,4.917,2.373,20,8.6,47.129,11.142a75.966,75.966,0,0,1,7.085,20.446C131.555,278.577,128.083,290.858,118.5,300.026Zm14.047,13.427c1.477.3,2.956.592,4.455.874q3.995.75,7.992,1.407l1.472,16.032C136.667,325.231,133.5,318.143,132.544,313.453ZM300,308.2,249.441,340.2a5.226,5.226,0,0,1-6.468-.74l-19.862-19.614A369.255,369.255,0,0,0,302.4,306.283,11.539,11.539,0,0,1,300,308.2ZM379.9,297c-5.38,4.036-13.184,8.858-18.783,12.193a4.584,4.584,0,0,1-5.281-.419l-17.423-14.562q12.151-4.7,24.267-10.242c.112-.051,3.936-1.738,10.011-3.672l8.462,11A4.443,4.443,0,0,1,379.9,297Zm-21.351-22.138c-72.9,33.357-146.816,43.329-219.7,29.64q-4.679-.879-9.2-1.86c8.866-11,11.964-25.086,8.946-41.261a83.7,83.7,0,0,0-5.428-17.545c5.787.271,12.017.372,18.709.249,67-1.217,108.979,7.19,167.708,18.959a263.137,263.137,0,0,0,47.165,4.487c5.78,0,11.341-.162,16.537-.418A132.233,132.233,0,0,0,358.544,274.859Zm33.278-32.51-3.964,6.5c-10.871-.094-24.506-2.511-41.38-7.336l20.138-16.831a4.584,4.584,0,0,1,5.28-.418c5.6,3.335,13.4,8.157,18.783,12.193A4.444,4.444,0,0,1,391.822,242.349Zm53.447,39.031c-4.514-6.777-10.653-12.44-18.445-14.378-1.937-.52-3.887-.947-5.843-1.294a23.175,23.175,0,0,0-.679-16.5c8.183-6.449,13.552-15.433,19.122-24.756,6.467-10.824,13.564-22.7,26.285-33.244-7.988,13.712-14.728,33.575-12.281,60.1,2.682,29.072,16.864,46.141,28.45,55.4C461.605,303.632,451.988,290.533,445.269,281.38Z" style="fill:#284268"/><path d="M65.678,246.3a9.968,9.968,0,1,0,10,9.968A9.995,9.995,0,0,0,65.678,246.3Z" style="fill:#284268"/></svg>
