<?xml version="1.0" encoding="UTF-8" standalone="no"?>
<!-- Created with Inkscape (http://www.inkscape.org/) -->

<svg
   version="1.1"
   id="svg5727"
   width="682.66669"
   height="682.66669"
   viewBox="0 0 682.66669 682.66669"
   xmlns="http://www.w3.org/2000/svg"
   xmlns:svg="http://www.w3.org/2000/svg">
  <defs
     id="defs5731">
    <clipPath
       clipPathUnits="userSpaceOnUse"
       id="clipPath5741">
      <path
         d="M 0,512 H 512 V 0 H 0 Z"
         id="path5739" />
    </clipPath>
  </defs>
  <g
     id="g5733"
     transform="matrix(1.3333333,0,0,-1.3333333,0,682.66667)">
    <g
       id="g5735">
      <g
         id="g5737"
         clip-path="url(#clipPath5741)">
        <g
           id="g5743"
           transform="translate(257.0667,509.0379)">
          <path
             d="m 0,0 c -98.131,0 -158.58,-55.352 -158.747,-55.445 0,0 -2.513,-3.137 -2.983,-5.223 -3.818,-16.948 -7.385,-39.663 -7.385,-56.238 0,-140.833 118.763,-254.972 259.596,-254.972 54.231,0 114.568,25.992 154.949,57.243 0.903,0.699 3.77,5.396 3.77,5.396 0.177,1.087 5.8,23.477 5.8,54.239 C 255,-114.167 140.833,0 0,0"
             style="fill:#c8effe;fill-opacity:1;fill-rule:nonzero;stroke:none"
             id="path5745" />
        </g>
        <g
           id="g5747"
           transform="translate(347.5253,144.3586)">
          <path
             d="m 0,0 c -140.833,0 -255,114.167 -255,255 0,18.615 2.008,36.753 5.795,54.234 -52.398,-41.744 -88.003,-103.689 -94.994,-174.051 l 118.792,-241.909 c 39.14,-24.459 85.393,-38.595 134.948,-38.595 121.17,0 224.117,84.98 249.2,200.762 C 115.182,20.745 60.017,0 0,0"
             style="fill:#b3dafe;fill-opacity:1;fill-rule:nonzero;stroke:none"
             id="path5749" />
        </g>
        <g
           id="g5751"
           transform="translate(265.0126,384.0515)">
          <path
             d="m 0,0 -186.245,5.094 v -263.072 c 0.907,0.188 1.878,0.289 2.915,0.289 H 60.886 c 11.404,26.171 17.818,55.581 17.818,86.679 C 78.704,-108.633 43.55,-43.895 0,0"
             style="fill:#935b50;fill-opacity:1;fill-rule:nonzero;stroke:none"
             id="path5753" />
        </g>
        <g
           id="g5755"
           transform="translate(148.4551,407.8955)">
          <path
             d="m 0,0 85.257,9.485 c -4.997,8.639 -8.158,18.302 -9.112,28.431 l -0.336,3.565 C 74.559,54.737 63.431,64.866 50.117,64.866 H 6.483 C 3.856,64.866 1.734,63.896 0,62.255 Z"
             style="fill:#e8e0d9;fill-opacity:1;fill-rule:nonzero;stroke:none"
             id="path5757" />
        </g>
        <g
           id="g5759"
           transform="translate(233.727,417.3885)">
          <path
             d="m 0,0 c -13.082,-1.575 -26.192,-1.685 -39.329,-0.365 -27.265,2.739 -46.006,28.818 -39.532,55.443 0.024,0.1 0.048,0.198 0.072,0.295 h -18.152 c -13.264,0 -24.368,-10.055 -25.68,-23.254 l -0.042,-0.423 c -1.81,-18.215 -10.523,-35.132 -24.576,-46.86 -0.55,-0.459 -1.096,-0.935 -1.643,-1.405 54.486,-24.146 108.521,-24.899 162.06,0 C 7.952,-11.69 3.526,-6.096 0,0"
             style="fill:#c8beb9;fill-opacity:1;fill-rule:nonzero;stroke:none"
             id="path5761" />
        </g>
        <g
           id="g5763"
           transform="translate(239.1569,142.4229)">
          <path
             d="m 0,0 c -87.701,0 -158.796,91.685 -158.796,204.784 0,13.351 0.995,26.4 2.89,39.037 l -14.003,-0.067 c -27.893,-28.485 -52.277,-66.22 -65.921,-106.635 -0.141,-1.422 -0.271,-2.848 -0.389,-4.277 l 3.772,-11.236 -4.633,-7.645 c -0.007,-0.781 -0.01,-1.563 -0.01,-2.346 0,-26.361 4,-51.787 11.426,-75.705 l 9.07,-11.569 -1.324,-9.907 c 9.481,-22.983 22.224,-44.278 37.653,-63.306 l 18.166,-12.493 3.317,-10.882 c 12.72,-12.227 26.707,-23.147 41.743,-32.544 h 96.262 c 23.772,0 46.79,8.947 63.909,25.441 33.137,31.927 55.553,77.46 60.415,128.881 C 75.745,18.664 39.564,0 0,0"
             style="fill:#855151;fill-opacity:1;fill-rule:nonzero;stroke:none"
             id="path5765" />
        </g>
        <g
           id="g5767"
           transform="translate(298.7022,327.075)">
          <path
             d="M 0,0 C 1.787,0.74 5.499,1.929 8.329,3.369 4.666,9.339 0.799,15.166 -3.241,20.819 -4.915,20.962 -6.646,20.725 -8.307,20.037 -49.35,3.024 -90.952,-5.602 -131.974,-5.602 h -0.112 c -40.985,0.016 -82.646,8.645 -123.826,25.645 -1.611,0.665 -3.289,0.902 -4.916,0.784 -3.253,-4.738 -6.386,-9.598 -9.384,-14.564 1.013,-2.739 3.111,-5.067 6.023,-6.269 43.913,-18.13 88.083,-27.193 132.218,-27.193 44.134,0 88.232,9.068 131.971,27.199"
             style="fill:#855151;fill-opacity:1;fill-rule:nonzero;stroke:none"
             id="path5769" />
        </g>
        <g
           id="g5771"
           transform="translate(335.856,266.0981)">
          <path
             d="m 0,0 c -1.693,0.206 -3.46,0.02 -5.165,-0.63 -54.387,-20.739 -109.541,-31.253 -163.942,-31.253 h -0.144 c -49.994,0.017 -100.715,8.923 -150.971,26.476 0.063,-7.58 -0.201,-15.165 -0.506,-22.752 50.386,-16.853 101.242,-25.398 151.469,-25.415 h 0.152 c 57.05,0 114.81,10.994 171.67,32.677 0.766,0.292 1.474,0.667 2.13,1.102 C 3.461,-13.168 1.885,-6.561 0,0"
             style="fill:#855151;fill-opacity:1;fill-rule:nonzero;stroke:none"
             id="path5773" />
        </g>
        <g
           id="g5775"
           transform="translate(250.3913,378.6178)">
          <path
             d="M 0,0 C 1.448,0.491 9.095,3.146 14.619,5.431 9.47,10.62 4.206,15.521 -1.133,20.089 c -0.356,0.305 -0.695,0.627 -1.045,0.939 -1.567,0.191 -3.199,0.055 -4.794,-0.487 -53.226,-18.07 -103.444,-17.751 -153.526,0.964 -1.708,0.639 -3.473,0.814 -5.164,0.598 -3.093,-2.665 -6.161,-5.448 -9.195,-8.343 l -6.287,-6.201 c 0,0 10.841,-5.546 13.053,-6.373 27.638,-10.328 55.885,-15.493 84.544,-15.493 27.534,0 55.448,4.769 83.547,14.307"
             style="fill:#af66da;fill-opacity:1;fill-rule:nonzero;stroke:none"
             id="path5777" />
        </g>
        <g
           id="g5779"
           transform="translate(166.7306,313.6575)">
          <path
             d="m 0,0 c -43.899,0 -87.834,9.015 -131.513,27.047 -4.594,1.897 -6.781,7.159 -4.884,11.754 1.896,4.595 7.158,6.781 11.753,4.885 C -83.24,26.592 -41.343,17.917 -0.115,17.901 h 0.113 c 41.265,0 83.105,8.672 124.374,25.78 4.592,1.901 9.858,-0.277 11.76,-4.868 1.904,-4.592 -0.276,-9.857 -4.867,-11.761 C 87.76,9.019 43.898,0 0,0"
             style="fill:#aa6a51;fill-opacity:1;fill-rule:nonzero;stroke:none"
             id="path5781" />
        </g>
        <g
           id="g5783"
           transform="translate(316.8732,97.5725)">
          <path
             d="m 0,0 c -1.75,4.652 -6.94,7.005 -11.592,5.255 -74.117,-27.878 -167.688,-30.97 -246.389,-9.276 6.755,-8.332 14.026,-16.229 21.763,-23.644 28.222,-5.687 57.731,-8.53 87.226,-8.53 50.087,0 100.133,8.201 143.737,24.602 C -0.603,-9.843 1.75,-4.652 0,0"
             style="fill:#aa6a51;fill-opacity:1;fill-rule:nonzero;stroke:none"
             id="path5785" />
        </g>
        <g
           id="g5787"
           transform="translate(342.964,270.4729)">
          <path
             d="m 0,0 c -1.771,4.644 -6.973,6.975 -11.616,5.202 -54.597,-20.819 -109.972,-31.375 -164.599,-31.375 h -0.145 c -54.214,0.019 -109.272,10.436 -163.666,30.965 -0.513,-6.233 -0.803,-12.529 -0.86,-18.881 54.645,-19.947 109.958,-30.065 164.52,-30.084 h 0.151 c 56.824,0 114.362,10.954 171.012,32.557 C -0.558,-9.846 1.771,-4.645 0,0"
             style="fill:#aa6a51;fill-opacity:1;fill-rule:nonzero;stroke:none"
             id="path5789" />
        </g>
        <g
           id="g5791"
           transform="translate(166.8456,378.0909)">
          <path
             d="m 0,0 c -28.444,0 -56.473,5.124 -83.899,15.373 -4.657,1.74 -7.02,6.925 -5.281,11.581 1.741,4.656 6.928,7.019 11.581,5.28 50.496,-18.871 101.12,-19.192 154.766,-0.983 4.708,1.597 9.817,-0.923 11.415,-5.63 C 90.18,20.914 87.659,15.804 82.953,14.206 55.053,4.736 27.334,0 0,0"
             style="fill:#bd80e1;fill-opacity:1;fill-rule:nonzero;stroke:none"
             id="path5793" />
        </g>
        <g
           id="g5795"
           transform="translate(223.0238,168.2527)">
          <path
             d="m 0,0 c 0,-11.993 -9.722,-21.716 -21.716,-21.716 -11.993,0 -21.715,9.723 -21.715,21.716 0,11.993 9.722,21.716 21.715,21.716 C -9.722,21.716 0,11.993 0,0"
             style="fill:#855151;fill-opacity:1;fill-rule:nonzero;stroke:none"
             id="path5797" />
        </g>
        <g
           id="g5799"
           transform="translate(288.6012,279.0617)">
          <path
             d="m 0,0 c 0,-9.552 -7.743,-17.295 -17.295,-17.295 -9.551,0 -17.294,7.743 -17.294,17.295 0,9.552 7.743,17.295 17.294,17.295 C -7.743,17.295 0,9.552 0,0"
             style="fill:#855151;fill-opacity:1;fill-rule:nonzero;stroke:none"
             id="path5801" />
        </g>
        <g
           id="g5803"
           transform="translate(174.876,291.1155)">
          <path
             d="m 0,0 c 0,-8.394 -6.805,-15.198 -15.198,-15.198 -8.394,0 -15.199,6.804 -15.199,15.198 0,8.394 6.805,15.198 15.199,15.198 C -6.805,15.198 0,8.394 0,0"
             style="fill:#855151;fill-opacity:1;fill-rule:nonzero;stroke:none"
             id="path5805" />
        </g>
        <g
           id="g5807"
           transform="translate(230.9525,362.3903)">
          <path
             d="m 0,0 c 0,-5.21 -4.223,-9.433 -9.433,-9.433 -5.21,0 -9.434,4.223 -9.434,9.433 0,5.21 4.224,9.433 9.434,9.433 C -4.223,9.433 0,5.21 0,0"
             style="fill:#855151;fill-opacity:1;fill-rule:nonzero;stroke:none"
             id="path5809" />
        </g>
        <g
           id="g5811"
           transform="translate(348.922,178.676)">
          <path
             d="M 0,0 C -1.771,4.644 -6.975,6.975 -11.616,5.202 -66.524,-15.736 -123.52,-26.351 -181.037,-26.351 h -0.155 c -52.148,0.017 -103.955,8.76 -154.237,26.007 2.268,-7.304 4.855,-14.469 7.746,-21.476 47.891,-14.946 97.032,-22.514 146.485,-22.531 h 0.161 c 59.714,0 118.874,11.014 175.834,32.735 C -0.558,-9.846 1.771,-4.645 0,0"
             style="fill:#aa6a51;fill-opacity:1;fill-rule:nonzero;stroke:none"
             id="path5813" />
        </g>
        <g
           id="g5815"
           transform="translate(309.3925,340.9848)">
          <path
             d="m 0,0 h -20.683 v 20.354 c 0,4.97 4.03,9 9,9 4.971,0 9,-4.03 9,-9 V 18 H 0 C 4.971,18 9,13.971 9,9 9,4.029 4.971,0 0,0"
             style="fill:#aa6a51;fill-opacity:1;fill-rule:nonzero;stroke:none"
             id="path5817" />
        </g>
        <g
           id="g5819"
           transform="translate(335.691,259.4651)">
          <path
             d="m 0,0 c -1.002,0 -2.021,0.169 -3.019,0.524 -4.683,1.667 -7.127,6.816 -5.46,11.498 l 5.951,16.711 c 1.668,4.684 6.816,7.126 11.498,5.459 4.682,-1.667 7.127,-6.815 5.459,-11.498 L 8.479,5.983 C 7.167,2.299 3.699,0 0,0"
             style="fill:#aa6a51;fill-opacity:1;fill-rule:nonzero;stroke:none"
             id="path5821" />
        </g>
        <g
           id="g5823"
           transform="translate(212.0914,210.761)">
          <path
             d="m 0,0 c -0.772,0 -1.556,0.1 -2.337,0.309 -4.801,1.288 -7.649,6.223 -6.362,11.024 l 4.936,18.408 c 0.75,2.794 2.797,5.059 5.502,6.084 2.705,1.026 5.738,0.69 8.153,-0.906 l 13.93,-9.204 C 27.969,22.975 29.11,17.392 26.37,13.245 23.629,9.097 18.046,7.956 13.899,10.697 l -3.51,2.32 L 8.687,6.671 C 7.609,2.651 3.973,0 0,0"
             style="fill:#aa6a51;fill-opacity:1;fill-rule:nonzero;stroke:none"
             id="path5825" />
        </g>
        <g
           id="g5827"
           transform="translate(294.5597,151.4465)">
          <path
             d="M 0,0 C -0.522,0 -1.05,0.046 -1.582,0.14 -6.476,1.008 -9.74,5.679 -8.873,10.572 l 2.663,15.021 c 0.866,4.895 5.538,8.156 10.432,7.292 4.894,-0.868 8.159,-5.539 7.291,-10.433 L 8.851,7.432 C 8.078,3.068 4.282,0 0,0"
             style="fill:#935b50;fill-opacity:1;fill-rule:nonzero;stroke:none"
             id="path5829" />
        </g>
        <g
           id="g5831"
           transform="translate(179.5929,61.5501)">
          <path
             d="M 0,0 C -0.724,0 -1.453,0.087 -2.174,0.267 -5.385,1.065 -7.899,3.563 -8.719,6.77 l -4.717,18.441 c -1.232,4.815 1.673,9.718 6.489,10.95 4.815,1.224 9.718,-1.674 10.949,-6.489 l 0.58,-2.264 1.327,1.458 c 3.345,3.677 9.038,3.944 12.714,0.601 3.676,-3.346 3.944,-9.038 0.599,-12.714 L 6.657,2.943 C 4.929,1.044 2.501,0 0,0"
             style="fill:#aa6a51;fill-opacity:1;fill-rule:nonzero;stroke:none"
             id="path5833" />
        </g>
        <g
           id="g5835"
           transform="translate(36.5704,225.1946)">
          <path
             d="m 0,0 c -1.71,0 -3.439,0.486 -4.97,1.503 -4.141,2.75 -5.269,8.336 -2.519,12.476 L 3.857,31.066 c 1.831,2.759 5.032,4.288 8.327,3.984 3.297,-0.306 6.161,-2.397 7.455,-5.445 L 24.705,17.674 C 26.647,13.099 24.513,7.814 19.937,5.872 16.448,4.39 12.544,5.28 10.027,7.818 L 7.506,4.022 C 5.773,1.413 2.914,0 0,0"
             style="fill:#aa6a51;fill-opacity:1;fill-rule:nonzero;stroke:none"
             id="path5837" />
        </g>
        <g
           id="g5839"
           transform="translate(97.1163,321.3899)">
          <path
             d="m 0,0 c -2.151,0 -4.309,0.767 -6.031,2.322 -3.688,3.332 -3.976,9.024 -0.644,12.712 l 9.026,9.989 c 3.332,3.688 9.024,3.977 12.712,0.644 3.687,-3.332 3.976,-9.023 0.644,-12.712 L 6.681,2.966 C 4.904,1 2.457,0 0,0"
             style="fill:#aa6a51;fill-opacity:1;fill-rule:nonzero;stroke:none"
             id="path5841" />
        </g>
        <g
           id="g5843"
           transform="translate(373.0844,267.1777)">
          <path
             d="m 0,0 c -40.774,0 -77.256,-18.381 -101.611,-47.309 -19.442,-23.093 -15.566,-76.241 -15.566,-108.792 0,-65.544 109.797,-62.592 188.782,-66.179 15.767,-0.717 30.671,7.197 38.916,20.655 l 14.154,23.104 c 5.39,14.681 8.26,30.577 8.087,47.167 C 132.002,-58.352 73.006,0.001 0,0"
             style="fill:#aa6a51;fill-opacity:1;fill-rule:nonzero;stroke:none"
             id="path5845" />
        </g>
        <g
           id="g5847"
           transform="translate(396.1542,41.3424)">
          <path
             d="m 0,0 c -73.326,0 -132.768,59.443 -132.768,132.769 0,16.078 2.859,31.489 8.095,45.752 -19.443,-23.094 -31.164,-52.903 -31.164,-85.454 0,-73.326 59.442,-132.769 132.768,-132.769 57.247,0 106.031,36.233 124.673,87.016 C 77.25,18.387 40.775,0 0,0"
             style="fill:#935b50;fill-opacity:1;fill-rule:nonzero;stroke:none"
             id="path5849" />
        </g>
        <g
           id="g5851"
           transform="translate(481.3276,134.4093)">
          <path
             d="m 0,0 c 0,-59.781 -48.462,-108.242 -108.242,-108.242 -59.781,0 -108.243,48.461 -108.243,108.242 0,59.781 48.462,108.242 108.243,108.242 C -48.462,108.242 0,59.781 0,0"
             style="fill:#e8e0d9;fill-opacity:1;fill-rule:nonzero;stroke:none"
             id="path5853" />
        </g>
        <g
           id="g5855"
           transform="translate(373.0853,229.7026)">
          <path
             d="M 0,0 C -21.295,0 -40.958,-6.985 -56.824,-18.789 L -84.375,-80.12 c 0,-52.629 62.315,-93.626 114.944,-93.626 l 63.735,64.673 c 0.652,4.499 0.989,9.1 0.989,13.78 C 95.293,-42.664 52.629,0 0,0"
             style="fill:#bd80e1;fill-opacity:1;fill-rule:nonzero;stroke:none"
             id="path5857" />
        </g>
        <g
           id="g5859"
           transform="translate(410.5607,101.8399)">
          <path
             d="m 0,0 c -52.629,0 -95.293,42.664 -95.293,95.293 0,4.68 0.343,9.279 0.995,13.779 -23.346,-17.369 -38.47,-45.168 -38.47,-76.503 0,-52.628 42.664,-95.293 95.293,-95.293 47.949,0 87.62,35.416 94.297,81.515 C 40.957,6.987 21.295,0 0,0"
             style="fill:#af66da;fill-opacity:1;fill-rule:nonzero;stroke:none"
             id="path5861" />
        </g>
        <g
           id="g5863"
           transform="translate(337.6622,171.3215)">
          <path
             d="m 0,0 h -15.634 c -4.142,0 -7.5,3.357 -7.5,7.5 0,4.143 3.358,7.5 7.5,7.5 H 0 C 4.142,15 7.5,11.643 7.5,7.5 7.5,3.357 4.142,0 0,0"
             style="fill:#644187;fill-opacity:1;fill-rule:nonzero;stroke:none"
             id="path5865" />
        </g>
        <g
           id="g5867"
           transform="translate(337.6622,87.595)">
          <path
             d="m 0,0 h -15.634 c -4.142,0 -7.5,3.357 -7.5,7.5 0,4.143 3.358,7.5 7.5,7.5 H 0 C 4.142,15 7.5,11.643 7.5,7.5 7.5,3.357 4.142,0 0,0"
             style="fill:#644187;fill-opacity:1;fill-rule:nonzero;stroke:none"
             id="path5869" />
        </g>
        <g
           id="g5871"
           transform="translate(442.2335,124.4212)">
          <path
             d="m 0,0 h -15.633 c -4.142,0 -7.5,3.357 -7.5,7.5 0,4.143 3.358,7.5 7.5,7.5 H 0 C 4.142,15 7.5,11.643 7.5,7.5 7.5,3.357 4.142,0 0,0"
             style="fill:#644187;fill-opacity:1;fill-rule:nonzero;stroke:none"
             id="path5873" />
        </g>
        <g
           id="g5875"
           transform="translate(327.3815,129.3157)">
          <path
             d="m 0,0 c -1.919,0 -3.839,0.732 -5.303,2.196 -2.929,2.93 -2.929,7.678 0,10.608 L 5.751,23.858 c 2.929,2.928 7.678,2.928 10.607,0 2.929,-2.929 2.929,-7.677 0,-10.607 L 5.303,2.196 C 3.839,0.732 1.919,0 0,0"
             style="fill:#644187;fill-opacity:1;fill-rule:nonzero;stroke:none"
             id="path5877" />
        </g>
        <g
           id="g5879"
           transform="translate(385.0997,111.0764)">
          <path
             d="m 0,0 c -4.142,0 -7.5,3.357 -7.5,7.5 v 15.634 c 0,4.142 3.358,7.5 7.5,7.5 4.142,0 7.5,-3.358 7.5,-7.5 V 7.5 C 7.5,3.357 4.142,0 0,0"
             style="fill:#644187;fill-opacity:1;fill-rule:nonzero;stroke:none"
             id="path5881" />
        </g>
        <g
           id="g5883"
           transform="translate(408.7321,173.3196)">
          <path
             d="m 0,0 c -1.919,0 -3.839,0.732 -5.303,2.197 l -11.054,11.055 c -2.93,2.929 -2.93,7.678 0,10.606 2.929,2.929 7.678,2.928 10.606,-0.001 L 5.303,12.803 C 8.232,9.874 8.232,5.125 5.303,2.196 3.839,0.732 1.919,0 0,0"
             style="fill:#644187;fill-opacity:1;fill-rule:nonzero;stroke:none"
             id="path5885" />
        </g>
        <g
           id="g5887"
           transform="translate(385.0997,59.5413)">
          <path
             d="m 0,0 c -1.919,0 -3.839,0.732 -5.303,2.196 -2.929,2.93 -2.929,7.678 0,10.608 L 5.751,23.858 c 2.929,2.928 7.678,2.928 10.607,0 2.929,-2.929 2.929,-7.677 0,-10.607 L 5.303,2.196 C 3.839,0.732 1.919,0 0,0"
             style="fill:#644187;fill-opacity:1;fill-rule:nonzero;stroke:none"
             id="path5889" />
        </g>
      </g>
    </g>
  </g>
</svg>
