<svg id="Capa_1" enable-background="new 0 0 497 497" height="512" viewBox="0 0 497 497" width="512" xmlns="http://www.w3.org/2000/svg"><g><g><g><path d="m358.682 328.99c-11.02 18.764-35.164 25.042-53.927 14.022-18.764-11.02-25.042-35.164-14.022-53.927 7.69-13.094 39.276-28.99 57.663-37.402 6.637-3.036 14.283 1.453 14.864 8.729 1.61 20.155 3.112 55.484-4.578 68.578z" fill="#d88a55"/></g></g><g><g><path d="m341.614 410.67c15.387 15.387 15.387 40.334 0 55.721s-40.334 15.387-55.721 0c-10.737-10.737-18.174-45.307-21.688-65.219-1.268-7.188 5.001-13.457 12.189-12.189 19.912 3.513 54.483 10.95 65.22 21.687z" fill="#f7b565"/></g></g><g><g><path d="m335.91 195.42c-1.822 21.684-20.877 37.785-42.561 35.963s-37.785-20.877-35.963-42.561c1.271-15.132 22.877-43.124 35.819-58.66 4.672-5.608 13.507-4.866 17.177 1.443 10.167 17.478 26.799 48.683 25.528 63.815z" fill="#f7b565"/></g></g><g><g><path d="m485.46 286.851c15.387 15.387 15.387 40.334 0 55.721s-40.334 15.387-55.721 0c-10.737-10.737-18.174-45.307-21.688-65.22-1.269-7.188 5.001-13.457 12.189-12.189 19.912 3.515 54.483 10.951 65.22 21.688z" fill="#f7b565"/></g></g><g><g><path d="m477.339 425.707c10.105 19.271 2.675 43.086-16.597 53.191-19.271 10.105-43.086 2.675-53.192-16.597-7.052-13.448-3.854-48.664-1.277-68.719.93-7.24 8.782-11.357 15.266-8.005 17.962 9.286 48.748 26.682 55.8 40.13z" fill="#d88a55"/></g></g><g><g><path d="m458.478 208.574c-15.387 15.387-40.334 15.387-55.721 0s-15.387-40.334 0-55.721c10.737-10.737 45.307-18.174 65.219-21.688 7.188-1.268 13.457 5.001 12.189 12.189-3.514 19.912-10.95 54.482-21.687 65.22z" fill="#d88a55"/></g></g><g><g><path d="m230.88 325.606c15.363-15.411 15.323-40.358-.088-55.721s-40.358-15.323-55.721.088c-10.72 10.754-18.102 45.336-21.585 65.254-1.257 7.19 5.022 13.449 12.208 12.169 19.907-3.545 54.465-11.036 65.186-21.79z" fill="#f7b565"/></g></g><g><g><path d="m143.24 419.719c-15.387 15.387-15.387 40.334 0 55.721s40.334 15.387 55.721 0c10.737-10.737 18.174-45.307 21.688-65.22 1.268-7.188-5.001-13.457-12.189-12.189-19.912 3.514-54.483 10.951-65.22 21.688z" fill="#d88a55"/></g></g><g><g><path d="m145.502 149.873c-15.387 15.387-15.387 40.334 0 55.721s40.334 15.387 55.721 0c10.737-10.737 18.174-45.307 21.688-65.219 1.268-7.188-5.001-13.457-12.189-12.189-19.912 3.513-54.482 10.949-65.22 21.687z" fill="#d88a55"/></g></g><g><g><path d="m29.435 289.114c-15.387 15.387-15.387 40.334 0 55.721s40.334 15.387 55.721 0c10.737-10.737 18.174-45.307 21.688-65.22 1.268-7.188-5.001-13.457-12.189-12.189-19.913 3.514-54.483 10.95-65.22 21.688z" fill="#d88a55"/></g></g><g><g><path d="m358.682 80.545c-11.02 18.764-35.164 25.042-53.927 14.022-18.764-11.02-25.042-35.164-14.022-53.928 7.69-13.094 39.276-28.99 57.663-37.402 6.637-3.036 14.283 1.453 14.864 8.729 1.61 20.157 3.112 55.486-4.578 68.579z" fill="#d88a55"/></g></g><g><g><path d="m485.46 38.407c15.387 15.387 15.387 40.334 0 55.721s-40.334 15.387-55.721 0c-10.737-10.737-18.174-45.307-21.688-65.219-1.269-7.188 5.001-13.457 12.189-12.189 19.912 3.513 54.483 10.949 65.22 21.687z" fill="#f7b565"/></g></g><g><g><path d="m230.88 77.161c15.363-15.411 15.323-40.358-.088-55.721s-40.358-15.323-55.721.088c-10.72 10.754-18.102 45.336-21.585 65.254-1.257 7.19 5.022 13.449 12.208 12.169 19.907-3.545 54.465-11.036 65.186-21.79z" fill="#f7b565"/></g></g><g><g><path d="m29.435 40.669c-15.387 15.387-15.387 40.334 0 55.721s40.334 15.387 55.721 0c10.737-10.737 18.174-45.307 21.688-65.22 1.268-7.188-5.001-13.457-12.189-12.189-19.913 3.514-54.483 10.951-65.22 21.688z" fill="#d88a55"/></g></g><g><g><path d="m9.777 437.018c-10.105 19.271-2.675 43.086 16.597 53.191 19.271 10.105 43.086 2.675 53.192-16.597 7.052-13.448 3.854-48.664 1.277-68.719-.93-7.24-8.782-11.357-15.266-8.005-17.962 9.286-48.748 26.682-55.8 40.13z" fill="#f7b565"/></g></g><g><g><path d="m21.852 218.754c15.387 15.387 40.334 15.387 55.721 0s15.387-40.334 0-55.721c-10.737-10.737-45.307-18.174-65.219-21.688-7.188-1.269-13.457 5.001-12.189 12.189 3.513 19.912 10.949 54.482 21.687 65.22z" fill="#f7b565"/></g></g><g><g><path d="m363.26 260.412c-.581-7.276-8.226-11.766-14.864-8.729-4.501 2.059-9.794 4.569-15.333 7.374.092.44.16.892.197 1.356 1.61 20.156 3.112 55.484-4.577 68.578-4.533 7.718-11.288 13.318-18.974 16.476 17.87 7.384 38.903.673 48.974-16.476 7.689-13.095 6.187-48.424 4.577-68.579z" fill="#ae6834"/></g></g><g><g><path d="m341.614 410.67c-10.737-10.737-45.307-18.174-65.219-21.688-4.105-.724-7.904 1.014-10.176 3.974 17.945 4.074 37.735 10.053 45.396 17.714 15.387 15.387 15.387 40.334 0 55.721-3.799 3.799-8.183 6.657-12.86 8.58 14.265 5.865 31.273 3.008 42.86-8.58 15.386-15.387 15.386-40.334-.001-55.721z" fill="#d98f36"/></g></g><g><g><path d="m310.382 131.606c-3.67-6.309-12.505-7.051-17.177-1.443-2.431 2.919-5.169 6.278-8.02 9.908 9.85 17.805 21.811 42.431 20.725 55.349-1.279 15.225-11.059 27.687-24.274 33.136 3.645 1.501 7.576 2.48 11.713 2.827 21.684 1.822 40.739-14.279 42.561-35.963 1.271-15.132-15.361-46.337-25.528-63.814z" fill="#d98f36"/></g></g><g><g><path d="m485.46 286.851c-10.737-10.737-45.307-18.174-65.22-21.688-4.105-.724-7.903 1.014-10.176 3.974 17.945 4.074 37.735 10.053 45.396 17.714 15.387 15.387 15.387 40.334 0 55.721-3.799 3.799-8.183 6.657-12.86 8.58 14.265 5.865 31.273 3.008 42.86-8.58 15.387-15.387 15.387-40.334 0-55.721z" fill="#d98f36"/></g></g><g><g><path d="m477.339 425.707c-7.052-13.448-37.838-30.844-55.8-40.129-6.475-3.347-14.313.755-15.26 7.977 16.706 9.481 35.711 21.951 41.06 32.153 10.105 19.271 2.675 43.086-16.597 53.191-1.085.569-2.187 1.075-3.298 1.534 10.404 4.278 22.556 4.099 33.298-1.534 19.272-10.106 26.702-33.921 16.597-53.192z" fill="#ae6834"/></g></g><g><g><path d="m467.977 131.165c-5.706 1.007-12.616 2.337-19.824 3.974 1.707 2.223 2.557 5.132 2.012 8.215-3.514 19.912-10.95 54.482-21.688 65.219-3.799 3.799-8.183 6.657-12.86 8.58 14.265 5.865 31.273 3.008 42.86-8.58 10.737-10.737 18.174-45.307 21.688-65.219 1.269-7.188-5-13.457-12.188-12.189z" fill="#ae6834"/></g></g><g><g><path d="m230.792 269.885c-11.591-11.554-28.575-14.394-42.819-8.536 4.66 1.915 9.029 4.757 12.819 8.536 15.411 15.363 15.45 40.309.088 55.721-7.653 7.677-27.451 13.689-45.396 17.792 2.274 2.98 6.089 4.732 10.211 3.998 19.907-3.545 54.465-11.036 65.185-21.79 15.362-15.412 15.323-40.358-.088-55.721z" fill="#d98f36"/></g></g><g><g><path d="m208.46 398.032c-5.706 1.007-12.616 2.337-19.824 3.974 1.707 2.223 2.556 5.132 2.012 8.215-3.514 19.912-10.95 54.482-21.688 65.22-3.799 3.799-8.183 6.656-12.86 8.58 14.265 5.865 31.273 3.008 42.86-8.58 10.737-10.737 18.174-45.307 21.688-65.22 1.269-7.189-5-13.458-12.188-12.189z" fill="#ae6834"/></g></g><g><g><path d="m210.722 128.185c-5.706 1.007-12.617 2.337-19.824 3.974 1.707 2.223 2.557 5.132 2.012 8.215-3.514 19.912-10.95 54.482-21.688 65.219-3.799 3.799-8.183 6.657-12.86 8.58 14.265 5.865 31.273 3.008 42.86-8.58 10.737-10.737 18.174-45.307 21.688-65.219 1.269-7.188-5-13.457-12.188-12.189z" fill="#ae6834"/></g></g><g><g><path d="m94.654 267.426c-5.706 1.007-12.616 2.337-19.824 3.974 1.707 2.223 2.556 5.132 2.012 8.215-3.514 19.912-10.95 54.482-21.688 65.22-3.799 3.799-8.183 6.657-12.86 8.58 14.265 5.865 31.273 3.008 42.86-8.58 10.737-10.737 18.174-45.307 21.688-65.22 1.269-7.188-5-13.457-12.188-12.189z" fill="#ae6834"/></g></g><g><g><path d="m363.26 11.967c-.581-7.276-8.226-11.766-14.864-8.729-4.501 2.059-9.794 4.569-15.333 7.374.092.44.16.892.197 1.356 1.61 20.156 3.112 55.485-4.577 68.578-4.533 7.718-11.288 13.318-18.974 16.476 17.87 7.384 38.903.673 48.974-16.476 7.689-13.094 6.187-48.423 4.577-68.579z" fill="#ae6834"/></g></g><g><g><path d="m485.46 38.407c-10.737-10.737-45.307-18.174-65.22-21.688-4.105-.724-7.903 1.015-10.176 3.974 17.945 4.074 37.735 10.053 45.396 17.714 15.387 15.387 15.387 40.334 0 55.721-3.799 3.799-8.183 6.657-12.86 8.58 14.265 5.865 31.273 3.008 42.86-8.58 15.387-15.387 15.387-40.334 0-55.721z" fill="#d98f36"/></g></g><g><g><path d="m230.792 21.44c-11.591-11.554-28.575-14.394-42.819-8.536 4.66 1.916 9.029 4.757 12.819 8.536 15.411 15.363 15.45 40.31.088 55.721-7.653 7.677-27.451 13.689-45.396 17.792 2.274 2.98 6.089 4.732 10.211 3.998 19.907-3.545 54.465-11.036 65.185-21.79 15.362-15.411 15.323-40.358-.088-55.721z" fill="#d98f36"/></g></g><g><g><path d="m94.654 18.982c-5.706 1.007-12.616 2.337-19.824 3.974 1.707 2.223 2.556 5.132 2.012 8.215-3.514 19.912-10.95 54.482-21.688 65.22-3.799 3.799-8.183 6.657-12.86 8.58 14.265 5.865 31.273 3.008 42.86-8.58 10.737-10.737 18.174-45.307 21.688-65.22 1.269-7.189-5-13.458-12.188-12.189z" fill="#ae6834"/></g></g><g><g><path d="m80.843 404.894c-.93-7.24-8.782-11.357-15.266-8.005-4.336 2.242-9.423 4.959-14.739 7.977.001.01.004.019.006.028 2.577 20.055 5.774 55.271-1.277 68.719-4.473 8.529-11.633 14.734-19.894 18.13 18.614 7.689 40.357.056 49.894-18.13 7.05-13.448 3.852-48.664 1.276-68.719z" fill="#d98f36"/></g></g><g><g><path d="m77.572 163.033c-10.737-10.737-45.307-18.174-65.219-21.688-4.105-.725-7.903 1.014-10.176 3.974 17.945 4.074 37.735 10.053 45.396 17.714 15.387 15.387 15.387 40.334 0 55.721-3.799 3.799-8.183 6.657-12.86 8.58 14.265 5.865 31.273 3.008 42.86-8.58 15.386-15.387 15.386-40.334-.001-55.721z" fill="#d98f36"/></g></g></g></svg>