<svg id="Flat" enable-background="new 0 0 496.002 449" height="512" viewBox="0 0 496.002 449" width="512" xmlns="http://www.w3.org/2000/svg"><g><path d="m341.511 346.13c-27.609-.333-42.052 13.927-39.4 47.13-22.584 6.572-19.203 21.207-11.5 37.29 0 0 48.16 10.5 58.89-9.18s-7.99-75.24-7.99-75.24z" fill="#e0ac69"/><path d="m193.891 393.26c-.285-31.428-16.071-43.893-39.4-47.13 0 0-18.72 55.56-7.99 75.24s58.89 9.18 58.89 9.18c5.209-14.828 3.22-27.721-11.5-37.29z" fill="#e0ac69"/><g fill="#ffdbac"><path d="m480.321 161.98c13.22 29.79 18.41 57.73 14.31 77.65-9.84 47.76-54.98 65.35-95.76 80.06 8.559-66.61 32.864-121.328 81.45-157.71z"/><path d="m448.311 107.88v.01c-15.201 75.538-56.105 155.959-106.8 238.24-18.36 13.58-31 29.48-39.39 47.09 15.97-136.021 40.054-260.024 94.77-338.65 19.88 15.95 37.13 34.26 51.42 53.31z"/><path d="m330.971 15.89c1.027 112.219-28.087 267.667-64.17 433.11h-18.8c-20.271-170.493-29.932-330.086 0-449 29.84 0 57.62 5.87 82.97 15.89z"/><path d="m165.031 15.89c43.373 107.824 58.122 263.233 64.17 433.11h-3.02c-10.16 0-18.96-7.29-20.6-17.32-.06-.38-.12-.75-.19-1.13-2.23-13.07-5.92-25.56-11.5-37.29 0-.01-.01-.02-.01-.04-51.241-117.371-87.965-231.427-94.77-338.65 19.54-15.68 41.61-29.08 65.92-38.68z"/><path d="m47.691 107.89c54.841 65.721 86.898 147.656 106.8 238.24-1.83-1.35-3.72-2.68-5.66-3.99-13.21-8.88-31.94-15.32-51.7-22.45-43.665-40.034-70.323-92.977-81.45-157.71 7.9-17.81 18.66-36.27 32.01-54.09z"/></g><path d="m480.321 161.98-81.45 157.71c-19.76 7.13-38.49 13.57-51.7 22.45-1.94 1.31-3.83 2.64-5.66 3.99l106.8-238.24c13.35 17.82 24.11 36.28 32.01 54.09z" fill="#ffeed2"/><path d="m266.801 449 64.17-433.11c24.31 9.6 46.38 23 65.92 38.68l-94.77 338.65-.01.04c-5.58 11.73-9.27 24.22-11.5 37.29-.07.38-.13.75-.19 1.13-1.64 10.03-10.44 17.32-20.6 17.32z" fill="#ffeed2"/><path d="m248.001 0v449h-18.8l-64.17-433.11c25.35-10.02 53.13-15.89 82.97-15.89z" fill="#ffeed2"/><path d="m99.111 54.57 94.77 338.65c-8.39-17.61-21.03-33.51-39.39-47.09l-106.8-238.24v-.01c14.29-19.05 31.54-37.36 51.42-53.31z" fill="#ffeed2"/><path d="m15.681 161.98 81.45 157.71c-40.78-14.71-85.92-32.3-95.76-80.06-4.1-19.92 1.09-47.86 14.31-77.65z" fill="#ffeed2"/><path d="m330.971 15.89-3.07 20.69c-19.8-20.3-36.64-32.05-37.27-32.49 14.04 2.71 27.5 6.72 40.34 11.8z" fill="#efcda5"/><path d="m330.971 15.89c24.31 9.6 46.38 23 65.92 38.68l-16.54 59.1c-12.84-31.66-33.94-58.11-52.45-77.09z" fill="#eddcc3"/><path d="m480.321 161.98c13.22 29.79 18.41 57.73 14.31 77.65-9.84 47.76-54.98 65.35-95.76 80.06z" fill="#efcda5"/><path d="m334.341 278.1-32.22 115.12-.01.04c-5.58 11.73-9.27 24.22-11.5 37.29-.07.38-.13.75-.19 1.13-1.64 10.03-10.44 17.32-20.6 17.32h-3.02l22.39-151.11c14.75-4.33 30.51-10.63 45.15-19.79z" fill="#eddcc3"/><path d="m448.311 107.88v.01l-106.8 238.24c-18.36 13.58-31 29.48-39.39 47.09l32.22-115.12c26.1-16.32 48.67-41.72 55.71-81.24 5.38-30.21.39-58.31-9.7-83.19l16.54-59.1c19.88 15.95 37.13 34.26 51.42 53.31z" fill="#efcda5"/><path d="m289.191 297.89-22.39 151.11h-18.8v-142.86c10.85-1.23 25.44-3.62 41.19-8.25z" fill="#efcda5"/><path d="m480.321 161.97v.01l-81.45 157.71c-19.76 7.13-38.49 13.57-51.7 22.45-1.94 1.31-3.83 2.64-5.66 3.99l106.8-238.24c13.35 17.82 24.11 36.27 32.01 54.08z" fill="#eddcc3"/><path d="m208.091 306.51 21.11 142.49h-3.02c-10.16 0-18.96-7.29-20.6-17.32-.06-.38-.12-.75-.19-1.13-2.23-13.07-5.92-25.56-11.5-37.29 0-.01-.01-.02-.01-.04l-26.11-93.31c15.51 3.74 29.57 5.64 40.32 6.6z" fill="#efcda5"/><path d="m248.001 306.14v142.86h-18.8l-21.11-142.49c12.97 1.15 21.11.93 21.11.93s7.3 0 18.8-1.3z" fill="#eddcc3"/><path d="m127.741 286.47 26.75 59.66c-1.83-1.35-3.72-2.68-5.66-3.99-13.21-8.88-31.94-15.32-51.7-22.45l-81.45-157.71v-.01c4.33-9.75 9.52-19.7 15.52-29.63 0 88.71 47.87 132.51 96.54 154.13z" fill="#efcda5"/><path d="m167.771 299.91 26.11 93.31c-8.39-17.61-21.03-33.51-39.39-47.09l-26.75-59.66c13.62 6.05 27.31 10.37 40.03 13.44z" fill="#eddcc3"/><path d="m15.681 161.98 81.45 157.71c-40.78-14.71-85.92-32.3-95.76-80.06-4.1-19.92 1.09-47.86 14.31-77.65z" fill="#eddcc3"/></g></svg>