<svg height="446pt" viewBox="0 -24 446.018 446" width="446pt" xmlns="http://www.w3.org/2000/svg"><path d="m436.019531 67.546875h-202.050781v-27.851563h202.050781c5.519531 0 10 4.480469 10 10v7.851563c0 5.519531-4.480469 10-10 10zm0 0" fill="#db9c2e"/><path d="m435.945312 59.355469h-168.855468c-4.453125 0-8.058594-2.933594-8.058594-6.554688v-13.105469h-25.0625v27.851563h201.976562c5.5625 0 10.070313-3.667969 10.070313-8.191406v-8.191407c.003906 4.523438-4.507813 8.191407-10.070313 8.191407zm0 0" fill="#bf6c0d"/><path d="m226.390625 88.449219h-76.84375v-69.660157h76.84375c9.941406 0 18 8.058594 18 18v33.660157c0 9.941406-8.058594 18-18 18zm0 0" fill="#db9c2e"/><path d="m223.007812 200.828125c-67.773437 0-122.71875 52.867187-122.71875 118.078125h245.4375c0-65.210938-54.941406-118.078125-122.71875-118.078125zm0 0" fill="#fce575"/><path d="m259.878906 324.90625h-73.738281l-.933594-4.871094c-4.5-23.480468-22.492187-43.042968-45.835937-49.832031l-8.769532-2.550781 5.824219-7.035156c2.492188-3.011719 5.191407-5.921876 8.023438-8.644532 20.757812-19.976562 48.660156-30.976562 78.558593-30.976562 29.902344 0 57.800782 11 78.5625 30.976562 2.832032 2.722656 5.53125 5.632813 8.023438 8.644532l5.824219 7.035156-8.769531 2.550781c-23.34375 6.792969-41.335938 26.351563-45.835938 49.832031zm-63.992187-12h54.246093c5.980469-22.695312 22.613282-41.734375 44.359376-51.066406-.410157-.410156-.828126-.816406-1.242188-1.21875-18.515625-17.8125-43.460938-27.625-70.242188-27.625s-51.726562 9.8125-70.238281 27.625c-.417969.402344-.835937.808594-1.246093 1.21875 21.746093 9.332031 38.382812 28.371094 44.363281 51.066406zm0 0" fill="#ffc34c"/><path d="m259.878906 324.90625h-73.738281l-.933594-4.871094c-3.066406-16.003906-12.167969-30.1875-25.621093-39.9375l-6.019532-4.363281 5.53125-4.964844c16.976563-15.222656 39.671875-23.605469 63.910156-23.605469 24.238282 0 46.9375 8.382813 63.914063 23.605469l5.53125 4.964844-6.019531 4.363281c-13.457032 9.75-22.554688 23.933594-25.621094 39.9375zm-63.988281-12h54.234375c3.804688-14.5625 11.871094-27.628906 23.257812-37.707031-14.027343-10.386719-31.648437-16.035157-50.375-16.035157-18.726562 0-36.347656 5.648438-50.371093 16.035157 11.382812 10.078125 19.453125 23.144531 23.253906 37.707031zm0 0" fill="#ffc34c"/><path d="m259.878906 324.90625h-73.738281l-.933594-4.871094c-1.3125-6.839844-3.757812-13.421875-7.277343-19.558594l-2.410157-4.210937 3.613281-3.238281c12.503907-11.214844 27.675782-17.140625 43.875-17.140625 16.203126 0 31.375 5.925781 43.878907 17.140625l3.613281 3.238281-2.414062 4.210937c-3.515626 6.136719-5.964844 12.71875-7.273438 19.558594zm-63.992187-12h54.242187c1.253906-4.78125 2.984375-9.433594 5.167969-13.914062-9.515625-7.28125-20.589844-11.105469-32.289063-11.105469-11.699218 0-22.773437 3.824219-32.289062 11.105469 2.1875 4.480468 3.914062 9.132812 5.167969 13.914062zm0 0" fill="#ffc34c"/><path d="m212.046875 318.90625c-6.085937-47.160156-44.605469-83.515625-91.222656-83.515625-46.617188 0-85.136719 36.355469-91.222657 83.515625zm0 0" fill="#ffdf74"/><path d="m178.066406 324.90625h-114.480468l2.988281-8.082031c7.648437-20.664063 29.957031-35.097657 54.25-35.097657s46.605469 14.433594 54.25 35.097657zm-96-12h77.519532c-8.058594-11.609375-22.835938-19.179688-38.761719-19.179688-15.921875 0-30.703125 7.570313-38.757813 19.179688zm0 0" fill="#ffc34c"/><path d="m198.359375 324.90625h-155.066406l1.363281-7.128906c6.910156-36.050782 38.945312-62.21875 76.167969-62.21875 37.226562 0 69.257812 26.167968 76.167969 62.21875zm-140.117187-12h125.167968c-8.390625-26.667969-33.625-45.347656-62.585937-45.347656-28.960938 0-54.195313 18.679687-62.582031 45.347656zm0 0" fill="#ffc34c"/><path d="m416.414062 318.90625c-6.085937-47.160156-44.605468-83.515625-91.222656-83.515625-46.617187 0-85.132812 36.355469-91.222656 83.515625zm0 0" fill="#ffdf74"/><path d="m382.433594 324.90625h-114.484375l2.992187-8.082031c7.648438-20.664063 29.957032-35.097657 54.25-35.097657 24.292969 0 46.605469 14.433594 54.25 35.097657zm-96-12h77.519531c-8.058594-11.609375-22.835937-19.179688-38.761719-19.179688-15.921875 0-30.703125 7.570313-38.757812 19.179688zm0 0" fill="#ffc34c"/><path d="m402.726562 324.90625h-155.066406l1.363282-7.128906c6.910156-36.050782 38.945312-62.21875 76.167968-62.21875 37.226563 0 69.257813 26.167968 76.167969 62.21875zm-140.117187-12h125.167969c-8.390625-26.667969-33.625-45.347656-62.585938-45.347656-28.960937 0-54.195312 18.679687-62.582031 45.347656zm0 0" fill="#ffc34c"/><path d="m223.007812 335.160156h-204l39.796876 50.199219c6.355468 8.019531 16.027343 12.691406 26.257812 12.691406h275.894531c10.230469 0 19.902344-4.675781 26.257813-12.691406l39.796875-50.199219zm0 0" fill="#ffeacf"/><path d="m438.019531 335.160156h-430.019531c-4.417969 0-8-3.582031-8-8v-9.828125c0-4.417969 3.582031-8 8-8h430.015625c4.417969 0 8 3.582031 8 8v9.828125c.003906 4.417969-3.578125 8-7.996094 8zm0 0" fill="#ffeacf"/><path d="m427.011719 335.160156h-408.003907l11.386719 14.359375 28.410157 35.839844c6.355468 8.019531 16.027343 12.691406 26.257812 12.691406h38.292969c-10.230469 0-19.902344-4.675781-26.257813-12.691406l-28.410156-35.839844h346.9375zm0 0" fill="#ffd59a"/><path d="m210.5625 192.066406c-66.902344 0-121.136719 22.492188-121.136719 50.234375 0 16.875 50.855469 30.550781 113.59375 30.550781 9.34375 0 18.417969-.304687 27.109375-.875v21.800782c0 8.902344 7.214844 16.117187 16.113282 16.117187 8.902343 0 16.117187-7.214843 16.117187-16.117187v-25.421875c3.308594-.546875 6.5-1.136719 9.574219-1.769531v18.519531c0 8.902343 7.214844 16.117187 16.117187 16.117187 8.898438 0 16.113281-7.214844 16.113281-16.117187v-28.886719c7.957032-4.171875 12.445313-8.90625 12.445313-13.917969h15.09375c-.003906-27.742187-54.238281-50.234375-121.140625-50.234375zm0 0" fill="#ff4b34"/><path d="m344.148438 232.726562c0-27.742187-54.238282-50.234374-121.140626-50.234374-66.902343 0-121.136718 22.492187-121.136718 50.234374 0 16.875 54.234375 30.550782 121.136718 30.550782 6.664063 0 13.195313-.136719 19.566407-.398438v21.324219c0 8.902344 7.214843 16.117187 16.113281 16.117187 8.902344 0 16.117188-7.214843 16.117188-16.117187v-23.851563c3.273437-.390624 6.46875-.820312 9.574218-1.28125v16.460938c0 8.902344 7.214844 16.117188 16.117188 16.117188 8.898437 0 16.113281-7.214844 16.113281-16.117188v-23.410156c17.207031-5.277344 27.539063-12.03125 27.539063-19.394532zm0 0" fill="#ff624b"/><path d="m335.757812 200.828125c0 15.863281-12.859374 28.722656-28.722656 28.722656-15.859375 0-28.71875-12.859375-28.71875-28.722656s12.859375-28.722656 28.71875-28.722656c15.863282 0 28.722656 12.859375 28.722656 28.722656zm0 0" fill="#bf6c0d"/><path d="m320.441406 223.808594c-15.863281 0-28.722656-12.859375-28.722656-28.722656 0-9.214844 4.34375-17.410157 11.089844-22.664063-13.859375 2.042969-24.492188 13.980469-24.492188 28.40625 0 15.863281 12.859375 28.722656 28.71875 28.722656 6.648438 0 12.765625-2.265625 17.632813-6.058593-1.378907.207031-2.789063.316406-4.226563.316406zm0 0" fill="#a56021"/><path d="m219.820312 266.039062c0 15.863282-12.859374 28.722657-28.71875 28.722657-15.863281 0-28.722656-12.859375-28.722656-28.722657 0-15.859374 12.859375-28.71875 28.722656-28.71875 15.859376 0 28.71875 12.859376 28.71875 28.71875zm0 0" fill="#bf6c0d"/><path d="m202.589844 282.316406c-15.863282 0-28.722656-12.859375-28.722656-28.722656 0-4.433594 1.003906-8.632812 2.800781-12.382812-8.542969 4.976562-14.289063 14.230468-14.289063 24.828124 0 15.863282 12.859375 28.722657 28.722656 28.722657 11.425782 0 21.292969-6.675781 25.917969-16.335938-4.242187 2.46875-9.167969 3.890625-14.429687 3.890625zm0 0" fill="#a56021"/><path d="m129.453125 233.808594c0 15.863281-12.859375 28.722656-28.722656 28.722656s-28.722657-12.859375-28.722657-28.722656c0-15.863282 12.859376-28.722656 28.722657-28.722656s28.722656 12.859374 28.722656 28.722656zm0 0" fill="#bf6c0d"/><path d="m87.328125 233.808594c0-13.207032 8.917969-24.328125 21.0625-27.679688-2.441406-.675781-5.007813-1.042968-7.660156-1.042968-15.863281 0-28.722657 12.859374-28.722657 28.722656 0 15.863281 12.859376 28.722656 28.722657 28.722656 2.652343 0 5.21875-.367188 7.660156-1.042969-12.144531-3.351562-21.0625-14.46875-21.0625-27.679687zm0 0" fill="#a56021"/><g fill="#ffdf74"><path d="m143.648438 107.074219h-5.433594c-5.523438 0-10-4.476563-10-10v-87.066407c0-5.523437 4.476562-9.9999995 10-9.9999995h5.433594c5.523437 0 10 4.4765625 10 9.9999995v87.066407c0 5.523437-4.476563 10-10 10zm0 0"/><path d="m194.492188 179.835938h-5.425782c-5.523437 0-10-4.476563-10-10v-81.386719h25.425782v81.386719c0 5.523437-4.480469 10-10 10zm0 0"/><path d="m118.21875 99.484375h-5.421875c-5.523437 0-10-4.476563-10-10v-71.730469c0-5.523437 4.476563-10 10-10h5.421875c5.523438 0 10 4.476563 10 10v71.730469c0 5.523437-4.476562 10-10 10zm0 0"/><path d="m169.066406 147.765625h-5.421875c-5.523437 0-10-4.476563-10-10v-49.316406h25.421875v49.316406c0 5.523437-4.476562 10-10 10zm0 0"/></g><path d="m118.644531 7.753906h-1.703125c-.136718.640625-.210937 1.304688-.210937 1.988282v87.757812c0 .679688.074219 1.34375.210937 1.984375h1.703125c5.289063 0 9.574219-4.285156 9.574219-9.574219v-72.582031c0-5.289063-4.285156-9.574219-9.574219-9.574219zm0 0" fill="#ffd551"/><path d="m153.644531 106.117188c0 5.285156 4.285157 9.574218 9.574219 9.574218h6.273438c5.289062 0 9.574218-4.289062 9.574218-9.574218v-22.453126h-25.421875zm0 0" fill="#ffd551"/><path d="m179.066406 106.117188c0 5.285156 4.285156 9.574218 9.574219 9.574218h6.277344c5.285156 0 9.574219-4.289062 9.574219-9.574218v-22.453126h-25.425782zm0 0" fill="#ffd551"/><path d="m188.640625 170.265625v-81.816406h-9.574219v81.816406c0 5.285156 4.285156 9.574219 9.574219 9.574219h6.277344c.5625 0 1.109375-.058594 1.648437-.152344-4.5-.785156-7.925781-4.699219-7.925781-9.421875zm0 0" fill="#ffd551"/><path d="m194.511719 107.074219h-5.464844c-5.523437 0-10-4.476563-10-10v-87.066407c0-5.523437 4.476563-9.9999995 10-9.9999995h5.464844c5.519531 0 10 4.4765625 10 9.9999995v87.066407c0 5.523437-4.480469 10-10 10zm0 0" fill="#ffdf74"/><path d="m163.21875 138.191406v-49.742187h-9.574219v49.742187c0 5.289063 4.285157 9.574219 9.574219 9.574219h6.273438c.5625 0 1.113281-.058594 1.648437-.152344-4.5-.78125-7.921875-4.699219-7.921875-9.421875zm0 0" fill="#ffd551"/><path d="m169.066406 107.074219h-5.425781c-5.523437 0-10-4.476563-10-10v-87.066407c0-5.523437 4.476563-9.9999995 10-9.9999995h5.425781c5.523438 0 10 4.4765625 10 9.9999995v87.066407c0 5.523437-4.476562 10-10 10zm0 0" fill="#ffdf74"/><path d="m147.289062.691406c-3.710937 1.359375-6.359374 4.851563-6.359374 8.960938v87.746094c0 4.109374 2.648437 7.597656 6.359374 8.960937 3.710938-1.363281 6.359376-4.851563 6.359376-8.960937v-87.746094c0-4.105469-2.648438-7.601563-6.359376-8.960938zm0 0" fill="#ffd551"/><path d="m172.710938.691406c-3.710938 1.363282-6.355469 4.859375-6.355469 8.972656v87.863282c0 4.113281 2.644531 7.609375 6.355469 8.972656 3.710937-1.363281 6.359374-4.859375 6.359374-8.972656v-87.863282c0-4.113281-2.648437-7.609374-6.359374-8.972656zm0 0" fill="#ffd551"/><path d="m175.492188 186.691406c-12.324219-7.113281-24.5625-8.988281-27.335938-4.1875-2.769531 4.804688 4.96875 14.464844 17.292969 21.578125 12.324219 7.117188 24.5625 8.988281 27.332031 4.1875 2.773438-4.800781-4.96875-14.464843-17.289062-21.578125zm0 0" fill="#ccc033"/><path d="m164.890625 196.085938c-7.664063-4.523438-13.441406-9.980469-15.933594-14.5625-.253906.230468-.472656.480468-.65625.757812-3.085937 4.621094 4.339844 14.230469 16.589844 21.464844 12.246094 7.234375 24.679687 9.355468 27.761719 4.734375 1.15625-1.730469.835937-4.160157-.65625-6.898438-3.921875 3.585938-15.59375 1.304688-27.105469-5.496093zm0 0" fill="#ad9b18"/><path d="m238.535156 182.492188c-2.773437-4.800782-15.011718-2.925782-27.332031 4.1875-12.324219 7.117187-20.066406 16.777343-17.292969 21.578124 2.773438 4.800782 15.007813 2.929688 27.332032-4.1875 12.324218-7.113281 20.066406-16.773437 17.292968-21.578124zm0 0" fill="#eacf32"/><path d="m210.640625 194.675781c-7.660156 4.527344-13.4375 9.980469-15.933594 14.5625-.25-.226562-.472656-.480469-.65625-.757812-3.085937-4.621094 4.34375-14.226563 16.589844-21.464844 12.25-7.234375 24.679687-9.355469 27.765625-4.734375 1.15625 1.730469.835938 4.160156-.65625 6.902344-3.925781-3.585938-15.597656-1.308594-27.109375 5.492187zm0 0" fill="#ccc033"/><path d="m345.027344 392.03125c-5.550782 0-9.375-.789062-9.804688-.882812-3.238281-.699219-5.296875-3.890626-4.597656-7.128907.695312-3.234375 3.875-5.289062 7.109375-4.605469.980469.203126 23.164063 4.574219 36.21875-12.738281 1.992187-2.648437 5.757813-3.175781 8.402344-1.179687 2.644531 1.992187 3.171875 5.757812 1.179687 8.402344-11.574218 15.355468-28.089844 18.132812-38.507812 18.132812zm0 0" fill="#fcf9de"/><path d="m266.308594 224.101562c0 8.929688-7.238282 16.167969-16.167969 16.167969s-16.167969-7.238281-16.167969-16.167969c0-8.929687 7.238282-16.167968 16.167969-16.167968s16.167969 7.238281 16.167969 16.167968zm0 0" fill="#ff9079"/><path d="m233.933594 57.796875c-.097656 0-.199219-.003906-.296875-.007813-3.3125-.164062-5.863281-2.976562-5.699219-6.289062.226562-4.589844-.75-8.023438-2.902344-10.210938-3.265625-3.3125-8.554687-3.28125-8.601562-3.28125-3.285156.109376-6.089844-2.480468-6.203125-5.792968s2.480469-6.085938 5.792969-6.199219c1.078124-.035156 10.65625-.15625 17.5625 6.855469 4.601562 4.671875 6.734374 11.140625 6.335937 19.222656-.15625 3.207031-2.808594 5.703125-5.988281 5.703125zm0 0" fill="#ffb74b"/></svg>