<svg height="512" viewBox="0 0 256 256" width="512" xmlns="http://www.w3.org/2000/svg"><g id="Layer_1"><g><g><path d="m192.832 150.01-1.03 7.05-11.93 82.1c-.84 5.79-5.81 10.09-11.67 10.09h-133.3c-5.86 0-10.83-4.3-11.67-10.09l-14.6-100.41c-2.48-17.07 2.64-34.36 13.99-47.34l9.3-10.62c3.21-3.65 5.19-8.18 5.7-12.97.19-1.618.15-2.073.15-8.5l4.57-3.51c15.063 11.565 18.205 8.766 29.63 0 10.773 8.273 14.118 11.987 29.58 0 14.92 11.57 18.17 8.76 29.58 0 15.168 11.656 18.363 8.659 29.63 0l4.57 3.51c0 6.297-.044 6.848.15 8.5.48 4.53 2.28 8.84 5.2 12.38.29.362 4.344 4.981 4.65 5.33-2.45 2.96-4.45 6.28-5.88 9.54-5.56 12.5-4.59 27.94 4.09 40.18l-8.06 17.79c.002-.001 17.79-8.07 17.79-8.07 2.98 2.11 6.2 3.8 9.56 5.04z" fill="#72c2e9"/><path d="m190.342 55.81c-1.648 1.276-3.195 2.459-4.682 3.494-6.703 4.663-12.204 6.325-20.328.016l-4.57-3.51c-11.267 8.659-14.462 11.656-29.63 0-11.41 8.76-14.66 11.57-29.58 0-15.462 11.987-18.807 8.272-29.58 0-11.425 8.766-14.567 11.565-29.63 0l-4.57 3.51c-6.914 5.37-14.164 4.896-19.45.8l-5.56-4.31 14.94-8.68 10.07-5.86h127.56l10.07 5.86z" fill="#efefef"/><path d="m247.922 111.56c0 28.701-28.676 48.235-55.09 38.45-3.36-1.24-6.58-2.93-9.56-5.04 0 0-17.788 8.069-17.79 8.07l8.06-17.79c-8.68-12.24-9.65-27.68-4.09-40.18 1.43-3.26 3.43-6.58 5.88-9.54 7.51-9.12 18.89-14.93 31.63-14.93 22.62 0 40.96 18.33 40.96 40.96z" fill="#efefef"/><path d="m192.832 150.01-1.03 7.05c-3.19-1.06-6.24-2.45-9.11-4.14-2.34 1.07-14.32 6.5-14.32 6.5-5.85 2.65-11.94-3.37-9.27-9.27l6.49-14.32c-11.18-19.08-7.49-40.99 5.09-55.63.29.362 4.344 4.981 4.65 5.33-2.45 2.96-4.45 6.28-5.88 9.54-5.56 12.5-4.59 27.94 4.09 40.18l-8.06 17.79c.002-.001 17.79-8.07 17.79-8.07 2.98 2.11 6.2 3.8 9.56 5.04z" fill="#4ba5c9"/><path d="m182.991 142.786c-1.363-.2-2.635.749-2.833 2.114l-13.245 91.07h-132.011c-1.381 0-2.5 1.119-2.5 2.5s1.119 2.5 2.5 2.5h133.3c1.772 0 3.234-1.273 3.474-3.01l13.43-92.34c.198-1.367-.748-2.636-2.115-2.834z" fill="#c5e5fe"/><path d="m167.562 96.707c-6.004-6.933-12.334-12.269-14.729-23.902-.279-1.353.592-2.674 1.944-2.953 1.351-.276 2.674.592 2.952 1.944 2.078 10.084 7.445 14.52 13.611 21.638.904 1.043.791 2.623-.253 3.526-1.041.903-2.621.791-3.525-.253z" fill="#c5e5fe"/><path d="m165.482 67.82c-2.06-1.03-3.29-2.06-4.72-3.17-9.97 7.663-20.118 7.322-29.63 0-10.26 7.91-20.46 7.06-29.58.04-9.16 7.05-19.36 7.84-29.58-.04-9.847 7.571-20.043 7.397-29.63 0-1.51 1.17-2.64 2.12-4.72 3.17.19-1.618.15-2.073.15-8.5l4.57-3.51c15.063 11.565 18.205 8.766 29.63 0 10.773 8.273 14.118 11.987 29.58 0 14.92 11.57 18.17 8.76 29.58 0 15.168 11.656 18.363 8.659 29.63 0l4.57 3.51c0 6.297-.044 6.848.15 8.5z" fill="#4ba5c8"/><path d="m175.403 47.132c-1.552.741-3.285 1.152-5.107 1.152h-137.479c-1.833 0-3.565-.411-5.117-1.152l10.073-5.859h127.557z" fill="#afaeaf"/><circle cx="101.556" cy="159.938" fill="#f0c020" r="52.496"/><circle cx="101.556" cy="159.938" fill="#fff" r="37.666"/><path d="m170.3 41.272h-137.489c-2.761 0-5-2.239-5-5v-24.522c0-2.761 2.239-5 5-5h137.489c2.761 0 5 2.239 5 5v24.522c0 2.762-2.239 5-5 5z" fill="#fc5d3d"/><path d="m164.519 32.991h-88.041c-1.381 0-2.5-1.119-2.5-2.5s1.119-2.5 2.5-2.5h85.541v-10.46c0-1.381 1.119-2.5 2.5-2.5s2.5 1.119 2.5 2.5v12.959c0 1.382-1.119 2.501-2.5 2.501zm-98.041 0h-27.885c-1.381 0-2.5-1.119-2.5-2.5s1.119-2.5 2.5-2.5h27.885c1.381 0 2.5 1.119 2.5 2.5s-1.119 2.5-2.5 2.5z" fill="#ffcbc3"/><g fill="#f0c020"><path d="m206.702 105.34c-3.13 0-5.667-2.537-5.667-5.667v-10.579c0-3.13 2.537-5.667 5.667-5.667 3.13 0 5.667 2.537 5.667 5.667v10.579c-.001 3.13-2.538 5.667-5.667 5.667z"/><path d="m199.841 117.667c1.565 2.71.636 6.176-2.074 7.741l-9.162 5.29c-2.71 1.565-6.176.636-7.741-2.074-1.565-2.71-.636-6.176 2.074-7.741l9.162-5.29c2.71-1.565 6.176-.636 7.741 2.074z"/><path d="m232.54 128.624c1.565-2.71.636-6.176-2.074-7.741l-9.162-5.29c-2.71-1.565-6.176-.636-7.741 2.074-1.565 2.71-.636 6.176 2.074 7.741l9.162 5.29c2.71 1.565 6.176.636 7.741-2.074z"/></g></g><path d="m156.551 159.938c0-30.325-24.671-54.996-54.995-54.996-30.325 0-54.996 24.671-54.996 54.996 0 30.324 24.671 54.995 54.996 54.995 30.324.001 54.995-24.67 54.995-54.995zm-104.991 0c0-27.568 22.428-49.996 49.996-49.996 27.567 0 49.995 22.428 49.995 49.996 0 27.567-22.428 49.995-49.995 49.995-27.568.001-49.996-22.427-49.996-49.995z"/><path d="m141.722 159.938c0-1.381-1.119-2.5-2.5-2.5s-2.5 1.119-2.5 2.5c0 19.391-15.775 35.166-35.166 35.166-19.392 0-35.167-15.775-35.167-35.166s15.775-35.167 35.167-35.167c1.381 0 2.5-1.119 2.5-2.5 0-1.39-1.131-2.502-2.505-2.502-.009 0-.018.003-.028.003-22.134.018-40.135 18.029-40.135 40.166 0 22.147 18.019 40.166 40.167 40.166s40.167-18.018 40.167-40.166z"/><path d="m115.192 127.51c1.326.557 2.756-.108 3.27-1.33.54-1.27-.06-2.74-1.33-3.28-1.279-.53-2.74.06-3.279 1.34-.531 1.27.068 2.74 1.339 3.27z"/><path d="m137.511 148.41c1.28-.51 1.91-1.96 1.41-3.24-.51-1.29-1.97-1.92-3.25-1.41s-1.91 1.96-1.399 3.25c.486 1.253 1.93 1.924 3.239 1.4z"/><path d="m130.221 135.38c.99-.97 1-2.55.04-3.54-.97-.98-2.55-1-3.54-.03-.979.96-1 2.54-.029 3.53.99 1.012 2.576.975 3.529.04z"/><path d="m104.051 157.438v-17.597c0-1.381-1.119-2.5-2.5-2.5s-2.5 1.119-2.5 2.5v20.097c0 1.381 1.119 2.5 2.5 2.5h15.574c1.381 0 2.5-1.119 2.5-2.5s-1.119-2.5-2.5-2.5z"/><path d="m15.671 101.09c1.173.732 2.718.372 3.45-.79.73-1.17.38-2.72-.79-3.45-1.14-.71-2.74-.34-3.45.8-.743 1.192-.341 2.732.79 3.44z"/><path d="m13.391 105.54c-1.241-.507-2.745.108-3.26 1.37-4.273 10.406-5.546 21.488-3.97 32.2l14.6 100.41c1.01 7.006 7.032 12.23 14.141 12.23h133.3c7.105 0 13.131-5.223 14.14-12.23 12.878-88.617 11.677-80.362 12.532-86.22 11.993 3.487 25.419 1.728 36.439-5.74 1.166-.785 1.425-2.349.67-3.47-.75-1.1-2.37-1.41-3.471-.67-12.875 8.718-30.271 9.063-43.8-.49-1.136-.816-2.108-.404-3.109.05-9.122 4.149-3.333 1.51-11.101 5.04l5.32-11.74c.359-.8.27-1.75-.24-2.48-8.145-11.482-9.056-25.996-3.85-37.71 5.974-13.619 19.583-22.99 35.229-22.99 28.904 0 47.585 30.847 33.98 56.5-.65 1.21-.19 2.73 1.029 3.38 1.217.642 2.737.186 3.381-1.04 15.412-28.926-5.732-63.84-38.391-63.84-12.058 0-23.426 4.942-31.616 13.648-5.249-5.996-7.513-9.173-7.513-17.794 8.331 4.101 14.802.827 19.658-2.731 1.644-1.204 3.102-2.44 4.385-3.434 1.399-1.084 1.259-3.247-.275-4.138l-18.179-10.568c2.58-1.187 4.38-3.79 4.38-6.812v-24.521c0-4.136-3.364-7.5-7.5-7.5h-137.489c-4.136 0-7.5 3.364-7.5 7.5v24.522c0 3.02 1.797 5.622 4.375 6.809l-18.181 10.567c-1.532.89-1.676 3.051-.275 4.138l5.561 4.31c5.372 4.163 12.557 4.773 18.481 1.857 0 5.468-.985 10.35-5.23 15.187l-8.93 10.19c-.9 1.04-.8 2.63.24 3.53 1.032.919 2.628.794 3.529-.23l8.92-10.19c6.646-7.543 6.471-14.808 6.471-21.896 1.461-1.135.985-.766 2.069-1.604 15.072 11.672 20.705 6.912 29.63 0 10.406 8.059 15.943 10.604 29.581.033 15.488 12.008 21.839 5.961 29.579-.033 11.604 8.986 17.247 9.59 29.63 0 1.234.953.762.588 2.07 1.604 0 11.29.222 14.751 9.25 25.076-11.247 15.1-11.197 35.072-1.4 49.88l-7.479 16.51c-.953 2.133 1.261 4.234 3.31 3.31 7.55-3.431 11.846-5.365 16.511-7.49 2.155 1.42 4.841 2.844 7.05 3.78l-12.681 87.19c-.649 4.531-4.6 7.95-9.189 7.95h-133.3c-4.59 0-8.54-3.42-9.2-7.95l-14.6-100.41c-1.424-9.843-.294-19.979 3.649-29.58.521-1.245-.049-2.72-1.361-3.27zm141.067-96.29h15.842c1.379 0 2.5 1.122 2.5 2.5v24.522c0 1.378-1.121 2.5-2.5 2.5h-15.842zm-25.201 0h20.201v29.522h-20.201zm-25.201 0h20.201v29.522h-20.201zm-25.202 0h20.202v29.522h-20.202zm-25.201 0h20.201v29.522h-20.201zm-23.342 2.5c0-1.378 1.121-2.5 2.5-2.5h15.842v29.522h-15.842c-1.379 0-2.5-1.122-2.5-2.5zm132.034 42.085c-.909-.706-2.26-.704-3.164-.005-10.812 8.381-12.681 10.686-26.47 0-.886-.686-2.251-.703-3.16 0-10.916 8.462-12.756 10.63-26.47 0-.868-.668-2.151-.701-3.06 0-13.738 10.647-15.627 8.405-26.471 0-.909-.704-2.266-.691-3.16 0-12.077 9.362-14.036 9.637-26.47 0-.889-.688-2.252-.702-3.163.005-4.219 3.277-12.024 11.192-20.905 4.309l-2.627-2.037 21.221-12.334h126.21l21.221 12.336c-.723.56-1.411 1.069-2.069 1.528-8.246 5.746-11.859 3.657-21.463-3.802z"/><path d="m239.282 140.62s0 0 0-.01c.91-.991.867-2.568-.18-3.53-.99-.88-2.65-.8-3.54.19v.01c-.915 1.039-.839 2.576.189 3.52 1.021.91 2.581.847 3.531-.18z"/><path d="m214.868 99.673v-10.579c0-4.503-3.664-8.167-8.167-8.167s-8.167 3.664-8.167 8.167v10.579c0 4.503 3.664 8.167 8.167 8.167s8.167-3.663 8.167-8.167zm-11.333 0v-10.579c0-1.746 1.421-3.167 3.167-3.167s3.167 1.421 3.167 3.167v10.579c0 1.746-1.421 3.167-3.167 3.167s-3.167-1.421-3.167-3.167z"/><path d="m190.85 113.428-9.162 5.29c-3.899 2.251-5.24 7.256-2.989 11.155 2.253 3.903 7.237 5.252 11.156 2.99l9.161-5.29c3.909-2.257 5.247-7.245 2.989-11.155-2.254-3.908-7.245-5.248-11.155-2.99zm5.666 9.815-9.161 5.29c-1.512.873-3.449.36-4.326-1.159-.873-1.512-.353-3.453 1.159-4.326l9.162-5.29c1.522-.878 3.454-.351 4.325 1.159v.001c.874 1.513.36 3.447-1.159 4.325z"/><path d="m214.387 127.573 9.162 5.29c3.907 2.257 8.9.921 11.155-2.99 2.251-3.9.91-8.904-2.989-11.155l-9.162-5.29c-3.906-2.257-8.899-.921-11.155 2.989-2.258 3.909-.921 8.899 2.989 11.156zm1.341-8.656c.873-1.511 2.805-2.036 4.325-1.159l9.162 5.29c1.512.873 2.032 2.813 1.159 4.326-.875 1.515-2.808 2.034-4.325 1.159l-9.162-5.29c-1.516-.876-2.034-2.808-1.159-4.326z"/></g></g></svg>