<svg height="512pt" viewBox="0 -46 512.00001 512" width="512pt" xmlns="http://www.w3.org/2000/svg"><path d="m383.9375 9.5c-13.101562-12.929688-34.261719-12.558594-47.242188.488281-20.375 20.480469-27.980468 38.042969-30.652343 46.34375-.96875 3-.15625 6.292969 2.074219 8.523438l20.785156 20.789062c2.246094 2.242188 5.554687 3.03125 8.574218 2.054688 8.363282-2.699219 26.042969-10.382813 46.625-30.964844 13.046876-13.054687 12.996094-34.25-.164062-47.234375zm0 0" fill="#ffa0ab"/><path d="m328.71875 75.15625c-2.230469-2.230469-3.039062-5.519531-2.074219-8.523438 2.675781-8.300781 10.28125-25.863281 30.652344-46.339843 7.515625-7.554688 17.765625-10.847657 27.609375-9.789063-.316406-.335937-.636719-.675781-.96875-1.003906-13.101562-12.929688-34.261719-12.558594-47.242188.488281-20.375 20.480469-27.980468 38.042969-30.652343 46.34375-.96875 3-.160157 6.292969 2.070312 8.523438l20.789063 20.785156c2.242187 2.242187 5.550781 3.03125 8.570312 2.058594.84375-.273438 1.785156-.597657 2.8125-.980469zm0 0" fill="#ff6e7f"/><path d="m454.179688 134.546875c-18.40625.125-33.105469 15.347656-33.058594 33.753906.074218 28.886719 7.113281 46.683594 11.09375 54.445313 1.4375 2.804687 4.335937 4.558594 7.492187 4.558594h29.398438c3.171875 0 6.070312-1.78125 7.515625-4.605469 4.003906-7.824219 11.070312-25.757813 11.070312-54.867188 0-18.457031-15.023437-33.40625-33.511718-33.285156zm0 0" fill="#ffa0ab"/><path d="m460.3125 217.003906c-3.15625 0-6.054688-1.757812-7.492188-4.5625-3.980468-7.757812-11.019531-25.554687-11.09375-54.441406-.023437-8.976562 3.464844-17.1875 9.171876-23.265625-16.839844 1.785156-29.820313 16.265625-29.777344 33.566406.074218 28.886719 7.117187 46.683594 11.09375 54.441407 1.441406 2.808593 4.339844 4.5625 7.492187 4.5625h29.398438c3.171875 0 6.070312-1.78125 7.515625-4.605469.777344-1.515625 1.667968-3.414063 2.597656-5.695313zm0 0" fill="#ff6e7f"/><path d="m57.820312 13.105469c18.40625.121093 33.105469 15.34375 33.058594 33.753906-.074218 28.882813-7.113281 46.683594-11.09375 54.441406-1.4375 2.804688-4.335937 4.5625-7.492187 4.5625h-29.398438c-3.171875 0-6.070312-1.78125-7.515625-4.605469-4.003906-7.824218-11.070312-25.761718-11.070312-54.867187 0-18.460937 15.023437-33.410156 33.511718-33.285156zm0 0" fill="#ffa0ab"/><path d="m63.5 95.558594c-3.171875 0-6.070312-1.78125-7.515625-4.605469-4.003906-7.824219-11.074219-25.757813-11.074219-54.863281 0-8.816406 3.433594-16.824219 9.023438-22.777344-16.660156 1.820312-29.625 15.929688-29.625 33.078125 0 29.105469 7.066406 47.039063 11.070312 54.867187 1.445313 2.820313 4.34375 4.601563 7.515625 4.601563h29.398438c3.15625 0 6.054687-1.753906 7.492187-4.558594.78125-1.523437 1.679688-3.4375 2.621094-5.742187zm0 0" fill="#ff6e7f"/><path d="m503.875 215.359375c-18.816406-37.269531-64.574219-51.78125-101.921875-33.113281-58.609375 29.292968-87.664063 61.550781-99.414063 77.464844-4.25 5.753906-4.890624 13.414062-1.707031 19.820312l29.65625 59.726562c3.199219 6.445313 9.742188 10.535157 16.9375 10.621094 19.9375.242188 63.503907-3.492187 122.636719-32.855468 37.5-18.625 52.710938-64.226563 33.8125-101.664063zm0 0" fill="#00c680"/><path d="m8.125 93.917969c18.816406-37.273438 64.574219-51.78125 101.921875-33.117188 58.609375 29.296875 87.664063 61.554688 99.414063 77.464844 4.25 5.753906 4.890624 13.414063 1.707031 19.824219l-29.65625 59.722656c-3.199219 6.445312-9.742188 10.535156-16.9375 10.621094-19.9375.242187-63.503907-3.492188-122.636719-32.855469-37.5-18.621094-52.710938-64.226563-33.8125-101.660156zm0 0" fill="#00c680"/><path d="m185.179688 207.832031c-19.9375.238281-63.503907-3.492187-122.636719-32.859375-37.5-18.621094-52.714844-64.226562-33.8125-101.660156 1.382812-2.738281 2.925781-5.339844 4.585937-7.832031-10.378906 6.925781-19.171875 16.507812-25.191406 28.433593-18.898438 37.4375-3.6875 83.039063 33.816406 101.664063 59.132813 29.363281 102.695313 33.097656 122.632813 32.855469 7.195312-.085938 13.738281-4.175782 16.9375-10.621094l4.988281-10.042969c-.4375.035157-.878906.054688-1.320312.0625zm0 0" fill="#10af63"/><path d="m427.570312 174.625c-8.695312.996094-17.363281 3.496094-25.617187 7.621094-58.609375 29.296875-87.664063 61.550781-99.414063 77.464844-4.25 5.753906-4.890624 13.414062-1.707031 19.820312l29.65625 59.726562c3.199219 6.445313 9.742188 10.535157 16.9375 10.621094 11.460938.136719 30.75-1.046875 56.300781-7.652344 11.449219-43 21.707032-100.371093 23.84375-167.601562zm0 0" fill="#10af63"/><path d="m256 8.828125c-77.488281.511719-139.378906 64.597656-139.175781 142.089844.316406 121.601562 29.953125 217.128906 46.703125 249.796875 6.058594 11.8125 18.265625 19.203125 31.542968 19.203125h123.757813c13.355469 0 25.554687-7.503907 31.636719-19.390625 16.855468-32.9375 46.613281-129.042969 46.613281-251.578125 0-77.707031-63.253906-140.640625-141.078125-140.121094zm0 0" fill="#00c680"/><path d="m194.433594 400.714844c-16.75-32.667969-46.386719-128.195313-46.703125-249.796875-.191407-72.589844 54.105469-133.414063 124.667969-141.242188-5.382813-.589843-10.851563-.886719-16.398438-.847656-77.488281.511719-139.378906 64.597656-139.175781 142.089844.316406 121.601562 29.953125 217.128906 46.703125 249.796875 6.058594 11.8125 18.265625 19.203125 31.542968 19.203125h30.902344c-13.273437 0-25.480468-7.390625-31.539062-19.203125zm0 0" fill="#10af63"/><path d="m187.375 140.015625c-4.265625 0-7.726562-3.460937-7.726562-7.726563v-12.589843c0-4.269531 3.460937-7.726563 7.726562-7.726563s7.726562 3.457032 7.726562 7.726563v12.589843c0 4.265626-3.460937 7.726563-7.726562 7.726563zm0 0" fill="#333941"/><path d="m326.523438 140.015625c-4.265626 0-7.726563-3.460937-7.726563-7.726563v-12.589843c0-4.269531 3.460937-7.726563 7.726563-7.726563 4.269531 0 7.726562 3.457032 7.726562 7.726563v12.589843c0 4.265626-3.457031 7.726563-7.726562 7.726563zm0 0" fill="#333941"/><path d="m256.949219 146.738281c-8.921875 0-17.300781-3.734375-22.988281-10.242187-2.808594-3.210938-2.480469-8.09375.730468-10.902344 3.214844-2.804688 8.09375-2.480469 10.902344.734375 2.753906 3.148437 6.890625 4.957031 11.355469 4.957031 4.464843 0 8.601562-1.808594 11.355469-4.957031 2.808593-3.214844 7.6875-3.539063 10.902343-.730469 3.214844 2.808594 3.539063 7.6875.730469 10.902344-5.6875 6.503906-14.066406 10.238281-22.988281 10.238281zm0 0" fill="#333941"/><g fill="#eaeaea"><path d="m187.375 228.492188c-4.265625 0-7.726562-3.457032-7.726562-7.726563v-16.695313c0-4.269531 3.460937-7.726562 7.726562-7.726562s7.726562 3.457031 7.726562 7.726562v16.695313c0 4.269531-3.460937 7.726563-7.726562 7.726563zm0 0"/><path d="m326.523438 228.492188c-4.265626 0-7.726563-3.457032-7.726563-7.726563v-16.695313c0-4.269531 3.460937-7.726562 7.726563-7.726562 4.269531 0 7.726562 3.457031 7.726562 7.726562v16.695313c0 4.269531-3.457031 7.726563-7.726562 7.726563zm0 0"/><path d="m187.375 314.554688c-4.265625 0-7.726562-3.460938-7.726562-7.726563v-16.699219c0-4.265625 3.460937-7.726562 7.726562-7.726562s7.726562 3.460937 7.726562 7.726562v16.699219c0 4.265625-3.460937 7.726563-7.726562 7.726563zm0 0"/><path d="m326.523438 314.554688c-4.265626 0-7.726563-3.460938-7.726563-7.726563v-16.699219c0-4.265625 3.460937-7.726562 7.726563-7.726562 4.269531 0 7.726562 3.460937 7.726562 7.726562v16.699219c0 4.265625-3.457031 7.726563-7.726562 7.726563zm0 0"/><path d="m256.949219 271.523438c-4.265625 0-7.726563-3.460938-7.726563-7.726563v-16.699219c0-4.265625 3.460938-7.726562 7.726563-7.726562 4.269531 0 7.726562 3.460937 7.726562 7.726562v16.699219c0 4.265625-3.457031 7.726563-7.726562 7.726563zm0 0"/><path d="m81.671875 173.628906c-1.054687 0-2.125-.214844-3.148437-.671875l-15.242188-6.816406c-3.894531-1.742187-5.644531-6.3125-3.902344-10.207031 1.742188-3.894532 6.3125-5.644532 10.207032-3.902344l15.246093 6.816406c3.894531 1.742188 5.640625 6.3125 3.898438 10.207032-1.285157 2.871093-4.105469 4.574218-7.058594 4.574218zm0 0"/><path d="m71.171875 116.140625c-1.054687 0-2.125-.214844-3.148437-.675781l-15.246094-6.816406c-3.894532-1.742188-5.640625-6.308594-3.898438-10.207032 1.738282-3.894531 6.308594-5.640625 10.207032-3.898437l15.242187 6.816406c3.894531 1.742187 5.644531 6.3125 3.902344 10.207031-1.285157 2.871094-4.105469 4.574219-7.058594 4.574219zm0 0"/><path d="m430.328125 294.160156c-2.957031 0-5.773437-1.703125-7.058594-4.574218-1.742187-3.894532.003907-8.464844 3.898438-10.207032l15.246093-6.816406c3.898438-1.742188 8.464844.007812 10.207032 3.902344 1.742187 3.894531-.003906 8.464844-3.898438 10.207031l-15.246094 6.816406c-1.023437.457031-2.097656.671875-3.148437.671875zm0 0"/><path d="m440.828125 236.671875c-2.953125 0-5.773437-1.703125-7.058594-4.574219-1.742187-3.894531.003907-8.464844 3.902344-10.207031l15.242187-6.816406c3.898438-1.742188 8.46875.003906 10.207032 3.898437 1.742187 3.898438-.003906 8.464844-3.898438 10.207032l-15.246094 6.816406c-1.023437.457031-2.09375.675781-3.148437.675781zm0 0"/></g></svg>