<svg id="Layer_1" height="512" viewBox="0 0 64 64" width="512" xmlns="http://www.w3.org/2000/svg" data-name="Layer 1"><path d="m25 58h14v2a3 3 0 0 1 -3 3h-8a3 3 0 0 1 -3-3z" fill="#d1c8a1"/><path d="m50 31a31.4 31.4 0 0 1 -1.24 8.8 32.93 32.93 0 0 1 -3.61 8.14l-6.15 10.06h-4v-9.87a17.278 17.278 0 0 1 15-17.13z" fill="#e8e2bf"/><path d="m28 1a32.273 32.273 0 0 1 4 3.52 37 37 0 0 0 -6.49 8.9 28.749 28.749 0 0 0 -5.28-3.31 43.042 43.042 0 0 1 7.77-9.11z" fill="#afd372"/><path d="m43.77 10.11a33.658 33.658 0 0 0 -11.77 9.89 36.4 36.4 0 0 0 -6.49-6.58 37 37 0 0 1 6.49-8.9 32.273 32.273 0 0 1 4-3.52 43.042 43.042 0 0 1 7.77 9.11z" fill="#68aa22"/><path d="m32 20a33.658 33.658 0 0 1 11.77-9.89 38.911 38.911 0 0 1 6.23 20.89 17.278 17.278 0 0 0 -15 17.13v9.87h-10v-17a32.56 32.56 0 0 1 .21-3.68 35.27 35.27 0 0 1 6.79-17.32z" fill="#afd372"/><path d="m25.51 13.42a36.4 36.4 0 0 1 6.49 6.58 35.27 35.27 0 0 0 -6.79 17.32 17.3 17.3 0 0 0 -11.21-6.32 38.911 38.911 0 0 1 6.23-20.89 28.749 28.749 0 0 1 5.28 3.31z" fill="#8cbf43"/><path d="m25.21 37.32a32.56 32.56 0 0 0 -.21 3.68v17l-6.15-10.06a32.93 32.93 0 0 1 -3.61-8.14 31.4 31.4 0 0 1 -1.24-8.8 17.3 17.3 0 0 1 11.21 6.32z" fill="#e8e2bf"/><g fill="#8cbf43"><path d="m30 54a1 1 0 0 1 -1-1v-8a1 1 0 0 1 2 0v8a1 1 0 0 1 -1 1z"/><circle cx="30" cy="40" r="1"/><path d="m32.773 19.045c-.26.317-.524.632-.773.955-.156.2-.3.422-.446.629a9.38 9.38 0 0 1 3.465 5.565 1 1 0 1 0 1.962-.388 11.345 11.345 0 0 0 -4.208-6.761z"/></g><path d="m25.51 13.42c-.256-.2-.522-.391-.784-.584a39.82 39.82 0 0 0 -2.7 6.922 1 1 0 0 0 .728 1.212 1.017 1.017 0 0 0 .246.03 1 1 0 0 0 .969-.758 36.513 36.513 0 0 1 2.364-6.135c-.274-.228-.54-.467-.823-.687z" fill="#68aa22"/><path d="m40.03 20.242a1 1 0 0 0 .97.758 1.017 1.017 0 0 0 .243-.03 1 1 0 0 0 .728-1.212 37.1 37.1 0 0 0 -2.728-6.9q-.826.6-1.61 1.256a33.921 33.921 0 0 1 2.397 6.128z" fill="#8cbf43"/><path d="m28.559 25.648c-.3.625-.578 1.264-.843 1.911 1.1.981 3.056 3.048 3.392 5.554a1 1 0 0 0 1.983-.265c-.477-3.548-3.321-6.213-4.532-7.2z" fill="#8cbf43"/></svg>