<svg height="512" viewBox="0 0 128 128" width="512" xmlns="http://www.w3.org/2000/svg"><g><g><path d="m53.093 100.665a55.129 55.129 0 0 1 -9.775.389s-2.746-23.892 40.482-15.748l1.115 6.25z" fill="#f9773e"/><path d="m61.688 111.276s-5.013 2.349-8.917 3.65c0 0-12.884-24.5 32.146-23.37z" fill="#f75d28"/><path d="m94.179 93.367s-11.2 16.347-30.744 23.141c0 0-11.233-17.917 21.482-24.952z" fill="#f9773e"/><path d="m116.659 70.246s-8.528 14.3-22.48 23.121a6.715 6.715 0 0 1 -6.491.455 7.059 7.059 0 0 1 -4.115-6.822c-.015-6.511 10.111-10.875 12.751-19.542z" fill="#f75d28"/><path d="m120.637 47.124s2.142 12.258-3.978 23.122a6.876 6.876 0 0 1 -5.261 3.509c-3.447.35-8.861.178-13.015-3.287-5.06-4.219-.71-12.016-.71-12.016z" fill="#f9773e"/><path d="m106.989 25.418s11.546 8.118 13.648 21.706a6.853 6.853 0 0 1 -2.584 6.434c-3.67 2.865-10.549 6.838-19.09 5.237-7.346-1.378-6.321-10.038-6.321-10.038z" fill="#f75d28"/><path d="m85.8 14.777a73.28 73.28 0 0 1 21.188 10.641 6.831 6.831 0 0 1 2.7 5.743c-.2 4.343-2.269 11.508-12.538 16.624-8.474 4.222-16.028-6.493-16.028-6.493z" fill="#f9773e"/><path d="m66.8 11.492a63.453 63.453 0 0 1 19 3.285 6.862 6.862 0 0 1 4.492 6.323c.143 6.539-.981 18.1-10.357 20.569-8.475 2.231-16.256-4.09-16.256-4.09l-3.873-22.167z" fill="#f75d28"/><path d="m16.418 19.031s17.282-7.539 50.382-7.539c0 0-4.246 5.069 0 13.889 3.567 7.41-5.324 23-24.665 10.574-16.001-10.277-23.558-6.513-25.717-16.924z" fill="#f9773e"/></g><path d="m24.307 58.036c-7.619 0-14.631-2.595-17.658-9.846-1.946-4.661-1.867-9.016.234-12.946 5.435-10.163 22.651-13.635 23.381-13.778a1.75 1.75 0 0 1 .672 3.435c-.162.032-16.322 3.3-20.969 12-1.6 3-1.63 6.248-.089 9.942 3.918 9.382 16.959 8.84 26.936 5.523 13.917-4.624 22.7.883 23.063 1.12a1.75 1.75 0 0 1 -1.9 2.942c-.307-.2-7.823-4.807-20.063-.739a44.236 44.236 0 0 1 -13.607 2.347z" fill="#f75d28"/><path d="m47.259 21.81a2.632 2.632 0 1 1 -2.632-2.631 2.633 2.633 0 0 1 2.632 2.631z" fill="#4d5e80"/></g></svg>