<svg id="Layer_1" height="512" viewBox="0 0 512 512" width="512" xmlns="http://www.w3.org/2000/svg" data-name="Layer 1"><path d="m441.78 110.78a9.523 9.523 0 0 1 3.42 16.8 58.054 58.054 0 0 1 -21.88 9.98 70.208 70.208 0 0 1 -13.2 1.74c-34.11 1.35-49.32 24.64-49.32 24.64-10.89-.25-22.95-.38-37.76 2.91-15.48 3.44-27.12 11.72-35.86 21.71 5.78-36.71 22.21-58.37 42.69-70.61 28.17-16.83 64.01-15.82 90.34-11.63 8.32 1.32 15.69 2.96 21.57 4.46z" fill="#edca7c"/><path d="m420.22 106.28-.01.04c-26.33-4.19-62.17-5.2-90.34 11.63 10.38-77.17 81.24-70.84 81.24-70.84-8.45 31.34 9.11 59.17 9.11 59.17z" fill="#ffde8d"/><path d="m423.32 137.56a70.208 70.208 0 0 1 -13.2 1.74c-34.11 1.35-49.32 24.64-49.32 24.64-10.89-.25-22.95-.38-37.76 2.91-15.48 3.44-27.12 11.72-35.86 21.71v.01c-20.85 23.84-25.11 57.41-25.21 58.19-23.79 8.7-32.87 26.01-36.18 40.2l-2.98 170.89c12.77 2.64 25.56.5 32.64-3.67 39.12-23.03 47.01-45.59 27.69-71.78a210.975 210.975 0 0 0 19.39-10.7c38.34-23.67 7.54-51.04 7.54-51.04a91.523 91.523 0 0 1 9.04-1.59c53.52-6.74 55.26-54.99 24.88-61.23 17.85-3.27 36.61-7.05 45.65-25.21 10.11-20.3-11.81-44.45-12.37-45.06 2.12-.78 4.33-1.51 6.66-2.2 63.91-19.08 39.39-47.81 39.39-47.81z" fill="#ffde8d"/><path d="m164.27 140.64s33.27 1.93 40.15 23.85c6.08 19.36-4.81 35.11-15.4 49.87 26.21-16.62 58.4 19.33 24.54 61.37-2.02 2.5-3.81 4.98-5.41 7.42a40.848 40.848 0 0 1 17.64 3.81 23.994 23.994 0 0 1 13.32 16.28c1.39 5.6 1.34 12.75-1 21.9a211.647 211.647 0 0 1 -6.55 21.17c13.8 2.34 24.27 7.95 30.41 16.96 4.57 6.69 6.76 15.25 6.15 25.74-.47 8.21-2.65 17.62-6.73 28.22a45.1 45.1 0 0 1 -12.39 17.66l-26.19 22.96-42.34 37.13a4.113 4.113 0 0 1 -6.27-1.03c-16.38-28.37-23.11-57.6-12.07-87.6-27.83-15.4-31.16-43.84-22.93-71.2 0 0-36.11-28.11-17.98-69.4 0 0-21.78-30.95-21.39-65.29a67.344 67.344 0 0 1 11.04-37.06c8.38-12.66 17.15-20.95 25.17-28.33 0 0-5.19-27.33 18.42-52.01a70.762 70.762 0 0 0 8.3-10.43l.01.01s37.56 3.65 4.78 61.78c-1.2 2.12-2.29 4.2-3.28 6.22z" fill="#f5cb52"/><path d="m138.65 52.22c7-4.75 13.53-8.66 18.85-11.69a9.508 9.508 0 0 1 14.1 9.72 57.991 57.991 0 0 1 -8.84 22.38 70.762 70.762 0 0 1 -8.3 10.43c-23.61 24.68-18.42 52.01-18.42 52.01-8.02 7.38-16.79 15.67-25.17 28.33a67.344 67.344 0 0 0 -11.04 37.06h-.01c-20.92-29.91-24.33-56.08-18.45-78.3 8.29-31.41 35.15-54.92 57.28-69.94z" fill="#e2b74d"/><path d="m91.28 16c14.91 27.11 44.62 35.49 47.37 36.22-22.13 15.02-48.99 38.53-57.28 69.94l-.2-.05c-46.03-62.77 10.11-106.11 10.11-106.11z" fill="#f5cb52"/><path d="m192.13 406.292c-27.83-15.4-31.16-43.9-22.93-71.257 0 0-36.11-28.225-17.98-69.515 0 0-21.78-30.52-21.39-65.52h-.01c-9.391-13.018-15.244-25.6-18.321-37.527-.21.31-.42.611-.629.927a67.344 67.344 0 0 0 -11.04 37.06c-.39 34.34 21.39 65.29 21.39 65.29-18.13 41.29 17.98 69.4 17.98 69.4-8.23 27.36-4.9 55.8 22.93 71.2-11.04 30-4.31 59.23 12.07 87.6a4.113 4.113 0 0 0 6.27 1.03l16.693-14.639c-11.03-24.1-14.32-48.812-5.033-74.049z" fill="#c9a447"/><path d="m111.5 162.473a79.3 79.3 0 0 1 -.129-40.543l-.2.18c-7.751-10.57-12.595-20.586-15.308-29.939a91.273 91.273 0 0 0 -14.493 29.759c-5.88 22.22-2.47 49.07 18.45 78.07h.01a67.424 67.424 0 0 1 11.04-36.83c.209-.316.419-.387.63-.697z" fill="#af8c3e"/><path d="m105.445 33.772a68.682 68.682 0 0 1 -14.165-17.772s-56.14 43.34-10.11 106.11l.2.05a92.422 92.422 0 0 1 14.492-29.989c-7.221-24.897.719-45.079 9.583-58.399z" fill="#c9a447"/><g fill="#af8c3e"><path d="m139.2 335.15a90.963 90.963 0 0 0 -3.777 20.167 121.092 121.092 0 0 1 25.377-44.266c24.46-27.535 31.173-49.394 31.284-58.012a5.941 5.941 0 0 0 -5.924-6.039h-.079a5.908 5.908 0 0 0 -6 5.815c0 .049-.216 4.86-3.759 13.413-3.3 7.962-10.227 20.807-24.5 36.872a140.12 140.12 0 0 0 -18.4 26.573 55.034 55.034 0 0 0 5.778 5.477z"/><path d="m99.882 198.444a58.62 58.62 0 0 1 5.993-11.728c8.357-12.626 16.978-20.559 25.314-28.232 12.144-11.176 23.615-21.733 28.285-43.311a6 6 0 0 0 -11.729-2.538c-3.865 17.861-13.052 26.316-24.683 37.02-2.321 2.136-4.729 4.357-7.188 6.732-1.677 2.187-3.348 4.512-5 7.013a66.917 66.917 0 0 0 -10.992 35.044z"/><path d="m215.43 335.287a5.832 5.832 0 0 0 -8.171-5.106l-.414.182a5.879 5.879 0 0 0 -3.463 5.611c.249 7.555-2.812 26.338-30.78 57.047a157.221 157.221 0 0 0 -10.775 13.152c.1.058.2.119.3.177a86.068 86.068 0 0 0 -5.288 34.586c4.516-13.541 12.7-26.739 24.632-39.834 30.161-33.115 34.467-54.914 33.959-65.815z"/><path d="m116.136 289.512a72.229 72.229 0 0 1 7.291-13.292 443.325 443.325 0 0 1 29.47-38.2c13.686-16.223 21.947-26.016 23.465-46.74a6 6 0 0 0 -11.968-.877c-1.234 16.839-7.325 24.06-20.669 39.878-6.811 8.074-15.049 17.846-24.952 31.675 1.493 2.438 2.447 3.8 2.447 3.8a56.94 56.94 0 0 0 -5.084 23.756z"/></g><path d="m320.49 290.3a6 6 0 1 0 -8.537-8.434c-.132.134-14.3 13.4-55.181 16.557a138.965 138.965 0 0 0 -31.333 6.22l-.22 12.726a127.4 127.4 0 0 1 32.474-6.981c45.967-3.542 62.131-19.411 62.797-20.088z" fill="#d6b574"/><path d="m429.963 108.084c-3.068-.621-6.324-1.22-9.753-1.764l.01-.04a63.188 63.188 0 0 1 -3.416-6.54c-23.394-4.5-55.275-7.1-83.749 2.668a110.792 110.792 0 0 0 -2.964 14.063c17.583-7.625 47.037-13.633 91.78-3.425a6.8 6.8 0 0 0 8.092-4.962z" fill="#d6b574"/><path d="m312.342 170.71c14.768-3.283 26.475-3 37.792-2.737 16.493.39 32.071.76 50.395-11.532a6 6 0 0 0 -6.685-9.965c-15.16 10.17-27.634 9.872-43.425 9.5-11.476-.272-24.485-.581-40.681 3.019a69.965 69.965 0 0 0 -16.774 6.055 129.558 129.558 0 0 0 -4.665 17.284 57.976 57.976 0 0 1 24.043-11.624z" fill="#d6b574"/><path d="m302.634 244.315c21.1-2.171 33.839-3.482 49.3-17.35a6 6 0 1 0 -8.012-8.933c-12.559 11.264-21.947 12.23-42.518 14.346-10.056 1.035-22.137 2.283-37.826 5.089-1.238 5.491-1.668 9.045-1.7 9.293a64.383 64.383 0 0 0 -12.006 5.8c1.642-.445 3.319-.86 5.061-1.218a442.666 442.666 0 0 1 47.701-7.027z" fill="#d6b574"/></svg>