<?xml version="1.0" encoding="iso-8859-1"?>
<!-- Generator: Adobe Illustrator 19.0.0, SVG Export Plug-In . SVG Version: 6.00 Build 0)  -->
<svg version="1.1" id="Capa_1" xmlns="http://www.w3.org/2000/svg" xmlns:xlink="http://www.w3.org/1999/xlink" x="0px" y="0px"
	 viewBox="0 0 512 512" style="enable-background:new 0 0 512 512;" xml:space="preserve">
<path style="fill:#FFFFFF;" d="M495.443,367.107c0.302-2.156,0.469-4.355,0.469-6.595l0,0c0-24.407-18.54-44.482-42.306-46.913
	c0-0.083,0.003-0.165,0.003-0.247c0-30.12-24.417-54.537-54.537-54.537c-23.465,0-43.468,14.82-51.162,35.612
	c-3.21-1.854-6.932-2.92-10.905-2.92c-12.066,0-21.846,9.781-21.846,21.846c0,0.034,0.002,0.068,0.003,0.102
	c-24.617,1.58-44.094,22.043-44.094,47.059l0,0c0,2.239,0.167,4.438,0.469,6.595h223.906V367.107z"/>
<path style="fill:#DFDFE1;" d="M306.95,360.513c0-25.016,19.478-45.478,44.094-47.059c0-0.034-0.002-0.068-0.002-0.102
	c0-12.066,9.781-21.845,21.845-21.845c3.973,0,7.695,1.066,10.906,2.92c5.632-15.218,17.861-27.228,33.214-32.579
	c-5.619-1.957-11.65-3.033-17.935-3.033c-23.466,0-43.467,14.82-51.162,35.612c-3.21-1.854-6.932-2.92-10.905-2.92
	c-12.065,0-21.846,9.781-21.846,21.845c0,0.034,0.002,0.068,0.003,0.102c-24.616,1.58-44.094,22.043-44.094,47.059l0,0
	c0,2.239,0.167,4.438,0.469,6.594h35.884C307.117,364.951,306.95,362.752,306.95,360.513L306.95,360.513z"/>
<path style="fill:#FFDE82;" d="M352.246,120.831H10.699V56.016c5.811-5.811,9.069-9.069,14.879-14.879h311.788
	c5.811,5.811,9.069,9.069,14.879,14.879L352.246,120.831L352.246,120.831z"/>
<path style="fill:#FFA633;" d="M88.39,41.137H25.578c-5.811,5.811-9.069,9.069-14.879,14.879v64.815h62.811V56.016
	C79.32,50.205,82.579,46.947,88.39,41.137z"/>
<path style="fill:#7BCD48;" d="M400.744,470.864h-34.511c-57.303,0-103.756-46.453-103.756-103.756l0,0H504.5l0,0
	C504.501,424.411,458.048,470.864,400.744,470.864z"/>
<path style="fill:#00AD45;" d="M305.709,367.108L305.709,367.108h-43.231l0,0c0,57.303,46.453,103.756,103.756,103.756h34.51
	c1.462,0,2.914-0.038,4.361-0.098C349.825,468.48,305.709,422.949,305.709,367.108z"/>
<path style="fill:#FFDE82;" d="M262.478,367.108L262.478,367.108h9.058c-0.302-2.156-0.469-4.355-0.469-6.594l0,0
	c0-25.016,19.478-45.478,44.094-47.059c0-0.034-0.003-0.068-0.003-0.102c0-10.446,7.333-19.173,17.13-21.33V120.831H30.655v295.001
	l-19.957,55.032h341.547l-0.36-0.992C301.374,462.884,262.478,419.541,262.478,367.108z"/>
<g>
	<path style="fill:#FFA633;" d="M201.472,266.584L201.472,266.584c-25.426,0-46.037-20.611-46.037-46.037l0,0l0,0
		C180.861,220.547,201.472,241.159,201.472,266.584L201.472,266.584z"/>
	<path style="fill:#FFA633;" d="M201.472,266.584L201.472,266.584c25.425,0,46.037-20.611,46.037-46.037l0,0l0,0
		C222.083,220.547,201.472,241.159,201.472,266.584L201.472,266.584z"/>
	<path style="fill:#FFA633;" d="M201.472,300.172L201.472,300.172c-25.426,0-46.037-20.611-46.037-46.037l0,0l0,0
		C180.861,254.135,201.472,274.746,201.472,300.172L201.472,300.172z"/>
	<path style="fill:#FFA633;" d="M201.472,300.172L201.472,300.172c25.425,0,46.037-20.611,46.037-46.037l0,0l0,0
		C222.083,254.135,201.472,274.746,201.472,300.172L201.472,300.172z"/>
	<path style="fill:#FFA633;" d="M201.472,333.76L201.472,333.76c-25.426,0-46.037-20.611-46.037-46.037l0,0l0,0
		C180.861,287.724,201.472,308.335,201.472,333.76L201.472,333.76z"/>
	<path style="fill:#FFA633;" d="M201.472,333.76L201.472,333.76c25.425,0,46.037-20.611,46.037-46.037l0,0l0,0
		C222.083,287.724,201.472,308.335,201.472,333.76L201.472,333.76z"/>
	<path style="fill:#FFA633;" d="M201.472,367.349L201.472,367.349c-25.426,0-46.037-20.611-46.037-46.037l0,0l0,0
		C180.861,321.312,201.472,341.924,201.472,367.349L201.472,367.349z"/>
	<path style="fill:#FFA633;" d="M201.472,367.349L201.472,367.349c25.425,0,46.037-20.611,46.037-46.037l0,0l0,0
		C222.083,321.312,201.472,341.924,201.472,367.349L201.472,367.349z"/>
	<path style="fill:#FFA633;" d="M201.472,186.064L201.472,186.064c-17.978,17.978-17.978,47.127,0,65.107l0,0l0,0
		C219.45,233.192,219.45,204.043,201.472,186.064L201.472,186.064z"/>
	<polygon style="fill:#FFA633;" points="75.967,120.831 30.655,120.831 30.655,415.831 10.699,470.864 56.01,470.864 
		75.967,415.831 	"/>
</g>
<g>
	<path style="fill:#FF7749;" d="M181.473,266.584L181.473,266.584c-25.425,0-46.037-20.611-46.037-46.037l0,0l0,0
		C160.861,220.547,181.473,241.159,181.473,266.584L181.473,266.584z"/>
	<path style="fill:#FF7749;" d="M181.473,266.584L181.473,266.584c25.425,0,46.037-20.611,46.037-46.037l0,0l0,0
		C202.084,220.547,181.473,241.159,181.473,266.584L181.473,266.584z"/>
	<path style="fill:#FF7749;" d="M181.473,300.172L181.473,300.172c-25.425,0-46.037-20.611-46.037-46.037l0,0l0,0
		C160.861,254.135,181.473,274.746,181.473,300.172L181.473,300.172z"/>
	<path style="fill:#FF7749;" d="M181.473,300.172L181.473,300.172c25.425,0,46.037-20.611,46.037-46.037l0,0l0,0
		C202.084,254.135,181.473,274.746,181.473,300.172L181.473,300.172z"/>
	<path style="fill:#FF7749;" d="M181.473,333.76L181.473,333.76c-25.425,0-46.037-20.611-46.037-46.037l0,0l0,0
		C160.861,287.724,181.473,308.335,181.473,333.76L181.473,333.76z"/>
	<path style="fill:#FF7749;" d="M181.473,333.76L181.473,333.76c25.425,0,46.037-20.611,46.037-46.037l0,0l0,0
		C202.084,287.724,181.473,308.335,181.473,333.76L181.473,333.76z"/>
	<path style="fill:#FF7749;" d="M181.473,367.349L181.473,367.349c-25.425,0-46.037-20.611-46.037-46.037l0,0l0,0
		C160.861,321.312,181.473,341.924,181.473,367.349L181.473,367.349z"/>
	<path style="fill:#FF7749;" d="M181.473,367.349L181.473,367.349c25.425,0,46.037-20.611,46.037-46.037l0,0l0,0
		C202.084,321.312,181.473,341.924,181.473,367.349L181.473,367.349z"/>
	<path style="fill:#FF7749;" d="M181.473,186.064L181.473,186.064c-17.978,17.978-17.978,47.127,0,65.107l0,0l0,0
		C199.451,233.192,199.451,204.043,181.473,186.064L181.473,186.064z"/>
</g>
<g>
	<rect x="244.281" y="65.518" style="fill:#FFFFFF;" width="78.337" height="14.999"/>
	<rect x="194.283" y="65.518" style="fill:#FFFFFF;" width="14.999" height="14.999"/>
	<rect x="219.282" y="65.518" style="fill:#FFFFFF;" width="14.999" height="14.999"/>
	<rect x="106.806" y="149.485" style="fill:#FFFFFF;" width="59.628" height="14.999"/>
	<rect x="81.807" y="149.485" style="fill:#FFFFFF;" width="14.999" height="14.999"/>
	<rect x="56.812" y="149.485" style="fill:#FFFFFF;" width="14.999" height="14.999"/>
	<rect x="389.336" y="384.536" style="fill:#FFFFFF;" width="14.999" height="14.999"/>
	<rect x="414.335" y="384.536" style="fill:#FFFFFF;" width="63.998" height="14.999"/>
	<rect x="364.337" y="384.536" style="fill:#FFFFFF;" width="14.999" height="14.999"/>
</g>
<g>
	<path style="fill:#1D1D1F;" d="M254.977,359.606v7.5c0,61.348,49.908,111.257,111.256,111.257h34.51
		c61.348,0,111.257-49.909,111.257-111.257v-7.5L254.977,359.606L254.977,359.606z M400.743,463.363h-34.51
		c-50.553,0-92.129-39.173-95.968-88.758h226.445C492.873,424.191,451.296,463.363,400.743,463.363z"/>
	<path style="fill:#1D1D1F;" d="M38.155,417.149v-288.82h286.634v143.693h14.999V128.328h19.956V52.91l-19.271-19.273H22.471
		L3.197,52.909v75.42h19.958v286.184L0,478.363h292.248v-14.999H21.395L38.155,417.149z M18.196,59.123l10.488-10.487h305.574
		l10.486,10.486v54.208H18.196V59.123z"/>
	<rect x="291.95" y="155.615" style="fill:#1D1D1F;" width="14.999" height="84.787"/>
	<path style="fill:#1D1D1F;" d="M235.008,213.047h-7.5c-9.064,0-17.604,2.272-25.094,6.265c0.179-13.94-5.026-27.937-15.638-38.551
		l-5.303-5.304l-5.304,5.304c-10.614,10.614-15.818,24.61-15.639,38.551c-7.49-3.993-16.03-6.265-25.095-6.265h-7.5v7.5
		c0,9.469,2.481,18.364,6.811,26.089h-6.811v7.5c0,9.468,2.481,18.363,6.811,26.088h-6.811v7.5c0,9.469,2.481,18.364,6.811,26.089
		h-6.811v7.5c0,26.974,20.055,49.341,46.036,53v24.542h15v-24.542c25.98-3.66,46.035-26.026,46.035-53v-7.5h-6.811
		c4.33-7.725,6.811-16.62,6.811-26.089v-7.5h-6.811c4.33-7.725,6.811-16.62,6.811-26.088v-7.5h-6.811
		c4.33-7.725,6.811-16.62,6.811-26.089L235.008,213.047L235.008,213.047z M202.235,252.991c-0.959,0.516-1.899,1.062-2.822,1.634
		c-2.968,1.569-6.153,2.779-9.514,3.531c3.246-14.498,14.683-25.936,29.181-29.182C216.83,239.021,210.644,247.591,202.235,252.991z
		 M209.567,266.093c2.968-1.569,6.153-2.778,9.514-3.531c-2.249,10.046-8.436,18.615-16.843,24.015
		c-0.96,0.516-1.9,1.063-2.824,1.635c-2.968,1.569-6.153,2.778-9.514,3.53c2.249-10.046,8.436-18.615,16.843-24.015
		C207.703,267.212,208.644,266.665,209.567,266.093z M209.567,299.681c2.968-1.569,6.154-2.779,9.514-3.531
		c-2.25,10.047-8.437,18.618-16.846,24.018c-0.959,0.516-1.898,1.062-2.82,1.633c-2.968,1.569-6.154,2.778-9.514,3.531
		c2.249-10.047,8.437-18.617,16.845-24.017C207.704,300.798,208.644,300.252,209.567,299.681z M160.709,320.169
		c-8.41-5.4-14.598-13.971-16.847-24.018c3.361,0.752,6.547,1.962,9.515,3.531c0.923,0.571,1.862,1.117,2.82,1.633
		c8.41,5.4,14.597,13.972,16.846,24.018c-3.361-0.752-6.547-1.962-9.516-3.531C162.606,321.23,161.667,320.684,160.709,320.169z
		 M160.707,286.578c-8.409-5.4-14.595-13.97-16.844-24.016c3.36,0.752,6.547,1.962,9.514,3.531c0.923,0.572,1.863,1.118,2.823,1.634
		c8.409,5.4,14.595,13.97,16.844,24.016c-3.361-0.752-6.547-1.962-9.515-3.531C162.606,287.641,161.666,287.094,160.707,286.578z
		 M181.467,197.975c7.961,12.55,7.961,28.734,0,41.284c-3.894-6.114-5.979-13.218-5.979-20.642S177.573,204.089,181.467,197.975z
		 M173.044,258.156c-3.361-0.752-6.547-1.962-9.515-3.531c-0.922-0.571-1.862-1.117-2.82-1.633
		c-8.41-5.4-14.597-13.971-16.846-24.018C158.359,232.22,169.798,243.658,173.044,258.156z M143.862,329.738
		c3.361,0.753,6.547,1.962,9.515,3.531c0.922,0.571,1.861,1.117,2.819,1.632c8.41,5.4,14.597,13.972,16.847,24.018
		C158.546,355.674,147.108,344.237,143.862,329.738z M189.899,358.92c2.25-10.047,8.437-18.617,16.846-24.018
		c0.959-0.516,1.898-1.062,2.82-1.633c2.968-1.569,6.154-2.779,9.515-3.531C215.834,344.237,204.397,355.674,189.899,358.92z"/>
	<path style="fill:#1D1D1F;" d="M343.964,284.844c-2.27-0.554-4.607-0.839-6.959-0.839c-13.91,0-25.589,9.728-28.596,22.735
		c-20.031,3.663-36.729,18.402-42.6,38.238l14.383,4.257c4.696-15.866,18.941-27.238,35.448-28.298l7.021-0.451v-7.033l-0.002-0.125
		c0.012-7.899,6.443-14.324,14.346-14.324c2.511,0,4.985,0.663,7.154,1.915l7.699,4.446l3.085-8.338
		c6.798-18.371,24.531-30.714,44.128-30.714c25.937,0,47.038,21.101,47.037,47.025l-0.085,7.022l6.818,0.697
		c16.036,1.64,29.359,12.7,33.94,28.176l14.383-4.257c-5.691-19.226-21.173-33.508-40.361-37.798
		c-3.106-31.322-29.607-55.866-61.733-55.866C375.796,251.315,354.513,264.52,343.964,284.844z"/>
	<rect x="308.619" y="336.808" style="fill:#1D1D1F;" width="14.998" height="14.999"/>
	<rect x="333.618" y="336.808" style="fill:#1D1D1F;" width="14.999" height="14.999"/>
	<rect x="358.617" y="336.808" style="fill:#1D1D1F;" width="14.999" height="14.999"/>
	<rect x="131.805" y="428.865" style="fill:#1D1D1F;" width="14.999" height="14.999"/>
	<rect x="81.807" y="428.865" style="fill:#1D1D1F;" width="14.999" height="14.999"/>
	<rect x="106.806" y="428.865" style="fill:#1D1D1F;" width="14.999" height="14.999"/>
	<rect x="56.811" y="428.865" style="fill:#1D1D1F;" width="14.998" height="14.999"/>
</g>
<g>
</g>
<g>
</g>
<g>
</g>
<g>
</g>
<g>
</g>
<g>
</g>
<g>
</g>
<g>
</g>
<g>
</g>
<g>
</g>
<g>
</g>
<g>
</g>
<g>
</g>
<g>
</g>
<g>
</g>
</svg>
