<?xml version="1.0" encoding="UTF-8"?>
<svg xmlns="http://www.w3.org/2000/svg" width="512" height="512" viewBox="0 0 128 128"><g><g><path d="M89.483,39.246a47.757,47.757,0,0,0-13.555,1.963,47.763,47.763,0,0,1-8.2,56.555l-26,26H78.5a47.749,47.749,0,0,0,47.75-47.749V39.246Z" fill="#009959"/><path d="M47.225,21.742H83.992a0,0,0,0,1,0,0V58.509a47.749,47.749,0,0,1-47.749,47.749H-.525a0,0,0,0,1,0,0V69.491a47.75,47.75,0,0,1,47.75-47.75Z" transform="translate(-33.031 48.255) rotate(-45)" fill="#6ebd6a"/><path d="M62.452,71.043,51.589,75.378a18.418,18.418,0,0,0-8.106,6.307V73a14.868,14.868,0,0,1,9.4-13.877l10.862-4.335a1.75,1.75,0,1,0-1.3-3.251L51.589,55.867a18.41,18.41,0,0,0-8.106,6.307v-8.69a14.866,14.866,0,0,1,9.4-13.877,1.75,1.75,0,1,0-1.3-3.251,18.413,18.413,0,0,0-8.107,6.307V23.072a1.75,1.75,0,1,0-3.5,0V42.663a18.4,18.4,0,0,0-8.106-6.307,1.75,1.75,0,1,0-1.3,3.251,14.867,14.867,0,0,1,9.4,13.877v8.69a18.4,18.4,0,0,0-8.106-6.307L21.015,51.532a1.75,1.75,0,0,0-1.3,3.251L30.58,59.118A14.868,14.868,0,0,1,39.983,73v8.69a18.412,18.412,0,0,0-8.106-6.307L21.015,71.043a1.75,1.75,0,1,0-1.3,3.251L30.58,78.629a14.868,14.868,0,0,1,9.4,13.877v10.575a1.75,1.75,0,0,0,3.5,0V92.506a14.868,14.868,0,0,1,9.4-13.877l10.862-4.335a1.75,1.75,0,1,0-1.3-3.251Z" fill="#009959"/><path d="M114.17,51.326a1.751,1.751,0,0,0-2.475,0L97.842,65.18A18.418,18.418,0,0,0,96.57,54.987a1.75,1.75,0,0,0-3.217,1.381A14.868,14.868,0,0,1,90.19,72.831l0,0L84.323,78.7A1.75,1.75,0,0,0,86.8,81.173L92.672,75.3a14.87,14.87,0,0,1,16.455-3.157,1.75,1.75,0,1,0,1.381-3.216,18.4,18.4,0,0,0-10.191-1.272L114.17,53.8A1.751,1.751,0,0,0,114.17,51.326Z" fill="#6ebd6a"/></g><g><path d="M26.035,105.589a1.75,1.75,0,0,0-2.475,2.475l3.751,3.75a1.75,1.75,0,1,0,2.475-2.475Z"/><path d="M39.983,103.081a1.75,1.75,0,0,0,3.5,0V92.506a14.868,14.868,0,0,1,9.4-13.877l10.862-4.335a1.75,1.75,0,1,0-1.3-3.251L51.589,75.378a18.418,18.418,0,0,0-8.106,6.307V73a14.868,14.868,0,0,1,9.4-13.877l10.862-4.335a1.75,1.75,0,1,0-1.3-3.251L51.589,55.867a18.41,18.41,0,0,0-8.106,6.307v-8.69a14.866,14.866,0,0,1,9.4-13.877,1.75,1.75,0,1,0-1.3-3.251,18.413,18.413,0,0,0-8.107,6.307V23.072a1.75,1.75,0,1,0-3.5,0V42.663a18.4,18.4,0,0,0-8.106-6.307,1.75,1.75,0,1,0-1.3,3.251,14.867,14.867,0,0,1,9.4,13.877v8.69a18.4,18.4,0,0,0-8.106-6.307L21.015,51.532a1.75,1.75,0,0,0-1.3,3.251L30.58,59.118A14.868,14.868,0,0,1,39.983,73v8.69a18.412,18.412,0,0,0-8.106-6.307L21.015,71.043a1.75,1.75,0,1,0-1.3,3.251L30.58,78.629a14.868,14.868,0,0,1,9.4,13.877Z"/><path d="M126.25,37.5H101.125a1.75,1.75,0,0,0,0,3.5H124.5V76.013a46.051,46.051,0,0,1-46,46H45.958L57.6,110.376l7.478-7.479a14.87,14.87,0,0,1,16.461-3.162l10.746,4.616a1.75,1.75,0,1,0,1.381-3.216L82.915,96.519a18.4,18.4,0,0,0-10.191-1.272L78.867,89.1h0a14.865,14.865,0,0,1,16.462-3.163l10.746,4.615a1.75,1.75,0,1,0,1.381-3.216L96.712,82.723A18.415,18.415,0,0,0,86.52,81.45L92.669,75.3a14.872,14.872,0,0,1,16.458-3.159,1.75,1.75,0,1,0,1.381-3.216,18.4,18.4,0,0,0-10.191-1.272L114.17,53.8a1.75,1.75,0,1,0-2.475-2.475L97.842,65.18A18.418,18.418,0,0,0,96.57,54.987a1.75,1.75,0,0,0-3.217,1.381A14.868,14.868,0,0,1,90.19,72.831h0L79.4,83.626a49.734,49.734,0,0,0-.93-41.285A46.039,46.039,0,0,1,89.483,41a1.75,1.75,0,0,0,0-3.5,49.509,49.509,0,0,0-12.7,1.663A49.406,49.406,0,0,0,68.969,29l-26-26A1.749,1.749,0,0,0,40.5,3l-26,26a49.557,49.557,0,0,0,0,70,1.75,1.75,0,0,0,2.475-2.475,46.053,46.053,0,0,1,0-65.054l24.76-24.76,24.761,24.76a46.051,46.051,0,0,1,0,65.054l-24.761,24.76L38.848,118.4a1.75,1.75,0,0,0-2.475,2.475L40.495,125a1.78,1.78,0,0,0,.265.217c.026.018.056.029.083.045a1.735,1.735,0,0,0,.217.116c.038.016.079.023.118.037a1.677,1.677,0,0,0,.209.063,1.736,1.736,0,0,0,.346.035H78.5a49.555,49.555,0,0,0,49.5-49.5V39.246A1.749,1.749,0,0,0,126.25,37.5Z"/></g></g></svg>
