<?xml version="1.0" encoding="UTF-8"?>
<svg xmlns="http://www.w3.org/2000/svg" id="outline" viewBox="0 0 512 512" width="512" height="512"><path d="M504,198.55V448c0,30.93-53.73,56-120,56s-120-25.07-120-56V200.12a60,60,0,0,1,26.73-49.93l42.58-28.38a60.05,60.05,0,0,0,26.72-49.93V8H416V73.45A59.347,59.347,0,0,0,417.8,88a59.957,59.957,0,0,0,22.91,33.97l38.58,28.06A60.013,60.013,0,0,1,504,198.55Z" style="fill:#473315"/><path d="M8,240v48a80,80,0,0,0,80,80h96V314L24,240Z" style="fill:#a58855"/><path d="M240,330v51.79A98.21,98.21,0,0,1,141.79,480H80Z" style="fill:#896c3e"/><path d="M504,352c0,30.928-53.726,56-120,56s-120-25.072-120-56V232c0,30.928,53.726,56,120,56s120-25.072,120-56Z" style="fill:#eadeca"/><path d="M417.8,88H357.82a59.793,59.793,0,0,0,2.21-16.12V40H416V73.45A59.347,59.347,0,0,0,417.8,88Z" style="fill:#c68c17"/><circle cx="388" cy="348" r="36" style="fill:#f23f00"/><path d="M8,480H72.79a92.19,92.19,0,0,0,56-18.958l75.019-57.368A92.19,92.19,0,0,0,240,330.442V320a269.959,269.959,0,0,0-128,40C46.942,400.439,18.038,457.377,8,480Z" style="fill:#a58855"/><path d="M208,352c-4.479-1.979-43.27-25.039-96,8-52.044,32.608-63.762,90.842-64,96H88Z" style="fill:#f9c050"/><path d="M184,328V304c-6.916-38.039-36.1-64-74.766-64H8l56.194,61.814A80,80,0,0,0,123.39,328Z" style="fill:#896c3e"/><path d="M100,264H30v.2l34.194,37.614C76.153,314.968,93.757,324.914,111,328h57l-36-48A40,40,0,0,0,100,264Z" style="fill:#f9c050"/><path d="M153.06,308.08,132,280a40,40,0,0,0-32-16H30l23.045,25.55C116.087,276.1,153.056,308.077,153.06,308.08Z" style="fill:#f7d292"/><path d="M199.52,348.152C184.661,342.314,152.428,334.669,112,360a138.048,138.048,0,0,0-44,44.86C145.088,402.144,187.644,361.428,199.52,348.152Z" style="fill:#f7d292"/><rect x="360" y="8" width="56" height="32" style="fill:#8f4c2e"/><path d="M484,143.56,445.415,115.5A52.157,52.157,0,0,1,424,73.446V8a8,8,0,0,0-8-8H360.034a8,8,0,0,0-8,8V71.883a51.9,51.9,0,0,1-23.162,43.271L286.29,143.531A67.864,67.864,0,0,0,256,200.117V448c0,18.243,14.122,34.881,39.764,46.848C319.466,505.908,350.8,512,384,512s64.534-6.092,88.236-17.152C497.878,482.881,512,466.243,512,448V198.554A68.2,68.2,0,0,0,484,143.56ZM408.325,80H367.548a68.449,68.449,0,0,0,.487-8.117V48H408V73.446C408,75.645,408.113,77.831,408.325,80ZM408,16V32H368.034V16Zm57.47,464.349C443.842,490.441,414.909,496,384,496s-59.842-5.559-81.47-15.651C283.128,471.294,272,459.5,272,448V383.651a96.1,96.1,0,0,0,23.764,15.2C319.466,409.908,350.8,416,384,416s64.534-6.092,88.236-17.152A96.1,96.1,0,0,0,496,383.651V448C496,459.5,484.872,471.294,465.47,480.349Zm0-96C443.842,394.441,414.909,400,384,400s-59.842-5.559-81.47-15.651C283.128,375.294,272,363.5,272,352V263.651a96.1,96.1,0,0,0,23.764,15.2C319.466,289.908,350.8,296,384,296s64.534-6.092,88.236-17.152A96.1,96.1,0,0,0,496,263.651V352C496,363.5,484.872,375.294,465.47,384.349ZM496,232c0,11.5-11.128,23.294-30.53,32.349C443.842,274.441,414.909,280,384,280s-59.842-5.559-81.47-15.651C283.128,255.294,272,243.5,272,232V200.117a51.9,51.9,0,0,1,23.163-43.271l42.582-28.377A67.881,67.881,0,0,0,363.625,96h48.254A68.149,68.149,0,0,0,436,128.44l38.58,28.059A52.157,52.157,0,0,1,496,198.554Z"/><path d="M388,304a44,44,0,1,0,44,44A44.05,44.05,0,0,0,388,304Zm0,72a28,28,0,1,1,28-28A28.031,28.031,0,0,1,388,376Z"/><path d="M239.582,312.011A280.921,280.921,0,0,0,192,318.661V304a7.987,7.987,0,0,0-.129-1.431c-3.748-20.615-13.47-38.21-28.114-50.883C148.875,238.808,130.021,232,109.234,232H8a7.973,7.973,0,0,0-7.991,8H0v48a88.128,88.128,0,0,0,77.2,87.336A284.58,284.58,0,0,0,.688,476.755,8,8,0,0,0,8,488H72.79c2.409,0,4.813-.1,7.21-.28V488h61.79A106.33,106.33,0,0,0,248,381.79V320a8,8,0,0,0-8.418-7.989ZM193.07,354.353,85.016,448H57.9c4.11-15.167,15.941-47.71,45.544-72H104v-.447a123.664,123.664,0,0,1,12.248-8.774l.076-.046c.882-.548,1.764-1.079,2.646-1.611C144.283,350.08,169.636,346.425,193.07,354.353ZM109.234,248c34.065,0,60.2,22.245,66.766,56.737V320h-4l-33.6-44.8A48.23,48.23,0,0,0,100,256H33.358l-7.273-8ZM152,320H123.39a72.139,72.139,0,0,1-53.275-23.568L47.9,272H100a32.151,32.151,0,0,1,25.6,12.8ZM88,360a72.081,72.081,0,0,1-72-72V260.693l42.274,46.5A88.173,88.173,0,0,0,123.39,336h16.721a273.028,273.028,0,0,0-29.049,15.209c-.964.569-1.927,1.158-2.888,1.755-.133.082-.265.159-.4.242l-.012.008-.011.007-.157.1q-5.245,3.266-10.187,6.679Zm53.79,112h-14.7q3.368-2.167,6.563-4.6l75.019-57.368a99.775,99.775,0,0,0,23.277-25.3A90.315,90.315,0,0,1,141.79,472ZM232,330.442a84.687,84.687,0,0,1-33.049,66.877l-75.019,57.367A84.654,84.654,0,0,1,72.79,472H20.647a271.536,271.536,0,0,1,26.007-41.566c-4.625,12.342-6.49,21.838-6.646,25.2A8,8,0,0,0,48,464H88a8,8,0,0,0,5.239-1.954l120-104a8.023,8.023,0,0,0-2-13.361c-.2-.092-.49-.238-.861-.422a94.624,94.624,0,0,0-23.091-7.975A265.937,265.937,0,0,1,232,328.568v1.874Z"/><rect x="288" y="296" width="16" height="48"/></svg>
