<svg id="Слой_1" enable-background="new 0 0 512 512" height="512" viewBox="0 0 512 512" width="512" xmlns="http://www.w3.org/2000/svg"><g><g fill="#ffe4ab"><path d="m143.7 156.8c13.3 0 24.1-8 24.1-17.8s-10.8-17.8-24.1-17.8-24.1 8-24.1 17.8 10.8 17.8 24.1 17.8z"/><path d="m395.5 245.9c-4.7-4.5-11.7-7.6-19.1-8.5-1.6-.2-3.1-.3-4.7-.3-13.8 0-24.7 7.4-26 17.6-.7 6 2 12.2 7.6 16.8 4.7 3.9 11.1 6.6 17.9 7.4 1.6.2 3.1.3 4.7.3 5.9 0 11.4-1.3 15.9-3.9 5.8-3.3 9.4-8.1 10.1-13.7.8-5.5-1.5-11.1-6.4-15.7z"/><path d="m227.9 230.1c-16.3 0-29.5 10.6-29.5 23.7s13.3 23.7 29.5 23.7 29.5-10.6 29.5-23.7-13.2-23.7-29.5-23.7z"/><path d="m251 52.1c16.8 0 30.5-10.1 30.5-22.6.1-12.4-13.6-22.5-30.5-22.5-16.8 0-30.5 10.1-30.5 22.6 0 12.4 13.7 22.5 30.5 22.5z"/><path d="m229.9 82.2c0-15.2-16.7-27.6-37.3-27.6s-37.3 12.4-37.3 27.6 16.7 27.6 37.3 27.6c20.5 0 37.3-12.4 37.3-27.6z"/><path d="m251.3 123c-19 0-34.4 11.4-34.4 25.4s15.4 25.4 34.4 25.4 34.4-11.4 34.4-25.4-15.4-25.4-34.4-25.4z"/><path d="m157.3 179.2c-6 0-12.2 1.1-18.1 3.3-21.2 7.8-33.7 26.8-27.9 42.5 4 10.8 15.7 17.5 30.7 17.5 6 0 12.2-1.1 18.1-3.3 10.2-3.8 18.8-10.2 24.1-18.2s6.7-16.6 3.9-24.2c-4.1-10.9-15.8-17.6-30.8-17.6z"/><path d="m138.8 296.8c-1.4 0-2.7.1-4.1.3-13.7 1.7-23.9 11.4-22.6 21.5 1.1 9 10.8 15.6 23.1 15.6 1.4 0 2.7-.1 4.1-.3 6.5-.8 12.7-3.6 16.9-7.6 4.3-4.1 6.3-9 5.7-14-1.1-9-10.8-15.5-23.1-15.5z"/><path d="m293.9 187.2c-13.3 0-24.1 8-24.1 17.8s10.8 17.8 24.1 17.8 24.1-8 24.1-17.8-10.8-17.8-24.1-17.8z"/><path d="m312.7 92.9c1.7.2 3.4.3 5 .3 6.4 0 12.3-1.4 17.2-4.2 6.3-3.5 10.1-8.8 10.9-14.8 1.5-12.4-10.8-24.1-27.5-26.2-1.7-.2-3.4-.3-5-.3-6.3 0-12.3 1.4-17.2 4.2-6.3 3.5-10.1 8.8-10.9 14.8-1.5 12.4 10.8 24.1 27.5 26.2z"/><path d="m372 171.7c11.9 0 21.3-5.1 25.2-13.7 3.1-6.8 2.1-15.1-2.7-22.8-4.3-6.8-11.1-12.6-19.3-16.2-6-2.7-12.4-4.1-18.5-4.1-2.7 0-5.3.3-7.8.8-8.3 1.8-14.5 6.4-17.4 12.9s-2.2 14.2 2 21.5c4.2 7.4 11.3 13.6 20 17.5 5.8 2.6 12.3 4.1 18.5 4.1z"/></g><g fill="#1d2228"><path d="m143.7 163.8c17.4 0 31.1-10.9 31.1-24.8s-13.6-24.8-31.1-24.8c-17.4 0-31.1 10.9-31.1 24.8s13.7 24.8 31.1 24.8zm0-35.1c9.8 0 16.6 5.4 16.6 10.3s-6.8 10.3-16.6 10.3-16.6-5.4-16.6-10.3 6.8-10.3 16.6-10.3z"/><path d="m321.6 512h.2c3.6 0 6.6-2.9 6.7-6.6.5-18 1.5-34.9 2.8-50.8 5.5-64 17.2-111.1 26.5-140.3 4.3-13.5 8.1-23.2 10.5-28.9.7.1 1.4.3 2.1.3 1.9.2 3.7.3 5.6.3 7 0 13.7-1.6 19.3-4.8 7.7-4.3 12.6-11.2 13.6-18.9s-2.2-15.6-8.6-21.7c-5.9-5.6-14.1-9.3-23-10.4-11.5-1.4-22 1.5-29.2 7.3-5.1 4.1-8.4 9.6-9.2 16-.7 5.3.6 10.5 3.2 15.1 2.9 5 7.5 9.3 13.4 12.3-9.9 23.4-37.2 98.8-40.5 223.9-.1 4 2.8 7.1 6.6 7.2zm31.7-256.4c.8-6.4 8.9-10.9 18.5-10.9 1.2 0 2.5.1 3.8.2 5.8.7 11.2 3.1 14.8 6.5 1.8 1.7 4.7 5.1 4.1 9.3-.5 4.2-4.2 6.8-6.3 8-4.3 2.4-10.1 3.4-15.9 2.7-11.2-1.4-19.9-8.6-19-15.8z"/><path d="m192.6 116.7h.2c2.2 27.6 5.4 69.5 8.7 116-6.2 5.5-10 12.9-10 21 0 9.4 5.1 17.9 13.1 23.5 6.3 94.2 11.7 194 8.9 227.5-.3 3.7 2.4 7 6.2 7.3h.6c3.5 0 6.4-2.7 6.7-6.2 2.8-33.7-2.2-130.1-8.4-222.5 3 .7 6.2 1.1 9.4 1.1 4.8 0 9.5-.8 13.7-2.3-2.3 102.2-3.6 201.5-.9 223.9.4 3.4 3.3 5.9 6.7 5.9h.8c3.7-.4 6.3-3.8 5.9-7.5-2.7-22.2-1.2-125.7 1.2-230.5 5.7-5.4 9.1-12.5 9.1-20.2 0-7.3-3.1-14-8.2-19.3.5-18.4.9-36.6 1.4-54 19.8-2.4 35.1-15.8 35.1-32 0-15.7-14.4-28.8-33.3-31.8.7-23.6 1.3-43.7 1.7-58.7 15.8-3.5 27.5-14.9 27.5-28.4-.2-16.2-17-29.5-37.7-29.5s-37.5 13.3-37.5 29.6c0 15.4 15 28 34 29.4-.5 14.9-1 34.6-1.7 57.4-20.2 2.1-35.9 15.7-35.9 32.1 0 15.9 14.8 29.2 34.2 31.9-.4 14.7-.8 30-1.2 45.5-4.6-1.7-9.7-2.7-15-2.7-4.8 0-9.3.8-13.5 2.2-3.2-44.2-6.2-83.8-8.3-110.2 17.8-4.5 30.7-17.5 30.7-32.9 0-19.1-19.9-34.6-44.3-34.6s-44.3 15.5-44.3 34.6c0 18.9 19.9 34.4 44.4 34.4zm35.5-87.1c0-8.1 10.5-15 23-15s23 6.9 23 15-10.5 15-23 15-23-6.9-23-15zm-3.7 118.9c0-9.7 12.3-17.9 26.9-17.9s26.9 8.2 26.9 17.9-12.3 17.9-26.9 17.9-26.9-8.2-26.9-17.9zm3.5 89.1c11.9 0 22 7.4 22 16.1s-10.1 16.1-22 16.1-22-7.4-22-16.1 10.1-16.1 22-16.1zm-35.3-175.4c16.1 0 29.8 9.2 29.8 20 0 10.9-13.6 20-29.8 20-16.1 0-29.8-9.2-29.8-20 0-10.9 13.6-20 29.8-20z"/><path d="m142.1 249.5c6.6 0 13.5-1.2 20.4-3.7 1.2-.4 2.3-.9 3.5-1.4 2.7 13.7 6 31.4 9.2 52.8 4.6 30.4 9.3 68.1 12.5 111.4 2.2 29.8 3.8 62.2 4.1 96.8 0 3.7 3.1 6.7 6.7 6.7h.1c3.7 0 6.7-3.1 6.7-6.8-1.4-125.2-17.8-222.6-27.1-268 4.7-3.5 8.6-7.7 11.7-12.3 6.5-9.9 8.2-20.7 4.6-30.5-7.1-19.2-33-27.5-57.7-18.4-24.8 9.1-39.1 32.2-32.1 51.4 5.2 13.8 20.1 22 37.4 22zm-.3-59.9c5.2-1.9 10.5-2.8 15.5-2.8 11.2 0 20.7 4.6 23.6 12.6 1.9 5.3.8 11.5-3.1 17.4-4.4 6.7-11.6 12.1-20.4 15.3-17 6.2-34.9 1.8-39.1-9.7-4.1-11.5 6.6-26.5 23.5-32.8z"/><path d="m168.9 311.5c-1.8-14.2-17.1-23.6-35-21.4-17.8 2.2-30.4 15.1-28.7 29.3 1.6 12.8 14.2 21.7 29.8 21.7 1.5 0 3-.1 4.6-.3 5.2 12.6 19.6 55.9 27.6 164.9.3 3.5 3.2 6.2 6.7 6.2h.5c3.7-.3 6.5-3.5 6.2-7.2-7.4-100.3-20.4-148.8-28-167.7 3.1-1.5 6-3.4 8.4-5.7 5.9-5.5 8.7-12.7 7.9-19.8zm-17.9 9.3c-3.1 2.9-7.7 4.9-12.6 5.5-9.3 1.2-18-2.9-18.8-8.8-.7-5.8 6.8-11.9 16-13.1 1.1-.1 2.1-.2 3.1-.2 8 0 15 3.8 15.6 9 .6 3.5-1.8 6.3-3.3 7.6z"/><path d="m278.3 65.9c-1.7 14 9.3 27.2 25.6 32.2-3.8 20.9-8.5 49.4-13.3 82.3-15.8 1.3-27.7 11.7-27.7 24.7 0 11.1 8.6 20.2 20.9 23.5-12.5 93.7-23.7 205.7-19.7 277.1.2 3.6 3.2 6.4 6.7 6.4h.4c3.7-.2 6.6-3.4 6.4-7.1-1-17.7-1-37.8-.4-59.4 2-66.1 10.7-146.3 20.1-215.8 1-.1 1.9-.2 2.8-.3 14.4-2.2 24.9-12.1 24.9-24.3 0-10.7-8.1-19.7-19.9-23.2-.3-.1-.7-.2-1-.3 1.2-8 2.4-15.7 3.5-23.1 3.6-23 6.9-42.9 9.6-58.3h.6c7.4 0 14.6-1.7 20.5-5.1 8.1-4.6 13.4-11.9 14.4-20 2-16.2-13.1-31.4-33.6-33.9-9.5-1.2-19 .5-26.5 4.7-8.1 4.4-13.3 11.7-14.3 19.9zm32.2 139.1c0 4.9-6.8 10.3-16.6 10.3s-16.6-5.4-16.6-10.3 6.8-10.3 16.6-10.3 16.6 5.5 16.6 10.3zm-17.8-137.3c.6-4.8 4.7-7.8 7.1-9.1 3.7-2.1 8.5-3.2 13.5-3.2 1.4 0 2.7.1 4.1.3 12.4 1.5 22 9.7 21 17.7-.6 4.8-4.7 7.8-7.1 9.1-4.8 2.7-11.2 3.8-17.6 3-12.4-1.6-22-9.8-21-17.8z"/><path d="m325 125.7c-3.8 8.6-3 18.5 2.2 27.8 4.1 7.3 10.7 13.6 18.7 18.1-20.1 57.5-51.9 172.6-56.1 333-.1 3.7 2.8 6.8 6.6 6.9h.2c3.6 0 6.6-2.9 6.7-6.6.4-15.6 1.1-30.7 2-45.3 8.2-134.6 35.4-231.8 53.1-282.9.5.1 1 .2 1.5.4 4 1 8 1.5 11.9 1.5 14.2 0 26.6-6.4 31.7-17.8 7.6-16.9-3.9-38.5-25.5-48.2-10.1-4.5-21-5.9-30.7-3.8-10.6 2.3-18.5 8.3-22.3 16.9zm31.6-3.3c5 0 10.3 1.2 15.5 3.5 14.1 6.3 22.4 19.6 18.2 29s-19.7 12.1-33.8 5.8c-7.3-3.3-13.2-8.4-16.6-14.3-3-5.2-3.5-10.5-1.6-14.7 1.9-4.3 6.2-7.3 12.1-8.6 1.9-.5 4-.7 6.2-.7z"/></g></g></svg>