<svg id="Capa_1" enable-background="new 0 0 506.54 506.54" height="512" viewBox="0 0 506.54 506.54" width="512" xmlns="http://www.w3.org/2000/svg"><g id="XMLID_526_"><path id="XMLID_3724_" d="m278.895 199.95 10.913 28.314-57.293 196.56-127.896 23.284-51.284 58.432c-5.77-15.29 9.96-50.53 6.92-65.46-3.24-15.95-28.515-38.326-15.15-45.74 26.585-14.747 32.098-30.49 11.06-46.92-12.91-10.082-4.83-33.49-1.26-48.18 1.27-5.19 3.55-9.98 6.24-14.55 0 0 14.69-.78 16.95-4.09 3.73-5.44-.68-22.31-.68-22.31.2-.47.38-.93.56-1.4 6.19-16.52 4.14-34.94 10.34-47.1 13.09-25.66 18.19-16.58 32.19-35.62 64.71 1.382 105.92-6.22 141.26 0 7.06 1.24 10.16 24.91 17.13 24.78z" fill="#ebd4ce"/><path id="XMLID_3731_" d="m443.545 135.2c-2.53 13.23-14.03 25.88-15 39.58-1 14.22 8.63 27.89 10.52 40.76 2.46 16.79-.86 41.86-11.74 69.47 0 0-25.34 12.69-28.61 19.17-2.73 5.4 10.93 16.28 10.93 16.28-2.91 4.78-6.04 9.57-9.42 14.33-44 62.1-115.48 99.09-167.71 117.41-1.27.45-29.18-.86-38.96 1.28-5.85 1.28-11.81 12.73-17.89 14.27-25.88 6.54-53.9 14.69-85.01 18.12-7.34.82-14.35 3.1-20.69 6.63-6.35 3.52-12 8.28-16.63 14.04l210.1-285.57 15.46-21.02c37.77-.7 73.2-20.92 93.19-54.14 33.52-55.67 92.29-88.64 93.21-89.15-7.28 19.25-15.09 12.94-21.57 36.26-3.29 11.84 2.62 27.75-.18 42.28z" fill="#dabba6"/><path id="XMLID_3723_" d="m408.805 23.37v74.588l-89.03 46.422c-19.78 9.9-45.58 51.013-68.22 49.973-40.87-1.88-80.576-16.051-131.05-19.183l4.18-70.93 32.88-48.42 17.33 9.21 6.58-27.48 70.08-31.58 13.24 4.03 16.17-10h88.16z" fill="#dabba6"/><path id="XMLID_3732_" d="m465.305 56.65s-24.431 3.228-68.881 51.088c-11.02 11.87-62.519 29.582-76.649 36.642l14-19.02 75.03-101.99z" fill="#a6908a"/><path id="XMLID_3726_" d="m333.775 125.36 5.193 56.057-75.533 39.553c-1.88-.22-3.75-.5-5.63-.83-35.34-6.23-81-19.3-137.3-44.97 43.14-18.14 93.81-29.87 134.68-27.99 28.16 1.3 55.57-6.54 78.59-21.82z" fill="#faecd8"/><path id="XMLID_3729_" d="m465.305 56.65s-59.44 54.89-93.22 111c-22.71 37.72-65.31 58.69-108.65 53.32l70.34-95.61c8.72-5.78 16.81-12.63 24.07-20.45 44.45-47.86 107.46-48.26 107.46-48.26z" fill="#ebd4ce"/><path id="XMLID_3705_" d="m427.325 285.01c-4.53 11.51-10.38 23.47-17.68 35.45-15.17 3.03-33.95 5.46-55.16 5.46-30.67 0-66.41-5.08-103.67-20.78l11.65-27.65c47.56 20.05 92.6 20.06 122.01 16.53 18.6-2.23 33.51-6.11 42.85-9.01z" fill="#987f77"/><path id="XMLID_3468_" d="m212.865 85.93-25.17 16.33-30.13-46.44 7.33-10.79 16.58-7.48z" fill="#a6908a"/><path id="XMLID_3466_" d="m292.715 67.8-29.56 5.12-11.6-66.95 13.24-5.97h16.17z" fill="#a6908a"/><path id="XMLID_3706_" d="m136.225 301.34-6.35 29.32c-25.84-5.59-52.18-28.24-68.73-44.97 5.45-9.24 12.57-17.56 16.27-26.4 14.71 15.61 39.14 37.79 58.81 42.05z" fill="#dabba6"/><path id="XMLID_3704_" d="m232.515 452.2c-1.27.45-2.53.89-3.78 1.31-13.39 4.55-25.4 7.83-35.18 9.97-5.85 1.28-11.81 2.73-17.89 4.27-35.17-17.78-45.74-45.25-46.37-46.98l28.16-10.34c1.31 3.12 16.75 37.11 75.06 41.77z" fill="#987f77"/></g></svg>