<svg id="Capa_1" enable-background="new 0 0 512 512" height="512" viewBox="0 0 512 512" width="512" xmlns="http://www.w3.org/2000/svg"><g><g><path d="m256 269.5-32.19 14.083-127.81 55.917 51.79 53.408c18.092 18.658 28.21 44.741 28.21 70.729 0 14.072 8.858 26.71 22.174 31.26 18.737 6.401 38.281 9.602 57.826 9.602s39.09-3.201 57.826-9.602c13.316-4.55 22.174-17.188 22.174-31.26 0-25.989 10.118-52.072 28.21-70.729l51.79-53.408z" fill="#5fd9b3"/><path d="m227.79 392.908-3.98-4.104v-105.221l-127.81 55.917 51.79 53.408c18.092 18.658 28.21 44.741 28.21 70.729 0 14.072 8.858 26.71 22.174 31.26 18.737 6.401 38.281 9.602 57.826 9.602v-40.862c0-25.988-10.118-52.071-28.21-70.729z" fill="#00ce8e"/></g><g><path d="m438.244 168.62c4.948-9.689 7.756-20.652 7.756-32.278 0-39.264-31.83-71.094-71.094-71.094-11.839 0-22.993 2.91-32.812 8.029-16.084-33.666-47.989-58.324-86.094-64.349-5.922-.936-11.993-1.428-18.178-1.428-63.789 0-115.5 51.711-115.5 115.5 0 18.086 4.161 35.2 11.572 50.441-10.359-3.982-21.607-6.17-33.368-6.17-51.377 0-93.026 41.649-93.026 93.025 0 51.377 41.649 93.026 93.026 93.026 25.671 0 48.914-10.399 65.745-27.214 10.79 39.434 46.872 68.417 89.729 68.417 25.757 0 49.067-10.469 65.912-27.382 18.911 13.518 42.07 21.475 67.088 21.475 63.789 0 115.5-51.711 115.5-115.5 0-46.174-27.099-86.014-66.256-104.498z" fill="#00ce8e"/><path d="m256 8.928c-5.922-.936-11.993-1.428-18.178-1.428-63.789 0-115.5 51.711-115.5 115.5 0 18.086 4.161 35.2 11.572 50.441-10.359-3.982-21.607-6.17-33.368-6.17-51.377 0-93.026 41.649-93.026 93.025 0 51.377 41.649 93.026 93.026 93.026 25.671 0 48.914-10.399 65.745-27.214 10.79 39.434 46.872 68.417 89.729 68.417 25.757 0 49.067-10.469 65.912-27.382-110.134-85.108-138.538-239.479-65.912-358.215z" fill="#00b27a"/></g><g><g><g><ellipse cx="176.443" cy="288.123" fill="#ff8e9e" rx="29.355" ry="23.377"/></g><g><ellipse cx="335.557" cy="288.123" fill="#ff8e9e" rx="29.355" ry="23.377"/></g></g></g><g><path d="m492.354 206.412c-11.171-17.271-26.398-31.408-44.33-41.226 3.637-9.164 5.477-18.837 5.477-28.845 0-55.394-56.206-93.776-108.024-72.872-21.341-38.562-62.081-63.469-107.655-63.469-67.822 0-123 55.178-123 123 0 13.398 2.102 26.418 6.263 38.877-7.695-1.603-15.65-2.293-23.563-2.063-4.141.123-7.397 3.578-7.275 7.719s3.587 7.38 7.718 7.275c11.389-.34 22.632 1.556 33.238 5.633 6.353 2.442 12.398-4.189 9.437-10.279-7.178-14.763-10.817-30.631-10.817-47.162 0-59.552 48.449-108 108-108 41.229 0 78.028 23.214 96.273 59.03l-.529 1.89c-2.498 8.926 11.42 14.849 14.841 2.628 41.98-19.349 90.093 11.563 90.093 57.793 0 9.321-1.995 18.273-5.888 26.659l-1.945.931c-8.503 4.069-3.385 18.251 7.525 13.027 35.836 18.384 58.807 55.741 58.807 96.159 0 85.682-95.733 137.553-167.52 90.118.206-12.032-14.817-10.773-14.979-1.363l-.034 2.017c-15.907 14.931-36.545 23.136-58.467 23.136-37.435 0-70.578-24.536-81.644-60.024 5.177-9.304-8.142-16.219-12.91-7.647l-1.181 2.122c-53.775 52.505-145.265 14.556-145.265-61.18 0-35.707 22.506-67.975 56.004-80.295 3.888-1.43 5.88-5.74 4.45-9.628-1.43-3.889-5.74-5.884-9.628-4.45-39.372 14.48-65.826 52.406-65.826 94.373 0 57.343 48.26 103.553 106.062 100.354l36.344 37.479c16.583 17.103 26.094 40.979 26.094 65.509 0 17.373 10.95 32.788 27.25 38.358 19.432 6.638 39.704 10.004 60.25 10.004s40.818-3.366 60.251-10.005c16.298-5.569 27.249-20.984 27.249-38.357 0-5.116.428-10.304 1.271-15.418.674-4.087-2.093-7.946-6.18-8.621-4.096-.663-7.946 2.094-8.621 6.18-.976 5.919-1.471 11.928-1.471 17.859 0 10.958-6.872 20.669-17.098 24.163-17.868 6.104-36.507 9.199-55.401 9.199s-37.533-3.095-55.401-9.198c-10.228-3.495-17.099-13.206-17.099-24.164 0-28.393-11.053-56.075-30.326-75.95l-28.829-29.73c13.978-3.413 27.116-9.809 38.45-18.748 15.179 37.502 51.984 62.815 93.206 62.815 24.838 0 48.286-8.94 66.69-25.304 10.097 6.461 21.17 11.43 32.7 14.712-6.214 7.084-11.502 15.062-15.733 23.797-1.806 3.728-.247 8.214 3.48 10.02 3.743 1.811 8.219.235 10.02-3.48 4.294-8.866 9.825-16.82 16.437-23.64l3.029-3.124c74.099 9.895 139.376-47.911 139.376-121.889 0-23.767-6.794-46.833-19.646-66.705z"/><path d="m201.051 265.62v-12c0-4.143-3.358-7.5-7.5-7.5s-7.5 3.357-7.5 7.5v12c0 4.143 3.358 7.5 7.5 7.5s7.5-3.357 7.5-7.5z"/><path d="m325.949 265.62v-12c0-4.143-3.358-7.5-7.5-7.5s-7.5 3.357-7.5 7.5v12c0 4.143 3.358 7.5 7.5 7.5s7.5-3.357 7.5-7.5z"/><path d="m256 280.264c8.478 0 16.54-3.672 22.119-10.073 2.721-3.123 2.396-7.86-.727-10.582s-7.861-2.396-10.582.727c-2.729 3.133-6.669 4.929-10.81 4.929s-8.081-1.796-10.81-4.929c-2.722-3.122-7.459-3.447-10.582-.727-3.123 2.722-3.448 7.459-.727 10.582 5.579 6.401 13.641 10.073 22.119 10.073z"/></g></g></svg>