<svg width="214" height="214" viewBox="0 0 214 214" fill="none" xmlns="http://www.w3.org/2000/svg">
<g clip-path="url(#clip0_7_83)">
<path d="M148 0H66C29.5492 0 0 29.5492 0 66V148C0 184.451 29.5492 214 66 214H148C184.451 214 214 184.451 214 148V66C214 29.5492 184.451 0 148 0Z" fill="url(#paint0_linear_7_83)"/>
<path d="M83.5118 133.126C83.7491 132.592 83.8678 132.028 83.8678 131.435C83.8678 128.824 81.2275 127.519 75.9468 127.519C72.2681 127.519 69.0345 128.083 66.2458 129.21C63.4571 130.278 61.6771 131.939 60.9058 134.194C60.6685 135.025 60.5498 135.588 60.5498 135.885C60.5498 137.25 61.2915 138.258 62.7748 138.911C64.2581 139.564 66.2161 139.89 68.6488 139.89C72.3275 139.89 75.5315 139.356 78.2608 138.288C80.9901 137.161 82.7405 135.44 83.5118 133.126ZM37.8548 82.04L49.6918 80.527V105.981L67.8478 102.243V114.08L48.0898 116.928L44.8858 117.284C42.9871 117.462 41.3258 116.631 39.9018 114.792C38.5371 112.893 37.8548 110.728 37.8548 108.295V82.04ZM45.9538 134.372C45.9538 129.151 48.5941 125.264 53.8748 122.713C59.1555 120.162 65.9788 118.886 74.3448 118.886C81.6428 118.886 87.4871 120.043 91.8778 122.357C96.2685 124.612 98.4638 128.142 98.4638 132.948C98.4638 138.169 95.8235 142.056 90.5428 144.607C85.2621 147.158 78.4388 148.434 70.0728 148.434C62.7748 148.434 56.9305 147.277 52.5398 144.963C48.1491 142.708 45.9538 139.178 45.9538 134.372ZM70.6068 83.286L82.4438 81.328V93.61L86.6268 93.165V78.836L98.4638 76.878V112.745L86.6268 114.525V100.819L82.4438 101.264V112.745L70.6068 114.525V83.286ZM156.158 146.565V78.836L170.665 76.878V106.96L177.785 106.159V113.902L170.665 114.614V146.565H156.158ZM111.124 123.336L116.553 122.98V99.039L127.589 98.06V122.268L134.442 121.823V97.526L145.478 96.547V121.2L153.666 120.666V133.393H116.998C115.396 133.393 114.002 132.829 112.815 131.702C111.688 130.575 111.124 129.18 111.124 127.519V123.336ZM111.124 85.6L150.907 81.417V91.474L111.124 95.034V85.6Z" fill="white"/>
</g>
<defs>
<linearGradient id="paint0_linear_7_83" x1="107" y1="0" x2="107" y2="258.726" gradientUnits="userSpaceOnUse">
<stop stop-color="#2AD696"/>
<stop offset="1" stop-color="#1FB57D"/>
</linearGradient>
<clipPath id="clip0_7_83">
<rect width="214" height="214" fill="white"/>
</clipPath>
</defs>
</svg>
