<svg id="Layer_1" height="512" viewBox="0 0 256 256" width="512" xmlns="http://www.w3.org/2000/svg"><g><path d="m89.549 136.387c7.764-.01 15.242-.184 21.137-.184 21.687 0 35.233-13.961 34.69-26.048-.682-15.173-18.061-26.445-39.268-21.909-31.49 6.736-60.211 26.113-60.211 38.213 0 6.939 14.174 9.123 30.355 9.724z" fill="#fae6ca"/><path d="m89.549 137.888c-.828 0-1.499-.67-1.5-1.498s.67-1.501 1.498-1.502c4.03-.006 7.983-.056 11.677-.102 3.424-.043 6.626-.083 9.462-.083 10.932 0 20.822-3.786 27.133-10.388 4.062-4.248 6.27-9.385 6.059-14.093-.263-5.847-3.233-11.248-8.363-15.21-7.426-5.734-18.03-7.666-29.093-5.3-31.789 6.799-59.025 25.888-59.025 36.746 0 3.262 5.016 7.337 28.911 8.226.828.031 1.474.727 1.443 1.555-.031.827-.734 1.483-1.555 1.443-14.806-.551-31.8-2.323-31.8-11.224 0-13.397 30.412-33.053 61.397-39.68 11.929-2.552 23.43-.416 31.554 5.858 5.841 4.511 9.224 10.708 9.526 17.45.252 5.604-2.193 11.393-6.886 16.301-6.875 7.19-17.555 11.314-29.302 11.314-2.825 0-6.015.04-9.425.083-3.705.046-7.669.096-11.71.102 0 .002-.001.002-.001.002z" fill="#3a312a"/><path d="m186.243 136.387c-7.764-.01-15.242-.184-21.137-.184-21.687 0-35.233-13.961-34.69-26.048.682-15.173 18.061-26.445 39.268-21.909 31.49 6.736 60.212 26.113 60.212 38.213 0 6.939-14.174 9.123-30.356 9.724z" fill="#fae6ca"/><path d="m186.243 137.888c-.001 0-.001 0-.002 0-4.042-.006-8.006-.056-11.711-.102-3.41-.043-6.6-.083-9.425-.083-11.747 0-22.427-4.124-29.301-11.313-4.693-4.908-7.139-10.698-6.887-16.302.303-6.742 3.686-12.939 9.527-17.45 8.125-6.273 19.626-8.41 31.554-5.858 30.985 6.627 61.397 26.282 61.397 39.68 0 8.9-16.994 10.673-31.8 11.224-.838.037-1.524-.616-1.555-1.443-.03-.828.615-1.523 1.443-1.555 23.896-.889 28.911-4.964 28.911-8.226 0-10.858-27.236-29.947-59.024-36.746-11.064-2.366-21.668-.435-29.094 5.3-5.13 3.962-8.1 9.363-8.363 15.21-.211 4.708 1.997 9.846 6.059 14.094 6.311 6.601 16.201 10.387 27.133 10.387 2.837 0 6.039.04 9.463.083 3.693.046 7.646.096 11.677.102.828.001 1.499.674 1.498 1.502-.001.826-.673 1.496-1.5 1.496z" fill="#3a312a"/><path d="m57.015 181.64s3.408 12.659 13.222 13.246c0 0-13.1 4.525-13.321 14.202 0 0-2.579-13.572-12.925-14.059 0 .001 12.05-1.825 13.024-13.389z" fill="#d7e057"/><path d="m56.915 210.588c-.713 0-1.335-.506-1.472-1.217-.024-.125-2.495-12.418-11.523-12.844-.77-.036-1.387-.65-1.427-1.421-.04-.77.511-1.444 1.273-1.561.441-.068 10.894-1.816 11.754-12.032.061-.726.634-1.301 1.359-1.367.718-.066 1.393.398 1.583 1.102.032.116 3.259 11.626 11.864 12.142.714.043 1.297.584 1.396 1.292.098.708-.319 1.388-.994 1.622-.121.042-12.118 4.311-12.313 12.819-.018.767-.61 1.396-1.374 1.46-.042.003-.085.005-.126.005zm-7.741-15.73c3.878 1.969 6.23 5.746 7.587 8.877 2.027-4.021 5.942-6.787 8.949-8.428-4.134-1.842-6.783-5.651-8.334-8.723-1.794 4.361-5.272 6.869-8.202 8.274z" fill="#3a312a"/><path d="m35.316 198.621s2.411 8.954 9.352 9.369c0 0-9.266 3.201-9.422 10.045 0 0-1.824-9.6-9.142-9.944 0 0 8.524-1.291 9.212-9.47z" fill="#d7e057"/><path d="m35.245 219.535c-.713 0-1.337-.508-1.472-1.22-.016-.082-1.704-8.442-7.739-8.727-.77-.036-1.387-.65-1.427-1.421-.04-.77.511-1.444 1.273-1.561.296-.047 7.364-1.242 7.942-8.113.061-.725.635-1.303 1.36-1.368.727-.066 1.392.399 1.582 1.101.021.079 2.227 7.92 7.994 8.266.714.043 1.299.584 1.396 1.293.098.709-.32 1.389-.996 1.622-.081.028-8.282 2.952-8.413 8.661-.018.768-.611 1.397-1.376 1.461-.041.004-.083.006-.124.006zm-4.519-11.527c2.107 1.332 3.523 3.394 4.447 5.279 1.376-2.232 3.515-3.871 5.365-4.972-2.287-1.27-3.884-3.351-4.941-5.225-1.174 2.288-3.015 3.877-4.871 4.918z" fill="#3a312a"/><path d="m35.316 171.963s2.411 8.954 9.352 9.369c0 0-9.266 3.201-9.422 10.045 0 0-1.824-9.6-9.142-9.944 0 .001 8.524-1.291 9.212-9.47z" fill="#d7e057"/><path d="m35.245 192.878c-.713 0-1.337-.508-1.472-1.22-.016-.082-1.704-8.442-7.739-8.727-.77-.036-1.387-.65-1.427-1.421-.04-.77.511-1.444 1.273-1.561.296-.047 7.364-1.242 7.942-8.113.061-.726.635-1.303 1.36-1.368.727-.066 1.392.399 1.582 1.102.021.079 2.227 7.92 7.994 8.266.714.043 1.299.584 1.396 1.293.098.709-.32 1.389-.996 1.622-.081.028-8.282 2.952-8.413 8.661-.018.768-.611 1.398-1.376 1.461-.041.003-.083.005-.124.005zm-4.519-11.527c2.107 1.332 3.523 3.393 4.447 5.279 1.376-2.232 3.515-3.871 5.365-4.972-2.287-1.27-3.884-3.351-4.941-5.225-1.174 2.288-3.015 3.877-4.871 4.918z" fill="#3a312a"/><path d="m155.102 212.019c-7.617 0-14.183 2.504-17.206 6.117-3.024-3.612-9.589-6.117-17.206-6.117-16.309 0-37.794 13.518-37.794 27.159 0 1.923 31.571-4.303 46.934-8.854 5.267-1.56 10.865-1.56 16.132 0 15.363 4.551 46.934 10.776 46.934 8.854 0-13.641-21.485-27.159-37.794-27.159z" fill="#fae6ca"/><path d="m191.38 241.025c-2.301 0-7.058-.537-17.395-2.551-10.283-2.004-21.45-4.638-28.449-6.711-4.998-1.48-10.283-1.48-15.281 0-6.999 2.073-18.166 4.707-28.449 6.711-17.826 3.474-19.057 2.554-19.718 2.062-.439-.328-.692-.823-.692-1.357 0-6.81 4.896-14.074 13.432-19.932 7.963-5.465 17.631-8.728 25.861-8.728 7.089 0 13.489 2.06 17.206 5.457 3.717-3.397 10.116-5.457 17.206-5.457 8.23 0 17.898 3.263 25.861 8.728 8.537 5.857 13.433 13.122 13.433 19.932 0 .534-.252 1.029-.692 1.357-.277.207-.655.489-2.323.489zm-53.485-13.373c2.857 0 5.714.411 8.492 1.234 14.219 4.212 39.504 9.143 44.954 9.17-1.181-12.355-21.508-24.537-36.24-24.537-6.917 0-13.219 2.189-16.056 5.579-.57.682-1.73.682-2.301 0-2.837-3.39-9.139-5.579-16.056-5.579-14.732 0-35.059 12.182-36.239 24.537 5.448-.026 30.733-4.957 44.953-9.17 2.779-.822 5.636-1.234 8.493-1.234z" fill="#3a312a"/><path d="m179.144 106.005c0 42.248-18.467 115.708-41.248 115.708s-41.248-73.46-41.248-115.708 18.467-89.542 41.248-89.542c22.78 0 41.248 47.295 41.248 89.542z" fill="#fae6ca"/><path d="m137.895 223.213c-14.795 0-25.52-26.979-30.597-43.06-7.381-23.383-12.151-52.488-12.151-74.148 0-42.102 18.673-91.042 42.748-91.042s42.748 48.94 42.748 91.042c0 21.661-4.77 50.766-12.15 74.148-5.076 16.081-15.802 43.06-30.598 43.06zm0-205.25c-22.018 0-39.748 48.164-39.748 88.042 0 21.38 4.715 50.131 12.012 73.245 8.217 26.032 18.327 40.963 27.736 40.963s19.519-14.931 27.736-40.963c7.297-23.114 12.012-51.865 12.012-73.245.001-39.878-17.73-88.042-39.748-88.042z" fill="#3a312a"/><circle cx="104.146" cy="52.213" fill="#87796f" r="6"/><path d="m104.146 59.713c-4.136 0-7.5-3.364-7.5-7.5s3.364-7.5 7.5-7.5 7.5 3.364 7.5 7.5-3.364 7.5-7.5 7.5zm0-12c-2.481 0-4.5 2.019-4.5 4.5s2.019 4.5 4.5 4.5 4.5-2.019 4.5-4.5c0-2.482-2.019-4.5-4.5-4.5z" fill="#3a312a"/><circle cx="171.646" cy="52.213" fill="#87796f" r="6"/><path d="m171.645 59.713c-4.136 0-7.5-3.364-7.5-7.5s3.364-7.5 7.5-7.5 7.5 3.364 7.5 7.5-3.364 7.5-7.5 7.5zm0-12c-2.481 0-4.5 2.019-4.5 4.5s2.019 4.5 4.5 4.5c2.482 0 4.5-2.019 4.5-4.5 0-2.482-2.018-4.5-4.5-4.5z" fill="#3a312a"/><path d="m158.192 71.186c0 .238 0 .476-.014.714-4.731-5.977-12.052-9.812-20.282-9.812s-15.551 3.835-20.282 9.812c-.014-.238-.014-.476-.014-.714 0-11.212 9.084-20.296 20.296-20.296 11.212-.001 20.296 9.084 20.296 20.296z" fill="#ef6d7a"/><path d="m158.178 73.399c-.45 0-.887-.203-1.176-.569-4.65-5.874-11.614-9.243-19.107-9.243-7.492 0-14.456 3.369-19.105 9.243-.386.488-1.034.688-1.627.5-.593-.187-1.01-.721-1.047-1.342-.016-.268-.017-.535-.017-.803 0-12.019 9.778-21.796 21.796-21.796 12.019 0 21.796 9.777 21.796 21.796 0 .267-.001.533-.017.8-.035.622-.451 1.156-1.045 1.345-.149.047-.301.069-.451.069zm-20.283-21.009c-9.196 0-16.871 6.639-18.484 15.375 5.008-4.604 11.545-7.178 18.484-7.178 6.94 0 13.477 2.574 18.483 7.177-1.612-8.736-9.287-15.374-18.483-15.374z" fill="#3a312a"/><path d="m170.566 59.623c-3.62-.52-6.42-3.64-6.42-7.41 0-1.93.74-3.69 1.95-5.02-7.19-17.11-17.16-29.23-28.2-29.23-3.25 0-6.4 1.05-9.42 2.97 10.09 4.19 18.9 17.7 24.94 34.97 3.89 3.93 6.28 9.33 6.28 15.28 0 .27-.01.54-.02.8-.04.62-.45 1.16-1.05 1.35-.11.03-.22.05-.33.06 2.31 10.7 3.6 22.03 3.6 33.01 0 36.4-14.14 96.71-32.79 109.7 2.95 2.7 5.9 4.11 8.79 4.11 9.41 0 19.52-14.93 27.74-40.96 7.29-23.12 12.01-51.87 12.01-73.25 0-15.3-2.62-31.82-7.08-46.38z" fill="#dcc8ab"/></g></svg>