<svg height="512pt" viewBox="0 0 512.001 512" width="512pt" xmlns="http://www.w3.org/2000/svg"><path d="m339.992188 337.101562s30.390624 65.050782 30.390624 121.164063c0 39.929687-29.839843 45.324219-114.382812 45.324219s-114.382812-5.394532-114.382812-45.324219c0-56.113281 30.390624-121.164063 30.390624-121.164063l83.992188-35.304687zm0 0" fill="#ffe8b6"/><path d="m181.617188 458.265625c0-56.113281 30.390624-121.164063 30.390624-121.164063l63.992188-26.898437-20-8.40625-83.992188 35.304687s-30.390624 65.050782-30.390624 121.164063c0 39.929687 29.839843 45.324219 114.382812 45.324219 7.046875 0 13.699219-.039063 20-.128906-69.300781-1.011719-94.382812-8.59375-94.382812-45.195313zm0 0" fill="#fad889"/><path d="m481.992188 152.523438c-39.847657-86.859376-129.726563-145.023438-225.992188-145.023438-96.148438 0-185.949219 57.691406-225.992188 145.023438-14.453124 31.503906-22.507812 66.550781-22.507812 103.476562 0 43.753906 36.6875 81.101562 81.109375 81.101562h334.785156c44.789063 0 81.105469-36.3125 81.105469-81.101562 0-36.925781-8.058594-71.972656-22.507812-103.476562zm0 0" fill="#fff7e5"/><path d="m47.5 256c0-36.925781 8.058594-71.972656 22.507812-103.476562 37.246094-81.234376 117.546876-136.8125 205.964844-144.179688-6.617187-.550781-13.277344-.84375-19.972656-.84375-96.148438 0-185.949219 57.691406-225.992188 145.023438-14.453124 31.503906-22.507812 66.550781-22.507812 103.476562 0 43.753906 36.6875 81.101562 81.109375 81.101562h40c-44.421875 0-81.109375-37.347656-81.109375-81.101562zm0 0" fill="#ffe8b6"/><path d="m172.371094 227.539062v-16.492187c0-4.140625-3.355469-7.5-7.5-7.5-4.140625 0-7.5 3.359375-7.5 7.5v16.492187c0 4.140626 3.359375 7.5 7.5 7.5 4.144531 0 7.5-3.359374 7.5-7.5zm0 0"/><path d="m347.128906 235.039062c4.140625 0 7.5-3.359374 7.5-7.5v-16.492187c0-4.140625-3.359375-7.5-7.5-7.5-4.144531 0-7.5 3.359375-7.5 7.5v16.492187c0 4.140626 3.355469 7.5 7.5 7.5zm0 0"/><path d="m256 243.84375c10.929688 0 21.1875-4.5625 28.136719-12.515625 2.726562-3.121094 2.410156-7.859375-.710938-10.582031-3.117187-2.726563-7.855469-2.410156-10.582031.710937-4.105469 4.695313-10.242188 7.386719-16.84375 7.386719s-12.742188-2.691406-16.847656-7.386719c-2.722656-3.121093-7.460938-3.4375-10.582032-.710937-3.117187 2.722656-3.4375 7.460937-.710937 10.582031 6.953125 7.953125 17.210937 12.515625 28.140625 12.515625zm0 0"/><path d="m394.210938 41.132812c-41.832032-26.910156-89.625-41.132812-138.210938-41.132812-54.207031 0-108.507812 18.179688-152.894531 51.191406-3.324219 2.472656-4.015625 7.171875-1.542969 10.496094s7.171875 4.015625 10.496094 1.539062c41.816406-31.097656 92.933594-48.226562 143.941406-48.226562 45.703125 0 90.6875 13.398438 130.09375 38.75 39.289062 25.269531 70.089844 60.507812 89.082031 101.902344 14.480469 31.570312 21.824219 65.332031 21.824219 100.347656 0 40.585938-33.019531 73.601562-73.605469 73.601562h-334.785156c-39.902344 0-73.609375-33.703124-73.609375-73.601562 0-35.015625 7.34375-68.777344 21.828125-100.347656 12.652344-27.601563 30.4375-52.367188 52.859375-73.617188 3.003906-2.851562 3.132812-7.597656.285156-10.605468-2.851562-3.003907-7.597656-3.132813-10.605468-.28125-23.816407 22.574218-42.71875 48.898437-56.175782 78.25-15.386718 33.542968-23.191406 69.410156-23.191406 106.601562 0 23.230469 9.261719 45.335938 26.078125 62.246094 16.902344 16.996094 39.109375 26.355468 62.53125 26.355468h71.972656c-8.6875 21.066407-26.464843 69.5625-26.464843 113.664063 0 23.1875 9.691406 37.394531 30.5 44.710937 19.296874 6.785157 48.121093 8.113282 91.382812 8.113282 43.265625 0 72.089844-1.328125 91.386719-8.113282 20.804687-7.316406 30.5-21.523437 30.5-44.710937 0-7.332031-.507813-15.222656-1.511719-23.445313-.503906-4.113281-4.242188-7.039062-8.355469-6.539062-4.109375.5-7.035156 4.242188-6.535156 8.351562.929687 7.625 1.398437 14.902344 1.398437 21.632813 0 31.109375-18.976562 37.824219-106.882812 37.824219-87.902344 0-106.882812-6.714844-106.882812-37.824219 0-45.644531 21.199218-98.410156 27.769531-113.664063h158.230469c4.175781 9.683594 14.257812 34.472657 21.023437 62.863282.960937 4.03125 5.007813 6.519531 9.035156 5.558594 4.027344-.960938 6.515625-5.007813 5.554688-9.035157-5.96875-25.054687-14.226563-46.992187-19.324219-59.386719h71.988281c48.859375 0 88.605469-39.746093 88.605469-88.601562 0-37.191406-7.800781-73.058594-23.191406-106.601562-20.1875-44.003907-52.898438-81.441407-94.597656-108.265626zm0 0"/></svg>