<?xml version="1.0" encoding="UTF-8"?>
<svg xmlns="http://www.w3.org/2000/svg" xmlns:xlink="http://www.w3.org/1999/xlink" version="1.1" id="Capa_1" x="0px" y="0px" viewBox="0 0 512 512" style="enable-background:new 0 0 512 512;" xml:space="preserve" width="512" height="512">
<g>
	<g>
		<g>
			<path style="fill:#C4E2FF;" d="M474.5,504.5h-437c-16.569,0-30-13.431-30-30v-437c0-16.569,13.431-30,30-30h437&#10;&#9;&#9;&#9;&#9;c16.569,0,30,13.431,30,30v437C504.5,491.069,491.069,504.5,474.5,504.5z"/>
			<path style="fill:#B3DAFE;" d="M474.5,7.5h-30c16.569,0,30,13.431,30,30v437c0,16.569-13.431,30-30,30h30&#10;&#9;&#9;&#9;&#9;c16.569,0,30-13.431,30-30v-437C504.5,20.931,491.069,7.5,474.5,7.5z"/>
			<path style="fill:#FFFFFF;" d="M37.5,470.5v-429c0-2.209,1.791-4,4-4h429c2.209,0,4,1.791,4,4v429c0,2.209-1.791,4-4,4h-429&#10;&#9;&#9;&#9;&#9;C39.291,474.5,37.5,472.709,37.5,470.5z"/>
		</g>
		<g>
			<g>
				<g>
					<path style="fill:#FFD3D6;" d="M371.495,427.045l21.925-34.52l21.925,34.52c1.784,2.808-0.234,6.48-3.561,6.48h-36.728&#10;&#9;&#9;&#9;&#9;&#9;&#9;C371.729,433.525,369.712,429.854,371.495,427.045z"/>
					<path style="fill:#FFD3D6;" d="M371.495,84.955l21.925,34.52l21.925-34.52c1.784-2.808-0.234-6.48-3.561-6.48h-36.728&#10;&#9;&#9;&#9;&#9;&#9;&#9;C371.729,78.475,369.712,82.146,371.495,84.955z"/>
				</g>
				<g>
					<path style="fill:#FD4755;" d="M406.168,408.426c-0.298,0.072-0.596,0.143-0.893,0.214&#10;&#9;&#9;&#9;&#9;&#9;&#9;c-25.555,6.135-51.09-10.583-55.445-36.501c-12.918-76.886-12.918-155.394,0-232.279c4.355-25.918,29.89-42.636,55.445-36.501&#10;&#9;&#9;&#9;&#9;&#9;&#9;c0.298,0.071,0.596,0.143,0.893,0.214c23.187,5.567,38.194,28.107,34.248,51.624c-11.199,66.733-11.199,134.871,0,201.605&#10;&#9;&#9;&#9;&#9;&#9;&#9;C444.363,380.319,429.355,402.859,406.168,408.426z"/>
				</g>
				<path style="fill:#FB2B3A;" d="M440.416,155.198c3.947-23.517-11.06-46.057-34.248-51.624c-0.298-0.071-0.596-0.143-0.893-0.214&#10;&#9;&#9;&#9;&#9;&#9;c-8.802-2.113-17.602-1.514-25.535,1.238c21.131,6.919,34.416,28.316,30.676,50.601c-11.199,66.733-11.199,134.871,0,201.604&#10;&#9;&#9;&#9;&#9;&#9;c3.74,22.284-9.545,43.681-30.676,50.601c7.933,2.752,16.733,3.351,25.535,1.238c0.298-0.072,0.596-0.143,0.893-0.214&#10;&#9;&#9;&#9;&#9;&#9;c23.187-5.567,38.194-28.107,34.248-51.624C429.216,290.069,429.216,221.931,440.416,155.198z"/>
			</g>
			<g>
				<g>
					<path style="fill:#FFD3D6;" d="M281.767,427.045l21.925-34.52l21.925,34.52c1.784,2.808-0.234,6.48-3.561,6.48h-36.728&#10;&#9;&#9;&#9;&#9;&#9;&#9;C282,433.525,279.983,429.854,281.767,427.045z"/>
					<path style="fill:#FFD3D6;" d="M281.767,84.955l21.925,34.52l21.925-34.52c1.784-2.808-0.234-6.48-3.561-6.48h-36.728&#10;&#9;&#9;&#9;&#9;&#9;&#9;C282,78.475,279.983,82.146,281.767,84.955z"/>
				</g>
				<g>
					<path style="fill:#FD4755;" d="M316.439,408.426c-0.298,0.072-0.596,0.143-0.893,0.214&#10;&#9;&#9;&#9;&#9;&#9;&#9;c-25.555,6.135-51.09-10.583-55.445-36.501c-12.918-76.886-12.918-155.394,0-232.279c4.355-25.918,29.89-42.636,55.445-36.501&#10;&#9;&#9;&#9;&#9;&#9;&#9;c0.298,0.071,0.596,0.143,0.893,0.214c23.187,5.567,38.194,28.107,34.248,51.624c-11.199,66.733-11.199,134.871,0,201.605&#10;&#9;&#9;&#9;&#9;&#9;&#9;C354.634,380.319,339.626,402.859,316.439,408.426z"/>
				</g>
				<path style="fill:#FB2B3A;" d="M350.687,155.198c3.947-23.517-11.06-46.057-34.248-51.624c-0.298-0.071-0.596-0.143-0.893-0.214&#10;&#9;&#9;&#9;&#9;&#9;c-8.802-2.113-17.602-1.514-25.535,1.238c21.131,6.919,34.416,28.316,30.676,50.601c-11.199,66.733-11.199,134.871,0,201.604&#10;&#9;&#9;&#9;&#9;&#9;c3.74,22.284-9.545,43.681-30.676,50.601c7.933,2.752,16.733,3.351,25.535,1.238c0.298-0.072,0.596-0.143,0.893-0.214&#10;&#9;&#9;&#9;&#9;&#9;c23.187-5.567,38.194-28.107,34.248-51.624C339.488,290.069,339.488,221.931,350.687,155.198z"/>
			</g>
			<g>
				<g>
					<path style="fill:#FFD3D6;" d="M192.038,427.045l21.925-34.52l21.925,34.52c1.784,2.808-0.234,6.48-3.561,6.48h-36.728&#10;&#9;&#9;&#9;&#9;&#9;&#9;C192.272,433.525,190.254,429.854,192.038,427.045z"/>
					<path style="fill:#FFD3D6;" d="M192.038,84.955l21.925,34.52l21.925-34.52c1.784-2.808-0.234-6.48-3.561-6.48h-36.728&#10;&#9;&#9;&#9;&#9;&#9;&#9;C192.272,78.475,190.254,82.146,192.038,84.955z"/>
				</g>
				<g>
					<path style="fill:#FD4755;" d="M226.711,408.426c-0.298,0.072-0.596,0.143-0.893,0.214&#10;&#9;&#9;&#9;&#9;&#9;&#9;c-25.555,6.135-51.09-10.583-55.445-36.501c-12.918-76.886-12.918-155.394,0-232.279c4.355-25.918,29.89-42.636,55.445-36.501&#10;&#9;&#9;&#9;&#9;&#9;&#9;c0.298,0.071,0.596,0.143,0.893,0.214c23.187,5.567,38.194,28.107,34.248,51.624c-11.199,66.733-11.199,134.871,0,201.605&#10;&#9;&#9;&#9;&#9;&#9;&#9;C264.905,380.319,249.898,402.859,226.711,408.426z"/>
				</g>
				<path style="fill:#FB2B3A;" d="M260.958,155.198c3.947-23.517-11.06-46.057-34.248-51.624c-0.298-0.071-0.596-0.143-0.893-0.214&#10;&#9;&#9;&#9;&#9;&#9;c-8.802-2.113-17.602-1.514-25.535,1.238c21.131,6.919,34.416,28.316,30.676,50.601c-11.199,66.733-11.199,134.871,0,201.604&#10;&#9;&#9;&#9;&#9;&#9;c3.74,22.284-9.545,43.681-30.676,50.601c7.933,2.752,16.733,3.351,25.535,1.238c0.298-0.072,0.596-0.143,0.893-0.214&#10;&#9;&#9;&#9;&#9;&#9;c23.187-5.567,38.194-28.107,34.248-51.624C249.759,290.069,249.759,221.931,260.958,155.198z"/>
			</g>
			<g>
				<g>
					<path style="fill:#FFD3D6;" d="M102.309,427.045l21.925-34.52l21.925,34.52c1.784,2.808-0.234,6.48-3.561,6.48H105.87&#10;&#9;&#9;&#9;&#9;&#9;&#9;C102.543,433.525,100.525,429.854,102.309,427.045z"/>
					<path style="fill:#FFD3D6;" d="M102.309,84.955l21.925,34.52l21.925-34.52c1.784-2.808-0.234-6.48-3.561-6.48H105.87&#10;&#9;&#9;&#9;&#9;&#9;&#9;C102.543,78.475,100.525,82.146,102.309,84.955z"/>
				</g>
				<g>
					<path style="fill:#FD4755;" d="M136.982,408.426c-0.298,0.072-0.596,0.143-0.893,0.214&#10;&#9;&#9;&#9;&#9;&#9;&#9;c-25.555,6.135-51.09-10.583-55.445-36.501c-12.918-76.886-12.918-155.394,0-232.279c4.355-25.918,29.89-42.636,55.445-36.501&#10;&#9;&#9;&#9;&#9;&#9;&#9;c0.298,0.071,0.596,0.143,0.893,0.214c23.187,5.567,38.194,28.107,34.248,51.624c-11.199,66.733-11.199,134.871,0,201.605&#10;&#9;&#9;&#9;&#9;&#9;&#9;C175.176,380.319,160.169,402.859,136.982,408.426z"/>
				</g>
				<path style="fill:#FB2B3A;" d="M171.229,155.198c3.947-23.517-11.06-46.057-34.248-51.624c-0.298-0.071-0.596-0.143-0.893-0.214&#10;&#9;&#9;&#9;&#9;&#9;c-8.802-2.113-17.602-1.514-25.535,1.238c21.131,6.919,34.416,28.316,30.676,50.601c-11.199,66.733-11.199,134.871,0,201.604&#10;&#9;&#9;&#9;&#9;&#9;c3.74,22.284-9.545,43.681-30.676,50.601c7.933,2.752,16.732,3.351,25.535,1.238c0.298-0.072,0.596-0.143,0.893-0.214&#10;&#9;&#9;&#9;&#9;&#9;c23.187-5.567,38.195-28.107,34.248-51.624C160.03,290.069,160.03,221.931,171.229,155.198z"/>
			</g>
		</g>
	</g>
	<g>
		<g>
			<path style="fill:none;stroke:#000000;stroke-width:15;stroke-linecap:round;stroke-linejoin:round;stroke-miterlimit:10;" d="&#10;&#9;&#9;&#9;&#9;M474.5,504.5h-437c-16.569,0-30-13.431-30-30v-437c0-16.569,13.431-30,30-30h437c16.569,0,30,13.431,30,30v437&#10;&#9;&#9;&#9;&#9;C504.5,491.069,491.069,504.5,474.5,504.5z"/>
			<path style="fill:none;stroke:#000000;stroke-width:15;stroke-linecap:round;stroke-linejoin:round;stroke-miterlimit:10;" d="&#10;&#9;&#9;&#9;&#9;M360.593,474.5H41.5c-2.209,0-4-1.791-4-4v-429c0-2.209,1.791-4,4-4h429c2.209,0,4,1.791,4,4v429c0,2.209-1.791,4-4,4h-74.907"/>
		</g>
		<g>
			<g>
				<g>
					<path style="fill:none;stroke:#000000;stroke-width:15;stroke-linecap:round;stroke-linejoin:round;stroke-miterlimit:10;" d="&#10;&#9;&#9;&#9;&#9;&#9;&#9;M403.85,408.96l11.49,18.09c1.79,2.8-0.23,6.48-3.56,6.48h-36.72c-3.33,0-5.35-3.68-3.56-6.48l11.79-18.57"/>
					<path style="fill:none;stroke:#000000;stroke-width:15;stroke-linecap:round;stroke-linejoin:round;stroke-miterlimit:10;" d="&#10;&#9;&#9;&#9;&#9;&#9;&#9;M403.85,103.04l11.49-18.09c1.79-2.8-0.23-6.48-3.56-6.48h-36.72c-3.33,0-5.35,3.68-3.56,6.48l11.79,18.57"/>
				</g>
				<g>
					<path style="fill:none;stroke:#000000;stroke-width:15;stroke-linecap:round;stroke-linejoin:round;stroke-miterlimit:10;" d="&#10;&#9;&#9;&#9;&#9;&#9;&#9;M350.22,374.18c5.31,24.75,30.18,40.44,55.05,34.46c0.3-0.07,0.6-0.14,0.9-0.21c23.19-5.57,38.19-28.11,34.25-51.63&#10;&#9;&#9;&#9;&#9;&#9;&#9;c-11.2-66.73-11.2-134.87,0-201.6c3.94-23.52-11.06-46.06-34.25-51.63c-0.3-0.07-0.6-0.14-0.9-0.21&#10;&#9;&#9;&#9;&#9;&#9;&#9;c-24.87-5.98-49.74,9.71-55.05,34.46"/>
				</g>
			</g>
			<g>
				<g>
					<path style="fill:none;stroke:#000000;stroke-width:15;stroke-linecap:round;stroke-linejoin:round;stroke-miterlimit:10;" d="&#10;&#9;&#9;&#9;&#9;&#9;&#9;M314.13,408.96l11.49,18.09c1.78,2.8-0.24,6.48-3.56,6.48h-36.73c-3.33,0-5.35-3.68-3.56-6.48l11.79-18.57"/>
					<path style="fill:none;stroke:#000000;stroke-width:15;stroke-linecap:round;stroke-linejoin:round;stroke-miterlimit:10;" d="&#10;&#9;&#9;&#9;&#9;&#9;&#9;M314.13,103.04l11.49-18.09c1.78-2.8-0.24-6.48-3.56-6.48h-36.73c-3.33,0-5.35,3.68-3.56,6.48l11.79,18.57"/>
				</g>
				<g>
					<path style="fill:none;stroke:#000000;stroke-width:15;stroke-linecap:round;stroke-linejoin:round;stroke-miterlimit:10;" d="&#10;&#9;&#9;&#9;&#9;&#9;&#9;M260.49,374.18c5.32,24.75,30.18,40.44,55.06,34.46c0.29-0.07,0.59-0.14,0.89-0.21c23.19-5.57,38.19-28.11,34.25-51.63&#10;&#9;&#9;&#9;&#9;&#9;&#9;c-11.2-66.73-11.2-134.87,0-201.6c3.94-23.52-11.06-46.06-34.25-51.63c-0.3-0.07-0.6-0.14-0.89-0.21&#10;&#9;&#9;&#9;&#9;&#9;&#9;c-24.88-5.98-49.74,9.71-55.06,34.46"/>
				</g>
			</g>
			<g>
				<g>
					<path style="fill:none;stroke:#000000;stroke-width:15;stroke-linecap:round;stroke-linejoin:round;stroke-miterlimit:10;" d="&#10;&#9;&#9;&#9;&#9;&#9;&#9;M224.4,408.96l11.49,18.09c1.78,2.8-0.24,6.48-3.56,6.48H195.6c-3.33,0-5.35-3.68-3.56-6.48l11.79-18.57"/>
					<path style="fill:none;stroke:#000000;stroke-width:15;stroke-linecap:round;stroke-linejoin:round;stroke-miterlimit:10;" d="&#10;&#9;&#9;&#9;&#9;&#9;&#9;M224.4,103.04l11.49-18.09c1.78-2.8-0.24-6.48-3.56-6.48H195.6c-3.33,0-5.35,3.68-3.56,6.48l11.79,18.57"/>
				</g>
				<g>
					<path style="fill:none;stroke:#000000;stroke-width:15;stroke-linecap:round;stroke-linejoin:round;stroke-miterlimit:10;" d="&#10;&#9;&#9;&#9;&#9;&#9;&#9;M170.76,374.18c5.32,24.75,30.18,40.44,55.06,34.46c0.29-0.07,0.59-0.14,0.89-0.21c23.19-5.57,38.19-28.11,34.25-51.63&#10;&#9;&#9;&#9;&#9;&#9;&#9;c-11.2-66.73-11.2-134.87,0-201.6c3.94-23.52-11.06-46.06-34.25-51.63c-0.3-0.07-0.59-0.14-0.89-0.21&#10;&#9;&#9;&#9;&#9;&#9;&#9;c-24.88-5.98-49.74,9.71-55.06,34.46"/>
				</g>
			</g>
			<g>
				<g>
					<path style="fill:none;stroke:#000000;stroke-width:15;stroke-linecap:round;stroke-linejoin:round;stroke-miterlimit:10;" d="&#10;&#9;&#9;&#9;&#9;&#9;&#9;M134.67,408.96l11.49,18.09c1.78,2.8-0.24,6.48-3.56,6.48h-36.73c-3.33,0-5.34-3.68-3.56-6.48l11.8-18.58"/>
					<path style="fill:none;stroke:#000000;stroke-width:15;stroke-linecap:round;stroke-linejoin:round;stroke-miterlimit:10;" d="&#10;&#9;&#9;&#9;&#9;&#9;&#9;M134.67,103.04l11.49-18.09c1.78-2.8-0.24-6.48-3.56-6.48h-36.73c-3.33,0-5.34,3.68-3.56,6.48l11.8,18.58"/>
				</g>
				<g>
					<path style="fill:none;stroke:#000000;stroke-width:15;stroke-linecap:round;stroke-linejoin:round;stroke-miterlimit:10;" d="&#10;&#9;&#9;&#9;&#9;&#9;&#9;M77.214,162.535c1.019-7.572,2.162-15.131,3.429-22.674c4.355-25.918,29.89-42.636,55.445-36.501&#10;&#9;&#9;&#9;&#9;&#9;&#9;c0.298,0.071,0.596,0.143,0.893,0.214c23.187,5.567,38.194,28.107,34.248,51.624c-11.199,66.733-11.199,134.871,0,201.605&#10;&#9;&#9;&#9;&#9;&#9;&#9;c3.947,23.517-11.061,46.057-34.248,51.624c-0.298,0.072-0.596,0.143-0.893,0.214c-25.555,6.135-51.09-10.583-55.445-36.501&#10;&#9;&#9;&#9;&#9;&#9;&#9;c-9.714-57.813-12.123-116.542-7.229-174.81"/>
				</g>
			</g>
		</g>
	</g>
</g>















</svg>
