<svg height="512" viewBox="0 0 64 64" width="512" xmlns="http://www.w3.org/2000/svg"><g id="Hand_Sprinkle" data-name="Hand Sprinkle"><path d="m55.9618 27.54c-1.97 1.62-3.83 3.15-6.47 5.33a.99559.99559 0 0 1 -.81.22.97406.97406 0 0 1 -.5-.24.84967.84967 0 0 1 -.2-.22 4.94542 4.94542 0 0 1 -.79-2.97 5.287 5.287 0 0 1 3.62-4.47.55236.55236 0 0 0 .31-.29.53776.53776 0 0 0 .02-.43 8.60233 8.60233 0 0 0 -4.41-4.77 26.49163 26.49163 0 0 0 -5.07-1.75 1.64049 1.64049 0 0 0 -1.48.48l-3.25 3.32a2.39014 2.39014 0 0 0 .11005 3.43 11.37907 11.37907 0 0 0 3.27 2.35c2.66663 1.48616 4.3187 1.45764 5.69 3.24v.01a6.31773 6.31773 0 0 1 1.09 2.21 9.84608 9.84608 0 0 1 .35 2.25 1.47274 1.47274 0 0 1 -1.82 1.49c-.1-.02-.2-.05-.3-.08a95.8454 95.8454 0 0 1 -10.21-3.36c-4.18-1.3-8.41-1.86-13.17-5.88-1.828-1.54927-2.29576-2.5-4-2.5h-4.02v-16.63h.98c9.14019-.32226 17.33707-.35652 26.49 0a7.38251 7.38251 0 0 1 4.37 1.44l8.33 6.17a3.82316 3.82316 0 0 1 1.38 1.95c.42 1.37 1.04 3.4 1.72 5.61a3.84983 3.84983 0 0 1 -1.23005 4.09z" fill="#f9bdb2"/><path d="m54.38179 27.54c-1.88 1.61-3.67 3.14-6.2 5.31a.84967.84967 0 0 1 -.2-.22 4.94542 4.94542 0 0 1 -.79-2.97 5.287 5.287 0 0 1 3.62-4.47.55236.55236 0 0 0 .31-.29.53776.53776 0 0 0 .02-.43 8.60233 8.60233 0 0 0 -4.41-4.77 26.49163 26.49163 0 0 0 -5.07-1.75 1.618 1.618 0 0 0 -.79.05c-.09-.02-.18-.03-.26-.05a1.53315 1.53315 0 0 0 -1.42.48l-3.12 3.32a2.45334 2.45334 0 0 0 .1 3.43 11.09165 11.09165 0 0 0 3.15 2.35c2.89431 1.67257 6.57387 1.67738 6.86 7.71a1.45814 1.45814 0 0 1 -.86 1.41 95.8454 95.8454 0 0 1 -10.21-3.36c-4.18-1.3-8.41-1.86-13.17-5.88-1.828-1.54927-2.29576-2.5-4-2.5h-4.02v-16.63h.98c6.17292-.21765 13.56161-.46313 25.46 0a6.95925 6.95925 0 0 1 4.21 1.44l8.01 6.17a3.79294 3.79294 0 0 1 1.33 1.95c.4 1.37 1 3.4 1.65 5.61a3.9371 3.9371 0 0 1 -1.18 4.09z" fill="#fcdfd6"/><rect fill="#477ea8" height="19.583" rx="1" width="8" x="6.642" y="6.781"/><rect fill="#6bb3d9" height="18.719" rx=".898" width="6.75" x="6.642" y="6.781"/><g fill="#727272"><circle cx="50.315" cy="38.531" r="1"/><circle cx="46.377" cy="43.656" r="1"/><circle cx="52.565" cy="44.656" r="1"/><circle cx="48.731" cy="48.781" r="1"/><circle cx="44.752" cy="53.344" r="1"/><circle cx="49.731" cy="56.219" r="1"/><circle cx="54.23" cy="50.781" r="1"/></g></g></svg>