<?xml version="1.0" encoding="UTF-8" standalone="no"?>
<!-- Created with Inkscape (http://www.inkscape.org/) -->

<svg
   version="1.1"
   id="svg1533"
   xml:space="preserve"
   width="682.66669"
   height="682.66669"
   viewBox="0 0 682.66669 682.66669"
   xmlns="http://www.w3.org/2000/svg"
   xmlns:svg="http://www.w3.org/2000/svg"><defs
     id="defs1537"><clipPath
       clipPathUnits="userSpaceOnUse"
       id="clipPath1547"><path
         d="M 0,512 H 512 V 0 H 0 Z"
         id="path1545" /></clipPath></defs><g
     id="g1539"
     transform="matrix(1.3333333,0,0,-1.3333333,0,682.66667)"><g
       id="g1541"><g
         id="g1543"
         clip-path="url(#clipPath1547)"><g
           id="g1549"
           transform="translate(236.2178,250.1191)"><path
             d="m 0,0 c -77.653,44.833 -164.023,40.614 -201.745,-24.722 -34.83,-60.33 19.584,-103.391 40.324,-147.679 12.838,-27.415 16.756,-49.426 17.847,-62.545 0.483,-5.804 6.628,-9.352 11.895,-6.868 11.908,5.615 32.928,13.227 63.09,15.817 48.725,4.184 113.225,-21.409 148.055,38.92 C 117.188,-121.74 77.654,-44.833 0,0"
             style="fill:#bc83df;fill-opacity:1;fill-rule:nonzero;stroke:none"
             id="path1551" /></g><g
           id="g1553"
           transform="translate(315.6865,63.0435)"><path
             d="m 0,0 c -34.833,-60.334 -99.33,-34.74 -148.056,-38.924 -30.162,-2.591 -51.181,-10.199 -63.095,-15.815 -5.267,-2.485 -11.409,1.06 -11.89,6.864 -0.458,5.511 -1.409,12.563 -3.316,20.943 11.977,5.056 30.627,10.906 55.973,13.084 47.004,4.035 109.22,-20.648 142.817,37.545 31.46,54.49 7.208,117.337 -48.37,161.299 C -0.628,139.892 37.142,64.333 0,0"
             style="fill:#ae6ad8;fill-opacity:1;fill-rule:nonzero;stroke:none"
             id="path1555" /></g><g
           id="g1557"
           transform="translate(315.6865,63.0435)"><path
             d="m 0,0 c -34.833,-60.334 -99.33,-34.74 -148.056,-38.924 -30.162,-2.591 -51.181,-10.199 -63.095,-15.815 -5.267,-2.485 -11.409,1.06 -11.89,6.864 -1.094,13.126 -5.015,35.134 -17.853,62.55 -13.078,27.923 -39.542,55.357 -48.581,86.939 16.872,18.529 49.02,44.556 83.992,24.365 45.598,-26.326 0.547,-81.089 40.536,-104.176 22.986,-13.271 59.487,22.461 93.844,19.981 C -15.432,37.767 0.602,1.042 0,0"
             style="fill:#fff1e2;fill-opacity:1;fill-rule:nonzero;stroke:none"
             id="path1559" /></g><g
           id="g1561"
           transform="translate(315.6865,63.0435)"><path
             d="m 0,0 c -34.833,-60.334 -99.33,-34.74 -148.056,-38.924 -30.162,-2.591 -51.181,-10.199 -63.095,-15.815 -5.267,-2.485 -11.409,1.06 -11.89,6.864 -0.458,5.511 -1.409,12.563 -3.316,20.943 11.977,5.056 30.627,10.906 55.973,13.084 47.004,4.035 109.22,-20.648 142.817,37.545 0.804,1.393 1.572,2.789 2.301,4.187 C -6.028,15.927 0.386,0.668 0,0"
             style="fill:#fee7c9;fill-opacity:1;fill-rule:nonzero;stroke:none"
             id="path1563" /></g><g
           id="g1565"
           transform="translate(26.2119,164.6577)"><path
             d="m 0,0 c 16.872,18.529 49.02,44.556 83.991,24.365 45.599,-26.326 0.548,-81.09 40.536,-104.177 22.987,-13.271 59.488,22.462 93.845,19.982 55.671,-4.018 71.704,-40.742 71.103,-41.784"
             style="fill:none;stroke:#000000;stroke-width:15;stroke-linecap:round;stroke-linejoin:round;stroke-miterlimit:10;stroke-dasharray:none;stroke-opacity:1"
             id="path1567" /></g><g
           id="g1569"
           transform="translate(80.8525,63.5542)"><path
             d="m 0,0 c 8.082,-20.833 10.896,-37.608 11.791,-48.381 0.483,-5.805 6.628,-9.352 11.896,-6.869 11.908,5.616 32.927,13.228 63.089,15.818 48.725,4.183 113.225,-21.409 148.055,38.921 37.722,65.336 -1.81,142.243 -79.465,187.076 -18.986,10.961 -38.492,18.981 -57.681,23.902"
             style="fill:none;stroke:#000000;stroke-width:15;stroke-linecap:round;stroke-linejoin:round;stroke-miterlimit:10;stroke-dasharray:none;stroke-opacity:1"
             id="path1571" /></g><g
           id="g1573"
           transform="translate(142.8096,279.5776)"><path
             d="m 0,0 c -45.386,2.283 -85.656,-14.896 -108.337,-54.181 -30.07,-52.083 6.374,-91.297 30.244,-129.541"
             style="fill:none;stroke:#000000;stroke-width:15;stroke-linecap:round;stroke-linejoin:round;stroke-miterlimit:10;stroke-dasharray:none;stroke-opacity:1"
             id="path1575" /></g><g
           id="g1577"
           transform="translate(87.8525,271.4248)"><path
             d="M 0,0 55.11,-31.817"
             style="fill:none;stroke:#000000;stroke-width:15;stroke-linecap:round;stroke-linejoin:round;stroke-miterlimit:10;stroke-dasharray:none;stroke-opacity:1"
             id="path1579" /></g><g
           id="g1581"
           transform="translate(241.3018,60.6411)"><path
             d="M 0,0 46.465,-26.826"
             style="fill:none;stroke:#000000;stroke-width:15;stroke-linecap:round;stroke-linejoin:round;stroke-miterlimit:10;stroke-dasharray:none;stroke-opacity:1"
             id="path1583" /></g><g
           id="g1585"
           transform="translate(146.0703,199.6699)"><path
             d="M 0,0 19.367,-11.182"
             style="fill:none;stroke:#000000;stroke-width:15;stroke-linecap:round;stroke-linejoin:round;stroke-miterlimit:10;stroke-dasharray:none;stroke-opacity:1"
             id="path1587" /></g><g
           id="g1589"
           transform="translate(256.3389,166.832)"><path
             d="M 0,0 72.727,-41.989"
             style="fill:none;stroke:#000000;stroke-width:15;stroke-linecap:round;stroke-linejoin:round;stroke-miterlimit:10;stroke-dasharray:none;stroke-opacity:1"
             id="path1591" /></g><g
           id="g1593"
           transform="translate(76.7803,146.272)"><path
             d="M 0,0 14.756,-8.519"
             style="fill:none;stroke:#000000;stroke-width:15;stroke-linecap:round;stroke-linejoin:round;stroke-miterlimit:10;stroke-dasharray:none;stroke-opacity:1"
             id="path1595" /></g><g
           id="g1597"
           transform="translate(484.6387,390)"><path
             d="m 0,0 c 8.759,15.171 3.561,34.569 -11.609,43.328 -7.645,4.413 -16.363,5.279 -24.252,3.114 -4.984,6.472 -11.508,11.912 -19.378,15.68 -26.823,12.842 -58.977,1.509 -71.82,-25.312 -1.015,-2.122 -1.862,-4.278 -2.58,-6.454 -13.452,1.322 -27.065,-5.122 -34.263,-17.59 -9.812,-16.994 -3.989,-38.722 13.005,-48.533 13.886,-8.017 30.932,-5.59 42.055,4.837 2.227,-1.514 4.593,-2.881 7.096,-4.079 24.845,-11.896 54.252,-3.039 68.661,19.646 C -20.294,-17.663 -6.872,-11.903 0,0"
             style="fill:#2db181;fill-opacity:1;fill-rule:nonzero;stroke:none"
             id="path1599" /></g><g
           id="g1601"
           transform="translate(484.6377,390.0063)"><path
             d="m 0,0 c -6.876,-11.909 -20.289,-17.666 -33.085,-15.367 -14.409,-22.688 -43.811,-31.543 -68.664,-19.649 -2.5,1.201 -4.866,2.567 -7.086,4.078 -11.131,-10.419 -28.176,-12.857 -42.061,-4.841 -10.839,6.258 -17.133,17.374 -17.728,29.015 1.382,-1.154 2.853,-2.219 4.44,-3.174 11.73,-7.077 25.854,-6.567 36.754,0.016 3.93,2.376 8.784,2.41 12.931,0.423 l 0.066,-0.038 c 22.79,-10.905 49.416,-4.368 64.788,14.304 2.44,2.968 6.065,4.795 9.914,4.85 11.803,0.17 23.183,6.922 28.529,18.76 1.862,4.129 2.762,8.508 2.751,12.853 C 4.245,31.75 8.115,14.057 0,0"
             style="fill:#148f5f;fill-opacity:1;fill-rule:nonzero;stroke:none"
             id="path1603" /></g><g
           id="g1605"
           transform="translate(432.0986,356.3877)"><path
             d="m 0,0 c 7.733,4.25 14.486,10.427 19.455,18.25 12.791,-2.3 26.213,3.459 33.085,15.362 8.759,15.171 3.561,34.57 -11.609,43.328 -7.645,4.414 -16.363,5.28 -24.252,3.115 -4.984,6.471 -11.508,11.911 -19.378,15.679 -26.822,12.843 -58.977,1.51 -71.82,-25.312 -1.015,-2.121 -1.862,-4.278 -2.58,-6.453 -13.452,1.321 -27.065,-5.123 -34.263,-17.591 -9.811,-16.993 -3.989,-38.722 13.005,-48.532 13.885,-8.018 30.932,-5.591 42.055,4.837 2.227,-1.515 4.594,-2.882 7.096,-4.08 4.418,-2.115 8.979,-3.562 13.576,-4.404"
             style="fill:none;stroke:#000000;stroke-width:15;stroke-linecap:round;stroke-linejoin:round;stroke-miterlimit:10;stroke-dasharray:none;stroke-opacity:1"
             id="path1607" /></g><g
           id="g1609"
           transform="translate(236.7158,251.8716)"><path
             d="M 0,0 C 5.013,16.883 49.52,150.205 206.728,156.537"
             style="fill:none;stroke:#000000;stroke-width:15;stroke-linecap:round;stroke-linejoin:round;stroke-miterlimit:10;stroke-dasharray:none;stroke-opacity:1"
             id="path1611" /></g><g
           id="g1613"
           transform="translate(353.1152,477.668)"><path
             d="m 0,0 c -2.701,17.308 -18.922,29.149 -36.229,26.448 -8.722,-1.361 -16.053,-6.157 -20.836,-12.794 -7.942,1.911 -16.435,2.052 -24.928,0.047 -28.943,-6.833 -46.865,-35.835 -40.031,-64.778 0.54,-2.288 1.234,-4.499 2.04,-6.643 -11.303,-7.413 -17.858,-20.973 -15.638,-35.198 3.025,-19.387 21.194,-32.651 40.582,-29.625 15.843,2.472 27.592,15.059 29.708,30.158 2.684,0.218 5.385,0.639 8.085,1.277 26.809,6.329 44.146,31.68 41.129,58.384 C -4.716,-26.487 2.119,-13.58 0,0"
             style="fill:#a3e440;fill-opacity:1;fill-rule:nonzero;stroke:none"
             id="path1615" /></g><g
           id="g1617"
           transform="translate(295.8691,386.5645)"><path
             d="m 0,0 c -2.7,-0.643 -5.401,-1.068 -8.085,-1.287 -2.12,-15.088 -13.87,-27.682 -29.712,-30.152 -15.214,-2.375 -29.682,5.292 -36.666,18.077 3.694,-0.721 7.537,-0.852 11.429,-0.326 13.563,1.852 24.222,11.081 28.594,23.037 1.583,4.328 5.323,7.436 9.809,8.485 l 0.091,0.024 c 24.582,5.796 41.204,27.601 41.461,51.781 0.048,3.852 1.722,7.544 4.683,10.007 9.077,7.546 13.696,19.932 10.432,32.504 -0.492,1.925 -1.171,3.767 -2.01,5.511 C 43.64,115.896 55.023,105.354 57.243,91.107 59.366,77.527 52.533,64.613 41.126,58.387 44.145,31.681 26.805,6.32 0,0"
             style="fill:#8dc637;fill-opacity:1;fill-rule:nonzero;stroke:none"
             id="path1619" /></g><g
           id="g1621"
           transform="translate(353.1152,477.668)"><path
             d="m 0,0 c -2.701,17.308 -18.922,29.149 -36.229,26.448 -8.722,-1.361 -16.053,-6.157 -20.836,-12.794 -7.942,1.911 -16.435,2.052 -24.928,0.047 -28.943,-6.833 -46.865,-35.835 -40.031,-64.778 0.54,-2.288 1.234,-4.499 2.04,-6.643 -11.303,-7.413 -17.858,-20.973 -15.638,-35.198 3.025,-19.387 21.194,-32.651 40.582,-29.625 15.843,2.472 27.592,15.059 29.708,30.158 2.684,0.218 5.385,0.639 8.085,1.277 26.809,6.329 44.146,31.68 41.129,58.384 C -4.716,-26.487 2.119,-13.58 0,0 Z"
             style="fill:none;stroke:#000000;stroke-width:15;stroke-linecap:round;stroke-linejoin:round;stroke-miterlimit:10;stroke-dasharray:none;stroke-opacity:1"
             id="path1623" /></g><g
           id="g1625"
           transform="translate(235.7314,252.5625)"><path
             d="M 0,0 C -9.98,50.232 -11.316,139.171 73.758,213.585"
             style="fill:none;stroke:#000000;stroke-width:15;stroke-linecap:round;stroke-linejoin:round;stroke-miterlimit:10;stroke-dasharray:none;stroke-opacity:1"
             id="path1627" /></g><g
           id="g1629"
           transform="translate(239.75,248.0396)"><path
             d="m 0,0 c 0,0 11.313,19.595 52.469,29.65 41.681,10.183 58.107,42.076 58.107,42.076"
             style="fill:none;stroke:#000000;stroke-width:15;stroke-linecap:round;stroke-linejoin:round;stroke-miterlimit:10;stroke-dasharray:none;stroke-opacity:1"
             id="path1631" /></g><g
           id="g1633"
           transform="translate(270.2773,423.167)"><path
             d="M 0,0 C 0,0 -4.008,23 3.241,38.946"
             style="fill:none;stroke:#000000;stroke-width:15;stroke-linecap:round;stroke-linejoin:round;stroke-miterlimit:10;stroke-dasharray:none;stroke-opacity:1"
             id="path1635" /></g><g
           id="g1637"
           transform="translate(285.2812,442.0859)"><path
             d="M 0,0 21.257,-2.04"
             style="fill:none;stroke:#000000;stroke-width:15;stroke-linecap:round;stroke-linejoin:round;stroke-miterlimit:10;stroke-dasharray:none;stroke-opacity:1"
             id="path1639" /></g><g
           id="g1641"
           transform="translate(377.3809,396.9541)"><path
             d="M 0,0 C 0,0 9.694,16.354 34.499,29.24"
             style="fill:none;stroke:#000000;stroke-width:15;stroke-linecap:round;stroke-linejoin:round;stroke-miterlimit:10;stroke-dasharray:none;stroke-opacity:1"
             id="path1643" /></g><g
           id="g1645"
           transform="translate(364.6025,392.3428)"><path
             d="M 0,0 C 0,0 22.454,-0.049 50.168,-12.737"
             style="fill:none;stroke:#000000;stroke-width:15;stroke-linecap:round;stroke-linejoin:round;stroke-miterlimit:10;stroke-dasharray:none;stroke-opacity:1"
             id="path1647" /></g></g></g></g></svg>
