<svg height="512" viewBox="0 0 60 60" width="512" xmlns="http://www.w3.org/2000/svg"><g id="Page-1" fill="none" fill-rule="evenodd"><g id="039---Olives" fill-rule="nonzero"><path id="Shape" d="m41.94 45.06c-1.39 8.72-8.05 14.91-14.87 13.81-3.94-.63-7.07-3.55-8.73-7.59-1.2926918-3.2286099-1.6664924-6.7520267-1.08-10.18.6106394-4.3384217 2.770201-8.3094576 6.08-11.18 2.4124318-2.1131718 5.6227376-3.0762635 8.8-2.64 6.81 1.09 11.2 9.05 9.8 17.78z" fill="#a4c400"/><path id="Shape" d="m32.14 27.28c-1.0020802-.1544943-2.0219198-.1544943-3.024 0h.024c6.81 1.09 11.2 9.05 9.8 17.78-1.182 7.417-6.18 12.986-11.84 13.812 6.811 1.081 13.456-5.1 14.844-13.812 1.396-8.73-2.994-16.69-9.804-17.78z" fill="#90ac00"/><path id="Shape" d="m17.26 41.1c-.5864924 3.4279733-.2126918 6.9513901 1.08 10.18-3.87 2.85-8.54 3.62-12.23 1.54-5.5-3.09-6.76-11.3-2.8-18.34s11.62-10.25 17.12-7.16c1.1447598.6486087 2.1370794 1.5352174 2.91 2.6-3.309799 2.8705424-5.4693606 6.8415783-6.08 11.18z" fill="#60a917"/><path id="Shape" d="m23.34 29.92c-.7729206-1.0647826-1.7652402-1.9513913-2.91-2.6-1.8601506-1.0181724-4.0061535-1.3886217-6.1-1.053 1.0884956.1607008 2.1388242.5174737 3.1 1.053 1.1447598.6486087 2.1370794 1.5352174 2.91 2.6-3.309799 2.8705424-5.4693606 6.8415783-6.08 11.18-.5864924 3.4279733-.2126918 6.9513901 1.08 10.18-1.7897529 1.3530959-3.8844399 2.2459133-6.1 2.6 3.2571936.3634633 6.5264766-.5706175 9.1-2.6-1.2926918-3.2286099-1.6664924-6.7520267-1.08-10.18.6106394-4.3384217 2.770201-8.3094576 6.08-11.18z" fill="#549414"/><path id="Shape" d="m58 13.86c-1.5893259 1.514933-3.3593401 2.8281694-5.27 3.91-2.7514103 1.6906747-5.972367 2.4547319-9.19 2.18-.8235978-.1178694-1.6317702-.325781-2.41-.62-6.03-2.26-9.88-9.14-9.88-9.14s7.08-7.11 14.46-6.09 12.29 9.76 12.29 9.76z" fill="#008a00"/><path id="Shape" d="m45.71 4.1c-.9862633-.12904656-1.9852659-.12702905-2.971.006 7.373 1.029 12.261 9.754 12.261 9.754-1.5893259 1.514933-3.3593401 2.8281694-5.27 3.91-1.9211029 1.1102302-4.0349647 1.8468584-6.23 2.171.015 0 .029.007.044.009 3.217633.2747319 6.4385897-.4893253 9.19-2.18 1.909259-1.0821066 3.6779166-2.3953332 5.266-3.91 0 0-4.9-8.75-12.29-9.76z" fill="#007900"/><path id="Shape" d="m58.19 36.49c-.2 0-10.07-.03-14.54-5.9-2.56-3.37-2.79-7.94-2.52-11.26.7782298.294219 1.5864022.5021306 2.41.62 3.217633.2747319 6.4385897-.4893253 9.19-2.18 1.4186718.7857263 2.6636597 1.8504291 3.66 3.13 4.51 5.94 1.8 15.59 1.8 15.59z" fill="#008a00"/><path id="Shape" d="m56.39 20.9c-.9963403-1.2795709-2.2413282-2.3442737-3.66-3.13-.539.3-1.114.584-1.706.85.8960287.6400774 1.6932005 1.4082734 2.366 2.28 4.113 5.417 2.226 13.9 1.861 15.351.9739979.1384386 1.9554318.218249 2.939.239 0 0 2.71-9.65-1.8-15.59z" fill="#007900"/><path id="Shape" d="m21.21 42.731c-.0532713.0001465-.10646-.0042023-.159-.013-.5449693-.0874816-.9160091-.599955-.829-1.145 1.116-6.959 6.367-12.144 11.438-11.332.5312711.1011735.8858399.6063944.8003535 1.1404142-.0854865.5340198-.5800481.903311-1.1163535.8335858-4.023-.645-8.204 3.785-9.144 9.674-.077776.4860802-.4977384.8432604-.99.842z" fill="#f5f5f5"/><path id="Shape" d="m6.8 37.441c-.35490299-.000611-.68289354-.1892836-.86184702-.4957672-.17895347-.3064835-.18205623-.6848557-.00815298-.9942328 2.291-4.074 6.273-6.811 9.909-6.811.5522847 0 1 .4477153 1 1s-.4477153 1-1 1c-2.891 0-6.249 2.381-8.167 5.791-.17712513.3151101-.51052013.5101003-.872.51z" fill="#f5f5f5"/><g fill="#000"><path id="Shape" d="m23.362 51.8c-.3140365.1705943-.5132071.4957664-.5224863.8530271s.1727427.6923336.4775.879c.3047572.1866664.6859498.1965672.9999863.0259729 2.3343607-1.222473 5.1947557-.7639147 7.03 1.127.3796958.4012349 1.0127651.4186958 1.414.039s.4186958-1.0127651.039-1.414c-2.4581143-2.5511175-6.307388-3.1684692-9.44-1.514z"/><path id="Shape" d="m9.729 46.373c-1.38908388-.7848608-2.99756358-1.0915893-4.578-.873-.53848164.0876005-.90737719.5906334-.8290776 1.1305459.07829959.5399124.57489491.9174295 1.1160776.8484541 1.14458303-.1613333 2.31026066.0642704 3.312.641 1.00976534.5605741 1.8076049 1.4371085 2.271 2.495.2283387.4877347.8019127.7070465 1.297408.4960771.4954953-.2109695.7349289-.7764395.541592-1.2790771-.6350456-1.4658374-1.7354665-2.6815371-3.131-3.459z"/><path id="Shape" d="m54.6 17.8c1.468549-.9429089 2.8417064-2.0266984 4.1-3.236.3153023-.316653.3822496-.8040618.164-1.194-.21-.375-5.23-9.195-13.021-10.266-6.566-.904-12.73 4.047-14.668 5.787-2.405731-1.4266434-4.9093043-2.68143754-7.492-3.755-7.2081465-2.9856508-14.87194931-4.7224593-22.663-5.136-.54745032.00112165-.99698999.43303231-1.02.98-.01116055.55194563.42706093 1.0085196.979 1.02 6.64435039.37731209 13.1969469 1.73082576 19.447 4.017 5.8 7.729 1.962 16.076-.488 19.959-5.866-2.494-13.5.906-17.5 8.014-1.98706854 3.4083833-2.78357117 7.3810457-2.264 11.292.39811789 3.5009817 2.41338361 6.6132626 5.445 8.409 1.55332063.8658142 3.30472829 1.3137445 5.083 1.3 2.5704224-.0457505 5.0757609-.8159306 7.228-2.222.094.187.177.381.278.564 1.7167621 3.4195038 4.9370919 5.8366019 8.7 6.53.5673891.0917059 1.1412478.137521 1.716.137 6.722 0 12.939-6.252 14.308-14.785.7467805-4.2309588.0672106-8.590126-1.932-12.393-1.5167494-2.962197-4.1508513-5.1983049-7.32-6.214.6132672-6.1755263-1.3258406-12.3331961-5.367-17.043.724.392 1.433.794 2.125 1.212.467.811 4.043 6.73 9.646 9.193-.185 3.383.2 7.844 2.77 11.226 1.9966034 2.4187407 4.6823848 4.1721723 7.7 5.027 1.4499375 4.8134157 2.2720725 9.793954 2.446 14.818.0220029.5362105.4633385.9594512 1 .959h.042c.2651172-.0109119.5150286-.1267433.6947083-.3219903.1796798-.195247.2743952-.4539004.2632917-.7190097-.1705373-4.775695-.899839-9.5149815-2.173-14.121 1.7617762.3957084 3.5587281.6141299 5.364.652.4480707.0001885.8415729-.2976963.963-.729.117-.414 2.79-10.2-1.966-16.465-.7361474-.9539188-1.6080718-1.7948475-2.588-2.496zm-48 34.148c-2.49097483-1.4993828-4.13740353-4.0774312-4.45-6.968-.4520579-3.4694565.2620515-6.9907546 2.03-10.01 3.684-6.55 10.754-9.591 15.755-6.781.7600803.4313148 1.4466685.9808554 2.034 1.628-3.0738986 2.977768-5.0777616 6.8877617-5.7 11.122-.5593244 3.3333755-.2683392 6.7539995.846 9.945-3.529 2.332-7.499 2.765-10.515 1.064zm32.644-18.16c1.7863207 3.4119244 2.3888594 7.3205117 1.713 11.112-1.31 8.167-7.475 13.994-13.73 12.991-3.1533859-.602381-5.8429571-2.6462035-7.268-5.523-1.7853857-3.4111543-2.387558-7.3185914-1.712-11.109 1.211-7.551 6.568-13.1 12.319-13.1.4729248.0000069.9450933.0377938 1.412.113 3.1517386.6008653 5.8407275 2.6419363 7.267 5.516zm-7.544-7.554c-2.9203411-.2612922-5.834251.565657-8.182 2.322-.5419361-.609164-1.1553657-1.1507415-1.827-1.613 2.381-3.809 5.867-11.39 2.209-19.051 7.419 6.592 8.2 13.927 7.8 18.342zm.83-15.872c1.775-1.573 7.384-6.052 13.049-5.272 5.65.776 9.854 6.6 11.14 8.6-1.777 1.573-7.4 6.048-13.046 5.273s-9.856-6.609-11.141-8.601zm24.875 25.1c-2.371-.144-9.516-.951-12.961-5.474-2.066-2.72-2.482-6.37-2.389-9.315.4423008.1165991.8910754.2070887 1.344.271.5358611.0733863 1.0761377.1098057 1.617.109.4342062-.0006024.8681005-.0232985 1.3-.068l-.934 4.1c-.0926617.3530979.0144488.7286319.2794377.97972.2649888.2510882.6457443.3378277.9933421.2262925.3475978-.1115353.606798-.4036204.6762202-.7620125l.541-2.373 2.25 3.5-.846 2.947c-.1057972.3455832-.0168911.7213612.232546.9828988.2494371.2615375.6205855.3681317.9707893.2788115.3502037-.0893202.6249608-.3606539.7186647-.7097103l.362-1.259 2.595 4.042c.1840798.2884201.5028435.4627027.845.462.3656754-.0003738.701987-.2003141.8770039-.5213869.175017-.3210728.1608268-.7120718-.0370039-1.0196131l-2.779-4.328 1.876.115c.2658931.0202956.5287148-.067643.7288527-.2438697.2001379-.1762268.3206302-.4258065.3341473-.6921303.0341987-.5511654-.3848398-1.0257175-.936-1.06l-3.34-.2-2.271-3.537 2.673.609c.3485126.079313.7128645-.0333281.9558078-.2954924.2429433-.2621642.3275692-.6340227.222-.9755-.1055693-.3414772-.3852952-.6006946-.7338078-.6800076l-2.332-.531c.8401881-.3172834 1.6591972-.688042 2.452-1.11 1.1166522.6768889 2.1009815 1.5510952 2.905 2.58 3.448 4.537 2.31 11.63 1.812 13.949z"/><path id="Shape" d="m41.341 12.454 4.127.55 1.7 2.551c.1982824.297245.5400812.4661283.8966441.4430332s.6737195-.2346599.832-.555.1336383-.7007882-.0646441-.9980332l-.726-1.089 4.762.635c.5403197.0597684 1.0294166-.3230487 1.1011915-.8619049.071775-.5388561-.3000656-1.0363491-.8371915-1.1200951l-4.452-.594.875-.583c.297245-.1982824.4661282-.5400812.4430331-.8966441s-.2346599-.6737195-.555-.832c-.32034-.15828049-.7007881-.1336383-.9980331.0646441l-2.769 1.847-4.27-.57 2.194-1.645c.4418278-.33137085.5313708-.9581722.2-1.4s-.9581722-.53137085-1.4-.2l-3.823 2.868-2.41-.321c-.3582422-.05585536-.7186548.08657311-.9419354.3722357-.2232806.2856625-.2744478.6698044-.1337251 1.0039518.1407226.3341473.4512881.5659493.8116605.6058125l2.66.355 2.637 3.516c.2143594.2858125.5649147.4355547.9196152.3928203.3547006-.0427344.6596589-.2714531.8-.6.1403412-.3285469.0947442-.7070078-.1196152-.9928203z"/></g></g></g></svg>