<svg id="Filled" height="512" viewBox="0 0 512 512" width="512" xmlns="http://www.w3.org/2000/svg"><path d="m209.6 79.68h83.52v287.68h-83.52z" fill="#f7b030"/><path d="m330.24 488h-37.12c0-17.957-16.681-25.903-37.12-32.77-21.402-7.204-46.934-13.212-61.793-28.281 8.062-17.412 21.344-31.749 43.233-31.749 7.296 0 13.433-.534 18.56-1.485 5.127.951 11.264 1.485 18.56 1.485 21.889 0 35.171 14.338 43.233 31.749 12.447 26.877 12.447 61.051 12.447 61.051z" fill="#f7b030"/><path d="m265.28 450.88c-3.155.998-6.252 3.329-9.28 4.35-20.439 6.867-37.12 14.813-37.12 32.77h-37.12s0-34.174 12.447-61.051c8.062-17.412 21.344-31.749 43.233-31.749 7.296 0 13.433-.534 18.56-1.485 47.548-8.839 9.28-54.195 9.28-54.195s5.104 1.462 12.458 4.385c3.828 15.904 10.37 41.261 15.382 51.295 18.56 37.12-27.84 55.68-27.84 55.68z" fill="#ffd33a"/><path d="m330.24 24s0 34.174-12.447 61.051c-8.062 17.412-21.344 31.749-43.233 31.749-7.296 0-13.433.534-18.56 1.485-5.127-.951-11.264-1.485-18.56-1.485-21.889 0-35.171-14.338-43.233-31.749 14.859-15.069 40.391-21.077 61.793-28.281 20.439-6.867 37.12-14.813 37.12-32.77z" fill="#ffb632"/><path d="m181.76 302.4s0-37.12 46.4-37.12h9.28v18.56c0 10.251-8.31 18.56-18.56 18.56z" fill="#ffb632"/><path d="m181.76 209.6s0-37.12 46.4-37.12h9.28v18.56c0 10.251-8.31 18.56-18.56 18.56z" fill="#ffd33a"/><path d="m181.76 116.8s0-37.12 46.4-37.12h9.28v18.56c0 10.251-8.31 18.56-18.56 18.56z" fill="#ffb632"/><path d="m330.24 116.8c0 37.12-64.96 55.68-64.96 55.68s38.268-45.356-9.28-54.195c-5.127-.951-11.264-1.485-18.56-1.485-21.889 0-35.171-14.338-43.233-31.749-12.447-26.877-12.447-61.051-12.447-61.051h37.12c0 17.957 16.681 25.903 37.12 32.77 21.402 7.204 46.934 13.212 61.793 28.281 7.633 7.737 12.447 17.852 12.447 31.749z" fill="#ffd33a"/><path d="m265.28 265.28s64.96-18.56 64.96-55.68c0-66.816-111.36-46.4-111.36-92.8h-37.12s0 92.8 55.68 92.8c74.818 0 27.84 55.68 27.84 55.68z" fill="#ffb632"/><path d="m265.28 358.08s64.96-18.56 64.96-55.68c0-66.816-111.36-46.4-111.36-92.8h-37.12s0 92.8 55.68 92.8c74.818 0 27.84 55.68 27.84 55.68z" fill="#ffd33a"/><path d="m265.28 450.88s64.96-18.56 64.96-55.68c0-66.816-111.36-46.4-111.36-92.8h-37.12s0 92.8 55.68 92.8c74.818 0 27.84 55.68 27.84 55.68z" fill="#ffb632"/><path d="m338.24 116.8c0-14.122-4.268-24.863-11.076-33.286 10.938-27.133 11.076-58.131 11.076-59.514 0-4.419-3.582-8-8-8h-37.12c-4.418 0-8 3.581-8 8 0 10.331-7.675 16.823-29.068 24.294-18.409-6.462-29.172-12.668-29.172-24.294 0-4.419-3.582-8-8-8h-37.12c-4.418 0-8 3.581-8 8 0 .995.083 24.65 7.298 48.699 1.571 5.237 3.322 9.962 5.214 14.237-12.343 12.88-12.511 29.082-12.511 29.864 0 .995.083 24.651 7.298 48.699 1.571 5.236 3.321 9.959 5.212 14.234-12.327 12.852-12.51 29.043-12.51 29.867 0 .995.083 24.651 7.298 48.699 1.571 5.237 3.321 9.961 5.213 14.236-12.328 12.854-12.511 29.045-12.511 29.865 0 .995.083 24.651 7.298 48.699 7.042 23.474 17.638 36.823 28.831 44.124-9.298 6.103-17.043 15.625-22.941 28.365-13.039 28.152-13.189 62.945-13.189 64.412 0 4.418 3.582 8 8 8h37.12c4.418 0 8-3.582 8-8 0-10.338 7.685-16.832 29.12-24.312 21.433 7.479 29.12 13.973 29.12 24.312 0 4.418 3.582 8 8 8h37.12c4.418 0 8-3.582 8-8 0-1.44-.154-34.997-12.495-62.861 7.423-8.331 12.495-18.283 12.495-29.939 0-24.455-12.763-38.801-29.45-48.439 19.331-12.81 29.45-27.955 29.45-44.361 0-24.453-12.762-38.799-29.448-48.437 19.334-12.801 29.448-27.927 29.448-44.363 0-24.457-12.766-38.804-29.457-48.442 19.317-12.816 29.457-28.004 29.457-44.358zm-38.07-84.8h21.714c-.644 9.202-2.446 24.962-7.48 39.901-10.394-7.169-22.958-11.992-35.137-16.027 9.409-5.128 18.09-12.559 20.903-23.874zm-88.391 448h-21.67c.778-11.234 3.285-32.259 11.357-49.69 8.446-18.243 20.213-27.11 35.974-27.11 18.474 0 30.344 3.636 33.423 10.238 4.129 8.851-5.471 24.246-10.501 30.786-1.344.596-6.104 3.151-6.91 3.423-18.14 6.094-37.347 14.109-41.673 32.353zm88.391 0c-2.99-12.025-12.607-19.661-22.682-24.81 9.257-3.475 23.342-9.65 35.624-18.707 6.026 15.956 8.076 33.571 8.772 43.518h-21.714zm22.07-84.8c0 17.469-20.157 31.354-38.109 39.867 4.516-10.898 4.938-20.418 1.248-28.359-6.015-12.944-22.143-19.508-47.939-19.508-46.65 0-47.666-82.608-47.68-84.755.009-.523.232-7.802 4.934-14.915 5.022 7.035 10.548 12.052 16.207 15.549.463 26.407 27.501 34.985 53.672 43.272 34.834 11.031 57.667 20.391 57.667 48.849zm-51.329-63.624c-.503-.159-37.865-9.812-42.334-21.897 3.057.507 6.033.72 8.863.72 17.569 0 29.269 3.317 32.941 9.339 2 3.28 1.671 7.685.53 11.838zm51.329-29.176c0 9.023-5.499 22.447-30.903 36.176-1.735-.673-3.477-1.322-5.222-1.947 3.471-11.89 1.057-20.087-2.073-25.22-6.979-11.445-22.223-17.009-46.602-17.009-19.071 0-32.856-13.597-40.972-40.413-6.475-21.395-6.702-43.286-6.709-44.339.009-.514.226-7.8 4.934-14.918 5.022 7.036 10.549 12.052 16.208 15.55.463 26.407 27.501 34.985 53.672 43.272 34.834 11.03 57.667 20.39 57.667 48.848zm-51.319-63.621c-.506-.16-38.437-10.211-42.343-21.9 3.057.507 6.033.721 8.863.721 17.344 0 28.994 3.241 32.806 9.124 2.148 3.317 1.843 7.805.674 12.055zm51.319-29.179c0 16.17-17.341 28.781-30.911 36.173-1.732-.672-3.471-1.32-5.214-1.944 3.6-12.335.862-20.705-2.441-25.803-7.159-11.053-22.283-16.426-46.234-16.426-19.071 0-32.856-13.597-40.972-40.414-6.476-21.397-6.702-43.29-6.709-44.339.009-.497.227-7.797 4.933-14.919 5.022 7.036 10.549 12.053 16.209 15.551.463 26.407 27.501 34.985 53.672 43.272 34.834 11.032 57.667 20.391 57.667 48.849zm-51.324-63.622c-.504-.16-38.151-10.043-42.339-21.899 3.057.507 6.033.72 8.863.72 17.672 0 29.392 3.352 33 9.438 1.931 3.256 1.627 7.572.476 11.741zm20.441 6.991.01.019c-1.749-.679-3.506-1.333-5.267-1.964 2.795-9.577 2.187-18.057-1.898-24.946-6.893-11.626-22.189-17.278-46.763-17.278-38.291 0-45.837-55.667-47.319-76.8h21.651c4.904 20.784 29.212 28.482 52.801 35.952 34.834 11.031 57.667 20.39 57.667 48.848.001 16.044-16.793 28.524-30.882 36.169z"/></svg>