<?xml version="1.0" encoding="UTF-8"?>
<svg xmlns="http://www.w3.org/2000/svg" viewBox="0 0 64 64" width="512" height="512"><g id="Layer_31" data-name="Layer 31"><path d="M50.958,21.042l1.917-1.917A14.085,14.085,0,0,0,57,9.166h0a14.037,14.037,0,0,0-.192-2.316L56,2l-.954,2.067A57.675,57.675,0,0,1,42.877,21.256L40.3,26l6.668-.635Z" style="fill:#487941"/><path d="M42.341,27.634l.011,0A74.693,74.693,0,0,1,62,25h0l-1.133-.907A14.119,14.119,0,0,0,52.048,21h0a14.108,14.108,0,0,0-7.481,2.146l-1.6,1Z" style="fill:#609b57"/><path d="M33.087,32.447l2.858-4.083A16.9,16.9,0,0,0,39,18.673h0a16.913,16.913,0,0,0-.328-3.314L38,12l.639.639A14.889,14.889,0,0,1,43,23.167h0a14.854,14.854,0,0,1-.445,3.611l-.824,3.3Z" style="fill:#6aa962"/><path d="M26.412,26.863A19.259,19.259,0,0,0,20,19h0l1.569,3.661A17.683,17.683,0,0,1,23,29.633h0a17.653,17.653,0,0,1-.623,4.651L20.9,39.713l7.271-7.266" style="fill:#487941"/><path d="M29.091,34.746l2.224-1.335A23.937,23.937,0,0,1,43.63,30h0a23.948,23.948,0,0,1,4.694.465L51,31l-5.684,2.067a25.493,25.493,0,0,0-7.8,4.538L33,40.2l-7.953-1.245Z" style="fill:#487941"/><path d="M27.611,37.965A16.238,16.238,0,0,1,33.125,37h0a16.227,16.227,0,0,1,10.388,3.761L45,42l-3.332-.555A32.682,32.682,0,0,0,36.3,41h0a32.675,32.675,0,0,0-12.14,2.338l-.144.058" style="fill:#609b57"/><path d="M14.209,33.23A40.772,40.772,0,0,1,17,26h0l.8,1.6A11.351,11.351,0,0,1,19,32.681h0a11.356,11.356,0,0,1-4.086,8.724l-.354.3" style="fill:#487941"/><path d="M12.257,47.857l6.409-5.826a24.11,24.11,0,0,0,5.349-7.061h0a24.131,24.131,0,0,0,2.427-8.387h0a20.12,20.12,0,0,1,3.925-10.072L33,13,31.063,27.2a32.483,32.483,0,0,1-5.576,14.245h0a32.468,32.468,0,0,1-5.819,6.329l-.768.641-4.691,7.908L6.841,57.2Z" style="fill:#6aa962"/><path d="M9.6,54.492,13.912,43.72A15.205,15.205,0,0,0,15,38.071h0a15.215,15.215,0,0,0-3.042-9.127L9,25l.737,6.636A42.944,42.944,0,0,1,10,36.379h0A42.94,42.94,0,0,1,8.006,49.314L4.923,59.077Z" style="fill:#609b57"/><path d="M2,62l5.958-5.958A37.922,37.922,0,0,1,37,45h0A27.672,27.672,0,0,1,21.272,55.316l-2.571.612A77.5,77.5,0,0,0,2,62Z" style="fill:#487941"/><path d="M61.491,23.312a15.183,15.183,0,0,0-8.135-3.254l.226-.226A14.985,14.985,0,0,0,58,9.166a15.178,15.178,0,0,0-.2-2.479l-.809-4.851a1,1,0,0,0-1.894-.255l-.954,2.066A56.421,56.421,0,0,1,43.487,19.21a15.77,15.77,0,0,0-4.14-7.277l-.64-.64a1,1,0,0,0-1.687.9l.671,3.359a15.9,15.9,0,0,1-2.565,12.236l-2.717,3.881q-.759.382-1.493.818a33.525,33.525,0,0,0,1.139-5.153l1.936-14.2A1,1,0,0,0,32.2,12.4l-2.634,3.512A21.109,21.109,0,0,0,25.9,23.805a20.265,20.265,0,0,0-5.314-5.618,1,1,0,0,0-1.5,1.207l1.569,3.661a16.694,16.694,0,0,1,.761,10.966L20,39.187a23.037,23.037,0,0,1-2.01,2.1l-3.193,2.9.041-.1a16.232,16.232,0,0,0,.592-1.816l.122-.1A12.357,12.357,0,0,0,18.7,27.155l-.8-1.6a1,1,0,0,0-1.79,0A41.907,41.907,0,0,0,14.063,30.4a15.967,15.967,0,0,0-1.305-2.06L9.8,24.4a1,1,0,0,0-1.794.71l.737,6.636A41.985,41.985,0,0,1,9,36.379,41.927,41.927,0,0,1,7.053,49.013L4.044,58.542,1.293,61.293a1,1,0,0,0,1.154,1.6A76.489,76.489,0,0,1,18.933,56.9l2.57-.612A28.727,28.727,0,0,0,37.8,45.6a1,1,0,0,0-.741-1.6,38.86,38.86,0,0,0-13.713,1.662c.429-.46.84-.937,1.243-1.421A31.675,31.675,0,0,1,41.5,42.431l3.332.555a1,1,0,0,0,.8-1.754l-1.488-1.24a17.2,17.2,0,0,0-4.582-2.721,24.424,24.424,0,0,1,6.087-3.265l5.684-2.067A1,1,0,0,0,51.2,30.02l-2.675-.536A24.991,24.991,0,0,0,43.63,29c-.2,0-.4.016-.605.021l.142-.566A73.677,73.677,0,0,1,62,26a1,1,0,0,0,.625-1.781ZM55.545,5.353l.277,1.662A13.171,13.171,0,0,1,56,9.166a13,13,0,0,1-3.832,9.252L50.5,20.089a15.094,15.094,0,0,0-6.46,2.209l-.077.048c-.012-.243-.012-.488-.035-.729A58.439,58.439,0,0,0,55.545,5.353ZM25.37,27.006a23,23,0,0,1-1.764,6.425,18.689,18.689,0,0,0,.393-3.8,18.559,18.559,0,0,0-1.268-6.771A18.276,18.276,0,0,1,25.37,27.006ZM17.027,28.3a10.333,10.333,0,0,1-1.063,10.536c.012-.255.036-.509.036-.766a16.2,16.2,0,0,0-.749-4.82A39.918,39.918,0,0,1,17.027,28.3ZM8.959,49.614A43.9,43.9,0,0,0,11,36.379a44.29,44.29,0,0,0-.269-4.854L10.4,28.531l.76,1.012A14.308,14.308,0,0,1,14,38.07a14.144,14.144,0,0,1-1.017,5.279L8.762,53.9q-.773.694-1.511,1.432l-.144.144Zm26-3.678A26.741,26.741,0,0,1,21.04,54.344l-2.57.612A78.505,78.505,0,0,0,6.621,58.793l2.044-2.044A36.957,36.957,0,0,1,34.778,45.935Zm-23.014,5.4L13.1,48.443l6.239-5.672a25.132,25.132,0,0,0,8.1-16.088,19.112,19.112,0,0,1,3.729-9.572l.323-.43L30.072,27.067a31.637,31.637,0,0,1-5.4,13.807,31.5,31.5,0,0,1-5.64,6.134l-.716.6A38.919,38.919,0,0,0,11.943,51.336ZM36.3,40a33.5,33.5,0,0,0-9.575,1.391c.559-.839,1.087-1.7,1.567-2.584a15.423,15.423,0,0,1,13,1.564A33.859,33.859,0,0,0,36.3,40Zm10.977-8.709-2.3.836a26.371,26.371,0,0,0-7.695,4.394,16.71,16.71,0,0,0-7.819-.111q.213-.48.412-.967l1.956-1.174A23.067,23.067,0,0,1,47.272,31.291Zm-11.434-1.03.927-1.323A17.822,17.822,0,0,0,40,18.673a18.03,18.03,0,0,0-.276-3.134A13.8,13.8,0,0,1,42,23.167a13.962,13.962,0,0,1-.414,3.369L40.93,29.16A24.9,24.9,0,0,0,35.838,30.261Zm7.855-4.008c.1-.5.172-1.011.223-1.521l1.182-.739a13.113,13.113,0,0,1,14,.063A75.664,75.664,0,0,0,43.693,26.253Z"/></g></svg>
