<svg id="Capa_1" enable-background="new 0 0 510 510" height="512" viewBox="0 0 510 510" width="512" xmlns="http://www.w3.org/2000/svg" xmlns:xlink="http://www.w3.org/1999/xlink"><linearGradient id="lg1"><stop offset="0" stop-color="#f9f5f3"/><stop offset="1" stop-color="#efe2dd"/></linearGradient><linearGradient id="SVGID_1_" gradientUnits="userSpaceOnUse" x1="255" x2="255" xlink:href="#lg1" y1="87.333" y2="110"/><linearGradient id="lg2"><stop offset="0" stop-color="#e1d3ce" stop-opacity="0"/><stop offset=".2298" stop-color="#dfceca" stop-opacity=".23"/><stop offset=".4933" stop-color="#d9c1bd" stop-opacity=".493"/><stop offset=".7725" stop-color="#cfaaa8" stop-opacity=".773"/><stop offset="1" stop-color="#c59191"/></linearGradient><linearGradient id="SVGID_00000144309782764744503370000015249307918025862833_" gradientUnits="userSpaceOnUse" x1="255" x2="255" xlink:href="#lg2" y1="113" y2="79.318"/><linearGradient id="SVGID_00000029013210883347399170000012885256622830440106_" gradientUnits="userSpaceOnUse" x1="338.5" x2="407" xlink:href="#lg2" y1="99.333" y2="99.333"/><linearGradient id="SVGID_00000158712358609194265810000011676491882394063508_" gradientUnits="userSpaceOnUse" x1="197.868" x2="338.497" xlink:href="#lg1" y1="178.7" y2="461.982"/><linearGradient id="SVGID_00000129176100276119126660000003240704387514526891_" gradientUnits="userSpaceOnUse" x1="255" x2="255" xlink:href="#lg2" y1="379.333" y2="345.229"/><linearGradient id="SVGID_00000083058936674375932430000006254134682489771166_" gradientUnits="userSpaceOnUse" x1="348.332" x2="471.644" xlink:href="#lg2" y1="312.467" y2="312.467"/><linearGradient id="SVGID_00000019648558383630307530000007133718978450284442_" gradientUnits="userSpaceOnUse" x1="255" x2="255" xlink:href="#lg2" y1="450.667" y2="510.135"/><linearGradient id="lg3"><stop offset="0" stop-color="#a274bf"/><stop offset=".1435" stop-color="#976fbb"/><stop offset=".3928" stop-color="#7b61b3"/><stop offset=".7158" stop-color="#4d4ba4"/><stop offset="1" stop-color="#1f3596"/></linearGradient><linearGradient id="SVGID_00000008109880931653497440000017142664440332197290_" gradientUnits="userSpaceOnUse" x1="160.018" x2="415.814" xlink:href="#lg3" y1="204.184" y2="459.981"/><linearGradient id="lg4"><stop offset="0" stop-color="#1f3596" stop-opacity="0"/><stop offset=".2618" stop-color="#1e3190" stop-opacity=".262"/><stop offset=".6062" stop-color="#1d267f" stop-opacity=".606"/><stop offset=".9953" stop-color="#1b1464" stop-opacity=".995"/><stop offset="1" stop-color="#1b1464"/></linearGradient><linearGradient id="SVGID_00000064342891107179336720000010890671558842822831_" gradientUnits="userSpaceOnUse" x1="333.355" x2="426.753" xlink:href="#lg4" y1="316.555" y2="316.555"/><linearGradient id="SVGID_00000073716061901656909760000017260662551617913224_" gradientUnits="userSpaceOnUse" x1="255" x2="255" xlink:href="#lg4" y1="419" y2="472.935"/><linearGradient id="SVGID_00000134230615583692164260000006276110025156067252_" gradientUnits="userSpaceOnUse" x1="255" x2="255" xlink:href="#lg4" y1="383.333" y2="337.512"/><linearGradient id="lg5"><stop offset="0" stop-color="#fef0ae"/><stop offset="1" stop-color="#fac600"/></linearGradient><linearGradient id="SVGID_00000044870110181691114130000005086569474434148761_" gradientUnits="userSpaceOnUse" x1="248.207" x2="265.798" xlink:href="#lg5" y1="14.039" y2="95.083"/><linearGradient id="lg6"><stop offset="0" stop-color="#fea613" stop-opacity="0"/><stop offset=".1982" stop-color="#fda215" stop-opacity=".198"/><stop offset=".4018" stop-color="#fa961b" stop-opacity=".402"/><stop offset=".608" stop-color="#f68126" stop-opacity=".608"/><stop offset=".8146" stop-color="#f06434" stop-opacity=".815"/><stop offset="1" stop-color="#e94444"/></linearGradient><linearGradient id="SVGID_00000017518869354082249550000005521491282625691299_" gradientUnits="userSpaceOnUse" x1="255" x2="255" xlink:href="#lg6" y1="44" y2="94.16"/><linearGradient id="SVGID_00000031208238846284149380000002229086460986439866_" gradientUnits="userSpaceOnUse" x1="255" x2="255" xlink:href="#lg6" y1="8.667" y2="114.968"/><linearGradient id="SVGID_00000138541013940744848840000010497612313387005869_" gradientUnits="userSpaceOnUse" x1="255" x2="255" xlink:href="#lg6" y1="8.667" y2="103.392"/><linearGradient id="SVGID_00000069382263851217201980000006421983539810232751_" gradientUnits="userSpaceOnUse" x1="255" x2="255" xlink:href="#lg6" y1="20.667" y2="90.679"/><linearGradient id="SVGID_00000165227992608628792240000009044361101940669866_" gradientUnits="userSpaceOnUse" x1="365.368" x2="437.246" xlink:href="#lg6" y1="41.419" y2="41.419"/><linearGradient id="SVGID_00000124138251246066912340000017277879924486610839_" gradientUnits="userSpaceOnUse" x1="250.975" x2="260.308" xlink:href="#lg5" y1="273.729" y2="353.062"/><linearGradient id="SVGID_00000038395821959891604090000009981521513389094826_" gradientUnits="userSpaceOnUse" x1="409" x2="484.872" xlink:href="#lg6" y1="304.842" y2="304.842"/><linearGradient id="SVGID_00000173141466514334843650000009128399387459752584_" gradientUnits="userSpaceOnUse" x1="401.9" x2="348.9" xlink:href="#lg6" y1="312.33" y2="287.83"/><linearGradient id="SVGID_00000183247023735804642480000016215037329429297059_" gradientUnits="userSpaceOnUse" x1="195.514" x2="313.514" xlink:href="#lg1" y1="242.863" y2="358.863"/><linearGradient id="lg7"><stop offset="0" stop-color="#bbec6c"/><stop offset=".1997" stop-color="#b4e564"/><stop offset=".5083" stop-color="#a1d24e"/><stop offset=".8852" stop-color="#83b32b"/><stop offset="1" stop-color="#78a91f"/></linearGradient><linearGradient id="SVGID_00000137123752188160937420000003629568652598343845_" gradientUnits="userSpaceOnUse" x1="308.132" x2="332.466" xlink:href="#lg7" y1="250.845" y2="314.512"/><linearGradient id="lg8"><stop offset="0" stop-color="#6dab65" stop-opacity="0"/><stop offset=".1569" stop-color="#65a763" stop-opacity=".157"/><stop offset=".3993" stop-color="#4f9e5f" stop-opacity=".399"/><stop offset=".6968" stop-color="#2c8e57" stop-opacity=".697"/><stop offset="1" stop-color="#017b4e"/></linearGradient><linearGradient id="SVGID_00000116947824922137083400000000042169738355302025_" gradientUnits="userSpaceOnUse" x1="334.996" x2="302.663" xlink:href="#lg8" y1="274.112" y2="334.446"/><linearGradient id="SVGID_00000143586944573508316030000012035244207545051542_" gradientUnits="userSpaceOnUse" x1="357.077" x2="338.744" xlink:href="#lg8" y1="251.248" y2="300.248"/><linearGradient id="SVGID_00000116937471528390591640000013764996268282301343_" gradientUnits="userSpaceOnUse" x1="345.928" x2="288.595" xlink:href="#lg8" y1="300.564" y2="272.23"/><linearGradient id="SVGID_00000020375949826051414080000001437640643480381062_" gradientUnits="userSpaceOnUse" x1="321.552" x2="321.552" xlink:href="#lg8" y1="306.067" y2="340.093"/><linearGradient id="SVGID_00000075149486130163860900000013336738808757998783_" gradientTransform="matrix(-.94 .342 .342 .94 235.621 -41.547)" gradientUnits="userSpaceOnUse" x1="140.409" x2="164.742" xlink:href="#lg7" y1="278.884" y2="342.551"/><linearGradient id="SVGID_00000026121444022565422390000014928058910292347025_" gradientTransform="matrix(-.94 .342 .342 .94 235.621 -41.547)" gradientUnits="userSpaceOnUse" x1="167.273" x2="134.939" xlink:href="#lg8" y1="302.151" y2="362.484"/><linearGradient id="SVGID_00000142153593138892591260000005050529329208362901_" gradientTransform="matrix(-.94 .342 .342 .94 235.621 -41.547)" gradientUnits="userSpaceOnUse" x1="189.353" x2="171.02" xlink:href="#lg8" y1="279.287" y2="328.287"/><linearGradient id="SVGID_00000023994674036767083270000005255487055901745030_" gradientTransform="matrix(-.94 .342 .342 .94 235.621 -41.547)" gradientUnits="userSpaceOnUse" x1="178.205" x2="120.872" xlink:href="#lg8" y1="328.603" y2="300.269"/><linearGradient id="SVGID_00000014625828292921569780000004722716620445602693_" gradientTransform="matrix(-.94 .342 .342 .94 235.621 -41.547)" gradientUnits="userSpaceOnUse" x1="153.828" x2="153.828" xlink:href="#lg8" y1="334.106" y2="368.132"/><linearGradient id="SVGID_00000048494265674697870170000004818086378531947921_" gradientUnits="userSpaceOnUse" x1="230.211" x2="236.594" xlink:href="#lg3" y1="253.162" y2="263.843"/><linearGradient id="SVGID_00000111181366809247502030000011701556280775062442_" gradientUnits="userSpaceOnUse" x1="264.843" x2="269.263" xlink:href="#lg3" y1="249.57" y2="261.969"/><linearGradient id="SVGID_00000123402423935820677220000000538745978601884035_" gradientUnits="userSpaceOnUse" x1="222.374" x2="286.395" xlink:href="#lg3" y1="271.286" y2="335.306"/><linearGradient id="SVGID_00000146458644727427197460000015326217748874409109_" gradientUnits="userSpaceOnUse" x1="193.416" x2="274.807" xlink:href="#lg4" y1="258.018" y2="383.235"/><linearGradient id="SVGID_00000115502617586974510170000008500288542960864427_" gradientUnits="userSpaceOnUse" x1="226.928" x2="308.319" xlink:href="#lg4" y1="236.235" y2="361.453"/><linearGradient id="SVGID_00000141448367657915018690000005337933670109726100_" gradientUnits="userSpaceOnUse" x1="188.418" x2="269.809" xlink:href="#lg4" y1="261.267" y2="386.484"/><linearGradient id="SVGID_00000057835844860169079070000017983673051082049670_" gradientUnits="userSpaceOnUse" x1="244.537" x2="325.928" xlink:href="#lg4" y1="224.789" y2="350.007"/><linearGradient id="SVGID_00000090274974299449449450000007158961447403720625_" gradientUnits="userSpaceOnUse" x1="230.965" x2="312.356" xlink:href="#lg4" y1="233.611" y2="358.829"/><linearGradient id="SVGID_00000012433332266083328720000010598981118136928700_" gradientUnits="userSpaceOnUse" x1="212.356" x2="293.747" xlink:href="#lg4" y1="245.707" y2="370.925"/><linearGradient id="SVGID_00000074413939962877513040000010208183735070800540_" gradientUnits="userSpaceOnUse" x1="255" x2="255" xlink:href="#lg4" y1="314.119" y2="352.796"/><linearGradient id="SVGID_00000114032130811375903190000010100649357888364687_" gradientUnits="userSpaceOnUse" x1="278.745" x2="263.092" xlink:href="#lg4" y1="265.44" y2="261.573"/><linearGradient id="SVGID_00000035518624986446202290000015341352119299974788_" gradientUnits="userSpaceOnUse" x1="229.877" x2="241.847" xlink:href="#lg4" y1="263.727" y2="249.917"/><g><path d="m104 70.667h302v57.333h-302z" fill="url(#SVGID_1_)"/><path d="m104 70.667h302v57.333h-302z" fill="url(#SVGID_00000144309782764744503370000015249307918025862833_)"/><path d="m255 70.667h151v57.333h-151z" fill="url(#SVGID_00000029013210883347399170000012885256622830440106_)"/><g><path d="m399.802 114.934c-116.678 0-172.926 0-289.604 0-26.243 0-48.988 18.126-54.91 43.692-17.816 76.902-22.245 154.184-13.285 231.276 7.929 68.222 74.23 120.099 153.238 120.098h119.521c79.006-.001 145.306-51.877 153.235-120.098 8.96-77.092 4.531-154.374-13.284-231.276-5.923-25.566-28.668-43.692-54.911-43.692z" fill="url(#SVGID_00000158712358609194265810000011676491882394063508_)"/><path d="m37.582 321.9c.32 22.674 1.788 45.346 4.421 68.001 4.532 38.995 28.141 72.643 62.287 94.322h301.42c34.146-21.679 57.755-55.327 62.287-94.322 2.633-22.656 4.101-45.328 4.421-68.002h-434.836z" fill="url(#SVGID_00000129176100276119126660000003240704387514526891_)"/><path d="m314.76 510c79.007 0 145.307-51.877 153.237-120.098 8.96-77.092 4.531-154.374-13.284-231.276-5.923-25.565-28.668-43.691-54.91-43.691-58.339 0-101.571 0-144.802 0v395.065z" fill="url(#SVGID_00000083058936674375932430000006254134682489771166_)"/><path d="m39.926 369.129c.589 6.925 1.272 13.85 2.076 20.773 7.93 68.221 74.23 120.098 153.237 120.098h119.521c79.007 0 145.307-51.877 153.237-120.098.805-6.923 1.488-13.847 2.076-20.773z" fill="url(#SVGID_00000019648558383630307530000007133718978450284442_)"/></g><g><g><path d="m430.24 376.17c-6.53 56.13-61.07 98.81-126.07 98.81h-98.34c-65 0-119.54-42.68-126.07-98.81-5.03-43.23-4.93-86.54.28-129.77 2.636-21.839 6.57-43.662 11.82-65.452.779-3.234 3.717-5.432 7.044-5.428h.057c9.15 0 18.3-2.9 26-8.7s16.86-8.69 26.01-8.69 18.31 2.89 26.01 8.69 16.85 8.7 26 8.7c9.16 0 18.31-2.9 26.01-8.7s16.85-8.69 26.01-8.69 18.31 2.89 26.01 8.69 16.85 8.7 26.01 8.7c9.15 0 18.3-2.9 26-8.7s16.86-8.69 26.01-8.69 18.31 2.89 26.01 8.69c7.749 5.838 16.972 8.741 26.185 8.697 3.278-.016 6.146 2.236 6.914 5.423 5.25 21.793 9.186 43.618 11.822 65.461 5.208 43.239 5.308 86.539.278 129.769z" fill="url(#SVGID_00000008109880931653497440000017142664440332197290_)"/></g><path d="m430.24 376.17c-6.53 56.13-61.07 98.81-126.07 98.81h-49.17v-316.85c9.16 0 18.31 2.89 26.01 8.69s16.85 8.7 26.01 8.7c9.15 0 18.3-2.9 26-8.7s16.86-8.69 26.01-8.69 18.31 2.89 26.01 8.69c7.749 5.838 16.972 8.741 26.185 8.697 3.278-.016 6.146 2.236 6.914 5.423 5.25 21.793 9.186 43.618 11.822 65.461 5.209 43.239 5.309 86.539.279 129.769z" fill="url(#SVGID_00000064342891107179336720000010890671558842822831_)"/><path d="m79.763 376.174c6.523 56.127 61.07 98.807 126.071 98.807h98.332c65 0 119.547-42.68 126.07-98.807.273-2.348.531-4.697.773-7.045h-352.019c.243 2.349.5 4.697.773 7.045z" fill="url(#SVGID_00000073716061901656909760000017260662551617913224_)"/><path d="m433.848 321.9h-357.696c.311 18.096 1.504 36.19 3.608 54.27 6.53 56.13 61.07 98.81 126.07 98.81h98.34c65 0 119.54-42.68 126.07-98.81 2.104-18.081 3.297-36.174 3.608-54.27z" fill="url(#SVGID_00000134230615583692164260000006276110025156067252_)"/></g><g><path d="m394.4 0h-278.8c-16.274 0-29.466 13.192-29.466 29.466v32.686c0 11.424 9.261 20.685 20.685 20.685h296.362c11.424 0 20.685-9.261 20.685-20.685v-32.686c0-16.274-13.192-29.466-29.466-29.466z" fill="url(#SVGID_00000044870110181691114130000005086569474434148761_)"/><path d="m394.4 0h-278.8c-16.274 0-29.466 13.192-29.466 29.466v32.686c0 11.424 9.261 20.685 20.685 20.685h296.362c11.424 0 20.685-9.261 20.685-20.685v-32.686c0-16.274-13.192-29.466-29.466-29.466z" fill="url(#SVGID_00000017518869354082249550000005521491282625691299_)"/><path d="m349.862 0h-189.724c-13.699 0-24.805 11.106-24.805 24.805v40.62c0 9.617 7.796 17.413 17.413 17.413h204.507c9.617 0 17.413-7.796 17.413-17.413v-40.62c.001-13.699-11.105-24.805-24.804-24.805z" fill="url(#SVGID_00000031208238846284149380000002229086460986439866_)"/><path d="m304.014 0h-98.028c-10.302 0-18.653 8.351-18.653 18.653v51.091c0 7.232 5.862 13.094 13.094 13.094h109.145c7.232 0 13.094-5.862 13.094-13.094v-51.091c.001-10.302-8.35-18.653-18.652-18.653z" fill="url(#SVGID_00000138541013940744848840000010497612313387005869_)"/><path d="m266.617 0h-23.235c-5.918 0-10.716 4.798-10.716 10.716v64.599c0 4.155 3.368 7.523 7.523 7.523h29.622c4.155 0 7.523-3.368 7.523-7.523v-64.599c-.001-5.918-4.798-10.716-10.717-10.716z" fill="url(#SVGID_00000069382263851217201980000006421983539810232751_)"/><path d="m394.4 0h-139.4v82.838h148.181c11.424 0 20.685-9.261 20.685-20.685v-32.687c0-16.274-13.193-29.466-29.466-29.466z" fill="url(#SVGID_00000165227992608628792240000009044361101940669866_)"/></g><path d="m45.719 346.11h418.561c5.726 0 10.432-4.534 10.635-10.257.736-20.756.487-41.517-.741-62.271-.332-5.621-4.993-10.01-10.623-10.01h-417.103c-5.63 0-10.291 4.389-10.623 10.01-1.228 20.754-1.477 41.514-.741 62.271.203 5.723 4.909 10.257 10.635 10.257z" fill="url(#SVGID_00000124138251246066912340000017277879924486610839_)"/><path d="m463.552 263.573h-158.046v82.537h158.774c5.726 0 10.432-4.534 10.635-10.257.736-20.757.487-41.517-.74-62.271-.332-5.62-4.993-10.009-10.623-10.009z" fill="url(#SVGID_00000038395821959891604090000009981521513389094826_)"/><path d="m463.552 263.573h-158.046v82.537h158.774c5.726 0 10.432-4.534 10.635-10.257.736-20.757.487-41.517-.74-62.271-.332-5.62-4.993-10.009-10.623-10.009z" fill="url(#SVGID_00000173141466514334843650000009128399387459752584_)"/><g><path d="m340.314 323.407-1.131 1.204c-5.95 6.338-9.088 14.811-8.703 23.496l.022.494c.776 17.48-12.532 32.389-29.988 33.594l-1.58.109c-7.902.546-15.326 3.981-20.857 9.65-12.652 12.969-33.503 12.969-46.155 0-5.531-5.669-12.955-9.104-20.857-9.65l-1.58-.109c-17.456-1.205-30.764-16.114-29.988-33.594l.022-.494c.386-8.685-2.753-17.158-8.703-23.496l-1.131-1.204c-11.646-12.406-11.646-31.727 0-44.133l1.131-1.204c5.95-6.338 9.088-14.811 8.703-23.496l-.022-.494c-.776-17.48 12.532-32.389 29.988-33.594l1.58-.109c7.902-.546 15.326-3.981 20.857-9.65 12.652-12.969 33.503-12.969 46.155 0 5.531 5.669 12.955 9.104 20.857 9.65l1.58.109c17.456 1.205 30.764 16.114 29.988 33.594l-.022.494c-.386 8.685 2.753 17.158 8.703 23.496l1.131 1.204c11.647 12.406 11.647 31.727 0 44.133z" fill="url(#SVGID_00000183247023735804642480000016215037329429297059_)"/><g><g><path d="m273.293 327.484v-13.857c0-41.046 33.274-74.319 74.319-74.319h13.857c5.709 0 10.336 4.628 10.336 10.336v13.857c0 41.046-33.274 74.319-74.319 74.319h-13.857c-5.709.001-10.336-4.627-10.336-10.336z" fill="url(#SVGID_00000137123752188160937420000003629568652598343845_)"/><path d="m361.466 239.31h-13.85c-15.63 0-30.14 4.838-42.11 13.1v45.56c0 4.22 3.42 7.64 7.64 7.64h45.56c8.262-11.969 13.1-26.479 13.1-42.11v-13.86c0-5.699-4.63-10.33-10.34-10.33z" fill="url(#SVGID_00000116947824922137083400000000042169738355302025_)"/><path d="m361.466 239.31h-13.85c-3.409 0-6.755.253-10.04.702v27.058c0 5.16 4.19 9.34 9.34 9.34h23.75c-.245 1.403-.534 2.791-.857 4.165 1.292-5.486 1.997-11.198 1.997-17.075v-13.86c0-5.699-4.63-10.33-10.34-10.33z" fill="url(#SVGID_00000143586944573508316030000012035244207545051542_)"/><path d="m371.805 249.645c0-2.602-.969-4.973-2.556-6.79l-92.41 92.41c1.817 1.587 4.188 2.556 6.79 2.556h13.857c41.046 0 74.319-33.274 74.32-74.32z" fill="url(#SVGID_00000116937471528390591640000013764996268282301343_)"/><path d="m281.047 280.575c-4.954 9.958-7.755 21.176-7.755 33.052v13.857c0 5.708 4.628 10.336 10.336 10.336h13.857c35.167 0 64.608-24.434 72.326-57.245z" fill="url(#SVGID_00000020375949826051414080000001437640643480381062_)"/></g><g><path d="m258.015 328.643-4.739-13.021c-14.038-38.57-56.686-58.457-95.256-44.419l-13.021 4.739c-5.364 1.952-8.13 7.884-6.178 13.248l4.739 13.021c14.038 38.57 56.686 58.457 95.256 44.419l13.021-4.739c5.365-1.952 8.131-7.884 6.178-13.248z" fill="url(#SVGID_00000075149486130163860900000013336738808757998783_)"/><path d="m145.002 275.943 13.015-4.737c14.688-5.346 29.977-5.763 44.051-2.093l15.583 42.813c1.443 3.965-.601 8.349-4.566 9.792l-42.813 15.583c-11.858-8.422-21.366-20.402-26.712-35.09l-4.74-13.024c-1.951-5.356.816-11.291 6.182-13.244z" fill="url(#SVGID_00000026121444022565422390000014928058910292347025_)"/><path d="m145.002 275.943 13.015-4.737c3.203-1.166 6.435-2.073 9.675-2.774l9.254 25.426c1.765 4.849-.743 10.21-5.582 11.971l-22.318 8.123c.71 1.234 1.456 2.44 2.23 3.621-3.091-4.713-5.706-9.839-7.716-15.362l-4.74-13.024c-1.951-5.356.816-11.291 6.182-13.244z" fill="url(#SVGID_00000142153593138892591260000005050529329208362901_)"/><path d="m138.821 289.191c-.89-2.445-.791-5.004.079-7.255l118.443 55.231c-1.165 2.113-3.061 3.834-5.506 4.724l-13.021 4.739c-38.57 14.038-81.218-5.849-95.256-44.419z" fill="url(#SVGID_00000023994674036767083270000005255487055901745030_)"/><path d="m234.684 287.215c8.061 7.663 14.53 17.246 18.592 28.407l4.739 13.021c1.952 5.364-.814 11.296-6.178 13.248l-13.021 4.739c-33.046 12.028-69.069-.863-87.543-29.056z" fill="url(#SVGID_00000014625828292921569780000004722716620445602693_)"/></g></g><g><g><path d="m231.66 252.261-10.048 15.224h34.318l-10.048-15.224c-3.367-5.103-10.854-5.103-14.222 0z" fill="url(#SVGID_00000048494265674697870170000004818086378531947921_)"/><path d="m264.118 252.261-10.048 15.224h34.318l-10.048-15.224c-3.368-5.103-10.854-5.103-14.222 0z" fill="url(#SVGID_00000111181366809247502030000011701556280775062442_)"/></g><path d="m218.606 269.186c.366 1.789-.163 3.656-1.449 4.952-9.554 9.633-15.457 22.893-15.457 37.532 0 29.437 23.863 46.233 53.3 46.233s53.3-16.797 53.3-46.233c0-14.639-5.902-27.9-15.457-37.532-1.286-1.297-1.816-3.163-1.449-4.952l.627-3.062c1.158-5.656-3.841-10.655-9.497-9.497l-9.885 2.025c-2.209.452-4.471-.485-5.713-2.367l-5.21-7.894c-3.18-4.819-10.25-4.819-13.431 0l-5.21 7.894c-1.242 1.882-3.504 2.819-5.713 2.367l-9.885-2.025c-5.656-1.158-10.655 3.841-9.497 9.497z" fill="url(#SVGID_00000123402423935820677220000000538745978601884035_)"/><g><circle cx="234.939" cy="321.9" fill="url(#SVGID_00000146458644727427197460000015326217748874409109_)" r="7.237"/><circle cx="274.171" cy="308.917" fill="url(#SVGID_00000115502617586974510170000008500288542960864427_)" r="5.228"/><circle cx="240.168" cy="340.882" fill="url(#SVGID_00000141448367657915018690000005337933670109726100_)" r="5.228"/><circle cx="290.677" cy="295.775" fill="url(#SVGID_00000057835844860169079070000017983673051082049670_)" r="3.328"/><circle cx="266.732" cy="288.637" fill="url(#SVGID_00000090274974299449449450000007158961447403720625_)" r="3.328"/><path d="m261.796 318.442c-1.838 0-3.328 1.49-3.328 3.328s1.49 3.328 3.328 3.328 3.328-1.49 3.328-3.328-1.49-3.328-3.328-3.328z" fill="url(#SVGID_00000012433332266083328720000010598981118136928700_)"/></g><path d="m201.7 311.671c0 29.437 23.863 46.233 53.3 46.233s53.3-16.797 53.3-46.233c0-5.585-.862-10.969-2.455-16.028h-101.69c-1.593 5.059-2.455 10.442-2.455 16.028z" fill="url(#SVGID_00000074413939962877513040000010208183735070800540_)"/><path d="m296.034 277.658c-.997-1.201-2.043-2.359-3.139-3.468-1.302-1.317-1.872-3.189-1.501-5.004l.627-3.062c1.158-5.656-3.841-10.655-9.497-9.497l-9.885 2.025c-2.209.452-4.471-.485-5.713-2.367l8.358 14.523c2.438 4.237 6.955 6.849 11.844 6.849h8.906z" fill="url(#SVGID_00000114032130811375903190000010100649357888364687_)"/><path d="m237.361 258.652-9.885-2.025c-5.656-1.158-10.655 3.841-9.497 9.497l.627 3.062c.366 1.789-.163 3.656-1.449 4.952-5.329 5.373-9.52 11.875-12.187 19.115h13.303l24.802-36.968c-1.242 1.883-3.505 2.82-5.714 2.367z" fill="url(#SVGID_00000035518624986446202290000015341352119299974788_)"/></g></g></g></svg>