<svg height="512" viewBox="0 0 64 64" width="512" xmlns="http://www.w3.org/2000/svg"><g id="_08-olive_oil" data-name="08-olive oil"><path d="m26 32-12-12s12 2 12 12z" fill="#679c20"/><path d="m14 16-12 12c0-10 12-12 12-12z" fill="#679c20"/><path d="m14 27-12 12c0-10 12-12 12-12z" fill="#679c20"/><path d="m26 43-12-12s12 2 12 12z" fill="#679c20"/><path d="m14 20 12 12s-12-2-12-12z" fill="#345c00"/><path d="m2 28 12-12c0 10-12 12-12 12z" fill="#345c00"/><path d="m2 39 12-12c0 10-12 12-12 12z" fill="#345c00"/><path d="m14 31 12 12s-12-2-12-12z" fill="#345c00"/><path d="m29.88 55.79a5.983 5.983 0 0 1 .12 1.21c0 3.31-2.69 6-7.11 6a11.8 11.8 0 0 1 -4.56-.94 11.625 11.625 0 0 0 3.25-2.27c2.89-2.89 3.08-6.36 1.17-8.69l.14-.1c3.87 0 6.41 2.06 6.99 4.79z" fill="#a7e340"/><path d="m18.33 62.06c-2.65 1.24-5.53 1.35-7.14-.25a3.218 3.218 0 0 1 -.57-.76 11.1 11.1 0 0 0 2.38-6.94 9.493 9.493 0 0 0 -.25-2.2c.15-.17.3-.33.46-.49a7.6 7.6 0 0 1 4.79-2.4 5.3 5.3 0 0 1 1.95.2 5.411 5.411 0 0 1 2.4 1.43 3.39 3.39 0 0 1 .4.45c1.91 2.33 1.72 5.8-1.17 8.69a11.625 11.625 0 0 1 -3.25 2.27z" fill="#cdf55f"/><path d="m12.75 51.91a9.493 9.493 0 0 1 .25 2.2 11.1 11.1 0 0 1 -2.38 6.94 4.845 4.845 0 0 1 -3.62 1.95c-3.31 0-6-4.47-6-8.89s2.69-7.11 6-7.11a5.9 5.9 0 0 1 5.75 4.91z" fill="#a7e340"/><path d="m40 1h8v6h-8z" fill="#9a6948"/><path d="m40 11h8v6h-8z" fill="#9a6948"/><path d="m48 11h-8v6h8zm3 0v4a8.024 8.024 0 0 1 8.83 13.36 14.231 14.231 0 0 1 1.17 5.64v.45a29.979 29.979 0 0 1 -.83 7l-4.43 18.48a4.009 4.009 0 0 1 -3.89 3.07h-15.7a4.009 4.009 0 0 1 -3.89-3.07l-1.07-4.45-3.36-14.03a29.979 29.979 0 0 1 -.83-7v-.45a14.1 14.1 0 0 1 .12-1.84 15.167 15.167 0 0 1 9.88-12.07v-6.09l-4.24-3.39a2.028 2.028 0 0 1 1.27-3.61h17.97a2 2 0 0 1 0 4zm0 8.03v1.06a15.849 15.849 0 0 1 7.33 5.62 4.986 4.986 0 1 0 -7.33-6.68zm6 16.35v-.39a13.246 13.246 0 0 0 -8-11.99h-10a13.246 13.246 0 0 0 -8 11.99v.39a29.146 29.146 0 0 0 .63 6.04l3.4 15.94a3.154 3.154 0 0 0 2.97 2.64h12a3.154 3.154 0 0 0 2.97-2.64l3.4-15.94a29.146 29.146 0 0 0 .63-6.04z" fill="#ede9e1"/><path d="m55 17a4.986 4.986 0 0 1 3.33 8.71 15.849 15.849 0 0 0 -7.33-5.62v-1.06a4.966 4.966 0 0 1 4-2.03z" fill="#f6fafd"/><path d="m57 34.99v.39a29.146 29.146 0 0 1 -.63 6.04l-3.4 15.94a3.154 3.154 0 0 1 -2.97 2.64h-12a3.154 3.154 0 0 1 -2.97-2.64l-3.4-15.94a29.146 29.146 0 0 1 -.63-6.04v-.39a13.246 13.246 0 0 1 8-11.99h10a13.246 13.246 0 0 1 8 11.99z" fill="#ffdf64"/><path d="m24.58 59.79c2.7-2.7 3.04-5.9 1.524-8.2a8.783 8.783 0 0 0 -3.214-.59l-.14.1c1.91 2.33 1.72 5.8-1.17 8.69a11.625 11.625 0 0 1 -3.25 2.27 11.95 11.95 0 0 0 1.593.531 10.862 10.862 0 0 0 1.407-.531 11.625 11.625 0 0 0 3.25-2.27z" fill="#78b22a"/><path d="m9 59c-3.31 0-6-4.47-6-8.89a9.887 9.887 0 0 1 .124-1.584 7.484 7.484 0 0 0 -2.124 5.584c0 4.42 2.69 8.89 6 8.89a4.845 4.845 0 0 0 3.62-1.95 10.256 10.256 0 0 0 1.99-3.99 4.837 4.837 0 0 1 -3.61 1.94z" fill="#78b22a"/><path d="m50.462 57h-12.924a3.292 3.292 0 0 1 -3.045-2.158l.537 2.518a3.154 3.154 0 0 0 2.97 2.64h12a3.154 3.154 0 0 0 2.97-2.64l.537-2.518a3.292 3.292 0 0 1 -3.045 2.158z" fill="#ffce54"/><path d="m44 1v2a2 2 0 0 0 2 2h2v2h-8v-6z" fill="#714226"/><path d="m44 17v-2a2 2 0 0 1 2-2h2v-2h-8v6z" fill="#714226"/><path d="m52 9h-18a1.994 1.994 0 0 1 -1.723-1 1.988 1.988 0 0 0 1.723 3h18a1.988 1.988 0 0 0 1.723-3 1.994 1.994 0 0 1 -1.723 1z" fill="#cdc3b4"/><path d="m48 11v6h-8v-6h-6.752l3.752 3a2 2 0 0 1 2 2v2a2 2 0 0 0 2 2h6a2 2 0 0 0 2-2v-2a2 2 0 0 1 2-2v-3z" fill="#cdc3b4"/><path d="m40 11h-6.752l2.501 2h4.251z" fill="#afa59b"/><path d="m51 12v-1h-3v2h3z" fill="#afa59b"/><path d="m54.854 15.087a2 2 0 0 0 .022 1.921c.042 0 .082-.008.124-.008a5 5 0 0 1 5 5 4.9 4.9 0 0 1 -.251 1.55 1.99 1.99 0 0 0 3.251-1.55 7.991 7.991 0 0 0 -6.845-7.907 1.985 1.985 0 0 0 -1.301.994z" fill="#f7f3eb"/><path d="m56.667 32.134a12.519 12.519 0 0 1 .333 2.856v.39a29.146 29.146 0 0 1 -.63 6.04l-3.006 14.091a2.962 2.962 0 0 0 3.472-.153l3.334-13.908a29.979 29.979 0 0 0 .83-7v-.45a14.083 14.083 0 0 0 -.224-2.407 2.962 2.962 0 0 0 -4.109.541z" fill="#f7f3eb"/><path d="m34.636 55.511-3.006-14.091a29.146 29.146 0 0 1 -.63-6.04v-.39a12.519 12.519 0 0 1 .333-2.856 2.961 2.961 0 0 0 -4.12-.532c-.032.186-.069.37-.093.558a14.1 14.1 0 0 0 -.12 1.84v.45a29.979 29.979 0 0 0 .83 7l3.33 13.9a2.961 2.961 0 0 0 3.476.157z" fill="#f7f3eb"/><path d="m49 23h-10a13.314 13.314 0 0 0 -4.981 3.76 21.981 21.981 0 0 0 20.953 21.214l1.4-6.554a29.146 29.146 0 0 0 .628-6.04v-.39a13.246 13.246 0 0 0 -8-11.99z" fill="#fff978"/><path d="m23.886 53.479c-.486 3.157-2.486 5.521-4.886 5.521-2.965 0-5.418-3.22-5.906-7.457-.116.12-.232.24-.344.367a9.493 9.493 0 0 1 .25 2.2 11.1 11.1 0 0 1 -2.38 6.94 3.218 3.218 0 0 0 .57.76c1.61 1.6 4.49 1.49 7.14.25a11.625 11.625 0 0 0 3.25-2.27 7 7 0 0 0 2.306-6.311z" fill="#a7e340"/><rect fill="#ffb844" height="2" rx="1" width="8" x="38" y="57"/><rect fill="#ffb844" height="1.953" rx=".977" width="3" x="47" y="57.031"/><g fill="#f6fafd"><ellipse cx="20.684" cy="52.695" rx="1.642" ry="2.286" transform="matrix(.707 -.707 .707 .707 -31.21 30.078)"/><ellipse cx="9.682" cy="50.708" rx=".825" ry="1.148" transform="matrix(.707 -.707 .707 .707 -33.03 21.713)"/><ellipse cx="16.682" cy="51.708" rx=".825" ry="1.148" transform="matrix(.707 -.707 .707 .707 -31.686 26.957)"/><ellipse cx="10.427" cy="53.208" rx=".413" ry=".574" transform="matrix(.707 -.707 .707 .707 -34.58 22.973)"/><ellipse cx="36.682" cy="52.708" rx=".825" ry="1.148" transform="matrix(.707 -.707 .707 .707 -26.53 41.397)"/><ellipse cx="37.427" cy="55.208" rx=".413" ry=".574" transform="matrix(.707 -.707 .707 .707 -28.08 42.658)"/></g><path d="m64 22a9.011 9.011 0 0 0 -9-9 9.5 9.5 0 0 0 -3 .461v-1.461a3 3 0 0 0 0-6h-3v-5a1 1 0 0 0 -1-1h-8a1 1 0 0 0 -1 1v5h-4.974a3.026 3.026 0 0 0 -1.89 5.389l3.864 3.091v4.938a16.239 16.239 0 0 0 -9.282 9.952c-1.551-7.065-9.167-9.536-11.718-10.17v-12.2h-2v8.2c-2.845.707-12 3.7-12 12.8a1 1 0 0 0 1 1 .919.919 0 0 0 .165-.014c.1-.016 7.251-1.278 10.835-6.419v3.633c-2.845.707-12 3.7-12 12.8a1 1 0 0 0 1 1 .919.919 0 0 0 .165-.014c.1-.016 7.251-1.278 10.835-6.419v4.09l-6.51 8.37c-3.79.273-6.49 3.585-6.49 8.084 0 4.678 2.875 9.889 7 9.889a5.346 5.346 0 0 0 3.546-1.44 5.464 5.464 0 0 0 3.908 1.44 8.906 8.906 0 0 0 1.851-.2 11.16 11.16 0 0 0 2.056-.664 12.649 12.649 0 0 0 4.528.864c4.152 0 7.294-2.3 7.971-5.633l.432 1.8a4.984 4.984 0 0 0 4.861 3.833h15.694a4.984 4.984 0 0 0 4.861-3.833l4.437-18.482a31.107 31.107 0 0 0 .855-7.235v-.45a15.1 15.1 0 0 0 -.967-5.332 8.916 8.916 0 0 0 2.967-6.668zm-23-20h6v4h-6zm-18.524 38.89c-2.662-1.116-5.955-3.24-7.073-7.073zm-4.952-7.78c2.662 1.116 5.955 3.24 7.073 7.073zm-2.524-2.91v-3.633c3.584 5.141 10.739 6.4 10.835 6.419a.919.919 0 0 0 .165.014c.013 0 .025-.006.039-.007-.022.334-.039.669-.039 1.007v.45a30.986 30.986 0 0 0 .369 4.681c-2.112-6.118-8.969-8.331-11.369-8.931zm.4-7.381 7.073 7.073c-2.659-1.118-5.952-3.242-7.073-7.075zm9.2 6.364-7.076-7.073c2.662 1.116 5.955 3.24 7.076 7.073zm-14.124-11.073-7.076 7.073c1.121-3.833 4.414-5.957 7.076-7.073zm-4.952 7.78 7.076-7.073c-1.121 3.833-4.414 5.957-7.076 7.073zm4.952 3.22-7.076 7.073c1.121-3.833 4.414-5.957 7.076-7.073zm-4.952 7.78 7.076-7.073c-1.121 3.833-4.414 5.957-7.076 7.073zm3.318 9.37 4.286-5.51c.294 3.25 1.112 6.221 2.429 7.877a9.275 9.275 0 0 0 -2.387 1.473 6.81 6.81 0 0 0 -4.328-3.84zm6.558-3.61 2.931 5.373c-.11 0-.218 0-.328.007v-.03c-.852 0-2.003-2.024-2.603-5.35zm-8.4 19.35c-2.57 0-5-3.834-5-7.889 0-3.598 2.056-6.111 5-6.111s5 2.513 5 6.111c0 4.055-2.43 7.889-5 7.889zm8.891-.158a4.311 4.311 0 0 1 -3.991-.742c-.012-.012-.019-.029-.031-.041a12.529 12.529 0 0 0 2.131-6.948 10.457 10.457 0 0 0 -.173-1.887c.03-.032.058-.066.089-.1 2.5-2.5 5.682-2.822 7.731-.774s1.729 5.227-.774 7.731a10.289 10.289 0 0 1 -4.982 2.761zm10.451-11.261-.692 1.877a4.775 4.775 0 0 1 3.35 4.542c0 2.944-2.513 5-6.111 5a10.558 10.558 0 0 1 -2.118-.224 12.317 12.317 0 0 0 1.516-1.276c3.283-3.284 3.609-7.725.775-10.56a6.563 6.563 0 0 0 -2.208-1.46l-5.854-10.735v-.178c3.584 5.141 10.739 6.4 10.835 6.419a.919.919 0 0 0 .165.014 1 1 0 0 0 1-1c0-.289-.013-.569-.031-.846l2.567 10.695a7.3 7.3 0 0 0 -3.194-2.268zm33.658-16.131a29.12 29.12 0 0 1 -.8 6.768l-4.436 18.482a2.992 2.992 0 0 1 -2.917 2.3h-15.694a2.992 2.992 0 0 1 -2.917-2.3l-4.436-18.482a29.067 29.067 0 0 1 -.8-6.768v-.45a13.969 13.969 0 0 1 9.354-12.97 1 1 0 0 0 .646-.93v-6.1a1 1 0 0 0 -.375-.781l-4.24-3.391a1.027 1.027 0 0 1 .641-1.828h17.974a1 1 0 0 1 0 2h-15v2h2v5a1 1 0 0 0 1 1h8a1 1 0 0 0 1-1v-5h1v3a1 1 0 0 0 1.5.865 6.893 6.893 0 0 1 3.5-.865 6.993 6.993 0 0 1 4.227 12.569 1 1 0 0 0 -.312 1.192 13.14 13.14 0 0 1 1.085 5.239zm-19-22.45h6v4h-6z"/><path d="m61 22a5.986 5.986 0 0 0 -10.8-3.57 1 1 0 0 0 -.2.57v1.1a1 1 0 0 0 .646.935 14.773 14.773 0 0 1 6.868 5.254 1 1 0 0 0 .7.415 1.032 1.032 0 0 0 .111.006 1 1 0 0 0 .675-.261 6 6 0 0 0 2-4.449zm-9-2.582a3.781 3.781 0 0 1 .266-.284c.09-.086.176-.177.272-.254a3.89 3.89 0 0 1 .449-.3c.1-.059.193-.126.3-.176a3.841 3.841 0 0 1 .555-.2c.092-.028.179-.07.273-.092a3.962 3.962 0 0 1 4.811 4.636c-.012.062-.026.124-.04.185a3.868 3.868 0 0 1 -.215.65c-.007.016-.011.033-.018.048a3.926 3.926 0 0 1 -.286.489 16.8 16.8 0 0 0 -6.367-4.702z"/><path d="m55.079 30.459a11.621 11.621 0 0 1 .921 4.532v.389a28.126 28.126 0 0 1 -.611 5.829l-3.389 15.938a2.164 2.164 0 0 1 -2 1.853h-12a2.164 2.164 0 0 1 -2-1.853l-.5-2.355-1.956.416.5 2.355a4.139 4.139 0 0 0 3.956 3.437h12a4.139 4.139 0 0 0 3.953-3.437l3.392-15.938a30.064 30.064 0 0 0 .655-6.245v-.389a13.61 13.61 0 0 0 -1.078-5.308z"/><path d="m32.886 50.978h2v2.044h-2z" transform="matrix(.978 -.208 .208 .978 -10.097 8.208)"/><path d="m32.611 41.209a28.126 28.126 0 0 1 -.611-5.829v-.389a12.218 12.218 0 0 1 7.208-10.991h9.583a12.422 12.422 0 0 1 5.272 4.545l1.677-1.089a14.425 14.425 0 0 0 -6.348-5.376 1 1 0 0 0 -.392-.08h-10a1 1 0 0 0 -.392.08 14.239 14.239 0 0 0 -8.608 12.911v.389a30.064 30.064 0 0 0 .655 6.245l1.614 7.583 1.956-.416z"/><path d="m47.316 25.051-.632 1.9c4.813 1.6 5.808 5.8 5.8 9.047l2 .008c.016-5.518-2.527-9.406-7.168-10.955z"/><path d="m52.035 39.738 1.93.525a15.931 15.931 0 0 0 .385-2.146l-1.986-.233a14.454 14.454 0 0 1 -.329 1.854z"/></g></svg>