<?xml version="1.0" encoding="UTF-8" standalone="no"?>
<!-- Created with Inkscape (http://www.inkscape.org/) -->

<svg
   version="1.1"
   id="svg1998"
   xml:space="preserve"
   width="682.66669"
   height="682.66669"
   viewBox="0 0 682.66669 682.66669"
   xmlns="http://www.w3.org/2000/svg"
   xmlns:svg="http://www.w3.org/2000/svg"><defs
     id="defs2002"><clipPath
       clipPathUnits="userSpaceOnUse"
       id="clipPath2012"><path
         d="M 0,512 H 512 V 0 H 0 Z"
         id="path2010" /></clipPath></defs><g
     id="g2004"
     transform="matrix(1.3333333,0,0,-1.3333333,0,682.66667)"><g
       id="g2006"><g
         id="g2008"
         clip-path="url(#clipPath2012)"><g
           id="g2014"
           transform="translate(401.3193,329.1333)"><path
             d="M 0,0 V 57.407 C 0,61.655 -3.444,65.1 -7.693,65.1 h -174.375 c -4.249,0 -7.693,-3.445 -7.693,-7.693 l 0,-57.407 z"
             style="fill:#dbedff;fill-opacity:1;fill-rule:nonzero;stroke:none"
             id="path2016" /></g><g
           id="g2018"
           transform="translate(262.7197,394.2329)"><path
             d="m 0,0 h -43.469 c -4.248,0 -7.693,-3.444 -7.693,-7.693 V -65.1 H -6.32 v 54.486 C -6.32,-6.05 -3.757,-2.057 0,0"
             style="fill:#b5dcff;fill-opacity:1;fill-rule:nonzero;stroke:none"
             id="path2020" /></g><g
           id="g2022"
           transform="translate(439.9936,497.2944)"><path
             d="m 0,0 c -3.945,6.874 -12.717,9.246 -19.587,5.3 l -59.091,-33.921 c -10.478,-6.015 -16.987,-17.258 -16.987,-29.34 v -110.184 h 28.697 v 110.184 c 0,1.833 0.988,3.539 2.577,4.452 L -5.3,-19.587 C 1.572,-15.642 3.945,-6.873 0,0"
             style="fill:#b5dcff;fill-opacity:1;fill-rule:nonzero;stroke:none"
             id="path2024" /></g><g
           id="g2026"
           transform="translate(371.5752,474.5625)"><path
             d="m 0,0 -10.259,-5.889 c -10.478,-6.015 -16.987,-17.258 -16.987,-29.34 v -110.184 h 14.75 V -26.229 C -12.496,-15.988 -7.807,-6.362 0,0"
             style="fill:#8bcaff;fill-opacity:1;fill-rule:nonzero;stroke:none"
             id="path2028" /></g><g
           id="g2030"
           transform="translate(221.8188,41.6865)"><path
             d="m 0,0 1.485,-28.913 c 4.617,-3.316 10.274,-5.275 16.392,-5.275 h 133.485 c 15.541,0 28.138,12.598 28.138,28.138 l 0,6.05 z"
             style="fill:#ff9b00;fill-opacity:1;fill-rule:nonzero;stroke:none"
             id="path2032" /></g><g
           id="g2034"
           transform="translate(221.8188,41.6865)"><path
             d="m 0,0 1.485,-28.913 c 4.617,-3.316 10.274,-5.275 16.392,-5.275 h 23.024 c -3.757,2.057 -6.32,6.05 -6.32,10.614 l 0,23.574 z"
             style="fill:#fc8900;fill-opacity:1;fill-rule:nonzero;stroke:none"
             id="path2036" /></g><g
           id="g2038"
           transform="translate(211.5581,331.1499)"><path
             d="m 0,0 v -89.654 c 54.107,-10.807 94.88,-58.565 94.88,-115.851 0,-33.884 -14.268,-64.432 -37.118,-85.975 H 189.761 V 0 Z"
             style="fill:#ffb640;fill-opacity:1;fill-rule:nonzero;stroke:none"
             id="path2040" /></g><g
           id="g2042"
           transform="translate(401.3193,331.1499)"><path
             d="m 0,0 h -189.761 v -89.654 l 10.364,-201.826 H 0 Z"
             style="fill:#ffb640;fill-opacity:1;fill-rule:nonzero;stroke:none"
             id="path2044" /></g><g
           id="g2046"
           transform="translate(211.5581,331.1499)"><path
             d="M 0,0 V -89.654 L 10.364,-291.48 H 44.842 V 0 Z"
             style="fill:#ff9b00;fill-opacity:1;fill-rule:nonzero;stroke:none"
             id="path2048" /></g><g
           id="g2050"
           transform="translate(306.4384,125.6445)"><path
             d="m 0,0 c 0,65.251 -52.896,118.147 -118.146,118.147 -65.251,0 -118.147,-52.896 -118.147,-118.147 0,-65.25 52.896,-118.146 118.147,-118.146 C -52.896,-118.146 0,-65.25 0,0"
             style="fill:#ffd086;fill-opacity:1;fill-rule:nonzero;stroke:none"
             id="path2052" /></g><g
           id="g2054"
           transform="translate(135.1455,125.645)"><path
             d="m 0,0 c 0,53.979 36.2,99.5 85.646,113.618 -10.325,2.948 -21.228,4.528 -32.5,4.528 C -12.104,118.146 -65,65.25 -65,0 c 0,-65.251 52.896,-118.147 118.146,-118.147 11.272,0 22.175,1.581 32.5,4.528 C 36.2,-99.501 0,-53.979 0,0"
             style="fill:#ffc365;fill-opacity:1;fill-rule:nonzero;stroke:none"
             id="path2056" /></g><g
           id="g2058"
           transform="translate(279.039,125.6445)"><path
             d="m 0,0 c 0,50.119 -40.629,90.748 -90.747,90.748 -50.118,0 -90.747,-40.629 -90.747,-90.748 0,-50.118 40.629,-90.747 90.747,-90.747 C -40.629,-90.747 0,-50.118 0,0"
             style="fill:#ffc365;fill-opacity:1;fill-rule:nonzero;stroke:none"
             id="path2060" /></g><g
           id="g2062"
           transform="translate(176.8149,215.6723)"><path
             d="m 0,0 c -44.7,-5.642 -79.27,-43.797 -79.27,-90.027 0,-46.231 34.57,-84.387 79.27,-90.028 -25.486,21.671 -41.669,53.952 -41.669,90.028 0,36.075 16.183,68.356 41.669,90.027"
             style="fill:#ffb640;fill-opacity:1;fill-rule:nonzero;stroke:none"
             id="path2064" /></g><g
           id="g2066"
           transform="translate(269.2724,39.6694)"><path
             d="m 0,0 c -12.93,-12.187 -28.594,-21.505 -45.992,-26.896 4.617,-3.316 10.274,-5.275 16.393,-5.275 h 133.485 c 15.54,0 28.138,12.598 28.138,28.138 l 0,4.033 z"
             style="fill:none;stroke:#000000;stroke-width:15;stroke-linecap:round;stroke-linejoin:round;stroke-miterlimit:10;stroke-dasharray:none;stroke-opacity:1"
             id="path2068" /></g><g
           id="g2070"
           transform="translate(439.9707,497.2944)"><path
             d="m 0,0 c -3.945,6.874 -12.717,9.246 -19.587,5.3 l -59.091,-33.921 c -10.478,-6.015 -16.987,-17.258 -16.987,-29.34 v -108.184 h 28.697 v 108.184 c 0,1.833 0.988,3.539 2.577,4.452 L -5.3,-19.587 C 1.572,-15.642 3.945,-6.873 0,0 Z"
             style="fill:none;stroke:#000000;stroke-width:15;stroke-linecap:round;stroke-linejoin:round;stroke-miterlimit:10;stroke-dasharray:none;stroke-opacity:1"
             id="path2072" /></g><g
           id="g2074"
           transform="translate(306.4155,125.6445)"><path
             d="m 0,0 c 0,65.251 -52.896,118.147 -118.146,118.147 -65.251,0 -118.147,-52.896 -118.147,-118.147 0,-65.25 52.896,-118.146 118.147,-118.146 C -52.896,-118.146 0,-65.25 0,0 Z"
             style="fill:none;stroke:#000000;stroke-width:15;stroke-linecap:round;stroke-linejoin:round;stroke-miterlimit:10;stroke-dasharray:none;stroke-opacity:1"
             id="path2076" /></g><g
           id="g2078"
           transform="translate(279.0161,125.6445)"><path
             d="m 0,0 c 0,50.119 -40.629,90.748 -90.747,90.748 -50.118,0 -90.747,-40.629 -90.747,-90.748 0,-50.118 40.629,-90.747 90.747,-90.747 C -40.629,-90.747 0,-50.118 0,0 Z"
             style="fill:none;stroke:#000000;stroke-width:15;stroke-linecap:round;stroke-linejoin:round;stroke-miterlimit:10;stroke-dasharray:none;stroke-opacity:1"
             id="path2080" /></g><g
           id="g2082"
           transform="translate(188.269,216.3921)"><path
             d="M 0,0 V -181.495"
             style="fill:none;stroke:#000000;stroke-width:15;stroke-linecap:round;stroke-linejoin:round;stroke-miterlimit:10;stroke-dasharray:none;stroke-opacity:1"
             id="path2084" /></g><g
           id="g2086"
           transform="translate(97.522,125.6445)"><path
             d="M 0,0 H 181.494"
             style="fill:none;stroke:#000000;stroke-width:15;stroke-linecap:round;stroke-linejoin:round;stroke-miterlimit:10;stroke-dasharray:none;stroke-opacity:1"
             id="path2088" /></g><g
           id="g2090"
           transform="translate(124.1011,189.8125)"><path
             d="M 0,0 128.336,-128.336"
             style="fill:none;stroke:#000000;stroke-width:15;stroke-linecap:round;stroke-linejoin:round;stroke-miterlimit:10;stroke-dasharray:none;stroke-opacity:1"
             id="path2092" /></g><g
           id="g2094"
           transform="translate(124.1011,61.4765)"><path
             d="M 0,0 128.336,128.336"
             style="fill:none;stroke:#000000;stroke-width:15;stroke-linecap:round;stroke-linejoin:round;stroke-miterlimit:10;stroke-dasharray:none;stroke-opacity:1"
             id="path2096" /></g><g
           id="g2098"
           transform="translate(284.1206,394.2329)"><path
             d="m 0,0 h -64.893 c -4.249,0 -7.693,-3.444 -7.693,-7.693 v -55.39 h 189.762 v 55.39 c 0,4.249 -3.445,7.693 -7.693,7.693 L 35,0"
             style="fill:none;stroke:#000000;stroke-width:15;stroke-linecap:round;stroke-linejoin:round;stroke-miterlimit:10;stroke-dasharray:none;stroke-opacity:1"
             id="path2100" /></g><g
           id="g2102"
           transform="translate(401.2964,202.9096)"><path
             d="M 0,0 V 128.24 H -189.762 V 38.586"
             style="fill:none;stroke:#000000;stroke-width:15;stroke-linecap:round;stroke-linejoin:round;stroke-miterlimit:10;stroke-dasharray:none;stroke-opacity:1"
             id="path2104" /></g><g
           id="g2106"
           transform="translate(269.2973,39.6694)"><path
             d="M 0,0 H 131.999 V 128.24"
             style="fill:none;stroke:#000000;stroke-width:15;stroke-linecap:round;stroke-linejoin:round;stroke-miterlimit:10;stroke-dasharray:none;stroke-opacity:1"
             id="path2108" /></g></g></g></g></svg>
