<svg height="512" viewBox="0 0 256 256" width="512" xmlns="http://www.w3.org/2000/svg"><g id="Layer_1"><g><g><path d="m180.56 80.43h-103.09l38.11-38.11c7.42-7.43 19.45-7.43 26.87 0l17.15 17.15z" fill="#f2e1d7"/><path d="m220.239 238.699c-2.869 7.155-9.872 11.801-17.587 11.801h-147.262c-7.772 0-14.775-4.741-17.654-11.962-15.649-39.241-4.295-67.878 6.851-122.957.447-2.176.884-4.39 1.321-6.651h166.226c.437 2.261.874 4.475 1.321 6.651 11.098 54.879 22.528 83.821 6.784 123.118z" fill="#f0c020"/><path d="m202.652 243h-132.659c-1.381 0-2.5-1.119-2.5-2.5s1.119-2.5 2.5-2.5h132.659c2.632 0 5.037-1.587 5.984-3.95 13.601-33.944 4.419-59.133-6.229-110.133-.282-1.352.585-2.676 1.937-2.958 1.354-.283 2.676.585 2.958 1.937 10.655 51.025 20.214 77.477 5.975 113.015-1.701 4.24-5.971 7.089-10.625 7.089zm-142.659 0h-4.603c-1.381 0-2.5-1.119-2.5-2.5s1.119-2.5 2.5-2.5h4.603c1.381 0 2.5 1.119 2.5 2.5s-1.119 2.5-2.5 2.5z" fill="#f8e5b0"/><path d="m213.455 115.581h-168.868c.447-2.176.884-4.39 1.321-6.651h166.226c.438 2.261.875 4.475 1.321 6.651z" fill="#cf9519"/><path d="m156.374 126.35h-54.485c0 7.871-6.381 14.252-14.252 14.252v75.693c7.871 0 14.252 6.381 14.252 14.252h54.485c0-7.871 6.381-14.252 14.252-14.252v-75.693c-7.871 0-14.252-6.381-14.252-14.252z" fill="#efefef"/><path d="m227.96 89.93v9.5c0 5.24-4.24 9.5-9.5 9.5h-180.92c-5.25 0-9.5-4.26-9.5-9.5v-9.5c0-5.25 4.25-9.5 9.5-9.5h180.92c5.26 0 9.5 4.25 9.5 9.5z" fill="#f0c020"/><path d="m217.964 101.43h-165.496c-1.381 0-2.5-1.119-2.5-2.5s1.119-2.5 2.5-2.5h162.996v-6.004c0-1.381 1.119-2.5 2.5-2.5s2.5 1.119 2.5 2.5v8.504c0 1.381-1.119 2.5-2.5 2.5zm-175.496 0h-4.432c-1.381 0-2.5-1.119-2.5-2.5s1.119-2.5 2.5-2.5h4.432c1.381 0 2.5 1.119 2.5 2.5s-1.119 2.5-2.5 2.5z" fill="#f8e5b0"/><path d="m199.86 53v27.43h-19.3l-20.96-20.96v-6.47c0-1.04.16-2.03.45-2.97 1.27-4.07 5.06-7.03 9.55-7.03h20.26c5.52 0 10 4.48 10 10z" fill="#878787"/><path d="m199.86 73.43v7h-19.3l-20.96-20.96v-6.47c0-1.04.16-2.03.45-2.97l21.936 21.936c.938.938 2.209 1.464 3.536 1.464z" fill="#4c4944"/><path d="m188.82 15.52-2.68 27.48h-12.82l-2.68-27.48c-.52-5.37 3.7-10.02 9.09-10.02 5.411 0 9.609 4.657 9.09 10.02z" fill="#efefef"/><path d="m153.518 177.385c0 16.701-9.02 26.365-21.545 26.365s-24.38-2.617-24.38-19.317c0-4.631 3.849-15.729 5.245-20.23 3.637-11.732 12.068-19.703 21.12-19.703 7.937 0 21.828 13.608 19.56 32.885z" fill="#e8a61e"/></g><path d="m96.209 58.16c-.98.97-.98 2.56 0 3.53.971.97 2.551.978 3.53 0 .976-.956.997-2.553 0-3.53-.939-.95-2.59-.95-3.53 0z"/><path d="m33.57 213.85c-.19-1.34-1.48-2.32-2.83-2.12-1.333.181-2.309 1.444-2.12 2.83.174 1.175 1.204 2.26 2.84 2.12 1.418-.214 2.307-1.526 2.11-2.83z"/><path d="m115.83 213.16c-1.37 0-2.5 1.12-2.5 2.5s1.13 2.5 2.5 2.5h26.45c1.38 0 2.5-1.12 2.5-2.5s-1.12-2.5-2.5-2.5z"/><path d="m173.13 148.13v-7.53c0-1.355-1.114-2.5-2.5-2.5-6.47-.01-11.74-5.28-11.76-11.75 0-1.412-1.143-2.5-2.5-2.5h-54.48c-1.376 0-2.5 1.119-2.5 2.5-.01 6.47-5.28 11.74-11.75 11.75-1.346 0-2.5 1.083-2.5 2.5v75.69c0 1.442 1.165 2.5 2.5 2.5 6.47.02 11.74 5.29 11.75 11.76 0 1.379 1.137 2.5 2.5 2.5h54.48c1.41 0 2.5-1.155 2.5-2.5.02-6.47 5.29-11.74 11.76-11.76 1.407 0 2.5-1.146 2.5-2.5v-48.15c0-1.37-1.13-2.5-2.5-2.5-1.38 0-2.5 1.13-2.5 2.5v45.84c-7.265 1.081-12.989 6.811-14.07 14.07h-49.86c-1.074-7.211-6.753-12.979-14.06-14.07v-71.06c7.277-1.107 12.979-6.812 14.06-14.07h49.86c1.091 7.325 6.87 12.978 14.07 14.07v5.22c0 1.38 1.12 2.5 2.5 2.5s2.5-1.12 2.5-2.5z"/><path d="m170.63 155.64c-1.38 0-2.5 1.13-2.5 2.51 0 1.37 1.12 2.49 2.5 2.49 1.37 0 2.5-1.12 2.5-2.49 0-1.38-1.13-2.51-2.5-2.51z"/><path d="m230.464 99.428v-9.501c0-6.618-5.384-12.001-12.001-12.001h-16.103v-24.926c0-6.893-5.607-12.5-12.5-12.5h-.964l2.413-24.737v-.001c.662-6.834-4.706-12.762-11.579-12.762-6.858 0-12.241 5.926-11.579 12.763l2.413 24.737h-.964c-5.5 0-10.297 3.53-11.939 8.792-.373 1.206-.561 2.454-.561 3.708v.43l-12.88-12.88c-8.37-8.37-21.974-8.436-30.41 0l-10.53 10.54c-.979.979-.967 2.564 0 3.53.94.95 2.59.95 3.54 0v-.01l10.53-10.52c6.451-6.472 16.908-6.443 23.33 0l33.835 33.835h-91.004l9.159-9.166c.98-.97.98-2.56 0-3.53-.94-.95-2.59-.95-3.53 0l-12.705 12.696h-38.898c-6.617 0-12.001 5.384-12.001 12.001v9.501c0 6.618 5.384 12.001 12.001 12.001h5.335c-7.771 39.513-16.347 66.223-15.203 92.93.055 1.232 1.015 2.39 2.61 2.39 1.338-.06 2.432-1.178 2.39-2.61-1.16-25.756 7.428-52.496 15.295-92.71h162.11c11.42 58.061 23.669 86.779 7.844 126.34-2.45 6.12-8.59 10.23-15.27 10.23h-147.258c-6.8 0-12.82-4.08-15.33-10.39-1.93-4.85-3.44-9.49-4.61-14.2-.33-1.32-1.71-2.16-3.03-1.83-1.435.375-2.147 1.796-1.82 3.03 1.2 4.86 2.82 9.86 4.81 14.85 3.24 8.118 11.114 13.54 19.98 13.54h147.26c8.651 0 16.605-5.17 19.91-13.37 16.472-41.089 3.816-71.315-7.388-128.2h3.29c6.618.002 12.002-5.382 12.002-12zm-50.734-91.428c3.929 0 6.979 3.366 6.602 7.277l-2.46 25.223h-8.284l-2.46-25.221c-.378-3.904 2.677-7.279 6.602-7.279zm-17.63 50.43v-5.43c0-.754.114-1.505.336-2.226.984-3.155 3.863-5.274 7.164-5.274h3.72 12.82 3.72c4.136 0 7.5 3.364 7.5 7.5v24.925h-15.765zm-124.563 48c-3.86 0-7.001-3.141-7.001-7.001v-9.501c0-3.861 3.141-7.001 7.001-7.001h28.135.005 152.785c3.861 0 7.001 3.141 7.001 7.001v9.501c0 3.861-3.141 7.001-7.001 7.001z"/><path d="m116.32 59.629v-.495c0-1.381-1.119-2.5-2.5-2.5s-2.5 1.119-2.5 2.5v.495c0 1.381 1.119 2.5 2.5 2.5s2.5-1.119 2.5-2.5z"/><path d="m140.32 57.375v-.495c0-1.381-1.119-2.5-2.5-2.5s-2.5 1.119-2.5 2.5v.495c0 1.381 1.119 2.5 2.5 2.5s2.5-1.119 2.5-2.5z"/><path d="m134.57 68.75v-.495c0-1.381-1.119-2.5-2.5-2.5s-2.5 1.119-2.5 2.5v.495c0 1.381 1.119 2.5 2.5 2.5s2.5-1.119 2.5-2.5z"/><path d="m156.018 177.531c2.33-20.488-12.417-35.531-22.061-35.531-10.081 0-19.528 8.625-23.508 21.462-1.642 5.289-5.357 15.949-5.357 20.97 0 21.817 19.529 21.817 26.88 21.817 14.568.001 23.994-11.266 24.046-28.718zm-24.045 23.719c-13.133 0-21.88-2.86-21.88-16.817 0-4.158 3.908-15.537 5.132-19.49 3.327-10.732 10.855-17.943 18.732-17.943 5.351 0 18.204 9.466 17.065 30.249-.743 13.543-5.621 24.001-19.049 24.001z"/><path d="m140.736 175.908c-1.381 0-2.5 1.119-2.5 2.5v.851c0 1.381 1.119 2.5 2.5 2.5s2.5-1.119 2.5-2.5v-.851c0-1.381-1.119-2.5-2.5-2.5z"/><path d="m129.013 161.816c-1.381 0-2.5 1.119-2.5 2.5v.85c0 1.381 1.119 2.5 2.5 2.5s2.5-1.119 2.5-2.5v-.85c0-1.38-1.119-2.5-2.5-2.5z"/><path d="m123.403 183.462c-1.381 0-2.5 1.119-2.5 2.5v.851c0 1.381 1.119 2.5 2.5 2.5s2.5-1.119 2.5-2.5v-.851c0-1.381-1.119-2.5-2.5-2.5z"/></g></g></svg>