<?xml version="1.0" encoding="UTF-8" standalone="no"?>
<!-- Created with Inkscape (http://www.inkscape.org/) -->

<svg
   version="1.1"
   id="svg3285"
   xml:space="preserve"
   width="682.66669"
   height="682.66669"
   viewBox="0 0 682.66669 682.66669"
   xmlns="http://www.w3.org/2000/svg"
   xmlns:svg="http://www.w3.org/2000/svg"><defs
     id="defs3289"><clipPath
       clipPathUnits="userSpaceOnUse"
       id="clipPath3299"><path
         d="M 0,512 H 512 V 0 H 0 Z"
         id="path3297" /></clipPath></defs><g
     id="g3291"
     transform="matrix(1.3333333,0,0,-1.3333333,0,682.66667)"><g
       id="g3293"><g
         id="g3295"
         clip-path="url(#clipPath3299)"><g
           id="g3301"
           transform="translate(85.6572,131.8667)"><path
             d="m 0,0 c -30.846,-4.992 -70.193,-1.084 -76.806,48.496 -8.352,62.636 23.279,92.876 59.961,72.56 z"
             style="fill:#5c586f;fill-opacity:1;fill-rule:nonzero;stroke:none"
             id="path3303" /></g><g
           id="g3305"
           transform="translate(123.7822,142.8247)"><path
             d="m 0,0 c 0,0 -17.083,-7.547 -38.125,-10.958 -18.048,5.091 -33.152,18.456 -37.03,47.501 -4.962,37.26 4.216,63.055 20.185,73.555 12.172,-6.722 24.89,-19.013 36.892,-37.518 z"
             style="fill:#f75747;fill-opacity:1;fill-rule:nonzero;stroke:none"
             id="path3307" /></g><g
           id="g3309"
           transform="translate(146.0566,346.3154)"><path
             d="m 0,0 c -5.251,8.522 -8.592,18.774 -8.373,30.985 0.597,33.67 25.705,40.899 43.564,41.774 12.638,0.616 24.72,5.419 34.127,13.882 l 0.776,0.695 c 16.417,14.777 40.134,18.496 60.11,9.079 22.225,-10.471 35.828,-28.707 44.071,-45.533 z"
             style="fill:#5c586f;fill-opacity:1;fill-rule:nonzero;stroke:none"
             id="path3311" /></g><g
           id="g3313"
           transform="translate(332.3838,358.7354)"><path
             d="m 0,0 -131.219,-50.018 c 0,0 -37.876,9.537 -55.108,37.598 5.19,32.815 32.058,38.791 51.25,38.721 14.389,-0.059 28.38,4.664 39.566,13.713 l 0.915,0.746 c 19.52,15.781 46.657,18.585 68.772,6.712 5.002,-2.685 9.586,-5.718 13.772,-9.01 C -2.128,18.197 0,0 0,0"
             style="fill:#f75747;fill-opacity:1;fill-rule:nonzero;stroke:none"
             id="path3315" /></g><g
           id="g3317"
           transform="translate(257.1982,65.5015)"><path
             d="m 0,0 c -76.875,6.314 -168.18,36.941 -168.18,146.761 0,109.84 91.325,140.447 168.22,146.761 z"
             style="fill:#ffa9a0;fill-opacity:1;fill-rule:nonzero;stroke:none"
             id="path3319" /></g><g
           id="g3321"
           transform="translate(119.0186,212.2627)"><path
             d="M 0,0 C 0,76.297 38.008,117.083 85.626,138.253 25.032,122.779 -30,85.264 -30,0 -30,-85.265 25.04,-122.786 85.633,-138.26 38.013,-117.088 0,-76.297 0,0"
             style="fill:#fc7a6e;fill-opacity:1;fill-rule:nonzero;stroke:none"
             id="path3323" /></g><g
           id="g3325"
           transform="translate(361.4102,355.3545)"><path
             d="m 0,0 v -286.193 c 0,0 -48.287,-8.264 -104.212,-3.66 -57.217,20.206 -98.543,78.278 -98.543,146.761 0,68.493 41.347,126.575 98.583,146.761 C -48.268,8.253 0,0 0,0"
             style="fill:#e8e8e8;fill-opacity:1;fill-rule:nonzero;stroke:none"
             id="path3327" /></g><g
           id="g3329"
           transform="translate(504.5,212.2583)"><path
             d="m 0,0 c 0,-79.028 -64.064,-143.093 -143.093,-143.093 -79.028,0 -143.093,64.065 -143.093,143.093 0,79.028 64.065,143.093 143.093,143.093 C -64.064,143.093 0,79.028 0,0"
             style="fill:#ffa9a0;fill-opacity:1;fill-rule:nonzero;stroke:none"
             id="path3331" /></g><g
           id="g3333"
           transform="translate(326.9727,192.1611)"><path
             d="m 0,0 c 0,-12.838 -13.068,-23.246 -29.189,-23.246 -16.122,0 -29.191,10.408 -29.191,23.246 0,12.838 13.069,23.245 29.191,23.245 C -13.068,23.245 0,12.838 0,0"
             style="fill:#fc7a6e;fill-opacity:1;fill-rule:nonzero;stroke:none"
             id="path3335" /></g><g
           id="g3337"
           transform="translate(426.8125,192.1611)"><path
             d="M 0,0 C 0,-12.838 13.069,-23.246 29.189,-23.246 45.312,-23.246 58.38,-12.838 58.38,0 58.38,12.838 45.312,23.245 29.189,23.245 13.069,23.245 0,12.838 0,0"
             style="fill:#fc7a6e;fill-opacity:1;fill-rule:nonzero;stroke:none"
             id="path3339" /></g><g
           id="g3341"
           transform="translate(314.7949,226.4707)"><path
             d="M 0,0 V -11.933"
             style="fill:none;stroke:#000000;stroke-width:15;stroke-linecap:round;stroke-linejoin:round;stroke-miterlimit:10;stroke-dasharray:none;stroke-opacity:1"
             id="path3343" /></g><g
           id="g3345"
           transform="translate(438.9902,226.4707)"><path
             d="M 0,0 V -11.933"
             style="fill:none;stroke:#000000;stroke-width:15;stroke-linecap:round;stroke-linejoin:round;stroke-miterlimit:10;stroke-dasharray:none;stroke-opacity:1"
             id="path3347" /></g><g
           id="g3349"
           transform="translate(360.5205,214.8931)"><path
             d="m 0,0 c 3.981,-4.568 9.837,-7.458 16.372,-7.458 6.535,0 12.391,2.89 16.372,7.458"
             style="fill:none;stroke:#000000;stroke-width:15;stroke-linecap:round;stroke-linejoin:round;stroke-miterlimit:10;stroke-dasharray:none;stroke-opacity:1"
             id="path3351" /></g><g
           id="g3353"
           transform="translate(197.3066,385.0366)"><path
             d="m 0,0 c 14.39,-0.06 28.38,4.664 39.567,13.712 l 0.914,0.746 c 19.521,15.781 46.658,18.585 68.772,6.712 5.002,-2.685 9.586,-5.717 13.772,-9.009 -8.243,16.825 -21.846,35.062 -44.071,45.533 -19.976,9.417 -43.692,5.698 -60.11,-9.079 L 18.068,47.919 C 8.661,39.457 -3.42,34.654 -16.059,34.038 -33.918,33.163 -59.026,25.934 -59.623,-7.736 -59.842,-19.947 -56.501,-30.199 -51.25,-38.721 -46.06,-5.907 -19.191,0.069 0,0 Z"
             style="fill:none;stroke:#000000;stroke-width:15;stroke-linecap:round;stroke-linejoin:round;stroke-miterlimit:10;stroke-dasharray:none;stroke-opacity:1"
             id="path3355" /></g><g
           id="g3357"
           transform="translate(157.4668,332.498)"><path
             d="m 0,0 c 30.193,16.439 66.344,23.78 99.771,26.525 28.994,2.378 55.928,1.302 75.146,-0.284 -0.011,0.086 -2.151,18.241 -12.052,38.459 -4.186,3.291 -8.77,6.324 -13.772,9.009 -22.114,11.873 -49.251,9.069 -68.772,-6.712 L 79.407,66.251 C 68.22,57.202 54.229,52.479 39.84,52.539 20.648,52.608 -6.22,46.632 -11.41,13.817 -8.198,8.586 -4.268,4.001 0,0 Z"
             style="fill:none;stroke:#000000;stroke-width:15;stroke-linecap:round;stroke-linejoin:round;stroke-miterlimit:10;stroke-dasharray:none;stroke-opacity:1"
             id="path3359" /></g><g
           id="g3361"
           transform="translate(443.7021,329.3252)"><path
             d="m 0,0 c -23.277,16.394 -51.66,26.026 -82.295,26.026 -79.028,0 -143.093,-64.065 -143.093,-143.093 0,-79.028 64.065,-143.093 143.093,-143.093 79.028,0 143.093,64.065 143.093,143.093 0,37.567 -14.484,71.746 -38.162,97.276"
             style="fill:none;stroke:#000000;stroke-width:15;stroke-linecap:round;stroke-linejoin:round;stroke-miterlimit:10;stroke-dasharray:none;stroke-opacity:1"
             id="path3363" /></g><g
           id="g3365"
           transform="translate(187.7705,118.9121)"><path
             d="m 0,0 c 17.396,-24.687 41.521,-43.555 69.429,-53.411 55.924,-4.604 104.211,3.66 104.211,3.66 v 0.004 h -0.003 c -79.029,0 -143.093,64.065 -143.093,143.093 0,79.028 64.064,143.093 143.093,143.093 h 0.003 v 0.003 c 0,0 -48.268,8.253 -104.172,3.669 -57.237,-20.186 -98.583,-78.267 -98.583,-146.76 0,-24.212 5.172,-47.12 14.379,-67.516"
             style="fill:none;stroke:#000000;stroke-width:15;stroke-linecap:round;stroke-linejoin:round;stroke-miterlimit:10;stroke-dasharray:none;stroke-opacity:1"
             id="path3367" /></g><g
           id="g3369"
           transform="translate(173.0342,144.7471)"><path
             d="m 0,0 c -9.207,20.396 -14.379,43.304 -14.379,67.516 0,68.493 41.347,126.574 98.583,146.76 -76.895,-6.314 -168.22,-36.921 -168.22,-146.76 0,-109.82 91.305,-140.447 168.18,-146.762 -27.908,9.856 -52.032,28.724 -69.428,53.411"
             style="fill:none;stroke:#000000;stroke-width:15;stroke-linecap:round;stroke-linejoin:round;stroke-miterlimit:10;stroke-dasharray:none;stroke-opacity:1"
             id="path3371" /></g><g
           id="g3373"
           transform="translate(48.627,179.3682)"><path
             d="M 0,0 C -4.962,37.26 4.216,63.054 20.186,73.555 -16.497,93.87 -48.128,63.631 -39.775,0.995 -33.163,-48.585 6.186,-52.493 37.031,-47.501 18.982,-42.41 3.878,-29.046 0,0 Z"
             style="fill:none;stroke:#000000;stroke-width:15;stroke-linecap:round;stroke-linejoin:round;stroke-miterlimit:10;stroke-dasharray:none;stroke-opacity:1"
             id="path3375" /></g><g
           id="g3377"
           transform="translate(89.0186,212.2627)"><path
             d="m 0,0 c 0,8.095 0.509,15.749 1.459,23.005 -7.24,7.871 -14.546,13.724 -21.665,17.655 -15.97,-10.5 -25.148,-36.295 -20.186,-73.555 3.878,-29.045 18.983,-42.41 37.032,-47.501 8.474,1.374 16.304,3.418 22.637,5.371 C 7.208,-55.456 0,-30.854 0,0 Z"
             style="fill:none;stroke:#000000;stroke-width:15;stroke-linecap:round;stroke-linejoin:round;stroke-miterlimit:10;stroke-dasharray:none;stroke-opacity:1"
             id="path3379" /></g></g></g></g></svg>
