<svg xmlns="http://www.w3.org/2000/svg" version="1.1" xmlns:xlink="http://www.w3.org/1999/xlink" xmlns:svgjs="http://svgjs.com/svgjs" width="512" height="512" x="0" y="0" viewBox="0 0 682.667 682.667" style="enable-background:new 0 0 512 512" xml:space="preserve" class=""><g><defs><clipPath id="a" clipPathUnits="userSpaceOnUse"><path d="M0 512h512V0H0Z" fill="#000000" data-original="#000000"></path></clipPath></defs><g clip-path="url(#a)" transform="matrix(1.33333 0 0 -1.33333 0 682.667)"><path d="M0 0c-3.462 4.665-5.329 10.319-5.386 16.128-1.217 123.524-24.689 202.809-24.689 202.809l-192.114 32.164-192.114-32.164s-23.472-79.285-24.689-202.809c-.057-5.809-1.924-11.463-5.386-16.128-12.792-17.233-13.433-39.367-.509-52.29 12.715-12.715 34.346-12.3 51.453-.1 5.293 3.775 11.559 5.947 18.06 5.947h306.37c6.501 0 12.767-2.172 18.06-5.947 17.107-12.2 38.738-12.615 51.453.1C13.433-39.367 12.792-17.233 0 0" style="fill-opacity:1;fill-rule:nonzero;stroke:none" transform="translate(478.189 69.184)" fill="#00b4fd" data-original="#00b4fd" class=""></path><path d="M0 0s60.919 119.221 176.886 119.221S353.772 0 353.772 0L176.886-48.579Z" style="fill-opacity:1;fill-rule:nonzero;stroke:none" transform="translate(79.114 385.279)" fill="#000000" data-original="#fffcdc" class=""></path><path d="M0 0s55.676 108.936 161.886 118.536c-4.895.442-9.891.685-15 .685C30.919 119.221-30 0-30 0l176.886-48.579 15 4.12z" style="fill-opacity:1;fill-rule:nonzero;stroke:none" transform="translate(109.114 385.279)" fill="#000000" data-original="#f8ea69" class=""></path><path d="m0 0-5.081 4.172L-30 0s-23.473-79.285-24.689-202.809c-.057-5.809-1.924-11.463-5.386-16.128-12.793-17.233-13.433-39.367-.509-52.291 12.714-12.714 34.346-12.299 51.453-.099 5.293 3.775 11.559 5.947 18.06 5.947h9.724C-71.376-159.628 0 0 0 0" style="fill-opacity:1;fill-rule:nonzero;stroke:none" transform="translate(93.886 288.12)" fill="#0092e2" data-original="#0092e2"></path><path d="M0 0h-353.772c-17.16 0-31.071-13.911-31.071-31.07v-50.245c0-8.75 7.093-15.843 15.843-15.843H15.228c8.75 0 15.843 7.093 15.843 15.843v50.245C31.071-13.911 17.16 0 0 0" style="fill-opacity:1;fill-rule:nonzero;stroke:none" transform="translate(432.886 385.279)" fill="#a4e7ff" data-original="#a4e7ff" class=""></path><path d="M0 0v50.244c0 17.16 13.911 31.071 31.071 31.071h-30C-16.089 81.315-30 67.404-30 50.244V0c0-8.75 7.093-15.843 15.843-15.843h30C7.093-15.843 0-8.75 0 0" style="fill-opacity:1;fill-rule:nonzero;stroke:none" transform="translate(78.043 303.964)" fill="#00b4fd" data-original="#00b4fd" class=""></path><path d="M0 0v-19.305" style="stroke-width:15;stroke-linecap:round;stroke-linejoin:round;stroke-miterlimit:10;stroke-dasharray:none;stroke-opacity:1" transform="translate(155.537 351.08)" fill="none" stroke="#000000" stroke-width="15" stroke-linecap="round" stroke-linejoin="round" stroke-miterlimit="10" stroke-dasharray="none" stroke-opacity="" data-original="#000000" class=""></path><path d="M0 0v-19.305" style="stroke-width:15;stroke-linecap:round;stroke-linejoin:round;stroke-miterlimit:10;stroke-dasharray:none;stroke-opacity:1" transform="translate(356.462 351.08)" fill="none" stroke="#000000" stroke-width="15" stroke-linecap="round" stroke-linejoin="round" stroke-miterlimit="10" stroke-dasharray="none" stroke-opacity="" data-original="#000000" class=""></path><path d="M0 0c6.44-7.39 15.914-12.066 26.486-12.066C37.059-12.066 46.533-7.39 52.973 0" style="stroke-width:15;stroke-linecap:round;stroke-linejoin:round;stroke-miterlimit:10;stroke-dasharray:none;stroke-opacity:1" transform="translate(229.514 332.35)" fill="none" stroke="#000000" stroke-width="15" stroke-linecap="round" stroke-linejoin="round" stroke-miterlimit="10" stroke-dasharray="none" stroke-opacity="" data-original="#000000" class=""></path><path d="m0 0 26.564 69.748c.543 1.327 2.421 1.329 2.967.003L55.854 0" style="stroke-width:15;stroke-linecap:round;stroke-linejoin:round;stroke-miterlimit:10;stroke-dasharray:none;stroke-opacity:1" transform="translate(305.252 130.899)" fill="none" stroke="#000000" stroke-width="15" stroke-linecap="round" stroke-linejoin="round" stroke-miterlimit="10" stroke-dasharray="none" stroke-opacity="" data-original="#000000" class=""></path><path d="M0 0h39.418" style="stroke-width:15;stroke-linecap:round;stroke-linejoin:round;stroke-miterlimit:10;stroke-dasharray:none;stroke-opacity:1" transform="translate(313.537 148.27)" fill="none" stroke="#000000" stroke-width="15" stroke-linecap="round" stroke-linejoin="round" stroke-miterlimit="10" stroke-dasharray="none" stroke-opacity="" data-original="#000000" class=""></path><path d="M0 0a35.209 35.209 0 0 1-19.777 6.041c-19.535 0-35.372-15.836-35.372-35.372 0-19.535 15.837-35.372 35.372-35.372 19.536 0 30.535 15.837 30.535 35.372h-21.163" style="stroke-width:15;stroke-linecap:round;stroke-linejoin:round;stroke-miterlimit:10;stroke-dasharray:none;stroke-opacity:1" transform="translate(280.118 195.602)" fill="none" stroke="#000000" stroke-width="15" stroke-linecap="round" stroke-linejoin="round" stroke-miterlimit="10" stroke-dasharray="none" stroke-opacity="" data-original="#000000" class=""></path><path d="M0 0s-12.694 10.67-27.664 6.161c-13.745-4.14-15.667-19.99-5.723-26.473 0 0 9.758-4.353 20.581-8.345 26.053-9.61 14.83-34.815-6.143-34.815-10.503 0-19.318 4.6-24.653 10.487" style="stroke-width:15;stroke-linecap:round;stroke-linejoin:round;stroke-miterlimit:10;stroke-dasharray:none;stroke-opacity:1" transform="translate(128.042 194.37)" fill="none" stroke="#000000" stroke-width="15" stroke-linecap="round" stroke-linejoin="round" stroke-miterlimit="10" stroke-dasharray="none" stroke-opacity="" data-original="#000000" class=""></path><path d="M0 0v-48.68c0-8.29 4.112-13.871 11.098-18.335 3.402-2.173 7.699-3.722 13.04-3.729 4.625-.006 8.49 1.064 11.686 2.674 8.142 4.1 13.333 10.326 13.333 19.442V0" style="stroke-width:15;stroke-linecap:round;stroke-linejoin:round;stroke-miterlimit:10;stroke-dasharray:none;stroke-opacity:1" transform="translate(153.16 201.643)" fill="none" stroke="#000000" stroke-width="15" stroke-linecap="round" stroke-linejoin="round" stroke-miterlimit="10" stroke-dasharray="none" stroke-opacity="" data-original="#000000" class=""></path><path d="m0 0 29.717-33.765" style="stroke-width:15;stroke-linecap:round;stroke-linejoin:round;stroke-miterlimit:10;stroke-dasharray:none;stroke-opacity:1" transform="translate(397.843 164.664)" fill="none" stroke="#000000" stroke-width="15" stroke-linecap="round" stroke-linejoin="round" stroke-miterlimit="10" stroke-dasharray="none" stroke-opacity="" data-original="#000000" class=""></path><path d="M0 0v-70.744" style="stroke-width:15;stroke-linecap:round;stroke-linejoin:round;stroke-miterlimit:10;stroke-dasharray:none;stroke-opacity:1" transform="translate(389.312 201.643)" fill="none" stroke="#000000" stroke-width="15" stroke-linecap="round" stroke-linejoin="round" stroke-miterlimit="10" stroke-dasharray="none" stroke-opacity="" data-original="#000000" class=""></path><path d="M0 0c0-10.154-8.903-18.385-19.426-18.385-5.219 0-18.668-.082-18.668-.082S-38.178-5.118-38.178 0c0 4.204-.047 18.386-.047 18.386h18.799C-8.903 18.386 0 10.154 0 0Z" style="stroke-width:15;stroke-linecap:round;stroke-linejoin:round;stroke-miterlimit:10;stroke-dasharray:none;stroke-opacity:1" transform="translate(427.56 183.257)" fill="none" stroke="#000000" stroke-width="15" stroke-linecap="round" stroke-linejoin="round" stroke-miterlimit="10" stroke-dasharray="none" stroke-opacity="" data-original="#000000" class=""></path><path d="M0 0c-45.908-34.895-69.577-81.206-69.577-81.206h353.773S223.276 38.016 107.31 38.016c-31.236 0-58.47-8.657-81.604-21.296" style="stroke-width:15;stroke-linecap:round;stroke-linejoin:round;stroke-miterlimit:10;stroke-dasharray:none;stroke-opacity:1" transform="translate(148.69 466.484)" fill="none" stroke="#000000" stroke-width="15" stroke-linecap="round" stroke-linejoin="round" stroke-miterlimit="10" stroke-dasharray="none" stroke-opacity="" data-original="#000000" class=""></path><path d="M0 0c-7.146 73.541-20.178 117.569-20.178 117.569h-384.227s-23.472-79.285-24.689-202.809c-.057-5.809-1.924-11.463-5.386-16.128-12.792-17.233-13.432-39.367-.509-52.29 12.715-12.715 34.345-12.3 51.453-.099 5.293 3.774 11.559 5.946 18.06 5.946h306.37c6.501 0 12.767-2.172 18.06-5.946 17.108-12.201 38.738-12.616 51.453.099 12.923 12.923 12.283 35.057-.509 52.29-3.462 4.665-5.33 10.319-5.386 16.128a994.843 994.843 0 0 1-2.103 55.669" style="stroke-width:15;stroke-linecap:round;stroke-linejoin:round;stroke-miterlimit:10;stroke-dasharray:none;stroke-opacity:1" transform="translate(468.291 170.551)" fill="none" stroke="#000000" stroke-width="15" stroke-linecap="round" stroke-linejoin="round" stroke-miterlimit="10" stroke-dasharray="none" stroke-opacity="" data-original="#000000" class=""></path><path d="M0 0h-353.773c-17.16 0-31.07-13.911-31.07-31.07v-50.245c0-8.75 7.093-15.843 15.843-15.843H15.228c8.749 0 15.842 7.093 15.842 15.843v50.245C31.07-13.911 17.16 0 0 0Z" style="stroke-width:15;stroke-linecap:round;stroke-linejoin:round;stroke-miterlimit:10;stroke-dasharray:none;stroke-opacity:1" transform="translate(432.886 385.279)" fill="none" stroke="#000000" stroke-width="15" stroke-linecap="round" stroke-linejoin="round" stroke-miterlimit="10" stroke-dasharray="none" stroke-opacity="" data-original="#000000" class=""></path></g></g></svg>