<svg id="Capa_1" enable-background="new 0 0 512 512" height="512" viewBox="0 0 512 512" width="512" xmlns="http://www.w3.org/2000/svg"><g><g><path clip-rule="evenodd" d="m78.052 247.285 157.367 35.948 148.606-35.948 1.694-14.163c4.497-37.758-18.718-81.27-91.634-81.27v-47.804l-65.645-11.681-60.447 11.681v47.804c-72.916 0-96.131 43.511-91.634 81.27z" fill="#a7e9a6" fill-rule="evenodd"/></g><g><path clip-rule="evenodd" d="m175.088 53.907 54.256 14.193 54.227-14.192 10.513-35.744c2.832-9.579-8.03-18.164-17.842-18.164h-93.824c-9.812 0-20.645 8.585-17.842 18.164z" fill="#ea9a58" fill-rule="evenodd"/></g><g><path clip-rule="evenodd" d="m167.992 501.227h63.046 43.656c9.812-35.218-4.526-105.712-71.135-125.803l-106.76 28.969 3.271 27.625c4.526 37.788 30.573 69.209 67.922 69.209z" fill="#a7e9a6" fill-rule="evenodd"/></g><g><path clip-rule="evenodd" d="m278.695 182.222c44.883 6.863 84.83 3.212 68.244 65.063h37.086l1.694-14.163c4.497-37.758-18.718-81.27-91.634-81.27v-47.804h-38.78v35.831c-.001 26.019-1.723 38.488 23.39 42.343z" fill="#7fdbae" fill-rule="evenodd"/></g><g><path clip-rule="evenodd" d="m258.341 18.164-10.512 35.744h20.003 15.74l10.513-35.744c2.831-9.579-8.031-18.164-17.843-18.164h-35.743c9.812 0 20.646 8.585 17.842 18.164z" fill="#d88954" fill-rule="evenodd"/></g><g><path clip-rule="evenodd" d="m365.131 405.648 18.893-158.363h-305.972l18.747 157.108h107.111z" fill="#eb5468" fill-rule="evenodd"/></g><g><path clip-rule="evenodd" d="m403.563 421.88c-10.425 24.796-26.105 41.063-43.772 50.16-4.11 2.122-8.334 3.863-12.63 5.223-17.492 5.532-36.087 4.893-52.972-.773-3.42-1.154-6.779-2.503-10.034-4.059-16.751-7.974-31.029-21.15-39.641-38.209-1.751-3.441-3.266-7.046-4.523-10.796-6.49-19.409-6.109-42.763 4.77-68.559l69.65 29.391 19.275 8.128z" fill="#ffd772" fill-rule="evenodd"/></g><g><path clip-rule="evenodd" d="m384.024 247.285h-37.085l-17.113 143.47 35.305 14.893z" fill="#e5384f" fill-rule="evenodd"/></g><g><path clip-rule="evenodd" d="m167.992 104.048h126.092 8.556c4.643 0 8.439-3.826 8.439-8.469v-33.232c0-4.643-3.796-8.439-8.439-8.439h-19.069-108.483-19.068c-4.643 0-8.439 3.796-8.439 8.439v33.232c0 4.643 3.796 8.469 8.439 8.469z" fill="#375e7d" fill-rule="evenodd"/></g><g><path clip-rule="evenodd" d="m276.271 62.347v33.232c0 4.643-3.796 8.469-8.439 8.469h26.252 8.556c4.643 0 8.439-3.826 8.439-8.469v-33.232c0-4.643-3.796-8.439-8.439-8.439h-19.069-15.74c4.644-.001 8.44 3.796 8.44 8.439z" fill="#2b4d66" fill-rule="evenodd"/></g><path d="m359.791 472.039c-.309 2.926-2.287 5.542-5.254 6.552-.824.278-1.669.402-2.493.402-1.793 0-3.513-.628-4.883-1.731-1.123-.896-1.998-2.112-2.493-3.575l-21.212-62.893-24.961 61.419c-.824 2.029-2.411 3.523-4.306 4.275-.917.381-1.906.577-2.915.577-.968 0-1.968-.185-2.926-.577-1.947-.793-3.4-2.277-4.193-4.059-.824-1.865-.917-4.049-.093-6.078l25.229-62.099-58.834 29.566c-1.113.556-2.297.814-3.472.814-.845 0-1.679-.134-2.472-.412-1.885-.618-3.544-1.968-4.502-3.894-1.123-2.256-1.051-4.801-.021-6.902.721-1.483 1.927-2.751 3.513-3.544l70.907-35.624 19.275 8.128 25.744 76.336c.372 1.104.485 2.238.362 3.319z" fill="#fbba58"/><g><path clip-rule="evenodd" d="m203.91 404.393c5.344 41.321 31.012 78.758 70.784 96.835.993.467 2.015.905 3.066 1.343 61.849 26.107 132.779-3.855 158.418-66.932l-32.618-13.754c-9.812 24.15-28.997 41.438-51.511 49.323-1.723.613-3.475 1.168-5.256 1.635-17.754 4.964-37.203 4.176-55.512-3.563-20.149-8.498-35.421-23.917-44.299-42.431-3.417-7.096-5.869-14.63-7.3-22.457-2.979-16.09-1.518-33.261 5.081-49.527l-32.618-13.754c-8.44 20.763-10.892 42.519-8.235 63.282z" fill="#7fdbae" fill-rule="evenodd"/></g><g><path clip-rule="evenodd" d="m204.903 410.729c7.008 38.751 32.063 73.356 69.791 90.498.993.467 2.015.905 3.066 1.343 61.849 26.107 132.779-3.855 158.418-66.932l-15.448-6.512c-19.331 32.21-51.687 52.914-86.991 57.879-18.426 2.57-37.641.876-56.242-5.753-2.19-.759-4.38-1.606-6.541-2.541-1.022-.438-2.044-.876-3.066-1.343-29.756-13.52-51.628-37.904-62.987-66.639z" fill="#3bc3a4" fill-rule="evenodd"/></g></g></svg>