<svg xmlns="http://www.w3.org/2000/svg" version="1.1" xmlns:xlink="http://www.w3.org/1999/xlink" xmlns:svgjs="http://svgjs.com/svgjs" width="512" height="512" x="0" y="0" viewBox="0 0 100 100" style="enable-background:new 0 0 512 512" xml:space="preserve" class=""><g><path fill="#bdbcbc" d="M69.675 40.498a19.61 19.61 0 0 1 3.081 4l15.779-15.779a4.996 4.996 0 0 0-.001-7.069 4.99 4.99 0 0 0-7.069 0L65.687 37.425a19.605 19.605 0 0 1 3.988 3.073z" data-original="#bdbcbc"></path><path fill="#9d9d9d" d="m72.756 44.498 2.898-2.898a23.317 23.317 0 0 0-3.152-3.931 23.208 23.208 0 0 0-3.916-3.143l-2.899 2.899a19.515 19.515 0 0 1 3.988 3.073 19.645 19.645 0 0 1 3.081 4z" data-original="#9d9d9d" class=""></path><path fill="#fff8e1" d="M65.174 63.859 44.201 81.02 29.163 65.98l17.162-20.972c5.214-4.987 13.513-4.918 18.64.208 5.128 5.13 5.197 13.426.209 18.643z" data-original="#fff8e1"></path><path fill="#ffc00e" d="M69.675 40.498c-7.689-7.69-20.282-7.655-28.277 0L20.183 66.427l23.568 23.569 25.927-21.215c7.658-7.999 7.693-20.588-.003-28.283zM44.201 81.02 29.163 65.98l17.162-20.972c5.214-4.987 13.513-4.918 18.64.208 5.128 5.131 5.197 13.427.209 18.645z" data-original="#ffc00e"></path><g fill="#7a5649"><path d="M55.202 19.802c3.257 3.254 4.312 7.473 2.363 9.425-1.955 1.953-6.178.899-9.432-2.357-3.256-3.257-4.31-7.472-2.358-9.425 1.955-1.953 6.172-.9 9.427 2.357zM20.002 51.665c0 4.604-2.24 8.334-5 8.334s-5-3.73-4.999-8.334c0-4.604 2.241-8.334 4.999-8.331 2.762-.003 5 3.731 5 8.331z" fill="#432c23" data-original="#7a5649" class=""></path><ellipse cx="35.001" cy="18.336" rx="5" ry="8.333" fill="#432c23" data-original="#7a5649" class=""></ellipse><path d="M13.342 21.255c3.253-3.256 7.471-4.306 9.424-2.353s.9 6.171-2.353 9.423c-3.258 3.258-7.475 4.313-9.428 2.359-1.952-1.951-.898-6.173 2.357-9.429z" fill="#432c23" data-original="#7a5649" class=""></path></g><path fill="#360f00" d="M13.342 21.255c3.253-3.256 7.471-4.306 9.424-2.353L10.984 30.684c-1.951-1.951-.897-6.173 2.358-9.429z" data-original="#4e342e" class=""></path><path fill="#432c23" d="M28.335 33.332c4.603.003 8.331 2.242 8.332 5 0 2.763-3.729 5.002-8.33 5.003-4.604-.001-8.335-2.243-8.335-5 0-2.762 3.732-5 8.333-5.003z" data-original="#7a5649" class=""></path><path fill="#ffebb2" d="M64.965 45.215c-5.127-5.126-13.426-5.195-18.64-.208L29.163 65.979l15.038 15.04 3.11-2.546L34.55 65.711l14.617-17.862c4.721-4.515 11.967-4.872 17.1-1.094a13.354 13.354 0 0 0-1.302-1.54z" data-original="#ffebb2"></path><path fill="#360f00" d="M55.203 19.803c3.256 3.253 4.307 7.471 2.354 9.424L45.774 17.446c1.953-1.951 6.174-.896 9.429 2.357zM28.337 33.333c4.603-.001 8.327 2.239 8.328 5.001H20.003c0-2.761 3.732-4.999 8.334-5.001zM10 51.664c0-4.602 2.239-8.327 5.001-8.327v16.661c-2.759 0-4.999-3.731-5.001-8.334zM29.999 18.334c-.001-4.604 2.239-8.327 5.001-8.327v16.661c-2.76-.001-4.998-3.731-5.001-8.334z" data-original="#4e342e" class=""></path></g></svg>