<svg id="_x37_3_Refrigerator_1_" enable-background="new 0 0 512 512" height="512" viewBox="0 0 512 512" width="512"
  xmlns="http://www.w3.org/2000/svg">
  <g id="_x37_3_Refrigerator">
    <g>
      <path
        d="m382.1 0h-252.2c-19.2 0-34.9 15.6-34.9 34.9v402.8c0 19.2 15.7 34.9 34.9 34.9h6v28.7c0 5.9 4.8 10.7 10.7 10.7h42.5c5.9 0 10.7-4.8 10.7-10.7v-28.7h112.5v28.7c0 5.9 4.8 10.7 10.7 10.7h42.5c5.9 0 10.7-4.8 10.7-10.7v-28.7h6c19.2 0 34.9-15.7 34.9-34.9v-402.8c-.1-19.3-15.8-34.9-35-34.9zm-203.7 490.7h-21.2v-18.1h21.2zm176.3 0h-21.2v-18.1h21.2zm41-53c0 7.5-6.1 13.5-13.5 13.5h-252.3c-7.5 0-13.6-6.1-13.6-13.5v-255.2h279.3zm0-276.5h-279.4v-126.3c0-7.5 6.1-13.5 13.6-13.5h252.2c7.5 0 13.5 6.1 13.5 13.5z"
        fill="rgba(203, 203, 203, 1)" />
      <path
        d="m148.7 285.9c5.9 0 10.7-4.8 10.7-10.7v-60.4c0-5.9-4.8-10.7-10.7-10.7s-10.7 4.8-10.7 10.7v60.4c0 6 4.8 10.7 10.7 10.7z"
        fill="rgba(203, 203, 203, 1)" />
      <path
        d="m148.7 90.3c-5.9 0-10.7 4.8-10.7 10.7v27.9c0 5.9 4.8 10.7 10.7 10.7s10.7-4.8 10.7-10.7v-27.9c-.1-6-4.8-10.7-10.7-10.7z"
        fill="rgba(203, 203, 203, 1)" />
    </g>
  </g>
</svg>