<svg id="Filled_Outline" height="512" viewBox="0 0 64 64" width="512" xmlns="http://www.w3.org/2000/svg"><path d="m15 28h34v4h-34z" fill="#d8d6d6"/><path d="m16 28c0-7.73 6.27-14 14-14h4c7.73 0 14 6.27 14 14z" fill="#d8d6d6"/><path d="m18.167 26c.955-5.668 5.897-10 11.833-10h4c5.936 0 10.878 4.332 11.833 10z" fill="#edebeb"/><path d="m16 28c0-7.73 6.27-14 14-14h4c7.73 0 14 6.27 14 14z" fill="#edebeb"/><path d="m18.167 26c.955-5.668 5.897-10 11.833-10h4c5.936 0 10.878 4.332 11.833 10z" fill="#fff"/><path d="m30 48.73c1.6 1.44 3.8 1.61 4.91.37.03-.03.06-.07.09-.1.99-1.24.57-3.34-1-4.73-1.6-1.44-3.8-1.61-4.91-.37-.03.03-.06.07-.09.1-.99 1.24-.57 3.34 1 4.73zm17.13-8.73-1.16 13h-.88-3.34-19.5-3.34-.88l-1.16-13h.95 3.14 22.08 3.14z" fill="#898080"/><path d="m46.18 40h-3.14-3.861c-.667 4.542-1.82 9.095-3.724 13h6.295 3.34.88l1.16-13z" fill="#7c6d6d"/><path d="m34 44.27c1.57 1.39 1.99 3.49 1 4.73 0 0-2-3-3-3s-3-2-3-2c.03-.03.06-.07.09-.1 1.11-1.24 3.31-1.07 4.91.37z" fill="#a36934"/><path d="m34.91 49.1c-1.11 1.24-3.31 1.07-4.91-.37-1.57-1.39-1.99-3.49-1-4.73 0 0 2 2 3 2s3 3 3 3c-.03.03-.06.07-.09.1z" fill="#bc855c"/><path d="m41.75 53-.56 5.21c-.11 1.02-.97 1.79-1.99 1.79h-14.4c-1.02 0-1.88-.77-1.99-1.79l-.56-5.21z" fill="#af7341"/><path d="m43.59 35.44-.55 4.56h-22.08l-.51-4.23c1.04-.47 3.9-1.32 8.55.23 6 2 10 0 10 0s3.06-1.53 4.5-.57z" fill="#af7341"/><path d="m42.5 2.25c.68.34.75 1.28.12 1.71l-8.19 5.74c-.27.19-.43.49-.43.82v3.48h-4v-5.48c0-.33.16-.63.43-.82l9.08-6.36c.3-.21.69-.24 1.02-.07z" fill="#7c6d6d"/><path d="m30 14h4v14h-4z" fill="#898080"/><path d="m42.62 3.96-8.19 5.74c-.27.19-.43.49-.43.82v3.48h-2v-4.48c0-.33.16-.63.43-.82l8.19-5.74c.62-.42.56-1.34-.09-1.69l1.97.98c.68.34.75 1.28.12 1.71z" fill="#604d53"/><path d="m32 14h2v14h-2z" fill="#7c6d6d"/><path d="m44 32-.41 3.44-.09-.01c-1.44-.96-4.5.57-4.5.57s-4 2-10 0c-4.65-1.55-7.51-.7-8.55-.23l-.45-3.77z" fill="#edebeb"/><path d="m15 30h34v2h-34z" fill="#c1aeae"/><path d="m47 32-.82 8h-3.14l.55-4.56.41-3.44z" fill="#c1aeae"/><path d="m20.45 35.77.51 4.23h-3.14l-.82-8h3z" fill="#d8d6d6"/><path d="m24.8 60h14.4c1.02 0 1.88-.77 1.99-1.79l.56-5.21h3.34l-.82 9.09c-.05.52-.48.91-1 .91h-22.54c-.52 0-.95-.39-1-.91l-.82-9.09h3.34l.56 5.21c.11 1.02.97 1.79 1.99 1.79z" fill="#d8d6d6"/><path d="m35.455 53c-1.331 2.73-3.032 5.137-5.189 7h8.934c1.02 0 1.88-.77 1.99-1.79l.56-5.21z" fill="#935c2e"/><path d="m43.59 35.44-.09-.01c-1.018-.678-2.84-.114-3.824.276-.122 1.416-.285 2.853-.497 4.294h3.861z" fill="#935c2e"/><path d="m39.915 32c-.051 1.207-.131 2.448-.24 3.706.984-.39 2.807-.954 3.824-.276l.09.01.411-3.44z" fill="#d3bebe"/><path d="m41.75 53-.56 5.21c-.11 1.02-.97 1.79-1.99 1.79h-8.934c-1.484 1.281-3.179 2.311-5.127 3h18.131c.52 0 .95-.39 1-.91l.82-9.09z" fill="#c1aeae"/><path d="m21.099 43.534c-.224-.179-.571-.294-.858-.248-.298.047-.599.18-.782.431-.183.25-.283.544-.248.858l.259 2.324c.033.297.197.595.431.782.224.179.571.293.858.248.298-.047.599-.18.782-.431.183-.25.283-.544.248-.858l-.259-2.324c-.033-.297-.197-.595-.431-.782z" fill="#9e9797"/><g fill="#472b3c"><path d="m15.874 40.089 1.16 13c.045.504.46.887.962.905l.739 8.192c.098 1.034.956 1.814 1.995 1.814h22.54c1.039 0 1.896-.78 1.996-1.82l.738-8.186c.502-.018.917-.401.962-.905l1.16-13c.025-.28-.069-.557-.258-.764-.153-.167-.362-.257-.583-.293l.618-6.032h1.097c.552 0 1-.448 1-1v-4c0-.552-.448-1-1-1h-.051c-.496-7.471-6.475-13.451-13.946-13.949l.001-2.532 8.18-5.733c.59-.403.914-1.068.865-1.779-.048-.713-.46-1.331-1.104-1.652l-1.958-.973c-.657-.339-1.444-.287-2.052.14l-9.081 6.361c-.535.376-.854.988-.854 1.637v4.531c-7.472.496-13.453 6.477-13.949 13.949h-.051c-.552 0-1 .448-1 1v4c0 .552.448 1 1 1h1.097l.618 6.033c-.221.036-.43.125-.583.293-.189.206-.283.483-.258.763zm26.861-5.943c-1.721-.2-3.712.725-4.178.958-.037.018-3.75 1.778-9.241-.052-3.742-1.247-6.426-1.025-8.018-.622l-.171-1.43h21.746zm-21.195 2.296c1.177-.347 3.555-.69 7.144.506 2.116.705 4 .942 5.579.942 3.138 0 5.065-.937 5.184-.996.876-.436 2.242-.852 3.051-.762l-.345 2.868h-20.306zm24.497 4.558-.981 11h-26.112l-.981-11zm-25.311 21-.722-8h20.632l-.441 4.103c-.054.511-.483.897-.995.897h-14.4c-.512 0-.94-.386-.996-.897l-.238-2.21c-.06-.549-.566-.95-1.101-.887-.549.059-.946.552-.887 1.101l.238 2.21c.164 1.53 1.447 2.683 2.984 2.683h14.4c1.537 0 2.819-1.153 2.984-2.683l.464-4.317h1.347l-.725 8zm24.552-23h-1.11l.72-6h1.005zm1.671-12h-11.949l.003-11.949c6.369.49 11.458 5.58 11.946 11.949zm-15.949 0 .002-12h1.998v12zm9.084-24.834 1.962.976-8.191 5.741c-.536.376-.855.988-.855 1.637v2.48h-1.997l.001-4.481zm-24.084 26.834h5c.552 0 1-.448 1-1s-.448-1-1-1h-3.949c.488-6.37 5.579-11.461 11.949-11.949v11.949h-4c-.552 0-1 .448-1 1s.448 1 1 1h23v2h-32zm3.113 4 .72 6h-1.111l-.615-6z"/><path d="m32.902 50.93c.079 0 .158-.002.236-.006 1.004-.054 1.898-.465 2.485-1.123l.084-.094c.026-.026.051-.054.074-.083.013-.016.02-.036.033-.052.014-.019.025-.039.037-.059 1.239-1.684.74-4.284-1.182-5.986-1.104-.993-2.5-1.531-3.807-1.451-1.004.054-1.898.465-2.485 1.123-.011.011-.076.083-.096.107-.022.022-.042.046-.062.07-1.341 1.679-.85 4.36 1.112 6.097 1.038.934 2.327 1.457 3.571 1.457zm.128-2.003c-.779.047-1.661-.31-2.367-.945-.711-.63-1.132-1.471-1.186-2.212.758.606 1.678 1.192 2.446 1.229.318.143 1.031.909 1.704 1.8-.21.083-.422.118-.597.128zm-2.06-4.854c.775-.045 1.661.31 2.367.945.49.434.834.969 1.024 1.502-.773-.86-1.603-1.52-2.343-1.52 0 0 0 0-.001 0-.235-.03-.791-.393-1.385-.877.12-.026.236-.044.338-.05z"/></g></svg>