<?xml version="1.0" encoding="UTF-8" standalone="no"?>
<!-- Created with Inkscape (http://www.inkscape.org/) -->

<svg
   version="1.1"
   id="svg5328"
   xml:space="preserve"
   width="682.66669"
   height="682.66669"
   viewBox="0 0 682.66669 682.66669"
   xmlns="http://www.w3.org/2000/svg"
   xmlns:svg="http://www.w3.org/2000/svg"><defs
     id="defs5332"><clipPath
       clipPathUnits="userSpaceOnUse"
       id="clipPath5342"><path
         d="M 0,512 H 512 V 0 H 0 Z"
         id="path5340" /></clipPath><clipPath
       clipPathUnits="userSpaceOnUse"
       id="clipPath5442"><path
         d="M 0,512 H 512 V 0 H 0 Z"
         id="path5440" /></clipPath></defs><g
     id="g5334"
     transform="matrix(1.3333333,0,0,-1.3333333,0,682.66667)"><g
       id="g5336"><g
         id="g5338"
         clip-path="url(#clipPath5342)"><g
           id="g5344"
           transform="translate(102.0645,409.5073)"><path
             d="m 0,0 c 0,0 36.849,91.451 75.819,94.616 21.094,1.714 62.69,-33.893 118.477,-18.901 21.388,5.748 89.358,36.677 107.198,-75.715 0,0 -64.58,-28.544 -150.479,-28.544 C 65.115,-28.544 0,0 0,0"
             style="fill:#ebe1dc;fill-opacity:1;fill-rule:nonzero;stroke:none"
             id="path5346" /></g><g
           id="g5348"
           transform="translate(320.6436,491.8193)"><path
             d="m 0,0 c 4.977,-1.207 9.937,-3.165 14.738,-6.121 38.583,-23.754 28.254,-82.762 -15.832,-93.219 -22.246,-5.278 -50.171,-10.031 -81.472,-11.225 4.922,-0.188 9.924,-0.291 15.003,-0.291 85.898,0 150.478,28.544 150.478,28.544 C 69.69,1.002 28.923,5.559 0,0"
             style="fill:#dcd2cd;fill-opacity:1;fill-rule:nonzero;stroke:none"
             id="path5350" /></g><g
           id="g5352"
           transform="translate(471.874,22.2495)"><path
             d="m 0,0 c -3.394,13.512 -10.49,32.479 -25.109,47.098 -0.495,0.494 -0.998,0.961 -1.496,1.442 13.828,117.386 5.283,196.437 -25.321,310.815 l -9.197,34.376 h -0.001 c -99.471,-38.6 -209.776,-38.631 -309.27,-0.089 l -0.231,0.089 -9.197,-34.376 c -30.604,-114.378 -39.149,-193.429 -25.321,-310.815 -0.498,-0.481 -1.002,-0.948 -1.496,-1.442 C -421.258,32.479 -428.354,13.512 -431.748,0 c -2.139,-8.512 5.532,-16.209 14.045,-14.073 13.438,3.373 32.278,10.417 46.872,24.881 102.833,-13.961 207.08,-13.961 309.913,0 C -46.323,-3.656 -27.482,-10.7 -14.044,-14.073 -5.531,-16.209 2.138,-8.512 0,0"
             style="fill:#f5deb2;fill-opacity:1;fill-rule:nonzero;stroke:none"
             id="path5354" /></g><g
           id="g5356"
           transform="translate(471.874,22.2495)"><path
             d="m 0,0 c -3.394,13.512 -10.49,32.479 -25.109,47.098 -0.495,0.494 -0.998,0.961 -1.496,1.442 13.828,117.386 5.283,196.437 -25.321,310.815 l -9.197,34.376 h -0.001 c -9.061,-3.516 -18.213,-6.703 -27.437,-9.579 l 6.635,-24.797 c 29.687,-110.952 38.602,-188.687 26.487,-300.395 -0.289,-2.66 -0.117,-5.358 0.523,-7.957 0.008,-0.031 0.016,-0.063 0.023,-0.094 0.824,-3.342 2.38,-6.464 4.583,-9.108 C -38.9,28.112 -32.997,11.934 -30,0 c 0.771,-3.068 0.262,-6.028 -1.096,-8.462 6.109,-2.53 11.967,-4.334 17.052,-5.611 C -5.531,-16.209 2.138,-8.512 0,0"
             style="fill:#f3d69e;fill-opacity:1;fill-rule:nonzero;stroke:none"
             id="path5358" /></g><g
           id="g5360"
           transform="translate(416.2344,433.5146)"><path
             d="m 0,0 c -14.191,-7.287 -33.406,-13.159 -53.604,-17.829 -70.214,-16.235 -143.312,-16.235 -213.527,0 -20.197,4.67 -39.411,10.542 -53.603,17.829 -4.47,2.295 -9.928,1.084 -12.922,-2.952 -7.373,-9.94 -19.365,-29.586 -20.66,-53.583 -0.141,-2.605 1.34,-5.024 3.695,-6.147 15.446,-7.364 78.001,-33.404 190.254,-33.404 112.253,0 174.807,26.04 190.254,33.404 2.354,1.123 3.837,3.542 3.696,6.147 C 32.287,-32.538 20.295,-12.892 12.922,-2.952 9.928,1.084 4.471,2.295 0,0"
             style="fill:#f3d69e;fill-opacity:1;fill-rule:nonzero;stroke:none"
             id="path5362" /></g><g
           id="g5364"
           transform="translate(429.1562,430.563)"><path
             d="m 0,0 c -2.994,4.036 -8.451,5.247 -12.922,2.952 -4.424,-2.272 -9.337,-4.406 -14.615,-6.409 7.315,-10.668 17.038,-28.652 18.197,-50.126 0.141,-2.605 -1.34,-5.024 -3.694,-6.146 -14.745,-7.03 -72.414,-31.075 -175.255,-33.247 4.898,-0.103 9.896,-0.158 15,-0.158 112.253,0 174.808,26.04 190.255,33.405 2.354,1.122 3.835,3.541 3.694,6.146 C 19.365,-29.586 7.373,-9.94 0,0"
             style="fill:#efcb83;fill-opacity:1;fill-rule:nonzero;stroke:none"
             id="path5366" /></g><g
           id="g5368"
           transform="translate(274.5791,160.895)"><path
             d="m 0,0 c -17.532,-11.713 -18.579,-40.914 -18.579,-40.914 0,0 27.378,-10.211 44.909,1.502 C 43.862,-27.699 44.91,1.502 44.91,1.502 44.91,1.502 17.532,11.713 0,0"
             style="fill:#efcb83;fill-opacity:1;fill-rule:nonzero;stroke:none"
             id="path5370" /></g><g
           id="g5372"
           transform="translate(237.4209,160.895)"><path
             d="m 0,0 c 17.532,-11.713 18.579,-40.914 18.579,-40.914 0,0 -27.378,-10.211 -44.909,1.502 -17.532,11.713 -18.58,40.914 -18.58,40.914 0,0 27.378,10.211 44.91,-1.502"
             style="fill:#efcb83;fill-opacity:1;fill-rule:nonzero;stroke:none"
             id="path5374" /></g><g
           id="g5376"
           transform="translate(274.5791,211.1006)"><path
             d="m 0,0 c -17.532,-11.713 -18.579,-40.914 -18.579,-40.914 0,0 27.378,-10.211 44.909,1.502 C 43.862,-27.699 44.91,1.502 44.91,1.502 44.91,1.502 17.532,11.713 0,0"
             style="fill:#efcb83;fill-opacity:1;fill-rule:nonzero;stroke:none"
             id="path5378" /></g><g
           id="g5380"
           transform="translate(237.4209,211.1006)"><path
             d="m 0,0 c 17.532,-11.713 18.579,-40.914 18.579,-40.914 0,0 -27.378,-10.211 -44.909,1.502 -17.532,11.713 -18.58,40.914 -18.58,40.914 0,0 27.378,10.211 44.91,-1.502"
             style="fill:#efcb83;fill-opacity:1;fill-rule:nonzero;stroke:none"
             id="path5382" /></g><g
           id="g5384"
           transform="translate(274.5791,261.7642)"><path
             d="m 0,0 c -17.532,-11.713 -18.579,-40.914 -18.579,-40.914 0,0 27.378,-10.211 44.909,1.502 C 43.862,-27.699 44.91,1.502 44.91,1.502 44.91,1.502 17.532,11.713 0,0"
             style="fill:#efcb83;fill-opacity:1;fill-rule:nonzero;stroke:none"
             id="path5386" /></g><g
           id="g5388"
           transform="translate(237.4209,261.7642)"><path
             d="m 0,0 c 17.532,-11.713 18.579,-40.914 18.579,-40.914 0,0 -27.378,-10.211 -44.909,1.502 -17.532,11.713 -18.58,40.914 -18.58,40.914 0,0 27.378,10.211 44.91,-1.502"
             style="fill:#efcb83;fill-opacity:1;fill-rule:nonzero;stroke:none"
             id="path5390" /></g><g
           id="g5392"
           transform="translate(110.0059,427.1479)"><path
             d="m 0,0 c 12.912,26.742 39.846,74.699 67.878,76.976 21.094,1.713 62.689,-33.894 118.476,-18.901 20.225,5.435 82.109,33.388 103.862,-58.634"
             style="fill:none;stroke:#000000;stroke-width:15;stroke-linecap:round;stroke-linejoin:round;stroke-miterlimit:10;stroke-dasharray:none;stroke-opacity:1"
             id="path5394" /></g><g
           id="g5396"
           transform="translate(441.5303,286.1914)"><path
             d="M 0,0 C -4.208,24.229 -9.723,49.238 -16.537,76.08"
             style="fill:none;stroke:#000000;stroke-width:15;stroke-linecap:round;stroke-linejoin:round;stroke-miterlimit:10;stroke-dasharray:none;stroke-opacity:1"
             id="path5398" /></g><g
           id="g5400"
           transform="translate(61.2666,134.1338)"><path
             d="m 0,0 c 1.014,-20.065 2.834,-41.011 5.465,-63.345 -0.498,-0.481 -1.002,-0.947 -1.496,-1.441 -14.619,-14.62 -21.716,-33.586 -25.11,-47.098 -2.138,-8.512 5.533,-16.209 14.045,-14.073 13.439,3.373 32.279,10.417 46.872,24.88 102.833,-13.961 207.08,-13.961 309.913,0.001 14.595,-14.465 33.436,-21.508 46.874,-24.881 8.513,-2.136 16.182,5.561 14.044,14.073 -3.393,13.512 -10.49,32.478 -25.109,47.098 -0.494,0.494 -0.998,0.96 -1.496,1.441 8.264,70.152 8.537,126.612 0.888,185.103"
             style="fill:none;stroke:#000000;stroke-width:15;stroke-linecap:round;stroke-linejoin:round;stroke-miterlimit:10;stroke-dasharray:none;stroke-opacity:1"
             id="path5402" /></g><g
           id="g5404"
           transform="translate(86.9854,362.1851)"><path
             d="M 0,0 C -18.335,-72.231 -27.245,-131.193 -26.645,-197.43"
             style="fill:none;stroke:#000000;stroke-width:15;stroke-linecap:round;stroke-linejoin:round;stroke-miterlimit:10;stroke-dasharray:none;stroke-opacity:1"
             id="path5406" /></g><g
           id="g5408"
           transform="translate(416.2344,433.5146)"><path
             d="m 0,0 c -14.191,-7.287 -33.406,-13.159 -53.604,-17.829 -70.214,-16.235 -143.312,-16.235 -213.527,0 -20.197,4.67 -39.411,10.542 -53.603,17.829 -4.47,2.295 -9.928,1.084 -12.922,-2.952 -7.373,-9.94 -19.365,-29.586 -20.66,-53.583 -0.141,-2.605 1.34,-5.024 3.695,-6.147 15.446,-7.364 78.001,-33.404 190.254,-33.404 112.253,0 174.807,26.04 190.254,33.404 2.354,1.123 3.837,3.542 3.696,6.147 C 32.287,-32.538 20.295,-12.892 12.922,-2.952 9.928,1.084 4.471,2.295 0,0 Z"
             style="fill:none;stroke:#000000;stroke-width:15;stroke-linecap:round;stroke-linejoin:round;stroke-miterlimit:10;stroke-dasharray:none;stroke-opacity:1"
             id="path5410" /></g><g
           id="g5412"
           transform="translate(274.5791,160.895)"><path
             d="m 0,0 c -17.532,-11.713 -18.579,-40.914 -18.579,-40.914 0,0 27.378,-10.211 44.909,1.502 C 43.862,-27.699 44.91,1.502 44.91,1.502 44.91,1.502 17.532,11.713 0,0 Z"
             style="fill:none;stroke:#000000;stroke-width:15;stroke-linecap:round;stroke-linejoin:round;stroke-miterlimit:10;stroke-dasharray:none;stroke-opacity:1"
             id="path5414" /></g><g
           id="g5416"
           transform="translate(237.4209,160.895)"><path
             d="m 0,0 c 17.532,-11.713 18.579,-40.914 18.579,-40.914 0,0 -27.378,-10.211 -44.909,1.502 -17.532,11.713 -18.58,40.914 -18.58,40.914 0,0 27.378,10.211 44.91,-1.502 z"
             style="fill:none;stroke:#000000;stroke-width:15;stroke-linecap:round;stroke-linejoin:round;stroke-miterlimit:10;stroke-dasharray:none;stroke-opacity:1"
             id="path5418" /></g><g
           id="g5420"
           transform="translate(274.5791,211.1006)"><path
             d="m 0,0 c -17.532,-11.713 -18.579,-40.914 -18.579,-40.914 0,0 27.378,-10.211 44.909,1.502 C 43.862,-27.699 44.91,1.502 44.91,1.502 44.91,1.502 17.532,11.713 0,0 Z"
             style="fill:none;stroke:#000000;stroke-width:15;stroke-linecap:round;stroke-linejoin:round;stroke-miterlimit:10;stroke-dasharray:none;stroke-opacity:1"
             id="path5422" /></g><g
           id="g5424"
           transform="translate(237.4209,211.1006)"><path
             d="m 0,0 c 17.532,-11.713 18.579,-40.914 18.579,-40.914 0,0 -27.378,-10.211 -44.909,1.502 -17.532,11.713 -18.58,40.914 -18.58,40.914 0,0 27.378,10.211 44.91,-1.502 z"
             style="fill:none;stroke:#000000;stroke-width:15;stroke-linecap:round;stroke-linejoin:round;stroke-miterlimit:10;stroke-dasharray:none;stroke-opacity:1"
             id="path5426" /></g><g
           id="g5428"
           transform="translate(274.5791,261.7642)"><path
             d="m 0,0 c -17.532,-11.713 -18.579,-40.914 -18.579,-40.914 0,0 27.378,-10.211 44.909,1.502 C 43.862,-27.699 44.91,1.502 44.91,1.502 44.91,1.502 17.532,11.713 0,0 Z"
             style="fill:none;stroke:#000000;stroke-width:15;stroke-linecap:round;stroke-linejoin:round;stroke-miterlimit:10;stroke-dasharray:none;stroke-opacity:1"
             id="path5430" /></g><g
           id="g5432"
           transform="translate(237.4209,261.7642)"><path
             d="m 0,0 c 17.532,-11.713 18.579,-40.914 18.579,-40.914 0,0 -27.378,-10.211 -44.909,1.502 -17.532,11.713 -18.58,40.914 -18.58,40.914 0,0 27.378,10.211 44.91,-1.502 z"
             style="fill:none;stroke:#000000;stroke-width:15;stroke-linecap:round;stroke-linejoin:round;stroke-miterlimit:10;stroke-dasharray:none;stroke-opacity:1"
             id="path5434" /></g></g></g><g
       id="g5436"><g
         id="g5438"
         clip-path="url(#clipPath5442)"><g
           id="g5444"
           transform="translate(155.6074,-524.4219)"><path
             d="m 0,0 c 74.132,9.987 35.248,127.406 112.983,178.539 77.736,51.133 204.171,31.1 204.171,182.22 C 317.154,511.88 92.471,532.482 0,440.011 -104.326,335.685 -198.936,-26.8 0,0"
             style="fill:#b04a59;fill-opacity:1;fill-rule:nonzero;stroke:none"
             id="path5446" /></g><g
           id="g5448"
           transform="translate(268.5908,-345.8828)"><path
             d="m 0,0 c 77.735,51.133 204.171,31.1 204.171,182.22 0,151.121 -224.684,171.723 -317.154,79.252 -1.059,-1.058 -2.117,-2.143 -3.173,-3.255"
             style="fill:none;stroke:#000000;stroke-width:15;stroke-linecap:round;stroke-linejoin:round;stroke-miterlimit:10;stroke-dasharray:none;stroke-opacity:1"
             id="path5450" /></g></g></g></g></svg>
