<svg id="圖層_1" height="512" viewBox="0 0 512.001 512" width="512" xmlns="http://www.w3.org/2000/svg"><path id="_x30_4" d="m320.294 252.294c-32.024-9.405-64.607-23.085-95.845-36.46-41.497-17.786-76.061-30.146-121.3-28.655-42.276 1.388-51.3 97.834-27.462 130.341 6.561 8.948 49.48 41.54 94.635 52.731 31.271 7.754 87.879 13.621 104.741 10.116 64.287-13.359 71.55-120.344 45.231-128.073z" fill="#fffbf7"/><path id="_x30_3" d="m55.456 146.68c-14.451 5.418-33.498 5.223-46.229 15.89-13.07 10.929-11.048 43.114-1.448 53.458 18.776 20.232 48.574 21.79 70.788 23.119 72.243 4.334 134.929 18.361 193.603 49.116 31.626 16.584 49.564 41.396 74.08 67.587 18.133 19.369 30.78 60.4 41.497 82.673 2.489-4.893 13.545-43.808 14.45-49.125 6.112 1.168 42.133 20.85 49.125 20.224 1.21-11.148-76.68-103.252-95.354-118.464 49.115 4.334 79.887 61.645 112.69 88.124-.923-3.386-3.835-42.911-4.334-46.229 8.863-.991 39.778 20.046 47.677 18.785-11.513-22.561-44.96-65.556-66.462-79.464-24.558-15.89-49.446-26.336-66.461-41.895-8.669-7.924-73.675-99.697-150.252-128.589-51.368-19.386-96.387-36.257-153.146-24.558-22.408 4.622-39.009 19.504-35.758 43.343 1.456 10.683 8.668 19.504 15.534 26.005z" fill="#ffc8bb"/><path id="_x30_2" d="m96.732 74.225c-22.424 13.816-33.649 46.255-13.467 72.455-40.092 21.671-45.036 58.216-35.114 89.259 8.448 1.575 16.735 2.26 24.532 2.777-2.827-22.823 6.129-47.66 25.777-60.697 22.585-14.984 19.19-13.57 19.589-41.649.203-14.713 3.377-24.423 10.522-37.231 4.985-8.939 12.52-16.092 21.146-22.01-17.04-3.217-34.453-4.571-52.985-2.904zm93.805 102.795c-5.807 8.254-24.981 13.096-33.59 18.421-16.11 9.972-10.312 34.488-7.255 52.087 11.563 2.048 22.864 4.521 33.996 7.331-.956-6.51-1.168-13.113-.144-19.716 2.142-13.781 6.272-23.686 14.569-34.928 5.73-7.754 16.532-12.326 19.8-21.875 9.701-28.368 27.961-44.9 51.225-55.042-10.557-6.984-21.503-13.265-32.787-18.167-37.043 9.474-50.148 39.382-45.814 71.889zm188.541 53.459c-3.886-3.556-19.132-23.932-41.658-47.939-16.854-9.854-31.652 1.117-38.526 9.65-10.556 13.096 9.516 49.057-6.061 52.655-25.362 5.858-12.326 32.938-11.166 48.98 18.387 11.581 32.16 26.226 46.44 42.09 2.819-10.057 20.994-31.771 26.049-41.15 13.578-25.184 31.279-24.609 43.706-50.208-1.168-.974-17.683-13.071-18.784-14.078z" fill="#f38c65"/><path id="_x30_1" d="m512.001 351.838c-11.513-22.561-44.96-65.556-66.462-79.464-18.166-11.758-36.477-20.545-51.689-30.611-19.635 5.365-33.249 20.827-34.451 43.443-10.241-13.366-37.53-41.751-58.388-57.471-2.21-12.698-1.126-22.67 3.598-29.4 5.087-7.238 32.27-13.773 33.624-15.026-4.19-4.495-8.702-9.126-13.384-13.807-15.567 2.557-27.292 8.728-34.42 18.861-5.012 7.128-7.416 16.017-7.703 26.276-15.661-10.582-33.431-21.155-53.781-31.169 1.507-14.67 6.993-32.558 18.997-42.928 7.525-6.501 31.245-8.66 32.692-9.447-7.179-5.274-14.568-10.251-22.17-14.738-8.025 1.921-15.399 5.485-21.858 11.064-12.385 10.7-20.9 28.368-24.084 48.354-11.081-4.944-22.839-9.702-35.343-14.205-8.609-3.107-24.084-6.755-41.285-10.243-4.428-8.05-7.297-26.167-1.354-40.871 4.232-10.463 30.374-25.751 29.764-30.027-6.264-1.574-12.579-2.878-18.928-3.953-12.394 5.469-21.73 14.679-26.912 27.487-5.841 14.459-5.493 30.772-2.175 43.588-27.014-4.961-66.106-9.041-67.521-8.237 2.143 2.675 4.394 5.189 6.688 7.365-3.336 1.253-6.925 2.184-10.616 3.039 1.168 3.099 34.666 8.999 56.701 12.833-5.096 3.572-9.888 7.331-14.256 11.217-13.188 11.716-21.544 30.238-21.281 47.169.102 6.772 1.735 12.715 4.444 17.701 2.784.186 5.511.355 8.118.508 4.147.246 8.169.652 12.258.965.017-2.506-7.399-13.671-7.483-19.437-.152-9.921 4.571-24.27 15.457-33.955 7.882-7 17.744-13.748 28.173-19.47 18.675 3.657 35.724 7.526 44.333 10.624 8.965 3.226 17.405 6.637 25.608 10.108-7.949 5.977-14.053 14.001-17.405 24.168-5.172 15.687-3.31 32.261 1.558 41.811 5.384 1.337 10.667 2.887 15.957 4.41 2.743-3.233-5.477-27.36-1.05-40.794 3.429-10.413 10.522-17.21 20.698-20.706 24.753 11.86 45.722 24.592 63.608 37.248-10.361 5.629-16.592 16.71-16.786 32.236-.051 4.072.55 11.834 2.548 18.937 2.031 1.024 4.105 1.913 6.129 2.971 5.063 2.658 9.676 5.587 14.12 8.635.889-1.219-7.712-32.388-3.166-42.098 2.243-4.8 13.291-7.949 13.984-8.186 22.688 17.777 39.618 34.683 52.723 47.787.181.18.44.34.742.488-19.405 6.899-25.91 26.911-21.854 41.619 5.646 6.29 11.377 12.774 17.531 19.343 18.133 19.369 30.78 60.4 41.497 82.673 2.489-4.893 13.545-43.808 14.45-49.125 6.112 1.168 42.133 20.85 49.125 20.224 1.134-10.407-66.524-91.175-90.722-114.241.009-.005.024-.01.033-.016-1.786-1.702-3.386-3.166-4.664-4.207.905.081 1.798.197 2.687.325-.01.03-.019.06-.029.089 47.55 6.146 77.83 61.721 110.032 87.709-.923-3.386-3.835-42.911-4.334-46.229 8.864-.989 39.779 20.048 47.677 18.786z" fill="#d31818"/></svg>