<?xml version="1.0" encoding="UTF-8" standalone="no"?>
<!-- Created with Inkscape (http://www.inkscape.org/) -->

<svg
   version="1.1"
   id="svg6132"
   width="682.66669"
   height="682.66669"
   viewBox="0 0 682.66669 682.66669"
   xmlns="http://www.w3.org/2000/svg"
   xmlns:svg="http://www.w3.org/2000/svg">
  <defs
     id="defs6136">
    <clipPath
       clipPathUnits="userSpaceOnUse"
       id="clipPath6146">
      <path
         d="M 0,512 H 512 V 0 H 0 Z"
         id="path6144" />
    </clipPath>
  </defs>
  <g
     id="g6138"
     transform="matrix(1.3333333,0,0,-1.3333333,0,682.66667)">
    <g
       id="g6140">
      <g
         id="g6142"
         clip-path="url(#clipPath6146)">
        <g
           id="g6148"
           transform="translate(148.5176,497.7714)">
          <path
             d="m 0,0 c -9.196,-3.433 -14.932,-12.709 -13.893,-22.47 2.885,-27.128 14.317,-49.446 34.234,-61.761 23.707,-14.658 54.72,-12.227 85.161,3.469 0.439,34.246 -11.246,63.077 -34.953,77.735 C 50.632,9.288 25.558,9.541 0,0"
             style="fill:#69d283;fill-opacity:1;fill-rule:nonzero;stroke:none"
             id="path6150" />
        </g>
        <g
           id="g6152"
           transform="translate(299.4066,488.618)">
          <path
             d="m 0,0 -13.589,9.779 c -3.873,2.787 -9.299,1.668 -11.742,-2.43 -10.514,-17.632 -34.537,-65.367 -34.537,-133.387 h 32.922 c 0,58.557 20.504,100.256 29.244,115.368 C 4.391,-7.051 3.393,-2.442 0,0"
             style="fill:#00c67f;fill-opacity:1;fill-rule:nonzero;stroke:none"
             id="path6154" />
        </g>
        <g
           id="g6156"
           transform="translate(469.8314,194.2108)">
          <path
             d="m 0,0 c 0,-103.118 -95.736,-186.711 -213.832,-186.711 -118.096,0 -213.831,83.593 -213.831,186.711 0,103.118 95.735,186.711 213.831,186.711 C -95.736,186.711 0,103.118 0,0"
             style="fill:#ff9148;fill-opacity:1;fill-rule:nonzero;stroke:none"
             id="path6158" />
        </g>
        <g
           id="g6160"
           transform="translate(92.1681,194.2109)">
          <path
             d="m 0,0 c 0,95.731 82.517,174.622 188.832,185.434 -8.203,0.834 -16.542,1.277 -25,1.277 C 45.736,186.711 -50,103.117 -50,0 c 0,-103.118 95.736,-186.711 213.832,-186.711 8.458,0 16.797,0.443 25,1.277 C 82.517,-174.622 0,-95.732 0,0"
             style="fill:#ff7f5a;fill-opacity:1;fill-rule:nonzero;stroke:none"
             id="path6162" />
        </g>
        <g
           id="g6164"
           transform="translate(169.1225,206.2689)">
          <path
             d="M 0,0 V -15.723"
             style="fill:none;stroke:#000000;stroke-width:15;stroke-linecap:round;stroke-linejoin:round;stroke-miterlimit:10;stroke-dasharray:none;stroke-opacity:1"
             id="path6166" />
        </g>
        <g
           id="g6168"
           transform="translate(342.8777,206.2689)">
          <path
             d="M 0,0 V -15.723"
             style="fill:none;stroke:#000000;stroke-width:15;stroke-linecap:round;stroke-linejoin:round;stroke-miterlimit:10;stroke-dasharray:none;stroke-opacity:1"
             id="path6170" />
        </g>
        <g
           id="g6172"
           transform="translate(277.4427,191.6395)">
          <path
             d="m 0,0 c -5.059,-5.788 -12.785,-9.487 -21.443,-9.487 -8.657,0 -16.383,3.699 -21.442,9.487"
             style="fill:none;stroke:#000000;stroke-width:15;stroke-linecap:round;stroke-linejoin:round;stroke-miterlimit:10;stroke-dasharray:none;stroke-opacity:1"
             id="path6174" />
        </g>
        <g
           id="g6176"
           transform="translate(245.8609,422.054)">
          <path
             d="M 0,0 -61.153,37.811"
             style="fill:none;stroke:#000000;stroke-width:15;stroke-linecap:round;stroke-linejoin:round;stroke-miterlimit:10;stroke-dasharray:none;stroke-opacity:1"
             id="path6178" />
        </g>
        <g
           id="g6180"
           transform="translate(124.1845,47.188)">
          <path
             d="m 0,0 c 36.321,-24.863 82.085,-39.688 131.815,-39.688 118.097,0 213.832,83.593 213.832,186.711 0,50.336 -22.82,96.013 -59.91,129.592"
             style="fill:none;stroke:#000000;stroke-width:15;stroke-linecap:round;stroke-linejoin:round;stroke-miterlimit:10;stroke-dasharray:none;stroke-opacity:1"
             id="path6182" />
        </g>
        <g
           id="g6184"
           transform="translate(386.1113,342.3745)">
          <path
             d="m 0,0 c -36.045,24.169 -81.152,38.547 -130.111,38.547 -118.096,0 -213.832,-83.593 -213.832,-186.711 0,-49.648 22.2,-94.764 58.396,-128.21"
             style="fill:none;stroke:#000000;stroke-width:15;stroke-linecap:round;stroke-linejoin:round;stroke-miterlimit:10;stroke-dasharray:none;stroke-opacity:1"
             id="path6186" />
        </g>
        <g
           id="g6188"
           transform="translate(251.5864,444.0601)">
          <path
             d="m 0,0 c -4.536,22.093 -15.386,40.091 -32.52,50.684 -19.917,12.315 -44.99,12.568 -70.548,3.027 -9.197,-3.433 -14.932,-12.709 -13.894,-22.47 2.886,-27.128 14.317,-49.446 34.234,-61.76 21.092,-13.042 47.968,-12.546 75.078,-1.227 C -5.58,-20.175 -2.924,-9.569 0,0 Z"
             style="fill:none;stroke:#000000;stroke-width:15;stroke-linecap:round;stroke-linejoin:round;stroke-miterlimit:10;stroke-dasharray:none;stroke-opacity:1"
             id="path6190" />
        </g>
        <g
           id="g6192"
           transform="translate(256,380.9216)">
          <path
             d="m 0,0 c 5.758,0 11.461,-0.205 17.104,-0.595 3.517,49.207 20.772,84.086 28.601,97.622 2.093,3.619 1.095,8.228 -2.298,10.67 l -13.589,9.778 c -3.873,2.787 -9.298,1.668 -11.742,-2.43 C 8.507,98.997 -12.246,58.006 -15.899,-0.514 -10.649,-0.177 -5.348,0 0,0 Z"
             style="fill:none;stroke:#000000;stroke-width:15;stroke-linecap:round;stroke-linejoin:round;stroke-miterlimit:10;stroke-dasharray:none;stroke-opacity:1"
             id="path6194" />
        </g>
      </g>
    </g>
  </g>
</svg>
