<svg height="512pt" viewBox="0 0 512.02742 512" width="512pt" xmlns="http://www.w3.org/2000/svg"><path d="m248.347656 76.8125c-16.855468-45.867188-61.011718-76.796875-109.652344-76.796875-64.640624 0-117.335937 52.691406-117.335937 117.332031 0 11.945313 2.132813 23.894532 6.402344 37.121094.640625 2.132812 2.132812 4.050781 4.050781 5.332031 3.839844 2.558594 7.679688 5.332031 11.523438 8.105469 16.636718 11.949219 33.703124 24.320312 49.703124 24.320312 1.496094 0 3.203126-.210937 4.695313-.425781 18.347656-2.988281 24.105469-22.1875 29.011719-39.253906 3.414062-11.09375 7.253906-23.894531 13.015625-24.53125 11.519531-1.28125 30.292969 17.492187 40.53125 27.730469 11.09375 10.882812 16.640625 16.640625 24.535156 14.933594 17.707031-3.625 43.519531-85.972657 43.945313-86.824219.640624-2.5625.425781-4.910157-.425782-7.042969zm0 0" fill="#8d6e63"/><path d="m394.695312 170.679688c-11.949218 0-24.109374 2.132812-37.121093 6.613281-2.132813.640625-4.054688 2.132812-5.332031 4.054687-2.5625 3.839844-5.335938 7.679688-8.109376 11.519532-13.226562 18.347656-26.878906 37.121093-23.890624 54.398437 2.984374 18.347656 22.183593 24.109375 39.25 29.015625 11.308593 3.414062 24.109374 7.253906 24.75 13.011719 1.277343 11.519531-17.496094 30.292969-27.734376 40.535156-10.878906 11.09375-16.425781 16.640625-14.933593 24.53125 3.625 17.707031 85.972656 43.519531 86.828125 43.734375 1.066406.214844 2.132812.425781 3.199218.425781 1.277344 0 2.558594-.210937 3.625-.640625 45.867188-17.066406 76.800782-61.011718 76.800782-109.652344 0-64.851562-52.691406-117.546874-117.332032-117.546874zm0 0" fill="#8d6e63"/><path d="m194.375 397.027344c-11.519531-28.375-22.402344-57.601563-32.214844-83.199219-1.066406-2.5625-2.984375-4.90625-5.546875-5.972656-2.558593-1.070313-5.546875-1.28125-8.105469-.214844-33.707031 13.011719-82.773437 32.214844-118.402343 49.917969-21.117188 10.457031-32.851563 33.070312-29.226563 56.109375 2.5625 16 11.949219 29.867187 26.027344 37.972656 8.320312 4.691406 17.28125 7.039063 26.453125 7.039063 6.613281 0 13.015625-1.28125 19.414063-3.625l115.628906-44.160157c2.773437-1.066406 4.90625-2.988281 5.972656-5.761719.851562-2.558593 1.066406-5.546874 0-8.105468zm0 0" fill="#6d4c41"/><path d="m468.933594 391.695312c-1.066406-3.839843-4.480469-6.828124-8.320313-7.46875-30.292969-5.332031-77.011719-24.960937-94.078125-34.347656 1.707032-1.707031 3.414063-3.410156 5.117188-5.117187 15.148437-15.363281 36.054687-36.269531 33.707031-57.816407-2.132813-20.050781-23.039063-26.238281-39.890625-31.144531-10.453125-2.988281-23.253906-6.828125-24.109375-12.160156-1.492187-8.320313 10.667969-24.960937 20.269531-38.1875 11.304688-16.210937 22.398438-31.359375 22.398438-45.4375 0-5.761719-4.480469-10.457031-10.238282-10.667969-29.015624-1.492187-82.988281 29.011719-107.523437 86.1875-7.464844 17.707032-20.050781 31.359375-35.839844 39.890625-4.691406 2.5625-6.824219 8.109375-4.90625 13.226563l33.28125 87.253906c1.707031 4.480469 6.398438 7.253906 11.09375 6.828125 16.851563-1.921875 32.851563 1.28125 46.292969 9.171875 29.226562 17.28125 65.066406 26.453125 95.359375 26.453125 23.039063 0 42.878906-5.117187 54.613281-16 2.773438-2.558594 3.839844-6.824219 2.773438-10.664063zm0 0" fill="#6d4c41"/><path d="m305.734375 439.480469-66.773437-174.71875c-9.386719-23.253907-7.894532-49.066407 3.839843-68.90625 30.507813-51.414063 35.414063-122.882813 10.453125-149.976563-2.773437-2.984375-6.828125-4.050781-10.878906-2.984375-3.839844 1.066407-6.828125 4.480469-7.46875 8.320313-5.332031 30.503906-24.957031 77.226562-34.34375 94.292968-1.707031-1.492187-3.628906-3.414062-5.121094-5.121093-15.359375-15.144531-36.265625-36.265625-57.8125-33.707031-20.054687 2.132812-26.242187 23.039062-31.148437 39.894531-3.199219 10.453125-7.039063 23.464843-12.160157 24.320312-8.53125 1.492188-24.960937-10.667969-38.1875-20.265625-16.210937-11.523437-31.359374-22.613281-45.4375-22.613281-5.761718 0-10.453124 4.476563-10.6679682 10.238281-1.0664058 28.375 29.0117182 82.988282 86.1875002 107.519532 21.121094 8.960937 36.480468 24.320312 43.734375 43.519531l8.957031 23.679687c19.414062 51.628906 45.867188 122.242188 69.121094 169.175782 9.171875 18.558593 27.734375 29.867187 47.785156 29.867187 2.773438 0 5.546875-.214844 8.320312-.640625 16-2.5625 29.867188-11.949219 37.972657-26.027344 8.109375-14.082031 9.386719-30.933594 3.628906-45.867187zm0 0" fill="#795548"/><path d="m93.039062 192.226562c-16 0-33.066406-12.371093-49.703124-24.320312-3.84375-2.773438-7.683594-5.546875-11.308594-8.105469-1.921875-1.28125-3.414063-3.199219-4.054688-5.332031-4.480468-13.226562-6.613281-25.175781-6.613281-37.121094 0-64.640625 52.695313-117.332031 117.335937-117.332031 48.640626 0 92.796876 30.929687 109.652344 76.796875.851563 2.132812.851563 4.695312.214844 6.828125-.214844.851563-26.027344 83.414063-43.949219 86.828125-7.890625 1.703125-13.4375-3.839844-24.53125-14.933594-9.816406-10.027344-28.589843-29.015625-40.320312-27.519531-5.761719.636719-9.601563 13.4375-13.015625 24.746094-4.90625 16.851562-10.664063 36.050781-29.011719 39.253906-1.492187.210937-3.199219.210937-4.695313.210937zm-46.078124-48c2.988281 2.132813 5.972656 4.265626 8.960937 6.402344 13.226563 9.597656 29.867187 21.542969 38.398437 20.265625 5.121094-.855469 8.960938-13.867187 12.160157-24.109375 4.90625-17.066406 11.09375-37.972656 31.148437-40.105468 21.546875-2.558594 42.453125 18.5625 57.8125 33.707031 1.492188 1.707031 3.414063 3.628906 5.121094 5.121093 6.398438-11.734374 17.917969-37.761718 26.664062-64.640624-14.933593-35.839844-49.917968-59.519532-88.53125-59.519532-52.90625 0-96 43.09375-96 96 0 8.53125 1.492188 17.492188 4.265626 26.878906zm0 0"/><path d="m431.601562 398.308594c-1.066406 0-2.132812-.214844-3.199218-.429688-.855469-.210937-83.203125-26.023437-86.828125-43.730468-1.492188-7.894532 3.839843-13.441407 14.933593-24.535157 10.027344-10.238281 28.800782-29.011719 27.734376-40.53125-.640626-5.761719-13.441407-9.601562-24.75-13.015625-16.851563-5.121094-36.050782-10.667968-39.25-29.011718-2.773438-17.28125 10.664062-36.054688 23.890624-54.402344 2.773438-3.839844 5.546876-7.679688 8.109376-11.519532 1.277343-1.917968 3.199218-3.414062 5.332031-4.050781 13.011719-4.269531 25.171875-6.402343 37.121093-6.402343 64.640626 0 117.332032 52.695312 117.332032 117.335937 0 48.636719-30.933594 92.796875-76.800782 109.652344-1.066406.425781-2.347656.640625-3.625.640625zm-65.066406-48.429688c11.730469 6.402344 37.757813 17.921875 64.640625 26.667969 35.839844-14.933594 59.519531-49.917969 59.519531-88.53125 0-52.910156-43.09375-96-96-96-8.535156 0-17.496093 1.492187-26.882812 4.265625-2.132812 2.984375-4.265625 5.972656-6.398438 8.960938-9.601562 13.226562-21.546874 29.863281-20.265624 38.398437.851562 5.121094 13.867187 8.960937 24.105468 12.160156 16.851563 4.90625 37.761719 11.304688 39.894532 31.144531 2.34375 21.546876-18.5625 42.453126-33.707032 57.816407-1.492187 1.492187-3.199218 3.410156-4.90625 5.117187zm0 0"/><path d="m53.359375 458.679688c-9.171875 0-18.34375-2.347657-26.453125-7.039063-14.078125-8.105469-23.679688-21.972656-26.027344-37.972656-3.625-23.253907 8.109375-45.652344 29.226563-56.109375 35.628906-17.703125 84.695312-36.90625 118.402343-49.917969 2.558594-1.066406 5.546876-.855469 8.105469.214844 2.5625 1.066406 4.695313 3.410156 5.546875 5.972656 9.601563 25.597656 20.695313 54.613281 32.214844 83.199219 1.066406 2.558594 1.066406 5.546875-.214844 8.320312-1.066406 2.558594-3.199218 4.691406-5.972656 5.757813l-115.625 43.949219c-6.1875 2.34375-12.800781 3.625-19.203125 3.625zm92.589844-127.359376c-32.640625 12.585938-75.09375 29.652344-106.667969 45.226563-12.800781 6.1875-19.839844 19.839844-17.707031 33.707031 1.492187 9.601563 7.253906 17.917969 15.574219 22.828125 8.53125 4.90625 18.34375 5.546875 27.519531 2.132813l105.597656-40.320313c-8.316406-21.761719-16.636719-43.519531-24.316406-63.574219zm0 0"/><path d="m411.335938 418.574219c-30.296876 0-66.136719-9.175781-95.363282-26.453125-13.4375-7.894532-29.4375-11.09375-46.292968-9.175782-4.691407.429688-9.386719-2.34375-11.09375-6.824218l-33.277344-87.253906c-1.921875-5.121094.210937-10.667969 4.90625-13.226563 16-8.320313 28.371094-22.1875 35.839844-39.894531 24.53125-57.386719 78.71875-87.679688 107.519531-86.1875 5.972656 0 10.453125 4.695312 10.453125 10.457031 0 14.078125-11.09375 29.226563-22.613282 45.4375-9.601562 13.226563-21.546874 29.867187-20.265624 38.1875.851562 5.121094 13.867187 8.960937 24.105468 12.160156 16.851563 4.90625 37.761719 11.304688 39.894532 31.144531 2.34375 21.546876-18.5625 42.453126-33.707032 57.816407-1.707031 1.707031-3.414062 3.410156-5.121094 5.117187 17.066407 9.386719 63.785157 29.015625 94.082032 34.347656 4.050781.640626 7.25 3.628907 8.320312 7.46875 1.066406 3.839844 0 8.105469-2.988281 10.878907-11.519531 10.667969-31.359375 16-54.398437 16zm-132.269532-57.601563c17.28125 0 33.707032 4.269532 47.789063 12.800782 31.785156 18.773437 71.039062 25.8125 97.917969 22.828124-34.347657-10.882812-80.640626-29.441406-83.199219-42.453124-1.492188-7.894532 3.839843-13.441407 14.933593-24.535157 10.027344-10.238281 28.800782-29.011719 27.734376-40.53125-.640626-5.761719-13.441407-9.601562-24.75-13.015625-16.851563-5.121094-36.050782-10.667968-39.25-29.011718-2.773438-17.28125 10.664062-36.054688 23.890624-54.1875 4.480469-6.1875 9.386719-13.011719 13.015626-19.199219-22.402344 7.890625-54.613282 31.359375-71.253907 70.1875-8.105469 18.984375-20.90625 34.558593-37.332031 45.4375l27.304688 71.46875c1.066406.210937 2.132812.210937 3.199218.210937zm0 0"/><path d="m256.027344 512.015625c-20.054688 0-38.613282-11.308594-47.785156-29.867187-23.253907-46.933594-49.707032-117.546876-69.121094-169.175782l-8.960938-23.679687c-7.253906-18.984375-22.824218-34.347657-43.734375-43.519531-57.386719-24.53125-87.464843-79.144532-86.3984372-107.519532.2148442-5.761718 4.9062502-10.238281 10.6679682-10.238281 14.078126 0 29.226563 11.089844 45.4375 22.613281 13.226563 9.597656 29.867188 21.757813 38.1875 20.265625 5.121094-.855469 8.960938-13.867187 12.160157-24.109375 4.90625-17.066406 11.09375-37.972656 31.148437-40.105468 21.546875-2.558594 42.453125 18.5625 57.8125 33.707031 1.492188 1.707031 3.414063 3.628906 5.121094 5.121093 9.386719-17.066406 29.011719-63.789062 34.34375-94.082031.640625-4.050781 3.628906-7.253906 7.46875-8.320312 3.839844-1.066407 8.105469 0 10.878906 2.988281 24.960938 27.09375 20.054688 98.558594-10.453125 149.972656-11.734375 19.839844-13.011719 45.441406-3.839843 68.90625l66.773437 174.722656c5.972656 15.144532 4.691406 31.785157-3.414063 45.863282-8.105468 14.082031-21.972656 23.683594-37.972656 26.027344-2.773437.214843-5.546875.429687-8.320312.429687zm-231.464844-357.121094c8.105469 22.398438 31.570312 54.824219 70.183594 71.253907 26.453125 11.304687 46.082031 30.933593 55.253906 55.464843l8.960938 23.679688c19.199218 51.199219 45.652343 121.175781 68.265624 167.253906 6.1875 12.800781 19.839844 19.839844 33.707032 17.707031 9.601562-1.492187 17.921875-7.253906 22.828125-15.574218 4.90625-8.320313 5.546875-18.558594 2.132812-27.519532l-66.558593-174.507812c-11.734376-29.226563-9.816407-62.078125 5.332031-87.464844 18.773437-31.789062 25.8125-71.039062 22.824219-97.921875-10.878907 34.347656-29.4375 80.640625-42.453126 83.203125-7.890624 1.703125-13.4375-3.839844-24.53125-14.933594-10.242187-10.027344-29.015624-29.015625-40.746093-27.519531-5.761719.636719-9.601563 13.4375-13.015625 24.746094-4.90625 16.851562-10.664063 36.050781-29.011719 39.253906-17.28125 2.984375-36.054687-10.667969-54.1875-23.894531-5.972656-4.480469-13.011719-9.601563-18.984375-13.226563zm0 0"/></svg>