<svg xmlns="http://www.w3.org/2000/svg" version="1.1" xmlns:xlink="http://www.w3.org/1999/xlink" xmlns:svgjs="http://svgjs.com/svgjs" width="512" height="512" x="0" y="0" viewBox="0 0 512 512" style="enable-background:new 0 0 512 512" xml:space="preserve" class=""><g><path fill="#ffe04a" d="M512 256c0 59.04-19.99 113.41-53.56 156.71-11.14 14.37-40.921-10.679-54.821 1.02-7.31 6.15 2.191 50.1-5.789 55.419a254.599 254.599 0 0 1-56.04 28.11c-18.47 6.58-37.92-42.71-58.07-40.55-9.11.99-13.283 45.055-22.643 45.055-1.21 0-7.486 10.225-8.697 10.205-36.74-.5-71.6-8.75-103.04-23.19-13.739-22.161-10.769-40.629-26.739-53.299-7.91-6.27-39.948 6.073-48.061 1.089C28.48 390.28 0 326.46 0 256 0 114.62 114.62 0 256 0c96.81 0 181.07 53.74 224.57 133.01-15.353 35.53-27.24 52.35-22.05 77.68.99 4.82 50.1 3.3 50.81 8.21 1.76 12.11 2.67 24.5 2.67 37.1z" data-original="#ffe04a"></path><path fill="#770505" d="M197.53 381.749a234.304 234.304 0 0 1-115.14 0c-28.123-7.131-42.09-38.784-28.514-64.425l.424-.8c9.72-18.358 30.728-27.443 50.882-22.415a143.723 143.723 0 0 0 69.556 0c20.154-5.028 41.163 4.057 50.882 22.415l.424.8c13.576 25.641-.391 57.294-28.514 64.425z" data-original="#fe646f" class=""></path><path fill="#770505" d="M220.49 367.515c-5.74 6.723-13.554 11.855-22.958 14.234a234.387 234.387 0 0 1-115.143 0c-28.115-7.135-42.082-38.794-28.503-64.433.133-.267.279-.534.425-.801 6.637-12.523 18.517-20.725 31.792-23.08a44.008 44.008 0 0 0-5.448 8.021c-.133.267-.279.534-.425.801-13.579 25.64.388 57.298 28.516 64.421a234.216 234.216 0 0 0 111.744.837z" data-original="#fd4755" class=""></path><path fill="#770505" d="M379.052 311.559a234.308 234.308 0 0 1-110.392-32.726c-24.937-14.83-29.33-49.148-9.026-69.873l.634-.647c14.537-14.838 37.261-17.578 55.155-7.028a143.714 143.714 0 0 0 66.687 19.77c20.752.907 38.312 15.589 42.413 35.952l.179.888c5.727 28.442-16.66 54.82-45.65 53.664z" data-original="#fe646f" class=""></path><path fill="#770505" d="M405.111 304.438c-7.414 4.814-16.365 7.514-26.057 7.121a234.383 234.383 0 0 1-110.394-32.727c-24.928-14.832-29.32-49.154-9.014-69.877.204-.218.419-.433.635-.647 9.923-10.12 23.644-14.608 37.041-13.092a43.998 43.998 0 0 0-7.503 6.141c-.204.218-.419.432-.635.647-20.306 20.723-15.914 55.046 9.03 69.869a234.195 234.195 0 0 0 106.897 32.565z" data-original="#fd4755" class=""></path><path fill="#770505" d="M509.33 218.9a234.04 234.04 0 0 1-72.06 13.48c-29 .8-51.06-25.85-44.99-54.22.06-.3.13-.59.19-.89 4.35-20.31 22.09-34.77 42.85-35.43 15.5-.49 30.79-3.49 45.25-8.83a254.175 254.175 0 0 1 28.76 85.89z" data-original="#fe646f" class=""></path><path fill="#770505" d="M509.33 218.9a234.632 234.632 0 0 1-72.06 13.48c-28.99.79-51.06-25.86-44.98-54.23.05-.29.12-.59.19-.89 2.97-13.85 12.17-24.98 24.3-30.87-1.34 2.9-2.37 5.98-3.06 9.2-.05.3-.12.59-.19.89-6.08 28.37 15.99 55.02 44.99 54.21 16.32-.45 32.49-2.61 48.25-6.39.99 4.82 1.85 9.69 2.56 14.6z" data-original="#fd4755" class=""></path><path fill="#770505" d="M16.275 226.11a234.304 234.304 0 0 1 0-115.14C23.406 82.847 55.059 68.88 80.7 82.456l.8.424c18.358 9.72 27.443 30.728 22.415 50.882a143.723 143.723 0 0 0 0 69.556c5.028 20.154-4.057 41.163-22.415 50.882l-.8.424c-25.641 13.577-57.294-.39-64.425-28.514z" data-original="#fe646f" class=""></path><path fill="#770505" d="M75.475 256.98c-24.55 9.29-52.55-4.63-59.2-30.87a234.233 234.233 0 0 1 0-115.14c6.65-26.25 34.65-40.16 59.2-30.87-13.11 4.91-23.87 15.88-27.67 30.87a234.47 234.47 0 0 0 0 115.14c3.8 14.99 14.56 25.95 27.67 30.87z" data-original="#fd4755" class=""></path><path fill="#770505" d="M160.88 159.451a234.304 234.304 0 0 1-62.142-96.932c-9.175-27.524 9.935-56.366 38.848-58.775l.902-.075c20.7-1.725 39.687 11.057 46.331 30.738a143.705 143.705 0 0 0 37.54 58.556c15.111 14.253 18.8 36.842 8.592 54.933l-.445.789c-14.259 25.268-48.445 30.593-69.626 10.766z" data-original="#fe646f" class=""></path><path fill="#770505" d="M227.378 153.488c-15.654 21.071-46.738 24.464-66.499 5.962a234.235 234.235 0 0 1-62.141-96.931c-8.569-25.688 7.496-52.51 33.177-57.938-8.387 11.209-11.525 26.251-6.634 40.922a234.47 234.47 0 0 0 62.141 96.931c11.291 10.569 26.264 13.988 39.956 11.054z" data-original="#fd4755" class=""></path><path fill="#770505" d="M294.667 129.434a234.312 234.312 0 0 1 42.535-106.996c17.016-23.5 51.59-24.785 70.402-2.697l.587.689c13.469 15.814 14.15 38.692 2.032 55.563a143.715 143.715 0 0 0-25.696 64.636c-2.773 20.586-18.976 36.752-39.626 39.003l-.9.098c-28.842 3.145-53.097-21.528-49.334-50.296z" data-original="#fe646f" class=""></path><path fill="#770505" d="M338.275 179.99c-26.245-.436-47.122-23.715-43.608-50.556a234.24 234.24 0 0 1 42.535-106.995C353.079.503 384.237-2.08 403.618 15.623c-13.996-.281-28.048 5.938-37.117 18.464a234.473 234.473 0 0 0-42.535 106.995c-2.006 15.333 3.944 29.493 14.309 38.908z" data-original="#fd4755" class=""></path><path fill="#770505" d="M246.182 460.81a234.318 234.318 0 0 0 60.129-98.193c8.605-27.708-11.095-56.149-40.052-57.961l-.904-.057c-20.732-1.298-39.45 11.874-45.687 31.688a143.702 143.702 0 0 1-36.324 59.318c-14.813 14.562-18.036 37.222-7.457 55.098l.461.779c14.778 24.969 49.066 29.588 69.834 9.328z" data-original="#fe646f" class=""></path><path fill="#770505" d="M205.713 472.534c-11.764-2.466-22.598-9.628-29.359-21.05-.157-.26-.306-.516-.463-.776-10.582-17.877-7.353-40.537 7.451-55.099a143.626 143.626 0 0 0 36.326-59.322c6.242-19.806 24.957-32.981 45.69-31.683.303.022.598.038.907.051 13.233.833 24.537 7.228 32.081 16.585a44.092 44.092 0 0 0-6.411-.866c-.309-.013-.612-.035-.907-.051-20.734-1.299-39.457 11.872-45.69 31.683a143.618 143.618 0 0 1-36.326 59.322c-14.812 14.557-18.032 37.222-7.451 55.099.149.255.306.516.463.776a44.78 44.78 0 0 0 3.689 5.331z" data-original="#fd4755" class=""></path><path fill="#770505" d="M458.44 412.71a257.37 257.37 0 0 1-60.61 56.44c-11.69-5-21.06-14.91-25.26-27.67a143.676 143.676 0 0 0-37.05-58.86c-14.99-14.38-18.49-37-8.14-55.01.15-.26.31-.52.46-.78 14.46-25.15 48.69-30.19 69.71-10.19a234.4 234.4 0 0 1 60.89 96.07z" data-original="#fe646f" class=""></path><path fill="#770505" d="M420.77 451.93c-7.31 6.15-14.96 11.9-22.94 17.22-11.69-5-21.06-14.92-25.25-27.67a143.594 143.594 0 0 0-37.06-58.86c-14.98-14.38-18.49-37-8.13-55.01.15-.26.3-.52.45-.79 6.61-11.49 17.36-18.78 29.09-21.4a44.218 44.218 0 0 0-3.62 5.37c-.15.27-.3.53-.45.79-10.36 18-6.86 40.63 8.13 55a143.563 143.563 0 0 1 37.06 58.87c3.88 11.81 12.21 21.19 22.72 26.48z" data-original="#fd4755" class=""></path><path fill="#770505" d="M187.199 276.524a234.31 234.31 0 0 0 74.602-87.704c12.79-26.042-2.272-57.189-30.599-63.462l-.884-.196c-20.281-4.491-40.813 5.625-50.041 24.235a143.713 143.713 0 0 1-45.067 52.982c-16.889 12.094-23.58 33.982-15.894 53.28l.335.841c10.734 26.955 43.894 36.825 67.548 20.024z" data-original="#fe646f" class=""></path><path fill="#770505" d="M145.403 281.843c-11.24-4.257-20.836-13.01-25.747-25.34-.115-.282-.222-.557-.337-.838-7.687-19.299-.991-41.186 15.889-53.282a143.615 143.615 0 0 0 45.069-52.985c9.232-18.601 29.761-28.721 50.043-24.229.296.068.585.13.888.191 12.944 2.871 23.123 10.938 29.128 21.35a44.134 44.134 0 0 0-6.2-1.848c-.303-.061-.599-.129-.888-.191-20.283-4.492-40.819 5.622-50.044 24.229a143.624 143.624 0 0 1-45.069 52.985c-16.887 12.089-23.576 33.983-15.889 53.282.107.275.222.557.337.838a44.779 44.779 0 0 0 2.82 5.838z" data-original="#fd4755" class=""></path><path fill="#770505" d="M154.74 478.44c-1.72 3.5-3.52 6.94-5.4 10.34-28.03-12.85-53.33-30.63-74.8-52.21 9.75-17.04 29.35-26.07 48.72-21.78.29.06.59.13.88.19 28.33 6.27 43.39 37.42 30.6 63.46z" data-original="#fe646f" class=""></path><path fill="#770505" d="M153.28 436.33c-1.99-.75-4.06-1.37-6.2-1.85-.31-.06-.6-.12-.89-.19-19.61-4.34-39.46 4.98-49.1 22.42a256.443 256.443 0 0 1-22.55-20.14c9.75-17.03 29.35-26.07 48.72-21.78.3.07.59.13.89.19 12.94 2.87 23.12 10.94 29.13 21.35z" data-original="#fd4755" class=""></path><path fill="#770505" d="M345.07 445.68c-4.21 16.9-5.31 34.38-3.28 51.58C314.97 506.81 286.09 512 256 512c-1.21 0-2.41-.01-3.62-.03a234.504 234.504 0 0 1 5.05-89.08c7.13-28.12 38.79-42.09 64.43-28.51.26.14.53.28.8.42 18.36 9.72 27.44 30.73 22.41 50.88z" data-original="#fe646f" class=""></path><path fill="#770505" d="M316.63 392.02c-13.11 4.91-23.87 15.88-27.67 30.87a234.28 234.28 0 0 0-5.24 87.62c-9.11.99-18.36 1.49-27.72 1.49-1.21 0-2.41-.01-3.62-.03a234.102 234.102 0 0 1 5.05-89.08c6.65-26.25 34.65-40.16 59.2-30.87z" data-original="#fd4755" class=""></path><g fill="#faf7f7"><path d="M385.673 255.138c-26.67 0-57.304-14.784-58.675-15.452-4.964-2.421-7.025-8.408-4.604-13.372 2.422-4.963 8.405-7.025 13.371-4.604.561.271 31.278 14.996 53.414 13.3a9.999 9.999 0 0 1 10.737 9.205c.423 5.506-3.698 10.313-9.204 10.737a66.534 66.534 0 0 1-5.039.186zM227.378 399.25a9.966 9.966 0 0 1-7.071-2.929c-3.905-3.905-3.905-10.237 0-14.142 8.486-8.485 13.902-26.234 15.272-32.356 1.207-5.39 6.557-8.782 11.943-7.574 5.39 1.207 8.78 6.554 7.574 11.943-.635 2.833-6.603 28.085-20.647 42.13a9.975 9.975 0 0 1-7.071 2.928zM377.131 408.615a9.998 9.998 0 0 1-8.939-5.504l-16.133-32.033c-2.483-4.933-.499-10.945 4.434-13.429 4.931-2.483 10.945-.5 13.43 4.433l16.133 32.033c2.483 4.933.499 10.945-4.434 13.429a9.955 9.955 0 0 1-4.491 1.071zM82.351 181.516a10.004 10.004 0 0 1-9.293-6.302c-9.662-24.256-.658-54.234-.27-55.499a10 10 0 0 1 19.125 5.851c-.074.244-7.307 24.596-.275 42.247 2.044 5.131-.459 10.947-5.59 12.991a9.979 9.979 0 0 1-3.697.712zM148.552 241.112a9.977 9.977 0 0 1-7.54-3.427c-3.63-4.162-3.199-10.479.963-14.109l21.556-18.802c4.16-3.629 10.479-3.2 14.109.963 3.63 4.162 3.199 10.479-.963 14.109l-21.556 18.802a9.959 9.959 0 0 1-6.569 2.464zM366.544 91.982a9.947 9.947 0 0 1-4.86-1.269c-4.813-2.689-6.548-8.757-3.87-13.577 1.431-2.577 14.553-25.292 34.231-29.44 5.409-1.141 10.709 2.32 11.848 7.723 1.139 5.404-2.318 10.708-7.723 11.848-9.144 1.927-18.373 15.13-20.885 19.603a10.017 10.017 0 0 1-8.741 5.112z" fill="#faf7f7" data-original="#faf7f7" class=""></path></g></g></svg>