<svg id="Layer_1" enable-background="new 0 0 512 512" height="512" viewBox="0 0 512 512" width="512" xmlns="http://www.w3.org/2000/svg"><g><g><g fill="#d1e7f8"><path d="m124.7197 443.6113c0 14.0166 11.4038 25.4199 25.4204 25.4199h211.7197c14.0166 0 25.4204-11.4033 25.4204-25.4199v-242.9228h-262.5605z"/><path d="m361.8599 16.0107h-211.7198c-14.0166 0-25.4204 11.3906-25.4204 25.3926v143.2852h262.5605v-143.2852c.0001-14.0019-11.4037-25.3926-25.4203-25.3926z"/></g></g><path d="m361.8599.0107h-211.7198c-22.8394 0-41.4204 18.5684-41.4204 41.3926v402.208c0 18.771 12.5558 34.656 29.707 39.7227v12.123c0 9.1162 7.4165 16.5322 16.5322 16.5322h37.8706c9.1162 0 16.5327-7.416 16.5327-16.5322v-10.4258h93.2754v10.4258c0 9.1162 7.4165 16.5322 16.5322 16.5322h37.8711c9.1157 0 16.5322-7.416 16.5322-16.5322v-12.123c17.1514-5.0667 29.707-20.9517 29.707-39.7227v-402.208c.0002-22.8242-18.5809-41.3926-41.4202-41.3926zm-211.7198 16h211.7197c14.0166 0 25.4204 11.3906 25.4204 25.3926v143.2852h-262.5605v-143.2852c0-14.0019 11.4038-25.3926 25.4204-25.3926zm43.2222 479.4463c0 .2881-.2441.5322-.5327.5322h-37.8706c-.2734 0-.5322-.2588-.5322-.5322v-10.4258h38.9355zm163.6787.5323h-37.8711c-.2886 0-.5322-.2441-.5322-.5322v-10.4258h38.9355v10.4258c0 .2734-.2587.5322-.5322.5322zm4.8189-26.958h-211.7198c-14.0166 0-25.4204-11.4033-25.4204-25.4199v-242.9229h262.5605v242.9229c.0001 14.0165-11.4037 25.4199-25.4203 25.4199zm-206.334-314.4346h16.2993c6.4277 0 11.6567-5.2412 11.6567-11.6846v-85.1533c0-6.4434-5.229-11.6846-11.6567-11.6846h-16.2993c-6.4277 0-11.6567 5.2412-11.6567 11.6846v85.1533c-.0001 6.4434 5.2289 11.6846 11.6567 11.6846zm4.3432-92.5225h7.6128v76.5225h-7.6128zm11.9561 168.6768h-16.2993c-6.4277 0-11.6567 5.2422-11.6567 11.6855v109.0488c0 6.4434 5.229 11.6846 11.6567 11.6846h16.2993c6.4277 0 11.6567-5.2412 11.6567-11.6846v-109.0488c0-6.4433-5.229-11.6855-11.6567-11.6855zm-4.3433 116.4189h-7.6128v-100.4189h7.6128z"/><g><g fill="#4f6d8f"><path d="m159.869 62.074h7.613v76.523h-7.613z"/><path d="m159.869 246.751h7.613v100.419h-7.613z"/></g></g><g><g fill="#4f6d8f"><path d="m154.4268 495.457c0 .2734.2588.5322.5322.5322h37.8706c.2886 0 .5327-.2441.5327-.5322v-10.4258h-38.9355z"/><path d="m318.6377 485.0313v10.4258c0 .2881.2437.5322.5322.5322h37.8711c.2734 0 .5322-.2588.5322-.5322v-10.4258z"/></g></g></g></svg>