<svg xmlns="http://www.w3.org/2000/svg" version="1.1" xmlns:xlink="http://www.w3.org/1999/xlink" xmlns:svgjs="http://svgjs.com/svgjs" width="512" height="512" x="0" y="0" viewBox="0 0 512 512" style="enable-background:new 0 0 512 512" xml:space="preserve" class=""><g><linearGradient id="a" x1="26.062" x2="285.074" y1="140.206" y2="280.504" gradientUnits="userSpaceOnUse"><stop stop-opacity="1" stop-color="#ffc538" offset="0"></stop><stop stop-opacity="1" stop-color="#ffffff" offset="0.6602316602316602"></stop></linearGradient><path fill="url(#a)" d="m425.612 231.747.013-.001L281.62 81.807c-13.609-14.17-36.523-13.332-49.061 1.795L79.771 267.995c-30.443 40.707-21.417 86.426 29.813 116.003 70.07 40.455 192.464 35.382 273.374-11.332 70.552-40.733 86.246-99.672 42.654-140.919z" data-original="url(#a)" class=""></path><path fill="#ffb02d" d="M232.608 365.302a4.171 4.171 0 1 1-8.342 0 4.171 4.171 0 0 1 8.342 0zM386.26 260.38a4.17 4.17 0 1 1-8.342 0 4.17 4.17 0 0 1 8.342 0z" data-original="#ffb02d" class=""></path><circle cx="291.654" cy="282.33" r="4.171" fill="#ffb02d" data-original="#ffb02d" class=""></circle><path fill="#ffb02d" d="M188.488 299.012a4.171 4.171 0 1 1-8.342 0 4.171 4.171 0 0 1 8.342 0zM135.149 356.961a4.171 4.171 0 1 1-8.342 0 4.171 4.171 0 0 1 8.342 0zM349.603 192.773a4.171 4.171 0 1 1-8.342 0 4.171 4.171 0 0 1 8.342 0zM268.607 163.14a4.171 4.171 0 1 1-8.342 0 4.171 4.171 0 0 1 8.342 0zM245.998 227.894c0 2.303-1.867 4.17-4.171 4.17a4.17 4.17 0 1 1 0-8.341 4.17 4.17 0 0 1 4.171 4.171zM184.318 184.432a4.17 4.17 0 1 1-8.34 0 4.17 4.17 0 0 1 8.34 0zM94.761 294.842a4.171 4.171 0 1 1-8.342 0 4.171 4.171 0 0 1 8.342 0zM155.344 245.673a4.171 4.171 0 1 1-8.342 0 4.171 4.171 0 0 1 8.342 0zM245.998 109.363c0 2.303-1.867 4.17-4.171 4.17a4.17 4.17 0 1 1 0-8.341 4.17 4.17 0 0 1 4.171 4.171zM353.773 342.035a4.171 4.171 0 1 1-8.342 0 4.171 4.171 0 0 1 8.342 0z" data-original="#ffb02d" class=""></path><g fill="#f7e041"><path d="M236.768 432.921c-3.226 1.863-3.577 4.681-.783 6.294s7.675 1.411 10.901-.452c3.227-1.863 3.577-4.681.783-6.294s-7.674-1.41-10.901.452zM120.942 195.027c-2.523 1.457-2.797 3.661-.612 4.923s6.002 1.103 8.526-.354c2.523-1.457 2.797-3.661.612-4.923-2.186-1.262-6.003-1.103-8.526.354zM468.337 262.266c-2.523 1.457-2.797 3.661-.612 4.922 2.185 1.262 6.003 1.103 8.526-.353 2.523-1.457 2.797-3.661.612-4.922-2.186-1.262-6.003-1.104-8.526.353zM387.888 171.144c-1.777 1.026-1.97 2.577-.431 3.466 1.539.888 4.226.777 6.003-.249 1.776-1.026 1.969-2.577.431-3.466-1.539-.888-4.227-.777-6.003.249zM51.412 367.188c-2.523 1.457-2.798 3.661-.612 4.923 2.185 1.262 6.003 1.103 8.526-.353 2.523-1.457 2.797-3.661.612-4.922-2.186-1.263-6.003-1.105-8.526.352zM204.72 429.096c-2.523 1.457-2.798 3.661-.612 4.922 2.185 1.262 6.003 1.104 8.526-.353s2.798-3.661.612-4.922c-2.186-1.262-6.003-1.104-8.526.353zM90.804 211.645c-2.523 1.457-2.797 3.661-.612 4.922 2.186 1.262 6.003 1.104 8.526-.353s2.797-3.661.612-4.923c-2.185-1.261-6.002-1.103-8.526.354zM18.803 288.387c-2.523 1.457-2.798 3.661-.612 4.922 2.185 1.262 6.003 1.104 8.526-.353s2.798-3.661.612-4.922c-2.186-1.262-6.003-1.104-8.526.353zM411.92 185.682c-3.227 1.863-3.577 4.681-.783 6.294s7.675 1.411 10.901-.452 3.577-4.681.783-6.294-7.675-1.411-10.901.452zM467.234 215.471c-3.227 1.863-3.577 4.681-.783 6.294s7.675 1.411 10.901-.452 3.577-4.681.783-6.294c-2.793-1.613-7.674-1.411-10.901.452zM44.265 266.091c-3.227 1.863-3.577 4.681-.783 6.294s7.675 1.411 10.901-.452 3.577-4.681.783-6.294-7.675-1.41-10.901.452zM3.93 348.489c-4.751 2.743-5.267 6.892-1.153 9.267s11.301 2.078 16.052-.665 5.267-6.892 1.152-9.268c-4.113-2.375-11.3-2.077-16.051.666zM493.171 298.882c-4.751 2.743-5.267 6.892-1.152 9.268 4.114 2.375 11.301 2.078 16.052-.665s5.267-6.892 1.152-9.268-11.302-2.078-16.052.665zM68.64 417.543c-3.227 1.863-3.577 4.681-.783 6.294s7.675 1.411 10.901-.452 3.577-4.681.783-6.294-7.674-1.411-10.901.452z" fill="#f7e041" data-original="#f7e041" class=""></path></g></g></svg>