<svg id="Filled_Expand" height="512" viewBox="0 0 64 64" width="512" xmlns="http://www.w3.org/2000/svg" data-name="Filled Expand"><path d="m44.61 29.3257-3.9352-.7157 4.3574-23.9679a2 2 0 0 1 1.9678-1.6421h8v4h-6.3311z" fill="#bae650"/><path d="m42.6426 28.9678 1.9678.3579 4.0585-22.3257h6.3311v-2h-7.1659a1 1 0 0 0 -.9839.8211z" fill="#a0d12d"/><path d="m58.0845 25a20.4047 20.4047 0 0 1 2.9155 10.4054c0 14.628-11.6406 24.5946-26 24.5946s-26-9.9666-26-24.5946a20.4047 20.4047 0 0 1 2.9155-10.4054z" fill="#9d6945"/><path d="m58.0845 25h-7a20.405 20.405 0 0 1 2.9155 10.4054c0 13.4181-9.7969 22.9076-22.5 24.3867a30.249 30.249 0 0 0 3.5.2079c14.3594 0 26-9.9666 26-24.5946a20.405 20.405 0 0 0 -2.9155-10.4054z" fill="#875a3f"/><path d="m56 25h-42l.6784-3.3922a2 2 0 0 1 1.9616-1.6078h36.72a2 2 0 0 1 1.9612 1.6078z" fill="#e9fcff"/><path d="m14.4 23-.4 2h42l-.4-2z" fill="#d2f3fd"/><ellipse cx="14" cy="14.433" fill="#f06dd2" rx="3.75" ry="6.017"/><path d="m10.25 14.4325a6.6717 6.6717 0 0 0 2.573 5.2512l1.5975.519a6.8131 6.8131 0 0 0 2.31-2.231 10.6583 10.6583 0 0 0 -6.2256-5.35 6.653 6.653 0 0 0 -.2549 1.8108z" fill="#dd55c0"/><ellipse cx="8.642" cy="18.325" fill="#f06dd2" rx="3.75" ry="6.017" transform="matrix(.309 -.951 .951 .309 -11.457 20.882)"/><path d="m7.4834 21.8916a6.6718 6.6718 0 0 0 5.7892-.8244l.9874-1.3589a6.8139 6.8139 0 0 0 -1.4081-2.8862 10.658 10.658 0 0 0 -7.0119 4.2679 6.6563 6.6563 0 0 0 1.6434.8016z" fill="#dd55c0"/><ellipse cx="10.689" cy="24.624" fill="#f06dd2" rx="6.017" ry="3.75" transform="matrix(.588 -.809 .809 .588 -15.515 18.798)"/><path d="m13.7224 26.8278a6.6716 6.6716 0 0 0 1.005-5.7606l-.9874-1.3589a6.8132 6.8132 0 0 0 -3.18.4472 10.6581 10.6581 0 0 0 1.8921 7.9874 6.6552 6.6552 0 0 0 1.2703-1.3151z" fill="#dd55c0"/><ellipse cx="17.311" cy="24.624" fill="#f06dd2" rx="3.75" ry="6.017" transform="matrix(.809 -.588 .588 .809 -11.167 14.878)"/><path d="m20.345 22.42a6.6714 6.6714 0 0 0 -5.1681-2.7359l-1.5975.519a6.8144 6.8144 0 0 0 -.5573 3.1627 10.6585 10.6585 0 0 0 8.1811.6687 6.6553 6.6553 0 0 0 -.8582-1.6145z" fill="#dd55c0"/><ellipse cx="19.358" cy="18.325" fill="#f06dd2" rx="6.017" ry="3.75" transform="matrix(.951 -.309 .309 .951 -4.715 6.879)"/><path d="m18.199 14.7589a6.6716 6.6716 0 0 0 -4.199 4.0697v1.68a6.8148 6.8148 0 0 0 2.8356 1.5073 10.6581 10.6581 0 0 0 3.1644-7.5742 6.6518 6.6518 0 0 0 -1.801.3172z" fill="#dd55c0"/><path d="m14 20.45a6.7026 6.7026 0 0 0 0-12.0347" fill="#f06dd2"/><path d="m14 14.5566v5.5095l.4207.1367a6.8158 6.8158 0 0 0 2.31-2.2311 10.7764 10.7764 0 0 0 -2.7307-3.4151z" fill="#dd55c0"/><circle cx="14" cy="20.066" fill="#fff5aa" r="3"/><path d="m42.24 20h4.066l.363-2h-4.065z" fill="#a0d12d"/><path d="m53.4683 30.0137a1.0005 1.0005 0 0 0 -.82 1.1523 25.5533 25.5533 0 0 1 .3517 4.2393 1 1 0 0 0 2 0 27.6386 27.6386 0 0 0 -.3794-4.5713 1.004 1.004 0 0 0 -1.1523-.8203z"/><path d="m16.1636 38.9976a1 1 0 0 0 .9267-1.0684c-.06-.8452-.09-1.6943-.09-2.5239q0-.69.0352-1.3535a1 1 0 0 0 -1.9971-.1036q-.0373.7142-.0381 1.4571c0 .8764.0322 1.7729.0952 2.6655a1 1 0 0 0 .9963.9292c.0239 0 .0482-.001.0718-.0024z"/><path d="m18.0283 43.6641a1 1 0 1 0 -1.9345.5088 27.7511 27.7511 0 0 0 2.4877 6.3085 1 1 0 1 0 1.753-.9628 25.7535 25.7535 0 0 1 -2.3062-5.8545z"/><path d="m53.1934 42.9517a1 1 0 0 0 -1.2217.7129 24.6188 24.6188 0 0 1 -3.4863 7.767 1 1 0 1 0 1.6455 1.1363 26.6186 26.6186 0 0 0 3.7753-8.3946 1 1 0 0 0 -.7128-1.2216z"/><path d="m27.645 51.6289a1 1 0 1 0 -1.8574.7422 23.283 23.283 0 0 0 1.5181 3.1352 1 1 0 1 0 1.7243-1.0126 21.24 21.24 0 0 1 -1.385-2.8648z"/><path d="m24.0122 37.001a.9994.9994 0 0 0 -.9575 1.0405 55.3873 55.3873 0 0 0 .5708 6.0278 1 1 0 1 0 1.9775-.3017 53.342 53.342 0 0 1 -.55-5.8091.9931.9931 0 0 0 -1.0408-.9575z"/><path d="m45.9878 37.001a.9954.9954 0 0 0 -1.0405.9575 53.6073 53.6073 0 0 1 -.55 5.81 1 1 0 0 0 1.9775.3007 55.4964 55.4964 0 0 0 .5708-6.0278.9994.9994 0 0 0 -.9578-1.0404z"/><path d="m31.168 42.92a1 1 0 0 0 -.9434 1.0537c.17 3.0586.43 5.8076.7734 8.17a1.0006 1.0006 0 0 0 .9883.856 1.0412 1.0412 0 0 0 .1455-.01 1 1 0 0 0 .8457-1.1337c-.3354-2.3042-.5893-4.9932-.7558-7.9927a1.0052 1.0052 0 0 0 -1.0537-.9433z"/><path d="m38.8872 30.0005a1 1 0 0 0 -.9639 1.0351c.0508 1.4288.0767 2.899.0767 4.37q0 1.3169-.02 2.58a1 1 0 0 0 .9853 1.0144h.0157a1 1 0 0 0 .9995-.9849q.0191-1.278.02-2.61c0-1.4942-.0264-2.9883-.0776-4.4409a.988.988 0 0 0 -1.0357-.9637z"/><path d="m31.019 39h.0157a1 1 0 0 0 .9848-1.0151q-.0195-1.2642-.0195-2.5796a1 1 0 0 0 -2 0q0 1.3316.02 2.61a1 1 0 0 0 .999.9847z"/><path d="m38.1562 51.01a1.0011 1.0011 0 0 0 -1.1337.8457c-.2173 1.4956-.4659 2.8081-.7393 3.9013a1 1 0 0 0 1.94.4854c.29-1.1587.5513-2.5376.7784-4.0987a1.0005 1.0005 0 0 0 -.8454-1.1337z"/><path d="m58.9487 24.4966a1 1 0 0 0 -.8642-.4966h-1.2645l-.5178-2.5879a3.007 3.007 0 0 0 -2.9422-2.4121h-5.8562l2-11h5.4962a1 1 0 0 0 1-1v-4a1 1 0 0 0 -1-1h-8a2.9986 2.9986 0 0 0 -2.9517 2.4634l-2.6427 14.5366h-16.1117a7.8571 7.8571 0 0 0 .7754-2.3853 1 1 0 0 0 -.2763-.85 7.6933 7.6933 0 0 0 -7.1008-2.1564 7.6972 7.6972 0 0 0 -4.2449-6.0873 1.0014 1.0014 0 0 0 -.8946 0 7.6969 7.6969 0 0 0 -4.2449 6.0868 7.6974 7.6974 0 0 0 -7.1008 2.1564 1 1 0 0 0 -.2763.85 7.6973 7.6973 0 0 0 4.4771 5.918 7.7 7.7 0 0 0 -.1436 7.42.9985.9985 0 0 0 .7236.5254 7.97 7.97 0 0 0 1.3071.1084c.0969 0 .1918-.0133.2882-.0168a20.5355 20.5355 0 0 0 -.5831 4.8361c0 14.5913 11.6074 25.5947 27 25.5947s27-11.0034 27-25.5947a21.4761 21.4761 0 0 0 -3.0513-10.9087zm-12.9326-19.6758a1 1 0 0 1 .9839-.8208h7v2h-5.3311a1 1 0 0 0 -.9838.8213l-2.214 12.1787h-2.0327zm7.3439 16.1792a1.0023 1.0023 0 0 1 .98.8042l.44 2.1958h-32.5377a7.64 7.64 0 0 0 -.65-1.4672 7.6294 7.6294 0 0 0 2.2421-1.5328zm-34.7157-5.3247a5.6886 5.6886 0 0 1 5.35 1.1435 5.6984 5.6984 0 0 1 -3.7868 4.1212 5.53 5.53 0 0 1 -2.3778.2166 3.7568 3.7568 0 0 0 -.2161-2.7783 7.6087 7.6087 0 0 0 1.0307-2.703zm-.1458 7.5371a7.4939 7.4939 0 0 0 1.112-.0875 5.6939 5.6939 0 0 1 .5663 5.4425 5.6945 5.6945 0 0 1 -5.09-2.3272 5.549 5.549 0 0 1 -.9414-2.1889 3.9725 3.9725 0 0 0 2.5795-1.0737 7.673 7.673 0 0 0 1.7736.2348zm-4.4985-1.1465a2 2 0 1 1 2-2 2.002 2.002 0 0 1 -2 2zm0-12.5083a5.6961 5.6961 0 0 1 2.75 4.875 5.5531 5.5531 0 0 1 -.5206 2.3144 3.9768 3.9768 0 0 0 -2.2294-.6811 3.9338 3.9338 0 0 0 -.4821.0488 7.61 7.61 0 0 0 -2.2588-1.8227 5.6924 5.6924 0 0 1 2.7409-4.7344zm-9.9941 7.2612a5.6932 5.6932 0 0 1 5.4858-1.1088 5.5478 5.5478 0 0 1 2.0533 1.2216 3.9863 3.9863 0 0 0 -1.4686 2.3784 7.6121 7.6121 0 0 0 -2.4147 1.5781 5.695 5.695 0 0 1 -3.6558-4.0693zm3.8173 11.7486a5.6972 5.6972 0 0 1 .6407-5.56 5.551 5.551 0 0 1 1.7928-1.5729 3.995 3.995 0 0 0 1.8109 2.1118 7.6086 7.6086 0 0 0 .7558 2.8026 5.6992 5.6992 0 0 1 -5.0002 2.2185zm27.1768 30.4326c-14.2524 0-25-10.1436-25-23.5947a18.3546 18.3546 0 0 1 .7692-5.2317 7.6382 7.6382 0 0 0 3.2308-2.1107 7.6719 7.6719 0 0 0 5.7047 2.5235 7.9718 7.9718 0 0 0 1.3076-.1084 1 1 0 0 0 .7236-.5254 7.7933 7.7933 0 0 0 .8697-3.9526h7.7659c-.13 1.6234-.2339 3.2812-.2939 4.9648a1 1 0 0 0 .9639 1.0352h.0361a1 1 0 0 0 .9991-.9648c.06-1.7084.1663-3.3912.3-5.0352h25.1253a19.0809 19.0809 0 0 1 2.498 9.4053c0 13.4511-10.7476 23.5947-25 23.5947z"/></svg>