<svg id="Capa_1" enable-background="new 0 0 512 512" height="512" viewBox="0 0 512 512" width="512" xmlns="http://www.w3.org/2000/svg" xmlns:xlink="http://www.w3.org/1999/xlink"><radialGradient id="SVGID_1_" cx="431.147" cy="2376.577" gradientTransform="matrix(.931 0 0 .114 -148.108 196.566)" gradientUnits="userSpaceOnUse" r="211.86"><stop offset="0" stop-color="#ffa8b1"/><stop offset=".2028" stop-color="#ffbcc3"/><stop offset=".4674" stop-color="#ffd2d6"/><stop offset=".888" stop-color="#fff"/></radialGradient><linearGradient id="lg1"><stop offset="0" stop-color="#ff8b99"/><stop offset=".4303" stop-color="#ff7383"/><stop offset="1" stop-color="#ff3650"/></linearGradient><radialGradient id="SVGID_00000057870696507829950570000009873124809687569593_" cx="115.259" cy="41.753" gradientUnits="userSpaceOnUse" r="282.888" xlink:href="#lg1"/><radialGradient id="SVGID_00000134951274459702969790000016305708663963992490_" cx="199.965" cy="446.929" gradientTransform="matrix(1 0 0 .395 0 270.262)" gradientUnits="userSpaceOnUse" r="111.429" xlink:href="#lg1"/><radialGradient id="SVGID_00000141451940278285498950000011800656382309154214_" cx="438.412" cy="157.57" gradientUnits="userSpaceOnUse" r="366.982"><stop offset="0" stop-color="#eb2a42"/><stop offset=".5038" stop-color="#b01f35"/><stop offset=".9424" stop-color="#a21259"/></radialGradient><linearGradient id="lg2"><stop offset="0" stop-color="#ffd6d6"/><stop offset=".5354" stop-color="#ffb3bd"/><stop offset=".56" stop-color="#ffb1bb"/><stop offset=".9729" stop-color="#ff8b99"/></linearGradient><radialGradient id="SVGID_00000069398195485729884610000017470074632669781927_" cx="93.659" cy="358.271" gradientTransform="matrix(.707 .707 -.475 .475 197.443 122.033)" gradientUnits="userSpaceOnUse" r="179.758" xlink:href="#lg2"/><radialGradient id="SVGID_00000045603798725207650820000001125705790907030435_" cx="462.553" cy="128.576" gradientUnits="userSpaceOnUse" r="422.271"><stop offset="0" stop-color="#ff546a"/><stop offset=".5038" stop-color="#ff3650"/><stop offset=".6571" stop-color="#e92b5a"/><stop offset=".9424" stop-color="#c3186c"/></radialGradient><radialGradient id="SVGID_00000040543051583171714530000005764877192855435951_" cx="468.482" cy="182.73" gradientUnits="userSpaceOnUse" r="360.713" xlink:href="#lg2"/><g><path d="m256.75 492.8c113.107 0 204.798-11.461 204.798-25.6h-411.096c0 14.139 93.19 25.6 206.298 25.6z" fill="url(#SVGID_1_)"/><path d="m217.6 19.2c-120.177 0-217.6 97.423-217.6 217.6 0 42.358 12.103 81.89 33.04 115.325h76.8c-20.937-33.435 64.383-332.925 184.56-332.925z" fill="url(#SVGID_00000057870696507829950570000009873124809687569593_)"/><path d="m179.2 467.2v-5.967c0-5.847-4.057-10.898-9.76-12.187l86.56-7.446c5.703 1.289 0 25.6 0 25.6z" fill="url(#SVGID_00000134951274459702969790000016305708663963992490_)"/><path d="m512 236.8c0 42.358-12.103 81.89-33.04 115.325-38.464 61.426-330.657 61.426-369.121 0-20.936-33.435-33.039-72.967-33.039-115.325 0-120.177 97.423-217.6 217.6-217.6s217.6 97.423 217.6 217.6z" fill="url(#SVGID_00000141451940278285498950000011800656382309154214_)"/><path d="m103.288 340.896c-4.441 6.715-12.031 11.221-20.824 11.221h-49.411c30.283 48.361 79.04 83.969 136.387 96.929h76.8c-40.743-28.746-23.617-64.94-142.952-108.15z" fill="url(#SVGID_00000069398195485729884610000017470074632669781927_)"/><path d="m371.003 440.525c44.942-16.91 82.807-48.266 107.944-88.408 1.712-12.005 1.326-24.954 4.111-36.829 4.051-17.273 16.142-34.24 16.142-52.888 0-18.649-12.091-35.615-16.142-52.889-4.233-18.048-1.139-38.579-9.222-54.504-8.361-16.472-26.918-26.102-38.764-39.609-12.137-13.84-19.35-33.386-34.458-43.364-15.241-10.066-36.084-9.032-53.637-14.394-17.193-5.252-33.844-17.84-52.577-17.84s-35.383 12.588-52.576 17.84c-17.553 5.362-38.396 4.327-53.636 14.393-15.108 9.978-22.321 29.524-34.459 43.365-11.846 13.507-30.403 23.138-38.764 39.61-8.084 15.925-4.99 36.456-9.223 54.505-4.051 17.273-16.142 34.239-16.142 52.887s12.091 35.615 16.142 52.889c.652 2.778 1.13 5.616 1.501 8.486.815 6.289-.753 12.279-3.956 17.122 24.844 45.513 65.465 81.176 114.515 99.631z" fill="url(#SVGID_00000045603798725207650820000001125705790907030435_)"/><path d="m371.2 435.2c0-7.34-2.216-22.949-5.894-43.745-2.743-15.505 6.533-30.605 21.59-35.21 10.334-3.16 21.694-6.821 34.052-11.097l.023-.008c5.028-1.748 3.011-9.273-2.217-8.272l-.023.004c-18.942 3.653-35.156 7.335-49.266 10.818-6.478 1.599-12.976-2.527-14.301-9.066-1.465-7.229-2.996-14.673-4.58-22.269-1.491-7.152 2.824-14.239 9.865-16.19l.129-.036c16.25-4.499 36.437-10.473 60.372-18.754l.032-.011c5.045-1.74 3.018-9.291-2.22-8.27l-.029.006c-24.692 4.761-44.752 9.573-61.554 13.93l-.123.032c-6.536 1.702-13.173-2.377-14.598-8.978-.423-1.959-.848-3.921-1.274-5.886-2.811-12.962 2.711-26.392 13.952-33.432 2.521-1.579 3.947-1.994 5.443-2.409 16.25-4.499 36.437-10.473 60.371-18.754l.048-.017c5.029-1.759 2.986-9.288-2.242-8.264l-.024.005c-24.692 4.761-44.752 9.573-61.554 13.93-4.099 1.063-8.098 2.388-11.98 3.957-6.694 2.706-14.211-1.295-15.793-8.34-.571-2.542-1.141-5.073-1.71-7.592-2.769-12.263 2.92-24.858 13.918-30.948 5.948-3.294 12.306-5.907 18.965-7.75 16.25-4.499 36.437-10.473 60.371-18.754l.023-.008c5.028-1.748 3.011-9.273-2.217-8.272l-.023.004c-24.692 4.761-44.752 9.573-61.554 13.93-8.325 2.158-16.249 5.386-23.601 9.551-6.864 3.888-15.531.018-17.32-7.665-6.515-27.977-12.546-51.792-16.615-67.414-1.407-5.403-9.074-5.403-10.481 0-4.069 15.622-10.1 39.437-16.615 67.414-1.789 7.683-10.456 11.553-17.32 7.665-7.352-4.165-15.276-7.393-23.601-9.551-16.802-4.356-36.862-9.168-61.554-13.93l-.013-.003c-5.225-1.007-7.253 6.511-2.231 8.269l.027.009c23.935 8.281 44.121 14.255 60.372 18.754 6.658 1.843 13.015 4.456 18.962 7.749 10.999 6.09 16.688 18.685 13.92 30.949-.568 2.519-1.138 5.051-1.71 7.592-1.583 7.044-9.1 11.045-15.794 8.34-3.882-1.569-7.881-2.895-11.98-3.957-16.802-4.356-36.862-9.168-61.554-13.93l-.017-.003c-5.23-1.024-7.272 6.507-2.241 8.265l.041.014c23.935 8.281 44.121 14.255 60.371 18.754.089.025.178.049.266.074 14.29 4.006 22.853 18.625 19.701 33.128-.628 2.892-1.254 5.779-1.876 8.66-1.421 6.583-8.052 10.541-14.569 8.842-.041-.011-.082-.021-.123-.032-16.802-4.356-36.862-9.168-61.554-13.93l-.015-.003c-5.24-1.026-7.272 6.53-2.224 8.271l.021.007c23.935 8.281 44.121 14.255 60.372 18.754l.129.036c7.041 1.953 11.355 9.04 9.864 16.193-1.583 7.595-3.115 15.038-4.58 22.266-1.325 6.54-7.823 10.666-14.301 9.066-14.11-3.484-30.324-7.166-49.266-10.818l-.009-.002c-5.225-1.007-7.253 6.512-2.231 8.27l.022.008c12.358 4.276 23.718 7.937 34.052 11.097 15.058 4.605 24.333 19.705 21.59 35.21-3.679 20.796-5.894 36.405-5.894 43.745 0 1.792.083 3.562.204 5.323 9.199 3.461 18.692 6.32 28.436 8.522 5.39 0 9.76 4.37 9.76 9.76v8.394h76.8v-5.967c0-5.841 4.048-10.897 9.746-12.184 9.751-2.203 19.246-5.076 28.451-8.539.121-1.754.204-3.52.204-5.307z" fill="url(#SVGID_00000040543051583171714530000005764877192855435951_)"/></g></svg>