<?xml version="1.0" encoding="UTF-8"?>
<svg xmlns="http://www.w3.org/2000/svg" xmlns:xlink="http://www.w3.org/1999/xlink" version="1.1" id="Capa_1" x="0px" y="0px" viewBox="0 0 512.001 512.001" style="enable-background:new 0 0 512.001 512.001;" xml:space="preserve" width="512" height="512">
<g>
	<g>
		<circle style="fill:#FBEBCF;" cx="310.595" cy="180.616" r="173.116"/>
		<path style="fill:#F5D9A2;" d="M215.374,126.533c-5.721-5.721-13.87-8.374-21.838-6.97c-17.896,3.154-34.855,9.024-50.439,17.167&#10;&#9;&#9;&#9;c-3.662,14.016-5.618,28.722-5.618,43.886c0,95.609,77.507,173.116,173.116,173.116c30.656,0,59.445-7.979,84.421-21.958&#10;&#9;&#9;&#9;c0.679-2.944,1.292-5.912,1.821-8.911c1.405-7.968-1.249-16.117-6.97-21.838L215.374,126.533z"/>
	</g>
	<g>
		<path style="fill:#F5D9A2;" d="M172.979,156.511C90.936,170.972,28.563,242.477,28.291,328.604&#10;&#9;&#9;&#9;c-0.306,96.875,79.02,176.201,175.895,175.895c86.127-0.272,157.632-62.645,172.093-144.688c1.405-7.968-1.249-16.117-6.97-21.838&#10;&#9;&#9;&#9;L194.817,163.48C189.096,157.759,180.947,155.106,172.979,156.511z"/>
		<path style="fill:#EEC076;" d="M373.639,343.783L189.007,159.151c-4.844-2.624-10.478-3.619-16.028-2.641&#10;&#9;&#9;&#9;c-7.575,1.335-14.981,3.16-22.187,5.434c-0.582,7.252-0.807,14.604-0.612,22.053c2.783,103.956,83.949,189.106,186.322,198.171&#10;&#9;&#9;&#9;c4.047,0.358,8.133,0.6,12.245,0.715c7.427,0.21,14.765-0.001,22.002-0.569c2.321-7.305,4.176-14.818,5.531-22.503&#10;&#9;&#9;&#9;C377.258,354.262,376.263,348.627,373.639,343.783z"/>
	</g>
	
		<ellipse transform="matrix(0.9255 -0.3788 0.3788 0.9255 -22.6916 100.9971)" style="fill:#F5D9A2;" cx="245.308" cy="108.163" rx="16.557" ry="16.557"/>
	
		<ellipse transform="matrix(0.9256 -0.3785 0.3785 0.9256 -81.3901 65.5758)" style="fill:#EAB65F;" cx="126.09" cy="239.795" rx="16.557" ry="16.557"/>
	<circle style="fill:#EAB65F;" cx="202.47" cy="447.381" r="16.557"/>
	
		<ellipse transform="matrix(0.1614 -0.9869 0.9869 0.1614 -240.4695 365.6247)" style="fill:#EAB65F;" cx="94.906" cy="324.31" rx="23.41" ry="23.41"/>
	
		<ellipse transform="matrix(0.8321 -0.5547 0.5547 0.8321 -63.9638 248.2851)" style="fill:#F5D9A2;" cx="378.054" cy="229.777" rx="16.557" ry="16.557"/>
	
		<ellipse transform="matrix(0.2055 -0.9787 0.9787 0.2055 193.3989 454.5486)" style="fill:#F5D9A2;" cx="376.65" cy="108.163" rx="23.41" ry="23.41"/>
	<path style="fill:#FBEBCF;" d="M372.731,342.24c-0.91-1.44-1.98-2.8-3.2-4.04c-0.07-0.08-0.14-0.15-0.22-0.23l-174.49-174.49&#10;&#9;&#9;c-0.07-0.07-0.14-0.14-0.22-0.21c-3.13-3.06-6.96-5.21-11.08-6.3c-3.06,13.1-4.52,26.81-4.15,40.93&#10;&#9;&#9;c2.18,81.42,65.75,148.11,145.93,155.21c3.17,0.28,6.37,0.47,9.59,0.56c14.14,0.4,27.89-1.05,41.01-4.11&#10;&#9;&#9;C375.251,346.98,374.181,344.5,372.731,342.24z"/>
	<ellipse style="fill:#E89FA9;" cx="134.582" cy="397.813" rx="25.049" ry="19.948"/>
	<ellipse style="fill:#E89FA9;" cx="270.358" cy="397.813" rx="25.049" ry="19.948"/>
</g>
<g>
	<path style="fill:none;stroke:#000000;stroke-width:15;stroke-linecap:round;stroke-linejoin:round;stroke-miterlimit:10;" d="&#10;&#9;&#9;M107.796,475.798c27.736,18.226,60.886,28.812,96.394,28.702c86.12-0.27,157.63-62.65,172.09-144.69&#10;&#9;&#9;c0.61-3.45,0.45-6.94-0.38-10.25c-0.65-2.58-1.72-5.06-3.17-7.32c-0.91-1.44-1.98-2.8-3.2-4.04c-0.07-0.08-0.14-0.15-0.22-0.23&#10;&#9;&#9;l-174.49-174.49c-0.07-0.07-0.14-0.14-0.22-0.21c-3.13-3.06-6.96-5.21-11.08-6.3c-3.06,13.1-4.52,26.81-4.15,40.93&#10;&#9;&#9;c2.18,81.42,65.75,148.11,145.93,155.21"/>
	<path style="fill:none;stroke:#000000;stroke-width:15;stroke-linecap:round;stroke-linejoin:round;stroke-miterlimit:10;" d="&#10;&#9;&#9;M138.051,166.51c-64.19,25.9-109.53,88.69-109.76,162.09c-0.155,48.44,19.6,92.49,51.504,124.392"/>
	<path style="fill:none;stroke:#000000;stroke-width:15;stroke-linecap:round;stroke-linejoin:round;stroke-miterlimit:10;" d="&#10;&#9;&#9;M372.731,342.24c-0.91-1.44-1.98-2.8-3.2-4.04c-0.07-0.08-0.14-0.15-0.22-0.23l-174.49-174.49c-0.07-0.07-0.14-0.14-0.22-0.21&#10;&#9;&#9;c-3.13-3.06-6.96-5.21-11.08-6.3c-3.06,13.1-4.52,26.81-4.15,40.93c2.18,81.42,65.75,148.11,145.93,155.21&#10;&#9;&#9;c3.17,0.28,6.37,0.47,9.59,0.56c14.14,0.4,27.89-1.05,41.01-4.11C375.251,346.98,374.181,344.5,372.731,342.24z"/>
	
		<ellipse transform="matrix(0.9256 -0.3785 0.3785 0.9256 -81.3901 65.5758)" style="fill:none;stroke:#000000;stroke-width:15;stroke-linecap:round;stroke-linejoin:round;stroke-miterlimit:10;" cx="126.09" cy="239.795" rx="16.557" ry="16.557"/>
	
		<ellipse transform="matrix(0.9255 -0.3788 0.3788 0.9255 -22.6916 100.9971)" style="fill:none;stroke:#000000;stroke-width:15;stroke-linecap:round;stroke-linejoin:round;stroke-miterlimit:10;" cx="245.308" cy="108.163" rx="16.557" ry="16.557"/>
	
		<circle style="fill:none;stroke:#000000;stroke-width:15;stroke-linecap:round;stroke-linejoin:round;stroke-miterlimit:10;" cx="202.47" cy="447.381" r="16.557"/>
	
		<ellipse transform="matrix(0.8321 -0.5547 0.5547 0.8321 -63.9638 248.2851)" style="fill:none;stroke:#000000;stroke-width:15;stroke-linecap:round;stroke-linejoin:round;stroke-miterlimit:10;" cx="378.054" cy="229.777" rx="16.557" ry="16.557"/>
	
		<ellipse transform="matrix(0.1614 -0.9869 0.9869 0.1614 -240.4695 365.6247)" style="fill:none;stroke:#000000;stroke-width:15;stroke-linecap:round;stroke-linejoin:round;stroke-miterlimit:10;" cx="94.906" cy="324.31" rx="23.41" ry="23.41"/>
	
		<ellipse transform="matrix(0.2055 -0.9787 0.9787 0.2055 193.3989 454.5486)" style="fill:none;stroke:#000000;stroke-width:15;stroke-linecap:round;stroke-linejoin:round;stroke-miterlimit:10;" cx="376.65" cy="108.163" rx="23.41" ry="23.41"/>
	
		<line style="fill:none;stroke:#000000;stroke-width:15;stroke-linecap:round;stroke-linejoin:round;stroke-miterlimit:10;" x1="149.181" y1="368.616" x2="149.181" y2="378.365"/>
	<path style="fill:none;stroke:#000000;stroke-width:15;stroke-linecap:round;stroke-linejoin:round;stroke-miterlimit:10;" d="&#10;&#9;&#9;M188.42,378.305c3.416,3.92,8.442,6.401,14.049,6.401s10.633-2.48,14.049-6.401"/>
	<path style="fill:none;stroke:#000000;stroke-width:15;stroke-linecap:round;stroke-linejoin:round;stroke-miterlimit:10;" d="&#10;&#9;&#9;M246.344,378.093c0-6.239,5.058-11.297,11.297-11.297c6.239,0,11.297,5.058,11.297,11.297"/>
	<path style="fill:none;stroke:#000000;stroke-width:15;stroke-linecap:round;stroke-linejoin:round;stroke-miterlimit:10;" d="&#10;&#9;&#9;M459.813,92.799C429.704,41.75,374.146,7.5,310.591,7.5c-90.86,0-165.36,70-172.54,159.01c11.13-4.48,22.81-7.86,34.93-10&#10;&#9;&#9;c3.56-0.62,7.15-0.44,10.54,0.46c-3.06,13.1-4.52,26.81-4.15,40.93c2.18,81.42,65.75,148.11,145.93,155.21"/>
	<path style="fill:none;stroke:#000000;stroke-width:15;stroke-linecap:round;stroke-linejoin:round;stroke-miterlimit:10;" d="&#10;&#9;&#9;M372.731,342.24c0.21-0.07,0.41-0.15,0.61-0.23c64.59-25.13,110.37-87.91,110.37-161.39c0-19.279-3.152-37.823-8.968-55.143"/>
</g>















</svg>
