<svg id="Layer_1" enable-background="new 0 0 463.997 463.997" height="512" viewBox="0 0 463.997 463.997" width="512" xmlns="http://www.w3.org/2000/svg"><path d="m410.04 192.886-10.21-5.42 5.08-10.39c4.2-8.61-.05-19-9.1-22.13-44.09-15.29-87.7-5.53-119.04 25.43 19.76-39.38 15.57-83.87-12.6-121.07-5.78-7.64-16.97-8.48-23.86-1.82l-8.31 8.04-8.31-8.04c-6.89-6.66-18.08-5.82-23.86 1.82-28.17 37.2-32.36 81.69-12.6 121.07-31.34-30.96-74.95-40.72-119.04-25.43-9.05 3.13-13.3 13.52-9.1 22.13l5.08 10.39-10.21 5.42c-8.47 4.5-11.13 15.39-5.65 23.25 26.68 38.29 67.7 56.02 111.26 49.4-39.14 20.24-61.9 58.7-60.98 105.35.18 9.58 8.75 16.83 18.23 15.49l11.45-1.61 2.01 11.38c1.66 9.44 11.19 15.35 20.36 12.56 44.66-13.54 74.2-47.07 81.36-90.55 7.16 43.48 36.7 77.01 81.36 90.55 9.17 2.79 18.7-3.12 20.36-12.56l2.01-11.38 11.45 1.61c9.48 1.34 18.05-5.91 18.23-15.49.92-46.65-21.84-85.11-60.98-105.35 43.56 6.62 84.58-11.11 111.26-49.4 5.479-7.86 2.82-18.75-5.65-23.25z" fill="#ffa4b8"/><path d="m224.652 70.965c-11.005 14.075-28.509 48.093-20.629 88.754 1.647 8.496-7.366 14.934-14.938 10.744-1.32-.73-2.653-1.432-3.997-2.105-2.462-1.232-4.332-3.405-5.145-6.036-10.677-34.533-4.048-71.408 19.887-103.017 5.78-7.64 16.973-8.483 23.86-1.82 3.712 3.592 4.144 9.411.962 13.48z" fill="#ffbfcb"/><path d="m124.786 376.404c.407 4.706-2.719 9.231-7.966 9.972-9.48 1.338-18.05-5.91-18.23-15.49-.781-39.571 15.472-73.244 44.311-94.897 1.998-1.5 4.529-2.118 6.991-1.694 2.516.433 5.055.779 7.614 1.037 7.843.79 11.241 10.412 5.428 15.736-28.657 26.244-40.008 63.839-38.148 85.336z" fill="#ffbfcb"/><path d="m86.09 186.076 3.38 6.914c.948 1.938.188 4.278-1.718 5.29l-6.793 3.606c-8.47 4.5-11.13 15.39-5.65 23.25 6.051 8.686 12.842 16.313 20.234 22.838 3.529 3.115-.326 8.725-4.496 6.543-16.367-8.564-30.951-21.465-42.737-38.382-5.48-7.86-2.82-18.75 5.65-23.25l10.21-5.42-5.08-10.39c-4.2-8.61.05-19 9.1-22.13 20.051-6.951 39.999-8.724 58.739-5.676 4.644.755 4.415 7.568-.274 7.948-10.352.838-20.895 3.063-31.465 6.728-9.05 3.131-13.3 13.521-9.1 22.131z" fill="#ffbfcb"/><g fill="#ff8ca5"><path d="m284.316 321.997c-2.475 0-4.914-1.145-6.479-3.299l-32.909-45.3c-2.597-3.575-1.804-8.578 1.771-11.175 3.575-2.598 8.578-1.804 11.175 1.771l32.909 45.3c3.863 5.32-.011 12.703-6.467 12.703z"/><path d="m263.4 239.796c-4.418 0-8.011-3.582-8.011-8 0-3.682 2.48-6.782 5.863-7.714l52.914-17.194c4.203-1.363 8.716.934 10.081 5.136s-.935 8.716-5.136 10.081c-58.121 18.886-53.894 17.691-55.711 17.691z"/><path d="m232 216.996c-4.418 0-8-3.582-8-8v-56c0-4.418 3.582-8 8-8s8 3.582 8 8v56c0 4.418-3.582 8-8 8z"/><path d="m179.683 321.997c-6.451 0-10.332-7.38-6.466-12.703l32.909-45.3c2.597-3.573 7.6-4.367 11.175-1.771 3.574 2.597 4.367 7.6 1.771 11.175l-32.909 45.3c-1.566 2.154-4.006 3.299-6.48 3.299z"/><path d="m198.127 239.404-53.239-17.3c-4.201-1.365-6.501-5.879-5.136-10.081 1.365-4.201 5.874-6.502 10.081-5.136l53.055 17.24c3.306.983 5.723 4.044 5.723 7.668-.001 5.453-5.322 9.288-10.484 7.609z"/></g><path d="m263.4 231.796c4.302 13.279-.16 28.279-12 36.9-11.533 8.401-27.255 8.41-38.8 0-11.836-8.619-16.304-23.617-12-36.9 4.3-13.23 16.73-22.8 31.4-22.8s27.1 9.57 31.4 22.8z" fill="#ffe773"/><path d="m239.119 209.766c5.791 1.273 6.525 9.303.994 11.441-15.838 6.121-24.471 23.224-19.914 39.635 1.575 5.67-5.067 10.126-9.552 6.316-7.116-6.043-11.647-15.06-11.647-25.162 0-21.084 19.507-36.763 40.119-32.23z" fill="#fff0a6"/><path d="m458.95 430.216c6.74 5.36 6.64 15.3.24 20.48-22.01 17.82-51.09 17.99-75.66-1.05-5.74-4.45-6.83-12.63-2.46-18.43 18.73-24.81 46.84-32.27 72.75-20.83 7.45 3.29 10.28 12.78 5.13 19.83z" fill="#ffa4b8"/><path d="m461.563 422.52c-.041 2.668-2.904 4.322-5.224 3.003-20.179-11.481-49.672-8.794-71.56 13.833-2.677 2.776-6.845.358-6.056-3.104.404-1.771 1.181-3.488 2.346-5.036 18.73-24.81 46.84-32.27 72.75-20.83 4.919 2.173 7.822 7.046 7.744 12.134z" fill="#ffbfcb"/><path d="m399.01 12.716c10.077-1.946 19.43 6.03 19.06 16.28-1.24 34.71-24.51 61.74-61.9 69.13-8.73 1.73-17.18-3.86-19.02-12.57-7.87-37.29 7.87-69.3 39.31-84.05 9.29-4.36 19.99 1.186 22.45 11.14.027.111-.001.089.1.07z" fill="#ffa4b8"/><path d="m385.622 12.212c-26.579 13.854-37.695 49.478-35.716 71.403.723 8.011-10.901 10.053-12.697 2.212-7.858-34.316 5.741-68.599 39.251-84.32 1.988-.932 4.051-1.413 6.088-1.496 6.851-.281 9.155 9.031 3.074 12.201z" fill="#ffbfcb"/><path d="m53.08 299.806c16.3 28.11 12.08 58.23-9.46 78.55-6.3 5.94-16.61 4.59-21.19-3.1-7.74 4.28-17.41.3-19.84-8.08-8.24-28.45 3.41-56.54 31.73-72.49 6.62-3.72 14.95-1.45 18.76 5.12z" fill="#ffa4b8"/><path d="m34.506 294.583c5.116-2.774 9.852 4.39 5.314 8.033-.172.138-.342.281-.51.429-20.691 18.271-27.793 42.61-20.871 65.519 1.481 4.9-3.346 9.324-8.063 7.336-3.623-1.528-6.586-4.591-7.786-8.724-8.771-30.283 5.478-58.257 31.916-72.593z" fill="#ffbfcb"/><path d="m121.52 78.826c.99 7.44-4.16 14.25-11.59 15.34-31.8 4.63-57.89-10.31-68.64-37.55-3.06-7.77 1.66-16.84 10.65-18.31-1.07-8.83 6.23-16.08 14.7-15.24 29.14 2.89 50.65 23.9 54.88 55.76z" fill="#ffa4b8"/><path d="m85.554 82.167c4.748 4.196.519 12.026-5.567 10.262-17.755-5.148-31.586-17.787-38.697-35.813-3.06-7.77 1.66-16.84 10.65-18.31-1.07-8.83 6.23-16.08 14.7-15.24 2.075.207 4.111.506 6.105.894 8.823 1.716 10.37 13.761 2.761 17.835-6.008 3.216-8.723 10.455-6.216 16.821 3.721 9.423 9.274 17.373 16.264 23.551z" fill="#ffbfcb"/></svg>