<svg id="Capa_1" enable-background="new 0 0 510.26 510.26" height="512" viewBox="0 0 510.26 510.26" width="512" xmlns="http://www.w3.org/2000/svg"><g><g><g><path d="m450.075 35.326c-8.74-13.732-19.498-21.915-27.204-26.437-5.139-3.015-11.794-1.36-14.825 3.746-9.343 15.743-21.436 31.223-30.995 42.568 4.87 3.283 9.528 7.15 13.894 11.649.033.04.088.106.121.146.608.773 5.678 6.072 10.906 14.429 15.548-12.958 33.93-24.656 44.596-31.088 5.207-3.14 6.761-9.9 3.507-15.013z" fill="#ab6b51"/></g><g><path d="m391.067 66.998c.028.036.076.092.123.147 11.063-10.623 25.027-25.067 36.264-40.079 3.193-4.266 8.892-5.565 13.593-3.47-6.411-6.945-12.985-11.662-18.175-14.707-5.139-3.015-11.794-1.36-14.825 3.746-9.343 15.743-21.436 31.223-30.995 42.568 4.87 3.283 9.529 7.15 13.894 11.649.033.041.087.106.121.146z" fill="#965a44"/></g><g><path d="m83.067 286.092c27.784-13.952 49.161-17.529 70.58-19.339 4.013-13.056 7.2-25.646 11.154-38.832-45.411 13.837-72.598 37.988-85.876 52.896-2.502 2.811.764 6.972 4.142 5.275z" fill="#ab6b51"/></g><path d="m79.391 283.528c14.093-10.744 40.345-26.542 79.089-33.403 2.054-7.339 4.063-14.674 6.322-22.203-45.411 13.837-72.598 37.988-85.876 52.896-1.075 1.207-1.082 2.661-.477 3.796.219-.395.522-.766.942-1.086z" fill="#965a44"/><g><path d="m392.247 66.261c-.033-.039-.086-.104-.119-.144-33.335-34.595-83.838-32.035-117.694-4.023-23.987 19.847-50.984 47.347-73.543 83.536-54.93 88.118-30.294 120.804-91.551 209.423-40.443 58.507-49.431 112.396-50.871 142.263-.269 5.574 7.359 7.424 9.671 2.345 23.059-50.666 49.458-74.891 78.161-101.139l43.687-43.351c13.611-15.536 27.574-34.197 41.801-58.481 52.794-90.114 148.561-108.362 173.354-146.719 27.121-41.957-11.174-81.503-12.896-83.71z" fill="#965a44"/></g><path d="m131.585 367.835c66.526-84.735 43.92-118.857 104.1-203.476 24.716-34.753 53.333-60.562 78.481-78.916 24.376-17.791 55.861-23.119 83.291-12.872-2.758-3.61-4.838-5.833-5.21-6.31-.033-.039-.086-.104-.119-.144-33.335-34.595-83.838-32.035-117.694-4.023-23.987 19.847-50.984 47.347-73.543 83.536-54.93 88.118-30.294 120.804-91.551 209.423-40.443 58.507-49.431 112.396-50.871 142.263-.269 5.574 7.359 7.424 9.671 2.345 2.538-5.576 5.118-10.815 7.736-15.789 6.485-30.466 21.473-72.43 55.709-116.037z" fill="#7c4b37"/><g><path d="m175.962 347.271c-.014-.003-.029-.006-.042-.01-13.481-2.117-24.478 7.123-27.34 19.272-2.028 8.607-3.425 19.464-2.328 31.528 1.669 18.349 6.659 26.478 10.493 37.447 1.787 5.113 6.834 8.346 12.225 7.82 6.434-.628 11.129-6.328 10.557-12.767-.104-1.167-.228-2.364-.374-3.593-3.499-29.458 15.057-50.013 14.093-62.95-1.057-14.212-16.637-16.56-17.284-16.747z" fill="#ab6b51"/></g><path d="m175.68 435.508c-3.834-10.969-8.824-19.098-10.493-37.447-1.098-12.063.3-22.92 2.328-31.528 1.838-7.8 7.031-14.394 14.08-17.561-2.961-1.241-5.385-1.63-5.632-1.702-.014-.003-.029-.006-.042-.01-13.481-2.117-24.478 7.123-27.34 19.272-2.028 8.607-3.425 19.464-2.328 31.528 1.669 18.349 6.659 26.478 10.493 37.447 1.787 5.113 6.834 8.346 12.225 7.82 3.468-.338 6.42-2.158 8.325-4.765-.672-.917-1.225-1.937-1.616-3.054z" fill="#965a44"/></g><g><path d="m456.456 31.093c-9.422-14.911-21.08-23.762-29.2-28.561-8.614-5.091-19.731-2.272-24.813 6.35-7.751 13.154-17.575 26.18-25.564 36.031-7.097-4.056-14.688-7.12-22.595-9.066-4.016-.992-8.085 1.468-9.074 5.49-.99 4.021 1.468 8.085 5.49 9.074 14.779 3.638 28.35 12.28 36.52 21.617 10.299 11.769 31.996 42.489 11.633 73.991-8.131 12.579-26.269 23.637-47.628 36.13-6.504-12.241-14.552-23.23-24.037-32.711-2.93-2.93-7.679-2.929-10.606.003-2.928 2.929-2.927 7.678.003 10.606 8.566 8.563 15.833 18.532 21.688 29.679-5.207 3.064-10.54 6.25-15.948 9.6-12.504-19.401-29.191-34.801-49.724-45.814-3.648-1.958-8.196-.584-10.154 3.064-1.958 3.65-.586 8.196 3.064 10.154 18.234 9.78 33.06 23.452 44.178 40.677-21.841 14.459-44.201 32.128-63.74 55.991-6.109-5.769-12.69-10.932-19.647-15.402-3.485-2.238-8.126-1.229-10.364 2.257-2.238 3.485-1.228 8.125 2.257 10.364 6.607 4.243 12.831 9.206 18.582 14.777-6.874 9.611-10.642 16.289-13.183 20.542-2.473 4.143-.858 8.559 2.444 10.532 3.356 2.004 8.001 1.246 10.432-2.838 3.514-5.874 11.83-20.808 27.915-38.629.903 9 3.882 19.677 11.866 27.989-6.125 7.021-14.396 19.858-12.145 36.29.515 3.759 3.73 6.483 7.421 6.483 4.558 0 8.058-4.015 7.44-8.519-1.39-10.147 3.803-18.641 7.947-23.627 6.835 7.064 9.313 10.348 9.332 10.374 2.444 3.34 7.135 4.074 10.481 1.626 3.343-2.445 4.071-7.138 1.626-10.481-4.165-5.697-15.466-16.898-20.654-21.885-11.951-11.488-8.071-33.192-8.004-33.558.009-.049.012-.097.021-.145 50.854-46.843 111.271-63.732 131.735-95.389 14.756-22.829 13.795-48.055 1.174-71.737 14.014-11.122 29.459-20.932 37.948-26.088 8.699-5.282 11.319-16.639 5.883-25.241zm-13.672 12.423c-8.545 5.19-23.902 14.934-38.213 26.148-4.377-5.945-8.246-10.485-15.283-16.238 8.201-10.173 18.127-23.436 26.078-36.929.854-1.45 2.768-1.932 4.259-1.051 6.698 3.959 16.326 11.277 24.151 23.66.957 1.514.518 3.493-.992 4.41z"/><path d="m197.534 379.122c2.119-5.53 3.567-10.602 3.199-15.542-.194-2.602-.776-5.043-1.676-7.316 5.878-6.909 11.441-13.971 16.903-21.471 2.438-3.348 1.701-8.039-1.647-10.478s-8.04-1.7-10.478 1.647c-4.734 6.5-9.542 12.657-14.582 18.669-19.049-12.131-42.846-1.43-47.966 20.301-2.421 10.271-3.307 20.876-2.742 30.646-25.613 23.448-49.912 46.451-71.539 89.241 3.216-29.113 14.105-75.61 48.511-125.382 17.9-25.897 28.683-47.344 36.2-66.608 6.911 2.649 13.538 5.911 19.769 9.742 3.537 2.173 8.152 1.062 10.317-2.46 2.17-3.528 1.068-8.147-2.46-10.317-7.101-4.367-14.654-8.072-22.526-11.07 7.228-21.625 11.146-40.667 18.532-62.49 5.018 1.678 9.93 3.656 14.664 5.923 3.744 1.792 8.219.204 10.004-3.525 1.789-3.736.21-8.215-3.525-10.004-5.167-2.474-10.522-4.639-15.989-6.485 2.172-5.509 4.611-11.21 7.415-17.167 10.324 2.637 23.865 7.479 37.539 16.371 3.477 2.259 8.12 1.27 10.377-2.199 2.258-3.473 1.273-8.118-2.199-10.377-13.951-9.071-27.768-14.379-38.85-17.484 16.831-31.626 37.561-59.393 63.501-84.544 5.259 1.512 21.021 6.737 37.639 18.998 3.339 2.461 8.033 1.746 10.488-1.582 2.459-3.333 1.751-8.029-1.582-10.488-13-9.591-25.444-15.325-33.959-18.534 7.85-6.908 11.209-9.562 14.996-12.137 9.389 2.869 39.529 13.966 61.561 43.42 2.48 3.317 7.182 3.994 10.498 1.514 3.317-2.481 3.994-7.182 1.514-10.498-17.991-24.053-40.384-37.121-55.641-43.777 4.873-1.851 9.896-3.257 15.007-4.168 4.078-.728 6.794-4.622 6.067-8.7-.729-4.078-4.617-6.795-8.7-6.067-29.185 5.203-47.45 20.948-68.739 41.654-17.802 1.491-24.968-2.917-32.637-4.572-9.734-8.518-8.028-17.656-7.947-18.056 2.766-12.854-12.744-15.165-14.615-3.368-.13.542-2.17 9.615 2.869 20.098-17.09.946-31.76 6.328-32.668 6.667-3.881 1.45-5.851 5.771-4.4 9.65 1.451 3.881 5.775 5.853 9.65 4.4 7.86-2.938 31.885-9.289 48.432-3.489 5.264 1.845 10.891 3.034 16.824 3.593-20.005 21.84-35.899 44.583-49.482 69.374-9.378-.273-28.894 1.063-41.139 15.266-12.939 15.011-18.836 19.966-18.87 19.994-3.206 2.623-3.679 7.348-1.056 10.554 2.624 3.208 7.351 3.677 10.554 1.056.268-.219 6.717-5.551 20.733-21.809 5.8-6.727 14.771-9.073 21.909-9.797-7.431 15.392-12.924 29.885-17.893 46.162-45.164 14.842-72.174 39.977-84.408 53.882-7.917 9 2.447 22.342 13.122 16.914 20.798-10.573 37.932-15.049 55.663-17.349-7.337 21.645-17.945 45.047-38.898 75.36-42.226 61.087-50.824 117.799-52.191 146.166-.294 6.107 3.651 11.379 9.595 12.818 5.929 1.437 11.856-1.431 14.394-7.005 19.705-43.296 42.244-67.039 66.169-89.305 2.451 10.308 5.895 16.982 8.529 24.519 2.928 8.375 11.137 13.674 20.033 12.811 10.473-1.022 18.233-10.396 17.299-20.901-.695-7.791-2.773-17.062 4.876-36.93 4.42 2.378 10.131 6.561 13.164 13.264 1.708 3.776 6.154 5.448 9.925 3.741 3.773-1.707 5.449-6.15 3.741-9.925-5.09-11.249-14.46-17.68-21.178-21.039zm-96.858-108.9c12.091-10.169 29.173-21.586 51.916-30.38-1.848 6.682-3.644 13.317-5.606 20.034-15.405 1.566-30.061 4.303-46.31 10.346zm77.286 69.938c.019.005.043.011.059.016.057.016.013.004-.059-.016zm3.096 39.684c-10.687 25.683-10.491 34.742-8.993 51.5.207 2.332-1.504 4.413-3.814 4.639-1.951.194-3.769-.974-4.417-2.83-4.035-11.539-8.349-18.04-10.057-35.207l-.048-.445c-.869-9.558-.143-19.357 2.159-29.128 2.264-9.605 11.075-15.212 18.821-13.581 5.568 1.153 10.634 4.1 11.065 9.902.242 3.237-2.166 9.023-4.716 15.15z"/></g></g></svg>