<svg id="fill" height="512" viewBox="0 0 340 340" width="512" xmlns="http://www.w3.org/2000/svg"><path d="m83.218 174.065s-43.967-3.111-63.72 34.377a71.365 71.365 0 0 0 -1.6 63.175c7.242 15.588 21.622 31.829 50.175 34.448a62.256 62.256 0 0 0 64.175-41.192l6.071-17.012a53.789 53.789 0 0 0 -32.494-68.75 91.9 91.9 0 0 0 -22.607-5.046z" fill="#e24d4d"/><path d="m81.736 185.6s-19.189 1.135-30.5 17.69a1.645 1.645 0 0 1 -3-1.168c1.217-7.775 5.688-19.817 21.312-25.039z" fill="#c43b3b"/><path d="m81.736 185.6s19.19 1.135 30.5 17.69a1.646 1.646 0 0 0 3-1.168c-1.218-7.775-5.689-19.817-21.312-25.039z" fill="#c43b3b"/><path d="m237.216 123.436c-12.827 4.29-38.917 16.764-39.528 47.381a56.4 56.4 0 0 0 7.548 28.752c9.474 16.743 32.067 45.24 73.066 36.505 17.475-3.723 33-13.748 42.754-28.907 9.51-14.777 11.143-39.795-.854-65.47a54.413 54.413 0 0 0 -26.568-26.834c-11.867-5.36-28.3-7.474-47.526 4.345a43.189 43.189 0 0 1 -8.892 4.228z" fill="#e24d4d"/><path d="m174.556 185.71c-15.109-2.411-52.705-4.627-70.847 28.212a62.831 62.831 0 0 0 -7.47 33.7c1.161 22.264 10.161 63.519 59.429 75.778 21 5.227 43.312 2.913 62.16-7.717 21.132-11.917 42.924-36.548 39.732-87.408 0 0-4.169-56.349-69.689-42.86a37.107 37.107 0 0 1 -13.315.295z" fill="#ff6e6e"/><path d="m243.106 132.79s-16.353 10.1-18.455 30.044a1.645 1.645 0 0 1 -3.193.394c-2.618-7.421-4.4-20.143 6.879-32.153z" fill="#c43b3b"/><path d="m247.032 132.744s14.7-7.486 30.263-.133a1.412 1.412 0 0 0 1.714-2.166c-4.275-5.229-12.811-12.207-26.647-9.3z" fill="#c43b3b"/><path d="m156.206 86.447a89.939 89.939 0 0 0 24.763 5.278 56.616 56.616 0 0 1 24.1 6.83c8.178 4.584 17.357 12 22.767 23.626 0 0-15.611.633-25.1-6.251a2.01 2.01 0 0 0 -3.151 2.082c2.44 10.06 11.137 28.063 41.987 18.766 0 0 35.459-10.951 26.744-40.815a2.015 2.015 0 0 0 -3.652-.509c-2.033 3.3-5.466 7.746-9.926 9.389 0 0-8.873 4.459-12.593 12.187 0 0-10.922-32.426-49.724-38.822a38.555 38.555 0 0 0 -3.9-.411c-6.731-.421-30.8-2.7-35.961-14z" fill="#8eb260"/><path d="m177.01 198.628s-17.331 1.624-34.279 16.138a2.069 2.069 0 0 1 -3.3-2.2c2.6-8.462 10.344-22.063 33.172-20.944z" fill="#e24d4d"/><path d="m182.206 197.781s17.283 2.067 33.855 17.008a2.069 2.069 0 0 0 3.358-2.12c-2.386-8.525-9.778-22.319-32.627-21.783z" fill="#e24d4d"/><path d="m119.884 14.716a8.44 8.44 0 0 1 10.091 2.246c9.359 11.282 30.4 42.378 33.146 96.5 0 0 25.469 26.816 22.276 70.458 0 0 18.253-.021 26.466-13.515a2.009 2.009 0 0 1 3.711 1.033c.072 8.563-2.5 21.813-17.806 27.573a22.929 22.929 0 0 1 -10.3 1.315 104.608 104.608 0 0 0 -18.534-.378 23.369 23.369 0 0 1 -14.424-3.048c-6.947-4.192-14.9-12.624-13.754-29.079a2.012 2.012 0 0 1 3.646-1.015c4.377 6.231 13.626 16.634 27.471 18.355 0 0 1.136-26.311-7.106-44.159a24.009 24.009 0 0 0 -24.842-13.584c-16.984 2.181-42.7 11.076-45.992 44.648 0 0 14.439-1.06 22.341-11.235a2.008 2.008 0 0 1 3.574 1.433c-.977 9.669-6.134 24.536-28.754 23.574 0 0-47.668 7.782-38.842-32.144a2.014 2.014 0 0 1 3.75-.521c3.066 5.981 9.767 14.764 22.421 13.793 0 0 4.511-55.638 68.984-57.446 0 0 .735-36.969-30.882-82.387a8.427 8.427 0 0 1 3.359-12.417z" fill="#abd37d"/><g fill="#fff"><path d="m128.742 257.106a8.184 8.184 0 0 1 7.586 7.16 63.452 63.452 0 0 0 16.4 35.253 3.028 3.028 0 0 1 -3.5 4.822c-10.144-4.819-23.068-15.116-28.924-37a8.172 8.172 0 0 1 8.438-10.235z"/><circle cx="124.177" cy="237.797" r="8.92"/></g></svg>