<svg xmlns="http://www.w3.org/2000/svg" version="1.1" xmlns:xlink="http://www.w3.org/1999/xlink" xmlns:svgjs="http://svgjs.com/svgjs" width="512" height="512" x="0" y="0" viewBox="0 0 512 512" style="enable-background:new 0 0 512 512" xml:space="preserve" class=""><g><path fill="#b57f5f" d="M371.383 405.423V262.03a92.693 92.693 0 0 0-38.566-75.248l-4.804-3.455H78.94l-4.804 3.455A92.695 92.695 0 0 0 35.57 262.03v143.393a28.875 28.875 0 0 1-5.74 17.277L5.047 455.88A25.4 25.4 0 0 0 0 471.074c0 14.022 11.367 25.389 25.389 25.389h356.175c14.022 0 25.389-11.367 25.389-25.389a25.389 25.389 0 0 0-5.048-15.193l-24.783-33.18a28.877 28.877 0 0 1-5.739-17.278z" data-original="#b57f5f" class=""></path><path fill="#9f6e50" d="m401.905 455.881-24.783-33.18a28.868 28.868 0 0 1-5.74-17.277V262.03a92.693 92.693 0 0 0-38.566-75.248l-4.804-3.455h-30.905l4.804 3.455a92.693 92.693 0 0 1 38.566 75.248v143.393a28.873 28.873 0 0 0 5.74 17.277L371 455.881a25.39 25.39 0 0 1 5.048 15.193c0 14.022-11.367 25.389-25.389 25.389h30.905c14.022 0 25.389-11.367 25.389-25.389a25.389 25.389 0 0 0-5.048-15.193z" data-original="#9f6e50"></path><path fill="#000000" d="M346.08 126.269a53.176 53.176 0 0 0 3.237-12.635c3.248-25.089-12.258-49.218-36.42-56.713a52.88 52.88 0 0 0-15.1-2.388 3.157 3.157 0 0 1-2.969-2.204c-5.426-17.251-19.619-31.234-38.532-35.497-19.449-4.385-38.808 2.649-51.075 16.668a3.193 3.193 0 0 1-3.971.684 48.621 48.621 0 0 0-13.099-5.018c-24.041-5.42-47.925 7.968-56.302 30.435a3.182 3.182 0 0 1-3.403 2.051c-32.689-4.441-63.91 16.791-71.301 49.575a64.435 64.435 0 0 0-1.565 15.042z" data-original="#f0e9e6" class=""></path><path fill="#000000" d="M312.897 56.922a52.88 52.88 0 0 0-15.1-2.388 3.157 3.157 0 0 1-2.969-2.204c-5.426-17.251-19.619-31.234-38.532-35.497a52.233 52.233 0 0 0-31.989 2.866c.361.074.722.143 1.084.225 18.912 4.264 33.106 18.246 38.532 35.497a3.156 3.156 0 0 0 2.969 2.204 52.88 52.88 0 0 1 15.1 2.388c24.162 7.495 39.668 31.624 36.42 56.713a53.407 53.407 0 0 1-2.136 9.544h29.804a53.176 53.176 0 0 0 3.237-12.635c3.248-25.089-12.258-49.218-36.42-56.713z" data-original="#dcd2cd" class=""></path><path fill="#000000" d="M491.702 347.314c-3.347-15.27-16.176-25.812-30.779-27.095-2.356-.207-4.428-1.729-5.136-3.986-4.335-13.807-15.11-25.349-29.959-30.034-22.857-7.211-47.149 4.405-56.15 26.142-.914 2.208-3.128 3.581-5.517 3.536-19.936-.373-39.666 6.116-51.271 18.326-17.677 18.6-9.801 43.408 17.589 55.411 27.391 12.003 122.354 3.062 138.082-2.005 16.813-5.415 26.923-23.042 23.141-40.295z" data-original="#f0e9e6" class=""></path><path fill="#000000" d="M491.702 347.314c-3.347-15.27-16.176-25.812-30.779-27.095-2.356-.207-4.428-1.729-5.136-3.986-4.335-13.807-15.11-25.349-29.959-30.034-12.26-3.868-24.93-2.313-35.435 3.308a46.1 46.1 0 0 1 8.65 1.843c14.849 4.684 25.624 16.226 29.959 30.034.708 2.257 2.78 3.779 5.136 3.986 14.603 1.283 27.432 11.825 30.779 27.095 3.563 16.258-5.21 32.842-20.3 39.234 11.338-1.35 20.06-2.838 23.945-4.089 16.812-5.416 26.922-23.043 23.14-40.296z" data-original="#dcd2cd" class=""></path><path fill="#9ec63d" d="M459.98 440.586H339.899v51.539a4.338 4.338 0 0 0 4.338 4.338h111.405a4.338 4.338 0 0 0 4.338-4.338z" data-original="#9ec63d"></path><path fill="#87a733" d="M429.98 440.586v51.539a4.338 4.338 0 0 1-4.338 4.338h30a4.338 4.338 0 0 0 4.338-4.338v-51.539z" data-original="#87a733"></path><path fill="#5ea570" d="M442.103 456.483h-84.326c-38.603 0-69.897-31.294-69.897-69.897v-25.162a6.798 6.798 0 0 1 6.798-6.798h210.525a6.798 6.798 0 0 1 6.798 6.798v25.162c-.001 38.603-31.295 69.897-69.898 69.897z" data-original="#5ea570"></path><path fill="#518f60" d="M505.202 354.627h-30.905a6.798 6.798 0 0 1 6.798 6.798v25.162c0 38.603-31.294 69.897-69.897 69.897h30.905c38.603 0 69.897-31.294 69.897-69.897v-25.162a6.797 6.797 0 0 0-6.798-6.798z" data-original="#518f60"></path><path fill="#e2a975" d="M359.551 109.28H47.402c-8.974 0-16.25 7.275-16.25 16.25v51.411c0 8.975 7.275 16.25 16.25 16.25h312.149c8.974 0 16.25-7.275 16.25-16.25V125.53c0-8.975-7.275-16.25-16.25-16.25z" data-original="#e2a975" class=""></path><path fill="#d19a6e" d="M359.551 109.28h-30.905c8.974 0 16.25 7.275 16.25 16.25v51.411c0 8.975-7.275 16.25-16.25 16.25h30.905c8.974 0 16.25-7.275 16.25-16.25V125.53c0-8.975-7.275-16.25-16.25-16.25z" data-original="#d19a6e"></path><g fill="#f0e9e6"><ellipse cx="171.289" cy="396.175" rx="14.979" ry="26.521" transform="rotate(-45 171.229 396.236)" fill="#000000" data-original="#f0e9e6" class=""></ellipse><ellipse cx="235.664" cy="363.601" rx="26.521" ry="14.979" transform="rotate(-45 235.616 363.671)" fill="#000000" data-original="#f0e9e6" class=""></ellipse><ellipse cx="171.289" cy="328.391" rx="14.979" ry="26.521" transform="rotate(-45 171.242 328.447)" fill="#000000" data-original="#f0e9e6" class=""></ellipse><ellipse cx="235.664" cy="295.816" rx="26.521" ry="14.979" transform="rotate(-45 235.628 295.881)" fill="#000000" data-original="#f0e9e6" class=""></ellipse></g></g></svg>