<?xml version="1.0" encoding="UTF-8" standalone="no"?>
<!-- Created with Inkscape (http://www.inkscape.org/) -->

<svg
   version="1.1"
   id="svg7800"
   xml:space="preserve"
   width="682.66669"
   height="682.66669"
   viewBox="0 0 682.66669 682.66669"
   xmlns="http://www.w3.org/2000/svg"
   xmlns:svg="http://www.w3.org/2000/svg"><defs
     id="defs7804"><clipPath
       clipPathUnits="userSpaceOnUse"
       id="clipPath7814"><path
         d="M 0,512 H 512 V 0 H 0 Z"
         id="path7812" /></clipPath></defs><g
     id="g7806"
     transform="matrix(1.3333333,0,0,-1.3333333,0,682.66667)"><g
       id="g7808"><g
         id="g7810"
         clip-path="url(#clipPath7814)"><g
           id="g7816"
           transform="translate(185.6982,231.8877)"><path
             d="m 0,0 c 40.765,-40.765 40.765,-106.858 0,-147.624 -40.766,-40.765 -106.859,-40.765 -147.625,0 -40.765,40.766 -40.765,106.859 0,147.624 C -106.859,40.766 -40.766,40.766 0,0"
             style="fill:#bccf64;fill-opacity:1;fill-rule:nonzero;stroke:none"
             id="path7818" /></g><g
           id="g7820"
           transform="translate(252.2339,298.4238)"><path
             d="m 0,0 c 40.765,-40.766 106.859,-40.766 147.624,0 40.765,40.766 40.765,106.858 0,147.624 C 106.859,188.39 40.765,188.39 0,147.624 -40.765,106.858 -40.765,40.766 0,0"
             style="fill:#bccf64;fill-opacity:1;fill-rule:nonzero;stroke:none"
             id="path7822" /></g><g
           id="g7824"
           transform="translate(435.2808,414.0244)"><path
             d="M 0,0 C 0,0 22.52,30.225 56.137,29.745 66.181,29.602 72.482,40.576 67.449,49.27 L 57.04,67.248 C 51.544,76.739 40.192,81.13 29.731,77.835 -4.33,67.105 -11.713,25.492 -11.713,25.492 Z"
             style="fill:#95b75c;fill-opacity:1;fill-rule:nonzero;stroke:none"
             id="path7826" /></g><g
           id="g7828"
           transform="translate(332.4443,353.5039)"><path
             d="m 0,0 c -45.014,0 -83.417,28.283 -98.425,68.045 -21.191,-39.511 -15.124,-89.787 18.215,-123.125 40.765,-40.766 106.858,-40.766 147.624,0 C 96.901,-25.592 105.053,17.146 91.88,53.968 73.898,21.773 39.495,0 0,0"
             style="fill:#a7c565;fill-opacity:1;fill-rule:nonzero;stroke:none"
             id="path7830" /></g><g
           id="g7832"
           transform="translate(319.1265,312.6201)"><path
             d="m 0,0 c 40.765,-40.766 40.765,-106.859 0,-147.624 -40.766,-40.766 -106.859,-40.766 -147.625,0 -40.765,40.765 -40.765,106.858 0,147.624 C -106.859,40.765 -40.766,40.765 0,0"
             style="fill:#bccf64;fill-opacity:1;fill-rule:nonzero;stroke:none"
             id="path7834" /></g><g
           id="g7836"
           transform="translate(463.6899,470.5391)"><path
             d="m 0,0 c -3.857,5.406 -8.497,9.97 -13.703,13.618 -21.31,-15.862 -26.419,-44.64 -26.419,-44.64 l 11.713,-25.494 c 0,0 17.413,23.358 44.467,28.675 C 11.622,-18.105 6.259,-8.773 0,0"
             style="fill:#86ab4e;fill-opacity:1;fill-rule:nonzero;stroke:none"
             id="path7838" /></g><g
           id="g7840"
           transform="translate(50.2661,191.7852)"><path
             d="M 0,0 C 0,20.353 3.908,39.792 11.007,57.613 2.69,52.999 -5.131,47.163 -12.192,40.103 c -40.766,-40.765 -40.766,-106.859 0,-147.624 25.196,-25.197 60.067,-34.812 92.655,-28.862 C 32.488,-109.832 0,-58.714 0,0"
             style="fill:#a7c565;fill-opacity:1;fill-rule:nonzero;stroke:none"
             id="path7842" /></g><g
           id="g7844"
           transform="translate(279.6392,189.5117)"><path
             d="m 0,0 c -56.298,0 -101.938,45.639 -101.938,101.938 0,10.683 1.647,20.981 4.695,30.657 -3.792,-2.871 -7.436,-6.029 -10.894,-9.487 -40.765,-40.765 -40.765,-106.859 0,-147.625 40.765,-40.764 106.859,-40.764 147.624,0 C 53.741,-10.262 63.004,7.09 67.29,25.372 49.337,9.581 25.789,0 0,0"
             style="fill:#a7c565;fill-opacity:1;fill-rule:nonzero;stroke:none"
             id="path7846" /></g><g
           id="g7848"
           transform="translate(439.2676,453.1172)"><path
             d="m 0,0 c -12.656,17.74 -40.077,13.447 -47.262,-7.127 -22.49,-64.395 -72.476,-140.758 -142.796,-211.078 -70.319,-70.318 -146.678,-120.304 -211.073,-142.794 -20.571,-7.185 -24.87,-34.605 -7.132,-47.258 53.421,-38.105 129.654,-34.715 179.236,14.867 11.751,11.751 21.188,25.326 28.01,40.14 38.801,-2.005 77.153,12.326 105.415,40.589 28.263,28.263 42.587,66.621 40.589,105.415 14.815,6.822 28.389,16.259 40.139,28.01 C 34.648,-129.714 38.137,-53.46 0,0"
             style="fill:#95b75c;fill-opacity:1;fill-rule:nonzero;stroke:none"
             id="path7850" /></g><g
           id="g7852"
           transform="translate(75.0718,107.4209)"><path
             d="m 0,0 c -12.646,-6.014 -24.997,-11.134 -36.936,-15.303 -20.57,-7.184 -24.87,-34.604 -7.131,-47.258 44.043,-31.416 103.59,-34.62 150.926,-6.993 C 62.069,-62.594 23.594,-36.553 0,0"
             style="fill:#86ab4e;fill-opacity:1;fill-rule:nonzero;stroke:none"
             id="path7854" /></g><g
           id="g7856"
           transform="translate(173.938,231.8643)"><path
             d="M 0,0 7.524,-7.524"
             style="fill:none;stroke:#000000;stroke-width:15;stroke-linecap:round;stroke-linejoin:round;stroke-miterlimit:10;stroke-dasharray:none;stroke-opacity:1"
             id="path7858" /></g><g
           id="g7860"
           transform="translate(252.2559,310.1826)"><path
             d="M 0,0 7.525,-7.524"
             style="fill:none;stroke:#000000;stroke-width:15;stroke-linecap:round;stroke-linejoin:round;stroke-miterlimit:10;stroke-dasharray:none;stroke-opacity:1"
             id="path7862" /></g><g
           id="g7864"
           transform="translate(210.0737,253.3984)"><path
             d="m 0,0 c 5.391,-0.37 10.906,1.5 15.027,5.621 4.121,4.121 5.991,9.637 5.621,15.027"
             style="fill:none;stroke:#000000;stroke-width:15;stroke-linecap:round;stroke-linejoin:round;stroke-miterlimit:10;stroke-dasharray:none;stroke-opacity:1"
             id="path7866" /></g><g
           id="g7868"
           transform="translate(35.9473,156.9619)"><path
             d="M 0,0 4.044,-7.541"
             style="fill:none;stroke:#000000;stroke-width:15;stroke-linecap:round;stroke-linejoin:round;stroke-miterlimit:10;stroke-dasharray:none;stroke-opacity:1"
             id="path7870" /></g><g
           id="g7872"
           transform="translate(114.4287,199.0605)"><path
             d="M 0,0 4.045,-7.54"
             style="fill:none;stroke:#000000;stroke-width:15;stroke-linecap:round;stroke-linejoin:round;stroke-miterlimit:10;stroke-dasharray:none;stroke-opacity:1"
             id="path7874" /></g><g
           id="g7876"
           transform="translate(68.7666,165.1455)"><path
             d="m 0,0 c 4.064,-1.537 8.745,-1.379 12.874,0.837 4.129,2.215 6.85,6.026 7.817,10.263"
             style="fill:none;stroke:#000000;stroke-width:15;stroke-linecap:round;stroke-linejoin:round;stroke-miterlimit:10;stroke-dasharray:none;stroke-opacity:1"
             id="path7878" /></g><g
           id="g7880"
           transform="translate(327.1592,448.1738)"><path
             d="M 0,0 7.54,-4.045"
             style="fill:none;stroke:#000000;stroke-width:15;stroke-linecap:round;stroke-linejoin:round;stroke-miterlimit:10;stroke-dasharray:none;stroke-opacity:1"
             id="path7882" /></g><g
           id="g7884"
           transform="translate(285.0596,369.6914)"><path
             d="M 0,0 7.541,-4.045"
             style="fill:none;stroke:#000000;stroke-width:15;stroke-linecap:round;stroke-linejoin:round;stroke-miterlimit:10;stroke-dasharray:none;stroke-opacity:1"
             id="path7886" /></g><g
           id="g7888"
           transform="translate(318.9751,415.3535)"><path
             d="m 0,0 c 1.537,-4.063 1.378,-8.744 -0.836,-12.874 -2.216,-4.129 -6.027,-6.85 -10.264,-7.817"
             style="fill:none;stroke:#000000;stroke-width:15;stroke-linecap:round;stroke-linejoin:round;stroke-miterlimit:10;stroke-dasharray:none;stroke-opacity:1"
             id="path7890" /></g><g
           id="g7892"
           transform="translate(502.7285,463.2939)"><path
             d="m 0,0 -10.409,17.979 c -5.495,9.491 -16.848,13.881 -27.309,10.586 -17.504,-5.513 -27.961,-19.183 -33.993,-31.17 3.102,-1.808 5.925,-4.315 8.249,-7.572 5.151,-7.221 9.536,-14.862 13.158,-22.793 9.722,7.051 23.117,13.672 38.992,13.446 C -1.268,-19.668 5.033,-8.693 0,0 Z"
             style="fill:none;stroke:#000000;stroke-width:15;stroke-linecap:round;stroke-linejoin:round;stroke-miterlimit:10;stroke-dasharray:none;stroke-opacity:1"
             id="path7894" /></g><g
           id="g7896"
           transform="translate(106.0244,123.6172)"><path
             d="M 0,0 C 21.073,11.999 42.678,26.245 64.334,42.55 39.95,67.696 30.725,102.077 36.65,134.215 0.877,145.223 -39.644,136.579 -67.952,108.271 -106.947,69.275 -108.635,7.105 -73.025,-33.902 c 1.58,0.945 3.29,1.758 5.135,2.403 13.421,4.687 27.365,10.578 41.662,17.592"
             style="fill:none;stroke:#000000;stroke-width:15;stroke-linecap:round;stroke-linejoin:round;stroke-miterlimit:10;stroke-dasharray:none;stroke-opacity:1"
             id="path7898" /></g><g
           id="g7900"
           transform="translate(280.3354,466.1035)"><path
             d="m 0,0 c -10.151,-4.943 -19.67,-11.623 -28.103,-20.056 -28.308,-28.308 -36.951,-68.829 -25.943,-104.601 32.137,5.925 66.518,-3.3 91.664,-27.685 34.503,45.826 59.802,91.43 74.051,132.229 0.644,1.844 1.456,3.552 2.401,5.132 C 89.817,6.078 58.163,14.085 28.277,9.052"
             style="fill:none;stroke:#000000;stroke-width:15;stroke-linecap:round;stroke-linejoin:round;stroke-miterlimit:10;stroke-dasharray:none;stroke-opacity:1"
             id="path7902" /></g><g
           id="g7904"
           transform="translate(249.208,234.9121)"><path
             d="M 0,0 C 25.768,25.768 48.791,52.346 68.746,78.85 27.896,118.462 -37.329,118.086 -77.707,77.708 -118.086,37.329 -118.462,-27.895 -78.849,-68.745 -52.346,-48.791 -25.767,-25.767 0,0 Z"
             style="fill:none;stroke:#000000;stroke-width:15;stroke-linecap:round;stroke-linejoin:round;stroke-miterlimit:10;stroke-dasharray:none;stroke-opacity:1"
             id="path7906" /></g><g
           id="g7908"
           transform="translate(79.7949,109.7129)"><path
             d="m 0,0 c -14.296,-7.01 -28.241,-12.908 -41.66,-17.595 -20.57,-7.184 -24.87,-34.604 -7.132,-47.258 53.421,-38.105 129.654,-34.714 179.236,14.868 11.751,11.751 21.189,25.325 28.011,40.139 38.8,-2.005 77.152,12.326 105.415,40.589 28.262,28.263 42.587,66.621 40.588,105.415 14.815,6.822 28.389,16.26 40.14,28.011 49.522,49.521 53.01,125.775 14.873,179.235 -12.656,17.741 -40.076,13.448 -47.262,-7.127 C 289.72,271.882 239.733,195.52 169.413,125.199 122.59,78.376 73.092,40.585 26.228,13.906"
             style="fill:none;stroke:#000000;stroke-width:15;stroke-linecap:round;stroke-linejoin:round;stroke-miterlimit:10;stroke-dasharray:none;stroke-opacity:1"
             id="path7910" /></g></g></g></g></svg>
