<svg id="icons" height="512" viewBox="0 0 340 340" width="512" xmlns="http://www.w3.org/2000/svg"><path d="m144.694 119.552c-9.913-5.418-13.514-13.351-14.822-18.221-.942-10.444-1.917-18.638-2.594-23.834a20.188 20.188 0 0 0 -1.115-7.156 3.492 3.492 0 0 0 -6.669 1.9c.016.1.327 2.108.8 5.728-.05 5.189-1.752 14.34-10.21 26.98a137.479 137.479 0 0 0 -16.341 34.961 3.492 3.492 0 0 0 6.689 2.006 130.114 130.114 0 0 1 15.458-33.089 84.238 84.238 0 0 0 6.29-11.016 29.044 29.044 0 0 0 .783 4.637 688.562 688.562 0 0 1 2.054 94.566 3.491 3.491 0 0 0 3.308 3.665h.182a3.492 3.492 0 0 0 3.484-3.314 682.5 682.5 0 0 0 -.83-79.612 38.756 38.756 0 0 0 10.184 7.921c25.126 13.735 25.555 37.563 25.561 38.56a3.492 3.492 0 1 0 6.983 0c0-1.168-.331-28.905-29.195-44.682z" fill="#3e6a51"/><path d="m104.4 148.8.514-4.088a14.888 14.888 0 0 0 -1.126-7.667c-.026-.056-.051-.112-.078-.168a7.416 7.416 0 0 0 -12.549-1.377 29.564 29.564 0 0 0 -3.4 5.531c-.969 2.078-2.183 5.472-5.3 8.229a14.425 14.425 0 0 0 -1.793 1.967c4.337 7.959 20.26 7.418 23.732-2.427z" fill="#80b297"/><path d="m80.676 151.228c-2.5 3.227-5.386 8.909-7.237 16.544l27.54 8.262 3.421-27.234c-4.86 3.571-12.676 6.505-23.724 2.428z" fill="#3e6a51"/><path d="m102.72 166.932a21.017 21.017 0 0 0 -25.712-7.041c-10.565 4.7-24.072 17.2-30.173 49.885a99.855 99.855 0 0 0 -1.751 23.873c5.8 19.385 22.259 23.448 45.589 17.632 18.086-17.269 25.682-40.206 19.283-70.7a62.963 62.963 0 0 0 -7.236-13.649z" fill="#f7616c"/><path d="m107.887 256.513c6.929-11.684 11.347-28.073 8.274-50.776a108.271 108.271 0 0 0 -6.213-25.157c.545 22.033-3.551 56.014-33.128 61.168-15.692 2.735-25.545-1.5-31.734-8.1a71.477 71.477 0 0 0 2.372 14.962c7.774 28.361 45.43 33.195 60.429 7.903z" fill="#b73d49"/><path d="m152.916 6.481a7.183 7.183 0 0 1 5 11.478 79.413 79.413 0 0 1 -11.156 12.16c-21.042 18.3-46.886 23.328-71.815 25.844-.004 0 5.593-56.743 77.971-49.482z" fill="#80b297"/><path d="m128.205 22.47a3.491 3.491 0 0 0 -4.181-2.627c-1.364.312-33.63 7.934-51.945 34.119-17.749 25.377-44.618 39.938-44.888 40.083a3.492 3.492 0 1 0 3.29 6.16c1.158-.619 28.584-15.451 47.321-42.241 16.74-23.934 47.472-31.243 47.777-31.313a3.491 3.491 0 0 0 2.626-4.181z" fill="#3e6a51"/><path d="m178.768 74.843s29.389 14.333 34.362 62.6c4.01 38.919 22.665 66.807 53.051 77.222a20.489 20.489 0 0 0 27.041-19.165 99.41 99.41 0 0 0 -24.222-66.249c-36.271-42.707-90.232-54.408-90.232-54.408z" fill="#80b297"/><path d="m211.017 91.883c-16.116-14-28.983-19.486-30.789-20.217-24.252-12.666-51.184-10.718-52.322-10.625a3.491 3.491 0 0 0 .544 6.959c.259-.02 26.231-1.862 48.7 9.932a3.39 3.39 0 0 0 .358.163c.514.2 51.731 20.926 79.308 94.07a3.491 3.491 0 1 0 6.534-2.463c-14.996-39.762-36.736-64.265-52.333-77.819z" fill="#3e6a51"/><circle cx="267.241" cy="187.514" fill="#3e6a51" r="3.553"/><path d="m139.412 55.963s45.9-10.007 88.1 5.988a112.1 112.1 0 0 0 96.066-7.467 8.17 8.17 0 0 0 -1.892-14.979c-19.141-5.2-50.91-13.2-92.51-7.707a375.582 375.582 0 0 0 -89.764 24.165z" fill="#80b297"/><path d="m179.675 170.4a13.091 13.091 0 0 1 -.829-3.343l-1.108-9.856a3.642 3.642 0 0 0 -4.588-3.1 31.735 31.735 0 0 0 -5.7 2.129 11.2 11.2 0 0 0 -6.127 8.927l-1.533 15.114c2.985 7.984 22.443 5.567 19.885-9.871z" fill="#80b297"/><path d="m182.285 174.522a12.883 12.883 0 0 1 -2.6-4.122c-2.751 5.122-8.406 10.679-19.9 9.877l-1.468 14.472 32.351-4.493a37.248 37.248 0 0 0 -8.383-15.734z" fill="#3e6a51"/><path d="m182.821 185.071a27.061 27.061 0 0 0 -19.446 2.834c-10.063 5.666-23.744 20.36-20.774 58.154a185.346 185.346 0 0 0 4.123 27.95c5.257 17.171 18.662 24.285 42.736 18.232 18.109-21.363 23.245-48.724 14.628-82.446-6.513-17.281-13.908-22.977-21.267-24.724z" fill="#f7616c"/><path d="m204.088 209.8c1.767 24.488 2.964 54.778-21.424 67.67-14.73 7.786-25.89 4.792-35.936-3.458 3.813 16.151 9.506 26.629 16.122 33.667 13.531 14.392 37.418 10.47 46.025-7.311 5.463-11.287 8.769-28.114 4.578-52.841-2.793-16.48-5.953-28.691-9.365-37.727z" fill="#b73d49"/><path d="m140.343 209.976a15.631 15.631 0 0 1 -3.8-7.8l-1.156-6.628a7.023 7.023 0 0 0 -7.746-5.767 7.023 7.023 0 0 0 -6.174 6.43l-.684 8.8a31.2 31.2 0 0 1 -2.372 9.946 32.443 32.443 0 0 0 -2.141 8.748c9.549 5.127 24.699-1.211 24.073-13.729z" fill="#80b297"/><path d="m145.2 219.965a15.63 15.63 0 0 0 -4.415-9.517c-.152-.155-.292-.319-.437-.479-3.066 5.652-10.305 15.03-24.082 13.743a81.567 81.567 0 0 0 -.42 13.36h30.932z" fill="#3e6a51"/><path d="m146.746 235.075a21.521 21.521 0 0 0 -30.162-3.412c-8.92 6.949-18.943 21.089-18.71 49.509a86.217 86.217 0 0 0 2.785 21.834c5.334 12.343 18.834 14.371 34.677 13.443 17.637-14.475 26.184-35.6 18.139-68.852a44.685 44.685 0 0 0 -6.729-12.522z" fill="#f7616c"/><path d="m225.023 44.678c-110.674-4.802-212.723 54.705-212.723 54.705v24.582s32.155-18.493 78.821-39.621a21.626 21.626 0 0 1 12.362-1.644c8.468 1.367 20.394-.25 26.646-7.548a33.2 33.2 0 0 1 9.111-6.157c36.751-17.212 85.783-24.317 85.783-24.317z" fill="#3e6a51"/><path d="m297.615 44.606c-.642-.1-65.058-9.373-143.232 6.72a3.491 3.491 0 1 0 1.408 6.839c76.9-15.828 140.166-6.745 140.8-6.652a3.492 3.492 0 0 0 1.028-6.907z" fill="#3e6a51"/><path d="m153.473 247.6c2.264 19.038 2.531 52.612-22.305 58.865-13.439 3.384-23.344.98-30.452-3.266a56.876 56.876 0 0 0 12.26 23.268 23.1 23.1 0 0 0 38.279-5.969c4.581-9.982 8.053-24.581 7.065-45.594-.546-11.597-2.37-20.487-4.847-27.304z" fill="#b73d49"/><g fill="#ffe9e9"><path d="m73.828 171.472c-5.2 3.934-12.9 12.17-15.738 27.663a2.989 2.989 0 0 0 3.395 3.5c4.043-.609 10.106-2.7 12.88-9.572 2.583-6.4 3.708-13.874 4.2-18.9a2.972 2.972 0 0 0 -4.737-2.691z"/><path d="m118.973 243.26c-3.989 3.763-9.671 11.351-10.63 24.561a2.512 2.512 0 0 0 3.157 2.613c3.324-.878 8.2-3.177 9.893-9.177a60.065 60.065 0 0 0 1.781-16.184 2.5 2.5 0 0 0 -4.201-1.813z"/><path d="m166.679 194.872c-4.844 4.57-11.744 13.785-12.909 29.826a3.051 3.051 0 0 0 3.834 3.174c4.036-1.066 9.959-3.857 12.014-11.145 1.912-6.783 2.225-14.494 2.163-19.653a3.035 3.035 0 0 0 -5.102-2.202z"/></g></svg>