<svg clip-rule="evenodd" fill-rule="evenodd" height="512" image-rendering="optimizeQuality" shape-rendering="geometricPrecision" text-rendering="geometricPrecision" viewBox="0 0 180.622 180.622" width="512" xmlns="http://www.w3.org/2000/svg" xmlns:xlink="http://www.w3.org/1999/xlink"><linearGradient id="id0" gradientUnits="userSpaceOnUse" x1="51.824" x2="128.047" y1="90.311" y2="90.311"><stop offset="0" stop-color="#ff6302"/><stop offset=".541176" stop-color="#ff4202"/><stop offset="1" stop-color="#ff2101"/></linearGradient><g id="Layer_x0020_1"><path d="m85.2886 180.621c-6.1171 0-11.1945-1.476-15.0913-4.3874-2.5365-1.8947-4.4942-4.3372-5.8573-7.2984l41.6712 7.2002c-7.3937 2.937-14.4476 4.4856-20.7226 4.4856zm-57.5175-23.5379c-1.1247 0-2.1981-.4445-2.9935-1.24-1.6524-1.6524-1.6524-4.3339 0-5.9862l136.496-136.496c1.6523-1.6524 4.334-1.6523 5.9863.0001 1.6525 1.6528 1.6526 4.3338-.0001 5.9865l-136.495 136.496c-.7953.7953-1.869 1.2397-2.9935 1.2397zm35.032 7.2905c-.1412-.6119-.2634-1.2397-.3665-1.8833-.5156-3.2189-2.0205-6.986-4.3101-10.9763l70.159 12.1563c-1.3879 1.0003-2.7935 1.9698-4.2155 2.9067-3.7308 2.4583-7.4635 4.6163-11.1478 6.4564zm-7.7564-17.6892c-1.2016-1.7175-2.5259-3.4514-3.9581-5.1782l6.2528-6.2529 84.9231 16.7218c-2.9976 2.892-6.1231 5.6312-9.3591 8.1994zm-15.9318-17.1517c-1.7246-1.4303-3.4561-2.7531-5.1713-3.9534l-13.5059-77.8258c2.5604-3.22 5.3078-6.3547 8.213-9.3678l16.7173 84.8939zm-10.0024-7.0349c-3.9921-2.2912-7.761-3.7971-10.981-4.313-.6429-.1029-1.2693-.2265-1.8805-.3681l-8.6696-50.0778c.7807-1.5671 1.6186-3.1434 2.5128-4.7249 2.0342-3.5978 4.3283-7.1621 6.8472-10.6499zm-17.4246-6.2236c-8.3422-3.8492-12.4942-12.3296-11.5546-24.137.4306-5.4115 1.9101-11.3233 4.35-17.4787zm20.8192-81.7275c.5182-.4952 1.0405-.9866 1.5671-1.4737 3.0667-2.8363 6.2362-5.5022 9.4952-7.9944l16.4522 83.5474-10.8005 10.8005zm39.4881 86.0528 83.556 16.4519c-2.9503 3.8654-6.1098 7.5632-9.4514 11.0658l-84.9047-16.7177zm-24.3964-98.4813c3.4175-2.4106 6.9244-4.6346 10.5069-6.6677l15.6449 79.4466-9.8757 9.8756zm38.1251 84.7526 79.4628 15.647c-1.1327 1.987-2.3265 3.9564-3.5817 5.9072-.9996 1.5537-2.0322 3.0863-3.0965 4.5959l-82.6595-16.2753zm-23.4511-93.6815c3.5358-1.8315 7.1381-3.4801 10.7947-4.941l14.4072 72.9247-9.8709 9.8708zm37.179 79.9534 72.9826 14.3824c-1.4651 3.6593-3.1246 7.2698-4.9767 10.8269l-77.8798-15.3354zm-22.0915-86.5141c3.6773-1.307 7.4035-2.4261 11.1665-3.3525l12.6773 64.1675-9.8775 9.8775zm35.8204 72.7852 64.2149 12.654c-.9191 3.7649-2.033 7.488-3.3397 11.1647l-70.7508-13.9431zm-20.2375-77.1328c3.8-.7778 7.632-1.3605 11.4841-1.7414l10.5057 53.1752-9.8771 9.8771zm33.9667 63.4035 53.1848 10.4801-.0361.3657c-.3754 3.7412-.9351 7.449-1.6772 11.1195l-61.3475-12.0892zm-17.9398-65.4987c2.1074-.1215 4.219-.1844 6.3331-.1844 1.8259 0 3.6547.0446 5.4859.1335l7.873 39.8507-9.8775 9.8776-9.8145-49.6774zm31.6687 51.7698 39.8473 7.8526c.1914 3.9471.1772 7.8856-.0434 11.8118l-49.6792-9.7891zm-15.1732-51.4977c4.05.3626 8.1091.9409 12.1711 1.7332l4.7545 24.0655-9.8772 9.8772zm28.9025 37.7684 24.0641 4.7418c.792 4.0591 1.3693 8.1148 1.7313 12.1634l-35.6711-7.0295zm-11.9131-34.9955c5.8381 1.3812 11.6773 3.2035 17.4994 5.4625l-13.7113 13.7114zm29.4735 17.4349c2.2611 5.8233 4.0827 11.6555 5.4629 17.4846l-19.1701-3.7774z" fill="url(#id0)"/></g></svg>