<svg id="Capa_1" enable-background="new 0 0 512 512" height="512" viewBox="0 0 512 512" width="512" xmlns="http://www.w3.org/2000/svg"><g><path d="m245.003 21.995c-117.558 0-215.76 82.802-239.51 193.261l249.546 296.522c130.656-5.267 234.967-112.833 234.967-244.781-.001-135.31-109.692-245.002-245.003-245.002z" fill="#45314d"/><g><path d="m458.804 284.329c-4.212 0-8.13-2.683-9.506-6.904-42.287-129.745-156.155-193.708-157.301-194.339-4.838-2.665-6.599-8.747-3.934-13.584 2.666-4.839 8.746-6.598 13.584-3.934 1.25.688 31.024 17.253 66.541 50.87 32.772 31.02 76.745 83.055 100.125 154.789 1.711 5.251-1.158 10.895-6.409 12.607-1.029.335-2.074.495-3.1.495z" fill="#e51e82"/></g><path d="m462.838 161.849c-9.799-8.101-13.857-20.653-15.536-29.758-.316-1.713-.561-3.37-.752-4.943-28.654 24.2-26.14 53.611-18.542 74.606 5.656 15.626 25.757 20.039 37.383 8.164 12.42-12.688 21.574-26.415 28.34-39.78-12.696.944-23.057-1.813-30.893-8.289z" fill="#fe3d97"/><path d="m392.499 87.323c-11.273-3.338-19.293-12.031-24.362-19.516-14.276 25.227-6.12 48.202 4.32 63.93 8.505 12.814 27.547 12.384 35.402-.839 9.852-16.583 15.349-33.471 18.247-48.931-12.111 6.568-23.381 8.386-33.607 5.356z" fill="#fd77a6"/><path d="m290.25 91.133c-18.274 2.224-38.959 15.406-59.13 51.007-2.5 4.413.333 9.958 5.371 10.544 15.184 1.767 45.36 2.696 76.494-10.956-42.524-7.341-26.597-43.088-22.735-50.595z" fill="#fe3d97"/><path d="m290.972 56.671c-8.586-16.057-28.364-34.257-71.373-7.653-2.927 1.811-3.05 6.035-.243 8.027 9.841 6.984 32.116 19.921 60.753 18.71 9.529-.403 15.361-10.673 10.863-19.084z" fill="#fd77a6"/><path d="m303.471 90c-21.738-6.908-48.672-27.112-25.727-86.162 1.562-4.019 6.737-5.135 9.832-2.133 10.85 10.526 31.872 35.007 36.92 70.556 1.68 11.829-9.639 21.358-21.025 17.739z" fill="#fea2c8"/><path d="m399.909 175.178c-24.431-15.95-66.238-26.291-106.182 44.214-2.719 4.799.362 10.829 5.841 11.467 19.207 2.234 60.469 3.258 99.775-20.499 13.078-7.905 13.362-26.828.566-35.182z" fill="#fe3d97"/><path d="m175.974 162.78c1.113 0 2.222.02 3.33.042-.913-.726-1.76-1.333-2.539-1.817-7.892-4.896-12.026-10.461-12.29-16.539-.486-11.217 12.268-20.889 12.396-20.984l1.37-1.173c-.756-.008-1.51-.029-2.268-.029-71.522 0-134.389 37.038-170.482 92.976-3.585 16.682-5.491 33.988-5.491 51.742 0 31.455 5.935 61.522 16.734 89.152-1.966-10.076-3.007-20.479-3.007-31.122 0-89.463 72.784-162.248 162.247-162.248z" fill="#ddd1cc"/><path d="m344.693 394.75c-8.38-3.404-13.178-11.065-15.559-16.182-22.169 63.234-82.449 108.708-153.16 108.708-20.409 0-39.944-3.798-57.951-10.708 37.03 22.484 80.493 35.432 126.98 35.432 3.363 0 6.705-.087 10.036-.221 51.677-21.906 92.38-64.637 111.599-117.665-8.271 2.98-15.622 3.204-21.945.636z" fill="#ddd1cc"/><path d="m175.974 162.28c.252.156.512.328.777.51 89.107.421 161.471 73.034 161.471 162.238 0 19.503-3.461 38.213-9.798 55.549 4.504 8.887 15.376 22.738 37.551 15.358 8.241-22.071 12.746-45.963 12.746-70.908 0-111.974-90.773-202.747-202.747-202.747 0 .001-29.278 21.833 0 40z" fill="#f9f2f2"/><path d="m174.719 162.484c-2.082 3.882-11.274 22.489-5.461 38.445 3.097 8.502 9.961 14.746 20.4 18.559 12.078 4.411 18.577 9.706 19.316 15.738 1.024 8.352-9.529 15.587-9.637 15.659l-.347.234-.077.411c-.205 1.1-4.862 27.137 9.124 44.873 7.528 9.548 19.049 14.782 34.241 15.558 26.884 1.371 35.745 7.832 38.445 13.011 2.782 5.334-.273 10.334-.402 10.542l-.107.171-.033.199c-.123.737-2.875 18.213 8.499 31.636 8.196 9.672 21.544 14.605 39.667 14.674 6.698-17.795 10.374-37.058 10.374-57.166 0-89.739-73.009-162.748-162.748-162.748-.487 0-.971.014-1.457.019z" fill="#fd77a6"/><path d="m13.227 325.028c0 9.706.857 19.214 2.494 28.457 11.358 30.095 28.479 57.356 50.003 80.46l45.394 38.243c3.084 2.017 6.213 3.971 9.392 5.85 17.318 6.297 35.996 9.737 55.464 9.737 70.006 0 129.828-44.432 152.753-106.575-55.073-.002-47.559-45.152-47.559-45.152s14.142-22.383-38.838-25.086c-52.979-2.703-42.432-59.247-42.432-59.247s28.437-19.167-9.897-33.167c-38.333-14-14.027-56.268-14.027-56.268-89.739 0-162.747 73.009-162.747 162.748z" fill="#fe3d97"/><path d="m153.887 251.534-3.96-.575c-3.448-.501-6.429-2.666-7.971-5.791l-1.771-3.588c-3.883-7.868-15.103-7.868-18.986 0l-1.771 3.588c-1.542 3.124-4.523 5.29-7.971 5.791l-3.96.575c-8.683 1.262-12.15 11.932-5.867 18.057l2.865 2.793c2.495 2.432 3.633 5.936 3.044 9.37l-.676 3.944c-1.483 8.648 7.594 15.242 15.36 11.159l3.542-1.862c3.084-1.622 6.768-1.622 9.852 0l3.542 1.862c7.766 4.083 16.843-2.512 15.36-11.159l-.676-3.944c-.589-3.434.55-6.938 3.045-9.37l2.865-2.793c6.283-6.125 2.817-16.796-5.866-18.057z" fill="#fea2c8"/><path d="m238.673 213.591-3.96-.575c-3.448-.501-6.429-2.666-7.971-5.791l-1.771-3.588c-3.883-7.868-15.103-7.868-18.986 0l-1.771 3.588c-1.542 3.125-4.523 5.29-7.971 5.791l-3.96.575c-8.683 1.262-12.15 11.932-5.867 18.057l2.865 2.793c2.495 2.432 3.633 5.936 3.044 9.37l-.676 3.944c-1.483 8.648 7.594 15.242 15.36 11.159l3.542-1.862c3.084-1.622 6.768-1.622 9.852 0l3.542 1.862c7.766 4.083 16.843-2.512 15.36-11.159l-.676-3.944c-.589-3.434.55-6.938 3.044-9.37l2.865-2.793c6.285-6.125 2.818-16.795-5.865-18.057z" fill="#f9f2f2"/><path d="m289.443 295.609-3.96-.575c-3.448-.501-6.429-2.667-7.971-5.791l-1.771-3.588c-3.883-7.868-15.103-7.868-18.986 0l-1.771 3.588c-1.542 3.124-4.523 5.29-7.971 5.791l-3.96.575c-8.683 1.262-12.15 11.932-5.867 18.057l2.865 2.793c2.495 2.432 3.633 5.936 3.044 9.37l-.676 3.944c-1.483 8.648 7.594 15.242 15.36 11.159l3.542-1.862c3.084-1.622 6.768-1.622 9.852 0l3.542 1.862c7.766 4.083 16.843-2.512 15.36-11.159l-.676-3.944c-.589-3.434.55-6.938 3.044-9.37l2.865-2.793c6.285-6.125 2.818-16.795-5.865-18.057z" fill="#f9f2f2"/><g fill="#fea2c8"><path d="m265.524 394.423-3.96-.575c-3.448-.501-6.429-2.667-7.971-5.791l-1.771-3.588c-3.883-7.868-15.103-7.868-18.986 0l-1.771 3.588c-1.542 3.125-4.523 5.29-7.971 5.791l-3.96.575c-8.683 1.262-12.15 11.932-5.867 18.057l2.865 2.793c2.495 2.432 3.633 5.936 3.044 9.37l-.676 3.944c-1.483 8.648 7.594 15.242 15.36 11.159l3.542-1.862c3.084-1.622 6.768-1.622 9.852 0l3.542 1.862c7.766 4.083 16.843-2.512 15.36-11.159l-.677-3.944c-.589-3.434.55-6.938 3.044-9.37l2.865-2.793c6.286-6.125 2.819-16.795-5.864-18.057z"/><path d="m190.823 340.797-3.96-.575c-3.448-.501-6.429-2.667-7.971-5.791l-1.771-3.588c-3.883-7.868-15.103-7.868-18.986 0l-1.771 3.588c-1.542 3.124-4.523 5.29-7.971 5.791l-3.96.575c-8.683 1.262-12.15 11.932-5.867 18.057l2.865 2.793c2.495 2.432 3.633 5.936 3.044 9.37l-.676 3.944c-1.483 8.648 7.594 15.243 15.36 11.159l3.542-1.862c3.084-1.622 6.768-1.622 9.852 0l3.542 1.862c7.766 4.083 16.843-2.512 15.36-11.159l-.677-3.944c-.589-3.434.549-6.938 3.044-9.37l2.865-2.793c6.286-6.125 2.818-16.796-5.864-18.057z"/><path d="m96.191 324.818-3.96-.575c-3.448-.501-6.429-2.667-7.971-5.791l-1.771-3.588c-3.883-7.868-15.103-7.868-18.986 0l-1.771 3.588c-1.542 3.124-4.523 5.29-7.971 5.791l-3.96.575c-8.683 1.262-12.15 11.932-5.867 18.057l2.865 2.793c2.495 2.432 3.633 5.936 3.045 9.37l-.676 3.944c-1.483 8.648 7.594 15.243 15.36 11.16l3.542-1.862c3.084-1.622 6.768-1.622 9.852 0l3.542 1.862c7.766 4.083 16.843-2.512 15.36-11.16l-.676-3.944c-.589-3.434.55-6.938 3.044-9.37l2.865-2.793c6.284-6.125 2.817-16.795-5.866-18.057z"/><path d="m120.948 425.632-3.96-.575c-3.448-.501-6.429-2.667-7.971-5.791l-1.771-3.588c-3.883-7.868-15.103-7.868-18.986 0l-1.771 3.588c-1.542 3.124-4.523 5.29-7.971 5.791l-3.96.575c-4.781.695-7.975 4.243-8.836 8.313 13.506 14.497 28.744 27.358 45.395 38.243 6.181.019 11.639-5.539 10.464-12.393l-.677-3.944c-.589-3.434.55-6.938 3.044-9.37l2.865-2.793c6.285-6.124 2.818-16.794-5.865-18.056z"/></g><ellipse cx="171.217" cy="440.982" fill="#fd8d3e" rx="15.163" ry="20.647"/><ellipse cx="200.136" cy="308.678" fill="#ffc242" rx="20.647" ry="15.163" transform="matrix(.866 -.5 .5 .866 -127.526 141.422)"/><ellipse cx="197.725" cy="282.566" fill="#fef156" rx="15.163" ry="20.647" transform="matrix(.106 -.994 .994 .106 -104.283 449.09)"/><path d="m75.056 279.636c-4.721 10.38-14.727 15.984-22.35 12.518-7.623-3.467-9.976-14.692-5.255-25.072s14.727-15.984 22.35-12.518 9.976 14.692 5.255 25.072z" fill="#fef156"/><ellipse cx="147.946" cy="420.335" fill="#ffc242" rx="15.163" ry="20.647" transform="matrix(.707 -.707 .707 .707 -253.889 227.727)"/><path d="m501.259 100.37c-25.703 7.512-43.534 17.068-55.618 27.566 2.297 17.722 11.605 45.615 47.563 43.251 12.675-24.614 17.157-48.121 18.738-61.778.69-5.958-4.926-10.721-10.683-9.039z" fill="#fd77a6"/><path d="m416.143 24.541c-25.836 14.897-40.781 29.962-48.562 44.277 9.276 13.498 27.997 30.428 58.29 14.421 4.332-22.121 3.28-41.433 1.857-52.907-.684-5.51-6.776-8.564-11.585-5.791z" fill="#fea2c8"/><path d="m328.764 101.481c-10.371-6.771-24.148-12.436-39.589-10.202-4.012 7.865-19.607 43.555 23.54 50.568 5.17-2.253 10.367-4.894 15.528-8.013 12.027-7.269 12.288-24.67.521-32.353z" fill="#fd77a6"/></g></svg>