<svg id="Layer_1" enable-background="new 0 0 512 512" height="512" viewBox="0 0 512 512" width="512" xmlns="http://www.w3.org/2000/svg"><g><path d="m113.498 118.995c-35.186-15.268-48.5-62.695-48.5-62.695s43.733-22.673 78.918-7.405 30.874 55.048 30.874 55.048-26.107 30.321-61.292 15.052z" fill="#57a633"/><path d="m65.002 56.301s13.309 47.427 48.494 62.697 61.293-15.05 61.293-15.05z" fill="#407a26"/><path d="m257.072 103.642c40.465-27.853 45.522-90.741 45.522-90.741s-60.549-17.731-101.014 10.122-25.252 76.789-25.252 76.789 40.28 31.683 80.744 3.83z" fill="#57a633"/><path d="m176.331 99.82s40.279 31.68 80.743 3.825 45.515-90.741 45.515-90.741z" fill="#407a26"/><circle cx="201.822" cy="276.149" fill="#faa237" r="186.924"/><circle cx="201.822" cy="276.149" fill="#faa237" r="186.924"/><g fill="#ed851c"><circle cx="118.372" cy="157.986" r="15.338"/><circle cx="130.665" cy="240.755" r="18.298"/><circle cx="87.735" cy="246.344" r="8.015"/><circle cx="158.662" cy="138.699" r="9.372"/><circle cx="162.178" cy="190.844" r="30.124"/><circle cx="90.923" cy="196.36" r="23.656"/></g><path d="m384.927 313.918-252.565 59.837c-4.181.99-6.753 5.26-5.58 9.393 5.082 17.908 12.817 34.405 22.644 49.199-55.927-32.306-93.565-92.742-93.565-161.971 0-87.131 59.615-160.337 140.281-181.057-100.606 3.003-181.244 85.495-181.244 186.83 0 93.447 68.572 170.874 158.142 184.718 14.947 2.475 31.12 2.781 46.257 1.395 80.659-7.384 149.422-68.397 165.63-148.344z" opacity=".2"/><path d="m361.569 500.056c92.07-21.813 149.975-112.225 132.393-204.257-.806-4.22-5.021-6.882-9.201-5.892l-327.573 77.608c-4.181.99-6.753 5.26-5.58 9.394 25.578 90.137 117.891 144.96 209.961 123.147z" fill="#faa237"/><path d="m356.568 478.756c80.279-19.019 130.891-97.606 116.105-177.838-.778-4.219-4.908-6.948-9.083-5.958l-285.127 67.552c-4.175.989-6.643 5.28-5.444 9.4 22.779 78.337 103.27 125.863 183.549 106.844z" fill="#fae2a0"/><path d="m301.426 354.718-45.268 73.377c-2.581 4.184-8.246 5.254-12.116 2.222-9.394-7.36-17.682-15.984-24.737-25.757-7.057-9.774-12.635-20.354-16.664-31.587-1.66-4.628 1.138-9.668 5.922-10.801l83.895-19.876c7.187-1.703 12.846 6.135 8.968 12.422z" fill="#fab523"/><path d="m323.419 361.631 19.876 83.895c1.133 4.784-2.115 9.546-6.996 10.139-11.847 1.439-23.805 1.201-35.705-.721-11.901-1.921-23.326-5.458-34.119-10.552-4.446-2.099-6.031-7.641-3.45-11.825l45.268-73.377c3.88-6.288 13.423-4.747 15.126 2.441z" fill="#fab523"/><path d="m344.981 351.261 73.377 45.268c4.184 2.581 5.254 8.246 2.222 12.116-7.36 9.394-15.984 17.682-25.757 24.737-9.774 7.057-20.354 12.635-31.587 16.664-4.628 1.66-9.668-1.138-10.801-5.922l-19.876-83.895c-1.703-7.188 6.135-12.847 12.422-8.968z" fill="#fab523"/><path d="m351.895 328.267 83.895-19.876c4.784-1.133 9.546 2.115 10.139 6.996 1.439 11.847 1.201 23.805-.721 35.705-1.921 11.901-5.458 23.326-10.552 34.119-2.099 4.446-7.641 6.031-11.825 3.45l-73.377-45.268c-6.289-3.879-4.748-13.423 2.441-15.126z" fill="#fab523"/><g><path d="m275.36 354.142c2.707-1.952 12.371-5.582 14.323-2.875s-4.548 10.728-7.255 12.679-6.484 1.339-8.436-1.369c-1.953-2.707-1.34-6.483 1.368-8.435z"/><path d="m306.702 378.948c.535-3.294 4.801-12.695 8.095-12.16 3.294.534 4.37 10.802 3.835 14.096-.534 3.294-3.638 5.532-6.933 4.997-3.294-.534-5.531-3.638-4.997-6.933z"/><path d="m346.406 374.326c-1.952-2.707-5.582-12.371-2.875-14.323s10.728 4.548 12.679 7.255c1.952 2.707 1.339 6.484-1.369 8.436s-6.484 1.34-8.435-1.368z"/><path d="m371.212 342.984c-3.294-.534-12.695-4.801-12.16-8.095.534-3.294 10.801-4.37 14.096-3.835 3.294.535 5.532 3.638 4.997 6.933-.535 3.294-3.639 5.531-6.933 4.997z"/><path d="m181.018 390.707c-3.624 1.751-5.143 6.107-3.393 9.732 7.856 16.266 18.358 30.979 31.215 43.729 2.857 2.833 7.471 2.816 10.306-.043 2.834-2.858 2.815-7.472-.043-10.306-11.68-11.583-21.219-24.947-28.353-39.719-1.751-3.624-6.111-5.145-9.732-3.393z"/><path d="m501.124 294.433c-1.563-8.183-9.976-13.564-18.039-11.617l-89.046 21.096c13.002-90.112-38.155-174.119-118.035-207.239 6.835-7.465 12.826-16.397 17.898-26.731 1.773-3.613.283-7.98-3.331-9.753s-7.98-.283-9.753 3.331c-5.508 11.222-12.169 20.468-19.857 27.634-14.79-4.739-30.345-7.746-46.428-8.79l78.156-53.797c-.532 2.461-1.162 5.119-1.909 7.922-1.036 3.889 1.275 7.882 5.165 8.919 3.888 1.035 7.882-1.276 8.919-5.165 4.028-15.111 4.96-26.29 4.997-26.759.277-3.443-1.901-6.608-5.216-7.578-2.608-.764-64.367-18.366-107.192 11.114-14.883 10.244-24.718 24.469-28.908 41.597-5.253-6.53-12.313-12.325-21.724-16.409-37.927-16.459-83.263 6.63-85.174 7.621-3.066 1.589-4.596 5.114-3.662 8.439.484 1.725 10.351 35.867 35.514 56.761-51.771 34.921-85.886 94.111-85.886 161.121 0 4.025 3.262 7.288 7.288 7.288s7.288-3.262 7.288-7.288c0-99.052 80.585-179.637 179.636-179.637 110.42 0 196.624 101.175 176.863 211.037l-223.178 52.874c-8.105 1.876-13.179 10.475-10.91 18.474 8.227 28.994 23.243 55.056 43.618 76.378-73.696-5.45-136.287-54.894-158.195-126.483-1.178-3.85-5.254-6.012-9.101-4.837-3.849 1.178-6.014 5.252-4.837 9.101 24.752 80.896 100.636 139.675 188.384 137.279 43.977 36.129 103.502 49.905 158.782 36.81 43.279-10.252 81.303-35.83 107.07-72.022 2.334-3.278 1.569-7.828-1.71-10.163s-7.829-1.569-10.163 1.71c-23.717 33.311-58.718 56.855-98.557 66.292-88.146 20.885-176.56-30.967-201.27-118.046-.038-.133.091-.272.249-.312 9.02-2.298 36.058-8.543 36.058-8.543-.679 3.506-.423 7.166.804 10.586 4.198 11.705 10.043 22.786 17.372 32.936 7.33 10.151 16.008 19.186 25.794 26.853 4.244 3.325 9.713 4.8 15.077 4.085 1.761 5.099 5.486 9.31 10.377 11.619 11.242 5.305 23.209 9.007 35.572 11.004 12.36 1.996 24.837 2.249 37.224.75 5.368-.65 10.248-3.459 13.528-7.747 4.721 2.302 10.525 2.664 15.579.852 11.703-4.197 22.784-10.042 32.935-17.373 10.152-7.328 19.188-16.007 26.855-25.794 3.338-4.261 4.8-9.707 4.079-15.067 5.035-1.75 9.293-5.446 11.623-10.386 5.306-11.243 9.009-23.211 11.004-35.571 1.996-12.358 2.248-24.882.75-37.227-.448-3.692-1.893-7.046-4.036-9.821l14.389-3.409c16.007 76.307-33.475 151.883-108.905 169.752-36.842 8.728-75.055 2.892-107.601-16.433-3.46-2.053-7.93-.915-9.987 2.546-2.054 3.461-.915 7.932 2.546 9.987 35.902 21.323 78.124 27.626 118.404 18.082 83.493-19.783 137.742-102.81 119.73-187.296l8.405-1.991c.048-.03.335.03.362.168 6.001 31.405 2.973 63.704-8.756 93.404-1.478 3.743.358 7.977 4.101 9.455 3.742 1.48 7.977-.357 9.455-4.101 12.744-32.275 16.035-67.37 9.516-101.492zm-394.356-187.587c-13.941-9.824-23.233-25.335-28.67-36.964l55.726 24.352c-9.384 3.519-18.423 7.745-27.056 12.612zm48.342-19.215-71.127-31.083c14.835-4.814 37.673-9.371 57.037-.968 15.644 6.789 22.2 19.234 24.886 29.701-3.636.683-7.235 1.467-10.796 2.35zm33.688-5.246c-2.651.176-5.288.402-7.909.685-.962-15.002 1.94-38.289 24.827-54.043 24.9-17.141 58.871-15.447 78.67-12.438zm59.089 342.579c-8.708-6.823-16.435-14.867-22.965-23.911-6.528-9.041-11.732-18.907-15.469-29.325-1.103-3.075.846-6.556 4.013-7.289l79.356-18.8c3.97-1.022 8.438 3.38 6.492 7.386-1.196 2.461-42.538 69.394-44.187 71.587-1.602 2.129-5.121 2.012-7.24.352zm87.507 24.462c-10.946 1.332-22.154 1.105-33.146-.67-11.012-1.778-21.669-5.074-31.673-9.795-2.462-1.162-4.106-4.231-2.91-6.655 1.226-2.484 42.716-69.707 44.368-71.92 2.06-2.76 7.998-1.848 8.756 1.501.597 2.638 19.084 79.439 19.462 82.118.377 2.672-2.159 5.092-4.857 5.421zm79.178-44.581c-6.825 8.71-14.869 16.436-23.913 22.965-9.043 6.529-18.909 11.734-29.326 15.471-2.606.935-5.915-.116-6.768-2.68-.86-2.583-19.072-79.496-19.472-82.163-.254-1.692 1.067-3.666 2.48-4.498 1.934-1.139 3.944-1.148 5.945.121l69.402 42.816c3.287 1.904 3.667 5.396 1.652 7.968zm23.791-54.36c-1.777 11.011-5.073 21.667-9.797 31.674-1.15 2.436-4.368 4.04-6.781 2.845-2.448-1.213-69.586-42.653-71.747-44.282-1.371-1.034-1.745-2.981-1.462-4.735.362-2.247 2.03-4.039 4.244-4.564l79.355-18.8c3.176-.77 6.46 1.439 6.857 4.713 1.334 10.989 1.109 22.142-.669 33.149zm-104.261-10.936c-3.694 1.297-7.014 3.647-9.436 6.807-3.424-1.664-7.557-2.381-11.475-1.867-.714-2.03-1.775-3.998-3.098-5.709l24.218-5.738c-.428 2.153-.488 4.38-.209 6.507z"/></g></g></svg>