<svg id="Layer_1" enable-background="new 0 0 512 512" height="512" viewBox="0 0 512 512" width="512" xmlns="http://www.w3.org/2000/svg"><path d="m452.9 449.6-103.9-4.6-70.8 42.9c10.2 2.6 20.7 3.9 31.3 3.8 58.8 0 122.6-34.4 144-41.5-.3-.2-.4-.4-.6-.6z" fill="#739937"/><path d="m374.1 401.9-25.1 43.1 103.9 4.6c-20.5-22.2-48.8-38.5-78.8-47.7z" fill="#8dc63f"/><path d="m332 240.4c3.9-8.6 2.8-18.8-1.8-30.4-12 2.5-21 7.6-26.5 16.3-4.6-11-13.4-18.6-25.3-23.7 6.1 13.9 7.9 27.4 3.5 40.4l50 24.8c7.3-10.9 20-17.1 35-21.2-10.6-7.3-22.4-8.5-34.9-6.2z" fill="#79914c"/><path d="m244.5 110.9-.8 48.2c-91.2-4.1-91.9 89.5-183.7 27.6l-1.3-75.8z" fill="#cadeff"/><path d="m59.9 186.7 4.7 269.2h173.9l5.1-296.9c-91.1-4-91.8 89.5-183.7 27.7z" fill="#f95f79"/><path d="m195.5 26.3-.7 24.9c-.2 7.2-6.2 12.8-13.4 12.6-5-.1-9.5-3.2-11.5-7.8l-10-22.9c-1.9-5.7 1.2-11.9 6.9-13.8.5-.2.9-.3 1.4-.4l14.4-2.8c5.9-1.1 11.6 2.7 12.7 8.6.1.6.2 1.1.2 1.6z" fill="#e75163"/><path d="m133.6 58.9c5.6 2.1 8.5 8.4 6.4 14-.2.5-.4.9-.6 1.3l-6.9 13c-2.8 5.3-9.4 7.3-14.7 4.5-.4-.2-.8-.5-1.2-.8l-19-16.2c-5.4-4.7-6.1-12.9-1.4-18.3 2.5-2.9 6.1-4.5 9.9-4.5 1.2 0 2.3.2 3.4.5z" fill="#de3c44"/><path d="m158.5 150.4c1.7 5.8-1.7 11.8-7.5 13.5-.5.1-.9.2-1.4.3l-24.9 1.5c-7.2.4-13.3-5-13.8-12.2-.3-5 2.3-9.8 6.7-12.2l21.9-12c5.5-2.4 11.9.1 14.3 5.6.2.4.4.9.5 1.4z" fill="#e75163"/><g fill="#ff6e86"><circle cx="191.4" cy="330.4" r="17.7"/><path d="m195 208.1c6.3 0 11.5 5.1 11.5 11.4s-5.1 11.5-11.4 11.5-11.5-5.1-11.5-11.4c0-6.3 5.1-11.5 11.4-11.5z"/><path d="m183.1 373.1c13.8 0 25 11.2 25 25s-11.2 25-25 25-25-11.2-25-25c0-13.9 11.2-25 25-25z"/></g><path d="m278.2 487.9c-14.1 2.7-28.5 3-42.6.9 1.6-2.5 2.5-5.3 2.5-8.2l.4-24.6 3.8-216.4c13.3-.9 26.7.3 39.7 3.5 18.3 4.6 35.3 13 50 24.8 39.9 32.1 56.9 85.3 42.2 134.1-13.5 44.2-50.5 77.4-96 85.9z" fill="#e75163"/><path d="m88.6 110.9h-30l1.3 75.8c11.4 7.7 21.4 12.9 30.3 16.3z" fill="#a5bbdb"/><path d="m90.2 203c-8.9-3.4-18.9-8.6-30.3-16.3l4.7 269.2h30z" fill="#c94f69"/><path d="m238.5 455.9-.4 24.6c-.2 8.6-7.1 15.4-15.7 15.4h-141.7c-8.6 0-15.6-6.9-15.7-15.4l-.4-24.6z" fill="#c6475c"/><path d="m95 480.6-.4-24.6h-30l.4 24.6c.1 8.6 7.1 15.4 15.7 15.4h30c-8.6 0-15.6-6.9-15.7-15.4z" fill="#933549"/><g fill="#284268"><path d="m89.9 364.2c3.4-.1 6.1-2.8 6-6.1l-.1-6.9c-.1-3.3-2.8-6-6.1-5.9s-6 2.8-5.9 6.1l.1 6.9c.1 3.3 2.8 5.9 6 5.9z"/><path d="m90.2 376.8c-3.3.1-6 2.8-5.9 6.1l.8 45.5c.1 3.3 2.7 5.9 6 5.9h.1c3.3-.1 6-2.8 5.9-6.1l-.8-45.5c0-3.3-2.7-5.9-6.1-5.9z"/><path d="m459.1 448.3c-.3-.8-.7-1.5-1.3-2.1-19.1-20.9-46.1-37.9-76.4-48.2 6.2-24.6 5-50.5-3.3-74.4-7.5-21.8-20.6-41.3-37.9-56.6 6-6.3 15.1-11 28.3-14.6 3.2-.9 5.1-4.2 4.2-7.4-.4-1.4-1.2-2.6-2.4-3.4-8.9-6.1-18.9-8.8-30.3-8.3.9-7.5-.5-15.9-4.3-25.5-1.1-2.7-4-4.3-6.8-3.7-10.3 2.2-18.3 6-24.2 11.6-5.5-7.9-13.5-14.2-24-18.6-3-1.3-6.6.1-7.9 3.2-.6 1.5-.6 3.2 0 4.8 5 11.3 6.5 21.5 4.7 30.9-9.6-2-19.4-2.8-29.1-2.7l2.1-122.3c0-3.3-2.6-6.1-5.9-6.1h-.1-185.9c-3.3 0-6 2.7-6 6v.1l6.4 369.7c.3 11.8 9.9 21.3 21.7 21.3h141.7c6.1-.1 11.6-2.6 15.5-6.7 5.4.7 10.9 1.1 16.4 1.1 8.1-.2 16-.9 23.8-2.3 10.2 2.5 20.7 3.7 31.2 3.6 47.3 0 97.2-21.4 126.7-34 8.3-3.5 14.9-6.4 19.3-7.8 3.1-1 4.8-4.4 3.8-7.6zm-161-219.6c1.3 3.1 4.8 4.5 7.9 3.2 1.2-.5 2.1-1.3 2.8-2.4 3.6-5.8 9.2-9.8 17.5-12.3 2.6 8.4 2.6 15.2.2 20.7-1.4 3 0 6.6 3 7.9 1.1.5 2.4.6 3.6.4 5.7-1.2 11.5-1.3 17.2-.3-8.2 3.6-14.6 8-19.5 13.4-12.6-9-26.6-16-41.6-20.5 1.5-7.5 1.5-15.3-.2-22.7 4 3.4 7.1 7.7 9.1 12.6zm-233.5-111.9h173.7l-.6 36.1c-36.9 0-59 15.6-78.5 29.4-26.5 18.7-45.8 32.3-93.4 1.1zm167.5 363.7c-.1 5.3-4.4 9.5-9.7 9.5h-141.7c-5.3 0-9.6-4.3-9.7-9.5l-.3-18.5h161.7zm-161.6-30.6-4.4-252.2c19.5 11.7 35.2 16.1 48.5 16.1 20.7 0 35.9-10.7 51.5-21.8 18.9-13.3 38.4-27.1 71.4-27.2l-4.9 285.1zm173.3 33.9c.2-1 .3-2.1.3-3.1l4.1-235.3c52.9-1.2 100.9 31.9 118.5 82.2 10.5 29.9 8.4 62.8-5.7 91.1-21.8 43.9-68.3 69.4-117.2 65.1zm62.5 1.9c18.2-7.8 34.4-19.6 47.4-34.5l73.4 3.3c-29.7 12.6-77.3 32.1-120.8 31.2zm56.3-46.1c6.4-9.4 11.6-19.5 15.3-30.1 22.6 7.7 43 19.3 59.4 33.5z"/><path d="m93.7 79.2 19.4 16.6c7.6 5.4 18.1 3.7 23.6-3.9l8.1-14.9c4.4-8.2 1.2-18.5-7-22.8-.7-.4-1.6-.7-2.3-1l-24.3-6.7c-10.1-2.8-20.6 3.2-23.3 13.3-2.1 7.1.2 14.7 5.8 19.4zm6.2-17.7c1.5-2.9 4.9-4.3 8-3.5l23.8 6.5c2.5 1 3.7 3.9 2.6 6.4l-7.1 13.4c-1.3 2.4-4.2 3.3-6.6 2l-19.1-16.3c-2.5-2-3.1-5.6-1.6-8.5z"/><path d="m150.3 170.2c.2-.1-.2 0 0 0z"/><path d="m150.3 170.1c9.2-1.4 15.9-10 14.5-19.2-.1-.7-.3-1.5-.5-2.2l-4.1-14.1c-2.6-9-11.9-14.1-20.9-11.6-.7.2-1.4.5-2.1.8l-22.4 12.2c-7.8 4.2-11.6 13.4-9.1 21.9 2.3 8.2 9.8 13.8 18.3 13.8zm-33.4-17c-.1-2.7 1.4-5.2 3.7-6.5l21.6-11.8c2.5-1 5.3.3 6.3 2.8l4.2 14.5c.7 2.6-1 5.3-3.6 6.1l-24.8 1.5c-3.9.2-7.2-2.7-7.4-6.6z"/><path d="m154.2 35 10.2 23.4c3 6.9 9.8 11.4 17.3 11.4 1.2 0 2.5-.1 3.7-.4 8.8-1.6 15.2-9.2 15.4-18.1l.7-25.5c-.5-9.3-8.5-16.4-17.8-15.9-.7 0-1.5.1-2.2.3l-14.5 2.9c-9.2 1.8-15.1 10.6-13.4 19.8.2.7.4 1.4.6 2.1zm11.8-7.8c.7-1.2 1.9-2.1 3.3-2.3l14.4-2.8c2.6-.5 5.2 1.2 5.7 3.9l-.6 25c-.1 3.9-3.3 6.9-7.2 6.8-2.7-.1-5.1-1.7-6.2-4.2l-9.9-22.6c-.4-1.3-.2-2.6.5-3.8z"/><path d="m195 237c9.6 0 17.4-7.8 17.4-17.4s-7.8-17.4-17.4-17.4-17.4 7.8-17.4 17.4 7.8 17.4 17.4 17.4zm0-22.8c3 0 5.4 2.4 5.4 5.4s-2.4 5.4-5.4 5.4-5.4-2.4-5.4-5.4 2.4-5.4 5.4-5.4z"/><path d="m191.4 306.7c-13.1 0-23.7 10.6-23.7 23.7s10.6 23.7 23.7 23.7 23.7-10.6 23.7-23.7-10.6-23.7-23.7-23.7zm0 35.4c-6.5 0-11.7-5.2-11.7-11.7s5.2-11.7 11.7-11.7 11.7 5.2 11.7 11.7-5.2 11.7-11.7 11.7z"/><path d="m183.1 367.1c-17.1 0-31 13.9-31 31s13.9 31 31 31 31-13.9 31-31c-.1-17.2-13.9-31-31-31zm-.1 49.9c-10.5 0-19-8.5-19-19s8.5-19 19-19c10.5.1 19 8.6 19 19 0 10.5-8.5 19-19 19z"/></g></svg>