<svg height="512pt" viewBox="-51 0 512 512" width="512pt" xmlns="http://www.w3.org/2000/svg"><path d="m401.40625 85.332031c-15.277344 19.726563-32.488281 37.878907-51.367188 54.1875-14.929687 13.460938-32.234374 24.023438-51.03125 31.148438-2.132812.679687-4.265624 1.449219-6.398437 2.046875-18.835937 5.832031-38.136719 10.058594-57.6875 12.628906-6.398437.855469-12.03125 1.367188-16.554687 1.792969-6.910157.511719-11.433594.597656-12.800782.597656h-.425781s-.085937-.511719-.167969-1.367187c.21875-2.8125.21875-5.636719 0-8.445313.082032-.597656.082032-1.28125.167969-1.964844 2.859375-20.644531 14.015625-39.226562 30.890625-51.457031 26.625-20.992188 75.605469-39.167969 165.375-39.167969zm0 0" fill="#8fc05e"/><path d="m204.972656 186.367188c-.222656-2.8125-.222656-5.636719 0-8.445313.21875 2.808594.21875 5.632813 0 8.445313zm0 0"/><path d="m204.972656 186.367188c-.222656-2.8125-.222656-5.636719 0-8.445313.21875 2.808594.21875 5.632813 0 8.445313zm0 0"/><path d="m265.984375 69.207031c-13.972656 15.972657-24.207031 34.863281-29.953125 55.292969-17.488281 12.574219-28.785156 32.003906-31.058594 53.421875-1.777344-17.695313-9.9375-34.136719-22.957031-46.253906 4.25-25.242188 13.382813-49.414063 26.878906-71.167969 5.953125-9.839844 12.933594-19.019531 20.824219-27.390625 10.0625-9.425781 25.78125-9.183594 35.554688.542969 9.773437 9.726562 10.085937 25.445312.710937 35.554687zm0 0" fill="#937966"/><path d="m208.894531 60.5c-13.496093 21.753906-22.628906 45.925781-26.878906 71.167969-15.664063-14.535157-34.515625-25.199219-55.039063-31.144531-1.015624-31.671876 5.292969-63.152344 18.429688-91.988282 0 0 33.792969 0 59.308594 51.625zm0 0" fill="#a3d274"/><path d="m117.503906 172.628906c-8.601562 4.476563-15.960937 11.015625-21.417968 19.03125-6.640626 9.457032-10.269532 20.699219-10.410157 32.253906-15.375 6.90625-33.378906 4.019532-45.824219-7.339843l-.683593-.679688c-15.871094-16.8125-12.96875-45.996093 6.65625-65.707031 4.230469-4.277344 9.09375-7.875 14.421875-10.667969 14.953125 13.425781 32.253906 23.984375 51.027344 31.148438 2.132812.679687 4.183593 1.363281 6.230468 1.960937zm0 0" fill="#eb6371"/><path d="m204.972656 186.367188c-.085937.855468-.171875 1.367187-.171875 1.367187s-4.695312 0-12.886719-.683594c-4.523437-.339843-10.070312-.851562-16.554687-1.707031-19.621094-2.535156-38.980469-6.789062-57.855469-12.714844-2.046875-.597656-4.097656-1.28125-6.230468-1.960937-18.773438-7.164063-36.074219-17.722657-51.027344-31.148438-18.988282-16.308593-36.308594-34.460937-51.710938-54.1875 40.027344-1.074219 79.980469 4.050781 118.441406 15.191407 20.523438 5.945312 39.375 16.609374 55.039063 31.144531 12.394531 11.605469 20.410156 27.125 22.699219 43.949219.085937.851562.171875 1.535156.257812 2.304687-.222656 2.808594-.222656 5.632813 0 8.445313zm0 0" fill="#8fc05e"/><path d="m247.808594 221.867188c0 6.492187-1.039063 12.945312-3.074219 19.113281-2.363281 7.183593-6.265625 13.765625-11.433594 19.285156-7.097656 8.132813-17.363281 12.800781-28.160156 12.800781-10.792969 0-21.0625-4.667968-28.160156-12.800781-5.167969-5.519531-9.070313-12.101563-11.433594-19.285156-2.035156-6.167969-3.070313-12.621094-3.070313-19.113281-.117187-11.78125 3.398438-23.3125 10.066407-33.023438.84375-1.242188 1.785156-2.410156 2.816406-3.5 9.757813 1.378906 19.589844 2.175781 29.441406 2.390625h.765625c9.824219-.230469 19.625-1.027344 29.355469-2.390625 1.011719 1.105469 1.953125 2.273438 2.816406 3.5 6.667969 9.710938 10.183594 21.242188 10.070313 33.023438zm0 0" fill="#eb6371"/><path d="m172.542969 188.84375c-6.667969 9.710938-10.183594 21.242188-10.066407 33.023438 0 6.492187 1.035157 12.945312 3.070313 19.113281-16.214844 22.613281-44.375 30.292969-63.402344 17.066406-1.964843-1.355469-3.765625-2.929687-5.375-4.691406-7.414062-7.980469-11.398437-18.554688-11.09375-29.441407.140625-11.554687 3.769531-22.796874 10.410157-32.253906 5.457031-8.015625 12.816406-14.554687 21.417968-19.03125 18.875 5.925782 38.234375 10.179688 57.855469 12.714844-1.03125 1.089844-1.972656 2.257812-2.816406 3.5zm0 0" fill="#d9535f"/><path d="m371.113281 215.894531-.679687.679688c-12.449219 11.359375-30.453125 14.246093-45.824219 7.339843-.144531-11.554687-3.773437-22.796874-10.410156-32.253906-5.429688-8.082031-12.871094-14.613281-21.589844-18.945312 2.132813-.597656 4.265625-1.367188 6.398437-2.046875 18.796876-7.125 36.101563-17.6875 51.03125-31.148438 5.304688 2.828125 10.160157 6.421875 14.417969 10.667969 19.628907 19.710938 22.53125 48.894531 6.65625 65.707031zm0 0" fill="#eb6371"/><g fill="#d9535f"><path d="m96.769531 253.355469-.085937.085937c-1.3125 1.917969-2.511719 3.910156-3.585938 5.972656-5.230468 9.867188-7.820312 20.921876-7.507812 32.085938-7.914063 9.203125-19.203125 14.832031-31.316406 15.613281-6.566407.320313-13.066407-1.410156-18.605469-4.949219-19.199219-12.285156-24.0625-42.921874-10.664063-68.351562 3.535156-6.820312 8.34375-12.90625 14.164063-17.917969l.683593.679688c12.445313 11.359375 30.449219 14.246093 45.824219 7.339843-.304687 10.886719 3.679688 21.460938 11.09375 29.441407zm0 0"/><path d="m324.609375 223.914062c.300781 10.886719-3.683594 21.460938-11.09375 29.441407-1.609375 1.761719-3.414063 3.335937-5.375 4.691406-19.03125 13.226563-47.191406 5.546875-63.40625-17.066406 2.035156-6.167969 3.074219-12.621094 3.074219-19.113281.113281-11.78125-3.402344-23.3125-10.070313-33.023438-.863281-1.226562-1.804687-2.394531-2.816406-3.5 19.550781-2.570312 38.851563-6.796875 57.6875-12.628906 8.71875 4.332031 16.160156 10.863281 21.589844 18.945312 6.636719 9.457032 10.265625 20.699219 10.410156 32.253906zm0 0"/><path d="m374.613281 302.164062c-5.539062 3.539063-12.039062 5.269532-18.601562 4.949219-12.109375-.796875-23.394531-6.421875-31.316407-15.613281.308594-11.164062-2.277343-22.21875-7.511718-32.085938-1.074219-2.0625-2.269532-4.054687-3.582032-5.972656l-.085937-.085937c7.410156-7.980469 11.394531-18.554688 11.09375-29.441407 15.371094 6.90625 33.375 4.019532 45.824219-7.339843l.679687-.679688c5.871094 4.964844 10.6875 11.058594 14.167969 17.917969 13.394531 25.429688 8.53125 56.066406-10.667969 68.351562zm0 0"/></g><path d="m324.695312 291.5c.253907 14.335938-6.539062 27.886719-18.179687 36.265625-3.1875 2.015625-6.714844 3.429687-10.410156 4.179687-17.320313 3.839844-37.035157-6.738281-48.296875-27.132812h-.34375c.242187-2.039062.355468-4.09375.34375-6.144531.203125-14.175781-4.980469-27.902344-14.507813-38.402344 5.167969-5.519531 9.070313-12.101563 11.433594-19.285156 16.214844 22.613281 44.375 30.292969 63.40625 17.066406 1.960937-1.355469 3.765625-2.929687 5.375-4.691406l.085937.085937c1.3125 1.917969 2.507813 3.910156 3.582032 5.972656 5.234375 9.867188 7.820312 20.921876 7.511718 32.085938zm0 0" fill="#eb6371"/><path d="m247.808594 298.667969c.011718 2.050781-.101563 4.105469-.34375 6.144531-1.039063 12.015625-6.019532 23.355469-14.164063 32.253906-7.097656 8.132813-17.363281 12.800782-28.160156 12.800782-10.792969 0-21.0625-4.667969-28.160156-12.800782-8.144531-8.898437-13.121094-20.238281-14.164063-32.253906-.242187-2.039062-.355468-4.09375-.339844-6.144531-.207031-14.175781 4.976563-27.902344 14.503907-38.402344 7.097656 8.132813 17.367187 12.800781 28.160156 12.800781 10.796875 0 21.0625-4.667968 28.160156-12.800781 9.527344 10.5 14.710938 24.226563 14.507813 38.402344zm0 0" fill="#d9535f"/><path d="m247.808594 452.265625c.007812 5.988281-.882813 11.941406-2.644532 17.664063-4.515624 18.765624-20.757812 32.375-40.023437 33.535156-19.273437-1.132813-35.53125-14.753906-40.019531-33.535156-1.128906-3.757813-1.898438-7.617188-2.304688-11.519532-.242187-2.039062-.355468-4.089844-.339844-6.144531-.207031-14.175781 4.976563-27.898437 14.503907-38.398437 7.097656 8.132812 17.367187 12.800781 28.160156 12.800781 10.796875 0 21.0625-4.667969 28.160156-12.800781 9.527344 10.5 14.710938 24.222656 14.507813 38.398437zm0 0" fill="#d9535f"/><path d="m162.476562 298.667969c-.015624 2.050781.097657 4.105469.339844 6.144531h-.339844c-2.519531 4.566406-5.585937 8.804688-9.132812 12.628906h-.085938c-9.539062 11.410156-24.40625 16.929688-39.082031 14.503906-3.671875-.734374-7.175781-2.152343-10.324219-4.179687-11.691406-8.339844-18.523437-21.90625-18.261718-36.265625-.3125-11.164062 2.277344-22.21875 7.507812-32.085938 1.074219-2.0625 2.273438-4.054687 3.585938-5.972656l.085937-.085937c1.609375 1.761719 3.410157 3.335937 5.375 4.691406 19.027344 13.226563 47.1875 5.546875 63.402344-17.066406 2.363281 7.183593 6.265625 13.765625 11.433594 19.285156-9.527344 10.5-14.710938 24.226563-14.503907 38.402344zm0 0" fill="#eb6371"/><path d="m247.808594 375.464844c-.003906 6.949218-1.183594 13.847656-3.5 20.398437-2.417969 6.679688-6.160156 12.804688-11.007813 18.003907-7.097656 8.132812-17.363281 12.800781-28.160156 12.800781-10.792969 0-21.0625-4.667969-28.160156-12.800781-4.878907-5.171876-8.628907-11.304688-11.007813-18.003907-1.597656-4.613281-2.660156-9.394531-3.15625-14.253906-.242187-2.039063-.355468-4.089844-.339844-6.144531-.207031-14.175782 4.976563-27.898438 14.503907-38.398438 7.097656 8.132813 17.367187 12.800782 28.160156 12.800782 10.796875 0 21.0625-4.667969 28.160156-12.800782 9.527344 10.5 14.710938 24.222656 14.507813 38.398438zm0 0" fill="#eb6371"/><path d="m162.816406 381.609375c.496094 4.859375 1.558594 9.640625 3.15625 14.253906-8.625 10.285157-22.148437 15.085938-35.328125 12.542969-3.203125-.777344-6.28125-2.011719-9.128906-3.671875-10.652344-6.921875-17.566406-18.328125-18.773437-30.972656-.871094-6.574219-.554688-13.253907.9375-19.714844 1.828124-8.050781 5.410156-15.597656 10.496093-22.101563 14.675781 2.425782 29.542969-3.09375 39.082031-14.503906h.085938c3.546875-3.824218 6.613281-8.0625 9.132812-12.628906h.339844c1.042969 12.015625 6.019532 23.355469 14.164063 32.253906-9.527344 10.5-14.710938 24.222656-14.503907 38.398438-.015624 2.054687.097657 4.105468.339844 6.144531zm0 0" fill="#d9535f"/><path d="m103.679688 354.046875c-1.492188 6.460937-1.808594 13.140625-.9375 19.714844-8.304688 7.5625-19.671876 10.816406-30.722657 8.789062-.167969 0-.425781-.085937-.59375-.085937-20.652343-4.78125-32.769531-29.097656-26.96875-54.359375 1.738281-7.617188 5.085938-14.773438 9.816407-20.992188 12.113281-.78125 23.402343-6.410156 31.316406-15.613281-.261719 14.359375 6.570312 27.925781 18.261718 36.265625 3.148438 2.027344 6.652344 3.445313 10.324219 4.179687-5.085937 6.503907-8.667969 14.050782-10.496093 22.101563zm0 0" fill="#eb6371"/><path d="m307.542969 373.761719c-1.210938 12.644531-8.121094 24.050781-18.773438 30.972656-2.851562 1.660156-5.925781 2.894531-9.132812 3.671875-13.179688 2.542969-26.703125-2.257812-35.328125-12.542969 2.316406-6.550781 3.496094-13.449219 3.5-20.398437.203125-14.175782-4.980469-27.898438-14.507813-38.398438 8.144531-8.898437 13.125-20.238281 14.164063-32.253906h.34375c11.261718 20.394531 30.976562 30.972656 48.296875 27.132812 5.085937 6.503907 8.671875 14.050782 10.496093 22.101563 1.492188 6.460937 1.808594 13.140625.941407 19.714844zm0 0" fill="#d9535f"/><path d="m338.859375 382.464844c-.171875 0-.425781.085937-.597656.085937-11.050781 2.027344-22.414063-1.226562-30.71875-8.789062.867187-6.574219.550781-13.253907-.941407-19.714844-1.824218-8.050781-5.410156-15.597656-10.496093-22.101563 3.695312-.75 7.222656-2.164062 10.410156-4.179687 11.640625-8.378906 18.433594-21.929687 18.179687-36.265625 7.921876 9.191406 19.207032 14.816406 31.316407 15.613281 4.726562 6.21875 8.074219 13.375 9.8125 20.992188 5.800781 25.261719-6.316407 49.578125-26.964844 54.359375zm0 0" fill="#eb6371"/><path d="m111.273438 435.199219c0 2.34375.171874 4.679687.511718 7-2.902344 1.023437-5.960937 1.542969-9.042968 1.535156-18.859376 0-34.132813-19.117187-34.132813-42.667969-.046875-6.332031 1.113281-12.617187 3.410156-18.515625 11.050781 2.027344 22.417969-1.226562 30.722657-8.789062 1.207031 12.644531 8.121093 24.050781 18.773437 30.972656-6.789063 8.691406-10.402344 19.441406-10.242187 30.464844zm0 0" fill="#d9535f"/><path d="m162.816406 458.410156c.40625 3.902344 1.175782 7.761719 2.304688 11.519532-5.351563 5.015624-12.382813 7.847656-19.714844 7.9375-16.980469 0-30.972656-15.445313-33.621094-35.667969-.339844-2.320313-.511718-4.65625-.511718-7-.160157-11.023438 3.453124-21.773438 10.242187-30.464844 2.847656 1.660156 5.925781 2.894531 9.128906 3.671875 13.179688 2.542969 26.703125-2.257812 35.328125-12.542969 2.378906 6.699219 6.128906 12.832031 11.007813 18.003907-9.527344 10.5-14.710938 24.222656-14.503907 38.398437-.015624 2.054687.097657 4.105469.339844 6.144531zm0 0" fill="#eb6371"/><path d="m341.675781 401.066406c0 23.550782-15.277343 42.667969-34.132812 42.667969-3.082031.007813-6.140625-.511719-9.046875-1.535156.34375-2.320313.515625-4.65625.511718-7 .160157-11.023438-3.453124-21.773438-10.238281-30.464844 10.652344-6.921875 17.5625-18.328125 18.773438-30.972656 8.304687 7.5625 19.667969 10.816406 30.71875 8.789062 2.300781 5.898438 3.457031 12.183594 3.414062 18.515625zm0 0" fill="#d9535f"/><path d="m299.007812 435.199219c.003907 2.34375-.167968 4.679687-.511718 7-2.644532 20.222656-16.640625 35.667969-33.621094 35.667969-7.332031-.089844-14.363281-2.921876-19.710938-7.9375 1.761719-5.722657 2.652344-11.675782 2.644532-17.664063.203125-14.175781-4.980469-27.898437-14.507813-38.398437 4.847657-5.199219 8.589844-11.324219 11.007813-18.003907 8.625 10.285157 22.148437 15.085938 35.328125 12.542969 3.207031-.777344 6.28125-2.011719 9.132812-3.671875 6.785157 8.691406 10.398438 19.441406 10.238281 30.464844zm0 0" fill="#eb6371"/><path d="m401.40625 76.800781c-63.519531 0-113.140625 8.992188-148.078125 26.742188 4.933594-10.246094 11.230469-19.777344 18.722656-28.332031 12.714844-13.457032 12.382813-34.59375-.75-47.644532-13.128906-13.054687-34.269531-13.257812-47.652343-.464844-5.9375 6.277344-11.359376 13.023438-16.210938 20.171876-26.949219-46.566407-60.527344-47.273438-62.03125-47.273438-3.265625-.00390625-6.246094 1.859375-7.679688 4.796875-12.074218 26.5-18.726562 55.148437-19.558593 84.257813-35.859375-8.808594-72.714844-12.925782-109.632813-12.253907-3.234375 0-6.1875 1.824219-7.632812 4.714844-1.445313 2.890625-1.136719 6.351563.804687 8.9375 0 0 3.34375 4.410156 9.164063 11.308594 2.574218 3.046875 6.917968 3.902343 10.457031 2.0625 3.539063-1.839844 5.332031-5.886719 4.316406-9.746094 33.398438.222656 66.601563 5.105469 98.652344 14.507813 3.890625 1.28125 7.578125 2.664062 11.167969 4.089843 15.0625 5.546875 28.855468 14.0625 40.5625 25.042969 1.886718 1.84375 3.609375 3.699219 5.160156 5.566406.597656.707032 1.074219 1.414063 1.628906 2.121094.898438 1.144531 1.835938 2.296875 2.621094 3.414062.554688.804688 1 1.589844 1.492188 2.382813.660156 1.039063 1.351562 2.082031 1.921874 3.097656.46875.851563.851563 1.636719 1.238282 2.464844.484375.964844 1.015625 1.9375 1.433594 2.882813.355468.855468.621093 1.582031.9375 2.375.359374.929687.757812 1.867187 1.066406 2.765624.230468.6875.402344 1.347657.605468 2.019532-11.394531-8.910156-23.386718-17.027344-35.890624-24.300782-4.0625-2.34375-9.25-.96875-11.621094 3.074219s-1.039063 9.242188 2.984375 11.644531c10.4375 6.078126 20.515625 12.753907 30.183593 19.992188-1.117187-.136719-2.191406-.253906-3.363281-.40625-1.628906-.214844-3.371093-.445312-5.214843-.71875-17.386719-2.546875-34.546876-6.464844-51.316407-11.714844-1.476562-.4375-2.953125-.914062-4.464843-1.402344l-1.476563-.46875c-17.761719-6.785156-34.109375-16.808593-48.210937-29.566406-.796876-.652344-1.707032-1.152344-2.679688-1.476562-.28125-.089844-.566406-.164063-.855469-.222656-.699219-.148438-1.417969-.203126-2.132812-.171876-.289063 0-.570313 0-.851563 0-.886718.101563-1.75.34375-2.5625.71875-.101562.050782-.210937.058594-.316406.109376-6.125 3.222656-11.71875 7.378906-16.570312 12.316406-20.660157 20.675781-25.128907 50.15625-11.929688 70.824218-4.078125 4.472657-7.570312 9.445313-10.394531 14.796876-15.359375 29.183593-9.265625 64.855468 13.613281 79.507812 2.925781 1.847656 6.082031 3.304688 9.386719 4.332031-1.839844 4.019531-3.269531 8.214844-4.269531 12.519531-6.074219 26.453126 5.121093 52.257813 25.386718 61.773438-.972656 4.296875-1.472656 8.691406-1.492187 13.097656 0 28.238282 19.140625 51.199219 42.667969 51.199219.808593 0 1.601562-.144531 2.40625-.203125 4.175781 19.195312 20.644531 33.242188 40.257812 34.335938 5.472656-.050782 10.863281-1.34375 15.761719-3.777344 7.921875 17.320312 24.9375 28.691406 43.972656 29.378906 19.035156-.6875 36.054687-12.058594 43.972656-29.378906 4.902344 2.433594 10.289063 3.726562 15.761719 3.777344 19.617188-1.085938 36.097656-15.136719 40.269531-34.335938.800781.058594 1.585938.203125 2.398438.203125 23.523437 0 42.664062-22.960937 42.664062-51.199219-.003906-4.402344-.488281-8.792968-1.449219-13.089844 20.285157-9.515624 31.460938-35.3125 25.378907-61.808593-1-4.292969-2.425781-8.476563-4.269531-12.484375 3.304687-1.027344 6.460937-2.484375 9.386718-4.332032 3.96875-2.546874 5.125-7.824218 2.578125-11.792968-2.542969-3.96875-7.824219-5.125-11.792969-2.578125-4.101562 2.628906-8.933593 3.890625-13.796874 3.601562-2.105469-.066406-4.191407-.378906-6.222657-.929687-.707031-.179688-1.40625-.503906-2.105469-.742188-1.410156-.445312-2.785156-.980468-4.125-1.605468-.808593-.394532-1.59375-.90625-2.386718-1.367188-1.265625-.707031-2.488282-1.484375-3.671875-2.328125-.792969-.578125-1.550781-1.238281-2.328125-1.878906-.777344-.636719-1.433594-1.296875-2.148438-1.960938 0-1.015625-.171875-2.015625-.242187-3.019531-.074219-1.214844-.144531-2.40625-.289063-3.609375-.210937-1.828125-.546875-3.636719-.902344-5.453125-.222656-1.128906-.402343-2.253906-.675781-3.414062-.476562-1.964844-1.101562-3.875-1.707031-5.792969-.308594-.933594-.554688-1.878907-.902344-2.800781-1.066406-2.820313-2.300781-5.570313-3.695312-8.242188l-.761719-1.410156c.351563-.484375.632813-1.023438.964844-1.527344s.519531-.808594.777343-1.21875c1.429688-2.347656 2.660157-4.816406 3.675782-7.371094.15625-.394531.292968-.804687.4375-1.207031.945312-2.535156 1.695312-5.144531 2.234375-7.796875h.128906c.503906.101562 1.007813.144531 1.519531.230469 1.253906.203125 2.507813.417969 3.753906.535156.800782.085937 1.59375.085937 2.390626.128906.945312.050781 1.894531.136719 2.832031.136719h.179687.332032c2.894531-.023438 5.785156-.285156 8.636718-.785156l.605469-.085938c2.734375-.535156 5.417969-1.300781 8.019531-2.292968.34375-.136719.691406-.238282 1.035156-.375 2.46875-1.015626 4.847657-2.242188 7.105469-3.671876.367188-.230468.742188-.453124 1.101563-.699218s.691406-.402344 1.015625-.640625c2.730469 3.164062 5.078125 6.644531 6.988281 10.359375 4.34375 8.230468 6.585938 17.40625 6.527344 26.710937-.027344 3.046875 1.574218 5.878907 4.203125 7.429688 2.625 1.546875 5.878906 1.574219 8.53125.074219 2.65625-1.5 4.304687-4.300782 4.332031-7.351563.0625-12.101563-2.867188-24.027344-8.53125-34.722656-2.789062-5.386719-6.285156-10.382813-10.394531-14.847657 13.175781-20.5625 8.703125-50.117187-11.945313-70.894531-2.042968-1.996093-4.207031-3.863281-6.484375-5.589843 16.054688-14.761719 30.835938-30.851563 44.183594-48.101563 1.941406-2.585937 2.25-6.046875.804687-8.9375-1.445312-2.890625-4.398437-4.714844-7.632812-4.714844zm-165.65625-37.660156c6.71875-6.210937 17.140625-6.023437 23.628906.433594 6.484375 6.453125 6.726563 16.875.546875 23.625-14.425781 16.257812-25.117187 35.484375-31.316406 56.320312-.242187.195313-.429687.40625-.667969.605469-2.472656 2.089844-4.804687 4.195312-6.910156 6.320312-.265625.265626-.496094.539063-.75.804688-2.03125 2.09375-3.898438 4.1875-5.597656 6.28125l-.472656.554688c-1.707032 2.15625-3.242188 4.265624-4.648438 6.441406-.257812.375-.503906.75-.75 1.125-1.328125 2.070312-2.515625 4.121094-3.570312 6.144531-.074219.144531-.1875.300781-.261719.445313-.15625-.308594-.359375-.625-.523438-.941407-.3125-.585937-.65625-1.167969-.988281-1.757812-.90625-1.59375-1.894531-3.199219-2.953125-4.8125-.339844-.511719-.65625-1.023438-1.015625-1.542969-1.40625-2.035156-2.953125-4.078125-4.640625-6.128906-.375-.449219-.785156-.902344-1.179687-1.355469-.773438-.914063-1.527344-1.824219-2.371094-2.730469.476562-2.558594 1.050781-5.050781 1.636718-7.570312.589844-2.515625 1.109376-5.074219 1.800782-7.585938.933594-3.328125 2.074218-6.585937 3.183594-9.863281.785156-2.285156 1.460937-4.609375 2.332031-6.828125 1.40625-3.652344 3.0625-7.234375 4.710937-10.828125.851563-1.816406 1.535156-3.667969 2.429688-5.46875 2.664062-5.359375 5.5625-10.640625 8.765625-15.828125 5.613281-9.273438 12.179687-17.9375 19.582031-25.859375zm33.484375 148.644531c1.460937-.332031 2.902344-.691406 4.351563-1.042968 5.207031-1.261719 10.328124-2.628907 15.359374-4.09375.855469-.257813 1.785157-.445313 2.648438-.699219.449219.253906.902344.492187 1.355469.765625.65625.417968 1.3125.855468 1.953125 1.304687.929687.660157 1.835937 1.359375 2.722656 2.101563.574219.476562 1.160156.945312 1.707031 1.449218.949219.855469 1.851563 1.800782 2.746094 2.75.453125.484376.921875.929688 1.359375 1.433594 1.316406 1.511719 2.554688 3.097656 3.703125 4.742188 5.660156 8.039062 8.773437 17.589844 8.933594 27.417968.28125 8.765626-2.914063 17.289063-8.882813 23.714844-1.179687 1.277344-2.492187 2.421875-3.917968 3.414063-1.800782 1.238281-3.75 2.253906-5.800782 3.019531-.734375.28125-1.527344.382812-2.289062.605469-1.320313.417969-2.667969.738281-4.035156.964843-.921876.128907-1.875.085938-2.816407.128907-1.277343.070312-2.558593.070312-3.839843 0-.996094-.078125-2.003907-.289063-3.003907-.453125-1.277343-.175782-2.542969-.421875-3.796875-.734375-1.015625-.273438-2.023437-.664063-3.027344-1.023438-1.257812-.445312-2.5-.851562-3.730468-1.449219-.988282-.46875-1.960938-1.023437-2.945313-1.570312-1.203125-.675781-2.40625-1.367188-3.566406-2.160156-.945313-.640625-1.859375-1.355469-2.773437-2.082032-1.125-.851562-2.234376-1.816406-3.308594-2.832031-.855469-.8125-1.707032-1.707031-2.5625-2.5625-.5625-.613281-1.089844-1.285156-1.636719-1.9375.332031-1.304687.503906-2.625.757813-3.949219.207031-1.050781.445312-2.089843.597656-3.148437 1.03125-6.390625 1.070312-12.902344.113281-19.300781-.128906-.933594-.316406-1.835938-.480469-2.765625-.382812-2.175781-.851562-4.320313-1.449218-6.433594-.273438-.949219-.53125-1.886719-.855469-2.816406-.773438-2.363281-1.6875-4.679688-2.730469-6.9375-.21875-.496094-.398438-1.023438-.640625-1.511719-.050781-.109375-.082031-.230469-.132813-.332031.246094-.042969.484376-.113281.742188-.152344 6.527344-1.085937 12.890625-2.390625 19.171875-3.824219zm3.011719 212.847656c-.304688 0-.605469 0-.902344 0-1.769531-.101562-3.523438-.386718-5.230469-.855468-.367187-.09375-.726562-.210938-1.085937-.324219-1.769532-.542969-3.484375-1.257813-5.117188-2.132813-.25-.128906-.488281-.296874-.734375-.445312-1.648437-.9375-3.210937-2.011719-4.675781-3.214844-.148438-.121094-.308594-.222656-.460938-.351562v-.09375c.65625-2.578125 1.171876-5.195313 1.542969-7.832032.09375-.640624.171875-1.28125.246094-1.929687.753906-5.78125.691406-11.644531-.195313-17.40625-.078124-.5625-.136718-1.117187-.230468-1.707031-.476563-2.9375-1.144532-5.839844-2.003906-8.6875-.171876-.546875-.359376-1.074219-.539063-1.621094-.925781-2.875-2.050781-5.683594-3.363281-8.40625l-.144532-.246094c-1.320312-2.613281-2.828124-5.125-4.511718-7.519531-.179688-.261719-.308594-.5625-.488282-.851563.300782-.410156.53125-.855468.855469-1.296874.46875-.699219.894531-1.425782 1.347657-2.152344 1.199218-1.925782 2.289062-3.921875 3.265624-5.972656.394532-.851563.8125-1.621094 1.171876-2.464844.152343-.367188.355468-.710938.511718-1.078125 1.5 1.550781 3.078125 3.019531 4.726563 4.40625.332031.28125.691406.519531 1.03125.800781 1.460937 1.179688 2.945312 2.285156 4.472656 3.300781.589844.394531 1.195313.753907 1.792969 1.128907 1.335937.820312 2.695312 1.578124 4.078125 2.277343.648437.324219 1.28125.648438 1.9375.9375 1.46875.667969 2.953125 1.238281 4.453125 1.707031.546875.199219 1.09375.429688 1.648437.597657 1.929688.589843 3.894531 1.050781 5.886719 1.382812.8125.136719 1.621094.179688 2.441406.265625 1.210938.136719 2.421875.253906 3.644532.289063.390624 0 .777343.09375 1.167968.09375.988282 0 1.988282-.085938 2.976563-.160157h.417969l.105468.144532c1.21875 1.992187 2.289063 4.070312 3.207032 6.21875.222656.53125.445312 1.058594.648437 1.597656.894531 2.21875 1.625 4.5 2.183594 6.824219 1.257812 5.457031 1.53125 11.097656.804687 16.648437v.085938c-.90625 10.019531-6.289062 19.089844-14.644531 24.6875-2.105469 1.226562-4.375 2.144531-6.742187 2.730468-1.800782.429688-3.644532.640626-5.496094.625zm-116.351563-7.015624c-1.515625 1.246093-3.132812 2.363281-4.835937 3.335937-.1875.113281-.375.238281-.574219.351563-1.691406.902343-3.464844 1.640624-5.296875 2.199218-.300781.09375-.597656.1875-.855469.265625-1.753906.480469-3.558593.765625-5.375.851563-.257812 0-.511719 0-.757812 0-1.863281.058594-3.722657-.121094-5.539063-.527344-2.378906-.585938-4.660156-1.507812-6.777344-2.738281-8.367187-5.613281-13.753906-14.710938-14.652343-24.746094-.367188-2.742187-.484375-5.507813-.347657-8.269531.136719-2.820313.523438-5.621094 1.152344-8.371094.5625-2.328125 1.292969-4.609375 2.191406-6.828125.207032-.519531.410157-1.03125.625-1.535156.921876-2.179688 2.007813-4.289063 3.25-6.304688l.066407-.09375h1.265625c.671875 0 1.355468.109375 2.03125.109375.441406 0 .851562-.058594 1.320312-.078125.46875-.015625 1.035156-.050781 1.554688-.085937 1.3125-.09375 2.628906-.238282 3.949218-.441406.351563-.050782.691407-.113282 1.042969-.179688 1.460938-.261719 2.917969-.601562 4.367188-1.015625l.769531-.214844c1.5-.453125 2.988281-.984375 4.460938-1.585937l.726562-.289063c1.441406-.613281 2.875-1.316406 4.265625-2.074219.273437-.144531.554687-.273437.855469-.425781 1.339844-.75 2.660156-1.589843 3.96875-2.46875.324218-.210937.65625-.40625.972656-.628906 1.253906-.855469 2.480469-1.84375 3.695312-2.84375.332032-.273437.671876-.511719 1.003907-.800781 1.507812-1.285156 2.972656-2.664063 4.394531-4.128906.171875.417968.402344.800781.582031 1.21875.324219.757812.699219 1.484374 1.050781 2.226562.996094 2.117188 2.117188 4.175781 3.351563 6.160156.453125.734375.855469 1.46875 1.355469 2.167969.292968.417969.523437.855469.8125 1.289063-.179688.257812-.308594.5625-.496094.855468-1.679688 2.394532-3.183594 4.90625-4.503906 7.515625l-.144532.25c-1.3125 2.71875-2.4375 5.527344-3.363281 8.402344-.179687.546875-.367187 1.078125-.539062 1.621094-.859375 2.847656-1.527344 5.75-2.003907 8.6875-.09375.554687-.152343 1.117187-.230468 1.707031-.457032 3.082031-.707032 6.195312-.742188 9.308594-.015625 2.339844.113282 4.675781.382813 7v.101562c0 .128906.050781.246094.070312.367188.359375 3.140625.929688 6.253906 1.707031 9.316406.085938.351562.101563.703125.195313 1.050781-.136719.085938-.273437.207031-.402344.316407zm-46.410156-204.605469c.355469-.355469.707031-.742188 1.082031-1.089844 2.238282-2.078125 4.667969-3.9375 7.253906-5.554687.253907-.164063.527344-.316407.792969-.46875.539063.160156 1.050781.289062 1.585938.441406 2.847656.847656 5.644531 1.640625 8.398437 2.371094l2.457032.667968c3.414062.894532 6.777343 1.707032 10.011718 2.464844.417969.101562.800782.179688 1.210938.265625 2.78125.632813 5.460937 1.203125 8.0625 1.707031l2.945312.578125c2.074219.402344 4.0625.769531 5.972656 1.101563l1.585938.300781c-.050781.117187-.09375.246094-.152344.367187-.214844.433594-.367187.894532-.5625 1.328126-1.066406 2.308593-1.992187 4.675781-2.78125 7.09375-.300781.910156-.546875 1.824218-.804687 2.746093-.597657 2.140625-1.085938 4.304688-1.464844 6.492188-.164063.914062-.351563 1.8125-.472656 2.734375-.957031 6.40625-.917969 12.921875.113281 19.316406.152344 1.042969.390625 2.066406.589844 3.097656.253906 1.332032.433594 2.679688.765625 3.996094-.535157.648438-1.066407 1.3125-1.628907 1.917969-.855468.90625-1.707031 1.792969-2.558593 2.621093-1.050781.988282-2.136719 1.894532-3.246094 2.765626-.929687.742187-1.867187 1.484374-2.839844 2.140624-1.144531.777344-2.3125 1.460938-3.5 2.117188-.988281.554688-1.988281 1.125-2.992187 1.601562-1.222656.566407-2.460938 1.007813-3.707032 1.445313-1.003906.355469-2.011718.757813-3.035156 1.03125-1.269531.308594-2.550781.554687-3.839844.734375-.984374.160156-1.972656.375-2.945312.453125-1.320312.0625-2.640625.046875-3.960938-.054687-.902343 0-1.808593 0-2.695312-.109376-1.410156-.230468-2.804688-.566406-4.164062-1.007812-.714844-.203125-1.46875-.296875-2.160157-.5625-2.054687-.765625-4.007812-1.78125-5.808593-3.027344-1.519532-1.0625-2.914063-2.289062-4.15625-3.664062-5.828126-6.390625-8.925782-14.808594-8.628907-23.457032.15625-9.820312 3.257813-19.371093 8.902344-27.410156 1.886719-2.6875 4.019531-5.199218 6.375-7.492187zm62.070313 25.328125c.144531-.964844.425781-1.894532.613281-2.839844.300781-1.46875.554687-2.953125.980469-4.371094.359374-1.210937.855468-2.355468 1.324218-3.53125.46875-1.179687.769532-2.195312 1.253906-3.234375.488282-1.042969 1.21875-2.195312 1.84375-3.277343.511719-.894532.988282-1.828126 1.5625-2.671876l1.117188.121094 2.011719.222656c1.203125.125 2.390625.253907 3.515625.355469.90625.09375 1.707031.164063 2.5625.242188l2.183594.1875 2.945312.21875 1.046875.070312c6.265625.410157 9.996094.433594 10.242187.433594h5.195313c.554687 0 1.179687-.050781 1.820313-.085937l1.347656-.066407 2.242187-.136719 1.707031-.109374 2.6875-.207032 1.980469-.171875 3.089844-.28125 2.304687-.238281 3.414063-.375.636719-.066406c.691406 1.015625 1.273437 2.113281 1.878906 3.199218.496094.851563 1.058594 1.707032 1.5 2.652344.625 1.324219 1.085938 2.730469 1.589844 4.113282.332031.90625.734375 1.757812 1.015625 2.679687.46875 1.585937.765625 3.242187 1.082031 4.890625.15625.792969.402344 1.5625.511719 2.371094.351562 2.460937.523437 4.945312.511719 7.433594 0 5.589843-.894532 11.144531-2.652344 16.453124-1.96875 5.988282-5.21875 11.476563-9.523438 16.082032-5.59375 6.28125-13.546875 9.949218-21.957031 10.132812-1.238281 0-2.476563-.082031-3.703125-.25-1.703125-.242187-3.375-.648437-5-1.210937-1.410156-.460938-2.785156-1.03125-4.105469-1.707031-.117187-.058594-.246093-.101563-.367187-.171876-3.273438-1.789062-6.238282-4.09375-8.78125-6.824218-2.121094-2.25-3.984375-4.734375-5.554688-7.398438-1.613281-2.746094-2.9375-5.648437-3.941406-8.671875-2.558594-7.71875-3.28125-15.929687-2.109375-23.976562zm67.414062 89.601562c-.859375 10.171875-5.0625 19.769532-11.949219 27.304688-5.566406 6.265625-13.496093 9.921875-21.878906 10.085937-1.238281.003907-2.476563-.082031-3.703125-.246093-7.035156-1.109376-13.476562-4.597657-18.253906-9.882813-6.875-7.589844-11.054688-17.242187-11.886719-27.449219-.203125-1.6875-.300781-3.386718-.289063-5.085937.023438-2.785157.269532-5.558594.734376-8.304688.136718-.851562.324218-1.628906.503906-2.441406.398437-1.910156.914062-3.796875 1.535156-5.648437.273438-.800782.539062-1.613282.851562-2.386719.851563-2.144531 1.859376-4.222657 3.023438-6.214844.160156-.289063.289062-.605469.460938-.851563l.101562-.128906c1.902344 1.355469 3.898438 2.574219 5.972656 3.644532l.445313.222656c12.820312 6.746094 28.140625 6.746094 40.960937 0l.441406-.222656c2.074219-1.070313 4.070313-2.285157 5.972657-3.636719h.0625l.101562.128906c.167969.28125.296875.597656.460938.851563 1.164062 1.992187 2.171875 4.070312 3.019531 6.214843.308594.773438.570312 1.585938.855469 2.386719.621093 1.851562 1.132812 3.738281 1.535156 5.652344.179687.808594.367187 1.609375.503906 2.4375.460938 2.742187.703125 5.515625.722657 8.296875.015624 1.765625-.085938 3.535156-.296876 5.289062zm-55.84375 104.003906c-4.035156-4.308593-7.136719-9.40625-9.113281-14.96875-1.386719-4.027343-2.304688-8.203124-2.730469-12.441406-.199219-1.683594-.289062-3.375-.273438-5.070312.023438-2.78125.269532-5.558594.734376-8.300782.136718-.855468.324218-1.628906.503906-2.441406.398437-1.910156.914062-3.796875 1.535156-5.648437.273438-.800781.539062-1.613281.851562-2.390625.851563-2.144532 1.859376-4.21875 3.023438-6.210938.160156-.289062.289062-.605468.460938-.851562l.101562-.128906c1.902344 1.355468 3.898438 2.578124 5.972656 3.652343l.4375.222657c12.824219 6.714843 28.132813 6.714843 40.957032 0l.460937-.242188c2.078125-1.0625 4.074219-2.273438 5.972656-3.625l.085938.121094c.164062.253906.265625.535156.417969.792968 1.179687 2.019532 2.203124 4.125 3.066406 6.296876.304687.777343.5625 1.570312.851562 2.363281.628906 1.863281 1.148438 3.757812 1.554688 5.683593.167968.800782.355468 1.605469.492187 2.421876 1.488281 8.652343.707031 17.546874-2.269531 25.804687-2.027344 5.574219-5.144531 10.683594-9.171875 15.035156-5.59375 6.25-13.519531 9.910157-21.90625 10.113281-1.238281 0-2.476563-.082031-3.703125-.246093-7.0625-1.121094-13.523438-4.632813-18.3125-9.941407zm-89.011719-116.726562c-.058593-2.261719.019531-4.527344.238281-6.777344.070313-.734375.214844-1.460937.316407-2.183594.207031-1.519531.425781-3.039062.761719-4.539062.195312-.855469.449218-1.707031.691406-2.5625.355468-1.339844.75-2.679688 1.210937-3.992188.324219-.90625.691407-1.800781 1.058594-2.695312.28125-.691406.605469-1.367188.921875-2.050781.5.308593 1.046875.488281 1.558594.777343 1.480468.84375 3.003906 1.601563 4.566406 2.269532.855469.375 1.773438.734375 2.671875 1.050781 1.644531.5625 3.320313 1.03125 5.015625 1.40625.855469.1875 1.632812.410156 2.460938.546875 2.214843.359375 4.453124.558594 6.695312.597656.324219 0 .648438.070313.972656.070313h.242188c2.519531-.019531 5.035156-.226563 7.523437-.617188.683594-.101562 1.347657-.273437 2.03125-.410156 1.933594-.355469 3.84375-.816406 5.726563-1.378906.855468-.257813 1.648437-.539063 2.476562-.855469 1.824219-.648438 3.617188-1.386719 5.367188-2.21875.75-.347656 1.5-.675781 2.242187-1.058594 2.359375-1.21875 4.640625-2.582031 6.828125-4.085937.109375-.085938.238282-.144531.347656-.222657 2.351563-1.671874 4.59375-3.496093 6.707032-5.460937.199218-.171875.402344-.300781.597656-.476563.8125 1.328126 1.707031 2.617188 2.5625 3.882813-.1875.261719-.316406.578125-.503906.851563-1.679688 2.386718-3.183594 4.894531-4.496094 7.5l-.136719.238281c-1.3125 2.722656-2.4375 5.53125-3.363281 8.40625-.179688.539062-.367188 1.066406-.539062 1.621093-.859376 2.84375-1.53125 5.746094-2.003907 8.679688-.09375.554688-.152343 1.117188-.230469 1.707031-.445312 3.121094-.675781 6.273438-.691406 9.429688 0 1.195312 0 2.378906.085938 3.574219-.179688.296874-.375.597656-.5625.894531-1.6875 2.773437-3.613282 5.390625-5.761719 7.828125-.238281.203125-.460937.417968-.683594.648437-2.199219 2.359375-4.636719 4.484375-7.277343 6.339844-6.835938 5.175781-15.546876 7.21875-23.96875 5.613281-2.621094-.527344-5.113282-1.550781-7.347657-3.011718-2.167969-1.382813-4.109375-3.082032-5.769531-5.042969-5.5-6.90625-8.507812-15.464844-8.542969-24.292969zm207.925781 29.285156c-2.378906 1.507813-5.015624 2.5625-7.777343 3.113282-1.679688.367187-3.398438.554687-5.117188.5625-.855469 0-1.800781-.160157-2.707031-.246094-.902344-.085938-1.707031-.09375-2.558594-.253906-.855468-.164063-1.792968-.488282-2.6875-.753907-.898437-.261719-1.707031-.433593-2.5625-.757812-.851562-.324219-1.707031-.769531-2.488281-1.160157-.785156-.394531-1.8125-.8125-2.691406-1.316406-.878907-.503906-1.535157-1.003906-2.292969-1.507812-.90625-.605469-1.808594-1.179688-2.679688-1.863282-.734374-.570312-1.425781-1.234374-2.132812-1.859374-.855469-.757813-1.707031-1.492188-2.5625-2.328126-.679688-.707031-1.320312-1.484374-1.96875-2.246093-.648438-.757813-1.539062-1.757813-2.253906-2.703125-.71875-.949219-1.238282-1.785156-1.835938-2.6875-.492187-.742188-.988281-1.496094-1.449218-2.28125.066406-1.175782.066406-2.363282.066406-3.546875-.023438-3.144531-.261719-6.277344-.714844-9.386719-.078125-.5625-.136719-1.117188-.230469-1.707031-.476562-2.9375-1.144531-5.839844-2.003906-8.6875-.171875-.554688-.359375-1.085938-.539063-1.621094-.925781-2.875-2.050781-5.683594-3.363281-8.40625l-.136719-.238281c-1.3125-2.605469-2.816406-5.113282-4.496093-7.5-.1875-.273438-.316407-.582032-.503907-.855469.90625-1.261719 1.765626-2.558594 2.558594-3.882813.207032.179688.421875.316407.625.503907 2.101563 1.941406 4.320313 3.75 6.648438 5.410156.230468.164063.484375.28125.714844.445313 2.0625 1.410156 4.210937 2.695312 6.425781 3.847656.855469.433594 1.707031.792968 2.5625 1.1875 1.652343.765625 3.316406 1.464844 5.007812 2.070312.929688.335938 1.859375.652344 2.796875.933594 1.722656.507812 3.46875.933594 5.230469 1.269531.855469.164063 1.65625.375 2.492187.496094 2.449219.371094 4.917969.570313 7.390626.589844h.136718c.605469 0 1.195313-.113281 1.792969-.128907 1.972656-.070312 3.9375-.257812 5.886719-.5625.929687-.15625 1.835937-.402343 2.75-.609374 1.613281-.363282 3.210937-.8125 4.777344-1.347657.929687-.324219 1.84375-.691406 2.757812-1.074219 1.5625-.675781 3.089844-1.441406 4.570312-2.285156.496094-.28125 1.035157-.453125 1.53125-.761718.324219.71875.664063 1.433593.960938 2.160156.300781.726562.699219 1.707031 1.007812 2.558594.46875 1.332031.855469 2.6875 1.230469 4.046874.230469.851563.484375 1.707032.671875 2.558594.332032 1.503906.554688 3.011719.761719 4.53125.101563.734375.246094 1.460938.316406 2.191406.21875 2.269532.300781 4.550782.238281 6.828126.285157 11.46875-4.988281 22.367187-14.15625 29.261718zm-151.511718-302.488281c9.386718 2.558594 29.652344 11.886719 46.464844 45.839844-1.382813 2.472656-2.558594 5-3.882813 7.507812-.589844 1.152344-1.230469 2.296875-1.792969 3.464844-2.585937 5.324219-4.929687 10.730469-7.03125 16.214844-.46875 1.203125-.851562 2.421875-1.296875 3.632812-1.648437 4.550781-3.125 9.136719-4.429687 13.757813-.40625 1.425781-.851563 2.839844-1.191406 4.265625-.265626 1.03125-.609376 2.039062-.855469 3.0625l-.066407-.042969c-2.5625-1.875-5.191406-3.667969-7.945312-5.410156-.855469-.542969-1.757812-1.074219-2.636719-1.601563-2.101562-1.265625-4.265625-2.492187-6.496093-3.6875-.910157-.484375-1.808594-.980469-2.738282-1.460937-3.089844-1.566406-6.261718-3.09375-9.589844-4.539063-.351562-.152343-.734374-.289062-1.085937-.433593-3.011719-1.289063-6.132813-2.507813-9.335937-3.679688-.484376-.175781-.921876-.382812-1.40625-.554688.054687-26.203124 5.261718-52.140624 15.316406-76.335937zm-98.703125 138.238281c2.316406-2.335937 4.851562-4.441406 7.566406-6.296875.34375.28125.675781.511719 1.015625.785157 2.980469 2.378906 5.972656 4.660156 8.859375 6.78125.546875.402343 1.089844.761718 1.636719 1.152343 2.511718 1.792969 5 3.476563 7.46875 5.070313.800781.519531 1.601562 1.042968 2.40625 1.535156 2.902344 1.808594 5.785156 3.523438 8.617187 5.070312l.855469.433594c2.558594 1.375 5.117188 2.613282 7.679688 3.753906.410156.191407.851562.429688 1.234374.609376-1.160156 1.074218-2.226562 2.269531-3.316406 3.410156-.589844.625-1.222656 1.195312-1.792968 1.84375-1.796876 2.046875-3.472657 4.195312-5.019532 6.433594-1.757812 2.585937-3.339844 5.285156-4.734375 8.082031-.445312.855469-.792969 1.792969-1.203125 2.6875-.851562 1.9375-1.707031 3.882812-2.371094 5.878906-.367187 1.078125-.675781 2.152344-.992187 3.234375-.546875 1.886719-.996094 3.773438-1.363281 5.675781-.214844 1.125-.425782 2.234375-.582032 3.363281-.085937.621094-.253906 1.234376-.324218 1.859376-.265625.066406-.519532.09375-.777344.152343-1.367188.339844-2.757812.601563-4.152344.792969-.472656.0625-.941406.078125-1.410156.121094-1.144531.109375-2.285156.195312-3.414062.203125-.535157 0-1.046876 0-1.578126 0-1.03125-.039063-2.066406-.109375-3.070312-.238281-.546875-.066407-1.09375-.152344-1.632812-.246094-.945313-.171875-1.882813-.375-2.796876-.625-.546874-.152344-1.082031-.296875-1.613281-.476563-.851562-.289062-1.707031-.632812-2.558593-.996093-.511719-.222657-1.023438-.4375-1.519532-.683594-.855468-.4375-1.707031-.941406-2.464844-1.453125-.421874-.269531-.855468-.5-1.257812-.792969-1.175781-.835938-2.285156-1.769531-3.308594-2.789062l-.511718-.511719c-12.628907-13.421875-9.746094-37.574219 6.457031-53.855469zm-19.285157 81.554688c1.953126-3.699219 4.316407-7.167969 7.039063-10.34375.324219.230468.671875.417968 1.007813.632812.332031.210938.679687.433594 1.023437.648438 2.285156 1.449218 4.695313 2.695312 7.203125 3.71875.289062.121094.585938.203125.851562.316406 2.644532 1.019531 5.375 1.800781 8.15625 2.335938.148438 0 .300782 0 .445313.070312 2.90625.515625 5.855469.78125 8.804687.792969h.285157.152343c1.089844 0 2.183594-.085938 3.285157-.152344.648437-.042969 1.289062-.042969 1.945312-.113281 1.304688-.117188 2.609375-.339844 3.925781-.5625.460938-.074219.914063-.109375 1.363282-.203125h.128906c.53125 2.578125 1.25 5.113281 2.160156 7.585937.1875.511719.359375 1.023438.554688 1.535156.949218 2.402344 2.089844 4.722657 3.414062 6.9375.339844.5625.691406 1.109376 1.046875 1.707032.359375.597656.574219.957031.855469 1.398437-.25.453125-.488281.90625-.726562 1.359375-1.402344 2.675782-2.644532 5.433594-3.710938 8.257813-.359375.957031-.613281 1.9375-.9375 2.910156-.632812 1.886719-1.257812 3.773437-1.707031 5.691406-.28125 1.144531-.460938 2.296875-.691407 3.414063-.351562 1.792968-.683593 3.585937-.855468 5.402344-.144532 1.203124-.210938 2.414062-.289063 3.625-.070312 1.007812-.222656 2.015624-.246093 3.023437-.675782.65625-1.359376 1.304687-2.066407 1.902344-.707031.597656-1.585937 1.355469-2.40625 1.953125-1.128906.804687-2.300781 1.546875-3.507812 2.226562-.851563.496094-1.707031 1.042969-2.558594 1.460938-1.21875.558594-2.464844 1.042968-3.738281 1.449218-.855469.289063-1.707032.675782-2.558594.855469-1.804688.464844-3.652344.75-5.515625.851563-.261719 0-.527344.09375-.792969.101562-4.808594.195313-9.566406-1.0625-13.652344-3.609375-15.300781-9.828125-18.832031-36.011719-7.6875-57.179687zm20.230469 92.242187c1.191407-5.230469 3.277344-10.21875 6.160157-14.742187l.265624-.054688c1.167969-.152344 2.328126-.40625 3.5-.65625.546876-.117187 1.101563-.195312 1.644532-.332031 1.714844-.433594 3.40625-.960937 5.0625-1.578125.367187-.136719.726562-.324219 1.089844-.46875 1.308593-.523438 2.613281-1.058594 3.894531-1.707031.613281-.300781 1.210937-.675781 1.816406-1.007813 1.023437-.546875 2.039063-1.09375 3.039063-1.707031l.289062-.160156c.128906.433593.339844.851562.476562 1.246093.636719 2.007813 1.390626 3.980469 2.253907 5.902344.253906.5625.476562 1.144532.75 1.707032 1.125 2.285156 2.425781 4.480468 3.890625 6.5625.316406.445312.675781.855468 1.007812 1.28125 1.21875 1.613281 2.546875 3.144531 3.976563 4.574218.496093.492188.988281.988282 1.503906 1.464844 1.832031 1.703125 3.804687 3.246094 5.902344 4.609375.65625.425781 1.332031.851563 2.007812 1.203125-.1875.339844-.308593.726562-.488281 1.082031-.851562 1.625-1.542969 3.289063-2.226562 4.976563-.308594.769531-.65625 1.511718-.9375 2.289062-.886719 2.425782-1.628907 4.898438-2.21875 7.414063l-.0625.203125c-.574219 2.601562-.992188 5.234375-1.246094 7.886718-.050782.578126-.109375 1.152344-.152344 1.707032-.214844 2.609375-.269531 5.230468-.152344 7.851562-.445312.289063-.855468.648438-1.324218.910156-.65625.402344-1.320313.75-1.996094 1.09375-1.140625.578126-2.316406 1.078126-3.523438 1.5-.683594.242188-1.367187.488282-2.058594.667969-1.234374.308594-2.492187.527344-3.761718.648438-.613282.058593-1.230469.1875-1.84375.203125-1.847656.074218-3.699219-.074219-5.511719-.441406-.257813-.054688-.511719-.09375-.769531-.128907-15.878906-3.890625-24.949219-23.5625-20.257813-44zm24.371094 71.015625c-.003906-3.128906.324219-6.25.972656-9.308594h.402344c.46875 0 .929687-.113281 1.398437-.128906 1.324219-.085937 2.644532-.203125 3.96875-.382812 1.324219-.179688 2.558594-.351563 3.847657-.640625 1.851562-.40625 3.675781-.925781 5.460937-1.5625.625-.222657 1.230469-.484375 1.84375-.742188.769532-.316406 1.546875-.570312 2.304688-.929687.273437.734375.632812 1.425781.9375 2.140625.375.914062.742187 1.828125 1.171875 2.707031.425781.878906.9375 1.757812 1.433593 2.628906.492188.867188.851563 1.601563 1.355469 2.363282.503907.757812 1.160157 1.707031 1.765625 2.558593.496094.691407.980469 1.382813 1.511719 2.039063.65625.8125 1.347656 1.5625 2.046875 2.320312.5625.617188 1.117188 1.230469 1.707031 1.808594.238281.230469.445313.496094.683594.71875-.050781.09375-.085937.1875-.136719.28125-.222656.410156-.386718.851562-.605468 1.273438-1.101563 2.132812-2.0625 4.335937-2.886719 6.59375-.316407.855468-.578125 1.757812-.851563 2.65625-.617187 2.015624-1.125 4.0625-1.527344 6.132812-.171874.855469-.359374 1.75-.496093 2.644531-.449219 2.96875-.6875 5.960938-.707031 8.960938-14.113282 0-25.601563-15.308594-25.601563-34.132813zm68.265625 68.265625c-12.234375 0-23.039062-12.140625-25.179688-28.378906-.28125-1.90625-.421874-3.828125-.417968-5.753906.011718-2.117188.175781-4.234375.496094-6.332031.082031-.605469.203124-1.203126.3125-1.800782.28125-1.492187.636718-2.964844 1.078124-4.417968.167969-.574219.324219-1.144532.519532-1.707032.640625-1.875 1.425781-3.695312 2.347656-5.445312 1.351562.476562 2.730469.886718 4.128906 1.222656 1.472656.339844 2.960938.597656 4.460938.773438.539062.0625 1.078125.0625 1.613281.105468.964844.066406 1.929687.160156 2.902344.160156h.144531c.511719 0 1.023438-.066406 1.535156-.085937.949219 0 1.894532-.058594 2.84375-.160156.648438-.070313 1.289063-.207031 1.929688-.300781.851562-.136719 1.707031-.253907 2.558594-.441407.691406-.148437 1.363281-.351562 2.046874-.539062.683594-.1875 1.597657-.417969 2.382813-.683594.785156-.261719 1.390625-.511719 2.082031-.777344.691406-.261719 1.519532-.578125 2.269532-.921875.75-.339844 1.355468-.65625 2.039062-1.003906.683594-.351562 1.476562-.742188 2.203125-1.160156.722656-.417969 1.285156-.785156 1.925781-1.195313.480469-.308593.980469-.574219 1.453125-.855469l.152344.230469c.351563.574219.734375 1.109375 1.101563 1.707031.519531.8125 1.023437 1.640626 1.578124 2.414063-.1875.265625-.316406.574219-.496093.855469-1.691407 2.40625-3.207031 4.933594-4.53125 7.558594l-.09375.171874c-1.320313 2.726563-2.445313 5.539063-3.371094 8.421876-.179687.539062-.367187 1.058593-.527344 1.597656-.859375 2.847656-1.53125 5.75-2.007812 8.6875-.09375.5625-.152344 1.117187-.230469 1.703125-.445312 3.078125-.6875 6.179687-.714844 9.285156-.015625 2.355469.117188 4.703125.390625 7.042969v.082031c0 .410156.136719.8125.191407 1.222656.230468 1.875.492187 3.746094.851562 5.570313 0 .101562 0 .222656.050781.324218-3.019531 1.835938-6.484375 2.8125-10.019531 2.824219zm59.734375 25.601563c-15.484375-1.203125-28.386719-12.332032-31.855469-27.46875-.988281-3.304688-1.660156-6.695313-2.003906-10.128906-.199219-1.683594-.289062-3.375-.273438-5.070313.023438-2.78125.269532-5.558594.734376-8.300781.136718-.855469.324218-1.632813.503906-2.441406.398437-1.910157.914062-3.796876 1.535156-5.648438.273438-.804688.539062-1.613281.851562-2.390625.851563-2.144531 1.859376-4.222656 3.023438-6.210937.160156-.292969.289062-.605469.460938-.855469l.101562-.125c1.902344 1.355469 3.898438 2.570312 5.972656 3.640625l.445313.222656c12.820312 6.742188 28.136719 6.742188 40.960937 0l.449219-.238281c2.078125-1.0625 4.074219-2.273438 5.972656-3.625h.0625l.101563.125c.171875.28125.296875.597656.460937.855469 1.164063 1.988281 2.171875 4.066406 3.019531 6.210937.308594.777344.574219 1.585937.855469 2.390625.621094 1.851562 1.132813 3.738281 1.535157 5.648438.179687.808593.367187 1.613281.503906 2.441406.457031 2.742187.699218 5.519531.714844 8.300781 0 5.140625-.761719 10.25-2.269532 15.164063-3.460937 15.152343-16.367187 26.292968-31.863281 27.503906zm59.734375-25.601563c-3.535156-.003906-7.003906-.976562-10.027344-2.804687.1875-.855469.273438-1.808594.425782-2.707032.15625-.894531.28125-1.636718.394531-2.464843.914062-6.136719.898437-12.371094-.042969-18.5-.078125-.5625-.136719-1.117188-.230469-1.707031-.476562-2.9375-1.144531-5.839844-2.003906-8.6875-.171875-.554688-.359375-1.082032-.539063-1.621094-.925781-2.875-2.050781-5.683594-3.363281-8.40625l-.136719-.238282c-1.3125-2.605468-2.816406-5.113281-4.496093-7.5-.1875-.273437-.316407-.582031-.503907-.855468.855469-1.152344 1.597657-2.355469 2.347657-3.574219l.230469-.351563c.078124-.125.171874-.246093.246093-.375.480469.324219.972657.597657 1.460938.90625.640625.410157 1.277343.851563 1.925781 1.195313.648438.339844 1.460938.785156 2.195312 1.160156.734376.375 1.375.707031 2.066407 1.023438.6875.316406 1.449219.589843 2.175781.851562.722656.265625 1.457031.589844 2.199219.855469.742187.265625 1.417969.410156 2.125.605469.707031.195312 1.554687.445312 2.339843.613281.785157.171875 1.371094.238281 2.0625.351562.691407.109376 1.621094.289063 2.441407.375.675781.078126 1.355469.085938 2.039062.121094.683594.03125 1.503907.125 2.261719.125h.222656c.683594 0 1.355469-.085937 2.03125-.117187.851563-.050781 1.636719-.0625 2.449219-.15625 1.496094-.175781 2.984375-.4375 4.453125-.773438 1.386719-.332031 2.753906-.738281 4.097656-1.214843.921875 1.753906 1.707032 3.574218 2.34375 5.445312.199219.5625.351563 1.136719.523438 1.707031.4375 1.445313.796875 2.917969 1.074218 4.402344.109376.605469.230469 1.203125.316407 1.820313.316406 2.105468.484375 4.234374.496093 6.363281 0 1.972656-.144531 3.941406-.4375 5.890625-2.125 16.101562-12.925781 28.242187-25.164062 28.242187zm42.667969-34.132812c-.023438-3.003907-.265625-6.003907-.71875-8.976563-.136719-.851562-.324219-1.765625-.496094-2.644531-.402344-2.070313-.910156-4.117187-1.527344-6.136719-.273437-.851562-.535156-1.78125-.851562-2.652344-.820313-2.257812-1.785157-4.460937-2.882813-6.597656-.222656-.417968-.386718-.851562-.609375-1.269531-.050781-.09375-.082031-.1875-.136719-.28125.207032-.1875.386719-.417969.589844-.617187.71875-.699219 1.398438-1.449219 2.082032-2.199219.683593-.753907 1.152343-1.253907 1.707031-1.921875.554687-.664063 1.230469-1.621094 1.816406-2.449219.589844-.828125 1.027344-1.40625 1.496094-2.148437.46875-.742188 1.039062-1.777344 1.535156-2.679688.433594-.777344.851563-1.546875 1.28125-2.355469.425781-.8125.851563-1.902343 1.253906-2.875.28125-.683593.613281-1.332031.851563-2.023437.792968.375 1.613281.65625 2.414062.980468.539063.222657 1.070313.453126 1.605469.65625 1.902344.691407 3.851563 1.246094 5.828125 1.664063 1.058594.238281 2.109375.386719 3.167969.53125 1.570312.222656 3.148437.375 4.75.453125.351562 0 .703125.101562 1.058593.101562h.402344c.652344 3.058594.984375 6.179688.980469 9.308594 0 18.824219-11.484375 34.132813-25.597656 34.132813zm29.710937-61.125c-.253906.035156-.511718.078125-.765625.128906-1.816406.367187-3.664062.519531-5.515625.453125-.621094 0-1.246094-.144531-1.867187-.214844-1.246094-.121094-2.480469-.332031-3.695313-.640625-.726562-.1875-1.441406-.449219-2.167968-.699219-1.167969-.40625-2.308594-.890624-3.414063-1.449218-.699219-.351563-1.390625-.71875-2.082031-1.125-.441406-.265625-.851563-.617188-1.296875-.90625.105469-2.617188.054687-5.238282-.152344-7.851563 0-.578125-.101563-1.152343-.152344-1.707031-.253906-2.65625-.667969-5.292969-1.246093-7.898438-.601563-2.574218-1.359376-5.105468-2.261719-7.589843-.300781-.851563-.667969-1.59375-.992188-2.394531-.671875-1.707032-1.382812-3.296876-2.183593-4.890626-.179688-.351562-.308594-.734374-.484376-1.085937.703126-.386719 1.410157-.792969 2.125-1.226563 2.078126-1.363281 4.039063-2.90625 5.851563-4.609374.519531-.476563 1.015625-.972657 1.511719-1.476563 1.402344-1.421875 2.710937-2.933594 3.914062-4.53125.34375-.449219.710938-.851563 1.035156-1.320313 1.453126-2.078124 2.742188-4.261718 3.855469-6.539062.273438-.5625.503907-1.160156.761719-1.707031.855469-1.90625 1.597656-3.859375 2.226562-5.851563.136719-.425781.347657-.8125.476563-1.246094.085937.050782.179687.09375.265625.152344 1.210938.761719 2.441406 1.433594 3.675781 2.089844.386719.207031.761719.445312 1.152344.640625 3.238281 1.625 6.644531 2.890625 10.15625 3.773437.214844.058594.433594.078126.65625.128907 1.46875.359375 2.949219.644531 4.445313.851562l.257812.042969c2.878906 4.511719 4.957031 9.484375 6.144531 14.703125 4.71875 20.410156-4.351562 40.082031-20.234375 43.996094zm27.734375-164.152344-.589843.585937c-1.03125 1.019532-2.140626 1.957032-3.320313 2.800782-.382813.28125-.808594.503906-1.210937.757812-.808594.539063-1.648438 1.035156-2.507813 1.484375-.488281.238281-1 .445313-1.492187.667969-.855469.367188-1.707032.714844-2.5625 1.015625-.527344.167969-1.066407.3125-1.613282.46875-.910156.246094-1.851562.453125-2.796875.621094-.546875.09375-1.085937.179687-1.628906.25-1.015625.125-2.042969.195312-3.074219.238281-.527344 0-1.050781.050781-1.578125 0-1.125 0-2.269531-.09375-3.414062-.207031-.46875 0-.929688-.058594-1.398438-.117188-1.394531-.191406-2.78125-.457031-4.148437-.792969-.261719-.0625-.519532-.085937-.785156-.15625-.066407-.621093-.238282-1.234374-.324219-1.859374-.152344-1.125-.367188-2.234376-.578125-3.363282-.367188-1.902344-.855469-3.789062-1.367188-5.671875-.316406-1.085937-.621094-2.160156-.988281-3.234375-.691406-1.996094-1.503906-3.945312-2.382813-5.890625-.398437-.894531-.75-1.800781-1.195312-2.679687-1.394531-2.796875-2.976562-5.5-4.734375-8.085938-1.582031-2.265625-3.289063-4.4375-5.121094-6.503906-.597656-.675781-1.246093-1.273438-1.867187-1.921875-1.042969-1.097656-2.058594-2.242187-3.15625-3.257813.367187-.152343.75-.375 1.117187-.546874 2.628907-1.175782 5.28125-2.464844 7.960938-3.890626.222656-.121093.433593-.214843.648437-.332031 2.894532-1.5625 5.828125-3.304687 8.78125-5.121093.714844-.445313 1.433594-.914063 2.160156-1.375 2.59375-1.707032 5.210938-3.484376 7.847657-5.339844.4375-.308594.855469-.589844 1.289062-.90625 3.003907-2.183594 6.035157-4.53125 9.082031-6.988282.289063-.222656.5625-.417968.851563-.648437 2.714844 1.839844 5.25 3.933594 7.570313 6.253906 16.136718 16.292969 19.054687 40.371094 6.527343 53.746094zm-20.480469-76.929687c-14.03125 12.769531-30.332031 22.796874-48.058593 29.550781l-2.226563.734375c-1.300781.425781-2.5625.851562-4.125 1.296875-4.464844 1.394531-8.988281 2.695312-13.574218 3.90625-14.03125 3.699219-28.28125 6.507812-42.667969 8.40625-1.167969.15625-2.21875.265625-3.320313.402343 9.671875-7.238281 19.75-13.914062 30.183594-19.992187 4.023438-2.40625 5.359375-7.605469 2.988281-11.648437-2.375-4.042969-7.5625-5.414063-11.625-3.074219-12.699219 7.390625-24.867187 15.65625-36.410156 24.746093.195313-.671874.445313-1.371093.671875-2.0625.316406-.972656.589844-1.929687.984375-2.9375.390625-1.007812.851563-1.910156 1.269531-2.867187.417969-.953125.855469-2.082031 1.425782-3.148437.570312-1.066407 1.144531-1.960938 1.707031-2.945313.5625-.980469 1.195312-2.15625 1.917969-3.257813.726562-1.101562 1.546874-2.082031 2.324218-3.132812.773438-1.046875 1.484375-2.105469 2.363282-3.164062 1.015624-1.210938 2.226562-2.433594 3.414062-3.644532.851562-.894531 1.570312-1.785156 2.480469-2.671875 2.28125-2.203125 4.667969-4.292969 7.160156-6.253906 28.824219-22.714844 76.5-35.15625 141.902344-37.070313-11.914063 13.929688-24.878907 26.921876-38.785157 38.863282zm0 0"/><path d="m116.148438 139.605469c4.230468 1.890625 9.199218.054687 11.1875-4.128907 1.988281-4.1875.273437-9.195312-3.867188-11.28125-5.53125-2.628906-8.839844-4.046874-8.839844-4.046874-4.335937-1.851563-9.351562.164062-11.203125 4.496093-1.855469 4.335938.160157 9.355469 4.496094 11.207031.085937.035157 3.15625 1.347657 8.226563 3.753907zm0 0"/><path d="m290.476562 140.433594c1.265626-.007813 2.511719-.300782 3.652344-.855469 5.066406-2.40625 8.140625-3.71875 8.222656-3.753906 4.335938-1.851563 6.351563-6.867188 4.5-11.203125-1.855468-4.335938-6.871093-6.347656-11.207031-4.496094 0 0-3.308593 1.414062-8.839843 4.042969-3.570313 1.730469-5.480469 5.695312-4.601563 9.5625.875 3.871093 4.304687 6.628906 8.273437 6.652343zm0 0"/></svg>