<?xml version="1.0" encoding="UTF-8" standalone="no"?>
<!-- Created with Inkscape (http://www.inkscape.org/) -->

<svg
   version="1.1"
   id="svg4182"
   xml:space="preserve"
   width="682.66669"
   height="682.66669"
   viewBox="0 0 682.66669 682.66669"
   xmlns="http://www.w3.org/2000/svg"
   xmlns:svg="http://www.w3.org/2000/svg"><defs
     id="defs4186"><clipPath
       clipPathUnits="userSpaceOnUse"
       id="clipPath4196"><path
         d="M 0,512 H 512 V 0 H 0 Z"
         id="path4194" /></clipPath></defs><g
     id="g4188"
     transform="matrix(1.3333333,0,0,-1.3333333,0,682.66667)"><g
       id="g4190"><g
         id="g4192"
         clip-path="url(#clipPath4196)"><g
           id="g4198"
           transform="translate(502,256.001)"><path
             d="m 0,0 c 0,135.863 -110.139,246.001 -246.001,246.001 -135.862,0 -246.001,-110.138 -246.001,-246.001 0,-135.862 110.139,-246 246.001,-246 C -110.139,-246 0,-135.862 0,0 m -426.001,0 c 0,99.412 80.589,180 180,180 99.412,0 180,-80.588 180,-180 0,-99.411 -80.588,-180 -180,-180 -99.411,0 -180,80.589 -180,180"
             style="fill:#ddb9a3;fill-opacity:1;fill-rule:evenodd;stroke:none"
             id="path4200" /></g><g
           id="g4202"
           transform="translate(222.333,381.6484)"><path
             d="m 0,0 c 8.492,8.847 20.436,14.353 33.666,14.353 13.231,0 25.175,-5.507 33.666,-14.354 11.778,3.415 24.876,2.213 36.334,-4.402 11.458,-6.617 19.049,-17.359 21.98,-29.266 11.907,-2.93 22.648,-10.52 29.263,-21.978 6.615,-11.458 7.819,-24.556 4.403,-36.334 8.847,-8.493 14.354,-20.436 14.354,-33.666 0,-13.232 -5.507,-25.175 -14.354,-33.667 3.416,-11.778 2.212,-24.874 -4.403,-36.333 -6.615,-11.458 -17.357,-19.048 -29.264,-21.98 -2.93,-11.906 -10.521,-22.648 -21.979,-29.264 -11.458,-6.615 -24.556,-7.817 -36.334,-4.403 -8.492,-8.847 -20.436,-14.352 -33.666,-14.353 -13.231,0 -25.175,5.507 -33.668,14.354 -11.776,-3.415 -24.874,-2.213 -36.332,4.402 -11.459,6.616 -19.049,17.358 -21.98,29.265 -11.907,2.931 -22.648,10.521 -29.263,21.979 -6.615,11.459 -7.818,24.556 -4.403,36.335 -8.847,8.491 -14.354,20.434 -14.354,33.666 0,13.23 5.508,25.173 14.355,33.667 -3.416,11.776 -2.213,24.874 4.402,36.332 6.615,11.459 17.357,19.048 29.264,21.98 2.931,11.907 10.521,22.647 21.979,29.264 C -24.876,2.212 -11.777,3.414 0,0 m 33.666,54.353 c -99.411,0 -180,-80.588 -180,-180 0,-99.412 80.589,-180 180,-180 99.412,0 180,80.588 180,180 0,99.412 -80.588,180 -180,180"
             style="fill:#c68a65;fill-opacity:1;fill-rule:evenodd;stroke:none"
             id="path4204" /></g><g
           id="g4206"
           transform="translate(286.5,227.001)"><path
             d="M 0,0 C 12.426,0 22.5,-10.073 22.5,-22.5 22.5,-34.927 12.426,-45 0,-45 -12.427,-45 -22.5,-34.927 -22.5,-22.5 -22.5,-10.073 -12.427,0 0,0 m -20.231,73.976 c 0,12.426 10.074,22.5 22.5,22.5 12.426,0 22.5,-10.074 22.5,-22.5 0,-12.427 -10.074,-22.5 -22.5,-22.5 -12.426,0 -22.5,10.073 -22.5,22.5 M -86.001,44 c 12.427,0 22.5,-10.073 22.5,-22.5 0,-12.427 -10.073,-22.5 -22.5,-22.5 -12.426,0 -22.5,10.073 -22.5,22.5 0,12.427 10.074,22.5 22.5,22.5 m 21.834,110.647 c -11.777,3.415 -24.876,2.212 -36.334,-4.403 -11.458,-6.616 -19.048,-17.356 -21.978,-29.264 -11.908,-2.931 -22.65,-10.521 -29.265,-21.98 -6.615,-11.458 -7.818,-24.556 -4.402,-36.332 -8.847,-8.493 -14.355,-20.437 -14.355,-33.667 0,-13.231 5.507,-25.175 14.354,-33.666 -3.415,-11.778 -2.212,-24.876 4.403,-36.335 6.615,-11.458 17.356,-19.048 29.263,-21.979 2.931,-11.907 10.521,-22.649 21.98,-29.264 11.458,-6.615 24.556,-7.818 36.332,-4.403 8.493,-8.846 20.437,-14.354 33.668,-14.354 13.23,0.001 25.174,5.507 33.666,14.354 11.778,-3.415 24.876,-2.212 36.334,4.403 11.458,6.615 19.049,17.357 21.979,29.264 11.907,2.931 22.649,10.521 29.264,21.979 6.615,11.459 7.819,24.556 4.404,36.333 8.846,8.492 14.353,20.436 14.353,33.667 0,13.23 -5.507,25.174 -14.353,33.666 3.415,11.778 2.211,24.876 -4.404,36.334 -6.615,11.458 -17.356,19.049 -29.263,21.979 -2.931,11.907 -10.522,22.649 -21.98,29.265 -11.458,6.615 -24.556,7.818 -36.334,4.402 C -5.326,163.493 -17.27,169 -30.501,169 c -13.23,0 -25.174,-5.506 -33.666,-14.353"
             style="fill:#ffc144;fill-opacity:1;fill-rule:evenodd;stroke:none"
             id="path4208" /></g><g
           id="g4210"
           transform="translate(222.999,248.501)"><path
             d="M 0,0 C 0,12.427 -10.073,22.5 -22.5,22.5 -34.926,22.5 -45,12.427 -45,0 -45,-12.427 -34.926,-22.5 -22.5,-22.5 -10.073,-22.5 0,-12.427 0,0"
             style="fill:#88df8e;fill-opacity:1;fill-rule:evenodd;stroke:none"
             id="path4212" /></g><g
           id="g4214"
           transform="translate(266.2686,300.9766)"><path
             d="M 0,0 C 0,-12.427 10.074,-22.5 22.5,-22.5 34.927,-22.5 45,-12.427 45,0 45,12.427 34.927,22.5 22.5,22.5 10.074,22.5 0,12.427 0,0"
             style="fill:#88df8e;fill-opacity:1;fill-rule:evenodd;stroke:none"
             id="path4216" /></g><g
           id="g4218"
           transform="translate(286.5,227.001)"><path
             d="M 0,0 C -12.427,0 -22.5,-10.073 -22.5,-22.5 -22.5,-34.927 -12.427,-45 0,-45 12.426,-45 22.5,-34.927 22.5,-22.5 22.5,-10.073 12.426,0 0,0"
             style="fill:#88df8e;fill-opacity:1;fill-rule:evenodd;stroke:none"
             id="path4220" /></g><g
           id="g4222"
           transform="translate(255.999,10.001)"><path
             d="m 0,0 c 135.493,0 246.001,110.508 246.001,246.001 0,135.492 -110.508,246 -246.001,246 -135.492,0 -246.001,-110.508 -246.001,-246 C -246.001,110.508 -135.492,0 0,0 Z"
             style="fill:none;stroke:#000000;stroke-width:20;stroke-linecap:round;stroke-linejoin:round;stroke-miterlimit:22.926;stroke-dasharray:none;stroke-opacity:1"
             id="path4224" /></g><g
           id="g4226"
           transform="translate(347.9795,347.9795)"><path
             d="m 0,0 c 11.907,-2.931 22.647,-10.521 29.264,-21.979 6.615,-11.458 7.817,-24.555 4.402,-36.334 8.847,-8.491 14.354,-20.435 14.354,-33.666 0,-13.231 -5.508,-25.174 -14.354,-33.667 3.415,-11.777 2.212,-24.874 -4.403,-36.333 -6.616,-11.458 -17.357,-19.047 -29.265,-21.979 -2.931,-11.907 -10.52,-22.648 -21.978,-29.264 -11.459,-6.616 -24.556,-7.818 -36.334,-4.403 -8.492,-8.847 -20.436,-14.353 -33.666,-14.354 -13.232,0 -25.175,5.508 -33.668,14.355 -11.777,-3.416 -24.873,-2.213 -36.332,4.402 -11.459,6.616 -19.049,17.358 -21.981,29.265 -11.906,2.932 -22.647,10.52 -29.263,21.978 -6.616,11.459 -7.818,24.557 -4.403,36.335 -8.847,8.492 -14.353,20.435 -14.353,33.666 0,13.231 5.507,25.174 14.354,33.667 -3.415,11.777 -2.213,24.874 4.402,36.332 6.616,11.459 17.358,19.049 29.265,21.981 2.931,11.907 10.521,22.648 21.979,29.264 11.459,6.615 24.556,7.817 36.334,4.402 8.491,8.847 20.435,14.353 33.666,14.353 13.231,0 25.174,-5.506 33.666,-14.353 11.778,3.415 24.875,2.213 36.334,-4.403 C -10.521,22.649 -2.932,11.908 0,0 Z"
             style="fill:none;stroke:#000000;stroke-width:20;stroke-linecap:round;stroke-linejoin:round;stroke-miterlimit:22.926;stroke-dasharray:none;stroke-opacity:1"
             id="path4228" /></g><g
           id="g4230"
           transform="translate(164.2578,410.8848)"><path
             d="m 0,0 c 26.867,15.948 58.231,25.116 91.741,25.116 99.412,0 180,-80.588 180,-180 0,-99.411 -80.588,-180 -180,-180 -99.411,0 -180,80.589 -180,180 0,33.508 9.164,64.872 25.113,91.736"
             style="fill:none;stroke:#000000;stroke-width:20;stroke-linecap:round;stroke-linejoin:round;stroke-miterlimit:22.926;stroke-dasharray:none;stroke-opacity:1"
             id="path4232" /></g><g
           id="g4234"
           transform="translate(288.7686,278.4766)"><path
             d="M 0,0 C 12.393,0 22.5,10.107 22.5,22.5 22.5,34.893 12.393,45 0,45 -12.392,45 -22.5,34.893 -22.5,22.5 -22.5,10.107 -12.392,0 0,0 Z"
             style="fill:none;stroke:#000000;stroke-width:20;stroke-linecap:round;stroke-linejoin:round;stroke-miterlimit:22.926;stroke-dasharray:none;stroke-opacity:1"
             id="path4236" /></g><g
           id="g4238"
           transform="translate(200.499,226.001)"><path
             d="M 0,0 C 12.393,0 22.5,10.107 22.5,22.5 22.5,34.893 12.393,45 0,45 -12.393,45 -22.5,34.893 -22.5,22.5 -22.5,10.107 -12.393,0 0,0 Z"
             style="fill:none;stroke:#000000;stroke-width:20;stroke-linecap:round;stroke-linejoin:round;stroke-miterlimit:22.926;stroke-dasharray:none;stroke-opacity:1"
             id="path4240" /></g><g
           id="g4242"
           transform="translate(286.5,182.001)"><path
             d="M 0,0 C 12.393,0 22.5,10.108 22.5,22.5 22.5,34.893 12.393,45 0,45 -12.393,45 -22.5,34.893 -22.5,22.5 -22.5,10.108 -12.393,0 0,0 Z"
             style="fill:none;stroke:#000000;stroke-width:20;stroke-linecap:round;stroke-linejoin:round;stroke-miterlimit:22.926;stroke-dasharray:none;stroke-opacity:1"
             id="path4244" /></g><g
           id="g4246"
           transform="translate(213.5,321.501)"><path
             d="M 0,0 H 0.008"
             style="fill:none;stroke:#000000;stroke-width:20;stroke-linecap:round;stroke-linejoin:round;stroke-miterlimit:22.926;stroke-dasharray:none;stroke-opacity:1"
             id="path4248" /></g><g
           id="g4250"
           transform="translate(221.4932,178.501)"><path
             d="M 0,0 H 0.007"
             style="fill:none;stroke:#000000;stroke-width:20;stroke-linecap:round;stroke-linejoin:round;stroke-miterlimit:22.926;stroke-dasharray:none;stroke-opacity:1"
             id="path4252" /></g><g
           id="g4254"
           transform="translate(346.4932,253.501)"><path
             d="M 0,0 H 0.008"
             style="fill:none;stroke:#000000;stroke-width:20;stroke-linecap:round;stroke-linejoin:round;stroke-miterlimit:22.926;stroke-dasharray:none;stroke-opacity:1"
             id="path4256" /></g><g
           id="g4258"
           transform="translate(128.7148,383.2754)"><path
             d="M 0,0 0.005,0.005"
             style="fill:none;stroke:#000000;stroke-width:20;stroke-linecap:round;stroke-linejoin:round;stroke-miterlimit:2.613;stroke-dasharray:none;stroke-opacity:1"
             id="path4260" /></g></g></g></g></svg>
