<svg height="512pt" viewBox="-15 0 512 512" width="512pt" xmlns="http://www.w3.org/2000/svg"><path d="m94.992188 509.589844c-1.117188-1.28125-27.613282-31.953125-52.464844-79.582032-33.207032-63.640624-47.398438-127.464843-41.050782-184.570312 6.351563-57.101562 34.21875-116.246094 80.597657-171.039062 34.707031-41.007813 79.949219-74.398438 79.949219-74.398438l9.191406 10.5625c3.328125 3.828125 81.710937 95.058594 93.546875 208.59375zm0 0" fill="#97de3d"/><path d="m171.214844 10.5625-9.132813-10.4960938-66.226562 508.0390628 168.90625-288.949219c-11.835938-113.535156-90.214844-204.765625-93.546875-208.59375zm0 0" fill="#59c36a"/><path d="m106.050781 490.671875 20.261719-34.660156 48.832031-440.738281c-1.617187-1.988282-2.800781-3.390626-3.453125-4.15625-.019531-.023438-.035156-.042969-.054687-.066407-.082031-.09375-.160157-.1875-.226563-.261719-.039062-.046874-.0625-.074218-.097656-.113281-.03125-.035156-.074219-.082031-.097656-.113281l-9.191406-10.5625s-7.933594 5.855469-19.707032 15.675781l-62.117187 475.003907c8.492187 11.617187 14.285156 18.324218 14.792969 18.910156zm0 0" fill="#59c36a"/><path d="m162.082031.0664062-66.226562 508.0390628 10.191406-17.433594 12.628906-27.1875 56.46875-448.210937c-2.070312-2.550782-12.25-14.269532-13.0625-15.2070318zm0 0" fill="#00a66c"/><path d="m137.554688 512c-17.203126 0-27.886719-.992188-28.738282-1.074219l-13.835937-1.332031.183593-13.898438c.023438-1.6875.695313-41.925781 13.804688-93.632812 17.515625-69.089844 49.230469-125.738281 91.710938-163.816406 42.480468-38.078125 102.242187-63.433594 172.828124-73.320313 52.832032-7.398437 92.898438-3.6875 94.578126-3.523437l13.839843 1.332031-.183593 13.898437c-.023438 1.6875-.695313 41.925782-13.804688 93.632813-17.519531 69.089844-49.230469 125.738281-91.710938 163.816406-42.480468 38.078125-102.242187 63.433594-172.828124 73.320313-26.085938 3.652344-49.066407 4.597656-65.84375 4.597656zm0 0" fill="#97de3d"/><path d="m468.085938 161.402344c-.421876-.042969-3.300782-.308594-8.210938-.566406l-117.15625 105.363281-9.785156-93.597657c-10.128906 2.4375-19.972656 5.222657-29.503906 8.351563l11.503906 110.234375-47.871094 43.050781-13.449219-132.363281c-10.066406 5.28125-19.613281 11.039062-28.605469 17.25l14.261719 140.109375-47.847656 43.035156-13.410156-140.765625c-9.664063 11.292969-18.601563 23.699219-26.761719 37.109375l12.363281 128.667969-68.179687 61.316406c-.222656 4.210938-.265625 6.703125-.269532 7.097656l-.183593 13.898438 13.839843 1.332031c.367188.035157 2.609376.246094 6.4375.46875l68.976563-62.035156 124.601563 28.195313c14.125-6.484376 27.359374-13.835938 39.605468-22.007813l-136.722656-30.90625 49.695312-44.695313 137.113282 31.296876c7.070312-8.222657 13.746094-17.042969 20.023437-26.414063l-129.65625-29.59375 45.578125-40.992187 109.5 24.804687c4.167969-9.113281 8.03125-18.566406 11.574219-28.347656l-93.589844-21.175781 119.605469-107.566407c.144531-3.132812.175781-4.988281.179688-5.324219l.183593-13.902343zm0 0" fill="#59c36a"/><path d="m94.996094 508.386719-.015625 1.207031 13.835937 1.332031c.851563.082031 11.535156 1.074219 28.738282 1.074219 16.777343 0 39.757812-.945312 65.84375-4.597656 70.585937-9.886719 130.347656-35.242188 172.828124-73.324219 42.480469-38.078125 74.191407-94.722656 91.710938-163.8125 13.109375-51.707031 13.78125-91.945313 13.804688-93.632813l.179687-13.65625zm0 0" fill="#59c36a"/><path d="m94.996094 508.386719-.015625 1.207031 13.835937 1.332031c.371094.035157 2.609375.246094 6.4375.46875l68.980469-62.035156 124.601563 28.195313c14.125-6.484376 27.359374-13.835938 39.601562-22.007813l-136.722656-30.90625 49.699218-44.695313 137.109376 31.296876c7.070312-8.222657 13.75-17.042969 20.023437-26.414063l-129.65625-29.59375 45.578125-40.992187 109.5 24.804687c4.167969-9.113281 8.03125-18.566406 11.578125-28.347656l-93.59375-21.175781 119.605469-107.566407c.144531-3.132812.179687-4.988281.183594-5.324219l.179687-13.65625zm0 0" fill="#00a66c"/></svg>