<?xml version="1.0" encoding="UTF-8"?>
<svg xmlns="http://www.w3.org/2000/svg" xmlns:xlink="http://www.w3.org/1999/xlink" version="1.1" id="Capa_1" x="0px" y="0px" viewBox="0 0 512.037 512.037" style="enable-background:new 0 0 512.037 512.037;" xml:space="preserve" width="512" height="512">
<g>
	<g>
		<g>
			<g>
				<path style="fill:#FFF2DE;" d="M483.81,169.056L443.368,60.159c-14.854-39.995-63.635-54.97-98.371-30.197l-94.576,67.45&#10;&#9;&#9;&#9;&#9;&#9;c-37.138,26.487-68.657,60.23-91.712,99.59c-11.23,19.172-20.183,38.985-26.182,58.529&#10;&#9;&#9;&#9;&#9;&#9;c-33.262,108.356,23.81,209.83,123.264,240.359c99.455,30.53,203.631-21.445,236.893-129.802&#10;&#9;&#9;&#9;&#9;&#9;c5.999-19.543,9.705-40.968,11.166-63.138C506.849,257.433,499.691,211.818,483.81,169.056z"/>
			</g>
		</g>
		<path style="fill:#FFE4C2;" d="M259.058,294.373c5.999-19.543,14.953-39.357,26.182-58.529&#10;&#9;&#9;&#9;c23.055-39.361,54.574-73.104,91.712-99.59l74.85-53.382l-8.435-22.713c-14.853-39.995-63.635-54.97-98.371-30.197l-94.576,67.45&#10;&#9;&#9;&#9;c-37.138,26.487-68.657,60.23-91.712,99.59c-11.23,19.172-20.183,38.985-26.183,58.529&#10;&#9;&#9;&#9;c-33.262,108.356,23.81,209.83,123.264,240.359c22.265,6.835,44.765,9.522,66.655,8.38&#10;&#9;&#9;&#9;C261.85,458.414,233.243,378.471,259.058,294.373z"/>
		<path style="fill:#E4996D;" d="M254.404,81.833L157.258,18.14C121.578-5.252,73.42,11.623,60.146,52.17L24.002,162.568&#10;&#9;&#9;&#9;C9.809,205.919,4.445,251.78,9.226,297.145c2.329,22.096,6.871,43.359,13.632,62.652&#10;&#9;&#9;&#9;c37.483,106.97,143.616,154.822,241.798,120.418s151.233-138.036,113.75-245.006c-6.761-19.293-16.484-38.741-28.456-57.458&#10;&#9;&#9;&#9;C325.368,139.325,292.552,106.843,254.404,81.833z"/>
		<path style="fill:#DF8A57;" d="M131.822,321.615c-6.761-19.293-11.303-40.556-13.632-62.652&#10;&#9;&#9;&#9;c-4.781-45.364,0.584-91.226,14.776-134.577l32.929-100.581l-8.639-5.664C121.578-5.252,73.42,11.623,60.146,52.17L24.002,162.568&#10;&#9;&#9;&#9;C9.809,205.919,4.445,251.78,9.226,297.145c2.329,22.096,6.871,43.359,13.632,62.652&#10;&#9;&#9;&#9;c37.483,106.97,143.616,154.822,241.798,120.418c19.007-6.66,36.313-15.925,51.607-27.295&#10;&#9;&#9;&#9;C236.92,455.68,162.049,407.876,131.822,321.615z"/>
		<g>
			<g>
				<g>
					<g>
						
							<ellipse transform="matrix(0.9437 -0.3307 0.3307 0.9437 -60.6633 37.9523)" style="fill:#FFFFFF;" cx="81.203" cy="197.255" rx="29.355" ry="23.377"/>
					</g>
					<g>
						
							<ellipse transform="matrix(0.9437 -0.3307 0.3307 0.9437 -34.8134 84.6475)" style="fill:#FFFFFF;" cx="231.365" cy="144.637" rx="29.355" ry="23.377"/>
					</g>
				</g>
			</g>
		</g>
	</g>
	<g>
		<path style="fill:none;stroke:#000000;stroke-width:15;stroke-linecap:round;stroke-linejoin:round;stroke-miterlimit:10;" d="&#10;&#9;&#9;&#9;M320.76,377.663c9.023-34.128,7.19-76.016-8.236-120.038c-5.829-16.634-13.612-33.612-22.818-50.14&#10;&#9;&#9;&#9;c-3.807-6.835-7.815-13.492-12.009-19.959"/>
		<path style="fill:none;stroke:#000000;stroke-width:15;stroke-linecap:round;stroke-linejoin:round;stroke-miterlimit:10;" d="&#10;&#9;&#9;&#9;M71.801,259.95c0.758,7.582,1.772,15.196,3.049,22.822c3.125,18.66,7.641,36.782,13.469,53.416&#10;&#9;&#9;&#9;c15.426,44.022,40.14,77.893,68.491,98.924"/>
		<g>
			<g>
				
					<line style="fill:none;stroke:#000000;stroke-width:15;stroke-linecap:round;stroke-linejoin:round;stroke-miterlimit:10;" x1="309.754" y1="55.097" x2="266.06" y2="86.258"/>
				<path style="fill:none;stroke:#000000;stroke-width:15;stroke-linecap:round;stroke-linejoin:round;stroke-miterlimit:10;" d="&#10;&#9;&#9;&#9;&#9;&#9;M237.651,489.351c5.873,2.447,11.923,4.632,18.139,6.54c99.455,30.53,203.631-21.445,236.893-129.802&#10;&#9;&#9;&#9;&#9;&#9;c5.999-19.543,9.705-40.968,11.166-63.138c3-45.517-4.158-91.133-20.039-133.895L443.368,60.159&#10;&#9;&#9;&#9;&#9;&#9;c-14.854-39.995-63.635-54.97-98.371-30.197l-8.821,6.291"/>
			</g>
		</g>
		<path style="fill:none;stroke:#000000;stroke-width:15;stroke-linecap:round;stroke-linejoin:round;stroke-miterlimit:10;" d="&#10;&#9;&#9;&#9;M94.628,457.417c48.266,34.312,110.603,43.622,170.027,22.799c98.182-34.404,151.233-138.036,113.75-245.006&#10;&#9;&#9;&#9;c-6.761-19.293-16.484-38.741-28.456-57.458c-24.58-38.427-57.397-70.909-95.545-95.92L157.258,18.14&#10;&#9;&#9;&#9;C121.578-5.252,73.42,11.623,60.146,52.17L24.002,162.568C9.809,205.919,4.445,251.78,9.226,297.145&#10;&#9;&#9;&#9;c2.329,22.096,6.871,43.359,13.632,62.652c10.86,30.993,27.483,57.023,48.006,77.527"/>
		<path style="fill:none;stroke:#000000;stroke-width:15;stroke-linecap:round;stroke-linejoin:round;stroke-miterlimit:10;" d="&#10;&#9;&#9;&#9;M265.289,397.101c-3.623-29.697-13.197-68.873-28.623-112.895c-5.829-16.634-12.507-33.999-19.655-51.249&#10;&#9;&#9;&#9;c-2.956-7.133-5.954-14.144-8.987-21.019"/>
		<path style="fill:none;stroke:#000000;stroke-width:15;stroke-linecap:round;stroke-linejoin:round;stroke-miterlimit:10;" d="&#10;&#9;&#9;&#9;M141.514,235.522c1.902,7.181,3.913,14.446,6.031,21.777c5.182,17.939,10.804,35.673,16.632,52.308&#10;&#9;&#9;&#9;c15.426,44.022,32.398,80.605,48.104,106.068"/>
		
			<line style="fill:none;stroke:#000000;stroke-width:15;stroke-linecap:round;stroke-linejoin:round;stroke-miterlimit:10;" x1="85.939" y1="159.036" x2="89.907" y2="170.36"/>
		
			<line style="fill:none;stroke:#000000;stroke-width:15;stroke-linecap:round;stroke-linejoin:round;stroke-miterlimit:10;" x1="203.809" y1="117.733" x2="207.778" y2="129.057"/>
		<path style="fill:none;stroke:#000000;stroke-width:15;stroke-linecap:round;stroke-linejoin:round;stroke-miterlimit:10;" d="&#10;&#9;&#9;&#9;M133.186,154.816c5.297,3.011,11.816,3.807,18.018,1.634s10.799-6.864,13.058-12.523"/>
	</g>
</g>















</svg>
