<svg height="512" viewBox="0 0 64 64" width="512" xmlns="http://www.w3.org/2000/svg"><g id="_21-pickle" data-name="21-pickle"><path d="m17 1h30a2.006 2.006 0 0 1 2 2v5h-34v-5a2.006 2.006 0 0 1 2-2z" fill="#ede9e1"/><path d="m29.73 52.62c.7.94 1.45 1.91 2.25 2.93a8.155 8.155 0 0 1 -4.35 2.08l-.08-.06a6.043 6.043 0 0 1 -2.11-3.05 8.411 8.411 0 0 0 4.29-1.9z" fill="#2d4f00"/><path d="m44.26 21.21a4.912 4.912 0 0 1 .74.24c2.33 1.54.47 10.94-4.25 21.3-.08.18-.17.36-.25.53-.84-1.18-1.59-2.29-2.27-3.39 3.86-9.29 4.79-17.48 2.82-18.45l-.05-.19a5.838 5.838 0 0 1 3.14-.07z" fill="#3b6900"/><path d="m27.12 48.97c.79 1.17 1.66 2.38 2.61 3.65a8.411 8.411 0 0 1 -4.29 1.9 4.663 4.663 0 0 1 .65-4.19c.34-.45.67-.9.99-1.33z" fill="#2d4f00"/><path d="m49 26.92a4.965 4.965 0 0 1 -.12 1.08c-1.81 8.12-3.28 13-5.95 18l-.26.2c-.79-1.03-1.51-1.99-2.17-2.92.08-.17.17-.35.25-.53 4.72-10.36 6.58-19.76 4.25-21.3a6.067 6.067 0 0 1 4 5.47z" fill="#5b8a1d"/><path d="m41.05 21.44c1.97.97 1.04 9.16-2.82 18.45a41.869 41.869 0 0 1 -3.05-5.8l.21-.09c.84-2.58 1.58-5.55 2.43-9.38a4.567 4.567 0 0 1 3.18-3.37z" fill="#345c00"/><path d="m40.5 43.28c.66.93 1.38 1.89 2.17 2.92.89 1.17 1.88 2.41 2.96 3.76a5.112 5.112 0 0 1 .83 4.86c-4.66-.43-10.24-5.12-14.84-14.46-5.78-11.74-7.34-22.65-4.68-23.86l.05-.21a5.479 5.479 0 0 1 3.99 3.9 86.992 86.992 0 0 0 4.2 13.9 41.869 41.869 0 0 0 3.05 5.8c.68 1.1 1.43 2.21 2.27 3.39z" fill="#4a7017"/><path d="m29.73 52.62c-.95-1.27-1.82-2.48-2.61-3.65-5.05-7.42-7.2-13.32-9.97-24.86a5.9 5.9 0 0 1 1.13-4.9 7.944 7.944 0 0 1 3.64-2.66c-2.8 1.94-.47 12.73 5.39 24.63 5.4 10.96 11.69 16.88 16.41 17.24l-.02.01a8.308 8.308 0 0 1 -4.84 1.57 6.542 6.542 0 0 1 -5.17-2.29q-.9-1.11-1.71-2.16c-.8-1.02-1.55-1.99-2.25-2.93z" fill="#4a7017"/><path d="m26.94 16.5c-2.66 1.21-1.1 12.12 4.68 23.86 4.6 9.34 10.18 14.03 14.84 14.46a7.1 7.1 0 0 1 -2.65 3.52l-.09.08c-4.72-.36-11.01-6.28-16.41-17.24-5.86-11.9-8.19-22.69-5.39-24.63a7.9 7.9 0 0 1 1.01-.3l.14-.04a7.727 7.727 0 0 1 3.92.08z" fill="#679c20"/><path d="m48.24 19.24a7.66 7.66 0 0 1 -2.24-5.41v-2.83h-28v2.83a8.258 8.258 0 0 1 -1.73 4.85c-.16.19-.33.38-.51.56a5.993 5.993 0 0 0 -1.76 4.25v32.51a4 4 0 0 0 4 4h20.86a6.542 6.542 0 0 1 -5.17-2.29q-.9-1.11-1.71-2.16a8.155 8.155 0 0 1 -4.35 2.08l-.08-.06a6.043 6.043 0 0 1 -2.11-3.05 4.663 4.663 0 0 1 .65-4.19c.34-.45.67-.9.99-1.33l.04-.03c-5.05-7.42-7.2-13.32-9.97-24.86a5.9 5.9 0 0 1 1.13-4.9 8.21 8.21 0 0 1 4.65-2.96l.14-.04a7.727 7.727 0 0 1 3.92.08 5.479 5.479 0 0 1 3.99 3.9 86.992 86.992 0 0 0 4.2 13.9l.21-.09c.84-2.58 1.58-5.55 2.43-9.38a4.567 4.567 0 0 1 3.18-3.37 5.838 5.838 0 0 1 3.14-.07l.12.03a4.912 4.912 0 0 1 .74.24 6.067 6.067 0 0 1 4 5.47h1v-3.43a5.993 5.993 0 0 0 -1.76-4.25z" fill="#cdf55f"/><path d="m46 60h-7.14a8.308 8.308 0 0 0 4.84-1.57l.02-.01.09-.08a7.1 7.1 0 0 0 2.65-3.52 5.112 5.112 0 0 0 -.83-4.86c-1.08-1.35-2.07-2.59-2.96-3.76l.26-.2c2.67-5 4.14-9.88 5.95-18a4.965 4.965 0 0 0 .12-1.08h1v29.08a4 4 0 0 1 -4 4z" fill="#cdf55f"/><path d="m11 57v-35.51a5.993 5.993 0 0 1 1.76-4.25l2.24-2.24v-4h3v2.83a8.258 8.258 0 0 1 -1.73 4.85c-.16.19-.33.38-.51.56a5.993 5.993 0 0 0 -1.76 4.25v32.51a4 4 0 0 0 4 4h28a4 4 0 0 0 4-4v-32.51a5.993 5.993 0 0 0 -1.76-4.25 7.66 7.66 0 0 1 -2.24-5.41v-2.83h3v4l2.24 2.24a5.993 5.993 0 0 1 1.76 4.25v35.51a6 6 0 0 1 -6 6h-30a6 6 0 0 1 -6-6z" fill="#fffcbd"/><rect fill="#a0968c" height="3" rx="1.5" width="40" x="12" y="8"/><path d="m42.446 38.759c-.427-.632-.836-1.254-1.216-1.869-.417-.666-.8-1.325-1.166-1.984-.513 1.6-1.123 3.272-1.834 4.984.68 1.1 1.43 2.21 2.27 3.39.08-.17.17-.35.25-.53.616-1.35 1.181-2.687 1.696-3.991z" fill="#345c00"/><path d="m42.446 38.759c-.515 1.3-1.08 2.639-1.7 3.991-.08.18-.17.36-.25.53.66.93 1.38 1.89 2.17 2.92l.26-.2c.7-1.3 1.31-2.6 1.87-3.949-.455-.605-.893-1.2-1.3-1.771-.366-.52-.713-1.023-1.05-1.521z" fill="#3b6900"/><path d="m35.18 34.09a41.869 41.869 0 0 0 3.05 5.8c.711-1.712 1.321-3.385 1.834-4.984a41.425 41.425 0 0 1 -1.884-3.816c-.41-.962-.792-1.958-1.159-3.007-.541 2.245-1.063 4.174-1.631 5.917z" fill="#264200"/><path d="m47 1v3a2 2 0 0 1 -2 2h-26a2 2 0 0 1 -2-2v-3a2.006 2.006 0 0 0 -2 2v5h34v-5a2.006 2.006 0 0 0 -2-2z" fill="#ded9d0"/><rect fill="#afa59b" height="2" rx="1" width="18" x="20.102" y="8"/><rect fill="#afa59b" height="1.953" rx=".977" width="3" x="40.102" y="8.031"/><path d="m17.9 15h28.2a7.718 7.718 0 0 1 -.1-1.17v-2.83h-28v2.83a7.016 7.016 0 0 1 -.1 1.17z" fill="#a7e340"/><g fill="#ffddb3"><path d="m46.1 15h2.9v-4h-3v2.83a7.718 7.718 0 0 0 .1 1.17z"/><path d="m18 13.83v-2.83h-3v4h2.9a7.016 7.016 0 0 0 .1-1.17z"/><rect height="3" rx="1.5" width="21" x="18" y="60"/><rect height="3" rx="1.5" width="5" x="41" y="60"/></g><rect fill="#fff5df" height="22" rx="1.5" width="3" x="50" y="27"/><rect fill="#fff5df" height="22" rx="1.5" width="3" x="11" y="27"/><path d="m45.63 49.96c-1.08-1.35-2.07-2.59-2.96-3.76-.168-.219-.321-.424-.483-.637a9.038 9.038 0 0 1 -5.272 3.127c3.228 3.84 6.573 5.856 9.545 6.13a5.112 5.112 0 0 0 -.83-4.86z" fill="#345c00"/><path d="m31.765 48.838a13.5 13.5 0 0 1 -6.42-2.611c.55.9 1.139 1.809 1.775 2.743.79 1.17 1.66 2.38 2.61 3.65.7.94 1.45 1.91 2.25 2.93q.81 1.05 1.71 2.16a6.542 6.542 0 0 0 5.17 2.29 8.308 8.308 0 0 0 4.84-1.57l.02-.01c-3.464-.264-7.773-3.534-11.955-9.582z" fill="#345c00"/><path d="m36.915 48.69a13.508 13.508 0 0 1 -2.915.31 15.865 15.865 0 0 1 -2.235-.162c4.182 6.048 8.491 9.318 11.955 9.582l.09-.08a7.1 7.1 0 0 0 2.65-3.52c-2.972-.274-6.317-2.29-9.545-6.13z" fill="#4a7017"/><path d="m26.061 24.157a16.572 16.572 0 0 1 6.48 2.148c-.507-1.826-1.015-3.838-1.561-6.115a5.479 5.479 0 0 0 -3.99-3.9l-.05.21c-1.296.59-1.587 3.487-.879 7.657z" fill="#679c20"/><path d="m21.92 16.55a7.944 7.944 0 0 0 -3.64 2.66 5.9 5.9 0 0 0 -1.13 4.9c.155.644.307 1.264.458 1.874a9.2 9.2 0 0 1 3.595-1.7c-.767-3.978-.59-6.828.717-7.734z" fill="#679c20"/><path d="m21.2 24.282a10.484 10.484 0 0 1 2.409-.282 19.834 19.834 0 0 1 2.452.157c-.708-4.17-.417-7.067.879-7.657l.05-.21a7.727 7.727 0 0 0 -3.92-.08l-.14.04a7.9 7.9 0 0 0 -1.01.3c-1.307.906-1.484 3.756-.72 7.732z" fill="#78b22a"/><ellipse cx="47.427" cy="44.208" fill="#f6fafd" rx=".413" ry=".574" transform="matrix(.707 -.707 .707 .707 -17.368 46.507)"/><ellipse cx="47.682" cy="46.708" fill="#f6fafd" rx=".825" ry="1.148" transform="matrix(.707 -.707 .707 .707 -19.062 47.419)"/><ellipse cx="17.684" cy="38.695" fill="#f6fafd" rx="1.642" ry="2.286" transform="matrix(.707 -.707 .707 .707 -22.187 23.852)"/><ellipse cx="16.682" cy="34.708" fill="#f6fafd" rx=".825" ry="1.148" transform="matrix(.707 -.707 .707 .707 -19.661 21.974)"/><path d="m51.95 16.535-1.95-1.949v-2.586h.5a2.5 2.5 0 0 0 0-5h-.5v-4a3 3 0 0 0 -3-3h-30a3 3 0 0 0 -3 3v4h-.5a2.5 2.5 0 0 0 0 5h.5v2.586l-1.95 1.949a6.958 6.958 0 0 0 -2.05 4.95v35.515a7.008 7.008 0 0 0 7 7h30a7.008 7.008 0 0 0 7-7v-35.515a6.958 6.958 0 0 0 -2.05-4.95zm-35.95-13.535a1 1 0 0 1 1-1h30a1 1 0 0 1 1 1v4h-3v-3h-2v3h-2v-3h-2v3h-2v-3h-2v3h-2v-3h-2v3h-2v-3h-2v3h-2v-3h-2v3h-2v-3h-2v3h-3zm-3 6.5a.5.5 0 0 1 .5-.5h37a.5.5 0 0 1 0 1h-37a.5.5 0 0 1 -.5-.5zm39 47.5a5.006 5.006 0 0 1 -5 5h-30a5.006 5.006 0 0 1 -5-5v-35.515a4.973 4.973 0 0 1 1.464-3.536l2.243-2.242a1 1 0 0 0 .293-.707v-3h32v3a1 1 0 0 0 .293.707l2.242 2.242a4.97 4.97 0 0 1 1.465 3.536z"/><path d="m20.368 25.215q.21.978.489 2.036l1.934-.512c-.177-.671-.334-1.321-.468-1.944z"/><path d="m13 28h2v2h-2z"/><path d="m47 14h-2a8.388 8.388 0 0 0 2.533 5.95 4.97 4.97 0 0 1 1.467 3.535v.015a7.353 7.353 0 0 0 -3.562-2.947c-.051-.03-.091-.076-.145-.1l-.018.037a7.479 7.479 0 0 0 -.782-.245l-.108-.026a6.61 6.61 0 0 0 -5.057.708 5.454 5.454 0 0 0 -2.485 3.473c-.028.126-.054.239-.082.362l-.468-.468-1.293 1.292-1.293-1.293-.537.537q-.378-1.423-.769-3.015l1.892 1.892a1 1 0 0 0 1.414 0l2-2-1.414-1.414-1.293 1.293-1.293-1.293-1.349 1.349c-.135-.548-.271-1.106-.41-1.687-.866-3.622-4.865-5.69-9.1-4.716l-.141.032a9.423 9.423 0 0 0 -.916.263l-.019-.044a2.46 2.46 0 0 0 -.213.134 8.994 8.994 0 0 0 -3.747 2.589 8.173 8.173 0 0 0 1.188-4.213h-2a6.4 6.4 0 0 1 -1.948 4.535 6.958 6.958 0 0 0 -2.052 4.95v2.515h2v-2.515a4.973 4.973 0 0 1 1.464-3.536c.181-.18.348-.368.51-.56a6.717 6.717 0 0 0 -.8 4.95c2.733 11.361 4.878 17.342 9.709 24.6-.2.265-.388.526-.592.8-1.937 2.6-1.214 6.39 1.648 8.623l.09.07a7.588 7.588 0 0 0 .871.568h-9.9a3 3 0 0 1 -3-3v-24h-2v24a5.006 5.006 0 0 0 5 5h20.529c.106 0 .21.016.316.016.132 0 .266-.01.4-.016h6.755a5.006 5.006 0 0 0 5-5v-2h-2v2a3 3 0 0 1 -3 3h-1.412a7.8 7.8 0 0 0 3.09-5.047 6 6 0 0 0 -1.265-4.615c-.888-1.105-1.706-2.138-2.466-3.118a59.142 59.142 0 0 0 5.053-14.297v20.077h2v-28.515a6.958 6.958 0 0 0 -2.05-4.95 6.4 6.4 0 0 1 -1.95-4.535zm-12.707 13.707a1 1 0 0 0 1.414 0l.494-.494c-.37 1.568-.711 2.9-1.042 4.089-.456-1.253-.886-2.585-1.311-4.04zm-7.393 23.223.185-.251c1.54 2.189 3.335 4.534 5.459 7.2a5.219 5.219 0 0 1 -4.282-1.024l-.09-.07c-2.001-1.562-2.56-4.133-1.272-5.855zm18.8 2.756a10.555 10.555 0 0 1 -3.52-1.525l-1.088 1.678a12.759 12.759 0 0 0 3.925 1.748 6.41 6.41 0 0 1 -1.592 1.789c-4.606-.655-10.489-7.05-15.209-16.638a82.659 82.659 0 0 1 -4.864-12.038l-1.912.586a84.578 84.578 0 0 0 4.978 12.331c4.364 8.866 9.657 15.04 14.452 17.084a6.024 6.024 0 0 1 -6.4-1.618c-10.048-12.53-12.646-17.808-16.351-33.211a4.769 4.769 0 0 1 .667-3.628 6.272 6.272 0 0 1 1.02-1.238 17.04 17.04 0 0 0 .206 4.3l1.976-.306c-.534-3.44-.111-5.106.461-5.575.23-.077.466-.145.706-.2l.141-.033a7.173 7.173 0 0 1 1.931-.163c-.045.1-.095.193-.135.3-1.423 3.97 1 14.062 5.633 23.474a35.824 35.824 0 0 0 8.64 11.769l1.275-1.541a33.853 33.853 0 0 1 -8.121-11.111c-4.79-9.731-6.607-18.953-5.544-21.92a1.3 1.3 0 0 1 .317-.539 4.338 4.338 0 0 1 2.708 2.959c3.425 14.311 5.507 18.541 14.851 30.17a3.974 3.974 0 0 1 .849 3.096zm2.211-25.9c-1.568 7.014-2.917 11.884-5.311 16.674a51.678 51.678 0 0 1 -6.246-10.188c.768-2.371 1.5-5.2 2.438-9.439a3.429 3.429 0 0 1 1.586-2.211c.1-.065.226-.105.337-.16.594.923.727 5.782-2.3 14.2l1.881.678c2.076-5.768 3.429-12.3 2.359-15.317a5.1 5.1 0 0 1 1.25.135l.108.027a5.456 5.456 0 0 1 .552.193c.958 1.049.614 7.21-3.546 17.241l1.848.766c2.323-5.6 4.3-12.149 4.121-16.236a4.42 4.42 0 0 1 .919 3.633z"/><path d="m18 55.414v1.586h2v-1.586l1.707-1.707-1.414-1.414-1.293 1.293-1.293-1.293-1.414 1.414z"/><path d="m18.293 51.707a1 1 0 0 0 1.414 0l2-2-1.414-1.414-1.293 1.293-1.293-1.293-1.414 1.414z"/><path d="m16.293 45.707 2 2a1 1 0 0 0 1.414 0l2-2-1.414-1.414-1.293 1.293-1.293-1.293z"/><path d="m18 41h2v2h-2z"/><path d="m35 20a1 1 0 0 0 .707-.293l2-2-1.414-1.414-1.293 1.293-1.293-1.293-1.414 1.414 2 2a1 1 0 0 0 .707.293z"/><path d="m34 13h2v2h-2z"/></g></svg>