<svg height="512" viewBox="0 0 512 512" width="512" xmlns="http://www.w3.org/2000/svg"><g id="Layer_27" data-name="Layer 27"><path d="m232 462.63a210.9 210.9 0 0 0 48 0v32.185q-11.841 1.176-24 1.185t-24-1.185z" fill="#f4a93c"/><circle cx="255.999" cy="256" fill="#6b2d10" r="240"/><circle cx="255.999" cy="256" fill="#c13b1f" r="208"/><path d="m16 256a238.788 238.788 0 0 0 38.071 129.637 239.51 239.51 0 0 0 81.929 14.363c132.548 0 240-107.452 240-240a238.788 238.788 0 0 0 -38.073-129.637 239.51 239.51 0 0 0 -81.927-14.363c-132.549 0-240 107.452-240 240z" fill="#7c3c1d"/><path d="m48 256a207.221 207.221 0 0 0 55.888 141.8 241.918 241.918 0 0 0 32.112 2.2c132.548 0 240-107.452 240-240a239.449 239.449 0 0 0 -14.95-83.5 206.97 206.97 0 0 0 -105.05-28.5c-114.876 0-208 93.125-208 208z" fill="#db432a"/><circle cx="255.999" cy="256" fill="#fce797" r="136"/><path d="m374.205 188.9a135.963 135.963 0 1 0 -157.719 197.225c84.228-29.984 146.722-105.667 157.719-197.225z" fill="#f9e6aa"/><path d="m310.687 352c.015.015 1.312 0 1.312 0 34.046-.6 64-42.981 64-96s-28.654-96-64-96h-1.312a66.206 66.206 0 0 1 -15.5 17.087c-18.481 14.374-31.187 44.313-31.187 78.913s12.707 64.535 31.187 78.912a66.211 66.211 0 0 1 15.5 17.088z" fill="#bc7f35"/><path d="m369.681 214.617c-10.311-32.276-32.228-54.617-57.681-54.617h-1.312a66.22 66.22 0 0 1 -15.5 17.087c-18.482 14.374-31.188 44.313-31.188 78.913s12.707 64.535 31.188 78.912c.93.723 1.68 1.611 2.566 2.377a239.755 239.755 0 0 0 71.927-122.672z" fill="#d38b3d"/><path d="m280 49.37v-32.185q-11.842-1.176-24-1.185t-24 1.185v32.185a210.9 210.9 0 0 1 48 0z" fill="#f6b940"/><path d="m494.814 280q1.176-11.839 1.185-24t-1.185-24h-32.185a210.828 210.828 0 0 1 0 48z" fill="#f4a93c"/><path d="m49.362 279.945a203.99 203.99 0 0 1 -1.362-23.945 210.156 210.156 0 0 1 1.37-24h-32.186q-1.176 11.841-1.184 24t1.185 24z" fill="#f6b940"/><path d="m288 183.773v.227c0 26.51 14.327 48 32 48s32-21.49 32-48v-2.944c-10.958-13.175-24.866-21.056-40-21.056h-1.312a66.21 66.21 0 0 1 -15.5 17.088 57.875 57.875 0 0 0 -7.188 6.685z" fill="#f5b76f"/><path d="m310.685 352c35.346 0 65.315-42.981 65.315-96s-28.654-96-64-96h-1.313a60.168 60.168 0 0 0 9.313-32c48.6 0 88 57.308 88 128s-39.4 128-88 128a60.1 60.1 0 0 0 -8.949-31.412z" fill="#703819"/><path d="m320 128c0 19.384-9.513 37.186-24.813 49.088-18.481 14.377-31.187 44.312-31.187 78.912s12.707 64.535 31.187 78.912c15.299 11.902 24.813 29.704 24.813 49.088-48.6 0-88-57.308-88-128s39.4-128 88-128z" fill="#532c1c"/><circle cx="319.999" cy="304" fill="#f5b76f" r="16"/><path d="m182.687 352c.015.015 1.312 0 1.312 0 34.195-.744 64-42.981 64-96s-28.654-96-64-96h-1.312a66.206 66.206 0 0 1 -15.5 17.087c-18.481 14.374-31.187 44.313-31.187 78.913s12.707 64.535 31.187 78.912a66.211 66.211 0 0 1 15.5 17.088z" fill="#d38b3d"/><path d="m160 183.773v.227c0 26.51 14.327 48 32 48s32-21.49 32-48v-2.944c-10.958-13.175-24.866-21.056-40-21.056h-1.312a66.21 66.21 0 0 1 -15.5 17.088 57.875 57.875 0 0 0 -7.188 6.685z" fill="#f9c18a"/><path d="m182.685 352c35.346 0 65.315-42.981 65.315-96s-28.654-96-64-96h-1.313a60.168 60.168 0 0 0 9.313-32c48.6 0 88 57.308 88 128s-39.4 128-88 128a60.1 60.1 0 0 0 -8.949-31.412z" fill="#7c3c1d"/><path d="m192 128c0 19.384-9.513 37.186-24.813 49.088-18.481 14.377-31.187 44.312-31.187 78.912s12.707 64.535 31.187 78.912c15.299 11.902 24.813 29.704 24.813 49.088-48.6 0-88-57.308-88-128s39.4-128 88-128z" fill="#5b2f20"/><circle cx="191.999" cy="304" fill="#f9c18a" r="16"/><path d="m320 288a15.957 15.957 0 0 0 -4.528 31.27 240.88 240.88 0 0 0 18.283-23.317 15.93 15.93 0 0 0 -13.755-7.953z" fill="#f9c18a"/><path d="m375.928 157.177c-15.205-18.227-34.687-29.177-55.928-29.177a60.168 60.168 0 0 1 -9.313 32h1.313c25.453 0 47.37 22.344 57.682 54.619a240.531 240.531 0 0 0 6.318-54.619c0-.947-.062-1.879-.072-2.823z" fill="#7c3c1d"/><path d="m256 8c-136.747 0-248 111.25-248 248s111.253 248 248 248 248-111.25 248-248-111.255-248-248-248zm229.74 216h-16.126c-13.952-93.534-88.081-167.663-181.614-181.615v-16.125c102.36 14.192 183.547 95.381 197.739 197.74zm2.26 32c0 5.384-.251 10.707-.614 16h-16.043c.39-5.29.656-10.613.656-16s-.266-10.71-.656-16h16.042c.363 5.293.615 10.616.615 16zm-232 200c-110.282 0-200-89.719-200-200s89.718-200 200-200 200 89.719 200 200-89.72 200-200 200zm16-431.386v16.042c-5.29-.39-10.613-.656-16-.656s-10.711.266-16 .656c0-4.854 0-11.177 0-16.042 5.294-.363 10.618-.614 16-.614s10.706.251 16 .614zm-48 1.646v16.125c-93.535 13.952-167.664 88.081-181.616 181.615h-16.125c14.192-102.359 95.379-183.548 197.741-197.74zm-183.345 245.74h-16.042c-.363-5.293-.613-10.616-.613-16s.251-10.707.614-16h16.041c-.39 5.29-.656 10.613-.656 16s.266 10.71.656 16zm-14.4 16h16.129c13.952 93.534 88.081 167.663 181.616 181.615v16.125c-102.362-14.192-183.549-95.381-197.741-197.74zm213.745 199.386c0-5.028 0-11.257 0-16.042 5.29.39 10.614.656 16 .656s10.71-.266 16-.656v16.042c-5.293.363-10.616.614-16 .614s-10.709-.251-16-.614zm48-1.646v-16.125c93.533-13.952 167.662-88.081 181.614-181.615h16.125c-14.192 102.359-95.379 183.548-197.739 197.74z"/><path d="m192 328a24 24 0 1 0 -24-24 24.027 24.027 0 0 0 24 24zm0-32a8 8 0 1 1 -8 8 8.008 8.008 0 0 1 8-8z"/><path d="m320 120a68.482 68.482 0 0 0 -12.972 1.4 145.16 145.16 0 0 0 -102.043 0 68.4 68.4 0 0 0 -12.985-1.4c-52.934 0-96 61.008-96 136s43.066 136 96 136a68.335 68.335 0 0 0 12.979-1.393 143.259 143.259 0 0 0 102.053-.005 68.432 68.432 0 0 0 12.968 1.398c52.934 0 96-61.008 96-136s-43.067-136-96-136zm-133.314 48.214c10.907.819 21 6.5 29.41 15.786h-.096c0 21.68-10.992 40-24 40-12.389 0-22.833-16.664-23.811-36.974a49.355 49.355 0 0 1 3.911-3.626 74.6 74.6 0 0 0 14.586-15.186zm-31.686 37.429c5.938 20.357 20.081 34.357 37 34.357 17.237 0 31.568-14.556 37.3-35.533 6.7 14.504 10.7 32.278 10.7 51.533 0 47.1-23.686 85.562-53.313 87.786a74.6 74.6 0 0 0 -14.587-15.186c-17.07-13.28-28.1-41.772-28.1-72.6 0-18.6 4.069-36.285 11-50.357zm39.961 153.02c34.505-7.67 61.039-50.718 61.039-102.663s-26.533-94.993-61.034-102.663a67.621 67.621 0 0 0 4.455-16.773c40.643 5.641 72.579 57.022 72.579 119.436s-31.936 113.8-72.58 119.436a67.621 67.621 0 0 0 -4.455-16.773zm95.307-187.89a72.915 72.915 0 0 0 -15.352 17.019 147.538 147.538 0 0 0 -9.448-19.151c12.753-17.944 28.6-29.025 45.677-31.858a55.16 55.16 0 0 1 -20.873 33.99zm-15.348 153.435a72.907 72.907 0 0 0 15.356 17.019 55.163 55.163 0 0 1 20.873 33.99c-17.079-2.833-32.924-13.914-45.677-31.858a147.538 147.538 0 0 0 9.448-19.151zm25.18 4.392c-7.238-5.633-13.506-14.248-18.331-24.84a186.226 186.226 0 0 0 0-95.524c.4-.876.825-1.711 1.244-2.558 5.941 20.335 20.078 34.322 36.987 34.322 17.237 0 31.568-14.556 37.3-35.533 6.7 14.504 10.7 32.278 10.7 51.533 0 47.1-23.685 85.561-53.312 87.786a74.588 74.588 0 0 0 -14.588-15.186zm43.9-144.6c0 21.68-10.992 40-24 40-12.4 0-22.85-16.689-23.813-37.022a49.222 49.222 0 0 1 3.911-3.58 74.6 74.6 0 0 0 14.589-15.184c10.907.819 21 6.5 29.41 15.786zm-61.532-53.143a98.806 98.806 0 0 0 -26.628 23.857 99.813 99.813 0 0 0 -26.291-23.861 129.694 129.694 0 0 1 52.918.004zm-170.468 125.143c0-61.681 31.191-112.591 71.151-119.223a55.162 55.162 0 0 1 -20.874 34c-21.145 16.442-34.277 49.098-34.277 85.223s13.133 68.781 34.277 85.227a55.159 55.159 0 0 1 20.874 34c-39.961-6.635-71.151-57.546-71.151-119.227zm117.544 125.15a99.807 99.807 0 0 0 26.295-23.864 98.833 98.833 0 0 0 26.632 23.86 129.593 129.593 0 0 1 -52.927.004zm97.876-5.714a67.621 67.621 0 0 0 -4.455-16.773c34.5-7.67 61.035-50.718 61.035-102.663s-26.533-94.993-61.034-102.663a67.621 67.621 0 0 0 4.455-16.773c40.643 5.641 72.579 57.022 72.579 119.436s-31.936 113.8-72.58 119.436z"/><path d="m320 280a24 24 0 1 0 24 24 24.027 24.027 0 0 0 -24-24zm0 32a8 8 0 1 1 8-8 8.008 8.008 0 0 1 -8 8z"/></g></svg>