<svg id="Filled_Expand" height="512" viewBox="0 0 64 64" width="512" xmlns="http://www.w3.org/2000/svg" data-name="Filled Expand"><path d="m43.42 7a3 3 0 0 0 2.45-3.84 2.93 2.93 0 0 0 -2-2 3 3 0 0 0 -3.87 2.42l-1.76-.29a90 90 0 0 0 -28.56 0l-1.68.29a3 3 0 0 0 -3.88-2.45 2.93 2.93 0 0 0 -2 2 3 3 0 0 0 2.46 3.87l-1.58 8.82a89.78 89.78 0 0 0 0 32.36l1.58 8.82a3 3 0 0 0 -2.45 3.84 2.93 2.93 0 0 0 2 2 3 3 0 0 0 3.87-2.42l1.76.29a90 90 0 0 0 28.56 0l1.68-.29a3 3 0 0 0 3.84 2.45 2.93 2.93 0 0 0 2-2 3 3 0 0 0 -2.42-3.87l1.58-8.82a89.78 89.78 0 0 0 0-32.36z" fill="#e8aa41"/><path d="m60 31v-3l-5 8.07h8z" fill="#804d2f"/><path d="m55 36h-20l5-8h20z" fill="#9c684a"/><path d="m35 36h20v27h-20z" fill="#9c684a"/><path d="m35 36h20v5h-20z" fill="#fa934b"/><path d="m55 36.06h8v26.94h-8z" fill="#915d3f"/><path d="m54.91 56a12.46 12.46 0 0 0 -19.82 0l-.09 3v4h20v-4z" fill="#fbeba7"/><g fill="#ffe648"><path d="m30.93 47.7a6.23 6.23 0 0 1 -2.47 3.73 6.26 6.26 0 0 1 -4.46.27 6.26 6.26 0 0 1 2.46-3.7 6.26 6.26 0 0 1 4.47-.3z"/><path d="m17.07 47.7a6.23 6.23 0 0 0 2.47 3.73 6.26 6.26 0 0 0 4.46.27 6.26 6.26 0 0 0 -2.46-3.7 6.26 6.26 0 0 0 -4.47-.3z"/><path d="m30.93 40.39a6.21 6.21 0 0 1 -2.47 3.73 6.2 6.2 0 0 1 -4.46.27 6.25 6.25 0 0 1 2.46-3.73 6.28 6.28 0 0 1 4.47-.27z"/><path d="m17.07 40.39a6.21 6.21 0 0 0 2.47 3.73 6.2 6.2 0 0 0 4.46.27 6.25 6.25 0 0 0 -2.46-3.73 6.28 6.28 0 0 0 -4.47-.27z"/><path d="m30.93 33.09a6.21 6.21 0 0 1 -2.47 3.73 6.2 6.2 0 0 1 -4.46.27 6.22 6.22 0 0 1 2.46-3.73 6.22 6.22 0 0 1 4.47-.27z"/><path d="m17.07 33.09a6.21 6.21 0 0 0 2.47 3.73 6.2 6.2 0 0 0 4.46.27 6.22 6.22 0 0 0 -2.46-3.73 6.22 6.22 0 0 0 -4.47-.27z"/><path d="m24 24a6.23 6.23 0 0 1 2 4 6.23 6.23 0 0 1 -2 4 6.23 6.23 0 0 1 -2-4 6.23 6.23 0 0 1 2-4z"/></g><path d="m18.75 18a1 1 0 0 0 -1-1h-2v-7a1 1 0 0 0 -2 0v8a1 1 0 0 0 1 1h3a1 1 0 0 0 1-1z"/><path d="m11.75 9h-3.5a1 1 0 0 0 -1 1v8a1 1 0 0 0 2 0v-3h1.5a1 1 0 0 0 0-2h-1.5v-2h2.5a1 1 0 0 0 0-2z"/><path d="m22.75 19a3 3 0 0 0 3-3v-4a3 3 0 0 0 -6 0v4a3 3 0 0 0 3 3zm-1-7a1 1 0 0 1 2 0v4a1 1 0 0 1 -2 0z"/><path d="m32.25 9a1 1 0 0 0 -1 1v6a1 1 0 0 1 -2 0v-6a1 1 0 0 0 -2 0v6a3 3 0 0 0 6 0v-6a1 1 0 0 0 -1-1z"/><path d="m40.2 18.89a1 1 0 0 0 .44-1.34l-1.46-2.93a3 3 0 0 0 -1.43-5.62h-2a1 1 0 0 0 -1 1v8a1 1 0 0 0 2 0v-3h.38l1.73 3.45a1 1 0 0 0 1.34.44zm-2.45-5.89h-1v-2h1a1 1 0 0 1 0 2z"/><path d="m30.93 29a1 1 0 0 0 -1 1v1.86a6.42 6.42 0 0 0 -4 .63 4.72 4.72 0 0 0 -1 .74v-.82a6.87 6.87 0 0 0 2.07-4.41 7.27 7.27 0 0 0 -2.33-4.75 1 1 0 0 0 -1.34 0 7.27 7.27 0 0 0 -2.33 4.75 6.87 6.87 0 0 0 2 4.41v.82a4.72 4.72 0 0 0 -1-.74 6.42 6.42 0 0 0 -4-.63v-1.86a1 1 0 0 0 -2 0v3.09a1.23 1.23 0 0 0 0 .2 7.25 7.25 0 0 0 3 4.4 5.75 5.75 0 0 0 2.88.7 8.64 8.64 0 0 0 1.12-.07v2.21a5.1 5.1 0 0 0 -1-.74 7.24 7.24 0 0 0 -5.28-.35 1 1 0 0 0 -.67 1.16 7.24 7.24 0 0 0 2.95 4.4 5.75 5.75 0 0 0 2.88.7 8.64 8.64 0 0 0 1.12-.08v2.22a4.72 4.72 0 0 0 -1-.74 7.24 7.24 0 0 0 -5.28-.35 1 1 0 0 0 -.67 1.15 7.21 7.21 0 0 0 2.95 4.39 5.63 5.63 0 0 0 2.88.71 7.1 7.1 0 0 0 1.12-.08v2.08a1 1 0 0 0 2 0v-2.08a7.1 7.1 0 0 0 1.08.08 5.63 5.63 0 0 0 2.92-.71 7.21 7.21 0 0 0 2.95-4.39 1 1 0 0 0 -.67-1.15 7.24 7.24 0 0 0 -5.28.35 4.72 4.72 0 0 0 -1 .74v-2.22a8.64 8.64 0 0 0 1.08.07 5.75 5.75 0 0 0 2.92-.69 7.24 7.24 0 0 0 2.95-4.39 1 1 0 0 0 -.67-1.16 7.24 7.24 0 0 0 -5.28.35 5.1 5.1 0 0 0 -1 .74v-2.22a8.64 8.64 0 0 0 1.08.07 5.75 5.75 0 0 0 2.88-.7 7.25 7.25 0 0 0 2.95-4.4 1.23 1.23 0 0 0 0-.2v-3.09a1 1 0 0 0 -.98-1zm-10.93 7a4.37 4.37 0 0 1 -1.67-2.12 4.34 4.34 0 0 1 2.67.38 4.29 4.29 0 0 1 1.66 2.12 4.37 4.37 0 0 1 -2.66-.38zm0 7.3a4.31 4.31 0 0 1 -1.67-2.12 4.35 4.35 0 0 1 2.67.39 4.31 4.31 0 0 1 1.66 2.11 4.3 4.3 0 0 1 -2.66-.42zm0 7.3a4.34 4.34 0 0 1 -1.67-2.11 4.34 4.34 0 0 1 2.67.38 4.29 4.29 0 0 1 1.7 2.13 4.39 4.39 0 0 1 -2.7-.44zm7-1.77a4.42 4.42 0 0 1 2.67-.39 4.31 4.31 0 0 1 -1.67 2.12 4.35 4.35 0 0 1 -2.67.39 4.37 4.37 0 0 1 1.67-2.12zm0-7.3a4.35 4.35 0 0 1 2.67-.39 4.31 4.31 0 0 1 -1.67 2.12 4.42 4.42 0 0 1 -2.67.39 4.37 4.37 0 0 1 1.67-2.12zm-3-11a4.38 4.38 0 0 1 -1-2.53 4.38 4.38 0 0 1 1-2.5 4.38 4.38 0 0 1 1 2.5 4.35 4.35 0 0 1 -1 2.5zm4 5.47a4.34 4.34 0 0 1 -2.67.38 4.42 4.42 0 0 1 1.67-2.16 4.35 4.35 0 0 1 2.67-.38 4.42 4.42 0 0 1 -1.67 2.16z"/><path d="m63.8 35.46-2.8-4.73v-2.73a1 1 0 0 0 -1-1h-12.64a90.26 90.26 0 0 0 -1.36-11.36l-1.45-8a4 4 0 0 0 2.18-5.09 3.87 3.87 0 0 0 -2.32-2.3 4 4 0 0 0 -5.09 2.2l-.88-.15a90.84 90.84 0 0 0 -28.88 0l-.88.15a4 4 0 0 0 -5.09-2.2 3.87 3.87 0 0 0 -2.34 2.34 4 4 0 0 0 2.18 5.09l-1.43 7.96a90.41 90.41 0 0 0 0 32.72l1.45 8a4 4 0 0 0 -2.18 5.09 3.87 3.87 0 0 0 2.34 2.34 4 4 0 0 0 5.09-2.2l.88.15a91.33 91.33 0 0 0 24.42.54v.72a1 1 0 0 0 1 1h28a1 1 0 0 0 1-1v-26.94a1 1 0 0 0 -.2-.6zm-2.55-.39h-4.45l2.28-3.68zm-27.1.4a1 1 0 0 0 -.15.53v24.27a89.37 89.37 0 0 1 -24.12-.55l-1.76-.29a1 1 0 0 0 -.76.19 1 1 0 0 0 -.39.67 2 2 0 0 1 -1.97 1.71 2 2 0 0 1 -2-2 2 2 0 0 1 1.71-2 1 1 0 0 0 .68-.4 1 1 0 0 0 .17-.77l-1.62-8.83a88.7 88.7 0 0 1 0-32l1.62-8.86a1 1 0 0 0 -.17-.77 1 1 0 0 0 -.68-.37 2 2 0 0 1 -1.71-2 2 2 0 0 1 2-2 2 2 0 0 1 2 1.71 1 1 0 0 0 .39.67 1 1 0 0 0 .76.19l1.76-.29a88.59 88.59 0 0 1 28.24 0l1.75.29a1 1 0 0 0 1.1-.86 2 2 0 0 1 2-1.71 2 2 0 0 1 2 2 2 2 0 0 1 -1.71 2 1 1 0 0 0 -.68.4 1 1 0 0 0 -.17.77l1.62 8.83a90.18 90.18 0 0 1 1.3 11h-5.36a1 1 0 0 0 -.85.47zm19.85 26.53h-18v-5.53a11.44 11.44 0 0 1 18 0zm0-8.43a13.38 13.38 0 0 0 -18 0v-11.57h18zm0-13.57h-18v-3h18zm-17.2-5 3.75-6h17.65l-3.75 6zm25.2 27h-6v-24.93h6z"/></svg>