<svg id="Capa_1" enable-background="new 0 0 512 512" height="512" viewBox="0 0 512 512" width="512" xmlns="http://www.w3.org/2000/svg"><path d="m475.732 168.488c-20.639-43.5-138-168.488-219.732-168.488s-199.093 124.988-219.732 168.488l219.732 36.987z" fill="#fcf2d0"/><g fill="#f6e3a3"><path d="m222.92 5.794c-77.286 25.069-168.672 124.798-186.652 162.694l219.732 36.987 29.913-5.035c-63.166-32.977-89.015-133.727-62.993-194.646z"/><circle cx="277.774" cy="40.222" r="8.139"/><ellipse cx="231.399" cy="53.602" rx="8.139" ry="8.139" transform="matrix(.707 -.707 .707 .707 29.873 179.324)"/><circle cx="393.269" cy="120.079" r="8.139"/></g><ellipse cx="120.193" cy="119.694" fill="#fcf2d0" rx="8.139" ry="8.139" transform="matrix(.973 -.23 .23 .973 -24.285 30.817)"/><path d="m256 198.497c94.226 0 183.987-15.921 217.992-22.217 27.45 68.363 39.382 167.86 15.105 253.02 12.082 9.241 19.153 21.042 22.303 31.3 2.109 6.868-1.503 14.129-8.267 16.548-19.341 6.918-39.618 5.139-54.374.923-39.581 21.454-128.352 33.929-192.759 33.929s-153.177-12.475-192.758-33.93c-14.756 4.216-35.033 5.995-54.374-.923-6.764-2.419-10.376-9.68-8.267-16.548 3.15-10.257 10.221-22.059 22.303-31.3-24.277-85.16-12.345-184.657 15.105-253.02 34.004 6.297 123.765 22.218 217.991 22.218z" fill="#e1b89a"/><path d="m63.242 478.07c36.303 19.678 113.984 31.8 176.296 33.673-104.742-50.397-89.222-230.861-71.336-317.337-58.383-5.154-107.122-13.855-130.193-18.126-27.45 68.363-39.383 167.86-15.106 253.02-12.082 9.241-19.153 21.042-22.303 31.3-2.109 6.868 1.503 14.129 8.267 16.548 19.342 6.917 39.619 5.138 54.375.922z" fill="#d2996f"/><path d="m256 229.088c-85.345 0-187.681-15.753-225.791-26.642-16.245-4.642-25.652-21.574-21.01-37.819 4.641-16.244 21.574-25.652 37.819-21.01 34.66 9.903 133.302 24.288 208.982 24.288s174.322-14.385 208.982-24.288c16.247-4.64 33.176 4.765 37.819 21.01 4.642 16.245-4.765 33.177-21.01 37.819-38.11 10.889-140.445 26.642-225.791 26.642z" fill="#d2896f"/><path d="m47.018 143.617c-16.245-4.642-33.178 4.766-37.819 21.01-4.642 16.245 4.765 33.177 21.01 37.819 36.728 10.494 133.106 25.504 216.441 26.579-14.697-11.969-15.791-46.506-5.34-61.29-73.273-1.642-161.835-14.845-194.292-24.118z" fill="#b36d3a"/><ellipse cx="164.461" cy="124.736" fill="#eda1ab" rx="33.776" ry="26.898"/><ellipse cx="347.539" cy="124.736" fill="#eda1ab" rx="33.776" ry="26.898"/><path d="m200.223 102.967c-4.142 0-7.5-3.358-7.5-7.5 0-4.729-3.848-8.577-8.577-8.577s-8.577 3.848-8.577 8.577c0 4.142-3.358 7.5-7.5 7.5s-7.5-3.358-7.5-7.5c0-13 10.577-23.577 23.577-23.577s23.577 10.577 23.577 23.577c0 4.142-3.358 7.5-7.5 7.5z" fill="#4e5660"/><path d="m343.931 102.967c-4.142 0-7.5-3.358-7.5-7.5 0-4.729-3.848-8.577-8.577-8.577s-8.577 3.848-8.577 8.577c0 4.142-3.358 7.5-7.5 7.5s-7.5-3.358-7.5-7.5c0-13 10.577-23.577 23.577-23.577s23.577 10.577 23.577 23.577c0 4.142-3.358 7.5-7.5 7.5z" fill="#4e5660"/><path d="m256 129.526c-8.704 0-16.98-3.77-22.707-10.342-2.721-3.123-2.396-7.86.727-10.582 3.123-2.721 7.86-2.396 10.582.727 2.878 3.303 7.033 5.197 11.399 5.197s8.521-1.894 11.399-5.197c2.721-3.124 7.459-3.448 10.582-.727s3.448 7.459.727 10.582c-5.729 6.573-14.005 10.342-22.709 10.342z" fill="#4e5660"/><path d="m256 452.696c-4.142 0-7.5-3.358-7.5-7.5v-153.595c0-4.142 3.358-7.5 7.5-7.5s7.5 3.358 7.5 7.5v153.596c0 4.141-3.358 7.499-7.5 7.499z" fill="#efd176"/><path d="m231.806 381.647c10.553 10.553 12.563 26.744 12.874 34.794.106 2.75-2.151 5.007-4.901 4.901-8.05-.311-24.241-2.321-34.794-12.874s-12.563-26.744-12.874-34.794c-.106-2.75 2.151-5.007 4.901-4.901 8.05.311 24.24 2.321 34.794 12.874z" fill="#f7ef87"/><path d="m231.806 300.278c10.553 10.553 12.563 26.744 12.874 34.794.106 2.75-2.151 5.007-4.901 4.901-8.05-.311-24.241-2.321-34.794-12.874s-12.563-26.744-12.874-34.794c-.106-2.75 2.151-5.007 4.901-4.901 8.05.311 24.24 2.321 34.794 12.874z" fill="#f7ef87"/><path d="m280.194 381.647c-10.553 10.553-12.563 26.744-12.874 34.794-.106 2.75 2.151 5.007 4.901 4.901 8.05-.311 24.241-2.321 34.794-12.874s12.563-26.744 12.874-34.794c.106-2.75-2.151-5.007-4.901-4.901-8.05.311-24.24 2.321-34.794 12.874z" fill="#f7ef87"/><path d="m280.194 300.278c-10.553 10.553-12.563 26.744-12.874 34.794-.106 2.75 2.151 5.007 4.901 4.901 8.05-.311 24.241-2.321 34.794-12.874s12.563-26.744 12.874-34.794c.106-2.75-2.151-5.007-4.901-4.901-8.05.311-24.24 2.321-34.794 12.874z" fill="#f7ef87"/><path d="m64.64 430.317c-1.919 0-3.839-.732-5.303-2.197-2.929-2.929-2.929-7.678 0-10.606l22.885-22.885c2.929-2.929 7.678-2.929 10.606 0 2.929 2.929 2.929 7.678 0 10.607l-22.885 22.885c-1.464 1.464-3.384 2.196-5.303 2.196z" fill="#e1b89a"/><path d="m119.57 439.788c-1.919 0-3.839-.732-5.303-2.197-2.929-2.929-2.929-7.678 0-10.606l33.289-33.289c2.929-2.929 7.678-2.929 10.606 0 2.929 2.929 2.929 7.678 0 10.607l-33.289 33.289c-1.464 1.463-3.383 2.196-5.303 2.196z" fill="#e1b89a"/><path d="m414.092 307.882c-1.919 0-3.839-.732-5.303-2.197-2.929-2.929-2.929-7.678 0-10.606l26.095-26.095c2.929-2.929 7.678-2.929 10.606 0 2.929 2.929 2.929 7.678 0 10.606l-26.095 26.095c-1.464 1.465-3.384 2.197-5.303 2.197z" fill="#d2996f"/></svg>