<?xml version="1.0" encoding="UTF-8" standalone="no"?>
<!-- Created with Inkscape (http://www.inkscape.org/) -->

<svg
   version="1.1"
   id="svg4575"
   xml:space="preserve"
   width="682.66669"
   height="682.66669"
   viewBox="0 0 682.66669 682.66669"
   xmlns="http://www.w3.org/2000/svg"
   xmlns:svg="http://www.w3.org/2000/svg"><defs
     id="defs4579"><clipPath
       clipPathUnits="userSpaceOnUse"
       id="clipPath4589"><path
         d="M 0,512 H 512 V 0 H 0 Z"
         id="path4587" /></clipPath></defs><g
     id="g4581"
     transform="matrix(1.3333333,0,0,-1.3333333,0,682.66667)"><g
       id="g4583"><g
         id="g4585"
         clip-path="url(#clipPath4589)"><g
           id="g4591"
           transform="translate(408.1221,278.168)"><path
             d="m 0,0 c 2.733,2.047 6.407,2.434 9.516,1.021 2.476,-1.125 5.145,-1.934 7.967,-2.365 14.472,-2.211 28.112,6.185 33.032,19.381 1.058,2.84 3.445,5.003 6.371,5.796 15.401,4.181 27.607,17.262 29.755,34.217 2.665,21.032 -11.55,40.836 -32.334,45.012 -10.212,2.052 -20.211,0.115 -28.475,-4.679 -2.943,-1.708 -6.576,-1.867 -9.545,-0.204 -4.255,2.385 -9.119,3.834 -14.325,4.057 -15.024,0.642 -28.074,-9.134 -32.18,-22.917 -0.845,-2.838 -3.03,-5.063 -5.776,-6.168 -8.846,-3.56 -15.637,-11.565 -17.182,-21.673 -1.47,-9.629 2.174,-18.855 8.901,-24.929 -0.001,-0.004 -0.002,-0.007 -0.002,-0.011 -2.327,-15.227 8.131,-29.457 23.358,-31.784 C -13.22,-6.422 -5.778,-4.326 0,0"
             style="fill:#a3e440;fill-opacity:1;fill-rule:nonzero;stroke:none"
             id="path4593" /></g><g
           id="g4595"
           transform="translate(458.6348,296.2085)"><path
             d="m 0,0 c -4.913,-13.203 -18.559,-21.599 -33.034,-19.383 -2.82,0.431 -5.485,1.242 -7.964,2.362 -3.108,1.409 -6.777,1.022 -9.511,-1.02 -5.779,-4.33 -13.222,-6.425 -20.92,-5.247 -11.855,1.817 -20.817,10.837 -23.108,21.926 1.953,-0.784 4.025,-1.353 6.191,-1.685 7.698,-1.179 15.14,0.916 20.919,5.247 2.734,2.042 6.403,2.428 9.511,1.02 2.48,-1.121 5.145,-1.931 7.973,-2.369 14.466,-2.209 28.112,6.187 33.026,19.39 1.057,2.833 3.444,4.999 6.377,5.794 15.4,4.178 27.608,17.26 29.755,34.21 0.876,6.871 -0.057,13.608 -2.442,19.705 C 30.144,71.821 38.191,56.277 36.124,40.012 33.985,23.055 21.778,9.972 6.377,5.794 3.445,5 1.058,2.833 0,0"
             style="fill:#8dc637;fill-opacity:1;fill-rule:nonzero;stroke:none"
             id="path4597" /></g><g
           id="g4599"
           transform="translate(408.1221,278.168)"><path
             d="m 0,0 c 2.733,2.047 6.407,2.434 9.516,1.021 2.476,-1.125 5.145,-1.934 7.967,-2.365 14.472,-2.211 28.112,6.185 33.032,19.381 1.058,2.84 3.445,5.003 6.371,5.796 15.401,4.181 27.607,17.262 29.755,34.217 2.665,21.032 -11.55,40.836 -32.334,45.012 -10.212,2.052 -20.211,0.115 -28.475,-4.679 -2.943,-1.708 -6.576,-1.867 -9.545,-0.204 -4.255,2.385 -9.119,3.834 -14.325,4.057 -15.024,0.642 -28.074,-9.134 -32.18,-22.917 -0.845,-2.838 -3.03,-5.063 -5.776,-6.168 -8.846,-3.56 -15.637,-11.565 -17.182,-21.673 -1.47,-9.629 2.174,-18.855 8.901,-24.929 -0.001,-0.004 -0.002,-0.007 -0.002,-0.011 -2.327,-15.227 8.131,-29.457 23.358,-31.784 C -13.22,-6.422 -5.778,-4.326 0,0 Z"
             style="fill:none;stroke:#000000;stroke-width:15;stroke-linecap:round;stroke-linejoin:round;stroke-miterlimit:10;stroke-dasharray:none;stroke-opacity:1"
             id="path4601" /></g><g
           id="g4603"
           transform="translate(320.084,246.9424)"><path
             d="m 0,0 c 2.798,-0.19 5.292,-1.917 6.471,-4.461 0.939,-2.027 2.168,-3.96 3.693,-5.74 7.825,-9.128 20.815,-11.207 30.945,-5.626 2.18,1.201 4.826,1.269 7.072,0.196 11.827,-5.646 26.432,-4.04 36.851,5.365 12.924,11.667 14.683,31.609 3.979,45.342 -5.259,6.747 -12.521,10.897 -20.234,12.338 -2.747,0.514 -5.094,2.36 -6.05,4.985 -1.373,3.765 -3.624,7.272 -6.747,10.199 -9.008,8.446 -22.371,9.351 -32.308,2.969 -2.047,-1.315 -4.599,-1.529 -6.901,-0.746 -7.414,2.521 -15.929,1.175 -22.305,-4.291 -6.072,-5.207 -8.745,-12.903 -7.811,-20.286 -0.003,-0.003 -0.005,-0.004 -0.008,-0.006 -9.603,-8.234 -10.714,-22.695 -2.48,-32.3 C -11.67,3.082 -5.915,0.401 0,0"
             style="fill:#0f7a4f;fill-opacity:1;fill-rule:nonzero;stroke:none"
             id="path4605" /></g><g
           id="g4607"
           transform="translate(405.1162,236.6816)"><path
             d="m 0,0 c -10.417,-9.41 -25.023,-11.015 -36.847,-5.369 -2.255,1.067 -4.9,1.007 -7.079,-0.195 -10.131,-5.584 -23.119,-3.507 -30.94,5.621 -1.534,1.782 -2.756,3.723 -3.699,5.745 -1.178,2.548 -3.669,4.263 -6.476,4.458 -5.907,0.396 -11.664,3.082 -15.824,7.938 -5.269,6.146 -6.714,14.274 -4.547,21.486 3.671,-2.9 8.07,-4.522 12.567,-4.83 2.798,-0.187 5.29,-1.919 6.475,-4.458 0.936,-2.031 2.166,-3.962 3.691,-5.737 7.822,-9.128 20.809,-11.206 30.933,-5.63 2.194,1.203 4.831,1.271 7.079,0.195 11.823,-5.646 26.43,-4.041 36.847,5.369 6.47,5.835 10.134,13.741 10.848,21.903 0.326,-0.379 0.637,-0.76 0.95,-1.157 C 14.682,31.603 12.919,11.661 0,0"
             style="fill:#0c6842;fill-opacity:1;fill-rule:nonzero;stroke:none"
             id="path4609" /></g><g
           id="g4611"
           transform="translate(320.084,246.9424)"><path
             d="m 0,0 c 2.798,-0.19 5.292,-1.917 6.471,-4.461 0.939,-2.027 2.168,-3.96 3.693,-5.74 7.825,-9.128 20.815,-11.207 30.945,-5.626 2.18,1.201 4.826,1.269 7.072,0.196 11.827,-5.646 26.432,-4.04 36.851,5.365 12.924,11.667 14.683,31.609 3.979,45.342 -5.259,6.747 -12.521,10.897 -20.234,12.338 -2.747,0.514 -5.094,2.36 -6.05,4.985 -1.373,3.765 -3.624,7.272 -6.747,10.199 -9.008,8.446 -22.371,9.351 -32.308,2.969 -2.047,-1.315 -4.599,-1.529 -6.901,-0.746 -7.414,2.521 -15.929,1.175 -22.305,-4.291 -6.072,-5.207 -8.745,-12.903 -7.811,-20.286 -0.003,-0.003 -0.005,-0.004 -0.008,-0.006 -9.603,-8.234 -10.714,-22.695 -2.48,-32.3 C -11.67,3.082 -5.915,0.401 0,0 Z"
             style="fill:none;stroke:#000000;stroke-width:15;stroke-linecap:round;stroke-linejoin:round;stroke-miterlimit:10;stroke-dasharray:none;stroke-opacity:1"
             id="path4613" /></g><g
           id="g4615"
           transform="translate(210.6445,426.5527)"><path
             d="m 0,0 c 0.522,-3.859 -1.131,-7.734 -4.264,-10.047 -2.495,-1.842 -4.782,-4.053 -6.778,-6.625 -10.234,-13.19 -9.44,-31.438 0.977,-43.663 2.241,-2.631 3.071,-6.209 2.239,-9.564 -4.383,-17.664 1.875,-37.084 17.574,-48.634 19.475,-14.326 47.093,-11.156 62.788,7.233 7.712,9.035 11.331,20.071 11.141,30.964 -0.068,3.88 1.79,7.588 5.094,9.622 4.738,2.916 8.881,6.957 11.993,12.021 8.976,14.61 6.481,33.038 -4.972,44.777 -2.358,2.417 -3.362,5.828 -2.939,9.178 1.363,10.788 -2.843,21.996 -12.057,29.145 -8.776,6.809 -19.99,8.299 -29.775,4.968 -0.002,0.003 -0.005,0.006 -0.009,0.008 C 37.133,40.152 17.152,37.63 6.384,23.751 0.938,16.734 -1.104,8.158 0,0"
             style="fill:#a3e440;fill-opacity:1;fill-rule:nonzero;stroke:none"
             id="path4617" /></g><g
           id="g4619"
           transform="translate(292.5264,332.5806)"><path
             d="m 0,0 c -9.843,-0.682 -19.657,3.264 -26.272,10.915 -3.114,3.602 -7.085,6.395 -11.433,8.347 -6.266,2.829 -14.549,7.439 -17.749,13.154 -5.715,10.226 -5.192,22.237 0.339,31.652 1.697,2.881 2.035,6.377 0.818,9.484 -5.954,15.287 -1.063,33.219 12.911,43.169 4.783,3.411 10.114,5.509 15.545,6.351 1.786,0.287 3.439,0.97 4.843,1.982 6.949,0.094 13.991,-2.079 19.915,-6.675 9.214,-7.147 13.416,-18.353 12.053,-29.15 -0.425,-3.348 0.583,-6.759 2.939,-9.171 C 25.36,68.319 27.862,49.884 18.879,35.281 15.766,30.213 11.625,26.172 6.888,23.262 3.584,21.219 1.722,17.516 1.793,13.631 1.874,9.063 1.282,4.459 0,0"
             style="fill:#8dc637;fill-opacity:1;fill-rule:nonzero;stroke:none"
             id="path4621" /></g><g
           id="g4623"
           transform="translate(210.6445,426.5527)"><path
             d="m 0,0 c 0.522,-3.859 -1.131,-7.734 -4.264,-10.047 -2.495,-1.842 -4.782,-4.053 -6.778,-6.625 -10.234,-13.19 -9.44,-31.438 0.977,-43.663 2.241,-2.631 3.071,-6.209 2.239,-9.564 -4.383,-17.664 1.875,-37.084 17.574,-48.634 19.475,-14.326 47.093,-11.156 62.788,7.233 7.712,9.035 11.331,20.071 11.141,30.964 -0.068,3.88 1.79,7.588 5.094,9.622 4.738,2.916 8.881,6.957 11.993,12.021 8.976,14.61 6.481,33.038 -4.972,44.777 -2.358,2.417 -3.362,5.828 -2.939,9.178 1.363,10.788 -2.843,21.996 -12.057,29.145 -8.776,6.809 -19.99,8.299 -29.775,4.968 -0.002,0.003 -0.005,0.006 -0.009,0.008 C 37.133,40.152 17.152,37.63 6.384,23.751 0.938,16.734 -1.104,8.158 0,0 Z"
             style="fill:none;stroke:#000000;stroke-width:15;stroke-linecap:round;stroke-linejoin:round;stroke-miterlimit:10;stroke-dasharray:none;stroke-opacity:1"
             id="path4625" /></g><g
           id="g4627"
           transform="translate(422.8867,365.8521)"><path
             d="m 0,0 c 2.099,2.546 5.458,3.75 8.7,3.134 2.582,-0.49 5.273,-0.639 8.021,-0.399 14.091,1.233 24.977,12.234 26.579,25.747 0.344,2.908 2.091,5.485 4.655,6.899 13.504,7.446 21.972,22.517 20.112,38.925 -2.307,20.355 -20.179,35.697 -40.647,34.865 -10.056,-0.408 -19,-4.513 -25.662,-10.902 -2.372,-2.277 -5.746,-3.257 -8.914,-2.374 -4.54,1.266 -9.438,1.515 -14.376,0.533 -14.251,-2.832 -24.269,-14.993 -24.971,-28.871 -0.145,-2.858 -1.687,-5.446 -4.014,-7.112 -7.49,-5.364 -12.035,-14.432 -11.174,-24.275 0.82,-9.376 6.351,-17.204 14.054,-21.368 10e-4,-0.004 10e-4,-0.008 10e-4,-0.011 1.297,-14.827 14.369,-25.795 29.197,-24.499 C -10.942,-9.051 -4.436,-5.383 0,0"
             style="fill:#0f7a4f;fill-opacity:1;fill-rule:nonzero;stroke:none"
             id="path4629" /></g><g
           id="g4631"
           transform="translate(439.6104,368.5889)"><path
             d="m 0,0 c -2.752,-0.241 -5.448,-0.093 -8.02,0.399 -3.251,0.613 -6.603,-0.593 -8.706,-3.135 -4.43,-5.387 -10.937,-9.048 -18.44,-9.712 -12.264,-1.065 -23.337,6.261 -27.527,17.232 3.087,-0.88 6.38,-1.228 9.763,-0.932 7.495,0.656 14.01,4.325 18.441,9.713 2.102,2.541 5.455,3.748 8.698,3.126 2.588,-0.491 5.275,-0.631 8.02,-0.399 14.092,1.241 24.982,12.234 26.582,25.743 0.348,2.918 2.088,5.492 4.656,6.908 13.501,7.437 21.97,22.517 20.109,38.929 -0.612,5.419 -2.336,10.48 -4.907,14.978 C 40.784,97.229 49.755,85.592 51.34,71.571 53.2,55.16 44.739,40.088 31.23,32.642 28.663,31.227 26.923,28.652 26.572,25.75 24.975,12.226 14.085,1.232 0,0"
             style="fill:#0c6842;fill-opacity:1;fill-rule:nonzero;stroke:none"
             id="path4633" /></g><g
           id="g4635"
           transform="translate(445.4736,474.5234)"><path
             d="m 0,0 c -8.082,-1.321 -15.256,-5.058 -20.829,-10.403 -2.373,-2.276 -5.746,-3.257 -8.914,-2.373 -4.539,1.266 -9.438,1.514 -14.376,0.533 -14.251,-2.832 -24.269,-14.993 -24.972,-28.872 -0.144,-2.857 -1.686,-5.446 -4.013,-7.112 -7.49,-5.363 -12.035,-14.431 -11.174,-24.274 0.82,-9.376 6.351,-17.204 14.054,-21.369 0,-0.003 0.001,-0.007 0.001,-0.01 1.297,-14.828 14.369,-25.796 29.197,-24.499 7.497,0.656 14.004,4.325 18.439,9.707 2.099,2.547 5.458,3.751 8.7,3.135 2.582,-0.49 5.273,-0.64 8.021,-0.399 14.092,1.233 24.977,12.233 26.578,25.747 0.346,2.908 2.092,5.484 4.656,6.898 13.504,7.446 21.972,22.518 20.112,38.926 -1.016,8.967 -5.055,16.958 -11.004,23.025"
             style="fill:none;stroke:#000000;stroke-width:15;stroke-linecap:round;stroke-linejoin:round;stroke-miterlimit:10;stroke-dasharray:none;stroke-opacity:1"
             id="path4637" /></g><g
           id="g4639"
           transform="translate(42.8491,9.7515)"><path
             d="m 0,0 -21.582,18.109 c -5.153,4.324 -5.825,12.006 -1.501,17.16 l 7.453,8.881 c 1.239,1.477 1.811,3.392 1.574,5.306 -1.527,12.385 -3.811,62.539 49.158,112.169 61.031,57.185 230.185,204.478 230.185,204.478 l 49.405,-41.456 c 0,0 -164.573,-229.704 -241.024,-298.929 C 60.769,14.038 37.863,13.561 28.548,13.902 25.896,14 23.356,12.865 21.65,10.832 L 13.556,1.186 C 10.14,-2.885 4.071,-3.416 0,0"
             style="fill:#bcea73;fill-opacity:1;fill-rule:nonzero;stroke:none"
             id="path4641" /></g><g
           id="g4643"
           transform="translate(116.5156,35.4722)"><path
             d="m 0,0 c -12.893,-11.683 -35.804,-12.154 -45.124,-11.819 -2.65,0.094 -5.187,-1.033 -6.893,-3.066 l -8.095,-9.648 c -3.412,-4.067 -9.484,-4.598 -13.551,-1.186 l -21.584,18.112 c -0.334,0.28 -0.645,0.571 -0.94,0.864 4.027,-2.674 9.501,-1.942 12.677,1.843 l 8.095,9.648 c 1.707,2.033 4.243,3.16 6.903,3.059 9.319,-0.335 32.221,0.143 45.123,11.818 76.447,69.225 241.022,298.931 241.022,298.931 L 241.021,298.93 C 241.021,298.93 76.447,69.224 0,0"
             style="fill:#99d53b;fill-opacity:1;fill-rule:nonzero;stroke:none"
             id="path4645" /></g><g
           id="g4647"
           transform="translate(145.9956,233.105)"><path
             d="m 0,0 c -26.95,-24.049 -51.48,-46.208 -68.044,-61.729 -52.969,-49.63 -50.685,-99.784 -49.158,-112.169 0.236,-1.913 -0.336,-3.829 -1.574,-5.305 l -7.453,-8.882 c -4.324,-5.153 -3.652,-12.835 1.501,-17.159 l 21.582,-18.11 c 4.07,-3.416 10.14,-2.884 13.556,1.187 l 8.094,9.646 c 1.705,2.032 4.246,3.167 6.897,3.07 9.315,-0.341 32.222,0.135 45.121,11.816 76.45,69.225 241.023,298.928 241.023,298.928 l -49.405,41.456 c 0,0 -69.248,-60.299 -135.117,-118.713"
             style="fill:none;stroke:#000000;stroke-width:15;stroke-linecap:round;stroke-linejoin:round;stroke-miterlimit:10;stroke-dasharray:none;stroke-opacity:1"
             id="path4649" /></g><g
           id="g4651"
           transform="translate(305.6416,334.4531)"><path
             d="m 0,0 c -56.993,-48.01 -184.111,-166.078 -201.77,-200.19 -24.999,-48.293 -18.407,-62.73 -18.407,-62.73 0,0 154.634,152.234 234.426,250.963 z"
             style="fill:#79a72d;fill-opacity:1;fill-rule:nonzero;stroke:none"
             id="path4653" /></g><g
           id="g4655"
           transform="translate(168.8979,155.9985)"><path
             d="m 0,0 c 49.361,51.048 110.035,115.819 150.993,166.498 l -14.249,11.957 C 79.751,130.444 -47.368,12.377 -65.026,-21.736 c -24.999,-48.293 -18.407,-62.729 -18.407,-62.729 0,0 24.07,23.697 58.107,58.445"
             style="fill:none;stroke:#000000;stroke-width:15;stroke-linecap:round;stroke-linejoin:round;stroke-miterlimit:10;stroke-dasharray:none;stroke-opacity:1"
             id="path4657" /></g><g
           id="g4659"
           transform="translate(85.4648,71.5332)"><path
             d="M 0,0 -10.599,-12.631"
             style="fill:none;stroke:#000000;stroke-width:15;stroke-linecap:round;stroke-linejoin:round;stroke-miterlimit:10;stroke-dasharray:none;stroke-opacity:1"
             id="path4661" /></g><g
           id="g4663"
           transform="translate(344.752,280.3184)"><path
             d="m 0,0 c 3.408,1.885 7.618,1.749 10.909,-0.333 2.621,-1.658 5.511,-2.989 8.631,-3.917 16.002,-4.759 32.723,2.595 40.342,16.733 1.639,3.042 4.674,5.113 8.102,5.553 18.052,2.316 33.884,15.185 38.959,34.003 6.297,23.342 -6.666,47.935 -29.493,55.899 -11.215,3.914 -22.812,3.288 -32.896,-0.836 -3.592,-1.469 -7.721,-1.082 -10.815,1.261 -4.433,3.359 -9.702,5.756 -15.549,6.821 -16.87,3.073 -33.141,-5.931 -39.932,-20.86 -1.399,-3.074 -4.214,-5.246 -7.489,-6.065 C -39.78,85.62 -48.702,77.638 -52.026,66.46 -55.192,55.813 -52.517,44.822 -45.868,36.91 -45.869,36.905 -45.87,36.901 -45.872,36.897 -50.879,20.06 -41.288,2.351 -24.45,-2.657 -15.937,-5.189 -7.203,-3.984 0,0"
             style="fill:#5cbd93;fill-opacity:1;fill-rule:nonzero;stroke:none"
             id="path4665" /></g><g
           id="g4667"
           transform="translate(412.7373,298.3594)"><path
             d="m 0,0 c -3.436,-0.447 -6.46,-2.515 -8.102,-5.562 -7.621,-14.141 -24.343,-21.485 -40.347,-16.727 -3.123,0.926 -6.005,2.264 -8.629,3.911 -3.29,2.085 -7.494,2.223 -10.91,0.334 -7.197,-3.982 -15.933,-5.187 -24.442,-2.653 -14.193,4.216 -23.24,17.461 -22.722,31.593 3.29,-2.836 7.218,-5.038 11.648,-6.354 8.509,-2.535 17.245,-1.33 24.441,2.652 3.417,1.889 7.621,1.751 10.911,-0.335 2.624,-1.646 5.514,-2.992 8.629,-3.91 16.003,-4.758 32.734,2.594 40.347,16.727 1.642,3.047 4.674,5.123 8.102,5.562 18.052,2.313 33.885,15.175 38.958,34.003 1.553,5.748 1.931,11.58 1.282,17.225 C 38.942,65.127 43.076,49.298 38.958,34.003 33.885,15.175 18.052,2.313 0,0"
             style="fill:#1ca56f;fill-opacity:1;fill-rule:nonzero;stroke:none"
             id="path4669" /></g><g
           id="g4671"
           transform="translate(344.752,280.3184)"><path
             d="m 0,0 c 3.408,1.885 7.618,1.749 10.909,-0.333 2.621,-1.658 5.511,-2.989 8.631,-3.917 16.002,-4.759 32.723,2.595 40.342,16.733 1.639,3.042 4.674,5.113 8.102,5.553 18.052,2.316 33.884,15.185 38.959,34.003 6.297,23.342 -6.666,47.935 -29.493,55.899 -11.215,3.914 -22.812,3.288 -32.896,-0.836 -3.592,-1.469 -7.721,-1.082 -10.815,1.261 -4.433,3.359 -9.702,5.756 -15.549,6.821 -16.87,3.073 -33.141,-5.931 -39.932,-20.86 -1.399,-3.074 -4.214,-5.246 -7.489,-6.065 C -39.78,85.62 -48.702,77.638 -52.026,66.46 -55.192,55.813 -52.517,44.822 -45.868,36.91 -45.869,36.905 -45.87,36.901 -45.872,36.897 -50.879,20.06 -41.288,2.351 -24.45,-2.657 -15.937,-5.189 -7.203,-3.984 0,0 Z"
             style="fill:none;stroke:#000000;stroke-width:15;stroke-linecap:round;stroke-linejoin:round;stroke-miterlimit:10;stroke-dasharray:none;stroke-opacity:1"
             id="path4673" /></g><g
           id="g4675"
           transform="translate(298.8838,317.228)"><path
             d="M 0,0 C 0,0 67.624,-5.764 112.188,25.462"
             style="fill:none;stroke:#000000;stroke-width:15;stroke-linecap:round;stroke-linejoin:round;stroke-miterlimit:10;stroke-dasharray:none;stroke-opacity:1"
             id="path4677" /></g><g
           id="g4679"
           transform="translate(256.2715,330.5098)"><path
             d="M 0,0 C 0,0 -25.413,32.766 -20.901,72.131"
             style="fill:none;stroke:#000000;stroke-width:15;stroke-linecap:round;stroke-linejoin:round;stroke-miterlimit:10;stroke-dasharray:none;stroke-opacity:1"
             id="path4681" /></g><g
           id="g4683"
           transform="translate(460.5078,443.4673)"><path
             d="M 0,0 C 0,0 -22.371,-37.176 -62.219,-53.401"
             style="fill:none;stroke:#000000;stroke-width:15;stroke-linecap:round;stroke-linejoin:round;stroke-miterlimit:10;stroke-dasharray:none;stroke-opacity:1"
             id="path4685" /></g><g
           id="g4687"
           transform="translate(350.0508,368.8755)"><path
             d="m 0,0 c 1.027,3.757 4.061,6.679 7.849,7.584 3.016,0.723 5.985,1.864 8.827,3.453 14.572,8.147 20.966,25.256 16.15,40.578 -1.036,3.297 -0.403,6.916 1.673,9.679 10.933,14.55 12.754,34.872 2.812,51.635 -12.334,20.794 -38.998,28.66 -60.628,17.859 -10.627,-5.307 -18.269,-14.053 -22.348,-24.156 -1.452,-3.598 -4.609,-6.286 -8.446,-6.868 -5.5,-0.834 -10.893,-2.937 -15.735,-6.384 -13.968,-9.945 -18.867,-27.884 -12.907,-43.164 1.228,-3.146 0.82,-6.678 -0.878,-9.597 -5.467,-9.4 -5.972,-21.36 -0.281,-31.539 5.421,-9.696 15.163,-15.446 25.471,-16.2 0.002,-0.004 0.003,-0.008 0.005,-0.011 8.573,-15.333 27.952,-20.814 43.285,-12.242 C -7.398,-15.039 -2.169,-7.94 0,0"
             style="fill:#2db181;fill-opacity:1;fill-rule:nonzero;stroke:none"
             id="path4689" /></g><g
           id="g4691"
           transform="translate(357.9043,376.4565)"><path
             d="m 0,0 c -3.788,-0.902 -6.827,-3.827 -7.853,-7.587 -2.168,-7.931 -7.395,-15.036 -15.156,-19.369 -13.802,-7.724 -30.886,-4.039 -40.412,7.974 5.271,-0.012 10.613,1.295 15.535,4.05 7.761,4.334 12.981,11.43 15.157,19.369 1.025,3.76 4.064,6.685 7.851,7.587 3.012,0.728 5.979,1.869 8.825,3.455 14.574,8.144 20.964,25.252 16.149,40.573 -1.039,3.302 -0.402,6.922 1.673,9.681 10.937,14.554 12.756,34.868 2.815,51.641 -2.268,3.822 -5.028,7.219 -8.153,10.126 13.358,-2.028 25.711,-9.813 33.03,-22.15 C 39.394,88.584 37.583,68.263 26.646,53.709 24.571,50.95 23.934,47.33 24.973,44.028 29.788,28.707 23.397,11.598 8.824,3.456 5.978,1.869 3.011,0.729 0,0"
             style="fill:#1ca56f;fill-opacity:1;fill-rule:nonzero;stroke:none"
             id="path4693" /></g><g
           id="g4695"
           transform="translate(350.0508,368.8755)"><path
             d="m 0,0 c 1.027,3.757 4.061,6.679 7.849,7.584 3.016,0.723 5.985,1.864 8.827,3.453 14.572,8.147 20.966,25.256 16.15,40.578 -1.036,3.297 -0.403,6.916 1.673,9.679 10.933,14.55 12.754,34.872 2.812,51.635 -12.334,20.794 -38.998,28.66 -60.628,17.859 -10.627,-5.307 -18.269,-14.053 -22.348,-24.156 -1.452,-3.598 -4.609,-6.286 -8.446,-6.868 -5.5,-0.834 -10.893,-2.937 -15.735,-6.384 -13.968,-9.945 -18.867,-27.884 -12.907,-43.164 1.228,-3.146 0.82,-6.678 -0.878,-9.597 -5.467,-9.4 -5.972,-21.36 -0.281,-31.539 5.421,-9.696 15.163,-15.446 25.471,-16.2 0.002,-0.004 0.003,-0.008 0.005,-0.011 8.573,-15.333 27.952,-20.814 43.285,-12.242 C -7.398,-15.039 -2.169,-7.94 0,0 Z"
             style="fill:none;stroke:#000000;stroke-width:15;stroke-linecap:round;stroke-linejoin:round;stroke-miterlimit:10;stroke-dasharray:none;stroke-opacity:1"
             id="path4697" /></g><g
           id="g4699"
           transform="translate(291.6152,361.7441)"><path
             d="M 0,0 C 0,0 12.506,61.209 63.707,106.679"
             style="fill:none;stroke:#000000;stroke-width:15;stroke-linecap:round;stroke-linejoin:round;stroke-miterlimit:10;stroke-dasharray:none;stroke-opacity:1"
             id="path4701" /></g><g
           id="g4703"
           transform="translate(305.623,398.9805)"><path
             d="M 0,0 29.785,11.25"
             style="fill:none;stroke:#000000;stroke-width:15;stroke-linecap:round;stroke-linejoin:round;stroke-miterlimit:10;stroke-dasharray:none;stroke-opacity:1"
             id="path4705" /></g><g
           id="g4707"
           transform="translate(419.3154,401.3496)"><path
             d="M 0,0 C 0,0 8.225,12.352 8.216,31.612"
             style="fill:none;stroke:#000000;stroke-width:15;stroke-linecap:round;stroke-linejoin:round;stroke-miterlimit:10;stroke-dasharray:none;stroke-opacity:1"
             id="path4709" /></g><g
           id="g4711"
           transform="translate(355.0215,320.7305)"><path
             d="M 0,0 C 0,0 18.56,10.502 32.238,38.42"
             style="fill:none;stroke:#000000;stroke-width:15;stroke-linecap:round;stroke-linejoin:round;stroke-miterlimit:10;stroke-dasharray:none;stroke-opacity:1"
             id="path4713" /></g><g
           id="g4715"
           transform="translate(332.7734,317.7134)"><path
             d="M 0,0 C 0,0 11.47,-12.488 29.346,-17.834"
             style="fill:none;stroke:#000000;stroke-width:15;stroke-linecap:round;stroke-linejoin:round;stroke-miterlimit:10;stroke-dasharray:none;stroke-opacity:1"
             id="path4717" /></g><g
           id="g4719"
           transform="translate(316.7979,421.7954)"><path
             d="M 0,0 -7.469,20.466"
             style="fill:none;stroke:#000000;stroke-width:15;stroke-linecap:round;stroke-linejoin:round;stroke-miterlimit:10;stroke-dasharray:none;stroke-opacity:1"
             id="path4721" /></g></g></g></g></svg>
