<?xml version="1.0" encoding="iso-8859-1"?>
<!-- Generator: Adobe Illustrator 19.0.0, SVG Export Plug-In . SVG Version: 6.00 Build 0)  -->
<svg version="1.1" id="Capa_1" xmlns="http://www.w3.org/2000/svg" xmlns:xlink="http://www.w3.org/1999/xlink" x="0px" y="0px"
	 viewBox="0 0 512 512" style="enable-background:new 0 0 512 512;" xml:space="preserve">
<g>
	<path style="fill:#ECE9F7;" d="M210,10c11.05,0,20,8.95,20,20c0,11.04-8.96,20-20,20H110c-11.05,0-20-8.95-20-20
		c0-11.04,8.96-20,20-20H210z"/>
	<path style="fill:#ECE9F7;" d="M280.21,291.83L280,292c0,0-13.43,10-30,10s-30-10-30-10s-13.43-10-30-10s-30,10-30,10
		s-13.43,10-30,10s-30-10-30-10s-13.43-10-30-10s-30,10-30,10l-0.21-0.17c2.09-2.49,4.29-4.9,6.57-7.23
		C85.22,244.9,110,193.61,110,138.06V50h100v88.06c0,55.55,24.78,106.84,63.64,146.54C275.92,286.93,278.12,289.34,280.21,291.83z"
		/>
</g>
<g>
	<path style="fill:#F2D45C;" d="M491.33,130.05C498.12,141.81,502,155.45,502,170c0,44.18-35.82,80-80,80s-80-35.82-80-80
		c0-14.55,3.88-28.19,10.67-39.95L422,10L491.33,130.05z"/>
	<path style="fill:#F2D45C;" d="M280.21,291.83C298.87,313.91,310,341.75,310,372c0,46.32-26.08,106.97-65.35,130H75.35
		C36.08,478.97,10,418.32,10,372c0-30.25,11.13-58.09,29.79-80.17L40,292c0,0,13.43-10,30-10s30,10,30,10s13.43,10,30,10
		s30-10,30-10s13.43-10,30-10s30,10,30,10s13.43,10,30,10s30-10,30-10L280.21,291.83z"/>
</g>
<path d="M270,352c-5.52,0-10,4.48-10,10s4.48,10,10,10s10-4.48,10-10S275.52,352,270,352z"/>
<path d="M39.213,277.605c-2.517,2.572-4.9,5.195-7.061,7.77C11.118,310.265,0,340.219,0,372c0,47.879,26.292,112.822,70.291,138.626
	c1.534,0.899,3.28,1.374,5.059,1.374h169.3c1.778,0,3.524-0.475,5.059-1.374C293.708,484.822,320,419.879,320,372
	c0-31.775-11.114-61.725-32.141-86.611c-2.18-2.597-4.56-5.215-7.073-7.784C241.588,237.559,220,188.001,220,138.06V58.296
	C231.39,54.278,240,43.33,240,30c0-16.542-13.458-30-30-30H110C93.425,0,80,13.425,80,30c0,13.036,8.361,24.152,20,28.28v79.78
	C100,188.001,78.412,237.559,39.213,277.605z M241.842,492H78.158C42.17,469.142,20,412.496,20,372
	c0-26.292,9.022-51.145,26.091-72.063C47.285,299.1,57.802,292,70,292c12.893,0,23.954,7.968,24.027,8.021
	C94.685,300.51,110.342,312,130,312s35.315-11.49,35.973-11.979C166.08,299.94,177.104,292,190,292
	c12.893,0,23.954,7.968,24.027,8.021C214.685,300.51,230.342,312,250,312c11.261,0,21.203-3.77,27.77-7.083
	C292.327,324.739,300,347.758,300,372C300,412.496,277.83,469.142,241.842,492z M264.145,289.143
	C260.137,290.698,255.222,292,250,292c-12.893,0-23.954-7.968-24.027-8.021C225.315,283.49,209.658,272,190,272
	s-35.315,11.49-35.973,11.979C153.92,284.06,142.896,292,130,292c-12.893,0-23.954-7.968-24.027-8.021
	c-0.648-0.482-15.885-11.654-35.157-11.965C102.687,232.055,120,185.309,120,138.06V60h80v78.06
	C200,192.241,222.762,245.763,264.145,289.143z M110,20h100c5.514,0,10,4.486,10,10c0,5.519-4.479,10-10,10H110
	c-5.514,0-10-4.486-10-10C100,24.481,104.479,20,110,20z"/>
<path d="M268.375,392.115c-5.338-1.419-10.813,1.762-12.23,7.1c-5.957,22.447-18.038,44.134-30.778,55.25
	c-4.162,3.632-4.592,9.948-0.961,14.109c1.978,2.267,4.751,3.426,7.539,3.426c2.332,0,4.676-0.812,6.57-2.465
	c15.781-13.77,29.943-38.749,36.96-65.189C276.892,399.007,273.713,393.531,268.375,392.115z"/>
<path d="M430.659,4.999C428.873,1.905,425.572,0,422,0s-6.873,1.905-8.659,4.999L344.01,125.05C336.153,138.657,332,154.2,332,170
	c0,49.626,40.374,90,90,90s90-40.374,90-90c0-15.8-4.153-31.343-12.011-44.951L430.659,4.999z M422,240c-38.598,0-70-31.402-70-70
	c0-12.293,3.227-24.379,9.329-34.949L422,29.996l60.67,105.054c6.104,10.571,9.33,22.657,9.33,34.95
	C492,208.598,460.598,240,422,240z"/>
<path d="M422,200c-16.542,0-30-13.458-30-30c0-5.275,1.373-10.441,3.97-14.941c2.762-4.783,1.122-10.898-3.661-13.659
	c-4.783-2.763-10.899-1.123-13.659,3.661C374.299,152.596,372,161.22,372,170c0,27.57,22.43,50,50,50c5.522,0,10-4.478,10-10
	S427.522,200,422,200z"/>
<g>
</g>
<g>
</g>
<g>
</g>
<g>
</g>
<g>
</g>
<g>
</g>
<g>
</g>
<g>
</g>
<g>
</g>
<g>
</g>
<g>
</g>
<g>
</g>
<g>
</g>
<g>
</g>
<g>
</g>
</svg>
