<?xml version="1.0" encoding="UTF-8"?>
<svg xmlns="http://www.w3.org/2000/svg" xmlns:xlink="http://www.w3.org/1999/xlink" version="1.1" id="Capa_1" x="0px" y="0px" viewBox="0 0 511.943 511.943" style="enable-background:new 0 0 511.943 511.943;" xml:space="preserve" width="512" height="512">
<g>
	<path style="fill:#8DD470;" d="M399.631,214.654c-5.73,8.59-11.64,17.43-17.72,26.42l-135.66,53.83l-98.6-78.38&#10;&#9;&#9;c43.15-28.7,89.09-61.52,117.35-97.92c22.471-28.654,58.495-49.337,94.03-46.07C425.72,78.372,438.685,156.062,399.631,214.654z"/>
	<path style="fill:#6DC847;" d="M381.911,241.073c-42.19,62.37-92.82,132.16-149.1,177.54c-34.434,27.75-75.731,35.37-110.39,25.32&#10;&#9;&#9;c-0.019-0.014-0.036-0.026-0.05-0.04c-26.86-7.78-49.64-26.15-62.02-53.77c-26.83-53.659-8.638-109.362,38.59-141.47&#10;&#9;&#9;c14.95-10.04,31.61-20.77,48.71-32.13c9.73,1.92,19.76,4,30.37,6.21C346.567,257.815,329.734,236.15,381.911,241.073z"/>
	<path style="fill:#DF8A57;" d="M382.607,150.164l-6.666-16.666c-1.813-4.534-5.406-8.126-9.939-9.939l-16.666-6.666&#10;&#9;&#9;c-12.923-5.169-15.214-22.487-4.079-30.838l43.116-32.337c9.566-7.175,22.953-6.224,31.409,2.232l23.768,23.768&#10;&#9;&#9;c8.456,8.456,9.407,21.842,2.232,31.409l-32.337,43.116C405.094,165.377,387.776,163.087,382.607,150.164z"/>
	<path style="fill:#ACE094;" d="M458.621,378.964c-2.71,5.3-6.09,10.45-10.1,15.36c-15.31,18.8-39.73,34.05-70.55,40.2&#10;&#9;&#9;c-51.11,10.23-110.02,21.65-167.31,26.33c-242.22-79.7-62.77-213.59-62.77-213.59c61.47,12.37,141.19,31.92,202.8,24.15&#10;&#9;&#9;c3.65-0.44,7.31-0.73,10.96-0.86C432.556,267.936,487.385,322.787,458.621,378.964z"/>
	<path style="fill:#8DD470;" d="M210.661,460.854c-32.74,2.67-64.96,3.15-94.87-0.06c-38.686-4.165-69.749-23.189-87.88-47.66&#10;&#9;&#9;l-1.95-9.05l-10.22-11.77c-13.042-29.736-9.505-57.663,2.94-85.67l11.1-11.18l0.72-9.27c18.86-25.84,46.38-39.02,74.94-41.88&#10;&#9;&#9;c16.19-1.638,28.107,0.044,42.45,2.95C126.441,294.033,101.191,390.564,210.661,460.854z"/>
	<ellipse style="fill:#FFFFFF;" cx="141.831" cy="372.462" rx="28.919" ry="23.03"/>
	<ellipse style="fill:#FFFFFF;" cx="298.585" cy="372.462" rx="28.919" ry="23.03"/>
	<path style="fill:#E4996D;" d="M411.535,376.892l7.071-16.499c1.923-4.488,1.923-9.568,0-14.056l-7.071-16.499&#10;&#9;&#9;c-5.483-12.793,5.143-26.658,18.922-24.69l53.353,7.622c11.838,1.691,20.631,11.83,20.631,23.788v33.613&#10;&#9;&#9;c0,11.958-8.793,22.097-20.631,23.788l-53.353,7.622C416.678,403.55,406.052,389.685,411.535,376.892z"/>
</g>
<g>
	<path style="fill:none;stroke:#000000;stroke-width:15;stroke-linecap:round;stroke-linejoin:round;stroke-miterlimit:10;" d="&#10;&#9;&#9;M204.967,175.923c23.135-17.937,44.322-37.075,60.036-57.32c22.17-28.27,55.05-46.39,86.83-46.39c3.462,0,7.069,0.211,10.9,0.74"/>
	<path style="fill:none;stroke:#000000;stroke-width:15;stroke-linecap:round;stroke-linejoin:round;stroke-miterlimit:10;" d="&#10;&#9;&#9;M105.443,244.313c21.751-14.444,46.545-30.234,70.804-47.275"/>
	<path style="fill:none;stroke:#000000;stroke-width:15;stroke-linecap:round;stroke-linejoin:round;stroke-miterlimit:10;" d="&#10;&#9;&#9;M421.553,143.433c0.64,22.43-6.17,47.59-21.92,71.22c-11.89,17.84-24.58,36.76-37.98,55.9"/>
	<path style="fill:none;stroke:#000000;stroke-width:15;stroke-linecap:round;stroke-linejoin:round;stroke-miterlimit:10;" d="&#10;&#9;&#9;M280.273,150.703c34.16-14.64,54.91-42.71,58.12-47.28"/>
	<path style="fill:none;stroke:#000000;stroke-width:15;stroke-linecap:round;stroke-linejoin:round;stroke-miterlimit:10;" d="&#10;&#9;&#9;M397.405,161.349c0,0-31.945,21.296-47.917,58.565"/>
	<path style="fill:none;stroke:#000000;stroke-width:15;stroke-linecap:round;stroke-linejoin:round;stroke-miterlimit:10;" d="&#10;&#9;&#9;M382.608,150.163l-6.666-16.666c-1.813-4.533-5.405-8.126-9.939-9.939l-16.666-6.666c-12.923-5.169-15.214-22.487-4.079-30.838&#10;&#9;&#9;l43.116-32.337c9.566-7.175,22.953-6.223,31.409,2.232l23.768,23.768c8.456,8.456,9.407,21.842,2.232,31.409l-32.337,43.116&#10;&#9;&#9;C405.095,165.377,387.778,163.086,382.608,150.163z"/>
	<path style="fill:none;stroke:#000000;stroke-width:15;stroke-linecap:round;stroke-linejoin:round;stroke-miterlimit:10;" d="&#10;&#9;&#9;M191.056,462.184c-25.956,1.386-51.345,1.175-75.263-1.39c-30-3.23-55.55-15.31-74.27-32.62c-3.49-3.21-6.74-6.61-9.74-10.16&#10;&#9;&#9;c-4.59-5.45-8.6-11.27-11.95-17.38v-0.04l-0.01-0.01c-13.49-24.5-16.61-53.6-5.83-81.89c1.21-3.62,2.54-7.09,3.98-10.43&#10;&#9;&#9;c0.93-2.16,1.91-4.26,2.93-6.3h0.01c1.16-2.34,2.4-4.6,3.69-6.78c18.72-31.81,49.14-47.69,80.84-50.87&#10;&#9;&#9;c11.96-1.21,24.1-0.6,35.87,1.64c62.28,12.23,145.55,33.51,209.38,25.46c3.65-0.44,7.31-0.73,10.96-0.86&#10;&#9;&#9;c33.891-1.251,70.083,10.832,90.43,37.69"/>
	<path style="fill:none;stroke:#000000;stroke-width:15;stroke-linecap:round;stroke-linejoin:round;stroke-miterlimit:10;" d="&#10;&#9;&#9;M443.823,399.673c-15.39,16.32-38.01,29.29-65.85,34.85c-47.815,9.573-102.47,20.183-156.226,25.343"/>
	<path style="fill:none;stroke:#000000;stroke-width:15;stroke-linecap:round;stroke-linejoin:round;stroke-miterlimit:10;" d="&#10;&#9;&#9;M414.09,312.44c0,0-37.647,7.529-75.294-7.529"/>
	<path style="fill:none;stroke:#000000;stroke-width:15;stroke-linecap:round;stroke-linejoin:round;stroke-miterlimit:10;" d="&#10;&#9;&#9;M414.09,395.264c0,0-37.647-7.529-75.294,7.529"/>
	<path style="fill:none;stroke:#000000;stroke-width:15;stroke-linecap:round;stroke-linejoin:round;stroke-miterlimit:10;" d="&#10;&#9;&#9;M172.452,347.401c0-7.602-6.163-13.765-13.765-13.765c-7.602,0-13.765,6.163-13.765,13.765"/>
	<path style="fill:none;stroke:#000000;stroke-width:15;stroke-linecap:round;stroke-linejoin:round;stroke-miterlimit:10;" d="&#10;&#9;&#9;M267.967,347.401c0-7.602,6.163-13.765,13.765-13.765c7.602,0,13.765,6.163,13.765,13.765"/>
	<path style="fill:none;stroke:#000000;stroke-width:15;stroke-linecap:round;stroke-linejoin:round;stroke-miterlimit:10;" d="&#10;&#9;&#9;M205.608,363.489c3.55,4.074,8.773,6.652,14.601,6.652c5.828,0,11.051-2.578,14.601-6.652"/>
	<path style="fill:none;stroke:#000000;stroke-width:15;stroke-linecap:round;stroke-linejoin:round;stroke-miterlimit:10;" d="&#10;&#9;&#9;M411.536,376.891l7.071-16.499c1.923-4.488,1.923-9.568,0-14.056l-7.071-16.499c-5.483-12.793,5.143-26.658,18.922-24.69&#10;&#9;&#9;l53.353,7.622c11.838,1.691,20.631,11.83,20.631,23.788v33.613c0,11.958-8.793,22.097-20.631,23.788l-53.353,7.622&#10;&#9;&#9;C416.679,403.55,406.053,389.685,411.536,376.891z"/>
	<path style="fill:none;stroke:#000000;stroke-width:15;stroke-linecap:round;stroke-linejoin:round;stroke-miterlimit:10;" d="&#10;&#9;&#9;M20.902,301.968c20.05-9.5,84.482-34.704,144.72-12.12"/>
	<path style="fill:none;stroke:#000000;stroke-width:15;stroke-linecap:round;stroke-linejoin:round;stroke-miterlimit:10;" d="&#10;&#9;&#9;M165.622,410.327c-60.238,22.584-124.67-2.62-144.72-12.12"/>
</g>















</svg>
