<?xml version="1.0" encoding="UTF-8"?>
<svg xmlns="http://www.w3.org/2000/svg" id="Filled" viewBox="0 0 512 512" width="512" height="512"><path d="M488,232a63.961,63.961,0,0,0-29.55-53.93A64.021,64.021,0,0,0,415.95,90c.02-.66.05-1.33.05-2a64,64,0,0,0-128,0c0,.67.03,1.34.05,2a64.021,64.021,0,0,0-42.5,88.07A63.964,63.964,0,0,0,230.06,272,63.982,63.982,0,0,0,280,376a65.116,65.116,0,0,0,9.84-.75A64.107,64.107,0,0,0,328,419.34a62.9,62.9,0,0,0,16,4.16,64.25,64.25,0,0,0,16,0,62.9,62.9,0,0,0,16-4.16,64.107,64.107,0,0,0,38.16-44.09A65.116,65.116,0,0,0,424,376a63.982,63.982,0,0,0,49.94-104A63.707,63.707,0,0,0,488,232Z" style="fill:#2e9163"/><path d="M304,144a8,8,0,0,0,0,16,24.027,24.027,0,0,1,24,24v66.815A71.883,71.883,0,0,0,272,224a8,8,0,0,0,0,16,56.064,56.064,0,0,1,56,56v50.815A71.883,71.883,0,0,0,272,320a8,8,0,0,0,0,16,56.064,56.064,0,0,1,56,56v27.34a62.9,62.9,0,0,0,16,4.16V184A40.045,40.045,0,0,0,304,144Z" style="fill:#248256"/><path d="M432,224a71.883,71.883,0,0,0-56,26.815V184a24.027,24.027,0,0,1,24-24,8,8,0,0,0,0-16,40.045,40.045,0,0,0-40,40V423.5a62.9,62.9,0,0,0,16-4.16V296a56.064,56.064,0,0,1,56-56,8,8,0,0,0,0-16Z" style="fill:#248256"/><path d="M352,88h0a16,16,0,0,1,16,16V488H336V104A16,16,0,0,1,352,88Z" style="fill:#88c791"/><path d="M479.86,263.23a63.947,63.947,0,0,0-13.17-78.88A40,40,0,0,0,440,248a40,40,0,0,0-32,64,39.988,39.988,0,0,0-7.03,32.75C382.23,348.74,368,368.37,368,392a54.574,54.574,0,0,0,7.29,27.63,64.127,64.127,0,0,0,38.87-44.38A65.116,65.116,0,0,0,424,376a63.982,63.982,0,0,0,49.94-104,64.632,64.632,0,0,0,5.48-8" style="fill:#3dc285"/><path d="M296,232a63.961,63.961,0,0,0-29.55-53.93A64.021,64.021,0,0,0,223.95,90c.02-.66.05-1.33.05-2A64,64,0,0,0,96,88c0,.67.03,1.34.05,2a64.021,64.021,0,0,0-42.5,88.07A63.964,63.964,0,0,0,38.06,272,63.982,63.982,0,0,0,88,376a65.116,65.116,0,0,0,9.84-.75A64.107,64.107,0,0,0,136,419.34a62.9,62.9,0,0,0,16,4.16,64.25,64.25,0,0,0,16,0,62.9,62.9,0,0,0,16-4.16,64.107,64.107,0,0,0,38.16-44.09A65.116,65.116,0,0,0,232,376a63.982,63.982,0,0,0,49.94-104A63.707,63.707,0,0,0,296,232Z" style="fill:#35a872"/><path d="M240,320a71.883,71.883,0,0,0-56,26.815V296a56.064,56.064,0,0,1,56-56,8,8,0,0,0,0-16,71.883,71.883,0,0,0-56,26.815V184a24.027,24.027,0,0,1,24-24,8,8,0,0,0,0-16,40.045,40.045,0,0,0-40,40V423.5a62.9,62.9,0,0,0,16-4.16V392a56.064,56.064,0,0,1,56-56,8,8,0,0,0,0-16Z" style="fill:#2e9163"/><path d="M112,144a8,8,0,0,0,0,16,24.027,24.027,0,0,1,24,24v66.815A71.883,71.883,0,0,0,80,224a8,8,0,0,0,0,16,56.064,56.064,0,0,1,56,56V419.34a62.9,62.9,0,0,0,16,4.16V184A40.045,40.045,0,0,0,112,144Z" style="fill:#2e9163"/><path d="M32.58,264a64.632,64.632,0,0,0,5.48,8A63.982,63.982,0,0,0,88,376a65.116,65.116,0,0,0,9.84-.75,64.127,64.127,0,0,0,38.87,44.38A54.574,54.574,0,0,0,144,392c0-23.63-14.23-43.26-32.97-47.25A39.988,39.988,0,0,0,104,312a40,40,0,0,0-32-64,40,40,0,0,0-26.69-63.65,63.947,63.947,0,0,0-13.17,78.88" style="fill:#3dc285"/><path d="M160,88h0a16,16,0,0,0-16,16V488h32V104A16,16,0,0,0,160,88Z" style="fill:#88c791"/><path d="M496,232a71.705,71.705,0,0,0-27.82-56.843,72.047,72.047,0,0,0-44.287-91.1,72,72,0,0,0-143.786,0,71.535,71.535,0,0,0-24.091,14.261,71.672,71.672,0,0,0-24.123-14.261,72,72,0,0,0-143.786,0,72.047,72.047,0,0,0-44.287,91.1A71.954,71.954,0,0,0,28.152,272,71.979,71.979,0,0,0,88,384q2.026,0,4.065-.114A71.761,71.761,0,0,0,136,427.9V488a8,8,0,0,0,8,8h32a8,8,0,0,0,8-8V427.9a71.761,71.761,0,0,0,43.935-44.01Q229.971,384,232,384a71.653,71.653,0,0,0,23.99-4.125,71.563,71.563,0,0,0,28.075,4.011A71.761,71.761,0,0,0,328,427.9V488a8,8,0,0,0,8,8h32a8,8,0,0,0,8-8V427.9a71.761,71.761,0,0,0,43.935-44.01Q421.97,384,424,384a71.979,71.979,0,0,0,59.848-112A72.223,72.223,0,0,0,496,232ZM290.038,97.749a8,8,0,0,0,6.008-7.992l-.016-.505c-.014-.415-.03-.833-.03-1.252a56,56,0,0,1,112,0c0,.419-.016.837-.03,1.252l-.016.505a8,8,0,0,0,6.008,7.992,56.022,56.022,0,0,1,37.182,77.063,7.981,7.981,0,0,0-.185,6.05A48.177,48.177,0,0,0,424,224c0,.152.009.3.011.454A71.953,71.953,0,0,0,376,250.815V184a24.027,24.027,0,0,1,24-24,8,8,0,0,0,0-16,39.788,39.788,0,0,0-24,8.022V104a24,24,0,0,0-48,0v48.022A39.788,39.788,0,0,0,304,144a8,8,0,0,0,0,16,24.027,24.027,0,0,1,24,24v66.64a71.773,71.773,0,0,0-24.007-19.158,71.7,71.7,0,0,0-27.813-56.325,72.115,72.115,0,0,0-9.5-64.916A55.635,55.635,0,0,1,290.038,97.749Zm137.32,143.94A48.089,48.089,0,0,0,392,288a47.594,47.594,0,0,0,6.422,24A47.594,47.594,0,0,0,392,336q0,1.571.1,3.141a46.789,46.789,0,0,0-16.1,11.09V296a56.071,56.071,0,0,1,50.825-55.752C427,240.73,427.169,241.213,427.358,241.689ZM328,346.758a71.832,71.832,0,0,0-25.526-20A71.959,71.959,0,0,0,291.848,272a72.3,72.3,0,0,0,10.164-23.307A55.7,55.7,0,0,1,328,296ZM105.611,373.351a8,8,0,0,0-8.979-6.009A57.464,57.464,0,0,1,88,368a56.064,56.064,0,0,1-56-56,55.371,55.371,0,0,1,12.3-35,8,8,0,0,0,0-10.01,55.92,55.92,0,0,1,3.564-74.013A32.1,32.1,0,0,1,72,224a31.747,31.747,0,0,1-6.4,19.2A8,8,0,0,0,72,256a32,32,0,0,1,25.6,51.2,8,8,0,0,0,0,9.6,31.986,31.986,0,0,1,5.623,26.2,8,8,0,0,0,6.14,9.576C124.8,355.861,136,372.442,136,392v18.617A55.808,55.808,0,0,1,105.611,373.351ZM136,350.231a46.789,46.789,0,0,0-16.1-11.09q.1-1.569.1-3.141a47.594,47.594,0,0,0-6.422-24A47.594,47.594,0,0,0,120,288a48.089,48.089,0,0,0-35.358-46.311c.189-.476.36-.959.533-1.441A56.071,56.071,0,0,1,136,296ZM168,480H152V104a8,8,0,0,1,16,0Zm55.368-112.658a8,8,0,0,0-8.979,6.009A55.808,55.808,0,0,1,184,410.617V392a56.064,56.064,0,0,1,56-56,8,8,0,0,0,0-16,71.883,71.883,0,0,0-56,26.815V296a56.064,56.064,0,0,1,56-56,8,8,0,0,0,0-16,71.883,71.883,0,0,0-56,26.815V184a24.027,24.027,0,0,1,24-24,8,8,0,0,0,0-16,39.788,39.788,0,0,0-24,8.022V104a24,24,0,0,0-48,0v48.022A39.788,39.788,0,0,0,112,144a8,8,0,0,0,0,16,24.027,24.027,0,0,1,24,24v66.815a71.953,71.953,0,0,0-48.011-26.361c0-.152.011-.3.011-.454a48.177,48.177,0,0,0-26.959-43.138,7.981,7.981,0,0,0-.185-6.05A56.022,56.022,0,0,1,98.038,97.749a8,8,0,0,0,6.008-7.992l-.016-.505c-.014-.415-.03-.833-.03-1.252a56,56,0,0,1,112,0c0,.419-.016.837-.03,1.252l-.016.505a8,8,0,0,0,6.008,7.992,56.022,56.022,0,0,1,37.182,77.063,8,8,0,0,0,2.99,9.994A55.964,55.964,0,0,1,275.7,267a8,8,0,0,0,0,10.01A55.371,55.371,0,0,1,288,312a56.064,56.064,0,0,1-56,56A57.464,57.464,0,0,1,223.368,367.342Zm74.243,6.009a8,8,0,0,0-8.979-6.009A57.464,57.464,0,0,1,280,368q-1.371,0-2.732-.065a72.4,72.4,0,0,0,20.125-25.861A56.053,56.053,0,0,1,328,392v18.617A55.808,55.808,0,0,1,297.611,373.351ZM360,480H344V104a8,8,0,0,1,16,0ZM467.7,277.005A55.371,55.371,0,0,1,480,312a56.064,56.064,0,0,1-56,56,57.464,57.464,0,0,1-8.632-.658,8,8,0,0,0-8.979,6.009A55.808,55.808,0,0,1,376,410.617V392c0-19.558,11.2-36.139,26.636-39.425a8,8,0,0,0,6.14-9.576,31.986,31.986,0,0,1,5.623-26.2,8,8,0,0,0,0-9.6A32,32,0,0,1,440,256a8,8,0,0,0,6.4-12.8A31.747,31.747,0,0,1,440,224a32.1,32.1,0,0,1,24.135-31.018A55.92,55.92,0,0,1,467.7,267,8,8,0,0,0,467.7,277.005Z"/></svg>
