<svg xmlns="http://www.w3.org/2000/svg" version="1.1" xmlns:xlink="http://www.w3.org/1999/xlink" xmlns:svgjs="http://svgjs.com/svgjs" width="512" height="512" x="0" y="0" viewBox="0 0 511.941 511.941" style="enable-background:new 0 0 512 512" xml:space="preserve" class=""><g><path d="M504.441 255.971c0 110.19-71.73 203.63-171.04 236.16-427.46-107.8-149.07-474.15-149.07-474.15 22.68-6.82 46.73-10.48 71.64-10.48 137.23 0 248.47 111.24 248.47 248.47z" style="" fill="#efedfe" data-original="#efedfe" class=""></path><path d="M333.401 492.131c-24.36 7.99-50.39 12.31-77.43 12.31-137.23 0-248.47-111.24-248.47-248.47 0-112.33 74.53-207.24 176.83-237.99-10.64 119.89-17.4 405.53 149.07 474.15z" style="" fill="#dedef9" data-original="#dedef9" class=""></path><path d="M452.191 233.561c.013.133 0 102.955 0 103.08 0 22.7-11.44 43.13-30.31 57.28l-42.2-101.85 54.82-111.99c9.644 5.126 13.097 14.767 9.3 22.98 16.304 6.395 16.182 23.624 8.39 30.5z" style="" fill="#ffffff" data-original="#f85647" class=""></path><path d="M434.501 180.081c-1.25 4.77-3.04 9.2-5.37 13.28v156.18c0 15.32-2.51 30.24-7.25 44.38-9.42 7.08-20.68 12.59-33.3 16.05-1.39.37-2.8.73-4.22 1.06-8.5 1.99-17.49 3.06-26.74 3.06-9.26 0-18.24-1.07-26.75-3.06-1.41-.33-2.82-.69-4.21-1.06-37.93-10.39-65.61-39.3-65.61-73.33 0-.117-.013-102.947 0-103.08-3.91-3.45-5.08-8.04-5.08-13.09 0-7.66 5.49-14.28 13.47-17.41-.98-2.12-1.51-4.4-1.51-6.79 0-10.69 10.71-19.36 23.92-19.36 2.26 0 4.44.25 6.52.73 2.33-8.72 11.9-15.25 23.37-15.25 4.27 0 8.27.9 11.74 2.49l.4-.09c-.12-.78-.18-1.59-.18-2.4 0-10.7 10.71-19.36 23.92-19.36s23.91 8.66 23.91 19.36c0 .81-.06 1.62-.18 2.4l.4.09c3.47-1.59 5.48-2.49 9.75-2.49 11.47 0 21.05 6.53 23.37 15.25 2.08-.48 4.26-.73 6.52-.73 4.84 0 9.35 1.17 13.11 3.17z" style="" fill="#ffffff" data-original="#e83826" class=""></path><path d="m143.071 297.811-53.01 96.12c-18.87-14.16-30.31-34.59-30.31-57.29 0-.117-.013-102.947 0-103.08-7.842-6.919-7.954-24.089 8.39-30.5-.98-2.12-1.51-4.4-1.51-6.79 0-6.77 4.3-12.73 10.81-16.19l65.63 117.73z" style="" fill="#ffffff" data-original="#f85647" class=""></path><path d="M250.891 233.561c.013.133 0 102.955 0 103.08 0 34.03-27.68 62.94-65.61 73.33-1.39.37-2.8.73-4.21 1.06-8.51 1.99-17.49 3.06-26.75 3.06-9.25 0-18.24-1.07-26.74-3.06-1.42-.33-2.83-.69-4.22-1.06-12.62-3.46-23.88-8.97-33.3-16.04a139.472 139.472 0 0 1-7.25-44.39v-156.18c-2.33-4.08-4.13-8.51-5.37-13.28 3.76-2 8.27-3.17 13.11-3.17 2.26 0 4.44.25 6.52.73 2.32-8.72 11.9-15.25 23.37-15.25 4.27 0 6.28.9 9.75 2.49l.4-.09c-.12-.78-.18-1.59-.18-2.4 0-10.7 10.7-19.36 23.91-19.36s23.92 8.66 23.92 19.36c0 .81-.06 1.62-.18 2.4l.4.09c3.47-1.59 7.47-2.49 11.74-2.49 11.47 0 21.04 6.53 23.37 15.25 2.08-.48 4.26-.73 6.52-.73 13.21 0 23.92 8.67 23.92 19.36 0 2.39-.53 4.67-1.51 6.79 7.98 3.13 13.47 9.75 13.47 17.41 0 5.05-1.17 9.64-5.08 13.09z" style="" fill="#ffffff" data-original="#e83826" class=""></path><path d="M399.031 183.471c.3 3.34 0 6.71 0 10.11v155.96c0 54.83-41.01 101.4-97.19 118.14-2.06.61-4.15 1.19-6.25 1.72-256.89-71.23-114.97-393.7-114.97-393.7 6.07-4.31 13.8-6.89 22.2-6.89 6.32 0 12.25 1.46 17.39 4.01l.6-.14a27.44 27.44 0 0 1-.27-3.87c0-17.23 15.86-31.19 35.43-31.19s35.43 13.96 35.43 31.19c0 1.31-.09 2.61-.27 3.87l.6.14c5.14-2.55 11.07-4.01 17.39-4.01 16.99 0 31.18 10.52 34.63 24.57 3.07-.77 6.31-1.18 9.66-1.18 19.57 0 35.43 13.97 35.43 31.2 0 3.85-.79 7.52-2.23 10.93 11.81 5.05 19.95 15.72 19.95 28.06 0 8.13-1.74 15.53-7.53 21.08z" style="" fill="#ffffff" data-original="#fd7a6e" class=""></path><path d="m294.081 469.771-37.13-4.81-40.6 4.44c-2.1-.53-4.19-1.11-6.25-1.72-56.18-16.74-97.19-63.31-97.19-118.14v-155.96c0-3.4-.3-6.77 0-10.11-5.79-5.55-7.53-12.95-7.53-21.08 0-12.34 8.14-23.01 19.95-28.06a27.952 27.952 0 0 1-2.23-10.93c0-17.23 15.86-31.2 35.43-31.2 3.35 0 6.59.41 9.66 1.18 1.74-7.1 6.23-13.29 12.43-17.68-4.971 122.83 6.42 313.92 113.46 394.07z" style="" fill="#ffffff" data-original="#f85647" class=""></path><path d="M271.031 349.821v10.28c0 8.21 9.77 12.75 16.3 7.57l28.39-22.52c13.528-10.701 31.726 12.344 18.21 23.06l-34.12 27.06c-16.92 13.41-22.31 36.34-13.08 55.61l8.86 18.52c-.5.13-1 .25-1.51.37-66.4-8.46-77.2-108.23-77.2-108.23l7.73 6.13c6.53 5.18 16.3.64 16.3-7.57v-10.28c0-2.93-1.34-5.7-3.66-7.56l-36.01-28.78c-22.21-24.05-9.7-44.17-9.7-44.17 1.66.44 3.25 1.22 4.68 2.36l28.36 22.67c6.52 5.22 16.33.69 16.33-7.55v-11.73c0-2.96-1.37-5.76-3.73-7.6l-51.84-40.73c-9.97-12.49-2.88-29.96-2.88-29.96 4.32-2.19 9.71-1.82 13.76 1.36l28.42 22.33c6.54 5.14 16.27.59 16.27-7.6v-2.47c0-8.36 7.14-15.09 15.79-14.7 8.1.38 14.33 7.19 14.33 15.11v2.06c0 8.19 9.73 12.74 16.27 7.6l28.42-22.33c13.52-10.621 31.73 12.219 18.21 22.84l-59.17 46.49a9.636 9.636 0 0 0-3.73 7.6v11.73c0 8.24 9.81 12.77 16.33 7.55l28.36-22.67c13.522-10.794 31.721 12.441 18.21 23.25l-59.24 47.34c-2.32 1.86-3.66 4.63-3.66 7.56z" style="" fill="#ffffff" data-original="#f85647" class=""></path><path d="m175.911 203.101 2.31-2.89c1.19-1.49 2.64-2.64 4.24-3.44.77 9.93 1.72 19.94 2.88 29.96l-7.33-5.76c-5.55-4.36-6.49-12.36-2.1-17.87zM191.541 269.311c2.67 14.92 5.88 29.71 9.7 44.17l-23.23-18.56c-12.02-9.616.896-28.974 13.53-25.61zM294.081 469.771a161.073 161.073 0 0 1-38.11 4.55c-13.71 0-27.02-1.72-39.62-4.92l8.86-18.52c9.23-19.27 3.84-42.2-13.08-55.61l-34.12-27.06c-13.516-10.716 4.682-33.761 18.21-23.06l20.66 16.39c17.32 43.79 42.12 81.97 77.2 108.23z" style="" fill="#ffffff" data-original="#e83826" class=""></path><ellipse cx="175.943" cy="149.282" rx="23.515" ry="29.529" style="" transform="rotate(-89.874 175.944 149.281)" fill="#ffffff" data-original="#ffffff" class=""></ellipse><ellipse cx="335.999" cy="149.632" rx="23.515" ry="29.529" style="" transform="rotate(-89.874 336 149.63)" fill="#ffffff" data-original="#ffffff" class=""></ellipse><path d="M116.533 50.284C156.29 23.28 204.287 7.5 255.971 7.5c137.227 0 248.471 111.244 248.471 248.471s-111.245 248.47-248.471 248.47S7.5 393.197 7.5 255.971c0-73.447 31.867-139.451 82.53-184.939" style="stroke-width:15;stroke-linecap:round;stroke-linejoin:round;stroke-miterlimit:10;" fill="none" stroke="#000000" stroke-width="15" stroke-linecap="round" stroke-linejoin="round" stroke-miterlimit="10" data-original="#000000" class=""></path><path d="M406.381 166.601c4.24 2.72 7.31 6.6 8.49 11.04 18.96-4.375 35.734 10.7 28.93 25.42 7.98 3.13 13.47 9.75 13.47 17.41 0 5.05-1.17 9.64-5.08 13.09.013.133 0 102.955 0 103.08 0 39.707-33.785 68.269-72.53 75.38M132.281 412.021c-39.544-7.258-72.53-36.322-72.53-75.38 0-.117-.013-102.947 0-103.08-3.91-3.45-5.08-8.04-5.08-13.09 0-7.66 5.49-14.28 13.47-17.41-.98-2.12-1.51-4.4-1.51-6.79 0-13.168 15.625-22.049 30.44-18.63 1.18-4.44 4.25-8.32 8.49-11.04" style="stroke-width:15;stroke-linecap:round;stroke-linejoin:round;stroke-miterlimit:10;" fill="none" stroke="#000000" stroke-width="15" stroke-linecap="round" stroke-linejoin="round" stroke-miterlimit="10" data-original="#000000" class=""></path><path d="M399.03 293.481v56.06c0 54.83-41.01 101.4-97.19 118.14-93.32 27.632-188.93-33.87-188.93-118.14 0-.105-.009-165.969 0-166.07-5.79-5.55-7.53-12.95-7.53-21.08 0-12.34 8.14-23.01 19.95-28.06a27.952 27.952 0 0 1-2.23-10.93c0-20.879 22.731-35.628 45.09-30.02 5.061-20.611 31.425-30.778 52.02-20.56l.6-.14c-2.64-18.469 13.705-35.06 35.16-35.06 21.551 0 37.788 16.673 35.16 35.06l.6.14c20.506-10.173 46.935-.147 52.02 20.56 22.418-5.623 45.09 9.195 45.09 30.02 0 3.85-.79 7.52-2.23 10.93 11.81 5.05 19.95 15.72 19.95 28.06 0 8.13-1.74 15.53-7.53 21.08.3 3.34 0 6.71 0 10.11v69.782" style="stroke-width:15;stroke-linecap:round;stroke-linejoin:round;stroke-miterlimit:10;" fill="none" stroke="#000000" stroke-width="15" stroke-linecap="round" stroke-linejoin="round" stroke-miterlimit="10" data-original="#000000" class=""></path><path d="M271.03 349.821v10.28c0 8.21 9.77 12.75 16.3 7.57l28.39-22.52c5.55-4.39 13.61-3.45 18 2.11l2.31 2.91c4.39 5.56 3.45 13.64-2.1 18.04l-34.12 27.06c-16.92 13.41-22.31 36.34-13.08 55.61l8.86 18.52c-25.057 6.364-52.646 6.754-79.24 0l8.86-18.52c9.23-19.27 3.84-42.2-13.08-55.61l-34.12-27.06c-5.55-4.4-6.49-12.48-2.1-18.04l2.31-2.91c4.39-5.56 12.45-6.5 18-2.11l28.39 22.52c6.53 5.18 16.3.64 16.3-7.57v-10.28c0-2.93-1.34-5.7-3.66-7.56l-59.24-47.34c-5.55-4.44-6.49-12.58-2.1-18.19l2.31-2.94c4.39-5.6 12.45-6.55 18-2.12l28.36 22.67c6.52 5.22 16.33.69 16.33-7.55v-11.73c0-2.96-1.37-5.76-3.73-7.6l-59.17-46.49c-5.55-4.36-6.49-12.36-2.1-17.87l2.31-2.89c4.39-5.51 12.45-6.44 18-2.08l28.42 22.33c6.54 5.14 16.27.59 16.27-7.6v-2.47c0-8.36 7.14-15.09 15.79-14.7 8.1.38 14.33 7.19 14.33 15.11v2.06c0 8.19 9.73 12.74 16.27 7.6l28.42-22.33c5.55-4.36 13.61-3.43 18 2.08l2.31 2.89c4.39 5.51 3.45 13.51-2.1 17.87l-59.17 46.49a9.636 9.636 0 0 0-3.73 7.6v11.73c0 8.24 9.81 12.77 16.33 7.55l28.36-22.67c5.55-4.43 13.61-3.48 18 2.12l2.31 2.94c4.39 5.61 3.45 13.75-2.1 18.19l-59.24 47.34c-2.32 1.86-3.66 4.63-3.66 7.56zM190.471 119.038v12M310.072 130.703c0-7.68 6.226-13.906 13.906-13.906 7.68 0 13.906 6.226 13.906 13.906" style="stroke-width:15;stroke-linecap:round;stroke-linejoin:round;stroke-miterlimit:10;" fill="none" stroke="#000000" stroke-width="15" stroke-linecap="round" stroke-linejoin="round" stroke-miterlimit="10" data-original="#000000" class=""></path><path d="M256.066 138.921c0 7.984-6.472 14.456-14.456 14.456-7.984 0-14.455-6.472-14.455-14.456M284.978 138.921c0 7.984-6.472 14.456-14.456 14.456-7.984 0-14.456-6.472-14.456-14.456" style="stroke-width:15;stroke-linecap:round;stroke-miterlimit:10;" fill="none" stroke="#000000" stroke-width="15" stroke-linecap="round" stroke-miterlimit="10" data-original="#000000" class=""></path></g></svg>