<svg id="Layer_1" enable-background="new 0 0 74 74" height="512" viewBox="0 0 74 74" width="512" xmlns="http://www.w3.org/2000/svg"><g><g><circle cx="37" cy="37" fill="#34495e" r="32"/><path d="m36.99 67c-16.54 0-30-13.46-30-30s13.46-30 30-30c16.55 0 30.02 13.46 30.02 30s-13.47 30-30.02 30z" fill="#ecf0f1"/></g><g fill="none" stroke="#34495e" stroke-linecap="round" stroke-linejoin="round" stroke-miterlimit="10"><g><path d="m61.47 32.78 1.5-1.5"/><path d="m61.47 31.28 1.5 1.5"/></g><g><path d="m33.11 63.22 1.5-1.5"/><path d="m33.11 61.72 1.5 1.5"/></g><g><path d="m10.38 31.03h2"/><path d="m11.38 30.03v2"/></g><g><path d="m36.77 16.22 1.5 1.5"/><path d="m38.27 16.22-1.5 1.5"/></g><path d="m17.14 13.88h3.34"/><path d="m58.46 56.42h2.34"/><path d="m10.94 52.98h2.34"/><path d="m52.23 12.33h2.34"/></g><g><g><ellipse cx="37" cy="39.72" fill="#57c2e2" rx="23.1" ry="18.09"/><path d="m37 51.8c-8.51 0-15.43-5.42-15.43-12.08s6.92-12.08 15.43-12.08 15.43 5.42 15.43 12.08-6.92 12.08-15.43 12.08z" fill="#478ffb"/><path d="m60.09 39.71c0 9.99-10.34 18.09-23.09 18.09-4.59 0-8.86-1.04-12.46-2.86 7.64-1.41 14.77-4.5 20.28-8.87 5.7-4.51 9.63-10.35 11.25-16.56 2.53 2.9 4.02 6.42 4.02 10.2z" opacity=".1"/><ellipse cx="37" cy="39.72" fill="none" rx="23.1" ry="18.09" stroke="#34495e" stroke-linecap="round" stroke-linejoin="round" stroke-miterlimit="10"/><path d="m51.55 35.67c-2.38-3.92-7.49-6.63-13.39-6.63-8.16 0-14.8 5.19-14.8 11.58 0 4.62 3.47 8.61 8.47 10.48-5.97-1.67-10.26-6.14-10.26-11.39 0-6.66 6.92-12.08 15.42-12.08 6.71.01 12.42 3.37 14.56 8.04z" opacity=".1"/><path d="m37 51.8c-8.51 0-15.43-5.42-15.43-12.08s6.92-12.08 15.43-12.08 15.43 5.42 15.43 12.08-6.92 12.08-15.43 12.08z" fill="none" stroke="#34495e" stroke-linecap="round" stroke-linejoin="round" stroke-miterlimit="10"/></g><g><path d="m39.86 21.92c5.32 4.68 10.96 9 16.86 12.93 1.2.8 1.89 2.19 1.71 3.62-.41 3.21-2.25 4.89-5.49 5.07-.83.05-1.66-.2-2.35-.66-6.82-4.59-13.44-9.48-19.84-14.63-1.42-1.14-1.89-3.17-.99-4.76 1.64-2.9 4.45-3.94 8.96-2.26.42.15.81.4 1.14.69z" fill="#fff"/><path d="m58.43 38.47c-.41 3.21-2.25 4.89-5.49 5.07-.83.05-1.66-.2-2.35-.66-6.82-4.59-13.44-9.48-19.84-14.63-1.37-1.11-1.86-3.04-1.07-4.59 1.8 1.56 3.28 3.46 5.4 4.59 4.65 2.49 7.25 6.85 12.01 8.01 3.6.87 7.39.94 11.02.21.29.62.41 1.31.32 2z" opacity=".1"/><g fill="none" stroke="#34495e" stroke-linecap="round" stroke-linejoin="round" stroke-miterlimit="10"><path d="m39.86 21.92c5.32 4.68 10.96 9 16.86 12.93 1.2.8 1.89 2.19 1.71 3.62-.41 3.21-2.25 4.89-5.49 5.07-.83.05-1.66-.2-2.35-.66-6.82-4.59-13.44-9.48-19.84-14.63-1.42-1.14-1.89-3.17-.99-4.76 1.64-2.9 4.45-3.94 8.96-2.26.42.15.81.4 1.14.69z"/><path d="m31.88 21.3c-.72.81-.62 2.2-.05 3.14s1.48 1.55 2.36 2.13c1.37.89 2.74 1.78 4.11 2.67.57.37 1.15.75 1.69 1.17 1.57 1.23 2.85 2.86 4.3 4.26s3.18 2.61 5.1 2.72"/><path d="m54 38.51c.79-.2 1.65-.08 2.35.33s1.23 1.11 1.44 1.89"/><path d="m54.65 36.25c-.68-.06-1.39-.12-2.01.2-.93.48-1.42 1.78-1.2 2.89.21 1.12 1.04 2.01 2 2.35"/></g></g><g><path d="m32.54 28.36c5.32 4.68 10.96 9 16.86 12.93 1.2.8 1.89 2.19 1.71 3.62-.41 3.21-2.25 4.89-5.49 5.07-.83.05-1.66-.2-2.35-.66-6.82-4.59-13.44-9.48-19.84-14.63-1.42-1.14-1.89-3.17-.99-4.76 1.64-2.9 4.45-3.94 8.96-2.26.42.15.81.4 1.14.69z" fill="#fff"/><path d="m51.11 44.9c-.41 3.21-2.25 4.89-5.49 5.07-.83.05-1.66-.2-2.35-.66-6.82-4.59-13.44-9.48-19.84-14.63-1.37-1.11-1.86-3.04-1.07-4.59 1.8 1.56 3.28 3.46 5.4 4.59 4.65 2.49 7.25 6.85 12.01 8.01 3.6.87 7.39.94 11.02.21.29.62.41 1.31.32 2z" opacity=".1"/><g fill="none" stroke="#34495e" stroke-linecap="round" stroke-linejoin="round" stroke-miterlimit="10"><path d="m32.54 28.36c5.32 4.68 10.96 9 16.86 12.93 1.2.8 1.89 2.19 1.71 3.62-.41 3.21-2.25 4.89-5.49 5.07-.83.05-1.66-.2-2.35-.66-6.82-4.59-13.44-9.48-19.84-14.63-1.42-1.14-1.89-3.17-.99-4.76 1.64-2.9 4.45-3.94 8.96-2.26.42.15.81.4 1.14.69z"/><path d="m24.56 27.74c-.72.81-.62 2.2-.05 3.14s1.48 1.55 2.36 2.13c1.37.89 2.74 1.78 4.11 2.67.57.37 1.15.75 1.69 1.17 1.57 1.23 2.85 2.86 4.3 4.26s3.18 2.61 5.1 2.72"/><path d="m46.68 44.95c.79-.2 1.65-.08 2.35.33s1.23 1.11 1.44 1.89"/><path d="m47.33 42.69c-.68-.06-1.39-.12-2.01.2-.93.48-1.42 1.78-1.2 2.89.21 1.12 1.04 2.01 2 2.35"/></g></g><g><path d="m33.86 44.02c0 3.85-3.57 6.99-7.99 6.99-4.41 0-7.99-3.13-7.99-6.99z" fill="#ffe200"/><path d="m33.86 44.03c0 3.85-3.57 6.98-7.99 6.98-1.39 0-2.7-.31-3.83-.85 1.55-.17 3.08-.6 4.5-1.27 1.84-.86 3.51-2.14 4.64-3.83.22-.33.41-.68.6-1.03z" opacity=".1"/><path d="m33.86 44.02c0 3.85-3.57 6.99-7.99 6.99-4.41 0-7.99-3.13-7.99-6.99z" fill="none" stroke="#34495e" stroke-linecap="round" stroke-linejoin="round" stroke-miterlimit="10"/><ellipse cx="25.87" cy="44.02" fill="#ffe200" rx="7.99" ry="4.27"/><ellipse cx="25.87" cy="44.02" fill="#ff003b" rx="5.78" ry="2.92"/><path d="m21.34 44.75c0 .57.33 1.11.89 1.54-1.3-.53-2.14-1.35-2.14-2.26 0-1.62 2.59-2.93 5.78-2.93 2.08 0 3.9.56 4.92 1.4-1-.42-2.27-.67-3.67-.67-3.19 0-5.78 1.31-5.78 2.92z" opacity=".1"/><g fill="none" stroke="#34495e" stroke-linecap="round" stroke-linejoin="round" stroke-miterlimit="10"><ellipse cx="25.87" cy="44.02" rx="7.99" ry="4.27"/><ellipse cx="25.87" cy="44.02" rx="5.78" ry="2.92"/></g></g></g></g></svg>