<?xml version="1.0" encoding="UTF-8"?>
<svg xmlns="http://www.w3.org/2000/svg" xmlns:xlink="http://www.w3.org/1999/xlink" version="1.1" id="Capa_1" x="0px" y="0px" viewBox="0 0 512.404 512.404" style="enable-background:new 0 0 512.404 512.404;" xml:space="preserve" width="512" height="512">
<g>
	<g>
		<path style="fill:#E3EDF6;" d="M239.198,52.749c-9.495,0.937-18.131,2.982-25.833,5.597l81.675,76.054l44.223-44.223&#10;&#9;&#9;&#9;C333.536,84.476,294.9,47.251,239.198,52.749z"/>
		<path style="fill:#E3EDF6;" d="M58.481,213.23c-2.615,7.702-4.66,16.338-5.597,25.833c-5.498,55.702,31.726,94.338,37.429,100.065&#10;&#9;&#9;&#9;l44.223-44.223L58.481,213.23z"/>
		<path style="fill:#C5D9EC;" d="M73.066,228.894L58.481,213.23c-2.615,7.702-4.66,16.338-5.597,25.833&#10;&#9;&#9;&#9;c-5.498,55.702,31.726,94.338,37.429,100.065l16.034-16.034C95.084,310.424,68.981,275.821,73.066,228.894z"/>
		<path style="fill:#E3EDF6;" d="M40.419,7.5H7.634v32.785c0,49.323,11.184,96.034,31.155,137.736c0,0,68.597,1.24,105.593-36.743&#10;&#9;&#9;&#9;c35.207-36.146,33.71-102.661,33.71-102.661C167.101,33.356,134.535,13.117,40.419,7.5z"/>
		<path style="fill:#C5D9EC;" d="M311.12,118.32c-19.035-24.58-40.985-46.763-65.346-66.022c-2.165,0.088-4.356,0.232-6.576,0.451&#10;&#9;&#9;&#9;c-9.495,0.937-18.131,2.982-25.833,5.597l81.675,76.054L311.12,118.32z"/>
		<path style="fill:#8AD8F6;" d="M331.779,196.01c-31.075-68.988-85.722-124.87-153.687-157.394&#10;&#9;&#9;&#9;c-1.964,14.003-9.61,55.408-44.817,91.554c-36.996,37.983-80.816,45.921-94.486,47.85&#10;&#9;&#9;&#9;c18.281,39.668,75.925,130.725,193.188,167.195c29.992,9.328,61.88,14.353,94.941,14.353h32.785v-32.785&#10;&#9;&#9;&#9;C359.703,280.187,349.721,235.922,331.779,196.01z"/>
		<g>
			<path style="fill:#54C9F3;" d="M340.122,337.364c-33.062,0-66.949-3.025-96.941-12.353&#10;&#9;&#9;&#9;&#9;C140.107,292.954,85.085,219.968,60.478,173.382c-9.572,2.734-17.236,4.01-21.689,4.638&#10;&#9;&#9;&#9;&#9;c18.281,39.668,75.925,130.725,193.188,167.195c29.992,9.328,61.88,14.353,94.941,14.353h32.785v-22.205H340.122z"/>
		</g>
		<path style="fill:#C5D9EC;" d="M61.321,173.021C41.35,131.319,30.166,84.608,30.166,35.285V7.5H7.634v32.785&#10;&#9;&#9;&#9;c0,49.323,11.184,96.034,31.155,137.736c4.711-0.665,13.006-2.045,23.366-5.121C61.873,172.941,61.581,172.984,61.321,173.021z"/>
		<path style="fill:#E3EDF6;" d="M501.664,359.037l-8.705-8.705c-34.541-34.541-90.544-34.541-125.085,0l-8.705,8.705l8.705,8.705&#10;&#9;&#9;&#9;c34.541,34.541,90.544,34.541,125.085,0L501.664,359.037z"/>
		<path style="fill:#C5D9EC;" d="M383.767,351.849l-8.281-8.281c-2.63,2.09-5.18,4.332-7.612,6.764l-8.705,8.705l8.705,8.706&#10;&#9;&#9;&#9;c34.541,34.541,90.544,34.541,125.085,0l8.706-8.706l-0.424-0.424C466.519,386.2,415.875,383.958,383.767,351.849z"/>
		<path style="fill:#E3EDF6;" d="M359.703,501.798l8.705-8.705c34.541-34.541,34.541-90.544,0-125.085l-8.705-8.705l-8.705,8.705&#10;&#9;&#9;&#9;c-34.541,34.541-34.541,90.544,0,125.085L359.703,501.798z"/>
		<path style="fill:#C5D9EC;" d="M365.551,478.539c-32.568-32.568-34.414-84.208-5.567-118.956l-0.281-0.281l-8.705,8.706&#10;&#9;&#9;&#9;c-34.541,34.541-34.541,90.544,0,125.085l8.705,8.705l8.705-8.705c1.973-1.973,3.819-4.024,5.566-6.129L365.551,478.539z"/>
		<path style="fill:#E3EDF6;" d="M188.484,217.689L188.484,217.689c-16.204,0-29.339-13.136-29.339-29.339v-29.339h29.339&#10;&#9;&#9;&#9;c16.203,0,29.339,13.136,29.339,29.339v0C217.823,204.553,204.687,217.689,188.484,217.689z"/>
		<path style="fill:#C5D9EC;" d="M191.389,195.504c-5.556,0-10.059-4.504-10.059-10.059v-26.434h-22.185v29.339&#10;&#9;&#9;&#9;c0,16.204,13.136,29.339,29.339,29.339l0,0c13.735,0,25.262-9.44,28.457-22.185H191.389z"/>
		<circle style="fill:#4B6276;" cx="75.903" cy="61.011" r="14.902"/>
	</g>
	<g>
		<path style="fill:none;stroke:#000000;stroke-width:15;stroke-miterlimit:10;" d="M331.779,196.01&#10;&#9;&#9;&#9;c17.942,39.912,27.924,84.177,27.924,130.774v32.785h-32.785c-176.336,0-319.284-142.948-319.284-319.284V7.5h32.785&#10;&#9;&#9;&#9;c123.818,0,231.175,70.48,284.139,173.51"/>
		<path style="fill:none;stroke:#000000;stroke-width:15;stroke-miterlimit:10;" d="M501.664,359.037l-8.705-8.705&#10;&#9;&#9;&#9;c-34.541-34.541-90.544-34.541-125.085,0l-8.705,8.705l8.705,8.705c34.541,34.541,90.544,34.541,125.085,0L501.664,359.037z"/>
		<path style="fill:none;stroke:#000000;stroke-width:15;stroke-miterlimit:10;" d="M391.069,451.259&#10;&#9;&#9;&#9;c-3.676,15.33-11.496,29.869-23.46,41.834l-8.705,8.705l-8.705-8.705c-34.541-34.541-34.541-90.544,0-125.085l8.705-8.705&#10;&#9;&#9;&#9;l8.705,8.705c18.66,18.66,27.24,43.584,25.738,68.004"/>
		<path style="fill:none;stroke:#000000;stroke-width:15;stroke-miterlimit:10;" d="M106.012,152.682&#10;&#9;&#9;&#9;c38.388-25.244,65.451-66.271,71.995-113.888"/>
		<path style="fill:none;stroke:#000000;stroke-width:15;stroke-miterlimit:10;" d="M39.167,177.84&#10;&#9;&#9;&#9;c18.454-2.564,35.915-8.21,51.847-16.403"/>
		<path style="fill:none;stroke:#000000;stroke-width:15;stroke-miterlimit:10;" d="M188.484,217.689L188.484,217.689&#10;&#9;&#9;&#9;c-16.204,0-29.339-13.136-29.339-29.339v-29.339h29.339c16.203,0,29.339,13.136,29.339,29.339v0&#10;&#9;&#9;&#9;C217.823,204.553,204.687,217.689,188.484,217.689z"/>
		<path style="fill:none;stroke:#000000;stroke-width:15;stroke-miterlimit:10;" d="M213.365,58.347&#10;&#9;&#9;&#9;c7.702-2.615,16.338-4.66,25.833-5.597c55.702-5.498,94.338,31.726,100.065,37.429l-44.223,44.223"/>
		<path style="fill:none;stroke:#000000;stroke-width:15;stroke-miterlimit:10;" d="M58.481,213.23&#10;&#9;&#9;&#9;c-2.615,7.702-4.66,16.338-5.597,25.833c-5.498,55.702,31.726,94.338,37.429,100.065l44.223-44.223"/>
		<circle style="fill:none;stroke:#000000;stroke-width:15;stroke-miterlimit:10;" cx="75.903" cy="61.011" r="14.902"/>
	</g>
</g>















</svg>
