<svg id="Capa_1" enable-background="new 0 0 510 510" height="512" viewBox="0 0 510 510" width="512" xmlns="http://www.w3.org/2000/svg" xmlns:xlink="http://www.w3.org/1999/xlink"><linearGradient id="lg1"><stop offset="0" stop-color="#f2f2f2"/><stop offset="1" stop-color="#fff5c6"/></linearGradient><linearGradient id="SVGID_1_" gradientTransform="matrix(.948 .32 -.32 .948 127.431 -112.532)" gradientUnits="userSpaceOnUse" x1="317.215" x2="398.044" xlink:href="#lg1" y1="326.338" y2="338.462"/><linearGradient id="lg2"><stop offset="0" stop-color="#fea613" stop-opacity="0"/><stop offset=".1832" stop-color="#fc9b19" stop-opacity=".183"/><stop offset=".5086" stop-color="#f57d28" stop-opacity=".509"/><stop offset=".9356" stop-color="#eb4c40" stop-opacity=".936"/><stop offset="1" stop-color="#e94444"/></linearGradient><linearGradient id="SVGID_00000094602305174758413810000000535890036863152026_" gradientUnits="userSpaceOnUse" x1="372.037" x2="252.037" xlink:href="#lg2" y1="383.172" y2="433.838"/><linearGradient id="SVGID_00000092415156959190760900000007462056293945075627_" gradientTransform="matrix(.948 .32 -.32 .948 127.431 -112.532)" gradientUnits="userSpaceOnUse" x1="367.193" x2="354.395" xlink:href="#lg2" y1="195.398" y2="115.243"/><linearGradient id="lg3"><stop offset="0" stop-color="#fef0ae"/><stop offset="1" stop-color="#fee45a"/></linearGradient><linearGradient id="SVGID_00000144307394509244170570000006292277313127847088_" gradientTransform="matrix(.444 .896 -.896 .444 304.041 -196.071)" gradientUnits="userSpaceOnUse" x1="279.626" x2="308.984" xlink:href="#lg3" y1="24.048" y2="81.95"/><linearGradient id="lg4"><stop offset="0" stop-color="#fea613" stop-opacity="0"/><stop offset=".1719" stop-color="#fda116" stop-opacity=".172"/><stop offset=".3966" stop-color="#f9901e" stop-opacity=".397"/><stop offset=".6505" stop-color="#f4752c" stop-opacity=".651"/><stop offset=".9241" stop-color="#ec503e" stop-opacity=".924"/><stop offset="1" stop-color="#e94444"/></linearGradient><linearGradient id="SVGID_00000001664301965688516110000001801562115245802398_" gradientTransform="matrix(.444 .896 -.896 .444 304.041 -196.071)" gradientUnits="userSpaceOnUse" x1="292.329" x2="347.377" xlink:href="#lg4" y1="33.354" y2="118.576"/><linearGradient id="SVGID_00000096054742767787495020000011761998336769929637_" gradientTransform="matrix(-.952 .306 .306 .952 306.054 -52.243)" gradientUnits="userSpaceOnUse" x1="129.301" x2="204.993" xlink:href="#lg1" y1="340.118" y2="351.472"/><linearGradient id="SVGID_00000069368893345964807710000008257492971283481518_" gradientUnits="userSpaceOnUse" x1="250.789" x2="180.789" xlink:href="#lg2" y1="326.636" y2="329.97"/><linearGradient id="SVGID_00000009552072129345233840000008994949577517271720_" gradientUnits="userSpaceOnUse" x1="248.848" x2="300.848" xlink:href="#lg2" y1="323.523" y2="362.857"/><linearGradient id="SVGID_00000156575204545352105550000010882553946452983436_" gradientTransform="matrix(-.952 .306 .306 .952 306.054 -52.243)" gradientUnits="userSpaceOnUse" x1="176.102" x2="164.118" xlink:href="#lg2" y1="217.499" y2="142.437"/><linearGradient id="SVGID_00000012464757330662957400000002983766271520362671_" gradientTransform="matrix(-.457 .89 .89 .457 130.662 -138.31)" gradientUnits="userSpaceOnUse" x1="167.413" x2="194.907" xlink:href="#lg3" y1="177.962" y2="232.185"/><linearGradient id="SVGID_00000181063835939649331370000004497330341645232278_" gradientUnits="userSpaceOnUse" x1="194.232" x2="246.232" xlink:href="#lg4" y1="136.431" y2="95.097"/><linearGradient id="SVGID_00000129922446613348099330000010023324039813331898_" gradientUnits="userSpaceOnUse" x1="219.398" x2="157.398" xlink:href="#lg4" y1="113.407" y2="135.407"/><linearGradient id="SVGID_00000072974127478823676140000010238385457096542854_" gradientTransform="matrix(-.457 .89 .89 .457 130.662 -138.31)" gradientUnits="userSpaceOnUse" x1="179.31" x2="230.859" xlink:href="#lg4" y1="186.676" y2="266.483"/><linearGradient id="SVGID_00000015330188745686207490000008376947432651603383_" gradientUnits="userSpaceOnUse" x1="296.948" x2="313.948" xlink:href="#lg2" y1="415.127" y2="522.627"/><linearGradient id="SVGID_00000021110078536790390070000005925278914128192403_" gradientUnits="userSpaceOnUse" x1="334.636" x2="268.636" xlink:href="#lg2" y1="421.552" y2="438.885"/><linearGradient id="SVGID_00000147207110392551412240000013953600902754049425_" gradientUnits="userSpaceOnUse" x1="251.842" x2="334.637" xlink:href="#lg1" y1="293.733" y2="306.152"/><linearGradient id="SVGID_00000082338560149529812010000014613876436453385362_" gradientUnits="userSpaceOnUse" x1="303.035" x2="289.926" xlink:href="#lg2" y1="159.608" y2="77.504"/><linearGradient id="SVGID_00000150087966631346630330000003908980214323273404_" gradientTransform="matrix(.707 .707 -.707 .707 140.662 -135.588)" gradientUnits="userSpaceOnUse" x1="206.164" x2="236.237" xlink:href="#lg3" y1="42.895" y2="102.206"/><linearGradient id="SVGID_00000090254909628134078960000001377406423615403192_" gradientTransform="matrix(.707 .707 -.707 .707 140.662 -135.588)" gradientUnits="userSpaceOnUse" x1="219.177" x2="275.564" xlink:href="#lg4" y1="52.427" y2="139.722"/><linearGradient id="SVGID_00000033352830916325441360000012028239090760832144_" gradientUnits="userSpaceOnUse" x1="275.419" x2="275.419" xlink:href="#lg2" y1="419" y2="544.524"/><linearGradient id="SVGID_00000152253848379674867110000004058637666452983456_" gradientTransform="matrix(.987 -.158 .158 .987 -45.443 -58.651)" gradientUnits="userSpaceOnUse" x1="140.808" x2="215.832" xlink:href="#lg1" y1="407.729" y2="418.982"/><linearGradient id="SVGID_00000072965940911034072280000012107044472037320092_" gradientTransform="matrix(.987 -.158 .158 .987 -45.443 -58.651)" gradientUnits="userSpaceOnUse" x1="187.196" x2="175.317" xlink:href="#lg2" y1="286.193" y2="211.795"/><linearGradient id="SVGID_00000059289584307420398340000003755853654039893130_" gradientTransform="matrix(.81 .586 -.586 .81 72.017 -214.769)" gradientUnits="userSpaceOnUse" x1="224.781" x2="252.031" xlink:href="#lg3" y1="219.104" y2="272.848"/><linearGradient id="SVGID_00000085951831683592198840000013819155283674453413_" gradientTransform="matrix(.81 .586 -.586 .81 72.017 -214.769)" gradientUnits="userSpaceOnUse" x1="236.572" x2="287.666" xlink:href="#lg4" y1="227.742" y2="306.843"/><linearGradient id="SVGID_00000001642782135483740970000011482952060084690611_" gradientUnits="userSpaceOnUse" x1="198.113" x2="245.613" xlink:href="#lg2" y1="424.575" y2="555.075"/><g><g><path d="m414.847 268.792c23.531-39.589 31.664-86.08 23.449-130.797-2.488-13.541-16.397-21.746-29.473-17.438-10.761 3.546-17.3 14.481-15.251 25.624 6.247 33.976.071 69.3-17.809 99.38l-76.216 128.223c-14.526 24.437-23.271 51.546-25.794 79.556-.48 5.33.91 10.348 3.597 14.456 6.034 9.227 8.594 20.301 7.996 31.31l-.141 2.588c-.225 4.143 2.772 7.93 6.906 8.279 4.278.361 7.979-2.884 8.21-7.14l.069-1.264c.631-11.627 5.499-22.477 13.146-31.257 3.057-3.51 5.058-7.975 5.504-12.914 1.923-21.259 8.564-41.834 19.59-60.382z" fill="url(#SVGID_1_)"/><path d="m342.406 301.679-42.859 72.104c-14.526 24.437-23.271 51.546-25.794 79.556-.48 5.33.91 10.348 3.597 14.456 6.034 9.227 8.594 20.301 7.996 31.31l-.141 2.588c-.225 4.143 2.772 7.93 6.906 8.279 4.278.361 7.979-2.884 8.21-7.14l.069-1.264c.631-11.627 5.499-22.477 13.146-31.257 3.057-3.51 5.058-7.975 5.504-12.914 1.923-21.259 8.564-41.834 19.59-60.382l36.949-62.162z" fill="url(#SVGID_00000094602305174758413810000000535890036863152026_)"/><path d="m408.824 120.557c-10.761 3.546-17.3 14.481-15.251 25.624 6.062 32.966.425 67.201-16.248 96.684l43.677 14.727c18.745-37.008 24.747-79.031 17.294-119.597-2.487-13.541-16.396-21.747-29.472-17.438z" fill="url(#SVGID_00000092415156959190760900000007462056293945075627_)"/><g><path d="m423.527 149.572c-26.634 13.202-62.495-4.883-80.098-40.395s-10.282-75.002 16.352-88.205 62.495 4.883 80.098 40.395 10.282 75.003-16.352 88.205z" fill="url(#SVGID_00000144307394509244170570000006292277313127847088_)"/><path d="m439.879 61.368c-10.71-21.606-28.178-36.759-46.215-42.341-8.815-2.728-18.381-.129-24.449 6.822-17.728 20.307-20.177 56.083-3.922 88.874 5.643 11.384 12.938 21.191 21.183 29.068 9.85 9.411 24.573 11.869 36.817 5.896.078-.038.156-.076.234-.115 26.634-13.202 33.955-52.692 16.352-88.204z" fill="url(#SVGID_00000001664301965688516110000001801562115245802398_)"/></g></g><g><path d="m202.077 282.5c-21.502-37.386-28.492-81.027-20.198-122.789 2.511-12.646 15.646-20.142 27.831-15.932 10.029 3.465 16.005 13.792 13.936 24.198-6.307 31.729-.998 64.889 15.339 93.295l69.641 121.088c13.273 23.077 21.097 48.579 23.083 74.84.378 4.997-.991 9.677-3.562 13.488-5.774 8.559-8.32 18.894-7.908 29.21l.097 2.425c.155 3.883-2.702 7.388-6.578 7.659-4.011.281-7.432-2.807-7.592-6.796l-.047-1.185c-.435-10.895-4.847-21.12-11.889-29.445-2.815-3.328-4.629-7.536-4.98-12.166-1.514-19.932-7.457-39.287-17.531-56.803z" fill="url(#SVGID_00000096054742767787495020000011761998336769929637_)"/><path d="m202.077 282.5c-21.502-37.386-28.492-81.027-20.198-122.789 2.511-12.646 15.646-20.142 27.831-15.932 10.029 3.465 16.005 13.792 13.936 24.198-6.307 31.729-.998 64.889 15.339 93.295l69.641 121.088c13.273 23.077 21.097 48.579 23.083 74.84.378 4.997-.991 9.677-3.562 13.488-5.774 8.559-8.32 18.894-7.908 29.21l.097 2.425c.155 3.883-2.702 7.388-6.578 7.659-4.011.281-7.432-2.807-7.592-6.796l-.047-1.185c-.435-10.895-4.847-21.12-11.889-29.445-2.815-3.328-4.629-7.536-4.98-12.166-1.514-19.932-7.457-39.287-17.531-56.803z" fill="url(#SVGID_00000069368893345964807710000008257492971283481518_)"/><path d="m265.101 392.082 17.945-54.2-44.06-76.609c-.488-.848-.964-1.7-1.432-2.556l-26.919 38.665z" fill="url(#SVGID_00000009552072129345233840000008994949577517271720_)"/><path d="m209.71 143.779c10.029 3.465 16.005 13.792 13.936 24.199-6.119 30.787-1.302 62.919 13.914 90.749l-41.096 13.202c-17.054-34.905-22.109-74.335-14.585-112.218 2.511-12.646 15.645-20.142 27.831-15.932z" fill="url(#SVGID_00000156575204545352105550000010882553946452983436_)"/><g><path d="m195.552 170.75c24.761 12.72 58.583-3.732 75.544-36.748 16.96-33.015 10.636-70.091-14.125-82.811s-58.583 3.732-75.544 36.748-10.636 70.091 14.125 82.811z" fill="url(#SVGID_00000012464757330662957400000002983766271520362671_)"/><path d="m195.552 170.75c24.761 12.72 58.583-3.732 75.544-36.748 16.96-33.015 10.636-70.091-14.125-82.811s-58.583 3.732-75.544 36.748-10.636 70.091 14.125 82.811z" fill="url(#SVGID_00000181063835939649331370000004497330341645232278_)"/><path d="m195.552 170.75c24.761 12.72 58.583-3.732 75.544-36.748 16.96-33.015 10.636-70.091-14.125-82.811s-58.583 3.732-75.544 36.748-10.636 70.091 14.125 82.811z" fill="url(#SVGID_00000129922446613348099330000010023324039813331898_)"/><path d="m181.427 87.939c10.319-20.087 26.879-34.041 43.843-39.025 8.291-2.436 17.213.126 22.802 6.717 16.327 19.253 18.139 52.785 2.478 83.271-5.437 10.584-12.4 19.668-20.226 26.933-9.35 8.68-23.169 10.783-34.553 5.026-.073-.037-.145-.074-.217-.111-24.763-12.72-31.087-49.796-14.127-82.811z" fill="url(#SVGID_00000072974127478823676140000010238385457096542854_)"/></g><path d="m264.413 390.886 41.457-13.318 2.756 4.793c13.273 23.077 21.097 48.579 23.083 74.84.378 4.997-.992 9.677-3.562 13.488-5.774 8.559-8.32 18.894-7.908 29.21l.097 2.425c.155 3.883-2.702 7.388-6.578 7.659-4.011.28-7.433-2.808-7.592-6.796l-.047-1.185c-.435-10.896-4.847-21.12-11.889-29.445-2.815-3.327-4.629-7.536-4.98-12.166-1.514-19.932-7.457-39.287-17.531-56.803z" fill="url(#SVGID_00000015330188745686207490000008376947432651603383_)"/><path d="m331.71 457.2c-1.986-26.261-9.81-51.763-23.083-74.84l-18.511-32.186-7.446 34.747c-2.44 11.385-3.501 22.917-3.228 34.391 5.422 13.104 8.734 26.944 9.807 41.079.352 4.63 2.165 8.838 4.98 12.166 7.042 8.325 11.454 18.549 11.889 29.445l.047 1.185c.159 3.989 3.581 7.076 7.592 6.796 3.876-.271 6.733-3.776 6.578-7.659l-.097-2.425c-.412-10.316 2.134-20.651 7.908-29.209 2.572-3.812 3.942-8.492 3.564-13.49z" fill="url(#SVGID_00000021110078536790390070000005925278914128192403_)"/></g><g><path d="m330.684 235.519c9.884-46.128 2.563-93.915-20.046-134.631-6.846-12.329-23.032-15.742-34.314-7.28-9.285 6.963-12.053 19.717-6.417 29.863 17.183 30.933 22.749 67.242 15.238 102.29l-32.014 149.401c-6.101 28.474-5.718 57.649 1 85.662 1.278 5.331 4.27 9.747 8.222 12.855 8.877 6.981 14.985 16.893 18.008 27.774l.711 2.558c1.138 4.095 5.285 6.79 9.413 5.775 4.271-1.05 6.801-5.41 5.632-9.617l-.347-1.25c-3.192-11.492-2.019-23.616 2.53-34.642 1.818-4.407 2.299-9.396 1.116-14.336-5.091-21.264-5.379-43.408-.747-65.02z" fill="url(#SVGID_00000147207110392551412240000013953600902754049425_)"/><path d="m276.324 93.608c-9.285 6.964-12.053 19.717-6.417 29.863 16.673 30.014 22.406 65.089 15.871 99.162h47.214c6.083-42.056-1.845-84.809-22.354-121.745-6.846-12.328-23.032-15.741-34.314-7.28z" fill="url(#SVGID_00000082338560149529812010000014613876436453385362_)"/><g><path d="m300.092 116.96c-21.531 21.531-62.258 15.713-90.966-12.995s-34.527-69.435-12.996-90.966 62.258-15.713 90.966 12.995 34.527 69.435 12.996 90.966z" fill="url(#SVGID_00000150087966631346630330000003908980214323273404_)"/><path d="m287.096 25.994c-17.466-17.466-39.38-26.458-58.714-25.973-9.449.237-17.883 5.89-21.499 14.623-10.562 25.513-1.23 61.039 25.279 87.548 9.203 9.203 19.493 16.334 30.074 21.282 12.641 5.911 27.736 3.478 37.666-6.326.063-.062.126-.125.189-.188 21.532-21.531 15.714-62.258-12.995-90.966z" fill="url(#SVGID_00000090254909628134078960000001377406423615403192_)"/></g><path d="m302.028 369.249h-47.63l-1.267 5.913c-6.101 28.474-5.718 57.649 1 85.662 1.278 5.331 4.27 9.746 8.222 12.855 8.877 6.981 14.985 16.893 18.008 27.774l.711 2.558c1.138 4.095 5.285 6.79 9.413 5.776 4.271-1.05 6.801-5.411 5.632-9.617l-.347-1.25c-3.192-11.492-2.019-23.616 2.53-34.642 1.818-4.407 2.299-9.396 1.116-14.336-5.091-21.264-5.379-43.408-.747-65.02z" fill="url(#SVGID_00000033352830916325441360000012028239090760832144_)"/></g><g><path d="m220.251 258.314c2.236-42.688-11.159-84.397-37.22-117.589-7.892-10.051-22.863-10.786-31.745-1.599-7.31 7.56-7.96 19.368-1.464 27.639 19.806 25.216 29.986 56.906 28.286 89.341l-7.244 138.262c-1.381 26.351 3.141 52.4 13.165 76.502 1.907 4.586 5.217 8.109 9.198 10.324 8.942 4.975 15.828 12.968 20.091 22.271l1.002 2.187c1.604 3.501 5.702 5.318 9.249 3.819 3.671-1.551 5.31-5.815 3.662-9.412l-.49-1.069c-4.502-9.825-5.189-20.841-2.698-31.358.996-4.204.711-8.737-1.055-12.987-7.601-18.297-11.03-38.069-9.982-58.07z" fill="url(#SVGID_00000152253848379674867110000004058637666452983456_)"/><path d="m151.286 139.126c-7.31 7.561-7.96 19.369-1.464 27.639 19.217 24.467 29.371 55.029 28.405 86.451l42.245-6.763c-.582-38.5-13.799-75.619-37.44-105.729-7.893-10.049-22.864-10.784-31.746-1.598z" fill="url(#SVGID_00000072965940911034072280000012107044472037320092_)"/><g><path d="m175.897 156.616c-16.181 22.349-53.454 22.977-83.253 1.402s-40.838-57.181-24.657-79.53 53.454-22.977 83.253-1.402 40.837 57.181 24.657 79.53z" fill="url(#SVGID_00000059289584307420398340000003755853654039893130_)"/><path d="m151.24 77.086c-18.13-13.126-39.026-18.032-56.255-14.829-8.421 1.565-15.157 7.832-17.141 16.164-5.796 24.34 7.643 54.791 35.159 74.713 9.553 6.916 19.781 11.823 29.957 14.734 12.157 3.478 25.315-.861 32.795-11.056.048-.065.095-.13.142-.195 16.18-22.35 5.141-57.957-24.657-79.531z" fill="url(#SVGID_00000085951831683592198840000013819155283674453413_)"/></g><path d="m213.767 382.073-42.616 6.822-.287 5.473c-1.381 26.351 3.141 52.4 13.165 76.502 1.907 4.586 5.217 8.109 9.198 10.324 8.942 4.975 15.828 12.968 20.091 22.271l1.002 2.187c1.604 3.501 5.702 5.318 9.249 3.819 3.671-1.551 5.31-5.815 3.662-9.412l-.49-1.068c-4.502-9.825-5.189-20.841-2.698-31.358.996-4.204.711-8.737-1.055-12.987-7.601-18.297-11.03-38.069-9.982-58.07z" fill="url(#SVGID_00000001642782135483740970000011482952060084690611_)"/></g></g></svg>