<svg id="Capa_1" enable-background="new 0 0 502 502" height="512" viewBox="0 0 502 502" width="512" xmlns="http://www.w3.org/2000/svg" xmlns:xlink="http://www.w3.org/1999/xlink"><linearGradient id="SVGID_1_" gradientUnits="userSpaceOnUse" x1="251" x2="251" y1="278.812" y2="11.079"><stop offset="0" stop-color="#bae4a7"/><stop offset="1" stop-color="#7ece5c"/></linearGradient><linearGradient id="SVGID_2_" gradientUnits="userSpaceOnUse" x1="200.327" x2="502" y1="357.054" y2="357.054"><stop offset="0" stop-color="#fbe29f"/><stop offset="1" stop-color="#f5c956"/></linearGradient><linearGradient id="SVGID_3_" gradientUnits="userSpaceOnUse" x1="0" x2="301.673" y1="357.054" y2="357.054"><stop offset="0" stop-color="#ff9db0"/><stop offset="1" stop-color="#ffb2c1"/></linearGradient><linearGradient id="SVGID_4_" gradientUnits="userSpaceOnUse" x1="150.837" x2="150.837" y1="441.049" y2="273.058"><stop offset="0" stop-color="#de543c"/><stop offset="1" stop-color="#ed9b83"/></linearGradient><g><path d="m252.119 11.083c-83.818-.608-151.956 67.155-151.956 150.833 0 .982.009 1.962.028 2.94 1.214 63.472 53.787 113.956 117.271 113.956h67.069c63.654 0 116.249-50.747 117.285-114.393.018-1.096.024-2.195.018-3.296-.422-82.224-67.491-149.443-149.715-150.04z" fill="url(#SVGID_1_)"/><path d="m201.078 200.425c-15.56-4.541-31.967-7.032-48.905-7.155l-1.335-.005c-15.469 0-30.488 1.958-44.827 5.632 5.043 15.184 13.161 28.961 23.602 40.634l43.577 6.828 28.055-8.302c5.655-1.673 10.255-5.805 12.525-11.247 4.511-10.819-1.439-23.1-12.692-26.385z" fill="#6dc847"/><path d="m352.283 223.192c-83.818-.608-151.956 67.155-151.956 150.833 0 .982.009 1.962.028 2.94 1.214 63.472 53.787 113.956 117.271 113.956h67.069c63.654 0 116.249-50.747 117.285-114.393.018-1.096.024-2.195.018-3.296-.423-82.225-67.492-149.444-149.715-150.04z" fill="url(#SVGID_2_)"/><ellipse cx="160.954" cy="164.148" fill="#ff9db0" rx="15.304" ry="12.298"/><ellipse cx="341.046" cy="164.148" fill="#ff9db0" rx="15.304" ry="12.298"/><circle cx="187.19" cy="133.802" fill="#fff" r="30.346"/><circle cx="314.81" cy="133.802" fill="#fff" r="30.346"/><g fill="#383842"><circle cx="187.19" cy="133.802" r="18.086"/><circle cx="314.81" cy="133.802" r="18.086"/></g><g><path d="m251 164.99c-5.347 0-10.694-2.022-15.056-6.067-2.025-1.877-2.144-5.041-.267-7.065 1.877-2.025 5.041-2.146 7.066-.267 4.861 4.506 11.652 4.506 16.513 0 2.025-1.879 5.189-1.759 7.066.267 1.878 2.024 1.758 5.188-.267 7.065-4.361 4.044-9.708 6.067-15.055 6.067z" fill="#383842"/></g><path d="m151.956 223.192c-83.818-.608-151.956 67.155-151.956 150.832 0 .982.009 1.962.028 2.94 1.214 63.472 53.787 113.956 117.271 113.956h67.069c63.654 0 116.249-50.747 117.285-114.393.018-1.096.024-2.195.018-3.296-.423-82.224-67.492-149.443-149.715-150.039z" fill="url(#SVGID_3_)"/><g><path d="m322.559 77.354c-2.206-1.794-4.514-3.539-6.856-5.186-4.506-3.169-5.59-9.39-2.421-13.896 3.168-4.506 9.39-5.591 13.896-2.422 2.72 1.913 5.4 3.94 7.965 6.024 4.274 3.474 4.923 9.756 1.448 14.031-3.469 4.269-9.75 4.93-14.032 1.449z" fill="#bae4a7"/></g><g><path d="m289.419 58.143c-8.14-3.113-16.479-5.242-24.784-6.329-5.462-.715-9.311-5.723-8.595-11.185.715-5.462 5.721-9.309 11.184-8.595 9.856 1.291 19.72 3.806 29.32 7.477 5.146 1.968 7.721 7.733 5.755 12.879-1.974 5.159-7.748 7.715-12.88 5.753z" fill="#bae4a7"/></g><g><path d="m447.729 320.478c-3.1-5.579-6.677-10.973-10.632-16.03-3.394-4.339-2.627-10.607 1.712-14.001 4.339-3.395 10.608-2.627 14.001 1.712 4.595 5.874 8.752 12.142 12.356 18.629 2.676 4.816.941 10.888-3.874 13.564-4.815 2.674-10.886.942-13.563-3.874z" fill="#fff7e5"/></g><g><path d="m415.443 283.786c-2.475-1.775-5.057-3.471-7.675-5.039-4.725-2.832-6.26-8.958-3.429-13.683 2.833-4.724 8.956-6.261 13.683-3.428 3.085 1.848 6.128 3.847 9.045 5.939 4.477 3.209 5.503 9.441 2.293 13.917-3.219 4.491-9.454 5.495-13.917 2.294z" fill="#fff7e5"/></g><path d="m117.299 441.049c-36.484 0-66.724-29.176-67.41-65.039-.013-.669-.019-1.328-.019-1.986 0-55.672 45.293-100.966 100.966-100.966l.757.003c54.971.399 99.924 45.45 100.207 100.427.004.757 0 1.501-.012 2.244-.586 36.008-30.832 65.317-67.421 65.317z" fill="url(#SVGID_4_)"/></g></svg>