<svg id="color_Line" height="512" viewBox="0 0 256 256" width="512" xmlns="http://www.w3.org/2000/svg" data-name="color Line"><path d="m197.9246 31.7654c26.3331 10.6233 37.556 52.97 18.534 91.4849-9.5562 19.3484-21.63 32.8173-38.4179 42.5719-8.3716 4.8642-11.8452 7.7083-18.1991 16.035-4.7424 6.2148-13.7051 16.566-21.2185 16.6287-4.5205.0334-2.52-6.1655-5.2717-6.677l-1.9734-.7961c-2.3365-1.5412-5.1973 4.3106-8.4292 1.15-5.3666-5.2588-4.6375-18.9316-3.74-26.6975 1.2028-10.4048.6751-14.863-1.9777-24.1747-5.32-18.6734-4.6672-36.75 1.8777-57.313 13.0287-40.9326 50.4948-63.6373 76.8279-53.0139z" fill="#2f8905"/><path d="m61.1728 31.7654c-26.3328 10.6233-37.556 52.9701-18.534 91.4846 9.5562 19.3484 21.63 32.8173 38.4179 42.5719 8.3716 4.8642 11.8452 7.7083 18.1991 16.035 4.7424 6.2148 13.7051 16.566 21.2185 16.6287 4.5205.0334 2.52-6.1655 5.2717-6.677l1.9734-.7961c2.3365-1.5412 5.1973 4.3106 8.4292 1.15 5.3666-5.2588 4.6375-18.9316 3.74-26.6975-1.2028-10.4048-.6751-14.863 1.9777-24.1747 5.32-18.6734 4.6672-36.75-1.8777-57.313-13.0286-40.9324-50.495-63.6373-76.8281-53.0138z" fill="#2f8905"/><path d="m137.384 228.1889c67.7008-2.7483 13.8727-85.8979 2.2017-111.1851" fill="#ceeba9"/><path d="m121.7133 228.1889c-67.7008-2.7483-13.8727-85.8979-2.2017-111.1851" fill="#ceeba9"/><path d="m128.2923 20.0355c-33.29 0-64.0656 32.6674-60.2773 72.5641 1.9034 20.0427 9.1224 39.7394 23.0967 54.0153 6.9684 7.1188 9.4975 9.1336 12.7535 18.54 2.43 7.0208 7.6345 16.882 15.7759 19.5544 4.9 1.6041 5.4439-4.4475 8.66-3.93h2.4947c3.2163-.5171 3.76 5.5345 8.66 3.93 8.1414-2.6724 13.3458-12.5336 15.7759-19.5544 3.256-9.4065 5.7851-11.4213 12.7535-18.54 13.9748-14.2758 21.1938-33.9725 23.0972-54.0149 3.7883-39.8967-26.9875-72.5641-60.2773-72.5641z" fill="#5daa36"/><path d="m146.2449 185.1784-4.8984-44.5884-8.7665-74.7215a2.9794 2.9794 0 0 0 -5.9183 0l-8.7663 74.7215-4.675 44.5886-.3669 35.4142c-.1027 9.2926 7.402 14.6775 16.6951 14.6775a16.6961 16.6961 0 0 0 16.6961-16.6961z" fill="#dbf4b8"/><path d="m223.8057 57.0068c-5.085-13.334-13.9434-23.1211-24.9453-27.56h-.001l-1.9873-.8018c-9.5183-3.84-20.6587-3.6766-31.8518.3669a58.9441 58.9441 0 0 0 -34.2156-11.4773h-2.5127a58.9432 58.9432 0 0 0 -34.2149 11.4779c-11.1926-4.0439-22.3333-4.2084-31.8525-.367l-1.9873.8018c-11.002 4.4385-19.86 14.2256-24.9453 27.56-7.682 20.145-5.7734 45.3227 5.1055 67.3501 9.7969 19.8359 22.3184 33.6992 39.4033 43.626a54.8051 54.8051 0 0 1 10.2166 7.1142c-4.7871 15.2433-6.4517 30.0488-.3455 40.61 4.3237 7.4771 12.1279 12.1943 23.2433 14.0911a15.5582 15.5582 0 0 0 1.9843 2.4587c3.5156 3.5547 8.7188 5.5127 14.6494 5.5127a19.16 19.16 0 0 0 15.397-7.7808c11.7722-1.7521 19.9984-6.5319 24.479-14.2817 6.1067-10.5616 4.4424-25.3671-.3446-40.61a54.7994 54.7994 0 0 1 10.2167-7.1143c17.085-9.9268 29.6064-23.79 39.4033-43.626 10.8788-22.0273 12.787-47.205 5.1054-67.3505zm-141.4932 106.6543c-16.1953-9.4111-28.09-22.6035-37.4326-41.5186-10.2734-20.8018-12.1113-44.4854-4.916-63.3545 4.583-12.018 12.4472-20.7919 22.1445-24.704l1.9873-.8018a34.3509 34.3509 0 0 1 12.9033-2.416 43.9961 43.9961 0 0 1 12.377 1.8614 68.3884 68.3884 0 0 0 -5.875 5.706 70.9756 70.9756 0 0 0 -17.9756 54.4023c1.498 15.77 6.8428 38.2041 23.8 55.5283l1.6475 1.6758a61.2993 61.2993 0 0 1 6.0427 6.6857c-1.9041 4.35-3.7043 8.7891-5.2815 13.23a67.4825 67.4825 0 0 0 -9.4216-6.2946zm28.4219 21.2568c-.0078.0781-.0127.1563-.0137.2344l-.3672 35.4131a17.9764 17.9764 0 0 0 .3408 3.6766c-7.94-1.9018-13.543-5.5884-16.6934-11.0369-7.1019-12.2827-1.8586-32.1 6.0725-50.9771.47 1.1025.9392 2.3282 1.4294 3.7446 1.2732 3.6786 4.2908 10.9581 9.5269 16.127zm33.0107 33.6563a14.212 14.212 0 0 1 -14.1963 14.1963c-4.585 0-8.5254-1.4307-11.0947-4.0283a10.9332 10.9332 0 0 1 -3.1006-8.123l.3662-35.2969 4.6592-44.4414 8.7666-74.7217c.02-.1689.0488-.4229.4756-.4229s.4561.2549.4756.4229l8.7646 74.7041 4.8838 44.4521zm.085-78.2754-.4509-3.8428c32.0547-6.7036 37.6892-34.9783 37.7449-35.2783a2.5 2.5 0 0 0 -4.915-.916c-.2048 1.0788-5.11 25.1055-33.4136 31.2183l-2.5455-21.6924c33.8147-10.2185 31.1243-32.6271 30.9839-33.6294a2.5 2.5 0 0 0 -4.9541.6758c.1038.8179 2.012 18.8663-26.6228 27.8987l-2.5235-21.5127c5.823-1.28 10.3359-3.8409 13.4036-7.6859a20.457 20.457 0 0 0 4.1973-14.2021 2.5 2.5 0 0 0 -4.9629.6074 15.5961 15.5961 0 0 1 -3.1846 10.5283c-2.2511 2.7941-5.623 4.7233-10.0374 5.7755l-1.4861-12.6671a5.48 5.48 0 0 0 -10.8848.001l-1.4894 12.6954c-4.4819-1.0446-7.9042-2.9818-10.1786-5.8048a15.5945 15.5945 0 0 1 -3.1844-10.5277 2.5 2.5 0 0 0 -4.9629-.6084 20.457 20.457 0 0 0 4.1973 14.2021c3.0924 3.876 7.6533 6.4466 13.5448 7.7162l-2.5254 21.5288c-28.7576-9.0087-26.87-27.0897-26.7636-27.9418a2.5 2.5 0 0 0 -4.9531-.6787c-.1406 1.0036-2.8395 23.473 31.1239 33.6718l-2.5433 21.6788c-28.4128-6.06-33.3452-30.1415-33.5542-31.2451a2.5 2.5 0 0 0 -4.916.9141c.0558.3 5.707 28.658 37.8865 35.3076l-.4509 3.8438-3.6606 34.9149a44.9656 44.9656 0 0 1 -5.521-10.9061c-3.1709-9.1631-5.8418-11.873-11.6943-17.8086l-1.6357-1.6631c-15.9336-16.2793-20.9727-37.5371-22.3936-52.5029a65.9651 65.9651 0 0 1 16.6951-50.5655c11.1348-12.2422 26.1123-19.2627 41.0928-19.2627h2.5127c14.9814 0 29.959 7.0215 41.0938 19.2637a65.9609 65.9609 0 0 1 16.6943 50.5645c-1.4209 14.9668-6.46 36.2246-22.3936 52.5029l-1.6367 1.6641c-5.8506 5.9355-8.5215 8.6445-11.6924 17.8066a45.4665 45.4665 0 0 1 -5.2439 10.5162zm21.2666 72.9063c-3.2231 5.5744-9.015 9.3033-17.25 11.1642a19.116 19.116 0 0 0 .8986-5.7951v-33.3955a2.5649 2.5649 0 0 0 -.0146-.2734l-.3418-3.1118c5.0425-5.1456 7.9579-12.2157 9.2061-15.8208.49-1.4165.9592-2.6422 1.4294-3.7447 7.9309 18.8772 13.1742 38.6944 6.0723 50.9771zm49.1211-91.0625c-9.3428 18.915-21.2378 32.1074-37.4326 41.5174a67.5094 67.5094 0 0 0 -9.4215 6.296c-1.5773-4.4414-3.3776-8.88-5.2816-13.2305a61.3052 61.3052 0 0 1 6.041-6.6846l1.6484-1.6768c16.957-17.3232 22.3018-39.7578 23.8-55.5283a70.9757 70.9757 0 0 0 -17.9736-54.4014 68.3725 68.3725 0 0 0 -5.868-5.7c8.9865-2.6365 17.7488-2.4871 25.2723.5477l1.9883.8018h-.001c9.6973 3.9121 17.5615 12.6855 22.1445 24.7041 7.1951 18.8692 5.3572 42.5528-4.9162 63.3546z"/></svg>