<svg id="Layer_23" enable-background="new 0 0 64 64" height="512" viewBox="0 0 64 64" width="512" xmlns="http://www.w3.org/2000/svg"><g><path d="m62.124 44.041c0 9.941-8.059 18-18 18s-18-8.059-18-18z" fill="#893b1b"/><path d="m29.241 44.041c.996 8.999 8.618 16 17.883 16 3.054 0 5.928-.766 8.447-2.109 4.002-3.301 6.553-8.298 6.553-13.891z" fill="#a44b2f"/><path d="m38.124 44.041c0 9.941-8.059 18-18 18s-18-8.059-18-18z" fill="#a44b2f"/><path d="m5.241 44.041c.996 8.999 8.618 16 17.883 16 3.054 0 5.928-.766 8.447-2.109 4.002-3.301 6.553-8.298 6.553-13.891z" fill="#c7644a"/><path d="m50.124 21.041c0 9.941-8.059 18-18 18s-18-8.059-18-18z" fill="#672a0d"/><path d="m17.241 21.041c.996 8.999 8.618 16 17.883 16 3.054 0 5.928-.766 8.447-2.109 4.002-3.301 6.553-8.298 6.553-13.891z" fill="#893b1b"/><path d="m16.124 21.041 1.488-2.975c.314-.628.956-1.025 1.658-1.025 1.024 0 1.854-.83 1.854-1.854v-.56c0-.972.549-1.86 1.418-2.295.382-.191.71-.474.955-.824l5.762-8.231c.542-.775 1.428-1.236 2.374-1.236.936 0 1.814.452 2.358 1.213l3.563 4.989c.358.501.935.798 1.55.798.637 0 1.232.318 1.585.848l.725 1.088c.443.665 1.189 1.064 1.987 1.064 1.028 0 1.941.658 2.266 1.633l2.456 7.367" fill="#e7b532"/><path d="m60.124 44.041c0-1.894-.87-3.683-2.359-4.853l-10.429-8.194c-.785-.617-1.755-.952-2.753-.952-.948 0-1.871.302-2.635.863l-11.404 8.363c-1.521 1.115-2.419 2.888-2.419 4.774" fill="#3d8738"/><path d="m57.765 39.188-10.429-8.194c-.785-.617-1.755-.952-2.753-.952-.948 0-1.871.302-2.635.863l-7.732 5.67c.692 2.548 3.016 4.425 5.784 4.425h19.312c-.391-.69-.908-1.31-1.547-1.812z" fill="#4fa04b"/><path d="m36.124 44.041-1.488-2.975c-.314-.628-.956-1.025-1.658-1.025-1.024 0-1.854-.83-1.854-1.854v-.56c0-.972-.549-1.86-1.418-2.295-.382-.191-.71-.474-.955-.824l-5.762-8.231c-.542-.775-1.428-1.236-2.374-1.236-.936 0-1.814.452-2.358 1.213l-3.563 4.989c-.358.501-.935.798-1.55.798-.637 0-1.232.318-1.585.848l-.725 1.088c-.443.665-1.189 1.064-1.987 1.064-1.028 0-1.941.658-2.266 1.633l-2.456 7.367" fill="#c53330"/><path d="m45.668 13.674c-.325-.975-1.238-1.633-2.266-1.633-.799 0-1.544-.399-1.987-1.064l-.725-1.088c-.353-.53-.948-.848-1.585-.848-.615 0-1.193-.297-1.55-.798l-3.563-4.989c-.544-.762-1.422-1.214-2.358-1.214-.946 0-1.832.461-2.374 1.236l-5.762 8.231c-.138.198-.309.367-.496.518.013 3.303 2.693 5.975 5.998 5.975h18.11z" fill="#f9cb66"/><path d="m32.978 40.041c-1.024 0-1.854-.83-1.854-1.854v-.56c0-.972-.549-1.86-1.418-2.295-.382-.191-.71-.474-.955-.824l-5.762-8.231c-.542-.775-1.428-1.236-2.374-1.236-.936 0-1.814.452-2.358 1.214l-3.563 4.989c-.358.501-.935.798-1.55.798-.637 0-1.232.318-1.585.848l-.725 1.088c-.215.323-.504.58-.833.762v.26c0 3.314 2.686 6 6 6h18.591c-.327-.586-.939-.959-1.614-.959z" fill="#dd4946"/><path d="m62 43h-1.077c-.253-1.826-1.188-3.481-2.665-4.64l-9.873-7.758c1.707-2.906 2.615-6.203 2.615-9.602 0-.553-.447-1-1-1h-1.28l-2.227-6.683c-.461-1.385-1.753-2.317-3.215-2.317-.465 0-.896-.231-1.155-.618l-.726-1.088c-.54-.811-1.443-1.294-2.417-1.294-.292 0-.567-.142-.737-.379l-3.562-4.988c-.73-1.023-1.916-1.633-3.172-1.633-1.271 0-2.466.622-3.193 1.663l-5.762 8.23c-.148.213-.351.387-.583.503-1.216.608-1.971 1.831-1.971 3.19v.56c0 .47-.384.854-.854.854-1.088 0-2.065.604-2.553 1.578l-1.211 2.422h-1.382c-.553 0-1 .447-1 1 0 2.849.619 5.576 1.827 8.122l-1.07 1.498c-.17.238-.445.38-.737.38-.974 0-1.877.483-2.417 1.294l-.726 1.087c-.259.388-.69.619-1.155.619-1.462 0-2.754.932-3.214 2.316l-2.228 6.684h-1.28c-.553 0-1 .447-1 1 0 10.477 8.523 19 19 19 4.551 0 8.73-1.611 12.006-4.289 3.384 2.761 7.603 4.289 11.994 4.289 10.477 0 19-8.523 19-19 0-.553-.447-1-1-1zm-3.103 0h-20.897-1.382l-1.211-2.422c-.487-.974-1.465-1.578-2.553-1.578-.12 0-.234-.026-.338-.071l9.898-7.26c1.221-.894 2.993-.863 4.18.069l10.43 8.194c.988.777 1.638 1.862 1.873 3.068zm-40.515-24.527c.145-.292.438-.473.764-.473 1.574 0 2.854-1.28 2.854-2.854v-.56c0-.597.331-1.134.866-1.401.529-.265.988-.661 1.326-1.145l5.762-8.23c.355-.507.936-.81 1.555-.81.611 0 1.189.297 1.545.795l3.562 4.989c.545.762 1.429 1.216 2.364 1.216.303 0 .585.15.753.403l.726 1.089c.631.945 1.685 1.508 2.819 1.508.599 0 1.128.381 1.317.949l2.018 6.051h-28.995zm-3.354 3.527h33.942c-.154 2.657-.929 5.222-2.261 7.517-1.76-.776-3.908-.612-5.479.539l-9.309 6.827c-.212-1.067-.893-1.986-1.893-2.485-.233-.117-.436-.291-.584-.504l-5.762-8.23c-.725-1.042-1.919-1.664-3.191-1.664-1.256 0-2.442.61-3.172 1.633l-1.139 1.595c-.66-1.669-1.049-3.418-1.152-5.228zm-7.623 14.948c.189-.567.718-.948 1.317-.948 1.135 0 2.188-.563 2.819-1.509l.726-1.088c.168-.253.45-.403.753-.403.936 0 1.819-.454 2.364-1.217l3.562-4.988c.356-.498.934-.795 1.545-.795.619 0 1.2.303 1.555.81l5.762 8.23c.338.483.797.88 1.327 1.146.534.267.865.804.865 1.4v.56c0 1.574 1.28 2.854 2.854 2.854.325 0 .618.181.764.473l.764 1.527h-28.995zm-4.376 8.052h33.941c-.519 8.91-7.932 16-16.97 16s-16.451-7.09-16.971-16zm40.971 16c-3.829 0-7.512-1.297-10.5-3.649 3.176-3.211 5.198-7.549 5.45-12.351h22.021c-.52 8.91-7.933 16-16.971 16z"/></g></svg>