<svg id="Capa_2" height="512" viewBox="0 0 425.2 425.2" width="512" xmlns="http://www.w3.org/2000/svg"><g><path d="m345.775 416.557c-.188 0-.376-.008-.565-.021-20.78-1.535-36.967-7.963-48.109-19.107-19.063-19.063-21.271-47.967-20.126-67.463-35.307-3.731-122.928-19.085-184.92-81.078-46.198-46.198-67.025-103.643-76.363-143.7-8.538-36.624-11.698-82.207-1.915-91.985 1.593-1.592 4.558-4.561 24.535-4.561 47.656 0 145.757 17.448 211.147 82.842 63.646 63.645 78.619 150.646 82.106 185.726 2.859-.163 5.688-.246 8.459-.246 25.123 0 45.17 6.766 57.973 19.568 11.369 11.364 17.928 27.783 19.496 48.8.166 2.227-.646 4.416-2.223 5.997-1.446 1.449-3.406 2.257-5.439 2.257-.183 0-.365-.006-.55-.02-15.664-1.127-38.102-6.881-56.129-11.505-5.157-1.323-10.701-2.744-14.992-3.745 1.191 5.844 3.343 14.249 5.197 21.493 4.207 16.434 8.975 35.06 10.074 48.436.184 2.237-.621 4.444-2.202 6.038-1.446 1.46-3.413 2.274-5.454 2.274z" fill="#ee7531"/><path d="m38.313 16.325c41.246.002 139.492 14.366 205.715 80.591 58.557 58.555 77.221 141.422 80.536 188.574 4.898-.522 10.117-.844 15.462-.844 18.838 0 39.219 3.999 52.541 17.319 11.363 11.358 16.059 27.741 17.266 43.938-24.926-1.793-70.702-16.591-78.622-16.59-.563 0-.935.075-1.094.234-3.815 3.814 13.533 53.457 15.659 79.326-16.012-1.183-32.115-5.75-43.241-16.878-17.61-17.61-19.745-46.753-17.259-68.979-47.351-3.703-129.92-21.694-187.789-79.563-83.7-83.698-88.376-214.723-78.277-224.816 1.31-1.312 8.218-2.312 19.103-2.312m0-15.365c-19.37 0-25.657 2.499-29.971 6.814-2.671 2.671-8.943 8.938-8.294 38.812.392 18.016 3.291 39.447 8.161 60.345 9.566 41.033 30.935 99.91 78.412 147.389 27.346 27.344 62.163 48.77 103.489 63.682 30.813 11.119 59.295 16.344 78.947 18.799-.201 20.447 3.831 47.281 22.611 66.062 12.482 12.482 30.306 19.662 52.976 21.336.378.028.756.042 1.133.042 4.08 0 8.013-1.626 10.908-4.546 3.162-3.189 4.772-7.603 4.404-12.079-1.152-14.021-6.007-32.98-10.289-49.71-.727-2.839-1.533-5.991-2.31-9.106.934.238 1.858.476 2.759.705 18.324 4.701 41.129 10.55 57.479 11.727.369.025.737.039 1.104.039 4.066 0 7.984-1.614 10.877-4.515 3.154-3.162 4.776-7.54 4.444-11.994-1.709-22.903-9.018-40.958-21.727-53.661-14.273-14.272-36.198-21.817-63.403-21.817-.535 0-1.072.003-1.611.009-4.85-39.579-22.15-121.869-83.521-183.239-30.791-30.794-70.663-53.987-118.505-68.932-47.997-14.994-87.2-16.16-98.073-16.162z"/><path d="m330.116 329.548c2.402-2.404 53.02 14.435 79.716 16.355-1.207-16.196-5.902-32.579-17.266-43.938-17.102-17.101-45.833-18.838-68.003-16.476-1.19-16.995-4.398-38.639-10.733-62.101-62.499 48.506-154.965 44.229-212.116-12.922-51.101-51.099-59.925-130.421-26.567-191.328-31.187-4.301-53.479-2.965-55.938-.501-10.098 10.093-5.422 141.118 78.277 224.817 57.869 57.869 140.438 75.86 187.789 79.563-2.486 22.226-.352 51.368 17.259 68.979 11.126 11.128 27.229 15.695 43.241 16.878-2.126-25.869-19.474-75.512-15.659-79.326z" fill="#d03a26"/><path d="m79.038 52.74c-14.188 14.19-14.19 37.2-.003 51.388 14.193 14.188 37.203 14.188 51.391 0 14.186-14.188 14.186-37.194-.003-51.388-14.188-14.187-37.194-14.186-51.385 0z"/><path d="m110.801 74.163c-6.811 2.018-13.972-1.856-15.994-8.664-2.02-6.818 1.86-13.976 8.669-15.999 6.811-2.021 13.974 1.861 15.99 8.672 2.027 6.809-1.852 13.97-8.665 15.991z" fill="#fff"/><path d="m113.318 82.657c4.332-1.284 8.885 1.184 10.174 5.508 1.282 4.335-1.182 8.882-5.507 10.171-1.295.384-2.6.426-3.837.195-2.917-.551-5.435-2.659-6.338-5.702-.091-.305-.156-.62-.211-.928-.707-4.033 1.703-8.051 5.719-9.244z" fill="#fff"/><path d="m173.535 128.229-29.089 29.085c-3.001 3.001-3.001 7.866 0 10.865 3 3.001 7.864 3.001 10.864 0l29.089-29.087c3.001-3 3.001-7.864 0-10.863-3-3.001-7.864-3.001-10.864 0"/><path d="m202.9 157.593-29.089 29.086c-3.001 3.001-3.001 7.864-.002 10.865 3.001 3.001 7.864 3.001 10.865 0l29.089-29.086c3.001-3 3.001-7.864 0-10.864-2.998-3.001-7.864-3.001-10.863-.001"/><path d="m232.263 186.956-29.089 29.086c-3 3.001-3 7.865 0 10.865 3.001 3.001 7.865 3.001 10.865 0l29.089-29.088c3.001-2.999 3.001-7.864 0-10.863-3-3.001-7.864-3.001-10.865 0"/></g></svg>