<svg id="Layer_1" enable-background="new 0 0 426.585 426.585" height="512" viewBox="0 0 426.585 426.585" width="512" xmlns="http://www.w3.org/2000/svg"><path id="XMLID_259_" d="m270.58 426.09h-114.575c-6.333 0-11.466-5.134-11.466-11.466v-210.148l14.714-15h108.08l14.714 15v210.148c0 6.333-5.134 11.466-11.467 11.466z" fill="#eba68f"/><path id="XMLID_1342_" d="m237.292 62.256v-29.671h-48v30h-.701l-54.284 39.761 25 89.239h107.508l24.765-89.489z" fill="#ed927b"/><path id="XMLID_34_" d="m281.209 139.572c-20.625 4.334-49.69 7.874-67.717-.988-19.792-9.73-52.254-11.77-72.438-12.013l17.664 63.448-14.426 14.455v210.148c0 6.333 5.38 11.961 11.712 11.961h114.576c6.333 0 11.712-5.628 11.712-11.961v-210.146l-14.904-14.948z" fill="#996250"/><path id="XMLID_606_" d="m183.312 0h59.961v47.392h-59.961z" fill="#e8ded9"/><path id="XMLID_605_" d="m183.312 0h59.961v20.153h-59.961z" fill="#faf2ed"/><path id="XMLID_604_" d="m223.07 27.73h-19.554c-3.51 0-6.355-2.845-6.355-6.355v-1.222h32.265v1.222c-.001 3.509-2.846 6.355-6.356 6.355z" fill="#aea7a3"/><path id="XMLID_1115_" d="m144.075 256.364h137.971v136.167h-137.971z" fill="#faf2ed"/><path id="XMLID_1363_" d="m144.292 267.585h138v3h-138z" fill="#595975"/><path id="XMLID_1362_" d="m144.292 381.585h138v3h-138z" fill="#595975"/><circle id="XMLID_527_" cx="213.292" cy="324.447" fill="#ffde80" r="41.074"/><path id="XMLID_1067_" d="m264.292 306.888-21.253 12.27c-10.106-8.865-23.33-14.259-37.829-14.259-17.2 0-32.624 7.57-43.151 19.548 10.527 11.978 25.951 19.548 43.151 19.548 14.5 0 27.724-5.394 37.829-14.259l21.253 12.27z" fill="#606291"/><g fill="#faf2ed"><path id="XMLID_1361_" d="m144.292 405.585h138v3h-138z"/><path id="XMLID_1360_" d="m144.292 204.585h138v3h-138z"/><path id="XMLID_1350_" d="m292.292 101.585h-158v3h59.19l-34.411 84.937c-.187.463-.132.988.146 1.401.279.414.745.662 1.244.662h36.905 32.603 36.905c.499 0 .965-.248 1.244-.662.278-.413.333-.938.146-1.401l-34.411-84.937h58.439zm-95.937 87h-33.667l32.527-80.287 16.834 41.551zm3.238 0 14.075-34.741 14.075 34.741zm31.387 0-15.694-38.736 16.834-41.551 32.527 80.287zm-17.312-42.732-16.719-41.268h33.439z"/></g></svg>