<svg id="Layer_1" height="512" viewBox="0 0 512 512" width="512" xmlns="http://www.w3.org/2000/svg"><g><path d="m485.908 132.718v181.076c-22.988 0-22.988-8.716-45.973-8.716-22.986 0-22.986 8.716-45.975 8.716-22.984 0-22.984-8.716-45.973-8.716-22.984 0-22.984 8.716-45.971 8.716s-22.986-8.716-45.961-8.716c-22.986 0-22.986 8.716-45.973 8.716s-22.986-8.716-45.961-8.716v-181.065c22.975 0 22.975 8.706 45.961 8.706s22.986-8.706 45.973-8.706c22.975 0 22.975 8.706 45.961 8.706s22.986-8.706 45.971-8.706c22.988 0 22.988 8.706 45.973 8.706 22.988 0 22.988-8.706 45.975-8.706 22.985 0 22.985 8.705 45.973 8.705z" fill="#1c4721"/><path d="m485.908 320.794c-12.777 0-19.521-2.557-25.471-4.813-5.522-2.095-10.293-3.903-20.502-3.903-10.21 0-14.98 1.809-20.505 3.903-5.949 2.256-12.692 4.813-25.47 4.813-12.774 0-19.517-2.557-25.466-4.813-5.524-2.095-10.295-3.903-20.507-3.903-10.209 0-14.979 1.809-20.502 3.903-5.949 2.256-12.692 4.813-25.469 4.813s-19.521-2.558-25.47-4.813c-5.521-2.094-10.288-3.902-20.491-3.902-10.211 0-14.981 1.809-20.505 3.903-5.949 2.256-12.692 4.813-25.468 4.813-12.777 0-19.521-2.558-25.469-4.813-5.521-2.094-10.289-3.902-20.492-3.902-3.866 0-7-3.134-7-7v-181.067c0-3.866 3.134-7 7-7 12.768 0 19.508 2.553 25.454 4.806 5.523 2.092 10.294 3.899 20.507 3.899 10.212 0 14.982-1.807 20.507-3.899 5.949-2.253 12.691-4.807 25.466-4.807 12.768 0 19.507 2.553 25.454 4.806 5.523 2.092 10.294 3.899 20.507 3.899 10.212 0 14.983-1.807 20.507-3.899 5.948-2.253 12.69-4.807 25.464-4.807 12.775 0 19.519 2.554 25.468 4.807 5.523 2.092 10.294 3.899 20.505 3.899 10.213 0 14.984-1.807 20.509-3.899 5.949-2.253 12.691-4.806 25.466-4.806 12.772 0 19.515 2.553 25.463 4.806 5.525 2.092 10.296 3.899 20.51 3.899 3.866 0 7 3.134 7 7v181.076c0 1.856-.737 3.637-2.05 4.95-1.313 1.314-3.093 2.051-4.95 2.051zm-137.92-22.716c12.777 0 19.521 2.557 25.471 4.813 5.522 2.095 10.293 3.903 20.502 3.903 10.212 0 14.982-1.809 20.507-3.903 5.949-2.256 12.692-4.813 25.468-4.813 12.774 0 19.517 2.557 25.466 4.813 4.081 1.547 7.75 2.938 13.507 3.561v-167.019c-8.448-.727-13.712-2.72-18.468-4.521-5.523-2.092-10.294-3.899-20.505-3.899-10.212 0-14.982 1.807-20.507 3.899-5.949 2.253-12.692 4.807-25.468 4.807-12.772 0-19.515-2.553-25.463-4.806-5.525-2.092-10.296-3.899-20.51-3.899-10.211 0-14.981 1.807-20.505 3.899-5.949 2.253-12.691 4.807-25.466 4.807-12.776 0-19.519-2.554-25.467-4.808-5.521-2.092-10.29-3.898-20.494-3.898-10.212 0-14.983 1.807-20.507 3.899-5.949 2.253-12.691 4.807-25.466 4.807-12.776 0-19.519-2.554-25.467-4.808-4.077-1.544-7.745-2.934-13.494-3.555v167.008c8.441.728 13.702 2.723 18.457 4.526 5.522 2.095 10.292 3.903 20.504 3.903 10.21 0 14.98-1.809 20.504-3.903 5.95-2.256 12.692-4.813 25.469-4.813 12.769 0 19.509 2.557 25.456 4.813 5.523 2.095 10.293 3.903 20.505 3.903 10.211 0 14.981-1.809 20.505-3.903 5.949-2.256 12.692-4.813 25.466-4.813z"/><g><path d="m300.166 185.035c-7.073 0-11.012-2.304-13.888-3.986-2.282-1.335-3.539-2.07-6.819-2.07-3.866 0-7-3.134-7-7s3.134-7 7-7c7.073 0 11.012 2.304 13.888 3.986 2.282 1.335 3.539 2.07 6.819 2.07 3.278 0 4.535-.735 6.816-2.07 2.876-1.683 6.813-3.986 13.887-3.986 3.866 0 7 3.134 7 7s-3.134 7-7 7c-3.278 0-4.535.735-6.816 2.07-2.876 1.682-6.814 3.986-13.887 3.986z"/></g><g><path d="m395.1 260.47c-7.072 0-11.011-2.304-13.886-3.986-2.282-1.335-3.539-2.07-6.819-2.07-3.866 0-7-3.134-7-7s3.134-7 7-7c7.074 0 11.013 2.304 13.889 3.986 2.281 1.334 3.538 2.07 6.816 2.07 3.28 0 4.537-.735 6.819-2.07 2.876-1.682 6.814-3.986 13.888-3.986 3.866 0 7 3.134 7 7s-3.134 7-7 7c-3.28 0-4.537.735-6.819 2.07-2.877 1.682-6.815 3.986-13.888 3.986z"/></g><g><path d="m465.199 195.479c-3.866 0-7-3.134-7-7s3.134-7 7-7c3.281 0 4.539-.735 6.821-2.07 2.877-1.682 6.816-3.986 13.892-3.986 3.866 0 7 3.134 7 7s-3.134 7-7 7c-3.282 0-4.54.735-6.824 2.071-2.876 1.682-6.815 3.985-13.889 3.985z"/></g><path d="m347.873 206.912v181.075c-22.986 0-22.986-8.716-45.973-8.716s-22.986 8.716-45.974 8.716c-22.985 0-22.985-8.716-45.973-8.716-22.985 0-22.985 8.716-45.972 8.716s-22.986-8.716-45.961-8.716c-22.986 0-22.986 8.716-45.973 8.716s-22.986-8.716-45.961-8.716v-181.064c22.975 0 22.975 8.706 45.961 8.706s22.986-8.706 45.973-8.706c22.975 0 22.975 8.706 45.961 8.706s22.986-8.706 45.972-8.706c22.987 0 22.987 8.706 45.973 8.706 22.987 0 22.987-8.706 45.974-8.706s22.987 8.705 45.973 8.705z" fill="#24562b"/><path d="m347.873 394.987c-12.775 0-19.519-2.557-25.468-4.813-5.524-2.095-10.294-3.903-20.505-3.903s-14.98 1.809-20.505 3.903c-5.949 2.256-12.692 4.813-25.469 4.813-12.775 0-19.519-2.557-25.468-4.813-5.523-2.095-10.294-3.903-20.505-3.903-10.21 0-14.979 1.809-20.503 3.903-5.949 2.256-12.692 4.813-25.469 4.813s-19.521-2.558-25.47-4.813c-5.521-2.094-10.288-3.902-20.491-3.902-10.211 0-14.981 1.809-20.505 3.903-5.949 2.256-12.692 4.813-25.468 4.813-12.777 0-19.521-2.558-25.469-4.813-5.521-2.094-10.289-3.902-20.492-3.902-3.866 0-7-3.134-7-7v-181.066c0-3.866 3.134-7 7-7 12.768 0 19.508 2.553 25.454 4.806 5.523 2.093 10.294 3.9 20.507 3.9 10.212 0 14.982-1.807 20.507-3.899 5.949-2.253 12.691-4.807 25.466-4.807 12.768 0 19.507 2.553 25.453 4.806 5.524 2.093 10.294 3.9 20.508 3.9 10.212 0 14.983-1.807 20.508-3.899 5.948-2.253 12.69-4.807 25.464-4.807 12.775 0 19.518 2.554 25.467 4.807 5.523 2.092 10.294 3.899 20.506 3.899 10.213 0 14.983-1.807 20.508-3.899 5.949-2.253 12.691-4.807 25.466-4.807s19.517 2.554 25.466 4.807c5.523 2.092 10.295 3.899 20.507 3.899 1.856 0 3.637.737 4.95 2.05s2.05 3.093 2.05 4.95v181.075c0 3.866-3.134 6.999-7 6.999zm-137.919-22.716c12.776 0 19.52 2.557 25.469 4.813 5.523 2.095 10.294 3.903 20.504 3.903 10.211 0 14.981-1.809 20.506-3.903 5.949-2.256 12.692-4.813 25.468-4.813s19.519 2.557 25.468 4.813c4.081 1.547 7.75 2.938 13.505 3.56v-167.017c-8.446-.727-13.71-2.72-18.466-4.521-5.524-2.092-10.295-3.899-20.507-3.899s-14.982 1.807-20.507 3.899c-5.949 2.253-12.692 4.807-25.467 4.807-12.773 0-19.517-2.554-25.465-4.807-5.524-2.092-10.295-3.899-20.508-3.899-10.211 0-14.981 1.807-20.506 3.899-5.949 2.253-12.691 4.807-25.466 4.807-12.776 0-19.519-2.554-25.467-4.808-5.521-2.092-10.29-3.898-20.494-3.898-10.212 0-14.983 1.807-20.508 3.899-5.948 2.253-12.69 4.807-25.465 4.807s-19.519-2.554-25.467-4.808c-4.077-1.544-7.745-2.934-13.494-3.555v167.008c8.442.728 13.702 2.723 18.456 4.526 5.523 2.095 10.293 3.903 20.505 3.903 10.211 0 14.98-1.809 20.504-3.903 5.95-2.256 12.693-4.813 25.469-4.813 12.769 0 19.509 2.557 25.456 4.813 5.523 2.094 10.293 3.903 20.505 3.903 10.211 0 14.981-1.809 20.505-3.903 5.95-2.256 12.693-4.813 25.467-4.813z"/><g><path d="m162.131 259.229c-7.074 0-11.013-2.304-13.889-3.987-2.282-1.334-3.539-2.07-6.817-2.07-3.866 0-7-3.134-7-7s3.134-7 7-7c7.072 0 11.011 2.304 13.886 3.986 2.282 1.335 3.54 2.07 6.82 2.07 3.278 0 4.535-.735 6.817-2.07 2.875-1.682 6.813-3.986 13.887-3.986 3.866 0 7 3.134 7 7s-3.134 7-7 7c-3.279 0-4.536.735-6.817 2.07-2.876 1.683-6.814 3.987-13.887 3.987z"/></g><g><path d="m257.064 334.663c-7.073 0-11.011-2.304-13.887-3.986-2.281-1.335-3.539-2.07-6.818-2.07-3.866 0-7-3.134-7-7s3.134-7 7-7c7.074 0 11.013 2.304 13.889 3.986 2.281 1.335 3.538 2.07 6.816 2.07 3.279 0 4.537-.735 6.819-2.07 2.875-1.683 6.813-3.986 13.888-3.986 3.866 0 7 3.134 7 7s-3.134 7-7 7c-3.279 0-4.537.735-6.819 2.07-2.875 1.682-6.813 3.986-13.888 3.986z"/></g><g><path d="m133.308 334.663c-7.074 0-11.013-2.304-13.888-3.986-2.282-1.335-3.539-2.07-6.817-2.07-3.279 0-4.537.735-6.818 2.07-2.876 1.683-6.814 3.986-13.888 3.986-3.866 0-7-3.134-7-7s3.134-7 7-7c3.279 0 4.536-.735 6.818-2.07 2.875-1.683 6.813-3.986 13.888-3.986 7.073 0 11.011 2.304 13.887 3.986 2.281 1.335 3.539 2.07 6.818 2.07 3.866 0 7 3.134 7 7s-3.134 7-7 7z"/></g><g><path d="m327.164 269.674c-3.866 0-7-3.134-7-7s3.134-7 7-7c3.282 0 4.54-.736 6.824-2.071 2.876-1.682 6.814-3.985 13.889-3.985 3.866 0 7 3.134 7 7s-3.134 7-7 7c-3.281 0-4.538.735-6.821 2.07-2.877 1.682-6.817 3.986-13.892 3.986z"/></g></g></svg>