<svg height="512" viewBox="0 0 345 345" width="512" xmlns="http://www.w3.org/2000/svg"><g id="body"><path d="m198.45 58.19a15 15 0 0 1 12.08-2c3.22.84 6.66 2.72 9.6 1.42 2-.89 3-3 4.39-4.66a13.91 13.91 0 0 1 10.39-5 15.61 15.61 0 0 1 11.18 4.45 4.74 4.74 0 0 1 1.48 2.33 2.11 2.11 0 0 1 0 .55 1.11 1.11 0 0 1 -1.95.54c-2-2.18-5.47-2.42-8.42-1.93-3.47.57-6.52 1.85-7.92 6-1.07 3.15-4.42 5.1-7.46 6.57-3.59 1.73-10.85-.42-13.7 2.29-1.77 1.69-1.54 5.63-3.63 6.94-2.36 1.47-4.11 1.68-6.56.11s-5.75-4.61-5.53-7.73c.3-3.87 3-7.8 6.05-9.88z" fill="#50a052"/><path d="m279.31 288.67a118 118 0 0 1 -41.41 35 132.14 132.14 0 0 1 -19.85 8.33 138.73 138.73 0 0 1 -14.3 3.81 158.4 158.4 0 0 1 -37.42 3.19 179.63 179.63 0 0 1 -23.18-2.19l-.49-.08-1.24-.21a176.13 176.13 0 0 1 -22.42-5.24 155.62 155.62 0 0 1 -17.81-6.68 137.36 137.36 0 0 1 -18.95-10.3 125.59 125.59 0 0 1 -21.88-18.16c-26.19-27.14-40.69-65.71-38.16-103.52 3.17-47.31 32.44-91.8 74.12-114.39q3.75-2 7.61-3.82a145.32 145.32 0 0 1 35.8-11.21 158.32 158.32 0 0 1 30.27-2.34h2.07a164.92 164.92 0 0 1 26.19 2.85c2.25.43 4.49.9 6.71 1.44q5.56 1.31 11 3l.69.22c15.53 5 30 12.58 42.1 22.92a95.78 95.78 0 0 1 16.08 17.71c8.89 12.64 17.89 27.33 22.17 42.18a203.52 203.52 0 0 1 7.82 70.56c-1.66 23.77-11.49 47.62-25.52 66.93z" fill="#78e75a"/><g fill="#5ec363"><path d="m205 65.19c-.88.13-1.64.25-2.18.37-1.59.37-3.24.75-4.88 1.18-5.91 1.53-11.9 3.67-16 8.21-10.41 11.45-5 29.84-13.44 42.44-5.52 8.23-16.24 13.25-18.25 23-2.49 12 2.17 20.38-1.05 32.21-2.9 10.4-8.2 17.35-14.26 26.4-5.23 7.8-4.16 18.16-1.87 27.27s5.65 18.34 4.32 27.63-7.18 17.32-9.82 26.33c-5.6 19.12 3.78 38.85 13.85 56.37a176.13 176.13 0 0 1 -22.42-5.32c-4.95-6.13-9.84-14-11.31-21.35-2.21-11 .22-21.75.13-33-.07-9.53-9.25-21.15-8.55-30.66 1.12-15.27 12.12-28.42 13.25-43.69q1.22-16.58 2.48-33.18c.82-11.1 1.78-22.65 7.53-32.17s15.88-16.27 19.36-26.8c2.67-8.06.95-17.11 3.86-25.09 2.77-7.62 9.33-13.13 15.71-18.12 2.21-1.73 4.5-3.47 6.87-5.15.57-.41 1.15-.81 1.73-1.2h2.07a164.92 164.92 0 0 1 26.19 2.85c2.21.47 4.45.94 6.68 1.47z"/><path d="m191.91 297.41c-4.57 3.68-6.54 9.12-7.26 14.79-1.09 8.53-6.53 16-12.89 21.53a70.3 70.3 0 0 0 -5.43 5.32 179.63 179.63 0 0 1 -23.18-2.19 55.94 55.94 0 0 1 5.67-3.94c4-2.51 8.07-5.09 10.67-9 3.54-5.32 4.08-12.84 3.88-19.05-.14-4.74-2-9.73-1.38-14.43.86-6.67 5.42-11.91 9.5-16.94 5.87-7.21 5.91-15.67 3.73-24.23-2.82-11.05-1.57-20.59 6.7-29.05 7.34-7.52 16.27-13.52 13.37-25.68-1.72-7.21-7.49-13.7-7-21.39.42-7.14 7.93-10.5 12.59-14.75 7.79-7.11 8.82-18 2.09-26.41-3.49-4.36-8.07-7.57-9.63-13.22-1.8-6.5 1.8-12.9 4.41-19.25a30.46 30.46 0 0 0 2.25-7.52c.79-6.05-.34-12.39-1.43-18.32a33.1 33.1 0 0 1 -.6-6.91 16.92 16.92 0 0 1 .35-3c2.25.43 4.49.9 6.71 1.44q5.56 1.31 11 3l.69.22a59.51 59.51 0 0 1 2.09 5.69c.58 1.86 1 3.56 1.33 4.88a53.07 53.07 0 0 1 -1.14 28.14c-4.08 12.89 11.6 24.07 10 37.24-.79 6.65-4.59 12.65-8.27 17.9-3.21 4.58-6.35 8.34-6.31 14.23 0 8.11 2 15.57.85 23.79a76.49 76.49 0 0 1 -7.4 22.8c-2.51 5.11-5.69 9.87-8 15.07-6.1 13.65 5.16 24.94 5.31 39.07-1.74 9.1-6.18 14.47-13.27 20.17z"/><path d="m283.35 244.48c-4.47 7.41-14.22 10.28-15.16 20-.7 7.23.55 14.65-.55 21.75-1.81 11.65-14.85 14.48-21.33 22.54-3.6 4.49-6 9.71-8.42 14.93a132.14 132.14 0 0 1 -19.84 8.3 138.73 138.73 0 0 1 -14.3 3.81c.11-.36.22-.71.33-1.06a109.11 109.11 0 0 1 13.38-27.65c6.48-9.5 14.82-18 16-30 .69-6.85-1-13.72.27-20.56 2.52-13.33 19-14.71 24.46-26 3.3-6.85-4.66-16-6.21-22.81a35.58 35.58 0 0 1 2.67-24.13c3.38-6.61 7.53-11.26 8.24-19.08.62-6.92-1-13.89-3.73-20.24-5.23-9.52-8.63-19.61-13-29.45a64.82 64.82 0 0 0 -6.09-9.48c-6.32-8.61-15.57-20.35-21.28-31.18a62.33 62.33 0 0 1 -2.79-5.94l.69.22c15.53 5 30 12.58 42.1 22.92 7.18 15.14 13.08 29.34 16.58 33.58 5 6 10.44 12.24 12.62 19.9 1.42 5 1.58 10.11 1.62 15.24 0 5.34.52 10.89-1 16.1-1.3 4.63-4.92 8.37-6.54 12.91a44.4 44.4 0 0 0 -2.45 14.21c-.12 7.73 1.33 15.36 3 22.88 1.26 5.97 4.17 12.6.73 18.29z"/><path d="m172.08 60.91c-1.25.43-2.52.81-3.8 1.16-3.1.83-6.17 1.43-8.58 2-8.39 2.11-17 3.93-24.77 7.92-5.82 3-10.8 7.15-14.11 13.4-4.56 8.59-5.06 19.35-11.55 26.6s-21.08 14.25-21.54 25.31c-.35 8.42 5.31 14 2.42 22.8-3.37 10.23-12 17.85-18 26.45-8 11.38-1.11 24.44 1.48 36.17 5.32 24.15-13.24 45.28 4.11 68 5.39 7.07 12.05 13.06 17.78 19.86 3.3 3.9 6.27 9.33 5.68 14a137.36 137.36 0 0 1 -18.95-10.3 125.59 125.59 0 0 1 -21.88-18.16 131.33 131.33 0 0 1 -7.53-17.88c-5.66-16.87.59-32.1-3.2-49.14-2.14-9.63-9-18.65-8.45-28.79.66-11.64 9.47-22 13.37-32.61 3.42-10-.84-20.36 1-30.64 3.29-18.74 19-20.34 30.62-32a22.83 22.83 0 0 0 3.71-4.76c4.9-8.42 8.83-17.67 14.1-26a145.32 145.32 0 0 1 35.8-11.21 158.32 158.32 0 0 1 30.21-2.23c.71.01 1.39.02 2.08.05z"/></g><path d="m235.3 47.92a15.64 15.64 0 0 1 10.79 4.45 4.74 4.74 0 0 1 1.48 2.33 2.12 2.12 0 0 1 0 .55 1 1 0 0 1 -1.08.93 1.17 1.17 0 0 1 -.87-.38 7.82 7.82 0 0 0 -5.92-2.15 15.44 15.44 0 0 0 -2.5.21c-3.47.57-6.52 1.85-7.92 6-1.07 3.15-4.42 5.1-7.46 6.57-2.28 1.1-6 .64-9.21.85 1.12.33 2.24.64 3.35 1l.69.22c15.53 5 30 12.58 42.1 22.92a95.78 95.78 0 0 1 16.09 17.58c8.89 12.64 17.89 27.33 22.17 42.18a203.52 203.52 0 0 1 7.82 70.56c-1.66 23.81-11.49 47.66-25.51 67a118 118 0 0 1 -41.41 35 132.14 132.14 0 0 1 -19.86 8.26 138.75 138.75 0 0 1 -14.3 3.81 156.57 156.57 0 0 1 -32.53 3.33q-2.44 0-4.89-.07a179.65 179.65 0 0 1 -23.18-2.19l-.49-.08-1.24-.21a176.12 176.12 0 0 1 -22.42-5.31 155.63 155.63 0 0 1 -17.81-6.68 137.37 137.37 0 0 1 -18.95-10.3 125.59 125.59 0 0 1 -21.88-18.16c-26.19-27.14-40.69-65.71-38.16-103.52 3.17-47.31 32.44-91.8 74.12-114.39q3.75-2 7.61-3.82a145.32 145.32 0 0 1 35.8-11.21 157.37 157.37 0 0 1 27.42-2.36h2.86 2.07a165.59 165.59 0 0 1 22 2.11 15 15 0 0 1 4.37-4.83 14.65 14.65 0 0 1 8.23-2.46 15.23 15.23 0 0 1 3.85.49c2.44.64 5 1.86 7.37 1.86a5.45 5.45 0 0 0 2.23-.45c2-.89 3-3 4.39-4.66a13.91 13.91 0 0 1 10.39-5h.39m0-5.88h-.55a19.87 19.87 0 0 0 -14.81 7.24c-.44.55-.83 1.1-1.18 1.59s-.72 1-1 1.31a16.62 16.62 0 0 1 -3-.82c-.87-.29-1.77-.59-2.73-.84a21.11 21.11 0 0 0 -5.34-.69 20.64 20.64 0 0 0 -11.54 3.49 19.75 19.75 0 0 0 -3.71 3.33 171.92 171.92 0 0 0 -19.07-1.63h-.07c-.74 0-1.47 0-2.21 0h-2.93a163.15 163.15 0 0 0 -28.45 2.45 151.07 151.07 0 0 0 -37.25 11.67c-2.66 1.23-5.33 2.57-7.93 4a149.37 149.37 0 0 0 -53.64 49.88 145.39 145.39 0 0 0 -23.55 69.28c-2.62 39.05 12.26 79.43 39.79 108a131.66 131.66 0 0 0 22.91 19 143.77 143.77 0 0 0 19.75 10.72 162.12 162.12 0 0 0 18.48 6.94 182.57 182.57 0 0 0 23.17 5.47l1.32.22h.18l.32.05a186.07 186.07 0 0 0 23.91 2.25c1.68 0 3.38.07 5.06.07a162.76 162.76 0 0 0 33.77-3.46 145.27 145.27 0 0 0 14.9-4 138.29 138.29 0 0 0 20.73-8.65 124.28 124.28 0 0 0 43.47-36.79c15.51-21.36 25-46.23 26.62-70a209.06 209.06 0 0 0 -8-72.6c-4.91-17-15.48-33.23-23-43.93a101.92 101.92 0 0 0 -17-18.67 121.88 121.88 0 0 0 -31.72-19.39 13.76 13.76 0 0 0 3.93-5.8c.32-1 .54-1.59 3.3-2a9.52 9.52 0 0 1 1.54-.13 3.68 3.68 0 0 1 1.6.26 7.08 7.08 0 0 0 5.19 2.27 6.86 6.86 0 0 0 6.94-6.4 8 8 0 0 0 -.13-2.08 10.57 10.57 0 0 0 -3.12-5.39 21.41 21.41 0 0 0 -14.95-6.24z" fill="#42210b"/><path d="m296.82 85.57a28.78 28.78 0 0 0 -4.19 5 7.19 7.19 0 0 0 -.81 6.22c1.44 3.52 6 4.31 9.8 4.37a106.63 106.63 0 0 0 14.66-.74c4.53-.54 9.65-1.81 11.76-5.86 1.8-3.47.67-7.72-.9-11.3a52 52 0 0 0 -9.41-14.39c-4.07-4.41-10.27-6.53-12 .29a33.4 33.4 0 0 1 -8.91 16.41z" fill="#f34b58"/><path d="m55 28.86a22.79 22.79 0 0 0 .42-5.19 4.36 4.36 0 0 0 -2.46-3.85c-2.66-1-6.11 1.27-8.69 3.51a119 119 0 0 0 -9.49 9.18c-2.78 3-5.61 6.76-5.07 10.21.46 3 3.27 4.58 6.06 5.57a38 38 0 0 0 13.23 2.15c4.86-.06 10.05-2.62 7.91-7.34a23.27 23.27 0 0 1 -1.91-14.24z" fill="#f34b58"/><path d="m281.07 11.39a20 20 0 0 0 3-3.29 5.27 5.27 0 0 0 .83-4.33c-.8-2.53-3.82-3.29-6.36-3.51a68.29 68.29 0 0 0 -9.85-.13c-3.06.18-6.55.84-8.15 3.59-1.37 2.36-.81 5.39.07 8a36.8 36.8 0 0 0 5.63 10.52c2.52 3.28 6.57 5 8 .33a23.87 23.87 0 0 1 6.83-11.18z" fill="#f34b58"/></g><g id="emott"><path d="m125.19 144.16a7.37 7.37 0 0 1 -4.14-1.28 9.38 9.38 0 0 1 -3.51-4.81c-1.48-4.16-.81-8.37-.26-11.76.09-.55.14-1.26.2-2 .33-4.19.89-11.21 6.7-12.95a6.85 6.85 0 0 1 6.43 1c3.48 2.77 3.12 8.21 2.92 11.12-.3 4.43-.74 8.88-1.31 13.22-.17 1.34-.59 4.51-3.3 6.35a6.67 6.67 0 0 1 -3.73 1.11z" fill="#42210b"/><path d="m174.67 148.29a7.37 7.37 0 0 1 -4.14-1.28 9.38 9.38 0 0 1 -3.51-4.81c-1.48-4.16-.81-8.37-.26-11.76.09-.55.14-1.26.2-2 .33-4.19.89-11.21 6.7-12.95a6.84 6.84 0 0 1 6.43 1c3.48 2.77 3.12 8.21 2.92 11.12-.3 4.43-.74 8.88-1.31 13.22-.17 1.34-.59 4.51-3.3 6.35a6.67 6.67 0 0 1 -3.73 1.11z" fill="#42210b"/><path d="m204.51 167.27a6.64 6.64 0 0 1 -2.31-.41 7.19 7.19 0 0 1 -4.35-5.15c-1-3.66-.07-8.7 2-11.21a7.22 7.22 0 0 1 8.12-2.3 9 9 0 0 1 5.8 8.25 11.66 11.66 0 0 1 -2.48 7 8.71 8.71 0 0 1 -6.78 3.82z" fill="#ff81ff"/><path d="m89.05 163.15a6.64 6.64 0 0 1 -2.31-.41 7.19 7.19 0 0 1 -4.35-5.15c-1-3.66-.07-8.7 2-11.21a7.23 7.23 0 0 1 8.12-2.3 9 9 0 0 1 5.8 8.25 11.66 11.66 0 0 1 -2.48 7 8.71 8.71 0 0 1 -6.78 3.82z" fill="#ff81ff"/><path d="m169.81 162.24a124.52 124.52 0 0 0 -35.06-6.34c-3.4-.15-13 1.24-14.9 1.5a4.13 4.13 0 0 0 -3.54 4.2c.06 1.91.37 11.63 1.22 15.05a28.65 28.65 0 0 0 8.25 14.59 24 24 0 0 0 16.08 5.84 27.72 27.72 0 0 0 14.82-4.31c8.28-5.25 14.06-14.71 15.88-26a4.12 4.12 0 0 0 -2.75-4.53z" fill="#42210b"/></g></svg>