<svg id="Layer_1" height="512" viewBox="0 0 512 512" width="512" xmlns="http://www.w3.org/2000/svg" data-name="Layer 1"><path d="m347.89 130.65c16.42-33.08 36.56-61.78 47.41-76.32a.739.739 0 0 1 1.24.8c-14.51 25.82-49.05 96.89-62.93 208.73a571.564 571.564 0 0 1 -15.38 78.18 179.344 179.344 0 0 1 -20.94 6.76c14.82-49.78 24.59-104.54 26.43-140.44 6.18-14.82 9.78-31.79 11.63-49.34 3.7-9.65 7.98-19.18 12.54-28.37z" fill="#689b2d"/><path d="m363.78 43.54c2.87 13.35-2.79 17.08-7.11 18.05a13.184 13.184 0 0 1 -4.28.24c3.15-14.98-1.5-35.97-1.5-35.97a2.235 2.235 0 0 1 .73 0c2.88.47 9.05 3.22 12.16 17.68z" fill="#dbe293"/><path d="m356.67 61.59c1.35 6.22-1.89 33.82-8.78 69.06-4.56 9.19-8.84 18.72-12.54 28.37a319.807 319.807 0 0 0 1.53-38.14v-.01c5.46-26.95 12.85-60.11 12.85-60.11a27.776 27.776 0 0 0 2.66 1.07 13.184 13.184 0 0 0 4.28-.24z" fill="#9be147"/><path d="m350.89 25.86s4.65 20.99 1.5 35.97a27.776 27.776 0 0 1 -2.66-1.07c-17.48-8.26-3.98-28.98-.44-33.91a2.452 2.452 0 0 1 1.6-.99z" fill="#ebf4b8"/><path d="m319.03 140.42c8.43-51.91 7.78-89.77 6.57-108.26a.742.742 0 0 1 1.47-.19c3.49 17.74 9.24 52.14 9.81 88.9v.01a319.807 319.807 0 0 1 -1.53 38.14c-1.85 17.55-5.45 34.52-11.63 49.34-14.91 35.79-29.78 89.17-37.06 142.85-6.22 1.24-12.38 2.16-18.45 2.8a561.757 561.757 0 0 1 24.09-106.36 684.852 684.852 0 0 0 26.73-107.23z" fill="#739937"/><path d="m323.72 208.36c-1.84 35.9-11.61 90.66-26.43 140.44q-5.325 1.38-10.63 2.41c7.28-53.68 22.15-107.06 37.06-142.85z" fill="#436f1e"/><path d="m291 28.87c7.83 20.85 23.19 66.04 28.03 111.55a684.852 684.852 0 0 1 -26.73 107.23c17.65-111.31 4.06-189.5-2.72-218.35a.743.743 0 0 1 1.42-.43z" fill="#436f1e"/><path d="m313.85 357.91a537.734 537.734 0 0 1 -31.08 78.51 399.147 399.147 0 0 1 .17-45.72c3.14-8 7.21-17.46 10.03-25.9a145.085 145.085 0 0 0 20.88-6.89z" fill="#689b2d"/><path d="m282.77 436.42c1.03 17.97 3.5 34.92 7.76 49.96a3.176 3.176 0 0 1 -3.5 4.02l-15.4-2.18a3.2 3.2 0 0 1 -2.7-2.58c-.38-2.02-.97-5.4-1.6-10.01a418.137 418.137 0 0 1 -3.62-58.09c.04-14.25.69-30.3 2.38-47.83 6.32-.76 12.62-1.77 18.81-3.05-.84 8.02-1.5 16.05-1.96 24.04a399.147 399.147 0 0 0 -.17 45.72z" fill="#739937"/><path d="m292.97 364.8c-2.82 8.44-6.89 17.9-10.03 25.9.46-7.99 1.12-16.02 1.96-24.04q4.08-.84 8.07-1.86z" fill="#436f1e"/><path d="m268.29 27.22c8.6 31.79 13.17 118.63 8.97 176.2-2.47 33.76-14.68 78.96-23.88 125.64.1-23.69-.6-49.61-2.35-77.01-.08-1.2-.15-2.39-.23-3.58v-.02c16.53-105.17 20.03-191.57 16.04-220.94a.741.741 0 0 1 1.45-.29z" fill="#739937"/><path d="m267.33 475.63h-.01c-4.97-8.16-22.77-25.16-22.77-25.16.36-2.4.71-4.9 1.07-7.49l18.08-25.44h.01a418.137 418.137 0 0 0 3.62 58.09z" fill="#689b2d"/><path d="m253.38 329.06c-.04 9.02-.2 17.72-.46 26.05-6.83.27-13.47.23-19.85-.04-1.4-53.09-7.45-108.73-6.72-146.88 1.1-57.72 13.63-143.76 25.12-174.63a.738.738 0 0 1 1.41.43c-6.59 28.54-8.6 109.94-2.08 214.46v.02c.08 1.19.15 2.38.23 3.58 1.75 27.4 2.45 53.32 2.35 77.01z" fill="#436f1e"/><path d="m252.17 371.04v.02c-1.42 27.93-3.9 52.48-6.55 71.92-.36 2.59-.71 5.09-1.07 7.49-1.74 11.74-3.5 21.21-5.04 27.93a225.758 225.758 0 0 1 -13.73-24.75l.01-.01c5.96-24.54 7.96-53.74 8.08-81.8 5.97-.1 12.1-.35 18.3-.8z" fill="#436f1e"/><path d="m245.8 487.6a3.186 3.186 0 0 1 -1.89 4.99l-15.2 3.34a3.188 3.188 0 0 1 -3.42-1.48c-2.04-3.4-6.31-10.85-11.94-22.59 1.89-8.56 3.97-19.74 5.64-33.42 2.19 5.26 4.44 10.33 6.79 15.21a225.758 225.758 0 0 0 13.73 24.75q3.03 4.74 6.29 9.2z" fill="#739937"/><path d="m228.7 33.11a.741.741 0 0 1 1.37.56c-9.39 28.09-30.17 104.45-22.82 216.9a684.814 684.814 0 0 1 -16.71-108.97c9-44.87 28.44-88.46 38.16-108.49z" fill="#739937"/><path d="m222.15 371.85a470.373 470.373 0 0 1 -3.16 66.59c-1.67 13.68-3.75 24.86-5.64 33.42-1.96 8.86-3.72 14.93-4.63 18.11a3.181 3.181 0 0 1 -2.92 2.32l-15.54.75a3.183 3.183 0 0 1 -3.12-4.33c5.57-14.43 9.72-30.95 12.56-48.61a389.7 389.7 0 0 0 4.47-45.78v-.02c.31-7.65.43-15.37.35-23.07 5.51.31 11.43.54 17.63.62z" fill="#436f1e"/><path d="m207.25 250.57.06.27a590.914 590.914 0 0 1 14.37 103.5c-6.32-.54-12.28-1.27-17.8-2.1v-.01c-2.72-52.3-13.07-107.63-24.25-143.42-4.79-15.33-6.82-32.55-7.04-50.19-.62-49.58 13.05-102.46 19.91-125.77a.74.74 0 0 1 1.44.33c-2.9 18.31-7.02 55.95-3.4 108.42a684.814 684.814 0 0 0 16.71 108.97z" fill="#436f1e"/><path d="m204.52 371.23c.08 7.7-.04 15.42-.35 23.07-2.01-6.93-5.22-16.32-6.98-23.54 2.35.17 4.8.33 7.33.47z" fill="#3c5921"/><path d="m204.17 394.3v.02a389.7 389.7 0 0 1 -4.47 45.78c-2.34-6.08-4.79-12.78-7.24-19.99-3.73-10.94-7.47-23.03-10.85-35.84-1.33-5.01-2.6-10.14-3.8-15.35 5.12.61 11.73 1.29 19.38 1.84 1.76 7.22 4.97 16.61 6.98 23.54z" fill="#739937"/><path d="m203.88 352.23v.01c-3.99-.61-7.74-1.27-11.23-1.94-10.13-50.81-14.48-105.67-13.02-141.49 11.18 35.79 21.53 91.12 24.25 143.42z" fill="#3c5921"/><path d="m181.61 384.27c3.38 12.81 7.12 24.9 10.85 35.84-9.15 35.28-19.82 59.85-22.99 66.53a3.179 3.179 0 0 1 -3.26 1.8l-15.45-1.83a3.188 3.188 0 0 1 -2.37-4.79c15.36-26 26.38-61.42 33.21-97.55z" fill="#3c5921"/><path d="m179.63 208.81c-1.46 35.82 2.89 90.68 13.02 141.49-7.61-1.47-13.95-3.03-18.66-4.32-4.3-24.32-8.38-53.72-9.3-82.82-.43-13.79-1.23-27-2.32-39.61q-.87-10.125-1.99-19.73v-.01c-9.16-79.44-29.38-132.34-39.18-154.31a.742.742 0 0 1 1.31-.69c12.09 19.79 37.18 64.02 50.08 109.81.22 17.64 2.25 34.86 7.04 50.19z" fill="#739937"/><path d="m162.37 223.55h-.01c-17.43-31.38-28.08-48.48-34.41-66.3a13.158 13.158 0 0 0 4.15-1.1 24.243 24.243 0 0 0 2.82-2.46s11.96 26.19 25.46 50.12v.01q1.11 9.615 1.99 19.73z" fill="#9be147"/><path d="m124.27 121.92c4.82 3.54 23.51 18.64 10.65 31.77a24.243 24.243 0 0 1 -2.82 2.46c-12.23-18.53-10.36-34.45-10.36-34.45a2.414 2.414 0 0 1 2.53.22z" fill="#dbe293"/><path d="m132.1 156.15a13.158 13.158 0 0 1 -4.15 1.1c-4.4.41-10.93-1.37-12.32-14.96-1.5-14.71 3.52-19.24 6.11-20.59 0 0-1.87 15.92 10.36 34.45z" fill="#ebf4b8"/><path d="m195.61 384.27c-1.206-4.542-2.355-9.193-3.454-13.9-5.531-.463-10.388-.976-14.346-1.447 1.2 5.21 2.47 10.34 3.8 15.35 3.38 12.81 7.12 24.9 10.85 35.84 2.45 7.21 4.9 13.91 7.24 19.99 1.554-9.654 2.714-19.649 3.514-29.825-2.628-8.211-5.207-16.923-7.604-26.008z" fill="#5e7532"/><path d="m176.18 223.55c-.58-6.75-1.18-13.32-2.18-19.73v-.01c-3-32.3-9.088-60.217-15.027-83.448a535.69 535.69 0 0 0 -36.558-71.552c-.49-.79-1.832-.15-1.452.69 9.8 21.97 30.037 74.87 39.037 154.31v.01c1 6.41 1.6 12.98 2.18 19.73 1.09 12.61 1.985 25.82 2.415 39.61.92 29.1 5.047 58.5 9.348 82.82 3.879 1.062 8.895 2.308 14.79 3.535-4.243-24.223-9.141-57.832-10.043-86.355-.43-13.79-1.42-27-2.51-39.61z" fill="#5e7532"/><path d="m286.66 351.21q5.295-1.035 10.63-2.41a179.344 179.344 0 0 0 20.94-6.76c1.46-.57 2.93-1.17 4.39-1.79a2.456 2.456 0 0 1 .98-.2 2.545 2.545 0 0 1 2.53 2.43 14.25 14.25 0 0 1 -8.19 13.62c-1.34.63-2.71 1.23-4.09 1.81a145.085 145.085 0 0 1 -20.88 6.89q-3.99 1.02-8.07 1.86c-6.19 1.28-12.49 2.29-18.81 3.05-4.65.57-9.3 1.01-13.92 1.33-6.2.45-12.33.7-18.3.8-3.99.06-7.91.06-11.72.01-6.2-.08-12.12-.31-17.63-.62-2.53-.14-4.98-.3-7.33-.47-7.65-.55-14.26-1.23-19.38-1.84-.74-.09-1.45-.18-2.13-.26a11.542 11.542 0 0 1 -10.08-10.75l-.4-6.44a5.738 5.738 0 0 1 7.26-5.91q.735.21 1.53.42c4.71 1.29 11.05 2.85 18.66 4.32 3.49.67 7.24 1.33 11.23 1.94 5.52.83 11.48 1.56 17.8 2.1 3.68.32 7.49.56 11.39.73 6.38.27 13.02.31 19.85.04q7.515-.285 15.29-1.1c6.07-.64 12.23-1.56 18.45-2.8z" fill="#9be147"/><path d="m225.52 371.23c-2.53-.14-4.98-.3-7.33-.47-7.65-.55-14.26-1.23-19.38-1.84-.74-.09-1.45-.18-2.13-.26a11.542 11.542 0 0 1 -10.08-10.75l-.4-6.44a5.728 5.728 0 0 1 .372-2.419c-4.945-1.074-9.192-2.143-12.582-3.071q-.8-.21-1.53-.42a5.738 5.738 0 0 0 -7.26 5.91l.4 6.44a11.542 11.542 0 0 0 10.08 10.75c.68.08 1.39.17 2.13.26 5.12.61 11.73 1.29 19.38 1.84 2.35.17 4.8.33 7.33.47 5.51.31 11.43.54 17.63.62 3.81.05 7.73.05 11.72-.01q2.04-.034 4.107-.095c-4.33-.114-8.502-.293-12.457-.515z" fill="#8ac13a"/><path d="m397.929 51.631a3.7 3.7 0 0 0 -5.037.9 542.2 542.2 0 0 0 -38.492 59.282c3.822-22.245 5.9-40.214 5.509-48.143a11.99 11.99 0 0 0 4.013-2.812c3.584-3.838 4.521-9.876 2.786-17.947-3.2-14.9-9.738-18.881-13.825-19.859-1.181-3.066.153-4.425.468-4.692l-.069.053-3.564-4.826c-1.936 1.429-4.592 5.423-2.591 11.184-.092.109-.188.212-.273.33-3.544 4.922-11.422 17.508-8.071 28.043a16.39 16.39 0 0 0 7.529 9.18c-1.156 5.226-4.206 19.071-7.475 34.441a550.756 550.756 0 0 0 -8.823-65.38 3.741 3.741 0 0 0 -7.4.969c1.022 15.587 1.654 45.64-3.532 86.679-6.379-37.521-18.125-72.2-25.275-91.218a3.741 3.741 0 0 0 -7.144 2.174c6.66 28.34 20.245 106.185 2.715 216.963a564.931 564.931 0 0 0 -23.833 104.387q-4.821.466-9.545.71.31-11.2.378-22.658c2.887-14.634 6.074-29.144 9.156-43.179 6.7-30.476 13.02-59.262 14.723-82.572 4.169-57.092-.323-144.865-9.07-177.2a3.741 3.741 0 0 0 -7.318 1.484c4.9 36.007-1.909 119.421-11.7 190.634-3.451-72.183-3.653-152.35 3.64-183.885a3.741 3.741 0 0 0 -7.151-2.15c-11.679 31.39-24.215 118.375-25.306 175.611-.409 21.405 1.31 48.376 3.13 76.93 1.4 21.916 2.83 44.543 3.493 66.941q-2.751-.151-5.434-.355a597.129 597.129 0 0 0 -14.305-101.48c-7.258-111.617 13.442-187.91 22.684-215.543a3.741 3.741 0 0 0 -6.912-2.823c-8.866 18.272-23.747 51.721-33.545 88.49-1.4-41.342 2-71.21 4.443-86.638a3.741 3.741 0 0 0 -7.283-1.643 540.644 540.644 0 0 0 -16.861 78.378q-2.073 15.657-2.793 29.9c-13.384-38.717-33.284-74.042-44.9-93.039a3.741 3.741 0 0 0 -6.607 3.478c8.946 20.052 27.089 67.184 36.916 137.621-8.062-15.31-14.667-29.317-16.9-34.128a16.247 16.247 0 0 0 3.891-10.567c-.075-11.053-11.439-20.569-16.322-24.147a5.552 5.552 0 0 0 -1.016-.578c.039-7.079-4.767-9.282-5-9.385l-2.412 5.5a.734.734 0 0 1 -.11-.053c.083.046 1.829 1.08 1.462 4.914-3.49 2.512-7.761 8.51-6.314 22.7.838 8.213 3.592 13.665 8.183 16.205a12.009 12.009 0 0 0 5.031 1.456c5.07 13.578 12.579 26.9 23.69 46.59 2.956 5.241 6.3 11.166 9.871 17.589 1.059 12.375 1.84 25.318 2.265 38.824.739 23.432 3.645 50.034 8.631 79.115a8.733 8.733 0 0 0 -8.114 9.282l.4 6.446a14.552 14.552 0 0 0 12.7 13.541l.055.006q1.52 6.489 3.159 12.715c-5.231 27.462-15.129 66.159-32.718 95.931a6.186 6.186 0 0 0 4.591 9.292l15.452 1.837a6.064 6.064 0 0 0 .735.044 6.193 6.193 0 0 0 5.591-3.537c1.2-2.515 11.165-23.928 20.649-57.7 1.325 3.68 2.591 7.076 3.773 10.163-2.892 17.643-7.011 33.633-12.257 47.239a6.183 6.183 0 0 0 5.761 8.413c.1 0 .2 0 .3-.008l15.538-.747a6.2 6.2 0 0 0 5.664-4.491l.1-.359c.921-3.221 1.78-6.508 2.608-9.826 3.849 7.591 6.792 12.709 8.395 15.378a6.184 6.184 0 0 0 6.638 2.864l15.2-3.332a6.187 6.187 0 0 0 3.669-9.692q-2.817-3.859-5.507-7.986c1.223-5.515 2.564-12.641 3.914-21.143 5.33 5.305 14.306 14.55 17.822 20 .646 4.575 1.213 7.8 1.532 9.5a6.2 6.2 0 0 0 5.224 4.994l15.406 2.181a6.287 6.287 0 0 0 .874.062 6.183 6.183 0 0 0 5.936-7.873c-3.975-14.03-6.517-30.359-7.611-48.54a537.159 537.159 0 0 0 30.5-76.912c.976-.424 1.952-.848 2.9-1.29a17.2 17.2 0 0 0 9.917-16.479 5.53 5.53 0 0 0 -6.515-5.193 572.467 572.467 0 0 0 13.974-72.913c13.842-111.516 48.366-182.364 62.567-207.653a3.706 3.706 0 0 0 -1.221-4.969zm-37.086-7.46c1.273 5.928.831 10.273-1.281 12.564a6.779 6.779 0 0 1 -3.612 1.937c1.278-9.9-.009-21.091-1.069-27.707 2.037 2.007 4.38 5.849 5.962 13.206zm-16.343 7.154c-1.674-5.261.934-12.5 4.563-18.644.957 6.261 2.032 16.226.98 24.872a10.8 10.8 0 0 1 -5.543-6.228zm-4.593 69.712c4.373-21.538 10-47.179 12-56.248.015 0 .03.009.045.011a13.156 13.156 0 0 0 1.735.1h.28c.191 8.9-2.822 33.382-8.955 64.768q-2.757 5.576-5.351 11.3c.28-6.668.347-13.333.247-19.931zm-23.907 19.297a662.577 662.577 0 0 1 -15.955 71.892c7.195-66.774 3.251-119.254-1.768-152.957 7.109 22.742 14.569 51.774 17.723 81.065zm-20.853 108.266c27.082-81 33.433-146.252 34.1-186.053a449.374 449.374 0 0 1 4.72 57.6l-.027.137.029.006c.621 47.023-7.939 74.747-13.013 86.922-16.038 38.49-30.141 92.518-36.977 141.51q-6.189 1.167-12.29 1.93a558.265 558.265 0 0 1 23.458-102.052zm23.863-19.6c-3.823 35.025-12.711 78.639-24.118 117.328q-2.341.583-4.677 1.108c5.753-40.116 16.338-83.398 28.795-118.431zm-47.679-165.132c4.419 40.384 5.961 97.941 2.938 139.335-1.671 22.88-7.951 51.462-14.6 81.722-1.174 5.344-2.361 10.774-3.544 16.238q-.519-24.282-2.105-49.3-.1-1.622-.2-3.259c11.719-74.675 17.105-141.837 17.511-184.736zm-41.984 144.375c.813-42.6 7.983-101.727 16.374-141.616-2.849 39.056-2.982 102.9 2.313 185.616 2.206 34.448 2.854 68.083 1.953 100.048-4.775.13-9.451.109-14-.032-.66-22.642-2.107-45.473-3.516-67.581-1.816-28.427-3.528-55.278-3.124-76.435zm-10.694-145.511c-8.1 33.083-16.85 84.9-15.846 151.834a662.724 662.724 0 0 1 -9.234-72.786c5.827-28.859 15.912-57.065 25.08-79.048zm-31.131.373c-2.993 39.694-2.662 105.258 16.866 188.418a590.813 590.813 0 0 1 14.112 99.589c-4.082-.406-8.012-.891-11.763-1.432-2.688-47.638-12.139-103-24.246-141.762-5.334-17.076-14.453-63.177 5.031-144.813zm13.153 285.631q-2.817-.471-5.466-.971c-7.609-38.825-12.292-82.713-12.809-118.065 9.112 35.645 15.971 79.873 18.275 119.036zm-64.312-205.044a10.978 10.978 0 0 1 -3.575 7.879 56.941 56.941 0 0 1 -8.087-25.512c5.952 4.855 11.621 11.576 11.662 17.633zm-12.663 9.838c-2.711-1.523-4.47-5.515-5.085-11.546a32.729 32.729 0 0 1 .47-11.334 64.1 64.1 0 0 0 8.324 23.628 6.61 6.61 0 0 1 -3.709-.748zm31.079 50.37c-10.619-18.82-17.9-31.743-22.815-44.474a12.872 12.872 0 0 0 1.468-.584 2.981 2.981 0 0 0 .447-.275c3.74 7.972 13.227 27.775 23.581 46.182q.276 2.413.538 4.86c-1.114-1.982-2.191-3.892-3.219-5.709zm12.907 59.172c-2.678-85.035-19.22-148.262-32.37-185.868 12.042 22.446 25.743 51.726 34.272 81.844.267 19.042 2.614 35.806 7.026 50.144-1.462 37.441 3.311 90.773 12.232 137.3-4.612-.982-8.715-1.983-12.228-2.912-5.175-29.68-8.183-56.76-8.932-80.512zm-.925 222.286a.2.2 0 0 1 -.2.112l-15.451-1.839a.158.158 0 0 1 -.141-.1.164.164 0 0 1 .008-.18c15.646-26.485 25.317-59.67 31.079-86.238 2.412 8.3 4.884 16.059 7.271 23.1-9.964 38.125-21.299 62.473-22.566 65.141zm14.944-112.976c3.785.406 8.2.827 13.113 1.206 1.108 4.2 2.562 8.866 3.977 13.4.858 2.753 1.668 5.351 2.354 7.7-.482 11.512-1.4 22.665-2.749 33.314a531.264 531.264 0 0 1 -16.695-55.624zm24.236 116.408-.1.36a.2.2 0 0 1 -.182.147l-15.539.748a.155.155 0 0 1 -.154-.074.171.171 0 0 1 -.022-.181c11.511-29.849 17.731-70.729 17.6-115.4 3.726.181 7.621.322 11.647.408.629 42.656-3.814 81.002-13.25 113.992zm-4.785-114.761.38.023c0 .45.007.9.007 1.35-.133-.463-.26-.919-.387-1.373zm42.218 115.34a.167.167 0 0 1 .024.18.16.16 0 0 1 -.132.114l-15.201 3.337a.183.183 0 0 1 -.208-.091c-1.975-3.29-6.045-10.4-11.385-21.471q2.326-10.673 4.046-21.954a225.337 225.337 0 0 0 22.856 39.885zm-18.189-114.5c.825.006 1.646.014 2.479.014 1.048 0 2.117-.015 3.177-.024-.246 27-2.283 50.3-6.076 69.438q-1.365-3.081-2.7-6.289a468.953 468.953 0 0 0 3.12-63.135zm12.939 95.576q-4.768-8.055-9.18-17.146c4.967-20.927 7.621-47.332 7.9-78.539.689-.017 1.369-.025 2.061-.046 3.432-.105 6.786-.268 10.09-.468-2.282 41.923-6.956 76.228-10.871 96.203zm9.617-21.071q.374-2.557.743-5.253l12.294-17.3c.258 15.516 1.22 28.516 2.269 38.451-5.663-6.434-12.617-13.285-15.306-15.894zm2.361-17.886c1.993-16.687 3.772-36.2 4.922-57.664 2.62-.21 5.208-.443 7.742-.715-1.408 15.806-1.991 30.373-2.048 43.444zm37.545 55.7a.168.168 0 0 1 -.037.177.154.154 0 0 1 -.158.058l-15.406-2.182a.2.2 0 0 1 -.169-.163c-1.515-8.033-8.683-50.834-3.021-112.7q6.537-.856 12.654-2.007c-3.234 33.256-4.529 79.167 6.137 116.829zm-2.362-63.01c-.233-10.43-.028-21.389.617-32.8.868-2.2 1.8-4.5 2.755-6.871 2.315-5.719 4.68-11.6 6.622-17.216q7.281-1.92 13.841-4.321a536.279 536.279 0 0 1 -23.835 61.215zm2.161-52.891c.07-.717.145-1.439.218-2.159.213-.046.432-.088.644-.136q-.423 1.15-.862 2.302zm35.7-28.01a11.216 11.216 0 0 1 -6.474 10.1c-15.135 7.064-59.139 22.4-140.621 12.305a8.542 8.542 0 0 1 -7.453-7.96l-.4-6.446a2.746 2.746 0 0 1 1.024-2.331 2.682 2.682 0 0 1 1.694-.607 2.719 2.719 0 0 1 .738.1c25.132 7.062 90.082 20.629 151.493-5.154zm7.484-79.789a567.03 567.03 0 0 1 -14.912 76.3q-7.01 2.683-14.044 4.711c13.335-46.18 23.063-98.72 25.016-135.479 6.134-14.9 9.748-31.827 11.614-49.327 11.262-29.2 27.588-57.076 41.636-78.305-16.546 36.24-38.829 97.671-49.309 182.112z" fill="#284268"/></svg>