<svg id="圖層_1" height="512" viewBox="0 0 512 512" width="512" xmlns="http://www.w3.org/2000/svg"><path id="_x30_1" d="m311.124 24.581c36.689-40.142 113.318-29.835 167.295 21.57 24.618 23.46 55.663 95.528-1.588 135.619-38.252 26.761-108.809 12.6-120.273-67.583-4.813-33.917-17.891-82.803-45.434-89.606z" fill="#f6bc1a"/><path id="_x30_2" d="m144.99 115.599c14.842 37.395 17.009 164.976 2.318 216.456-18.345 64.131-64.181 136.3-112.235 171.805 25.325 3.83 123.7-14.893 163.766-138.592 42.788-131.941 6.199-281.117-12.801-299.159-7.66-7.308-45.912 37.142-41.048 49.49zm183.798-18.597c14.102-19.671 26.479-27.809 37.942-32.646 14.572-6.15-4.453-56.684-27.333-54.391-26.308 2.646-58.688 17.236-74.16 59.947-31.825 87.717 31.448 151.797 45.938 228.956 15.773 84.289 7.861 139.727-37.143 213.13 53.043-26.786 105.733-92.253 91.975-208.292-11.264-94.847-77.839-150.108-37.219-206.704z" fill="#e1ddd1"/><path id="_x30_4" d="m151.214 36.626c-105.179-18.798-144.363 60.376-147.916 97.368-7.333 76.049 59.62 98.476 85.625 90.791 41.603-12.271 57.15-35.051 59.141-59.796 1.789-22.074 8.013-38.554 19.126-45.71 37.394-24.041 26.635-75.018-15.976-82.653z" fill="#b9c381"/><path id="_x30_3" d="m185.686 62.077c-5.821-12.373-17.488-22.402-34.472-25.451-34.346 4.006-66.953 18.47-93.437 42.687-26.005 23.737-43.745 54.756-52.111 89.329 3.931 15.271 11.465 27.215 20.764 36.084 2.318-41.603 19.377-79.552 48.734-106.364 30.516-27.869 70.33-40.846 110.522-36.285z" fill="#6d9d48"/></svg>