<svg id="Layer_1" height="512" viewBox="0 0 64 64" width="512" xmlns="http://www.w3.org/2000/svg" data-name="Layer 1"><g fill="#fcb316"><path d="m52 33a2.0059 2.0059 0 0 1 -2 2h-36a2.0146 2.0146 0 0 1 -2-2 2.0059 2.0059 0 0 1 2-2h36a2.0146 2.0146 0 0 1 2 2z"/><path d="m48 29a2.0059 2.0059 0 0 1 -2 2h-28a2.0146 2.0146 0 0 1 -2-2 2.0059 2.0059 0 0 1 2-2h28a2.0146 2.0146 0 0 1 2 2z"/><path d="m44 25a2.0059 2.0059 0 0 1 -2 2h-20a2.0146 2.0146 0 0 1 -2-2 2.0059 2.0059 0 0 1 2-2h20a2.0146 2.0146 0 0 1 2 2z"/><path d="m28 21v2h-4v-2a2 2 0 0 1 4 0z"/></g><path d="m60 35a7.9893 7.9893 0 0 1 -8 8h-40a7.9978 7.9978 0 0 1 -8-8z" fill="#edeff0"/><path d="m60 35a7.9893 7.9893 0 0 1 -8 8h-20v-8z" fill="#cfd8dc"/><path d="m52 43v2a2.0059 2.0059 0 0 1 -2 2h-36a2.0059 2.0059 0 0 1 -2-2v-2z" fill="#cfd8dc"/><path d="m52 43v2a2.0059 2.0059 0 0 1 -2 2h-18v-4z" fill="#b0bec5"/><path d="m52 33a2.0059 2.0059 0 0 1 -2 2h-36a2.0146 2.0146 0 0 1 -2-2z" fill="#f9a01b"/><path d="m48 29a2.0059 2.0059 0 0 1 -2 2h-28a2.0146 2.0146 0 0 1 -2-2z" fill="#f9a01b"/><path d="m44 25a2.0059 2.0059 0 0 1 -2 2h-20a2.0146 2.0146 0 0 1 -2-2z" fill="#f9a01b"/><path d="m28 21v2h-2v-4a2.0059 2.0059 0 0 1 2 2z" fill="#f9a01b"/><path d="m38 17v1.63a4.3745 4.3745 0 0 1 -4.37 4.37h-1.63v-1.63a4.3745 4.3745 0 0 1 4.37-4.37z" fill="#7cb342"/><path d="m38 17v1.63a4.3745 4.3745 0 0 1 -4.37 4.37h-1.63z" fill="#679f42"/></svg>