<svg id="Flat" height="512" viewBox="0 0 64 64" width="512" xmlns="http://www.w3.org/2000/svg"><path d="m53.67 19.43c3.87-4.7 8.33-4.43 8.33-4.43s-2.99 5.31-2.17 13.76c.63 6.54-4.51 10.41-9.47 13.52.06-1.68.03-3.18-.1-4.39-.25-2.43-.88-4.8-1.83-7.04 2.25-3.82 1.69-6.61 5.24-11.42z" fill="#80a53f"/><path d="m54 33c-3 1-2.746-2.045-4.526-4.287-.276.688-.606 1.393-1.044 2.137.95 2.24 1.58 4.61 1.83 7.04.13 1.21.16 2.71.1 4.39 4.96-3.11 10.1-6.98 9.47-13.52-.801-8.25 2.023-13.492 2.157-13.737-4.304 4.532-4.987 15.977-7.987 17.977z" fill="#24725f"/><path d="m31.39 56.07c1.13-.04 2.34-.07 3.61-.07 1.65 0 3.19.06 4.61.17.42.03.83.06 1.23.1.94.09 1.83.21 2.67.34 1.62.26 3.06.58 4.33.94 3.7 1.06 6.02 2.46 7.39 3.58.77.63.32 1.87-.67 1.87h-36.56l1.5-5.24c1.81-.52 4.08-.99 6.91-1.31 1.5-.17 3.15-.3 4.98-.38z" fill="#cab097"/><path d="m54.56 63h-36.56l1.5-5.24c.7-.2 1.47-.39 2.31-.57l-.119.414c-.346 1.2.554 2.396 1.803 2.396h30.126c.645.393 1.178.776 1.62 1.138.762.625.305 1.862-.68 1.862z" fill="#a67c52"/><path d="m18.52 30.26c-.16.24-.34.49-.52.74-1.76 2.42-2.31 5.03-2.1 7.63-2.37-1.78-5.9-5.18-5.9-9.63 0-8-3-15-3-15 7.8 1.42 10.57 10.88 11.52 16.26z" fill="#a9dc66"/><path d="m18.52 30.26c-.816-4.62-2.984-12.236-8.518-15.198 4.648 6.091 5.198 13.609 3.139 21.074.926 1.018 1.915 1.86 2.759 2.494-.21-2.6.34-5.21 2.1-7.63.18-.25.36-.5.52-.74z" fill="#80a53f"/><path d="m29 14c2.67 3.74 2.77 8.05 1.82 12.17-.81 3.59-2.42 7.04-3.82 9.83-3.36 6.72 2.45 16.96 4.39 20.07-1.83.08-3.48.21-4.98.38-2.19-2.09-9.86-9.91-10.5-17.82h-.01c-.21-2.6.34-5.21 2.1-7.63.18-.25.36-.5.52-.74 7.12-10.36-.5-12.47.48-21.26 1-6 5-8 5-8s.07 6.1 5 13z" fill="#80a53f"/><path d="m23 29c5.055-8.426-1.957-16.851-1.898-25.277-.879 1.239-1.715 2.956-2.102 5.277-.98 8.79 6.64 10.9-.48 21.26-.16.24-.34.49-.52.74-1.76 2.42-2.31 5.03-2.1 7.63h.01c.64 7.91 8.31 15.73 10.5 17.82.377-.043.764-.083 1.161-.12-7.522-7.045-11.708-17.814-4.571-27.33z" fill="#24725f"/><path d="m49 15c1.25 4.17-.63 7.65-3.32 10.86-1.9 2.28-4.22 4.43-6.11 6.6-1.84 2.11-3.28 4.24-3.57 6.54-.32 2.52-.04 5.23.5 7.77v.01c.86 4.13 2.39 7.79 3.11 9.38v.01c-1.42-.11-2.96-.17-4.61-.17-1.27 0-2.48.03-3.61.07-1.94-3.11-7.75-13.35-4.39-20.07 1.4-2.79 3.01-6.24 3.82-9.83 1.53-.91 3.32-2.18 4.91-3.88v-.01c1.74-1.86 3.24-4.22 3.92-7.17.16-.67.28-1.38.35-2.11 1-11 9-12 9-12s-2.57 5.43 0 14z" fill="#80a53f"/><path d="m32 48c-6.244-8.92.444-14.842 2.456-24.472-1.23 1.095-2.504 1.969-3.636 2.642-.81 3.59-2.42 7.04-3.82 9.83-3.36 6.72 2.45 16.96 4.39 20.07 1.13-.04 2.34-.07 3.61-.07 1.65 0 3.19.06 4.61.17v-.01c-.376-.831-.974-2.235-1.581-3.969-2.071.452-5.18-2.918-6.029-4.191z" fill="#24725f"/><g fill="#38aaff"><circle cx="59" cy="7" r="2"/><circle cx="4" cy="29" r="2"/><circle cx="13.3" cy="10" r="2"/><circle cx="3" cy="19" r="2"/><circle cx="5" cy="5" r="4"/></g><path d="m17 51 3 5-.5 1.76-1.5 5.24h-2-7l3-6-1-3-5-6h5z" fill="#5e5e5e"/><path d="m11 54 1 3-3 6h-4.65c-.81 0-1.55-.5-1.85-1.26l-1.3-3.24c-.13-.33-.2-.68-.2-1.03v-4.14c0-.84.38-1.64 1.04-2.16l3.96-3.17z" fill="#7d7d7d"/><path d="m50.26 37.89c.13 1.21.16 2.71.1 4.39-.16 4.51-.99 10.33-2.52 15.27-1.27-.36-2.71-.68-4.33-.94 1.09-2.21 2.26-5.92 1.55-10.87-.35-2.45-1.17-5.21-2.69-8.24-.4-.81-.86-1.65-1.37-2.5s-.99-1.7-1.43-2.54c1.89-2.17 4.21-4.32 6.11-6.6.29.46.56.9.82 1.31.74 1.18 1.39 2.41 1.93 3.68.95 2.24 1.58 4.61 1.83 7.04z" fill="#80a53f"/><path d="m39.57 32.46c.44.84.92 1.69 1.43 2.54s.97 1.69 1.37 2.5c1.52 3.03 2.34 5.79 2.69 8.24.71 4.95-.46 8.66-1.55 10.87 1.62.26 3.06.58 4.33.94.532-1.718.974-3.543 1.338-5.381-4.842-5.579-1.056-16.751-6.749-22.766-.989 1.024-1.972 2.039-2.859 3.057z" fill="#24725f"/><path d="m36 4c0 2.79 1.58 6.92 3.65 11.11-.68 2.95-2.18 5.31-3.92 7.17-2.59-10.78.27-18.28.27-18.28z" fill="#a9dc66"/><path d="m39.61 56.16c-.72-1.59-2.25-5.25-3.11-9.38 0 0 0 0 0-.01.9-3.36 2.52-6.51 5.3-8.79.2-.16.39-.32.57-.48 1.52 3.03 2.34 5.79 2.69 8.24-2.61 2.36-3.77 6.5-4.22 10.53-.4-.04-.81-.07-1.23-.1z" fill="#a9dc66"/><path d="m42.37 37.5c-.18.16-.37.32-.57.48-.338.277-.658.569-.963.871 1.651 4.533.341 9.526-2.981 12.834.665 1.965 1.342 3.565 1.754 4.475v.01c.42.03.83.06 1.23.1.45-4.03 1.61-8.17 4.22-10.53-.35-2.45-1.17-5.21-2.69-8.24z" fill="#80a53f"/><circle cx="4" cy="4" fill="#60daff" r="1"/><g><path d="m22.999 47.999c-.346 0-.683-.18-.867-.503-.174-.304-4.195-7.575.958-18.91 4.628-10.183-.576-15.655-.8-15.882-.386-.393-.383-1.025.008-1.413s1.02-.388 1.409.001c.265.265 6.43 6.622 1.203 18.121-4.703 10.348-1.077 17.027-1.04 17.094.27.48.101 1.09-.378 1.361-.157.089-.326.131-.493.131z" fill="#a9dc66"/></g><g><path d="m33 53c-.378 0-.74-.215-.909-.581-6.389-13.842.367-22.292 7.201-29.126 6.374-6.374 3.875-10.735 3.85-10.778-.284-.474-.131-1.088.343-1.372.473-.284 1.087-.131 1.372.343.139.231 3.316 5.755-4.15 13.222-6.648 6.648-12.649 14.199-6.799 26.874.231.501.012 1.096-.489 1.327-.136.062-.278.091-.419.091z" fill="#a9dc66"/></g><g><path d="m47 43c-.552 0-1-.448-1-1 0-5.567-2.774-9.364-2.802-9.402-.329-.442-.238-1.069.204-1.398.442-.33 1.066-.241 1.397.2.131.174 3.201 4.339 3.201 10.6 0 .552-.448 1-1 1z" fill="#a9dc66"/></g><g><path d="m53 33c-.001 0-.001 0 0 0-.553 0-1-.448-1-1 0-.259.037-6.382 3.201-10.601.332-.441.958-.532 1.4-.2.442.331.531.958.2 1.4-2.758 3.677-2.8 9.345-2.8 9.401-.002.553-.45 1-1.001 1z" fill="#a9dc66"/></g><g><path d="m14.001 30c-.367 0-.72-.202-.896-.553-1.092-2.186-1.105-6.274-1.105-6.447 0-.552.448-1 1-1 .552 0 1 .448 1 1 0 1.048.163 4.09.895 5.553.247.494.047 1.095-.447 1.342-.144.071-.297.105-.447.105z" fill="#24725f"/></g></svg>