<svg id="Layer_1" height="512" viewBox="0 0 512 512" width="512" xmlns="http://www.w3.org/2000/svg"><g><g><g id="XMLID_13_"><g><path d="m341.25 321.01c3.02-1.74 6.84-1.17 9.22 1.37l16.28 17.38c2.74 2.92 3.98 6.87 3.39 10.83-.59 3.97-2.92 7.39-6.38 9.39-2 1.15-4.25 1.76-6.53 1.76-5.8 0-10.82-3.72-12.5-9.27l-6.91-22.78c-1.01-3.34.41-6.93 3.43-8.68z" fill="#fee5ae"/><path d="m292 205c18.79 0 33.5 10.98 33.5 25s-14.71 25-33.5 25-33.5-10.98-33.5-25c0-10.02 7.52-18.49 18.67-22.5 1.3-.48 2.66-.89 4.06-1.23 3.36-.83 6.98-1.27 10.77-1.27z" fill="#f992a3"/><path d="m314.5 326c3.49 0 6.51 2.4 7.3 5.8l5.41 23.18c.91 3.91.01 7.94-2.48 11.08s-6.22 4.94-10.22 4.94h-.02c-4 0-7.73-1.8-10.22-4.94s-3.39-7.17-2.48-11.08l5.41-23.18c.79-3.4 3.81-5.8 7.3-5.8z" fill="#fee5ae"/><path d="m405.5 296h-182c-4.14 0-7.5 3.36-7.5 7.5 0 2.52.08 5.02.26 7.5 3.63 54.13 46.31 97 98.24 97s94.61-42.87 98.24-97c.18-2.48.26-4.98.26-7.5 0-4.14-3.36-7.5-7.5-7.5zm-114.32 33.69-6.91 22.78c-1.68 5.55-6.7 9.27-12.5 9.27-2.28 0-4.53-.61-6.52-1.75-3.48-2.01-5.8-5.43-6.39-9.4-.59-3.96.65-7.91 3.39-10.83l16.28-17.38c2.38-2.54 6.2-3.11 9.22-1.37 3.02 1.75 4.44 5.34 3.43 8.68zm33.55 36.37c-2.49 3.14-6.22 4.94-10.22 4.94h-.02c-4 0-7.73-1.8-10.22-4.94s-3.39-7.17-2.48-11.08l5.41-23.18c.79-3.4 3.81-5.8 7.3-5.8s6.51 2.4 7.3 5.8l5.41 23.18c.91 3.91.01 7.94-2.48 11.08zm45.41-15.47c-.59 3.97-2.92 7.39-6.38 9.39-2 1.15-4.25 1.76-6.53 1.76-5.8 0-10.82-3.72-12.5-9.27l-6.91-22.78c-1.01-3.34.41-6.93 3.43-8.68 3.02-1.74 6.84-1.17 9.22 1.37l16.28 17.38c2.74 2.92 3.98 6.87 3.39 10.83z" fill="#d0e77f"/><path d="m314.5 408c51.93 0 94.61-42.87 98.24-97 .18-2.48.26-4.98.26-7.5 0-4.14-3.36-7.5-7.5-7.5h71.5c-4.14 0-7.5 3.36-7.5 7.5 0 2.51-.05 5.01-.16 7.5-3.69 87.51-71.73 157.5-154.84 157.5s-151.15-69.99-154.84-157.5c-.11-2.49-.16-4.99-.16-7.5 0-4.14-3.36-7.5-7.5-7.5h71.5c-4.14 0-7.5 3.36-7.5 7.5 0 2.52.08 5.02.26 7.5 3.63 54.13 46.31 97 98.24 97z" fill="#b4dc62"/><path d="m314.5 468.5c83.11 0 151.15-69.99 154.84-157.5.11-2.49.16-4.99.16-7.5 0-4.14 3.36-7.5 7.5-7.5h27.5c4.14 0 7.5 3.36 7.5 7.5 0 114.97-88.6 208.5-197.5 208.5-40.82 0-78.78-13.14-110.3-35.62-6.59-4.71-12.9-9.82-18.9-15.31-9.35-8.55-17.94-18.03-25.64-28.28-12.51-16.66-22.65-35.37-29.91-55.57-8.24-22.93-12.75-47.78-12.75-73.72 0-4.14 3.36-7.5 7.5-7.5h27.5c4.14 0 7.5 3.36 7.5 7.5 0 2.51.05 5.01.16 7.5 3.69 87.51 71.73 157.5 154.84 157.5z" fill="#94d148"/><path d="m284.27 352.47c-1.68 5.55-6.7 9.27-12.5 9.27-2.28 0-4.53-.61-6.52-1.75-3.48-2.01-5.8-5.43-6.39-9.4-.59-3.96.65-7.91 3.39-10.83l16.28-17.38c2.38-2.54 6.2-3.11 9.22-1.37 3.02 1.75 4.44 5.34 3.43 8.68z" fill="#fee5ae"/><path d="m284.63 177v23c0 2.63-1.35 4.94-3.4 6.27-1.4.34-2.76.75-4.06 1.23-.01 0-.03 0-.04 0-4.14 0-7.5-3.36-7.5-7.5v-23c0-4.14 3.36-7.5 7.5-7.5s7.5 3.36 7.5 7.5z" fill="#4e4f53"/><path d="m273.43 14.4-17.47 7.43c-7.5 3.18-15.43 4.77-23.35 4.77-9.37 0-18.73-2.22-27.3-6.64-.1-.05-.21-.11-.31-.15v39.84c-2.49-.1-4.99-.15-7.5-.15s-5.01.05-7.5.15v-44.35c-1.71-.2-3.42-.3-5.14-.3h-49.36c-4.14 0-7.5-3.36-7.5-7.5s3.36-7.5 7.5-7.5h49.36c3.82 0 7.65.37 11.39 1.11 1.95.37 3.87.85 5.77 1.42 3.5 1.05 6.91 2.42 10.16 4.09 11.84 6.1 25.66 6.61 37.91 1.4l17.48-7.42c3.81-1.62 8.21.15 9.83 3.97 1.62 3.81-.15 8.21-3.97 9.83z" fill="#5b3a2b"/><path d="m212.98 209.5c3.25 0 6.11 2.07 7.12 5.15.01.01.01.02.01.03 1.98 6.07.97 12.52-2.78 17.69s-9.57 8.13-15.95 8.13h-7.02c-6.38 0-12.2-2.96-15.95-8.13s-4.77-11.62-2.79-17.69c.01-.01.01-.02.01-.03 1.02-3.08 3.88-5.15 7.12-5.15z" fill="#85898c"/><path d="m234.39 210.06c-.01-.01-.01-.02-.02-.04-3.02-9.28-11.62-15.52-21.39-15.52h-30.23c-9.76 0-18.36 6.24-21.39 15.52 0 .02-.01.03-.01.05-3.47 10.68-1.68 22.02 4.92 31.11 6.61 9.1 16.85 14.32 28.09 14.32h7.02c11.24 0 21.48-5.22 28.09-14.32 6.6-9.1 8.39-20.43 4.92-31.12zm-17.06 22.31c-3.75 5.17-9.57 8.13-15.95 8.13h-7.02c-6.38 0-12.2-2.96-15.95-8.13s-4.77-11.62-2.79-17.69c.01-.01.01-.02.01-.03 1.02-3.08 3.88-5.15 7.12-5.15h30.23c3.25 0 6.11 2.07 7.12 5.15.01.01.01.02.01.03 1.98 6.07.97 12.52-2.78 17.69z" fill="#4e4f53"/><path d="m83.69 250.55c4.25 2.21 9.26 3.69 14.73 4.22-.28 4.37-.42 8.78-.42 13.23 0 39.7 11.21 77.48 31.75 109.22 7.26 20.2 17.4 38.91 29.91 55.57 7.7 10.25 16.29 19.73 25.64 28.28 6 5.49 12.31 10.6 18.9 15.31-2.23.08-4.47.12-6.7.12-108.9 0-197.5-93.53-197.5-208.5 0-112.32 84.56-204.17 190-208.35 2.49-.1 4.99-.15 7.5-.15s5.01.05 7.5.15c11.62.46 22.98 1.98 34 4.48 11.25 2.55 22.15 6.11 32.6 10.6-11.16.57-22.05 2.21-32.6 4.81-49.5 12.25-91.32 45.93-116.27 91.27-1.2-.83-2.66-1.31-4.23-1.31-4.14 0-7.5 3.36-7.5 7.5v19.28c-1.12 2.95-2.17 5.94-3.14 8.97-1.58-.17-3.2-.25-4.86-.25-3.95 0-7.71.48-11.2 1.38-13.12 3.37-22.3 12.54-22.3 23.62 0 8.61 5.55 16.08 14.19 20.55z" fill="#74bd47"/><path d="m107.86 205.25c2.44.25 4.79.7 7.02 1.31.97.26 1.93.56 2.85.9 11.21 4 18.77 12.49 18.77 22.54 0 14.02-14.71 25-33.5 25-1.56 0-3.09-.08-4.58-.23-5.47-.53-10.48-2.01-14.73-4.22-8.64-4.47-14.19-11.94-14.19-20.55 0-11.08 9.18-20.25 22.3-23.62 3.49-.9 7.25-1.38 11.2-1.38 1.66 0 3.28.08 4.86.25z" fill="#f992a3"/><path d="m117.73 207.46c-.92-.34-1.88-.64-2.85-.9-2.32-1.27-3.88-3.73-3.88-6.56v-3.72-19.28c0-4.14 3.36-7.5 7.5-7.5 1.57 0 3.03.48 4.23 1.31 1.98 1.35 3.27 3.62 3.27 6.19v23c0 4.14-3.36 7.5-7.5 7.5-.26 0-.51-.01-.77-.04z" fill="#4e4f53"/><g fill="#87c653"><path d="m271.6 74.73c-11.16.57-22.05 2.21-32.6 4.81-49.5 12.25-91.32 45.93-116.27 91.27 1.98 1.35 3.27 3.62 3.27 6.19v23c0 4.14-3.36 7.5-7.5 7.5-.26 0-.51-.01-.77-.04 11.21 4 18.77 12.49 18.77 22.54 0 14.02-14.71 25-33.5 25-1.56 0-3.09-.08-4.58-.23-.28 4.37-.42 8.78-.42 13.23 0 39.7 11.21 77.48 31.75 109.22-8.24-22.93-12.75-47.78-12.75-73.72 0-4.14 3.36-7.5 7.5-7.5h268.73c1.18-9.25 1.77-18.63 1.77-28 0-87.32-51.11-162.27-123.4-193.27zm-42.13 166.45c-6.61 9.1-16.85 14.32-28.09 14.32h-7.02c-11.24 0-21.48-5.22-28.09-14.32-6.6-9.09-8.39-20.43-4.92-31.11 0-.02.01-.03.01-.05 3.03-9.28 11.63-15.52 21.39-15.52h30.23c9.77 0 18.37 6.24 21.39 15.52.01.02.01.03.02.04 3.47 10.69 1.68 22.02-4.92 31.12zm62.53 13.82c-18.79 0-33.5-10.98-33.5-25 0-10.02 7.52-18.49 18.67-22.5h-.04c-4.14 0-7.5-3.36-7.5-7.5v-23c0-4.14 3.36-7.5 7.5-7.5s7.5 3.36 7.5 7.5v23c0 2.63-1.35 4.94-3.4 6.27 3.36-.83 6.98-1.27 10.77-1.27 18.79 0 33.5 10.98 33.5 25s-14.71 25-33.5 25z"/><path d="m107.86 205.25c.97-3.03 2.02-6.02 3.14-8.97v3.72c0 2.83 1.56 5.29 3.88 6.56-2.23-.61-4.58-1.06-7.02-1.31z"/></g></g></g></g></g></svg>