<svg id="Capa_1" enable-background="new 0 0 497 497" height="512" viewBox="0 0 497 497" width="512" xmlns="http://www.w3.org/2000/svg"><g><g><path d="m299.819 39.993h-93.739v268.925h182.416l47-47c-18.341-77.621-79.365-160.566-135.677-221.925z" fill="#b9f0ff"/><path d="m440.71 316.795h-28.247v89.448c-4.448 7.147-9.371 13.971-14.703 20.452h-191.681v-117.777-69.102l10-8.132c11.256 2.107 21.994 7.551 30.615 16.302 22.895 23.261 60.116 23.036 82.75.062 22.643-23.097 59.958-23.197 82.75-.062 6.604 6.737 14.652 11.346 23.301 13.933 4.966 21.011 6.128 38.226 5.215 54.876z" fill="#55dafe"/><path d="m377.005 324.645c-6.579 5.648-22.642 26.09-58.576 19.439-10.887-2.015-21.012-7.641-29.342-16.121-15.469-15.747-37.576-20.65-57.337-14.956v46.106l50 50h44.406c1.123-.978 2.227-1.989 3.289-3.067 22.727-23.183 60.236-23.197 83.005.198.006-.001.008-.001.014-.001 16.352-26.272 26.454-56.764 28.247-89.448-20.39-10.186-45.639-7.657-63.706 7.85z" fill="#2ed0fc"/></g><g><path d="m216.079 231.683c.602-20.357 5.144-41.686 12.594-63.339 14.867-43.212 41.316-87.712 71.145-128.352-10.327-11.252-20.496-21.78-30.213-31.414-5.83-5.711-13.467-8.574-21.1-8.579-7.662-.005-15.318 2.87-21.136 8.638-56.325 55.842-129.635 145.238-158.696 229.707l22.745 44.656h64.662z" fill="#7ce3ff"/><path d="m326.156 409.114h-44.406l-50-50v-46.106c-8.814-20.288-14.225-42.552-15.465-66.195-.183-3.481-.28-6.991-.28-10.53 0-1.527.029-3.062.074-4.6-8.94-1.673-18.206-1.243-26.999 1.317-9.202 2.68-17.888 7.683-25.136 15.046-22.882 23.225-60.212 22.929-82.75-.062-3.81-3.867-8.034-7.07-12.521-9.64-8.013 23.29-12.668 46.206-12.668 67.939 0 3.539.098 7.048.28 10.53h30.586v94.229c34.389 52.421 94.111 85.956 161.634 85.958 60.22.004 113.96-27.408 149.255-70.305-25.47-1.354-49.666-7.477-71.604-17.581z" fill="#2ed0fc"/><path d="m163.944 406.047c22.849-23.214 60.087-23.066 82.75-.062 21.82 22.169 56.645 22.989 79.461 3.129-32.395-14.921-59.875-38.486-79.284-68.072-5.792-8.83-10.851-18.203-15.121-28.034-9.365 2.698-18.205 7.766-25.557 15.207-22.818 23.09-60.053 22.755-82.585-.229-18.11-18.381-45.474-22.099-67.322-11.172 1.84 35.1 12.84 67.178 30.586 94.229 22.74 17.813 56.018 16.374 77.072-4.996z" fill="#1cbbea"/></g><g fill="#ff8e9e"><path d="m162.505 160.062c-16.016 0-29 10.297-29 23s12.984 23 29 23 29-10.298 29-23c0-12.703-12.984-23-29-23z"/><path d="m334.505 160.062c-16.016 0-29 10.297-29 23s12.984 23 29 23 29-10.298 29-23c0-12.703-12.984-23-29-23z"/></g><g fill="#313d40"><path d="m186.412 150.938c-4.142 0-7.5 3.358-7.5 7.5v12c0 4.142 3.358 7.5 7.5 7.5s7.5-3.358 7.5-7.5v-12c0-4.142-3.358-7.5-7.5-7.5z"/><path d="m311.412 150.938c-4.142 0-7.5 3.358-7.5 7.5v12c0 4.142 3.358 7.5 7.5 7.5s7.5-3.358 7.5-7.5v-12c0-4.142-3.358-7.5-7.5-7.5z"/><path d="m269.303 164.408c-3.123-2.721-7.86-2.396-10.582.727-5.724 6.569-15.9 6.564-21.62 0-2.721-3.123-7.459-3.448-10.582-.727s-3.448 7.458-.727 10.582c11.702 13.43 32.546 13.417 44.237 0 2.723-3.124 2.397-7.861-.726-10.582z"/></g></g></svg>