<svg id="Glyph" height="512" viewBox="0 0 64 64" width="512" xmlns="http://www.w3.org/2000/svg"><g fill="rgb(0,0,0)"><path d="m57.52 11.96c-6.307-10.2895-22.77162-11.36778-28.87985 1.45993-.02015.04-.03016.07006-.05012.11l6.21 6.21a6.8505 6.8505 0 0 1 0 9.65l-5.17 5.16a6.78419 6.78419 0 0 1 -9.64 0l-6.16-6.16a15.29547 15.29547 0 0 0 -9.75003 16.11007c.86209 8.79558 8.85471 15.23983 19.08982 15.4902 9.12555.2364 30.10976-9.34324 36.02046-31.16992.09972-.39028 2.56972-9.61028-1.67028-16.86028z"/><path d="m21.4 33.14a4.83136 4.83136 0 0 0 6.82 0l5.17-5.16a4.85893 4.85893 0 0 0 0-6.83l-5.57-5.56a18.448 18.448 0 0 0 -.5 2.46c-.41 3.07-2.17 8.36-9.43 9.33-.64.09-1.27.2-1.89.35z"/></g></svg>