<svg id="Capa_1" enable-background="new 0 0 512 512" height="512" viewBox="0 0 512 512" width="512" xmlns="http://www.w3.org/2000/svg"><g><g><path d="m400.263 457.152c7.8 7.8 18.379 12.182 29.409 12.182h37.548c.871 0 1.368-.994.845-1.691l-21.192-28.256c-3.161-4.214-5.971-8.648-8.417-13.257-4.821-9.085-6.771-19.068-6.09-28.846-8.6 9.513-59.447 9.623-68.035.278.519 9.521-1.444 19.216-6.081 28.071-2.507 4.787-5.405 9.388-8.679 13.754l-21.192 28.256c-.522.697-.025 1.691.845 1.691h37.548c11.031 0 21.609-4.382 29.409-12.182l1.293-1.293c.413-.413 1.082-.413 1.494 0z" fill="#017297"/></g><path d="m420.984 451.235c-2.751 0-5.399-1.519-6.714-4.147l-2.173-4.346c-4.679-9.359-7.152-19.835-7.152-30.298v-15.161c0-4.142 3.358-7.5 7.5-7.5s7.5 3.358 7.5 7.5v15.161c0 8.146 1.926 16.303 5.569 23.589l2.173 4.345c1.853 3.705.352 8.209-3.354 10.062-1.077.54-2.222.795-3.349.795z" fill="#025f80"/><path d="m375.461 451.235c-1.127 0-2.271-.255-3.348-.793-3.705-1.852-5.207-6.357-3.354-10.062l2.173-4.346c3.643-7.286 5.568-15.443 5.568-23.589v-11.622c0-4.142 3.358-7.5 7.5-7.5s7.5 3.358 7.5 7.5v11.622c0 10.463-2.473 20.94-7.152 30.298l-2.173 4.345c-1.314 2.627-3.963 4.147-6.714 4.147z" fill="#025f80"/><g><path d="m142.526 59.972c-9.145-4.572-19.908-4.572-29.053 0-74.78 33.235-120.093 110.403-112.684 191.9l9.867 108.537c4.85 53.351 48.671 94.486 101.822 96.338.709.025 1.3-.552 1.3-1.261v-21.476c0-6.145-2.482-11.961-6.656-16.47-4.696-5.073-7.566-11.86-7.566-19.317v-56.889c0-15.709 12.735-28.444 28.444-28.444 15.709 0 28.444 12.735 28.444 28.444v56.889c0 7.458-2.87 14.245-7.566 19.317-4.175 4.51-6.656 10.325-6.656 16.47v21.476c0 .71.591 1.286 1.3 1.261 53.151-1.852 96.971-42.987 101.822-96.338l9.867-108.537c7.409-81.497-37.904-158.665-112.685-191.9z" fill="#b4d2e2"/></g><g><path d="m398.222 412.444c13.201 0 25.544-5.648 34.144-15.161.911-13.087 6.533-25.808 16.289-35.519 30.503-30.364 63.345-78.713 63.345-141.32 0-111.499-118.391-177.778-128-177.778s-99.555 68.386-99.555 177.778c0 61.731 33.172 110.404 63.804 141.098 9.829 9.849 15.361 22.766 16.083 36.019 8.588 9.345 20.818 14.883 33.89 14.883z" fill="#6cabca"/></g><g><path d="m384 42.667c-.694 0-1.808.357-3.275 1.06 37.888 28 90.067 82.091 90.067 156.113 0 62.606-32.842 110.955-63.345 141.32-6.829 6.798-11.632 15.07-14.212 23.911-3.855 13.21-14.411 23.55-27.949 26.021-.546.1-1.095.189-1.646.269.348 2.051.579 4.122.693 6.2 8.588 9.345 20.819 14.883 33.891 14.883 13.201 0 25.544-5.648 34.144-15.161.911-13.087 6.533-25.808 16.289-35.519 30.501-30.364 63.343-78.713 63.343-141.32 0-111.499-118.391-177.777-128-177.777z" fill="#3692bc"/></g><g><path d="m369.778 190.467c-2.658 2.334-5.636 4.351-8.889 5.978l-5.333 2.667-5.333-2.667c-3.254-1.627-6.231-3.644-8.889-5.978v32.42c0 21.202 8.423 41.536 23.415 56.528l5.03 5.03v-93.978z" fill="#0681af"/></g><g><path d="m130.975 85.965c-.943-.419-1.944-.631-2.975-.631-1.032 0-2.033.212-2.974.631-63.675 28.3-102.218 93.939-95.909 163.333l9.867 108.537c1.757 19.32 10.613 37.165 24.939 50.247 13.544 12.369 30.887 19.484 49.134 20.223-1.02-3.99-3.082-7.682-5.935-10.764-4.696-5.073-7.566-11.86-7.566-19.317v-56.889c0-15.709 12.735-28.444 28.444-28.444 15.709 0 28.444 12.735 28.444 28.444v56.889c0 7.458-2.87 14.245-7.566 19.317-2.853 3.082-4.915 6.774-5.935 10.764 18.248-.739 35.59-7.854 49.134-20.223 14.326-13.082 23.182-30.927 24.939-50.247l9.867-108.537c6.309-69.395-32.234-135.034-95.908-163.333z" fill="#fd6930"/></g><g><path d="m101.186 407.736c-9.86.642-19.686.139-29.339-.036-3.146-.127-6.265-.444-9.342-.945.466.447.938.89 1.416 1.326 13.544 12.369 30.887 19.484 49.134 20.223-1.02-3.99-3.082-7.682-5.935-10.764-2.593-2.803-4.63-6.13-5.934-9.804z" fill="#fd5426"/></g><g><path d="m130.975 85.965c-.943-.419-1.944-.631-2.975-.631-1.032 0-2.033.212-2.974.631-.207.092-.415.185-.621.278 42.512 33.495 66.332 86.763 61.27 142.451l-9.867 108.537c-1.516 16.673-8.32 32.248-19.363 44.61v16.383c0 7.458-2.87 14.245-7.566 19.317-2.853 3.082-4.915 6.774-5.935 10.764 18.248-.739 35.59-7.854 49.134-20.223 14.326-13.082 23.182-30.927 24.939-50.247l9.867-108.537c6.308-69.395-32.235-135.034-95.909-163.333z" fill="#fd5426"/></g><path d="m384 42.667c-1.403 0-4.517 1.458-8.814 4.286v19.173c0 10.518-3.893 20.6-10.962 28.389-2.784 3.067-2.554 7.811.513 10.594 1.437 1.304 3.24 1.946 5.038 1.946 2.042 0 4.076-.829 5.556-2.459 9.58-10.555 14.855-24.217 14.855-38.47v-21.371c-3.051-1.385-5.196-2.088-6.186-2.088z" fill="#3692bc"/><path d="m380.724 43.727c3.072 2.27 6.238 4.712 9.462 7.322v-6.294c-3.051-1.384-5.196-2.088-6.186-2.088-.694 0-1.808.357-3.276 1.06z" fill="#0681af"/><path d="m458.465 148.93c3.705-1.852 5.207-6.357 3.354-10.062s-6.356-5.207-10.062-3.354c-33.522 16.761-73.547 16.761-107.07 0-3.703-1.852-8.209-.35-10.062 3.354-1.853 3.705-.351 8.21 3.354 10.062 12.214 6.107 25.195 10.236 38.447 12.388-.787 12.159-7.874 22.91-18.892 28.419l-1.979.989-1.979-.989c-8.664-4.333-15.121-12.169-17.714-21.502-1.109-3.992-5.246-6.326-9.234-5.218-3.991 1.109-6.327 5.244-5.218 9.234 6.996 25.175 28.908 32.166 30.792 33.568 2.1 1.05 4.584 1.062 6.708 0 1.422-1.173 29.959-10.522 32.443-42.917 10.699.54 21.414-.183 31.909-2.151 11.276 13.581 24.35 35.28 24.35 62.865 0 33.434-16.167 58.277-29.729 73.231-5.925 6.533-9.502 15.142-10.074 24.241l-2.195 34.931c-.26 4.134 2.881 7.696 7.015 7.956.16.01.319.015.478.015 3.927 0 7.228-3.056 7.478-7.03l2.195-34.931c.359-5.717 2.566-11.081 6.214-15.104 15.336-16.91 33.617-45.09 33.617-83.308 0-28.444-11.768-51.258-23.418-66.87 6.581-2.089 13.027-4.694 19.272-7.817z" fill="#3692bc"/><path d="m407.446 341.16c-.325.323-.644.649-.96.979l-.872 13.881c-.26 4.134 2.881 7.696 7.015 7.956.16.01.319.015.478.015 3.927 0 7.228-3.056 7.478-7.03l2.032-32.328c-5.015 5.989-10.125 11.504-15.171 16.527z" fill="#0681af"/><path d="m461.398 146.313c1.401-2.157 1.654-4.978.421-7.445-1.03-2.06-2.88-3.438-4.956-3.938 1.633 3.712 3.15 7.507 4.535 11.383z" fill="#0681af"/><path d="m99.556 377.278v-15h-11.55c-15.841 0-31.57-3.998-45.488-11.561l-4.398-2.39.864 9.507c.263 2.89.685 5.748 1.26 8.561 14.86 7.133 31.258 10.883 47.762 10.883z" fill="#fd9468"/><path d="m99.556 390.722h-3.126c-15.017 0-29.899-2.268-44.233-6.74l-7.099-2.215c3 6.898 7.002 13.343 11.904 19.13 12.888 3.204 26.11 4.824 39.429 4.824h4.125c-.651-2.389-1-4.904-1-7.5z" fill="#fd9468"/><path d="m213.483 350.717c-13.918 7.563-29.648 11.561-45.488 11.561h-11.551v15h11.551c16.503 0 32.902-3.75 47.762-10.883.575-2.813.997-5.671 1.26-8.561l.864-9.507z" fill="#fd9468"/><path d="m222.336 299.317 1.991-21.902-6.127 5.703c-15.431 14.362-35.54 22.271-56.622 22.271h-26.078v-19.503c6.689 3.811 15.169 6.059 24.5 6.059 22.149 0 39.5-12.665 39.5-28.833s-17.351-28.834-39.5-28.834c-9.331 0-17.811 2.248-24.5 6.059v-6.615c5.954-2.197 10.69-6.933 12.887-12.888h14.881c19.49 0 37.826 10.382 47.853 27.094l13.796 22.994 1.966-21.624c.114-1.254.213-2.507.298-3.758l-3.197-5.329c-6.335-10.558-15.284-19.125-25.726-25.065 9.747-4.615 18.192-11.848 24.208-20.99-1.741-6.787-3.915-13.433-6.499-19.899l-3.181 6.62c-7.286 15.162-22.873 24.958-39.708 24.958h-24.69c-2.197-5.954-6.933-10.69-12.887-12.888v-7.352c7.485 4.256 17.246 6.795 28.056 6.795 24.144 0 43.056-12.665 43.056-28.833s-18.912-28.833-43.056-28.833c-10.81 0-20.571 2.539-28.056 6.795v-10.259c7.455-6.457 16.874-9.981 26.835-9.981h19.281c-5.197-5.354-10.783-10.369-16.73-15h-2.551c-9.531 0-18.699 2.363-26.835 6.811v-25.03c-1.494-.719-3.002-1.417-4.525-2.094-.943-.419-1.944-.631-2.975-.631-1.032 0-2.033.212-2.974.631-1.523.677-3.032 1.375-4.526 2.095v25.03c-8.136-4.448-17.304-6.811-26.835-6.811h-2.551c-5.947 4.631-11.532 9.646-16.73 15h19.281c9.961 0 19.381 3.523 26.835 9.981v10.259c-7.485-4.256-17.245-6.795-28.055-6.795-24.144 0-43.056 12.665-43.056 28.833s18.912 28.833 43.056 28.833c10.81 0 20.571-2.539 28.055-6.795v7.352c-5.954 2.197-10.69 6.933-12.887 12.887h-14.882c-.096 0-.192.001-.288.001l.001-.001h-9.521c-16.836 0-32.422-9.797-39.708-24.958l-3.182-6.62c-2.583 6.466-4.757 13.112-6.499 19.899 6.016 9.142 14.461 16.375 24.208 20.991-10.442 5.941-19.391 14.507-25.726 25.066l-3.198 5.329c.085 1.251.184 2.504.298 3.758l1.966 21.624 13.796-22.994c10.027-16.712 28.363-27.094 47.853-27.094h14.881c2.197 5.954 6.933 10.69 12.887 12.887v6.615c-6.689-3.811-15.169-6.059-24.5-6.059-22.149 0-39.5 12.665-39.5 28.834 0 16.168 17.351 28.833 39.5 28.833 9.331 0 17.811-2.248 24.5-6.059v19.503h-26.078c-21.082 0-41.191-7.909-56.621-22.271l-6.128-5.703 1.991 21.902c17.268 13.641 38.556 21.073 60.758 21.073h14.332c5.065-4.657 11.823-7.5 19.246-7.5 7.423 0 14.181 2.844 19.246 7.5h14.332c22.202-.002 43.49-7.433 60.758-21.074zm-58.78-149.595c16.058 0 28.056 7.303 28.056 13.833s-11.998 13.833-28.056 13.833-28.056-7.303-28.056-13.833 11.998-13.833 28.056-13.833zm-3.556 99.556c14.438 0 24.5 7.291 24.5 13.834s-10.062 13.833-24.5 13.833-24.5-7.29-24.5-13.833 10.062-13.834 24.5-13.834zm-64 27.666c-14.438 0-24.5-7.29-24.5-13.833s10.062-13.834 24.5-13.834 24.5 7.291 24.5 13.834-10.062 13.833-24.5 13.833zm-3.555-99.555c-16.058 0-28.056-7.303-28.056-13.833s11.998-13.833 28.056-13.833c16.057 0 28.055 7.303 28.055 13.833s-11.998 13.833-28.055 13.833zm35.555 42.667c-3.707 0-6.722-3.016-6.722-6.722s3.016-6.722 6.722-6.722c3.707 0 6.722 3.016 6.722 6.722s-3.016 6.722-6.722 6.722z" fill="#fd9468"/><path d="m162.617 348.833c19.818 0 39.25-5.023 56.542-14.572l1.681-18.495-4.779 2.941c-16.082 9.896-34.562 15.126-53.445 15.126h-7.172c.651 2.389.999 4.904.999 7.5v7.5z" fill="#fd9468"/><path d="m209.624 384.555c-1.72-.937-3.803-1.203-5.82-.572-14.334 4.472-29.216 6.74-44.233 6.74h-3.126v7.5c0 2.596-.348 5.11-1 7.5h4.125c13.318 0 26.54-1.62 39.428-4.824 4.236-5.002 7.8-10.494 10.626-16.344z" fill="#fd9468"/><path d="m39.938 318.707-4.779-2.941 1.681 18.495c17.291 9.549 36.724 14.572 56.542 14.572h6.173v-7.5c0-2.596.348-5.111.999-7.5h-7.172c-18.882 0-37.363-5.23-53.444-15.126z" fill="#fd9468"/><g fill="#fe7d43"><path d="m213.483 350.717c-13.565 7.372-28.851 11.355-44.282 11.553-2.411 5.314-5.422 10.348-8.985 15.008h7.779c16.503 0 32.902-3.75 47.762-10.883.575-2.813.997-5.671 1.26-8.561l.864-9.507z"/><path d="m147.348 108.293c3.63 4.248 7.033 8.674 10.199 13.26 1.578-.182 3.176-.275 4.789-.275h19.281c-5.197-5.354-10.783-10.369-16.73-15h-2.551c-5.137 0-10.168.686-14.988 2.015z"/><path d="m173.55 150.711c10.793 2.211 18.061 7.762 18.061 12.844 0 3.726-3.906 7.703-10.243 10.432 1.243 4.901 2.261 9.875 3.045 14.907 13.336-4.846 22.198-14.272 22.198-25.339 0-15.673-17.77-28.053-40.85-28.798 2.882 5.168 5.483 10.494 7.789 15.954z"/><path d="m199.5 263.111c0-9.319-5.765-17.475-14.89-22.712l-1.651 18.158c1.003 1.492 1.541 3.043 1.541 4.554 0 1.93-.875 3.924-2.48 5.777l-1.735 19.088c11.591-4.97 19.215-14.148 19.215-24.865z"/><path d="m124.404 86.242c3.855 3.037 7.556 6.237 11.095 9.586v-7.77c-1.494-.719-3.002-1.417-4.525-2.094-.943-.419-1.944-.631-2.975-.631-1.032 0-2.033.212-2.974.631-.207.093-.414.185-.621.278z"/><path d="m209.624 384.555c-1.72-.937-3.803-1.203-5.82-.572-14.334 4.472-29.216 6.74-44.233 6.74h-3.126v7.5c0 2.596-.348 5.11-1 7.5h4.125c13.318 0 26.54-1.62 39.428-4.824 4.236-5.002 7.8-10.494 10.626-16.344z"/><path d="m198.258 215.144c9.747-4.615 18.192-11.848 24.208-20.99-1.741-6.787-3.915-13.433-6.499-19.899l-3.181 6.62c-5.36 11.153-15.212 19.404-26.748 22.986.445 7.199.413 14.485-.117 21.819 10.336 4.609 19.238 12.309 25.201 22.248l13.796 22.994 1.966-21.624c.114-1.254.213-2.507.298-3.758l-3.197-5.329c-6.337-10.559-15.286-19.126-25.727-25.067z"/><path d="m220.841 315.767-4.779 2.941c-12.198 7.506-25.776 12.327-39.863 14.218l-.391 4.304c-.341 3.747-.949 7.438-1.812 11.05 15.835-1.546 31.198-6.305 45.164-14.018z"/><path d="m218.2 283.118c-11.138 10.367-24.714 17.371-39.333 20.466l-1.411 15.523c16.369-2.668 31.782-9.442 44.881-19.789l1.991-21.902z"/></g></g></svg>