<svg id="Layer_1" enable-background="new 0 0 256 256" height="512" viewBox="0 0 256 256" width="512" xmlns="http://www.w3.org/2000/svg"><g><g><g><g><path d="m214.905 60.276h-69.542c-23.248 0-42.094 18.846-42.094 42.094 0 23.248 18.846 42.094 42.094 42.094h43.673c7.265 0 13.154 5.889 13.154 13.154 0 7.265-5.889 13.154-13.154 13.154h-117.548c-9.809 0-19.511 2.031-28.496 5.966l-24.907 10.908c-5.788 2.535-9.527 8.254-9.527 14.572 0 8.786 7.123 15.909 15.909 15.909h167.727c30.513 0 55.249-24.736 55.249-55.249 0-30.513-24.736-55.249-55.249-55.249h-43.673c-5.812 0-10.524-4.712-10.524-10.524 0-5.812 4.712-10.524 10.524-10.524h63.921c19.33 0 35-15.67 35-35v-11.703c0-2.295-3.23-2.791-3.919-.602-3.93 12.498-15.516 21-28.618 21z" fill="#808285"/></g></g></g><g><g><g><path d="m180.442 178.773h-1c-1.104 0-2-.896-2-2s.896-2 2-2h1c1.104 0 2 .896 2 2s-.895 2-2 2zm-9 0h-61c-1.104 0-2-.896-2-2s.896-2 2-2h61c1.104 0 2 .896 2 2s-.895 2-2 2z" fill="#939598"/></g></g></g><g><g><g><g><path d="m225.931 119.143c7.211 9.334 11.511 21.03 11.511 33.737 0 30.513-24.736 55.249-55.249 55.249h-167.727c-1.775 0-3.476-.303-5.07-.839 2.118 6.297 8.058 10.839 15.07 10.839h167.727c30.513 0 55.249-24.736 55.249-55.249 0-17.805-8.432-33.633-21.511-43.737z" fill="#58595b"/></g></g></g><g><g><g><path d="m111.028 126.706c7.627 10.742 20.158 17.758 34.336 17.758h43.673c.976 0 1.924.114 2.839.316-1.299-5.899-6.55-10.316-12.839-10.316h-43.673c-9.071 0-17.464-2.878-24.336-7.758z" fill="#58595b"/></g></g></g><g><g><g><path d="m243.523 39.277c-1.506 4.787-4.141 8.98-7.548 12.342-4.314 14.439-17.691 24.967-33.533 24.967h-63.921c-5.812 0-10.524 4.711-10.524 10.523 0 5.644 4.446 10.237 10.025 10.499-.008-.166-.025-.33-.025-.499 0-5.812 4.712-10.523 10.524-10.523h63.921c19.33 0 35-15.67 35-35v-11.708c0-2.295-3.23-2.791-3.919-.601z" fill="#58595b"/></g></g></g></g><g><g><g><g><path d="m228.671 121.403c8.566 9.732 13.772 22.493 13.772 36.477 0 30.513-24.736 55.249-55.249 55.249h-167.728c-3.112 0-6.005-.907-8.457-2.451 2.816 4.471 7.783 7.451 13.457 7.451h167.727c30.513 0 55.249-24.736 55.249-55.249 0-16.529-7.268-31.352-18.771-41.477z" fill="#414042"/></g></g></g><g><g><g><path d="m145.364 144.464h43.673c2.348 0 4.547.622 6.455 1.7-2.257-3.997-6.537-6.7-11.455-6.7h-43.673c-10.351 0-19.823-3.743-27.154-9.94 7.721 9.134 19.257 14.94 32.154 14.94z" fill="#414042"/></g></g></g><g><g><g><path d="m243.523 39.277c-.309.982-.681 1.929-1.081 2.859v4.449c0 19.33-15.67 35-35 35h-63.921c-5.812 0-10.524 4.711-10.524 10.523 0 4.199 2.465 7.813 6.022 9.501-.649-1.366-1.022-2.888-1.022-4.501 0-5.812 4.712-10.523 10.524-10.523h63.921c19.33 0 35-15.67 35-35v-11.707c0-2.295-3.23-2.791-3.919-.601z" fill="#414042"/></g></g></g></g><g><g><g><path d="m75.281 170.773h-3.793c-9.809 0-19.512 2.032-28.497 5.967l-24.907 10.908c-5.788 2.535-9.527 8.254-9.527 14.572 0 8.786 7.123 15.909 15.909 15.909h50.815c13.077 0 23.678-10.601 23.678-23.678 0-13.077-10.601-23.678-23.678-23.678z" fill="#939598"/></g></g></g><g><g><g><g><circle cx="38.286" cy="193.641" fill="#e6e7e8" r="9"/></g></g></g><g><g><g><circle cx="38.286" cy="193.641" fill="#58595b" r="4.68"/></g></g></g></g><g><g><g><path d="m73.39 193.641c0-2.438 1.697-4.547 4.078-5.068l28.556-6.252c3.118-.683 6.069 1.692 6.069 4.884v12.873c0 3.192-2.951 5.567-6.069 4.884l-28.556-6.252c-2.38-.522-4.078-2.631-4.078-5.069z" fill="#58595b"/></g></g></g><g><g><g><path d="m106.025 182.32-1.754.384c1.649.801 2.824 2.487 2.824 4.5v12.873c0 2.013-1.175 3.699-2.824 4.5l1.754.384c3.118.683 6.069-1.692 6.069-4.884v-12.873c0-3.192-2.951-5.567-6.069-4.884z" fill="#414042"/></g></g></g><g><g><g><path d="m175.442 170.773h-97v-3.311c0-5.523 4.477-10 10-10h53.408c8.863 0 17.529 2.62 24.907 7.531z" fill="#58595b"/></g></g></g><g><g><g><path d="m166.758 164.993c-7.379-4.911-16.044-7.531-24.907-7.531h-10c8.863 0 17.529 2.62 24.907 7.531l8.685 5.78h10z" fill="#414042"/></g></g></g><g><g><g><g><path d="m63.576 218.129c.149-5.694-.887-11.407-3.132-16.827-.422-1.021-1.592-1.507-2.613-1.083-1.021.422-1.505 1.592-1.083 2.613 2.04 4.927 2.975 10.122 2.826 15.297z" fill="#58595b"/></g></g></g><g><g><g><path d="m67.986 200.219c-1.021.422-1.505 1.592-1.083 2.613 2.04 4.927 2.975 10.122 2.826 15.297h4.002c.149-5.694-.887-11.407-3.132-16.827-.422-1.021-1.592-1.507-2.613-1.083z" fill="#58595b"/></g></g></g></g></g></svg>