<svg id="Capa_1" enable-background="new 0 0 512 512" height="512" viewBox="0 0 512 512" width="512" xmlns="http://www.w3.org/2000/svg"><g><path d="m512 256c0 141.38-114.62 256-256 256-19.46 0-38.42-2.17-56.63-6.29-6.8-1.535 2.315-19.15-4.263-21.214s-28.852 11.424-35.187 8.854c-6.35-2.57-12.58-5.39-18.66-8.45-13.68-6.868-18.068-30.967-30.207-40.078-9.442-7.086-26.968 1.233-35.333-7.062-9.79-9.72-18.81-20.22-26.93-31.41-8.9-12.23 4.86-41.915-1.78-55.645-4.65-9.61-30.31-2.925-33.74-13.155-8.61-25.61-13.27-53.04-13.27-81.55 0-141.38 114.62-256 256-256s256 114.62 256 256z" fill="#a185d6"/><path d="m279.708 61.1c-57.118-57.118-149.723-57.118-206.841 0s-57.118 149.723 0 206.841 149.723 57.118 206.841 0 57.117-149.724 0-206.841zm-8.737 104.119c19.356 5.186 32.285 19.696 28.878 32.409-3.406 12.713-21.859 18.815-41.214 13.628-19.355-5.186-32.285-19.696-28.879-32.409 3.407-12.713 21.86-18.814 41.215-13.628zm-189.367-1.398c-19.355-5.186-32.285-19.697-28.878-32.409 3.406-12.713 21.859-18.814 41.214-13.628s32.285 19.696 28.878 32.409-21.859 18.814-41.214 13.628zm80.356-52.771c-12.713 3.406-27.223-9.523-32.409-28.879s.915-37.808 13.628-41.214 27.223 9.523 32.409 28.879c5.187 19.356-.915 37.808-13.628 41.214zm2.316 49.444c-6.506-6.506-6.506-17.053 0-23.559s17.053-6.506 23.559 0 6.506 17.053 0 23.559-17.054 6.506-23.559 0zm14.175 20.165c3.859 3.859 3.859 10.117 0 13.976s-10.116 3.859-13.976 0c-3.859-3.859-3.859-10.116 0-13.976 3.86-3.859 10.117-3.859 13.976 0zm-92.617 74.315c-9.306-9.307-5.365-28.337 8.805-42.506s33.2-18.111 42.506-8.805 5.365 28.337-8.805 42.506c-14.169 14.169-33.2 18.111-42.506 8.805zm129.596-129.596c-9.306-9.306-5.364-28.337 8.805-42.506s33.2-18.111 42.507-8.805c9.306 9.306 5.364 28.337-8.805 42.507-14.17 14.168-33.201 18.11-42.507 8.804zm-6.034 162.704c-12.713 3.406-27.223-9.523-32.409-28.878-5.186-19.356.915-37.808 13.628-41.214s27.223 9.523 32.409 28.878-.915 37.808-13.628 41.214z" fill="#fed2a4"/><g><path d="m487.855 112.937 9.502-9.502c11.617-11.617 11.617-30.451 0-42.067l-47.642-47.642c-11.617-11.617-30.451-11.617-42.067 0l-9.502 9.502c-49.123-16.245-105.387-4.836-144.466 34.244l-122.22 122.22c-55.209 55.209-55.209 144.722 0 199.931 55.209 55.209 144.722 55.209 199.931 0l122.221-122.221c39.079-39.078 50.488-95.343 34.243-144.465z" fill="#fe9738"/><path d="m131.464 379.629c-55.211-55.211-55.218-144.724-.007-199.935l122.223-122.222c39.075-39.075 95.346-50.488 144.462-34.238l9.503-9.503c11.618-11.618 30.455-11.618 42.073 0l14.715 14.715c-4.434-4.434-17.451 1.386-29.069 13.004l-9.503 9.503c-28.921 3.946-71.333 29.218-110.408 68.292l-122.223 122.223c-55.211 55.211-82.866 117.061-61.766 138.161z" fill="#fe7d43"/></g><path d="m424.74 229.924c-57.118-57.118-149.723-57.118-206.841 0s-57.118 149.723 0 206.841 149.723 57.118 206.841 0 57.117-149.723 0-206.841zm-8.737 104.12c19.356 5.186 32.285 19.696 28.878 32.409-3.406 12.713-21.859 18.815-41.214 13.628-19.355-5.186-32.285-19.696-28.879-32.409 3.407-12.713 21.859-18.814 41.215-13.628zm-189.368-1.398c-19.355-5.186-32.285-19.697-28.878-32.409 3.406-12.713 21.859-18.814 41.214-13.628s32.285 19.696 28.878 32.409c-3.406 12.712-21.858 18.814-41.214 13.628zm80.357-52.771c-12.713 3.406-27.223-9.523-32.409-28.879s.915-37.808 13.628-41.214 27.223 9.523 32.409 28.879-.915 37.808-13.628 41.214zm2.315 49.444c-6.506-6.506-6.506-17.053 0-23.559s17.053-6.506 23.559 0 6.506 17.053 0 23.559c-6.505 6.506-17.053 6.506-23.559 0zm14.176 20.165c3.859 3.859 3.859 10.117 0 13.976s-10.116 3.859-13.976 0c-3.859-3.859-3.859-10.116 0-13.976 3.859-3.859 10.116-3.859 13.976 0zm-92.618 74.314c-9.306-9.306-5.365-28.337 8.805-42.506 14.169-14.169 33.2-18.111 42.506-8.805s5.365 28.337-8.805 42.506-33.199 18.112-42.506 8.805zm129.597-129.596c-9.306-9.306-5.364-28.337 8.805-42.506s33.2-18.111 42.507-8.805c9.306 9.306 5.364 28.337-8.805 42.507-14.17 14.169-33.201 18.111-42.507 8.804zm-6.035 162.705c-12.713 3.406-27.223-9.523-32.409-28.878-5.186-19.356.915-37.808 13.628-41.214s27.223 9.523 32.409 28.878c5.187 19.355-.915 37.807-13.628 41.214z" fill="#fed2a4"/><path d="m156.8 219.48c-71.12 0-130.39 50.78-143.53 118.07 8.34 24.86 20.4 48.01 35.52 68.8 3.74-5.78 9.49-11.24 16.74-15.43 17.35-10.02 36.75-8.9 43.33 2.5s-2.15 28.76-19.5 38.78c-4.5 2.6-9.13 4.45-13.64 5.56 19.12 18.96 41.22 34.93 65.54 47.14-5.07-6.66-8.29-16.52-8.29-27.52 0-20.04 10.67-36.28 23.83-36.28 13.17 0 23.83 16.24 23.83 36.28 0 18.43-9.02 33.65-20.71 35.97 12.67 5.14 25.85 9.29 39.45 12.36 60.01-18.23 103.69-74 103.69-139.97 0-80.77-65.48-146.26-146.26-146.26zm-47.94 118.58c-6.58 11.4-25.98 12.52-43.33 2.5-17.36-10.02-26.09-27.38-19.51-38.78s25.98-12.51 43.34-2.5c17.35 10.02 26.08 27.39 19.5 38.78zm36.6 33.33c-9.2 0-16.66-7.46-16.66-16.66s7.46-16.66 16.66-16.66 16.66 7.46 16.66 16.66-7.46 16.66-16.66 16.66zm24.29 24c-5.46 0-9.89-4.43-9.89-9.88 0-5.46 4.43-9.89 9.89-9.89 5.45 0 9.88 4.43 9.88 9.89 0 5.45-4.43 9.88-9.88 9.88zm-12.95-85c-13.16 0-23.83-16.25-23.83-36.29s10.67-36.28 23.83-36.28c13.17 0 23.83 16.24 23.83 36.28s-10.66 36.29-23.83 36.29zm67.45-11.11c17.35-10.01 36.76-8.9 43.34 2.5s-2.16 28.76-19.51 38.78-36.76 8.9-43.34-2.5c-6.58-11.39 2.16-28.76 19.51-38.78zm43.34 130.42c-6.58 11.4-25.99 12.52-43.34 2.5s-26.09-27.38-19.51-38.78 25.99-12.52 43.34-2.5 26.09 27.38 19.51 38.78z" fill="#ffe5c2"/><path d="m164.24 219.67c-2.47-.13-4.95-.19-7.44-.19-71.13 0-130.4 50.78-143.53 118.07 3.43 10.23 7.5 20.18 12.15 29.79-.01-.53-.01-1.07-.01-1.6 0-78.29 61.51-142.21 138.83-146.07z" fill="#fed2a4"/></g></svg>