<?xml version="1.0" encoding="UTF-8" standalone="no"?>
<!-- Created with Inkscape (http://www.inkscape.org/) -->

<svg
   version="1.1"
   id="svg7302"
   xml:space="preserve"
   width="682.66669"
   height="682.66669"
   viewBox="0 0 682.66669 682.66669"
   xmlns="http://www.w3.org/2000/svg"
   xmlns:svg="http://www.w3.org/2000/svg"><defs
     id="defs7306"><clipPath
       clipPathUnits="userSpaceOnUse"
       id="clipPath7316"><path
         d="M 0,512 H 512 V 0 H 0 Z"
         id="path7314" /></clipPath></defs><g
     id="g7308"
     transform="matrix(1.3333333,0,0,-1.3333333,0,682.66667)"><g
       id="g7310"><g
         id="g7312"
         clip-path="url(#clipPath7316)"><g
           id="g7318"
           transform="translate(42.0698,296.8975)"><path
             d="m 0,0 v -143.273 c 0,-41.975 34.159,-76.124 76.146,-76.124 H 214.694 V -50.896 L 256.344,0 232.136,20 H 24.144 Z"
             style="fill:#fc8a3d;fill-opacity:1;fill-rule:nonzero;stroke:none"
             id="path7320" /></g><g
           id="g7322"
           transform="translate(187.5337,434.5)"><path
             d="m 0,0 c -45.058,0 -89.778,-6.145 -132.918,-18.263 -34.266,-9.628 -54.322,-45.348 -44.709,-79.629 4.894,-17.462 16.819,-31.613 32.163,-39.711 H 110.88 V -30.729 L 137.003,0 Z"
             style="fill:#ffb357;fill-opacity:1;fill-rule:nonzero;stroke:none"
             id="path7324" /></g><g
           id="g7326"
           transform="translate(191.6182,416.2363)"><path
             d="m 0,0 c 43.14,12.119 87.86,18.264 132.918,18.264 44.984,0 89.676,-6.145 132.832,-18.264 34.278,-9.625 54.341,-45.348 44.725,-79.627 -4.896,-17.46 -16.825,-31.608 -32.18,-39.703 v -143.282 c 0,-41.975 -34.159,-76.124 -76.147,-76.124 H 63.601 c -41.988,0 -76.147,34.149 -76.147,76.124 v 143.273 c -15.344,8.098 -27.269,22.248 -32.163,39.711 C -54.322,-45.348 -34.266,-9.627 0,0"
             style="fill:#ffce71;fill-opacity:1;fill-rule:nonzero;stroke:none"
             id="path7328" /></g><g
           id="g7330"
           transform="translate(449.2559,387.3633)"><path
             d="m 0,0 c -35.989,10.106 -72.559,15.619 -108.853,16.862 l -45.866,-45.867 v -204.706 l 46.16,-46.16 h 53.07 c 25.485,0 46.146,20.653 46.146,46.132 V -67.91 C 5.771,-67.917 19.666,-57.938 23.95,-42.66 29.111,-24.263 18.389,-5.164 0,0"
             style="fill:#fff1d4;fill-opacity:1;fill-rule:nonzero;stroke:none"
             id="path7332" /></g><g
           id="g7334"
           transform="translate(324.5366,144.293)"><path
             d="m 0,0 v 223.412 c 0,14.414 6.108,27.396 15.867,36.521 -48.037,1.645 -95.59,-4.199 -140.669,-16.863 -18.38,-5.164 -29.098,-24.262 -23.939,-42.66 4.281,-15.272 18.156,-25.26 33.259,-25.26 0.006,0 0.012,0.001 0.018,0.001 V 9.331 c 0,-25.478 20.66,-46.132 46.146,-46.132 H 16.161 C 6.228,-27.663 0,-14.561 0,0"
             style="fill:#fce3a0;fill-opacity:1;fill-rule:nonzero;stroke:none"
             id="path7336" /></g><g
           id="g7338"
           transform="translate(278.2666,238.2842)"><path
             d="m 0,0 c 0,-10.995 -11.193,-19.909 -25,-19.909 -13.807,0 -25,8.914 -25,19.909 0,10.995 11.193,19.908 25,19.908 13.807,0 25,-8.913 25,-19.908"
             style="fill:#ff8e9e;fill-opacity:1;fill-rule:nonzero;stroke:none"
             id="path7340" /></g><g
           id="g7342"
           transform="translate(370.7187,238.2842)"><path
             d="m 0,0 c 0,-10.995 11.193,-19.909 25,-19.909 13.808,0 25,8.914 25,19.909 C 50,10.995 38.808,19.908 25,19.908 11.193,19.908 0,10.995 0,0"
             style="fill:#ff8e9e;fill-opacity:1;fill-rule:nonzero;stroke:none"
             id="path7344" /></g><g
           id="g7346"
           transform="translate(459.3955,423.457)"><path
             d="m 0,0 c -6.487,1.821 -13.101,3.533 -19.656,5.089 -4.034,0.955 -8.073,-1.537 -9.03,-5.568 -0.956,-4.03 1.537,-8.072 5.567,-9.028 6.358,-1.508 12.772,-3.168 19.064,-4.934 24.529,-6.888 41.659,-29.499 41.659,-54.987 0,-21.404 -12.044,-40.715 -30.583,-50.488 -2.462,-1.298 -4.003,-3.852 -4.003,-6.635 v -143.282 c 0,-37.84 -30.795,-68.624 -68.647,-68.624 h -138.548 c -37.851,0 -68.646,30.784 -68.646,68.624 v 143.273 c 0,2.782 -1.54,5.335 -4,6.633 -18.48,9.753 -30.57,29.034 -30.57,50.496 0,25.489 17.125,48.101 41.644,54.99 42.479,11.933 86.517,17.984 130.89,17.984 27.709,0 55.568,-2.395 82.806,-7.116 4.081,-0.71 7.964,2.027 8.671,6.108 0.708,4.081 -2.027,7.964 -6.108,8.671 -28.082,4.868 -56.803,7.337 -85.368,7.337 h -137.003 c -45.744,0 -91.147,-6.239 -134.947,-18.543 -38.244,-10.745 -60.63,-50.614 -49.902,-88.874 4.892,-17.454 16.403,-32.533 31.884,-42.021 v -138.938 c 0,-46.11 37.524,-83.624 83.647,-83.624 h 10.112 c 4.142,0 7.5,3.357 7.5,7.5 0,4.143 -3.358,7.5 -7.5,7.5 h -10.112 c -37.852,0 -68.647,30.784 -68.647,68.624 v 135.773 h 49.503 c 4.142,0 7.5,3.358 7.5,7.5 0,4.143 -3.358,7.5 -7.5,7.5 h -55.047 c -13.094,7.44 -22.856,19.816 -26.897,34.236 -8.497,30.301 9.231,61.874 39.517,70.383 42.479,11.933 86.516,17.984 130.889,17.984 h 15.448 c -4.479,-1.124 -8.946,-2.294 -13.393,-3.543 -30.962,-8.699 -52.587,-37.25 -52.587,-69.431 0,-25.571 13.561,-48.615 34.57,-61.484 v -138.918 c 0,-28.388 14.234,-53.501 35.929,-68.624 h -49.173 c -4.142,0 -7.5,-3.357 -7.5,-7.5 0,-4.143 3.358,-7.5 7.5,-7.5 h 235.438 c 46.123,0 83.647,37.514 83.647,83.624 v 138.925 c 21.05,12.881 34.586,35.942 34.586,61.48 C 52.604,-37.247 30.973,-8.697 0,0"
             style="fill:#000000;fill-opacity:1;fill-rule:nonzero;stroke:none"
             id="path7348" /></g><g
           id="g7350"
           transform="translate(183.0171,346.7275)"><path
             d="m 0,0 c -4.034,14.388 4.375,29.378 18.746,33.415 40.136,11.276 81.424,16.914 122.717,16.914 41.293,0 82.592,-5.638 122.748,-16.914 14.378,-4.038 22.792,-19.027 18.756,-33.414 -3.265,-11.646 -13.977,-19.775 -26.053,-19.775 -0.005,0.001 -0.014,0.003 -0.018,0 -4.145,0 -7.5,-3.366 -7.5,-7.5 v -165.83 c 0,-21.301 -17.337,-38.631 -38.646,-38.631 H 72.202 c -21.31,0 -38.647,17.33 -38.647,38.631 v 165.82 c 0,4.142 -3.375,7.5 -7.517,7.5 C 13.972,-19.784 3.265,-11.648 0,0 M 72.202,-246.735 H 210.75 c 29.581,0 53.646,24.059 53.646,53.631 v 159.006 c 15.584,2.844 28.628,14.406 33.015,30.048 6.268,22.348 -6.805,45.633 -29.145,51.906 -82.964,23.297 -170.65,23.297 -253.578,0 -22.329,-6.274 -35.397,-29.558 -29.131,-51.905 4.384,-15.642 17.416,-27.207 32.998,-30.055 v -159 c 0,-29.572 24.066,-53.631 53.647,-53.631"
             style="fill:#000000;fill-opacity:1;fill-rule:nonzero;stroke:none"
             id="path7352" /></g><g
           id="g7354"
           transform="translate(286.5898,259.8428)"><path
             d="m 0,0 c 2.722,3.122 2.396,7.86 -0.726,10.581 -3.123,2.724 -7.859,2.398 -10.582,-0.726 -4.393,-5.04 -12.195,-5.037 -16.585,0 -2.722,3.124 -7.46,3.449 -10.582,0.726 C -41.597,7.86 -41.922,3.122 -39.201,0 -28.83,-11.899 -10.361,-11.89 0,0"
             style="fill:#000000;fill-opacity:1;fill-rule:nonzero;stroke:none"
             id="path7356" /></g><g
           id="g7358"
           transform="translate(362.3955,259.8428)"><path
             d="m 0,0 c 10.369,-11.899 28.841,-11.89 39.201,0 2.722,3.123 2.396,7.86 -0.726,10.582 -3.124,2.722 -7.861,2.397 -10.582,-0.727 -4.392,-5.04 -12.197,-5.037 -16.584,0 C 8.587,12.978 3.849,13.303 0.727,10.582 -2.396,7.86 -2.722,3.123 0,0"
             style="fill:#000000;fill-opacity:1;fill-rule:nonzero;stroke:none"
             id="path7360" /></g><g
           id="g7362"
           transform="translate(347.3633,251.6787)"><path
             d="m 0,0 c 2.722,3.123 2.396,7.86 -0.727,10.582 -3.125,2.722 -7.861,2.396 -10.582,-0.727 -6.166,-7.075 -17.118,-7.067 -23.278,0 -2.722,3.123 -7.46,3.448 -10.582,0.727 C -48.292,7.86 -48.617,3.123 -45.896,0 -33.751,-13.935 -12.131,-13.921 0,0"
             style="fill:#000000;fill-opacity:1;fill-rule:nonzero;stroke:none"
             id="path7364" /></g><g
           id="g7366"
           transform="translate(217.4429,345.3105)"><path
             d="M 0,0 C 4.142,0 7.5,3.357 7.5,7.5 7.5,11.643 4.142,15 0,15 -4.142,15 -7.5,11.643 -7.5,7.5 -7.5,3.357 -4.142,0 0,0"
             style="fill:#000000;fill-opacity:1;fill-rule:nonzero;stroke:none"
             id="path7368" /></g><g
           id="g7370"
           transform="translate(277.4429,305.3105)"><path
             d="M 0,0 C 4.142,0 7.5,3.357 7.5,7.5 7.5,11.643 4.142,15 0,15 -4.142,15 -7.5,11.643 -7.5,7.5 -7.5,3.357 -4.142,0 0,0"
             style="fill:#000000;fill-opacity:1;fill-rule:nonzero;stroke:none"
             id="path7372" /></g><g
           id="g7374"
           transform="translate(327.4424,365.3105)"><path
             d="M 0,0 C 4.143,0 7.5,3.357 7.5,7.5 7.5,11.643 4.143,15 0,15 -4.142,15 -7.5,11.643 -7.5,7.5 -7.5,3.357 -4.142,0 0,0"
             style="fill:#000000;fill-opacity:1;fill-rule:nonzero;stroke:none"
             id="path7376" /></g><g
           id="g7378"
           transform="translate(357.4424,325.3105)"><path
             d="M 0,0 C 4.143,0 7.5,3.357 7.5,7.5 7.5,11.643 4.143,15 0,15 -4.142,15 -7.5,11.643 -7.5,7.5 -7.5,3.357 -4.142,0 0,0"
             style="fill:#000000;fill-opacity:1;fill-rule:nonzero;stroke:none"
             id="path7380" /></g><g
           id="g7382"
           transform="translate(427.4424,355.3105)"><path
             d="M 0,0 C 4.143,0 7.5,3.357 7.5,7.5 7.5,11.643 4.143,15 0,15 -4.142,15 -7.5,11.643 -7.5,7.5 -7.5,3.357 -4.142,0 0,0"
             style="fill:#000000;fill-opacity:1;fill-rule:nonzero;stroke:none"
             id="path7384" /></g><g
           id="g7386"
           transform="translate(412.4424,195.3105)"><path
             d="M 0,0 C 4.143,0 7.5,3.357 7.5,7.5 7.5,11.643 4.143,15 0,15 -4.142,15 -7.5,11.643 -7.5,7.5 -7.5,3.357 -4.142,0 0,0"
             style="fill:#000000;fill-opacity:1;fill-rule:nonzero;stroke:none"
             id="path7388" /></g><g
           id="g7390"
           transform="translate(362.4424,200.3105)"><path
             d="m 0,0 c -4.142,0 -7.5,-3.357 -7.5,-7.5 0,-4.143 3.358,-7.5 7.5,-7.5 4.143,0 7.5,3.357 7.5,7.5 C 7.5,-3.357 4.143,0 0,0"
             style="fill:#000000;fill-opacity:1;fill-rule:nonzero;stroke:none"
             id="path7392" /></g><g
           id="g7394"
           transform="translate(402.4424,150.3105)"><path
             d="m 0,0 c -4.142,0 -7.5,-3.357 -7.5,-7.5 0,-4.143 3.358,-7.5 7.5,-7.5 4.143,0 7.5,3.357 7.5,7.5 C 7.5,-3.357 4.143,0 0,0"
             style="fill:#000000;fill-opacity:1;fill-rule:nonzero;stroke:none"
             id="path7396" /></g><g
           id="g7398"
           transform="translate(302.4429,135.3105)"><path
             d="M 0,0 C 4.142,0 7.5,3.357 7.5,7.5 7.5,11.643 4.142,15 0,15 -4.142,15 -7.5,11.643 -7.5,7.5 -7.5,3.357 -4.142,0 0,0"
             style="fill:#000000;fill-opacity:1;fill-rule:nonzero;stroke:none"
             id="path7400" /></g><g
           id="g7402"
           transform="translate(272.4429,220.3105)"><path
             d="m 0,0 c -4.142,0 -7.5,-3.357 -7.5,-7.5 0,-4.143 3.358,-7.5 7.5,-7.5 4.142,0 7.5,3.357 7.5,7.5 C 7.5,-3.357 4.142,0 0,0"
             style="fill:#000000;fill-opacity:1;fill-rule:nonzero;stroke:none"
             id="path7404" /></g><g
           id="g7406"
           transform="translate(242.4429,155.3105)"><path
             d="M 0,0 C 4.142,0 7.5,3.357 7.5,7.5 7.5,11.643 4.142,15 0,15 -4.142,15 -7.5,11.643 -7.5,7.5 -7.5,3.357 -4.142,0 0,0"
             style="fill:#000000;fill-opacity:1;fill-rule:nonzero;stroke:none"
             id="path7408" /></g></g></g></g></svg>
