<svg id="Layer_1" enable-background="new 0 0 512 512" height="512" viewBox="0 0 512 512" width="512" xmlns="http://www.w3.org/2000/svg"><g><g><path d="m337.53 466.573c-59.487-59.584-43.36-172.341-43.36-172.341s112.575-16.154 172.062 43.43 43.36 172.341 43.36 172.341-112.575 16.154-172.062-43.43z" fill="#4fc123"/><path d="m422.017 170.967c-21.774 81.393-127.33 123.782-127.33 123.782s-70.254-89.574-48.481-170.967 127.33-123.782 127.33-123.782 70.254 89.574 48.481 170.967z" fill="#4fc123"/><g><g><path d="m123.996 246.19c81.261-21.809 170.69 48.559 170.69 48.559s-42.321 105.728-123.582 127.537-170.689-48.559-170.689-48.559 42.32-105.728 123.581-127.537z" fill="#4fc123"/><path d="m473.765 463.183-35.806-35.864c.489-.039.959-.056 1.398-.056 6.796 0 14.461 3.615 20.506 9.67 3.014 3.019 7.906 3.025 10.927.009 3.02-3.015 3.024-7.907.009-10.927-9.012-9.028-20.472-14.205-31.442-14.205-4.966 0-9.633 1.116-13.67 3.217l-43.802-43.873c4.736-2.335 9.72-2.938 13.597-2.938 13.401 0 28.355 6.965 40.001 18.63 3.015 3.019 7.907 3.025 10.927.009 3.02-3.015 3.024-7.907.009-10.927-14.697-14.721-33.263-23.165-50.937-23.165-9.446 0-17.913 2.428-24.885 7.084l-67.296-67.405 25.665-95.937c.622.029 1.245.044 1.869.044 10.196 0 20.525-3.924 29.884-11.494 11.807-9.549 20.747-23.925 25.176-40.479 1.103-4.122-1.345-8.358-5.467-9.46-4.121-1.101-8.358 1.346-9.461 5.467-3.591 13.421-10.681 24.948-19.966 32.458-5.77 4.667-11.906 7.357-17.879 7.924l16.03-59.921c5.992-.436 12.027-2.901 17.354-7.209 7.285-5.892 12.789-14.714 15.499-24.843 1.103-4.122-1.345-8.358-5.467-9.461-4.122-1.102-8.358 1.345-9.461 5.467-1.845 6.894-5.595 13.025-10.289 16.822-.778.629-1.816 1.378-3.041 2.048l12.137-45.368c1.103-4.122-1.345-8.358-5.467-9.461-4.122-1.101-8.358 1.346-9.461 5.467l-12.448 46.532c-4.228-5.453-5.705-14.977-3.14-24.562 1.103-4.122-1.345-8.358-5.467-9.461s-8.358 1.345-9.461 5.467c-5.124 19.152.813 37.427 13.663 45.022l-16.032 59.929c-13.919-8.658-20.088-31.336-13.82-54.766 1.103-4.122-1.345-8.358-5.467-9.461-4.121-1.104-8.358 1.345-9.461 5.467-4.429 16.553-3.862 33.479 1.595 47.658 4.791 12.449 12.842 21.619 23.05 26.439l-25.595 95.674-95.286 25.573c-4.873-9.983-13.931-17.859-26.156-22.579-14.162-5.468-31.065-6.036-47.603-1.599-4.121 1.106-6.565 5.344-5.46 9.465 1.108 4.121 5.346 6.568 9.466 5.459 13.393-3.596 26.898-3.208 38.031 1.09 7.271 2.807 12.856 7.057 16.306 12.3l-59.826 16.056c-3.353-5.32-8.688-9.595-15.388-12.182-8.739-3.376-19.125-3.738-29.244-1.023-4.121 1.106-6.565 5.344-5.459 9.465s5.342 6.567 9.465 5.459c6.876-1.847 14.045-1.659 19.673.514 1.185.458 2.745 1.181 4.256 2.248l-46.327 12.434c-4.121 1.106-6.565 5.344-5.46 9.465.927 3.451 4.047 5.726 7.458 5.726.663 0 1.337-.086 2.008-.266l46.108-12.375c-2.93 6.033-10.142 11.606-19.225 14.044-4.121 1.106-6.565 5.344-5.459 9.465.926 3.45 4.046 5.725 7.457 5.725.663 0 1.337-.086 2.008-.266 18.757-5.034 31.466-18.871 32.085-33.495l59.794-16.048c-1.064 16.126-17.412 32.347-40.389 38.513-4.121 1.106-6.565 5.344-5.46 9.465.927 3.45 4.047 5.725 7.458 5.725.663 0 1.337-.086 2.008-.266 16.532-4.437 30.887-13.394 40.422-25.22 8.157-10.119 12.072-21.367 11.395-32.36l95.346-25.589 67.3 67.409c-6.138 9.2-8.393 20.949-6.37 33.856 2.352 15.014 10.312 29.956 22.411 42.075 1.509 1.512 3.488 2.268 5.468 2.268 1.975 0 3.951-.753 5.459-2.259 3.02-3.015 3.024-7.907.009-10.927-16.874-16.901-22.923-39.219-15.697-53.715l43.778 43.85c-6.863 12.981-2.786 31.405 10.988 45.202 1.509 1.512 3.488 2.268 5.468 2.268 1.975 0 3.951-.753 5.459-2.259 3.02-3.015 3.024-7.907.009-10.927-6.711-6.721-10.18-15.252-9.633-21.974l35.805 35.863c1.509 1.512 3.488 2.268 5.468 2.268 1.975 0 3.951-.753 5.459-2.259 3.02-3.012 3.024-7.904.009-10.923z" fill="#47a920"/></g></g></g><g><path d="m271.772 207.21c29.804 29.853 21.724 86.347 21.724 86.347s-56.403 8.093-86.207-21.759c-29.804-29.853-21.724-86.347-21.724-86.347s56.402-8.094 86.207 21.759z" fill="#97da7b"/><path d="m271.772 207.21c-29.805-29.853-86.207-21.759-86.207-21.759s-.043.303-.112.876c15.652 2.593 32.691 8.443 45.112 20.884 27.623 27.668 22.704 78.22 21.836 85.471 21.907 3.629 41.095.876 41.095.876s8.08-56.495-21.724-86.348z" fill="#80d261"/><path d="m229.442 355.315c10.909-40.78 63.795-62.018 63.795-62.018s35.199 44.879 24.29 85.658-63.795 62.018-63.795 62.018-35.199-44.878-24.29-85.658z" fill="#97da7b"/><path d="m293.237 293.298s-14.625 5.873-30.079 17.372c9.23 16.799 19.843 43.311 13.162 68.286-5.173 19.335-19.782 34.277-33.716 44.645 5.841 10.631 11.128 17.372 11.128 17.372s52.886-21.238 63.795-62.018c10.909-40.779-24.29-85.657-24.29-85.657z" fill="#80d261"/><g><g><path d="m378.757 317.627c-40.714 10.927-85.52-24.329-85.52-24.329s21.204-52.972 61.917-63.899 85.52 24.329 85.52 24.329-21.203 52.972-61.917 63.899z" fill="#97da7b"/><path d="m355.155 229.399c-5.083 1.364-9.863 3.384-14.335 5.875 31.345 4.229 58.647 25.712 58.647 25.712s-16.239 40.57-47.582 58.024c8.81 1.189 17.94 1.015 26.872-1.383 40.714-10.927 61.917-63.899 61.917-63.899s-44.806-35.256-85.519-24.329z" fill="#80d261"/><path d="m381.192 269.692c-1.106-4.121-5.34-6.566-9.465-5.46l-76.179 20.445-50.551-50.633c-3.014-3.019-7.906-3.024-10.927-.009-3.02 3.015-3.024 7.907-.009 10.927l50.56 50.642-19.541 73.046c-1.103 4.122 1.345 8.358 5.467 9.46.669.179 1.341.265 2.002.265 3.412 0 6.535-2.279 7.459-5.732l19.539-73.039 76.185-20.447c4.122-1.106 6.567-5.344 5.46-9.465z" fill="#c1e9af"/></g></g></g></g></svg>