<svg height="512" viewBox="0 0 64 64" width="512" xmlns="http://www.w3.org/2000/svg"><g id="Layer_24" data-name="Layer 24"><path d="m30 18a7.954 7.954 0 0 1 7.89 6.943l4.072 31.757a4.758 4.758 0 0 1 .038.6 4.7 4.7 0 0 1 -4.7 4.7h-30.6a4.7 4.7 0 0 1 -4.7-4.7 4.758 4.758 0 0 1 .038-.6l4.072-31.757a7.954 7.954 0 0 1 7.89-6.943" fill="#969696"/><path d="m37.89 24.943a7.954 7.954 0 0 0 -7.89-6.943h-16a7.929 7.929 0 0 0 -2.048.272 7.929 7.929 0 0 0 -.842 2.671l-4.072 31.757a4.758 4.758 0 0 0 -.038.6 4.7 4.7 0 0 0 4.7 4.7h30.23a3.993 3.993 0 0 0 .032-1.3z" fill="#b5b5b5"/><path d="m41.962 56.7-3.295-25.7h-.383a35.666 35.666 0 0 1 -12.19-2.148 30.774 30.774 0 0 0 -20.459-.2l-3.597 28.048a4.758 4.758 0 0 0 -.038.6 4.7 4.7 0 0 0 4.7 4.7h30.6a4.7 4.7 0 0 0 4.7-4.7 4.758 4.758 0 0 0 -.038-.6z" fill="#eb471e"/><path d="m41.962 56.7-2.951-23.011-.022.013a39.221 39.221 0 0 1 -17.85 4.298 39.213 39.213 0 0 1 -10.1-1.324l-6.221-1.658-2.78 21.682a4.758 4.758 0 0 0 -.038.6 4.7 4.7 0 0 0 4.7 4.7h30.6a4.7 4.7 0 0 0 4.7-4.7 4.758 4.758 0 0 0 -.038-.6z" fill="#eb471e"/><path d="m38.667 31h-.383a35.666 35.666 0 0 1 -12.19-2.148 30.557 30.557 0 0 0 -15.821-1.381l-3.235 25.229a4.758 4.758 0 0 0 -.038.6 4.7 4.7 0 0 0 4.7 4.7h30.23a3.993 3.993 0 0 0 .032-1.3z" fill="#f36c22"/><path d="m39.011 33.689-.022.013a39.221 39.221 0 0 1 -17.85 4.298 39.213 39.213 0 0 1 -10.1-1.324l-1.878-.5-2.123 16.524a4.758 4.758 0 0 0 -.038.6 4.7 4.7 0 0 0 4.7 4.7h30.23a3.993 3.993 0 0 0 .032-1.3z" fill="#f36c22"/><rect fill="#b5b5b5" height="8" rx="4" width="26" x="9" y="2"/><path d="m30 10a2 2 0 0 1 2 2 2 2 0 0 1 -2 2h-16a2 2 0 0 1 -2-2 2 2 0 0 1 2-2" fill="#777"/><path d="m30 14a2 2 0 0 1 2 2 2 2 0 0 1 -2 2h-16a2 2 0 0 1 -2-2 2 2 0 0 1 2-2" fill="#777"/><path d="m30 14h-16a2 2 0 0 0 2 2h16a2 2 0 0 0 -2-2z" fill="#969696"/><path d="m30 10h-16a2 2 0 0 0 2 2h16a2 2 0 0 0 -2-2z" fill="#969696"/><path d="m31 2h-18a3.974 3.974 0 0 0 -.892.108 3.972 3.972 0 0 0 3.892 4.892h18a3.974 3.974 0 0 0 .892-.108 3.972 3.972 0 0 0 -3.892-4.892z" fill="#c9c9c9"/><path d="m58.582 53.531-1.213-1.591 2.067-1.575a6.229 6.229 0 0 0 1.539-4.1v-1.53h2v1.528a8.229 8.229 0 0 1 -2.111 5.507 1.039 1.039 0 0 1 -.138.127z" fill="#40873c"/><path d="m54.733 52.219a11.757 11.757 0 0 0 1.242-5.261 11.554 11.554 0 0 0 -.825-4.287 8.633 8.633 0 0 1 -.175-5.936 4 4 0 0 0 -4 4v2l-1.212-1.212a6.1 6.1 0 0 1 -1.788-4.316 7.236 7.236 0 0 0 -4-6.472 14.435 14.435 0 0 1 -2.058 7.43 6.616 6.616 0 0 0 -.942 3.4v3.169l-3-5a11.913 11.913 0 0 0 -2 6.606 10.609 10.609 0 0 0 3.108 7.5 6.46 6.46 0 0 0 4.569 1.892h5.392a6.36 6.36 0 0 0 5.689-3.513z" fill="#c43535"/><path d="m55.15 42.671a8.633 8.633 0 0 1 -.175-5.936 4 4 0 0 0 -4 4v2l-1.212-1.212a6.1 6.1 0 0 1 -1.788-4.316 7.236 7.236 0 0 0 -4-6.472 14.435 14.435 0 0 1 -2.058 7.43 6.616 6.616 0 0 0 -.942 3.4v3.169l-2.423-4.034a11.93 11.93 0 0 0 -.577 3.644 10.609 10.609 0 0 0 3.108 7.5 6.46 6.46 0 0 0 4.569 1.892h5.392a6.357 6.357 0 0 0 3.363-.963 6.078 6.078 0 0 0 .326-.553 11.757 11.757 0 0 0 1.242-5.261 11.554 11.554 0 0 0 -.825-4.288z" fill="#dc4a4a"/><path d="m50.975 49.735-3 1a7.242 7.242 0 0 0 -2.121-5.121l-.879-.879a4.828 4.828 0 0 1 -1.414 3.415 5.414 5.414 0 0 0 -1.586 3.828 7.438 7.438 0 0 0 .786 3.329l.194.388a6.47 6.47 0 0 0 .7.04h5.392c.046 0 .091-.008.137-.009l.251-.418a10.831 10.831 0 0 0 1.54-5.573z" fill="#e7b541"/><path d="m50.193 53.735a10.821 10.821 0 0 0 .782-4l-3 1a7.242 7.242 0 0 0 -2.121-5.121l-.879-.879a4.828 4.828 0 0 1 -1.414 3.415 5.414 5.414 0 0 0 -1.586 3.828c0 .211.019.421.037.631a6.461 6.461 0 0 0 3.64 1.126z" fill="#f9cb6e"/><path d="m60.975 53.485a3.75 3.75 0 0 0 -3.75-3.75 3.756 3.756 0 0 0 -2.25.75l-2.336 1.753a17.49 17.49 0 0 1 -10.493 3.5 17.494 17.494 0 0 1 -6.14-1.113l-5.031-1.887a5.608 5.608 0 0 0 2.5 4.665 25.815 25.815 0 0 0 14.315 4.332h.833a16.7 16.7 0 0 0 9.708-3.111 6.315 6.315 0 0 0 2.644-5.139z" fill="#a02525"/><path d="m57.225 49.735a3.75 3.75 0 0 0 -2.25.75l-2.336 1.753a17.492 17.492 0 0 1 -16.633 2.384l-3.379-1.267a5.611 5.611 0 0 0 1.844 2.045 25.815 25.815 0 0 0 14.319 4.335h.833a16.7 16.7 0 0 0 9.708-3.111 6.285 6.285 0 0 0 1.379-1.364 6.282 6.282 0 0 0 .265-1.775 3.75 3.75 0 0 0 -3.75-3.75z" fill="#c43535"/></g></svg>