<svg id="Capa_1" enable-background="new 0 0 502 502" height="512" viewBox="0 0 502 502" width="512" xmlns="http://www.w3.org/2000/svg" xmlns:xlink="http://www.w3.org/1999/xlink"><linearGradient id="SVGID_1_" gradientUnits="userSpaceOnUse" x1="208.284" x2="208.284" y1="494.533" y2="143.714"><stop offset="0" stop-color="#fa5c6f"/><stop offset="1" stop-color="#ff8190"/></linearGradient><linearGradient id="SVGID_00000023997263624521220790000013606053623045797252_" gradientUnits="userSpaceOnUse" x1="208.284" x2="208.284" y1="116.67" y2="5.169"><stop offset="0" stop-color="#ffc100"/><stop offset="1" stop-color="#ffe093"/></linearGradient><linearGradient id="SVGID_00000026869664757206486260000010492690225057232817_" gradientUnits="userSpaceOnUse" x1="208.284" x2="208.284" y1="399.763" y2="304.213"><stop offset="0" stop-color="#d0dada"/><stop offset="1" stop-color="#f1f1f1"/></linearGradient><linearGradient id="SVGID_00000137832312937501627370000002707704055936958896_" gradientUnits="userSpaceOnUse" x1="398.953" x2="498.258" y1="385.672" y2="385.672"><stop offset="0" stop-color="#00c555"/><stop offset="1" stop-color="#9ad880"/></linearGradient><linearGradient id="SVGID_00000054267068353713111170000015195316032053107133_" gradientUnits="userSpaceOnUse" x1="379.098" x2="379.098" y1="394.128" y2="290.845"><stop offset="0" stop-color="#38d570"/><stop offset="1" stop-color="#b2e59d"/></linearGradient><linearGradient id="SVGID_00000058578684193602378880000002530698717956241797_" gradientUnits="userSpaceOnUse" x1="343.526" x2="343.526" y1="510.847" y2="355.248"><stop offset="0" stop-color="#ff7081"/><stop offset="1" stop-color="#ff9faa"/></linearGradient><g><path d="m263.699 87.054c0 14.867 5.575 25.302 14.36 33.93 8.784 8.628 20.778 15.448 33.615 23.086 11.15 6.634 25.461 15.547 38.896 27.339 11.37 9.98 22.112 22.022 29.776 36.49 7 13.215 11.434 28.453 11.434 45.993 0 16.554-2.005 34.612-6.21 53.391-4.409 19.69-11.236 40.173-20.707 60.548-7.341 15.792-16.27 31.52-26.891 46.764-17.333 24.874-45.862 39.561-76.18 39.561h-107.014c-30.317 0-58.847-14.687-76.18-39.561-10.622-15.244-19.551-30.971-26.891-46.764-9.471-20.375-16.299-40.858-20.707-60.548-4.205-18.779-6.21-36.837-6.21-53.391 0-17.54 4.433-32.778 11.434-45.993 7.664-14.468 18.406-26.51 29.776-36.49 13.435-11.792 27.747-20.705 38.896-27.339 12.837-7.638 24.83-14.458 33.614-23.086s14.36-19.062 14.36-33.93z" fill="url(#SVGID_1_)"/><path d="m274.201 323.506c-15.499 13.79-24.106 33.543-24.046 53.863-.478.452-.948.91-1.413 1.374-10.786 10.786-17.522 24.254-19.976 38.409-2.123 12.251-1.037 25.017 3.409 37.004h29.615c30.318 0 58.847-14.687 76.18-39.561z" fill="#e64c5e"/><path d="m284.73 11.182c-12.468-3.727-25.141-6.523-37.916-8.387-12.775-1.863-25.652-2.795-38.53-2.795-12.514 0-25.029.88-37.449 2.64-13.141 1.862-26.177 4.71-38.996 8.542-17.06 5.1-28.749 20.795-28.749 38.601v20.518c0 22.251 18.038 40.289 40.289 40.289h129.811c22.251 0 40.289-18.038 40.289-40.289v-20.518c0-17.806-11.689-33.5-28.749-38.601z" fill="url(#SVGID_00000023997263624521220790000013606053623045797252_)"/><path d="m277.097 279.504h-137.625c-18.318 0-33.168 14.85-33.168 33.167v32.846c0 18.318 14.85 33.167 33.168 33.167h109.33c.004-.001 20.793-6.654 36.35-.99 14.424-3.6 25.112-16.638 25.112-32.177v-32.846c0-18.317-14.849-33.167-33.167-33.167z" fill="url(#SVGID_00000026869664757206486260000010492690225057232817_)"/><path d="m417.547 344.081c-5.311 0-10.461.484-15.362 1.392-19.074 3.533-34.395 13.488-40.909 26.342-2.197 4.334-3.392 8.998-3.392 13.857 0 3.721.701 7.327 2.016 10.759 5.471 14.281 21.572 25.536 42.033 29.393 4.977.938 10.212 1.439 15.615 1.439 4.119 0 8.14-.291 12.024-.845 20.39-2.909 36.992-13.068 44.018-26.446 2.342-4.459 3.62-9.276 3.62-14.3 0-5.385-1.468-10.531-4.14-15.253-7.054-12.468-22.501-21.989-41.488-25.18-4.501-.757-9.201-1.158-14.035-1.158z" fill="url(#SVGID_00000137832312937501627370000002707704055936958896_)"/><path d="m420.689 347.223c0 5.876-.592 11.553-1.695 16.916-3.675 17.864-13.022 32.239-25.05 38.834-4.611 2.528-9.616 3.913-14.846 3.913-7.05 0-13.691-2.516-19.509-6.957-9.697-7.402-17.109-20.149-20.327-35.501-1.142-5.448-1.755-11.223-1.755-17.204 0-5.852.587-11.508 1.682-16.852 3.281-16.016 11.12-29.234 21.364-36.566 5.583-3.996 11.881-6.245 18.545-6.245 17.095 0 31.78 14.794 38.175 35.944 2.198 7.269 3.416 15.289 3.416 23.718z" fill="url(#SVGID_00000054267068353713111170000015195316032053107133_)"/><path d="m259.544 341.638c-6.157 10.846-9.426 23.18-9.389 35.73-.457.433-.908.872-1.353 1.316h28.295c2.779 0 5.476-.347 8.055-.99 7.041-6.146 7.041-12.757 4.776-18.755 3.695-6.487 2.796-14.617-2.167-20.195-7.929-8.91-22.328-7.479-28.217 2.894z" fill="#c6d0d8"/><path d="m415.119 467.3c12.415-13.956 12.181-35.438-.506-49.148-3.091-3.34-6.645-5.964-10.464-7.879-3.83-1.92-6.259-5.795-6.668-10.06-.782-8.166-4.297-16.12-10.551-22.374s-14.207-9.769-22.374-10.551c-4.265-.408-8.14-2.837-10.06-6.667-1.915-3.821-4.54-7.376-7.882-10.467-13.711-12.686-35.193-12.917-49.148-.501-10.298 9.162-14.141 22.621-11.533 34.992 1.117 5.298-1.133 10.709-5.743 13.547-2.383 1.467-4.635 3.233-6.701 5.299-12.194 12.194-13.983 30.844-5.381 44.942 1.338 2.193 1.978 4.748 1.796 7.31-.724 10.218 2.815 20.681 10.628 28.493 7.812 7.812 18.275 11.351 28.493 10.627 2.562-.181 5.117.458 7.31 1.796 14.098 8.602 32.747 6.813 44.942-5.381 2.066-2.066 3.832-4.317 5.299-6.701 2.839-4.61 8.249-6.861 13.547-5.743 12.374 2.61 25.834-1.234 34.996-11.534z" fill="url(#SVGID_00000058578684193602378880000002530698717956241797_)"/><path d="m361.278 450.987c-2.943 0-5.887-1.122-8.132-3.369-4.627-4.628-10.786-7.236-17.343-7.345-6.201-.103-11.204-5.106-11.307-11.308-.109-6.556-2.718-12.715-7.346-17.343-4.491-4.491-4.491-11.772 0-16.264 4.492-4.491 11.772-4.491 16.264 0 6.445 6.446 10.848 14.438 12.853 23.143 8.705 2.005 16.697 6.407 23.143 12.853 4.491 4.491 4.491 11.772 0 16.263-2.246 2.247-5.189 3.37-8.132 3.37z" fill="#ff5d70"/><path d="m234.832 340.595h-53.096c-6.352 0-11.5-5.149-11.5-11.5s5.148-11.5 11.5-11.5h53.096c6.352 0 11.5 5.149 11.5 11.5s-5.148 11.5-11.5 11.5z" fill="#ffb400"/><g><ellipse cx="120.399" cy="230.893" fill="#fcadcd" rx="14.936" ry="12.003"/><ellipse cx="296.17" cy="230.893" fill="#fcadcd" rx="14.936" ry="12.003"/><circle cx="146.006" cy="201.275" fill="#fff" r="29.618"/><circle cx="270.563" cy="201.275" fill="#fff" r="29.618"/><g fill="#383842"><g><circle cx="146.006" cy="201.275" r="17.652"/><circle cx="270.563" cy="201.275" r="17.652"/></g><path d="m208.284 231.835c-5.248 0-10.494-1.984-14.775-5.954-2.025-1.877-2.145-5.041-.267-7.066 1.876-2.025 5.042-2.144 7.065-.267 4.696 4.355 11.258 4.354 15.954 0 2.024-1.876 5.189-1.758 7.066.267s1.758 5.188-.268 7.066c-4.279 3.97-9.528 5.954-14.775 5.954z"/></g></g><g fill="#fff4ba"><path d="m180.333 42.154c-5.748 0-10.716-4.303-11.406-10.153-.744-6.308 3.766-12.024 10.073-12.769 4.051-.478 8.173-.862 12.252-1.141 6.328-.426 11.824 4.352 12.258 10.689.433 6.337-4.353 11.825-10.689 12.258-3.703.253-7.446.602-11.125 1.036-.458.053-.913.08-1.363.08z"/><path d="m265.983 47.605c-.923 0-1.86-.112-2.796-.346-9.557-2.388-19.374-4.167-29.18-5.287-6.311-.721-10.841-6.421-10.12-12.731.722-6.31 6.441-10.84 12.731-10.12 10.8 1.234 21.614 3.193 32.143 5.824 6.162 1.54 9.909 7.783 8.37 13.945-1.305 5.225-5.994 8.715-11.148 8.715z"/></g></g></svg>