<svg xmlns="http://www.w3.org/2000/svg" version="1.1" xmlns:xlink="http://www.w3.org/1999/xlink" xmlns:svgjs="http://svgjs.com/svgjs" width="512" height="512" x="0" y="0" viewBox="0 0 60 60" style="enable-background:new 0 0 512 512" xml:space="preserve" class=""><g><path fill="#ea0001" d="M54.071 21.431c0 8.562-6.941 15.503-15.503 15.503s-15.503-6.941-15.503-15.503S30.006 5.929 38.568 5.929s15.503 6.94 15.503 15.502z" data-original="#7bd78a"></path><path d="M38.569 37.934c-9.1 0-16.503-7.403-16.503-16.503 0-9.099 7.403-16.502 16.503-16.502s16.503 7.403 16.503 16.502c0 9.1-7.404 16.503-16.503 16.503zm0-31.005c-7.997 0-14.503 6.505-14.503 14.502s6.506 14.503 14.503 14.503 14.503-6.506 14.503-14.503S46.566 6.929 38.569 6.929z" fill="#000000" data-original="#000000" class=""></path><path d="M37.576 37.896a.996.996 0 0 1-.744-.332 16.455 16.455 0 0 1-4.22-11.018c0-9.099 7.407-16.501 16.512-16.501.356 0 .701.012 1.045.036a1 1 0 1 1-.137 1.995 12.911 12.911 0 0 0-.909-.031c-8.002 0-14.512 6.505-14.512 14.501 0 3.582 1.317 7.02 3.708 9.681a1 1 0 0 1-.743 1.669z" fill="#000000" data-original="#000000" class=""></path><path d="M36.794 18.145a.985.985 0 0 1-.271-.038C28.664 15.904 29.54 8.12 29.55 8.042a.999.999 0 0 1 1.985.244c-.03.258-.649 6.164 5.528 7.896a1 1 0 0 1-.269 1.963z" fill="#000000" data-original="#000000" class=""></path><path d="M31.383 13.849a.999.999 0 0 1-.803-1.593c.049-.064 4.966-6.49 14.161-1.298a1 1 0 0 1-.983 1.741c-7.616-4.302-11.416.543-11.574.752a1.003 1.003 0 0 1-.801.398z" fill="#000000" data-original="#000000" class=""></path><path fill="#ea0001" d="M36.934 38.568c0 8.562-6.941 15.503-15.503 15.503S5.928 47.13 5.928 38.568s6.941-15.502 15.503-15.502 15.503 6.94 15.503 15.502z" data-original="#7bd78a"></path><path d="M21.431 55.071c-9.1 0-16.503-7.403-16.503-16.503 0-9.099 7.403-16.502 16.503-16.502s16.503 7.403 16.503 16.502c0 9.1-7.403 16.503-16.503 16.503zm0-31.005c-7.997 0-14.503 6.505-14.503 14.502s6.506 14.503 14.503 14.503 14.503-6.506 14.503-14.503c0-7.996-6.506-14.502-14.503-14.502z" fill="#000000" data-original="#000000" class=""></path><path d="M20.439 55.033a.996.996 0 0 1-.744-.332 16.455 16.455 0 0 1-4.22-11.018c0-9.099 7.407-16.501 16.512-16.501.356 0 .701.012 1.045.036a1 1 0 1 1-.137 1.995 12.911 12.911 0 0 0-.909-.031c-8.002 0-14.512 6.505-14.512 14.501 0 3.582 1.317 7.02 3.708 9.681a1 1 0 0 1-.743 1.669z" fill="#000000" data-original="#000000" class=""></path><path d="M19.656 35.282a.985.985 0 0 1-.271-.038c-7.859-2.203-6.983-9.987-6.973-10.065a.995.995 0 0 1 1.116-.869 1 1 0 0 1 .869 1.113c-.03.258-.649 6.164 5.528 7.896a1 1 0 0 1-.269 1.963z" fill="#000000" data-original="#000000" class=""></path><path d="M14.245 30.987a.999.999 0 0 1-.803-1.593c.049-.064 4.968-6.49 14.161-1.298a1 1 0 0 1-.983 1.741c-7.616-4.299-11.417.544-11.574.752-.197.26-.497.398-.801.398z" fill="#000000" data-original="#000000" class=""></path></g></svg>