<svg id="Layer_1" height="512" viewBox="0 0 64 64" width="512" xmlns="http://www.w3.org/2000/svg" data-name="Layer 1"><path d="m57.747 19.09a3.957 3.957 0 0 0 2.882-2.029c1.089-2.167-.3-5.067-3.106-6.476a6.657 6.657 0 0 0 -3.909-.693c.427-2.028-.944-4.4-3.4-5.638-2.379-1.195-5.007-.929-6.416.5a7.258 7.258 0 0 0 -4.798-1.754c-3.509 0-6.4 2.353-6.784 5.382 0 0-10.1 5.2-5.912 12.618s1.492 9.156 7.934 8.762 8.5-5.934 12.688-5.01 6.193 3.585 9.074.448c1.82-1.985 1.747-6.11 1.747-6.11z" fill="#69911d"/><path d="m52.95 32.274c-2.653-.765-5.673 1.626-6.744 5.34-1.053 3.65-1.907 7.854.653 8.7.045.015.088.036.134.05 2.653.765 7.749-2.267 8.821-5.981s-.214-7.343-2.864-8.109z" fill="#69911d"/><path d="m44.435 23.877-5.435 6.123v4.141a1.5 1.5 0 0 1 -1.5 1.5 1.5 1.5 0 0 1 -1.5-1.5v-7.141l2-2h-8v21s16-.345 16-.173v-15.517a5.8 5.8 0 0 1 2.247-4.171 7.335 7.335 0 0 1 -3.812-2.262z" fill="#a9c358"/><path d="m24.949 35.523h-.03l.561-.15a4.081 4.081 0 1 0 -2.11-7.884l-.2.052 2.044-1.709a4.08 4.08 0 1 0 -5.235-6.26l-1.254 1.048-.217-2.244a4.08 4.08 0 0 0 -8.123.784l.213 2.214-1.169-.721a4.08 4.08 0 1 0 -3.938 7.147l2.017 1.245-.145-.01a4.081 4.081 0 0 0 -.563 8.143l.58.04h-.03a4.08 4.08 0 1 0 .784 8.123l3.384-.326a3.022 3.022 0 0 1 2.321 1.324l6.39-.636a3.285 3.285 0 0 1 2.121-1.733l3.384-.327a4.08 4.08 0 0 0 -.783-8.123z" fill="#457529"/><path d="m57.056 24.667a4.017 4.017 0 0 0 1.668-3.081 3.933 3.933 0 0 0 -1.493-2.929c.01-.112.021-.223.021-.337 0-2.49-2.513-4.508-5.613-4.508-2.938 0-5.345 1.814-5.588 4.124a4.423 4.423 0 0 0 -2.5 3.65c0 2.075 1.974 3.847 4.765 4.575a4.7 4.7 0 0 0 8.739-1.494z" fill="#69911d"/><path d="m3 46h58a0 0 0 0 1 0 0v4a11 11 0 0 1 -11 11h-36a11 11 0 0 1 -11-11v-4a0 0 0 0 1 0 0z" fill="#f2e4da"/><path d="m50 59h-36a11 11 0 0 1 -11-11v2a11 11 0 0 0 11 11h36a11 11 0 0 0 11-11v-2a11 11 0 0 1 -11 11z" fill="#f2dbcb"/><circle cx="27.415" cy="13.812" fill="#69911d" r="7.156"/><circle cx="39" cy="17.919" fill="#69911d" r="6.069"/><path d="m53.3 32.4a7.7 7.7 0 0 0 -4.289 5.211c-.986 3.419.025 6.762 2.261 7.869a9.3 9.3 0 0 0 4.54-5.1c1.024-3.539-.1-7.002-2.512-7.98z" fill="#5a7d19"/><path d="m57.758 32.274c-2.653-.765-5.673 1.626-6.745 5.34-1.052 3.65.17 7.213 2.73 8.062.045.016.088.036.134.05 2.653.765 5.673-1.626 6.745-5.34s-.211-7.346-2.864-8.112z" fill="#69911d"/><path d="m29.1 36.318h-.03l.573-.1a4.081 4.081 0 1 0 -1.344-8.05l-.2.034 2.2-1.5a4.081 4.081 0 0 0 -4.61-6.735l-1.349.924v-2.256a4.081 4.081 0 0 0 -8.161 0v2.225l-1.1-.831a4.08 4.08 0 0 0 -4.61 6.734l1.893 1.437-.144-.024a4.081 4.081 0 0 0 -1.344 8.05l.573.1h-.03a4.081 4.081 0 0 0 0 8.161h3.4a3.022 3.022 0 0 1 2.183 1.533l6.422-.02a3.288 3.288 0 0 1 2.278-1.521h3.4a4.081 4.081 0 0 0 0-8.161z" fill="#557c3e"/><path d="m22 56h-1a1 1 0 0 0 0 2h1a1 1 0 0 0 0-2z"/><path d="m61.522 17.511a4.913 4.913 0 0 0 -.084-4.4 7.59 7.59 0 0 0 -3.466-3.415 7.946 7.946 0 0 0 -3.286-.854 6.881 6.881 0 0 0 -4.022-5.476 6.9 6.9 0 0 0 -6.882.112 8.327 8.327 0 0 0 -4.782-1.478 7.8 7.8 0 0 0 -7.4 4.783 8.4 8.4 0 0 0 -3.975-.99 7.987 7.987 0 0 0 -6.879 3.691 1 1 0 0 0 1.713 1.032 5.981 5.981 0 0 1 5.166-2.723c3.213 0 5.827 2.274 5.827 5.069 0 .069-.007.136-.01.2a7.026 7.026 0 0 0 -1.507 4.348c0 .221.01.441.03.657a1 1 0 1 0 1.992-.181c-.015-.158-.022-.316-.022-.476a5.069 5.069 0 1 1 10.054.879 4.928 4.928 0 0 0 -1.389 2.669 5.064 5.064 0 0 1 -2.753 1.454 1 1 0 0 0 .165 1.986 1.062 1.062 0 0 0 .167-.013 7.051 7.051 0 0 0 2.721-1.107 4.951 4.951 0 0 0 .272.513l-4.921 5.545a1 1 0 0 0 -.251.664v4.141a.5.5 0 0 1 -1 0v-6.7l1.671-1.5a1 1 0 0 0 -1.338-1.486l-2 1.8a1 1 0 0 0 -.333.745v7.141a2.5 2.5 0 0 0 5 0v-3.761l4.476-5.044a8.174 8.174 0 0 0 2.02 1.249 5.432 5.432 0 0 0 -1.496 3.726v4.2l-3.531 2.489h-1.469a1 1 0 0 0 0 2h1.786a.99.99 0 0 0 .575-.183l2.639-1.856v8.039h-9a1 1 0 0 0 0 2h24v3a10.011 10.011 0 0 1 -10 10h-36a10.011 10.011 0 0 1 -10-10v-3h2c0 7.094 3.907 11 11 11a1 1 0 0 0 0-2c-5.972 0-9-3.028-9-9h8.919c.028 0 .053.02.082.02a1.082 1.082 0 0 0 .127-.02h2.872a1 1 0 0 0 1-1v-2.338l7.13-3.023a1 1 0 0 0 -.781-1.842l-6.349 2.692v-5.839l7.146-3.179a1 1 0 0 0 -.813-1.828l-6.333 2.817v-5.823l7.162-3.337a1 1 0 0 0 -.845-1.813l-6.317 2.944v-4.431a1 1 0 0 0 -2 0v4.384l-5.776-2.884a1 1 0 1 0 -.893 1.789l6.669 3.329v5.8l-5.792-2.762a1 1 0 0 0 -.861 1.805l6.653 3.17v5.816l-5.809-2.639a1 1 0 1 0 -.827 1.82l6.636 3.016v1.356h-1.523a3.52 3.52 0 0 0 -2.659-1.521h-3.4a3.081 3.081 0 1 1 .03-6.162 1 1 0 0 0 .165-1.986l-.573-.1a3.08 3.08 0 0 1 1.012-6.077l.143.025a1 1 0 0 0 .772-1.784l-1.928-1.461a3.081 3.081 0 0 1 3.441-5.112l1.1.83a1 1 0 0 0 1.6-.8v-2.217a3.081 3.081 0 0 1 6.161 0v2.255a1 1 0 0 0 1.565.825l1.348-.924a3.081 3.081 0 1 1 3.481 5.084l-2.2 1.5a1 1 0 0 0 .729 1.811l.2-.033a3.081 3.081 0 1 1 1.015 6.077l-.573.1a.989.989 0 0 0 -.817 1.069 1.014 1.014 0 0 0 1.012.917 3.081 3.081 0 0 1 0 6.162h-3.401a4.1 4.1 0 0 0 -3.063 1.9 1 1 0 1 0 1.572 1.236c.661-.84 1.2-1.139 1.491-1.139h3.4a5.067 5.067 0 0 0 4.34-2.475h4.56a1 1 0 0 0 0-2h-3.881a4.989 4.989 0 0 0 .061-.6 5.064 5.064 0 0 0 -2.149-4.142 5.137 5.137 0 0 0 1.075-1.107 5.079 5.079 0 0 0 -2.206-7.651 5.08 5.08 0 0 0 -5.561-8.5v-.366a5.086 5.086 0 0 0 -5.08-5.08 5.027 5.027 0 0 0 -3.1 1.081 5.066 5.066 0 0 0 -7.959 4.844l.039.274c-.009.008-.019.014-.027.022a5.069 5.069 0 0 0 -4.184 9.2 5.078 5.078 0 0 0 0 8.879 5.185 5.185 0 0 0 -.574.643 5.052 5.052 0 0 0 -.973 3.766 5.414 5.414 0 0 0 1.236 2.737h-.717a2 2 0 0 0 -2 2v3a12.013 12.013 0 0 0 12 12h36a12.013 12.013 0 0 0 12-12v-3a2 2 0 0 0 -2-2h-.988a9.772 9.772 0 0 0 2.571-4.337 9.57 9.57 0 0 0 -.053-5.771 5.368 5.368 0 0 0 -3.5-3.579 5.012 5.012 0 0 0 -3.683.409 4.65 4.65 0 0 0 -.952-.409 5.36 5.36 0 0 0 -4.863 1.167 8.481 8.481 0 0 0 -1.532 1.651v-3.82a3.418 3.418 0 0 1 1.223-2.594 5.685 5.685 0 0 0 9.744-2.517 4.9 4.9 0 0 0 1.757-3.617 4.339 4.339 0 0 0 -.48-1.944 4.64 4.64 0 0 0 2.278-2.128zm-52.222 27.489h-.3a3.56 3.56 0 0 1 -3.537-3.017 3.072 3.072 0 0 1 1.011-2.737 5.035 5.035 0 0 0 2.826 5.754zm4.508-29.279a3.092 3.092 0 0 1 2.045.438 5.021 5.021 0 0 0 -.672 2.476v.283a5.063 5.063 0 0 0 -4.017-.315 3.084 3.084 0 0 1 2.641-2.882zm-9.236 9.791a3.067 3.067 0 0 1 3.5-4 5.067 5.067 0 0 0 1.653 5.945 5.145 5.145 0 0 0 -1.566.966l-2.037-1.135a3.058 3.058 0 0 1 -1.55-1.776zm-.154 7.824a3.082 3.082 0 0 1 2.382-2.92 5.072 5.072 0 0 0 1.684 5.837c-.124.088-.239.186-.354.284a.939.939 0 0 0 -.13-.028l-.58-.015a3.084 3.084 0 0 1 -3.002-3.158zm45.867 10.173a6.419 6.419 0 0 0 .868 1.491h-1.574zm7.2-10.274a3.432 3.432 0 0 1 2.164 2.323 8.106 8.106 0 0 1 -2.422 8.394 3.88 3.88 0 0 1 -2.148.892l2.509-7.528a1 1 0 0 0 -1.9-.632l-2.515 7.544c-1.388-1.165-1.941-3.756-1.2-6.336a7.555 7.555 0 0 1 2.438-3.844 3.81 3.81 0 0 1 2.329-.916 2.652 2.652 0 0 1 .74.103zm-10.485 6.795a8.54 8.54 0 0 1 .337-2.138 7.563 7.563 0 0 1 2.439-3.844 3.588 3.588 0 0 1 2.657-.87 9.87 9.87 0 0 0 -2.382 4.159 10.3 10.3 0 0 0 -.4 2.844l-2.284 4.819h-.367v-4.959zm9.424-16.14a1 1 0 0 0 -.357.611 3.7 3.7 0 0 1 -6.878 1.175 1 1 0 0 0 -.621-.483c-2.4-.626-4.018-2.076-4.018-3.607a3.485 3.485 0 0 1 2.009-2.786 1 1 0 0 0 .486-.757c.19-1.81 2.208-3.228 4.594-3.228 2.544 0 4.613 1.574 4.613 3.507 0 .079-.009.158-.017.246a1 1 0 0 0 .337.844 3.013 3.013 0 0 1 1.152 2.177 3.092 3.092 0 0 1 -1.298 2.301zm3.309-7.278a2.738 2.738 0 0 1 -1.509 1.3c-.252-2.846-3.106-5.1-6.587-5.1a6.845 6.845 0 0 0 -5.8 2.865 7.026 7.026 0 0 0 -1.054-2.306 3.55 3.55 0 0 1 5.684-3.913 1 1 0 1 0 1.342-1.488 5.546 5.546 0 0 0 -9.2 3.377 7.007 7.007 0 0 0 -7.329.066 6.846 6.846 0 0 0 -1.96-3.381 5.662 5.662 0 0 1 5.68-4.032 6.246 6.246 0 0 1 4.139 1.506 1 1 0 0 0 1.373-.049c1.125-1.143 3.335-1.272 5.254-.309 2.005 1.007 3.212 2.915 2.87 4.538a1 1 0 0 0 1.122 1.2 5.685 5.685 0 0 1 3.316.6 5.579 5.579 0 0 1 2.561 2.492 2.962 2.962 0 0 1 .1 2.634z"/><path d="m26.021 11.28a.676.676 0 0 1 .5.159 1 1 0 0 0 1.285-1.533 2.693 2.693 0 1 0 -3.458 4.129 1 1 0 0 0 1.289-1.535.693.693 0 0 1 .384-1.222z"/></svg>