<svg id="Capa_1" enable-background="new 0 0 512 512" height="512" viewBox="0 0 512 512" width="512" xmlns="http://www.w3.org/2000/svg"><g><g><g><g><path d="m53.146 416.304v48.969c0 8.496-6.887 15.383-15.383 15.383-8.655 0-15.672 7.017-15.672 15.672 0 8.655 7.017 15.672 15.672 15.672h94.186c8.655 0 15.672-7.017 15.672-15.672 0-8.655-7.017-15.672-15.672-15.672h-41.24c-8.498 0-15.386-6.891-15.383-15.389l.011-26.772.241-25.751z" fill="#a3262c"/></g></g></g><g><path d="m107.663 336.771 20.606 6.395 17.334 17.334 7.534 21.745-74.732 53.38c-2.798 1.999-6.631 1.681-9.062-.75l-14.31-14.31c-2.431-2.431-2.749-6.264-.75-9.062z" fill="#f24141"/><path d="m78.406 435.625 74.732-53.38-7.534-21.745-7.105 7.105-79.58 56.843 10.426 10.426c2.43 2.432 6.263 2.75 9.061.751z" fill="#d83939"/><path d="m114.798 284.162 90.949 90.949-24.869 24.869c-2.747 2.747-7.201 2.747-9.948 0l-81.001-81.001c-2.747-2.747-2.747-7.201 0-9.948z" fill="#a3262c"/><path d="m142.509 371.558 28.422 28.422c2.747 2.747 7.201 2.747 9.948 0l24.869-24.869-28.422-28.422-24.869 24.869c-2.748 2.747-7.201 2.747-9.948 0z" fill="#822029"/><path d="m365.093 3.032 121.784 121.784c4.043 4.043 4.043 10.597 0 14.64l-38.155 38.155-22.734 8.523-152.295 152.295-6.869 21.079-38.155 38.155c-4.043 4.043-10.597 4.043-14.64 0l-121.783-121.784c-4.043-4.043-4.043-10.597 0-14.64l38.155-38.155 21.079-6.869 152.296-152.295 8.523-22.734 38.155-38.155c4.042-4.042 10.596-4.042 14.639.001z" fill="#f24141"/><path d="m160.94 103.881h257.243v192.932h-257.243z" fill="#ffe02f" transform="matrix(.707 -.707 .707 .707 -56.856 263.431)"/><path d="m192.07 361.063c-4.043 4.043-10.597 4.043-14.64 0l36.6 36.6c4.043 4.043 10.597 4.043 14.64 0l38.155-38.155-36.6-36.6z" fill="#d83939"/><path d="m448.722 177.61 38.155-38.155c4.043-4.043 4.043-10.597 0-14.64l-36.6-36.6c4.043 4.043 4.043 10.597 0 14.64l-38.155 38.155z" fill="#d83939"/><path d="m210.852 224.38h257.243v51.76h-257.243z" fill="#fbc700" transform="matrix(.707 -.707 .707 .707 -77.531 313.343)"/><g><g><path d="m272.359 217.55c3.032 3.032 3.032 7.948 0 10.98l-19.684 19.684c-3.032 3.032-7.948 3.032-10.98 0s-3.032-7.948 0-10.98l19.684-19.684c3.032-3.032 7.948-3.033 10.98 0z" fill="#07b27b"/></g><g><path d="m261.031 206.136c1.538 1.538 2.425 3.711 2.256 6.052-.31 4.277-4.027 7.493-8.304 7.184l-21.204-1.533c-4.275-.308-7.493-4.025-7.184-8.304.31-4.277 4.027-7.493 8.304-7.184l21.204 1.533c1.936.14 3.655.979 4.928 2.252z" fill="#07b27b"/></g><g><path d="m284.328 229.433c1.273 1.273 2.111 2.991 2.251 4.928l1.533 21.204c.309 4.277-2.907 7.994-7.184 8.304-4.275.308-7.994-2.907-8.303-7.184l-1.533-21.204c-.309-4.276 2.907-7.994 7.184-8.304 2.34-.169 4.513.718 6.052 2.256z" fill="#07b27b"/></g></g><path d="m325.376 145.213 19.32 19.32c18.824 18.824 18.824 49.343 0 68.167-18.824 18.824-49.343 18.824-68.167 0l-19.32-19.32c-18.824-18.824-18.824-49.343 0-68.167 18.824-18.824 49.343-18.824 68.167 0z" fill="#f24141"/><path d="m315.416 203.42c-17.132 17.132-43.952 18.671-62.825 4.618 1.387 1.864 2.926 3.65 4.618 5.342l19.32 19.32c18.824 18.824 49.343 18.824 68.167 0 18.824-18.824 18.824-49.343 0-68.167l-19.32-19.32c-1.692-1.692-3.478-3.23-5.342-4.618 14.053 18.873 12.514 45.693-4.618 62.825z" fill="#d83939"/></g></g></svg>