<svg height="512pt" viewBox="-93 0 512 512" width="512pt" xmlns="http://www.w3.org/2000/svg"><path d="m222.328125 468.082031c0-24.257812-21.375-43.921875-47.738281-43.921875-26.367188 0-47.738282 19.664063-47.738282 43.921875 0 24.253907 21.371094 43.917969 47.738282 43.917969 26.363281 0 47.738281-19.664062 47.738281-43.917969zm0 0" fill="#00a62c"/><path d="m311.414062 299.976562c0 58.9375-61.261718 106.71875-136.824218 106.71875-75.566406 0-136.824219-47.78125-136.824219-106.71875s27.792969-299.976562 136.824219-299.976562 136.824218 241.039062 136.824218 299.976562zm0 0" fill="#f9ee80"/><path d="m146.25 367.382812s26.042969-138.3125 142.300781-216.253906c18.171875-12.183594 41.96875 3.851563 37.710938 25.316406-5.578125 28.101563-11.066407 63.761719-10.523438 96.671876 1.128907 68.21875 11.265625 219.078124-113.886719 206.910156-81.183593-7.894532-55.601562-112.644532-55.601562-112.644532zm0 0" fill="#29ce69"/><path d="m283.375 451.851562c-14.011719-6.390624-24.042969-15.179687-31.035156-23.3125-8.816406-10.253906-13.617188-23.363281-13.621094-36.878906-.03125-66.410156-36.503906-111.496094-52.160156-127.792968-31.25 55.433593-40.308594 103.515624-40.308594 103.515624s-25.582031 104.75 55.601562 112.644532c38.671876 3.757812 64.429688-8.050782 81.523438-28.175782zm0 0" fill="#00c140"/><path d="m198.90625 367.382812s-9.808594-52.046874-44.21875-110.273437l-125.601562 32.085937c-1.554688 73.191407-1.851563 202.113282 114.21875 190.832032 81.183593-7.894532 55.601562-112.644532 55.601562-112.644532zm0 0" fill="#73da8c"/><path d="m154.683594 257.109375-125.597656 32.085937c-.605469 28.476563-1.019532 65.386719 5.535156 99.199219 20.515625-7.179687 48.648437-21.261719 61.046875-46.84375 20.660156-42.617187 76.910156-50.445312 76.910156-50.445312-5.050781-10.835938-10.972656-22.292969-17.894531-33.996094zm0 0" fill="#29ce69"/><path d="m154.6875 257.109375s-77.121094 12.726563-123.972656 77.421875c-10.050782 13.878906-32.058594 5.667969-30.6484378-11.410156 2.2148438-26.863282 10.8124998-59.191406 34.0468748-89.722656 5.4375-7.144532 12.699219-12.746094 21.082031-15.96875 22.25-8.554688 67.390626-16.289063 99.492188 39.679687zm0 0" fill="#b9ecc2"/><path d="m154.828125 75.867188-10.199219-10.195313c-4.957031-4.960937-4.957031-12.996094 0-17.953125l10.199219-10.199219c4.957031-4.957031 12.996094-4.957031 17.953125 0l10.195312 10.199219c4.960938 4.957031 4.960938 12.992188 0 17.953125l-10.195312 10.195313c-4.957031 4.957031-12.996094 4.957031-17.953125 0zm0 0" fill="#eedb00"/><path d="m197.355469 118.394531-10.199219-10.195312c-4.957031-4.957031-4.957031-12.996094 0-17.953125l10.199219-10.199219c4.957031-4.957031 12.996093-4.957031 17.953125 0l10.199218 10.199219c4.957032 4.957031 4.957032 12.996094 0 17.953125l-10.199218 10.195312c-4.957032 4.957031-12.996094 4.957031-17.953125 0zm0 0" fill="#eedb00"/><g fill="#454545"><path d="m238.105469 170.386719c-4.265625 0-7.726563-3.460938-7.726563-7.726563v-12.828125c0-4.265625 3.460938-7.726562 7.726563-7.726562 4.269531 0 7.726562 3.460937 7.726562 7.726562v12.828125c0 4.269532-3.457031 7.726563-7.726562 7.726563zm0 0"/><path d="m110.761719 170.386719c-4.265625 0-7.726563-3.460938-7.726563-7.726563v-12.828125c0-4.265625 3.460938-7.726562 7.726563-7.726562 4.269531 0 7.726562 3.460937 7.726562 7.726562v12.828125c0 4.269532-3.457031 7.726563-7.726562 7.726563zm0 0"/><path d="m179.710938 154.941406c-1.730469 2.542969-4.253907 2.847656-5.277344 2.847656-1.023438 0-3.589844-.277343-5.277344-2.847656-2.34375-3.566406-7.132812-4.558594-10.699219-2.214844-3.566406 2.34375-4.558593 7.132813-2.214843 10.699219 4.035156 6.148438 10.835937 9.816407 18.191406 9.816407 7.355468 0 14.15625-3.667969 18.195312-9.816407 2.339844-3.566406 1.347656-8.355469-2.21875-10.699219-1.304687-.859374-7.085937-3.082031-10.699218 2.214844zm0 0"/></g></svg>