<svg id="Capa_1" enable-background="new 0 0 512 512" height="512" viewBox="0 0 512 512" width="512" xmlns="http://www.w3.org/2000/svg"><g><g><path d="m491.5 193.587c14.833-67.722-58.5-96.219-58.5-96.219-52.667-52.3-132.667-37.3-132.667-37.3-86-18.774-110.667 33.526-110.667 33.526-90.667 40.231-81.333 101.67-81.333 101.67-22 20.786-32.667 57.329-32.667 57.329-45.333 49.283-16 63.364-38.667 95.549s-27 44.254-27 44.254.611 14.458 8.667 28.162c9.507 16.17 42.334 18.467 42.334 18.467 46.667 32.185 114 8.717 114 8.717 63.333 9.387 102.667-16.456 102.667-16.456 48-8.717 70.642-25.921 93.667-36.252 42.079-18.88 50.333-50.244 50.333-50.244 37.333-19.445 46-59.005 46-59.005 27.946-25.26 34.325-48.818 34.333-65.376.008-16.093-10.5-26.822-10.5-26.822z" fill="#ffd0c7"/><path d="m391 285.33c-26.24 27.53-67.58 80.17-130.63 96.96-2.68.59-5.35 1.23-7.98 1.92-15.38 3.98-29.62 9.19-39.39 10.79-73.27 11.98-57.67-8.19-101 6-62.55 20.49-102-8.61-102-8.61s4.33-12.06 27-44.25c22.67-32.18-6.67-46.26 38.67-95.55 0 0 10.66-36.54 32.66-57.33 0 0 33.34-73.93 156.67-79.26s140.67 44.67 145.33 74.67c4.67 30 8 66-19.33 94.66z" fill="#f2b394"/><path d="m222.33 320c-19.31 18.32-57.99 21.33-75.82 38.67-17.84 17.33-18.79 40.31-54.82 47.49-50.66 9.12-81.69-13.77-81.69-13.77s4.33-12.06 27-44.25c0 0 .01-.01.02-.04 2.09-2.96 3.74-5.77 5.03-8.47 10.1-15.53 35.57-48.34 78.95-64.3 0 0 45.33-49.33 84-35.33 27.12 9.82 37.01 61.33 17.33 80z" fill="#ffd0c7"/></g><g><path d="m505.48 196.08c-1.01-1.8-2.109-3.53-3.279-5.16.85-5.05 1.279-10.101 1.279-15.01.011-7.44-.989-14.801-2.97-21.87-1.8-6.431-4.42-12.681-7.79-18.58-7.86-13.72-19.65-25.86-35.07-36.101-8.38-5.54-15.51-8.93-19.01-10.47-15.83-15.25-35.27-26.43-57.79-33.21-16.76-5.04-34.859-7.6-53.83-7.61-12.58.011-21.96 1.15-26.439 1.83-12.371-2.589-24.281-3.899-35.38-3.899h-.25c-14.2 0-27.46 2.189-39.41 6.5-9.78 3.53-18.55 8.41-26.06 14.51-8.76 7.08-14.03 14.13-16.91 18.81-17.38 7.98-32.43 17.381-44.75 27.95-10.59 9.08-19.24 19.08-25.69 29.71-12.27 20.15-14.08 39.08-14.07 47.92 0 .185-.002.095-.004.004-8.749 9.26-16.398 21.078-23.386 36.127-4.09 8.869-6.69 16.31-7.88 19.96-10.3 11.43-17.57 21.949-22.21 32.159-6.18 13.49-6.81 26.12-7.25 35.15-.27 4.74-.74 10.11-1.86 14.1-1.31 4.641-3.36 8.801-6.65 13.48-22.051 31.33-27.381 44.34-28.231 46.63-.43 1.19-.64 2.54-.58 3.81 0 .051.88 7.931 1.79 11.851 1.76 7.52 4.54 14.57 8.25 20.95 3.13 5.3 7.82 9.66 14.33 13.359 6.48 3.63 14.26 6.33 23.77 8.271 3.96.79 7.29 1.24 9.38 1.479 17.67 11.44 39.45 17.25 64.76 17.27 24.98-.03 45.78-5.63 53.57-8.04 17.7 2.42 35.46 2.43 52.36.03 5.46-.78 9.27-5.851 8.5-11.301-.7-4.909-5.66-8.55-10.6-8.55-15.77 2.24-33.04 2.17-49.65-.29-1.61-.24-3.22-.09-4.76.45 0 0-.03.01-.16.05-.22.08-22.35 7.65-49.09 7.65h-.26c-22.26 0-40.94-5.12-55.52-15.21-1.48-1.021-3.31-1.63-5.09-1.75-.08-.011-8.53-.69-17.09-3.271-4.26-1.27-8.04-2.859-10.92-4.58-2.94-1.729-5.17-3.76-6.29-5.699-.903-1.533-1.69-3.081-2.381-4.608 10.735 3.916 25.325 7.432 43.16 7.432 4.134 0 8.448-.196 12.923-.613.008 0 .019.003.027.003 16.341-1.526 18.256-2.015 34.093-7.202 18.671-6.115 24.271-5.181 33.549-3.632 11.213 1.872 26.569 4.436 65.952-2.002 6.422-1.05 13.919-3.305 22.601-5.917 15.768-4.743 35.398-10.652 51.763-9.512 29.087 2.01 42.578-4.039 59.66-11.702 12.527-5.619 27.536-12.348 53.975-18.688-8.628 11.147-20.529 20.18-35.372 26.86-6.141 2.779-11.95 5.819-18.101 9.04-11.649 6.09-23.7 12.39-39.76 17.88-2.53.87-4.57 2.67-5.75 5.069-1.17 2.4-1.34 5.11-.47 7.641 1.38 4.04 5.18 6.76 9.46 6.76 1.1 0 2.189-.19 3.239-.55h.011c17.92-6.16 31.33-13.19 43.16-19.4 5.779-3.04 11.229-5.899 16.399-8.189 23.8-10.66 37.59-25.19 44.97-35.5 5.021-6.99 7.9-13.07 9.44-16.95 8.58-4.95 16.39-11.25 23.19-18.73 5.47-6 10.3-12.779 14.38-20.14 5.239-9.47 7.989-17.63 9.17-21.67 12.56-11.76 21.92-24.271 27.819-37.18 5.051-11 7.61-22.301 7.601-33.58-.007-8.409-2.198-16.599-6.518-24.329zm-380.659 174.3c-8.027 12.189-14.37 21.82-34.993 25.955-32.466 5.821-55.755-2.434-66.77-7.884 3.563-6.531 10.289-17.761 22.178-34.644.062-.089-.06.092 0 0 2.12-3.024 4.059-6.248 5.533-9.238 8.806-13.402 32.971-44.875 73.684-59.854 1.494-.549 2.834-1.447 3.911-2.618 11.355-12.357 46.649-42.317 73.232-32.694 9.009 3.263 16.784 14.726 19.806 29.203 2.97 14.225.577 27.944-5.954 34.14-8.243 7.82-22.064 12.852-35.431 17.717-14.806 5.389-30.115 10.961-40.474 21.035-6.347 6.164-10.797 12.921-14.722 18.882zm132.976 2.247c-.012.003-.023.008-.035.011-9.296 2.054-18.263 4.741-26.31 7.163-7.678 2.31-14.93 4.491-20.065 5.33-36.121 5.904-49.048 3.745-59.433 2.014-4.642-.775-8.766-1.382-13.309-1.44.986-1.453 1.94-2.899 2.879-4.325 3.689-5.602 7.175-10.894 11.958-15.541 7.289-7.089 19.96-11.7 33.375-16.583 15.288-5.564 31.096-11.318 42.355-22.001 11.727-11.125 16.235-31.332 11.767-52.737-4.543-21.761-16.72-38.18-32.575-43.92-40.32-14.602-83.844 26.758-93.06 36.177-26.235 10.098-44.675 27.681-57.774 44.045.412-6.701 1.103-12.638 4.04-20.13 3.78-9.51 10.78-19.76 21.42-31.33 1.03-1.13 1.85-2.645 2.28-4.115.31-1.01 3.22-10.385 8.51-21.435 3.6-7.56 11.16-21.68 21.38-31.279.928-.877 1.68-1.951 2.206-3.077.079-.171 8.188-17.335 30.253-34.812 20.446-16.193 57.475-36.045 117.773-38.651 123.902-5.348 131.977 46.641 135.018 66.218 4.653 29.894 7.198 61.175-16.688 86.223-3.393 3.56-7.016 7.511-10.851 11.694-26.536 28.946-62.878 68.591-115.114 82.501zm228.423-126.957c-5.12 11.16-13.62 22.16-25.26 32.689-1.561 1.41-2.61 3.24-3.061 5.28-.02.09-2.229 9.48-8.569 20.55-7.822 13.677-18.273 24.11-31.063 31.068-41.365 7.891-62.409 17.323-77.816 24.233-8.941 4.011-15.932 7.143-24.439 8.869 30.654-19.617 53.919-45.386 71.641-64.719 3.769-4.11 7.327-7.992 10.584-11.409 32.687-34.278 25.718-79.048 21.975-103.097-2.46-15.832-8.449-38.965-31.963-56.985-25.804-19.776-67.419-28.574-123.681-26.14-66.424 2.87-107.59 25.421-130.429 43.834-1.767 1.425-3.448 2.847-5.061 4.262.046-.076.085-.15.131-.226 12.49-20.46 34.19-37.66 64.51-51.15 2.2-.97 3.97-2.699 4.99-4.87 0 0 0 0 .01-.01.21-.41 4.33-8.34 14.28-16.03 13.6-10.46 31.16-15.779 52.2-15.819 10.229 0 21.33 1.29 33 3.84 1.29.28 2.67.3 3.979.06l.04-.01c.4-.08 10.16-1.82 24.78-1.82h.08c11.67 0 29.479 1.171 47.989 6.761 20.051 6.05 37.171 16.02 50.881 29.63 1 .99 2.119 1.72 3.43 2.229h.01c.42.16 14.61 5.931 28.05 17.5 7.71 6.61 13.811 13.87 18.13 21.591 5.311 9.489 7.9 19.35 7.91 30.13 0 5.01-.59 10.239-1.75 15.54-.72 3.29.25 6.699 2.61 9.119.02.021 2.13 2.311 4.06 5.971 1.65 3.109 3.61 8.029 3.601 13.87-.019 8.509-1.909 16.779-5.779 25.259z"/><path d="m340.299 239.35c-5.297-1.552-10.855 1.489-12.404 6.791-4.989 17.058-15.425 29.85-15.529 29.977 0 0-6.077 6.445-4.115 11.508 2.375 6.13 9.375 6.375 11.985 5.891 4.898-.909 7.646-4.644 9.825-7.624 1.74-2.381 3.462-4.959 5.117-7.663 5.3-8.662 9.309-17.569 11.912-26.475 1.551-5.302-1.49-10.855-6.791-12.405z"/><path d="m304.835 185.969c6.867 4.077 12.779 9.721 17.572 16.773 1.438 2.115 2.7 4.318 3.752 6.547 1.707 3.615 5.301 5.732 9.05 5.732 1.43 0 2.884-.308 4.263-.959 4.994-2.358 7.131-8.318 4.773-13.312-1.494-3.165-3.276-6.276-5.295-9.248-6.455-9.498-14.498-17.146-23.906-22.73-4.75-2.823-10.886-1.255-13.703 3.494-2.819 4.749-1.255 10.885 3.494 13.703z"/><path d="m276.647 167.199c-.203-5.392-4.637-9.625-9.986-9.625-.127 0-.255.002-.382.007-22.179.833-39.763 7.792-40.501 8.088-5.126 2.056-7.615 7.877-5.559 13.003 1.566 3.906 5.319 6.281 9.284 6.281 1.239 0 2.499-.232 3.719-.722.148-.06 15.06-5.96 33.806-6.664 5.52-.206 9.826-4.849 9.619-10.368z"/><circle cx="269.859" cy="435.5" r="10"/></g></g></svg>