<svg id="icons" height="512" viewBox="0 0 340 340" width="512" xmlns="http://www.w3.org/2000/svg"><path d="m228.493 46.248q1.7-.915 3.5-1.771s25.273-13.362 42.121-2.614c0 0 21.137 14.465-.068 33.928-16.5 15.139-42.618 31.546-65.441 32.618.22-22.009 8.3-42.44 19.888-62.161z" fill="#ffed80"/><path d="m190.164 105.19a39.665 39.665 0 0 0 18.441 3.212c18.04-19.623 20.213-47.29 19.889-62.153-36.416 19.599-38.33 58.941-38.33 58.941z" fill="#efc660"/><path d="m249.884 112.029q1.212-.669 2.406-1.394c11.655-7.075 25.6-18.451 34.2-38.268 3.293-7.588.923-17.522-4.493-23.773a35.021 35.021 0 0 0 -7.879-6.731s9.374 7.87-.305 24.481c-7.959 13.658-26.19 33.267-51 39.322-1.934 8.62 12.137 12.203 27.071 6.363z" fill="#e8c182"/><path d="m249.881 112.025c-14.875 2.788-22.869-1.706-27.071-6.363a65.025 65.025 0 0 1 -32.646-.472 23.488 23.488 0 0 0 9.586 8.263c17.646 8.822 35.021 6.917 50.131-1.428z" fill="#b77d4e"/><path d="m178.129 19.028s28.824 8.087 26.311 29.162c-10.08 84.535-63.977 68.554-63.977 68.554s-20.163-2.312-16.823-31.263c2.583-22.351 18.044-68.398 54.489-66.453z" fill="#ffed80"/><path d="m178.129 19.028s24.683 4.424 17.954 38.089c-2.725 13.637-7.9 25.79-14.9 35.513 2.9 4.331 14.225 5.276 20.438-1.29a102.005 102.005 0 0 0 10.185-29.551c8.84-46.496-33.677-42.761-33.677-42.761z" fill="#e8c182"/><path d="m77.9 160.662a58.343 58.343 0 0 1 -15.784-6.087 32.9 32.9 0 0 0 -40.7 7.029 58.51 58.51 0 0 0 -8.139 12.367 26.778 26.778 0 0 0 .816 25.523c5.094 8.6 10.752 24.991 8.386 54.034a17.348 17.348 0 0 0 8.761 16.658c.111.061.224.122.338.182a17.475 17.475 0 0 0 22.331-5.507 68.029 68.029 0 0 0 11.4-25.979s15.149 28.642 21.878 56.042c6.862 27.945 39.559 21.878 39.559 21.878a36.809 36.809 0 0 0 9.721 4.466 25.864 25.864 0 0 0 33.042-21.968c1.187-10.387.033-24.923-8.591-42.737 0 0 36.851 46.016 109.992 30.441 0 0 44.3-2.963 56.154-31.456a33.423 33.423 0 0 0 2.479-13.872 56.514 56.514 0 0 0 -5.3-22.716c-7.42-15.162-24.879-22.55-41.13-17.987-14.962 4.2-38.114 13.759-56.831 12.589l-.047-32.164a40.84 40.84 0 0 0 -2.2-5.149c-9.414-18.393-27.82-29.869-47.308-25.067a22.267 22.267 0 0 1 -8.371 2.769 133.613 133.613 0 0 0 -17.705 8.039c-.1.053-.194.106-.292.158a5.826 5.826 0 0 1 -6.873 2.04 18 18 0 0 1 -15.4-6.254q-.165-.2-.33-.4a19.5 19.5 0 0 0 -14.895-7.161l-16.975-.161a18.843 18.843 0 0 0 -10.319 2.91 23.264 23.264 0 0 0 -7.667 7.54z" fill="#e8c182"/><g fill="#b77d4e"><path d="m97.556 162.369c-2.925-1.481-5.863-3.935-5.114-7.672a11.564 11.564 0 0 1 2.008-4.44 18.739 18.739 0 0 0 -8.881 2.867 23.267 23.267 0 0 0 -7.666 7.538 131.652 131.652 0 0 0 19.186 3.308.85.85 0 0 0 .467-1.601z"/><path d="m51.4 226.964a3.492 3.492 0 0 1 -2.324-6.1c13.17-11.727 18.362-34.509 19.983-43.76a3.491 3.491 0 1 1 6.878 1.206c-1.747 9.97-7.409 34.583-22.217 47.77a3.481 3.481 0 0 1 -2.32.884z"/><path d="m325.5 221.786c-1.338 20.662-13.765 36.694-61.686 46.523-37.507 7.694-62.384-5.336-74.436-14.428a50.672 50.672 0 0 1 -10.992-11.7c-13.357-19.252-37.74-23.807-55.122-17.576a49.086 49.086 0 0 1 -22.65 2.595 2 2 0 0 0 -1.02 3.825 61.92 61.92 0 0 0 15.093 3.805c20.25 2.807 34.115 2.765 46.229 21.732 0 0 36.851 46.016 109.992 30.441 0 0 44.795-3 56.347-31.93a34.119 34.119 0 0 0 2.259-14.111 57.775 57.775 0 0 0 -4.014-19.176z"/><path d="m112.88 233.98a3.492 3.492 0 0 1 -2.36-6.067c15.035-13.771 10.644-42.354 10.6-42.642a3.491 3.491 0 1 1 6.894-1.106c.213 1.324 5 32.613-12.775 48.9a3.478 3.478 0 0 1 -2.359.915z"/><path d="m152.461 237.815a3.487 3.487 0 0 0 4.747-1.36c8.32-15 8.792-37.058 1.053-49.165-5.755-9-7.464-18.759-7.909-25.152a18.171 18.171 0 0 1 -6.869 2.041 60.446 60.446 0 0 0 8.894 26.871c6.393 10 5.809 29.244-1.276 42.019a3.49 3.49 0 0 0 1.36 4.746z"/><path d="m189.755 188.73a3.491 3.491 0 0 0 6.937-.8c-2.238-19.4-11.929-30.626-19.965-36.736-1.054.26-2.111.555-3.171.911-1.649.555-3.394 1.172-5.2 1.848 7.068 4.147 19.013 14.091 21.399 34.777z"/><path d="m188.147 208.486c15.354 5.077 38.133 5.077 38.133 5.077s5.6-15.958-.05-32.163c-1.213 21.015-24.116 23.733-37.492 23.512a1.833 1.833 0 0 0 -.591 3.574z"/><path d="m211.7 275.412a3.494 3.494 0 0 1 -3.178-4.935c.434-.956.914-1.96 1.419-3.016 2.275-4.76 4.854-10.155 5.922-16.758 3.138-19.415-5.1-41.729-5.179-41.952a3.492 3.492 0 1 1 6.54-2.449c.367.982 8.963 24.292 5.532 45.516-1.227 7.594-4.159 13.727-6.515 18.655-.483 1.011-.943 1.973-1.359 2.889a3.493 3.493 0 0 1 -3.182 2.05z"/><path d="m283.677 278.454a3.581 3.581 0 0 1 -.614-.054 3.492 3.492 0 0 1 -2.828-4.048 64.874 64.874 0 0 0 .229-20.434 3.491 3.491 0 0 1 6.905-1.039 72.036 72.036 0 0 1 -.258 22.693 3.493 3.493 0 0 1 -3.434 2.882z"/><path d="m274.329 224.91a3.492 3.492 0 1 0 6.579-2.342 94.355 94.355 0 0 0 -8.825-18.183c-2.222.715-4.526 1.457-6.889 2.2a87.625 87.625 0 0 1 9.135 18.325z"/><circle cx="40.325" cy="167.782" r="3.553"/><circle cx="40.325" cy="189.519" r="3.553"/><circle cx="280.676" cy="239.279" r="3.553"/><circle cx="242.494" cy="247.937" r="3.553"/></g><path d="m163.931 74.12c7.762-30.029-3.552-44.558-8.466-49.223-20.439 12.87-29.86 43.58-31.825 60.584-2.765 23.937 10.533 29.658 15.226 30.924 6.628-4.7 18.348-16.305 25.065-42.285z" fill="#efc660"/><path d="m111.3 18.242s29.558 4.752 29.461 25.976c-.388 85.133-55.753 75.394-55.753 75.394s-21.224 0-20.274-29.144c.732-22.488 10.136-70.008 46.566-72.226z" fill="#ffed80"/><path d="m111.3 18.242s25.026 1.584 22.175 35.8c-1.443 17.32-6.945 32.772-15.521 44.384 4.077 4.905 17.355.621 22.512-5.546 4.427-9.136 8.056-20.96 9.165-35.987 3.483-47.204-38.331-38.651-38.331-38.651z" fill="#e8c182"/><path d="m181.184 92.629c-10.281 14.28-24.5 23.318-40.721 24.115l23.608 2.706a26.077 26.077 0 0 0 19.639-5.811 74.949 74.949 0 0 0 17.909-22.3 35.031 35.031 0 0 1 -20.435 1.29z" fill="#b77d4e"/><path d="m108.769 119.612a26.087 26.087 0 0 0 18.85-8.01 73.037 73.037 0 0 0 12.843-18.728 63.988 63.988 0 0 1 -22.516 5.543c-8.363 11.326-19.645 19-32.939 21.195z" fill="#b77d4e"/><path d="m164.092 312.481c-26.645 2.8-29.991-18.608-29.991-18.608-24.644 5.5-38.154-17.882-44.485-34.385a95.682 95.682 0 0 0 -40.63-47.94c-3.348-1.983-6.971-3.951-10.885-5.87-24.557-12.037-24.841-27.349-22.725-35.578-.719 1.229-1.419 2.514-2.093 3.87a27.532 27.532 0 0 0 1.084 25.984c5.021 8.718 10.441 25.041 8.117 53.575a17.348 17.348 0 0 0 8.761 16.658c.111.061.224.122.338.182a17.475 17.475 0 0 0 22.331-5.507 68.029 68.029 0 0 0 11.4-25.979s15.149 28.642 21.878 56.042c6.862 27.945 39.559 21.878 39.559 21.878a36.809 36.809 0 0 0 9.721 4.466 25.705 25.705 0 0 0 27.62-8.788z" fill="#b77d4e"/><path d="m92.229 286.372a3.5 3.5 0 0 1 -3.418-4.224 79.548 79.548 0 0 1 6.089-17.637 65.231 65.231 0 0 1 15.733-21.252 3.492 3.492 0 0 1 4.589 5.265 58.281 58.281 0 0 0 -14.024 19 72.59 72.59 0 0 0 -5.561 16.084 3.492 3.492 0 0 1 -3.408 2.764z" fill="#b77d4e"/><path d="m129.644 308.775a3.494 3.494 0 0 1 -3.332-4.538c6.858-21.858 18.659-33.194 27.352-38.854a3.491 3.491 0 1 1 3.81 5.852c-7.733 5.035-18.262 15.212-24.5 35.092a3.5 3.5 0 0 1 -3.33 2.448z" fill="#b77d4e"/></svg>