<svg id="Capa_1" enable-background="new 0 0 496.902 496.902" height="512" viewBox="0 0 496.902 496.902" width="512" xmlns="http://www.w3.org/2000/svg"><path d="m324.895 35.013c-9.496-6.027-20.788-6.899-30.61-3.364-8.921-18.868-26.106-31.649-45.849-31.649s-36.928 12.781-45.848 31.649c-9.823-3.535-21.114-2.663-30.61 3.364-16.312 10.352-21.144 31.969-10.792 48.281l4.05 6.381 70.695 46.109c5.388-3.419 9.515-8.072 12.264-13.353.081 0 .161.007.242.007s.161-.007.242-.007c2.749 5.28 6.876 9.933 12.264 13.353l70.694-46.109 4.05-6.381c10.352-16.313 5.52-37.929-10.792-48.281z" fill="#bce098"/><path d="m282.361 77.328c-22.617-.308-45.233-.308-67.85 0-17.56.327-34.264 4.777-49.276 12.347l22.413 35.317c10.352 16.312 31.969 21.144 48.281 10.792 5.388-3.419 9.515-8.072 12.264-13.353.081 0 .161.007.242.007s.161-.007.242-.007c2.749 5.28 6.876 9.933 12.264 13.353 16.312 10.352 37.929 5.521 48.281-10.792l22.413-35.317c-15.01-7.57-31.714-12.02-49.274-12.347z" fill="#99ce64"/><path d="m392.94 190.518c5.467 15.317 7.816 31.751 6.216 48.352-1.36 15.18-9.43 39.27-21.21 68.25l-10.541 5.734 4.561 8.706c-7.47 17.65-16.01 36.72-25.04 56.42l-10.172 5.413 3.592 8.897c-10 21.63-20.41 43.78-30.47 65.48-2.629 5.862-5.973 11.096-9.869 15.682l-83.321-12.262-70.494-171.908 39.796-169.191 113.975-10.063c37.312 6.607 69.638 32.519 86.732 66.029l-3.596 9.374z" fill="#f1b260"/><path d="m119.59 160.35c21.673-30.549 56.922-51.571 94.926-51.96 22.61-.31 45.23-.31 67.84 0 5.898.123 11.789.686 17.59 1.73-16.88 3.01-32.63 9.8-46.39 19.39-34.57 24.06-56.63 65.74-52.82 109.36 3.41 38.08 49.05 132.21 89.28 218.9 2.73 5.87 6.08 11.08 9.93 15.63-25.812 31.255-76.955 31.357-102.86.18-4.091-4.774-7.43-10.093-10.09-15.81-5.302-11.428-10.701-22.993-16.081-34.529l3.336-7.337-9.995-6.953c-7.213-15.571-14.375-30.998-21.361-46.435l1.986-7.505-8.42-6.843c-7.027-15.826-13.827-31.712-20.265-47.827-11.735-30.561-23.596-58.976-17.1-91.45 2.094-12.093 6.177-23.732 11.873-34.53z" fill="#eea849"/><ellipse cx="168.879" cy="248.142" fill="#fcfafa" rx="29.355" ry="23.377"/><ellipse cx="327.993" cy="248.142" fill="#fcfafa" rx="29.355" ry="23.377"/><path d="m185.987 233.139c-4.142 0-7.5-3.358-7.5-7.5v-12c0-4.142 3.358-7.5 7.5-7.5s7.5 3.358 7.5 7.5v12c0 4.142-3.358 7.5-7.5 7.5z" fill="#4e5660"/><path d="m310.885 233.139c-4.142 0-7.5-3.358-7.5-7.5v-12c0-4.142 3.358-7.5 7.5-7.5s7.5 3.358 7.5 7.5v12c0 4.142-3.358 7.5-7.5 7.5z" fill="#4e5660"/><path d="m248.436 240.282c-8.477 0-16.54-3.671-22.119-10.073-2.721-3.123-2.396-7.86.727-10.582 3.123-2.721 7.86-2.396 10.582.727 2.729 3.132 6.669 4.929 10.81 4.929s8.081-1.796 10.81-4.929c2.721-3.123 7.458-3.448 10.582-.727 3.122 2.722 3.448 7.459.727 10.582-5.579 6.402-13.641 10.073-22.119 10.073z" fill="#4e5660"/><g fill="#eb9c32"><path d="m119.576 160.34h54.3c4.14 0 7.5 3.36 7.5 7.5 0 4.15-3.36 7.5-7.5 7.5h-59.19c-1.34 0-2.59-.35-3.68-.96l9.934-6.54z"/><path d="m377.946 307.12c-1.9 4.69-3.9 9.51-5.98 14.44h-64.21c-4.14 0-7.5-3.36-7.5-7.5s3.36-7.5 7.5-7.5h67.35c1.01 0 1.97.2 2.84.56z"/><path d="m241.566 415.74c0 4.14-3.36 7.5-7.5 7.5h-63.15c-2.22-4.77-4.45-9.53-6.66-14.29.96-.46 2.03-.71 3.16-.71h66.65c4.14 0 7.5 3.36 7.5 7.5z"/><path d="m199.216 355.01c0 4.14-3.36 7.5-7.5 7.5h-48.81c-2.161-4.79-4.319-9.57-6.43-14.35.93-.42 1.96-.65 3.05-.65h52.19c4.14 0 7.5 3.36 7.5 7.5z"/><path d="m346.926 377.98c-2.17 4.74-4.37 9.51-6.58 14.31h-32.59c-4.14 0-7.5-3.36-7.5-7.5s3.36-7.5 7.5-7.5h36.05c1.11 0 2.17.24 3.12.69z"/><path d="m392.906 190.53c-.84.33-1.75.51-2.71.51h-38.74c-4.14 0-7.5-3.36-7.5-7.5s3.36-7.5 7.5-7.5h35.27c2.37 4.68 4.44 9.52 6.18 14.49z"/></g></svg>