<?xml version="1.0" encoding="iso-8859-1"?>
<!-- Generator: Adobe Illustrator 19.0.0, SVG Export Plug-In . SVG Version: 6.00 Build 0)  -->
<svg version="1.1" id="Capa_1" xmlns="http://www.w3.org/2000/svg" xmlns:xlink="http://www.w3.org/1999/xlink" x="0px" y="0px"
	 viewBox="0 0 512 512" style="enable-background:new 0 0 512 512;" xml:space="preserve">
<path style="fill:#F3C97F;" d="M189.946,414.91L89.077,314.04c-7.859-7.859-7.859-20.601,0-28.462l23.083-23.083
	c7.859-7.859,20.601-7.859,28.462,0l100.869,100.869c7.859,7.859,7.859,20.601,0,28.462l-23.083,23.083
	C210.548,422.769,197.806,422.769,189.946,414.91z"/>
<path style="fill:#AA8769;" d="M237.651,359.524l-93.189-93.189c-9.98-9.98-9.98-26.162,0-36.142l0,0
	c9.98-9.98,26.161-9.98,36.142,0l93.189,93.189c9.98,9.98,9.98,26.162,0,36.142l0,0
	C263.812,369.504,247.631,369.504,237.651,359.524z"/>
<path style="fill:#F3C97F;" d="M418.639,214.679L418.639,214.679c7.704-7.704,7.704-20.194,0-27.899L317.207,85.349
	c-7.704-7.704-20.194-7.704-27.899,0l0,0c-5.781,5.781-8.255,14.088-6.58,22.091l3.09,14.756c1.352,6.455-0.644,13.157-5.308,17.821
	l0,0c-4.42,4.42-10.687,6.458-16.861,5.484l-14.302-2.256c-9.734-1.536-19.614,1.678-26.583,8.646l-43.317,43.317
	c-9.341,9.341-9.341,24.486,0,33.829l95.502,95.502c9.341,9.341,24.486,9.341,33.829,0l43.317-43.317
	c6.968-6.968,10.182-16.849,8.646-26.583l-2.256-14.302c-0.974-6.174,1.065-12.441,5.484-16.861l0,0
	c4.664-4.664,11.366-6.66,17.821-5.308l14.756,3.09C404.549,222.934,412.857,220.46,418.639,214.679z"/>
<g>
	
		<ellipse transform="matrix(0.7071 -0.7071 0.7071 0.7071 -72.4091 221.3616)" style="fill:#FFFFFF;" cx="231.003" cy="198.086" rx="15.563" ry="19.543"/>
	
		<ellipse transform="matrix(-0.7071 0.7071 -0.7071 -0.7071 715.2512 249.7119)" style="fill:#FFFFFF;" cx="305.909" cy="272.989" rx="15.563" ry="19.543"/>
</g>
<rect x="306.436" y="111.348" transform="matrix(-0.7071 -0.7071 0.7071 -0.7071 556.5826 482.1911)" style="fill:#AA8769;" width="143.441" height="28.951"/>
<path style="opacity:0.1;enable-background:new    ;" d="M337.679,64.876l-10.236,10.236l62.312,62.312
	c3.092,3.092,3.092,8.106,0,11.199l-4.636,4.636l33.52,33.52l20.472-20.472L337.679,64.876z"/>
<path style="fill:#F3C97F;" d="M466.604,68.605l-31.222-31.222c-27.092-27.092-71.016-27.092-98.109,0l0,0
	c-7.48,7.48-7.48,19.607,0,27.088l102.242,102.242c7.48,7.48,19.608,7.48,27.088,0l0,0
	C493.696,139.622,493.696,95.697,466.604,68.605z"/>
<path style="fill:#AA8769;" d="M492.205,42.609l-30.827-30.827c-5.722-5.722-14.999-5.722-20.721,0l-5.077,5.078
	c-5.722,5.722-5.722,14.999,0,20.721l30.827,30.827c5.722,5.722,14.999,5.722,20.721,0l5.078-5.077
	C497.927,57.608,497.927,48.331,492.205,42.609z"/>
<g>
	<circle style="fill:#495059;" cx="65.672" cy="369.477" r="14.779"/>
	<circle style="fill:#495059;" cx="141.503" cy="425.568" r="14.779"/>
	<circle style="fill:#495059;" cx="78.482" cy="429.598" r="14.779"/>
	<circle style="fill:#495059;" cx="106.422" cy="489.72" r="14.779"/>
	<circle style="fill:#495059;" cx="30.291" cy="469.149" r="14.779"/>
</g>
<path style="opacity:0.15;fill:#C85412;enable-background:new    ;" d="M189.946,414.91c7.859,7.859,20.601,7.859,28.462,0
	l23.083-23.084c7.859-7.859,7.859-20.602,0-28.462l-28.396-28.396c-10.737,16.659-41.137,43.163-54.091,49L189.946,414.91z"/>
<path style="opacity:0.1;enable-background:new    ;" d="M237.651,359.524c9.98,9.98,26.162,9.98,36.142,0l0,0
	c9.98-9.98,9.98-26.161,0-36.142l-24.675-24.675c-6.972,20.763-22.433,31.676-36.305,35.98L237.651,359.524z"/>
<g>
	<path style="opacity:0.15;fill:#C85412;enable-background:new    ;" d="M385.188,153.329
		c-0.406,17.825-11.501,31.674-24.779,31.163c-15.589-0.6-34.176,8.994-37.174,49.765c-2.855,38.828-49.21,63.516-74.855,63.711
		l26.572,26.572c9.341,9.341,24.486,9.341,33.829,0l43.317-43.317c6.968-6.968,10.182-16.849,8.646-26.583l-2.256-14.302
		c-0.974-6.174,1.065-12.441,5.484-16.861l0,0c4.664-4.664,11.366-6.66,17.821-5.308l14.756,3.09
		c8.002,1.676,16.31-0.799,22.091-6.58c7.704-7.704,7.704-20.194,0-27.899L385.188,153.329z"/>
	<path style="opacity:0.15;fill:#C85412;enable-background:new    ;" d="M466.603,166.713L466.603,166.713
		c27.093-27.093,27.093-71.016,0-98.109l-5.139-5.139c-2.397,41.33-34.514,64.872-57.099,68.097l35.151,35.151
		C446.996,174.193,459.123,174.193,466.603,166.713z"/>
</g>
<path style="opacity:0.1;enable-background:new    ;" d="M487.127,68.407l5.078-5.077c5.722-5.722,5.722-14.999,0-20.721
	l-10.997-10.997c0.174,17.305-17.187,25.684-26.266,25.331l11.465,11.465C472.129,74.129,481.406,74.129,487.127,68.407z"/>
<path d="M497.508,68.633c8.636-8.637,8.637-22.689,0-31.328c0,0,0,0,0-0.001L466.681,6.478c-8.637-8.638-22.69-8.637-31.328,0.001
	l-5.077,5.077c-2.452,2.453-4.183,5.349-5.243,8.426c-12-7.024-25.726-10.657-40.018-10.408c-4.142,0.07-7.442,3.484-7.372,7.626
	c0.07,4.142,3.471,7.426,7.626,7.372c16.95-0.26,32.841,6.146,44.809,18.113l0.193,0.193c0.002,0.002,0.003,0.003,0.005,0.005
	l30.827,30.827c0.002,0.002,0.003,0.003,0.005,0.005l0.193,0.193c11.686,11.685,18.122,27.224,18.122,43.75
	s-6.435,32.066-18.122,43.751c-2.201,2.202-5.128,3.414-8.241,3.414s-6.04-1.212-8.241-3.414l-0.405-0.405l0,0L342.992,59.582
	c-0.003-0.003-0.006-0.007-0.009-0.01s-0.007-0.006-0.01-0.009l-0.395-0.395c-4.543-4.544-4.543-11.938,0-16.481
	c3.707-3.706,7.849-6.922,12.311-9.559c3.566-2.106,4.75-6.705,2.643-10.271c-2.106-3.566-6.705-4.75-10.272-2.642
	c-5.547,3.276-10.69,7.268-15.288,11.866c-8.698,8.697-10.111,21.959-4.249,32.147l-11.255,11.255
	c-3.996-2.224-8.509-3.412-13.208-3.412c-7.272,0-14.11,2.832-19.253,7.975c-7.599,7.599-10.82,18.414-8.617,28.933l3.09,14.756
	c0.836,3.992-0.386,8.098-3.271,10.981c-2.713,2.713-6.599,3.977-10.389,3.379l-14.301-2.256
	c-12.058-1.901-24.418,2.114-33.055,10.75l-43.317,43.317c-5.934,5.935-9.203,13.824-9.203,22.218c0,1.074,0.055,2.138,0.161,3.193
	c-0.851-0.065-1.706-0.107-2.569-0.107c-8.83,0-17.13,3.438-23.374,9.682c-6.243,6.243-9.682,14.544-9.682,23.374
	c0,0.34,0.015,0.677,0.025,1.015c-1.026-0.114-2.063-0.179-3.11-0.179c-7.379,0-14.316,2.873-19.534,8.091l-23.084,23.084
	c-10.77,10.77-10.77,28.297,0.001,39.068l100.869,100.869c5.386,5.386,12.458,8.078,19.534,8.078
	c7.073-0.001,14.149-2.693,19.534-8.078l23.084-23.084c6.176-6.176,8.803-14.573,7.896-22.644c0.343,0.01,0.686,0.025,1.03,0.025
	c8.83,0,17.13-3.438,23.374-9.682c6.243-6.243,9.682-14.544,9.682-23.374c0-0.863-0.043-1.718-0.108-2.569
	c1.054,0.106,2.12,0.161,3.194,0.161c8.392,0,16.283-3.268,22.217-9.202l43.317-43.316c8.635-8.635,12.654-20.991,10.751-33.056
	l-2.256-14.301c-0.598-3.792,0.666-7.676,3.379-10.39c2.883-2.884,6.989-4.105,10.98-3.271l14.757,3.09
	c10.516,2.2,21.332-1.019,28.932-8.616c8.776-8.777,10.289-22.1,4.555-32.454l11.258-11.258c4.003,2.314,8.557,3.553,13.305,3.553
	c7.119,0,13.813-2.772,18.847-7.807c14.519-14.52,22.515-33.825,22.515-54.358c0-13.82-3.637-27.077-10.433-38.699
	c3.083-1.059,5.984-2.792,8.441-5.249L497.508,68.633z M268.49,354.22c-3.411,3.411-7.945,5.289-12.768,5.289
	c-4.822,0-9.355-1.877-12.764-5.286l-4.263-4.262c-2.929-2.928-7.678-2.929-10.606,0.001c-2.929,2.929-2.929,7.678,0,10.607
	l8.1,8.099c4.922,4.923,4.922,12.933,0.001,17.854l-23.084,23.083c-4.923,4.924-12.932,4.924-17.855,0L94.38,308.738
	c-4.922-4.923-4.922-12.933,0-17.855l23.083-23.083c2.385-2.385,5.555-3.698,8.927-3.698c3.372,0,6.542,1.313,8.927,3.698
	l67.932,67.932c2.929,2.928,7.678,2.928,10.606,0c2.929-2.93,2.929-7.678,0-10.607l-64.083-64.082
	c-0.003-0.003-0.006-0.006-0.009-0.01c-3.41-3.41-5.288-7.943-5.288-12.767c0-4.823,1.878-9.356,5.288-12.767
	c3.411-3.411,7.945-5.289,12.768-5.289c4.82,0,9.353,1.876,12.762,5.283l93.19,93.188c0.002,0.002,0.003,0.003,0.005,0.005
	c3.41,3.411,5.288,7.945,5.288,12.768C273.778,346.277,271.9,350.81,268.49,354.22z M413.335,209.375
	c-4.005,4.005-9.707,5.7-15.25,4.542l-14.757-3.09c-8.967-1.874-18.185,0.869-24.661,7.345c-6.095,6.096-8.933,14.818-7.589,23.334
	l2.256,14.301c1.157,7.34-1.288,14.857-6.541,20.11l-43.317,43.317c-3.102,3.1-7.225,4.809-11.61,4.809
	c-4.386,0-8.509-1.708-11.611-4.81l-95.503-95.502c-3.101-3.101-4.809-7.224-4.809-11.609c0-4.387,1.708-8.51,4.809-11.61
	l43.317-43.317c4.394-4.395,10.371-6.823,16.503-6.823c1.2,0,2.406,0.093,3.607,0.282l14.302,2.256
	c8.516,1.342,17.238-1.494,23.332-7.589c6.478-6.477,9.224-15.695,7.346-24.662l-3.09-14.756c-1.161-5.544,0.537-11.245,4.542-15.25
	c2.31-2.31,5.38-3.582,8.646-3.582s6.336,1.272,8.646,3.582l101.432,101.432c2.31,2.31,3.582,5.38,3.582,8.646
	C416.916,203.995,415.644,207.067,413.335,209.375z M418.639,176.173L327.814,85.35l9.865-9.865l90.825,90.824L418.639,176.173z
	 M486.902,58.027l-5.077,5.077c-1.351,1.352-3.147,2.095-5.057,2.095c-1.908,0-3.702-0.742-5.052-2.09l-30.841-30.841
	c-2.779-2.79-2.776-7.319,0.009-10.105l5.077-5.077c1.351-1.351,3.147-2.095,5.057-2.095c1.911,0,3.707,0.743,5.057,2.095
	l30.827,30.826C489.69,50.7,489.69,55.238,486.902,58.027z M30.294,446.872c-12.285,0-22.279,9.994-22.279,22.278
	c0,12.285,9.994,22.279,22.279,22.279s22.279-9.994,22.279-22.279C52.573,456.867,42.579,446.872,30.294,446.872z M30.294,476.43
	c-4.014,0-7.279-3.266-7.279-7.279c0-4.014,3.265-7.278,7.279-7.278s7.279,3.265,7.279,7.278
	C37.573,473.164,34.308,476.43,30.294,476.43z M65.67,391.752c12.285,0,22.279-9.994,22.279-22.278
	c0-12.285-9.994-22.279-22.279-22.279s-22.279,9.994-22.279,22.279C43.391,381.757,53.385,391.752,65.67,391.752z M65.67,362.194
	c4.014,0,7.279,3.266,7.279,7.279c0,4.013-3.265,7.278-7.279,7.278s-7.279-3.265-7.279-7.278
	C58.39,365.46,61.657,362.194,65.67,362.194z M141.502,403.29c-12.285,0-22.279,9.994-22.279,22.278
	c0,12.285,9.994,22.279,22.279,22.279s22.279-9.994,22.279-22.279C163.782,413.285,153.787,403.29,141.502,403.29z M141.502,432.848
	c-4.014,0-7.279-3.266-7.279-7.279c0-4.014,3.265-7.278,7.279-7.278s7.279,3.265,7.279,7.278
	C148.781,429.582,145.516,432.848,141.502,432.848z M286.452,225.038c-2.033,0.144-4.027-0.604-5.464-2.041
	c-1.436-1.437-2.18-3.428-2.04-5.464c0.284-4.133-2.836-7.712-6.969-7.996c-4.128-0.278-7.712,2.837-7.996,6.969
	c-0.437,6.362,1.896,12.595,6.399,17.099c4.145,4.145,9.754,6.45,15.582,6.45c0.504,0,1.011-0.017,1.518-0.052
	c4.132-0.284,7.252-3.864,6.968-7.997C294.165,227.873,290.596,224.755,286.452,225.038z M308.408,243.77l-4.88,4.88
	c-2.929,2.929-2.929,7.678,0,10.606c1.465,1.465,3.384,2.197,5.304,2.197c1.919,0,3.839-0.732,5.303-2.196l4.88-4.88
	c2.929-2.929,2.929-7.678,0-10.606C316.086,240.841,311.337,240.842,308.408,243.77z M249.61,184.972l-4.88,4.88
	c-2.929,2.93-2.929,7.678,0,10.607c1.464,1.464,3.384,2.196,5.303,2.196c1.919,0,3.839-0.732,5.303-2.196l4.88-4.88
	c2.929-2.93,2.929-7.678,0-10.607C257.288,182.044,252.539,182.044,249.61,184.972z M106.418,467.442
	c-12.284,0-22.278,9.994-22.278,22.279c0,12.284,9.994,22.278,22.278,22.278c12.285,0,22.279-9.994,22.279-22.278
	C128.698,477.436,118.704,467.442,106.418,467.442z M106.418,497c-4.013,0-7.278-3.265-7.278-7.278c0-4.014,3.265-7.279,7.278-7.279
	c4.014,0,7.279,3.266,7.279,7.279C113.698,493.736,110.432,497,106.418,497z M100.761,429.597c0-12.285-9.994-22.279-22.279-22.279
	s-22.279,9.994-22.279,22.279c0,12.284,9.994,22.278,22.279,22.278S100.761,441.882,100.761,429.597z M78.482,436.876
	c-4.014,0-7.279-3.265-7.279-7.278c0-4.014,3.265-7.279,7.279-7.279s7.279,3.266,7.279,7.279
	C85.761,433.611,82.496,436.876,78.482,436.876z"/>
<g>
</g>
<g>
</g>
<g>
</g>
<g>
</g>
<g>
</g>
<g>
</g>
<g>
</g>
<g>
</g>
<g>
</g>
<g>
</g>
<g>
</g>
<g>
</g>
<g>
</g>
<g>
</g>
<g>
</g>
</svg>
