<svg height="512" viewBox="0 0 48 48" width="512" xmlns="http://www.w3.org/2000/svg"><g id="_03-green_beans" data-name="03-green beans"><circle cx="13.499" cy="35.5" fill="#008906" r="2.5"/><path d="m24 31a3.026 3.026 0 0 1 -.51 1.68 3.005 3.005 0 1 1 .51-1.68z" fill="#008906"/><path d="m30.829 24 .29.15c-.63 1.22-1.31 2.46-2.05 3.72l-.069-.04a3 3 0 1 1 1.829-3.83z" fill="#008906"/><circle cx="27.999" cy="39" fill="#55e072" r="3"/><circle cx="32.999" cy="32" fill="#55e072" r="3"/><circle cx="37" cy="24" fill="#55e072" r="3"/><path d="m45 1a2.006 2.006 0 0 1 2 2 1.955 1.955 0 0 1 -.59 1.41 1.955 1.955 0 0 1 -1.41.59h-2s-1.73.86-1.97 4.2a2.217 2.217 0 0 0 -.93-.2h-3.1a20.623 20.623 0 0 1 1-4 5.546 5.546 0 0 1 5-4z" fill="#016601"/><path d="m37 9h-1.01a2.011 2.011 0 0 0 -1.581.76 104.037 104.037 0 0 1 -17.16 17.15 57.552 57.552 0 0 1 -15.341 8.78 1.335 1.335 0 0 0 -.83.81 1.486 1.486 0 0 0 .93 1.86l3.98 1.48a17.171 17.171 0 0 0 9.281.87 15.531 15.531 0 0 0 6.731-2.71l.04.03q1.68-2.025 3.18-4.16c1.4-1.98 2.69-4.01 3.85-6l-.07-.04a3 3 0 1 1 1.829-3.83l.29.15a101.293 101.293 0 0 0 6.501-15.15zm-23.5 29a2.5 2.5 0 1 1 2.5-2.5 2.5 2.5 0 0 1 -2.5 2.5zm7.5-4a3 3 0 0 1 -3-3 3.006 3.006 0 0 1 3-3 3 3 0 0 1 3 3 3.026 3.026 0 0 1 -.51 1.68 2.989 2.989 0 0 1 -2.49 1.32z" fill="#070"/><path d="m28 36a3 3 0 1 0 3 3 3 3 0 0 0 -3-3zm3.12-11.85a101.293 101.293 0 0 0 6.5-15.15h2.48a2.217 2.217 0 0 1 .93.2 2.013 2.013 0 0 1 1.2 1.51 59.474 59.474 0 0 1 .77 9.29c0 7.97-2.94 18.39-13.391 24.64a17.392 17.392 0 0 1 -8.93 2.36h-4.19a1.441 1.441 0 0 1 -1.489-1.38 1.3 1.3 0 0 1 .5-1.02 49.52 49.52 0 0 0 6.54-6.57q1.68-2.025 3.18-4.16c1.4-1.98 2.69-4.01 3.85-6 .739-1.26 1.419-2.5 2.049-3.72zm5.88-3.15a3 3 0 1 0 3 3 3 3 0 0 0 -3-3zm-4 8a3 3 0 1 0 3 3 3 3 0 0 0 -3-3z" fill="#00ac0d"/><path d="m45 1a2.006 2.006 0 0 1 2 2 1.955 1.955 0 0 1 -.59 1.41 1.955 1.955 0 0 1 -1.41.59h-2s-1.73.86-1.97 4.2a2.217 2.217 0 0 0 -.93-.2h-3.1a20.623 20.623 0 0 1 1-4 5.546 5.546 0 0 1 5-4z" fill="#016601"/><path d="m37 9h-1.01a2.011 2.011 0 0 0 -1.581.76 104.037 104.037 0 0 1 -17.16 17.15 57.552 57.552 0 0 1 -15.341 8.78 1.335 1.335 0 0 0 -.83.81 1.486 1.486 0 0 0 .93 1.86l3.98 1.48a17.171 17.171 0 0 0 9.281.87 15.531 15.531 0 0 0 6.731-2.71l.04.03q1.68-2.025 3.18-4.16c1.4-1.98 2.69-4.01 3.85-6l-.07-.04a3 3 0 1 1 1.829-3.83l.29.15a101.293 101.293 0 0 0 6.501-15.15z" fill="#070"/><path d="m31.119 24.15a101.293 101.293 0 0 0 6.501-15.15h2.48a2.217 2.217 0 0 1 .93.2 2.013 2.013 0 0 1 1.2 1.51 59.474 59.474 0 0 1 .77 9.29c0 7.97-2.94 18.39-13.391 24.64a17.392 17.392 0 0 1 -8.93 2.36h-4.19a1.441 1.441 0 0 1 -1.489-1.38 1.3 1.3 0 0 1 .5-1.02 49.52 49.52 0 0 0 6.54-6.57q1.68-2.025 3.18-4.16c1.4-1.98 2.69-4.01 3.85-6 .739-1.26 1.419-2.5 2.049-3.72z" fill="#00ac0d"/><path d="m45 1h-.279a1.961 1.961 0 0 1 -.311 2.41 1.955 1.955 0 0 1 -1.41.59h-2a7.708 7.708 0 0 0 -1.621 3.162 13.126 13.126 0 0 1 1.952.315 3.957 3.957 0 0 1 1.669-2.477h2a1.955 1.955 0 0 0 1.41-.59 1.955 1.955 0 0 0 .59-1.41 2.006 2.006 0 0 0 -2-2z" fill="#00ac0d"/><path d="m39.061 9h1.039a2.217 2.217 0 0 1 .93.2 8.1 8.1 0 0 1 .3-1.723 13.126 13.126 0 0 0 -1.952-.315 10.391 10.391 0 0 0 -.317 1.838z" fill="#008906"/><path d="m37.372 7.138c-.082.326-.151.62-.2.862-.137.654-.172 1-.172 1h2.061a10.391 10.391 0 0 1 .318-1.838 14.426 14.426 0 0 0 -2.007-.024z" fill="#025602"/><path d="m42.23 10.71a2.013 2.013 0 0 0 -1.2-1.51c-.01 0-.022-.006-.032-.01-.032 21.61-5.568 36.51-23.568 37.72-.05.005-.1.007-.15.012-.212.013-.423.028-.639.038-.117.006-.234.018-.352.021a1.457 1.457 0 0 0 .2.019h4.19a17.392 17.392 0 0 0 8.93-2.36c10.451-6.25 13.391-16.67 13.391-24.64a59.474 59.474 0 0 0 -.77-9.29z" fill="#55e072"/><circle cx="26.999" cy="40" fill="#55e072" r="3"/><circle cx="31.999" cy="33" fill="#55e072" r="3"/><circle cx="36" cy="25" fill="#55e072" r="3"/><path d="m27.5 36.5a2.978 2.978 0 0 0 -2.348 1.152 2.986 2.986 0 0 1 4.2 4.2 2.99 2.99 0 0 0 -1.852-5.352z" fill="#d4f7dc"/><path d="m32.5 29.5a2.98 2.98 0 0 0 -2.348 1.152 2.986 2.986 0 0 1 4.2 4.2 2.99 2.99 0 0 0 -1.852-5.352z" fill="#d4f7dc"/><path d="m39.5 24.5a2.99 2.99 0 0 0 -5.349-1.848 2.986 2.986 0 0 1 4.2 4.2 2.978 2.978 0 0 0 1.149-2.352z" fill="#d4f7dc"/><path d="m24.5 39.5a2.972 2.972 0 0 1 .652-1.848 2.99 2.99 0 1 0 4.2 4.2 2.986 2.986 0 0 1 -4.852-2.352z" fill="#008906"/><path d="m29.5 32.5a2.972 2.972 0 0 1 .652-1.848 2.99 2.99 0 1 0 4.2 4.2 2.986 2.986 0 0 1 -4.852-2.352z" fill="#008906"/><path d="m33.5 24.5a2.972 2.972 0 0 1 .652-1.848 2.99 2.99 0 1 0 4.2 4.2 2.986 2.986 0 0 1 -4.852-2.352z" fill="#008906"/><circle cx="13.499" cy="35.5" fill="#008906" r="2.5"/><path d="m24 31a3.026 3.026 0 0 1 -.51 1.68 3.005 3.005 0 1 1 .51-1.68z" fill="#008906"/><path d="m30.829 24 .29.15c-.63 1.22-1.31 2.46-2.05 3.72l-.069-.04a3 3 0 1 1 1.829-3.83z" fill="#008906"/><path d="m13.5 33a2.492 2.492 0 0 0 -2.188 1.313 2.474 2.474 0 0 1 1.188-.313 2.5 2.5 0 0 1 2.5 2.5 2.474 2.474 0 0 1 -.313 1.187 2.492 2.492 0 0 0 -1.187-4.687z" fill="#00ac0d"/><path d="m21 28a2.978 2.978 0 0 0 -1.91.69 2.9 2.9 0 0 0 -.631.742 2.992 2.992 0 0 1 4.541 2.568 3.011 3.011 0 0 1 -.433 1.545 2.992 2.992 0 0 0 -1.567-5.545z" fill="#00ce23"/><path d="m30.829 24a2.993 2.993 0 0 0 -5.385-.555 2.974 2.974 0 0 1 1.556-.445 3 3 0 0 1 2.83 2l.29.15c-.472.915-.984 1.846-1.517 2.783a2.889 2.889 0 0 0 .4-.1l.07.04c.74-1.26 1.42-2.5 2.05-3.72z" fill="#00ac0d"/><path d="m30.829 24a3.063 3.063 0 0 0 -.252-.522c-.023-.038-.048-.075-.073-.112a2.969 2.969 0 0 0 -.332-.424l-.02-.023a3.044 3.044 0 0 0 -1.054-.7q-1.563 2.59-3.254 4.866a3.007 3.007 0 0 0 .947.66l.018.01a3.013 3.013 0 0 0 .5.16c.027.006.051.018.078.023a2.954 2.954 0 0 0 .613.062 3.016 3.016 0 0 0 .515-.044 2.949 2.949 0 0 0 .485-.126l.07.04c.74-1.26 1.42-2.5 2.05-3.72l-.191-.1z" fill="#070"/><path d="m29 27.83c-.048.017-.1.025-.151.039a2.872 2.872 0 0 1 -.334.087 3.016 3.016 0 0 1 -.515.044 2.954 2.954 0 0 1 -.614-.064c-.027 0-.051-.017-.078-.023a3.013 3.013 0 0 1 -.5-.16l-.018-.01a2.98 2.98 0 0 1 -.947-.66c-.69.93-1.4 1.81-2.125 2.666a2.977 2.977 0 0 1 .282 1.251 3.026 3.026 0 0 1 -.51 1.68 2.989 2.989 0 0 1 -3.59 1.106q-1.5 1.413-3.094 2.657a9.953 9.953 0 0 1 -9.369 1.557q-.225-.078-.449-.162l-3.98-1.48a1.556 1.556 0 0 1 -.856-.765c-.082.03-.162.066-.244.095a1.335 1.335 0 0 0 -.83.81 1.486 1.486 0 0 0 .93 1.86l3.98 1.48a18.317 18.317 0 0 0 4.049 1q.639.084 1.28.12h.057q.588.031 1.177.02h.163c.356-.01.711-.034 1.065-.068.079-.008.16-.011.239-.02.419-.046.837-.107 1.251-.188a15.531 15.531 0 0 0 6.731-2.702l.04.03q1.68-2.025 3.18-4.16c1.4-1.98 2.69-4.01 3.85-6z" fill="#016601"/><path d="m19.9 33.786a2.989 2.989 0 0 0 3.59-1.106 3.026 3.026 0 0 0 .51-1.68 2.977 2.977 0 0 0 -.28-1.251 48.392 48.392 0 0 1 -3.82 4.037z" fill="#070"/><path d="m37.62 9h-1.63a2.023 2.023 0 0 0 -.517.073 87.167 87.167 0 0 1 -6.373 13.144 2.994 2.994 0 0 1 1.054.7l.02.023a2.953 2.953 0 0 1 .332.424c.025.037.05.074.073.112a3.063 3.063 0 0 1 .252.522l.1.051.191.1a101.293 101.293 0 0 0 6.498-15.149z" fill="#016601"/><path d="m11 35.5a2.474 2.474 0 0 1 .313-1.187 2.492 2.492 0 1 0 3.375 3.374 2.474 2.474 0 0 1 -1.188.313 2.5 2.5 0 0 1 -2.5-2.5z" fill="#016601"/><path d="m18 31a2.973 2.973 0 0 1 .459-1.568 3.128 3.128 0 0 0 -.369.258 2.96 2.96 0 0 0 -1.09 2.31 3 3 0 0 0 5.49 1.68c.029-.043.05-.091.077-.135a2.983 2.983 0 0 1 -4.567-2.545z" fill="#016601"/><path d="m25 25a2.974 2.974 0 0 1 .445-1.555 3 3 0 0 0 2.555 5.385l.07.04c.185-.315.355-.624.533-.937a2.975 2.975 0 0 1 -3.603-2.933z" fill="#016601"/><path d="m30.829 24 .057.029-.057-.029v-.002z" fill="none"/><path d="m28.6 27.933c.083-.019.165-.04.246-.064.049-.014.1-.022.151-.039l.07.04-.067-.04a2.852 2.852 0 0 1 -.4.103z" fill="none"/><path d="m41.156 8.219c-.007.039-.013.08-.02.119.007-.038.013-.08.02-.119z" fill="#016601"/><path d="m37.265 7.577c.032-.138.068-.284.107-.438-.039.155-.072.302-.107.438z" fill="#016601"/><path d="m37 9s.035-.343.168-.988c-.133.645-.168.988-.168.988z" fill="#016601"/><path d="m39.379 7.162a7.708 7.708 0 0 1 1.621-3.162h2a1.955 1.955 0 0 0 1.41-.59 1.961 1.961 0 0 0 .311-2.41h-1.721a5.546 5.546 0 0 0 -5 4c-.282.844-.48 1.551-.628 2.138a14.426 14.426 0 0 1 2.007.024z" fill="#008906"/><path d="" fill="#016601"/><path d="m37.171 8c.017-.084.04-.182.062-.277-.021.093-.045.192-.062.277z" fill="#016601"/><path d="m42.96 5.023-.012.007z" fill="#016601"/><path d="m25.1 24.281c.022-.089.051-.174.08-.26-.035.085-.062.171-.08.26z" fill="#070"/><path d="m25 25a3.053 3.053 0 0 1 .052-.519 2.863 2.863 0 0 0 -.052.519z" fill="#070"/><path d="m35.473 9.073a2.023 2.023 0 0 1 .517-.073 2.023 2.023 0 0 0 -.517.073z" fill="#070"/><path d="m20.865 28.012c.046 0 .088-.012.134-.012a2.989 2.989 0 0 1 2.72 1.749q.637-.755 1.259-1.543a2.979 2.979 0 0 1 .466-4.761 2.973 2.973 0 0 1 1.022-1.012c.04-.025.083-.045.125-.068a2.95 2.95 0 0 1 .514-.215c.059-.019.116-.04.177-.055a2.869 2.869 0 0 1 1.2-.057 2.988 2.988 0 0 1 .618.179 87.167 87.167 0 0 0 6.373-13.144 2.006 2.006 0 0 0 -1.064.687 105.167 105.167 0 0 1 -15.7 15.99q1.033 1.175 2.156 2.262z" fill="#00ac0d"/><path d="m25.444 23.445-.001.001z" fill="#070"/><path d="m38.64 26.4c-.013.025-.026.05-.04.074.014-.026.027-.051.04-.074z" fill="#00ac0d"/><path d="m38.869 25.831c-.02.071-.04.142-.065.21.026-.068.044-.141.065-.21z" fill="#00ac0d"/><path d="" fill="#00ac0d"/><path d="m34.151 22.651v.001z" fill="#00ac0d"/><path d="m34.527 22.4.074-.04z" fill="#00ac0d"/><path d="m34.64 34.4c-.013.025-.026.05-.04.074.014-.026.027-.051.04-.074z" fill="#00ac0d"/><path d="m31.449 30.055a3.025 3.025 0 0 1 .551-.055 2.922 2.922 0 0 0 -.551.055z" fill="#00ac0d"/><path d="m34.869 33.831c-.021.071-.04.142-.065.21.026-.068.044-.141.065-.21z" fill="#00ac0d"/><path d="m35 33a3.027 3.027 0 0 1 -.056.551 2.941 2.941 0 0 0 .056-.551z" fill="#00ac0d"/><path d="m30.958 30.2c.068-.026.139-.045.21-.065-.068.017-.142.035-.21.065z" fill="#00ac0d"/><path d="m30.527 30.4.073-.04z" fill="#00ac0d"/><path d="m34.958 22.2c.068-.026.139-.045.21-.065-.068.017-.142.035-.21.065z" fill="#00ac0d"/><path d="m40.1 9h-2.48s-.211.674-.634 1.852c-.338.943-.811 2.208-1.42 3.71-1.066 2.628-2.548 5.979-4.447 9.588q-.473.915-.984 1.845t-1.066 1.875c-.87 1.492-1.834 3-2.841 4.5q1.468.99 3.031 1.844a2.92 2.92 0 0 1 -.182-1.875c.012-.049.031-.094.044-.142a3 3 0 0 1 .178-.486c.017-.034.037-.067.055-.1a2.982 2.982 0 0 1 .309-.473l.037-.038a2.986 2.986 0 0 1 .455-.444 2.99 2.99 0 1 1 4.2 4.2 3.025 3.025 0 0 1 -.444.454l-.042.034a2.932 2.932 0 0 1 -.473.308c-.034.018-.066.038-.1.055a2.965 2.965 0 0 1 -.486.178c-.023.007-.044.019-.067.025.828.352 1.674.667 2.53.963 4.142-6.652 5.708-16.223 5.727-27.683a2.2 2.2 0 0 0 -.9-.19zm-1.752 17.848a3.025 3.025 0 0 1 -.444.454l-.042.034a2.967 2.967 0 0 1 -.472.308c-.034.018-.067.038-.1.055a2.989 2.989 0 0 1 -.485.178c-.048.014-.093.033-.142.044a2.98 2.98 0 0 1 -3.583-3.583c.011-.049.03-.094.043-.142a3 3 0 0 1 .179-.486c.017-.034.036-.067.054-.1a2.982 2.982 0 0 1 .309-.473l.035-.037a2.986 2.986 0 0 1 .455-.444 2.99 2.99 0 1 1 4.2 4.2z" fill="#00ce23"/><path d="m39 25a3.027 3.027 0 0 1 -.056.551 2.86 2.86 0 0 0 .056-.551z" fill="#00ac0d"/><path d="m35.449 22.055a3.027 3.027 0 0 1 .551-.055 2.941 2.941 0 0 0 -.551.055z" fill="#00ac0d"/><path d="m30.151 30.651v.001z" fill="#00ac0d"/><path d="" fill="#00ac0d"/><path d="m41.831 6.278a3.411 3.411 0 0 1 1.117-1.248 3.4 3.4 0 0 0 -1.117 1.248z" fill="#00ac0d"/><path d="m43 5-.04.023z" fill="#00ac0d"/><path d="m41.331 7.477a5.65 5.65 0 0 1 .5-1.2 5.606 5.606 0 0 0 -.5 1.2z" fill="#00ac0d"/><path d="m44.41 3.41a1.955 1.955 0 0 1 -1.41.59h-2a7.708 7.708 0 0 0 -1.621 3.162 13.126 13.126 0 0 1 1.952.315 5.606 5.606 0 0 1 .5-1.2 3.4 3.4 0 0 1 1.117-1.247l.012-.007.04-.023h2a1.955 1.955 0 0 0 1.41-.59 1.955 1.955 0 0 0 .59-1.41 2.006 2.006 0 0 0 -2-2h-.279a1.961 1.961 0 0 1 -.311 2.41z" fill="#00ce23"/><path d="m41.156 8.219c.05-.265.108-.515.175-.742a7.594 7.594 0 0 0 -.175.742z" fill="#008906"/><path d="m41.136 8.338c-.045.269-.084.552-.106.862a8.645 8.645 0 0 1 .106-.862z" fill="#008906"/><path d="m39.379 7.162a10.391 10.391 0 0 0 -.318 1.838h1.039a2.2 2.2 0 0 1 .9.19c.01 0 .022.005.032.01.022-.31.061-.593.106-.862.007-.039.013-.08.02-.119a7.594 7.594 0 0 1 .175-.742 13.126 13.126 0 0 0 -1.954-.315z" fill="#00ac0d"/><path d="m37.372 7.138v.001z" fill="#025602"/><path d="m37.233 7.722c.01-.048.021-.1.032-.145-.012.052-.021.096-.032.145z" fill="#025602"/><path d="m37.171 8v.012-.013z" fill="#025602"/><path d="m38 9h1.061a10.391 10.391 0 0 1 .318-1.838 14.426 14.426 0 0 0 -2.007-.024c-.039.154-.075.3-.107.438-.011.05-.022.1-.032.145-.022.095-.045.193-.062.277v.013c-.136.646-.171.989-.171.989z" fill="#070"/><path d="m35.265 36.866q1.1.378 2.223.692a29.578 29.578 0 0 0 5.512-17.558 59.474 59.474 0 0 0 -.77-9.29 2.013 2.013 0 0 0 -1.2-1.51c-.01 0-.022-.006-.032-.01-.017 11.46-1.583 21.031-5.733 27.676z" fill="#aaefb8"/><path d="m29.7 31.1a3.131 3.131 0 0 1 .455-.444 2.986 2.986 0 0 0 -.455.444z" fill="#55e072"/><path d="m34.6 34.472c.014-.024.027-.049.04-.074a2.962 2.962 0 0 0 .164-.357c.025-.068.044-.139.065-.21a2.881 2.881 0 0 0 .075-.28 3.027 3.027 0 0 0 .056-.551 2.981 2.981 0 0 0 -3.551-2.945c-.1.019-.188.048-.281.076-.071.02-.142.039-.21.065a3.049 3.049 0 0 0 -.358.164l-.073.04a3.074 3.074 0 0 0 -.376.251 2.986 2.986 0 0 0 4.2 4.2 3.2 3.2 0 0 0 .249-.379z" fill="#7fe895"/><g fill="#55e072"><path d="m34.348 34.849a3.229 3.229 0 0 1 -.444.454 3.025 3.025 0 0 0 .444-.454z"/><path d="m29.121 32.2a3.06 3.06 0 0 1 .178-.486 3 3 0 0 0 -.178.486z"/><path d="m33.288 35.7a2.876 2.876 0 0 1 -.486.178 2.965 2.965 0 0 0 .486-.178z"/><path d="m33.862 35.337a2.976 2.976 0 0 1 -.473.308 2.932 2.932 0 0 0 .473-.308z"/><path d="m29 33a2.989 2.989 0 0 1 .078-.661 3 3 0 0 0 -.078.661z"/><path d="m29.354 31.61a2.914 2.914 0 0 1 .309-.473 2.982 2.982 0 0 0 -.309.473z"/><path d="m38.348 26.849a3.175 3.175 0 0 1 -.444.454 3.025 3.025 0 0 0 .444-.454z"/><path d="m33.121 24.2a2.969 2.969 0 0 1 .179-.486 3 3 0 0 0 -.179.486z"/><path d="m37.288 27.7a2.9 2.9 0 0 1 -.485.178 2.989 2.989 0 0 0 .485-.178z"/><path d="m33 25a2.931 2.931 0 0 1 .079-.661 3 3 0 0 0 -.079.661z"/><path d="m36.661 27.922a2.938 2.938 0 0 1 -.661.078 3 3 0 0 0 .661-.078z"/><path d="m37.862 27.337a3.013 3.013 0 0 1 -.472.308 2.967 2.967 0 0 0 .472-.308z"/><path d="m33.354 23.61a3.053 3.053 0 0 1 .309-.473 2.982 2.982 0 0 0 -.309.473z"/></g><path d="m33.5 24.5a3 3 0 0 0 3 3 2.966 2.966 0 0 0 1.848-.652 2.971 2.971 0 0 0 .252-.376c.014-.024.027-.049.04-.074a2.962 2.962 0 0 0 .164-.357c.025-.068.045-.139.065-.21a2.621 2.621 0 0 0 .075-.28 3.027 3.027 0 0 0 .056-.551 3 3 0 0 0 -3-3 3.027 3.027 0 0 0 -.551.055c-.1.019-.188.048-.281.076-.071.02-.142.039-.21.065a3.035 3.035 0 0 0 -.357.164l-.074.04a3.153 3.153 0 0 0 -.376.251 2.972 2.972 0 0 0 -.651 1.849z" fill="#7fe895"/><path d="m33.7 23.1a3.131 3.131 0 0 1 .455-.444 2.986 2.986 0 0 0 -.455.444z" fill="#55e072"/><path d="m30.527 30.4.073-.04a2.894 2.894 0 0 1 .358-.164c.068-.026.139-.044.21-.065a2.569 2.569 0 0 1 .832-.131 3 3 0 0 1 3 3 2.941 2.941 0 0 1 -.056.551c-.018.1-.048.187-.075.28-.021.07-.039.142-.065.21a2.962 2.962 0 0 1 -.164.357c-.013.025-.026.05-.04.074a2.971 2.971 0 0 1 -.252.376 2.99 2.99 0 1 0 -4.2-4.2 3.074 3.074 0 0 1 .379-.248z" fill="#ecfcef"/><path d="m30.6 30.36a3.049 3.049 0 0 1 .358-.164 2.894 2.894 0 0 0 -.358.164z" fill="#d4f7dc"/><path d="m31.168 30.131c.093-.028.185-.057.281-.076a2.9 2.9 0 0 0 -.281.076z" fill="#d4f7dc"/><path d="m30.151 30.651a3.074 3.074 0 0 1 .376-.251 3.074 3.074 0 0 0 -.376.251z" fill="#d4f7dc"/><path d="m34.6 34.472a3.2 3.2 0 0 1 -.252.376 2.971 2.971 0 0 0 .252-.376z" fill="#d4f7dc"/><path d="m34.944 33.551a2.881 2.881 0 0 1 -.075.28c.031-.093.057-.184.075-.28z" fill="#d4f7dc"/><path d="m34.8 34.041a2.962 2.962 0 0 1 -.164.357 2.962 2.962 0 0 0 .164-.357z" fill="#d4f7dc"/><path d="m36.5 21.5a2.98 2.98 0 0 0 -2.349 1.152 3.074 3.074 0 0 1 .376-.251l.074-.04a2.815 2.815 0 0 1 .357-.164c.068-.026.14-.044.21-.065a2.9 2.9 0 0 1 .281-.076 2.941 2.941 0 0 1 .551-.056 3 3 0 0 1 3 3 2.86 2.86 0 0 1 -.056.551c-.018.1-.048.187-.075.28-.021.07-.039.142-.065.21a2.962 2.962 0 0 1 -.164.357c-.013.025-.026.05-.04.074a2.971 2.971 0 0 1 -.252.376 2.99 2.99 0 0 0 -1.848-5.348z" fill="#ecfcef"/><path d="m38.944 25.551a2.621 2.621 0 0 1 -.075.28c.031-.093.057-.184.075-.28z" fill="#d4f7dc"/><path d="m38.8 26.041a2.962 2.962 0 0 1 -.164.357 2.962 2.962 0 0 0 .164-.357z" fill="#d4f7dc"/><path d="m34.151 22.651a3.153 3.153 0 0 1 .376-.251 3.074 3.074 0 0 0 -.376.251z" fill="#d4f7dc"/><path d="m34.6 22.36a3.035 3.035 0 0 1 .357-.164 2.815 2.815 0 0 0 -.357.164z" fill="#d4f7dc"/><path d="m38.6 26.472a2.971 2.971 0 0 1 -.252.376 2.971 2.971 0 0 0 .252-.376z" fill="#d4f7dc"/><path d="m35.168 22.131c.093-.028.185-.057.281-.076a2.9 2.9 0 0 0 -.281.076z" fill="#d4f7dc"/><path d="m29.3 31.711c.017-.034.037-.067.055-.1-.019.033-.039.066-.055.1z" fill="#008906"/><path d="m33.9 35.3-.042.034z" fill="#008906"/><path d="m32.661 35.922.074-.019h-.005c-.024.003-.045.014-.069.019z" fill="#008906"/><path d="" fill="#008906"/><path d="m32.73 35.9h.005c.023-.006.044-.018.067-.025z" fill="#008906"/><path d="m34.348 34.849v-.001z" fill="#008906"/><path d="m29.077 32.339c.011-.049.031-.094.044-.142-.013.048-.032.093-.044.142z" fill="#008906"/><path d="m33.389 35.645c-.034.018-.066.038-.1.055.034-.017.066-.037.1-.055z" fill="#008906"/><path d="m29.663 31.137.037-.037z" fill="#008906"/><path d="m32.8 35.878a2.876 2.876 0 0 0 .486-.178c.035-.017.067-.037.1-.055a2.976 2.976 0 0 0 .473-.308l.041-.037a3.229 3.229 0 0 0 .444-.454 2.986 2.986 0 0 1 -4.2-4.2 3.131 3.131 0 0 0 -.455.444l-.033.041a2.914 2.914 0 0 0 -.309.473c-.018.034-.038.067-.055.1a3.06 3.06 0 0 0 -.178.486c-.013.048-.033.093-.044.142a2.92 2.92 0 0 0 .182 1.875q1.688.926 3.471 1.687z" fill="#00ac0d"/><path d="m37.9 27.3-.042.034z" fill="#008906"/><path d="m33.3 23.711c.016-.034.036-.067.054-.1-.018.033-.037.066-.054.1z" fill="#008906"/><path d="m33.663 23.137.037-.037z" fill="#008906"/><path d="m37.39 27.645c-.034.018-.067.038-.1.055.033-.017.066-.037.1-.055z" fill="#008906"/><path d="m33.078 24.339c.011-.049.03-.094.043-.142-.013.048-.032.093-.043.142z" fill="#008906"/><path d="m38.348 26.849v-.001z" fill="#008906"/><path d="" fill="#008906"/><path d="m36.8 27.878c-.048.013-.093.033-.142.044.052-.011.097-.03.142-.044z" fill="#008906"/><path d="m36.5 27.5a2.986 2.986 0 0 1 -2.349-4.848 3.131 3.131 0 0 0 -.455.444l-.033.041a3.053 3.053 0 0 0 -.309.473c-.018.034-.038.067-.054.1a2.969 2.969 0 0 0 -.179.486c-.013.048-.032.093-.043.142a2.931 2.931 0 0 0 -.078.662 3 3 0 0 0 3 3 2.938 2.938 0 0 0 .661-.078c.049-.011.094-.031.142-.044a2.9 2.9 0 0 0 .485-.178c.035-.017.068-.037.1-.055a3.013 3.013 0 0 0 .472-.308l.04-.037a3.175 3.175 0 0 0 .444-.454 2.966 2.966 0 0 1 -1.844.654z" fill="#00ac0d"/><path d="m27.282 22.1a2.973 2.973 0 0 1 .718-.1 3.03 3.03 0 0 0 -.718.1z" fill="#008906"/><path d="m28.384 23.34a2.963 2.963 0 0 0 -2.94.105 3.171 3.171 0 0 0 -.268.575c-.029.086-.058.171-.08.26-.017.066-.032.132-.044.2a3.053 3.053 0 0 0 -.052.52 2.988 2.988 0 0 0 .845 2.083c.874-1.183 1.715-2.439 2.539-3.743z" fill="#00ac0d"/><path d="m25.844 27.083a3.02 3.02 0 0 0 .439.375 2.9 2.9 0 0 0 .505.284 3.007 3.007 0 0 1 -.944-.659z" fill="#008906"/><path d="m26.466 22.433a2.973 2.973 0 0 0 -1.022 1.012 3.016 3.016 0 0 1 1.022-1.012z" fill="#008906"/><path d="m26.591 22.365a2.95 2.95 0 0 1 .514-.215 2.95 2.95 0 0 0 -.514.215z" fill="#008906"/><path d="m23.719 29.749a2.989 2.989 0 0 0 -2.719-1.749c-.046 0-.088.01-.134.012.787.762 1.6 1.5 2.45 2.19.132-.154.271-.296.403-.453z" fill="#00ce23"/><path d="m27.105 22.15c.059-.018.117-.04.177-.055-.061.015-.118.036-.177.055z" fill="#00ac0d"/><path d="" fill="#00ac0d"/><path d="m26.466 22.433c.04-.024.083-.046.125-.068-.042.023-.085.043-.125.068z" fill="#00ac0d"/><path d="m31.119 24.15-.138-.071-.053-.028z" fill="#00ac0d"/><path d="m30.886 24.029-.057-.029.099.051z" fill="#00ac0d"/><path d="m30.152 22.917a3.021 3.021 0 0 0 -1.054-.7 3.035 3.035 0 0 1 1.054.7z" fill="#00ac0d"/><path d="m27 23a2.983 2.983 0 0 1 1.385.34c.238-.375.481-.737.714-1.123a2.988 2.988 0 0 0 -.618-.179 3.041 3.041 0 0 0 -.481-.038 2.973 2.973 0 0 0 -.717.095c-.06.015-.118.037-.177.055a2.95 2.95 0 0 0 -.514.215c-.042.022-.085.044-.125.068a3.016 3.016 0 0 0 -1.022 1.012 2.974 2.974 0 0 1 1.555-.445z" fill="#00ce23"/><path d="m29.1 22.217a2.988 2.988 0 0 0 -.618-.179 2.988 2.988 0 0 1 .618.179z" fill="#00ac0d"/><path d="m31.119 24.15-.138-.071z" fill="#00ac0d"/><path d="" fill="#00ac0d"/><path d="m30.829 23.998v.002z" fill="#070"/><path d="m30.577 23.476c-.023-.038-.048-.075-.073-.112.025.037.05.074.073.112z" fill="#070"/><path d="m30.172 22.94-.006-.006.006.007z" fill="#070"/><path d="m30.135 26q.513-.93.984-1.845-.473.91-.984 1.845z" fill="#070"/><path d="m30.119 25.15-.29-.15a3.011 3.011 0 0 0 -1.445-1.66c-.824 1.3-1.665 2.563-2.54 3.743a3.007 3.007 0 0 0 .945.659l.017.01a2.969 2.969 0 0 0 .5.159c.027.007.052.019.079.024a2.954 2.954 0 0 0 .615.065 3 3 0 0 0 .6-.067c.535-.933 1.047-1.868 1.519-2.783z" fill="#008906"/><path d="m29 27.83a2.889 2.889 0 0 1 -.4.1 2.852 2.852 0 0 0 .4-.1z" fill="#070"/><path d="m30.928 24.051-.1-.051a3.063 3.063 0 0 0 -.252-.522c-.023-.038-.048-.075-.073-.112a2.953 2.953 0 0 0 -.331-.423l-.021-.024a3.035 3.035 0 0 0 -1.054-.7c-.233.386-.476.748-.714 1.123a3.011 3.011 0 0 1 1.446 1.658l.29.15c-.472.915-.984 1.846-1.517 2.783a2.889 2.889 0 0 0 .4-.1l.07.04q.555-.945 1.066-1.875t.984-1.845z" fill="#070"/><path d="m30.152 22.917.021.024-.006-.007-.014-.017z" fill="#070"/><path d="" fill="#070"/><path d="m28.6 27.933a2.852 2.852 0 0 0 .4-.1c-.048.017-.1.025-.151.039-.082.021-.164.042-.249.061z" fill="#016601"/><path d="m29 27.83a2.852 2.852 0 0 1 -.4.1c-.178.313-.348.622-.533.937l-.067-.037a2.986 2.986 0 0 1 -3.021-.624q-.623.788-1.259 1.543a2.941 2.941 0 0 1 .2.58l.007.024a3.094 3.094 0 0 1 .046.364c.733.575 1.482 1.131 2.257 1.653 1.007-1.5 1.971-3.008 2.841-4.5z" fill="#070"/><path d="m26.789 27.742a2.9 2.9 0 0 1 -.505-.284 2.937 2.937 0 0 0 .505.284z" fill="#016601"/><path d="m25.844 27.083a3.02 3.02 0 0 0 .439.375 3.02 3.02 0 0 1 -.439-.375z" fill="#016601"/><path d="m26.806 27.752a3.035 3.035 0 0 0 .5.16 2.969 2.969 0 0 1 -.5-.159z" fill="#016601"/><path d="m28 28a2.954 2.954 0 0 1 -.614-.064 2.954 2.954 0 0 0 .614.064z" fill="#016601"/><path d="m23.719 29.749a3.1 3.1 0 0 1 .2.58 2.941 2.941 0 0 0 -.2-.58z" fill="#016601"/><path d="m23.966 30.714a3.094 3.094 0 0 0 -.046-.364 2.847 2.847 0 0 1 .046.364z" fill="#016601"/><path d="m23.918 30.329.007.024z" fill="#070"/><path d="m23.966 30.714a2.847 2.847 0 0 0 -.041-.361l-.007-.024a3.1 3.1 0 0 0 -.2-.58c-.132.157-.271.3-.4.453.211.175.431.342.648.512z" fill="#070"/><path d="m30.928 24.051-.099-.051.057.029z" fill="#016601"/><path d="m30.5 23.364c.025.037.05.074.073.112a3.063 3.063 0 0 1 .252.522 2.955 2.955 0 0 0 -.431-.8c.04.052.07.111.106.166z" fill="#016601"/><path d="m29.1 22.217c.089.035.18.067.264.11a3.031 3.031 0 0 1 .39.238 3.085 3.085 0 0 1 .414.369l.006.006a2.751 2.751 0 0 1 .226.257 2.955 2.955 0 0 1 .431.8l.1.051.191.1c1.9-3.609 3.381-6.96 4.447-9.588.609-1.5 1.082-2.767 1.42-3.71.42-1.176.631-1.85.631-1.85h-1.63a2.023 2.023 0 0 0 -.517.073 87.167 87.167 0 0 1 -6.373 13.144z" fill="#070"/><path d="m35.566 14.562c.609-1.5 1.082-2.767 1.42-3.71-.338.948-.811 2.208-1.42 3.71z" fill="#016601"/><path d="m35.566 14.562c-1.066 2.628-2.548 5.979-4.447 9.588 1.899-3.609 3.381-6.96 4.447-9.588z" fill="#016601"/><path d="m30.577 23.476a3.063 3.063 0 0 1 .252.522 3.063 3.063 0 0 0 -.252-.522z" fill="#016601"/><path d="m30.928 24.051.053.028-.053-.028-.042-.022z" fill="#016601"/><path d="m30.5 23.364c-.036-.055-.066-.114-.106-.166a3.042 3.042 0 0 0 -.225-.257 2.953 2.953 0 0 1 .331.423z" fill="#016601"/><path d="m30.152 22.917a2.852 2.852 0 0 0 -.79-.59c-.084-.043-.175-.075-.264-.11a3.021 3.021 0 0 1 1.054.7z" fill="#016601"/><path d="m31.119 24.15-.191-.099.053.028z" fill="#016601"/><path d="m30.4 23.2a2.751 2.751 0 0 0 -.226-.257 3.042 3.042 0 0 1 .226.257z" fill="#016601"/><path d="m29.362 22.327c-.084-.043-.175-.075-.264-.11.089.035.18.067.264.11z" fill="#016601"/><path d="m30.152 22.917.014.017a3.085 3.085 0 0 0 -.414-.369 3.036 3.036 0 0 1 .4.352z" fill="#016601"/><path d="m28.6 27.933c-.03.007-.058.018-.088.023.03 0 .058-.016.088-.023z" fill="#016601"/><path d="m26.789 27.742.002.001z" fill="#016601"/><path d="" fill="#016601"/><path d="m25 25a2.863 2.863 0 0 1 .052-.519c.012-.068.028-.134.044-.2.023-.089.05-.175.08-.26a2.985 2.985 0 0 1 .268-.575 2.979 2.979 0 0 0 -.466 4.761c.291-.369.581-.739.866-1.123a2.988 2.988 0 0 1 -.844-2.084z" fill="#070"/><path d="m25.051 24.481c.012-.068.027-.134.044-.2-.016.066-.032.132-.044.2z" fill="#016601"/><path d="m25.175 24.021a3.171 3.171 0 0 1 .268-.575 2.985 2.985 0 0 0 -.268.575z" fill="#016601"/><path d="m26.791 27.743.015.009-.017-.01z" fill="#016601"/><path d="m27.307 27.913c.027.006.051.018.078.023-.027 0-.052-.017-.079-.024z" fill="#016601"/><path d="m28.6 27.933a3 3 0 0 1 -.6.067 3.016 3.016 0 0 0 .515-.044c.03 0 .058-.016.088-.023z" fill="#016601"/><path d="m28.514 27.956c.03 0 .058-.016.088-.023-.03.007-.058.018-.088.023z" fill="#016601"/><path d="m28 28.83.07.04c.185-.315.355-.624.533-.937-.03.007-.058.018-.088.023a3.016 3.016 0 0 1 -.515.044 2.954 2.954 0 0 1 -.614-.064c-.027 0-.051-.017-.078-.023a3.035 3.035 0 0 1 -.5-.16l-.015-.009a2.937 2.937 0 0 1 -.505-.284 3.02 3.02 0 0 1 -.439-.375c-.285.384-.575.754-.866 1.123a2.986 2.986 0 0 0 3.017.622z" fill="#016601"/><ellipse cx="38" cy="30" fill="#f6fafd" rx="1.148" ry=".825" transform="matrix(.707 -.707 .707 .707 -10.081 35.673)"/><ellipse cx="40" cy="19" fill="#f6fafd" rx="1.148" ry=".825" transform="matrix(.707 -.707 .707 .707 -1.714 33.864)"/><ellipse cx="33.746" cy="31.5" fill="#f6fafd" rx=".413" ry=".574" transform="matrix(.707 -.707 .707 .707 -12.39 33.104)"/><ellipse cx="40.746" cy="16.5" fill="#f6fafd" rx=".574" ry=".413" transform="matrix(.707 -.707 .707 .707 .261 33.631)"/><ellipse cx="45.746" cy="3.5" fill="#f6fafd" rx=".574" ry=".413" transform="matrix(.707 -.707 .707 .707 10.913 33.36)"/><ellipse cx="37.746" cy="23.5" fill="#f6fafd" rx=".413" ry=".574" transform="matrix(.707 -.707 .707 .707 -5.558 33.588)"/><path d="m45 0h-2a6.553 6.553 0 0 0 -5.949 4.684 27.084 27.084 0 0 0 -.899 3.316h-.166a2.975 2.975 0 0 0 -2.359 1.147c-2.557 3.27-16.12 19.869-32.059 25.6a2.348 2.348 0 0 0 -1.431 1.418 2.5 2.5 0 0 0 1.528 3.135l3.978 1.479a18.972 18.972 0 0 0 6.597 1.221 16.653 16.653 0 0 0 3.227-.311l.735-.146-.4-1.959-.717.144a16.189 16.189 0 0 1 -8.741-.823l-3.982-1.478a.5.5 0 0 1 -.341-.591.351.351 0 0 1 .224-.208c16.455-5.916 30.341-22.903 32.955-26.249a.989.989 0 0 1 .786-.379h.234c-1.777 5.041-8.955 23.641-21.355 33.823a2.322 2.322 0 0 0 -.865 1.8 2.44 2.44 0 0 0 2.488 2.377h4.194a18.351 18.351 0 0 0 9.441-2.5c12.525-7.5 13.877-20.33 13.877-25.5a60.541 60.541 0 0 0 -.779-9.453 2.963 2.963 0 0 0 -1.121-1.868 4.2 4.2 0 0 1 1.205-2.679h1.695a3 3 0 0 0 0-6zm-15.9 43.787a16.356 16.356 0 0 1 -8.418 2.213h-4.194a.451.451 0 0 1 -.488-.382.334.334 0 0 1 .135-.249c13.565-11.143 20.837-31.287 22.206-35.369h1.759a1.121 1.121 0 0 1 1.143.867 58.392 58.392 0 0 1 .757 9.133c0 4.829-1.257 16.814-12.9 23.787zm15.9-39.787h-2a1 1 0 0 0 -.447.105c-.218.109-1.836 1.017-2.375 3.9-.026 0-.05-.006-.075-.006h-1.903a26.789 26.789 0 0 1 .754-2.684 4.529 4.529 0 0 1 4.046-3.315h2a1 1 0 0 1 0 2z" fill="#002627"/><path d="m10 35.5a3.5 3.5 0 1 0 3.5-3.5 3.5 3.5 0 0 0 -3.5 3.5zm5 0a1.5 1.5 0 1 1 -1.5-1.5 1.5 1.5 0 0 1 1.5 1.5z" fill="#002627"/><path d="m33 28a4 4 0 1 0 4 4 4 4 0 0 0 -4-4zm0 6a2 2 0 1 1 2-2 2 2 0 0 1 -2 2z" fill="#002627"/><path d="m37 20a4 4 0 1 0 4 4 4 4 0 0 0 -4-4zm0 6a2 2 0 1 1 2-2 2 2 0 0 1 -2 2z" fill="#002627"/><path d="m28 35a4 4 0 1 0 4 4 4 4 0 0 0 -4-4zm0 6a2 2 0 1 1 2-2 2 2 0 0 1 -2 2z" fill="#002627"/><path d="m21 27a4 4 0 0 0 0 8v-2a2 2 0 1 1 2-2h2a4 4 0 0 0 -4-4z" fill="#002627"/><path d="m28 23a2 2 0 0 1 1.333.509l1.334-1.49a4 4 0 1 0 -5.334 5.962l1.334-1.49a2 2 0 0 1 1.333-3.491z" fill="#002627"/></g></svg>