<svg id="Layer_1" enable-background="new 0 0 512 512" height="512" viewBox="0 0 512 512" width="512" xmlns="http://www.w3.org/2000/svg"><g><path d="m176.615 307.854c-9.99 7.627-7.945 24.047 4.256 28.622.943.353 1.385 1.461.94 2.364-4.343 8.814.019 19.586 9.222 22.908 1.15.415 1.564 1.814.792 2.763-13.389 16.477 4.703 41.306 24.792 32.563.853-.371 1.832-.012 2.263.812 2.911 5.561 8.751 9.078 15.143 8.904 1.203-.033 2.104 1.1 1.745 2.249-5.954 19.038 17.13 34.486 32.528 22.205.97-.773 2.416-.318 2.76.874 4.816 16.679 24.781 24.052 39.301 14.461.983-.649 2.324-.129 2.626 1.01 4.853 18.31 31.471 18.647 36.973.723.367-1.196 1.812-1.632 2.783-.843 9.786 7.954 24.656 4.335 29.727-7.158.508-1.152 1.996-1.409 2.877-.509 11.545 11.793 32.221 3.921 32.959-12.558.059-1.312 1.502-2.047 2.643-1.398 16.209 9.229 35.834-7.319 29.546-24.842-.433-1.207.491-2.491 1.768-2.365 10.12 1.005 18.933-7.489 18.146-17.769-.08-1.047.716-1.927 1.766-1.936 17.827-.15 25.612-22.924 12.119-34.063-.944-.779-.83-2.239.221-2.865 11.411-6.791 12.29-22.853 2.736-31.112-1.15-.994-.528-2.866.982-3.042 18.694-2.185 22.83-30.572 4.203-37.254-1.296-.465-1.594-2.182-.5-3.017 9.991-7.628 7.943-24.047-4.256-28.622-.943-.353-1.385-1.461-.94-2.364 4.343-8.814-.019-19.586-9.222-22.908-1.15-.415-1.564-1.814-.792-2.763 13.389-16.477-4.703-41.306-24.792-32.563-.853.371-1.832.012-2.263-.812-2.911-5.56-8.749-9.077-15.14-8.904-1.21.033-2.102-1.11-1.739-2.265 6.325-20.122-19.755-35.199-34.17-20.84-1.01 1.006-2.775.386-2.941-1.029-2.083-17.701-23.074-26.91-37.582-16.326-.972.709-2.354.247-2.698-.906-5.325-17.825-31.369-17.845-36.804-.158-.368 1.197-1.813 1.634-2.784.845-9.786-7.954-24.656-4.336-29.727 7.158-.508 1.152-1.996 1.409-2.877.509-11.546-11.794-32.221-3.918-32.959 12.558-.059 1.312-1.502 2.047-2.643 1.398-16.21-9.23-35.836 7.32-29.545 24.845.433 1.207-.492 2.49-1.768 2.364-10.065-.989-18.947 7.426-18.148 17.767.081 1.047-.715 1.927-1.765 1.936-17.817.151-25.624 22.918-12.119 34.063.944.779.831 2.239-.221 2.865-11.411 6.791-12.29 22.853-2.736 31.112 1.15.994.528 2.866-.982 3.042-18.694 2.185-22.83 30.573-4.203 37.254 1.294.465 1.593 2.182.499 3.017z" fill="#fddeb0"/><g><path d="m325.396 127.28c.344 1.153 1.726 1.615 2.698.906 14.508-10.584 35.499-1.375 37.582 16.326.167 1.415 1.932 2.035 2.941 1.029 7.941-7.91 19.414-6.876 27.067-.998-.001-.011-.007-.02-.009-.031-2.083-17.701-23.073-26.91-37.582-16.326-.972.709-2.354.247-2.698-.906-4.582-15.337-24.491-17.479-33.425-6.517 1.48 1.816 2.668 3.98 3.426 6.517z" fill="#fddeb0"/><path d="m488.23 307.853c18.694-2.185 22.83-30.572 4.203-37.254-1.295-.465-1.594-2.182-.5-3.017 9.991-7.628 7.943-24.047-4.256-28.622-.942-.354-1.385-1.461-.94-2.364 4.344-8.814-.019-19.586-9.222-22.908-1.15-.415-1.564-1.814-.792-2.763 13.389-16.477-4.703-41.306-24.792-32.563-.853.371-1.832.012-2.263-.812-2.911-5.56-8.749-9.077-15.14-8.904-1.21.033-2.103-1.11-1.74-2.265 6.325-20.122-19.755-35.199-34.17-20.84-.338.337-.761.477-1.18.481 5.151 4.874 7.914 12.201 5.35 20.359-.363 1.155.529 2.298 1.74 2.265 6.391-.173 12.229 3.344 15.14 8.904.432.824 1.41 1.184 2.263.812 20.089-8.743 38.181 16.086 24.792 32.563-.771.949-.358 2.348.792 2.763 9.203 3.322 13.565 14.094 9.222 22.908-.445.903-.002 2.011.94 2.364 12.199 4.575 14.247 20.995 4.256 28.622-1.094.835-.796 2.552.5 3.017 18.627 6.682 14.491 35.069-4.203 37.254-1.51.177-2.132 2.048-.982 3.042 9.554 8.26 8.675 24.321-2.736 31.112-1.052.626-1.165 2.086-.221 2.865 13.493 11.139 5.708 33.913-12.119 34.063-1.05.009-1.846.889-1.766 1.936.786 10.28-8.027 18.774-18.146 17.769-1.276-.127-2.201 1.158-1.768 2.365 6.288 17.524-13.336 34.072-29.546 24.842-1.141-.65-2.584.086-2.643 1.398-.738 16.479-21.414 24.351-32.959 12.558-.881-.9-2.369-.643-2.877.509-5.071 11.493-19.941 15.112-29.728 7.158-.971-.789-2.416-.353-2.783.843-.761 2.479-1.937 4.597-3.393 6.378 8.888 10.883 28.728 8.819 33.393-6.378.367-1.196 1.812-1.632 2.783-.843 9.787 7.955 24.656 4.336 29.728-7.158.508-1.152 1.996-1.409 2.877-.509 11.545 11.793 32.221 3.921 32.959-12.558.059-1.312 1.502-2.047 2.643-1.398 16.209 9.229 35.834-7.319 29.546-24.842-.433-1.207.492-2.491 1.768-2.365 10.12 1.005 18.933-7.489 18.146-17.769-.08-1.047.716-1.927 1.766-1.936 17.827-.15 25.612-22.924 12.119-34.063-.944-.779-.83-2.239.221-2.865 11.411-6.791 12.29-22.853 2.736-31.112-1.15-.994-.528-2.866.982-3.042z" fill="#fdd79b"/></g><path d="m73.506 419.122s-8.536-69.751-62.383-72.766c-2-.112-3.683 1.476-3.622 3.478.445 14.651 6.116 69.288 66.005 69.288z" fill="#fddeb0"/><path d="m42.371 412.699c8.272 3.98 18.491 6.422 31.136 6.422 0 0-8.536-69.751-62.383-72.766-2-.112-3.683 1.476-3.622 3.478.041 1.336.125 3.009.29 4.939 23.17 14.759 31.815 44.771 34.579 57.927z" fill="#fdd79b"/><path d="m73.506 342.362s-8.536-69.751-62.383-72.766c-2-.112-3.683 1.476-3.622 3.478.445 14.651 6.116 69.288 66.005 69.288z" fill="#fddeb0"/><path d="m42.371 335.94c8.272 3.98 18.491 6.422 31.136 6.422 0 0-8.536-69.751-62.383-72.766-2-.112-3.683 1.476-3.622 3.478.041 1.336.125 3.009.29 4.939 23.17 14.758 31.815 44.77 34.579 57.927z" fill="#fdd79b"/><path d="m73.506 265.602s-8.536-69.751-62.383-72.766c-2-.112-3.683 1.476-3.622 3.478.445 14.651 6.116 69.288 66.005 69.288z" fill="#fddeb0"/><path d="m42.371 259.18c8.272 3.98 18.491 6.422 31.136 6.422 0 0-8.536-69.751-62.383-72.765-2-.112-3.683 1.476-3.622 3.478.041 1.337.125 3.009.29 4.939 23.17 14.758 31.815 44.77 34.579 57.926z" fill="#fdd79b"/><path d="m73.506 189.169s-8.536-69.751-62.383-72.766c-2-.112-3.683 1.476-3.622 3.478.445 14.652 6.116 69.288 66.005 69.288z" fill="#fddeb0"/><path d="m42.371 182.747c8.272 3.98 18.491 6.422 31.136 6.422 0 0-8.536-69.751-62.383-72.766-2-.112-3.683 1.476-3.622 3.478.041 1.337.125 3.009.29 4.939 23.17 14.759 31.815 44.771 34.579 57.927z" fill="#fdd79b"/><path d="m73.506 113.946s-8.536-69.751-62.383-72.766c-2-.112-3.683 1.476-3.622 3.478.445 14.651 6.116 69.288 66.005 69.288z" fill="#fddeb0"/><path d="m42.371 107.523c8.272 3.98 18.491 6.422 31.136 6.422 0 0-8.536-69.751-62.383-72.766-2-.112-3.683 1.476-3.622 3.478.041 1.337.125 3.009.29 4.939 23.17 14.759 31.815 44.771 34.579 57.927z" fill="#fdd79b"/><path d="m73.506 454.841s8.536-69.751 62.383-72.766c2-.112 3.683 1.476 3.622 3.478-.444 14.651-6.116 69.288-66.005 69.288z" fill="#fddeb0"/><path d="m135.889 382.075c-10.534.59-19.327 3.741-26.668 8.417-1.26 14.761-7.246 44.774-34.579 57.927-.837 3.984-1.135 6.422-1.135 6.422 59.889 0 65.561-54.637 66.005-69.288.06-2.002-1.623-3.59-3.623-3.478z" fill="#fdd79b"/><path d="m73.506 379.1s8.536-69.751 62.383-72.766c2-.112 3.683 1.476 3.622 3.478-.444 14.652-6.116 69.288-66.005 69.288z" fill="#fddeb0"/><path d="m135.889 306.335c-10.534.59-19.327 3.741-26.668 8.417-1.26 14.761-7.246 44.774-34.579 57.927-.837 3.983-1.135 6.422-1.135 6.422 59.889 0 65.561-54.637 66.005-69.288.06-2.002-1.623-3.59-3.623-3.478z" fill="#fdd79b"/><path d="m73.506 303.36s8.536-69.751 62.383-72.766c2-.112 3.683 1.476 3.622 3.478-.444 14.651-6.116 69.288-66.005 69.288z" fill="#fddeb0"/><path d="m135.889 230.595c-10.534.59-19.327 3.741-26.668 8.417-1.26 14.761-7.246 44.774-34.579 57.927-.837 3.983-1.135 6.422-1.135 6.422 59.889 0 65.561-54.637 66.005-69.288.06-2.003-1.623-3.59-3.623-3.478z" fill="#fdd79b"/><path d="m73.506 227.62s8.536-69.751 62.383-72.766c2-.112 3.683 1.476 3.622 3.478-.444 14.651-6.116 69.288-66.005 69.288z" fill="#fddeb0"/><path d="m135.889 154.854c-10.534.59-19.327 3.741-26.668 8.417-1.26 14.761-7.246 44.774-34.579 57.927-.837 3.983-1.135 6.422-1.135 6.422 59.889 0 65.561-54.637 66.005-69.288.06-2.002-1.623-3.59-3.623-3.478z" fill="#fdd79b"/><path d="m73.506 151.88s8.536-69.751 62.383-72.766c2-.112 3.683 1.476 3.622 3.478-.444 14.651-6.116 69.288-66.005 69.288z" fill="#fddeb0"/><path d="m135.889 79.114c-10.534.59-19.327 3.741-26.668 8.417-1.26 14.761-7.246 44.774-34.579 57.927-.837 3.984-1.135 6.422-1.135 6.422 59.889 0 65.561-54.637 66.005-69.288.06-2.002-1.623-3.59-3.623-3.478z" fill="#fdd79b"/><g fill="#fef1da"><ellipse cx="268.591" cy="216.877" rx="13.395" ry="20.167" transform="matrix(.266 -.964 .964 .266 -11.845 418.203)"/><ellipse cx="255.625" cy="320.218" rx="20.167" ry="13.395" transform="matrix(.992 -.124 .124 .992 -37.694 34.127)"/><ellipse cx="330.559" cy="389.782" rx="13.395" ry="20.167" transform="matrix(.379 -.925 .925 .379 -155.453 547.868)"/><ellipse cx="434.568" cy="317.733" rx="20.167" ry="13.395" transform="matrix(.04 -.999 .999 .04 99.573 739.138)"/><ellipse cx="392.216" cy="196.799" rx="13.395" ry="20.167" transform="matrix(.5 -.866 .866 .5 25.675 438.068)"/><ellipse cx="346.402" cy="276.678" rx="20.167" ry="13.395" transform="matrix(.707 -.707 .707 .707 -94.182 325.98)"/></g><g><path d="m502.077 267.419c3.027-4.796 4.314-10.646 3.447-16.519-1.013-6.855-4.696-12.677-10.175-16.371 1.041-4.705.652-9.681-1.19-14.251-1.682-4.17-4.469-7.744-7.989-10.362 3.75-7.893 3.559-17.105-.789-25.287-5.522-10.391-16.304-16.474-27.442-15.477-9.852 1.182-8.571 15.515 1.325 14.941 6.227-.552 10.83 3.734 12.871 7.574 1.256 2.364 3.65 8.511-1.235 14.524-1.886 2.321-2.535 5.423-1.736 8.3.803 2.89 2.971 5.225 5.803 6.248 2.385.861 4.311 2.736 5.281 5.146.987 2.448.901 5.073-.243 7.396-1.144 2.325-1.251 5.044-.294 7.46.958 2.417 2.9 4.327 5.33 5.238 4.391 1.646 5.41 5.521 5.645 7.11.499 3.379-.736 6.567-3.308 8.53-2.682 2.048-4.026 5.396-3.508 8.735.521 3.357 2.831 6.155 6.028 7.302 5.946 2.133 7.519 7.667 7.007 12.134-.508 4.44-3.313 9.883-9.548 10.612-7.866.798-11.083 11.07-5.017 16.165 2.788 2.41 4.249 6.15 3.909 10.004-.336 3.804-2.368 7.081-5.576 8.99-2.589 1.541-4.271 4.25-4.501 7.248-.229 2.997 1.02 5.93 3.342 7.846 4.535 3.745 4.711 9.139 3.363 12.939-.646 1.823-3.335 7.778-10.77 7.841-2.566.021-5.031 1.114-6.762 2.998-1.734 1.888-2.616 4.443-2.42 7.009.203 2.658-.79 5.268-2.727 7.161-1.941 1.897-4.572 2.834-7.202 2.573-3.152-.319-6.2.995-8.149 3.496-1.973 2.529-2.502 5.844-1.417 8.866 2.182 6.079-.696 11.315-4.116 14.19-3.412 2.866-9.055 4.792-14.658 1.603-5.712-3.508-13.761.859-13.848 7.579-.208 4.652-3.046 8.466-7.591 10.203-4.563 1.745-9.243.789-12.515-2.553-2.16-2.207-5.258-3.199-8.287-2.649-3.021.548-5.568 2.557-6.812 5.375-1.47 3.331-4.388 5.74-8.005 6.611-3.616.87-7.306.051-10.131-2.246-2.395-1.948-5.586-2.574-8.532-1.678s-5.246 3.191-6.151 6.14c-1.835 5.973-7.097 8.002-11.472 7.927-4.307-.083-9.48-2.326-11.082-8.371-.76-2.866-2.869-5.208-5.644-6.265-2.769-1.056-5.896-.712-8.365.918-4.906 3.241-10.942 3.912-16.563 1.841-5.616-2.069-9.77-6.488-11.399-12.128-.858-2.968-3.129-5.299-6.073-6.235-2.949-.938-6.149-.346-8.567 1.583-5.386 4.296-11.513 2.947-15.452.252-3.874-2.652-7.285-7.817-5.239-14.36.885-2.833.343-5.938-1.448-8.305-1.802-2.384-4.668-3.76-7.661-3.676-3.466.088-6.69-1.824-8.295-4.886-2.245-4.288-7.472-6.135-11.9-4.209-6.971 3.034-12.772-.252-15.877-4.34-3.031-3.992-4.877-10.739-.102-16.615 1.887-2.321 2.535-5.425 1.735-8.302-.803-2.89-2.972-5.225-5.801-6.246-2.386-.861-4.312-2.737-5.282-5.147-.987-2.448-.901-5.073.243-7.395 1.144-2.325 1.251-5.044.294-7.46-.958-2.417-2.9-4.327-5.331-5.238-4.39-1.646-5.409-5.52-5.645-7.109-.499-3.379.737-6.568 3.309-8.531 2.682-2.048 4.026-5.396 3.508-8.735-.521-3.357-2.831-6.155-6.028-7.302-5.947-2.133-7.52-7.667-7.008-12.134.509-4.44 3.314-9.883 9.55-10.612 3.655-.428 6.715-2.976 7.795-6.491 1.073-3.49-.019-7.287-2.779-9.675-2.788-2.41-4.249-6.149-3.909-10.003.336-3.805 2.368-7.081 5.575-8.99 2.588-1.541 4.27-4.25 4.501-7.247.23-2.997-1.019-5.93-3.342-7.848-4.535-3.743-4.713-9.134-3.367-12.93.647-1.825 3.336-7.785 10.774-7.848 2.568-.022 5.034-1.116 6.765-3.001 1.734-1.89 2.615-4.446 2.416-7.013-.28-3.627 1.573-6.025 2.703-7.131 1.948-1.908 4.575-2.857 7.233-2.594 3.148.315 6.199-.999 8.147-3.5 1.971-2.528 2.498-5.842 1.413-8.862-2.182-6.079.695-11.317 4.115-14.191 3.411-2.867 9.052-4.794 14.663-1.6 2.84 1.617 6.242 1.64 9.098.063 2.828-1.562 4.603-4.419 4.746-7.645.209-4.652 3.047-8.466 7.593-10.203 4.564-1.746 9.241-.788 12.513 2.554 2.16 2.207 5.254 3.195 8.287 2.649 3.021-.548 5.568-2.557 6.812-5.375 1.47-3.331 4.387-5.74 8.004-6.611 3.613-.871 7.305-.051 10.13 2.244 2.393 1.947 5.58 2.575 8.529 1.681 2.947-.895 5.248-3.189 6.156-6.141 1.8-5.857 6.964-7.941 11.216-7.941h.051c4.249.017 9.418 2.138 11.183 8.045.857 2.869 3.064 5.152 5.901 6.108 2.839.958 5.981.473 8.402-1.293 4.634-3.38 10.628-3.987 16.042-1.624 5.392 2.354 9.007 7.127 9.671 12.77.417 3.533 2.77 6.456 6.144 7.628 3.372 1.173 7.026.34 9.539-2.165 4.702-4.685 10.382-3.519 12.608-2.798 5.069 1.64 8.836 5.707 9.595 10.361.666 4.087 4.52 6.86 8.609 6.195 4.088-.667 6.861-4.521 6.195-8.609-2.483-17.436-24.139-29.147-40.132-21.065-3.074-7.073-8.767-12.806-16.227-16.063-8.157-3.562-17.055-3.562-24.86-.193-4.701-7.604-12.995-12.259-22.611-12.296-9.572-.043-17.908 4.513-22.673 12.02-5.262-2.306-11.18-2.844-16.98-1.447-5.816 1.401-10.846 4.583-14.482 9.041-6.82-3.983-15.135-4.684-22.975-1.687-7.613 2.909-13.229 8.715-15.761 15.93-8.449-2.062-17.539.019-24.635 5.983-7.189 6.042-10.811 14.78-10.125 23.572-4.327.97-8.358 3.139-11.629 6.341-3.754 3.676-6.159 8.399-6.949 13.461-8.87 1.913-16.174 8.272-19.351 17.236-3.015 8.503-1.71 17.503 3.221 24.432-4.221 4.321-6.838 9.991-7.393 16.277-.477 5.406.668 10.747 3.164 15.348-7.491 3.965-12.701 11.626-13.78 21.044-1.112 9.712 2.661 18.618 9.73 24.08-3.027 4.796-4.314 10.648-3.447 16.521 1.013 6.854 4.697 12.675 10.175 16.369-1.041 4.704-.652 9.68 1.19 14.25 1.681 4.17 4.468 7.744 7.989 10.362-4.457 9.374-3.322 20.524 3.426 29.411 7.089 9.335 18.369 13.28 29.201 10.589 3.201 3.862 7.55 6.645 12.365 7.948-.604 9.574 3.856 18.745 12.327 24.545 8.351 5.715 18.31 6.667 26.923 2.932 3.818 7.013 10.062 12.423 17.857 15.294 7.934 2.923 16.352 2.804 23.919-.21 4.518 7.894 12.823 12.818 22.631 13.008 9.546.203 18.225-4.447 23.083-12.016 5.268 2.314 11.193 2.859 17.006 1.458 5.816-1.401 10.847-4.583 14.483-9.041 6.82 3.982 15.134 4.684 22.977 1.686 7.613-2.91 13.228-8.714 15.76-15.929 8.449 2.06 17.538-.02 24.633-5.983 7.188-6.041 10.81-14.777 10.127-23.567 4.312-.966 8.331-3.125 11.593-6.314 3.77-3.685 6.186-8.419 6.98-13.492 8.868-1.912 16.172-8.268 19.35-17.228 3.018-8.506 1.715-17.51-3.216-24.442 4.221-4.32 6.838-9.991 7.393-16.276.478-5.406-.666-10.747-3.163-15.349 7.49-3.965 12.701-11.626 13.78-21.044 1.11-9.711-2.663-18.617-9.733-24.079z"/><path d="m147.005 82.818c.092-3.033-1.102-5.986-3.274-8.104-2.189-2.134-5.208-3.257-8.263-3.088-22.883 1.281-41.594 13.593-54.464 35.704v-15.451c.289-.437.552-.897.75-1.405l27.096-69.46c1.505-3.859-.402-8.208-4.262-9.713s-8.207.403-9.713 4.262l-13.87 35.558v-43.621c-.307-9.916-14.696-9.909-15 0v43.477l-14.337-35.498c-1.551-3.84-5.921-5.697-9.763-4.146-3.841 1.551-5.697 5.922-4.145 9.763l11.033 27.318c-10.562-8.925-23.109-13.931-37.25-14.723-3.062-.166-6.075.953-8.266 3.088-2.173 2.119-3.366 5.074-3.272 8.104 1.064 35.193 19.109 72.677 66 76.276v23.458c-12.869-22.111-31.58-34.423-54.464-35.704-3.068-.17-6.075.955-8.264 3.09-2.173 2.119-3.366 5.074-3.272 8.104 1.064 35.193 19.109 72.676 66 76.276v24.668c-12.869-22.111-31.58-34.423-54.462-35.704-3.062-.172-6.075.954-8.266 3.088-2.173 2.119-3.366 5.074-3.272 8.104 1.064 35.193 19.109 72.677 66 76.276v24.994c-12.869-22.111-31.58-34.423-54.464-35.704-3.068-.168-6.075.955-8.264 3.09-2.173 2.119-3.366 5.074-3.272 8.104 1.064 35.193 19.109 72.676 66 76.276v24.995c-12.869-22.111-31.58-34.423-54.464-35.704-3.068-.169-6.075.955-8.265 3.09-2.173 2.119-3.365 5.073-3.271 8.103.273 9.057 2.41 32.118 16.293 50.604 2.487 3.312 7.189 3.979 10.501 1.493 3.312-2.487 3.98-7.188 1.493-10.501-9.43-12.557-12.217-28.114-13.017-37.359 17.156 2.474 30.715 13.412 40.347 32.573 4.494 8.939 7.179 17.897 8.697 24.245-4.007-.457-7.785-1.224-11.301-2.294-9.578-2.592-13.761 11.17-4.371 14.35 5.378 1.638 11.197 2.688 17.357 3.158v78.17c.307 9.916 14.696 9.909 15 0v-42.444c46.888-3.6 64.934-41.083 66.001-76.276.092-3.033-1.102-5.987-3.274-8.105-2.19-2.134-5.208-3.258-8.263-3.088-22.883 1.281-41.594 13.593-54.464 35.704v-23.975c46.888-3.6 64.934-41.083 66.001-76.277.092-3.033-1.102-5.986-3.274-8.104-2.189-2.134-5.208-3.261-8.263-3.088-22.883 1.281-41.594 13.593-54.464 35.704v-23.975c46.888-3.6 64.934-41.083 66.001-76.277.092-3.033-1.102-5.988-3.275-8.105-2.19-2.134-5.207-3.254-8.262-3.087-22.883 1.281-41.594 13.593-54.464 35.704v-23.975c46.888-3.6 64.934-41.083 66.001-76.277.322-6.214-5.347-11.674-11.537-11.192-22.883 1.281-41.594 13.593-54.464 35.704v-23.975c46.889-3.599 64.935-41.082 66.001-76.276zm-15.249 4.241c-1.505 18.953-9.798 52.33-49.064 56.817 4.037-16.835 16.326-52.04 49.064-56.817zm-116.501 37.284c26.59 2.845 43.542 31.576 49.064 56.822-39.271-4.487-47.561-37.868-49.064-56.822zm0 76.433c26.59 2.845 43.542 31.576 49.064 56.822-39.268-4.487-47.56-37.867-49.064-56.822zm0 76.76c26.59 2.845 43.542 31.576 49.064 56.822-39.271-4.488-47.561-37.868-49.064-56.822zm116.501 112.484c-1.505 18.953-9.798 52.33-49.064 56.817 4.037-16.836 16.326-52.04 49.064-56.817zm0-75.741c-1.505 18.953-9.798 52.33-49.064 56.817 4.037-16.835 16.326-52.039 49.064-56.817zm0-75.74c-1.505 18.953-9.797 52.33-49.064 56.817 4.037-16.835 16.324-52.039 49.064-56.817zm0-75.74c-1.505 18.953-9.797 52.33-49.064 56.817 4.037-16.835 16.324-52.039 49.064-56.817zm-116.501-113.679c26.59 2.845 43.542 31.576 49.064 56.822-39.268-4.487-47.56-37.867-49.064-56.822z"/><path d="m295.261 224.227c1.616-5.864-.114-12.284-4.748-17.613-3.958-4.553-9.772-8.062-16.373-9.881-6.6-1.819-13.392-1.784-19.124.099-6.71 2.205-11.484 6.832-13.1 12.696-3.112 11.295 6.166 23.372 21.122 27.494 6.277 1.73 13.09 1.875 19.123-.1 6.71-2.205 11.485-6.832 13.1-12.695zm-14.461-3.985c-.25.908-1.522 1.839-3.321 2.43-2.914.957-6.726.917-10.456-.111-7.575-2.087-11.197-7.045-10.645-9.049.25-.907 1.522-1.838 3.321-2.429 3.244-1.045 7.017-.827 10.457.111 3.73 1.028 7.024 2.945 9.037 5.26 1.241 1.428 1.857 2.88 1.607 3.788z"/><path d="m271.944 302.34c-5.399-2.689-12.114-3.705-18.909-2.856-6.794.848-13.054 3.482-17.627 7.417-5.354 4.606-7.992 10.71-7.238 16.745.753 6.035 4.811 11.303 11.133 14.452 4.156 2.07 9.091 3.148 14.241 3.148 1.542 0 3.103-.096 4.668-.292 15.393-1.922 26.315-12.535 24.865-24.161-.754-6.036-4.811-11.304-11.133-14.453zm-15.59 23.728c-3.838.479-7.617-.03-10.363-1.398-1.694-.844-2.819-1.949-2.936-2.884-.117-.934.702-2.281 2.137-3.516 2.325-2.001 5.861-3.423 9.701-3.902 3.441-.465 7.597-.023 10.364 1.398 1.694.844 2.819 1.948 2.936 2.883.257 2.063-4.042 6.446-11.839 7.419z"/><path d="m338.48 370.447c-6.336-2.596-13.081-3.374-18.998-2.19-6.926 1.385-12.22 5.408-14.526 11.036-4.441 10.842 3.323 23.943 17.679 29.825 6.243 2.516 12.641 3.411 18.997 2.191 6.926-1.386 12.22-5.408 14.526-11.036 4.99-12.249-5.728-25.261-17.678-29.826zm3.798 24.137c0 .001-.001.001 0 0-.357.872-1.732 1.644-3.589 2.015-3.005.603-6.788.104-10.367-1.362-7.27-2.979-10.273-8.335-9.485-10.258.356-.871 1.731-1.643 3.588-2.014 3.453-.629 6.857-.03 10.368 1.362 3.581 1.467 6.621 3.766 8.343 6.305 1.061 1.567 1.499 3.081 1.142 3.952z"/><path d="m433.45 345.377c11.832.426 21.334-11.328 21.995-26.802.624-15.501-8.057-28.014-19.764-28.486-19.416-.795-27.916 29.348-17.564 45.405 3.668 6.036 9.255 9.638 15.333 9.883zm-4.775-27.881c.316-7.852 4.312-12.491 6.4-12.419 2.077.084 5.697 5.043 5.381 12.894s-4.311 12.461-6.401 12.419c-.941-.038-2.136-1.067-3.119-2.685-1.593-2.622-2.417-6.343-2.261-10.209z"/><path d="m381.765 214.895c5.574 3.219 11.436 4.779 16.809 4.779 15.275.289 24.515-13.433 17.442-27.284-2.683-5.403-7.426-10.264-13.355-13.687s-12.501-5.104-18.531-4.722c-7.048.442-12.835 3.717-15.876 8.985-5.859 10.146.076 24.171 13.511 31.929zm-.521-24.429c.471-.815 1.937-1.396 3.826-1.515 3.282-.17 6.711.823 10.091 2.742 3.352 1.935 6.057 4.621 7.421 7.369.842 1.695 1.072 3.255.602 4.07-1.04 1.8-7.114 2.701-13.918-1.228-6.805-3.928-9.061-9.638-8.022-11.438z"/><path d="m365.964 257.115c-8.286-8.284-23.369-6.183-34.339 4.788-4.842 4.841-8.165 10.764-9.358 16.677-1.396 6.923.269 13.36 4.569 17.661h.001c10.112 9.26 24.385 4.927 34.339-4.789 10.968-10.969 13.072-26.052 4.788-34.337zm-15.395 23.732c-5.556 5.555-11.655 6.256-13.127 4.788-.665-.666-.847-2.232-.472-4.088.606-3.007 2.523-6.301 5.26-9.038 5.558-5.557 11.659-6.257 13.126-4.788 1.47 1.47.769 7.57-4.787 13.126z"/></g></g></svg>