<svg id="Capa_1" enable-background="new 0 0 512 512" height="512" viewBox="0 0 512 512" width="512" xmlns="http://www.w3.org/2000/svg"><g><g><path d="m250.501 21.995c-112.507 0-207.29 75.839-236.046 179.18l318.004 296.763c95.003-33.717 163.045-124.375 163.045-230.94 0-135.312-109.692-245.003-245.003-245.003z" fill="#02c0fc"/></g><g><path d="m182.493 130.824c-.527-12.158 13.297-22.641 13.436-22.745l1.485-1.272c-.82-.009-1.636-.031-2.458-.031-74.769 0-140.807 37.348-180.502 94.398-5.829 20.947-8.956 43.018-8.956 65.823 0 30.39 5.549 59.48 15.663 86.334-1.346-8.741-2.061-17.688-2.061-26.8 0-96.968 78.889-175.857 175.856-175.857 1.207 0 2.408.021 3.609.046-.989-.787-1.907-1.445-2.752-1.969-8.553-5.308-13.034-11.339-13.32-17.927z" fill="#543e5b"/></g><path d="m377.827 402.101c-9.083-3.689-14.283-11.993-16.864-17.54-24.029 68.539-89.365 117.826-166.006 117.826-4.946 0-9.841-.217-14.684-.62 22.249 6.646 45.818 10.233 70.228 10.233 28.747 0 56.329-4.967 81.957-14.062 31.119-24.999 55.295-58.287 69.154-96.526-8.963 3.23-16.932 3.472-23.785.689z" fill="#543e5b"/><path d="m370.754 330.967c-.487 19.54-4.174 38.3-10.56 55.772 4.882 9.633 16.666 24.645 40.701 16.646 8.668-23.216 13.509-48.296 13.788-74.469-8.429 8.612-23.539 17.324-43.929 2.051z" fill="#6c5475"/><g><path d="m390.525 226.212c-36.452-70.919-110.342-119.436-195.568-119.436 0 0-31.734 23.664 0 43.355.273.169.554.356.842.553 68.782.325 128.349 40.342 156.948 98.271 7.443-19.782 25.857-22.948 37.778-22.743z" fill="#6c5475"/></g><path d="m390.259 225.708c-12.087-.155-30.243 3.149-37.811 22.645 11.745 23.563 18.366 50.109 18.366 78.177 0 1.682-.032 3.356-.079 5.027 9.956 7.286 27.265 14.92 43.941-1.921.014-1.035.035-2.068.035-3.106-.001-36.344-8.831-70.623-24.452-100.822z" fill="#876d93"/><path d="m192.954 150.408c-4.018 6.133-20.985 35.107.942 57.034 22.973 22.974 8.508 70.729 8.359 71.209l-.294.948.759.642c.113.096 11.489 9.755 23.406 23.619 10.942 12.73 24.574 31.687 27.371 49.701l.068.439 12.532 13.966c.428 2.224 2.7 11.657 11.164 16.587 6.691 3.899 15.422 3.925 25.959.083 3.392 5.013 19.226 25.803 47.526 24.56 13.146-24.673 20.61-52.812 20.61-82.666 0-97.267-79.133-176.399-176.399-176.399-.768 0-1.532.019-2.298.029z" fill="#f4dabd"/><path d="m18.558 326.531c0 8.27.583 16.405 1.69 24.375 26.652 73.116 87.136 129.961 162.514 151.602 4.03.277 8.095.422 12.194.422 68.029 0 127.178-38.713 156.597-95.262-32.036 1.98-47.73-24.859-47.73-24.859-32.177 12.427-36.323-15.525-36.323-15.525l-12.521-13.953c-5.521-35.551-51.292-74.236-51.292-74.236s15.166-48.817-8.731-72.714 0-56.25 0-56.25c-97.266.001-176.398 79.133-176.398 176.4z" fill="#f1b788"/><path d="m405.46 195.298-73.446 206.953c-2.511 7.076 1.082 14.862 8.095 17.542s14.884-.725 17.732-7.671l83.353-203.302c-23.587 12.426-32.772-4.95-35.734-13.522z" fill="#ce7867"/><path d="m498.144 34.845-19.041-7.277c-6.817-2.605-14.441.913-16.882 7.79l-57.437 161.843c3.316 8.913 12.835 24.962 36.169 12.205l64.573-157.497c2.769-6.752-.566-14.458-7.382-17.064z" fill="#e59689"/><g><path d="m65.254 348.663c-6.903 0-12.5-5.597-12.5-12.5 0-38.685 15.143-74.43 42.638-100.651 25.619-24.432 60.457-38.787 95.582-39.386.073-.001.146-.002.218-.002 6.804 0 12.377 5.457 12.494 12.287.118 6.902-5.382 12.594-12.285 12.711-28.922.493-57.627 12.332-78.755 32.482-22.501 21.458-34.892 50.778-34.892 82.56 0 6.902-5.596 12.499-12.5 12.499z" fill="#f9f2f2"/></g><g><path d="m212.18 459.844c-28.24 0-56.481-10.75-77.98-32.249-35.373-35.374-35.373-92.931 0-128.305 12.168-12.168 28.282-19.837 45.374-21.595 6.869-.708 13.007 4.288 13.713 11.156.706 6.867-4.289 13.007-11.156 13.713-11.558 1.189-22.02 6.169-30.254 14.403-25.626 25.626-25.626 67.323 0 92.949 16.624 16.623 38.467 24.936 60.302 24.938 21.841.002 43.675-8.311 60.303-24.938 42.782-42.782 42.782-112.394 0-155.176-.763-.763-1.53-1.515-2.306-2.256-4.99-4.771-5.168-12.683-.398-17.673 4.77-4.989 12.681-5.17 17.673-.398.91.87 1.812 1.753 2.708 2.648 52.529 52.529 52.529 138.002 0 190.531-21.498 21.502-49.739 32.252-77.979 32.252z" fill="#f9f2f2"/></g><g><path d="m203.219 403.161c-14.037 0-27.234-5.467-37.16-15.393-9.663-9.663-14.312-22.998-12.754-36.588.787-6.857 6.982-11.783 13.842-10.995 6.859.786 11.782 6.983 10.995 13.843-.684 5.969 1.355 11.823 5.595 16.062 5.204 5.204 12.123 8.07 19.482 8.07s14.277-2.866 19.482-8.07c4.881-4.881 12.796-4.881 17.678 0 4.881 4.882 4.881 12.796 0 17.678-9.926 9.926-23.123 15.393-37.16 15.393z" fill="#f9f2f2"/></g><path d="m298.864 176.524 5.432 225.98c.18 7.506 6.317 13.496 13.824 13.496 7.508 0 13.644-5.991 13.824-13.496l5.433-226.005c-16.732 16.841-31.682 6.701-38.513.025z" fill="#ce7867"/><path d="m328.313 0h-20.384c-7.297 0-13.163 6.009-12.988 13.304l3.948 164.244c6.838 6.673 21.761 16.763 38.465-.024l3.948-164.22c.174-7.295-5.691-13.304-12.989-13.304z" fill="#e59689"/><g><path d="m278.812 255.95c-3.104 0-6.214-1.149-8.636-3.464-21.991-21.022-49.23-31.85-78.776-31.364-6.899.127-12.594-5.382-12.711-12.285-.118-6.902 5.382-12.594 12.285-12.711 35.762-.627 70.011 12.988 96.478 38.288 4.99 4.77 5.168 12.684.398 17.674-2.455 2.568-5.744 3.862-9.038 3.862z" fill="#f9f2f2"/></g><g><path d="m231.54 391.43c-3.199 0-6.398-1.22-8.839-3.661-4.881-4.882-4.881-12.796 0-17.678 7.095-7.095 11.002-16.527 11.002-26.561 0-10.033-3.908-19.467-11.002-26.562-10.704-10.703-25.494-15.951-40.57-14.403-6.869.707-13.007-4.289-13.713-11.156s4.289-13.007 11.156-13.713c22.595-2.321 44.757 5.549 60.804 21.595 11.817 11.817 18.325 27.528 18.325 44.239 0 16.712-6.508 32.423-18.325 44.239-2.44 2.44-5.64 3.661-8.838 3.661z" fill="#f9f2f2"/><path d="m195.239 298.434-54.778-76.594c-6.825-9.543-21.913-4.805-22.016 6.926-.164 18.672 5.334 37.67 17.267 54.356 11.925 16.674 28.126 28.021 45.853 33.906 11.137 3.697 20.5-9.05 13.674-18.594z" fill="#3ecd8d"/><path d="m221.211 280.176-54.778-76.594c-6.825-9.543-21.913-4.805-22.016 6.926-.164 18.672 5.334 37.67 17.267 54.356 11.925 16.673 28.126 28.021 45.854 33.906 11.136 3.697 20.499-9.05 13.673-18.594z" fill="#95db76"/><path d="m247.183 261.918-54.778-76.594c-6.825-9.543-21.913-4.805-22.016 6.926-.164 18.672 5.334 37.67 17.268 54.356 11.925 16.673 28.126 28.021 45.853 33.906 11.136 3.697 20.498-9.05 13.673-18.594z" fill="#baee63"/></g><path d="m97.313 312.605c-19.117-17.107-38.841-24.248-52.759-16.79-23.418 12.548-21.533 61.668 4.211 109.714 25.743 48.046 65.597 76.823 89.015 64.275 2.669-1.43 5.006-3.341 7.02-5.666-56.317-24.638-50.58-122.15-47.487-151.533z" fill="#543e5b"/><path d="m97.434 380.851c-7.142.042-14.34 2.207-20.589 6.681-13.928 9.974-18.549 28.099-12.035 43.212 4.462 5.932 9.106 11.343 13.833 16.164 11.933 7.49 27.696 7.501 39.859-1.21.524-.375 1.032-.763 1.53-1.16-13.326-17.12-19.774-40.716-22.598-63.687z" fill="#b66651"/><path d="m73.317 351.316c-11.792 8.445-14.506 24.852-6.06 36.644 7.532 10.517 21.393 13.805 32.669 8.404-3.379-16.76-4.427-34.033-4.423-49.035-7.353-1.996-15.509-.795-22.186 3.987z" fill="#ce7867"/><ellipse cx="63.13" cy="352.144" fill="#e59689" rx="18.121" ry="18.121" transform="matrix(.986 -.165 .165 .986 -57.223 15.238)"/><path d="m138.491 371.194c-13.292 1.393-26.369-2.804-36.823-11.818-4.983-4.296-9.073-9.449-12.166-15.189-.446 9.433-.177 19.391.896 29.636 5.681 54.211 31.707 95.913 58.13 93.144s43.238-48.961 37.557-103.172c-1.076-10.263-2.881-20.076-5.28-29.225-5.738 19.528-21.924 34.487-42.314 36.624z" fill="#6c5475"/><path d="m106.892 268.301c-4.48-6.201-13.219-7.608-19.42-3.128l-37.84 27.341c-6.201 4.48-7.608 13.219-3.128 19.42s13.219 7.608 19.42 3.128l37.84-27.341c6.201-4.48 7.608-13.22 3.128-19.42z" fill="#fd8d3e"/><path d="m181.375 336.808c-10.041-40.386-31.595-68.444-53.421-66.156-21.826 2.287-37.095 34.204-38.545 75.794 10.135 17.329 28.948 28.053 49.205 25.93 20.258-2.123 36.439-16.514 42.761-35.568z" fill="#876d93"/><path d="m100.385 323.882c-7.65 0-13.909 6.259-13.909 13.909v46.684c0 7.65 6.259 13.909 13.909 13.909s13.909-6.259 13.909-13.909v-46.684c0-7.65-6.259-13.909-13.909-13.909z" fill="#ffc242"/><path d="m212.415 328.194c-4.043 6.495-2.037 15.116 4.458 19.159l39.632 24.671c6.495 4.043 15.116 2.037 19.159-4.458 4.043-6.494 2.037-15.116-4.458-19.159l-39.632-24.671c-6.495-4.042-15.116-2.036-19.159 4.458z" fill="#fd77a6"/><ellipse cx="224.971" cy="414.632" fill="#95db76" rx="15.029" ry="26.75"/></g></svg>