<svg id="Capa_1" enable-background="new 0 0 512 512" height="512" viewBox="0 0 512 512" width="512" xmlns="http://www.w3.org/2000/svg"><g><g><path d="m248.907 218.907h184.447c16.569 0 30 13.431 30 30v233.093c0 16.569-13.431 30-30 30h-184.447c-16.569 0-30-13.431-30-30v-233.093c0-16.568 13.432-30 30-30z" fill="#822424"/><path d="m175.938 145.938h184.447c16.569 0 30 13.431 30 30v233.093c0 16.569-13.431 30-30 30h-184.447c-16.569 0-30-13.431-30-30v-233.093c0-16.568 13.432-30 30-30z" fill="#ae2d2d"/><path d="m102.969 72.969h184.446c16.569 0 30 13.431 30 30v233.093c0 16.569-13.431 30-30 30h-184.446c-16.569 0-30-13.431-30-30v-233.093c0-16.568 13.432-30 30-30z" fill="#dd4e4e"/><path d="m30 0h184.446c16.569 0 30 13.431 30 30v233.093c0 16.569-13.431 30-30 30h-184.446c-16.569 0-30-13.431-30-30v-233.093c0-16.569 13.431-30 30-30z" fill="#e27f7f"/></g><g fill="#dd4e4e"><path d="m48.734 48.734h30v30h-30z"/><path d="m158.254 117.78h30v30h-30z"/><path d="m80.602 223.536h30v30h-30z"/></g></g></svg>