<svg id="Capa_1" enable-background="new 0 0 512 512" height="512" viewBox="0 0 512 512" width="512" xmlns="http://www.w3.org/2000/svg"><g><g><path d="m0 177v190l256 20 256-20v-190s-93.298-52-256-52c-138.574 0-256 52-256 52z" fill="#ffe04d"/></g><g><path d="m256 125v262l256-20v-190s-93.298-52-256-52z" fill="#ffbe3f"/></g><g><path d="m501.087 121.567c-4.695-1.329-116.483-32.567-245.087-32.567s-240.392 31.238-245.087 32.567c-6.456 1.829-10.913 7.723-10.913 14.433v41s120.033-32 256-32 256 32 256 32v-41c0-6.71-4.457-12.604-10.913-14.433z" fill="#b26348"/></g><g><path d="m501.087 121.567c-4.695-1.329-116.483-32.567-245.087-32.567v56c135.967 0 256 32 256 32v-41c0-6.71-4.457-12.604-10.913-14.433z" fill="#98402e"/></g><g><path d="m0 408c0 8.284 6.716 15 15 15h482c8.284 0 15-6.716 15-15v-41h-512z" fill="#b26348"/></g><g><path d="m256 367v56h241c8.284 0 15-6.716 15-15v-41z" fill="#98402e"/></g></g></svg>