<svg id="Capa_1" enable-background="new 0 0 495.659 495.659" height="512" viewBox="0 0 495.659 495.659" width="512" xmlns="http://www.w3.org/2000/svg"><g><path d="m476.528 253.692c3.993 0 7.23 3.237 7.23 7.23v17.721c0 3.993-3.237 7.23-7.23 7.23h-12.494l-4.947 37.268c-.994 7.488-7.38 13.082-14.933 13.082h-10.745-59.97v-82.532h103.089z" fill="#baafb9"/><path d="m52.987 336.224h-10.745c-7.554 0-13.939-5.594-14.933-13.082l-4.947-37.268h-12.494c-3.993 0-7.23-3.237-7.23-7.23v-17.721c0-3.993 3.237-7.23 7.23-7.23h45.586 64.421v82.532h-66.888z" fill="#baafb9"/><path d="m329.067 140.073 25.7-20.141c4.057-3.18 1.809-9.694-3.346-9.694h-89.946c-5.155 0-7.404 6.514-3.346 9.694l25.7 20.141v55.361h46.134z" fill="#aa9ea9"/><g><g id="XMLID_1094_"><g><g><path d="m430.939 215.149v244.08c0 20.12-16.31 36.43-36.42 36.43h-302.64c-20.114 0-36.42-16.306-36.42-36.42v-232.703c0-6.289 5.098-11.387 11.387-11.387z" fill="#f9f7f8"/></g></g></g><path d="m222.118 435.213c-20.114 0-36.42-16.306-36.42-36.42v-183.644h-118.852c-6.289 0-11.387 5.098-11.387 11.387v232.703c0 20.114 16.306 36.42 36.42 36.42h302.64c20.11 0 36.42-16.31 36.42-36.43v-24.016z" fill="#efedef"/><g id="XMLID_1096_"><g><g><path d="m430.939 215.149v48.49h-46.3-329.18v-36.66c0-6.534 5.297-11.83 11.83-11.83z" fill="#efedef"/></g></g></g><path d="m185.698 215.149h-118.412c-6.533.001-11.828 5.297-11.828 11.83v36.66h130.239v-48.49z" fill="#e5e1e5"/><path d="m430.939 215.149h-335.371c.53 2.465 1.344 4.899 2.485 7.249 5.317 10.949 16.182 17.751 28.354 17.751h304.531v-25z" fill="#d7d0d6"/><path d="m262.031 215.149c0 15.827-9.321 30.169-23.784 36.597l-.282.126v137.377c0 9.045-7.333 16.378-16.378 16.378-9.045 0-16.378-7.333-16.378-16.378v-112.643c0-8.861-7.183-16.044-16.044-16.044-8.861 0-16.044 7.183-16.044 16.044v28.746c0 8.492-6.884 15.375-15.375 15.375-8.492 0-15.376-6.884-15.376-15.375v-90.203z" fill="#99e6fc"/><path d="m226.948 387.038v-112.643c0-.041 0-.081 0-.122-.044-5.843-4.972-10.479-10.815-10.479h-17.246c-.01.029-.009.027-.019.056 3.847 2.931 6.342 7.546 6.342 12.756v112.642c0 9.045 7.333 16.378 16.378 16.378 4.8 0 9.104-2.078 12.1-5.368-4.08-2.979-6.74-7.783-6.74-13.22z" fill="#62dbfb"/><path d="m346.342 312.133c-9.045 0-16.378-7.333-16.378-16.378v-80.606h32.757v80.606c-.001 9.045-7.334 16.378-16.379 16.378z" fill="#99e6fc"/><path d="m346.342 416.622c-9.045 0-16.378-7.333-16.378-16.378v-32.254c0-9.045 7.333-16.378 16.378-16.378 9.045 0 16.378 7.333 16.378 16.378v32.254c0 9.045-7.333 16.378-16.378 16.378z" fill="#99e6fc"/><path d="m253.24 240.148c5.567-6.963 8.791-15.719 8.791-25h-97.922-21.739v89.778c0 8.502 6.718 15.715 15.219 15.799 4.897.049 9.266-2.196 12.115-5.721-3.417-2.82-5.595-7.088-5.595-11.865v-38.837c0-13.341 10.815-24.156 24.156-24.156h64.975z" fill="#62dbfb"/><path d="m329.964 215.149h32.756v25h-32.756z" fill="#62dbfb"/><path d="m451.99 163.371h-291.084c-4.541 0-8.831 2.083-11.638 5.652l-27.985 35.572c-3.366 4.278-.318 10.553 5.125 10.553h360.08c5.443 0 8.491-6.275 5.125-10.553l-27.985-35.572c-2.807-3.569-7.097-5.652-11.638-5.652z" fill="#baafb9"/><path d="m491.613 204.595-9.578-12.174h-228.023c-6.657 0-10.384-7.674-6.268-12.906l8.255-10.493c2.808-3.569 7.097-5.652 11.638-5.652h-106.731c-4.541 0-8.831 2.083-11.639 5.652l-27.984 35.572c-3.366 4.278-.318 10.553 5.125 10.553h360.081c5.443.001 8.49-6.274 5.124-10.552z" fill="#aa9ea9"/><path d="m314.448 6.302v4.629c0 34.67-28.105 62.775-62.775 62.775h-184.39c-7.892 0-14.29 6.398-14.29 14.29 0 7.892 6.398 14.29 14.29 14.29 17.861 0 32.34 14.479 32.34 32.34l-.962 36.806c-.105 3.998-3.376 7.185-7.375 7.185h-20.574c-4.075 0-7.378-3.303-7.378-7.378v-28.971c0-6.332-5.133-11.465-11.465-11.465-27.19 0-49.232-22.042-49.232-49.232 0-27.19 22.042-49.232 49.232-49.232h153.827c7.783 0 14.092-6.309 14.092-14.092v-11.945c0-3.48 2.821-6.302 6.302-6.302h82.056c3.48 0 6.302 2.821 6.302 6.302z" fill="#efedef"/></g></g></svg>