<?xml version="1.0" encoding="UTF-8"?>
<svg xmlns="http://www.w3.org/2000/svg" xmlns:xlink="http://www.w3.org/1999/xlink" version="1.1" id="Layer_1" x="0px" y="0px" viewBox="0 0 512 512" style="enable-background:new 0 0 512 512;" xml:space="preserve" width="512" height="512">
<g>
	<g>
		<path style="fill:#F2FBFF;" d="M444.837,274.988c-123.882,31.808-253.792,31.808-377.674,0&#10;&#9;&#9;&#9;c6.319-24.611,12.638-49.221,18.957-73.832c111.446,28.615,228.314,28.615,339.761,0&#10;&#9;&#9;&#9;C432.199,225.767,438.518,250.377,444.837,274.988z"/>
		<path style="fill:#FFF0AD;" d="M196.524,323.881H75.381C37.891,323.881,7.5,293.49,7.5,256v0c0-37.49,30.391-67.881,67.881-67.881&#10;&#9;&#9;&#9;h121.143c2.439,0,3.859,2.756,2.443,4.742l-21.702,30.434c-0.801,1.124-0.733,2.649,0.167,3.696l23.237,27.055&#10;&#9;&#9;&#9;c0.966,1.124,0.966,2.785,0,3.909l-23.237,27.055c-0.899,1.047-0.968,2.573-0.167,3.696l21.702,30.434&#10;&#9;&#9;&#9;C200.383,321.125,198.963,323.881,196.524,323.881z"/>
		<path style="fill:#FFE177;" d="M100.38,323.88h-25C37.89,323.88,7.5,293.49,7.5,256c0-18.74,7.6-35.72,19.88-48&#10;&#9;&#9;&#9;c12.28-12.28,29.26-19.88,48-19.88h25c-18.74,0-35.72,7.6-48,19.88C40.1,220.28,32.5,237.26,32.5,256&#10;&#9;&#9;&#9;C32.5,293.49,62.89,323.88,100.38,323.88z"/>
		<path style="fill:#FFF0AD;" d="M315.476,188.119h121.143c37.49,0,67.881,30.391,67.881,67.881v0&#10;&#9;&#9;&#9;c0,37.49-30.391,67.881-67.881,67.881H315.476c-2.439,0-3.859-2.756-2.443-4.742l21.702-30.434&#10;&#9;&#9;&#9;c0.801-1.124,0.733-2.649-0.167-3.696l-23.237-27.055c-0.966-1.124-0.966-2.785,0-3.909l23.237-27.055&#10;&#9;&#9;&#9;c0.899-1.047,0.968-2.573,0.167-3.696l-21.702-30.434C311.617,190.875,313.037,188.119,315.476,188.119z"/>
		<path style="fill:#FFE177;" d="M359.57,285.01c0.9,1.05,0.97,2.57,0.17,3.7l-21.71,30.43c-1.41,1.99,0.01,4.74,2.45,4.74h-25&#10;&#9;&#9;&#9;c-2.44,0-3.86-2.75-2.45-4.74l21.71-30.43c0.8-1.13,0.73-2.65-0.17-3.7l-23.24-27.06c-0.96-1.12-0.96-2.78,0-3.9l23.24-27.06&#10;&#9;&#9;&#9;c0.9-1.05,0.97-2.57,0.17-3.7l-21.71-30.43c-1.41-1.99,0.01-4.74,2.45-4.74h25c-2.44,0-3.86,2.75-2.45,4.74l21.71,30.43&#10;&#9;&#9;&#9;c0.8,1.13,0.73,2.65-0.17,3.7l-23.24,27.06c-0.96,1.12-0.96,2.78,0,3.9L359.57,285.01z"/>
	</g>
	<g>
		<path style="fill:none;stroke:#000000;stroke-width:15;stroke-linecap:round;stroke-linejoin:round;stroke-miterlimit:10;" d="&#10;&#9;&#9;&#9;M331.28,218.45c-15.37,1.7-30.78,2.88-46.2,3.53"/>
		<path style="fill:none;stroke:#000000;stroke-width:15;stroke-linecap:round;stroke-linejoin:round;stroke-miterlimit:10;" d="&#10;&#9;&#9;&#9;M250.08,222.58c-23.16-0.2-46.32-1.58-69.37-4.13"/>
		<path style="fill:none;stroke:#000000;stroke-width:15;stroke-linecap:round;stroke-linejoin:round;stroke-miterlimit:10;" d="&#10;&#9;&#9;&#9;M181.91,295.22c49.28,4.84,98.92,4.83,148.19,0"/>
		<path style="fill:none;stroke:#000000;stroke-width:15;stroke-linecap:round;stroke-linejoin:round;stroke-miterlimit:10;" d="&#10;&#9;&#9;&#9;M121.95,323.88h74.57c2.44,0,3.86-2.75,2.45-4.74l-21.71-30.43c-0.8-1.13-0.73-2.65,0.17-3.7l23.24-27.06&#10;&#9;&#9;&#9;c0.96-1.12,0.96-2.78,0-3.9l-23.24-27.06c-0.9-1.05-0.97-2.57-0.17-3.7l21.71-30.43c1.41-1.99-0.01-4.74-2.45-4.74H75.38&#10;&#9;&#9;&#9;c-18.74,0-35.72,7.6-48,19.88S7.5,237.26,7.5,256c0,37.49,30.39,67.88,67.88,67.88h11.57"/>
		<path style="fill:none;stroke:#000000;stroke-width:15;stroke-linecap:round;stroke-linejoin:round;stroke-miterlimit:10;" d="&#10;&#9;&#9;&#9;M315.476,188.119h121.143c37.49,0,67.881,30.391,67.881,67.881v0c0,37.49-30.391,67.881-67.881,67.881H315.476&#10;&#9;&#9;&#9;c-2.439,0-3.859-2.756-2.443-4.742l21.702-30.434c0.801-1.124,0.733-2.649-0.167-3.696l-23.237-27.055&#10;&#9;&#9;&#9;c-0.966-1.124-0.966-2.785,0-3.909l23.237-27.055c0.899-1.047,0.968-2.573,0.167-3.696l-21.702-30.434&#10;&#9;&#9;&#9;C311.617,190.875,313.037,188.119,315.476,188.119z"/>
		<g>
			<g>
				<path style="fill:none;stroke:#000000;stroke-width:15;stroke-linecap:round;stroke-linejoin:round;stroke-miterlimit:10;" d="&#10;&#9;&#9;&#9;&#9;&#9;M376.44,278.208c-5.626-8.278-5.626-19.152,0-27.429"/>
				<path style="fill:none;stroke:#000000;stroke-width:15;stroke-linecap:round;stroke-linejoin:round;stroke-miterlimit:10;" d="&#10;&#9;&#9;&#9;&#9;&#9;M417.342,248.764c-5.626-8.278-5.626-19.152,0-27.429"/>
				<path style="fill:none;stroke:#000000;stroke-width:15;stroke-linecap:round;stroke-linejoin:round;stroke-miterlimit:10;" d="&#10;&#9;&#9;&#9;&#9;&#9;M458.245,278.208c-5.626-8.277-5.626-19.152,0-27.429"/>
			</g>
		</g>
		<g>
			<g>
				<path style="fill:none;stroke:#000000;stroke-width:15;stroke-linecap:round;stroke-linejoin:round;stroke-miterlimit:10;" d="&#10;&#9;&#9;&#9;&#9;&#9;M135.56,278.208c5.626-8.278,5.626-19.152,0-27.429"/>
				<path style="fill:none;stroke:#000000;stroke-width:15;stroke-linecap:round;stroke-linejoin:round;stroke-miterlimit:10;" d="&#10;&#9;&#9;&#9;&#9;&#9;M94.657,248.764c5.626-8.278,5.626-19.152,0-27.429"/>
				<path style="fill:none;stroke:#000000;stroke-width:15;stroke-linecap:round;stroke-linejoin:round;stroke-miterlimit:10;" d="&#10;&#9;&#9;&#9;&#9;&#9;M53.755,278.208c5.626-8.277,5.626-19.152,0-27.429"/>
			</g>
		</g>
	</g>
</g>















</svg>
