<svg id="Layer_1" enable-background="new 0 0 70 70" height="512" viewBox="0 0 70 70" width="512" xmlns="http://www.w3.org/2000/svg"><g id="_x33_"><g><g><g><g><g><g><g><g><path d="m46.9408112 30.1335068c-.0395775-.6798973-.1103516-1.3685493-.2141914-2.063736-1.301342-8.0689602-5.3025475-10.2120876-9.6569366-9.8250446-4.2600212.3914261-7.8165417 3.1174202-8.3616619 10.9775372-.0388279.6728992-.0489693 1.3355846-.0310459 1.9857197 5.9082564.0378245 12.0142172-.3154374 18.2638358-1.0744763z" fill="#6eb954"/></g><g><path d="m61.8774338 33.9654236c-.3332939-3.7821712-2.182354-7.7740288-6.0111237-11.7422314-.2468033.0309219-6.455658-7.123704-13.0603638-.1193867-4.8626976 4.8676453-5.2521172 10.8640862-4.7636528 14.0967636 7.6346512-.0147552 15.6157837-.7469253 23.8351403-2.2351455z" fill="#6eb954"/></g><g><path d="m37.381649 33.4297066c.633358-3.3515491.5140991-9.4778442-4.041687-13.8013706-5.8598328-5.9614172-11.5565128 1.8360538-11.7645245 1.8371925-3.3147678 4.1510448-4.9385357 8.0047188-5.3272686 11.4916859 6.7345143.8310432 13.8083363.9993515 21.1334801.4724922z" fill="#6eb954"/></g><g><path d="m30.1698036 33.7257652c.6831207-3.4499035.5067139-8.7250862-3.4843578-12.5476818-5.7135067-5.8290195-12.2664938 1.7582989-12.477499 1.7415733-2.9153385 3.1134014-4.747551 6.0215187-5.6956329 8.7612858 6.8347864 1.4230271 14.0870857 2.1175537 21.6574897 2.0448227z" fill="#6eb954"/></g><path d="m30.1338882 34.9434929c.6891308-3.4558182.5115032-8.7423058-3.5306053-12.5857544-5.788763-5.8577747-12.4066963 1.7135067-12.6178379 1.6960163-2.9404707 3.1055775-4.7839174 6.0103188-5.7355061 8.7505474 6.9029904 1.4618035 14.2310467 2.1881752 21.8839493 2.1391907z" fill="#4b9534"/><g><path d="m62.6517563 33.0638847c-.7780838-3.4796848-3.0887527-6.9958363-7.443634-10.2823753-.2210159.0476685-7.7474327-6.2462521-13.571373.8753242-4.2886353 4.9583015-3.5434608 10.8458405-2.614975 13.7927551 7.6655006-.6892432 15.5801506-2.1410407 23.629982-4.385704z" fill="#4b9534"/></g></g><g><path d="m37.4275627 34.66716c.6479263-3.0842819.5765152-8.7130241-4.0882301-12.6806469-6.0404358-5.4734726-11.8372669 1.6322632-12.0278244 1.6325417-3.3295326 3.7793636-4.9056606 7.2990417-5.2482491 10.5014286 6.8051071.8629036 13.9561348 1.0563278 21.3643036.5466766z" fill="#4b9534"/></g><g><path d="m47.2343674 30.2265587c-.0988998-.6738434-.229641-1.3536797-.3938942-2.0371323-2.0021935-7.9243717-6.1756096-9.709383-10.4795418-8.9429817-4.2095413.7625141-7.5140476 3.7891636-7.369545 11.6669788.0201817.673727.0680466 1.3347721.1427689 1.9808598 5.8890419-.4790535 11.9408188-1.3649921 18.1002121-2.6677246z" fill="#4b9534"/></g></g><path d="m33.4745941 15.3501921c-.013073-.3015404-1.1863708-1.8229027-1.2140465-2.0850382 1.8783836-.5818644 3.8819351-1.1845551 6.6022186-.9578447.1385803.7852936.3569298 1.9930372.3301582 2.9048233-.0262871.688098-.1596336 1.380084-.271759 2.0715399-.1363106 1.1337585-.2601013 5.5717945 10.5620193 8.078371-10.0859032 5.9292107-20.6430225 4.797163-27.2151432-2.4526386.066126.1845779 11.685896-1.3572216 11.2065526-7.5592127z" fill="#aa6256"/><g><path d="m33.4745941 15.3501921c-.013073-.3015404-1.1863785-1.8228979-1.2140541-2.0850344.4341278-.1345043.8756447-.2696686 1.3304482-.3958778.8153992.5636501 2.1101341 1.9306192.4491501 4.3023853-2.2706451 3.2423229 2.1149139 5.197607-3.24786 7.5818863-1.7135506.7618237-3.3611507 1.1567001-4.8114567 1.3426991-1.3398895-.8789749-2.5850506-1.9427986-3.71278-3.1868458.0661259.1845779 11.6858959-1.3572216 11.2065525-7.5592127z" fill="#8a4852"/></g><g><g><g><g><path d="m28.0661697 36.5028725c-.7945461-3.8286247-1.4889641-7.6263294-2.0850811-11.392725-.0172825-.0609665-.1321526-4.7291012-7.1112499-3.972393-3.4913187.3259411-6.6218328 1.6261177-8.881052 3.7255688-3.6432729 3.6724986-10.4656146 10.8711738-4.7905226 23.8329887.0192838-.0141144 1.3739958 2.9253082 4.3189259 5.1968956 2.9546041 2.3129044 7.6100607 3.9639473 12.918395.8913994 10.6202889-6.5515328 5.3791886-18.339119 5.6305847-18.2817345z" fill="#6eb954"/></g><g><path d="m8.5198078 26.3399029c-2.9085484 4.2025108-5.828639 10.6882877-1.398766 20.2766895.0193834-.0142822 1.3854079 2.8909225 4.3240323 5.0954399 2.9469833 2.2447929 7.5742855 3.7917442 12.7897301.6076813 1.3877296-.8524284 2.4887199-1.8272247 3.3607578-2.8623314-1.0001297 1.954174-2.6130714 3.8428726-5.1598911 5.3272247-5.3087158 3.0724144-9.9641619 1.4215546-12.9187222-.8913956-2.9449248-2.2715187-4.2994785-5.2109871-4.3186846-5.1968765-5.0997218-11.4551429-.1970091-18.365055 3.3215437-22.3564319z" fill="#4b9534"/></g><path d="m36.8096275 37.10746c-1.0847168-3.6577339-2.0687332-7.2866192-2.9541779-10.8865776-.0284843-.0518875-.4825783-4.6148434-7.3946609-2.8589211-3.4747677.8320065-6.5370846 2.5728588-8.6559048 4.9494495-3.416152 4.1435413-9.7428865 12.1113644-2.9395466 23.9454136-.2789612-.0359688 7.4588261 10.9952774 17.7944641 3.6126938 10.0078774-7.833187 3.8948327-18.7952575 4.1498261-18.7620582z" fill="#6eb954"/><g><path d="m17.804924 28.3113861c.047987-.0540295.0970917-.1075954.1461697-.1609154-3.1021128 3.8810043-8.45749 13.0583572-1.6969528 23.8448143-.2496166-.0192108 7.3578606 10.077179 16.6847515 3.169529 9.0083427-7.2598724 3.0204811-19.0583458 3.2475281-19.0368156-.0072899-.0222511-.0146255-.0445633-.0219574-.066803.1106567-.0057487.2215118-.0115547.332283-.0175743.1034126.3543549.2075844.7089081.3129272 1.0638351-.2549896-.0331306 5.8577805 10.929184-4.1498718 18.7620621-10.3357277 7.3824501-18.0733414-3.6486206-17.7944221-3.6127167-6.8031464-11.8339767-.4770499-19.8017578 2.9395446-23.9454155z" fill="#4b9534"/></g></g></g><g><path d="m37.8251534 37.0488853c.8227959-3.7953644 1.5531235-7.5828762 2.1908417-11.3569851.025425-.057375.1523132-4.7501411 7.6548767-4.3437424 3.9821663.1617508 7.7030754 1.4037495 10.45261 3.5775394 4.309761 3.7146015 12.5289688 11.0787964 7.0606689 23.6583099-1.1019516 2.534935-2.845459 4.841423-5.1948166 6.6468201-3.5552864 2.7321358-9.3519821 5.1158524-16.5029907.5269966-10.5909615-7.43235-5.4077873-18.7716521-5.66119-18.7089385z" fill="#6eb954"/><path d="m37.825058 37.0488853c.0795441-.3666878.1580467-.7332115.2359314-1.0997772.1116905-.007431.223526-.0150833.3353119-.0227776-.0057297.0231628-.0115051.0463905-.017189.0695572.2267952-.0491333-4.8828011 10.4495354 4.678833 17.2523003 5.4335442 3.554821 10.3381271 2.8140755 13.8842773 1.1846199 3.5311852-1.622612 6.1655273-4.3781548 7.5018005-7.6171036 4.5677567-11.0716133-2.7180977-18.6558285-6.512249-22.0383606.0643463.0489712.1284981.0983067.1916618.1483326 4.444416 3.8308353 13.046875 11.5431004 6.5070877 24.8536739-.6021576 1.2256126-1.3968315 2.3755379-2.376442 3.4065285-2.9565811 3.1116104-9.7963333 8.3287544-18.7677383 2.5719452-10.5906753-7.4320449-5.4083099-18.771553-5.6612853-18.7089386z" fill="#4b9534"/></g><g><path d="m49.9972267 42.8304749c1.9206009 12.1321182-3.9855652 17.079216-11.8491058 17.073555-7.5633698.0055809-13.200861-4.6165962-12.3181038-16.0632515.92346-11.2596931 5.7778606-20.201992 10.97892-20.7040043 5.3430671-.4785176 11.2638473 7.9321251 13.1882896 19.6937008z" fill="#4b9534"/></g><path d="m49.8200989 43.18256c1.5131073 11.1016884-4.3988457 15.4318924-10.7178459 15.4745369-6.1232224.049614-11.0767612-5.4071274-10.4644127-16.0075493.6458054-10.4277267 4.5952034-18.7772579 8.9134979-19.1908607 4.4156151-.3986836 10.7485886 8.9239959 12.2687607 19.7238731z" fill="#6eb954"/><g opacity=".1"><path d="m43.1417236 40.5328903c.7010345 8.1524086-1.5392952 11.1497955-4.5600624 11.2132759-2.9755516.0648003-5.3314819-2.7566109-5.2379227-10.7318726.1096001-7.8606987 2.0339279-14.2250786 4.3217163-14.4225788 2.3151055-.1941566 4.7699357 5.9403058 5.4762688 13.9411755z" fill="#fff"/></g><g opacity=".1"><path d="m41.0943451 38.4230537c.3334846 4.9836426-.9895058 6.8006668-2.7478523 6.8665733-1.7428856.0661659-3.1597137-1.6199837-3.1915779-6.541832-.0249481-4.8756371 1.1470718-8.8538589 2.6266403-8.968502 1.4908256-.1140689 2.9760666 3.7153206 3.3127899 8.6437607z" fill="#fff"/></g></g></g><g><g><g><g opacity=".1"><path d="m58.2180595 30.636879c-2.4019089-1.8289928-6.2898102.433712-5.3179512 3.1008301.5653381 1.4844055 1.0590515 3.0530357 1.455101 4.6940498.3976364 1.6489487.6760445 3.2893105.8292046 4.9004402.241993 2.9635925 5.6178131 3.2480659 6.8903732.2875977 2.037426-4.7120362.3662224-9.7632409-3.8567276-12.9829178z" fill="#fff"/></g><g opacity=".1"><path d="m58.6998749 33.4026985c-1.4482307-1.0921631-3.819149.2795448-3.1927795 1.8517723.3558617.8720474.6655388 1.793232.9171753 2.7558899.2518158.9653664.4325104 1.9258003.540123 2.8684883.1834679 1.724144 3.2478294 1.8446922 3.9722633.1327171 1.1994972-2.825386.1923751-5.7751922-2.2367821-7.6088676z" fill="#fff"/></g></g></g><g><g opacity=".1"><path d="m18.0689068 33.5816116c1.8603306-1.9678879 5.2863255-.413414 4.6203346 2.172802-.3888092 1.4329262-.7106628 2.9289207-.9432678 4.4756432-.2330151 1.5493011-.365963 3.0760155-.3948231 4.5633354-.0203896 2.7298965-4.4077034 3.3158493-5.5947208.7623444-1.9023524-4.0718957-.8220158-8.6542779 2.3124771-11.974125z" fill="#fff"/></g><g opacity=".1"><path d="m17.8449898 36.1248283c1.1139317-1.1533699 3.1641464-.1878014 2.7372608 1.318367-.2428589.8328781-.4440212 1.7032776-.5934219 2.6034584-.1496696.9008827-.2398109 1.7891312-.2712593 2.6539116-.0466022 1.5790939-2.5317116 1.9214401-3.2133522.4495125-1.0979291-2.3641243-.539115-5.0775795 1.3407726-7.0252495z" fill="#fff"/></g></g><g><g opacity=".1"><path d="m14.6841888 23.8076057c2.4130268-1.2589302 4.5862999 1.1259956 2.8326645 3.2630692-1.9570074 2.3182621-3.8947945 4.911232-5.4965706 7.48703-1.4103327 2.3011551-5.2638106 1.449337-4.9328442-1.0200691.5315257-4.1980324 3.8389264-7.793108 7.5967503-9.7300301z" fill="#fff"/></g><g opacity=".1"><path d="m13.347127 26.0145035c1.4477272-.7108097 2.7045259.7363529 1.6436996 1.9504185-1.1897488 1.3389359-2.3216124 2.8309822-3.2490177 4.3246174-.8226528 1.336338-3.0189114.884819-2.8453646-.5598793.2850838-2.4627038 2.1678353-4.6020985 4.4506827-5.7151566z" fill="#fff"/></g></g></g></g></g><path d="m32.58778 11.6762514c.1488457-.0779305.3219872-.1337614.42453-.2572527.225174-.2712345-.0235329-.6730413.1153679-.9866276.1322937-.2986012.5799141-.3978786.9241753-.2999907.3442268.0978765.6108398.3348923.8755913.5533838.2647171.218462.5637741.4350405.9225731.4736872.2677841.0288353.534359-.0457783.7919998-.116806.2575989-.0710411.5274162-.1401815.793438-.1003895.2659798.0397787.5249863.2228413.5372925.4620571.0062714.1226482-.0509338.2477903-.013649.366045.1013145.3214693.7184982.2464275.9036674.5369511.0857735.1345224.0419235.3132687-.0715942.4304867-.1134644.1171989-.2830582.1809807-.4533386.213171-.4377213.0827208-.9165802-.0295582-1.2511787-.2934017-.0517921-.0408211-.1196594-.0883865-.1823235-.0621967-.0325089.0135756-.0515099.0436029-.0674019.0721998-.0863647.1556644-.1428642.3243647-.1662941.4966669-.0089149.0655355-.0142288.1346684-.0546036.1901321-.0547142.07514-.1597862.1065559-.2584419.1248636-.6192551.1149492-1.3024521-.1097088-1.6879349-.5550585-.0856705-.0990028-.1733093-.21696-.3120689-.237421-.0907402-.0134163-.1832047.0205555-.2564774.0699158-.2822914.1900835-.3258209.5568781-.5638046.7898893-.303318.2970142-.6816101.0721855-.9339981-.0418854-.3776321-.1632767-.6253948-.5321512-.6234074-.9050245.0019874-.3728723.2460651-.7339811.6078815-.9233951z" fill="#8a4852"/></g></g><path d="m47.0548134 39.8428574c2.3102379 4.151268 1.4103127 9.5878944-2.2221909 12.9839287 2.1197434-4.1331368 2.8538208-8.4676171 2.2221909-12.9839287z" fill="#fff"/></g></svg>