<svg height="512" viewBox="0 0 128 128" width="512" xmlns="http://www.w3.org/2000/svg"><g><path d="m64.574 86.758h-36.523a26.3 26.3 0 0 1 -26.3-26.3 44.562 44.562 0 0 1 44.561-44.558 44.562 44.562 0 0 1 44.563 44.557 26.3 26.3 0 0 1 -26.301 26.301z" fill="#ec5569"/><path d="m28.051 76.758a16.319 16.319 0 0 1 -16.3-16.3 34.563 34.563 0 0 1 69.125 0 16.32 16.32 0 0 1 -16.3 16.3z" fill="#fff5f5"/><path d="m59 44.711a1.749 1.749 0 0 1 -1.578-.992c-3.06-6.363-8.03-4.865-8.589-4.675a1.75 1.75 0 0 1 -1.181-3.295c2.894-1.049 9.317-1.049 12.925 6.451a1.75 1.75 0 0 1 -1.577 2.511z" fill="#efe2dd"/><path d="m65.482 61.811a1.749 1.749 0 0 1 -1.74-1.584c-.363-3.836-5.115-3.777-5.656-3.751a1.78 1.78 0 0 1 -1.816-1.676 1.748 1.748 0 0 1 1.668-1.819c2.984-.128 8.744 1.148 9.289 6.919a1.751 1.751 0 0 1 -1.578 1.9c-.056.009-.112.011-.167.011z" fill="#efe2dd"/><path d="m86.655 41.524a44.378 44.378 0 0 1 4.22 18.933 26.3 26.3 0 0 1 -26.3 26.3h-27.426a26.3 26.3 0 0 0 26.277 25.347h36.523a26.3 26.3 0 0 0 26.3-26.3 44.564 44.564 0 0 0 -39.594-44.28z" fill="#b9dd39"/><path d="m114.422 76.418a1.749 1.749 0 0 1 -1.657-1.189 32.937 32.937 0 0 0 -12.965-16.812 1.75 1.75 0 0 1 1.929-2.92 36.439 36.439 0 0 1 14.349 18.609 1.749 1.749 0 0 1 -1.1 2.219 1.714 1.714 0 0 1 -.556.093z" fill="#90cc1c"/></g></svg>