<svg id="Layer_1" enable-background="new 0 0 3000 3000" height="512" viewBox="0 0 3000 3000" width="512" xmlns="http://www.w3.org/2000/svg"><g><path d="m1131.5 1245.5h1194v33h-1194z" fill="#f7a541" transform="matrix(.399 -.917 .917 .399 -117.978 2344.07)"/></g><g><path d="m2934.6 2546.8c-.1.2-.3.4-.4.5-68.8 84.6-338.4 48.8-1071.8 13-707.5-34.5-1061.3-51.8-1255.7-20.3-224.2 36.3-401.8 92-500.4 33.8-119.1-70.3-30.2-251.8 0-313.4 146.2-298.6 420.6-342.1 888.8-720.8 267.2-216.1 365-353.2 499.1-366.6 13.5-1.4 27.3-1.4 41.7-.3 101.2 8.4 194.9 96.9 378.1 273.4 118.6 114.3 151.9 160.9 234.2 247 277.6 290.5 469 357.5 694.1 647 120.2 154.7 106.8 188.5 92.3 206.7z" fill="#aabc4f"/></g><g opacity=".22"><path d="m2934.2 2547.3c-68.8 84.6-338.4 48.8-1071.8 13-707.5-34.5-1061.3-51.8-1255.7-20.3-224.2 36.3-401.8 92-500.4 33.8-119.1-70.3-30.2-251.8 0-313.4 146.2-298.6 420.6-342.1 888.8-720.8 267.2-216.1 365-353.2 499.1-366.6-15.7 23-277.5 404.5-477.3 519.9-206 119-608 412-586 575s1194 19 1455 163c244 134.7 956.2 119 1048.3 116.4z" fill="#50791d"/></g><g opacity=".22"><circle cx="1559" cy="2040" fill="#50791d" r="24"/></g><g opacity=".22"><circle cx="1590.5" cy="1492.5" fill="#50791d" r="31.5"/></g><g opacity=".22"><circle cx="2362.5" cy="2096.5" fill="#50791d" r="32.5"/></g><g opacity=".22"><circle cx="2222" cy="2278" fill="#50791d" r="22"/></g><g opacity=".22"><ellipse cx="2438" cy="2410" fill="#50791d" rx="43" ry="17"/></g><g opacity=".22"><circle cx="1293" cy="1836" fill="#50791d" r="26"/></g><g opacity=".22"><ellipse cx="760.5" cy="2167" fill="#50791d" rx="27.5" ry="7"/></g><g><path d="m1752 331h499v724h-499z" fill="#f7dead" transform="matrix(.9 .437 -.437 .9 503.159 -804.073)"/></g><g><g><path d="m1858.2 933s-310.5-242.5 284.8-452.6c-.1 0 47.3 528-284.8 452.6z" fill="#50791d"/></g><g><path d="m1869.5 906.5s-310.5-242.5 284.8-452.6c0 0 47.4 528-284.8 452.6z" fill="#aabc4f"/></g><g opacity=".44"><g><path d="m1882.1 877.1c-3.6-1.6-5.8-5.5-5-9.5.4-2.1 10.3-51.8 39.6-115 17.2-37.2 37.5-71.2 60.4-101.3 28.7-37.7 61.6-69.1 97.6-93.3 3.9-2.6 9.3-1.6 11.9 2.3s1.6 9.3-2.3 11.9c-34.5 23.1-65.9 53.2-93.4 89.3-22.1 29-41.8 61.9-58.4 97.9-28.5 61.5-38.4 111.1-38.5 111.6-.9 4.6-5.4 7.7-10.1 6.8-.7-.3-1.2-.4-1.8-.7z" fill="#50791f"/></g></g></g></svg>