<svg id="Icon_Set" height="512" viewBox="0 0 256 256" width="512" xmlns="http://www.w3.org/2000/svg"><g><g><g><g><path d="m248.096 182.418-26.035-80.982h7.28c3.66 0 6.627-2.967 6.627-6.627v-25.539c0-3.66-2.967-6.627-6.627-6.627h-162.608c-3.66 0-6.627 2.967-6.627 6.627v25.539c0 3.66 2.967 6.627 6.627 6.627h7.28l-26.035 80.982c-3.056 9.506 4.034 19.233 14.02 19.233h172.079c9.985.001 17.076-9.727 14.019-19.233z" fill="#f9d335"/><path d="m122.964 30.39-39.89 32.253h129.928l-39.892-32.253c-14.624-11.824-35.521-11.824-50.146 0z" fill="#ffe2e2"/><path d="m74.352 201.649h-12.35c-9.988 0-17.077-9.724-14.022-19.234l26.035-80.98h-7.279c-3.664 0-6.628-2.964-6.628-6.628v-25.534c0-3.664 2.964-6.628 6.628-6.628h12.351c-3.664 0-6.628 2.964-6.628 6.628v25.533c0 3.664 2.964 6.628 6.628 6.628h7.279l-26.035 80.98c-3.056 9.511 4.034 19.235 14.021 19.235z" fill="#f9e27d"/><path d="m154.213 22.011c-6.744 1.046-13.281 3.845-18.897 8.382l-39.893 32.252h-12.351l39.893-32.252c9.008-7.287 20.404-10.087 31.248-8.382z" fill="#ffefee"/><path d="m234.073 201.649h-12.351c9.988 0 17.077-9.724 14.022-19.234l-26.035-80.98h7.279c3.664 0 6.628-2.964 6.628-6.628v-25.534c0-3.664-2.964-6.628-6.628-6.628h12.351c3.664 0 6.628 2.964 6.628 6.628v25.533c0 3.664-2.964 6.628-6.628 6.628h-7.279l26.035 80.98c3.055 9.511-4.034 19.235-14.022 19.235z" fill="#f2c300"/><path d="m213.003 62.645h-12.351l-39.893-32.252c-5.615-4.537-12.153-7.336-18.897-8.382 10.844-1.704 22.24 1.095 31.247 8.382z" fill="#ffcfcf"/></g></g><g><path d="m113.356 234.477h-77.72c-15.709 0-28.443-12.734-28.443-28.443 0-15.709 12.734-28.443 28.443-28.443h77.72c15.709 0 28.443 12.734 28.443 28.443-.001 15.708-12.735 28.443-28.443 28.443z" fill="#b76c6c"/><path d="m54.716 234.478h-19.078c-15.708 0-28.452-12.731-28.452-28.439 0-7.86 3.18-14.97 8.331-20.121 5.151-5.138 12.274-8.331 20.121-8.331h19.078c-7.847 0-14.97 3.192-20.121 8.331-5.151 5.151-8.331 12.261-8.331 20.121 0 15.707 12.744 28.439 28.452 28.439z" fill="#c98585"/><path d="m141.8 206.039c0 7.86-3.18 14.957-8.331 20.108s-12.248 8.331-20.108 8.331h-19.077c7.86 0 14.957-3.18 20.108-8.331s8.331-12.248 8.331-20.108c0-15.708-12.731-28.452-28.439-28.452h19.078c15.707 0 28.438 12.744 28.438 28.452z" fill="#965959"/></g></g><g fill="#5f266d"><path d="m182.813 171.375h-9.666c-2.209 0-4 1.791-4 4s1.791 4 4 4h9.666c2.209 0 4-1.791 4-4s-1.791-4-4-4z"/><path d="m217.813 171.375h-20c-2.209 0-4 1.791-4 4s1.791 4 4 4h20c2.209 0 4-1.791 4-4s-1.791-4-4-4z"/><path d="m251.9 181.19-24.35-75.754h1.792c5.859 0 10.627-4.768 10.627-10.627v-25.539c0-5.86-4.768-10.627-10.627-10.627h-14.927l-38.79-31.362c-15.983-12.924-39.189-12.925-55.175 0l-38.791 31.362h-14.926c-5.859 0-10.627 4.768-10.627 10.627v25.539c0 5.86 4.768 10.627 10.627 10.627h1.796l-21.919 68.154h-10.98c-17.88 0-32.44 14.56-32.44 32.44 0 17.89 14.56 32.45 32.44 32.45h77.73c17.329 0 32.44-13.855 32.44-32.83h88.28c12.762 0 21.722-12.439 17.82-24.46zm-126.421-147.689c13.073-10.569 32.045-10.567 45.116 0l31.096 25.142h-107.308zm-58.746 63.935c-1.448 0-2.627-1.179-2.627-2.627v-25.539c0-1.449 1.179-2.627 2.627-2.627h162.608c1.448 0 2.627 1.179 2.627 2.627v25.539c0 1.449-1.179 2.627-2.627 2.627zm46.627 133.044h-77.73c-13.47 0-24.44-10.97-24.44-24.45 0-13.47 10.97-24.44 24.44-24.44h5.707l-10.732 22.736c-.943 1.998-.088 4.382 1.91 5.325 1.994.942 4.38.091 5.324-1.91 12.761-27.034 12.087-25.478 12.248-26.151h25.536l-10.732 22.736c-.943 1.998-.088 4.382 1.91 5.325 1.994.942 4.38.091 5.324-1.91 12.761-27.034 12.087-25.478 12.248-26.151h25.537l-10.733 22.736c-.943 1.998-.088 4.382 1.909 5.325 2.002.944 4.383.085 5.325-1.91.267-.565 11.824-25.017 12.057-25.597 11.171 2.389 19.332 12.311 19.332 23.886 0 13.48-10.97 24.45-24.44 24.45zm120.72-32.83h-89.38c-3.7-13.83-16.35-24.06-31.34-24.06h-58.34l21.91-68.15h142.22l25.14 78.2c2.224 6.926-2.931 14.01-10.21 14.01z"/></g></g></svg>