<?xml version="1.0" encoding="UTF-8" standalone="no"?>
<!-- Created with Inkscape (http://www.inkscape.org/) -->

<svg
   version="1.1"
   id="svg5895"
   xml:space="preserve"
   width="682.66669"
   height="682.66669"
   viewBox="0 0 682.66669 682.66669"
   xmlns="http://www.w3.org/2000/svg"
   xmlns:svg="http://www.w3.org/2000/svg"><defs
     id="defs5899"><clipPath
       clipPathUnits="userSpaceOnUse"
       id="clipPath5909"><path
         d="M 0,512 H 512 V 0 H 0 Z"
         id="path5907" /></clipPath></defs><g
     id="g5901"
     transform="matrix(1.3333333,0,0,-1.3333333,0,682.66667)"><g
       id="g5903"><g
         id="g5905"
         clip-path="url(#clipPath5909)"><g
           id="g5911"
           transform="translate(504.5,327.0479)"><path
             d="m 0,0 c 0,-88.365 -111.257,-160 -248.5,-160 -137.243,0 -248.5,71.635 -248.5,160 0,88.365 111.257,160 248.5,160 C -111.257,160 0,88.365 0,0"
             style="fill:#707789;fill-opacity:1;fill-rule:nonzero;stroke:none"
             id="path5913" /></g><g
           id="g5915"
           transform="translate(138.3594,468.0117)"><path
             d="m 0,0 c -77.903,-27.009 -130.859,-80.003 -130.859,-140.964 0,-88.365 111.256,-160 248.5,-160 24.918,0 48.971,2.372 71.666,6.766 V -176.56 C 10.328,-154.971 0.007,-0.101 0,0"
             style="fill:#636978;fill-opacity:1;fill-rule:nonzero;stroke:none"
             id="path5917" /></g><g
           id="g5919"
           transform="translate(439.335,285.0908)"><path
             d="m 0,0 c 0,-65.193 -82.082,-118.043 -183.335,-118.043 -101.253,0 -183.335,52.85 -183.335,118.043 0,65.192 82.082,118.042 183.335,118.042 C -82.082,118.042 0,65.192 0,0"
             style="fill:#f2b88f;fill-opacity:1;fill-rule:nonzero;stroke:none"
             id="path5921" /></g><g
           id="g5923"
           transform="translate(165.8398,387.8877)"><path
             d="m 0,0 c -55.626,-20.269 -93.175,-58.707 -93.175,-102.798 0,-65.192 82.082,-118.042 183.335,-118.042 25.431,0 49.651,3.336 71.666,9.361 V -96.436 C 72.267,-85.633 24.938,-41.457 0,0"
             style="fill:#e3a57b;fill-opacity:1;fill-rule:nonzero;stroke:none"
             id="path5925" /></g><g
           id="g5927"
           transform="translate(460.6514,195.0762)"><path
             d="m 0,0 v 0.001 c 6.608,6.653 10.317,15.65 10.317,25.028 v 2.56 c 0,27.533 -29.775,44.119 -53.646,30.398 -4.923,-2.829 -10.724,-4.605 -18.004,-4.605 -35.826,0 -35.826,42.994 -71.652,42.994 -35.828,0 -35.828,-42.994 -71.656,-42.994 -35.827,0 -35.827,42.994 -71.653,42.994 -35.832,0 -35.832,-42.994 -71.663,-42.994 -7.277,0 -13.076,1.773 -17.998,4.599 C -389.84,71.697 -419.62,55.1 -419.62,27.557 v -2.528 c 0,-9.378 3.709,-18.375 10.317,-25.028 V 0 C -296.504,-113.571 -112.799,-113.571 0,0"
             style="fill:#fcf7ca;fill-opacity:1;fill-rule:nonzero;stroke:none"
             id="path5929" /></g><g
           id="g5931"
           transform="translate(184.3574,291.4521)"><path
             d="m 0,0 c -35.832,0 -35.832,-42.994 -71.663,-42.994 -7.277,0 -13.076,1.773 -17.997,4.599 -23.886,13.716 -53.666,-2.881 -53.666,-30.424 v -2.528 c 0,-9.378 3.709,-18.375 10.317,-25.029 56.4,-56.786 130.526,-85.179 204.652,-85.179 v 59.072 C -14.634,-95.712 0,0 0,0"
             style="fill:#ffe89c;fill-opacity:1;fill-rule:nonzero;stroke:none"
             id="path5933" /></g><g
           id="g5935"
           transform="translate(488.6953,141.0059)"><path
             d="m 0,0 c 15.477,-3.719 21.096,-22.879 10.001,-34.292 -31.079,-31.971 -102.058,-81.762 -242.696,-81.762 -140.639,0 -211.617,49.791 -242.697,81.762 -11.094,11.413 -5.475,30.573 10.001,34.292 44.162,10.611 131.798,27.963 232.696,27.963 C -131.798,27.963 -44.162,10.611 0,0"
             style="fill:#707789;fill-opacity:1;fill-rule:nonzero;stroke:none"
             id="path5937" /></g><g
           id="g5939"
           transform="translate(439.335,63.5996)"><path
             d="m 0,0 c -200.133,0 -340.017,92.493 -340.018,92.493 -31.466,-5.033 -57.544,-10.649 -76.012,-15.087 -15.477,-3.718 -21.096,-22.879 -10,-34.292 31.078,-31.97 102.056,-81.761 242.695,-81.761 C -99.646,-38.647 -40.627,-21.016 0,0"
             style="fill:#636978;fill-opacity:1;fill-rule:nonzero;stroke:none"
             id="path5941" /></g><g
           id="g5943"
           transform="translate(193.5518,221.3672)"><path
             d="M 0,0 V -12"
             style="fill:none;stroke:#000000;stroke-width:15;stroke-linecap:round;stroke-linejoin:round;stroke-miterlimit:10;stroke-dasharray:none;stroke-opacity:1"
             id="path5945" /></g><g
           id="g5947"
           transform="translate(318.4482,221.3672)"><path
             d="M 0,0 V -12"
             style="fill:none;stroke:#000000;stroke-width:15;stroke-linecap:round;stroke-linejoin:round;stroke-miterlimit:10;stroke-dasharray:none;stroke-opacity:1"
             id="path5949" /></g><g
           id="g5951"
           transform="translate(239.5361,209.7246)"><path
             d="m 0,0 c 4.003,-4.594 9.892,-7.501 16.464,-7.501 6.572,0 12.461,2.907 16.464,7.501"
             style="fill:none;stroke:#000000;stroke-width:15;stroke-linecap:round;stroke-linejoin:round;stroke-miterlimit:10;stroke-dasharray:none;stroke-opacity:1"
             id="path5953" /></g><g
           id="g5955"
           transform="translate(45.9014,241.5654)"><path
             d="m 0,0 c -24.321,24.729 -38.401,54.047 -38.401,85.482 0,88.366 111.256,160 248.5,160 137.243,0 248.5,-71.634 248.5,-160 0,-31.426 -14.073,-60.737 -38.38,-85.461"
             style="fill:none;stroke:#000000;stroke-width:15;stroke-linecap:round;stroke-linejoin:round;stroke-miterlimit:10;stroke-dasharray:none;stroke-opacity:1"
             id="path5957" /></g><g
           id="g5959"
           transform="translate(129.0088,370.2285)"><path
             d="m 0,0 c 32.947,20.379 77.697,32.904 126.991,32.904 101.253,0 183.335,-52.849 183.335,-118.042 0,-8.964 -1.552,-17.693 -4.491,-26.085"
             style="fill:none;stroke:#000000;stroke-width:15;stroke-linecap:round;stroke-linejoin:round;stroke-miterlimit:10;stroke-dasharray:none;stroke-opacity:1"
             id="path5961" /></g><g
           id="g5963"
           transform="translate(77.3164,258.5527)"><path
             d="m 0,0 c -3.043,8.53 -4.651,17.413 -4.651,26.538 0,24.334 11.436,46.948 31.036,65.736"
             style="fill:none;stroke:#000000;stroke-width:15;stroke-linecap:round;stroke-linejoin:round;stroke-miterlimit:10;stroke-dasharray:none;stroke-opacity:1"
             id="path5965" /></g><g
           id="g5967"
           transform="translate(412.79,156.1602)"><path
             d="m 0,0 c 16.965,11.008 33.026,23.979 47.861,38.916 v 0.001 c 6.609,6.653 10.318,15.65 10.318,25.028 v 2.56 c 0,27.533 -29.776,44.119 -53.647,30.398 -4.923,-2.829 -10.723,-4.605 -18.004,-4.605 -35.826,0 -35.826,42.994 -71.652,42.994 -35.828,0 -35.828,-42.994 -71.655,-42.994 -35.827,0 -35.827,42.994 -71.654,42.994 -35.832,0 -35.832,-42.994 -71.663,-42.994 -7.277,0 -13.076,1.773 -17.998,4.599 -23.885,13.716 -53.665,-2.881 -53.665,-30.424 v -2.528 c 0,-9.378 3.709,-18.375 10.318,-25.028 v -0.001 c 14.698,-14.799 30.601,-27.67 47.394,-38.612"
             style="fill:none;stroke:#000000;stroke-width:15;stroke-linecap:round;stroke-linejoin:round;stroke-miterlimit:10;stroke-dasharray:none;stroke-opacity:1"
             id="path5969" /></g><g
           id="g5971"
           transform="translate(488.6953,141.0059)"><path
             d="m 0,0 c 15.477,-3.719 21.096,-22.879 10.001,-34.292 -31.079,-31.971 -102.058,-81.762 -242.696,-81.762 -140.639,0 -211.617,49.791 -242.697,81.762 -11.094,11.413 -5.475,30.573 10.001,34.292 44.162,10.611 131.798,27.963 232.696,27.963 C -131.798,27.963 -44.162,10.611 0,0 Z"
             style="fill:none;stroke:#000000;stroke-width:15;stroke-linecap:round;stroke-linejoin:round;stroke-miterlimit:10;stroke-dasharray:none;stroke-opacity:1"
             id="path5973" /></g><g
           id="g5975"
           transform="translate(430.9824,151.1924)"><path
             d="m 0,0 c -15.687,-38.518 -63.637,-126.24 -174.982,-126.24 -112.107,0 -159.948,88.925 -175.3,127.022"
             style="fill:none;stroke:#000000;stroke-width:15;stroke-linecap:round;stroke-linejoin:round;stroke-miterlimit:10;stroke-dasharray:none;stroke-opacity:1"
             id="path5977" /></g><g
           id="g5979"
           transform="translate(311.3926,100.5068)"><path
             d="m 0,0 c -10.258,-37.146 -27.588,-75.555 -55.393,-75.555 -48.36,0 -65.032,116.186 -67.925,139.843"
             style="fill:none;stroke:#000000;stroke-width:15;stroke-linecap:round;stroke-linejoin:round;stroke-miterlimit:10;stroke-dasharray:none;stroke-opacity:1"
             id="path5981" /></g><g
           id="g5983"
           transform="translate(324.0107,165.502)"><path
             d="M 0,0 C -0.726,-6.038 -2.502,-19.399 -5.715,-35.596"
             style="fill:none;stroke:#000000;stroke-width:15;stroke-linecap:round;stroke-linejoin:round;stroke-miterlimit:10;stroke-dasharray:none;stroke-opacity:1"
             id="path5985" /></g></g></g></g></svg>
