<svg id="Layer_1" height="512" viewBox="0 0 512 512" width="512" xmlns="http://www.w3.org/2000/svg" data-name="Layer 1"><path d="m94.648 343.633c1.279 9.311-12.837 11.472-14.246 2.086-3.537-20.26-16.385-28.191-43.6-34.895-9.138-2.086-6.045-16.116 3.165-14.029 21.74 3.905 51.79 18.18 54.681 46.838z" fill="#663014"/><path d="m130.838 486.235c-60.324.027-96.088-34.459-93.1-93.965l.143-.072 114.758-37.341.072.072c39.989 47.56 38.665 97.926-21.873 131.306z" fill="#fdb62f"/><path d="m276.845 293.16c-34.154 50.976-106.748 34.666-138.454-10.54-21.482-26.8-23.279-64.382-4.395-92.166 10.367-15.254 30.474-17.423 44.419-7.4 7.111 4.28 12.694 16.484 16.877 23.59l7.794 13.714c7.371 14.592 23.53 16.9 37.919 19.151l14.218 2.621c23.243 4.245 34.813 31.622 21.622 51.03z" fill="#77a226"/><path d="m274.231 296.651c-34.967 46.694-104.829 30.074-135.839-14.03-23.848-29.078-25.18-80.659 7.411-102.455-16.117 27.269-13.527 62.6 6.979 88.065 27.124 38.637 84.18 56.192 121.449 28.42z" fill="#658920"/><path d="m237.56 246.667c-26.611 34.749-74.012-11.386-42.267-40.02 6.757 12.732 14.681 28.029 30.513 30.048l15.2 2.818a27.117 27.117 0 0 1 -3.446 7.154z" fill="#5e801e"/><path d="m240.991 239.524a26.077 26.077 0 0 1 -3.454 7.123c-14.965 19.57-36.55 13.526-46.767-.648 11.347 8.934 29.966 8.562 40.651-8.274z" fill="#4c6718"/><path d="m130.046 154.553a51.523 51.523 0 0 1 -4.533 3.237 59.673 59.673 0 0 1 -12.662 6.548.223.223 0 0 1 -.144.072c-76.5 25.7-108.987-77.741-70.87-128.068a18.792 18.792 0 0 1 3.022-3.31v-.072a26.525 26.525 0 0 1 5.828-4.317c29.021-10.811 74.218 12.862 92.6 46.333 16.546 31.947 8.775 62.093-13.241 79.577z" fill="#8c421c"/><path d="m141.774 142.178c-8.863 12.407-20.7 19.9-34.895 23.959-73.191 18.887-103.01-83.402-63.531-131.666a35.432 35.432 0 0 1 4.1-3.741 7.73 7.73 0 0 1 1.583-1.08c.072-.072.216-.144.288-.215a2.918 2.918 0 0 0 .648-.36 3.807 3.807 0 0 1 .719-.432v.144c-4.13 17.635-16.955 110.179 27.99 124.038 14.924 6.075 45.286 2.32 63.098-10.647z" fill="#733617"/><path d="m67.163 76.273a7.208 7.208 0 0 0 12.807-6.619c-3.129-6.019-8.411-16.189-13.332-25.667 12.9 7.059 25.463 16.658 33.19 29.624a7.22 7.22 0 1 0 12.519-7.2c-12.3-21.224-36.262-34.535-49.717-40.579-8.542.376-15.86 3.52-20.793 10.505-2.374 14.389-4.82 42.233 6.4 64.609a7.175 7.175 0 1 0 12.806-6.475c-6.472-13.512-7.575-28.6-6.523-42.692z" fill="#663014"/><path d="m124.29 105.268a7.275 7.275 0 0 0 -4.533 9.138c3 9.515 1.5 20.145-1.372 29.624-4.077-7.871-8.514-16.443-11.074-21.422a7.192 7.192 0 0 0 -12.811 6.547c2.56 4.941 6.988 13.522 11.057 21.406-9.525-3.179-19.037-8.16-24.871-16.01a7.229 7.229 0 0 0 -10.073-1.511c-13.526 14.966 30.046 31.83 36.262 33.1a61.438 61.438 0 0 0 23.167-11.584c3.247-5.806 13.765-52.79-5.752-49.288z" fill="#663014"/><path d="m46.37 96.778c-9.065-21.512-6.763-46.91-4.533-60.436 1.938-2.49 5.817-6.687 8.85-7.555-.072 1.799-7.411 35.687-4.317 67.991z" fill="#4c240f"/><path d="m132.42 147.574a42.035 42.035 0 0 1 -2.3 6.835c0 .072-.072.072-.072.144-.935.719-1.871 1.439-2.806 2.086a50.09 50.09 0 0 1 -4.676 3.022 6.573 6.573 0 0 1 -.936.576 69.563 69.563 0 0 1 -14.749 5.9c-4.389-.864-18.275-6.332-28.2-13.311 12.801 4.82 35.105 3.813 53.739-5.252z" fill="#4c240f"/><path d="m444.82 323.775c-7.123 26.261 12.735 43.385-5.18 91.375-20.973 55.032-62.866 79.87-109 68.206-52.425-14.934-94.208-60.989-71.085-122.6 21.873-58.35 59.285-66.049 67.416-83.389 8.13-17.411 1.439-33.815 19.57-72.091 16.476-34.968 55.975-54.9 86.41-48.566 39.16 9.511 62.348 56.246 49.789 99.936-12.81 41.372-30.797 40.868-37.92 67.129z" fill="#e8a864"/><path d="m435.035 157.287c-1.367.288-2.806.647-4.173 1.079-22.448 6.332-44.32 23.167-55.544 46.911-18.131 38.276-11.44 54.68-19.57 72.091-8.13 17.34-45.543 25.039-67.416 83.389-19.713 52.594 7.843 93.748 48.853 114.11h.073a140.205 140.205 0 0 0 22.159 8.489 70.17 70.17 0 0 0 7.555 1.512 80.408 80.408 0 0 1 -20.433 1.079 7.91 7.91 0 0 1 -1.295-.144h-.144a85.632 85.632 0 0 1 -14.462-2.447 126.343 126.343 0 0 1 -36.406-16.835c-33.132-22.295-51.878-59.521-34.679-105.764 21.873-58.35 59.285-66.049 67.416-83.389 8.13-17.411 1.439-33.815 19.57-72.091 16.938-35.556 57.261-55.944 88.496-47.99z" fill="#e49949"/><g fill="#e08a2e"><path d="m330.638 483.357a6.517 6.517 0 0 1 1.871-3.526c3.237-3.381 6.475-6.763 9.5-10.288a7.25 7.25 0 0 1 10.145-.648c6.573 6.086-1.44 12.523-5.684 17.124z"/><path d="m384.815 419.682a7.267 7.267 0 0 0 -9.785 2.878 232.235 232.235 0 0 1 -15.109 24.391 7.2 7.2 0 1 0 11.728 8.346 255.84 255.84 0 0 0 16.044-25.83 7.284 7.284 0 0 0 -2.878-9.785zm20.074-55.472a7.21 7.21 0 0 0 -8.778 5.109 232.181 232.181 0 0 1 -8.922 27.268 7.2 7.2 0 0 0 13.383 5.324 246.9 246.9 0 0 0 9.428-28.923 7.21 7.21 0 0 0 -5.111-8.778zm6.547-58.638a7.23 7.23 0 0 0 -7.411 6.979 250.386 250.386 0 0 1 -2.3 28.636 7.122 7.122 0 0 0 6.116 8.13 7.207 7.207 0 0 0 8.13-6.116 263.227 263.227 0 0 0 2.446-30.29 7.111 7.111 0 0 0 -6.981-7.339zm28.276-52.018a7.222 7.222 0 0 0 -9.354 4.1 207.975 207.975 0 0 1 -12.231 25.757 7.184 7.184 0 0 0 12.519 7.051 227.726 227.726 0 0 0 13.167-27.556 7.256 7.256 0 0 0 -4.101-9.352zm8.633-57.847a7.469 7.469 0 0 0 -7.2 7.483 142.035 142.035 0 0 1 -2.733 27.34 7.189 7.189 0 1 0 14.1 2.806 154.98 154.98 0 0 0 3.022-30.722 6.888 6.888 0 0 0 -7.189-6.907z"/><path d="m446.691 180.166c-5.4 1.187-8.854-3.6-9.21-8.49-.863.648-1.583 1.367-2.374 2.015a7.266 7.266 0 0 1 -10.217-.648c-5.662-6.963 3.219-12.308 8.059-16.332a49.664 49.664 0 0 1 17.267 6.907c1.684 5.749 4.584 14.61-3.525 16.548z"/><path d="m305.384 388.025a7.209 7.209 0 0 0 -8.777 5.108 244.391 244.391 0 0 0 -5.9 29.571 7.16 7.16 0 0 0 6.115 8.13 7.25 7.25 0 0 0 8.13-6.187 228.384 228.384 0 0 1 5.541-27.773 7.2 7.2 0 0 0 -5.109-8.849zm24.319-53.17a7.184 7.184 0 0 0 -9.857 2.591 220.266 220.266 0 0 0 -13.455 27.054 7.176 7.176 0 1 0 13.239 5.54 207.736 207.736 0 0 1 12.663-25.326 7.2 7.2 0 0 0 -2.593-9.859zm32.017-47.917a7.213 7.213 0 0 0 -8.562 5.54l-.216 1.079c-4.859 7.1-24.435 20.983-14.822 29a7.176 7.176 0 0 0 10.073-1.3c5.037-6.547 10.649-13.022 16.548-19.282 3.744-4.565 4.074-13.414-3.021-15.037zm19.713-55.113a7.216 7.216 0 0 0 -9.568 3.526 256.617 256.617 0 0 0 -10.937 28.131c-2.855 8.923 10.773 13.455 13.67 4.389a247.036 247.036 0 0 1 10.361-26.477 7.263 7.263 0 0 0 -3.526-9.569zm33.025-48.2a7.183 7.183 0 0 0 -10.145.791 215.934 215.934 0 0 0 -18.059 24.384 7.277 7.277 0 0 0 2.231 9.929 7.119 7.119 0 0 0 9.929-2.231 201.816 201.816 0 0 1 16.835-22.735 7.321 7.321 0 0 0 -.791-10.143z"/><path d="m302.866 467.24a6.922 6.922 0 0 1 -1.079 4.029 116.968 116.968 0 0 1 -13.383-8.921c-.02-6.313-1.726-16.143 7.339-16.476 10.649.986 5.964 14.079 7.123 21.368z"/></g><path d="m351.431 480.766c-1.583 1.871-3.453 3.6-4.892 5.181l-.072.072-1.223-.216h-.144l-14.462-2.447a6.514 6.514 0 0 1 1.871-3.525c1.583-1.655 3.165-3.31 4.676-4.964h.073a122.4 122.4 0 0 0 14.173 5.899z" fill="#d07b1f"/><path d="m435.035 157.287c-1.367.288-2.806.647-4.173 1.079.72-.576 1.439-1.151 2.087-1.655a17.637 17.637 0 0 1 2.086.576z" fill="#d07b1f"/><path d="m302.866 467.24a6.922 6.922 0 0 1 -1.079 4.029 116.968 116.968 0 0 1 -13.383-8.921c-.02-6.313-1.726-16.143 7.339-16.476 10.649.986 5.964 14.079 7.123 21.368z" fill="#d07b1f"/><path d="m349.046 36.968c40.21 44.976 13.126 113.612-38.89 134.841-30.014 14.483-66.206 6.652-88.75-19.215-12.377-14.2-10.255-34.73 2.2-46.018 6.065-6.511 43.18-15.542 40.69-14.963 19.605-4.561 31.9-46.942 31.612-46.221 8.892-22.004 37.392-26.492 53.138-8.424z" fill="#e8a864"/><path d="m347.546 143.689a93.759 93.759 0 0 1 -37.413 28.131c-30 14.462-66.193 6.62-88.713-19.21-12.374-14.246-10.288-34.751 2.159-46.047 1.223-1.3 3.741-2.734 6.979-4.173a33.186 33.186 0 0 0 5.252 35.831c22.52 25.829 58.71 33.671 88.713 19.21a89.627 89.627 0 0 0 23.023-13.742z" fill="#e49949"/><path d="m341.067 117.222a7.211 7.211 0 0 1 -7.04-8.7c3.513-16.413 1.216-29.974-7.033-41.448-5.451-7.645 6.157-16.029 11.692-8.4 10.6 14.751 13.764 32.534 9.408 52.857a7.194 7.194 0 0 1 -7.027 5.691z" fill="#ecbe8e"/><path d="m121.724 469.6c-33.487-5.782-56.439-22.681-65.431-54.495-1.94-6.718 8.726-10.477 11.564-4.043 8.716 17.452 23.128 25.213 40.349 31.335a14.4 14.4 0 0 0 17.04-6.042c10.014-16.364 17.643-33.154 13.578-54.009a49.491 49.491 0 0 0 22.735-15.469c-2.662-3.957-5.611-7.914-8.849-11.943-6.907 9.713-17.052 16.044-33.6 15.972 11.512 19.282 6.4 38.708-6.116 58.063-20.361-6.4-35.614-18.347-37.557-44.9-7.041 7.041-14.687 10.137-22.825 10.388-.2-2.25-.393-4.5-.486-6.863l-14.2 4.617c-.014 0-.028-.008-.043-.012l-.143.072c-1.708 62.157 30.947 92.143 93.1 93.965 15.109-8.85 26.692-18.347 34.9-28.564a54.405 54.405 0 0 1 -44.016 11.928z" fill="#fdab11"/><path d="m94.648 343.633a7.274 7.274 0 0 1 -7.123 8.274c-8.242.053-6.974-10.13-9.569-15.325a100.524 100.524 0 0 1 13.744-4.173 47.484 47.484 0 0 1 2.948 11.224z" fill="#4c240f"/><path d="m160.48 339.388c-7.553 20.574-19.2 31.61-41.37 31.513 11.512 19.282 6.4 38.708-6.116 58.063-20.361-6.4-35.614-18.347-37.557-44.9-14.366 14.366-31.259 12.3-49.572 3.31 35.873-42.265 83.117-54.012 134.615-47.986z" fill="#8c421c"/><path d="m120.315 415.563a84.785 84.785 0 0 1 -7.321 13.4c-20.361-6.4-35.614-18.347-37.557-44.9-14.389 14.39-31.225 12.3-49.572 3.31a146.807 146.807 0 0 1 11.943-12.232c16.549 7.051 31.658 7.7 44.824-5.468 1.943 26.195 17.681 39.415 37.683 45.89z" fill="#733617"/><path d="m256.507 235.07-29.454-5.445a25.492 25.492 0 0 1 -17.734-12.809c-6.33-9.749-16.364-33.453-26.72-39.585-16.978-12.661-42.938-8.786-54.573 9.183-22.042 32.093-17.684 76.575 8.741 105.737 24.329 29.664 66.645 48.454 104.3 36.319 27.859-8.983 58.632-37.585 45.291-69.16a40.2 40.2 0 0 0 -29.851-24.24zm-62.28-15.7c6.925 14.773 19.647 23.8 35.686 25.414-17.113 18.71-46.233-3.718-35.686-25.411zm76.648 69.749c-31.3 46.9-98.2 30.291-126.893-10.99-19.4-24.2-21.071-58.6-4.054-83.631a23.343 23.343 0 0 1 15.3-9.992 25.578 25.578 0 0 1 26.51 12.858l4.585 8.076c-30.856 38.559 26.949 85.866 57.175 45.281a.007.007 0 0 1 .007-.007 34.079 34.079 0 0 0 1.777-3.091l8.629 1.595c17.548 2.595 27.414 25.513 16.964 39.904z"/><path d="m90.576 175.979a69.338 69.338 0 0 0 32.35-8.307l.083-.047c35.351-18.553 46.335-57.923 26.685-95.942-20.668-39.964-76.761-62.374-102.182-49.465-.016.008-.033.012-.049.02a1.8 1.8 0 0 0 -.391.221c-.071.04-.133.088-.2.131-49.195 33.479-34.281 152.155 43.704 153.389zm-50.614-122.421c-.753 8.083.844 57.122 17.878 50.6a7.2 7.2 0 0 0 3.219-9.658c-6.679-13.358-7.414-29.786-6.551-42.671l12.622 24.414a7.2 7.2 0 0 0 12.787-6.6l-13.263-25.657c11.446 6.344 25.421 16.214 33.183 29.643a7.189 7.189 0 0 0 6.239 3.6c23.667-5.568-18.96-38.462-26.219-42.169 43.236 9.348 86.282 65.072 54.205 105.532 1.65-8.113 5.553-38.521-9.767-35.3a7.19 7.19 0 0 0 -4.546 9.1c3.178 9.541 1.239 20.883-1.371 29.642l-11.087-21.45a7.2 7.2 0 0 0 -12.791 6.601l11.082 21.441c-8.648-2.941-19.008-7.924-24.945-16.038a7.182 7.182 0 0 0 -10.055-1.553c-11.331 10.974 15.43 24.853 23.186 28.418-53.289 2.504-72.599-67.17-53.806-107.895z"/><path d="m444.127 152.526c-.151-.061-.312-.093-.463-.153a.29.29 0 0 0 -.145-.047c-35.447-13.812-84.648 9.812-103.541 49.882-11.312 23.988-13.343 39.7-14.98 52.324-1.642 16.478-4.112 23.533-19.217 33.936-37.154 23.793-82.1 97.657-47.516 151.065 24.263 41.069 89.228 70.076 135.218 43.554 42.488-20.417 70.044-89.836 58.652-130.807-1.593-9.85-2.857-17.628-.419-26.614 2.8-10.308 7.469-15.8 13.385-22.744 7.6-8.916 17.045-20.018 24.486-44.111 14.235-46.12-12.528-93.027-45.46-106.285zm31.717 102.042c-10.427 36.991-27.844 35.467-38.013 67.332-6.871 35.4 11.869 48.155-4.975 90.765-14.878 38.834-41.2 65.394-80 66.312a7.179 7.179 0 0 0 -.7-10.046c-7.092-5.882-12.443 3.641-17.036 8.059-11.28-2.445-22.706-7.737-32.3-13.58-.42-6.375 2.12-17.055-7.116-17.532a7.2 7.2 0 0 0 -7.327 7.016c-56.408-45.82-16.112-125.223 26.243-153.062 16.95-11.087 23.38-24.782 24.647-43.453 3.278-44.054 33.76-95.755 86.323-93.5l-.019.015c-7.966 8.571 5.018 17.808 11.861 8.768.155 9.619 12.838 12.257 14.772 2.323 20.218 16.386 33.505 48.615 23.64 80.583z"/><path d="m404.865 364.225a7.251 7.251 0 0 0 -8.783 5.144 238.848 238.848 0 0 1 -8.909 27.247 7.194 7.194 0 1 0 13.378 5.3 252.973 252.973 0 0 0 9.457-28.906 7.2 7.2 0 0 0 -5.143-8.785z"/><path d="m384.777 419.711a7.191 7.191 0 0 0 -9.752 2.895 246.832 246.832 0 0 1 -15.156 24.374 7.2 7.2 0 1 0 11.762 8.291 260.341 260.341 0 0 0 16.041-25.807 7.193 7.193 0 0 0 -2.895-9.753z"/><path d="m411.413 305.571a7.209 7.209 0 0 0 -7.384 7 258.542 258.542 0 0 1 -2.347 28.646 7.193 7.193 0 1 0 14.249 1.981 273.643 273.643 0 0 0 2.488-30.248 7.2 7.2 0 0 0 -7.006-7.379z"/><path d="m439.694 253.577a7.185 7.185 0 0 0 -9.324 4.082 206.458 206.458 0 0 1 -12.282 25.765c-2.759 4.611.945 10.848 6.268 10.715a7.192 7.192 0 0 0 6.281-3.675 221.028 221.028 0 0 0 13.139-27.564 7.2 7.2 0 0 0 -4.082-9.323z"/><path d="m448.364 195.7a7.451 7.451 0 0 0 -7.195 7.483 140.323 140.323 0 0 1 -2.761 27.374 7.195 7.195 0 0 0 14.109 2.825 156.4 156.4 0 0 0 3.042-30.782 6.949 6.949 0 0 0 -7.195-6.9z"/><path d="m366.6 298.488c4.509-11.755-11.245-16.935-13.673-4.918-5.747 6.113-11.171 12.45-16.146 18.872-3.722 4.5-.074 11.781 5.685 11.6a7.186 7.186 0 0 0 5.7-2.79c5.179-7.966 13.934-14.282 18.434-22.764z"/><path d="m329.7 334.9a7.167 7.167 0 0 0 -9.844 2.565 225.729 225.729 0 0 0 -13.518 27.051 7.2 7.2 0 1 0 13.279 5.55 211.31 211.31 0 0 1 12.647-25.322 7.19 7.19 0 0 0 -2.564-9.844z"/><path d="m365.525 272.527a7.209 7.209 0 0 0 9.064-4.624 240.7 240.7 0 0 1 10.322-26.488 7.2 7.2 0 0 0 -13.069-6.029 256.853 256.853 0 0 0 -10.94 28.077 7.194 7.194 0 0 0 4.623 9.064z"/><path d="m305.4 388.044a7.2 7.2 0 0 0 -8.811 5.087 240.1 240.1 0 0 0 -5.93 29.6 7.2 7.2 0 1 0 14.263 1.939 224.7 224.7 0 0 1 5.565-27.81 7.2 7.2 0 0 0 -5.087-8.816z"/><path d="m388.494 218.748a7.2 7.2 0 0 0 9.928-2.227 198.175 198.175 0 0 1 16.772-22.721 7.2 7.2 0 1 0 -10.933-9.359 212.7 212.7 0 0 0 -17.994 24.381 7.19 7.19 0 0 0 2.227 9.926z"/><path d="m318.892 175.593c53.025-25.4 77.156-96.945 35.559-143.342-17.862-21.918-55.361-16.2-65.223 10.442-1.835 4.653-6.47 15.805-8.241 20.28-3.2 9.509-8.229 19.064-18.7 21.736-8.019 2.291-20.367 5.863-28.442 8.179-27.4 7.352-36.914 43.429-17.888 64.444a82.75 82.75 0 0 0 102.935 18.261zm-11.881-10.251c-26.924 12.984-59.919 5.81-80.2-17.467-9.26-10.631-8.537-26.763 1.609-35.96 4.968-5.469 21.483-8.232 28.222-10.608 14.579-2.975 29.339-10.592 34.634-25.4 2.258-5.681 8.934-21.93 11.3-27.816 6.212-16.929 29.73-20.217 41.033-6.379 37.074 41.239 11.082 104.456-36.598 123.63z"/><path d="m334.006 108.521c-1.94 9.168 12.014 12.248 14.066 3.021 4.357-20.327 1.188-38.11-9.415-52.858a7.193 7.193 0 1 0 -11.677 8.4c8.241 11.47 10.539 25.031 7.026 41.437z"/><path d="m130.794 493.437c62.767-31.026 73.756-84.069 30.53-138.929 3.694-6.946 11.676-19.47.062-22.266-1.511-.2-35.2-4.52-68.591 3.57-7.872-25.759-33.462-34.612-52.836-39.012-9.225-2.014-12.337 11.9-3.189 14.038 24.818 5.632 37.831 14.527 42.281 29.141-33.014 12.533-57.626 41.492-58.716 42.794-5.9 8.079 3.98 12.468 10.288 14.57.51 61.789 34.05 94.172 99.96 96.092zm-41.223-141.866c22.47-6.78 47.034-6.632 60.243-5.888-6.752 12.787-16.294 18.129-30.7 18-5.4-.165-9.09 6.3-6.189 10.863 8.108 13.7 7.2 27.971-3.071 45.741-17.664-6.907-25.906-18.142-27.283-36.733a7.193 7.193 0 0 0 -12.268-4.546c-8.55 8.565-18.7 10.469-32.159 5.831 9.79-9.702 29.147-26.539 51.427-33.268zm-44.54 49.619c9.289 1.294 17.676-.031 25.2-4.173 4.925 19.288 19.94 33.687 42.726 39.171a7.19 7.19 0 0 0 6.036-3.281c13.251-20.454 16.891-38.785 10.989-55.718a42.455 42.455 0 0 0 22.175-10.98c34.116 46.722 26.7 82.615-23.222 112.768-55.39-2.194-82.235-27.043-83.904-77.787z"/></svg>