<svg id="Layer_1" enable-background="new 0 0 468 468" height="512" viewBox="0 0 468 468" width="512" xmlns="http://www.w3.org/2000/svg"><g><g><g><path d="m246.006 72.094c-32.363-55.867-93.23-81.227-135.951-56.645s-51.118 89.799-18.755 145.666c19.121 33.007 48.191 55.363 77.59 63.062 33.04 8.652 61.517 29.534 78.598 59.019l.986 1.703 27.38-15.755-1.484-2.562c-16.912-29.195-21.008-63.857-12.246-96.418 7.844-29.149 2.908-65.225-16.118-98.07z" fill="#93cc52"/></g><g><path d="m188.918 224.178c-29.399-7.699-58.47-30.055-77.59-63.062-32.363-55.867-23.966-121.084 18.755-145.667 8.179-4.706 17.024-7.576 26.205-8.757-16.266-1.994-32.225.697-46.233 8.757-42.721 24.583-51.118 89.799-18.755 145.666 19.121 33.007 48.191 55.363 77.59 63.062 33.04 8.652 61.517 29.534 78.598 59.019l.986 1.703 14.785-8.507c-17.35-25.891-43.906-44.244-74.341-52.214z" fill="#b6dc80"/></g></g><g><g><path d="m222.79 72.094c32.363-55.867 93.23-81.227 135.951-56.645s51.118 89.799 18.755 145.666c-19.121 33.007-48.191 55.363-77.59 63.062-33.04 8.652-61.517 29.534-78.598 59.019l-.986 1.703-27.38-15.755 1.484-2.562c16.912-29.195 21.008-63.857 12.246-96.418-7.845-29.149-2.909-65.225 16.118-98.07z" fill="#93cc52"/></g><g><path d="m358.741 15.449c-14.008-8.061-29.968-10.751-46.233-8.757 9.181 1.182 18.027 4.051 26.205 8.757 42.721 24.583 51.118 89.799 18.755 145.666-19.121 33.007-48.191 55.363-77.59 63.062-30.435 7.97-56.991 26.324-74.341 52.214l14.785 8.507.986-1.703c17.081-29.486 45.558-50.367 78.598-59.019 29.399-7.699 58.47-30.055 77.59-63.062 32.363-55.865 23.966-121.082-18.755-145.665z" fill="#b6dc80"/></g></g><g><g><path d="m215.361 166.387c-32.363-55.867-93.23-81.227-135.951-56.645s-51.118 89.799-18.755 145.666c21.705 37.468 56.23 61.211 89.503 65.371 22.699 2.838 42.913 15.675 54.352 35.42l45.861 79.169c4.365 7.536 14.033 10.117 21.594 5.767 7.561-4.351 10.151-13.986 5.786-21.522l-46.134-79.639c-11.388-19.659-12.545-43.394-3.895-64.393 12.656-30.725 9.169-72.027-12.361-109.194z" fill="#93cc52"/></g><g><path d="m227.722 275.581c26.151-63.485-18.803-151.415-84.217-170.743-38.148-11.271-77.831 1.886-94.423 39.554-15.702 35.648-7.362 78.331 11.573 111.016 9.371 16.177 21.135 29.788 34.153 40.377-5.128-6.24-9.875-13.042-14.125-20.379-32.363-55.867-23.966-121.084 18.755-145.666.111-.064.223-.128.334-.191 13.779-7.827 30.305 4.166 27.558 19.755-1.491 8.458-2.279 17.267-2.279 26.317 0 43.264 17.988 81.031 44.717 101.215 18.234 13.769 29.3 34.959 29.3 57.76v13.56c1.98 2.535 3.803 5.216 5.442 8.044 8.725 15.061 17.449 30.122 26.174 45.184 0-16.639 0-33.278 0-49.917 0-9.574-.469-12.663-3.914-21.648-6.67-17.397-6.126-37.056.952-54.238z" fill="#7cb236"/></g><g><path d="m263.389 425.369-38.674-66.762h-18.81l44.466 76.76c4.365 7.535 14.033 10.117 21.594 5.767 3.261-1.876 5.591-4.738 6.844-7.988-6.042.66-12.186-2.194-15.42-7.777z" fill="#6a9e20"/></g><g><path d="m86.93 246.292c-2.07 0-4.085-1.073-5.197-2.993-15.02-25.929-20.15-55.728-13.723-79.712 4-14.925 12.152-26.288 23.575-32.861 2.873-1.653 6.541-.664 8.193 2.207 1.653 2.872.665 6.539-2.208 8.192-8.599 4.948-14.813 13.789-17.969 25.568-5.621 20.972-.942 47.362 12.515 70.593 2.275 3.925-.642 9.006-5.186 9.006z" fill="#333"/></g></g><g><g><path d="m252.559 166.387c32.363-55.867 93.23-81.227 135.951-56.645s51.118 89.799 18.755 145.666c-21.705 37.468-56.23 61.211-89.503 65.371-22.699 2.838-42.913 15.675-54.352 35.42l-45.861 79.169c-4.365 7.536-14.033 10.117-21.594 5.767-7.561-4.351-10.151-13.986-5.786-21.522l46.134-79.639c11.388-19.659 12.545-43.394 3.895-64.393-12.657-30.725-9.169-72.027 12.361-109.194z" fill="#93cc52"/></g><g><path d="m240.198 275.581c-26.151-63.485 18.802-151.416 84.216-170.743 38.148-11.271 77.831 1.886 94.423 39.554 15.702 35.648 7.362 78.331-11.572 111.016-9.371 16.177-21.135 29.788-34.153 40.377 5.128-6.24 9.875-13.042 14.125-20.379 32.363-55.867 23.966-121.083-18.755-145.666-.111-.064-.223-.128-.334-.191-13.779-7.827-30.305 4.166-27.558 19.755 1.491 8.458 2.279 17.267 2.279 26.317 0 43.264-17.988 81.031-44.717 101.215-18.234 13.769-29.3 34.959-29.3 57.76v13.56c-1.98 2.535-3.803 5.216-5.442 8.044-8.725 15.061-17.449 30.122-26.174 45.184 0-16.639 0-33.278 0-49.917 0-9.574.469-12.663 3.914-21.648 6.67-17.397 6.125-37.056-.952-54.238z" fill="#7cb236"/></g><g><path d="m204.531 425.369 38.674-66.762h18.81l-44.466 76.76c-4.365 7.535-14.033 10.117-21.594 5.767-3.261-1.876-5.591-4.738-6.844-7.988 6.042.66 12.186-2.194 15.42-7.777z" fill="#6a9e20"/></g><path d="m252.559 166.387h.01z" fill="#333"/><g><path d="m380.989 246.292c-4.545 0-7.46-5.081-5.187-9.007 13.458-23.231 18.137-49.621 12.517-70.593-3.156-11.778-9.37-20.619-17.97-25.567-2.872-1.653-3.86-5.32-2.207-8.192s5.319-3.861 8.193-2.207c11.423 6.573 19.574 17.936 23.574 32.861 6.428 23.984 1.298 53.783-13.723 79.712-1.112 1.92-3.126 2.993-5.197 2.993z" fill="#333"/></g></g><g><g><path d="m323.717 165.622c0-64.509-39.99-116.804-89.32-116.804s-89.32 52.295-89.32 116.804c0 43.264 17.988 81.031 44.717 101.215 18.234 13.769 29.3 34.959 29.3 57.76v121.649c0 8.701 7.077 15.755 15.808 15.755 8.73 0 15.808-7.054 15.808-15.755v-122.193c0-22.7 10.905-43.832 28.931-57.707 26.376-20.301 44.076-57.808 44.076-100.724z" fill="#93cc52"/></g><g><path d="m238.122 440.247v-121.65c0-22.801-11.066-43.991-29.3-57.76-26.729-20.184-44.717-57.951-44.717-101.215 0-50.561 24.568-93.614 58.942-109.87-43.97 7.293-77.969 56.389-77.969 115.869 0 43.264 17.988 81.031 44.717 101.215 18.234 13.769 29.3 34.959 29.3 57.76v121.649c0 8.701 7.077 15.755 15.808 15.755 5.527 0 10.385-2.832 13.211-7.114-5.849-2.31-9.992-7.987-9.992-14.639z" fill="#6a9e20"/></g></g><g><g><path d="m273.011 390.936h-77.225c-9.389 0-17-7.611-17-17v-.264c0-9.389 7.611-17 17-17h77.225c9.389 0 17 7.611 17 17v.264c0 9.389-7.612 17-17 17z" fill="#eaad75"/></g><g><path d="m252.959 378.938h-57.15c-2.761 0-5.007-2.243-5.007-4.999 0-5.199-3.318-9.612-7.949-11.279-2.531 2.967-4.067 6.807-4.067 11.01v.269c0 9.388 7.622 16.998 17.024 16.998h69.167c-.001-6.627-5.382-11.999-12.018-11.999z" fill="#e09b63"/></g><g><path d="m290.011 373.67c0-9.388-7.622-16.998-17.024-16.998h-69.167c0 6.627 5.38 11.998 12.017 11.998h57.15c2.761 0 5.007 2.243 5.007 4.999v.269c0 5.13 3.23 9.495 7.766 11.211 2.638-2.994 4.251-6.91 4.251-11.211z" fill="#ecbc8c"/></g></g><g><path d="m109.055 410.008c-13.8 0-25.026-11.377-25.026-25.362s11.227-25.363 25.026-25.363 25.027 11.378 25.027 25.363-11.228 25.362-25.027 25.362zm0-38.727c-7.183 0-13.026 5.995-13.026 13.364s5.844 13.364 13.026 13.364c7.183 0 13.027-5.995 13.027-13.364s-5.844-13.364-13.027-13.364z" fill="#333"/></g><g><path d="m359.403 410.008c-13.8 0-25.026-11.213-25.026-24.997 0-13.783 11.227-24.997 25.026-24.997s25.026 11.213 25.026 24.997c.001 13.783-11.226 24.997-25.026 24.997zm0-37.995c-7.183 0-13.026 5.831-13.026 12.998s5.844 12.998 13.026 12.998 13.026-5.831 13.026-12.998c.001-7.167-5.843-12.998-13.026-12.998z" fill="#333"/></g><g><ellipse cx="205.905" cy="95.041" fill="#fff" rx="10.875" ry="17.022"/></g><g><path d="m186.302 147.564c.298 6.154-2.825 10.988-6.977 10.798-4.151-.19-7.759-5.333-8.057-11.487s2.825-10.988 6.977-10.798c4.151.19 7.759 5.333 8.057 11.487z" fill="#fff"/></g><g><path d="m116.572 261.912c.298 6.154-2.825 10.988-6.977 10.798-4.151-.19-7.759-5.333-8.057-11.487s2.825-10.988 6.977-10.798c4.151.19 7.758 5.333 8.057 11.487z" fill="#fff"/></g><g><path d="m355.43 50.096c.298 6.154-2.825 10.988-6.977 10.798-4.151-.19-7.759-5.333-8.057-11.487s2.825-10.988 6.977-10.798 7.759 5.334 8.057 11.487z" fill="#fff"/></g><g fill="#333"><path d="m429.207 155.874c-4.956-18.494-14.406-33.614-27.599-44.367 5.909-37.719-4.847-81.101-39.874-101.257-42.947-24.711-94.907-1.138-125.144 32.616-1.469-.059-2.938-.063-4.407-.011-30.242-33.752-82.166-57.321-125.121-32.605-34.822 20.036-45.679 63.087-39.972 100.638-44.48 35.286-37.159 103.453-11.628 147.528 21.792 37.618 57.792 63.796 93.951 68.317 17.759 2.22 33.325 10.843 44.052 24.058-11.597 1.166-20.681 10.982-20.681 22.88v.269c0 12.68 10.318 22.997 23 22.997h.586l-11.395 19.67c-5.934 10.244-2.231 23.85 7.985 29.728 6.065 3.49 13.814 3.798 20.157.832.486 11.57 10.069 20.834 21.785 20.834 11.456 0 20.871-8.86 21.736-20.071 5.951 2.145 12.829 1.562 18.318-1.595 10.223-5.883 13.915-19.49 7.985-29.728l-11.395-19.67h1.462c12.683 0 23-10.316 23-22.997v-.269c0-12.185-9.529-22.182-21.527-22.945 10.726-13.185 26.286-21.777 44.022-23.994 36.159-4.521 72.159-30.698 93.952-68.317 19.221-33.175 25.325-70.55 16.752-102.541zm-73.459-135.225c28.825 16.587 38.201 52.125 34.776 83.351-21.743-12.091-48.177-12.875-74.731-2.225-13.939-29.384-37.193-50.66-64.429-56.992 31.423-30.985 73.259-42.045 104.384-24.134zm-121.35 34.168c45.943 0 83.32 49.707 83.32 110.805 0 39.382-15.992 76.156-41.735 95.971-19.873 15.298-31.271 38.064-31.271 62.461v26.62h-19.616v-26.077c0-24.545-11.548-47.342-31.684-62.547-26.112-19.718-42.333-56.667-42.333-96.428-.001-61.098 37.376-110.805 83.319-110.805zm-153.449 9.869c5.299-19.775 16.399-35.003 32.099-44.037 35.171-20.238 77.926-1.943 104.367 24.124-27.322 6.357-50.633 27.765-64.553 57.297-26.468-10.823-52.858-10.292-74.642 1.473-1.422-13.428-.556-26.602 2.729-38.857zm69.954 250.14c-32.514-4.065-65.105-27.985-85.056-62.425-23.751-41-31.533-109.787 16.556-137.46 20.234-11.643 44.743-10.416 65.833-1.809-5.868 15.925-9.158 33.72-9.158 52.489 0 43.446 18.048 84.063 47.101 106.002 17.106 12.917 26.917 32.225 26.917 52.972v26.077h-4.925c-12.51-19.83-33.216-32.839-57.268-35.846zm62.193 116.26c-2.57 5.213-8.797 7.928-14.147 4.85-4.615-2.656-6.26-8.701-3.587-13.316l14.879-25.684h2.856v34.15zm31.616 15.16c0 5.38-4.399 9.756-9.808 9.756-5.408 0-9.808-4.376-9.808-9.756v-49.31h19.616zm27.847-23.626c2.674 4.613 1.028 10.66-3.587 13.316-4.105 2.363-9.234 1.425-12.26-1.984v-37.015h.969zm11.452-48.95v.269c0 6.065-4.935 10.999-11 10.999h-77.226c-6.065 0-11-4.934-11-10.999v-.269c0-6.065 4.935-10.999 11-10.999h77.226c6.065.001 11 4.935 11 10.999zm118.062-121.269c-19.951 34.44-52.542 58.36-85.056 62.425-24.053 3.007-44.757 16.016-57.268 35.847h-3.038v-26.62c0-20.644 9.692-39.945 26.591-52.953 28.63-22.037 46.415-62.454 46.415-105.479 0-18.885-3.329-36.785-9.266-52.785 20.915-8.335 45.066-9.402 65.065 2.105 48.087 27.671 40.305 96.466 16.557 137.46z"/><path d="m277.813 160.309c-3.213-.815-6.478 1.123-7.295 4.333l-.088.346c-4.978 19.562-15.503 36.501-30.024 48.68v-50.993c21.733-14.221 35.101-36.326 41.712-61.04.879-3.194-.999-6.497-4.194-7.375-3.189-.876-6.497.998-7.376 4.194-5.134 19.281-14.358 36.754-30.142 49.425v-69.86c0-3.314-2.687-5.999-6-5.999s-6 2.686-6 5.999v91.798c-15.724-12.667-24.908-30.103-30.032-49.337-.879-3.194-4.18-5.071-7.377-4.193-3.195.879-5.072 4.182-4.193 7.376 6.606 24.672 19.922 46.736 41.603 60.967v51.265c-15.724-12.667-24.908-30.103-30.032-49.338-.879-3.194-4.18-5.071-7.377-4.193-3.195.879-5.072 4.182-4.193 7.376 6.606 24.672 19.923 46.736 41.603 60.967v10.86c0 3.313 2.687 5.999 6 5.999s6-2.686 6-5.999v-32.867c20.444-13.951 35.21-35.43 41.653-60.752l.088-.345c.816-3.211-1.125-6.477-4.336-7.294z"/></g></g></svg>