<?xml version="1.0" encoding="UTF-8"?>
<svg xmlns="http://www.w3.org/2000/svg" xmlns:xlink="http://www.w3.org/1999/xlink" version="1.1" id="Capa_1" x="0px" y="0px" viewBox="0 0 512 512" style="enable-background:new 0 0 512 512;" xml:space="preserve" width="512" height="512">
<g>
	<path style="fill:#97DA7B;" d="M59.98,303.996c-3.017,3.325-1.635,8.654,2.625,10.074l7.472,2.491&#10;&#9;&#9;c1.132,0.377,1.243,1.936,0.175,2.469l-27.84,13.92c-2.462,1.231-4.465,3.219-5.714,5.673l-0.069,0.136&#10;&#9;&#9;c-3.235,6.353-0.676,14.125,5.7,17.314l1.803,0.902c0.92,0.46,1,1.742,0.144,2.313l-17.962,11.975&#10;&#9;&#9;c-2.724,1.816-4.738,4.515-5.704,7.643l-0.048,0.155c-2.051,6.642,1.005,13.792,7.222,16.901l4.938,2.469l-13.294,13.294&#10;&#9;&#9;c-6.507,6.507-10.159,15.326-10.192,24.529c-0.022,6.089,0.675,12.414,2.422,19.403l0.615,2.459&#10;&#9;&#9;c0.155,0.621,0.137,1.273-0.052,1.885l-2.813,9.074c-2.261,7.294-2.564,15.09-0.634,22.479c0.968,3.706,2.221,6.418,3.737,7.935&#10;&#9;&#9;s4.228,2.77,7.935,3.737c7.389,1.929,15.185,1.627,22.479-0.634l9.074-2.813c0.612-0.19,1.264-0.208,1.885-0.052l2.459,0.615&#10;&#9;&#9;c6.988,1.747,13.313,2.444,19.403,2.422c9.202-0.033,18.021-3.685,24.529-10.192l13.294-13.294l2.469,4.938&#10;&#9;&#9;c3.109,6.217,10.259,9.273,16.901,7.222l0.155-0.048c3.128-0.966,5.827-2.98,7.643-5.704l11.975-17.962&#10;&#9;&#9;c0.571-0.856,1.853-0.776,2.313,0.144l0.902,1.803c3.189,6.376,10.96,8.935,17.314,5.701l0.136-0.069&#10;&#9;&#9;c2.453-1.249,4.441-3.252,5.673-5.714l13.92-27.84c0.534-1.068,2.092-0.957,2.469,0.176l2.491,7.472&#10;&#9;&#9;c1.42,4.26,6.749,5.642,10.074,2.625c1.395-1.266,2.752-2.557,4.068-3.873c42.979-42.979,38.298-115.032,2.556-150.774&#10;&#9;&#9;s-107.796-40.423-150.774,2.556C62.537,301.244,61.246,302.601,59.98,303.996z"/>
	<path style="fill:#97DA7B;" d="M303.996,452.02c3.325,3.017,8.654,1.635,10.074-2.625l2.491-7.472&#10;&#9;&#9;c0.377-1.132,1.936-1.243,2.469-0.176l13.92,27.84c1.231,2.462,3.219,4.465,5.673,5.714l0.136,0.069&#10;&#9;&#9;c6.353,3.235,14.125,0.676,17.314-5.701l0.902-1.803c0.46-0.92,1.742-1,2.313-0.144l11.975,17.962&#10;&#9;&#9;c1.816,2.724,4.515,4.738,7.643,5.704l0.155,0.048c6.642,2.051,13.792-1.005,16.901-7.222l2.469-4.938l13.294,13.294&#10;&#9;&#9;c6.507,6.507,15.326,10.159,24.529,10.192c6.089,0.022,12.414-0.675,19.403-2.422l2.459-0.615c0.621-0.155,1.273-0.137,1.885,0.052&#10;&#9;&#9;l9.074,2.813c7.294,2.261,15.09,2.564,22.479,0.634c3.706-0.968,6.418-2.221,7.935-3.737s2.77-4.228,3.737-7.935&#10;&#9;&#9;c1.929-7.389,1.627-15.185-0.634-22.479l-2.813-9.074c-0.19-0.612-0.208-1.264-0.052-1.885l0.615-2.459&#10;&#9;&#9;c1.747-6.988,2.444-13.313,2.422-19.403c-0.033-9.202-3.685-18.021-10.192-24.529l-13.294-13.294l4.938-2.469&#10;&#9;&#9;c6.217-3.109,9.273-10.259,7.222-16.901l-0.048-0.155c-0.966-3.128-2.98-5.827-5.704-7.643l-17.962-11.975&#10;&#9;&#9;c-0.856-0.571-0.776-1.853,0.144-2.313l1.803-0.902c6.376-3.189,8.935-10.961,5.701-17.314l-0.069-0.136&#10;&#9;&#9;c-1.249-2.453-3.252-4.441-5.714-5.673l-27.84-13.92c-1.068-0.534-0.957-2.092,0.176-2.469l7.472-2.491&#10;&#9;&#9;c4.26-1.42,5.642-6.749,2.625-10.074c-1.266-1.395-2.557-2.752-3.873-4.068c-42.979-42.979-115.032-38.298-150.774-2.556&#10;&#9;&#9;s-40.423,107.796,2.556,150.774C301.244,449.463,302.601,450.754,303.996,452.02z"/>
	<path style="fill:#97DA7B;" d="M452.02,208.004c3.017-3.325,1.635-8.654-2.625-10.074l-7.472-2.491&#10;&#9;&#9;c-1.132-0.377-1.243-1.936-0.176-2.469l27.84-13.92c2.462-1.231,4.465-3.219,5.714-5.673l0.069-0.136&#10;&#9;&#9;c3.235-6.353,0.676-14.125-5.701-17.314l-1.803-0.902c-0.92-0.46-1-1.742-0.144-2.313l17.962-11.975&#10;&#9;&#9;c2.724-1.816,4.738-4.515,5.704-7.643l0.048-0.155c2.051-6.642-1.005-13.792-7.222-16.901l-4.938-2.469l13.294-13.294&#10;&#9;&#9;c6.507-6.507,10.159-15.326,10.192-24.529c0.022-6.089-0.675-12.414-2.422-19.403l-0.615-2.459&#10;&#9;&#9;c-0.155-0.621-0.137-1.273,0.052-1.885l2.813-9.074c2.261-7.294,2.564-15.09,0.634-22.479c-0.968-3.706-2.221-6.418-3.737-7.935&#10;&#9;&#9;s-4.228-2.77-7.935-3.737c-7.389-1.929-15.185-1.627-22.479,0.634l-9.074,2.813c-0.612,0.19-1.264,0.208-1.885,0.052l-2.459-0.615&#10;&#9;&#9;c-6.988-1.747-13.313-2.444-19.403-2.422c-9.202,0.033-18.021,3.685-24.529,10.192l-13.294,13.294l-2.469-4.938&#10;&#9;&#9;c-3.109-6.217-10.259-9.273-16.901-7.222l-0.155,0.048c-3.128,0.966-5.827,2.98-7.643,5.704l-11.975,17.962&#10;&#9;&#9;c-0.571,0.856-1.853,0.776-2.313-0.144l-0.902-1.803c-3.189-6.376-10.961-8.935-17.314-5.7l-0.136,0.069&#10;&#9;&#9;c-2.453,1.249-4.441,3.252-5.673,5.714l-13.92,27.84c-0.534,1.068-2.092,0.957-2.469-0.176l-2.491-7.472&#10;&#9;&#9;c-1.42-4.26-6.749-5.642-10.074-2.625c-1.395,1.266-2.752,2.557-4.068,3.873c-42.979,42.979-38.298,115.032-2.556,150.774&#10;&#9;&#9;s107.796,40.423,150.774-2.556C449.463,210.756,450.754,209.399,452.02,208.004z"/>
	<path style="fill:#97DA7B;" d="M208.004,59.98c-3.325-3.017-8.654-1.635-10.074,2.625l-2.491,7.472&#10;&#9;&#9;c-0.377,1.132-1.936,1.243-2.469,0.175l-13.92-27.84c-1.231-2.462-3.219-4.465-5.673-5.714l-0.136-0.069&#10;&#9;&#9;c-6.353-3.235-14.125-0.676-17.314,5.7l-0.902,1.803c-0.46,0.92-1.742,1-2.313,0.144l-11.975-17.962&#10;&#9;&#9;c-1.816-2.724-4.515-4.738-7.643-5.704l-0.155-0.048c-6.642-2.051-13.792,1.005-16.901,7.222l-2.469,4.938l-13.294-13.294&#10;&#9;&#9;C93.767,12.921,84.948,9.269,75.746,9.236c-6.089-0.022-12.414,0.675-19.403,2.422l-2.459,0.615&#10;&#9;&#9;c-0.621,0.155-1.273,0.137-1.885-0.052l-9.074-2.813c-7.294-2.261-15.09-2.564-22.479-0.634c-3.706,0.968-6.418,2.221-7.935,3.737&#10;&#9;&#9;s-2.77,4.228-3.737,7.935C6.845,27.835,7.147,35.63,9.408,42.925l2.813,9.074c0.19,0.612,0.208,1.264,0.052,1.885l-0.615,2.459&#10;&#9;&#9;c-1.747,6.988-2.444,13.313-2.422,19.403c0.033,9.202,3.685,18.021,10.192,24.529l13.294,13.294l-4.938,2.469&#10;&#9;&#9;c-6.217,3.109-9.273,10.259-7.222,16.901l0.048,0.155c0.966,3.128,2.98,5.827,5.704,7.643l17.962,11.975&#10;&#9;&#9;c0.856,0.571,0.776,1.853-0.144,2.313l-1.803,0.902c-6.376,3.189-8.935,10.96-5.7,17.314l0.069,0.136&#10;&#9;&#9;c1.249,2.453,3.252,4.441,5.714,5.673l27.84,13.92c1.068,0.534,0.957,2.092-0.176,2.469l-7.472,2.491&#10;&#9;&#9;c-4.26,1.42-5.642,6.749-2.625,10.074c1.266,1.395,2.557,2.752,3.873,4.068c42.979,42.979,115.032,38.298,150.774,2.556&#10;&#9;&#9;s40.423-107.796-2.556-150.774C210.756,62.537,209.399,61.246,208.004,59.98z"/>
	<path style="fill:#80D261;" d="M214.628,297.373c-11.838-11.838-27.659-20.268-45.087-24.689c1.781,1.504,3.493,3.074,5.128,4.709&#10;&#9;&#9;c35.743,35.743,40.423,107.796-2.556,150.775c-1.316,1.316-2.673,2.607-4.068,3.873c-3.325,3.017-8.654,1.635-10.074-2.625&#10;&#9;&#9;l-2.491-7.472c-0.377-1.132-1.936-1.243-2.469-0.175l-13.92,27.84c-1.231,2.462-3.219,4.465-5.673,5.714l-0.136,0.069&#10;&#9;&#9;c-6.353,3.235-14.125,0.676-17.314-5.701l-0.902-1.803c-0.46-0.92-1.742-1-2.313-0.144l-11.975,17.962&#10;&#9;&#9;c-1.816,2.724-4.515,4.738-7.643,5.704l-0.155,0.048c-6.642,2.051-13.792-1.005-16.901-7.222l-2.469-4.938l-13.294,13.294&#10;&#9;&#9;c-6.507,6.507-15.326,10.159-24.529,10.192c-6.089,0.022-12.414-0.675-19.403-2.422l-2.459-0.615&#10;&#9;&#9;c-0.621-0.155-1.273-0.137-1.885,0.052l-4.538,1.407c-0.029,3.477,0.386,6.955,1.272,10.348c0.968,3.706,2.221,6.418,3.737,7.935&#10;&#9;&#9;s4.228,2.77,7.935,3.737c7.389,1.929,15.185,1.626,22.479-0.634l9.074-2.813c0.612-0.19,1.264-0.208,1.885-0.052l2.459,0.615&#10;&#9;&#9;c6.988,1.747,13.313,2.444,19.403,2.422c9.202-0.032,18.021-3.685,24.529-10.192l13.294-13.294l2.469,4.938&#10;&#9;&#9;c3.109,6.217,10.259,9.273,16.901,7.222l0.155-0.048c3.128-0.966,5.827-2.98,7.643-5.704l11.975-17.962&#10;&#9;&#9;c0.571-0.856,1.853-0.776,2.313,0.144l0.902,1.803c3.188,6.376,10.96,8.935,17.314,5.701l0.136-0.069&#10;&#9;&#9;c2.453-1.249,4.441-3.252,5.673-5.714l13.92-27.84c0.534-1.068,2.092-0.957,2.469,0.175l2.491,7.472&#10;&#9;&#9;c1.42,4.26,6.749,5.642,10.074,2.625c1.395-1.266,2.752-2.557,4.068-3.873C255.051,405.168,250.37,333.115,214.628,297.373z"/>
	<path style="fill:#80D261;" d="M502.592,469.075l-2.813-9.074c-0.19-0.612-0.208-1.264-0.052-1.885l0.615-2.459&#10;&#9;&#9;c1.747-6.988,2.444-13.313,2.422-19.403c-0.033-9.202-3.685-18.021-10.192-24.529l-13.294-13.294l4.938-2.469&#10;&#9;&#9;c6.217-3.109,9.273-10.259,7.222-16.901l-0.048-0.155c-0.966-3.128-2.98-5.827-5.704-7.643l-17.962-11.975&#10;&#9;&#9;c-0.856-0.571-0.776-1.853,0.144-2.313l1.803-0.902c6.376-3.189,8.935-10.96,5.7-17.314l-0.069-0.136&#10;&#9;&#9;c-1.249-2.453-3.252-4.441-5.714-5.673l-27.84-13.92c-1.068-0.534-0.957-2.092,0.175-2.469l7.472-2.491&#10;&#9;&#9;c4.26-1.42,5.642-6.749,2.625-10.074c-1.266-1.395-2.557-2.752-3.873-4.068c-13.713-13.713-30.385-22.573-47.893-27.122&#10;&#9;&#9;c2.738,2.216,5.387,4.595,7.934,7.142c1.316,1.316,2.607,2.673,3.873,4.068c3.017,3.325,1.634,8.654-2.625,10.074l-7.472,2.491&#10;&#9;&#9;c-1.132,0.377-1.243,1.936-0.175,2.469l27.84,13.92c2.463,1.231,4.465,3.219,5.714,5.673l0.07,0.136&#10;&#9;&#9;c3.235,6.353,0.676,14.125-5.7,17.314l-1.803,0.902c-0.92,0.46-1,1.742-0.144,2.313l17.962,11.975&#10;&#9;&#9;c2.724,1.816,4.738,4.515,5.704,7.643l0.048,0.155c2.051,6.642-1.005,13.792-7.222,16.901l-4.938,2.469l13.294,13.294&#10;&#9;&#9;c6.507,6.507,10.159,15.326,10.192,24.529c0.022,6.089-0.675,12.414-2.422,19.403l-0.615,2.459&#10;&#9;&#9;c-0.155,0.621-0.137,1.273,0.052,1.885l2.813,9.074c2.261,7.294,2.564,15.09,0.634,22.479c-0.967,3.706-2.221,6.418-3.737,7.935&#10;&#9;&#9;c-1.517,1.517-4.228,2.77-7.935,3.737c-7.389,1.929-15.185,1.626-22.479-0.634l-9.074-2.813c-0.612-0.19-1.264-0.208-1.885-0.052&#10;&#9;&#9;l-2.459,0.615c-4.926,1.232-9.521,1.941-13.938,2.245l9.965,9.965c6.507,6.507,15.326,10.159,24.529,10.192&#10;&#9;&#9;c6.089,0.021,12.414-0.675,19.403-2.423l2.459-0.615c0.621-0.155,1.273-0.137,1.885,0.052l9.074,2.813&#10;&#9;&#9;c7.295,2.261,15.09,2.564,22.479,0.634c3.706-0.967,6.418-2.22,7.935-3.737s2.77-4.228,3.737-7.935&#10;&#9;&#9;C505.155,484.165,504.853,476.37,502.592,469.075z"/>
	<path style="fill:#80D261;" d="M499.727,53.884c-0.155-0.621-0.137-1.273,0.052-1.885l2.813-9.074&#10;&#9;&#9;c2.261-7.294,2.564-15.09,0.634-22.479c-0.967-3.706-2.22-6.418-3.737-7.935c-1.516-1.517-4.228-2.77-7.935-3.737&#10;&#9;&#9;c-7.389-1.929-15.185-1.627-22.479,0.634l-4.536,1.406c-0.034,4.095-0.684,8.186-1.906,12.131l-2.813,9.074&#10;&#9;&#9;c-0.19,0.612-0.208,1.264-0.052,1.885l0.615,2.459c1.747,6.988,2.444,13.313,2.422,19.403c-0.033,9.202-3.685,18.021-10.192,24.528&#10;&#9;&#9;L439.318,93.59l4.938,2.469c6.217,3.109,9.273,10.259,7.222,16.901l-0.048,0.155c-0.966,3.128-2.98,5.827-5.704,7.643&#10;&#9;&#9;l-17.962,11.975c-0.856,0.571-0.776,1.853,0.144,2.313l1.803,0.902c6.376,3.189,8.935,10.961,5.7,17.314l-0.069,0.136&#10;&#9;&#9;c-1.249,2.453-3.252,4.441-5.714,5.673l-27.841,13.92c-1.068,0.534-0.957,2.092,0.175,2.469l7.472,2.491&#10;&#9;&#9;c4.26,1.42,5.642,6.749,2.625,10.074c-1.266,1.395-2.557,2.752-3.873,4.068c-28.744,28.744-70.493,36.171-105.687,27.244&#10;&#9;&#9;c37.147,31.362,104.634,33.748,145.646-7.265c1.316-1.316,2.607-2.673,3.873-4.068c3.017-3.325,1.635-8.654-2.625-10.074&#10;&#9;&#9;l-7.472-2.491c-1.132-0.377-1.243-1.936-0.176-2.469l27.841-13.92c2.462-1.231,4.465-3.219,5.714-5.673l0.069-0.136&#10;&#9;&#9;c3.235-6.353,0.676-14.125-5.7-17.314l-1.803-0.902c-0.92-0.46-1-1.742-0.144-2.313l17.962-11.975&#10;&#9;&#9;c2.724-1.816,4.738-4.515,5.704-7.643l0.048-0.155c2.051-6.642-1.005-13.792-7.222-16.901l-4.938-2.469l13.295-13.294&#10;&#9;&#9;c6.507-6.507,10.159-15.326,10.192-24.528c0.022-6.089-0.675-12.414-2.422-19.403L499.727,53.884z"/>
	<path style="fill:#80D261;" d="M212.072,63.853c-1.316-1.316-2.673-2.607-4.068-3.873c-3.325-3.017-8.654-1.634-10.074,2.625&#10;&#9;&#9;l-2.491,7.472c-0.377,1.132-1.936,1.243-2.469,0.176l-13.92-27.841c-1.231-2.462-3.219-4.465-5.673-5.714l-0.136-0.07&#10;&#9;&#9;c-6.353-3.235-14.125-0.676-17.314,5.7l-0.902,1.803c-0.46,0.92-1.742,1-2.313,0.144l-10.801-16.202l11.1,22.199&#10;&#9;&#9;c0.534,1.068,2.092,0.957,2.469-0.176l2.491-7.472c1.42-4.26,6.749-5.642,10.074-2.625c1.395,1.266,2.752,2.557,4.068,3.873&#10;&#9;&#9;c42.979,42.979,38.298,115.032,2.556,150.774c-24.339,24.339-65.514,34.274-102.881,24.566&#10;&#9;&#9;c43.458,35.172,109.216,29.037,142.84-4.587C250.37,178.885,255.051,106.832,212.072,63.853z"/>
	
		<line style="fill:none;stroke:#000000;stroke-width:15;stroke-linecap:round;stroke-linejoin:round;stroke-miterlimit:10;" x1="448.445" y1="63.555" x2="256" y2="256"/>
	
		<line style="fill:none;stroke:#000000;stroke-width:15;stroke-linecap:round;stroke-linejoin:round;stroke-miterlimit:10;" x1="448.445" y1="448.445" x2="256" y2="256"/>
	<path style="fill:none;stroke:#000000;stroke-width:15;stroke-linecap:round;stroke-linejoin:round;stroke-miterlimit:10;" d="&#10;&#9;&#9;M174.261,273.991c-36.122-10.86-80.367-4.104-110.408,25.937c-1.316,1.316-2.607,2.673-3.873,4.068&#10;&#9;&#9;c-3.017,3.325-1.635,8.654,2.625,10.074l7.472,2.491c1.132,0.377,1.243,1.936,0.175,2.469l-27.84,13.92&#10;&#9;&#9;c-2.462,1.231-4.465,3.219-5.714,5.673l-0.069,0.136c-3.235,6.353-0.676,14.125,5.7,17.314l1.803,0.902&#10;&#9;&#9;c0.92,0.46,1,1.742,0.144,2.313l-17.962,11.975c-2.724,1.816-4.738,4.515-5.704,7.643l-0.048,0.155&#10;&#9;&#9;c-2.051,6.642,1.005,13.792,7.222,16.901l4.938,2.469l-13.294,13.294c-6.507,6.507-10.159,15.326-10.192,24.529&#10;&#9;&#9;c-0.022,6.089,0.675,12.414,2.422,19.403l0.615,2.459c0.155,0.621,0.137,1.273-0.052,1.885l-2.813,9.074&#10;&#9;&#9;c-2.261,7.294-2.564,15.09-0.634,22.479c0.968,3.706,2.221,6.418,3.737,7.935s4.228,2.77,7.935,3.737&#10;&#9;&#9;c7.389,1.929,15.185,1.627,22.479-0.634l9.074-2.813c0.612-0.19,1.264-0.208,1.885-0.052l2.459,0.615&#10;&#9;&#9;c6.988,1.747,13.313,2.444,19.403,2.422c9.202-0.033,18.021-3.685,24.529-10.192l13.294-13.294l2.469,4.938&#10;&#9;&#9;c3.109,6.217,10.259,9.273,16.901,7.222l0.155-0.048c3.128-0.966,5.827-2.98,7.643-5.704l11.975-17.962&#10;&#9;&#9;c0.571-0.856,1.853-0.776,2.313,0.144l0.902,1.803c3.189,6.376,10.96,8.935,17.314,5.701l0.136-0.069&#10;&#9;&#9;c2.453-1.249,4.441-3.252,5.673-5.714l13.92-27.84c0.534-1.068,2.092-0.957,2.469,0.176l2.491,7.472&#10;&#9;&#9;c1.42,4.26,6.749,5.642,10.074,2.625c1.395-1.266,2.752-2.557,4.068-3.873c42.979-42.979,38.298-115.032,2.556-150.774&#10;&#9;&#9;c-2.685-2.685-5.574-5.194-8.641-7.522"/>
	
		<line style="fill:none;stroke:#000000;stroke-width:15;stroke-linecap:round;stroke-linejoin:round;stroke-miterlimit:10;" x1="63.555" y1="448.445" x2="256" y2="256"/>
	<path style="fill:none;stroke:#000000;stroke-width:15;stroke-linecap:round;stroke-linejoin:round;stroke-miterlimit:10;" d="&#10;&#9;&#9;M59.671,411.905c11.163-11.163,29.261-11.163,40.423,0s11.163,29.261,0,40.423"/>
	<path style="fill:none;stroke:#000000;stroke-width:15;stroke-linecap:round;stroke-linejoin:round;stroke-miterlimit:10;" d="&#10;&#9;&#9;M89.423,360.81c17.095-6.699,37.281-3.142,51.095,10.672c13.813,13.813,17.371,33.999,10.672,51.095"/>
	<path style="fill:none;stroke:#000000;stroke-width:15;stroke-linecap:round;stroke-linejoin:round;stroke-miterlimit:10;" d="&#10;&#9;&#9;M102.048,319.537c25.278-13.683,57.53-9.842,78.894,11.521s25.204,53.615,11.521,78.894"/>
	<path style="fill:none;stroke:#000000;stroke-width:15;stroke-linecap:round;stroke-linejoin:round;stroke-miterlimit:10;" d="&#10;&#9;&#9;M303.996,452.02c3.325,3.017,8.654,1.635,10.074-2.625l2.491-7.472c0.377-1.132,1.936-1.243,2.469-0.176l13.92,27.84&#10;&#9;&#9;c1.231,2.462,3.219,4.465,5.673,5.714l0.136,0.069c6.353,3.235,14.125,0.676,17.314-5.701l0.902-1.803&#10;&#9;&#9;c0.46-0.92,1.742-1,2.313-0.144l11.975,17.962c1.816,2.724,4.515,4.738,7.643,5.704l0.155,0.048&#10;&#9;&#9;c6.642,2.051,13.792-1.005,16.901-7.222l2.469-4.938l13.294,13.294c6.507,6.507,15.326,10.159,24.529,10.192&#10;&#9;&#9;c6.089,0.022,12.414-0.675,19.403-2.422l2.459-0.615c0.621-0.155,1.273-0.137,1.885,0.052l9.074,2.813&#10;&#9;&#9;c7.294,2.261,15.09,2.564,22.479,0.634c3.706-0.968,6.418-2.221,7.935-3.737s2.77-4.228,3.737-7.935&#10;&#9;&#9;c1.929-7.389,1.627-15.185-0.634-22.479l-2.813-9.074c-0.19-0.612-0.208-1.264-0.052-1.885l0.615-2.459&#10;&#9;&#9;c1.747-6.988,2.444-13.313,2.422-19.403c-0.033-9.202-3.685-18.021-10.192-24.529l-13.294-13.294l4.938-2.469&#10;&#9;&#9;c6.217-3.109,9.273-10.259,7.222-16.901l-0.048-0.155c-0.966-3.128-2.98-5.827-5.704-7.643l-17.962-11.975&#10;&#9;&#9;c-0.856-0.571-0.776-1.853,0.144-2.313l1.803-0.902c6.376-3.189,8.935-10.961,5.701-17.314l-0.069-0.136&#10;&#9;&#9;c-1.249-2.453-3.252-4.441-5.714-5.673l-27.84-13.92c-1.068-0.534-0.957-2.092,0.176-2.469l7.472-2.491&#10;&#9;&#9;c4.26-1.42,5.642-6.749,2.625-10.074c-1.266-1.395-2.557-2.752-3.873-4.068c-42.979-42.979-115.032-38.298-150.774-2.556&#10;&#9;&#9;s-40.423,107.796,2.556,150.774C301.244,449.463,302.601,450.754,303.996,452.02z"/>
	<path style="fill:none;stroke:#000000;stroke-width:15;stroke-linecap:round;stroke-linejoin:round;stroke-miterlimit:10;" d="&#10;&#9;&#9;M411.905,452.329c-11.163-11.163-11.163-29.261,0-40.423c11.163-11.163,29.261-11.163,40.423,0"/>
	<path style="fill:none;stroke:#000000;stroke-width:15;stroke-linecap:round;stroke-linejoin:round;stroke-miterlimit:10;" d="&#10;&#9;&#9;M360.81,422.577c-6.699-17.095-3.142-37.281,10.672-51.095c13.813-13.813,33.999-17.371,51.095-10.672"/>
	<path style="fill:none;stroke:#000000;stroke-width:15;stroke-linecap:round;stroke-linejoin:round;stroke-miterlimit:10;" d="&#10;&#9;&#9;M319.537,409.952c-13.683-25.278-9.842-57.53,11.521-78.894s53.615-25.204,78.894-11.521"/>
	<path style="fill:none;stroke:#000000;stroke-width:15;stroke-linecap:round;stroke-linejoin:round;stroke-miterlimit:10;" d="&#10;&#9;&#9;M398.437,239.65c18.17-4.398,35.523-13.392,49.709-27.578c1.316-1.316,2.607-2.673,3.873-4.068&#10;&#9;&#9;c3.017-3.325,1.635-8.654-2.625-10.074l-7.472-2.491c-1.132-0.377-1.243-1.936-0.176-2.469l27.84-13.92&#10;&#9;&#9;c2.462-1.231,4.465-3.219,5.714-5.673l0.069-0.136c3.235-6.353,0.676-14.125-5.701-17.314l-1.803-0.902&#10;&#9;&#9;c-0.92-0.46-1-1.742-0.144-2.313l17.962-11.975c2.724-1.816,4.738-4.515,5.704-7.643l0.048-0.155&#10;&#9;&#9;c2.051-6.642-1.005-13.792-7.222-16.901l-4.938-2.469l13.294-13.294c6.507-6.507,10.159-15.326,10.192-24.529&#10;&#9;&#9;c0.022-6.089-0.675-12.414-2.422-19.403l-0.615-2.459c-0.155-0.621-0.137-1.273,0.052-1.885l2.813-9.074&#10;&#9;&#9;c2.261-7.294,2.564-15.09,0.634-22.479c-0.968-3.706-2.221-6.418-3.737-7.935s-4.228-2.77-7.935-3.737&#10;&#9;&#9;c-7.389-1.929-15.185-1.627-22.479,0.634l-9.074,2.813c-0.612,0.19-1.264,0.208-1.885,0.052l-2.459-0.615&#10;&#9;&#9;c-6.988-1.747-13.313-2.444-19.403-2.422c-9.202,0.033-18.021,3.685-24.529,10.192l-13.294,13.294l-2.469-4.938&#10;&#9;&#9;c-3.109-6.217-10.259-9.273-16.901-7.222l-0.155,0.048c-3.128,0.966-5.827,2.98-7.643,5.704l-11.975,17.962&#10;&#9;&#9;c-0.571,0.856-1.853,0.776-2.313-0.144l-0.902-1.803c-3.189-6.376-10.961-8.935-17.314-5.7l-0.136,0.069&#10;&#9;&#9;c-2.453,1.249-4.441,3.252-5.673,5.714l-13.92,27.84c-0.534,1.068-2.092,0.957-2.469-0.176l-2.491-7.472&#10;&#9;&#9;c-1.42-4.26-6.749-5.642-10.074-2.625c-1.395,1.266-2.752,2.557-4.068,3.873c-42.979,42.979-38.298,115.032-2.556,150.774&#10;&#9;&#9;c16.797,16.797,41.614,26.734,67.663,28.089"/>
	<path style="fill:none;stroke:#000000;stroke-width:15;stroke-linecap:round;stroke-linejoin:round;stroke-miterlimit:10;" d="&#10;&#9;&#9;M452.329,100.095c-11.163,11.163-29.261,11.163-40.423,0c-11.163-11.163-11.163-29.261,0-40.423"/>
	<path style="fill:none;stroke:#000000;stroke-width:15;stroke-linecap:round;stroke-linejoin:round;stroke-miterlimit:10;" d="&#10;&#9;&#9;M422.577,151.19c-17.095,6.699-37.281,3.142-51.095-10.671c-13.813-13.813-17.371-33.999-10.672-51.095"/>
	<path style="fill:none;stroke:#000000;stroke-width:15;stroke-linecap:round;stroke-linejoin:round;stroke-miterlimit:10;" d="&#10;&#9;&#9;M409.952,192.463c-25.278,13.683-57.53,9.842-78.894-11.521s-25.204-53.615-11.521-78.894"/>
	<path style="fill:none;stroke:#000000;stroke-width:15;stroke-linecap:round;stroke-linejoin:round;stroke-miterlimit:10;" d="&#10;&#9;&#9;M239.51,112.991c-4.448-17.962-13.401-35.1-27.438-49.138c-1.316-1.316-2.673-2.607-4.068-3.873&#10;&#9;&#9;c-3.325-3.017-8.654-1.635-10.074,2.625l-2.491,7.472c-0.377,1.132-1.936,1.243-2.469,0.175l-13.92-27.84&#10;&#9;&#9;c-1.231-2.462-3.219-4.465-5.673-5.714l-0.136-0.069c-6.353-3.235-14.125-0.676-17.314,5.7l-0.902,1.803&#10;&#9;&#9;c-0.46,0.92-1.742,1-2.313,0.144l-11.975-17.962c-1.816-2.724-4.515-4.738-7.643-5.704l-0.155-0.048&#10;&#9;&#9;c-6.642-2.051-13.792,1.005-16.901,7.222l-2.469,4.938l-13.294-13.294C93.767,12.921,84.948,9.269,75.746,9.236&#10;&#9;&#9;c-6.089-0.022-12.414,0.675-19.403,2.422l-2.459,0.615c-0.621,0.155-1.273,0.137-1.885-0.052l-9.074-2.813&#10;&#9;&#9;c-7.294-2.261-15.09-2.564-22.479-0.634c-3.706,0.968-6.418,2.221-7.935,3.737s-2.77,4.228-3.737,7.935&#10;&#9;&#9;C6.845,27.835,7.147,35.63,9.408,42.925l2.813,9.074c0.19,0.612,0.208,1.264,0.052,1.885l-0.615,2.459&#10;&#9;&#9;c-1.747,6.988-2.444,13.313-2.422,19.403c0.033,9.202,3.685,18.021,10.192,24.529l13.294,13.294l-4.938,2.469&#10;&#9;&#9;c-6.217,3.109-9.273,10.259-7.222,16.901l0.048,0.155c0.966,3.128,2.98,5.827,5.704,7.643l17.962,11.975&#10;&#9;&#9;c0.856,0.571,0.776,1.853-0.144,2.313l-1.803,0.902c-6.376,3.189-8.935,10.96-5.7,17.314l0.069,0.136&#10;&#9;&#9;c1.249,2.453,3.252,4.441,5.714,5.673l27.84,13.92c1.068,0.534,0.957,2.092-0.176,2.469l-7.472,2.491&#10;&#9;&#9;c-4.26,1.42-5.642,6.749-2.625,10.074c1.266,1.395,2.557,2.752,3.873,4.068c42.979,42.979,115.032,38.298,150.774,2.556&#10;&#9;&#9;c16.28-16.28,26.116-40.092,27.939-65.26"/>
	<path style="fill:none;stroke:#000000;stroke-width:15;stroke-linecap:round;stroke-linejoin:round;stroke-miterlimit:10;" d="&#10;&#9;&#9;M100.095,59.671c11.163,11.163,11.163,29.261,0,40.423s-29.261,11.163-40.423,0"/>
	<path style="fill:none;stroke:#000000;stroke-width:15;stroke-linecap:round;stroke-linejoin:round;stroke-miterlimit:10;" d="&#10;&#9;&#9;M151.19,89.423c6.699,17.095,3.142,37.281-10.671,51.095s-33.999,17.371-51.095,10.672"/>
	<path style="fill:none;stroke:#000000;stroke-width:15;stroke-linecap:round;stroke-linejoin:round;stroke-miterlimit:10;" d="&#10;&#9;&#9;M192.463,102.048c13.683,25.278,9.842,57.53-11.521,78.894s-53.615,25.204-78.894,11.521"/>
	
		<line style="fill:none;stroke:#000000;stroke-width:15;stroke-linecap:round;stroke-linejoin:round;stroke-miterlimit:10;" x1="63.555" y1="63.555" x2="256" y2="256"/>
</g>















</svg>
