<svg id="Capa_1" enable-background="new 0 0 510 510" height="512" viewBox="0 0 510 510" width="512" xmlns="http://www.w3.org/2000/svg" xmlns:xlink="http://www.w3.org/1999/xlink"><linearGradient id="lg1"><stop offset="0" stop-color="#bbec6c"/><stop offset="1" stop-color="#81b823"/></linearGradient><linearGradient id="SVGID_1_" gradientTransform="matrix(.707 .707 -.707 .707 322.836 -129.395)" gradientUnits="userSpaceOnUse" x1="271.563" x2="462.585" xlink:href="#lg1" y1="212.776" y2="403.798"/><linearGradient id="lg2"><stop offset="0" stop-color="#47a920" stop-opacity="0"/><stop offset=".242" stop-color="#459a2a" stop-opacity=".242"/><stop offset=".7001" stop-color="#417545" stop-opacity=".7"/><stop offset="1" stop-color="#3e5959"/></linearGradient><linearGradient id="SVGID_00000158029568704085516580000015186155795694240148_" gradientUnits="userSpaceOnUse" x1="325.284" x2="247.284" xlink:href="#lg2" y1="351.573" y2="285.573"/><linearGradient id="SVGID_00000093889692392276659530000005673284959125156519_" gradientTransform="matrix(.707 .707 -.707 .707 322.836 -129.395)" gradientUnits="userSpaceOnUse" x1="433.862" x2="338.076" xlink:href="#lg2" y1="306.601" y2="345.6"/><linearGradient id="SVGID_00000097470114275732240740000006256301818964969128_" gradientTransform="matrix(.707 .707 -.707 .707 322.836 -129.395)" gradientUnits="userSpaceOnUse" x1="360.269" x2="360.269" xlink:href="#lg2" y1="197.026" y2="485.528"/><linearGradient id="SVGID_00000070094796237440173310000013747810452883118013_" gradientTransform="matrix(.707 .707 -.707 .707 322.836 -129.395)" gradientUnits="userSpaceOnUse" x1="360.113" x2="360.113" xlink:href="#lg2" y1="191.222" y2="463.024"/><linearGradient id="lg3"><stop offset="0" stop-color="#8bc727"/><stop offset="1" stop-color="#017b4e"/></linearGradient><linearGradient id="SVGID_00000170240282654496858530000016350884798966035629_" gradientTransform="matrix(.707 .707 -.707 .707 322.836 -129.395)" gradientUnits="userSpaceOnUse" x1="352.66" x2="388.403" xlink:href="#lg3" y1="386.055" y2="390.026"/><linearGradient id="SVGID_00000002360924451795633510000009225752183129222320_" gradientUnits="userSpaceOnUse" x1="97.867" x2="384.566" xlink:href="#lg1" y1="73.065" y2="359.764"/><linearGradient id="SVGID_00000098212170409377964890000008650004236300216465_" gradientUnits="userSpaceOnUse" x1="334.2" x2="194.352" xlink:href="#lg2" y1="213.018" y2="269.956"/><linearGradient id="SVGID_00000036250271685261970840000003123096778246575767_" gradientUnits="userSpaceOnUse" x1="231.002" x2="231.002" xlink:href="#lg2" y1="37" y2="434.666"/><linearGradient id="SVGID_00000102533230460333201280000008196315944238184872_" gradientUnits="userSpaceOnUse" x1="230.787" x2="230.787" xlink:href="#lg2" y1="29" y2="403.647"/><linearGradient id="SVGID_00000134232575805626525540000015777467175240106141_" gradientUnits="userSpaceOnUse" x1="219.507" x2="273.507" xlink:href="#lg3" y1="322.663" y2="328.663"/><g><g><path d="m257.882 458.001c60.99-60.99 157.524-64.75 222.909-11.302 4.868 3.979 12.163 2.266 14.884-3.403.366-.762.711-1.54 1.034-2.334 4.066-9.983 3.973-20.617.529-29.991-1.255-3.408-.492-7.258 1.944-9.94 6.723-7.387 10.819-17.204 10.819-27.98 0-11.145-4.386-21.263-11.526-28.724-2.608-2.731-3.42-6.741-2.073-10.266 3.678-9.657 3.795-20.685-.535-30.957-4.183-9.927-11.773-17.382-20.839-21.577-3.291-1.532-5.48-4.779-5.653-8.408-.467-9.977-4.509-19.812-12.129-27.432-7.879-7.879-18.139-11.939-28.466-12.166-3.77-.08-7.184-2.35-8.728-5.788-4.226-9.429-11.945-17.308-22.266-21.515-9.977-4.06-20.617-3.961-29.991-.517-3.407 1.242-7.258.492-9.933-1.95-7.393-6.717-17.204-10.819-27.98-10.819-11.145 0-21.263 4.385-28.736 11.527-2.719 2.608-6.741 3.42-10.266 2.073-9.644-3.678-20.679-3.789-30.951.541l-.122.052c-5.898 2.496-7.717 9.953-3.66 14.908 53.541 65.387 49.809 161.995-11.214 223.018l-23.44 23.44c-3.576 3.576-3.576 9.374 0 12.95 3.576 3.576 9.374 3.576 12.95 0z" fill="url(#SVGID_1_)"/><path d="m257.882 458.001c60.99-60.99 157.524-64.75 222.909-11.302 4.868 3.979 12.163 2.266 14.884-3.403.366-.762.711-1.54 1.034-2.334 4.066-9.983 3.973-20.617.529-29.991-1.255-3.408-.492-7.258 1.944-9.94 6.723-7.387 10.819-17.204 10.819-27.98 0-11.145-4.386-21.263-11.526-28.724-2.608-2.731-3.42-6.741-2.073-10.266 3.678-9.657 3.795-20.685-.535-30.957-4.183-9.927-11.773-17.382-20.839-21.577-3.291-1.532-5.48-4.779-5.653-8.408-.467-9.977-4.509-19.812-12.129-27.432-7.879-7.879-18.139-11.939-28.466-12.166-3.77-.08-7.184-2.35-8.728-5.788-4.226-9.429-11.945-17.308-22.266-21.515-9.977-4.06-20.617-3.961-29.991-.517-3.407 1.242-7.258.492-9.933-1.95-7.393-6.717-17.204-10.819-27.98-10.819-11.145 0-21.263 4.385-28.736 11.527-2.719 2.608-6.741 3.42-10.266 2.073-9.644-3.678-20.679-3.789-30.951.541l-.122.052c-5.898 2.496-7.717 9.953-3.66 14.908 53.541 65.387 49.809 161.995-11.214 223.018l-23.44 23.44c-3.576 3.576-3.576 9.374 0 12.95 3.576 3.576 9.374 3.576 12.95 0z" fill="url(#SVGID_1_)"/><path d="m257.882 458.001c60.99-60.99 157.524-64.75 222.909-11.302 4.868 3.979 12.163 2.266 14.884-3.403.366-.762.711-1.54 1.034-2.334 4.066-9.983 3.973-20.617.529-29.991-1.255-3.408-.492-7.258 1.944-9.94 6.723-7.387 10.819-17.204 10.819-27.98 0-11.145-4.386-21.263-11.526-28.724-2.608-2.731-3.42-6.741-2.073-10.266 3.678-9.657 3.795-20.685-.535-30.957-4.183-9.927-11.773-17.382-20.839-21.577-3.291-1.532-5.48-4.779-5.653-8.408-.467-9.977-4.509-19.812-12.129-27.432-7.879-7.879-18.139-11.939-28.466-12.166-3.77-.08-7.184-2.35-8.728-5.788-4.226-9.429-11.945-17.308-22.266-21.515-9.977-4.06-20.617-3.961-29.991-.517-3.407 1.242-7.258.492-9.933-1.95-7.393-6.717-17.204-10.819-27.98-10.819-11.145 0-21.263 4.385-28.736 11.527-2.719 2.608-6.741 3.42-10.266 2.073-9.644-3.678-20.679-3.789-30.951.541l-.122.052c-5.898 2.496-7.717 9.953-3.66 14.908 53.541 65.387 49.809 161.995-11.214 223.018l-23.44 23.44c-3.576 3.576-3.576 9.374 0 12.95 3.576 3.576 9.374 3.576 12.95 0z" fill="url(#SVGID_00000158029568704085516580000015186155795694240148_)"/><path d="m496.708 440.963c4.066-9.983 3.973-20.617.529-29.991-1.255-3.408-.492-7.258 1.944-9.94 6.723-7.387 10.819-17.204 10.819-27.98 0-11.145-4.386-21.263-11.527-28.724-2.608-2.731-3.42-6.741-2.073-10.266 3.678-9.657 3.795-20.685-.535-30.957-4.183-9.927-11.772-17.382-20.839-21.577-3.291-1.532-5.48-4.779-5.653-8.408-.467-9.977-4.509-19.812-12.129-27.432-.014-.014-.029-.027-.044-.042l-234.748 234.75c.014.015.041.045.041.045 3.576 3.576 8.373 3.576 11.949 0l23.44-22.439c60.99-60.99 157.524-64.75 222.909-11.302 4.868 3.979 12.163 2.266 14.884-3.403.365-.762.71-1.541 1.033-2.334z" fill="url(#SVGID_00000093889692392276659530000005673284959125156519_)"/><path d="m506.296 390.227c2.377-5.235 3.704-11.049 3.704-17.175 0-11.145-4.386-21.263-11.527-28.724-2.608-2.731-3.42-6.741-2.073-10.266 3.678-9.657 3.795-20.685-.535-30.957-4.183-9.927-11.772-17.382-20.839-21.577-3.291-1.532-5.48-4.779-5.653-8.408-.467-9.977-4.509-19.812-12.129-27.432-7.879-7.879-18.139-11.939-28.466-12.166-3.77-.08-7.184-2.35-8.728-5.788-4.226-9.429-11.945-17.308-22.266-21.515-9.976-4.059-20.617-3.961-29.991-.517-3.407 1.242-7.258.492-9.933-1.95-7.393-6.717-17.204-10.819-27.98-10.819-6.124 0-11.934 1.331-17.17 3.709 39.449 64.142 34.481 152.309-21.095 207.884l-43.605 43.605-5.712 5.712c-3.576 3.576-6.656 6.294-3.08 9.87 3.576 3.576 6.294.496 9.87-3.08l5.712-5.712 43.605-43.605c55.579-55.577 143.749-60.542 207.891-21.089z" fill="url(#SVGID_00000097470114275732240740000006256301818964969128_)"/><path d="m498.591 312.569c-.521-3.184-1.417-6.359-2.725-9.464-4.183-9.927-11.772-17.382-20.839-21.577-3.291-1.532-5.48-4.779-5.653-8.408-.467-9.977-4.509-19.812-12.129-27.432-7.879-7.879-18.139-11.939-28.466-12.166-3.77-.08-7.184-2.35-8.728-5.788-4.226-9.429-11.945-17.308-22.266-21.515-2.461-1.001-4.963-1.747-7.476-2.255 7.592 50.461-4.435 107.332-43.289 146.185l-49.317 49.317c-3.576 3.576-7.169 5.781-3.593 9.357 3.576 3.576 5.781-.017 9.357-3.593l49.317-49.317c38.757-38.757 95.458-50.801 145.807-43.344z" fill="url(#SVGID_00000070094796237440173310000013747810452883118013_)"/><path d="m373.564 316.42-152.072 152.072c-3.576 3.576-3.576 9.374 0 12.95 3.576 3.576 9.374 3.576 12.95 0l152.071-152.072c3.576-3.576 3.576-9.374 0-12.95-3.576-3.576-9.373-3.576-12.949 0z" fill="url(#SVGID_00000170240282654496858530000016350884798966035629_)"/></g><g><path d="m243.619 401.245c0-118.888 90.423-216.641 206.246-228.276 8.623-.866 14.063-9.647 11.19-17.823-.386-1.099-.809-2.194-1.268-3.282-5.767-13.692-16.222-23.968-28.716-29.747-4.544-2.098-7.554-6.594-7.793-11.582-.647-13.752-6.223-27.313-16.726-37.816-10.863-10.863-24.999-16.45-39.231-16.762-5.204-.12-9.904-3.237-12.026-7.985-5.827-12.997-16.462-23.86-30.694-29.651-13.752-5.599-28.416-5.467-41.341-.72-4.7 1.715-9.999.684-13.704-2.686-10.178-9.268-23.703-14.915-38.558-14.915-15.359 0-29.315 6.043-39.602 15.887-3.753 3.597-9.292 4.712-14.148 2.865-13.309-5.072-28.512-5.228-42.672.731-13.68 5.767-23.956 16.234-29.735 28.727-2.11 4.532-6.594 7.554-11.582 7.781-13.752.659-27.313 6.223-37.816 16.726-10.863 10.863-16.45 24.999-16.774 39.243-.108 5.191-3.237 9.904-7.985 12.026-12.985 5.815-23.848 16.462-29.639 30.694l-.069.17c-3.316 8.182 2.179 17.222 10.963 18.097 115.914 11.547 206.436 109.343 206.436 228.297v96.134c0 6.971 5.651 12.622 12.622 12.622 6.971 0 12.622-5.651 12.622-12.622z" fill="url(#SVGID_00000002360924451795633510000009225752183129222320_)"/><path d="m243.619 401.245c0-118.888 90.423-216.641 206.246-228.276 8.623-.866 14.063-9.647 11.19-17.823-.386-1.099-.809-2.194-1.268-3.282-5.767-13.692-16.222-23.968-28.716-29.747-4.544-2.098-7.554-6.594-7.793-11.582-.647-13.752-6.223-27.313-16.726-37.816-10.863-10.863-24.999-16.45-39.231-16.762-5.204-.12-9.904-3.237-12.026-7.985-5.827-12.997-16.462-23.86-30.694-29.651-13.752-5.599-28.416-5.467-41.341-.72-4.7 1.715-9.999.684-13.704-2.686-10.178-9.268-23.703-14.915-38.558-14.915-15.359 0-29.315 6.043-39.602 15.887-3.753 3.597-9.292 4.712-14.148 2.865-13.309-5.072-28.512-5.228-42.672.731-13.68 5.767-23.956 16.234-29.735 28.727-2.11 4.532-6.594 7.554-11.582 7.781-13.752.659-27.313 6.223-37.816 16.726-10.863 10.863-16.45 24.999-16.774 39.243-.108 5.191-3.237 9.904-7.985 12.026-12.985 5.815-23.848 16.462-29.639 30.694l-.069.17c-3.316 8.182 2.179 17.222 10.963 18.097 115.914 11.547 206.436 109.343 206.436 228.297v96.134c0 6.971 5.651 12.622 12.622 12.622 6.971 0 12.622-5.651 12.622-12.622z" fill="url(#SVGID_00000002360924451795633510000009225752183129222320_)"/><path d="m459.787 151.863c-5.767-13.692-16.222-23.968-28.716-29.747-4.544-2.098-7.554-6.594-7.793-11.582-.647-13.752-6.223-27.313-16.726-37.816-10.863-10.863-24.999-16.45-39.231-16.762-5.204-.12-9.904-3.237-12.026-7.985-5.827-12.997-16.462-23.86-30.694-29.651-13.752-5.599-28.416-5.467-41.341-.72-4.7 1.715-10 .684-13.704-2.686-10.178-9.267-23.703-14.914-38.558-14.914-.028 0-.055.002-.083.002v508.993c.028 0 .083.004.083.004 6.971 0 11.621-4.65 11.621-11.621l1.001-96.134c0-118.888 90.423-216.641 206.246-228.276 8.624-.866 14.063-9.647 11.19-17.823-.388-1.099-.81-2.194-1.269-3.282z" fill="url(#SVGID_00000098212170409377964890000008650004236300216465_)"/><path d="m419.682 93.068c-2.786-7.42-7.159-14.379-13.129-20.35-10.863-10.863-24.999-16.45-39.231-16.762-5.204-.12-9.904-3.237-12.026-7.985-5.827-12.997-16.462-23.86-30.694-29.651-13.752-5.599-28.416-5.467-41.341-.72-4.7 1.715-10 .684-13.704-2.686-10.179-9.267-23.704-14.914-38.559-14.914-15.359 0-29.315 6.043-39.602 15.886-3.753 3.597-9.292 4.712-14.148 2.865-13.309-5.072-28.512-5.228-42.672.731-13.68 5.767-23.956 16.234-29.735 28.728-2.11 4.532-6.594 7.554-11.582 7.781-13.752.66-27.313 6.223-37.816 16.726-5.969 5.969-10.335 12.929-13.12 20.35 100.966 24.068 182.057 114.842 182.057 223.178v85 11.134c0 6.971-.353 12.622 6.618 12.622 6.971 0 6.618-5.651 6.618-12.622v-11.134-85c0-108.339 81.095-199.114 182.066-223.177z" fill="url(#SVGID_00000036250271685261970840000003123096778246575767_)"/><path d="m336.482 24.888c-3.611-2.596-7.578-4.817-11.88-6.567-13.752-5.599-28.416-5.467-41.341-.72-4.7 1.715-10 .684-13.704-2.686-10.179-9.268-23.704-14.915-38.559-14.915-15.359 0-29.315 6.043-39.602 15.886-3.753 3.597-9.292 4.712-14.148 2.865-13.309-5.072-28.512-5.228-42.672.731-3.375 1.423-6.54 3.134-9.484 5.089 56.581 41.784 100.288 108.936 100.288 184.674v96.134c0 6.971-1.353 12.622 5.617 12.622 6.971 0 5.617-5.651 5.617-12.622v-96.134c.001-75.549 43.527-142.553 99.868-184.357z" fill="url(#SVGID_00000102533230460333201280000008196315944238184872_)"/><path d="m218.376 150.5v346.878c0 6.971 5.651 12.622 12.622 12.622 6.971 0 12.622-5.651 12.622-12.622v-346.878c0-6.971-5.651-12.622-12.622-12.622-6.971 0-12.622 5.651-12.622 12.622z" fill="url(#SVGID_00000134232575805626525540000015777467175240106141_)"/></g></g></svg>