<svg id="Capa_1" enable-background="new 0 0 497.003 497.003" height="512" viewBox="0 0 497.003 497.003" width="512" xmlns="http://www.w3.org/2000/svg"><path d="m107.905 74.072c-10.13 21.303 4.552 47.383 34.015 65.104.484.276.972.548 1.461.818 21.396 12.129 47.076 16.447 71.912 10.465 4.806-1.099 8.529-4.822 9.627-9.627 5.982-24.836 1.665-50.517-10.464-71.913-.27-.489-.543-.977-.818-1.461-17.72-29.464-43.801-44.144-65.104-34.015-15.968 7.327-33.302 24.662-40.629 40.629 0 .001 0 .001 0 0z" fill="#99ce64"/><path d="m389.098 74.072c10.13 21.303-4.552 47.383-34.015 65.104-.484.276-.972.548-1.461.818-21.396 12.129-47.076 16.447-71.912 10.465-4.806-1.099-8.529-4.822-9.627-9.627-5.981-24.836-1.665-50.517 10.465-71.913.27-.489.543-.977.818-1.461 17.72-29.464 43.801-44.144 65.104-34.015 15.967 7.327 33.3 24.662 40.628 40.629 0 .001 0 .001 0 0z" fill="#99ce64"/><path d="m219.772 4.582c-22.226 7.9-30.286 36.723-21.983 70.088.147.537.299 1.075.455 1.612 6.553 23.705 21.658 44.918 43.45 58.25 4.175 2.621 9.441 2.621 13.615 0 21.791-13.332 36.898-34.543 43.45-58.249.155-.537.307-1.075.455-1.612 8.304-33.365.243-62.187-21.983-70.087-16.473-6.112-40.988-6.111-57.459-.002z" fill="#bce098"/><path d="m353.521 192.83c25.53 44.2 32.96 100.33 17.27 152.44-.36 1.22-.74 2.45-1.13 3.67-6.31 20.32-15.41 40.47-27.19 59.7l-9.842 4.607.792 9.223c-10.09 14.49-21.75 28.32-34.93 41.14h-.02l-77.16-3.22-61.28-129.86-8.87-18.79v-.01l-4.58-9.71 33.74-76.71.01-.01 4.01-9.13 28.67-65.19 6.37-14.48 6.49-.07 19.95-.22 5.61-.06h.01l19.6-.22 27.4-.3h.05c5.81 3.25 11.43 7.1 16.79 11.55 1.8 1.49 3.56 3.02 5.28 4.58 8.93 8.08 16.92 17.16 23.93 27.01l-.936 9.766z" fill="#fcebd4"/><path d="m137.561 376.23c-3.97-9.02-7.38-18.14-10.22-27.29-.39-1.22-.77-2.45-1.13-3.67-5.53-18.38-8.19-37.27-8.19-55.95 0-21.92 3.66-43.57 10.62-63.8l9.579-5.935-3.909-8.605c9.91-22.59 24.13-42.92 42.13-59.22 1.72-1.56 3.48-3.09 5.28-4.58 13.91-11.53 29.52-19.04 45.66-22.51.25-.06.5-.11.76-.16h.01c13.44-2.8 27.24-2.79 40.69.01h.01c.26.05.51.1.77.16 9.89 2.14 19.59 5.79 28.82 10.95.01.01.03.01.04.02-5.8 3.25-11.43 7.08-16.8 11.53-.91.76-1.82 1.53-2.71 2.31-52.39 45.44-74.28 124.39-52.8 195.78.37 1.22.75 2.45 1.13 3.67 12.71 40.97 36.82 81.22 71.18 114.66l-.01.01c-10.27 10-21.44 19.39-33.52 28-10.07 7.19-22.83 7.19-32.9 0-38.63-27.55-68.19-63.03-87.68-101.06l3.233-8.431z" fill="#fae0bd"/><ellipse cx="177.208" cy="314.685" fill="#e89fa9" rx="26.306" ry="20.949"/><ellipse cx="319.794" cy="314.685" fill="#e89fa9" rx="26.306" ry="20.949"/><path d="m192.539 302.019c-4.142 0-7.5-3.358-7.5-7.5v-10.754c0-4.142 3.358-7.5 7.5-7.5s7.5 3.358 7.5 7.5v10.754c0 4.142-3.358 7.5-7.5 7.5z" fill="#4e5660"/><path d="m304.463 302.019c-4.143 0-7.5-3.358-7.5-7.5v-10.754c0-4.142 3.357-7.5 7.5-7.5s7.5 3.358 7.5 7.5v10.754c0 4.142-3.357 7.5-7.5 7.5z" fill="#4e5660"/><path d="m248.501 308.42c-7.822 0-15.261-3.387-20.408-9.293-2.722-3.123-2.396-7.86.726-10.582s7.86-2.397 10.581.726c2.298 2.637 5.615 4.149 9.1 4.149s6.802-1.512 9.1-4.148c2.721-3.124 7.457-3.448 10.582-.727 3.122 2.721 3.448 7.459.727 10.582-5.146 5.905-12.585 9.293-20.408 9.293z" fill="#4e5660"/><g fill="#f8d4a5"><path d="m184.711 218.48c0 3.03-1.8 5.64-4.38 6.82-.95.44-2.01.68-3.12.68h-46c-.9 0-1.77-.16-2.57-.46 1.69-4.94 3.58-9.79 5.67-14.54h42.9c3.33 0 6.16 2.18 7.13 5.19.24.73.37 1.5.37 2.31z"/><path d="m353.521 192.83c-1.08.6-2.32.94-3.63.94h-45.43c-4.14 0-7.5-3.36-7.5-7.5s3.36-7.5 7.5-7.5h40.03c3.22 4.53 6.23 9.22 9.03 14.06z"/><path d="m178.461 383.05c0 4.15-3.36 7.5-7.5 7.5h-26.59c-2.43-4.74-4.7-9.52-6.81-14.32.95-.44 2-.68 3.11-.68h30.29c4.14 0 7.5 3.36 7.5 7.5z"/><path d="m342.471 408.64c-2.85 4.67-5.87 9.29-9.05 13.83h-46.92c-4.15 0-7.5-3.35-7.5-7.5 0-4.14 3.35-7.5 7.5-7.5h51.96c1.48 0 2.85.43 4.01 1.17z"/></g></svg>