<svg height="446pt" viewBox="0 -53 446.017 446" width="446pt" xmlns="http://www.w3.org/2000/svg"><path d="m61.210938 284.152344c-.109376 1.648437-.175782 3.304687-.179688 4.972656-.019531 7.855469 1.117188 15.523438 3.285156 22.929688h315.519532c2.121093-7.257813 3.246093-14.773438 3.265624-22.46875.003907-1.566407-.050781-3.125-.136718-4.675782 4.976562-3.160156 8.046875-7.449218 8.058594-12.179687.011718-5.109375-3.539063-9.714844-9.21875-12.941407.214843-.867187.328124-1.75.332031-2.652343.015625-5.910157-4.742188-11.144531-12.050781-14.355469 1.023437-1.800781 1.585937-3.734375 1.59375-5.746094.019531-7.507812-7.65625-13.925781-18.484376-16.488281.074219-.515625.121094-1.039063.121094-1.566406.023438-8.375-9.527344-15.394531-22.351562-17.21875-2.707032-5.375-9.511719-9.65625-18.195313-11.496094-5.289062-4.042969-13.421875-6.644531-22.5625-6.65625-3.203125-.003906-6.28125.3125-9.167969.894531-2.933593-.808594-5.917968-1.554687-8.9375-2.246094-4.421874-6.269531-14.625-10.671874-26.523437-10.6875-8-.011718-15.246094 1.960938-20.488281 5.15625-.144532-.003906-.285156-.003906-.429688-.007812-5.226562-3.207031-12.457031-5.195312-20.453125-5.210938-11.066406-.015624-20.683593 3.765626-25.558593 9.324219-4.121094.804688-8.175782 1.722657-12.15625 2.746094-1.210938-.09375-2.4375-.152344-3.691407-.152344-11.871093-.019531-22.078125 4.335938-26.546875 10.574219-4.972656 2.191406-9.753906 4.570312-14.335937 7.117188-9.804688.644531-18.132813 4.28125-22.492188 9.386718-13.355469 1.542969-23.460937 8.6875-23.484375 17.285156-.003906 1.550782.324219 3.054688.933594 4.484376-5.933594 3.222656-9.679688 7.914062-9.695312 13.144531-.003907 2.597656.914062 5.058593 2.558593 7.28125-.5 1.015625-.980469 2.039062-1.4375 3.066406-9.398437 2.902344-15.847656 8.839844-15.867187 15.703125-.011719 4.976562 3.355468 9.46875 8.777344 12.683594zm0 0" fill="#fcf9de"/><g fill="#fff4c1"><path d="m249.207031 231.679688v-52.445313c0-7.125-7.261719-12.792969-15.960937-12.511719-98.675782 3.183594-176.371094 37.65625-176.371094 79.710938 0 2.101562.21875 4.183594.605469 6.246094v.007812 18.257812c0 6.8125 5.523437 12.332032 12.332031 12.332032h1.136719c6.8125 0 12.332031-5.519532 12.332031-12.332032v-10.824218c0-2.390625 1.941406-4.332032 4.335938-4.332032h3.992187c2.394531 0 4.335937 1.941407 4.335937 4.332032 0 6.792968 5.3125 12.632812 12.101563 12.738281 6.882813.109375 12.492187-5.4375 12.492187-12.292969 0-2.640625 2.140626-4.777344 4.777344-4.777344h6.21875c2.636719 0 4.773438 2.136719 4.773438 4.777344v6.59375c0 6.789063 5.3125 12.632813 12.101562 12.738282 6.882813.105468 12.496094-5.441407 12.496094-12.296876v-.441406c0-6.28125 5.089844-11.371094 11.371094-11.371094h41.289062c6.28125 0 11.371094 5.089844 11.371094 11.371094 0 6.789063 5.3125 12.632813 12.101562 12.738282 6.882813.105468 12.492188-5.441407 12.492188-12.296876v-35.921874zm0 0"/><path d="m296.972656 224.996094c0-8.589844-7.023437-15.550782-15.6875-15.550782-8.664062 0-15.6875 6.960938-15.6875 15.550782s7.023438 15.550781 15.6875 15.550781c8.664063 0 15.6875-6.960937 15.6875-15.550781zm0 0"/><path d="m344.417969 252.226562c0-8.589843-7.023438-15.554687-15.6875-15.554687-8.664063 0-15.6875 6.964844-15.6875 15.554687 0 8.589844 7.023437 15.550782 15.6875 15.550782 8.664062 0 15.6875-6.960938 15.6875-15.550782zm0 0"/></g><path d="m249.207031 221.679688v-52.445313c0-7.125-7.261719-12.792969-15.960937-12.511719-98.675782 3.183594-176.371094 37.65625-176.371094 79.710938 0 2.101562.21875 4.183594.605469 6.246094v.007812 18.257812c0 6.8125 5.523437 12.332032 12.332031 12.332032h1.136719c6.8125 0 12.332031-5.519532 12.332031-12.332032v-10.824218c0-2.390625 1.941406-4.332032 4.335938-4.332032h3.992187c2.394531 0 4.335937 1.941407 4.335937 4.332032 0 6.792968 5.3125 12.632812 12.101563 12.738281 6.882813.109375 12.492187-5.4375 12.492187-12.292969 0-2.640625 2.140626-4.777344 4.777344-4.777344h6.21875c2.636719 0 4.773438 2.136719 4.773438 4.777344v6.59375c0 6.789063 5.3125 12.632813 12.101562 12.738282 6.882813.105468 12.496094-5.441407 12.496094-12.296876v-.441406c0-6.28125 5.089844-11.371094 11.371094-11.371094h41.289062c6.28125 0 11.371094 5.089844 11.371094 11.371094 0 6.789063 5.3125 12.632813 12.101562 12.738282 6.882813.105468 12.492188-5.441407 12.492188-12.296876v-35.921874zm0 0" fill="#bf6c0d"/><path d="m120.414062 252.226562c-.695312.769532-1.128906 1.777344-1.128906 2.894532v.832031c.5625-1.15625.953125-2.40625 1.128906-3.726563zm0 0" fill="#a56021"/><path d="m92.875 241.433594c0-38.859375 66.34375-71.246094 154.277344-78.453125-2.757813-3.890625-7.996094-6.449219-13.90625-6.257813-98.675782 3.183594-176.371094 37.65625-176.371094 79.710938 0 2.101562.21875 4.183594.605469 6.246094v.007812 18.257812c0 6.8125 5.523437 12.332032 12.332031 12.332032h1.136719c6.8125 0 12.332031-5.519532 12.332031-12.332032v-10.824218c0-2.390625 1.941406-4.332032 4.335938-4.332032h3.992187c.570313 0 1.109375.117188 1.609375.316407-.222656-1.546875-.34375-3.101563-.34375-4.671875zm0 0" fill="#a56021"/><path d="m111.929688 209.386719-17.058594-8.363281c-4.214844-2.066407-5.957032-7.160157-3.890625-11.375l4.511719-9.203126c2.066406-4.214843 7.160156-5.957031 11.375-3.890624l17.058593 8.367187c4.214844 2.066406 5.957031 7.15625 3.890625 11.371094l-4.511718 9.203125c-2.066407 4.214844-7.160157 5.957031-11.375 3.890625zm0 0" fill="#f9bb32"/><path d="m102.652344 195.371094 4.511718-9.203125c2.066407-4.214844 7.160157-5.957031 11.375-3.886719l-11.675781-5.726562c-4.214843-2.0625-9.304687-.324219-11.371093 3.890624l-4.511719 9.203126c-2.070313 4.214843-.328125 9.308593 3.886719 11.375l11.675781 5.722656c-4.214844-2.066406-5.957031-7.160156-3.890625-11.375zm0 0" fill="#db9c2e"/><path d="m187.371094 189.433594h-19c-4.695313 0-8.5-3.808594-8.5-8.5v-7.824219c0-4.695313 3.804687-8.5 8.5-8.5h19c4.691406 0 8.5 3.804687 8.5 8.5v7.824219c0 4.691406-3.808594 8.5-8.5 8.5zm0 0" fill="#a56021"/><path d="m194.371094 179.859375h-19c-4.695313 0-8.5-3.804687-8.5-8.5v-10.25c0-4.695313 3.804687-8.5 8.5-8.5h19c4.691406 0 8.5 3.804687 8.5 8.5v10.25c0 4.695313-3.808594 8.5-8.5 8.5zm0 0" fill="#ffa730"/><path d="m180.871094 171.359375v-10.25c0-4.695313 3.804687-8.5 8.5-8.5h-14c-4.695313 0-8.5 3.804687-8.5 8.5v10.25c0 4.695313 3.804687 8.5 8.5 8.5h14c-4.695313 0-8.5-3.804687-8.5-8.5zm0 0" fill="#e58d23"/><path d="m162.835938 232.542969-17.0625-8.363281c-4.214844-2.066407-5.957032-7.160157-3.890626-11.375l4.511719-9.203126c2.070313-4.214843 7.160157-5.957031 11.375-3.890624l17.058594 8.363281c4.21875 2.066406 5.957031 7.160156 3.890625 11.375l-4.511719 9.203125c-2.066406 4.214844-7.15625 5.957031-11.371093 3.890625zm0 0" fill="#a56021"/><path d="m169.234375 225.285156-7.859375-3.851562c-6.757812-3.3125-9.546875-11.472656-6.234375-18.230469s11.472656-9.546875 18.230469-6.238281l7.859375 3.855468c6.753906 3.3125 9.546875 11.472657 6.234375 18.230469-3.3125 6.757813-11.476563 9.546875-18.230469 6.234375zm0 0" fill="#ccc033"/><path d="m164.554688 213.527344 4.511718-9.203125c2.070313-4.214844 7.160156-5.957031 11.375-3.890625l-11.671875-5.722656c-4.214843-2.066407-9.308593-.324219-11.375 3.890624l-4.511719 9.203126c-2.066406 4.214843-.324218 9.308593 3.890626 11.375l11.671874 5.722656c-4.214843-2.066406-5.957031-7.160156-3.890624-11.375zm0 0" fill="#99af17"/><path d="m235.167969 201.410156c0-8.589844-7.023438-15.550781-15.6875-15.550781-8.664063 0-15.691407 6.960937-15.691407 15.550781s7.027344 15.550782 15.691407 15.550782c8.664062 0 15.6875-6.960938 15.6875-15.550782zm0 0" fill="#a56021"/><path d="m223.007812 292.160156h-204l39.796876 38.621094c6.355468 6.167969 16.027343 9.765625 26.257812 9.765625h275.894531c10.230469 0 19.902344-3.597656 26.257813-9.765625l39.796875-38.621094zm0 0" fill="#ffdf74"/><path d="m438.019531 292.160156h-430.019531c-4.417969 0-8-3.582031-8-8v-3.871094c0-4.417968 3.582031-8 8-8h430.015625c4.417969 0 8 3.582032 8 8v3.871094c.003906 4.417969-3.578125 8-7.996094 8zm0 0" fill="#ffdf74"/><path d="m427.011719 292.160156h-408.003907l11.386719 11.046875 28.410157 27.574219c6.355468 6.167969 16.027343 9.765625 26.257812 9.765625h38.292969c-10.230469 0-19.902344-3.597656-26.257813-9.765625l-28.410156-27.574219h346.9375zm0 0" fill="#ffd551"/><path d="m344.941406 335.113281c-5.351562 0-9.019531-.578125-9.433594-.648437-3.273437-.542969-5.480468-3.632813-4.9375-6.902344.539063-3.265625 3.621094-5.472656 6.886719-4.9375.234375.039062 23.792969 3.660156 37-9.816406 2.316407-2.367188 6.117188-2.40625 8.484375-.089844 2.367188 2.320312 2.40625 6.121094.085938 8.488281-11.554688 11.792969-27.878906 13.90625-38.085938 13.90625zm0 0" fill="#fcf9de"/><path d="m435.9375 52.609375h-186.464844v-27.648437h186.464844c5.523438 0 10 4.476562 10 10v7.648437c0 5.523437-4.476562 10-10 10zm0 0" fill="#ffc34c"/><path d="m436.605469 44.476562h-156.449219c-4.125 0-7.464844-2.910156-7.464844-6.503906v-13.011718h-23.21875v27.648437h187.132813c5.152343 0 9.332031-3.640625 9.332031-8.132813v-8.132812c0 4.492188-4.179688 8.132812-9.332031 8.132812zm0 0" fill="#f9bb32"/><path d="m256.953125 35.710938c0-14.632813-28.375-26.5-63.378906-26.5-35.007813 0-63.382813 11.867187-63.382813 26.5 0 14.636718 28.375 26.5 63.382813 26.5 35.003906 0 63.378906-11.863282 63.378906-26.5zm0 0" fill="#ffc34c"/><path d="m251.953125 35.710938c0-11.871094-26.136719-21.5-58.378906-21.5-32.246094 0-58.382813 9.628906-58.382813 21.5 0 11.875 26.136719 21.5 58.382813 21.5 32.242187 0 58.378906-9.625 58.378906-21.5zm0 0" fill="#f9bb32"/><path d="m146.523438 45.1875c-.03125.644531-.050782 1.296875-.054688 1.949219-.003906 3.078125.328125 6.085937.96875 8.992187h92.988281c.625-2.847656.957031-5.792968.960938-8.8125 0-.613281-.015625-1.226562-.039063-1.832031 1.464844-1.242187 2.371094-2.921875 2.375-4.777344.003906-2.003906-1.042968-3.808593-2.71875-5.078125.066406-.335937.097656-.683594.097656-1.039062.003907-2.316406-1.398437-4.371094-3.550781-5.628906.300781-.707032.46875-1.464844.46875-2.253907.007813-2.945312-2.253906-5.460937-5.445312-6.464843.019531-.203126.035156-.410157.035156-.617188.007813-3.28125-2.808594-6.035156-6.585937-6.75-.796876-2.109375-2.804688-3.789062-5.363282-4.511719-1.558594-1.585937-3.957031-2.605469-6.648437-2.609375-.945313-.003906-1.851563.121094-2.703125.351563-.863282-.316407-1.742188-.609375-2.632813-.882813-1.304687-2.457031-4.3125-4.183594-7.816406-4.191406-2.359375-.003906-4.496094.769531-6.039063 2.023438-.042968-.003907-.085937-.003907-.125-.003907-1.542968-1.257812-3.671874-2.039062-6.03125-2.042969-3.257812-.007812-6.09375 1.476563-7.53125 3.65625-1.214843.316407-2.40625.675782-3.582031 1.078126-.355469-.039063-.71875-.0625-1.085937-.0625-3.5-.003907-6.507813 1.703124-7.824219 4.148437-1.464844.859375-2.875 1.792969-4.226563 2.792969-2.886718.253906-5.34375 1.679687-6.628906 3.679687-3.933594.605469-6.914062 3.40625-6.917968 6.78125 0 .609375.09375 1.195313.273437 1.757813-1.746094 1.265625-2.851563 3.105468-2.855469 5.15625-.003906 1.015625.269532 1.984375.753906 2.855468-.148437.398438-.289062.800782-.425781 1.203126-2.765625 1.136718-4.667969 3.464843-4.675781 6.15625-.003906 1.953124.988281 3.714843 2.585938 4.976562zm0 0" fill="#fcf9de"/><path d="m208.117188 26.6875v-21.535156c0-2.925782-2.574219-5.253906-5.65625-5.1406252-34.988282 1.3085932-62.535157 15.4648432-62.535157 32.7382812 0 .863281.078125 1.714844.214844 2.5625v.003906 7.5c0 2.796875 1.957031 5.0625 4.371094 5.0625h.402343c2.417969 0 4.375-2.265625 4.375-5.0625v-4.445312c0-.984375.6875-1.78125 1.535157-1.78125h1.417969c.847656 0 1.535156.796875 1.535156 1.78125 0 2.789062 1.882812 5.1875 4.292968 5.230468 2.441407.042969 4.429688-2.234374 4.429688-5.050781 0-1.082031.757812-1.960937 1.691406-1.960937h2.207032c.933593 0 1.691406.878906 1.691406 1.960937v2.707031c0 2.789063 1.882812 5.1875 4.292968 5.230469 2.4375.046875 4.429688-2.234375 4.429688-5.046875v-.183594c0-2.578124 1.804688-4.667968 4.03125-4.667968h14.640625c2.226563 0 4.03125 2.089844 4.03125 4.667968 0 2.789063 1.882813 5.1875 4.289063 5.230469 2.441406.046875 4.429687-2.234375 4.429687-5.046875v-14.753906zm0 0" fill="#bf6c0d"/><path d="m162.453125 39.234375c-.246094.316406-.398437.730469-.398437 1.1875v.34375c.199218-.476563.335937-.988281.398437-1.53125zm0 0" fill="#a56021"/><path d="m152.6875 34.800781c0-15.957031 23.523438-29.257812 54.703125-32.21875-.980469-1.597656-2.835937-2.6484372-4.933594-2.5703122-34.984375 1.3085932-62.53125 15.4648432-62.53125 32.7343752 0 .867187.078125 1.71875.214844 2.566406v.003906 7.496094c0 2.796875 1.957031 5.066406 4.371094 5.066406h.402343c2.414063 0 4.375-2.269531 4.375-5.066406v-4.445312c0-.980469.6875-1.777344 1.535157-1.777344h1.417969c.199218 0 .394531.046875.570312.128906-.082031-.632812-.125-1.273438-.125-1.917969zm0 0" fill="#a56021"/><path d="m196.679688 35.222656-2.570313-6.675781c-1.585937-4.121094.464844-8.753906 4.589844-10.339844l10.195312-3.929687c-.050781.019531-.101562.03125-.152343.050781l-23.042969 8.878906c-4.125 1.585938-6.175781 6.21875-4.589844 10.339844l2.570313 6.675781c1.589843 4.121094 6.21875 6.175782 10.34375 4.589844l12.84375-4.949219c-4.082032 1.476563-8.617188-.570312-10.1875-4.640625zm0 0" fill="#99af17"/><path d="m222.066406 33.933594-23.042968 8.878906c-4.125 1.585938-8.753907-.46875-10.34375-4.589844l-2.570313-6.675781c-1.589844-4.121094.464844-8.753906 4.589844-10.339844l23.042969-8.878906c4.121093-1.585937 8.75.464844 10.339843 4.589844l2.570313 6.671875c1.589844 4.125-.464844 8.753906-4.585938 10.34375zm0 0" fill="#ccc033"/><path d="m193.574219 53.804688c-35.007813 0-63.382813-8.097657-63.382813-18.09375-.171875 1.070312-.273437 2.152343-.273437 3.246093 0 19.65625 28.4375 35.589844 63.519531 35.589844 35.078125 0 63.515625-15.933594 63.515625-35.589844 0-.714843-.054687-1.417969-.132813-2.121093-2.035156 9.46875-29.566406 16.96875-63.246093 16.96875zm0 0" fill="#ffc34c"/></svg>