<svg id="Capa_1" enable-background="new 0 0 512 512" height="512" viewBox="0 0 512 512" width="512" xmlns="http://www.w3.org/2000/svg"><g><g><g><g><path d="m471.452 330.447c-7.06 16.005-8.663 36.803-23.951 45.305-13.232 7.359-32.417 2.178-42.542 13.434-9.207 10.235-6.534 30.163-19.414 35.026-5.836 2.203-12.437-.096-18.575 1.016-13.689 2.482-20.391 20.456-34.104 22.801-8.943 1.529-18.231-4.265-26.918-1.651-5.767 1.735-9.818 6.768-14.745 10.231-17.49 12.293-41.28 3.143-61.1-4.868-37.87-15.307-77.889-25.279-118.507-29.578-8.557-.906-11.824-11.626-5.275-17.208 17.578-14.985 31.675-34.07 40.63-55.369 9.222-21.933 14.827-48.261 35.322-60.345 6.714-3.959 14.476-5.927 21.074-10.076 15.641-9.834 24.787-31.551 43.22-32.816 9.34-.641 18.22 4.584 27.582 4.642 22.437.137 40.415-28.595 61.737-21.61 9.532 3.123 15.776 12.803 25.293 15.972 12.484 4.157 25.514-4.092 38.635-5.07 23.094-1.722 41.108 18.418 61.457 29.475 12.454 6.767 24.227 8.073 36.461 8.471 9.816.319 13.037 13.408 4.523 18.304-2.065 1.188-3.98 2.344-5.504 3.531-10.554 8.216-19.839 18.006-25.299 30.383z" fill="#76873a"/></g><g><path d="m270.851 467.438c-11.889 0-24.395-4.178-33.961-7.818-.003-.001-.006-.002-.009-.003-2.923-1.112-5.796-2.264-8.591-3.394-37.468-15.145-76.901-24.987-117.204-29.253-6.878-.728-12.216-6.063-12.978-12.972-.293-2.653 1.62-5.042 4.274-5.334 2.657-.284 5.042 1.621 5.334 4.274.219 1.993 1.662 4.131 4.388 4.42 41.197 4.36 81.506 14.421 119.809 29.904 2.738 1.108 5.551 2.236 8.414 3.325.002 0 .003.001.005.002 8.792 3.346 20.206 7.184 30.519 7.184 6.926 0 12.673-1.674 17.573-5.117 1.423-1 2.811-2.19 4.282-3.45 3.278-2.809 6.993-5.993 11.85-7.454 1.996-.601 4.079-.893 6.369-.893 3.556 0 6.969.709 10.27 1.394 2.989.62 5.812 1.206 8.443 1.206.869 0 1.658-.063 2.413-.192 5.367-.918 9.811-5.359 14.516-10.061l.99-.987c1.893-1.882 4.953-1.874 6.835.018s1.875 4.953-.018 6.835l-.974.971c-5.307 5.303-11.322 11.315-19.719 12.751-1.299.223-2.622.33-4.043.33-3.623 0-7.072-.716-10.407-1.408-2.954-.613-5.743-1.192-8.306-1.192-1.333 0-2.505.158-3.585.483-2.901.872-5.545 3.139-8.344 5.537-1.579 1.353-3.211 2.752-5.014 4.02-6.491 4.561-14.274 6.874-23.131 6.874zm108.896-37.402c-2.623 0-4.775-2.097-4.831-4.732-.056-2.668 2.062-4.877 4.731-4.934 1.726-.036 3.058-.252 4.19-.68 4.806-1.814 6.636-7.056 9.079-15.474 1.868-6.439 3.801-13.096 8.448-18.262 6.973-7.751 16.817-8.973 26.337-10.154 6.466-.802 12.574-1.56 17.45-4.271 9.267-5.155 12.809-16.317 16.559-28.134 1.577-4.972 3.208-10.112 5.32-14.899 5.161-11.7 13.911-22.248 26.75-32.247 1.812-1.411 3.985-2.712 6.063-3.908 2.167-1.245 2.49-3.173 2.49-4.212 0-1.977-1.267-4.959-4.76-5.072-14.012-.456-25.94-2.17-38.611-9.055-2.486-1.351-5.098-2.917-7.987-4.787-.003-.002-.006-.003-.009-.005-3.437-2.225-6.851-4.613-10.152-6.922-13.453-9.412-26.079-18.286-40.641-17.186-4.415.329-8.916 1.598-13.681 2.943-5.757 1.624-11.71 3.304-17.805 3.304-3.231 0-6.187-.461-9.036-1.41-5.583-1.858-9.927-5.392-14.128-8.81-1.92-1.561-3.734-3.036-5.607-4.306-2.21-1.497-2.787-4.503-1.289-6.712 1.497-2.209 4.503-2.788 6.712-1.289 2.222 1.506 4.287 3.185 6.284 4.809 3.69 3.002 7.175 5.837 11.082 7.138 1.849.615 3.806.915 5.982.915 4.757 0 9.82-1.429 15.18-2.94 5.016-1.415 10.203-2.878 15.586-3.279 1.04-.078 2.098-.117 3.144-.117 16.566 0 30.389 9.67 43.757 19.022 3.227 2.257 6.562 4.591 9.849 6.719.005.003.01.006.016.009 2.683 1.737 5.09 3.181 7.358 4.414 11.001 5.977 21.673 7.476 34.311 7.887 8.045.262 14.111 6.596 14.111 14.734 0 5.243-2.743 9.95-7.338 12.592-1.773 1.02-3.6 2.108-4.943 3.154-11.545 8.991-19.345 18.321-23.845 28.522-1.9 4.308-3.382 8.976-4.95 13.92-4.155 13.096-8.452 26.638-21.074 33.658-6.518 3.626-13.859 4.536-20.958 5.417-8.468 1.051-15.781 1.958-20.34 7.026-3.168 3.522-4.714 8.85-6.352 14.492-2.472 8.518-5.274 18.17-14.948 21.823-2.192.828-4.544 1.241-7.401 1.301-.035-.002-.069-.002-.103-.002zm-257.356-36.201c-1.121 0-2.247-.388-3.161-1.179-2.018-1.747-2.237-4.8-.49-6.818 9.966-11.509 17.958-24.336 23.756-38.125 1.864-4.433 3.629-9.189 5.335-13.788 7.003-18.872 14.244-38.386 31.988-48.848 1.311-.772 2.724-1.517 4.323-2.279l.024-.012c2.107-1.002 4.248-1.896 6.318-2.76 3.691-1.54 7.176-2.996 10.292-4.953 5.435-3.417 10.297-8.734 15-13.875 8.434-9.222 17.157-18.758 30.462-19.671 5.713-.388 11.094 1.053 16.217 2.444 4.094 1.112 7.96 2.163 11.725 2.186 8.884 0 17.204-5.311 26.013-10.933 3.206-2.046 6.52-4.161 9.85-5.989 2.341-1.281 5.278-.426 6.562 1.913 1.284 2.34.427 5.278-1.913 6.562-3.049 1.672-6.085 3.61-9.298 5.661-9.591 6.122-19.508 12.452-31.084 12.452h-.189c-5.025-.031-9.69-1.298-14.201-2.524-4.577-1.244-8.819-2.422-13.022-2.128-9.446.647-16.511 8.372-23.99 16.55-5.136 5.616-10.447 11.423-16.988 15.534-3.795 2.387-7.821 4.066-11.714 5.691-2.059.859-4.005 1.671-5.904 2.575-.001.001-.002.001-.002.001-1.34.639-2.509 1.255-3.573 1.882-14.785 8.717-21.123 25.798-27.833 43.883-1.742 4.695-3.544 9.549-5.487 14.171-6.193 14.731-14.725 28.426-25.359 40.707-.957 1.104-2.303 1.67-3.657 1.67z" fill="#191e06"/></g></g><g><path d="m93.304 420.916c-2.103 0-4.038-1.384-4.644-3.506-.734-2.566.751-5.241 3.318-5.975 42.518-12.161 83.365-31.683 122.867-50.563 12.039-5.754 24.49-11.705 36.817-17.367 49.119-22.561 107.594-45.734 168.871-46.553 2.725-.041 4.861 2.099 4.897 4.768s-2.099 4.861-4.768 4.897c-59.474.795-116.766 23.534-164.966 45.672-12.26 5.632-24.676 11.565-36.682 17.304-39.861 19.051-81.079 38.752-124.377 51.135-.445.127-.893.188-1.333.188z" fill="#191e06"/></g><g><path d="m379.931 348.951c-.468 0-.944-.068-1.415-.213l-1.525-.464c-2.555-.772-4.001-3.469-3.228-6.024.771-2.556 3.464-4.004 6.024-3.228l1.557.474c2.553.78 3.989 3.482 3.208 6.035-.637 2.08-2.552 3.42-4.621 3.42zm-13.948-3.939c-.397 0-.801-.049-1.204-.153-17.81-4.567-34.234-6.787-50.207-6.787-9.194 0-18.25.702-27.685 2.144-2.642.411-5.105-1.408-5.508-4.046-.404-2.639 1.408-5.105 4.046-5.508 9.924-1.517 19.458-2.255 29.146-2.255 16.795 0 34.002 2.319 52.608 7.091 2.586.662 4.144 3.296 3.481 5.882-.559 2.181-2.523 3.632-4.677 3.632z" fill="#191e06"/></g><g><path d="m321.646 380.719c-.363 0-.732-.041-1.101-.127l-1.548-.357c-2.602-.594-4.231-3.185-3.637-5.787s3.187-4.229 5.787-3.637l1.592.367c2.599.607 4.216 3.205 3.61 5.805-.519 2.229-2.507 3.736-4.703 3.736zm-14.18-3.013c-.301 0-.606-.028-.913-.087l-1.568-.298c-2.623-.492-4.351-3.018-3.858-5.642.492-2.623 3.021-4.345 5.642-3.858l1.598.303c2.622.501 4.341 3.032 3.84 5.654-.441 2.316-2.467 3.928-4.741 3.928zm-14.286-2.463c-.243 0-.488-.018-.736-.056-26.171-3.995-53-5.187-79.281-3.51-2.645.168-4.961-1.852-5.131-4.516s1.853-4.961 4.516-5.131c7.925-.505 15.981-.761 23.944-.761 19.133 0 38.448 1.468 57.411 4.363 2.639.403 4.452 2.869 4.049 5.507-.367 2.391-2.426 4.104-4.772 4.104z" fill="#191e06"/></g><g><path d="m363.969 311.567c-1.317 0-2.629-.535-3.583-1.587-1.792-1.978-1.642-5.034.336-6.827 11.205-10.153 20.386-22.042 27.287-35.336 1.229-2.37 4.146-3.293 6.516-2.063 2.369 1.23 3.292 4.147 2.063 6.516-7.433 14.317-17.316 27.117-29.375 38.045-.926.839-2.087 1.252-3.244 1.252z" fill="#191e06"/></g><g><path d="m239.285 359.307c-1.219 0-2.437-.457-3.377-1.376-1.91-1.865-1.945-4.925-.08-6.834 18.581-19.022 36.481-39.155 53.201-59.839 1.677-2.076 4.719-2.398 6.797-.72 2.075 1.678 2.398 4.721.72 6.797-16.909 20.917-35.012 41.278-53.803 60.515-.948.97-2.203 1.457-3.458 1.457z" fill="#191e06"/></g><g><path d="m152.909 398.677c-1.285 0-2.568-.51-3.519-1.519-1.831-1.943-1.739-5.002.204-6.832 23.089-21.747 39.234-40.949 50.812-60.43 1.365-2.295 4.329-3.05 6.624-1.686s3.049 4.33 1.686 6.624c-12.051 20.277-28.732 40.146-52.494 62.527-.933.88-2.124 1.316-3.313 1.316z" fill="#191e06"/></g></g><g><g><g><path d="m396.86 137.268c.605 22.602 10.237 47.783-2.92 66.172-11.386 15.915-36.664 20.474-42.266 39.224-5.094 17.049 9.05 38.85-3.306 51.654-5.599 5.802-14.582 6.766-21.136 11.461-14.618 10.471-12.506 35.175-27.228 45.499-9.601 6.732-23.655 5.102-32.358 12.96-5.777 5.216-7.726 13.336-11.566 20.107-13.632 24.034-46.483 26.504-74.067 28.109-57.222 3.328-113.925 15.404-167.553 35.634-6.086 2.296-11.847-4.199-8.775-9.931 16.188-30.206 24.202-64.795 22.688-99.045-1.358-30.722-9.374-64.578 7.884-90.031 5.654-8.338 13.632-14.93 19.045-23.427 12.832-20.139 11.505-50.567 32.337-62.24 10.556-5.915 23.82-4.723 34.788-9.834 26.285-12.25 31.395-55.758 60.166-59.391 12.863-1.624 25.51 6.23 38.38 4.668 16.882-2.049 27.541-18.892 42.328-27.293 26.026-14.785 58.208-1.221 88.094.439 28.628 1.59 47.909-11.52 72.613-21.372 6.705 12.132-9.109 26.646-14.404 37.151-7.779 15.436-13.212 32.008-12.744 49.486z" fill="#95a843"/></g><g><path d="m11.922 453.393c-6.462 0-11.922-5.461-11.922-11.927 0-1.945.48-3.827 1.425-5.593 1.687-3.147 3.308-6.394 4.819-9.653l.006-.012c11.431-24.666 17.472-51.943 17.472-78.882 0-2.667-.059-5.36-.176-8.002-.276-6.238-.846-12.785-1.398-19.116-.809-9.291-1.646-18.897-1.646-28.253 0-2.136.044-4.222.131-6.2.117-2.667 2.404-4.725 5.041-4.616 2.667.117 4.733 2.374 4.616 5.041-.081 1.838-.122 3.781-.122 5.775 0 8.935.818 18.329 1.609 27.413.561 6.432 1.141 13.084 1.425 19.527.124 2.784.186 5.62.186 8.43 0 28.328-6.348 57.003-18.36 82.929-.002.006-.005.012-.008.017-1.591 3.432-3.298 6.852-5.075 10.166-.188.351-.279.688-.279 1.027 0 1.162 1.097 2.261 2.256 2.261.268 0 .548-.054.831-.161 29.515-11.134 60.215-19.891 91.249-26.027 2.619-.517 5.162 1.186 5.679 3.803.518 2.619-1.185 5.161-3.803 5.679-30.513 6.033-60.696 14.643-89.711 25.589-1.377.522-2.806.785-4.245.785zm124.781-31.633c-2.372 0-4.443-1.749-4.78-4.166-.369-2.643 1.475-5.086 4.119-5.455 15.121-2.111 30.495-3.628 45.691-4.512 24.258-1.41 57.481-3.342 70.145-25.667 1.141-2.013 2.118-4.201 3.152-6.516 1.284-2.874 2.611-5.846 4.345-8.645.002-.003.005-.007.007-.011 1.52-2.449 3.164-4.457 5.026-6.138 5.55-5.011 12.439-6.679 19.101-8.293 5.137-1.244 9.988-2.419 13.72-5.036 6.13-4.298 8.939-12.149 11.912-20.46 3.327-9.299 6.767-18.915 15.277-25.011 3.295-2.361 6.894-3.821 10.375-5.233 3.922-1.591 7.627-3.095 10.098-5.655.43-.446.828-.92 1.182-1.406 1.566-2.159 4.591-2.64 6.749-1.075 2.161 1.568 2.642 4.59 1.075 6.75-.617.85-1.307 1.672-2.05 2.443-3.895 4.035-8.737 6-13.42 7.901-3.094 1.255-6.017 2.442-8.38 4.135-6.056 4.338-8.848 12.144-11.805 20.409-3.352 9.368-6.818 19.055-15.464 25.118-5.23 3.667-11.21 5.115-16.995 6.516-5.743 1.391-11.168 2.704-14.898 6.073-1.182 1.067-2.259 2.397-3.295 4.068-.002.004-.004.007-.006.01-1.388 2.24-2.525 4.787-3.729 7.482-1.082 2.422-2.2 4.927-3.57 7.343-15.26 26.902-51.517 29.01-77.992 30.55-14.939.868-30.051 2.361-44.917 4.435-.225.031-.45.046-.673.046zm214.628-155.87c-2.365 0-4.431-1.737-4.777-4.146-.601-4.175-.868-7.363-.868-10.337 0-3.757.444-7.069 1.358-10.127 3.707-12.406 14.304-19.133 24.552-25.64 7.23-4.589 14.058-8.924 18.414-15.012 4.082-5.706 5.983-12.687 5.983-21.97 0-6.709-.947-13.684-1.95-21.068-.902-6.642-1.834-13.51-2.014-20.193-.072-2.668 2.033-4.889 4.703-4.961 2.654-.031 4.889 2.034 4.961 4.702.164 6.159 1.062 12.763 1.929 19.15 1.002 7.378 2.038 15.007 2.038 22.369 0 11.399-2.475 20.167-7.788 27.594-5.449 7.616-13.403 12.666-21.094 17.548-9.152 5.811-17.798 11.299-20.471 20.246-.642 2.147-.953 4.554-.953 7.36 0 2.496.238 5.26.769 8.961.381 2.642-1.454 5.092-4.095 5.472-.236.035-.468.052-.697.052zm-318.508-6.188c-.744 0-1.499-.172-2.206-.536-2.374-1.221-3.309-4.135-2.089-6.508 1.115-2.17 2.37-4.286 3.729-6.291 2.881-4.249 6.27-8.012 9.548-11.651 3.499-3.884 6.804-7.552 9.422-11.66 4.561-7.158 7.329-16.152 10.006-24.848 4.67-15.173 9.499-30.861 24.044-39.011 4.956-2.776 10.343-4.105 14.486-4.951.002-.001.006-.002.009-.002 1.775-.363 3.568-.684 5.362-1.004 5.49-.982 10.675-1.908 15.252-4.042 10.69-4.982 17.936-16.527 24.943-27.692 9.21-14.675 18.734-29.85 36.66-32.114 1.369-.172 2.799-.26 4.251-.26 5.804 0 11.371 1.366 16.755 2.687 5.049 1.239 9.82 2.409 14.46 2.409l.26-.002h.039c2.652 0 4.811 2.139 4.832 4.795.02 2.669-2.126 4.85-4.795 4.871l-.336.002c-5.809 0-11.378-1.366-16.764-2.688-5.047-1.239-9.815-2.409-14.45-2.409-1.049 0-2.073.062-3.041.184-13.382 1.69-21.3 14.305-29.682 27.661-7.753 12.353-15.77 25.127-29.047 31.315-5.718 2.666-11.776 3.748-17.635 4.795-1.715.307-3.429.613-5.127.96-.002 0-.006.001-.008.002-3.67.75-7.928 1.801-11.697 3.914-11.169 6.258-15.231 19.453-19.531 33.422-2.866 9.311-5.829 18.938-11.092 27.199-3.05 4.785-6.782 8.928-10.391 12.935-3.199 3.552-6.221 6.907-8.73 10.606-1.141 1.683-2.195 3.461-3.133 5.285-.858 1.67-2.55 2.627-4.304 2.627zm364.926-131.841c-.236 0-.475-.017-.715-.053-2.641-.392-4.463-2.85-4.072-5.49 1.733-11.686 5.766-23.695 12.329-36.713 1.587-3.148 3.874-6.406 6.295-9.856 4.274-6.089 9.112-12.983 9.219-18.568-3.858 1.641-7.619 3.342-11.292 5.005-15.085 6.824-29.333 13.271-47.093 14.554-.008.001-.016.001-.024.002-3.709.267-7.473.296-11.265.086-9.137-.508-18.482-2.095-27.52-3.63-11.007-1.869-21.404-3.634-31.471-3.634-10.596 0-19 1.971-26.449 6.202-5.096 2.895-9.702 6.911-14.578 11.164l-2.019 1.756c-2.019 1.748-5.071 1.528-6.817-.491-1.747-2.018-1.528-5.07.491-6.817l1.993-1.734c5.022-4.379 10.215-8.908 16.156-12.283 8.841-5.023 19.055-7.464 31.224-7.464 10.882 0 22.171 1.917 33.089 3.771 8.773 1.49 17.846 3.03 26.437 3.507 3.391.19 6.749.164 10.057-.076.004 0 .007-.001.011-.001 16.037-1.162 29.52-7.261 43.795-13.72 5.34-2.416 10.863-4.914 16.691-7.239l3.958-1.579 2.062 3.729c1.481 2.68 2.232 5.609 2.232 8.705 0 8.672-5.831 16.978-10.975 24.306-2.214 3.154-4.304 6.133-5.576 8.654-6.091 12.082-9.819 23.131-11.398 33.78-.356 2.402-2.42 4.127-4.775 4.127z" fill="#191e06"/></g></g><g><path d="m12.785 449.278c-1.342 0-2.677-.555-3.633-1.643-1.761-2.005-1.564-5.059.441-6.821 36.94-32.45 64.097-68.614 92.85-106.901 14.502-19.312 29.497-39.28 45.97-58.916 44.805-53.409 100.167-112.691 171.059-147.426 2.395-1.176 5.292-.184 6.466 2.214 1.174 2.397.183 5.292-2.214 6.466-69.273 33.942-123.751 92.324-167.906 144.959-16.305 19.435-31.222 39.299-45.646 58.508-29.061 38.697-56.509 75.249-94.199 108.358-.918.807-2.055 1.202-3.188 1.202z" fill="#191e06"/></g><g><path d="m183.169 250.422c-1.552 0-3.077-.747-4.01-2.129-1.494-2.212-.911-5.216 1.301-6.71 23.19-15.659 46.81-26.451 74.335-33.962 2.571-.706 5.233.813 5.935 3.39.703 2.575-.815 5.233-3.39 5.935-26.474 7.224-49.185 17.599-71.472 32.648-.828.56-1.769.828-2.699.828zm85.386-36.419c-2.207 0-4.199-1.521-4.708-3.764-.592-2.603 1.04-5.192 3.643-5.783l1.595-.358c2.603-.58 5.187 1.065 5.765 3.671s-1.065 5.187-3.671 5.765l-1.549.347c-.359.083-.72.122-1.075.122zm14.203-2.899c-2.288 0-4.321-1.631-4.748-3.962-.481-2.626 1.257-5.144 3.882-5.625l1.607-.29c2.627-.475 5.138 1.281 5.607 3.908.47 2.627-1.281 5.138-3.908 5.607l-1.563.282c-.295.054-.587.08-.877.08z" fill="#191e06"/></g><g><path d="m111.012 337.17c-1.701 0-3.35-.899-4.233-2.492-1.293-2.335-.448-5.276 1.886-6.57 25.863-14.325 49.639-26.041 72.688-35.815 2.458-1.042 5.295.105 6.336 2.562 1.042 2.457-.105 5.294-2.562 6.336-22.735 9.643-46.214 21.213-71.779 35.373-.74.411-1.544.606-2.336.606zm84.153-40.496c-1.921 0-3.737-1.152-4.492-3.046-.988-2.479.222-5.291 2.701-6.279l1.517-.601c2.487-.978 5.29.244 6.268 2.726.978 2.484-.243 5.29-2.726 6.268l-1.48.587c-.588.235-1.193.345-1.788.345zm13.544-5.182c-1.971 0-3.822-1.215-4.54-3.173-.917-2.507.371-5.282 2.878-6.2l1.525-.556c2.507-.908 5.281.382 6.195 2.889.912 2.509-.381 5.281-2.889 6.195l-1.507.55c-.55.2-1.11.295-1.662.295z" fill="#191e06"/></g><g><path d="m244.718 187.344c-.896 0-1.802-.249-2.612-.77-2.244-1.444-2.892-4.435-1.447-6.68 14.563-22.623 23.148-46.135 25.517-69.885.265-2.656 2.637-4.587 5.289-4.33 2.656.265 4.594 2.633 4.33 5.289-2.523 25.286-11.609 50.237-27.008 74.158-.924 1.435-2.48 2.218-4.069 2.218z" fill="#191e06"/></g><g><path d="m138.939 298.584c-.522 0-1.052-.085-1.572-.264-2.524-.869-3.866-3.619-2.998-6.143 8.661-25.164 16.508-50.974 23.325-76.716.684-2.58 3.333-4.12 5.909-3.434 2.58.683 4.118 3.329 3.434 5.909-6.876 25.967-14.793 52.003-23.528 77.386-.689 2.004-2.564 3.262-4.57 3.262zm26.657-89.529c-.392 0-.789-.047-1.186-.148-2.588-.653-4.157-3.28-3.504-5.868l.391-1.555c.65-2.59 3.28-4.161 5.864-3.512 2.59.649 4.162 3.274 3.513 5.863l-.396 1.569c-.552 2.191-2.521 3.651-4.682 3.651zm3.456-14.082c-.37 0-.747-.042-1.123-.132-2.597-.618-4.201-3.224-3.583-5.82l.373-1.567c.618-2.597 3.225-4.2 5.82-3.583 2.597.618 4.201 3.224 3.583 5.82l-.373 1.567c-.527 2.22-2.51 3.715-4.697 3.715z" fill="#191e06"/></g><g><path d="m59.813 392.351c-.586 0-1.182-.108-1.76-.334-2.486-.972-3.712-3.777-2.739-6.262 11.118-28.408 18.576-53.326 22.798-76.179.485-2.625 3.007-4.358 5.631-3.875 2.625.485 4.36 3.006 3.875 5.631-4.335 23.465-11.958 48.961-23.303 77.946-.747 1.908-2.571 3.073-4.502 3.073zm25.111-89.788c-.219 0-.441-.015-.664-.046-2.645-.363-4.494-2.801-4.131-5.446l.211-1.57c.348-2.647 2.78-4.506 5.421-4.163 2.646.348 4.51 2.774 4.163 5.421l-.219 1.627c-.332 2.422-2.404 4.177-4.781 4.177zm1.559-14.417c-.126 0-.253-.005-.381-.015-2.661-.207-4.651-2.532-4.443-5.193l.118-1.579c.19-2.663 2.494-4.673 5.167-4.474 2.663.191 4.666 2.505 4.474 5.167l-.123 1.637c-.196 2.532-2.314 4.457-4.812 4.457z" fill="#191e06"/></g></g><g><path d="m64.417 392.491c-1.772 0-3.383-.95-4.238-2.497-.628-1.128-.773-2.433-.418-3.674.354-1.241 1.176-2.272 2.303-2.9 25.406-14.064 52.391-25.487 80.197-33.913.467-.145.935-.209 1.402-.209 2.142 0 4.011 1.37 4.623 3.431.773 2.546-.677 5.252-3.222 6.026-27.145 8.232-53.486 19.38-78.312 33.123-.724.404-1.53.613-2.335.613z" fill="#191e06"/></g></g></svg>