<?xml version="1.0" encoding="iso-8859-1"?>
<!-- Generator: Adobe Illustrator 19.0.0, SVG Export Plug-In . SVG Version: 6.00 Build 0)  -->
<svg version="1.1" id="Capa_1" xmlns="http://www.w3.org/2000/svg" xmlns:xlink="http://www.w3.org/1999/xlink" x="0px" y="0px"
	 viewBox="0 0 512 512" style="enable-background:new 0 0 512 512;" xml:space="preserve">
<g>
	<path style="fill:#302A27;" d="M178.717,502.34c-55.33,0-62.792-53.717-62.792-106.264c0-69.97,43.394-158.942,69.265-205.766
		c3.188-5.743,6.294-11.206,9.322-16.423c20.369-34.913,9.747-67.903-0.377-86.943h-5.758c-4.164,0.005-7.859-2.657-9.177-6.603
		l-7.443-22.378h-12.36c-5.337,0-9.66-4.323-9.66-9.66V19.321c0-5.337,4.323-9.66,9.66-9.66h193.208c5.337,0,9.66,4.323,9.66,9.66
		v28.981c0,5.337-4.323,9.66-9.66,9.66h-12.36L332.8,80.341c-1.319,3.946-5.014,6.608-9.177,6.603h-5.753
		c-10.143,19.026-20.746,52.021-0.391,86.905c4.956,8.477,10.351,18.137,16.012,28.706c23.388,44.042,62.585,127.691,62.585,193.521
		c0,52.548-7.463,106.264-62.792,106.264H178.717z"/>
	<path style="fill:#302A27;" d="M352.604,19.321v28.981h-19.321l-9.66,28.981h-11.399c-10.626,17.872-28.257,58.3-3.091,101.434
		c5.12,8.743,10.433,18.306,15.843,28.402c30.14,56.755,61.44,131.574,61.44,188.957c0,67.623-14.491,96.604-53.132,96.604H178.717
		c-38.642,0-53.132-28.981-53.132-96.604c0-61.585,36.082-143.215,68.057-201.081c3.14-5.7,6.231-11.109,9.226-16.278
		c25.165-43.134,7.535-83.562-3.091-101.434h-11.399l-3.188-9.564l-6.472-19.417h-19.321V19.321H352.604 M352.604,0H159.396
		c-10.67,0-19.321,8.651-19.321,19.321v28.981c0,10.67,8.651,19.321,19.321,19.321h5.395l2.067,6.207l3.188,9.564
		c2.603,7.81,9.868,13.114,18.099,13.211c11.602,22.91,10.863,50.128-1.966,72.376c-3.69,6.357-6.69,11.67-9.462,16.693
		c-26.305,47.626-70.453,138.269-70.453,210.403c0,34.69,0,115.925,72.453,115.925h154.566c72.453,0,72.453-81.234,72.453-115.925
		c0-29.16-8.274-93.657-63.696-198.038c-5.796-10.815-11.245-20.586-16.234-29.102c-12.814-22.238-13.549-49.437-1.951-72.332
		c8.231-0.097,15.495-5.4,18.099-13.211l5.255-15.771h5.395c10.67,0,19.321-8.651,19.321-19.321V19.321
		C371.925,8.651,363.274,0,352.604,0z"/>
</g>
<path style="fill:#725247;" d="M386.415,396.075c0,67.623-14.491,96.604-53.132,96.604H178.717
	c-38.642,0-53.132-28.981-53.132-96.604c0-61.585,36.082-143.215,68.057-201.081c41.346,10.482,87.861,27.049,131.333,12.124
	C355.115,263.873,386.415,338.693,386.415,396.075z"/>
<g>
	<polygon style="fill:#D94B58;" points="352.604,19.321 352.604,48.302 333.283,48.302 178.717,48.302 159.396,48.302 
		159.396,19.321 	"/>
	<polygon style="fill:#D94B58;" points="333.283,48.302 323.623,77.283 312.223,77.283 199.777,77.283 188.377,77.283 
		185.189,67.719 178.717,48.302 	"/>
</g>
<path style="fill:#FFFFFF;" d="M309.132,178.717c5.12,8.743,10.433,18.306,15.843,28.402
	c-43.472,14.925-89.986-1.642-131.333-12.124c3.14-5.7,6.231-11.109,9.226-16.278c25.165-43.134,7.535-83.562-3.091-101.434h112.447
	C301.597,95.155,283.967,135.583,309.132,178.717z"/>
<g style="opacity:0.12;">
	<path style="fill:#302A27;" d="M386.415,396.075c0,67.623-14.491,96.604-53.132,96.604H178.717
		c-28.546,0-43.906-15.795-49.992-51.345c2.125,0.048,4.299,0.193,6.376,0.435c26.373,2.898,50.862,14.78,76.414,22.074
		c25.552,7.294,55.064,9.226,76.8-6.038c8.598-6.038,16.568-14.877,27.097-14.925c6.472-0.048,12.462,3.381,18.886,4.251
		c15.457,2.029,29.464-12.172,32.362-27.532s-2.56-30.961-9.177-45.114s-14.587-28.015-17.147-43.375
		c-3.478-20.48,2.898-42.023-2.753-61.971c-9.66-33.908-49.992-51.49-60.909-85.011c-7.583-23.33,0.966-49.123-3.864-73.177
		c-1.671-6.038-2.898-12.187-3.671-18.403c-0.121-5.173,0.613-10.332,2.174-15.263h40.912c-10.626,17.872-28.257,58.3-3.091,101.434
		C342.943,236.679,386.415,328.453,386.415,396.075z"/>
	<path style="fill:#302A27;" d="M333.283,497.509H178.717c-30.889,0-48.287-17.592-54.755-55.359
		c-0.242-1.425,0.164-2.879,1.106-3.97c0.942-1.096,2.28-1.676,3.763-1.676c2.275,0.053,4.603,0.208,6.83,0.469
		c17.939,1.971,35.096,7.999,51.688,13.829c8.342,2.927,16.959,5.96,25.494,8.395c21.118,6.028,50.862,9.989,72.704-5.342
		c1.927-1.357,3.826-2.864,5.733-4.371c6.743-5.333,14.379-11.385,24.112-11.428c0.068,0,0.126,0,0.188,0
		c4.386,0,8.322,1.237,12.129,2.434c2.526,0.792,4.917,1.541,7.245,1.86c12.94,1.729,24.6-11.095,26.967-23.644
		c2.777-14.742-3.251-30.28-8.81-42.168c-1.285-2.744-2.618-5.482-3.951-8.216c-5.608-11.486-11.404-23.364-13.582-36.415
		c-1.652-9.723-1.198-19.577-0.763-29.102c0.522-11.38,1.019-22.137-1.874-32.343c-4.574-16.056-16.654-28.295-29.45-41.255
		c-12.631-12.795-25.687-26.03-31.406-43.573c-4.42-13.592-3.714-27.778-3.024-41.496c0.56-11.264,1.092-21.905-0.981-32.222
		c-1.647-5.893-2.927-12.317-3.729-18.756c-0.019-0.159-0.034-0.324-0.039-0.488c-0.126-5.714,0.681-11.375,2.396-16.828
		c0.633-2.024,2.492-3.391,4.603-3.391h40.912c1.734,0,3.338,0.932,4.197,2.439c0.86,1.507,0.84,3.362-0.048,4.854
		c-11.192,18.833-26.469,56.417-3.072,96.531c18.287,31.348,77.945,139.834,77.945,219.798
		C391.245,468.123,374.451,497.509,333.283,497.509z M134.656,446.58c6.27,28.846,19.683,41.269,44.061,41.269h154.566
		c28.991,0,48.302-15.606,48.302-91.774c0-77.544-58.653-184.112-76.626-214.924c-23.132-39.656-12.249-76.829-0.918-99.038h-29.039
		c-0.754,3.304-1.106,6.685-1.043,10.085c0.744,5.888,1.922,11.762,3.507,17.461c2.391,11.844,1.802,23.586,1.237,34.946
		c-0.671,13.438-1.304,26.126,2.565,38.028c5.004,15.374,16.703,27.228,29.087,39.777c13.085,13.254,26.614,26.962,31.87,45.399
		c3.323,11.723,2.768,23.774,2.232,35.429c-0.43,9.433-0.84,18.345,0.642,27.064c1.942,11.675,7.182,22.412,12.732,33.773
		c1.362,2.787,2.719,5.569,4.028,8.361c6.173,13.206,12.839,30.599,9.549,48.056c-3.236,17.147-19.258,33.864-37.738,31.425
		c-3.164-0.43-6.062-1.338-8.863-2.217c-3.294-1.038-6.352-2.014-9.361-1.99c-6.414,0.029-12.129,4.55-18.176,9.342
		c-2.053,1.628-4.101,3.246-6.178,4.709c-24.958,17.524-57.764,13.336-80.906,6.733c-8.815-2.517-17.577-5.598-26.049-8.574
		C167.352,454.014,151.494,448.44,134.656,446.58z"/>
	<path style="fill:#302A27;" d="M333.283,48.302l-9.66,28.981H188.377l-3.188-9.564c0.217-0.101,0.444-0.184,0.676-0.242
		c24.537-7.487,66.898,0.966,92.788,1.932c4.917,0.444,9.873,0.101,14.684-1.014c10.192-2.995,15.36-12.027,22.798-18.403
		c0.676-0.58,1.352-1.159,2.077-1.691H333.283z"/>
	<path style="fill:#302A27;" d="M323.623,82.113H188.377c-2.077,0-3.927-1.328-4.584-3.304l-3.188-9.564
		c-0.778-2.328,0.314-4.864,2.536-5.902c0.493-0.232,1.005-0.415,1.541-0.551c18.099-5.526,44.882-2.782,68.507-0.357
		c9.395,0.961,18.263,1.874,25.643,2.145c4.676,0.415,9.1,0.111,13.413-0.894c5.511-1.628,9.593-5.985,13.916-10.597
		c2.13-2.275,4.333-4.627,6.83-6.767c0.758-0.657,1.531-1.309,2.352-1.913c0.836-0.609,1.84-0.937,2.869-0.937h15.07
		c1.55,0,3.009,0.744,3.922,2.009c0.908,1.261,1.154,2.879,0.662,4.352l-9.66,28.981C327.55,80.785,325.704,82.113,323.623,82.113z
		 M296.453,72.453h23.687l6.439-19.321h-6.685c-0.203,0.174-0.406,0.348-0.609,0.522c-2.101,1.797-4.028,3.859-6.076,6.038
		C308.779,64.435,303.79,69.758,296.453,72.453z M191.86,72.453h64.333c-1.314-0.135-2.647-0.27-3.99-0.406
		c-20.91-2.145-44.38-4.55-60.817-1.005L191.86,72.453z"/>
	<path style="fill:#302A27;" d="M352.604,19.321v28.981H159.396v-5.217c3.859-1.005,7.806-1.652,11.786-1.932
		c26.011-1.579,52.113-0.691,77.959,2.657c11.293,1.976,22.731,2.995,34.198,3.043c16.051-1.386,31.816-5.096,46.805-11.013
		c2.41-0.662,4.651-1.831,6.569-3.429c2.768-3.777,4.086-8.424,3.719-13.09C340.432,19.321,352.604,19.321,352.604,19.321z"/>
	<path style="fill:#302A27;" d="M352.604,53.132H159.396c-2.666,0-4.83-2.164-4.83-4.83v-5.217c0-2.203,1.488-4.125,3.618-4.676
		c4.149-1.077,8.405-1.778,12.66-2.077c26.286-1.604,52.823-0.691,78.92,2.686c11.206,1.956,22.441,2.956,33.599,3.004
		c15.162-1.328,30.449-4.927,45.008-10.675c0.159-0.063,0.328-0.121,0.497-0.164c1.565-0.43,3.009-1.14,4.299-2.116
		c1.845-2.753,2.719-6.057,2.459-9.371c-0.101-1.343,0.357-2.666,1.27-3.656c0.908-0.99,2.193-1.55,3.536-1.55h12.172
		c2.671,0,4.83,2.164,4.83,4.83v28.981C357.434,50.968,355.275,53.132,352.604,53.132z M323.299,43.472h24.475V24.151h-2.676
		c-0.546,3.995-2.082,7.82-4.492,11.109c-0.232,0.319-0.502,0.609-0.807,0.86c-2.396,1.995-5.13,3.439-8.12,4.304
		C328.912,41.515,326.115,42.53,323.299,43.472z"/>
</g>
<g>
	<path style="fill:#302A27;" d="M333.283,497.509H178.717c-41.168,0-57.962-29.387-57.962-101.434
		c0-68.879,43.018-157.01,68.656-203.414c3.159-5.729,6.265-11.172,9.274-16.365c23.417-40.139,8.134-77.713-3.062-96.541
		c-1.362-2.294-0.609-5.255,1.681-6.622c2.285-1.367,5.255-0.609,6.622,1.681c12.283,20.654,29.02,61.938,3.115,106.337
		c-2.971,5.13-6.043,10.506-9.168,16.176c-20.287,36.709-67.458,129.551-67.458,198.748c0,76.167,19.311,91.774,48.302,91.774
		h154.566c28.991,0,48.302-15.606,48.302-91.774c0-62.691-38.139-143.877-60.875-186.692c-5.589-10.419-10.887-19.925-15.751-28.223
		c-25.899-44.399-9.168-85.683,3.111-106.341c1.357-2.299,4.328-3.048,6.617-1.686c2.294,1.362,3.048,4.328,1.686,6.622
		c-11.192,18.833-26.469,56.417-3.072,96.531c4.922,8.4,10.279,18.012,15.935,28.556c23.161,43.617,62.01,126.449,62.01,191.232
		C391.245,468.123,374.451,497.509,333.283,497.509z"/>
	<path style="fill:#302A27;" d="M323.623,82.113H188.377c-2.077,0-3.927-1.328-4.584-3.304l-9.66-28.981
		c-0.845-2.531,0.522-5.265,3.053-6.11c2.536-0.855,5.27,0.526,6.11,3.053l8.564,25.682h128.285l8.559-25.677
		c0.84-2.526,3.56-3.908,6.11-3.053c2.526,0.845,3.898,3.579,3.053,6.11l-9.66,28.981C327.55,80.785,325.704,82.113,323.623,82.113z
		"/>
	<path style="fill:#302A27;" d="M352.604,53.132H159.396c-2.666,0-4.83-2.164-4.83-4.83V19.321c0-2.666,2.164-4.83,4.83-4.83
		h193.208c2.671,0,4.83,2.164,4.83,4.83v28.981C357.434,50.968,355.275,53.132,352.604,53.132z M164.226,43.472h183.547V24.151
		H164.226V43.472z"/>
	<path style="fill:#302A27;" d="M287.251,217.87c-26.754,0-53.538-7.197-78.133-13.8c-5.632-1.512-11.192-3.009-16.664-4.395
		c-2.589-0.657-4.149-3.285-3.497-5.869c0.652-2.584,3.27-4.149,5.869-3.497c5.516,1.396,11.119,2.903,16.799,4.429
		c37.101,9.97,75.472,20.277,111.78,7.81c2.541-0.874,5.279,0.478,6.139,3c0.869,2.521-0.478,5.27-2.995,6.139
		C313.634,216.122,300.443,217.87,287.251,217.87z"/>
	<g style="opacity:0.24;">
		<circle style="fill:#302A27;" cx="222.189" cy="289.811" r="9.66"/>
		<circle style="fill:#302A27;" cx="193.208" cy="338.113" r="9.66"/>
		<circle style="fill:#302A27;" cx="246.34" cy="367.094" r="9.66"/>
	</g>
</g>
<g>
</g>
<g>
</g>
<g>
</g>
<g>
</g>
<g>
</g>
<g>
</g>
<g>
</g>
<g>
</g>
<g>
</g>
<g>
</g>
<g>
</g>
<g>
</g>
<g>
</g>
<g>
</g>
<g>
</g>
</svg>
