<svg id="Capa_1" enable-background="new 0 0 512 512" height="512" viewBox="0 0 512 512" width="512" xmlns="http://www.w3.org/2000/svg" xmlns:xlink="http://www.w3.org/1999/xlink"><linearGradient id="SVGID_1_" gradientUnits="userSpaceOnUse" x1="26.062" x2="285.074" y1="140.206" y2="280.504"><stop offset="0" stop-color="#ffc538"/><stop offset="1" stop-color="#fcf3b3"/></linearGradient><g><path d="m425.612 231.747.013-.001-144.005-149.939c-13.609-14.17-36.523-13.332-49.061 1.795l-152.788 184.393c-30.443 40.707-21.417 86.426 29.813 116.003 70.07 40.455 192.464 35.382 273.374-11.332 70.552-40.733 86.246-99.672 42.654-140.919z" fill="url(#SVGID_1_)"/><path d="m232.608 365.302c0 2.303-1.867 4.171-4.171 4.171-2.303 0-4.171-1.867-4.171-4.171 0-2.303 1.867-4.171 4.171-4.171s4.171 1.867 4.171 4.171z" fill="#ffb02d"/><path d="m386.26 260.38c0 2.303-1.867 4.171-4.17 4.171s-4.171-1.867-4.171-4.171c0-2.303 1.867-4.171 4.171-4.171s4.17 1.867 4.17 4.171z" fill="#ffb02d"/><circle cx="291.654" cy="282.33" fill="#ffb02d" r="4.171"/><path d="m188.488 299.012c0 2.303-1.867 4.171-4.171 4.171-2.303 0-4.17-1.867-4.17-4.171 0-2.303 1.867-4.171 4.17-4.171 2.304.001 4.171 1.868 4.171 4.171z" fill="#ffb02d"/><path d="m135.149 356.961c0 2.303-1.867 4.171-4.171 4.171-2.303 0-4.171-1.867-4.171-4.171 0-2.303 1.867-4.171 4.171-4.171s4.171 1.868 4.171 4.171z" fill="#ffb02d"/><path d="m349.603 192.773c0 2.303-1.867 4.171-4.171 4.171-2.303 0-4.171-1.867-4.171-4.171s1.867-4.171 4.171-4.171c2.304.001 4.171 1.868 4.171 4.171z" fill="#ffb02d"/><path d="m268.607 163.14c0 2.303-1.867 4.171-4.171 4.171-2.303 0-4.17-1.867-4.17-4.171s1.867-4.171 4.17-4.171c2.303.001 4.171 1.868 4.171 4.171z" fill="#ffb02d"/><path d="m245.998 227.894c0 2.303-1.867 4.17-4.171 4.17s-4.171-1.867-4.171-4.17 1.867-4.171 4.171-4.171 4.171 1.867 4.171 4.171z" fill="#ffb02d"/><path d="m184.318 184.432c0 2.303-1.867 4.17-4.17 4.17s-4.171-1.867-4.171-4.17 1.867-4.171 4.171-4.171c2.303.001 4.17 1.868 4.17 4.171z" fill="#ffb02d"/><path d="m94.761 294.842c0 2.303-1.867 4.171-4.171 4.171-2.303 0-4.17-1.867-4.17-4.171 0-2.303 1.867-4.171 4.17-4.171 2.304 0 4.171 1.867 4.171 4.171z" fill="#ffb02d"/><path d="m155.344 245.673c0 2.303-1.867 4.171-4.171 4.171s-4.171-1.867-4.171-4.171 1.867-4.171 4.171-4.171 4.171 1.868 4.171 4.171z" fill="#ffb02d"/><path d="m245.998 109.363c0 2.303-1.867 4.17-4.171 4.17s-4.171-1.867-4.171-4.17 1.867-4.171 4.171-4.171 4.171 1.867 4.171 4.171z" fill="#ffb02d"/><path d="m353.773 342.035c0 2.303-1.867 4.171-4.171 4.171-2.303 0-4.171-1.867-4.171-4.171 0-2.303 1.867-4.17 4.171-4.17 2.304-.001 4.171 1.866 4.171 4.17z" fill="#ffb02d"/><g fill="#f7e041"><path d="m236.768 432.921c-3.226 1.863-3.577 4.681-.783 6.294s7.675 1.411 10.901-.452c3.227-1.863 3.577-4.681.783-6.294s-7.674-1.41-10.901.452z"/><path d="m120.942 195.027c-2.523 1.457-2.797 3.661-.612 4.923s6.002 1.103 8.526-.354c2.523-1.457 2.797-3.661.612-4.923-2.186-1.262-6.003-1.103-8.526.354z"/><path d="m468.337 262.266c-2.523 1.457-2.797 3.661-.612 4.922 2.185 1.262 6.003 1.103 8.526-.353 2.523-1.457 2.797-3.661.612-4.922-2.186-1.262-6.003-1.104-8.526.353z"/><path d="m387.888 171.144c-1.777 1.026-1.97 2.577-.431 3.466 1.539.888 4.226.777 6.003-.249 1.776-1.026 1.969-2.577.431-3.466-1.539-.888-4.227-.777-6.003.249z"/><path d="m51.412 367.188c-2.523 1.457-2.798 3.661-.612 4.923 2.185 1.262 6.003 1.103 8.526-.353 2.523-1.457 2.797-3.661.612-4.922-2.186-1.263-6.003-1.105-8.526.352z"/><path d="m204.72 429.096c-2.523 1.457-2.798 3.661-.612 4.922 2.185 1.262 6.003 1.104 8.526-.353s2.798-3.661.612-4.922c-2.186-1.262-6.003-1.104-8.526.353z"/><path d="m90.804 211.645c-2.523 1.457-2.797 3.661-.612 4.922 2.186 1.262 6.003 1.104 8.526-.353s2.797-3.661.612-4.923c-2.185-1.261-6.002-1.103-8.526.354z"/><path d="m18.803 288.387c-2.523 1.457-2.798 3.661-.612 4.922 2.185 1.262 6.003 1.104 8.526-.353s2.798-3.661.612-4.922c-2.186-1.262-6.003-1.104-8.526.353z"/><path d="m411.92 185.682c-3.227 1.863-3.577 4.681-.783 6.294s7.675 1.411 10.901-.452 3.577-4.681.783-6.294-7.675-1.411-10.901.452z"/><path d="m467.234 215.471c-3.227 1.863-3.577 4.681-.783 6.294s7.675 1.411 10.901-.452 3.577-4.681.783-6.294c-2.793-1.613-7.674-1.411-10.901.452z"/><path d="m44.265 266.091c-3.227 1.863-3.577 4.681-.783 6.294s7.675 1.411 10.901-.452 3.577-4.681.783-6.294-7.675-1.41-10.901.452z"/><path d="m3.93 348.489c-4.751 2.743-5.267 6.892-1.153 9.267s11.301 2.078 16.052-.665 5.267-6.892 1.152-9.268c-4.113-2.375-11.3-2.077-16.051.666z"/><path d="m493.171 298.882c-4.751 2.743-5.267 6.892-1.152 9.268 4.114 2.375 11.301 2.078 16.052-.665s5.267-6.892 1.152-9.268-11.302-2.078-16.052.665z"/><path d="m68.64 417.543c-3.227 1.863-3.577 4.681-.783 6.294s7.675 1.411 10.901-.452 3.577-4.681.783-6.294-7.674-1.411-10.901.452z"/></g></g></svg>