<svg id="Two_tone" height="512" viewBox="0 0 64 64" width="512" xmlns="http://www.w3.org/2000/svg"><path d="m25 5.387v21.438c0 1.201.974 2.175 2.175 2.175 1.024 0 1.904-.707 2.123-1.707.57-2.61 2.095-7.293 5.702-7.293 5 0 9 4 9-3 0-4.477 4.5-6.5 7.743-7.376 1.92-.519 3.257-2.248 3.257-4.237 0-2.423-1.964-4.387-4.387-4.387h-21.226c-2.423 0-4.387 1.964-4.387 4.387z" fill="#ff8939"/><path d="m55 5.39c0 1.99-1.34 3.71-3.26 4.23-3.24.88-7.74 2.9-7.74 7.38 0 7-4 3-9 3-3.61 0-5.13 4.68-5.7 7.29-.22 1-1.1 1.71-2.12 1.71-1.21 0-2.18-.97-2.18-2.18v-1.99c.65-.26 1.14-.82 1.3-1.54.57-2.61 2.09-7.29 5.7-7.29 5 0 9 4 9-3 0-4.48 4.5-6.5 7.74-7.38 1.92-.52 3.26-2.24 3.26-4.23 0-.05 0-.11-.01-.16.66.21 1.25.57 1.73 1.05.79.8 1.28 1.9 1.28 3.11z" fill="#ff6c1a"/><path d="m28 8.571v-2.973c0-.883.715-1.598 1.598-1.598h3.538c1.491 0 2.17 1.862 1.028 2.821l-3.538 2.973c-1.04.873-2.626.134-2.626-1.223z" fill="#ffb888"/><path d="m10 23 .925 37.001c.041 1.644-1.28 2.999-2.925 2.999-1.645 0-2.966-1.355-2.925-2.999l.925-37.001z" fill="#ffd4b8"/><path d="m10.93 60c.03 1.37-.87 2.53-2.12 2.88.09-.28.13-.57.12-.88l-.91-36.04c-.01-.53-.45-.96-.98-.96h-1.09l.05-2h4z" fill="#bf9f8a"/><path d="m11 23h-6c-1.105 0-2-.895-2-2 0-1.105.895-2 2-2h6c1.105 0 2 .895 2 2 0 1.105-.895 2-2 2z" fill="#ff8939"/><path d="m11 11h-6c-1.105 0-2-.895-2-2 0-1.105.895-2 2-2h6c1.105 0 2 .895 2 2 0 1.105-.895 2-2 2z" fill="#ffb888"/><path d="m13 19h-10c-1.105 0-2-.895-2-2 0-1.105.895-2 2-2h10c1.105 0 2 .895 2 2 0 1.105-.895 2-2 2z" fill="#ffb888"/><path d="m13 15h-10c-1.105 0-2-.895-2-2 0-1.105.895-2 2-2h10c1.105 0 2 .895 2 2 0 1.105-.895 2-2 2z" fill="#ff8939"/><path d="m53 24c0-1.657-3-6-3-6s-3 4.343-3 6 1.343 3 3 3 3-1.343 3-3z" fill="#ff8939"/><path d="m61 57v1.34c0 1.06-.42 2.08-1.17 2.83l-.66.66c-.75.75-1.77 1.17-2.83 1.17h-34.68c-1.06 0-2.08-.42-2.83-1.17l-.66-.66c-.75-.75-1.17-1.77-1.17-2.83v-1.34z" fill="#ff8939"/><path d="m61 57v1.34c0 1.06-.42 2.08-1.17 2.83l-.66.66c-.75.75-1.77 1.17-2.83 1.17h-34.68c-1.06 0-2.08-.42-2.83-1.17l-.66-.66c-.08-.08-.15-.16-.22-.24.23.05.47.07.71.07h34.68c1.06 0 2.08-.42 2.83-1.17l.66-.66c.59-.59.98-1.35 1.11-2.17z" fill="#ff6c1a"/><path d="m61 25v32h-44v-32h8v1.82c0 1.21.97 2.18 2.18 2.18 1.02 0 1.9-.71 2.12-1.71.14-.67.35-1.47.64-2.29h17.24c.4 1.17 1.51 2 2.82 2s2.42-.83 2.82-2z" fill="#ffd4b8"/><path d="m61 25v32h-44v-5h31.522c4.13 0 7.478-3.348 7.478-7.478v-19.522z" fill="#bf9f8a"/><path d="m61 24.66v.34h-8.18c.12-.31.18-.65.18-1 0-1.66-3-6-3-6s-3 4.34-3 6c0 .35.06.69.18 1h-17.24c.84-2.4 2.37-5 5.06-5 5 0 9 4 9-3 0-1.16.3-2.15.8-3h11.2v2.34c0 1.06.42 2.08 1.17 2.83l2.66 2.66c.75.75 1.17 1.77 1.17 2.83z" fill="#ffb888"/><path d="m60 9v3c0 1.1-.9 2-2 2h-2-11.2c1.44-2.45 4.54-3.73 6.94-4.38 1.37-.37 2.45-1.36 2.95-2.62h3.31c1.1 0 2 .9 2 2z" fill="#bf9f8a"/><path d="m52 38.31v4.62l-4 2.07-4-2.07v-4.62l4-2.31z" fill="#ff8939"/><path d="m42 45.31v4.62l-4 2.07-4-2.07v-4.93l3.97-2.06.03.06z" fill="#ffb888"/><path d="m42 31.31v4.62l-4 2.07-3.97-2.06-.03-.01v-4.62l4-2.31z" fill="#ff8939"/><path d="m38 38v4.93l-.03.01-3.97 2.06-3.97-2.06-.03-.01v-4.62l4-2.31.03-.06z" fill="#ffb888"/><path d="m34 45v4.93l-4 2.07-4-2.07v-4.62l4-2.31.03-.06z" fill="#ff8939"/><path d="m25 14v11h-8v-.34c0-1.06.42-2.08 1.17-2.83l2.66-2.66c.75-.75 1.17-1.77 1.17-2.83v-2.34z" fill="#ffb888"/><path d="m25 7v7h-3-2c-1.1 0-2-.9-2-2v-3c0-1.1.9-2 2-2z" fill="#bf9f8a"/><path d="m20.435 33.828v-2.856c0-.561.455-1.015 1.015-1.015h2.086c.269 0 .528.107.718.297l.661.661c.428.428.389 1.133-.084 1.511l-2.747 2.195c-.665.532-1.649.059-1.649-.793z" fill="#bf9f8a"/><g fill="#78411b"><path d="m20.121 18.464-2.656 2.657c-.944.945-1.465 2.201-1.465 3.536v33.687c0 1.335.521 2.591 1.464 3.535l.657.658c.944.943 2.2 1.463 3.536 1.463h34.686c1.336 0 2.592-.52 3.537-1.465l.655-.657c.944-.944 1.465-2.2 1.465-3.535v-33.686c0-1.335-.521-2.591-1.465-3.535l-2.656-2.657c-.559-.559-.879-1.332-.879-2.122v-1.343h1c1.654 0 3-1.346 3-3v-3c0-1.654-1.346-3-3-3h-2.052c.024-.203.052-.405.052-.613 0-2.97-2.416-5.387-5.387-5.387h-21.226c-2.971 0-5.387 2.417-5.387 5.387v.613h-4c-1.654 0-3 1.346-3 3v3c0 1.654 1.346 3 3 3h1v1.343c0 .79-.32 1.563-.879 2.121zm38.999 42.001-.655.657c-.567.566-1.32.878-2.122.878h-34.686c-.802 0-1.556-.312-2.121-.878l-.657-.658c-.559-.558-.879-1.331-.879-2.121v-.343h42v.343c0 .79-.32 1.563-.88 2.122zm-2.655-40.587 2.656 2.657c.401.401.674.915.799 1.464h-5.92c0-1.874-2.646-5.8-3.177-6.568-.375-.541-1.271-.541-1.646 0-.531.769-3.177 4.695-3.177 6.569h-14.565c.762-1.588 1.904-3 3.565-3 1.369 0 2.707.34 3.888.641 1.774.451 3.449.876 4.693-.089.981-.763 1.419-2.167 1.419-4.552 0-.741.155-1.403.42-2h9.58v1.343c0 1.335.521 2.591 1.465 3.535zm-4.465 4.122c0 1.103-.897 2-2 2s-2-.897-2-2c0-.662.934-2.474 2-4.179 1.067 1.704 2 3.516 2 4.179zm3.312-16h2.688c.552 0 1 .449 1 1v3c0 .551-.448 1-1 1h-11.037c1.389-1.187 3.304-1.941 5.041-2.411 1.443-.39 2.614-1.349 3.308-2.589zm-29.312-2.613c0-1.867 1.52-3.387 3.387-3.387h21.227c1.866 0 3.386 1.52 3.386 3.387 0 1.525-1.035 2.871-2.518 3.271-5.469 1.479-8.482 4.441-8.482 8.342 0 2.149-.405 2.785-.646 2.973-.473.367-1.687.057-2.973-.271-1.295-.329-2.762-.702-4.381-.702-3.169 0-5.541 2.869-6.679 8.08-.119.542-.59.92-1.146.92-.648 0-1.175-.527-1.175-1.175zm1.176 24.613c1.504 0 2.778-1.025 3.099-2.494.09-.409.221-.935.395-1.506h15.887c.694 1.19 1.97 2 3.444 2s2.75-.81 3.444-2h6.555v30h-42v-30h6v.825c0 1.751 1.425 3.175 3.176 3.175zm-8.176-18v-3c0-.551.448-1 1-1h4v5h-4c-.552 0-1-.449-1-1zm5 3v9h-5.92c.125-.549.397-1.063.799-1.464l2.656-2.657c.944-.944 1.465-2.2 1.465-3.535v-1.344z"/><path d="m43 42.928c0 .374.208.716.54.888l4 2.072c.145.075.302.112.46.112s.315-.037.46-.112l4-2.072c.332-.172.54-.515.54-.888v-4.618c0-.357-.19-.688-.5-.866l-4-2.31c-.309-.179-.691-.179-1 0l-4 2.31c-.31.179-.5.509-.5.866zm2-4.041 3-1.732 3 1.732v3.433l-3 1.554-3-1.554z"/><path d="m25.54 50.816 4 2.072c.145.075.302.112.46.112s.315-.037.46-.112l3.54-1.833 3.54 1.834c.145.074.302.111.46.111s.315-.037.46-.112l4-2.072c.332-.172.54-.515.54-.888v-4.618c0-.357-.19-.688-.5-.866l-3.5-2.022v-3.814l3.46-1.792c.332-.172.54-.515.54-.888v-4.618c0-.357-.19-.688-.5-.866l-4-2.31c-.309-.179-.691-.179-1 0l-4 2.31c-.31.179-.5.509-.5.866v4.113l-3.5 2.021c-.31.179-.5.509-.5.866v4.113l-3.5 2.021c-.31.179-.5.509-.5.866v4.619c0 .373.208.716.54.887zm15.46-1.496-3 1.554-3-1.554v-3.711l2.909-1.506 3.091 1.784zm-6-17.433 3-1.732 3 1.732v3.433l-3 1.554-3-1.554zm-4 7 3.091-1.785 2.909 1.506v3.711l-3 1.554-3-1.554zm-4 7 3.091-1.785 2.909 1.506v3.711l-3 1.554-3-1.554z"/><path d="m30 14c.553 0 1-.448 1-1v-4c0-.552-.447-1-1-1s-1 .448-1 1v4c0 .552.447 1 1 1z"/><path d="m30 19c.553 0 1-.448 1-1v-1c0-.552-.447-1-1-1s-1 .448-1 1v1c0 .552.447 1 1 1z"/><path d="m38 11c.553 0 1-.448 1-1v-2c0-.552-.447-1-1-1s-1 .448-1 1v2c0 .552.447 1 1 1z"/><path d="m38 15c.553 0 1-.448 1-1v-1c0-.552-.447-1-1-1s-1 .448-1 1v1c0 .552.447 1 1 1z"/><path d="m2 21c0 1.646 1.332 2.983 2.974 2.997l-.899 35.979c-.026 1.067.369 2.075 1.114 2.839.746.764 1.744 1.185 2.811 1.185s2.065-.421 2.811-1.185c.745-.764 1.141-1.772 1.114-2.839l-.899-35.979c1.642-.014 2.974-1.351 2.974-2.997 0-.395-.081-.77-.22-1.116 1.275-.346 2.22-1.501 2.22-2.884 0-.771-.301-1.468-.78-2 .48-.532.78-1.229.78-2 0-1.383-.945-2.539-2.22-2.884.139-.346.22-.721.22-1.116 0-1.654-1.346-3-3-3h-6c-1.654 0-3 1.346-3 3 0 .395.081.77.22 1.116-1.275.345-2.22 1.501-2.22 2.884 0 .771.301 1.468.78 2-.479.532-.78 1.229-.78 2 0 1.383.945 2.539 2.22 2.884-.139.346-.22.721-.22 1.116zm7.379 40.419c-.732.749-2.025.749-2.758 0-.365-.375-.56-.87-.546-1.393l.901-36.026h2.049l.9 36.026c.013.523-.181 1.018-.546 1.393zm1.621-39.419h-6c-.552 0-1-.449-1-1s.448-1 1-1h6c.552 0 1 .449 1 1s-.448 1-1 1zm-6-14h6c.552 0 1 .449 1 1s-.448 1-1 1h-6c-.552 0-1-.449-1-1s.448-1 1-1zm-2 4h10c.552 0 1 .449 1 1s-.448 1-1 1h-10c-.552 0-1-.449-1-1s.448-1 1-1zm0 4h10c.552 0 1 .449 1 1s-.448 1-1 1h-10c-.552 0-1-.449-1-1s.448-1 1-1z"/><path d="m57 36c.553 0 1-.448 1-1v-6c0-.552-.447-1-1-1s-1 .448-1 1v6c0 .552.447 1 1 1z"/><path d="m57 41c.553 0 1-.448 1-1v-1c0-.552-.447-1-1-1s-1 .448-1 1v1c0 .552.447 1 1 1z"/></g></svg>