<?xml version="1.0" encoding="iso-8859-1"?>
<!-- Generator: Adobe Illustrator 19.0.0, SVG Export Plug-In . SVG Version: 6.00 Build 0)  -->
<svg version="1.1" id="Capa_1" xmlns="http://www.w3.org/2000/svg" xmlns:xlink="http://www.w3.org/1999/xlink" x="0px" y="0px"
	 viewBox="0 0 464 464" style="enable-background:new 0 0 464 464;" xml:space="preserve">
<g>
	<path style="fill:#763A02;" d="M16,0h448v32H16C7.163,32,0,24.837,0,16S7.163,0,16,0z"/>
	<path style="fill:#763A02;" d="M16,64h448v32H16C7.163,96,0,88.837,0,80S7.163,64,16,64z"/>
</g>
<path style="fill:#E47700;" d="M168,424h128v40H168V424z"/>
<path style="fill:#FDB62F;" d="M48,280c0,83.947,68.053,152,152,152h64c83.947,0,152-68.053,152-152H48z"/>
<path style="fill:#FCE9CC;" d="M64,280c0-17.673,14.327-32,32-32c0-17.673,14.327-32,32-32c0-17.673,14.327-32,32-32
	c0-17.673,14.327-32,32-32c0-13.255,10.745-24,24-24h32c13.255,0,24,10.745,24,24c17.673,0,32,14.327,32,32
	c17.673,0,32,14.327,32,32c17.673,0,32,14.327,32,32c17.673,0,32,14.327,32,32H64z"/>
<g>
	<path style="fill:#A65A14;" d="M128,240h16v16h-16V240z"/>
	<path style="fill:#A65A14;" d="M184,208h16v16h-16V208z"/>
	<path style="fill:#A65A14;" d="M272,224h16v16h-16V224z"/>
	<path style="fill:#A65A14;" d="M248,176h16v16h-16V176z"/>
	<path style="fill:#A65A14;" d="M216,152h16v16h-16V152z"/>
	<path style="fill:#A65A14;" d="M232,240h16v16h-16V240z"/>
	<path style="fill:#A65A14;" d="M328,240h16v16h-16V240z"/>
</g>
<g>
</g>
<g>
</g>
<g>
</g>
<g>
</g>
<g>
</g>
<g>
</g>
<g>
</g>
<g>
</g>
<g>
</g>
<g>
</g>
<g>
</g>
<g>
</g>
<g>
</g>
<g>
</g>
<g>
</g>
</svg>
