<svg id="Layer_1" enable-background="new 0 0 74 74" height="512" viewBox="0 0 74 74" width="512" xmlns="http://www.w3.org/2000/svg"><g><path d="m61.1 36.1-1.6.8-1.8.9-3.2 1.5-1 .5-2.9 1.2-1.3.6-4 1.9c-2.3-1.3-4.6-2.9-6.5-4.9-2.2-2.3-3.2-6-2.4-9.5.2-.7.4-1.4.7-2 .3-.8.8-1.6 1.3-2.3.2-.3.5-.5.7-.8s.5-.5.8-.7c1-.8 2-1.3 3.1-1.7.8-.3 1.5-.4 2.3-.5 3.1-.4 6.3.6 8.3 2.6 3.5 3.7 5.9 8.2 7.5 12.4z" fill="#e19041"/><g fill="#a1541c"><path d="m54.5 39.2c0 .1-.1.1-.2.2-.2.2-.5.3-.8.3h-.1c-.2 0-.5-.1-.6-.3-.6-.6-1.2-1.1-1.9-1.7-1.9-1.7-3.9-3.4-5.1-5.9-.8-1.6-1.6-2.1-2.8-2.8-1.3-.7-2.9-1.6-4.7-4.1 0 0 0 0-.1-.1.2-.3.5-.5.7-.8s.5-.5.8-.7c.1.1.3.2.3.3 1.4 2.1 2.7 2.7 3.9 3.4 1.3.7 2.7 1.5 3.8 3.8 1 2.1 2.8 3.6 4.5 5.2.7.6 1.4 1.2 2 1.8.5.4.5 1 .3 1.4z"/><path d="m50.6 41c-.1.2-.2.3-.3.4-.2.2-.5.3-.7.3-.1 0-.2 0-.3 0-.2-.1-.4-.2-.5-.3-.8-.9-1.7-1.8-2.8-2.6-2-1.5-3.6-3.3-5.1-5.1s-2.9-3.5-4.6-4.4c.2-.7.4-1.4.7-2 .2 0 .3 0 .5.1 2 1.2 3.5 3 5.1 5 1.4 1.7 2.9 3.4 4.7 4.7 1.3.9 2.3 1.9 3.2 2.9.2.2.2.7.1 1z"/><path d="m59.5 36.8c0 .2-.1.4-.2.6-.2.3-.6.5-.9.5-.2 0-.4-.1-.6-.2 0 0-.1-.1-.1-.1-3.8-2.6-5.3-4.7-6.4-6.5-.2-.3-.4-.6-.5-.9-1.4-2.3-2.7-4.5-7.4-7.6-.3-.2-.5-.6-.5-.9.8-.3 1.5-.4 2.3-.5 4.7 3.2 6.1 5.6 7.5 8 .2.3.3.6.5.9 1 1.7 2.4 3.6 5.9 5.9.2.1.4.5.4.8z"/></g><path d="m67.7 33.3s0 .4-.1 1.2c-.2 1.4-.5 3.7-1.2 6.6-.4 1.5-.9 3.1-1.5 4.8-1.6 4.3-4 9-7.8 12.8-2.2 2.2-5.8 3.1-9.2 2.4-.8-.2-1.6-.4-2.3-.7-.7-.3-1.4-.7-2-1.2-.3-.3-.7-.5-1-.8s-.5-.5-.7-.8c-.8-.9-1.3-1.9-1.7-3-.4-1-.5-2.1-.6-3.1-.1-2.9.8-5.7 2.7-7.5 4.2-4.2 9.5-6.7 14.2-8.3 1.9-.6 3.7-1.1 5.3-1.4 1.2-.3 2.3-.4 3.1-.6 1.8-.3 2.8-.4 2.8-.4z" fill="#d2772e"/><path d="m67.7 33.3s0 .4-.1 1.2c-2.4 1.7-3 2.9-3.6 4-.6 1.3-1.3 2.6-3.8 4.2-1.4.9-2.6 2.3-3.9 3.8-1.8 2-3.6 4.1-6.2 5.3-1.7.8-2.2 1.7-2.9 3s-1.5 2.8-3.6 4.4c-.3-.3-.7-.5-1-.8s-.5-.5-.7-.8c1.9-1.4 2.6-2.7 3.3-3.9.8-1.4 1.6-2.9 4-4 2.2-1 3.8-2.9 5.4-4.8 1.3-1.5 2.7-3.1 4.3-4.2 2-1.3 2.5-2.2 3-3.3s1.1-2.3 3-3.8c1.8-.2 2.8-.3 2.8-.3z" fill="#a1541c"/><path d="m66.4 41.2c-.4 1.5-.9 3.1-1.5 4.8-.6.5-1.4.9-2.2 1.3-2.2.9-4 3-5.2 4.6-1.5 2.1-3.5 3.7-5.4 5.3-1.6 1.4-3.2 2.6-4.2 4.1-.8-.2-1.6-.4-2.3-.7 1.2-2 3.1-3.5 5-5.1 1.8-1.5 3.6-3 5-4.9 1.3-1.8 3.5-4.2 6.2-5.3 2-.8 3-2.1 3.9-3.4.1-.5.4-.7.7-.7z" fill="#a1541c"/><path d="m61.8 34.2c-.1.2-.2.4-.3.5-.6.5-1.3 1-1.9 1.5-1.1.8-2.3 1.7-3.1 2.8-2.8 4.1-5 5.8-7 6.9-.3.2-.6.4-.9.6-2.4 1.4-4.8 2.8-8.1 7.8 0 .1-.1.1-.2.2-.4-1-.5-2.1-.6-3.1 3.1-4.1 5.4-5.5 7.7-6.8.3-.2.6-.4.9-.5 1.8-1.1 3.8-2.5 6.3-6.2.6-.9 1.3-1.6 2-2.2 1.9-.7 3.7-1.1 5.2-1.5z" fill="#a1541c"/><g><g><g><g><g><g><g><g><path d="m26 6.6h-11.8c-1.1 0-1.9.9-1.9 1.9v6.4c0 1.1.9 1.9 1.9 1.9h11.8c1.1 0 1.9-.9 1.9-1.9v-6.3c.1-1.1-.8-2-1.9-2z" fill="#d8d8d8"/></g></g><g><g fill="#325b75"><path d="m25 11.5v5.6c0 .4-.3.7-.7.7s-.7-.3-.7-.7v-5.6c0-.4.3-.7.7-.7.4-.1.7.3.7.7z"/><path d="m22.1 6.6v5.6c0 .4-.3.7-.7.7s-.7-.3-.7-.7v-5.6z"/><path d="m14.8 6.6h1.4v5.6c0 .4-.3.7-.7.7s-.7-.3-.7-.7z"/><path d="m19.2 11.5v5.6c0 .4-.3.7-.7.7s-.7-.3-.7-.7v-5.6c0-.4.3-.7.7-.7.3-.1.7.3.7.7z"/></g></g></g></g><g><g><path d="m25.9 16.9c0 4.4 1.8 7.5 5.1 9.7 2 1.3 2.9 3.5 2.9 5.7v28.1c0 3.9-3.2 7.1-7.1 7.1h-13.5c-3.9 0-7.1-3.2-7.1-7.1v-28.1c0-2.2.9-4.4 3-5.7 3.1-2.1 5-5.2 5-9.7" fill="#ececec"/></g></g><g><g><g><path d="m31 26.6c-1.9-1.3-3.3-2.9-4.1-4.8h-13.6c-.9 2-2.2 3.6-4.1 4.8-2 1.4-3 3.5-3 5.7v28.1c0 3.9 3.2 7.1 7.1 7.1h13.5c3.9 0 7.1-3.2 7.1-7.1v-28.1c0-2.2-.9-4.4-2.9-5.7z" fill="#f3b139"/></g></g></g></g><path d="m27.8 31.4h-3.3c0-1.9-1.6-3.5-3.5-3.5s-3.5 1.6-3.5 3.5h-3.3c-1.1 0-1.9.9-1.9 1.9v27c0 1.1.9 1.9 1.9 1.9h13.5c1.1 0 1.9-.9 1.9-1.9v-27c.1-1-.7-1.9-1.8-1.9z" fill="#e7f0ef"/></g></g><path d="m24.2 48.7c0 1.7-1.4 3.2-3.2 3.2-1.7 0-3.2-1.4-3.2-3.2 0-1.7 3.2-6.8 3.2-6.8s3.2 5 3.2 6.8z" fill="#e19041"/></g></g></svg>