<svg height="512" viewBox="0 0 60 61" width="512" xmlns="http://www.w3.org/2000/svg"><g id="Page-1" fill="none" fill-rule="evenodd"><g id="057---Bean" fill-rule="nonzero"><g id="Icons" transform="translate(1 1)"><path id="Shape" d="m57.88 19.28c-1.2 13.56-10.88 37.29-40.6 39.72-.44 0-.87 0-1.3 0-8.33300631-.0097489-15.26336474-6.413696-15.93-14.72-.05-.42-.05-.84-.05-1.28 0 .57.45 11.95 18 11 17.34-1 30-11 39.88-34.72z" fill="#008a00"/><path id="Shape" d="m52.2 30.89c-4.61 12.46-15.58 26.19-37.71 28 .49 0 1 .07 1.49.07h1.3c29.72-2.39 39.4-26.12 40.6-39.68-1.6425882 3.9877174-3.5398339 7.8657143-5.68 11.61z" fill="#007900"/><path id="Shape" d="m58 17.67c0 .52-.06 1.06-.11 1.61-9.89 23.72-22.55 33.72-39.89 34.72-17.55 1-18-10.41-18-11 .00030258-7.8405083 5.68209583-14.525718 13.42-15.79-.6207045 1.2404148-.5544998 2.7138491.1749481 3.8935986.7294478 1.1797495 2.018004 1.8973948 3.4050519 1.8964014h.35c8.05-.68 11-4.73 12.55-7.71 1.1113131-2.2356738 1.8220719-4.6488691 2.1-7.13.0509174-1.4118263-.6466821-2.7458054-1.8352522-3.5094462-1.18857-.7636409-2.6918131-.8436747-3.9547478-.2105538 1.3131851-8.40010007 8.9667652-14.30621421 17.425342-13.44678663 8.4585767.85942758 14.7678395 8.18422629 14.364658 16.67678663z" fill="#60a917"/><path id="Shape" d="m42.67 1c-.7243129-.02347956-1.4493822.0032511-2.17.08 8.4776295.79100049 14.8507924 8.08277789 14.5 16.59 0 .52-.06 1.06-.11 1.61-9.89 23.72-22.55 33.72-39.89 34.72h-.54c1.1792476.0595931 2.3607524.0595931 3.54 0 17.34-1 30-11 39.88-34.72 0-.55.09-1.09.11-1.61.1815028-4.242785-1.3311441-8.38368214-4.2047102-11.51046725-2.8735662-3.12678511-6.872298-4.98292996-11.1152898-5.15953275z" fill="#549414"/><path id="Shape" d="m32 18.16c-.2822143 2.4783274-.9963377 4.8880708-2.11 7.12-1.53 3-4.5 7-12.55 7.71h-.34c-1.3852684-.0024701-2.6706432-.7215044-3.3976823-1.9006519-.7270391-1.1791474-.7922285-2.650524-.1723177-3.8893481.42-.07.86-.12 1.3-.16 6.13-.49 8.28-3 9.58-5.4.8551748-1.6635085 1.4263733-3.458221 1.69-5.31.0259947-.6336424.0927999-1.2649508.2-1.89 1.2637573-.6380485 2.770644-.5605675 3.9622953.2037331 1.1916514.7643005 1.8905425 2.1015597 1.8377047 3.5162669z" fill="#ffeb3a"/></g><g id="Icons_copy" fill="#000"><path id="Shape" d="m0 44.45v.91c.7521874 8.8336136 8.13443183 15.6252785 17 15.64h1.38c31.62-2.59 41.04-28.79 41.62-42.29.4114519-9.38884062-6.8661594-17.33354751-16.255-17.74499964s-17.3335477 6.86615904-17.745 16.25499964c-.2544056 1.7433918-.7950143 3.4327938-1.6 5-1.23 2.27-3.14 4.43-8.78 4.88-8.80775121.7173199-15.59717983 8.0631166-15.62 16.9zm18.2 14.55c-5.1610735.3733649-10.15014734-1.9397512-13.2-6.12 2.93 2.11 6.94 3.18 12 3.18.69 0 1.4 0 2.14-.06 16.34-.91 28.07-9.59 37.32-27.87-3.79 12.98-14.46 28.92-38.26 30.87zm-2.4-29.9c6.65-.53 9-3.45 10.38-5.93.9345798-1.811198 1.5502447-3.7698244 1.82-5.79 0-.41.06-.82.11-1.22.3223955-.1074367.6601775-.1614818 1-.16.7976348.0286059 1.5509898.3738812 2.09337.9594265.5423802.5855454.8290687 1.3630853.79663 2.1605735-.2757126 2.3318735-.9523354 4.59856-2 6.7-1.42 2.78-4.19 6.53-11.66 7.18h-.34c-.9442978-.0097681-1.8288784-.4635963-2.3875875-1.2249358s-.726324-1.741313-.4524125-2.6450642zm-2.8.44c-.0251074.2927961-.0251074.5872039 0 .88.2188376 2.596196 2.3946135 4.5892068 5 4.58h.43c8.55-.73 11.72-5.06 13.36-8.25 1.1762812-2.3665912 1.9244839-4.9226683 2.21-7.55.0540839-1.328033-.422824-2.622949-1.3253617-3.5986655-.9025377-.9757164-2.156423-1.5519282-3.4846383-1.6013345-.2130653-.0151222-.4269347-.0151222-.64 0 1.815467-6.48504716 7.7156695-10.97655082 14.45-11h.59c3.984728.15331772 7.7444053 1.88698307 10.4483096 4.8179327 2.7039042 2.9309496 4.1294628 6.8179217 3.9616904 10.8020673 0 .46-.05.94-.1 1.42-9.42 22.51-21.43 32.96-38.96 33.96-6.22.34-10.88-.85-13.81-3.56-1.74522463-1.5890286-2.85692033-3.7555921-3.13-6.1-.15673423-6.8707357 4.37584465-12.9691146 11-14.8z"/></g></g></g></svg>