<svg clip-rule="evenodd" fill-rule="evenodd" height="512" stroke-linejoin="round" stroke-miterlimit="2" viewBox="0 0 356 356" width="512" xmlns="http://www.w3.org/2000/svg"><g id="Exp-2.-Fl"><g><path d="m154.459 315.163c20.277-6.501 27.186-50.424 15.887-87.531-11.299-37.106-2.531-78.502-27.626-125.117-17.595-32.683-51.109-56.111-80.767-41.796-23.695 11.437-27.722 55.521-15.459 85.403 12.264 29.882-.619 47.731 8.199 74.521 8.818 26.791 19.208 27.339 29.764 51.226 10.555 23.887 33.048 55.143 70.002 43.294z" fill="#de6565"/><path d="m152.483 222.377c7.762-6.548 4.661-35.213-5.273-57.378-9.935-22.166-11.893-49.452-29.027-75.992-12.014-18.608-29.549-29.445-40.238-16.821-8.541 10.086-4.189 38.508 5.163 55.979 9.351 17.471 6.309 30.326 13.764 46.25s11.966 15.027 19.762 28.903c7.797 13.876 21.705 30.993 35.849 19.059z" fill="#f4717b"/><path d="m296.744 41.993c21.206 8.615 25.044 56.253 9.92 95.107-15.123 38.854-9.087 83.935-39.77 131.859-21.513 33.601-59.336 55.99-89.961 38.238-24.468-14.183-25.205-61.759-9.634-92.791s3.212-51.208 14.839-79.207c11.628-27.998 22.808-27.742 36.061-52.488 13.254-24.745 39.9-56.418 78.545-40.718z" fill="#f36d6d"/><path d="m302.471 45.601c16.048 14.251 17.836 56.449 4.193 91.499-15.123 38.854-9.087 83.935-39.77 131.859-21.513 33.601-59.336 55.99-89.961 38.238-12.039-6.978-18.332-22.039-19.766-39.237 3.191 7.137 7.816 12.929 14.002 16.52 29.757 17.276 66.508-4.513 87.411-37.213 29.814-46.639 23.949-90.511 38.644-128.323 9.814-25.255 11.41-54.323 5.247-73.343z" fill="#e25b5b"/><g fill="#1c3d57"><path d="m298.313 38.133c-41.06-16.682-69.705 16.32-83.787 42.611-6.412 11.972-12.344 17.879-18.057 24.196-6.163 6.814-12.112 14.052-18.179 28.661-6.041 14.548-5.936 27.05-6.258 39.96-.296 11.881-1.011 24.137-8.457 38.976-9.742 19.417-13.345 45.046-9.172 65.636 2.928 14.442 9.701 26.404 20.44 32.629 16.539 9.587 35.021 8.483 52.273.298 16.621-7.886 32.094-22.412 43.287-39.894 15.669-24.474 21.997-48.208 26.304-70.798 4.167-21.855 6.368-42.6 13.84-61.797 9.389-24.121 11.656-51.52 7.275-71.501-3.172-14.471-9.975-25.103-19.509-28.977zm-3.137 7.72c7.432 3.02 12.033 11.763 14.506 23.042 4.087 18.64 1.859 44.19-6.901 66.693-7.651 19.658-9.993 40.88-14.26 63.26-4.127 21.645-10.122 44.413-25.137 67.864-10.32 16.119-24.515 29.588-39.84 36.859-14.694 6.971-30.436 8.186-44.522.021-8.836-5.122-14.042-15.191-16.451-27.075-3.831-18.899-.49-42.42 8.452-60.242 8.125-16.193 9.016-29.542 9.34-42.506.298-11.936.037-23.521 5.623-36.972 5.561-13.389 11.015-20.022 16.663-26.267 6.097-6.74 12.381-13.077 19.223-25.851 12.427-23.201 37.071-53.546 73.304-38.826z"/><path d="m171.174 213.458c-6.501-33.981-2.425-71.383-24.785-112.918-9.182-17.054-22.556-31.657-37.464-40.166-15.515-8.855-32.678-11.181-48.783-3.407-10.469 5.053-17.652 15.735-21.408 29.015-5.335 18.865-3.791 42.968 3.906 61.722 5.844 14.241 5.642 25.622 5.084 36.627-.61 12.032-1.584 23.655 3.011 37.615 4.616 14.022 9.642 21.178 14.896 27.952 4.844 6.247 9.921 12.128 15.014 23.655 11.265 25.492 35.651 58.222 75.086 45.578 6.646-2.131 12.206-7.56 16.262-15.443 1.052-2.045.246-4.559-1.799-5.612-2.045-1.052-4.559-.246-5.611 1.799-2.905 5.647-6.636 9.794-11.396 11.32-34.475 11.054-55.072-18.725-64.919-41.01-5.462-12.36-10.858-18.696-16.052-25.394-4.784-6.168-9.362-12.683-13.565-25.451-4.224-12.831-3.165-23.527-2.604-34.587.613-12.087.721-24.572-5.698-40.213-7.019-17.104-8.462-39.085-3.596-56.29 3.045-10.768 8.523-19.681 17.011-23.778 13.553-6.542 27.975-4.312 41.03 3.14 13.662 7.797 25.843 21.249 34.257 36.878 21.875 40.633 17.578 77.29 23.938 110.534.432 2.259 2.617 3.742 4.875 3.31 2.259-.432 3.742-2.617 3.31-4.876z"/><path d="m281.109 109.147c2.129 10.338-.744 20.246-4.039 31.628-3.591 12.402-7.784 26.395-8.019 43.995-.03 2.299 1.812 4.191 4.111 4.222 2.3.03 4.191-1.812 4.222-4.111.269-20.18 6.093-35.376 9.705-48.964 2.633-9.907 4.121-19.034 2.182-28.451-.464-2.252-2.669-3.704-4.922-3.24-2.252.464-3.704 2.669-3.24 4.921z"/><path d="m147.513 236.837c2.474-8.643 1.737-17.257-.018-26.679-2.392-12.839-6.723-27.323-5.557-46.034.143-2.295-1.604-4.274-3.899-4.418-2.295-.143-4.275 1.604-4.418 3.9-1.021 16.373 1.888 29.674 4.352 41.454 2.246 10.74 4.217 20.088 1.529 29.484-.633 2.211.648 4.52 2.859 5.153 2.211.632 4.52-.649 5.152-2.86z"/><path d="m214.477 153.654c-1.894-.064-3.893.61-5.774 1.905-2.914 2.005-5.643 5.668-7.048 7.639-6.89 9.669-11.104 21.23-11.903 33.066-.155 2.294 1.582 4.283 3.876 4.438 2.294.154 4.283-1.583 4.438-3.877.696-10.307 4.375-20.371 10.376-28.791.769-1.079 2.023-2.851 3.497-4.331.476-.478.973-.925 1.489-1.28.274-.189.494-.45.771-.441 2.298.077 4.227-1.726 4.303-4.025.077-2.298-1.726-4.226-4.025-4.303z"/><path d="m86.449 197.768c-.084-.047-.443-.253-.634-.407-.44-.354-.857-.792-1.253-1.254-1.251-1.463-2.28-3.18-2.912-4.225-4.947-8.188-7.638-17.729-7.56-27.286.019-2.299-1.832-4.182-4.132-4.2-2.299-.019-4.182 1.832-4.201 4.132-.091 11.089 3.021 22.164 8.761 31.664 1.177 1.946 3.479 5.571 6.068 7.657 1.706 1.376 3.573 2.16 5.392 2.237 2.298.097 4.242-1.689 4.339-3.987.095-2.257-1.628-4.174-3.868-4.331z"/><path d="m262.415 241.992c1.92-.371 3.371-2.062 3.371-4.09 0-2.299-1.867-4.166-4.167-4.166-2.129 0-4.655 1.393-6.701 4.209-2.633 3.623-4.969 9.896-5.871 11.626-4.929 9.453-11.462 17.152-21.233 21.755-2.08.98-2.974 3.465-1.993 5.545.98 2.081 3.464 2.974 5.545 1.994 11.48-5.408 19.279-14.334 25.07-25.441.721-1.383 2.377-5.901 4.385-9.29.462-.78 1.289-1.782 1.594-2.142z"/><path d="m136.829 126.96c-.256-.363-.882-1.273-1.227-1.971-1.622-3.28-2.838-7.581-3.409-8.912-4.617-10.771-11.265-19.645-21.592-25.501-2-1.135-4.545-.432-5.68 1.569-1.134 2-.431 4.545 1.569 5.679 8.683 4.925 14.162 12.48 18.044 21.536.718 1.674 2.454 7.678 4.65 11.237 1.76 2.854 4.1 4.357 6.145 4.512 2.293.174 4.296-1.547 4.47-3.84.151-1.992-1.128-3.765-2.97-4.309z"/><path d="m174.655 263.503c0 9.237 3.631 17.221 10.033 23.958 1.584 1.667 4.224 1.734 5.891.15s1.734-4.224.15-5.891c-4.879-5.134-7.741-11.178-7.741-18.217 0-2.3-1.867-4.167-4.167-4.167-2.299 0-4.166 1.867-4.166 4.167z"/><path d="m64.789 101.701c.489-6.454 3.536-11.794 8.366-16.163 1.706-1.542 1.838-4.179.296-5.885-1.543-1.705-4.18-1.838-5.885-.295-6.47 5.851-10.432 13.068-11.087 21.713-.174 2.293 1.547 4.296 3.84 4.47 2.293.173 4.296-1.547 4.47-3.84z"/><path d="m257.398 65.758c-10.928 2.788-16.598 9.339-20.846 16.753-2.479 4.327-4.427 8.96-6.875 13.105-1.169 1.98-.511 4.537 1.469 5.707 1.98 1.169 4.537.511 5.706-1.469 2.467-4.176 4.433-8.841 6.931-13.2 3.217-5.614 7.401-10.71 15.675-12.822 2.229-.568 3.576-2.839 3.008-5.067-.569-2.228-2.84-3.576-5.068-3.007z"/><path d="m122.2 282.731c-7.437-2.51-10.912-7.477-13.471-12.846-2.011-4.22-3.508-8.687-5.503-12.736-1.017-2.063-3.517-2.912-5.579-1.896-2.063 1.017-2.913 3.517-1.896 5.58 1.979 4.016 3.46 8.45 5.455 12.637 3.451 7.241 8.298 13.772 18.33 17.157 2.179.735 4.545-.437 5.28-2.616s-.437-4.545-2.616-5.28z"/></g></g></g></svg>