<svg height="512pt" viewBox="-62 0 511 512" width="512pt" xmlns="http://www.w3.org/2000/svg"><path d="m57.203125 112.886719s-56.703125 36.070312-56.703125 153.523437c0 117.457032 104.644531 245.589844 193.269531 245.589844s193.265625-128.132812 193.265625-245.589844c0-117.453125-56.699218-153.523437-56.699218-153.523437zm0 0" fill="#fd5f7e"/><path d="m31.40625 266.410156c0-117.457031 56.703125-153.523437 56.703125-153.523437h-30.90625s-56.703125 36.070312-56.703125 153.523437c0 117.457032 104.644531 245.589844 193.269531 245.589844 5.101563 0 10.261719-.445312 15.453125-1.269531-84.882812-13.476563-177.816406-133.628907-177.816406-244.320313zm0 0" fill="#f9496e"/><path d="m105.679688 315.839844c-4.269532 0-7.726563-3.460938-7.726563-7.726563v-15.945312c0-4.265625 3.457031-7.726563 7.726563-7.726563 4.265624 0 7.726562 3.460938 7.726562 7.726563v15.945312c0 4.265625-3.460938 7.726563-7.726562 7.726563zm0 0" fill="#423e4f"/><path d="m281.859375 315.839844c-4.269531 0-7.726563-3.460938-7.726563-7.726563v-15.945312c0-4.265625 3.457032-7.726563 7.726563-7.726563 4.265625 0 7.726563 3.460938 7.726563 7.726563v15.945312c0 4.265625-3.460938 7.726563-7.726563 7.726563zm0 0" fill="#423e4f"/><path d="m193.769531 324.347656c-10.703125 0-20.75-4.46875-27.5625-12.257812-2.804687-3.214844-2.480469-8.097656.734375-10.902344 3.214844-2.808594 8.09375-2.480469 10.902344.730469 3.875 4.433593 9.679688 6.980469 15.925781 6.980469 6.242188 0 12.046875-2.546876 15.921875-6.980469 2.8125-3.210938 7.691406-3.539063 10.902344-.730469 3.214844 2.808594 3.542969 7.6875.734375 10.902344-6.8125 7.789062-16.855469 12.257812-27.558594 12.257812zm0 0" fill="#423e4f"/><path d="m320.46875 87.335938c-14.050781-12.550782-42.285156-26.347657-98.925781-29.761719-4.574219-.277344-8.050781-4.226563-7.730469-8.796875l2.429688-34.382813c.550781-7.78125-5.613282-14.394531-13.414063-14.394531h-18.121094c-7.796875 0-13.960937 6.613281-13.414062 14.394531l2.429687 34.382813c.320313 4.570312-3.15625 8.519531-7.726562 8.796875-56.644532 3.414062-84.878906 17.210937-98.929688 29.761719-21.851562 19.523437-5.445312 56.222656 23.519532 51.765624.527343-.078124 1.054687-.171874 1.582031-.28125h.003906c12.59375-2.652343 25.554687 2.425782 32.996094 12.921876l2.480469 3.5c10.328124 14.570312 30.449218 18.125 45.144531 7.980468l2.441406-1.6875c5.578125-3.851562 12.054687-5.777344 18.53125-5.777344 6.480469 0 12.957031 1.925782 18.535156 5.777344l2.441407 1.6875c14.695312 10.144532 34.816406 6.589844 45.144531-7.980468l2.476562-3.496094c7.441407-10.496094 20.40625-15.578125 33-12.925782.53125.109376 1.058594.203126 1.585938.28125 28.964843 4.457032 45.371093-32.242187 23.519531-51.765624zm0 0" fill="#55d47b"/><path d="m97.972656 86.71875c8.6875-9.578125 22.808594-19.742188 45.695313-27.105469-41.988281 5.253907-64.535157 16.945313-76.601563 27.722657-21.851562 19.523437-5.445312 56.21875 23.519532 51.765624.527343-.082031 1.054687-.175781 1.582031-.28125h.003906c.945313-.199218 1.894531-.339843 2.839844-.453124-9.449219-14.121094-10.441407-36.867188 2.960937-51.648438zm0 0" fill="#00a52c"/><g fill="#f8e86a"><path d="m194.742188 200.695312c-.542969-.527343-1.40625-.527343-1.949219 0-24.117188 23.285157-17.714844 44.132813.976562 44.132813 18.6875 0 25.089844-20.847656.972657-44.132813zm0 0"/><path d="m81.191406 179.339844c-.542968-.527344-1.40625-.527344-1.949218 0-24.117188 23.285156-17.714844 44.132812.972656 44.132812 18.691406 0 25.09375-20.847656.976562-44.132812zm0 0"/><path d="m306.34375 179.339844c.542969-.527344 1.40625-.527344 1.949219 0 24.117187 23.285156 17.71875 44.132812-.972657 44.132812-18.691406 0-25.089843-20.847656-.976562-44.132812zm0 0"/><path d="m194.742188 416.640625c-.542969-.523437-1.40625-.523437-1.949219 0-24.117188 23.289063-17.714844 44.136719.976562 44.136719 18.6875 0 25.089844-20.847656.972657-44.136719zm0 0"/><path d="m102.546875 363.253906c-.542969-.523437-1.40625-.523437-1.949219 0-24.117187 23.285156-17.714844 44.132813.972656 44.132813 18.691407 0 25.09375-20.847657.976563-44.132813zm0 0"/><path d="m284.988281 363.253906c.542969-.523437 1.40625-.523437 1.949219 0 24.117188 23.285156 17.71875 44.132813-.972656 44.132813s-25.089844-20.847657-.976563-44.132813zm0 0"/></g></svg>