<svg id="Слой_1" enable-background="new 0 0 512 512" height="512" viewBox="0 0 512 512" width="512" xmlns="http://www.w3.org/2000/svg"><g><g><g><path d="m186.6 95.7c55.9-64.3 147.4-79.4 219.8-41.5 7.4 3.9 25.7 3.6 39 2.7 8.6-.5 16.1 5.6 17.3 14.1 2.2 14.9 6.1 36.5 11.8 45.3 42.6 65.8 38.6 154.3-15.4 216.5-56.7 65.2-149.9 79.9-222.8 40.1-6.7-3.7-23.3-3.5-35.5-2.7-7.8.5-14.5-5.5-14.9-13.2-.6-11.8-2.3-27.3-6.6-32.9-51-66.9-49.9-162.6 7.3-228.4z" fill="#b26628"/><path d="m322.9 403.4c-31.6 0-63-7.9-90.8-23.1-.6-.3-6.5-3.2-30.8-1.7-6.1.4-12-1.7-16.5-5.7-4.5-4.1-7.2-9.6-7.6-15.7-1.2-23.2-4.7-27.9-4.8-28.1-26.1-34.1-39.9-76.7-38.7-119.9 1.1-43.8 17.6-86.1 46.3-119.2 28.1-32.3 66.7-54.3 108.7-61.9 41.4-7.5 84.6-1 121.6 18.4 1.1.6 8.1 3.4 34.4 1.7 13-.8 24.6 8.6 26.4 21.5 3 20.7 6.9 36.3 10.5 41.8 21.8 33.7 32.5 74.5 29.9 114.9-2.6 41.7-18.6 80.4-46 112-28.5 32.8-67.7 54.9-110.4 62.3-10.6 1.8-21.4 2.7-32.2 2.7zm-108.9-42.5c18.7 0 24.3 3.1 26.4 4.2 70.3 38.4 159.4 22.4 212.1-38.2 49.9-57.5 56-142.2 14.6-206.1-5.1-7.9-9.5-24.3-13.1-48.7-.6-4-4.2-6.9-8.2-6.7-32.6 2.1-40.9-2.2-43.6-3.7-70.7-37-156.7-20.7-209.2 39.6-53.4 61.3-56.3 152.7-6.9 217.2 2.9 3.8 7 11.9 8.4 37.7.1 1.4.7 2.7 1.8 3.7s2.5 1.4 3.9 1.4c5.3-.3 9.9-.4 13.8-.4z" fill="#282828"/></g><g><path d="m454.9 65-260.4 299.6" fill="#b26628"/><path d="m194.5 373.3c-2 0-4-.7-5.7-2.1-3.6-3.1-4-8.6-.9-12.2l260.5-299.7c3.1-3.6 8.6-4 12.2-.9s4 8.6.9 12.2l-260.4 299.7c-1.7 2-4.1 3-6.6 3z" fill="#282828"/></g><g><path d="m443 148.7s5.4 21.7-17.4 39.6-45.4 29.9-57.3 64.5" fill="#b26628"/><path d="m368.3 261.5c-.9 0-1.9-.2-2.8-.5-4.5-1.6-6.9-6.5-5.4-11 10.9-31.8 30.6-46.4 49.7-60.6 3.4-2.6 7-5.2 10.5-8 18.2-14.2 14.4-30.5 14.3-30.7-1.2-4.6 1.7-9.3 6.3-10.5s9.3 1.7 10.5 6.3c.3 1.1 6.5 27.4-20.5 48.5-3.7 2.9-7.3 5.6-10.9 8.2-18.5 13.7-34.4 25.6-43.6 52.3-1.1 3.8-4.5 6-8.1 6z" fill="#282828"/></g><g><path d="m439.8 232.2s5.4 21.7-17.4 39.6-45.4 29.9-57.3 64.5" fill="#b26628"/><path d="m365.1 345.1c-.9 0-1.9-.2-2.8-.5-4.5-1.6-6.9-6.5-5.4-11 10.9-31.8 30.6-46.4 49.7-60.6 3.4-2.6 7-5.2 10.5-8 17.8-14 14.5-30.1 14.3-30.8v.1l16.8-4.2c.3 1.1 6.5 27.4-20.5 48.5-3.7 2.9-7.3 5.6-10.9 8.2-18.5 13.7-34.5 25.6-43.6 52.3-1.2 3.7-4.5 6-8.1 6z" fill="#282828"/></g><g><path d="m323.1 289.4s5.4 21.7-17.4 39.6c-6.4 5-12.9 9.6-19 14.4" fill="#b26628"/><path d="m286.7 352.1c-2.6 0-5.2-1.2-6.9-3.4-2.9-3.8-2.2-9.2 1.6-12.2 2.8-2.1 5.7-4.3 8.4-6.3 3.5-2.6 7-5.2 10.5-8 18.2-14.2 14.4-30.5 14.3-30.7-1.2-4.6 1.7-9.3 6.3-10.5s9.3 1.7 10.5 6.3c.3 1.1 6.5 27.4-20.5 48.5-3.7 2.9-7.3 5.6-10.9 8.2-2.8 2.1-5.5 4.1-8.2 6.2-1.4 1.3-3.2 1.9-5.1 1.9z" fill="#282828"/></g><g><path d="m371.7 86.7s-22.3-2.3-36.8 22.8-23.2 49.1-55.9 65.8" fill="#b26628"/><path d="m279 183.9c-3.2 0-6.2-1.7-7.7-4.7-2.2-4.3-.5-9.5 3.8-11.7 25.2-12.8 34.7-30.3 45.7-50.5 2.1-3.9 4.3-7.9 6.6-11.9 17.1-29.6 44.1-27.2 45.2-27l-1.8 17.2h.1c-.7-.1-17.2-1.1-28.5 18.5-2.2 3.8-4.4 7.7-6.4 11.5-11.4 20.8-23.1 42.4-53.1 57.6-1.2.7-2.6 1-3.9 1z" fill="#282828"/></g><g><path d="m249.1 225.1s-22.3-2.3-36.8 22.8c-4.1 7.1-7.7 14.1-11.6 20.8" fill="#b26628"/><path d="m200.7 277.3c-1.4 0-2.9-.4-4.3-1.1-4.2-2.4-5.6-7.7-3.3-11.8 1.7-2.9 3.3-5.9 5-9 2.1-3.9 4.3-7.9 6.6-11.9 17.1-29.6 44.1-27.2 45.2-27l-1.8 17.2h.1c-.7 0-17.2-1.1-28.5 18.5-2.2 3.8-4.3 7.7-6.4 11.5-1.7 3-3.4 6.2-5.1 9.3-1.6 2.8-4.5 4.3-7.5 4.3z" fill="#282828"/></g></g><g><path d="m8.7 297.7c0-85.2 59.1-156.6 138.6-175.5 8.1-1.9 21.7-14.2 31.2-23.5 6.1-6 15.8-6.3 22.3-.7 11.4 9.8 28.6 23.6 38.6 26.4 75.3 21.7 130.4 91.2 130.4 173.5 0 99.7-80.8 180.5-180.5 180.5-99.8-.1-180.7-81.1-180.6-180.7z" fill="#ffd169"/><path d="m189.2 486.9c-50.5 0-98-19.7-133.8-55.5-35.7-35.7-55.4-83.2-55.4-133.7h8.7-8.7c0-42.8 14.7-84.7 41.4-118.1 26.3-32.8 63.2-56.2 103.8-65.9 1.2-.3 8.3-2.7 27.1-21.3 9.2-9.1 24.2-9.6 34-1.1 15.8 13.6 29 22.9 35.3 24.7 38.6 11.1 73.4 35 97.9 67.1 25.3 33.2 38.7 72.9 38.7 114.7.2 104.3-84.7 189.1-189 189.1zm.8-384.4c-2 0-4 .7-5.5 2.2-23.2 22.9-32.3 25.1-35.3 25.8-77.6 18.5-131.8 87.2-131.9 167.2 0 45.9 17.9 89 50.3 121.5 32.5 32.5 75.6 50.4 121.5 50.4 94.8 0 171.9-77.1 171.9-171.9 0-76.1-51-144.1-124.1-165.1-9.1-2.6-23.1-12.1-41.8-28.2-1.4-1.3-3.3-1.9-5.1-1.9z" fill="#282828"/></g><g><g><path d="m188.9 227.9c0-26.9 21.8-48.7 48.7-48.7s48.7 21.8 48.7 48.7v1.5c21.1 5.3 36.8 24.4 36.8 47.2 0 19.6-11.6 36.6-28.4 44.3 1.7 4.7 2.7 9.7 2.7 15 0 16.9-9.8 31.5-24 38.4.7 3 1 6.1 1 9.4 0 23.6-19.1 42.7-42.7 42.7s-42.7-19.1-42.7-42.7c-.1-17-.1-133-.1-155.8z" fill="#b26628"/><path d="m231.6 435c-28.3 0-51.4-23-51.4-51.4v-155.7c0-31.6 25.7-57.3 57.3-57.3 30 0 54.6 23.1 57.1 52.4 22 8.4 36.9 29.5 36.9 53.6 0 19.8-10.3 38.1-26.8 48.5.7 3.5 1.1 7.1 1.1 10.7 0 17.6-8.7 33.5-23.2 43 .1 1.6.2 3.2.2 4.8.1 28.3-22.9 51.4-51.2 51.4zm6-247.1c-22.1 0-40 17.9-40 40v155.6c0 18.8 15.3 34 34 34 18.8 0 34-15.3 34-34 0-2.5-.3-5-.8-7.5-.9-3.9 1-7.9 4.7-9.7 11.8-5.8 19.1-17.5 19.1-30.6 0-4.1-.7-8.1-2.1-11.9-1.6-4.3.4-9 4.5-10.9 14.2-6.5 23.4-20.8 23.4-36.4 0-18.4-12.4-34.3-30.2-38.8-3.9-1-6.7-4.6-6.5-8.7 0-.4 0-.8 0-1.2-.2-21.9-18.1-39.9-40.1-39.9z" fill="#282828"/></g><g><path d="m300 318s-15.6 7.3-35.8-1" fill="#ff9912"/><path d="m283.7 329.6c-6.6 0-14.4-1.1-22.8-4.6-4.4-1.8-6.6-6.9-4.7-11.3 1.8-4.4 6.9-6.6 11.3-4.7 16.2 6.6 28.7 1.2 28.9 1.1 4.3-2 9.5-.2 11.5 4.2 2 4.3.2 9.5-4.2 11.5-.5.3-8.3 3.8-20 3.8z" fill="#282828"/></g><g><path d="m273.7 380.4s-3.1-21.2-34.3-18.4" fill="#ff9912"/><path d="m265.1 381.8c-.3-1.3-3.1-13.1-25-11.2-4.8.4-9-3.1-9.4-7.9s3.1-9 7.9-9.4c31.1-2.7 42.2 15.7 43.6 25.8l-17.2 2.5z" fill="#282828"/></g><g><path d="m245.8 247.2s9.2 20.2-10.1 27.5" fill="#ff9912"/><path d="m235.7 283.4c-3.5 0-6.8-2.1-8.1-5.6-1.7-4.5.5-9.5 5-11.2 4.7-1.8 5.7-4.2 6-5 1.6-3.9 0-9.2-.7-11-2-4.4 0-9.5 4.3-11.4 4.4-2 9.5 0 11.5 4.3.6 1.3 5.7 13.2 1 24.6-1.9 4.6-6.2 10.9-15.9 14.6-1 .6-2.1.7-3.1.7z" fill="#282828"/></g><g><path d="m189.5 227.9c0-26.9-21.8-48.7-48.7-48.7s-48.7 21.8-48.7 48.7v1.5c-21.1 5.3-36.8 24.4-36.8 47.2 0 19.6 11.6 36.6 28.4 44.3-1.7 4.7-2.7 9.7-2.7 15 0 16.9 9.8 31.5 24 38.4-.7 3-1 6.1-1 9.4 0 23.6 19.1 42.7 42.7 42.7s42.7-19.1 42.7-42.7c.1-17 .1-133 .1-155.8z" fill="#b26628"/><path d="m146.8 435c-28.3 0-51.4-23-51.4-51.4 0-1.6.1-3.2.2-4.8-14.4-9.4-23.2-25.4-23.2-43 0-3.6.4-7.2 1.1-10.7-16.5-10.4-26.8-28.7-26.8-48.5 0-24.1 14.9-45.2 36.9-53.6 2.5-29.3 27.2-52.4 57.1-52.4 31.6 0 57.3 25.7 57.3 57.3v155.6c.2 28.4-22.9 51.5-51.2 51.5zm-6-247.1c-22.1 0-40 17.9-40 40v1.2c.1 4.1-2.6 7.7-6.5 8.7-17.8 4.5-30.2 20.4-30.2 38.8 0 15.6 9.2 29.9 23.4 36.4 4.1 1.9 6.1 6.7 4.5 10.9-1.4 3.8-2.1 7.8-2.1 11.9 0 13.1 7.3 24.8 19.1 30.6 3.6 1.8 5.5 5.8 4.7 9.7-.5 2.4-.8 5-.8 7.5 0 18.8 15.3 34 34 34s34-15.3 34-34v-155.7c-.1-22-18-40-40.1-40z" fill="#282828"/></g><g><path d="m78.4 318s15.6 7.3 35.8-1" fill="#b26628"/><path d="m94.7 329.6c-11.7 0-19.5-3.5-20-3.8-4.3-2-6.2-7.2-4.2-11.5s7.1-6.2 11.5-4.2c.7.3 12.9 5.5 28.9-1.1 4.4-1.8 9.5.3 11.3 4.7s-.3 9.5-4.7 11.3c-8.4 3.5-16.2 4.6-22.8 4.6z" fill="#282828"/></g><g><path d="m104.7 380.4s3.1-21.2 34.3-18.4" fill="#b26628"/><path d="m104.7 389.1c-.4 0-.8 0-1.3-.1-4.7-.7-8-5.1-7.3-9.8 1.5-10.1 12.5-28.6 43.6-25.8 4.8.4 8.3 4.6 7.9 9.4s-4.6 8.3-9.4 7.9c-22.8-2-24.9 10.9-24.9 11-.6 4.3-4.3 7.4-8.6 7.4z" fill="#282828"/></g><g><path d="m132.6 247.2s-9.2 20.2 10.1 27.5" fill="#b26628"/><path d="m142.7 283.4c-1 0-2.1-.2-3.1-.6-9.7-3.7-14-10-15.9-14.6-4.7-11.4.4-23.3 1-24.6 2-4.4 7.1-6.3 11.5-4.3 4.3 2 6.3 7.1 4.3 11.4-.8 1.7-2.4 7.1-.7 10.9.3.8 1.3 3.2 6 5 4.5 1.7 6.7 6.7 5 11.2-1.4 3.5-4.6 5.6-8.1 5.6z" fill="#282828"/></g></g><g><path d="m261.5 99.5c-2.8 0-5.6-1.4-7.3-3.9-2.6-4-1.5-9.4 2.5-12 21.1-13.8 54.8-15 56.2-15 4.7-.2 8.8 3.6 8.9 8.4s-3.6 8.8-8.4 8.9c-.5 0-30.3 1.1-47.3 12.2-1.3 1-2.9 1.4-4.6 1.4z" fill="#fff"/></g></g></svg>