<?xml version="1.0" encoding="iso-8859-1"?>
<!-- Generator: Adobe Illustrator 19.0.0, SVG Export Plug-In . SVG Version: 6.00 Build 0)  -->
<svg version="1.1" id="Capa_1" xmlns="http://www.w3.org/2000/svg" xmlns:xlink="http://www.w3.org/1999/xlink" x="0px" y="0px"
	 viewBox="0 0 427.161 427.161" style="enable-background:new 0 0 427.161 427.161;" xml:space="preserve">
<path style="fill:#77BC4A;" d="M10.028,39.771c38,32.8,38,88.4,58.8,132c31.2,60.4,89.6,53.6,122,22.4c20.4-20,30-50,15.6-79.2
	c-7.2-14.4-19.2-27.2-35.2-38C133.228,50.571,73.228,35.371,10.028,39.771z M418.028,134.171c-63.2-4.4-123.2,10.4-161.6,36.8
	c-16,10.8-28,24-35.2,38c-14.4,29.2-4.8,59.2,15.6,79.2c32,31.6,90.8,38,122-22.4C380.028,222.571,380.028,166.571,418.028,134.171z
	"/>
<path style="fill:#023600;" d="M418.828,124.171c-46-3.2-90.4,3.6-126.4,17.2c-15.2,5.6-28.8,12.8-40.8,20.8c-0.4,0-0.4,0.4-0.8,0.4
	c-17.2,12-30.4,26-38,41.6c-0.8,2-2,4-2.8,6c-2.4-5.2-4.8-10-7.2-14.8c19.6-22.4,28-54,12.4-85.2c-7.6-15.6-20.8-30-38-41.6
	c-0.4,0-0.4-0.4-0.8-0.4c-12-8-25.6-15.2-40.8-20.8c-36-13.6-80.4-20.4-126.4-17.2c-5.6,0.4-9.6,5.2-9.2,10.4
	c0.4,2.8,1.6,5.2,3.6,7.2c22,19.2,30.4,48,38.4,77.2c4.8,17.6,10,35.2,17.6,51.2c0,0.4,0.4,0.4,0.4,0.8c20,38.4,50.4,52.4,80,50.4
	c12-0.8,23.6-4,34-9.6c4.8-2.4,9.2-5.2,13.2-8.4c6.4,12.8,11.6,26,16.4,40l-0.4,138.4c0,5.6,4.4,10,10,10c5.6,0,10-4.4,10-10v-44.4
	c4.8-14,10.4-27.2,16.4-40c4.4,3.2,8.8,6,13.2,8.4c10.4,5.2,22,8.8,34,9.6c29.2,2,60-12,80-50.4c0-0.4,0.4-0.4,0.4-0.8
	c8-16,12.8-33.6,17.6-51.2c8.4-29.2,16.4-58,38.4-77.2c2-1.6,3.6-4,3.6-7.2C428.428,129.371,424.028,124.571,418.828,124.171z
	 M230.428,213.371c3.6-7.2,8.8-14.4,15.6-20.8l-2.8,67.6c-2.4,3.6-4.8,7.6-7.2,11.2
	C224.028,254.571,220.428,233.771,230.428,213.371z M197.628,119.371c10,20.4,6,41.6-5.2,58c-2.4-4-4.8-8-7.2-11.6l-2.8-67.6
	C188.828,104.971,194.028,111.771,197.628,119.371z M128.828,65.771c12.4,4.8,23.6,10.4,33.2,16.4l2.4,56
	c-7.6-8.8-16-17.2-25.2-25.2c-0.4-0.4-1.2-1.2-1.6-1.6c-14.4-12.4-30-23.6-47.6-33.6c-4.8-2.8-10.8-0.8-13.2,3.6
	c-2.8,4.8-0.8,10.8,3.6,13.2c7.6,4,14.4,8.8,21.2,13.2l-44-1.6c-6-20.8-13.2-40.8-26-58
	C67.228,48.971,100.828,54.971,128.828,65.771z M165.628,200.171c-8.4,4-17.2,6.8-26.4,7.2c-22,1.6-45.6-9.6-61.2-40v-0.4
	c-6-12.4-10.4-26.4-14.4-40.4l64.4,2.8c10.8,10,20.8,20.4,29.6,32c7.6,9.6,14.4,20,20.8,30.8
	C174.428,194.971,170.028,197.771,165.628,200.171z M224.028,288.171c0.4,0.4,0.8,1.2,1.2,1.6c-0.4,0.8-0.8,1.6-1.2,2.8V288.171z
	 M350.028,261.771c-16,30.4-39.2,41.2-61.2,40c-9.2-0.4-18-3.2-26.4-7.2c-4.4-2.4-8.8-5.2-12.8-8.4c6.4-10.8,13.2-20.8,20.8-30.8
	c8.8-11.2,18.8-22,29.6-32l64.4-2.4C360.428,234.971,356.428,248.971,350.028,261.771L350.028,261.771z M370.428,200.971l-44,1.6
	c6.8-4.8,14-9.2,21.2-13.2c4.8-2.8,6.4-8.8,3.6-13.2c-2.8-4.8-8.8-6.4-13.2-3.6c-17.6,10-33.2,21.2-47.6,33.6
	c-0.4,0.4-1.2,0.8-1.6,1.6c-8.8,8-17.2,16.4-25.2,25.2l2.4-56c9.6-6.4,20.8-11.6,33.2-16.4c28-10.8,61.6-16.8,96.8-16.8
	C383.228,160.171,376.428,180.171,370.428,200.971z"/>
<g>
</g>
<g>
</g>
<g>
</g>
<g>
</g>
<g>
</g>
<g>
</g>
<g>
</g>
<g>
</g>
<g>
</g>
<g>
</g>
<g>
</g>
<g>
</g>
<g>
</g>
<g>
</g>
<g>
</g>
</svg>
