<svg id="Icons" height="512" viewBox="0 0 60 60" width="512" xmlns="http://www.w3.org/2000/svg"><path d="m29 14.83v-8.789a2.031 2.031 0 0 1 2.45-2c7.08 1.517 8.36 9.461 8.53 10.775z" fill="#2980ba"/><path d="m31 44.074v6.813a1.253 1.253 0 0 0 1.559 1.089c4.913-.906 5.441-5.976 5.441-5.976l.184-1.77z" fill="#2980ba"/><path d="m10.53 31.35c3.05 3.85 12.63 14.65 23.97 14.65 11.46 0 21.12-11.03 24.07-14.77a1.983 1.983 0 0 0 0-2.46c-2.95-3.74-12.61-14.77-24.07-14.77-11.37 0-20.97 10.85-23.99 14.68" fill="#2fa8cc"/><circle cx="48" cy="28" fill="#35495e" r="3"/><path d="m42.782 36a1 1 0 0 1 -.707-.293 10.5 10.5 0 0 1 0-14.849 1 1 0 0 1 1.414 1.414 8.51 8.51 0 0 0 0 12.021 1 1 0 0 1 -.707 1.707z" fill="#2980ba"/><path d="m1.018 35.343a2.15 2.15 0 0 0 2.85 2.166c3.694-1.121 6.816-4.035 6.816-7.453s-3.119-6.33-6.81-7.452a2.149 2.149 0 0 0 -2.85 2.169l.7 4.977a1.782 1.782 0 0 1 0 .5z" fill="#285680"/><path d="m33.511 42a.8.8 0 0 1 -.1-.005c-.1-.009-9.667-1.036-11.352-9.391a3.076 3.076 0 0 1 .639-2.569 2.916 2.916 0 0 1 2.257-1.071h.012l8.154.036a1 1 0 0 1 0 2l-8.152-.034a.919.919 0 0 0 -.713.343 1.084 1.084 0 0 0 -.222.9c1.391 6.891 9.253 7.761 9.587 7.8a1 1 0 0 1 -.1 1.995z" fill="#2980ba"/><circle cx="47" cy="27" fill="#ecf0f1" r="1"/></svg>