<svg id="Flat" height="512" viewBox="0 0 64 64" width="512" xmlns="http://www.w3.org/2000/svg"><g fill="#92c538"><path d="m19.85 23.87c.49 1.24.96 2.49 1.41 3.75-.6.16-1.17.56-1.6 1.04-.7.79-1.13 1.78-1.68 2.68-.55.91-1.3 1.77-2.32 2.04-1.08.29-2.26-.17-3.01-.97-.76-.81-1.14-1.93-1.23-3.04-.11-1.12.05-2.29.59-3.28.54-1 1.46-1.81 2.55-2.09 1.72-.45 3.66.4 5.29-.13z"/><path d="m27.93 15.42c.9 1.01 1.13 2.52.67 3.79-.38 1.04-1.16 1.88-1.97 2.62-.82.75-1.7 1.43-2.37 2.31-.19.25-.37.52-.51.8-.68-1.32-1.39-2.62-2.13-3.89.08-.94.1-1.89.26-2.83.25-1.5.98-3.07 2.37-3.67 1.24-.54 2.79-.14 3.68.87z"/><path d="m60.91 34.88c.72 1.59.68 3.42.5 5.16-.21 2.01-.64 4.11-2.03 5.56-1.18 1.24-2.92 1.82-4.62 1.89-1.71.07-3.39-.33-5.03-.8-2.24-.67-4.52-1.55-6.11-3.27-.96-1.04-1.61-2.32-2.41-3.5-.18-.26-.38-.53-.6-.79.86.21 1.72.42 2.58.59 3.74.75 7.76.73 11.21-.88-4.06.31-7.89-1.41-11.82-2.6 2.22-1.34 3.65-3.95 5.96-5.28 2.6-1.49 5.95-1.07 8.62.31 1.57.82 3.01 2 3.75 3.61z"/></g><path d="m61.374 36.427c-.312 3.294-2.326 6.067-6.504 6.643-4.449.613-9.147-2.094-13.496-2.896.726 1.108 1.354 2.279 2.246 3.246 1.59 1.72 3.87 2.6 6.11 3.27 1.64.47 3.32.87 5.03.8 1.7-.07 3.44-.65 4.62-1.89 1.39-1.45 1.82-3.55 2.03-5.56.124-1.198.175-2.438-.036-3.613z" fill="#609000"/><path d="m59.96 20.31c.82.7.8 2.01.3 2.95-.59 1.16-1.73 1.96-2.95 2.42s-2.53.62-3.81.8c-1.2.15-2.41.33-3.61.3-1.22-.03-2.45-.27-3.48-.89-.72-.43-.88-.84-2.21-1.84-.54-.4-1.01-.71-1.32-.91.28-.1.57-.21.87-.31 4.37-1.5 8.22-1.79 10.79-1.78-2.45-.41-6.42-.81-11.16.01.94-.98 2.29-2.07 4.1-2.87 1.54-.66 4.92-2.15 7.37-.75 1.12.63 1.54 1.58 3.32 2.13.84.28 1.28.3 1.79.74z" fill="#92c538"/><path d="m54.34 4.05c1.53 1.96 1.42 5.23.01 7.22-1.62 2.3-4.45 3.34-7.11 4.27-2.96 1.04-5.92 2.07-8.88 3.1-.63.22-1.26.45-1.88.71.04-.06.09-.12.14-.18 1.95-2.42 3.78-4.93 5.79-7.29 1.85-2.18 3.48-3.95 3.23-4.24-.1-.11-.44.02-.9.26-.93.51-1.77 1.15-2.55 1.88-2.33 2.17-5.23 5.16-8.18 9.02.18-.52.34-1.06.48-1.6.4-1.65.6-3.34.58-5.03-.02-1.55-.22-3.09-.13-4.64.1-1.54.53-3.13 1.58-4.27 1.01-1.09 2.22-1.41 3.74-1.82 1.93-.51 3.46-.46 4.89-.41 1.51.06 3.57.16 5.96 1.11 1.63.66 2.51 1.01 3.23 1.91z" fill="#92c538"/><path d="m54.34 4.05c-.72-.9-1.6-1.25-3.23-1.91-.233-.092-.459-.17-.685-.248.125 3.481-.912 6.435-4.335 8.649-1.307.846-2.736 1.413-4.178 1.943-1.815 2.183-3.506 4.469-5.292 6.685-.05.06-.1.12-.14.18.62-.26 1.25-.49 1.88-.71 2.96-1.03 5.92-2.06 8.88-3.1 2.66-.93 5.49-1.97 7.11-4.27 1.41-1.989 1.52-5.259-.01-7.219z" fill="#609000"/><path d="m22.77 5.82c.69 1.42.39 3.15-.3 4.57-.7 1.41-1.75 2.61-2.69 3.88-.48.63-.9 1.28-1.25 1.98-1.32-1.87-2.77-3.64-4.37-5.28-.13-.13-.33.04-.23.18 1.42 2.06 2.47 4.3 3.45 6.61-.04.02-.08.03-.13.04-.78.16-1.64.03-2.44.16-1.02.16-2.01.43-3.02.65-2.03.46-4.38.61-6-.71-.87-.72-1.39-1.78-1.79-2.84-1.04-2.8-1.31-6.03.03-8.7 1.32-2.64 4.12-4.35 7.03-4.81 2.91-.44 5.91.27 8.57 1.56 1.26.61 2.54 1.43 3.14 2.71z" fill="#92c538"/><path d="m9.251 14.491c-2.41.897-3.082 1.607-2.995 3.721 1.585.965 3.689.816 5.534.398 1.01-.22 2-.49 3.02-.65.8-.13 1.66 0 2.44-.16.05-.01.09-.02.13-.04-.836-1.97-1.737-3.881-2.861-5.681-1.537 1.139-3.488 1.748-5.268 2.412z" fill="#609000"/><path d="m22.77 5.82c-.6-1.28-1.88-2.1-3.14-2.71-1.505-.73-3.12-1.264-4.765-1.519 2.204 2.384 3.224 5.75 1.329 8.739-.362.571-.805 1.047-1.297 1.462 1.303 1.411 2.526 2.889 3.634 4.459.35-.7.77-1.35 1.25-1.98.94-1.27 1.99-2.47 2.69-3.88.689-1.421.989-3.151.299-4.571z" fill="#609000"/><g><g><path d="m38.872 13.987c-.045 0-.091-.003-.138-.01-.547-.075-.929-.579-.854-1.127.29-2.115.066-4.298-.648-6.311-.185-.521.087-1.093.607-1.277.521-.184 1.092.087 1.277.607.821 2.314 1.079 4.822.744 7.254-.067.501-.496.864-.988.864z" fill="#486c00"/></g><g><path d="m43.422 9.655c-.065 0-.131-.006-.197-.02-.542-.108-.893-.635-.785-1.176.3-1.494.233-3.058-.19-4.521-.153-.531.152-1.085.683-1.239.531-.15 1.086.153 1.239.683.513 1.772.592 3.664.229 5.471-.095.474-.512.802-.979.802z" fill="#486c00"/></g><g><path d="m45.638 8.641c-.191 0-.385-.055-.556-.17-.459-.308-.581-.929-.273-1.387.61-.911 1.431-1.683 2.371-2.231.729-.425 1.521-.717 2.354-.868.544-.104 1.064.261 1.162.805.1.543-.261 1.063-.805 1.162-.604.11-1.176.321-1.703.629-.86.502-1.409 1.156-1.719 1.617-.193.287-.509.443-.831.443z" fill="#486c00"/></g><g><path d="m52.698 10.048c-.067 0-.135-.007-.203-.021-.941-.195-1.908-.326-2.875-.392-1.462-.099-2.937-.042-4.392.165-.552.077-1.054-.303-1.131-.85s.303-1.053.85-1.131c1.593-.228 3.209-.285 4.807-.181 1.058.071 2.116.216 3.146.429.541.112.889.642.777 1.182-.098.474-.515.799-.979.799z" fill="#486c00"/></g><g><path d="m48.608 13.712c-.127 0-.256-.024-.381-.075-.851-.351-1.736-.612-2.635-.779-.937-.176-1.899-.245-2.847-.218-.552.041-1.015-.415-1.031-.967-.018-.553.415-1.014.967-1.031 1.099-.039 2.199.049 3.276.249 1.034.192 2.054.494 3.031.896.511.211.754.795.544 1.306-.158.386-.531.619-.924.619z" fill="#486c00"/></g><g><path d="m24.671 21c-.188 0-.378-.053-.548-.164-.462-.303-.59-.923-.287-1.385.17-.26.32-.53.445-.804.241-.527.403-1.087.483-1.661.074-.547.568-.938 1.127-.854.547.075.93.58.854 1.127-.105.768-.323 1.515-.646 2.22-.167.365-.366.725-.592 1.069-.191.293-.51.452-.836.452z" fill="#486c00"/></g><g><path d="m13.96 30.403c-.25 0-.499-.093-.693-.279-.398-.383-.41-1.016-.027-1.414.73-.759 1.547-1.436 2.428-2.011 1.032-.675 2.151-1.212 3.328-1.596.525-.168 1.09.116 1.261.642.171.524-.116 1.089-.642 1.261-1.008.328-1.968.788-2.854 1.367-.754.493-1.454 1.073-2.08 1.724-.197.204-.458.306-.721.306z" fill="#486c00"/></g><g><path d="m16.21 14.141c-.041 0-.082-.002-.124-.008-.548-.067-.938-.566-.869-1.115.271-2.188.882-4.31 1.818-6.307.233-.5.83-.717 1.329-.481.501.234.716.829.481 1.329-.847 1.807-1.399 3.727-1.645 5.705-.061.506-.492.877-.99.877z" fill="#486c00"/></g><g><path d="m9.449 14.581c-.465 0-.881-.325-.979-.799-.111-.541.237-1.069.778-1.181 1.961-.403 3.969-.514 5.964-.323.55.052.954.539.901 1.089-.052.55-.547.968-1.089.901-1.799-.168-3.606-.071-5.374.292-.066.014-.134.021-.201.021z" fill="#486c00"/></g><g><path d="m12.374 10.179c-.333 0-.659-.166-.849-.47-.756-1.209-1.882-2.213-3.17-2.825-.499-.238-.71-.834-.473-1.333s.833-.71 1.333-.474c1.627.774 3.049 2.043 4.006 3.571.293.468.151 1.085-.317 1.378-.166.104-.348.153-.53.153z" fill="#486c00"/></g><g><path d="m8.422 8.769c-.52 0-.959-.402-.996-.929-.04-.551.375-1.029.926-1.068l2.534-.181c.563-.049 1.029.376 1.068.926.04.551-.375 1.029-.926 1.068l-2.534.181c-.024.002-.049.003-.072.003z" fill="#486c00"/></g><g><path d="m48.021 38.613c-.433 0-.831-.282-.96-.718-.155-.53.148-1.086.678-1.242 1.502-.44 2.852-1.165 4.012-2.152.69-.586 1.305-1.26 1.826-2.003.318-.45.941-.561 1.394-.243s.561.941.243 1.394c-.619.881-1.349 1.681-2.167 2.376-1.375 1.171-2.972 2.028-4.743 2.549-.095.027-.19.039-.283.039z" fill="#486c00"/></g><g><path d="m51.824 44.78c-.366 0-.719-.201-.895-.551-.302-.601-.675-1.161-1.108-1.668-.509-.594-1.101-1.113-1.76-1.543-.462-.302-.593-.922-.291-1.385.304-.463.922-.59 1.385-.291.817.534 1.553 1.18 2.186 1.918.539.629 1.002 1.326 1.376 2.07.248.493.049 1.095-.444 1.343-.145.073-.298.107-.449.107z" fill="#486c00"/></g><g><path d="m56.6 45.815c-.4 0-.778-.242-.933-.638-.195-.505-.457-.984-.776-1.424-.269-.37-.584-.715-.936-1.026-.414-.365-.453-.997-.087-1.411s.998-.453 1.411-.087c.461.407.875.861 1.229 1.349.42.579.765 1.21 1.023 1.875.199.515-.056 1.095-.57 1.295-.118.046-.24.067-.361.067z" fill="#486c00"/></g></g><path d="m45.64 7.64c.25.29-1.38 2.06-3.23 4.24-2.01 2.36-3.84 4.87-5.79 7.29-.05.06-.1.12-.14.18h-.01c-1.48 1.86-2.8 3.78-3.98 5.7-1.59 2.59-2.92 5.16-3.99 7.53-1 2.18-1.79 4.19-2.39 5.89-.51 1.41-.9 2.61-1.17 3.53-.38 1.26-.55 1.99-.55 1.99-.93 3.92-1.9 9.95-1.33 17.54.07.82-.57 1.52-1.4 1.51l-1.27-.01c-.77-.01-1.39-.64-1.38-1.41.12-5.69.98-14.46 4.72-24.35v-.01c.51-1.34 1.07-2.7 1.69-4.07.38-.84.76-1.65 1.16-2.44 2.3-4.66 4.88-8.63 7.43-11.95 2.95-3.86 5.85-6.85 8.18-9.02.78-.73 1.62-1.37 2.55-1.88.46-.24.8-.37.9-.26z" fill="#d5ef9c"/><path d="m43.38 21.06c4.74-.82 8.71-.42 11.16-.01-2.57-.01-6.42.28-10.79 1.78-.3.1-.59.21-.87.31-2.8 1.06-4.79 2.26-6.23 3.12-2.16 1.32-5.06 3.33-8.15 6.32 1.07-2.37 2.4-4.94 3.99-7.53 2.08-1.21 4.79-2.5 8.09-3.38.96-.25 1.89-.46 2.8-.61z" fill="#bedc88"/><path d="m26.11 38.47c3.46-2.53 7.9-3.73 12.16-3.21 1.46.18 2.89.54 4.31.98 3.93 1.19 7.76 2.91 11.82 2.6-3.45 1.61-7.47 1.63-11.21.88-.86-.17-1.72-.38-2.58-.59-2.39-.59-4.79-1.19-7.22-.99-2.62.21-5.11 1.35-7.24 2.9-.42.31-.81.63-1.21.96.27-.92.66-2.12 1.17-3.53z" fill="#bedc88"/><path d="m13.93 11.15c-.1-.14.1-.31.23-.18 1.6 1.64 3.05 3.41 4.37 5.28 1.11 1.54 2.13 3.15 3.09 4.8.74 1.27 1.45 2.57 2.13 3.89.99 1.91 1.93 3.86 2.83 5.81-.4.79-.78 1.6-1.16 2.44-.62 1.37-1.18 2.73-1.69 4.07-.2-3.27-1.34-6.51-2.45-9.6 0-.01-.01-.03-.02-.04-.45-1.26-.92-2.51-1.41-3.75-.57-1.48-1.16-2.96-1.77-4.43-.23-.56-.47-1.13-.7-1.68-.98-2.31-2.03-4.55-3.45-6.61z" fill="#bedc88"/></svg>