<?xml version="1.0" encoding="UTF-8" standalone="no"?>
<!-- Created with Inkscape (http://www.inkscape.org/) -->

<svg
   version="1.1"
   id="svg2727"
   width="682.66669"
   height="682.66669"
   viewBox="0 0 682.66669 682.66669"
   xmlns="http://www.w3.org/2000/svg"
   xmlns:svg="http://www.w3.org/2000/svg">
  <defs
     id="defs2731">
    <clipPath
       clipPathUnits="userSpaceOnUse"
       id="clipPath2741">
      <path
         d="M 0,512 H 512 V 0 H 0 Z"
         id="path2739" />
    </clipPath>
  </defs>
  <g
     id="g2733"
     transform="matrix(1.3333333,0,0,-1.3333333,0,682.66667)">
    <g
       id="g2735">
      <g
         id="g2737"
         clip-path="url(#clipPath2741)">
        <g
           id="g2743"
           transform="translate(185.0454,10.333)">
          <path
             d="M 0,0 C 6.224,0 8.789,7.983 3.729,11.608 L -15.62,25.469 c -6.953,4.981 -11.066,12.933 -11.066,21.396 v 61.864 c 0,3.536 -2.867,6.403 -6.403,6.403 h -11.912 c -3.536,0 -6.403,-2.867 -6.403,-6.403 V 46.865 c 0,-8.463 -4.113,-16.415 -11.066,-21.396 L -81.819,11.608 C -86.879,7.983 -84.315,0 -78.09,0 Z"
             style="fill:#f7f6e7;fill-opacity:1;fill-rule:nonzero;stroke:none"
             id="path2745" />
        </g>
        <g
           id="g2747"
           transform="translate(188.7742,21.9407)">
          <path
             d="m 0,0 -19.349,13.861 c -6.953,4.981 -11.066,12.934 -11.066,21.397 v 61.863 c 0,3.536 -2.867,6.403 -6.403,6.403 H -48.73 c -3.536,0 -6.403,-2.867 -6.403,-6.403 V 35.258 c 0,-4.008 -0.932,-7.895 -2.641,-11.412 1.9,-3.911 4.764,-7.362 8.425,-9.985 L -30,0 c 5.06,-3.625 2.495,-11.608 -3.729,-11.608 h 30 C 2.495,-11.608 5.06,-3.625 0,0"
             style="fill:#e6e6dc;fill-opacity:1;fill-rule:nonzero;stroke:none"
             id="path2749" />
        </g>
        <g
           id="g2751"
           transform="translate(146.0003,106.7642)">
          <path
             d="m 0,0 v 0 c -27.716,0 -51.121,18.456 -58.597,43.749 -2.135,7.225 -2.726,14.819 -2.046,22.323 l 16.136,126.043 c 0.442,4.873 4.526,8.604 9.418,8.604 h 70.178 c 4.892,0 8.976,-3.731 9.417,-8.604 L 60.643,66.072 C 61.322,58.568 60.732,50.974 58.596,43.749 51.121,18.456 27.716,0 0,0"
             style="fill:#f7f6e7;fill-opacity:1;fill-rule:nonzero;stroke:none"
             id="path2753" />
        </g>
        <g
           id="g2755"
           transform="translate(206.6431,172.8364)">
          <path
             d="m 0,0 -16.136,126.043 c -0.442,4.872 -4.526,8.603 -9.418,8.603 h -30 c 4.892,0 8.976,-3.731 9.418,-8.603 L -30,0 c 0.68,-7.504 0.089,-15.098 -2.046,-22.323 -6.079,-20.57 -22.695,-36.617 -43.597,-41.893 4.799,-1.211 9.824,-1.856 15,-1.856 27.716,0 51.122,18.456 58.597,43.749 C 0.089,-15.098 0.68,-7.504 0,0"
             style="fill:#e6e6dc;fill-opacity:1;fill-rule:nonzero;stroke:none"
             id="path2757" />
        </g>
        <g
           id="g2759"
           transform="translate(201.4246,213.5986)">
          <path
             d="m 0,0 h -110.849 l -5.218,-40.762 c -0.68,-7.504 -0.089,-15.098 2.046,-22.324 7.475,-25.292 30.881,-43.748 58.597,-43.748 27.716,0 51.121,18.456 58.596,43.748 2.136,7.226 2.726,14.82 2.047,22.324 z"
             style="fill:#fef0ae;fill-opacity:1;fill-rule:nonzero;stroke:none"
             id="path2761" />
        </g>
        <g
           id="g2763"
           transform="translate(206.6431,172.8364)">
          <path
             d="m 0,0 -5.219,40.762 h -30 L -30,0 c 0.68,-7.504 0.089,-15.098 -2.046,-22.323 -6.079,-20.57 -22.695,-36.617 -43.597,-41.893 4.799,-1.211 9.824,-1.856 15,-1.856 27.716,0 51.122,18.456 58.597,43.749 C 0.089,-15.098 0.68,-7.504 0,0"
             style="fill:#fee97d;fill-opacity:1;fill-rule:nonzero;stroke:none"
             id="path2765" />
        </g>
        <g
           id="g2767"
           transform="translate(444.5316,243.1035)">
          <path
             d="m 0,0 c 0,12.035 -8.322,26.188 -18.743,39.194 -26.618,33.219 -30.792,74.699 -30.792,117.267 v 20.269 l -34.647,19 -30.745,-20 v -19.269 c 0,-42.568 -4.174,-84.048 -30.792,-117.267 C -156.14,26.188 -164.462,12.035 -164.462,0 v -58.588 l 20,-64.321 -20,-60.775 v -34.502 c 0,-9.934 8.053,-17.987 17.987,-17.987 h 128.488 c 9.934,0 17.987,8.053 17.987,17.987 v 34.502 l -20,62.548 20,62.548 z"
             style="fill:#596c76;fill-opacity:1;fill-rule:nonzero;stroke:none"
             id="path2769" />
        </g>
        <g
           id="g2771"
           transform="translate(425.7885,282.2971)">
          <path
             d="m 0,0 c -26.618,33.219 -30.792,74.699 -30.792,117.268 v 26.038 h -30 V 117.268 C -60.792,74.699 -56.618,33.219 -30,0 c 10.421,-13.006 18.743,-27.159 18.743,-39.194 v -218.185 c 0,-9.934 -8.053,-17.987 -17.987,-17.987 h 30 c 9.934,0 17.987,8.053 17.987,17.987 v 34.502 l -20,64.725 20,60.371 v 58.587 C 18.743,-27.159 10.421,-13.006 0,0"
             style="fill:#4e6067;fill-opacity:1;fill-rule:nonzero;stroke:none"
             id="path2773" />
        </g>
        <path
           d="M 444.532,184.516 H 280.07 V 59.42 h 164.462 z"
           style="fill:#f7f6e7;fill-opacity:1;fill-rule:nonzero;stroke:none"
           id="path2775" />
        <path
           d="m 414.532,59.42 h 30 v 125.096 h -30 z"
           style="fill:#e6e6dc;fill-opacity:1;fill-rule:nonzero;stroke:none"
           id="path2777" />
        <g
           id="g2779"
           transform="translate(394.9962,418.8716)">
          <path
             d="m 0,0 v 66.79 c 0,9.055 -7.341,16.396 -16.397,16.396 h -32.598 c -9.055,0 -16.396,-7.341 -16.396,-16.396 l 0,-66.79 z"
             style="fill:#fea613;fill-opacity:1;fill-rule:nonzero;stroke:none"
             id="path2781" />
        </g>
        <g
           id="g2783"
           transform="translate(378.5997,502.0576)">
          <path
             d="m 0,0 h -30 c 9.056,0 16.396,-7.341 16.396,-16.396 v -66.79 h 30 v 66.79 C 16.396,-7.341 9.056,0 0,0"
             style="fill:#fe9901;fill-opacity:1;fill-rule:nonzero;stroke:none"
             id="path2785" />
        </g>
        <g
           id="g2787"
           transform="translate(401.6597,114.4678)">
          <path
             d="m 0,0 h -76.33 c -4.143,0 -7.5,3.358 -7.5,7.5 0,4.142 3.357,7.5 7.5,7.5 H 0 C 4.143,15 7.5,11.642 7.5,7.5 7.5,3.358 4.143,0 0,0"
             style="fill:#fea613;fill-opacity:1;fill-rule:nonzero;stroke:none"
             id="path2789" />
        </g>
        <g
           id="g2791"
           transform="translate(388.1064,256)">
          <path
             d="m 0,0 c 0,-19.115 -5.496,-34.612 -24.612,-34.612 -19.115,0 -34.611,15.497 -34.611,34.612 0,19.116 15.496,34.612 34.611,34.612 C -5.496,34.612 0,19.116 0,0"
             style="fill:#fea613;fill-opacity:1;fill-rule:nonzero;stroke:none"
             id="path2793" />
        </g>
        <g
           id="g2795"
           transform="translate(363.4948,290.6118)">
          <path
             d="M 0,0 C -5.374,0 -10.462,-1.225 -15,-3.411 -3.396,-9 4.612,-20.87 4.612,-34.612 c 0,-13.741 -8.008,-25.612 -19.612,-31.201 4.538,-2.186 9.626,-3.41 15,-3.41 19.116,0 34.612,15.496 34.612,34.611 C 34.612,-15.496 19.116,0 0,0"
             style="fill:#fe9901;fill-opacity:1;fill-rule:nonzero;stroke:none"
             id="path2797" />
        </g>
      </g>
    </g>
  </g>
</svg>
