<svg id="Capa_1" enable-background="new 0 0 512 512" height="512" viewBox="0 0 512 512" width="512" xmlns="http://www.w3.org/2000/svg"><g><circle cx="256" cy="256" fill="#fdd437" r="256"/><path d="m266.482 293.077-131.001-131-54.481 54.481 96.441 96.442-66.441 66.441 132.242 132.242c4.227.207 8.479.317 12.758.317 141.385 0 256-114.615 256-256 0-2.181-.028-4.356-.083-6.525l-100.917-100.917z" fill="#faba35"/><path d="m101 148.558-5 35h160l9.255-17.5-9.255-17.5z" fill="#fa5744"/><path d="m411 148.558h-155v35h160z" fill="#f42520"/><path d="m96 209.441 15 170h145l9.255-85-9.255-85z" fill="#fa5744"/><path d="m416 209.441h-160v170h145z" fill="#f42520"/><path d="m81 181.558v35h175l9.255-17.5-9.255-17.5z" fill="#f42520"/><path d="m256 181.558h175v35h-175z" fill="#bd000c"/><path d="m136 242.441 11.25 110h108.75l9.255-55-9.255-55z" fill="#fff"/><path d="m376 242.441h-120v110h108.75z" fill="#e9edf5"/><g><path d="m231.055 282.213c-7.679.509-25.881.232-48.279-15.367-.062 5.861.557 15.415 5.048 25.678 11.063 25.282 39.851 41.656 68.176 43.255l9.255-30.524-9.255-28.4c-5.942 1.958-15.726 4.747-24.945 5.358z" fill="#fa5744"/><path d="m266.717 335.675.018.01.011-.012c4.807-.389 9.535-1.225 14.084-2.566 3.552-1.047 19.111-5.827 29.673-17.904l8.196-35.12-37.756-14.348c-4.885 1.868-8.85 5.175-19.796 9.309-.802.303-2.634.984-5.147 1.812v58.924c3.592.202 7.177.18 10.717-.105z" fill="#f42520"/><path d="m330.522 261.785v.001-.001l-5.116-3.791c-.431 2.724-1.401 6.842-3.955 11.31-1.652 2.889-3.501 5.114-5.117 6.764-6.367-8.629-18.371-12.332-27.644-11.955-.456.019-.881.047-1.321.087-1.308.113-2.601.327-3.862.669-.886.239-1.729.528-2.563.865l-3.395 18.104 19.331 12.308-3.54 13.913 17.164 5.145c2.599-3.017 4.899-6.497 6.646-10.506 1.378-3.162 5.194-11.947 2.799-21.066 2.422-1.394 5.71-3.688 8.798-7.32 3.621-4.258 5.422-8.544 6.296-11.177z" fill="#89aa3b"/></g></g></svg>