<svg id="Capa_1" enable-background="new 0 0 497 497" height="512" viewBox="0 0 497 497" width="512" xmlns="http://www.w3.org/2000/svg"><g><path d="m128.251 118.349c3.876-.179 7.558-1.189 10.885-3.109 2.505-1.446 4.66-3.329 6.467-5.564 5.975 7.814 13.734 12.545 22.222 12.545s16.247-4.731 22.222-12.545c1.807 2.235 3.962 4.118 6.467 5.564 16.341 9.435 41.252-3.119 55.64-28.039s12.804-52.77-3.537-62.205c-9.654-5.574-22.297-3.469-33.995 4.326-8.762 5.838-20.578 4.762-27.995-2.711-1.269-1.279-2.598-2.432-3.978-3.447l-16.654.152-34.832 32.436-17.14 36.491z" fill="#fff8e6"/><path d="m128.25 118.334c9.927-36.329 28.917-68.909 54.396-95.167-4.483-3.298-9.509-5.152-14.821-5.152-6.947 0-13.409 3.163-18.802 8.595-7.417 7.472-19.234 8.549-27.995 2.711-11.698-7.794-24.34-9.899-33.995-4.326-16.341 9.434-17.924 37.285-3.536 62.205 11.459 19.848 29.59 31.836 44.753 31.134z" fill="#ffeab7"/><path d="m191.986 338.98c67.061-4.582 118.1-30.124 118.1-100.456 0-58.739-35.604-109.155-86.406-130.865-3.26-1.393-6.78-2.073-10.325-2.073h-81.213l-35.038 16.634-23.442 107.301 58.48 100.216z" fill="#fff8e6"/><path d="m120.464 176.529c0-24.821 4.109-48.682 11.678-70.944h-9.846c-3.545 0-7.066.68-10.325 2.073-50.801 21.71-86.406 72.126-86.406 130.865 0 78.568 63.692 101.242 142.26 101.242 8.237 0 16.307-.253 24.161-.79-43.955-40.268-71.522-98.135-71.522-162.446z" fill="#ffeab7"/><path d="m125.182 131.023h105.355c10.326 0 18.698-8.371 18.698-18.698 0-10.326-8.371-18.698-18.698-18.698h-93.922l-25.099 15.934z" fill="#df8a57"/><path d="m136.615 93.628h-31.5c-10.326 0-18.698 8.371-18.698 18.698s8.371 18.698 18.698 18.698h20.067c2.713-12.92 6.563-25.419 11.433-37.396z" fill="#c76d33"/><path d="m112.904 136.862c-31.127 11.836-64.88 15.06-97.679 9.337-10.824-1.889-17.551-12.848-14.48-23.397l.105-.359c2.627-9.021 11.602-14.684 20.858-13.073 31.348 5.458 63.787.676 92.406-13.885 2.789 5.482 5.578 10.964 8.368 16.446 4.836 9.504.39 21.14-9.578 24.931z" fill="#c76d33"/><path d="m315.165 257.568c3.876-.179 7.558-1.189 10.885-3.109 2.505-1.446 4.66-3.329 6.467-5.564 5.975 7.814 13.734 12.545 22.222 12.545s16.247-4.731 22.222-12.545c1.807 2.235 3.962 4.118 6.467 5.564 16.341 9.435 41.252-3.119 55.64-28.039s12.804-52.77-3.537-62.205c-9.654-5.574-22.297-3.469-33.995 4.326-8.762 5.838-20.578 4.762-27.995-2.711-1.269-1.279-2.598-2.432-3.978-3.447l-26.374 4.783-51.778 61.8z" fill="#fff8e6"/><path d="m315.164 257.554c9.927-36.329 28.917-68.909 54.396-95.167-4.483-3.298-9.509-5.152-14.821-5.152-6.947 0-13.409 3.163-18.802 8.595-7.417 7.472-19.234 8.549-27.995 2.711-11.698-7.794-24.34-9.899-33.995-4.326-16.341 9.435-17.925 37.285-3.537 62.205 11.46 19.848 29.591 31.836 44.754 31.134z" fill="#ffeab7"/><path d="m378.9 478.2c67.061-4.582 118.1-30.124 118.1-100.456 0-58.739-35.604-109.155-86.406-130.865-3.26-1.393-6.78-2.073-10.325-2.073h-81.193l-31.307 18.5-28.777 98.197 80.43 110.241z" fill="#fff8e6"/><path d="m307.378 315.749c0-16.844 1.897-33.243 5.479-49.003h-47.056c-32.499 26.07-53.322 66.093-53.322 110.998 0 78.568 63.692 101.242 142.26 101.242 8.237 0 16.307-.253 24.161-.79-43.955-40.269-71.522-98.136-71.522-162.447z" fill="#ffeab7"/><path d="m312.096 270.243h105.355c10.326 0 18.698-8.371 18.698-18.698 0-10.326-8.371-18.698-18.698-18.698h-93.922l-22.64 14.507z" fill="#df8a57"/><path d="m323.529 232.848h-31.5c-10.326 0-18.698 8.371-18.698 18.698 0 10.326 8.371 18.698 18.698 18.698h20.067c2.714-12.92 6.563-25.419 11.433-37.396z" fill="#c76d33"/><path d="m299.818 276.082c-31.127 11.836-64.88 15.06-97.679 9.337-10.824-1.889-17.551-12.848-14.48-23.398l.105-.359c2.627-9.021 11.602-14.684 20.858-13.073 31.348 5.458 63.787.676 92.406-13.885 2.789 5.482 5.578 10.964 8.367 16.446 4.837 9.504.391 21.141-9.577 24.932z" fill="#c76d33"/><ellipse cx="284.798" cy="417.286" fill="#ffa1ac" rx="25.807" ry="20.551"/><ellipse cx="424.681" cy="417.286" fill="#ffa1ac" rx="25.807" ry="20.551"/><path d="m379.763 391.536c-4.143 0-7.5 3.358-7.5 7.5 0 2.764-2.248 5.012-5.012 5.012s-5.012-2.248-5.012-5.012c0-4.142-3.357-7.5-7.5-7.5s-7.5 3.358-7.5 7.5c0 2.764-2.248 5.012-5.012 5.012s-5.012-2.248-5.012-5.012c0-4.142-3.357-7.5-7.5-7.5s-7.5 3.358-7.5 7.5c0 11.035 8.978 20.012 20.012 20.012 4.733 0 9.082-1.66 12.512-4.418 3.43 2.758 7.778 4.418 12.512 4.418 11.034 0 20.012-8.977 20.012-20.012 0-4.142-3.358-7.5-7.5-7.5z" fill="#334151"/><path d="m301.49 369.395c-10.705 0-19.414 8.709-19.414 19.414 0 4.142 3.357 7.5 7.5 7.5s7.5-3.358 7.5-7.5c0-2.434 1.98-4.414 4.414-4.414s4.414 1.98 4.414 4.414c0 4.142 3.357 7.5 7.5 7.5s7.5-3.358 7.5-7.5c0-10.705-8.709-19.414-19.414-19.414z" fill="#334151"/><path d="m407.989 369.395c-10.705 0-19.414 8.709-19.414 19.414 0 4.142 3.357 7.5 7.5 7.5s7.5-3.358 7.5-7.5c0-2.434 1.98-4.414 4.414-4.414s4.414 1.98 4.414 4.414c0 4.142 3.357 7.5 7.5 7.5s7.5-3.358 7.5-7.5c0-10.705-8.709-19.414-19.414-19.414z" fill="#334151"/><g fill="#fad989"><path d="m295.271 348.617c1.84 0 3.685-.673 5.132-2.032 11.832-11.109 18.348-28.058 17.006-44.23-.342-4.127-3.964-7.197-8.095-6.854-4.128.342-7.196 3.966-6.854 8.094.973 11.721-3.749 24.004-12.324 32.055-3.02 2.835-3.169 7.582-.334 10.602 1.475 1.571 3.469 2.365 5.469 2.365z"/><path d="m409.077 346.585c1.448 1.359 3.292 2.032 5.132 2.032 1.999 0 3.994-.794 5.47-2.367 2.835-3.02 2.686-7.766-.334-10.601-8.575-8.051-13.298-20.333-12.325-32.055.342-4.128-2.727-7.752-6.854-8.094-4.116-.347-7.752 2.725-8.095 6.854-1.342 16.174 5.174 33.122 17.006 44.231z"/><path d="m354.739 339.944c4.143 0 7.5-3.358 7.5-7.5v-34.068c0-4.142-3.357-7.5-7.5-7.5s-7.5 3.358-7.5 7.5v34.068c0 4.142 3.358 7.5 7.5 7.5z"/><path d="m122.399 156.281c-4.128.342-7.196 3.966-6.854 8.094.973 11.721-3.749 24.004-12.324 32.055-3.02 2.835-3.169 7.582-.334 10.602 1.477 1.572 3.471 2.366 5.47 2.366 1.84 0 3.685-.673 5.132-2.032 11.832-11.109 18.348-28.058 17.006-44.23-.344-4.129-3.973-7.196-8.096-6.855z"/><path d="m220.105 164.375c.342-4.128-2.727-7.752-6.854-8.094-4.106-.35-7.752 2.725-8.095 6.854-1.342 16.173 5.175 33.122 17.007 44.23 1.448 1.359 3.292 2.032 5.132 2.032 1.999 0 3.994-.794 5.47-2.367 2.835-3.02 2.686-7.766-.334-10.601-8.576-8.05-13.298-20.333-12.326-32.054z"/><path d="m167.825 151.657c-4.143 0-7.5 3.358-7.5 7.5v34.068c0 4.142 3.357 7.5 7.5 7.5s7.5-3.358 7.5-7.5v-34.068c0-4.142-3.357-7.5-7.5-7.5z"/></g></g></svg>