<svg height="512" viewBox="0 0 32 32" width="512" xmlns="http://www.w3.org/2000/svg"><g id="Shrimp"><g fill="#68c7d3"><path d="m22.55 17.89-1.12-.56a3 3 0 0 1 -1.6-2.09l-.81-4 2-.4.81 4a1 1 0 0 0 .53.7l1.13.57z"/><path d="m19.45 20.83-1.56-1a5 5 0 0 1 -2.16-3.33l-.73-4.34 2-.32.71 4.29a3 3 0 0 0 1.3 2l1.55 1z"/><path d="m24 11h4v2h-4z"/><path d="m27 9h-2v-2h2a2 2 0 0 0 0-4h-8v-2h8a4 4 0 0 1 0 8z"/></g><path d="m20 31h-1.39a11.94 11.94 0 0 1 -6.61-2v-4a11.94 11.94 0 0 1 6.61-2h1.39a4.83 4.83 0 0 1 -1.41 3.41l-.59.59.59.59a4.83 4.83 0 0 1 1.41 3.41z" fill="#d1e6e9"/><path d="m12 25a4 4 0 0 1 -4-4 6 6 0 0 1 6-6h5a8 8 0 0 0 8-8 2 2 0 0 0 -2-2h-11a13 13 0 0 0 -13 13 11 11 0 0 0 11 11z" fill="#d1e6e9"/><circle cx="23" cy="8" fill="#30acc2" r="1"/><path d="m10.85 24.83a12.23 12.23 0 0 1 -3.83 3 11 11 0 0 1 -2-1.3l.25-.1a10.56 10.56 0 0 0 3.84-2.64 4 4 0 0 0 1.74 1.04z" fill="#a1d8df"/><path d="m8 21a4.48 4.48 0 0 0 .05.64 14.31 14.31 0 0 1 -3.05.36 14.09 14.09 0 0 1 -3.41-.42 9.67 9.67 0 0 1 -.5-2.22 12.33 12.33 0 0 0 7.09.22 5.76 5.76 0 0 0 -.18 1.42z" fill="#a1d8df"/><path d="m10.79 15.94a5.94 5.94 0 0 0 -1.71 1.63 13 13 0 0 1 -6.85-5.11 14.17 14.17 0 0 1 1.15-2 11 11 0 0 0 7.41 5.48z" fill="#a1d8df"/><path d="m14.51 15h-.51a6.13 6.13 0 0 0 -1.82.28 17.19 17.19 0 0 1 -3.28-9.28 13.52 13.52 0 0 1 2-.66 15.17 15.17 0 0 0 3.61 9.66z" fill="#a1d8df"/></g></svg>