<?xml version="1.0" encoding="iso-8859-1"?>
<!-- Generator: Adobe Illustrator 19.0.0, SVG Export Plug-In . SVG Version: 6.00 Build 0)  -->
<svg version="1.1" id="Capa_1" xmlns="http://www.w3.org/2000/svg" xmlns:xlink="http://www.w3.org/1999/xlink" x="0px" y="0px"
	 viewBox="0 0 512 512" style="enable-background:new 0 0 512 512;" xml:space="preserve">
<path style="fill:#3D9AE2;" d="M504.411,137.513V374.49c0,5.798-4.705,10.503-10.503,10.503H137.107V127.01h356.801
	c2.894,0,5.525,1.174,7.427,3.076S504.411,134.619,504.411,137.513z"/>
<path style="fill:#78B9EB;" d="M374.893,139.152v233.699c0,6.709-5.434,12.142-12.142,12.142H19.741
	c-6.709,0-12.152-5.434-12.152-12.142V139.152c0-6.709,5.444-12.142,12.152-12.142h343.01
	C369.46,127.01,374.893,132.443,374.893,139.152z"/>
<path style="fill:#3D9AE2;" d="M504.411,353.929v20.561c0,5.798-4.705,10.503-10.503,10.503H19.731
	c-6.709,0-12.142-5.434-12.142-12.142V139.162c0-6.709,5.444-12.152,12.152-12.152h41.486c-6.709,0-12.152,5.434-12.152,12.142
	V333.55c0,11.252,9.127,20.379,20.379,20.379H504.411z"/>
<path style="fill:#1E81CE;" d="M374.893,353.929v18.922c0,6.709-5.434,12.142-12.142,12.142h131.157
	c5.798,0,10.503-4.705,10.503-10.503v-20.561H374.893z"/>
<path style="fill:#FFD422;" d="M374.893,206.208v99.587h-91.47c-4.768,0-9.306,2.205-12.126,6.049
	c-17.751,24.196-46.381,39.91-78.681,39.91c-32.31,0-60.94-15.714-78.683-39.91c-2.819-3.844-7.356-6.049-12.123-6.049H7.589
	v-99.587h91.758c4.944,0,9.627-2.386,12.392-6.484c17.517-25.953,47.202-43.026,80.878-43.026c33.667,0,63.351,17.073,80.876,43.026
	c2.767,4.098,7.45,6.484,12.395,6.484L374.893,206.208L374.893,206.208z"/>
<rect x="7.589" y="206.207" style="fill:#EEBF00;" width="41.486" height="99.587"/>
<path d="M504.21,119.421c-12.188,0-444.95,0-484.468,0C8.854,119.421,0,128.275,0,139.152v67.056v99.587v67.056
	c0,10.877,8.854,19.731,19.741,19.731h27.816c4.191,0,7.589-3.398,7.589-7.589c0-4.191-3.398-7.589-7.589-7.589H19.731
	c-2.514,0-4.553-2.039-4.553-4.553v-59.467h86.635c2.408,0,4.644,1.103,6,2.945c41.978,57.246,127.574,57.292,169.608,0
	c1.346-1.842,3.592-2.945,6-2.945h83.883v59.467c0,2.504-2.049,4.553-4.553,4.553c-10.893,0-282.969,0-287.874,0
	c-4.191,0-7.589,3.398-7.589,7.589c0,4.191,3.398,7.589,7.589,7.589c20.5,0,407.111,0,429.534,0c4.189,0,7.589-3.4,7.589-7.589
	V127.01C512,122.745,508.437,119.305,504.21,119.421z M486.661,134.599l-47.009,49.216l-47.009-49.216H486.661z M367.304,198.619
	h-31.368c-4.191,0-7.589,3.398-7.589,7.589c0,4.191,3.398,7.589,7.589,7.589h31.368v84.409h-83.883
	c-7.215,0-14.045,3.42-18.244,9.147c-35.93,48.982-109.17,49.039-145.121,0c-4.199-5.727-11.029-9.147-18.244-9.147H15.178v-84.409
	h84.166c7.548,0,14.53-3.673,18.689-9.825c35.683-52.89,113.484-52.859,149.168,0c4.159,6.152,11.141,9.825,18.689,9.825h22.726
	c4.191,0,7.589-3.398,7.589-7.589c0-4.191-3.398-7.589-7.589-7.589H285.89c-2.499,0-4.776-1.174-6.112-3.137
	c-41.642-61.699-132.567-61.884-174.333,0c-1.326,1.963-3.602,3.137-6.102,3.137H15.178v-59.467c0-2.514,2.039-4.553,4.553-4.553
	c20.151,0,323.193,0,343.02,0c2.504,0,4.553,2.049,4.553,4.553V198.619z M496.822,377.404h-49.581v-111.79
	c0-4.191-3.398-7.589-7.589-7.589c-4.191,0-7.589,3.398-7.589,7.589v111.79h-50.117c0.802-3.3,0.55-216.68,0.536-231.469
	l49.581,51.908v40.45c0,4.191,3.398,7.589,7.589,7.589c4.191,0,7.589-3.398,7.589-7.589v-40.198c0-0.081-0.008-0.161-0.011-0.241
	l49.592-51.919V377.404z"/>
<path d="M91.694,253.802c4.256-1.847,6.825-6.102,6.825-12.606c0-11.401-8.029-14.29-16.057-14.29H66.002
	c-2.729,0-5.459,1.285-5.459,3.854v51.062c0,2.007,2.087,3.773,5.459,3.773h17.824c9.072,0,16.137-4.577,16.137-17.261v-1.687
	C99.963,258.618,96.592,255.647,91.694,253.802z M72.987,237.824h8.43c3.052,0,4.577,2.81,4.577,5.62c0,2.73-1.526,5.54-4.577,5.54
	h-8.43V237.824z M81.015,274.675h-8.029v-16.057c5.995,0.799,14.451-2.985,14.451,7.387
	C87.312,266.462,88.489,274.675,81.015,274.675z"/>
<path d="M140.428,226.905c-3.212,0-6.261,1.123-6.261,3.773v36.45c0,5.46-2.89,8.029-7.707,8.029c-4.817,0-7.707-2.569-7.707-8.029
	v-36.45c0-2.65-3.212-3.773-6.262-3.773c-3.212,0-6.261,1.123-6.261,3.773v36.45c0,13.809,8.831,18.948,20.232,18.948
	c11.321,0,20.232-5.138,20.232-18.948v-36.45C146.691,228.029,143.479,226.905,140.428,226.905z"/>
<path d="M189.884,226.905h-34.683c-2.649,0-3.773,2.89-3.773,5.54c0,3.051,1.365,5.701,3.773,5.701h11.079v43.595
	c0,2.569,3.132,3.854,6.262,3.854s6.261-1.285,6.261-3.854v-43.595h11.08c2.408,0,3.773-2.65,3.773-5.701
	C193.658,229.795,192.533,226.905,189.884,226.905z"/>
<path d="M233.399,226.905h-34.683c-2.65,0-3.773,2.89-3.773,5.54c0,3.051,1.365,5.701,3.773,5.701h11.079v43.595
	c0,2.569,3.132,3.854,6.262,3.854c3.131,0,6.261-1.285,6.261-3.854v-43.595h11.08c2.408,0,3.773-2.65,3.773-5.701
	C237.172,229.795,236.048,226.905,233.399,226.905z"/>
<path d="M276.192,237.824c2.408,0,3.773-2.569,3.773-5.54c0-2.569-1.123-5.379-3.773-5.379h-28.583
	c-2.729,0-5.459,1.285-5.459,3.854v50.981c0,2.569,2.729,3.854,5.459,3.854h28.583c2.649,0,3.773-2.81,3.773-5.379
	c0-2.971-1.365-5.54-3.773-5.54h-21.518v-13.649h12.043c2.649,0,3.773-2.569,3.773-4.738c0-2.569-1.365-4.897-3.773-4.897h-12.043
	v-13.568L276.192,237.824L276.192,237.824z"/>
<path d="M315.932,260.385c5.621-2.168,9.716-7.307,9.716-16.298c0-13.086-8.751-17.18-19.751-17.18h-16.619
	c-2.329,0-3.854,1.766-3.854,3.773v51.062c0,2.569,3.131,3.854,6.261,3.854s6.261-1.285,6.261-3.854v-19.35h5.299l10.999,21.356
	c0.883,1.686,2.409,2.328,4.015,2.328c3.692,0,7.867-3.373,7.867-6.503c0-0.402-0.08-0.963-0.401-1.446L315.932,260.385z
	 M305.898,252.757h-7.948v-14.933h7.948c4.496,0,7.227,1.847,7.227,7.466S310.393,252.757,305.898,252.757z"/>
<g>
</g>
<g>
</g>
<g>
</g>
<g>
</g>
<g>
</g>
<g>
</g>
<g>
</g>
<g>
</g>
<g>
</g>
<g>
</g>
<g>
</g>
<g>
</g>
<g>
</g>
<g>
</g>
<g>
</g>
</svg>
