<svg id="Layer_1" enable-background="new 0 0 56 56" height="512" viewBox="0 0 56 56" width="512" xmlns="http://www.w3.org/2000/svg"><g><g><path d="m51.85 19.53c.49 1.46-.29 3.04-1.75 3.53l-23.95 8.08-1.78-5.28 23.95-8.08c1.46-.49 3.04.29 3.53 1.75z" fill="#864040"/></g><g><path d="m51.85 19.53c.49 1.46-.29 3.04-1.75 3.53l-23.95 8.08-1.78-5.28 23.95-8.08c1.46-.49 3.04.29 3.53 1.75z" fill="#632928"/></g><g><path d="m32.6 28.96-6.46 2.17-1.77-5.27 6.45-2.18z" fill="#e59148"/></g><g><path d="m28.24 26.98c0 7.45-5.44 13.51-12.13 13.51s-12.11-6.06-12.11-13.51z" fill="#dddad7"/></g><g><path d="m28.24 26.98c0 3.55-5.44 6.43-12.13 6.43s-12.11-2.88-12.11-6.43c0-3.56 5.42-6.44 12.11-6.44s12.13 2.88 12.13 6.44z" fill="#ede9e6"/></g><g><path d="m16.11 32.67c-6.17 0-11.37-2.6-11.37-5.69s5.22-11.47 11.38-11.47c6.17 0 11.38 8.38 11.38 11.47s-5.21 5.69-11.39 5.69z" fill="#864040"/></g><g><path d="m19.9 27.42c0 .41-.34.75-.75.75-.43 0-.77-.34-.77-.75 0-.43.34-.77.77-.77.41 0 .75.34.75.77z" fill="#753434"/></g><g><path d="m23.92 29.67c0 .41-.34.75-.75.75-.43 0-.77-.34-.77-.75 0-.43.34-.77.77-.77.41 0 .75.34.75.77z" fill="#753434"/></g><g><path d="m8.28 25.15c0 .41-.34.75-.75.75-.43 0-.77-.34-.77-.75 0-.43.34-.77.77-.77.41.01.75.35.75.77z" fill="#753434"/></g><g><path d="m18.39 23.26c0 .41-.34.75-.75.75-.43 0-.77-.34-.77-.75 0-.43.34-.77.77-.77.41.01.75.35.75.77z" fill="#753434"/></g><g><path d="m21.41 20.25c0 .41-.34.75-.75.75-.43 0-.77-.34-.77-.75 0-.43.34-.77.77-.77.41 0 .75.34.75.77z" fill="#753434"/></g><g><path d="m24.68 25.15c0 .41-.34.75-.75.75-.43 0-.77-.34-.77-.75 0-.43.34-.77.77-.77.41.01.75.35.75.77z" fill="#753434"/></g><g><path d="m16.38 30.43c0 .41-.34.75-.75.75-.43 0-.77-.34-.77-.75 0-.43.34-.77.77-.77.41 0 .75.34.75.77z" fill="#753434"/></g><g><path d="m15.27 17.64c0 .41-.34.75-.75.75-.43 0-.77-.34-.77-.75 0-.43.34-.77.77-.77.41 0 .75.34.75.77z" fill="#753434"/></g><g><path d="m12.8 22.5c0 .41-.34.75-.75.75-.43 0-.77-.34-.77-.75 0-.43.34-.77.77-.77.41 0 .75.34.75.77z" fill="#753434"/></g><g><path d="m10.83 28.9c0 .41-.34.75-.75.75-.43 0-.77-.34-.77-.75 0-.43.34-.77.77-.77.41.01.75.35.75.77z" fill="#753434"/></g><g><path d="m14.85 26.22c0 .41-.34.75-.75.75-.43 0-.77-.34-.77-.75 0-.43.34-.77.77-.77.42.01.75.34.75.77z" fill="#753434"/></g></g></svg>