<?xml version="1.0" encoding="UTF-8"?>
<svg xmlns="http://www.w3.org/2000/svg" xmlns:xlink="http://www.w3.org/1999/xlink" version="1.1" id="Capa_1" x="0px" y="0px" viewBox="0 0 506.768 506.768" style="enable-background:new 0 0 506.768 506.768;" xml:space="preserve" width="512" height="512">
<g>
	<path style="fill:#ACE094;" d="M365.325,35.33c25.569,17.89,32.768,51.727,16.08,75.577l0,0l-46.296-32.393&#10;&#9;&#9;c-21.844-15.283-30.28-42.206-21.87-64.597c2.271-6.047,9.739-8.217,15.031-4.514L365.325,35.33z"/>
	<path style="fill:#ACE094;" d="M457.917,100.115l37.054,25.926c5.292,3.703,5.813,11.462,0.91,15.668&#10;&#9;&#9;c-18.154,15.574-46.337,16.874-68.18,1.59l-46.296-32.393l0,0C398.093,87.057,432.348,82.225,457.917,100.115z"/>
	<path style="fill:#D97C41;" d="M368.524,157.032l-24.677-17.266l24.807-35.454c4.768-6.814,7.559,1.007,14.373,5.775l0,0&#10;&#9;&#9;c6.814,4.768,15.072,4.676,10.304,11.491L368.524,157.032z"/>
	<path style="fill:#E4996D;" d="M356.816,213.166l-61.693-43.165l17.266-24.677c11.92-17.036,35.393-21.183,52.429-9.264h0&#10;&#9;&#9;c17.036,11.92,21.183,35.393,9.264,52.429L356.816,213.166z"/>
	<path style="fill:#F8AD3E;" d="M190.725,247.153l7.904-11.296c2.187-3.125,4.54-6.106,6.929-9.061l-0.435-0.22l-30.351-16.539&#10;&#9;&#9;c-59.11-32.194-125.09-18.959-147.371,29.563c-1.671,3.639-3.065,7.425-4.174,11.336l-15.108,53.3&#10;&#9;&#9;c-3.966,13.994,11.955,25.133,23.742,16.61l33.419-24.165c24.215-17.504,60.057-19.115,93.738-4.212l9.17,6.416&#10;&#9;&#9;C172.39,280.02,179.994,262.566,190.725,247.153z"/>
	<path style="fill:#FDC072;" d="M429.076,385.144c5.254-28.957-4.289-59.543-25.641-82.181l-31.186-33.051&#10;&#9;&#9;c-9.886,25.728-21.67,50.622-35.264,74.495l2.362,0.854c18.586,20.715,24.908,48.89,16.533,73.687l-10.989,32.525&#10;&#9;&#9;c-3.788,11.212,9.395,20.437,18.631,13.036l35.131-28.15C414.667,423.52,425.39,405.47,429.076,385.144L429.076,385.144z"/>
	<path style="fill:#FFD9A0;" d="M388.42,252.034l-2.42,8.25c-14.23,48.54-35.94,93.88-64.52,134.72&#10;&#9;&#9;c-14.37,20.57-32.05,38.66-52.54,53.76c-1.52,1.12-3.06,2.23-4.61,3.31c-152.5-26.46-57.17-274.35-57.17-274.35l-0.01-0.02&#10;&#9;&#9;c17.85-9.79,37.94-16.22,65.46-26.51c7.77-2.92,16.22-4.49,24.98-4.64C353.22,145.554,403.53,200.444,388.42,252.034z"/>
	<path style="fill:#FDC072;" d="M264.33,452.074c-43.98,30.83-98.57,47.11-156.89,47.11c-10.25,0-20.6-0.51-31.04-1.52&#10;&#9;&#9;c-12.72-1.23-16.33-18.08-5.24-24.41l42.75-24.42c7.84-4.47,14.45-10.47,19.49-17.67c12.2-17.45,14.21-40.58,5.43-62.67&#10;&#9;&#9;c-19.11-48.15-14.72-98.56,11.89-136.58c1.123-1.123,7.883-12.78,19.5-25.29c12.722-13.44,27.485-24.173,36.94-28.9&#10;&#9;&#9;C195.07,258.054,193.58,375.394,264.33,452.074z"/>
	<path style="fill:#FFA1AC;" d="M229.97,351.8c9.869,8.346,9.373,25.158-1.107,37.551c-10.48,12.393-26.977,15.674-36.846,7.327&#10;&#9;&#9;c-9.869-8.346-9.374-25.158,1.107-37.551C203.604,346.734,220.101,343.454,229.97,351.8z"/>
	<path style="fill:#FFA1AC;" d="M294.875,275.05c9.869,8.346,26.365,5.065,36.846-7.327c10.48-12.393,10.976-29.205,1.107-37.551&#10;&#9;&#9;c-9.869-8.346-26.366-5.066-36.846,7.327C285.502,249.892,285.006,266.704,294.875,275.05z"/>
	<path style="fill:#495560;" d="M263.992,283.722c-11.181-9.456-19.081-2.244-27.531,7.748c-8.45,9.992-14.249,18.98-3.068,28.435&#10;&#9;&#9;c11.181,9.455,27.094,9.02,35.544-0.971C277.387,308.943,275.173,293.178,263.992,283.722z"/>
</g>
<g>
	
		<polyline style="fill:none;stroke:#000000;stroke-width:15;stroke-linecap:round;stroke-linejoin:round;stroke-miterlimit:10;" points="&#10;&#9;&#9;375.351,147.285 394.421,120.035 369.751,102.775 350.691,130.015 &#9;"/>
	<path style="fill:none;stroke:#000000;stroke-width:15;stroke-linecap:round;stroke-linejoin:round;stroke-miterlimit:10;" d="&#10;&#9;&#9;M375.211,186.785c13.769-22.074,1.347-51.523-24.52-56.77c-14.23-2.86-29.45,2.68-38.3,15.33l-1.44,2.06"/>
	<path style="fill:none;stroke:#000000;stroke-width:15;stroke-linecap:round;stroke-linejoin:round;stroke-miterlimit:10;" d="&#10;&#9;&#9;M46.93,213.66c29.235-25.162,77.489-28.743,122.631-6.305"/>
	<path style="fill:none;stroke:#000000;stroke-width:15;stroke-linecap:round;stroke-linejoin:round;stroke-miterlimit:10;" d="&#10;&#9;&#9;M129.341,283.645c-21.066-3.313-40.117,0.089-53.14,6.6c-7.723,3.671-8.548,4.745-44.34,30.62c-11.79,8.52-27.71-2.61-23.74-16.61&#10;&#9;&#9;c16.286-57.447,15.916-57.297,19.28-64.63"/>
	<path style="fill:none;stroke:#000000;stroke-width:15;stroke-linecap:round;stroke-linejoin:round;stroke-miterlimit:10;" d="&#10;&#9;&#9;M380.281,278.445l23.16,24.54c37.835,40.136,35.705,100.959-4.79,133.39l-35.13,28.15c-9.23,7.41-22.42-1.82-18.63-13.03&#10;&#9;&#9;l10.99-32.53c7.16-21.2,3.57-44.88-9.24-64.24"/>
	<path style="fill:none;stroke:#000000;stroke-width:15;stroke-linecap:round;stroke-linejoin:round;stroke-miterlimit:10;" d="&#10;&#9;&#9;M77.161,289.785c3.69,7.17,18.39,40.53-8.3,73.88"/>
	<path style="fill:none;stroke:#000000;stroke-width:15;stroke-linecap:round;stroke-linejoin:round;stroke-miterlimit:10;" d="&#10;&#9;&#9;M114.035,190.493c0,0-22.588-50.116-67.765-45.176"/>
	<path style="fill:none;stroke:#000000;stroke-width:15;stroke-linecap:round;stroke-linejoin:round;stroke-miterlimit:10;" d="&#10;&#9;&#9;M423.211,333.405c4.81-1.49,45.61-13.11,59.77,15.21"/>
	<path style="fill:none;stroke:#000000;stroke-width:15;stroke-linecap:round;stroke-linejoin:round;stroke-miterlimit:10;" d="&#10;&#9;&#9;M422.741,408.846c0,0,30.118,22.588,22.588,45.176"/>
	<path style="fill:none;stroke:#000000;stroke-width:15;stroke-linecap:round;stroke-linejoin:round;stroke-miterlimit:10;" d="&#10;&#9;&#9;M174.271,145.315c50.29-18.86,74.33,4.27,80.9,12.42"/>
	<path style="fill:none;stroke:#000000;stroke-width:15;stroke-linecap:round;stroke-linejoin:round;stroke-miterlimit:10;" d="&#10;&#9;&#9;M280.411,439.765c3.78,4.26,20.2,25.1,6.8,51.9"/>
	<path style="fill:none;stroke:#000000;stroke-width:15;stroke-linecap:round;stroke-linejoin:round;stroke-miterlimit:10;" d="&#10;&#9;&#9;M205.955,482.337c47.858-17.41,87.74-47.541,115.524-87.308c28.577-40.842,50.292-86.188,64.519-134.729l2.418-8.244&#10;&#9;&#9;c9.418-32.151-7.16-66.835-35.094-87.225c-23.161-16.778-53.936-23.668-80.71-13.616c-42.992,16.063-53.152,19.088-69.193,28.678&#10;&#9;&#9;c-13.015,7.781-25.115,17.59-35.531,29.275c-6.805,7.637-10.32,12.98-17.157,22.753c-27.758,39.691-30.187,90.52-11.9,136.592&#10;&#9;&#9;c12.461,31.368,2.962,64.427-24.918,80.341l-42.749,24.419c-11.091,6.336-7.48,23.178,5.233,24.409&#10;&#9;&#9;c2.061,0,47.554,6.103,100.031-6.482"/>
	<path style="fill:none;stroke:#000000;stroke-width:15;stroke-linecap:round;stroke-linejoin:round;stroke-miterlimit:10;" d="&#10;&#9;&#9;M365.325,35.352c25.569,17.89,32.768,51.727,16.08,75.577l-46.296-32.393c-21.844-15.283-30.28-42.206-21.87-64.597&#10;&#9;&#9;c2.271-6.047,9.739-8.217,15.031-4.514L365.325,35.352z"/>
	<path style="fill:none;stroke:#000000;stroke-width:15;stroke-linecap:round;stroke-linejoin:round;stroke-miterlimit:10;" d="&#10;&#9;&#9;M457.917,100.137l37.054,25.926c5.292,3.703,5.813,11.462,0.91,15.668c-18.154,15.574-46.337,16.874-68.18,1.59l-46.296-32.393&#10;&#9;&#9;C398.093,87.079,432.348,82.247,457.917,100.137z"/>
	
		<line style="fill:none;stroke:#000000;stroke-width:15;stroke-linecap:round;stroke-linejoin:round;stroke-miterlimit:10;" x1="183.669" y1="344.718" x2="192.832" y2="352.467"/>
	<path style="fill:none;stroke:#000000;stroke-width:15;stroke-linecap:round;stroke-linejoin:round;stroke-miterlimit:10;" d="&#10;&#9;&#9;M263.993,283.744c-11.181-9.455-19.081-2.244-27.531,7.748c-8.45,9.992-14.249,18.98-3.068,28.435&#10;&#9;&#9;c11.181,9.455,27.094,9.02,35.544-0.971C277.387,308.964,275.173,293.199,263.993,283.744z"/>
	
		<line style="fill:none;stroke:#000000;stroke-width:15;stroke-linecap:round;stroke-linejoin:round;stroke-miterlimit:10;" x1="280.183" y1="230.593" x2="289.346" y2="238.342"/>
</g>















</svg>
