<svg id="Layer_1" enable-background="new 0 0 38 38" height="512" viewBox="0 0 38 38" width="512" xmlns="http://www.w3.org/2000/svg"><g id="_x33_7"><g><g><g><g><g><path d="m29.4122944 19.0396576c0 3.6199589-4.8491993 6.5646992-10.8061199 6.5646992-5.9702768 0-10.8196411-2.9447403-10.8196411-6.5646992 0-3.6201229 4.8493648-6.5648632 10.8196411-6.5648632 5.9569206 0 10.8061199 2.9447403 10.8061199 6.5648632z" fill="#57b3fe"/></g></g><g><g><path d="m29.407095 19.0400009v9.3924198c0 .6460056-.15555 1.2682037-.4426956 1.8544731-1.3162575 2.7280331-5.4680424 4.7142467-10.3616467 4.7142467-5.9704762 0-10.8161736-2.9433174-10.8161736-6.5687199v-9.3924198c0 3.6254005 4.8456979 6.5687199 10.8161736 6.5687199 5.958498.0000001 10.8043423-2.9433192 10.8043423-6.5687198z" fill="#5094ff"/></g></g><g><g><g><g><path d="m8.5422935 16.6401691c0-5.4124699 10.8412685-7.9197245 17.0715218-4.324172 1.9665642 1.1349382 3.0495872 2.6706247 3.0495872 4.324172h-.4813118c0-3.0483189-4.2972164-5.5283461-9.5792427-5.5283461s-9.5792418 2.4800272-9.5792418 5.5283461z" fill="#8ad0ff"/></g><g><path d="m8.5422935 15.3312025c0-5.4124489 10.8413448-7.9198027 17.0715218-4.324173 1.9665642 1.1349382 3.0495872 2.6706247 3.0495872 4.324173h-.4813118c0-3.0483427-4.2972164-5.5283699-9.5792427-5.5283699s-9.5792418 2.4800272-9.5792418 5.5283699z" fill="#57b3fe"/></g><g><g><path d="m28.1829128 14.0645714v3.9063148c0 3.2036171-4.2971458 5.8123398-9.5800171 5.8123398-5.282896 0-9.5800419-2.6087227-9.5800419-5.8123398v-3.9063148z" fill="#5094ff"/></g></g><g><g><path d="m18.6028957 8.2522326c-3.4924288 0-6.5554829 1.1397562-8.2285366 2.8397427-.858654.8701925-1.3515053 1.8886566-1.3515053 2.9744997 0 3.2055454 4.2971458 5.8123398 9.5800419 5.8123398 3.6117458 0 6.7614498-1.2186985 8.3940563-3.0130196.7547073-.8316975 1.1859608-1.7847099 1.1859608-2.7993202 0-3.2055436-4.2971458-5.8142424-9.5800171-5.8142424z" fill="#fff"/></g></g><g><path d="m12.5494213 12.9463663c.1480808-.5423622.3549433-1.0588589.6900024-1.5100098l.5999756.5700684c-.4840393.1489477-.9411773.4605074-1.289978.9399414z" fill="#f3f1fc"/></g><g><path d="m27.0694408 15.87642c.0100098.3399668-.0200195.6700449-.0700073.9899912-2.4056988 2.6255875-7.2468567 3.4461975-10.8900146 2.7999268.2299805-.0200195.4500122-.0499268.6799927-.0999756-2.0602398-.2173729-4.0792942-.8668385-5.75-2.1199951-.004323-.006506.0627508.0563107-.5499878-.4799805-.0200195-.0200195-.0300293-.0400391-.0599976-.0600586.3611622-.6816788.9878635-1.4007797 1.7199707-1.5998545.1500244.4899902.460022.9199228.8300171 1.2799082 1.8220463 1.8217278 4.8242874 2.3382454 7.4199829 2.1199951.0100098 0 .0200195 0 .0400391-.0100098 2.3527984-.1177482 4.8615818-1.019144 6.6300048-2.8199472z" fill="#f3f1fc"/></g><g><g><path d="m25.8894482 10.296464c-3.1791248-2.2519808-8.3164749-2.5644975-11.9400024-1.3100586-.4200439.1400146-.8099976.3000488-1.1900024.4699707-2.7152929 1.2909536-4.6311293 3.6377249-3.3300171 6.2900391.3599854-.7099609.9299927-1.3699951 1.6799927-1.9399414 1.9257975-1.4849987 5.5510311-2.600462 9.5700073-2.0600586 2.6418266.3479443 5.9124966 1.6246691 7.0999756 4 .8329276-1.6979218.4399642-3.78821-1.8899537-5.4499512z" fill="#5094ff"/></g></g><g><path d="m12.7613745 9.4612713v3.3595734c-.6141434.2868605-1.1686163.618021-1.6518555.9876537v-3.3595505c.4832392-.3696556 1.0377121-.7008161 1.6518555-.9876766z" fill="#497bfe"/></g><g><path d="m16.4925308 8.3966265v3.357646c-.9048805.1231956-1.7597036.3253565-2.5471001.5929451v-3.3595505c.7873965-.2675886 1.6422196-.4697495 2.5471001-.5910406z" fill="#497bfe"/></g><g><path d="m25.8915863 10.2987728v3.3595505c-.6180191-.4408894-1.3399887-.8240118-2.1447296-1.1358776v-3.357647c.8047409.3118897 1.5286369.6930848 2.1447296 1.1339741z" fill="#497bfe"/></g><g><path d="m22.1258125 8.6603842v3.3595505c-1.3650379-.329813-2.814621-.4498253-4.0776882-.3965893v-3.3615008c1.3754997-.0434818 2.7343846.0739775 4.0776882.3985396z" fill="#497bfe"/></g><g><g><path d="m21.1153526 8.4629211c-1.3912048-.2321033-2.668417-.2378464-2.97925-.20331-5.0611305.1435738-9.1172495 2.6921034-9.1172495 5.802949 0 1.0768709.4786253 2.0699053 1.3280859 2.931489.0239534.0357838.0479069.0717144.0838366.0956669.0239534.0238075.0359297.04776.0598831.0597363 3.9289637 3.6335545 11.971734 3.4995384 15.7816362.3829594h.0119781c1.3804321-1.1198368 1.9023781-2.3676987 1.9023781-3.4698515.0000001-2.6801263-3.0032023-4.9295341-7.0712985-5.5996391zm-9.4401807 8.9497242c-.1317425-.0836906-.2513618-.1793556-.3709822-.2871456-.8709726-.665266-1.6990681-1.8054399-1.6990681-3.0629396 0-2.823699 3.8767624-5.132844 8.7104836-5.2166796.3721561-.0746136 2.3799305.069067 3.1348.2751694 3.5774937.6820812 6.1499767 2.6441965 6.1499767 4.9415102 0 4.7565756-10.2142907 7.172904-15.92521 3.3500852zm-.3709822-.2871456c-.1435728.155695-.2512159.3111-.3350515.4428425.0239525.0239525.0479059.0359287.0718594.0597363.20331-.0956669.4067659-.1675262.6341743-.2154331-.1317425-.0836907-.2513619-.1793557-.3709822-.2871457z" fill="#8ad0ff"/></g></g><g><g><path d="m28.6634026 16.6401691c0 1.6530533-1.083046 3.1882706-3.0496578 4.3228321-6.2662697 3.615099-17.0714512 1.054018-17.0714512-4.3228321h.4813128c0 3.0472622 4.2972155 5.5263958 9.5792418 5.5263958s9.5792427-2.4791336 9.5792427-5.5263958z" fill="#8ad0ff"/></g></g><g><g><path d="m28.6634026 15.3312025c0 1.6530542-1.083046 3.1882696-3.0496578 4.3228331-6.2662697 3.615097-17.0714512 1.054018-17.0714512-4.3228331h.4813128c0 3.0472612 4.2972155 5.5263948 9.5792418 5.5263948s9.5792427-2.4791336 9.5792427-5.5263948z" fill="#57b3fe"/></g></g></g></g></g><g><g><g><g><g><g><g><g><path d="m22.9406796 14.2136917c1.9685421-1.3942404 3.9377232.4373331 3.0212345 1.8145866-.3514881.5281982-1.2496243.8790016-1.8551216.8681679-.6427116-.0114994-1.2636776-.408083-1.5444202-.9863501" fill="#dedffb"/></g><g><path d="m27.3969269 16.185461c-.2991238.4187431-.670105.8015556-1.1126537 1.1605606h-.0119782c-3.6370106 2.9751511-11.1399918 3.2258682-15.2312975.0956669 2.6673431-1.2551079 7.3596392 1.1344757 9.6198282.2991238 2.4765244-.873415 3.7209225-1.8305197 3.7328987-1.8305197.0838356-.0119772.1795025-.0359297.3110981-.0479069.4906025-.0479059 1.3042812-.0119762 2.105835.155549.2034569.047762.3949356.1076432.5862694.1675263z" fill="#e9e7fc"/></g><g opacity=".2"><path d="m21.4593945 12.7063761c-.75 1.2600098-3.0999756.1099854-4.7999878-.9699707-1.0799561-.6799316-1.8999634-1.3400879-1.8999634-1.3400879s3.289978-.4499512 3.3999634-1.6999512c.0100098-.1300049.0200195-.2700195 0-.4299316.6241646-.0416441 1.9136963.0109692 3.0700073.2199707.7339973 1.3455372 1.0119953 2.9168243.2299805 4.2199707z" fill="#111d33"/></g><g><path d="m22.3752842 12.8101377c-.0058746.0004787-1.2913704-.8355236-2.4649487-.9492331-1.1739788-.0875788-3.4481316.2336073-3.4557228.2186728.0790863.6808424.1641369 1.3620548.2552242 2.0431595 1.6848736.1426754 3.3681316.1881037 5.0425854.1372843.2140293-.4817314.4216595-.9647045.6228619-1.4498835z" fill="#d0cef2"/></g><g><path d="m18.6366444 17.2640343c-2.6031704.246645-3.6166487-1.4839382-5.0755758-1.9311333-1.8575821-.5693922-1.3956528-1.6656065-1.3985405-1.6603622.0004654.0088282 2.0143538.3117685 2.6028318.1426744.5914021-.1522808 2.1816387.5557528 3.3474255.3308907 1.1504326-.2146053 2.6498871.1536036 3.7699184.3258209 1.1028614.173562.8326855.5610485.9949322 1.4157953.1669502.8441906-1.6657467 1.1069622-4.2409916 1.3763142z" fill="#e9e7fc"/></g><g><g><path d="m27.8316402 5.6954889c-.0661106 0-.115694-.0330553-.1652756-.0661101-.3301506-.2144561-.363205-.726409-.0826397-1.1226683.4087906-.6005745 1.0947418-.5340667 1.2548904-.1322207-.6264857-.1840754-1.3277777.7204738-1.0069751 1.3209991z" fill="#8a4852"/></g><g><path d="m29.5267143 3.2941475c-.8228245-.572571-1.8253803-.2129951-2.2254543.4067657-2.25424 3.3962042-3.8747063 7.325429-5.3005161 11.1873016-.0119762.0359297-.0239544.0717134-.0479069.1076431v.0119762c.0119762.1435728.2274094.2751694.5265312.3588591.1795025.0479069.3947906.0838366.6221981.0838366.2678413 0 .8962078-.0221233 1.0169888-.2631931.1528606-.1528616 2.4814281-5.6134796 5.6833286-9.5121861.6461525-.7058875.51441-1.8424949-.2751694-2.3810031zm-1.9263324 1.23242c.2512169-.3590055.66996-.490602.9571056-.2991223.7022247.4975586-.2288914 1.7386923-.8853912 1.2921567-.2871457-.1913334-.3111001-.6461516-.0717144-.9930344z" fill="#bf7d5a"/></g><g><path d="m29.0123062 6.6921391c-2.917366 3.9394183-4.7171593 8.3186054-4.8937511 8.4951973-.2129726.4250793-2.1245441.3140764-2.1657181-.1795025v-.0119762c.0318241-.0477352.2902336-.7900467.9452744-2.4528637.3180771.5624533 1.2549706.597249 1.8306656-.3947897.20331-.3829584.3230762-.8017006.4906006-1.2084665.7897263-1.8905487 2.7398643-3.0511088 3.7569981-4.8338675.0119761.1914796.0359305.3829588.0359305.5862688z" fill="#aa6256"/></g><g><path d="m29.7999973 5.6701961c-3.335001 4.0621572-5.4519215 9.280632-5.6833286 9.5120392-.0717144.1435728-.35886.2392397-.7537956.2512159 1.5946236-3.1849232 3.4472237-6.8356838 5.8388786-9.7632561.8492661-.9279733.301445-2.4227743-.8853912-2.6323664.3728714-.0933599.8150978-.0225766 1.2084675.2513623.7897243.5383632.9213199 1.6749704.2751693 2.3810051z" fill="#8a4852"/></g></g><g><g><path d="m24.689436 16.2564259c-.1300049.8999023-1 1.5799561-1.9800415 1.9399414-.7199707.2600098-1.5.3699951-2.2699585.5-.10005.050024-1.25.1373329-1.25.4100342-.050087.100174.0708771.2030945.1599731.2700195.25.1700439.5800171.2199707.9200439.1999512-2.760622.4087257-6.6794262-.2168503-9.2300415-2.1300049-.004323-.006506.0627508.0563107-.5499878-.4799805-.0200195-.0200195-.0300293-.0400391-.0599976-.0600586.3611622-.6816788.9878635-1.4007797 1.7199707-1.5998545.0100098 0 .0300293-.0100098.0400391-.0100098.2480059-.124382 1.1995287.0099039 1.2999878.0198975.0200195.0100098.0300293.0100098.0499878.0100098 0 .0100098.0100098.0100098.0300293.0100098 2.4843216.3384113 5.3163357 1.2587156 7.8099976.3699951.1199951-.0500488.25-.0999756.2999878-.2199707.0700073-.1400146-.0499878-.3100586-.2200317-.3900146-.7281322-.318367-3.6884499.6532001-5.7999878-.2399902-.5899658-.25-1.1799927-.6600342-1.8099976-.5999756-.2314091.0289707-.7244186.2678137-1 .1298828-.1238623-.0122499-.3078051-.0855799-.3599854-.1899414-.1578484-.2007704-.1099854-.4065247-.1099854-.5100098.1657486-1.0364943.6345301-2.2880182 1.4899902-2.9099121.8800049-.6800537 2.3499756-.0100098 3.3099976-.5900879.7399902-.4499512 1.0999756-.7700195 1.2999878-1.5 0-.0100098.0200195-.0300293.0200195-.0400391.0200195-.0799561.039978-.1899414.0700073-.2999268 0 0-.0400391-.1199951-.1199951-.289917-.1300049-.3100581-.4200439-.8000484-.8600464-.9600825-.1099854-.039917-.0999756-.1800537 0-.210083.6900024-.1499023 1.9900513-.2099609 2.9000244 1.0600586.1125641.1690164.2705231.3668752.4299927.6700435.5100098 1.1099854.2700195 1.8099365.2399902 1.9100342-.1166477.5055237-.3213863 1.0815611-.6900024 1.4499512-.4899902.5500488-1.289978.8699951-2.0700073.6699219-.3499756-.0998535-.7099609-.289917-1.039978-.2199707-.2600098.0600586-.460022.2900391-.460022.5400391s.2000122.5100098.460022.5999756c.2000122.0699463.4199829.0500488.6099854 0 1.4728546-.318428 2.6250362-1.648284 4.3400269-.789917.0100098.0100098.039978.0200195.0599976.0300293 1.1260967.5629414 2.5820197 2.3133229 2.3200073 3.449952z" fill="#e9e7fc"/></g></g><g><path d="m20.5290833 19.5475235c.2304935-.0230484.6295452-.1375275.7777481-.1914787-.1435719.0598831-.4346352.1914787-.7777481.1914787z" fill="#f8f9fe"/></g><g><path d="m24.6928463 16.2571754c-.1315956.8973675-1.0050106 1.5793037-1.9860687 1.9383087-1.4535847.5204506-3.5177574.533884-3.5177574.9093437-.0119762.0239525-.0119762.0479069-.0119762.0718594.0239525.0836906.0956669.1434269.1675262.20331.3230762.2154331.7657719.2392406 1.1845131.1675262-.6482487.0996723-1.8542919.1819057-2.105835.1315975 0 0-.0119762 0-.0239525 0-1.0977707-.3384113-1.4079132-1.3679771.2991219-1.7947369 1.4266663-.4494705 2.9066334-.59165 3.4340687-.8135319.4235916-.1785831 1.2334003-.7457962 1.4117756-1.232419.1557331-.4148655-.0014324-1.1412535-.1196194-1.5674725-.2350655-.6496811-.7027798-1.182785-1.28018-1.5673265.0597363.0239534.1074963.04776.1673794.0717134.0119781.0119762.0359306.0239534.0598831.0359297 1.1153927.5471632 2.5392818 2.2473423 2.3211212 3.4458982z" fill="#f8f9fe"/></g><g><path d="m18.6493969 9.4563761c-.1699829.7299805-.5199585.9200439-1.1900024 1.1999512-1.3827038.5532084-3.1719542-.0803232-4.2599487 2.1000977-.0700073.1599121-.1400146.3299561-.1799927.5-.10956.4195366-.0122871 1.005558.4099731 1.0500488.0599976.0198975.1199951.0198975.1799927.0098877-.1035061.0207272-.278347.0928087-.4500122.1099854-.3774376.0472279-.9725618-.251605-1-.6899414v-.0600586c.2223063-1.1118002.8142691-2.2225361 1.7000122-2.8999023.8900146-.6800537 2.0800171-.2900391 3.0900269-.7299805 1-.4300537 1.4299927-.7200928 1.6199951-1.7000732.079956.2499998.1699829.7499998.079956 1.1099852z" fill="#f8f9fe"/></g></g><g opacity=".4"><path d="m11.8425522 16.4247017c-.3770781.2580891-.7133141.7056637-.873414.9572506-.1675262-.1317425-.3230762-.2751694-.4784794-.4188881.04776-.1793575.1314497-.35886.2512159-.5383625.7835522-1.1458712 2.4303427-1.2545967 2.7877703-.8973684.2513618.2631931-.8496075.3111-1.6870928.8973684z" fill="#fff"/></g></g></g></g></g></g></g><g><path d="m20.4194164 15.5364542c-.2000122.1999512-.4799805.2799072-.7399902.3399658-1.6616554.3907328-3.3361168.4347353-4.8900146.1899424-.3300171-.0499268-.6599731-.1099863-.9799805-.0699472-.8287659.1005507-1.0811014.8103037-.7000122 1.4199228.1799927.2800293.4500122.4699707.7200317.6500244 1.1699829.7401123 2.5199585 1.1800537 3.8899536 1.2700195-.2999878.0999756-.6199951.1800537-.9299927.2299805-2.0602398-.2173729-4.0792942-.8668385-5.75-2.1199951-.004323-.006506.0627508.0563107-.5499878-.4799805-.0200195-.0200195-.0300293-.0400391-.0599976-.0600586.3611622-.6816788.9878635-1.4007797 1.7199707-1.5998545 0-.0100098-.0099487-.0100098-.0099487-.0200195-.2365656-.7096968-.1085901-1.4308758.2399902-2.0500488.1006536.0028391.8106146.0228586.7099609.0200195.0800171.3999023.1199951.6099854.4200439.9099121.2199707.2299805.5899658.3300781.8800049.460083.8201017.353178 1.8532009.3309212 2.7399902.1700439.9199829-.1501465 1.8299561-.1700439 2.7600098-.1800537.2199707 0 .4699707.0198975.6099854.1800537.1498433.1746894.1428872.5168601-.080017.7399903z" fill="#d0cef2"/></g><g><path d="m15.7311459 15.7068367c-.4545259-.0239534-.9093447-.0239534-1.3518934.0119762-.0479069-.0119762-.0958128 0-.1437197 0-1.1469841.0987406-2.1037769.3873024-2.4289103 1.4836369-.0119762.0357838-.0239534.0717125-.0239534.0956669-.0597363.1675262-.0836897.3230743-.1074972.4906006 0 .0239544-.0119762.0597382-.0119762.0836906-.4734068-.2891788-.7975979-.5625954-1.1725368-.9093437-.0239534-.0119762-.0359297-.0359306-.0598831-.0597382-.0359297-.0239525-.0598831-.0598831-.0838366-.095665.2396574-.5991421.851613-1.2128544 1.4956131-1.3879709.107789-.0598822.2272635-.0956659.3470287-.1196194.2684221-.1342115 1.1435146-.0058823 1.3041344.0119762.0119762.0119772.0239525.0119772.0479059.0119772.7385329.0996562 1.5282706.2676898 2.1895246.3828126z" fill="#f8f9fe"/></g><g><g><path d="m26.9320297 11.1988411v.9005814c.4264851.6064243.6683521 1.267766.6683521 1.9631376 0 4.7565756-10.2142906 7.172904-15.92521 3.3500853-.1317425-.0836906-.2513618-.1793556-.3709822-.2871456-.8709726-.665266-1.6990681-1.8054399-1.6990681-3.0629396 0-1.3234129.858078-2.5304193 2.259923-3.4529085v-.6725875c-3.0198021 1.8172121-3.8205299 4.7217026-1.5181055 7.0569849.0239534.0357838.0479069.0717144.0838366.0956669.0239534.0238075.0359297.04776.0598831.0597363 3.9618053 3.6639271 11.9915571 3.4833221 15.7816362.3829594h.0119781c2.2179262-1.7992297 2.578169-4.2837697.6477567-6.3335706z" fill="#8ad0ff"/></g></g><g><path d="m28.9643993 30.2868938c-1.3162575 2.7280331-5.4680424 4.7142467-10.3616467 4.7142467-5.9704762 0-10.8161736-2.9433174-10.8161736-6.5687199v-4.0680962c4.4286834 6.8872244 13.3811475 9.7137892 21.1778203 5.9225694z" fill="#497bfe"/></g></g><g><path d="m17.229414 15.7163858c-.5034466.1889372-3.5058928.0653648-4.3099976-.1199951-.5646753-.130167-.6799545-.2618494-.7799683-.3099365-.161005-.4830141-.1724558-.9984121.0199585-1.5500488v-.0600586c.0499878-.25.1100464-.5.210022-.75.3300171-.25.7000122-.4399414.9299927-.3599854-.3193893.511179-.2947187 1.3148699.1300049 1.7401123 0 .0198975.0200195.039917.039978.0499268.2000122.2399902.4800415.4400635.7700195.5699463.3800049.1700439 2.2800293.25 2.6900024.2900391.0999756.0100098.2000122.0200195.289978.0700684.19446.1078433.2025262.319827.0100099.4299315z" fill="#f8f9fe"/></g></g><g><path d="m27.2443123 24.7962532c.1884251-.1270409.4351139.0002804.4351139.2275314v3.4225826c0 1.2691021-.9826679 2.3167877-2.0300293 3.0400391-1.5899658 1.0899639-4.0499878 1.8999004-7.0499878 1.8999004-4.8399658 0-9.0899658-2.3099346-9.0899658-4.9399395v-3.4239063c0-.2269917.2461939-.3544121.4346189-.2278385 4.6967812 3.1550427 12.6333742 3.1481877 17.3002501.0016308z" fill="#ffd475"/></g><g><path d="m25.6493969 31.4864063c-1.5899658 1.0899639-4.0499878 1.8999004-7.0499878 1.8999004-4.8399658 0-9.0899658-2.3099346-9.0899658-4.9399395v-1.8599854c4.016963 4.3545209 9.9744015 6.4200154 16.1399536 4.9000245z" fill="#ffb961"/></g></g><g><path d="m24.0166416 29.2153873c-.0973282-.0450077-.2048836.0493412-.1730137.1539383.1696987.5419483.2936726.998867.2558594 1.019207-.033329.0057392-.2191048-.4301224-.4222145-.9662132-.0464077-.1089668-.1951714-.114193-.240324-.0168438-1.3967247 2.6231155-1.4244785 2.3561306-.3019848-.1541748.0450382-.0972862-.0493488-.2048206-.1539345-.1729412-.5520477.1508389-.9993973.2697353-1.019701.2319756-.0059147-.0333862.4256153-.2046432.961729-.4077797.0994987-.0413342.1096954-.1807499.0072536-.2352695-.9996243-.5460625-1.9028034-1.0708694-1.8759899-1.1340504.0660572-.0355339 1.0042534.3730755 2.0206699.8370438.0973606.0450668.2048836-.0493393.1730137-.1539364-.160244-.5470352-.2841034-1.004015-.2558594-1.0192089.0428982-.0108852.2285595.4250393.4316692.9611301.0413551.0995693.185833.119215.240324.0168438 1.3969059-2.6231518 1.4244785-2.3561306.3019829.1541729-.0449219.0972252.0493507.2048225.1539345.1729412.5425949-.145752.9951439-.2552567 1.0103951-.2268944.0203056.0377598-.4206772.2141018-.9524212.4027004-.0993843.0412712-.1096649.1808071-.0167065.2403545.9997387.5459995 1.9122868 1.0658417 1.8854408 1.1289654-.0755099.040617-1.0231589-.3629055-2.0301226-.8319607z" fill="#fff"/></g></g></svg>