<svg id="Capa_1" enable-background="new 0 0 512 512" height="512" viewBox="0 0 512 512" width="512" xmlns="http://www.w3.org/2000/svg"><g><path d="m397 403.5 10 70h60c24.813 0 45-20.187 45-45v-15z" fill="#fd3"/><path d="m302 413.5v15c0 24.813 20.187 45 45 45h60v-70z" fill="#fe9"/><path d="m467 443.5c8.271 0 15-6.729 15-15v-15l-85-10 10 40z" fill="#ffc34d"/><path d="m332 428.5c0 8.271 6.729 15 15 15h60v-40l-75 10z" fill="#fd3"/><path d="m512 383.5-115-10 10 40h105z" fill="#f2ece6"/><path d="m302 383.5v30h105v-40z" fill="#fff5f5"/><path d="m512 278.5c0-15.669-3.484-31.007-10.129-45l-104.871-10 10 160h105z" fill="#e62e6b"/><path d="m312.129 233.5c-6.645 13.994-10.129 29.331-10.129 45v105h105v-160z" fill="#f66"/><path d="m495.847 222.525c-3.876-6.141-7.226-12.506-10.07-19.025l-88.777-10 10 40h94.871c-1.786-3.76-3.786-7.429-6.024-10.975z" fill="#f2ece6"/><path d="m328.224 203.5c-2.845 6.519-6.194 12.884-10.07 19.024-2.239 3.546-4.239 7.215-6.025 10.976h94.871v-40z" fill="#fff5f5"/><path d="m474.5 150.354v-36.854h-77.5l10 90h78.776c-7.404-16.969-11.276-35.02-11.276-53.146z" fill="#fd3"/><path d="m339.5 113.5v36.854c0 18.127-3.872 36.178-11.276 53.146h78.776v-90z" fill="#fe9"/><path d="m444.5 150.354v-6.854l-47.5-10 10 70h46.585c-5.976-17.181-9.085-35.114-9.085-53.146z" fill="#ffc34d"/><path d="m369.5 143.5v6.854c0 18.033-3.109 35.965-9.085 53.146h46.585v-70z" fill="#fd3"/><path d="m504.5 113.5-107.5-10 10 40h97.5z" fill="#b32453"/><path d="m309.5 113.5v30h97.5v-40z" fill="#e62e6b"/><path d="m504.5 113.5v-75h-97.5l-10 37.5 10 37.5z" fill="#e62e6b"/><path d="m309.5 38.5h97.5v75h-97.5z" fill="#f66"/><path d="m452 293.5h-45l-10 15 10 15h45z" fill="#f2ece6"/><path d="m352 293.5 10 30h45v-30z" fill="#fff5f5"/><path d="m93.145 285.296-26.586-52.31c-9.947-19.571-29.764-31.729-51.718-31.729h-14.841v-30h14.841c33.307 0 63.371 18.445 78.462 48.138l26.586 52.31z" fill="#a3b8cc"/><path d="m186.5 343.5 10 130h30.5c57.897 0 105-47.103 105-105v-15z" fill="#c48958"/><path d="m61 353.5v15c0 57.897 47.103 105 105 105h30.5v-130z" fill="#e1bb78"/><path d="m332 353.5v-30l-145.5-10 10 40z" fill="#73335e"/><path d="m196.5 313.5-135.5 10v30h135.5z" fill="#8c4d62"/><path d="m362 263.5h-165.5l-10 30 10 30h165.5z" fill="#8c4d62"/><path d="m31 263.5h165.5v60h-165.5z" fill="#a66b6b"/></g></svg>