<?xml version="1.0" encoding="UTF-8"?>
<svg xmlns="http://www.w3.org/2000/svg" xmlns:xlink="http://www.w3.org/1999/xlink" version="1.1" id="Capa_1" x="0px" y="0px" viewBox="0 0 512 512" style="enable-background:new 0 0 512 512;" xml:space="preserve" width="512" height="512">
<g>
	<path style="fill:#FFD06A;" d="M261.625,459.5c-1.973,0-3.865,0.456-5.625,1.285c-1.76-0.83-3.652-1.285-5.625-1.285&#10;&#9;&#9;c-9.32,0-16.875,10.074-16.875,22.5c0,12.426,10.074,22.5,22.5,22.5c12.426,0,22.5-10.074,22.5-22.5&#10;&#9;&#9;C278.5,469.574,270.945,459.5,261.625,459.5z"/>
	<path style="fill:#FFE8B5;" d="M250.375,52.5c1.973,0,3.865-0.456,5.625-1.285c1.76,0.83,3.652,1.285,5.625,1.285&#10;&#9;&#9;c9.32,0,16.875-10.074,16.875-22.5c0-12.426-10.074-22.5-22.5-22.5c-12.426,0-22.5,10.074-22.5,22.5&#10;&#9;&#9;C233.5,42.426,241.055,52.5,250.375,52.5z"/>
	<path style="fill:#FFB35C;" d="M330.887,445.304c-1.854,0.675-3.476,1.75-4.846,3.132c-1.938-0.178-3.872,0.041-5.725,0.716&#10;&#9;&#9;c-8.758,3.188-12.412,15.238-8.162,26.915c4.25,11.677,17.161,17.698,28.839,13.448c11.677-4.25,17.698-17.162,13.448-28.839&#10;&#9;&#9;C350.19,448.998,339.645,442.116,330.887,445.304z"/>
	<path style="fill:#FFF4DE;" d="M181.113,66.696c1.854-0.675,3.476-1.75,4.846-3.132c1.938,0.178,3.872-0.041,5.725-0.716&#10;&#9;&#9;c8.758-3.188,12.412-15.238,8.162-26.915c-4.25-11.677-17.161-17.698-28.839-13.448c-11.677,4.25-17.698,17.162-13.448,28.839&#10;&#9;&#9;C161.81,63.002,172.355,69.884,181.113,66.696z"/>
	<path style="fill:#FFD06A;" d="M391.116,408.274c-1.511,1.268-2.668,2.834-3.483,4.6c-1.881,0.496-3.624,1.363-5.135,2.631&#10;&#9;&#9;c-7.139,5.991-6.452,18.564,1.536,28.083c7.988,9.519,22.18,10.761,31.699,2.773c9.519-7.987,10.761-22.18,2.773-31.699&#10;&#9;&#9;C410.518,405.144,398.256,402.284,391.116,408.274z"/>
	<path style="fill:#FFE8B5;" d="M120.884,103.726c1.511-1.268,2.668-2.834,3.483-4.6c1.881-0.496,3.624-1.363,5.135-2.631&#10;&#9;&#9;c7.139-5.991,6.452-18.564-1.536-28.083c-7.988-9.519-22.18-10.761-31.699-2.773c-9.519,7.987-10.761,22.18-2.773,31.699&#10;&#9;&#9;C101.482,106.856,113.744,109.716,120.884,103.726z"/>
	<path style="fill:#FFB35C;" d="M435.049,352.879c-0.986,1.709-1.538,3.575-1.699,5.514c-1.598,1.109-2.939,2.52-3.926,4.229&#10;&#9;&#9;c-4.66,8.071,0.286,19.651,11.048,25.864c10.762,6.213,24.522,2.526,30.736-8.236c6.213-10.761,2.526-24.522-8.236-30.736&#10;&#9;&#9;C452.21,343.301,439.709,344.807,435.049,352.879z"/>
	<path style="fill:#FFF4DE;" d="M76.951,159.121c0.986-1.709,1.538-3.575,1.699-5.514c1.598-1.109,2.939-2.52,3.926-4.229&#10;&#9;&#9;c4.66-8.071-0.286-19.651-11.048-25.864c-10.762-6.213-24.522-2.526-30.736,8.236c-6.213,10.761-2.526,24.522,8.236,30.736&#10;&#9;&#9;C59.79,168.699,72.291,167.192,76.951,159.121z"/>
	<path style="fill:#FFD06A;" d="M457.385,285.798c-0.343,1.943-0.222,3.886,0.289,5.763c-1.123,1.589-1.9,3.374-2.243,5.316&#10;&#9;&#9;c-1.618,9.178,6.99,18.368,19.228,20.526c12.238,2.158,23.907-6.013,26.065-18.251c2.158-12.237-6.013-23.907-18.251-26.065&#10;&#9;&#9;C470.236,270.928,459.004,276.62,457.385,285.798z"/>
	<path style="fill:#FFE8B5;" d="M54.615,226.202c0.343-1.943,0.222-3.886-0.289-5.763c1.123-1.589,1.9-3.374,2.243-5.316&#10;&#9;&#9;c1.618-9.178-6.99-18.368-19.228-20.526c-12.238-2.158-23.907,6.013-26.065,18.251c-2.158,12.237,6.013,23.907,18.251,26.065&#10;&#9;&#9;C41.764,241.072,52.997,235.38,54.615,226.202z"/>
	<path style="fill:#FFE8B5;" d="M455.432,215.123c0.343,1.943,1.12,3.727,2.243,5.316c-0.511,1.877-0.632,3.82-0.289,5.763&#10;&#9;&#9;c1.618,9.178,12.851,14.869,25.088,12.712c12.238-2.158,20.409-13.828,18.251-26.065c-2.158-12.237-13.828-20.409-26.065-18.251&#10;&#9;&#9;C462.422,196.755,453.813,205.945,455.432,215.123z"/>
	<path style="fill:#FFF4DE;" d="M56.568,296.877c-0.343-1.943-1.12-3.728-2.243-5.316c0.511-1.877,0.632-3.82,0.289-5.763&#10;&#9;&#9;c-1.618-9.178-12.851-14.869-25.088-12.712c-12.238,2.158-20.409,13.828-18.251,26.065c2.158,12.237,13.828,20.409,26.065,18.251&#10;&#9;&#9;C49.578,315.245,58.187,306.055,56.568,296.877z"/>
	<path style="fill:#FFD06A;" d="M429.424,149.379c0.986,1.709,2.327,3.12,3.926,4.229c0.162,1.939,0.713,3.806,1.699,5.514&#10;&#9;&#9;c4.66,8.071,17.161,9.577,27.923,3.364c10.762-6.213,14.449-19.974,8.236-30.736c-6.213-10.761-19.974-14.449-30.736-8.236&#10;&#9;&#9;C429.71,129.728,424.764,141.308,429.424,149.379z"/>
	<path style="fill:#FFE8B5;" d="M82.576,362.621c-0.986-1.709-2.327-3.12-3.926-4.229c-0.162-1.939-0.713-3.806-1.699-5.514&#10;&#9;&#9;c-4.66-8.071-17.161-9.577-27.923-3.364c-10.762,6.213-14.449,19.974-8.236,30.736c6.213,10.761,19.974,14.449,30.736,8.236&#10;&#9;&#9;C82.29,382.272,87.236,370.693,82.576,362.621z"/>
	<path style="fill:#FFB35C;" d="M382.498,96.494c1.511,1.268,3.254,2.135,5.135,2.631c0.815,1.767,1.972,3.332,3.483,4.6&#10;&#9;&#9;c7.139,5.991,19.402,3.13,27.39-6.389c7.988-9.519,6.746-23.711-2.773-31.699c-9.519-7.987-23.711-6.746-31.699,2.773&#10;&#9;&#9;C376.046,77.93,375.359,90.504,382.498,96.494z"/>
	<path style="fill:#FFF4DE;" d="M129.502,415.506c-1.511-1.268-3.254-2.135-5.135-2.631c-0.815-1.767-1.972-3.332-3.483-4.6&#10;&#9;&#9;c-7.139-5.991-19.402-3.13-27.39,6.389c-7.988,9.519-6.746,23.711,2.773,31.699c9.519,7.987,23.711,6.746,31.699-2.773&#10;&#9;&#9;C135.954,434.07,136.641,421.496,129.502,415.506z"/>
	<path style="fill:#FFD06A;" d="M320.315,62.849c1.854,0.675,3.788,0.894,5.725,0.716c1.37,1.381,2.992,2.457,4.846,3.132&#10;&#9;&#9;c8.758,3.188,19.303-3.694,23.553-15.371c4.25-11.677-1.771-24.588-13.448-28.839c-11.677-4.25-24.588,1.771-28.839,13.448&#10;&#9;&#9;C307.903,47.611,311.558,59.661,320.315,62.849z"/>
	<path style="fill:#FFE8B5;" d="M191.685,449.151c-1.854-0.675-3.788-0.894-5.725-0.716c-1.37-1.382-2.992-2.457-4.846-3.132&#10;&#9;&#9;c-8.758-3.188-19.303,3.694-23.553,15.371c-4.25,11.677,1.771,24.588,13.448,28.839c11.677,4.25,24.588-1.771,28.839-13.448&#10;&#9;&#9;C204.097,464.389,200.442,452.339,191.685,449.151z"/>
	<path style="fill:#FFE8B5;" d="M261.625,233.5c-1.973,0-3.865,0.456-5.625,1.285c-1.76-0.83-3.652-1.285-5.625-1.285&#10;&#9;&#9;c-9.32,0-16.875,10.074-16.875,22.5c0,12.426,10.074,22.5,22.5,22.5c12.426,0,22.5-10.074,22.5-22.5&#10;&#9;&#9;C278.5,243.574,270.945,233.5,261.625,233.5z"/>
	<path style="fill:#FFE8B5;" d="M261.625,384.167c-1.973,0-3.865,0.456-5.625,1.285c-1.76-0.83-3.652-1.285-5.625-1.285&#10;&#9;&#9;c-9.32,0-16.875,10.074-16.875,22.5c0,12.426,10.074,22.5,22.5,22.5c12.426,0,22.5-10.074,22.5-22.5&#10;&#9;&#9;C278.5,394.24,270.945,384.167,261.625,384.167z"/>
	<path style="fill:#FFE8B5;" d="M250.375,127.833c1.973,0,3.865-0.456,5.625-1.285c1.76,0.83,3.652,1.285,5.625,1.285&#10;&#9;&#9;c9.32,0,16.875-10.074,16.875-22.5c0-12.426-10.074-22.5-22.5-22.5c-12.426,0-22.5,10.074-22.5,22.5&#10;&#9;&#9;C233.5,117.76,241.055,127.833,250.375,127.833z"/>
	<path style="fill:#FFD06A;" d="M324.955,364.183c-1.709,0.986-3.12,2.327-4.229,3.926c-1.939,0.162-3.806,0.713-5.514,1.699&#10;&#9;&#9;c-8.071,4.66-9.577,17.161-3.364,27.923c6.213,10.762,19.974,14.449,30.736,8.236c10.761-6.213,14.449-19.974,8.236-30.736&#10;&#9;&#9;C344.606,364.47,333.026,359.523,324.955,364.183z"/>
	<path style="fill:#FFD06A;" d="M187.045,147.817c1.709-0.986,3.12-2.327,4.229-3.926c1.939-0.162,3.806-0.713,5.514-1.699&#10;&#9;&#9;c8.071-4.66,9.577-17.161,3.364-27.923c-6.213-10.762-19.974-14.449-30.736-8.236c-10.761,6.213-14.449,19.974-8.236,30.736&#10;&#9;&#9;C167.394,147.53,178.974,152.477,187.045,147.817z"/>
	<path style="fill:#FFE8B5;" d="M369.808,315.212c-0.986,1.709-1.538,3.575-1.699,5.514c-1.598,1.109-2.939,2.52-3.926,4.229&#10;&#9;&#9;c-4.66,8.071,0.286,19.651,11.048,25.864c10.762,6.213,24.522,2.526,30.736-8.236c6.213-10.761,2.526-24.522-8.236-30.736&#10;&#9;&#9;C386.97,305.635,374.468,307.141,369.808,315.212z"/>
	<path style="fill:#FFE8B5;" d="M142.192,196.788c0.986-1.709,1.538-3.575,1.699-5.514c1.598-1.109,2.939-2.52,3.926-4.229&#10;&#9;&#9;c4.66-8.071-0.286-19.651-11.048-25.864c-10.762-6.213-24.522-2.526-30.736,8.236c-6.213,10.761-2.526,24.522,8.236,30.736&#10;&#9;&#9;C125.03,206.365,137.532,204.859,142.192,196.788z"/>
	<path style="fill:#FFD06A;" d="M384.167,250.375c0,1.973,0.456,3.865,1.285,5.625c-0.83,1.76-1.285,3.652-1.285,5.625&#10;&#9;&#9;c0,9.32,10.074,16.875,22.5,16.875c12.426,0,22.5-10.074,22.5-22.5c0-12.426-10.074-22.5-22.5-22.5&#10;&#9;&#9;C394.24,233.5,384.167,241.055,384.167,250.375z"/>
	<path style="fill:#FFD06A;" d="M127.833,261.625c0-1.973-0.456-3.865-1.285-5.625c0.83-1.76,1.285-3.652,1.285-5.625&#10;&#9;&#9;c0-9.32-10.074-16.875-22.5-16.875c-12.426,0-22.5,10.074-22.5,22.5c0,12.426,10.074,22.5,22.5,22.5&#10;&#9;&#9;C117.76,278.5,127.833,270.945,127.833,261.625z"/>
	<path style="fill:#FFE8B5;" d="M364.183,187.045c0.986,1.709,2.327,3.12,3.926,4.229c0.162,1.939,0.713,3.806,1.699,5.514&#10;&#9;&#9;c4.66,8.071,17.161,9.577,27.923,3.364c10.762-6.213,14.449-19.974,8.236-30.736c-6.213-10.761-19.974-14.449-30.736-8.236&#10;&#9;&#9;C364.47,167.394,359.523,178.974,364.183,187.045z"/>
	<path style="fill:#FFE8B5;" d="M147.817,324.955c-0.986-1.709-2.327-3.12-3.926-4.229c-0.162-1.939-0.713-3.806-1.699-5.514&#10;&#9;&#9;c-4.66-8.071-17.161-9.577-27.923-3.364c-10.762,6.213-14.449,19.974-8.236,30.736c6.213,10.761,19.974,14.449,30.736,8.236&#10;&#9;&#9;C147.53,344.606,152.477,333.026,147.817,324.955z"/>
	<path style="fill:#FFD06A;" d="M315.212,142.192c1.709,0.986,3.575,1.538,5.514,1.699c1.109,1.598,2.52,2.939,4.229,3.926&#10;&#9;&#9;c8.071,4.66,19.651-0.286,25.864-11.048c6.213-10.762,2.526-24.522-8.236-30.736c-10.761-6.213-24.522-2.526-30.736,8.236&#10;&#9;&#9;C305.635,125.03,307.141,137.532,315.212,142.192z"/>
	<path style="fill:#FFD06A;" d="M196.788,369.808c-1.709-0.986-3.575-1.538-5.514-1.699c-1.109-1.598-2.52-2.939-4.229-3.926&#10;&#9;&#9;c-8.071-4.66-19.651,0.286-25.864,11.048c-6.213,10.762-2.526,24.522,8.236,30.736c10.761,6.213,24.522,2.526,30.736-8.236&#10;&#9;&#9;C206.365,386.97,204.859,374.468,196.788,369.808z"/>
	<path style="fill:#FFF4DE;" d="M261.625,308.833c-1.973,0-3.865,0.456-5.625,1.285c-1.76-0.83-3.652-1.285-5.625-1.285&#10;&#9;&#9;c-9.32,0-16.875,10.074-16.875,22.5c0,12.426,10.074,22.5,22.5,22.5c12.426,0,22.5-10.074,22.5-22.5&#10;&#9;&#9;C278.5,318.907,270.945,308.833,261.625,308.833z"/>
	<path style="fill:#FFE8B5;" d="M250.375,203.167c1.973,0,3.865-0.456,5.625-1.285c1.76,0.83,3.652,1.285,5.625,1.285&#10;&#9;&#9;c9.32,0,16.875-10.074,16.875-22.5c0-12.426-10.074-22.5-22.5-22.5c-12.426,0-22.5,10.074-22.5,22.5&#10;&#9;&#9;C233.5,193.093,241.055,203.167,250.375,203.167z"/>
	<path style="fill:#FFD06A;" d="M304.568,277.545c-0.986,1.709-1.538,3.575-1.699,5.514c-1.598,1.109-2.939,2.52-3.926,4.229&#10;&#9;&#9;c-4.66,8.071,0.286,19.651,11.048,25.864c10.762,6.213,24.522,2.526,30.736-8.236c6.213-10.761,2.526-24.522-8.236-30.736&#10;&#9;&#9;C321.729,267.968,309.227,269.474,304.568,277.545z"/>
	<path style="fill:#FFF4DE;" d="M207.432,234.455c0.986-1.709,1.538-3.575,1.699-5.514c1.598-1.109,2.939-2.52,3.926-4.229&#10;&#9;&#9;c4.66-8.071-0.286-19.651-11.048-25.864c-10.762-6.213-24.522-2.526-30.736,8.236c-6.213,10.761-2.526,24.522,8.236,30.736&#10;&#9;&#9;C190.271,244.032,202.773,242.526,207.432,234.455z"/>
	<path style="fill:#FFB35C;" d="M298.943,224.712c0.986,1.709,2.327,3.12,3.926,4.229c0.162,1.939,0.713,3.806,1.699,5.514&#10;&#9;&#9;c4.66,8.071,17.161,9.577,27.923,3.364c10.762-6.213,14.449-19.974,8.236-30.736c-6.213-10.761-19.974-14.449-30.736-8.236&#10;&#9;&#9;C299.229,205.061,294.283,216.641,298.943,224.712z"/>
	<path style="fill:#FFE8B5;" d="M213.057,287.288c-0.986-1.709-2.327-3.12-3.926-4.229c-0.162-1.939-0.713-3.806-1.699-5.514&#10;&#9;&#9;c-4.66-8.071-17.161-9.577-27.923-3.364c-10.762,6.213-14.449,19.974-8.236,30.736c6.213,10.761,19.974,14.449,30.736,8.236&#10;&#9;&#9;C212.771,306.939,217.717,295.359,213.057,287.288z"/>
	<path style="fill:none;stroke:#000000;stroke-width:15;stroke-linecap:round;stroke-linejoin:round;stroke-miterlimit:10;" d="&#10;&#9;&#9;M261.625,459.5c-1.973,0-3.865,0.456-5.625,1.285c-1.76-0.83-3.652-1.285-5.625-1.285c-9.32,0-16.875,10.074-16.875,22.5&#10;&#9;&#9;c0,12.426,10.074,22.5,22.5,22.5c12.426,0,22.5-10.074,22.5-22.5C278.5,469.574,270.945,459.5,261.625,459.5z"/>
	<path style="fill:none;stroke:#000000;stroke-width:15;stroke-linecap:round;stroke-linejoin:round;stroke-miterlimit:10;" d="&#10;&#9;&#9;M250.375,52.5c1.973,0,3.865-0.456,5.625-1.285c1.76,0.83,3.652,1.285,5.625,1.285c9.32,0,16.875-10.074,16.875-22.5&#10;&#9;&#9;c0-12.426-10.074-22.5-22.5-22.5c-12.426,0-22.5,10.074-22.5,22.5C233.5,42.426,241.055,52.5,250.375,52.5z"/>
	<path style="fill:none;stroke:#000000;stroke-width:15;stroke-linecap:round;stroke-linejoin:round;stroke-miterlimit:10;" d="&#10;&#9;&#9;M330.887,445.304c-1.854,0.675-3.476,1.75-4.846,3.132c-1.938-0.178-3.872,0.041-5.725,0.716&#10;&#9;&#9;c-8.758,3.188-12.412,15.238-8.162,26.915c4.25,11.677,17.161,17.698,28.839,13.448c11.677-4.25,17.698-17.162,13.448-28.839&#10;&#9;&#9;C350.19,448.998,339.645,442.116,330.887,445.304z"/>
	<path style="fill:none;stroke:#000000;stroke-width:15;stroke-linecap:round;stroke-linejoin:round;stroke-miterlimit:10;" d="&#10;&#9;&#9;M181.113,66.696c1.854-0.675,3.476-1.75,4.846-3.132c1.938,0.178,3.872-0.041,5.725-0.716c8.758-3.188,12.412-15.238,8.162-26.915&#10;&#9;&#9;c-4.25-11.677-17.161-17.698-28.839-13.448c-11.677,4.25-17.698,17.162-13.448,28.839C161.81,63.002,172.355,69.884,181.113,66.696&#10;&#9;&#9;z"/>
	<path style="fill:none;stroke:#000000;stroke-width:15;stroke-linecap:round;stroke-linejoin:round;stroke-miterlimit:10;" d="&#10;&#9;&#9;M391.116,408.274c-1.511,1.268-2.668,2.834-3.483,4.6c-1.881,0.496-3.624,1.363-5.135,2.631&#10;&#9;&#9;c-7.139,5.991-6.452,18.564,1.536,28.083c7.988,9.519,22.18,10.761,31.699,2.773c9.519-7.987,10.761-22.18,2.773-31.699&#10;&#9;&#9;C410.518,405.144,398.256,402.284,391.116,408.274z"/>
	<path style="fill:none;stroke:#000000;stroke-width:15;stroke-linecap:round;stroke-linejoin:round;stroke-miterlimit:10;" d="&#10;&#9;&#9;M120.884,103.726c1.511-1.268,2.668-2.834,3.483-4.6c1.881-0.496,3.624-1.363,5.135-2.631c7.139-5.991,6.452-18.564-1.536-28.083&#10;&#9;&#9;c-7.988-9.519-22.18-10.761-31.699-2.773c-9.519,7.987-10.761,22.18-2.773,31.699C101.482,106.856,113.744,109.716,120.884,103.726&#10;&#9;&#9;z"/>
	<path style="fill:none;stroke:#000000;stroke-width:15;stroke-linecap:round;stroke-linejoin:round;stroke-miterlimit:10;" d="&#10;&#9;&#9;M435.049,352.879c-0.986,1.709-1.538,3.575-1.699,5.514c-1.598,1.109-2.939,2.52-3.926,4.229&#10;&#9;&#9;c-4.66,8.071,0.286,19.651,11.048,25.864c10.762,6.213,24.522,2.526,30.736-8.236c6.213-10.761,2.526-24.522-8.236-30.736&#10;&#9;&#9;C452.21,343.301,439.709,344.807,435.049,352.879z"/>
	<path style="fill:none;stroke:#000000;stroke-width:15;stroke-linecap:round;stroke-linejoin:round;stroke-miterlimit:10;" d="&#10;&#9;&#9;M76.951,159.121c0.986-1.709,1.538-3.575,1.699-5.514c1.598-1.109,2.939-2.52,3.926-4.229c4.66-8.071-0.286-19.651-11.048-25.864&#10;&#9;&#9;c-10.762-6.213-24.522-2.526-30.736,8.236c-6.213,10.761-2.526,24.522,8.236,30.736C59.79,168.699,72.291,167.192,76.951,159.121z"/>
	<path style="fill:none;stroke:#000000;stroke-width:15;stroke-linecap:round;stroke-linejoin:round;stroke-miterlimit:10;" d="&#10;&#9;&#9;M457.385,285.798c-0.343,1.943-0.222,3.886,0.289,5.763c-1.123,1.589-1.9,3.374-2.243,5.316&#10;&#9;&#9;c-1.618,9.178,6.99,18.368,19.228,20.526c12.238,2.158,23.907-6.013,26.065-18.251c2.158-12.237-6.013-23.907-18.251-26.065&#10;&#9;&#9;C470.236,270.928,459.004,276.62,457.385,285.798z"/>
	<path style="fill:none;stroke:#000000;stroke-width:15;stroke-linecap:round;stroke-linejoin:round;stroke-miterlimit:10;" d="&#10;&#9;&#9;M54.615,226.202c0.343-1.943,0.222-3.886-0.289-5.763c1.123-1.589,1.9-3.374,2.243-5.316c1.618-9.178-6.99-18.368-19.228-20.526&#10;&#9;&#9;c-12.238-2.158-23.907,6.013-26.065,18.251c-2.158,12.237,6.013,23.907,18.251,26.065C41.764,241.072,52.997,235.38,54.615,226.202&#10;&#9;&#9;z"/>
	<path style="fill:none;stroke:#000000;stroke-width:15;stroke-linecap:round;stroke-linejoin:round;stroke-miterlimit:10;" d="&#10;&#9;&#9;M455.432,215.123c0.343,1.943,1.12,3.727,2.243,5.316c-0.511,1.877-0.632,3.82-0.289,5.763&#10;&#9;&#9;c1.618,9.178,12.851,14.869,25.088,12.712c12.238-2.158,20.409-13.828,18.251-26.065c-2.158-12.237-13.828-20.409-26.065-18.251&#10;&#9;&#9;C462.422,196.755,453.813,205.945,455.432,215.123z"/>
	<path style="fill:none;stroke:#000000;stroke-width:15;stroke-linecap:round;stroke-linejoin:round;stroke-miterlimit:10;" d="&#10;&#9;&#9;M56.568,296.877c-0.343-1.943-1.12-3.728-2.243-5.316c0.511-1.877,0.632-3.82,0.289-5.763&#10;&#9;&#9;c-1.618-9.178-12.851-14.869-25.088-12.712c-12.238,2.158-20.409,13.828-18.251,26.065c2.158,12.237,13.828,20.409,26.065,18.251&#10;&#9;&#9;C49.578,315.245,58.187,306.055,56.568,296.877z"/>
	<path style="fill:none;stroke:#000000;stroke-width:15;stroke-linecap:round;stroke-linejoin:round;stroke-miterlimit:10;" d="&#10;&#9;&#9;M429.424,149.379c0.986,1.709,2.327,3.12,3.926,4.229c0.162,1.939,0.713,3.806,1.699,5.514c4.66,8.071,17.161,9.577,27.923,3.364&#10;&#9;&#9;c10.762-6.213,14.449-19.974,8.236-30.736c-6.213-10.761-19.974-14.449-30.736-8.236&#10;&#9;&#9;C429.71,129.728,424.764,141.308,429.424,149.379z"/>
	<path style="fill:none;stroke:#000000;stroke-width:15;stroke-linecap:round;stroke-linejoin:round;stroke-miterlimit:10;" d="&#10;&#9;&#9;M82.576,362.621c-0.986-1.709-2.327-3.12-3.926-4.229c-0.162-1.939-0.713-3.806-1.699-5.514c-4.66-8.071-17.161-9.577-27.923-3.364&#10;&#9;&#9;c-10.762,6.213-14.449,19.974-8.236,30.736c6.213,10.761,19.974,14.449,30.736,8.236C82.29,382.272,87.236,370.693,82.576,362.621z&#10;&#9;&#9;"/>
	<path style="fill:none;stroke:#000000;stroke-width:15;stroke-linecap:round;stroke-linejoin:round;stroke-miterlimit:10;" d="&#10;&#9;&#9;M382.498,96.494c1.511,1.268,3.254,2.135,5.135,2.631c0.815,1.767,1.972,3.332,3.483,4.6c7.139,5.991,19.402,3.13,27.39-6.389&#10;&#9;&#9;c7.988-9.519,6.746-23.711-2.773-31.699c-9.519-7.987-23.711-6.746-31.699,2.773C376.046,77.93,375.359,90.504,382.498,96.494z"/>
	<path style="fill:none;stroke:#000000;stroke-width:15;stroke-linecap:round;stroke-linejoin:round;stroke-miterlimit:10;" d="&#10;&#9;&#9;M129.502,415.506c-1.511-1.268-3.254-2.135-5.135-2.631c-0.815-1.767-1.972-3.332-3.483-4.6c-7.139-5.991-19.402-3.13-27.39,6.389&#10;&#9;&#9;c-7.988,9.519-6.746,23.711,2.773,31.699c9.519,7.987,23.711,6.746,31.699-2.773C135.954,434.07,136.641,421.496,129.502,415.506z"/>
	<path style="fill:none;stroke:#000000;stroke-width:15;stroke-linecap:round;stroke-linejoin:round;stroke-miterlimit:10;" d="&#10;&#9;&#9;M320.315,62.849c1.854,0.675,3.788,0.894,5.725,0.716c1.37,1.381,2.992,2.457,4.846,3.132c8.758,3.188,19.303-3.694,23.553-15.371&#10;&#9;&#9;c4.25-11.677-1.771-24.588-13.448-28.839c-11.677-4.25-24.588,1.771-28.839,13.448C307.903,47.611,311.558,59.661,320.315,62.849z"/>
	<path style="fill:none;stroke:#000000;stroke-width:15;stroke-linecap:round;stroke-linejoin:round;stroke-miterlimit:10;" d="&#10;&#9;&#9;M191.685,449.151c-1.854-0.675-3.788-0.894-5.725-0.716c-1.37-1.382-2.992-2.457-4.846-3.132&#10;&#9;&#9;c-8.758-3.188-19.303,3.694-23.553,15.371c-4.25,11.677,1.771,24.588,13.448,28.839c11.677,4.25,24.588-1.771,28.839-13.448&#10;&#9;&#9;C204.097,464.389,200.442,452.339,191.685,449.151z"/>
	<path style="fill:none;stroke:#000000;stroke-width:15;stroke-linecap:round;stroke-linejoin:round;stroke-miterlimit:10;" d="&#10;&#9;&#9;M261.625,308.833c-1.973,0-3.865,0.456-5.625,1.285c-1.76-0.83-3.652-1.285-5.625-1.285c-9.32,0-16.875,10.074-16.875,22.5&#10;&#9;&#9;c0,12.426,10.074,22.5,22.5,22.5c12.426,0,22.5-10.074,22.5-22.5C278.5,318.907,270.945,308.833,261.625,308.833z"/>
	<path style="fill:none;stroke:#000000;stroke-width:15;stroke-linecap:round;stroke-linejoin:round;stroke-miterlimit:10;" d="&#10;&#9;&#9;M261.625,233.5c-1.973,0-3.865,0.456-5.625,1.285c-1.76-0.83-3.652-1.285-5.625-1.285c-9.32,0-16.875,10.074-16.875,22.5&#10;&#9;&#9;c0,12.426,10.074,22.5,22.5,22.5c12.426,0,22.5-10.074,22.5-22.5C278.5,243.574,270.945,233.5,261.625,233.5z"/>
	<path style="fill:none;stroke:#000000;stroke-width:15;stroke-linecap:round;stroke-linejoin:round;stroke-miterlimit:10;" d="&#10;&#9;&#9;M261.625,384.167c-1.973,0-3.865,0.456-5.625,1.285c-1.76-0.83-3.652-1.285-5.625-1.285c-9.32,0-16.875,10.074-16.875,22.5&#10;&#9;&#9;c0,12.426,10.074,22.5,22.5,22.5c12.426,0,22.5-10.074,22.5-22.5C278.5,394.24,270.945,384.167,261.625,384.167z"/>
	<path style="fill:none;stroke:#000000;stroke-width:15;stroke-linecap:round;stroke-linejoin:round;stroke-miterlimit:10;" d="&#10;&#9;&#9;M250.375,127.833c1.973,0,3.865-0.456,5.625-1.285c1.76,0.83,3.652,1.285,5.625,1.285c9.32,0,16.875-10.074,16.875-22.5&#10;&#9;&#9;c0-12.426-10.074-22.5-22.5-22.5c-12.426,0-22.5,10.074-22.5,22.5C233.5,117.76,241.055,127.833,250.375,127.833z"/>
	<path style="fill:none;stroke:#000000;stroke-width:15;stroke-linecap:round;stroke-linejoin:round;stroke-miterlimit:10;" d="&#10;&#9;&#9;M324.955,364.183c-1.709,0.986-3.12,2.327-4.229,3.926c-1.939,0.162-3.806,0.713-5.514,1.699&#10;&#9;&#9;c-8.071,4.66-9.577,17.161-3.364,27.923c6.213,10.762,19.974,14.449,30.736,8.236c10.761-6.213,14.449-19.974,8.236-30.736&#10;&#9;&#9;C344.606,364.47,333.026,359.523,324.955,364.183z"/>
	<path style="fill:none;stroke:#000000;stroke-width:15;stroke-linecap:round;stroke-linejoin:round;stroke-miterlimit:10;" d="&#10;&#9;&#9;M187.045,147.817c1.709-0.986,3.12-2.327,4.229-3.926c1.939-0.162,3.806-0.713,5.514-1.699c8.071-4.66,9.577-17.161,3.364-27.923&#10;&#9;&#9;c-6.213-10.762-19.974-14.449-30.736-8.236c-10.761,6.213-14.449,19.974-8.236,30.736&#10;&#9;&#9;C167.394,147.53,178.974,152.477,187.045,147.817z"/>
	<path style="fill:none;stroke:#000000;stroke-width:15;stroke-linecap:round;stroke-linejoin:round;stroke-miterlimit:10;" d="&#10;&#9;&#9;M369.808,315.212c-0.986,1.709-1.538,3.575-1.699,5.514c-1.598,1.109-2.939,2.52-3.926,4.229&#10;&#9;&#9;c-4.66,8.071,0.286,19.651,11.048,25.864c10.762,6.213,24.522,2.526,30.736-8.236c6.213-10.761,2.526-24.522-8.236-30.736&#10;&#9;&#9;C386.97,305.635,374.468,307.141,369.808,315.212z"/>
	<path style="fill:none;stroke:#000000;stroke-width:15;stroke-linecap:round;stroke-linejoin:round;stroke-miterlimit:10;" d="&#10;&#9;&#9;M105.924,169.617c-6.054,10.731-2.35,24.36,8.345,30.535c10.762,6.213,23.263,4.707,27.923-3.364&#10;&#9;&#9;c0.987-1.709,1.538-3.575,1.699-5.514c1.598-1.109,2.939-2.52,3.926-4.229c4.66-8.071-0.286-19.651-11.048-25.864&#10;&#9;&#9;c-0.773-0.446-1.563-0.835-2.363-1.181"/>
	<path style="fill:none;stroke:#000000;stroke-width:15;stroke-linecap:round;stroke-linejoin:round;stroke-miterlimit:10;" d="&#10;&#9;&#9;M384.167,250.375c0,1.973,0.456,3.865,1.285,5.625c-0.83,1.76-1.285,3.652-1.285,5.625c0,9.32,10.074,16.875,22.5,16.875&#10;&#9;&#9;c12.426,0,22.5-10.074,22.5-22.5c0-12.426-10.074-22.5-22.5-22.5C394.24,233.5,384.167,241.055,384.167,250.375z"/>
	<path style="fill:none;stroke:#000000;stroke-width:15;stroke-linecap:round;stroke-linejoin:round;stroke-miterlimit:10;" d="&#10;&#9;&#9;M127.833,261.625c0-1.973-0.456-3.865-1.285-5.625c0.83-1.76,1.285-3.652,1.285-5.625c0-9.32-10.074-16.875-22.5-16.875&#10;&#9;&#9;c-12.426,0-22.5,10.074-22.5,22.5c0,12.426,10.074,22.5,22.5,22.5C117.76,278.5,127.833,270.945,127.833,261.625z"/>
	<path style="fill:none;stroke:#000000;stroke-width:15;stroke-linecap:round;stroke-linejoin:round;stroke-miterlimit:10;" d="&#10;&#9;&#9;M364.183,187.045c0.986,1.709,2.327,3.12,3.926,4.229c0.162,1.939,0.713,3.806,1.699,5.514c4.66,8.071,17.161,9.577,27.923,3.364&#10;&#9;&#9;c10.762-6.213,14.449-19.974,8.236-30.736c-6.213-10.761-19.974-14.449-30.736-8.236&#10;&#9;&#9;C364.47,167.394,359.523,178.974,364.183,187.045z"/>
	<path style="fill:none;stroke:#000000;stroke-width:15;stroke-linecap:round;stroke-linejoin:round;stroke-miterlimit:10;" d="&#10;&#9;&#9;M147.817,324.955c-0.986-1.709-2.327-3.12-3.926-4.229c-0.162-1.939-0.713-3.806-1.699-5.514&#10;&#9;&#9;c-4.66-8.071-17.161-9.577-27.923-3.364c-10.762,6.213-14.449,19.974-8.236,30.736c6.213,10.761,19.974,14.449,30.736,8.236&#10;&#9;&#9;C147.53,344.606,152.477,333.026,147.817,324.955z"/>
	<path style="fill:none;stroke:#000000;stroke-width:15;stroke-linecap:round;stroke-linejoin:round;stroke-miterlimit:10;" d="&#10;&#9;&#9;M315.212,142.192c1.709,0.986,3.575,1.538,5.514,1.699c1.109,1.598,2.52,2.939,4.229,3.926c8.071,4.66,19.651-0.286,25.864-11.048&#10;&#9;&#9;c6.213-10.762,2.526-24.522-8.236-30.736c-10.761-6.213-24.522-2.526-30.736,8.236C305.635,125.03,307.141,137.532,315.212,142.192&#10;&#9;&#9;z"/>
	<path style="fill:none;stroke:#000000;stroke-width:15;stroke-linecap:round;stroke-linejoin:round;stroke-miterlimit:10;" d="&#10;&#9;&#9;M196.788,369.808c-1.709-0.986-3.575-1.538-5.514-1.699c-1.109-1.598-2.52-2.939-4.229-3.926&#10;&#9;&#9;c-8.071-4.66-19.651,0.286-25.864,11.048c-6.213,10.762-2.526,24.522,8.236,30.736c10.761,6.213,24.522,2.526,30.736-8.236&#10;&#9;&#9;C206.365,386.97,204.859,374.468,196.788,369.808z"/>
	<path style="fill:none;stroke:#000000;stroke-width:15;stroke-linecap:round;stroke-linejoin:round;stroke-miterlimit:10;" d="&#10;&#9;&#9;M250.375,203.167c1.973,0,3.865-0.456,5.625-1.285c1.76,0.83,3.652,1.285,5.625,1.285c9.32,0,16.875-10.074,16.875-22.5&#10;&#9;&#9;c0-12.426-10.074-22.5-22.5-22.5c-12.426,0-22.5,10.074-22.5,22.5C233.5,193.093,241.055,203.167,250.375,203.167z"/>
	<path style="fill:none;stroke:#000000;stroke-width:15;stroke-linecap:round;stroke-linejoin:round;stroke-miterlimit:10;" d="&#10;&#9;&#9;M304.568,277.545c-0.986,1.709-1.538,3.575-1.699,5.514c-1.598,1.109-2.939,2.52-3.926,4.229&#10;&#9;&#9;c-4.66,8.071,0.286,19.651,11.048,25.864c10.762,6.213,24.522,2.526,30.736-8.236c6.213-10.761,2.526-24.522-8.236-30.736&#10;&#9;&#9;C321.729,267.968,309.227,269.474,304.568,277.545z"/>
	<path style="fill:none;stroke:#000000;stroke-width:15;stroke-linecap:round;stroke-linejoin:round;stroke-miterlimit:10;" d="&#10;&#9;&#9;M207.432,234.455c0.986-1.709,1.538-3.575,1.699-5.514c1.598-1.109,2.939-2.52,3.926-4.229c4.66-8.071-0.286-19.651-11.048-25.864&#10;&#9;&#9;c-10.762-6.213-24.522-2.526-30.736,8.236c-6.213,10.761-2.526,24.522,8.236,30.736&#10;&#9;&#9;C190.271,244.032,202.773,242.526,207.432,234.455z"/>
	<path style="fill:none;stroke:#000000;stroke-width:15;stroke-linecap:round;stroke-linejoin:round;stroke-miterlimit:10;" d="&#10;&#9;&#9;M298.943,224.712c0.986,1.709,2.327,3.12,3.926,4.229c0.162,1.939,0.713,3.806,1.699,5.514c4.66,8.071,17.161,9.577,27.923,3.364&#10;&#9;&#9;c10.762-6.213,14.449-19.974,8.236-30.736c-6.213-10.761-19.974-14.449-30.736-8.236&#10;&#9;&#9;C299.229,205.061,294.283,216.641,298.943,224.712z"/>
	<path style="fill:none;stroke:#000000;stroke-width:15;stroke-linecap:round;stroke-linejoin:round;stroke-miterlimit:10;" d="&#10;&#9;&#9;M213.057,287.288c-0.986-1.709-2.327-3.12-3.926-4.229c-0.162-1.939-0.713-3.806-1.699-5.514&#10;&#9;&#9;c-4.66-8.071-17.161-9.577-27.923-3.364c-10.762,6.213-14.449,19.974-8.236,30.736c6.213,10.761,19.974,14.449,30.736,8.236&#10;&#9;&#9;C212.771,306.939,217.717,295.359,213.057,287.288z"/>
</g>















</svg>
