<svg id="Capa_1" enable-background="new 0 0 512 512" height="512" viewBox="0 0 512 512" width="512" xmlns="http://www.w3.org/2000/svg"><g><g><path d="m381.627 504.444c-1.553-70.622 3.027-144.989 13.614-221.038 9.155-65.763 22.366-129.069 38.205-183.076 1.201-4.094 5.495-6.437 9.589-5.24 4.095 1.201 6.441 5.494 5.24 9.589-15.63 53.293-28.676 115.833-37.728 180.859-10.474 75.233-15.006 148.77-13.471 218.567.093 4.265-15.357 4.547-15.449.339z" fill="#8dd470"/><g><path d="m474.573 410.984c5.854 1.316 9.384 7.33 7.604 13.06-2.573 8.281-8.184 19.82-20.248 26.785-12.029 6.945-24.79 6.06-33.248 4.159-5.854-1.316-9.384-7.33-7.604-13.06 2.573-8.281 8.184-19.82 20.248-26.785 12.03-6.945 24.79-6.06 33.248-4.159z" fill="#df8a57"/><path d="m390.567 371.153c4.072-4.407 11.046-4.357 15.112.055 5.875 6.374 13.022 16.983 13.022 30.873 0 13.93-7.188 24.559-13.073 30.928-4.072 4.407-11.046 4.357-15.112-.055-5.875-6.374-13.022-16.983-13.022-30.873 0-13.93 7.188-24.56 13.073-30.928z" fill="#df8a57"/><path d="m438.956 378.062c5.701-1.771 11.727 1.707 13.043 7.531 1.912 8.457 2.823 21.257-4.142 33.321s-18.505 17.675-26.786 20.248c-5.701 1.771-11.727-1.707-13.043-7.531-1.912-8.458-2.823-21.257 4.142-33.321s18.505-17.675 26.786-20.248z" fill="#e4996d"/><path d="m434.829 475.192c-6.882 11.909-17.616 22.664-28.897 29.432-20.917-12.613-27.546-29.23-27.546-48.278 0-15.71 5.764-30.338 20.933-41.471 8.118-1.246 16.452.649 24.137 5.09 17.915 10.352 25.6 30.595 11.373 55.227z" fill="#bbe5a7"/><path d="m405.933 504.62c-12.053 7.232-24.735 9.91-33.986 4.564-17.915-10.354-16.225-46.811-1.999-71.453 8.118-14.062 18.564-21.232 29.371-22.86-9.581 11.342-15.319 25.765-15.319 41.475 0 19.048 8.437 36.211 21.933 48.274z" fill="#ace094"/></g><g><path d="m340.841 195.796c-5.951-.766-11.325 3.679-11.612 9.672-.415 8.661.912 21.424 9.866 32.095 8.928 10.64 21.222 14.173 29.82 15.279 5.951.766 11.325-3.679 11.612-9.672.415-8.661-.912-21.424-9.866-32.095-8.928-10.639-21.222-14.172-29.82-15.279z" fill="#df8a57"/><path d="m433.404 187.099c-2.319-5.534-8.89-7.872-14.22-5.117-7.701 3.981-18.045 11.505-22.796 24.557-4.764 13.09-1.645 25.537 1.707 33.534 2.319 5.534 8.89 7.872 14.22 5.117 7.701-3.981 18.045-11.505 22.796-24.557 4.764-13.09 1.645-25.537-1.707-33.534z" fill="#df8a57"/><path d="m385.571 177.042c-4.752-3.614-11.603-2.406-14.832 2.615-4.69 7.293-9.923 19.01-7.504 32.728s11.344 22.938 18.245 28.188c4.752 3.614 11.603 2.406 14.832-2.615 4.69-7.293 9.923-19.01 7.504-32.728-2.419-13.719-11.344-22.939-18.245-28.188z" fill="#e4996d"/><path d="m418.964 312.969h-.01c-25.003 3.118-50.039-29.643-50.039-60.126 0-10.271 6.199-22.091 14.168-30.55.886-.216 1.803-.401 2.72-.566 20.377-3.595 39.271 6.974 44.205 34.995 3.503 19.83-.938 43.081-11.044 56.247z" fill="#bbe5a7"/><path d="m418.964 312.969c-4.183 5.44-9.323 9.158-15.278 10.209-20.366 3.585-42.515-25.435-47.46-53.446-4.708-26.754 7.963-42.917 26.857-47.44-3.585 8.581-5.594 18.286-5.594 28.557 0 30.483 17.771 55.959 41.475 62.12z" fill="#ace094"/></g><g><path d="m424.426 3.572c-5.07-3.209-11.819-1.452-14.612 3.858-4.036 7.674-8.228 19.802-4.623 33.258 3.595 13.416 13.244 21.814 20.569 26.45 5.07 3.209 11.819 1.452 14.612-3.858 4.036-7.674 8.228-19.802 4.623-33.257-3.595-13.417-13.245-21.814-20.569-26.451z" fill="#df8a57"/><path d="m511.992 34.809c.237-5.995-4.73-10.891-10.725-10.647-8.662.353-21.217 2.801-31.038 12.622-9.85 9.85-12.283 22.449-12.625 31.113-.237 5.995 4.73 10.891 10.725 10.647 8.662-.353 21.217-2.801 31.038-12.622 9.849-9.85 12.283-22.449 12.625-31.113z" fill="#df8a57"/><path d="m472.89 5.478c-2.779-5.284-9.499-7.085-14.548-3.898-7.333 4.628-17.027 13.035-20.632 26.491-3.605 13.455.587 25.583 4.623 33.258 2.779 5.284 9.499 7.085 14.548 3.898 7.333-4.628 17.027-13.035 20.632-26.491 3.605-13.455-.587-25.584-4.623-33.258z" fill="#e4996d"/><path d="m479.498 96.476c-4.162 15.535-13.835 30.905-25.064 40.363-25.016-3.715-38.684-25.231-38.684-46.122 0-15.288 13.668-38.265 27.279-46.12 3.667-.041 7.417.464 11.188 1.473 19.986 5.357 32.636 22.921 25.281 50.406z" fill="#bbe5a7"/><path d="m454.434 136.839c-8.633 7.283-18.193 11.064-26.878 8.736-19.986-5.357-27.794-41.012-20.429-68.497 5.965-22.293 20.099-32.358 35.902-32.481-9.148 11.208-14.587 25.301-14.587 40.589 0 20.891 10.147 39.528 25.992 51.653z" fill="#ace094"/></g></g><g><path d="m285.05 291.716c-1.906 1.834-.793 5.058 1.844 5.316 3.441.329 6.366.762 8.705 1.164 3.132.556 4.471 4.275 2.421 6.706-7.994 9.519-28.021 29.7-62.47 42.237-4.842 1.762-9.55 3.214-14.113 4.42-65.096-27.438-85.986-85.327-96.845-146.901-11.414-64.706 5.848-130.334 46.85-168.417 1.71 1.092 4.172.865 5.573-1.03 2.143-2.895 4.028-5.192 5.511-6.882 1.525-1.762 4.368-1.246 5.202.938 4.121 10.652 12.929 39.569 6.109 78.294-.02.061-.031.134-.041.206-.536 3.008 3.111 4.904 5.243 2.72 12.867-13.207 24.807-20.748 30.936-24.127 2.029-1.123 4.522.319 4.564 2.647.041 2.246.021 5.213-.206 8.808-.216 3.471 3.719 5.614 6.552 3.595 11.486-8.2 21.438-13.464 28.175-16.575 3.946-1.823 8.231 1.772 7.129 5.975-1.896 7.181-5.347 17.894-11.435 30.627-1.494 3.142 1.308 6.634 4.687 5.82 3.492-.835 6.408-1.38 8.622-1.73 2.308-.361 4.152 1.854 3.4 4.069-3.698 10.807-15.535 38.622-45.658 63.892-13.269 11.136-26.414 18.688-37.921 23.808-6.861 3.049-11.466 9.652-12.064 17.132l-3.667 45.864c-.371 4.667 5.172 7.386 8.602 4.213 1.834-1.69 3.74-3.369 5.728-5.038 28.072-23.56 55.558-30.812 67.807-32.986 3.121-.556 5.687 2.483 4.595 5.46-.814 2.225-1.906 4.976-3.338 8.118-1.092 2.4 1.143 4.986 3.678 4.244 14.155-4.09 25.775-5.738 33.409-6.387 4.337-.371 7.139 4.491 4.656 8.066-4.386 6.285-11.618 15.525-22.24 25.734z" fill="#ace094"/><path d="m221.437 351.557c-10.147 2.689-19.563 4.111-27.949 4.749-10.096.762-18.111 8.798-18.925 18.893l-10.188 127.32c-1.01 12.64-19.522 12.64-20.532 0l-10.219-127.701c-.804-10.096-8.818-18.131-18.914-18.893-12.146-.927-26.466-3.503-42.042-9.169-34.439-12.537-54.466-32.719-62.47-42.227-2.05-2.431-.711-6.16 2.421-6.706 2.339-.412 5.264-.845 8.715-1.175 2.627-.258 3.74-3.482 1.834-5.316-10.621-10.209-17.853-19.439-22.231-25.734-2.493-3.574.309-8.427 4.646-8.066 7.644.649 19.254 2.297 33.399 6.387 2.545.742 4.78-1.833 3.688-4.244-1.432-3.152-2.524-5.892-3.338-8.118-1.092-2.987 1.473-6.006 4.595-5.46 12.249 2.174 39.734 9.436 67.806 32.996 1.978 1.658 3.873 3.327 5.697 4.996 3.441 3.173 8.973.453 8.602-4.203l-3.637-45.462c-.598-7.479-5.192-14.082-12.053-17.132-11.517-5.12-24.652-12.672-37.931-23.808-30.122-25.27-41.949-53.085-45.658-63.892-.752-2.215 1.092-4.43 3.4-4.069 2.215.35 5.141.896 8.623 1.73 3.389.814 6.191-2.689 4.687-5.83-6.088-12.733-9.539-23.447-11.435-30.627-1.102-4.203 3.173-7.788 7.118-5.975 6.748 3.111 16.699 8.375 28.186 16.586 2.833 2.019 6.768-.124 6.552-3.595-.216-3.596-.247-6.562-.206-8.808.041-2.328 2.534-3.77 4.564-2.647 6.14 3.379 18.08 10.92 30.936 24.127 2.133 2.184 5.779.288 5.244-2.72-.01-.072-.021-.144-.031-.206-6.83-38.725 1.988-67.642 6.099-78.304.835-2.174 3.688-2.668 5.223-.917 1.473 1.7 3.358 3.987 5.491 6.872 2.071 2.802 6.449 1.957 7.325-1.411 3.523-13.681 7.768-24.127 10.93-30.854 1.854-3.925 7.448-3.925 9.302 0 3.173 6.727 7.407 17.173 10.941 30.854.278 1.081.927 1.916 1.741 2.442-31.575 44.308-45.864 106.325-34.449 171.031 10.857 61.573 42.741 112.907 84.443 144.286z" fill="#9cda82"/><g><g fill="#666667"><path d="m88.009 167.19c-4.268 0-7.726-3.459-7.726-7.726v-12.362c0-4.268 3.459-7.726 7.726-7.726 4.268 0 7.726 3.459 7.726 7.726v12.362c0 4.267-3.458 7.726-7.726 7.726z"/><path d="m216.676 167.19c-4.268 0-7.726-3.459-7.726-7.726v-12.362c0-4.268 3.459-7.726 7.726-7.726s7.726 3.459 7.726 7.726v12.362c0 4.267-3.458 7.726-7.726 7.726z"/><path d="m152.342 174.549c-8.733 0-17.038-3.782-22.786-10.376-2.803-3.216-2.469-8.098.748-10.901 3.216-2.803 8.097-2.468 10.901.748 2.812 3.226 6.87 5.076 11.136 5.076s8.325-1.85 11.137-5.076c2.804-3.217 7.684-3.552 10.901-.748s3.551 7.685.748 10.901c-5.746 6.595-14.052 10.376-22.785 10.376z"/></g></g></g></g></svg>