<svg xmlns="http://www.w3.org/2000/svg" version="1.1" xmlns:xlink="http://www.w3.org/1999/xlink" xmlns:svgjs="http://svgjs.com/svgjs" width="512" height="512" x="0" y="0" viewBox="0 0 512 512" style="enable-background:new 0 0 512 512" xml:space="preserve" class=""><g><path fill="#78c2a4" d="M217.358 42.488c18.254 7.159 31.636 20.39 37.067 34.671-13.692 6.781-32.501 7.387-50.755.228-14.61-5.73-26.098-15.349-32.888-26.283-2.704-4.354-.355-10.343 4.588-11.699 12.413-3.403 27.378-2.647 41.988 3.083z" data-original="#78c2a4" class=""></path><path fill="#95d6a4" d="M290.422 35.637c-21.326 15.901-34.104 38.004-36.101 58.636 20.344 3.975 45.175-1.963 66.501-17.864 18.308-13.651 30.316-31.872 34.612-49.81 1.158-4.834-2.432-9.648-7.395-9.918-18.417-1.002-39.308 5.306-57.617 18.956z" data-original="#95d6a4" class=""></path><path fill="#ecbd83" d="M256 154.414a8.122 8.122 0 0 1-8.127-8.127c0-81.262-15.754-135.309-15.921-135.841-1.27-4.302 1.175-8.825 5.476-10.103a8.11 8.11 0 0 1 10.103 5.468c.683 2.27 16.595 56.659 16.595 140.476a8.12 8.12 0 0 1-8.126 8.127z" data-original="#ecbd83" class=""></path><path fill="#b3e59f" d="M329.143 130.033a128.74 128.74 0 0 0-42.731 7.287c-9.82 3.445-20.117 5.167-30.412 5.167s-20.591-1.722-30.412-5.167a130.881 130.881 0 0 0-6.116-1.978c-11.653-3.453-23.925.324-36.615.324-76.303 0-102.524 60.439-102.524 141.944S125.969 503 190.984 503c11.914 0 22.431 1.61 31.346-.5 11.061-2.618 22.366-3.927 33.67-3.927s22.61 1.309 33.67 3.927c8.915 2.11 17.916 5.5 29.83 5.5 8.003 0 17.731 1.679 26.045-2.536 59.226-30.025 121.756-156.381 121.756-227.854 0-81.505-61.855-147.577-138.158-147.577z" data-original="#b3e59f" class=""></path><path fill="#95d6a4" d="M303.615 495.136c-4.909-1.244-8.543-2.163-10.201-2.556a162.671 162.671 0 0 0-39.421-4.351c-26.057.331-51.176-10.772-66.754-31.661-38.729-51.932-69.397-128.89-69.397-178.958 0-67.951 43.116-125.116 101.631-142.268a128.792 128.792 0 0 0-36.615-5.31c-76.303 0-138.158 66.073-138.158 147.578S125.969 512 190.984 512c11.914 0 22.431-1.493 31.346-3.603 3.688-.873 7.409-1.542 11.142-2.12 1.015-.205 15.225-1.807 22.528-1.807a146.2 146.2 0 0 1 33.67 3.927c8.915 2.11 19.432 3.603 31.346 3.603 7.991 0 16.228-2.333 24.529-6.536-11.211-2.644-25.19-6.086-41.93-10.328z" data-original="#95d6a4" class=""></path></g></svg>